<?xml version="1.0" encoding="utf-8"?>
<!-- Generator: Adobe Illustrator 21.1.0, SVG Export Plug-In . SVG Version: 6.00 Build 0)  -->
<svg version="1.1" id="anji" xmlns="http://www.w3.org/2000/svg" xmlns:xlink="http://www.w3.org/1999/xlink" x="0px" y="0px"
	 viewBox="0 0 300 300" style="enable-background:new 0 0 300 300;" xml:space="preserve">
<style type="text/css">
	.st0{fill-rule:evenodd;clip-rule:evenodd;fill:#FFE310;}
	.st1{fill-rule:evenodd;clip-rule:evenodd;fill:#231F20;}
	.st2{fill-rule:evenodd;clip-rule:evenodd;fill:#408E47;}
	.st3{fill-rule:evenodd;clip-rule:evenodd;fill:#005EAC;}
	.st4{fill-rule:evenodd;clip-rule:evenodd;fill:#EC1C24;}
	.st5{fill:#231F20;}
	.st6{fill-rule:evenodd;clip-rule:evenodd;fill:#FFFFFF;}
</style>
<g>
	<path class="st0" d="M48.1,57.5l66.4-0.3l3.6,4l4.4,2.4l3.4-0.1l4.4-3.4l2.9-11.4l-4.2-5.4l-6.9,2.1l-2.5,0.5l-3.2-11.1l8.8-8
		l6.4-4.7l16,0.3l11.1,7.3l9.3-3.6l-5.2,8.3l3.4,13l3.3,12l4.3,3.9l6.1-0.1l3.9-5.9l67.3,0.8l-1.7,11.5l-3.3,5.9l3.7,3.4l-1.8,9.8
		l-5.6,11.7l5.8,0.4l-5.4,21.8l-3.9,5.4l4.8,1.7l-3.4,13.8l-7.8,17.3l3.7,0.9c-17.2,49.7-37.7,95.3-85.8,115.1
		c-51.1-19.1-70.5-68.3-87-115.7l2.5-0.8l-7.4-19.3l-2.7-12l2.7-0.6l-5.2-19l-2.5-8.9l6.9-1.2l-5.8-11.8L49,77.3h4.5l-4.1-13
		L48.1,57.5L48.1,57.5z"/>
	<path class="st1" d="M149.8,279c0.1,0,0.1,0,0.2-0.1c0.1,0,0.1,0,0.2,0.1v-0.1c46.6-15.6,71.5-67.4,88.4-119l-3.4,0
		c6.2-9.6,10-21.2,10.9-32.8l-3.7,0c5.1-7.8,6.8-18.7,7.5-27.7h-5.4c4.2-7.4,7.6-12.6,8-22.8l-4.2,0c4.4-4.3,4.9-15,5-20.1
		c-23.8,0-47.5,0-71.3,0l0,1.1c0,1.6-0.6,3-1.6,4l0,0c-1,1-2.4,1.7-4,1.7v0h0h0v0c-3.5,0-5.7-3.6-7-6.6c-0.4-1.1-0.8-2.3-1.2-3.5h0
		c-1.9-6.6-3-14.9-5.2-17.3c2.6-1.1,6.6-9.1,6.3-11.5c-10.7,9.3-14.9-1.7-26.8-3c-6-0.6-13.5,0.1-14.5,2.4c-0.4,0.6-0.6,1.3-0.8,2
		c-12.2,3-16,15.1-6.9,24.8l0.5,0.4c0.9,0.8,0.9,0.8,1.8,1.5c0.1-1.5-0.2-2.9,0.3-3.9c1.1-1.8,3.6-2.8,5.8-1.8
		c2.3,1.1,3,3.7,2.7,6.4h0c-0.4,1.3-0.8,2.5-1.2,3.6c-1.2,2.9-3.4,6.6-7,6.6v0h0h0v0c-1.5,0-2.9-0.6-4-1.7l0,0c-1-1-1.6-2.4-1.6-4
		l0-1.1c-23.8,0-47.5,0-71.3,0c0.1,5.1,0.6,15.9,5,20.1l-4.2,0c0.4,10.1,3.8,15.4,8,22.8h-5.4c0.7,9,2.5,19.8,7.5,27.7l-3.7,0
		c0.9,11.7,4.8,23.2,10.9,32.8l-3.4,0c16.9,51.6,41.8,103.4,88.4,119V279L149.8,279z M134.7,53.1L134.7,53.1L134.7,53.1L134.7,53.1
		L134.7,53.1c0.3-2.1,0-4.1-0.9-5.6c-2.3-4.2-8-5.3-11.6-2.4c2.8-6.6,9.2-2.2,12.9-1.7c3.3,0.6,4.3,0,5.1,0.1
		c-3.9-1.2-7.8-3.6-11.7-4.9c-5.1-1.4-7.8,1.8-7.3,7.6c-0.3-0.3-0.5-0.7-0.7-1.1c-3.5-7-1.8-13.3,5.5-16.1c2.2-0.7,2.7-0.1,3.8,0.7
		c0.2,0.4,0.5,0.8,0.7,1.2c0.3,0.6,1.1,1.5,1.5,2.8c0.6,1.4,1.4,3.4,4.8,6.6c-0.9-2.1-3.4-7.5,1-5.4c1.1,1.8,1.6,4.3,2.8,4.8
		c1.1-1.2,3-3.8,2.9-5.4c0.7,0,1.5,0,2.2,0c3.7,0.1,7.9,5.1,14.3,3.2c1.2,0.8,2.3,2.2,3.2,6.7c0.6,2.3,1.1,5.5,2,8.7h0
		c1.8,6.3,4.7,13,11.2,13v0h0h0v0c2.3,0,4.4-1,5.9-2.5h0c1.2-1.2,2-2.7,2.3-4.5c21.9,0,43.7,0,65.6,0c-0.1,6.6-2,18.2-12.1,20.1
		l11.1,0c-0.4,5.6-4.9,18.8-12.4,22.8h10c-0.8,7.9-3.2,24-12.2,27.7l7.8,0c-0.4,12.7-9.4,32.6-14.9,32.9l7.3,0
		c-14.5,44.7-39.9,98.1-84.9,113.5c-44.9-15.4-70.3-68.8-84.9-113.5l7.3,0c-5.5-0.3-14.5-20.1-14.9-32.9l7.8,0
		c-9-3.7-11.4-19.8-12.2-27.7h10c-7.5-3.9-12-17.2-12.4-22.8l11.1,0c-10.2-1.9-12-13.5-12.1-20.1c21.9,0,43.7,0,65.6,0
		c0.3,1.7,1.1,3.3,2.3,4.5h0c1.5,1.5,3.6,2.5,5.9,2.5v0h0h0v0C130,66,132.9,59.4,134.7,53.1L134.7,53.1z M164.6,29.7
		c-1.4,1.2-4.9,3.7-8.6,2.3c-3.5-7.9-17.9-9.8-25.2-6.8c-1.6,0.6-1.4,2.2-0.7,3.8c1.1,0.6,1.5,0.5,2.6,0.4c0.3,0,0.5,1.1,0.9,1.8
		c0.3-0.6,0.5-1.4,0.7-1.3c3.6,0.6,10.2,0,21,5.1C158.9,36.8,163.5,32.8,164.6,29.7L164.6,29.7z"/>
	<polygon class="st2" points="197.9,176.4 197.1,178.4 195.9,180.8 194.4,183.4 193.4,184.7 192.6,185.9 106.3,185.9 105.3,184.5 
		104.4,183.2 103.1,180.9 102,178.6 101.1,176.4 197.9,176.4 	"/>
	<polygon class="st3" points="182,196.4 116.9,196.4 114.4,194.5 111.9,192.3 109.7,190 108.1,188.2 106.4,185.9 192.6,185.9 
		191.1,188 189.2,190.1 187.6,191.8 185.9,193.3 184.3,194.7 182,196.4 	"/>
	<polygon class="st4" points="182,196.4 179.8,198 177.5,199.4 175.2,200.6 172.7,201.9 170,203.1 166.9,204.2 164.3,205 
		161.8,205.6 159.2,206.2 156.5,206.6 153.7,206.8 151.4,207 148.8,207 146.2,206.9 143.5,206.7 140.6,206.3 137.8,205.8 
		134.8,205.1 131.5,204 128.5,202.9 125.5,201.6 122.6,200.1 120.1,198.6 118.3,197.4 116.9,196.4 182,196.4 	"/>
	<path class="st5" d="M84.4,139.3c0.7-3.2,2.3-4.6,5-4.4c2.7,0.3,4,2,4,5.2l1.1,0.1l-0.3,3l-1.2-0.1c-0.6,3.2-2.3,4.6-4.9,4.4
		c-2.6-0.2-4-2-4-5.2l-0.8-0.1l0.3-3L84.4,139.3L84.4,139.3z M91.1,140c-0.1-0.5-0.3-1-0.7-1.3c-0.4-0.3-0.8-0.5-1.4-0.6
		c-0.5,0-1,0-1.5,0.3c-0.4,0.3-0.8,0.6-1,1.1L91.1,140L91.1,140z M90.8,142.9l-4.5-0.4c0.1,0.5,0.3,0.9,0.7,1.3
		c0.4,0.3,0.9,0.5,1.4,0.6c0.5,0,1-0.1,1.4-0.3C90.3,143.8,90.6,143.4,90.8,142.9L90.8,142.9z M84.8,131.3l1.2-3.3l4.8,0.1l-3.8-2.8
		l1.2-3.1l6.8,6c0.5,0.5,0.9,0.9,1.2,1.2c0.2,0.3,0.4,0.7,0.5,1.2c0.1,0.5,0,1-0.3,1.7c-0.1,0.4-0.4,1-0.9,1.8l-2.1-0.7
		c0.3-0.5,0.4-0.9,0.5-1.1c0.3-0.7,0.2-1.2-0.3-1.6L84.8,131.3L84.8,131.3z M89.2,119.8l5.3-8.5l2.3,1.3l-1.8,2.9l7.1,4.1l-1.7,2.8
		l-7.1-4.1l-1.8,2.9L89.2,119.8L89.2,119.8z M101.9,108.5l1.2-1.3c1.1-1.2,2.1-1.9,3.1-2.1c1-0.2,1.9,0.1,2.8,0.9
		c0.8,0.6,1.1,1.4,1,2.3c-0.1,0.9-0.6,1.8-1.5,2.8l-3.9,4.2l-8.2-7l6.1-6.7l1.7,1.4l-3.9,4.2L101.9,108.5L101.9,108.5z M105.1,111.3
		l1.2-1.3c0.7-0.8,0.8-1.4,0.2-1.9c-0.5-0.4-1.1-0.3-1.8,0.5l-1.2,1.2L105.1,111.3L105.1,111.3z M109.1,102.4
		c-1-1.4-1.4-2.8-1.1-4.1c0.3-1.3,1.1-2.5,2.6-3.5c1.5-1,2.9-1.4,4.3-1.1c1.4,0.2,2.5,1.1,3.5,2.5c0.7,1,1.1,2,1.2,2.9
		c0.1,0.9,0,1.7-0.5,2.5c-0.4,0.8-1.1,1.5-2.1,2.2c-1,0.7-2,1.1-2.9,1.2c-0.9,0.1-1.8,0-2.7-0.4
		C110.6,104.2,109.8,103.5,109.1,102.4L109.1,102.4z M111.9,100.6c0.6,0.9,1.2,1.4,1.9,1.6c0.6,0.2,1.2,0,1.8-0.3
		c0.6-0.4,0.9-0.9,1-1.5c0.1-0.6-0.3-1.4-0.9-2.4c-0.6-0.8-1.2-1.3-1.8-1.5c-0.6-0.1-1.2,0-1.8,0.4c-0.6,0.4-0.9,0.9-1,1.5
		C111,99,111.3,99.7,111.9,100.6L111.9,100.6z M132.4,95.8l-3.1,1.3l-3.3-7.3l-2.4,1l1.3,3c0.5,1.2,0.9,2.2,1,2.8
		c0.1,0.6,0,1.2-0.4,1.7c-0.4,0.5-1.1,0.9-2.2,1.4c-0.3,0.1-0.7,0.3-1.2,0.4l-0.9-2l0.5-0.2c0.4-0.2,0.7-0.4,0.8-0.6
		c0.1-0.3,0-0.6-0.2-1.1l-2.9-6.4l8.6-3.6L132.4,95.8L132.4,95.8z M136.8,88.3l1.8-0.3c1.6-0.3,2.9-0.2,3.8,0.3
		c0.9,0.4,1.4,1.2,1.6,2.4c0.2,1-0.1,1.8-0.7,2.4c-0.6,0.6-1.6,1-3,1.3l-5.7,0.9l-1.8-10.4l3.3-0.5L136.8,88.3L136.8,88.3z
		 M137.5,92.4l1.7-0.3c1-0.2,1.5-0.6,1.4-1.3c-0.1-0.6-0.7-0.9-1.7-0.7l-1.7,0.3L137.5,92.4L137.5,92.4z M146.7,82.8l3.4,0.1
		l-0.1,3.7l3.7,0.1l0.1-3.7l3.4,0.1l-0.3,10.6l-3.4-0.1l0.1-4.3l-3.7-0.1l-0.1,4.3l-3.4-0.1L146.7,82.8L146.7,82.8z M164.2,88.6
		l1.7,0.5c1.6,0.4,2.7,1,3.3,1.8c0.6,0.8,0.8,1.7,0.4,2.9c-0.3,0.9-0.8,1.6-1.7,1.9c-0.9,0.3-1.9,0.3-3.3-0.1l-5.6-1.5l3-10.2
		l3.3,0.9L164.2,88.6L164.2,88.6z M163,92.7l1.7,0.5c1,0.3,1.6,0.1,1.8-0.7c0.2-0.6-0.2-1.1-1.3-1.4l-1.7-0.5L163,92.7L163,92.7z
		 M172.6,86.6l3.3,0.9l-3,10.2l-3.3-0.9L172.6,86.6L172.6,86.6z M189.6,95.5l-5.9,8.9l-2.7-1.7l3.2-4.9l-6.7,2.7l-2.7-1.7l5.9-8.9
		l2.7,1.7l-3.3,4.9l6.8-2.8L189.6,95.5L189.6,95.5z M189,92c-0.4,0.5-1,0.7-1.6,0.8c-0.6,0.1-1.2-0.1-1.8-0.5
		c-0.6-0.4-1-0.8-1.2-1.4c-0.2-0.6-0.2-1.1,0.1-1.7l1.1,0.7c-0.2,0.6,0.1,1.1,0.6,1.5c0.6,0.4,1.2,0.4,1.7,0L189,92L189,92z
		 M195.9,116.5l-2.5-2.8l1.3-2.8c0.3-0.7,0.4-1.1,0.5-1.3c0-0.2-0.1-0.5-0.3-0.7l-3.3,2.8l-2.2-2.4l8.2-7l2.2,2.4l-3.2,2.7
		c0.2,0.2,0.4,0.3,0.7,0.3c0.3,0,0.8-0.2,1.8-0.5c0.7-0.3,1.2-0.4,1.6-0.4c0.4,0,0.8,0.2,1.3,0.5c0.5,0.3,1.1,1,2,1.9l-1.7,1.5
		l-0.1-0.1c-0.4-0.4-0.7-0.7-1.1-0.7c-0.4-0.1-0.8,0-1.3,0.2c-0.5,0.2-0.9,0.3-1.2,0.3c-0.3,0-0.7-0.1-1-0.2
		c0.2,0.5,0.3,0.9,0.2,1.5c-0.1,0.5-0.3,1.2-0.6,2L195.9,116.5L195.9,116.5z M201.3,125.9l-1.7-2.8l7.1-4l-1.3-2.2l-2.9,1.6
		c-1.2,0.7-2.1,1.1-2.7,1.3c-0.6,0.2-1.2,0.1-1.8-0.2c-0.5-0.3-1.1-1-1.7-2c-0.2-0.3-0.4-0.7-0.5-1.1l1.9-1.1l0.3,0.4
		c0.2,0.4,0.5,0.6,0.8,0.7c0.3,0.1,0.6,0,1.1-0.3l6.3-3.5l4.8,7.8L201.3,125.9L201.3,125.9z M212.2,124.3l1,3.4l-4,2.6l4.8,0.2
		l0.9,3.2l-9.1-1.2c-0.7-0.1-1.3-0.2-1.7-0.3c-0.4-0.1-0.7-0.4-1.1-0.7c-0.3-0.3-0.6-0.9-0.8-1.6c-0.1-0.4-0.2-1-0.4-2l2.2-0.6
		c0.1,0.6,0.2,0.9,0.2,1.2c0.2,0.7,0.6,1.1,1.2,1.1L212.2,124.3L212.2,124.3z M211.7,140.5l0.1,1.7c0.1,1.6-0.1,2.8-0.6,3.6
		c-0.5,0.8-1.4,1.3-2.6,1.4c-1,0.1-1.8-0.2-2.4-0.9c-0.6-0.7-0.9-1.7-1-3l-0.4-5.6l10.9-0.8l0.7,8.9l-2.2,0.2l-0.4-5.6L211.7,140.5
		L211.7,140.5z M207.4,140.8l0.1,1.7c0.1,1,0.5,1.5,1.3,1.5c0.7-0.1,1-0.6,0.9-1.6l-0.1-1.7L207.4,140.8L207.4,140.8z"/>
	<polygon class="st6" points="149.9,96.1 149.9,96.1 149.9,96.1 149.9,96.1 149.9,96.2 128.7,110.9 125.2,108.1 99.4,128.3 
		123.8,111.7 127.8,114.9 149.9,98 172.1,114.9 176.1,111.7 200.5,128.3 174.7,108.1 171.2,110.9 150,96.2 150,96.1 149.9,96.1 	"/>
	<path class="st1" d="M149.8,106.1c7.5,0,13.6,6,13.6,13.4s-6.1,13.4-13.6,13.4c-7.5,0-13.6-6-13.6-13.4S142.3,106.1,149.8,106.1
		L149.8,106.1z"/>
	<path class="st0" d="M139.8,125.9c1.2,0.6,2.5,1.1,3.9,1.5c0.8-1.2,1.8-2.2,2.6-3.5c-1-2-1.5-3.6-1.9-5.8c-1.3-0.6-2.9-0.9-4.3-1.4
		c-0.8,1.3-1.5,2.7-2,4.2C138.4,123.2,138.5,123.9,139.8,125.9L139.8,125.9z"/>
	<path class="st1" d="M143.6,127.9c0.7,1.1,1.6,2.1,2.7,3.1c-0.3,0.3-0.8,0.5-1.1,0.7c-2.2-1-3.9-2.2-5.2-3.7c0-0.3,0-0.9,0-1.6
		C141.2,127.1,142.5,127.6,143.6,127.9L143.6,127.9z"/>
	<path class="st1" d="M139.7,116.5c0-1.3,0.3-3,0.6-4.2c-0.7,0.2-1,0.4-1.8,0.8c-1.2,2-1.5,3.8-1.8,6c0.2,0.2,0.6,0.7,1,1.3
		C138.3,119.1,139.1,117.4,139.7,116.5L139.7,116.5z"/>
	<path class="st0" d="M140.6,111.7c-0.3,0-1,0.5-1.5,0.5c1.7-2.1,3.8-4.1,6.6-4.9c-0.1,0.2-0.2,0.5-0.3,0.8
		C143.3,109.1,142,110.1,140.6,111.7L140.6,111.7z"/>
	<path class="st0" d="M137.7,121.2c-0.2-0.2-0.5-1-0.9-1.2c0.1,2.6,0.8,5.2,2.7,7.4c0-0.2-0.1-0.9-0.1-1.2
		C138.3,124.4,138,123.3,137.7,121.2L137.7,121.2z"/>
	<path class="st0" d="M159.9,125.8c-1.2,0.6-2.5,1.2-3.9,1.6c-0.8-1.2-1.8-2.2-2.6-3.5c1-2,1.5-3.6,1.9-5.8c1.3-0.6,2.9-0.9,4.3-1.4
		c0.9,1.3,1.4,2.7,1.9,4.2C161.2,123.2,161.1,123.8,159.9,125.8L159.9,125.8z"/>
	<path class="st0" d="M149.8,124.4c1,0,2-0.1,3-0.2c0.9,1.1,1.9,2.3,2.8,3.5c-0.8,1.2-1.6,2.3-2.9,3.2c-2.3,0.4-3.5,0.4-5.8,0
		c-1.3-0.9-2.1-2-2.9-3.2c0.8-1.2,1.9-2.4,2.8-3.5C147.9,124.4,148.8,124.4,149.8,124.4L149.8,124.4L149.8,124.4z"/>
	<path class="st1" d="M149.9,114.4L149.9,114.4L149.9,114.4c-1.7,0.9-3.6,2.4-5,3.6c0.5,2.4,1.1,4.1,1.9,5.7
		c1.1,0.2,2.1,0.2,3.1,0.2h0c1,0,2-0.1,3.1-0.2c0.8-1.6,1.4-3.3,1.9-5.7C153.4,116.8,151.5,115.3,149.9,114.4L149.9,114.4z"/>
	<path class="st1" d="M149.8,106.6c1.2,0,2.3,0.2,3.3,0.5c0.2,0.2,0.3,0.5,0.6,1c-1.4,0.3-2.8,0.6-3.9,1.1l0,0h0h0l0,0
		c-1.1-0.4-2.5-0.8-3.9-1.1c0.2-0.5,0.4-0.8,0.6-1C147.5,106.7,148.7,106.6,149.8,106.6L149.8,106.6L149.8,106.6L149.8,106.6
		L149.8,106.6z"/>
	<path class="st1" d="M156.1,127.9c-0.7,1.1-1.6,2.1-2.7,3.1c0.3,0.3,0.8,0.5,1.1,0.7c2.2-1,3.9-2.2,5.2-3.7c0-0.3,0.1-1,0.1-1.6
		C158.6,127,157.2,127.6,156.1,127.9L156.1,127.9z"/>
	<path class="st1" d="M160,116.5c0-1.3-0.3-3-0.6-4.2c0.7,0.2,1,0.4,1.8,0.8c1.2,2,1.5,3.8,1.8,6c-0.2,0.2-0.6,0.7-1,1.3
		C161.4,119.1,160.6,117.4,160,116.5L160,116.5z"/>
	<path class="st0" d="M159.1,111.7c0.3,0,1,0.5,1.5,0.5c-1.7-2.1-3.8-4.1-6.6-4.9c0.1,0.2,0.2,0.5,0.3,0.8
		C156.4,108.9,157.7,110.1,159.1,111.7L159.1,111.7z"/>
	<path class="st0" d="M162,121.2c0.3-0.3,0.5-0.7,0.9-1.2c-0.1,2.6-0.8,5.2-2.7,7.4c0-0.2,0.1-0.9,0.1-1.2
		C161.4,124.4,161.7,123.3,162,121.2L162,121.2z"/>
	<path class="st0" d="M153.7,132c-0.2-0.1-0.6-0.5-0.9-0.6c-2.1,0.4-3.8,0.4-5.8,0c-0.3,0.1-0.8,0.5-0.9,0.6
		C148,132.6,151,132.6,153.7,132L153.7,132z"/>
	<path class="st0" d="M153.9,108.5c-1.3,0.1-2.4,0.5-3.9,1c0.1,1.5,0,2.9,0.1,4.4c1.8,1.2,3.4,2.3,5.1,3.7c1.4-0.4,2.9-0.8,4.3-1.2
		c-0.1-1.5-0.3-3-0.8-4.5C157.3,110.2,155.9,109.2,153.9,108.5L153.9,108.5z"/>
	<path class="st0" d="M145.8,108.5c1.3,0.2,2.5,0.4,3.9,1c-0.1,1.5,0,2.9-0.1,4.4c-1.8,1.2-3.4,2.3-5.1,3.7
		c-1.4-0.4-2.9-0.8-4.3-1.2c0.1-1.5,0.3-2.3,0.8-4.5C142.5,110.3,143.6,109.5,145.8,108.5L145.8,108.5z"/>
	<polygon class="st5" points="161.6,233.5 161.6,249.5 158.8,249.5 158.8,240.9 158.8,233.5 161.6,233.5 	"/>
	<path class="st5" d="M153.7,240.3c0,0.7,0.1,1.1,0.2,1.2c0.1,0.2,0.3,0.2,0.4,0.2c0.2,0,0.3-0.1,0.4-0.3c0.1-0.2,0.1-0.6,0.1-1.2
		v-2.9c0-0.7,0-1.1-0.1-1.4c-0.1-0.2-0.2-0.3-0.4-0.3c-0.1,0-0.3,0.1-0.4,0.3c-0.1,0.2-0.2,0.6-0.2,1.4V240.3L153.7,240.3z
		 M150.8,245.2h2.9c0,0.7,0,1.2,0,1.4c0,0.2,0.1,0.4,0.2,0.5c0.1,0.1,0.2,0.2,0.4,0.2c0.1,0,0.3-0.1,0.4-0.2
		c0.1-0.1,0.1-0.3,0.2-0.5c0-0.2,0-0.6,0-1.2v-2.5c-0.1,0.4-0.4,0.7-0.6,1c-0.3,0.2-0.6,0.3-1.1,0.3c-0.5,0-1-0.2-1.4-0.6
		c-0.4-0.4-0.7-0.9-0.8-1.4c-0.1-0.6-0.2-1.3-0.2-2.2v-1.3c0-1.1,0-1.9,0.1-2.5c0.1-0.5,0.2-1,0.5-1.5c0.3-0.5,0.6-0.8,1.1-1.1
		c0.5-0.3,1-0.4,1.6-0.4c0.8,0,1.4,0.2,1.9,0.4c0.5,0.3,0.9,0.7,1.1,1.3c0.3,0.6,0.4,1.1,0.5,1.7c0,0.6,0.1,1.8,0.1,3.5v2.2
		c0,1.9,0,3.2-0.1,3.8c0,0.6-0.2,1.2-0.5,1.8c-0.3,0.6-0.7,1-1.2,1.3c-0.5,0.3-1.1,0.4-1.7,0.4c-0.8,0-1.5-0.2-2-0.5
		c-0.5-0.4-0.9-0.9-1.1-1.5C150.9,247.1,150.8,246.2,150.8,245.2L150.8,245.2z"/>
	<path class="st5" d="M142.9,245.2h2.9c0,0.7,0,1.2,0,1.4c0,0.2,0.1,0.4,0.2,0.5c0.1,0.1,0.2,0.2,0.4,0.2c0.1,0,0.3-0.1,0.4-0.2
		c0.1-0.1,0.1-0.3,0.2-0.5c0-0.2,0-0.6,0-1.2v-2.5c-0.1,0.4-0.4,0.7-0.6,1c-0.3,0.2-0.6,0.3-1.1,0.3c-0.5,0-1-0.2-1.4-0.6
		c-0.4-0.4-0.7-0.9-0.8-1.4c-0.1-0.6-0.2-1.3-0.2-2.2v-1.3c0-1.1,0-1.9,0.1-2.5c0.1-0.5,0.2-1,0.5-1.5c0.3-0.5,0.6-0.8,1.1-1.1
		c0.5-0.3,1-0.4,1.6-0.4c0.8,0,1.4,0.2,1.9,0.4c0.5,0.3,0.9,0.7,1.1,1.3c0.3,0.6,0.4,1.1,0.5,1.7c0,0.6,0.1,1.8,0.1,3.5v2.2
		c0,1.9,0,3.2-0.1,3.8c0,0.6-0.2,1.2-0.5,1.8c-0.3,0.6-0.7,1-1.2,1.3c-0.5,0.3-1.1,0.4-1.7,0.4c-0.8,0-1.5-0.2-2-0.5
		c-0.5-0.4-0.9-0.9-1.1-1.5C143.1,247.1,142.9,246.2,142.9,245.2L142.9,245.2z M145.8,240.3c0,0.7,0.1,1.1,0.2,1.2
		c0.1,0.2,0.3,0.2,0.4,0.2c0.2,0,0.3-0.1,0.4-0.3c0.1-0.2,0.1-0.6,0.1-1.2v-2.9c0-0.7,0-1.1-0.1-1.4c-0.1-0.2-0.2-0.3-0.4-0.3
		c-0.1,0-0.3,0.1-0.4,0.3c-0.1,0.2-0.2,0.6-0.2,1.4V240.3L145.8,240.3z"/>
	<polygon class="st5" points="141.7,233.5 141.7,249.5 138.8,249.5 138.8,240.9 138.8,233.5 141.7,233.5 	"/>
	<path class="st5" d="M113.8,163.8v8.4h-3.6v-5.7l-1.4,5.7h-2.5l-1.5-5.6v5.6h-3.6v-8.4h5.3c0.2,0.5,0.3,1.1,0.5,1.8l0.6,2.2
		l0.9-3.9H113.8L113.8,163.8z M122.5,163.8l2.3,8.4h-4.2l-0.2-1.5H119l-0.2,1.5h-4.2l2.1-8.4H122.5L122.5,163.8z M120.3,169.2
		c-0.2-1-0.4-2.1-0.6-3.5c-0.4,1.6-0.7,2.8-0.8,3.5H120.3L120.3,169.2z M133.8,163.8l-1.4,3.7l2.2,4.7h-3.8
		c-0.5-0.8-0.9-1.9-1.2-3.1c-0.1,0.5-0.2,1.1-0.4,1.7l-0.4,1.4h-4l1.5-4.7l-1.5-3.7h4c0.1,0.2,0.2,0.6,0.4,1.2
		c0.2,0.4,0.3,0.8,0.4,1.1l0.9-2.3H133.8L133.8,163.8z M142.2,163.8l2.3,8.4h-4.2l-0.2-1.5h-1.5l-0.2,1.5h-4.2l2.1-8.4H142.2
		L142.2,163.8z M140,169.2c-0.2-1-0.4-2.1-0.6-3.5c-0.4,1.6-0.7,2.8-0.8,3.5H140L140,169.2z M150.9,169c-0.3,0.2-0.8,0.3-1.3,0.5
		c-0.5,0.1-1.1,0.2-1.6,0.2c-1,0-1.7-0.1-2.1-0.4c-0.4-0.3-0.7-0.7-0.7-1.4v-4h4.1v3.8c0,0.3,0.1,0.6,0.2,0.7
		c0.1,0.1,0.3,0.2,0.5,0.2c0.6,0,0.9-0.3,0.9-0.8v-3.8h4.1v8.4h-4.1V169L150.9,169z M156.6,163.7h4.1l0,3.6c0.8,0,1.2-0.2,1.2-0.7
		l0.1-1.6c0-0.6,0.2-1,0.7-1.2h3.8c-0.4,0.2-0.6,0.6-0.5,1.3l0,1.4c0,0.9-0.9,1.4-2.8,1.5c1.9,0.1,2.8,0.6,2.8,1.5l0,1.3
		c0,0.6,0.2,1.1,0.5,1.4h-3.8c-0.4-0.2-0.7-0.6-0.7-1.2v-1.7c0-0.2-0.1-0.4-0.4-0.5c-0.2-0.1-0.5-0.2-0.9-0.2l0,3.6h-4.1V163.7
		L156.6,163.7z M174.4,163.8l2.3,8.4h-4.2l-0.2-1.5h-1.5l-0.2,1.5h-4.2l2.1-8.4H174.4L174.4,163.8z M172.2,169.2
		c-0.2-1-0.4-2.1-0.6-3.5c-0.4,1.6-0.7,2.8-0.8,3.5H172.2L172.2,169.2z M187.4,172.2h-4.1v-6.8h-1.2v4.8c0,0.6-0.1,1.1-0.5,1.4
		c-0.3,0.3-0.8,0.4-1.4,0.5c-0.6,0.1-1.6,0.1-2.9,0.1h-0.6v-1.5c0.5,0,0.8,0,1-0.1c0.2-0.1,0.3-0.3,0.3-0.7v-6.2h9.4V172.2
		L187.4,172.2z M196.1,163.8l2.3,8.4h-4.2l-0.2-1.5h-1.5l-0.2,1.5h-4.2l2.1-8.4H196.1L196.1,163.8z M193.9,169.2
		c-0.2-1-0.4-2.1-0.6-3.5c-0.4,1.6-0.7,2.8-0.8,3.5H193.9L193.9,169.2z"/>
	<path class="st1" d="M117.6,208.8c-0.7,0.3-2.1,0.8-3.6-0.2c-0.2-0.1-1-0.7-1.2-0.8c3.9,1.9,6.5-4.9,11.9-2.5
		c1.9,1.2,1.4,3,1.9,4.5c0.9-0.3,1.8-0.4,3.2,0.9c0.1,0.1,0.2,0.2,0.3,0.3c0,0-0.1-0.1-0.1-0.1c-1.3-0.7-2.1-0.2-3,0.3
		c3,7,11.4,1.7,4.2-3.5c1.6,0.6,4.6,1.8,5,3.5c1.1-1,2.6-1.5,4.8-1.2c-5.1,0.7-3.9,7.7-11.6,5.7c-2.1-1.2-2.6-3.1-3.1-4.3
		c-0.9,0.4-1.9,0.5-3.3-0.8c-0.1-0.1-0.2-0.2-0.3-0.3c1.3,0.8,2.1,0.4,3.3-0.2c-0.5-2.7-2.8-5.9-5.2-3.4c-1.4,1.5-1.7,4.8-0.4,5.8
		C118.1,211.7,117.6,209.9,117.6,208.8L117.6,208.8z"/>
	<path class="st1" d="M101.4,195.5c-0.8,0-2.3,0.1-3.3-1.4c-0.1-0.1-0.7-1-0.8-1.2c3,3.1,7.9-2.4,12,1.6c1.4,1.7,0.3,3.3,0.2,4.9
		c1,0,1.8,0.3,2.7,1.9c0.1,0.1,0.1,0.2,0.2,0.3c0,0-0.1-0.1-0.1-0.1c-1-1.1-1.9-0.9-3-0.8c0.3,7.5,10.1,5.4,5.1-1.9
		c1.3,1.1,3.4,3.3,3.1,5c1.3-0.6,3.4-0.6,5.4,0.4c-5.1-1-6.4,6-13,1.5c-1.6-1.8-1.4-3.8-1.4-5.1c-1,0.1-2-0.2-2.8-1.8
		c-0.1-0.1-0.1-0.2-0.2-0.3c0.9,1.2,1.8,1,3.2,0.9c0.5-2.7-0.6-6.5-3.7-5c-1.9,0.9-3.3,3.9-2.4,5.4
		C100.8,198.4,100.9,196.5,101.4,195.5L101.4,195.5z"/>
	<path class="st1" d="M90.4,177.9c-0.7-0.2-2.2-0.7-2.7-2.4c-0.1-0.2-0.3-1.2-0.4-1.4c1.8,3.9,8.2,0.3,10.8,5.4
		c0.7,2.1-0.9,3.2-1.5,4.7c0.9,0.3,1.7,0.8,1.9,2.6c0,0.1,0,0.2,0,0.4c0-0.1,0-0.1-0.1-0.2c-0.5-1.4-1.5-1.5-2.5-1.7
		c-2.3,7.2,7.7,8.4,5.5-0.1c0.9,1.5,2.1,4.2,1.2,5.7c1.5-0.1,3.4,0.5,4.9,2.1c-4.4-2.6-8.1,3.6-12.8-2.7c-0.8-2.2,0-4,0.4-5.2
		c-1-0.3-1.8-0.8-2-2.7c0-0.1,0-0.2,0-0.4c0.4,1.4,1.4,1.6,2.7,1.9c1.4-2.4,1.7-6.3-1.7-5.9c-2.1,0.2-4.4,2.7-4.1,4.3
		C88.8,180.4,89.6,178.7,90.4,177.9L90.4,177.9z"/>
	<path class="st1" d="M86.2,157.8c-0.6-0.5-1.8-1.3-1.7-3.2c0-0.2,0.1-1.2,0.1-1.4c0.3,4.3,7.7,2.9,8.3,8.6
		c-0.1,2.2-1.9,2.7-3.1,3.9c0.8,0.6,1.3,1.3,0.9,3.1c0,0.1-0.1,0.2-0.1,0.3c0,0,0-0.1,0-0.2c0-1.5-0.9-1.8-1.8-2.4
		c-4.7,6,4.4,10.4,5.2,1.7c0.3,1.7,0.5,4.6-0.8,5.8c1.4,0.4,3,1.6,3.9,3.6c-3.3-3.9-8.9,0.7-11.1-6.8c0-2.4,1.4-3.8,2.2-4.8
		c-0.8-0.6-1.4-1.4-1-3.2c0-0.1,0.1-0.2,0.1-0.3c-0.1,1.4,0.7,1.9,1.9,2.6c2.2-1.8,3.8-5.3,0.4-6.1c-2-0.5-5.1,1.1-5.4,2.7
		C83.9,159.6,85.2,158.2,86.2,157.8L86.2,157.8z"/>
	<path class="st1" d="M180.6,208.8c0.7,0.3,2.1,0.8,3.6-0.2c0.2-0.1,1-0.7,1.2-0.8c-3.9,1.9-6.5-4.9-11.9-2.5
		c-1.9,1.2-1.4,3-1.9,4.5c-0.9-0.3-1.8-0.4-3.2,0.9c-0.1,0.1-0.2,0.2-0.3,0.3c0,0,0.1-0.1,0.1-0.1c1.3-0.7,2.1-0.2,3,0.3
		c-3,7-11.4,1.7-4.2-3.5c-1.6,0.6-4.1,1.7-4.4,3.4c-1.1-1-2.8-1.3-5.1-1.1c5,0.6,4.3,7.8,11.3,5.7c2.1-1.2,2.6-3.1,3.1-4.3
		c0.9,0.4,1.9,0.5,3.3-0.8c0.1-0.1,0.2-0.2,0.3-0.3c-1.2,0.8-2.1,0.4-3.3-0.2c0.5-2.7,2.8-5.9,5.2-3.4c1.4,1.5,1.7,4.8,0.4,5.8
		C180.1,211.7,180.6,209.9,180.6,208.8L180.6,208.8z"/>
	<path class="st1" d="M196.8,195.5c0.8,0,2.3,0.1,3.3-1.4c0.1-0.1,0.7-1,0.8-1.2c-3,3.1-7.9-2.4-12,1.6c-1.4,1.7-0.3,3.3-0.2,4.9
		c-1,0-1.8,0.3-2.7,1.9c-0.1,0.1-0.1,0.2-0.2,0.3c0,0,0.1-0.1,0.1-0.1c1-1.1,1.9-0.9,3-0.8c-0.3,7.5-10.1,5.4-5.1-1.9
		c-1.3,1.1-3.4,3.3-3.1,5c-1.3-0.6-3.4-0.6-5.4,0.4c5.1-1,6.4,6,13,1.5c1.6-1.8,1.4-3.8,1.4-5.1c1,0.1,2-0.2,2.8-1.8
		c0.1-0.1,0.1-0.2,0.2-0.3c-0.9,1.2-1.8,1-3.2,0.9c-0.5-2.7,0.5-6.5,3.7-5c1.9,0.9,3.3,3.9,2.4,5.4
		C197.4,198.4,197.3,196.5,196.8,195.5L196.8,195.5z"/>
	<path class="st1" d="M207.8,177.9c0.7-0.2,2.2-0.7,2.7-2.4c0.1-0.2,0.3-1.2,0.4-1.4c-1.8,3.9-8.2,0.3-10.8,5.4
		c-0.7,2.1,0.9,3.2,1.5,4.7c-0.9,0.3-1.7,0.8-1.9,2.6c0,0.1,0,0.2,0,0.4c0-0.1,0-0.1,0.1-0.2c0.5-1.4,1.5-1.5,2.5-1.7
		c2.3,7.2-7.7,8.4-5.5-0.1c-0.9,1.5-2.1,4.2-1.2,5.7c-1.5-0.1-3.4,0.5-4.9,2.1c4.4-2.6,8.1,3.6,12.8-2.7c0.8-2.2,0-4-0.4-5.2
		c0.9-0.3,1.8-0.8,2-2.7c0-0.1,0-0.2,0-0.4c-0.4,1.4-1.4,1.6-2.7,1.9c-1.4-2.4-1.7-6.3,1.8-5.9c2.1,0.2,4.4,2.7,4.1,4.3
		C209.4,180.4,208.6,178.7,207.8,177.9L207.8,177.9z"/>
	<path class="st1" d="M212,157.8c0.6-0.5,1.8-1.3,1.6-3.2c0-0.2-0.1-1.2-0.1-1.4c-0.3,4.3-7.7,2.9-8.3,8.6c0.1,2.2,1.9,2.7,3.1,3.9
		c-0.8,0.6-1.3,1.3-0.9,3.1c0,0.1,0.1,0.2,0.1,0.3c0,0,0-0.1,0-0.2c0-1.5,0.9-1.8,1.8-2.4c4.7,6-4.4,10.4-5.2,1.7
		c-0.3,1.7-0.5,4.6,0.8,5.8c-1.4,0.4-3,1.6-3.9,3.6c3.3-3.9,8.9,0.7,11.1-6.8c0-2.4-1.4-3.8-2.2-4.8c0.8-0.6,1.4-1.4,1-3.2
		c0-0.1-0.1-0.2-0.1-0.3c0.1,1.4-0.7,1.9-1.9,2.6c-2.2-1.8-3.8-5.3-0.4-6.1c2-0.5,5.1,1.1,5.4,2.7
		C214.3,159.6,212.9,158.2,212,157.8L212,157.8z"/>
	<path class="st1" d="M161.1,215.8c0.6,0.5,1.7,1.5,3.5,0.9c0.2,0,1.5-0.4,1.7-0.4c-4.4,0.5-5.1-7.1-10.5-6
		c-1.5,0.2-2.5,1.6-3.2,2.9c-0.9,1.6-2.8,2.1-3.4-2.6c-0.2,4.8-2.3,4.4-3.3,2.7c-0.8-1.4-1.7-2.7-3.2-2.9c-5.4-1.1-6.1,6.6-10.5,6
		c0.2,0,1.5,0.4,1.7,0.4c1.8,0.5,2.9-0.4,3.5-0.9c0.3,1,1.4,2.6,3.8,2.6c-1.6-0.6-3.1-3.4-1.5-5.6c3.7-4.3,6.3,3.3,8.5,4.8
		c0.5-0.9,0.1-2.3,1.1-2.3c1.1,0,0.7,1.4,1.5,2.3c2.2-2.3,4-9.6,7.9-4.8c1.5,2.2,0,5.1-1.5,5.6C159.7,218.4,160.8,216.8,161.1,215.8
		L161.1,215.8z M158.5,209.9l0.1,0C158.6,209.9,158.5,209.9,158.5,209.9L158.5,209.9L158.5,209.9z M140,209.8l-0.1,0
		C139.9,209.8,140,209.9,140,209.8L140,209.8L140,209.8z"/>
	<path class="st1" d="M175.6,128.3h6.5v10.4c4.3-11.4,9-10.3,13.9-10.6c0,10.8,0,21.6,0,32.3h-6.5V138c-4.3,1.8-7.9,16-7.5,22.4
		l-6.4,0.1L175.6,128.3L175.6,128.3z"/>
	<path class="st5" d="M113.4,160.5l0.1-10.2h-6.8c0,3.4,0.8,7.1,2.2,10.2H102c-3.6-11.8-3.5-31.9,14.4-31.9h3.4l-0.1,31.9H113.4
		L113.4,160.5z M113.5,136c-4,0.9-5.9,3.9-6.3,7.1h6.2L113.5,136L113.5,136z"/>
	<polygon class="st5" points="141.3,160.2 134.9,160.2 134.9,150.7 128.3,150.7 128.4,160.2 121.8,160.1 121.8,137.6 128.3,137.6 
		128.2,144.3 134.9,144.3 134.9,137.6 141.3,137.6 141.3,160.2 	"/>
	<path class="st5" d="M174.1,160h-7c0-3.8,0.2-8.1-3.4-10.1l-2,1.2v8.9c-2.3,0-4.6,0-6.9,0v-8.9l-2.2-1c-3.3,2.3-3.2,6.1-3.2,9.9h-7
		c-0.2-4.6-0.1-10.9,4.5-14.2c-1.4-1.6-4.2-4.1-4.4-8.3h7.2c0.2,2.2,2.7,5.6,5.1,6v-6c2.3,0,4.6,0,6.9,0v6c2.7-0.8,4.5-3.8,4.8-6
		l7.5-0.1c-0.5,4.2-3.2,6.8-4.7,8.3C174,149,174.3,155.4,174.1,160L174.1,160z"/>
</g>
</svg>
