<?xml version="1.0" encoding="utf-8"?>
<!-- Generator: Adobe Illustrator 21.1.0, SVG Export Plug-In . SVG Version: 6.00 Build 0)  -->
<svg version="1.1" id="rostov" xmlns="http://www.w3.org/2000/svg" xmlns:xlink="http://www.w3.org/1999/xlink" x="0px" y="0px"
	 viewBox="0 0 300 300" style="enable-background:new 0 0 300 300;" xml:space="preserve">
<style type="text/css">
	.st0{fill-rule:evenodd;clip-rule:evenodd;fill:#FFF100;}
	.st1{fill-rule:evenodd;clip-rule:evenodd;fill:#034EA1;}
	.st2{fill-rule:evenodd;clip-rule:evenodd;fill:#FFFFFF;}
	.st3{fill:#034EA1;}
</style>
<g>
	<g>
		<path class="st0" d="M90.4,239.2c-19.7-2.7-54.7-8.6-60-31.7c-4.1-17.8,11.1-41.3,20-56.1c4.6-7.6,15.6-24,16-32.7
			c0.3-6.2-1.2-12.8-2.7-18.8L47.8,35.6c19.9,9.5,30.5,15,53.6,15.6c21,0.5,32.8-7.3,48.6-19.7c15.9,12.4,27.6,20.2,48.6,19.7
			c23.1-0.6,33.7-6.1,53.6-15.6l-15.9,64.4c-1.5,6-2.9,12.6-2.7,18.8c0.4,8.6,11.4,25,16,32.7c8.9,14.7,24.1,38.3,20,56.1
			c-5.3,23.1-40.3,29-60,31.7c-24.1,3.3-45,8.6-59.6,29.3C135.4,247.8,114.5,242.5,90.4,239.2L90.4,239.2z"/>
		<path class="st1" d="M90.9,235.6c-17.9-2.5-52.1-8-57-29c-3.8-16.4,11.2-39.6,19.5-53.4c5-8.4,16-24.7,16.5-34.3
			c0.3-6.5-1.2-13.5-2.8-19.8l-14-57c18.1,8.6,27.1,12.2,48.2,12.7c20.5,0.5,33.1-6.6,48.7-18.7c15.5,12.1,28,19.2,48.7,18.7
			c21.1-0.5,30.1-4.1,48.2-12.7l-14,57c-1.5,6.3-3.1,13.3-2.8,19.8c0.4,9.6,11.4,26,16.5,34.3c8.3,13.8,23.3,37.1,19.5,53.4
			c-4.9,21-39.1,26.5-57,29c-20,2.8-46.8,9.2-59.1,26.6C137.7,244.9,110.8,238.4,90.9,235.6L90.9,235.6z"/>
		<path class="st0" d="M150,256.1c-4.9-6.9-26.8-19.6-58.6-24c-18.4-2.5-49.8-8-54-26.2c-3.2-13.6,8.3-32.7,19.1-50.8
			c5.5-9.1,16.5-25.5,17-36c0.3-7.1-1.4-15-2.9-20.8L58.4,48.6c9.9,4.7,20,9.2,42.8,9.8c25.9,0.6,41.4-12,48.8-17.7
			c7.4,5.8,22.9,18.4,48.8,17.7c22.8-0.6,33-5.1,42.8-9.8l-12.2,49.7c-1.5,5.9-3.2,13.7-2.9,20.8c0.5,10.6,11.5,26.9,17,36
			c10.9,18.1,22.3,37.1,19.1,50.8c-4.2,18.2-35.6,23.7-54,26.2C176.8,236.5,154.9,249.2,150,256.1L150,256.1z"/>
		<path class="st2" d="M174.8,65.8c12.8,0,23.1,10.4,23.1,23.1c0,12.8-10.3,23.1-23.1,23.1s-23.1-10.3-23.1-23.1
			C151.7,76.2,162,65.8,174.8,65.8L174.8,65.8z"/>
		<path class="st1" d="M179.6,66.6c5.6,1.2,10.4,4.4,13.7,8.9c-1-0.3-2-0.5-2.9-0.8c0.5,3.3-0.1,6.3-0.6,9.1
			c2.2,1.4,4.1,3.5,5.6,6.3c0.7-0.9,1.5-2.2,2.2-3.5c0.1,0.8,0.1,1.5,0.1,2.3c0,5-1.6,9.6-4.3,13.4c0-1-0.1-2.1-0.2-2.9
			c-3,1.5-6,1.9-8.8,2.2c-0.7,2.6-2.1,5-4.3,7.2c1.1,0.4,2.5,0.8,3.9,1c-2.8,1.2-5.9,1.9-9.1,1.9c-2.4,0-4.8-0.4-6.9-1.1
			c0.9-0.3,1.9-0.7,2.6-1c-2.3-2.4-3.6-5.1-4.8-7.7c-2.7,0.2-5.4-0.4-8.2-1.9c0,1.1,0,2.6,0.2,4c-3.5-4-5.7-9.2-5.7-15
			c0.6,0.8,1.3,1.6,1.8,2.2c1.5-2.9,3.7-5,5.9-7c-1-2.5-1.3-5.3-0.8-8.4c-1.1,0.3-2.5,0.8-3.8,1.5c2.8-4.8,7.2-8.4,12.6-10.2
			c-0.6,0.8-1.1,1.8-1.6,2.5c3.3,0.5,5.9,2,8.5,3.4c2.1-1.7,4.6-2.8,7.7-3.3C181.6,68.8,180.6,67.7,179.6,66.6L179.6,66.6z
			 M174.8,64.8c13.3,0,24.1,10.8,24.1,24.1c0,13.3-10.8,24.1-24.1,24.1c-13.3,0-24.1-10.8-24.1-24.1
			C150.7,75.6,161.5,64.8,174.8,64.8L174.8,64.8z"/>
		<path class="st1" d="M174.9,80c3,1.7,6,3.9,8.7,6.5c-0.4,3.5-1.6,7-3,10.2c-3.9,0.4-7.6,0.4-11.2,0c-1.4-3-2.4-6.7-3-10.2
			C168.8,84,171.8,81.7,174.9,80L174.9,80z"/>
		<path class="st1" d="M153.9,71.3c-17.7,23,1.7,59.4,22.5,68.2L156.2,161C134.6,137.7,132,93.7,153.9,71.3L153.9,71.3z M148.2,72.8
			c-19.4,23.6-14.3,68.4,6.1,90.2l-18.7,19.9C109,150,117.8,100.1,148.2,72.8L148.2,72.8z M133.7,184.9L114.8,205
			C77.5,153.7,106,95,141.1,76.5C112.4,104,108.4,153.9,133.7,184.9L133.7,184.9z"/>
		<path class="st3" d="M96.2,217.1c0-1.8,0.5-3.2,1.7-4.3c1.1-1,2.6-1.6,4.3-1.6h0.3v-1.4h3.7v1.4h0.3c1.8,0,3.2,0.5,4.3,1.6
			c1.1,1.1,1.7,2.5,1.7,4.3c0,1.8-0.6,3.3-1.7,4.3c-1.1,1-2.6,1.6-4.3,1.6h-0.3v1.7h-3.7V223h-0.3c-1.7,0-3.2-0.5-4.3-1.5
			C96.7,220.4,96.2,218.9,96.2,217.1L96.2,217.1z M106.2,213.9v6.5c0.8,0,1.3-0.2,1.7-0.6c0.5-0.5,0.7-1.4,0.7-2.7
			c0-1.3-0.2-2.2-0.7-2.7C107.5,214.1,106.9,213.9,106.2,213.9L106.2,213.9z M102.4,220.4v-6.5c-0.8,0-1.3,0.2-1.7,0.5
			c-0.5,0.5-0.7,1.4-0.7,2.7c0,1.3,0.2,2.2,0.7,2.7C101.1,220.2,101.7,220.4,102.4,220.4L102.4,220.4z M118,209.9v6.4l3.7-6.4h3.7
			l-3.3,4.9l3.2,9.9h-3.7l-2-6.4l-1.6,2.3v4.1h-3.7v-14.8H118L118,209.9z M136.7,212.5v3.6h0.7c0.6,0,1.2-0.1,1.6-0.4
			c0.5-0.3,0.8-0.8,0.8-1.4c0-0.6-0.2-1.1-0.7-1.4c-0.4-0.3-0.9-0.4-1.6-0.4H136.7L136.7,212.5z M132.9,224.7v-14.8h5.6
			c1.5,0,2.7,0.3,3.6,1c1,0.7,1.5,1.8,1.5,3.2c0,1.6-0.5,2.8-1.6,3.6c-0.9,0.7-2.2,1.1-3.8,1.1c-0.5,0-1,0-1.4-0.1v6H132.9
			L132.9,224.7z M144.5,217.3c0-2.2,0.4-3.9,1.2-5.3c1-1.6,2.5-2.4,4.5-2.4c2,0,3.5,0.8,4.5,2.4c0.8,1.3,1.2,3.1,1.2,5.3
			c0,2.2-0.4,3.9-1.2,5.2c-1,1.6-2.5,2.4-4.5,2.4c-2,0-3.5-0.8-4.5-2.4C144.9,221.2,144.5,219.5,144.5,217.3L144.5,217.3z
			 M148.5,217.3c0,1.7,0.1,2.9,0.3,3.5c0.3,0.9,0.7,1.4,1.5,1.4c0.7,0,1.2-0.5,1.4-1.4c0.2-0.7,0.3-1.9,0.3-3.6
			c0-1.7-0.1-2.9-0.3-3.6c-0.2-0.9-0.7-1.4-1.4-1.4c-0.7,0-1.2,0.5-1.4,1.4C148.7,214.4,148.5,215.6,148.5,217.3L148.5,217.3z
			 M164.7,219.3l3.2,0.3c0,1.6-0.5,2.9-1.4,3.9c-0.9,1-2.2,1.5-3.8,1.5c-2.1,0-3.6-0.8-4.6-2.4c-0.8-1.3-1.2-3.1-1.2-5.3
			c0-2.1,0.4-3.9,1.2-5.2c1-1.7,2.5-2.5,4.6-2.5c1.7,0,3,0.5,3.9,1.6c0.8,1,1.2,2.3,1.2,3.9h-3.5c0-0.7-0.1-1.3-0.3-1.7
			c-0.3-0.7-0.7-1-1.3-1c-0.7,0-1.2,0.5-1.5,1.5c-0.2,0.7-0.3,1.9-0.3,3.5c0,1.7,0.1,2.9,0.3,3.6c0.3,0.9,0.8,1.3,1.6,1.3
			c0.7,0,1.1-0.2,1.4-0.8C164.6,221,164.7,220.2,164.7,219.3L164.7,219.3z M169,212.7v-2.9h10.4v2.9h-3.3v11.9h-3.7v-11.9H169
			L169,212.7z M180.3,217.3c0-2.2,0.4-3.9,1.2-5.3c1-1.6,2.5-2.4,4.5-2.4c2,0,3.5,0.8,4.5,2.4c0.8,1.3,1.2,3.1,1.2,5.3
			c0,2.2-0.4,3.9-1.2,5.2c-1,1.6-2.5,2.4-4.5,2.4c-2,0-3.5-0.8-4.5-2.4C180.7,221.2,180.3,219.5,180.3,217.3L180.3,217.3z
			 M184.3,217.3c0,1.7,0.1,2.9,0.3,3.5c0.2,0.9,0.7,1.4,1.5,1.4c0.7,0,1.2-0.5,1.5-1.4c0.2-0.7,0.3-1.9,0.3-3.6
			c0-1.7-0.1-2.9-0.3-3.6c-0.2-0.9-0.7-1.4-1.5-1.4c-0.7,0-1.2,0.5-1.4,1.4C184.4,214.4,184.3,215.6,184.3,217.3L184.3,217.3z
			 M193.5,224.7v-14.8h6.2c1.3,0,2.4,0.3,3.2,1c0.8,0.7,1.2,1.5,1.2,2.5c0,0.9-0.3,1.6-0.8,2.3c-0.5,0.6-1.2,1-2,1.2
			c1,0.3,1.7,0.7,2.3,1.3c0.5,0.6,0.8,1.4,0.8,2.4c0,1.2-0.4,2.2-1.3,3c-0.9,0.7-2,1.1-3.5,1.1H193.5L193.5,224.7z M197.3,218.2v3.7
			h1.4c0.5,0,0.9-0.1,1.2-0.4c0.4-0.3,0.7-0.8,0.7-1.5c0-0.6-0.2-1-0.5-1.3c-0.3-0.3-0.8-0.5-1.4-0.5H197.3L197.3,218.2z
			 M197.3,212.5v3.2h1.2c0.6,0,1.1-0.2,1.4-0.4c0.3-0.3,0.5-0.7,0.5-1.2c0-0.6-0.2-1.1-0.6-1.3c-0.3-0.2-0.7-0.3-1.2-0.3H197.3
			L197.3,212.5z"/>
		<path class="st3" d="M140.9,231.5v7.9h1.4v1.6h-5.1v-1.6h1.4v-5.6l-1.4,0.4v-1.6c0.3,0,0.7-0.2,1.2-0.4c0.6-0.3,1-0.5,1.1-0.7
			H140.9L140.9,231.5z M143.5,238.6l2-0.3c0,0.3,0.1,0.6,0.2,0.8c0.1,0.3,0.4,0.4,0.7,0.4c0.4,0,0.6-0.2,0.8-0.7
			c0.2-0.4,0.3-1.1,0.3-1.9c-0.3,0.2-0.6,0.3-0.9,0.4c-0.3,0.1-0.6,0.2-0.9,0.2c-0.7,0-1.3-0.2-1.7-0.7c-0.5-0.5-0.7-1.1-0.7-1.8
			c0-1.1,0.3-1.9,0.9-2.6c0.6-0.6,1.4-1,2.5-1c1.2,0,2.1,0.5,2.7,1.6c0.5,0.9,0.7,1.9,0.7,3.2c0,1.3-0.3,2.4-0.8,3.3
			c-0.6,1.1-1.6,1.7-2.8,1.7C144.8,241.1,143.8,240.3,143.5,238.6L143.5,238.6z M147.5,235.5c0-0.8,0-1.4-0.1-1.7
			c-0.1-0.6-0.4-0.8-0.8-0.8c-0.3,0-0.6,0.2-0.8,0.5c-0.1,0.3-0.2,0.6-0.2,1c0,0.4,0.1,0.8,0.2,1c0.1,0.2,0.4,0.4,0.7,0.4
			c0.2,0,0.3,0,0.5-0.1C147.2,235.7,147.4,235.6,147.5,235.5L147.5,235.5z M152.4,237v-1.6h0.5c0.5,0,0.8-0.1,1.1-0.3
			c0.3-0.2,0.4-0.5,0.4-1c0-0.3-0.1-0.6-0.2-0.8c-0.2-0.2-0.4-0.3-0.7-0.3c-0.3,0-0.6,0.1-0.8,0.3c-0.2,0.2-0.3,0.5-0.4,0.8
			l-1.8-0.8c0.3-0.7,0.7-1.2,1.3-1.5c0.6-0.4,1.2-0.5,1.9-0.5c0.8,0,1.6,0.2,2.1,0.7c0.6,0.5,0.9,1.2,0.9,2c0,0.5-0.2,1-0.6,1.4
			c-0.4,0.3-0.8,0.5-1.4,0.7c0.7,0.1,1.3,0.3,1.6,0.6c0.5,0.4,0.7,0.9,0.7,1.6c0,0.9-0.4,1.6-1.2,2.1c-0.7,0.5-1.5,0.7-2.4,0.7
			c-0.7,0-1.4-0.2-1.9-0.5c-0.5-0.3-0.9-0.8-1.3-1.5l1.7-0.9c0.2,0.5,0.4,0.8,0.6,0.9c0.2,0.1,0.4,0.2,0.7,0.2
			c0.8,0,1.2-0.4,1.2-1.1c0-0.5-0.2-0.9-0.5-1.1c-0.2-0.1-0.6-0.2-1.1-0.2H152.4L152.4,237z M157.6,236.2c0-1.4,0.2-2.5,0.6-3.4
			c0.5-1,1.4-1.5,2.7-1.5c1.2,0,2.1,0.5,2.7,1.5c0.4,0.8,0.7,1.9,0.7,3.4c0,1.4-0.2,2.6-0.8,3.4c-0.6,1-1.4,1.4-2.6,1.4
			c-1.3,0-2.2-0.5-2.7-1.4C157.8,238.9,157.6,237.7,157.6,236.2L157.6,236.2z M160.9,232.9c-0.3,0-0.5,0.1-0.6,0.4
			c-0.1,0.3-0.2,0.7-0.2,1.4v2.9c0,0.7,0.1,1.2,0.2,1.5c0.1,0.3,0.3,0.4,0.7,0.4c0.3,0,0.5-0.1,0.6-0.4c0.1-0.3,0.2-0.7,0.2-1.4
			v-2.9c0-0.7-0.1-1.2-0.2-1.5C161.5,233.1,161.2,232.9,160.9,232.9L160.9,232.9z"/>
		<path class="st1" d="M90,61.8c-9-1.4-17.3-3.4-25.7-6.7l11.5,46.1c1.9,7.6,2.2,12.8,2.2,16.8c0,9.7-6.8,22.6-12.9,33.2
			c-9.5,16.6-18.8,30.1-20.4,46.7c-1.8,19.5,30.6,26.2,45.3,27.6V61.8L90,61.8z"/>
		<path class="st1" d="M210.1,61.8c9-1.4,17.3-3.4,25.7-6.7l-11.5,46.1c-1.9,7.6-2.2,12.8-2.2,16.8c0,9.7,6.8,22.6,12.9,33.2
			c9.5,16.6,18.8,30.1,20.4,46.7c1.8,19.5-30.6,26.2-45.3,27.6V61.8L210.1,61.8z"/>
	</g>
</g>
</svg>
