<?xml version="1.0" encoding="utf-8"?>
<!-- Generator: Adobe Illustrator 21.1.0, SVG Export Plug-In . SVG Version: 6.00 Build 0)  -->
<svg version="1.1" id="ska" xmlns="http://www.w3.org/2000/svg" xmlns:xlink="http://www.w3.org/1999/xlink" x="0px" y="0px"
	 viewBox="0 0 300 300" style="enable-background:new 0 0 300 300;" xml:space="preserve">
<style type="text/css">
	.st0{fill-rule:evenodd;clip-rule:evenodd;fill:#FFFFFF;}
	.st1{fill-rule:evenodd;clip-rule:evenodd;fill:#ABB9B8;}
	.st2{clip-path:url(#SVGID_2_);}
	.st3{fill-rule:evenodd;clip-rule:evenodd;fill:#EC1B34;}
	.st4{fill-rule:evenodd;clip-rule:evenodd;fill:#A91126;}
	.st5{fill-rule:evenodd;clip-rule:evenodd;fill:#8E93A9;}
	.st6{fill-rule:evenodd;clip-rule:evenodd;fill:#213165;}
	.st7{fill-rule:evenodd;clip-rule:evenodd;fill:#231E6B;}
	.st8{clip-path:url(#SVGID_6_);}
</style>
<g>
	<path class="st0" d="M119.3,121.2H22.2l43.5,32.3v32.1c0,6.1,2,9.2,2,9.2h-5.4l8.6,20.5l-8.6,20.7h20.6L71.6,272l49.6-36.1h57.5
		l48.7,36.1l-11.2-36.1h21.7l-9-20.3l6.3-14.5l-11.7-40.8l54.3-39.1H180L149.7,28L119.3,121.2z"/>
	<path class="st1" d="M119.3,121.2H22.2l43.5,32.3v32.1c0,6.1,2,9.2,2,9.2h-5.4l8.6,20.5l-8.6,20.7h20.6L71.6,272l49.6-36.1h57.5
		l48.7,36.1l-11.2-36.1h21.7l-9-20.3l6.3-14.5l-11.7-40.8l54.3-39.1H180L149.7,28L119.3,121.2z"/>
	<path class="st0" d="M122.6,125.4H34.8l35,25.7v27.6c0,0,0,4.3,0,5.4c0,2.4,0.3,6.2,2.2,9.6c2.4,4.4,4.2,5.1,4.2,5.1h-7.8
		c0,0,7.1,16.4,7.1,16.5c0-0.1-7.1,16.3-7.1,16.3h20.3L79.6,261l40.3-29.4h60.2l39.4,29.1l-9.1-29.1h21l-6.8-16.1l6.1-14.2
		l-12.2-42.5l46-33.4h-87.6l-27.2-83.8L122.6,125.4z"/>
	<g>
		<defs>
			<polygon id="SVGID_1_" points="125.6,129.5 47.3,129.5 110.9,175.6 86.9,250.6 149.6,204.5 212.4,250.6 188.4,175.6 252,129.5 
				173.6,129.5 149.6,55.3 			"/>
		</defs>
		<clipPath id="SVGID_2_">
			<use xlink:href="#SVGID_1_"  style="overflow:visible;"/>
		</clipPath>
		<g class="st2">
			<defs>
				<rect id="SVGID_3_" x="47.1" y="55.1" width="205.1" height="195.7"/>
			</defs>
			<clipPath id="SVGID_4_">
				<use xlink:href="#SVGID_3_"  style="overflow:visible;"/>
			</clipPath>
			<g style="clip-path:url(#SVGID_4_);">
				
					<image style="overflow:visible;" width="1204" height="1149" xlink:href="E39DF511D2E78A8.jpg"  transform="matrix(0.1703 0 0 0.1703 47.0965 55.1323)">
				</image>
			</g>
		</g>
	</g>
	<polygon class="st0" points="125.6,129.5 47.3,129.5 110.9,175.6 86.9,250.6 149.6,204.5 212.4,250.6 188.4,175.6 252,129.5 
		173.6,129.5 149.6,55.3 	"/>
	<polygon class="st3" points="125.6,129.5 47.3,129.5 110.9,175.6 86.9,250.6 149.6,204.5 212.4,250.6 188.4,175.6 252,129.5 
		173.6,129.5 149.6,55.3 	"/>
	<path class="st0" d="M95.9,238l53.1-38.9v-35.5L95.9,238z M204.1,239.1L183.2,174l-33.5-11L204.1,239.1z M116.6,174.5l32.5-11.6
		l-88.3-28.7L116.6,174.5z M170.6,134.2l-20.8,28.7l89.2-28.7H170.6z M128.9,134.2l20.1,28.2v-92L128.9,134.2z"/>
	<path class="st4" d="M95.9,238l53.1-38.9v-35.5L95.9,238z M204.1,239.1L183.2,174l-33.5-11L204.1,239.1z M116.6,174.5l32.5-11.6
		l-88.3-28.7L116.6,174.5z M170.6,134.2l-20.8,28.7l89.2-28.7H170.6z M128.9,134.2l20.1,28.2v-92L128.9,134.2z"/>
	<polygon class="st0" points="184.9,129.5 188.7,139 171.1,199 195.9,199 193.2,190.3 193.4,189.5 203.4,189.3 203.5,190.5 
		200.7,199 226.1,199 208.8,139.1 211.8,129.5 	"/>
	<polygon class="st5" points="184.9,129.5 188.7,139 171.1,199 195.9,199 193.2,190.3 193.4,189.5 203.4,189.3 203.5,190.5 
		200.7,199 226.1,199 208.8,139.1 211.8,129.5 	"/>
	<polygon class="st6" points="184.9,129.5 188.7,139 171.1,199 195.9,199 193.2,190.3 193.4,189.5 203.4,189.3 203.5,190.5 
		200.7,199 226.1,199 208.8,139.1 211.8,129.5 	"/>
	<path class="st7" d="M87.3,129.5h-0.2c-0.2,0-0.3,0-0.3,0c-2.2,0.1-5.2,0.4-9,3.7c-3.4,3.2-3.7,7.8-3.7,10c0,0.7,0,1.2,0,1.2v1.2
		v35.8c0,0,0.2,3.6,0.2,4.3c0.7,7.7,6.3,13.3,14.9,13.3c2.2,0,3.2,0,3.2,0h29.8l-5.2-18.5H92.7v-32.9h14.6l13.4,3.8l-5.4-21.9H88.7
		c0,0-0.2,0-0.7,0C87.8,129.5,87.6,129.5,87.3,129.5z"/>
	<path class="st6" d="M87.3,129.5h-0.2c-0.2,0-0.3,0-0.3,0c-2.2,0.1-5.2,0.4-9,3.7c-3.4,3.2-3.7,7.8-3.7,10c0,0.7,0,1.2,0,1.2v1.2
		v35.8c0,0,0.2,3.6,0.2,4.3c0.7,7.7,6.3,13.3,14.9,13.3c2.2,0,3.2,0,3.2,0h29.8l-5.2-18.5H92.7v-32.9h14.6l13.4,3.8l-5.4-21.9H88.7
		c0,0-0.2,0-0.7,0C87.8,129.5,87.6,129.5,87.3,129.5z"/>
	<polygon class="st7" points="151.1,129.5 144.8,150.1 144.8,129.5 120.1,129.5 126.4,138.8 126.4,188.6 122.2,199 147.7,199 
		145,188.6 145,174.6 151.3,188.6 148.7,199 177,199 160.1,162.3 170.6,129.5 	"/>
	<polygon class="st6" points="151.1,129.5 144.8,150.1 144.8,129.5 120.1,129.5 126.4,138.8 126.4,188.6 122.2,199 147.7,199 
		145,188.6 145,174.6 151.3,188.6 148.7,199 177,199 160.1,162.3 170.6,129.5 	"/>
	<path class="st0" d="M89.5,133.6c0,0-0.7,0-1,0c-2,0-4.7,0.2-7.1,2.5c-0.7,0.6-1.2,1.1-1.5,1.7c-0.8,1.6-1.4,3.1-1.4,4.1
		c-0.2,1.1-0.2,2.9-0.2,2.9l0.2,36.1v1c0,0.2-0.2,2.4,0.3,4.5c0.2,1.4,0.8,3,1.5,3.9c3.7,5,9.5,4.4,9.5,4.4l26.9,0.1l-3-10.4H91.5
		c0,0-0.2,0-0.5,0c-0.7,0-1.4-0.1-1.9-0.8c-0.3-0.4-0.5-0.7-0.5-1.3c0-0.4,0-0.8,0-1.2c0-0.7,0-1.4,0-1.4v-32.9
		c0-3.7,2.4-3.3,4.1-3.3c3.7,0,10.2,0,14,0l8,2.2l-3.2-12H89.5z"/>
	<path class="st0" d="M130.3,137.9c0,0.1,0,50.8,0,50.8l-2.2,6.1h14.2c0,0-1.4-6-1.4-6.1v-19.9h5.9l9.1,19.7l-1.5,6.2h16.2
		L156,162.8l8.8-29.2H154l-7.4,24.5h-5.8v-24.5h-13.4C127.4,133.6,130.1,137.8,130.3,137.9z"/>
	<polygon class="st7" points="148.4,202.7 74.3,202.7 79.5,215.4 74.3,227.9 148.9,227.9 225.9,227.9 220.5,215.4 225.9,202.7 	"/>
	<polygon class="st6" points="148.4,202.7 74.3,202.7 79.5,215.4 74.3,227.9 148.9,227.9 225.9,227.9 220.5,215.4 225.9,202.7 	"/>
	<path class="st0" d="M89,138.5c-2.4,0.1-3.7,1.8-3.7,1.8l3.9,4.1c0,0,0.5-0.8,1.9-0.8c0.3,0,0.5,0,0.8,0c0.3,0,14.4-0.1,14.7-0.1
		c0.3,0,8.1,2.2,8.1,2.2l-7.8-7.1c0,0-4.4,0-9.1,0C94.6,138.5,91.2,138.5,89,138.5z M81.2,136.2c-2.5,2.4-2.9,5.4-2.9,7.7
		c0,0.6,0,1,0,1v0.2l0.2,35c0,0,0,1,0,1.6c0,0.4,0,2.5,0,2.9c0.2,1.9,0.8,4.2,1.9,5.7c3.7,5,9.5,4.5,9.5,4.5s1.4,0.1,1.9,0
		c3.6,0,20.3,0,20.5,0h4.6l-8.1-5.4h-8h-8.6c0,0-1.7,0-2.4,0c-1.7-0.1-5.2-0.8-5.8-6.3c0-0.4,0-1,0-1.7c0-0.2,0-2.9,0-2.9v-33.7
		c0-3.6,1.4-4.5,1.4-4.5s-3.7-4.3-3.7-4.4C81.6,135.9,81.4,136.1,81.2,136.2z"/>
	<path class="st1" d="M89,138.5c-2.4,0.1-3.7,1.8-3.7,1.8l3.9,4.1c0,0,0.5-0.8,1.9-0.8c0.3,0,0.5,0,0.8,0c0.3,0,14.4-0.1,14.7-0.1
		c0.3,0,8.1,2.2,8.1,2.2l-7.8-7.1c0,0-4.4,0-9.1,0C94.6,138.5,91.2,138.5,89,138.5z M81.2,136.2c-2.5,2.4-2.9,5.4-2.9,7.7
		c0,0.6,0,1,0,1v0.2l0.2,35c0,0,0,1,0,1.6c0,0.4,0,2.5,0,2.9c0.2,1.9,0.8,4.2,1.9,5.7c3.7,5,9.5,4.5,9.5,4.5s1.4,0.1,1.9,0
		c3.6,0,20.3,0,20.5,0h4.6l-8.1-5.4h-8h-8.6c0,0-1.7,0-2.4,0c-1.7-0.1-5.2-0.8-5.8-6.3c0-0.4,0-1,0-1.7c0-0.2,0-2.9,0-2.9v-33.7
		c0-3.6,1.4-4.5,1.4-4.5s-3.7-4.3-3.7-4.4C81.6,135.9,81.4,136.1,81.2,136.2z"/>
	<path class="st0" d="M146.5,158.1l3.6,5.4h-14.5l5.4,5.5h5.9l9,19.6l-1.4,6.2h16.2l-8.6-5.3l-12-26.1l7.6-25l-3.7-4.9L146.5,158.1z
		 M130.3,137.9v29.7v21.2l-2.2,6.1h14.2l-6.8-5.3v-51l-8.3-5L130.3,137.9z"/>
	<path class="st1" d="M146.5,158.1l3.6,5.4h-14.5l5.4,5.5h5.9l9,19.6l-1.4,6.2h16.2l-8.6-5.3l-12-26.1l7.6-25l-3.7-4.9L146.5,158.1z
		 M130.3,137.9v29.7v21.2l-2.2,6.1h14.2l-6.8-5.3v-51l-8.3-5L130.3,137.9z"/>
	<path class="st0" d="M198.6,157.2l5.1,17.7h-10.5L198.6,157.2z M191,133.6l1.9,5.4l-5.4,19l-10.8,36.7l13.7,0.1
		c0,0-1.2-3.7-1.2-4.2c0.2-1.6,1.4-5.3,1.4-5.3l8.1-0.1l7.8,0.1c0,0,1.5,5.3,1.5,5.4c0,0.1-1.2,4.2-1.2,4.2h13.9l-16.2-56l1.5-5.4
		h-7.3H191z"/>
	<path class="st0" d="M198.5,157.4l5.1,17.5l6.9,5.3l-11.8-41.5L198.5,157.4z M192.9,139l-16.4,55.9h13.7l-6.9-5.3l2.7-9.2l4.6,5
		h15.7c0,0,1.7,5.3,1.7,5.4c0,0.1-1.4,4.2-1.4,4.2h14l-7.6-5.4l-2.5-9.4H186l12.5-41.6l-7.4-4.9L192.9,139z"/>
	<path class="st1" d="M198.5,157.4l5.1,17.5l6.9,5.3l-11.8-41.5L198.5,157.4z M192.9,139l-16.4,55.9h13.7l-6.9-5.3l2.7-9.2l4.6,5
		h15.7c0,0,1.7,5.3,1.7,5.4c0,0.1-1.4,4.2-1.4,4.2h14l-7.6-5.4l-2.5-9.4H186l12.5-41.6l-7.4-4.9L192.9,139z"/>
	<g>
		<defs>
			<polygon id="SVGID_5_" points="197.3,171.8 199.5,171.8 198.5,167.9 			"/>
		</defs>
		<clipPath id="SVGID_6_">
			<use xlink:href="#SVGID_5_"  style="overflow:visible;"/>
		</clipPath>
		<g class="st8">
			<defs>
				<rect id="SVGID_7_" x="197.1" y="167.8" width="2.5" height="4.1"/>
			</defs>
			<clipPath id="SVGID_8_">
				<use xlink:href="#SVGID_7_"  style="overflow:visible;"/>
			</clipPath>
			<g style="clip-path:url(#SVGID_8_);">
				
					<image style="overflow:visible;" width="14" height="23" xlink:href="E39DF511D2E78A9.jpg"  transform="matrix(0.1813 0 0 0.1768 197.1195 167.8223)">
				</image>
			</g>
		</g>
	</g>
	<path class="st0" d="M118.8,219.5v0.6h1.4v3.9h0.7v-3.9h1.4v-0.6H118.8z M125.4,221.9h1.5l0.3,0.4v0.8l-0.3,0.2h-1.5V221.9z
		 M124.7,219.5v4.5h2.5l0.7-0.7V222l-0.7-0.8h-1.9v-1.1h2.2v-0.6H124.7z M131.3,223.1v-2.6l0.3-0.4h1.2l0.3,0.4v2.6l-0.3,0.2h-1.2
		L131.3,223.1z M131.3,219.5l-0.8,0.7v3.1l0.8,0.7h1.9l0.8-0.7v-3.1l-0.8-0.7H131.3z M137.4,219.5l-0.5,3.6l-0.2,0.2l-0.5,0.1
		l0.2,0.7l0.7-0.2l0.7-0.6l0.3-3.2h1.4v3.9h0.7v-4.5H137.4z M143.7,221.8h1.5l0.3,0.4v1l-0.3,0.2h-1.5V221.8z M143,219.5v4.5h2.5
		l0.7-0.7v-1.4l-0.7-0.7h-1.9v-1.7H143z M151.4,219.5v1.8h-1.9v-1.8h-0.7v4.5h0.7v-2h1.9v2h0.7v-4.5H151.4z M155.8,221.8h1.4
		l0.3,0.4v1l-0.3,0.2h-1.4V221.8z M155,219.5v4.5h2.5l0.8-0.7v-1.4l-0.8-0.7h-1.7v-1.7H155z M159.1,224h0.7v-4.5h-0.7V224z
		 M165.1,219.5l-1.7,2.9l-0.2,0.5v-0.5v-2.9h-0.7v4.5h0.7l1.7-3l0.2-0.4v0.4v3h0.7v-4.5H165.1z M179.2,219.5l-0.3,3.6l-0.2,0.2
		l-0.5,0.1l0.2,0.7l0.7-0.2l0.5-0.6l0.3-3.2h1.5v3.9h0.7v-4.5H179.2z M191.4,221.9h1.5l0.3,0.4v0.8l-0.3,0.2h-1.5V221.9z
		 M190.7,219.5v4.5h2.5l0.7-0.7V222l-0.7-0.8h-1.9v-1.1h2.4v-0.6H190.7z M175,219.6l-0.8,1.8h-0.7v-1.9h-0.7v4.5h0.7v-2h0.5l1,1.9
		l0.8,0.2l0.3-0.7l-0.7-0.1l-0.8-1.6l0.8-1.6l0.7-0.2l-0.3-0.6L175,219.6z M115.1,221.9l-0.2,0.4v-0.4l-1.4-2.5l-0.7,0.2l1.7,3.3
		l-0.2,0.2v0.1h-0.7v0.7h0.8l0.5-0.5l1.7-3.9l-0.7-0.2L115.1,221.9z M186.6,221.9l-0.2,0.4v-0.4l-1.4-2.5l-0.7,0.2l1.7,3.3l-0.2,0.2
		v0.1h-0.8v0.7h1l0.5-0.5l1.7-3.9l-0.7-0.2L186.6,221.9z M106.8,222.5v-1.7l0.3-0.4h1v2.4h-1L106.8,222.5z M108.8,220.4h0.8l0.3,0.4
		v1.7l-0.3,0.4h-0.8V220.4z M108.1,219v0.7h-1.4l-0.7,0.8v2.2l0.7,0.7h1.4v0.7h0.7v-0.7h1.2l0.8-0.7v-2.2l-0.8-0.8h-1.2V219H108.1z
		 M164.8,217.8v0.5l-0.2,0.1h-0.8l-0.2-0.1v-0.5h-0.5v0.7l0.5,0.5h1.2l0.5-0.5v-0.7H164.8z"/>
	<path class="st0" d="M111.8,210.8l0.2-1l0.2,1l1,3.2h-2.4L111.8,210.8z M111,207.9l-3,9.7l1.5,0.5l0.8-2.6h3.2l0.8,2.6l1.5-0.5
		l-3-9.7H111z M122.8,213.2h3l0.7,0.7v1.7l-0.7,0.7h-3V213.2z M121.2,207.9v9.8h5.4l1.7-1.6v-2.9l-1.7-1.6h-3.7v-2.4h4.7v-1.4H121.2
		z M136.9,210.8l0.2-1l0.2,1l1,3.2h-2.4L136.9,210.8z M136.2,207.9l-3,9.7l1.4,0.5l0.8-2.6h3.4l0.8,2.6l1.5-0.5l-3.2-9.7H136.2z
		 M147.9,209.3h3.2l0.7,0.7v2l-0.7,0.7h-3.2V209.3z M146.4,207.9v9.8h1.5v-3.4h3.9l1.5-1.7v-3.2l-1.5-1.6H146.4z M160.6,215.5V210
		l0.7-0.7h2.7l0.8,0.7v5.5l-0.8,0.7h-2.7L160.6,215.5z M160.6,207.9l-1.7,1.6v6.7l1.7,1.6h4.1l1.7-1.6v-6.7l-1.7-1.6H160.6z
		 M173.9,213.4h2.9l0.8,0.6v1.6l-0.7,0.7h-3V213.4z M173.9,209.3h3l0.5,0.5v1.7l-0.7,0.4h-2.9V209.3z M172.2,207.9v9.8h5.4l1.7-1.6
		v-2.6l-1.2-1l0.8-0.7v-2.6l-1.4-1.3H172.2z M186.6,207.9l-1.7,1.6v6.7l1.7,1.6h3.9l1.7-1.6l-1.2-1.1l-1.2,1.2h-2.5l-0.7-0.7V210
		l0.7-0.7h2.4l0.7,0.7v1.2h1.7v-1.8l-1.7-1.6H186.6z M100.9,208.2l-1.9,3.8h-0.3l-1.9-3.8l-1.9-0.6l-0.5,1.4l1.2,0.4l1.7,3.3
		l-1.7,3.3l-1.2,0.4l0.5,1.4l1.9-0.6l2-3.8H99l1.9,3.8l2,0.6l0.5-1.4l-1.4-0.4l-1.7-3.3l1.7-3.3l1.4-0.4l-0.5-1.4L100.9,208.2z
		 M202.5,208.2l-2,3.8h-1.2v-4.2h-1.5v9.8h1.5v-4.2h1.2l2,3.8l1.9,0.6l0.5-1.4l-1.4-0.4l-1.7-3.3l1.7-3.3l1.4-0.4l-0.5-1.4
		L202.5,208.2z"/>
</g>
</svg>
