<?xml version="1.0" encoding="utf-8"?>
<!-- Generator: Adobe Illustrator 21.1.0, SVG Export Plug-In . SVG Version: 6.00 Build 0)  -->
<svg version="1.1" id="tosno" xmlns="http://www.w3.org/2000/svg" xmlns:xlink="http://www.w3.org/1999/xlink" x="0px" y="0px"
	 viewBox="0 0 300 300" style="enable-background:new 0 0 300 300;" xml:space="preserve">
<style type="text/css">
	.st0{fill:#515254;}
	.st1{fill:#EC1654;}
	.st2{fill:#F3EC62;}
	.st3{fill:#009462;}
	.st4{fill-rule:evenodd;clip-rule:evenodd;fill:#FFFFFF;}
	.st5{fill-rule:evenodd;clip-rule:evenodd;fill:#FFFFFF;stroke:#009462;stroke-width:0.5451;stroke-miterlimit:10;}
	.st6{fill-rule:evenodd;clip-rule:evenodd;fill:#515254;}
	.st7{fill:#FFFFFF;}
</style>
<g>
	<path class="st0" d="M150,274l-0.8-0.4C113.1,252.7,90.1,235,71.9,201c-15.5-29-16.5-71.2-16.2-111.9c0-3.8,0.1-7.3,0.1-10.7l0-1.1
		c0.1-8.1,0.2-16.5,0.2-24.6v-0.9l0.8-0.4C86.2,34.5,117.5,26,150,26c32.5,0,63.9,8.5,93.2,25.3l0.8,0.4v0.9c0,8,0.1,16.2,0.2,24.2
		l0,1.5c0,3.5,0.1,7,0.1,10.7c0.3,40.7-0.7,82.9-16.2,111.9c-18.1,33.9-41.2,51.7-77.3,72.6L150,274z"/>
	<g>
		<path class="st1" d="M239.5,55.4c-33.6-19.2-65.1-24.1-89.3-24.1c-24.2,0-55.6,4.9-89.2,24.1c0,8.2-0.1,16.9-0.2,24.7h178.9
			C239.6,72.3,239.5,63.6,239.5,55.4z"/>
		<path class="st2" d="M239.7,80.1H60.8c0,4.3-0.1,6.8-0.1,10.8h179.1C239.7,86.9,239.7,84.4,239.7,80.1z"/>
		<path class="st3" d="M60.6,90.9c-0.3,39.2,0.7,79.6,15.5,107.3c16.8,31.4,38,48.6,74.1,69.4c36.1-20.8,57.3-38,74.1-69.4
			c14.8-27.7,15.8-68.1,15.5-107.3H60.6z"/>
	</g>
	<g>
		<path class="st4" d="M145.1,61.1c0.4-0.8,0.9-1.2,1.3-1.8c1.2-1.5,2.4-2.9,3.6-4.4c0.3-0.3,0.3-0.3,0.5,0c0.8,0.9,1.5,1.8,2.3,2.8
			c0.7,0.9,1.5,1.8,2.2,2.7c0.2,0.2,0.3,0.4,0.5,0.7c-1.4,0-2.6,0-4,0c1.9,2.4,3.7,4.8,5.5,7.2c-1.2,0-2.4,0-3.5,0
			c1.9,2.3,3.7,4.6,5.6,7c-1.6,0-3.1,0-4.5,0c-0.9,0-1.8,0-2.7,0c-0.3,0-0.5,0.1-0.5,0.4c0,0.8,0,1.6,0,2.4c0,0.3-0.1,0.4-0.4,0.4
			c-0.5,0-1,0-1.5,0c-0.3,0-0.4-0.1-0.4-0.4c0-0.7,0-1.5,0-2.2c0-0.5-0.1-0.6-0.6-0.6c-2.3,0-4.6,0-7,0c1.9-2.4,3.7-4.7,5.6-7
			c-1.2,0-2.3,0-3.6,0c1.9-2.4,3.6-4.7,5.5-7.1C147.7,61.1,146.4,61.1,145.1,61.1z"/>
		<path class="st4" d="M126.1,60.9c0.4-0.7,0.9-1.2,1.3-1.7c1.2-1.5,2.4-2.9,3.5-4.3c0.2-0.3,0.3-0.3,0.5-0.1
			c0.7,0.9,1.5,1.8,2.2,2.7c0.7,0.9,1.4,1.8,2.1,2.7c0.2,0.2,0.3,0.4,0.5,0.7c-1.3,0-2.6,0-3.9,0c1.8,2.4,3.6,4.7,5.4,7
			c-1.2,0-2.3,0-3.5,0c1.8,2.3,3.6,4.5,5.5,6.8c-1.6,0-3,0-4.4,0c-0.9,0-1.8,0-2.6,0c-0.3,0-0.5,0.1-0.4,0.4c0,0.8,0,1.6,0,2.4
			c0,0.3-0.1,0.4-0.4,0.4c-0.5,0-1,0-1.5,0c-0.3,0-0.4-0.1-0.4-0.4c0-0.7,0-1.5,0-2.2c0-0.5-0.1-0.6-0.6-0.6c-2.2,0-4.4,0-6.8,0
			c1.8-2.3,3.6-4.6,5.5-6.9c-1.2,0-2.3,0-3.5,0c1.8-2.3,3.5-4.6,5.3-6.9C128.6,60.9,127.4,60.9,126.1,60.9z"/>
		<path class="st4" d="M164.5,60.9c0.4-0.8,0.9-1.3,1.3-1.8c1.2-1.5,2.4-3,3.6-4.5c0.3-0.3,0.3-0.3,0.5,0c0.8,0.9,1.5,1.9,2.3,2.8
			c0.7,0.9,1.5,1.8,2.2,2.7c0.2,0.2,0.3,0.4,0.5,0.7c-1.4,0-2.7,0-4.1,0c1.9,2.5,3.7,4.8,5.6,7.3c-1.2,0-2.4,0-3.6,0
			c1.9,2.4,3.7,4.7,5.6,7.1c-1.6,0-3.1,0-4.5,0c-0.9,0-1.8,0-2.7,0c-0.3,0-0.5,0.1-0.4,0.4c0,0.8,0,1.6,0,2.4c0,0.3-0.1,0.4-0.4,0.4
			c-0.5,0-1.1,0-1.6,0c-0.3,0-0.4-0.1-0.4-0.4c0-0.8,0-1.5,0-2.3c0-0.5-0.1-0.6-0.6-0.6c-2.3,0-4.6,0-7,0c1.9-2.4,3.8-4.7,5.7-7.1
			c-1.2,0-2.4,0-3.6,0c1.9-2.4,3.7-4.7,5.5-7.2C167.2,60.9,165.9,60.9,164.5,60.9z"/>
	</g>
	<g>
		<g>
			<path class="st5" d="M188.9,211.3c5.3-8.9,8.5-18.4,8.6-28.9c0.1-4-0.4-7.9-1.6-11.8c-3.1-10.4-9.1-18.8-17.7-25.5
				c-8.2-6.4-17.7-9.1-28-9.2c-2.4,0-4.7,0.2-7.1,0.6c-5.6,0.8-10.9,2.3-15.8,5.3c-4.9,3.1-9.4,6.6-13.1,11.1
				c-7.3,9-11.6,19.1-11.2,30.8c0.1,2.6,0.2,5.2,0.8,7.8c1.6,7.3,4.2,14.2,8.3,20.6c1.7,2.7,3.6,5.3,5.5,7.9c0.5,0.7,1,1.5,1,2.4
				c-0.1,1.1-1,1.8-2.1,1.5c-0.5-0.1-1.1-0.3-1.6-0.4c-1.6-0.4-2.5,0.4-2.5,1.9c0,2.2,0.4,4.4,0.8,6.6c0.4,1.9,1,2.5,2.9,2.5
				c3.3,0,6.5,0,9.7-0.5c3.7-0.5,6.1-2.5,7-5.9c0.4-1.6,0.3-3.3,0-4.9c-0.6-3.4-2.1-6.4-4-9.2c-1.8-2.7-3.6-5.4-5-8.3
				c-2.8-6.1-5.4-12.2-6.2-18.9c-0.4-3.2-0.3-6.4,0.6-9.5c2-7,5.9-12.9,11.7-17.4c5.5-4.2,11.8-6.6,18.8-7c4-0.3,8,0.4,11.8,1.6
				c8.5,2.8,14.5,8.3,18.7,16c2.7,4.9,4,10.1,3.4,15.6c-0.4,4.3-1.6,8.5-3.2,12.6c-2.3,5.8-5.1,11.3-8.7,16.4
				c-2.4,3.4-3.8,7.2-3.7,11.4c0.1,3.6,2.7,6.8,6.2,7.4c3.6,0.7,7.3,0.6,10.9,0.6c1.6,0,2.3-0.5,2.7-1.8c0.6-2.4,1-4.9,1-7.4
				c0-1.3-1-2-2.3-1.8c-0.6,0.1-1.2,0.3-1.7,0.5c-1,0.4-2.2-0.4-2.1-1.7c0.1-0.9,0.5-1.6,1-2.3C184.9,217.1,187.1,214.3,188.9,211.3
				z"/>
			<g>
				<path class="st6" d="M116.8,159.7c0-0.7,0.5-1.2,1.2-1.2c0.7,0,1.2,0.4,1.2,1.2c0,0.7-0.4,1.2-1.2,1.2
					C117.3,160.9,116.8,160.4,116.8,159.7z"/>
				<path class="st6" d="M189.6,188.5c-0.7,0-1.2-0.6-1.2-1.2c0-0.7,0.5-1.2,1.3-1.2c0.6,0,1.2,0.6,1.2,1.3
					C190.9,188,190.2,188.5,189.6,188.5z"/>
				<path class="st6" d="M182.4,158.5c0.7,0,1.2,0.5,1.2,1.2c0,0.7-0.5,1.2-1.2,1.2c-0.7,0-1.2-0.5-1.2-1.2
					C181.2,159,181.8,158.5,182.4,158.5z"/>
				<path class="st6" d="M175.3,220.9c-0.7,0-1.2-0.7-1.1-1.3c0.1-0.7,0.6-1.1,1.3-1.1c0.7,0,1.2,0.6,1.1,1.4
					C176.6,220.5,176,220.9,175.3,220.9z"/>
				<path class="st6" d="M123.7,219.7c0-0.7,0.6-1.2,1.2-1.2c0.7,0,1.2,0.6,1.2,1.2c0,0.7-0.6,1.2-1.2,1.2
					C124.2,220.9,123.7,220.4,123.7,219.7z"/>
				<path class="st6" d="M110.7,186.1c0.7,0,1.2,0.4,1.2,1.1c0,0.7-0.5,1.3-1.2,1.3c-0.6,0-1.2-0.6-1.2-1.2
					C109.5,186.6,110.1,186.1,110.7,186.1z"/>
				<path class="st6" d="M149.1,144.5c0-0.7,0.5-1.1,1.2-1.1c0.7,0,1.2,0.5,1.2,1.2c0,0.7-0.6,1.2-1.3,1.2
					C149.6,145.8,149,145.2,149.1,144.5z"/>
			</g>
		</g>
	</g>
	<g>
		<g>
			<path class="st0" d="M170.1,165.4c-5.3-5.3-12.3-8.2-19.8-8.2c-3.7,0-7.4,0.8-10.8,2.2c-3.3,1.4-6.3,3.4-8.9,6
				c-2.6,2.6-4.6,5.6-6,8.9c-0.6,1.3-1,2.7-1.4,4c0,0,0,0,0,0.1l0,0c-0.6,2.2-0.8,4.4-0.8,6.7c0,7.5,2.9,14.5,8.2,19.8
				c5.3,5.3,12.3,8.2,19.8,8.2c7.5,0,14.5-2.9,19.8-8.2c5.3-5.3,8.2-12.3,8.2-19.8C178.2,177.8,175.3,170.7,170.1,165.4z"/>
			<path class="st0" d="M177.3,177.8c-1.3-4.9-4-9.2-7.5-12.6c0,0.4-0.1,1-0.1,1.7c0,0.2,0,0.4,0,0.5c0.3,0.3,1.5,1.3,2.7,3
				c1.2,1.7,2.5,4,3,6.9c0.2,0,0.5,0.1,0.9,0.2C176.6,177.5,177,177.6,177.3,177.8z"/>
			<path class="st0" d="M157,163.9c-1.6-1.1-3.9-2.2-6.7-2.7c-2.7,0.4-5,1.6-6.7,2.7c-1.6,1.1-2.6,2.1-2.9,2.4
				c0.4,0.9,2.3,5.1,3.1,9c0.8-0.1,3.3-0.5,6.5-0.5c3.1,0,5.7,0.4,6.5,0.5c0.8-3.8,2.7-8.1,3.1-9C159.5,166,158.5,165,157,163.9z"/>
			<path class="st0" d="M130.8,167.4c0-0.5,0-0.9,0-1.3c0-0.3,0-0.6,0-0.8c-3.5,3.4-6.1,7.7-7.5,12.5c0.3-0.1,0.6-0.3,0.9-0.3
				c0.3-0.1,0.7-0.1,0.8-0.2c0.5-2.9,1.8-5.2,3-6.9C129.4,168.7,130.5,167.7,130.8,167.4z"/>
			<path class="st0" d="M129,187.2c-0.2,0.6-1.5,5.3,0,9.9c0.3,0.4,4.5,5.2,9.2,5.9c0.4-0.4,3.6-3.1,5.7-6.6
				c-0.7-0.7-5-5.2-6.3-10.7C136.9,185.6,133.1,185.9,129,187.2z"/>
			<path class="st0" d="M171.5,187.2c-4.1-1.2-7.9-1.5-8.6-1.6c-1.3,5.5-5.7,10-6.3,10.7c2,3.6,5.2,6.3,5.7,6.6
				c4.7-0.6,8.9-5.5,9.2-5.9C173,192.5,171.7,187.8,171.5,187.2z"/>
			<path class="st0" d="M150.3,211.4c-4.1,0-6.3-0.7-6.9-0.9l-1.5,1.4c2.7,0.8,5.4,1.3,8.4,1.3c2.9,0,5.7-0.4,8.4-1.3l-1.5-1.4
				C156.6,210.7,154.3,211.4,150.3,211.4z"/>
			<g>
				<path class="st7" d="M174.9,177.5c-0.4-2.9-1.8-5.3-3-7c-1.2-1.7-2.4-2.6-2.6-2.8c-0.3-0.1-2.9-1.4-6.7-1.4
					c-0.7,0-1.5,0-2.3,0.2c-0.4,0.8-2.3,5.2-3.1,9c0.3,0.4,1.4,1.6,2.6,3.3c1.2,1.8,2.5,4,3.2,6.4c0.8,0.1,4.5,0.4,8.6,1.6
					c1.6-1.7,2.4-3.9,2.9-5.8C174.9,179.1,174.9,177.7,174.9,177.5z"/>
				<path class="st7" d="M131.4,166.1c0,0.3,0,0.7,0,1c0.9-0.4,3.3-1.3,6.6-1.3c0.7,0,1.5,0.1,2.4,0.2c0.3-0.3,1.3-1.4,2.9-2.4
					c1.7-1.1,4-2.3,6.8-2.8v-3.5c-7.1,0.1-13.7,3-18.7,7.6C131.4,165.1,131.4,165.5,131.4,166.1z"/>
				<path class="st7" d="M143.4,175.5c-0.8-3.8-2.8-8.2-3.1-9c-0.8-0.1-1.6-0.2-2.3-0.2c-3.8,0-6.5,1.3-6.7,1.4
					c-0.2,0.1-1.3,1.1-2.6,2.8c-1.3,1.7-2.6,4.1-3.1,7c0,0.2,0.1,1.6,0.5,3.5c0.5,1.8,1.3,4.1,2.9,5.8c4.1-1.2,7.8-1.5,8.6-1.6
					c0.7-2.4,2-4.6,3.2-6.4C142,177,143,175.8,143.4,175.5z"/>
				<path class="st7" d="M157.3,163.6c1.6,1.1,2.6,2.1,2.9,2.4c0.8-0.1,1.6-0.2,2.3-0.2c3.3,0,5.7,0.9,6.6,1.3c0-0.1,0-0.2,0-0.3
					c0-1,0.1-1.8,0.2-2.1c-4.9-4.6-11.6-7.4-18.8-7.5v3.5C153.3,161.3,155.6,162.4,157.3,163.6z"/>
				<path class="st7" d="M177.4,178.4c-0.4-0.4-1.4-0.6-2.1-0.7c-0.1,1-0.4,6.1-3.5,9.4c0.2,0.7,1.5,5.3,0,10c1.3,0.6,2.5,1.4,3,1.7
					c2.2-4.1,3.4-8.7,3.4-13.5C178.3,182.9,178,180.6,177.4,178.4z"/>
				<path class="st7" d="M125.2,177.7c-0.6,0.1-1.6,0.3-2.1,0.7c0,0,0,0.1,0,0.1c0,0,0,0.1,0,0.1l0,0c-0.6,2.2-0.8,4.5-0.8,6.7
					c0,4.8,1.2,9.4,3.5,13.5c0.1-0.1,1.3-1,3-1.7c-1.5-4.6-0.2-9.3,0-10C125.6,183.8,125.2,178.7,125.2,177.7z"/>
				<path class="st7" d="M156.8,175.8c-0.4-0.1-3.1-0.5-6.5-0.5c-3.4,0-6.2,0.5-6.5,0.5c-0.4,0.5-4.4,4.9-5.8,9.7
					c1.3,5.6,6,10.2,6.4,10.7c0.4,0.1,2.7,0.3,5.9,0.3c3.2,0,5.5-0.3,5.9-0.3c0.5-0.5,5.1-5.1,6.4-10.7
					C161.2,180.7,157.2,176.2,156.8,175.8z"/>
				<path class="st7" d="M174.6,199.1c-0.4-0.3-1.6-1-2.8-1.6c-0.4,0.4-1.5,1.7-3.1,2.9c-1.7,1.3-3.8,2.6-6.1,2.9
					c-0.4,1.8-1.4,3.4-2.5,4.6c-1,1.2-2,2-2.4,2.3l1.6,1.5C165.7,209.6,171.2,205,174.6,199.1z"/>
				<path class="st7" d="M138.6,203.2c0.4,1.9,1.5,3.5,2.6,4.7c1.1,1.2,2.1,2,2.3,2.1c0.3,0.1,2.5,0.9,6.8,0.9
					c4.3,0,6.6-0.8,6.8-0.9c0.2-0.1,1.2-0.9,2.3-2.1c1.1-1.2,2.2-2.9,2.6-4.7c-0.6-0.5-3.7-3.2-5.7-6.7c-0.6,0.1-3,0.3-6,0.3
					c-3,0-5.4-0.3-6-0.3C142.3,200,139.2,202.7,138.6,203.2z"/>
				<path class="st7" d="M140.5,208c-1-1.2-2.1-2.8-2.5-4.6c-2.3-0.3-4.5-1.6-6.1-2.9c-1.6-1.3-2.8-2.5-3.1-2.9
					c-1.6,0.7-2.8,1.5-2.9,1.6c3.4,5.9,8.9,10.5,15.4,12.7l1.6-1.5C142.5,209.9,141.5,209.1,140.5,208z"/>
			</g>
			<path class="st7" d="M172.1,195.7L172.1,195.7C172,195.7,172,195.8,172.1,195.7C172,195.8,172.1,195.8,172.1,195.7z"/>
		</g>
	</g>
	<g>
		<polygon class="st7" points="98.5,107.8 90,107.8 90,128.5 81.2,128.5 81.2,107.8 72.7,107.8 72.7,100.7 98.5,100.7 		"/>
		<path class="st7" d="M160.3,128.5h-16.5c-3.2,0-5.4-0.4-6.6-1.3c-1.4-1-2.1-3.1-2.1-6.2v-13.1c0-2.9,0.7-4.9,2.2-5.9
			c1.2-0.8,3.4-1.2,6.5-1.2h16.5v7.2h-16.5V121h16.5V128.5z"/>
		<polygon class="st7" points="192.5,128.5 183.8,128.5 183.8,117.3 174.4,117.3 174.4,128.5 165.7,128.5 165.7,100.7 174.4,100.7 
			174.4,111.5 183.8,111.5 183.8,100.7 192.5,100.7 		"/>
		<path class="st7" d="M223,102c-1.2-0.9-3.4-1.3-6.4-1.3H207c-3,0-5.1,0.4-6.3,1.3c-1.5,1-2.3,3-2.3,5.8V121c0,3,0.7,5,2.1,6.1
			c1.2,0.9,3.4,1.4,6.5,1.4h9.6c3.1,0,5.3-0.5,6.5-1.4c1.4-1.1,2.1-3.1,2.1-6.2v-13.1C225.2,105,224.5,103,223,102 M216.6,121H207
			v-13.1h9.6V121z"/>
		<path class="st7" d="M127.1,102c-1.2-0.9-3.4-1.3-6.4-1.3h-9.6c-3,0-5.1,0.4-6.3,1.3c-1.5,1-2.3,3-2.3,5.8V121c0,3,0.7,5,2.1,6.1
			c1.2,0.9,3.4,1.4,6.5,1.4h9.6c3.1,0,5.3-0.5,6.5-1.4c1.4-1.1,2.1-3.1,2.1-6.2v-13.1C129.4,105,128.6,103,127.1,102 M120.8,121
			h-9.6v-13.1h9.6V121z"/>
	</g>
	<g>
		<path class="st7" d="M76,54.9c0.7-0.3,1.4-0.5,2.1-0.6c0.7-0.1,1.3-0.1,1.9,0.1c0.6,0.1,1.1,0.4,1.5,0.7c0.5,0.4,0.8,0.8,1,1.3
			c0.2,0.5,0.5,1,0.7,1.4c0.3,0.5,0.4,1.1,0.4,1.7c0,0.6-0.1,1.1-0.3,1.7c-0.2,0.5-0.6,1-1,1.5c-0.5,0.5-1,0.9-1.7,1.3
			c0.1,0.3,0.3,0.6,0.4,0.9c-0.6,0.3-1.2,0.6-1.8,0.9c-0.2-0.3-0.3-0.6-0.4-0.8c-0.7,0.3-1.4,0.5-2,0.6c-0.6,0.1-1.2,0.1-1.8,0
			c-0.6-0.1-1.1-0.3-1.5-0.7c-0.5-0.3-0.8-0.8-1.1-1.3c-0.3-0.5-0.5-0.9-0.8-1.4c-0.3-0.5-0.4-1-0.5-1.6c0-0.6,0.1-1.1,0.3-1.7
			c0.2-0.6,0.6-1.1,1-1.6c0.5-0.5,1-1,1.7-1.3c-0.1-0.2-0.2-0.3-0.3-0.5c0.6-0.3,1.3-0.7,2-1C75.9,54.5,75.9,54.7,76,54.9
			 M74.1,62.4c0.2,0.4,0.4,0.6,0.7,0.9c0.3,0.2,0.6,0.4,1,0.4c0.3,0.1,0.7,0.1,1.1,0c0.4-0.1,0.7-0.2,1.1-0.4c-1-2-2.1-4-3.1-5.9
			c-0.4,0.2-0.7,0.5-1,0.8c-0.3,0.3-0.5,0.6-0.6,0.9c-0.1,0.3-0.2,0.7-0.2,1c0,0.4,0.1,0.7,0.3,1.1C73.7,61.6,73.9,62,74.1,62.4
			 M80.8,57.5c-0.2-0.4-0.4-0.7-0.7-0.9c-0.3-0.2-0.6-0.4-0.9-0.5C78.8,56,78.4,56,78,56c-0.4,0.1-0.8,0.2-1.2,0.4c1,2,2,4,3,6
			c0.4-0.2,0.7-0.4,1-0.7c0.3-0.3,0.5-0.6,0.6-0.9c0.1-0.3,0.2-0.7,0.2-1c0-0.4-0.1-0.7-0.3-1.1C81.1,58.2,81,57.8,80.8,57.5"/>
		<path class="st7" d="M90.9,57.7c0,0.5,0,1-0.1,1.4c-0.1,0.4-0.2,0.7-0.3,1c-0.2,0.3-0.4,0.5-0.6,0.7c-0.2,0.2-0.5,0.3-0.8,0.5
			c-0.4,0.2-0.8,0.4-1.2,0.5c-0.2-0.5-0.4-1-0.7-1.5c0.3-0.1,0.7-0.3,1-0.4c0.3-0.1,0.5-0.3,0.6-0.4c0.1-0.2,0.2-0.4,0.2-0.7
			c0-0.1,0-0.2,0-0.3c-1.2-1.1-2.4-2.2-3.6-3.3c-1.2-1.1-2.4-2.2-3.7-3.3c0.7-0.3,1.4-0.6,2.1-0.9c0.1,0.1,0.2,0.2,0.5,0.5
			c0.3,0.3,0.6,0.6,0.9,0.9c0.4,0.3,0.7,0.7,1.1,1.1c0.4,0.4,0.8,0.8,1.1,1.1c0.4,0.4,0.7,0.7,0.9,0.9c0.3,0.3,0.4,0.5,0.5,0.5
			c0,0,0.1,0,0.1,0c0-0.2,0-0.5,0-0.9c0-0.4,0-0.8,0-1.3c0-0.5,0-1,0-1.5c0-0.5,0-1,0-1.5c0-0.5,0-0.9,0-1.3c0-0.4,0-0.6,0-0.8
			c0.7-0.3,1.3-0.5,2-0.8C90.9,51,90.9,54.4,90.9,57.7"/>
		<path class="st7" d="M97.4,47.2c1.1,3.1,2.1,6.2,3.2,9.3c-0.6,0.2-1.3,0.4-1.9,0.7c-1.1-3.1-2.2-6.2-3.3-9.3
			c-1.1,0.4-2.3,0.8-3.4,1.2c-0.2-0.5-0.4-1.1-0.6-1.6c2.9-1.1,5.9-2.2,8.9-3.1c0.2,0.5,0.3,1.1,0.5,1.6
			C99.7,46.4,98.6,46.8,97.4,47.2"/>
		<path class="st7" d="M101.6,44c2.6-0.8,5.1-1.5,7.7-2.2c0.1,0.6,0.3,1.1,0.4,1.7c-1.9,0.5-3.7,1-5.6,1.5c0.3,0.9,0.5,1.8,0.8,2.8
			c1-0.3,2.1-0.6,3.1-0.9c0.6-0.2,1.1-0.2,1.6-0.2c0.5,0.1,1,0.2,1.3,0.4c0.4,0.2,0.7,0.5,1,0.9c0.3,0.4,0.5,0.8,0.6,1.2
			c0.1,0.4,0.1,0.8,0.1,1.3c0,0.4-0.2,0.9-0.4,1.3c-0.2,0.4-0.5,0.8-0.9,1.1c-0.4,0.3-0.9,0.6-1.5,0.7c-1.6,0.5-3.3,0.9-4.9,1.4
			C103.9,51.4,102.7,47.7,101.6,44 M106.5,52.8c0.9-0.3,1.8-0.5,2.7-0.8c0.6-0.2,1-0.4,1.3-0.8c0.3-0.4,0.4-0.9,0.2-1.4
			c-0.1-0.5-0.4-0.9-0.9-1.1c-0.5-0.2-1-0.2-1.6-0.1c-0.9,0.2-1.8,0.5-2.7,0.8C105.8,50.6,106.1,51.7,106.5,52.8"/>
		<path class="st7" d="M123,46.9c0.1,0.6,0.1,1.2-0.1,1.7c-0.2,0.5-0.4,1-0.7,1.4c-0.3,0.4-0.8,0.7-1.3,1c-0.5,0.3-1.1,0.5-1.7,0.6
			c-0.6,0.1-1.2,0.2-1.8,0.1c-0.6-0.1-1.1-0.2-1.6-0.4c-0.5-0.2-0.9-0.6-1.2-1c-0.3-0.4-0.6-0.9-0.7-1.5c-0.3-1.3-0.6-2.7-1-4
			c-0.1-0.6-0.1-1.1,0-1.7c0.1-0.5,0.4-1,0.7-1.4c0.4-0.4,0.8-0.8,1.3-1.1c0.5-0.3,1.1-0.5,1.8-0.7c0.6-0.1,1.3-0.2,1.9-0.1
			c0.6,0.1,1.2,0.2,1.7,0.5c0.5,0.2,0.9,0.6,1.2,1c0.3,0.4,0.5,0.9,0.7,1.5C122.5,44.2,122.8,45.5,123,46.9 M120.3,43.5
			c-0.1-0.4-0.2-0.7-0.4-1c-0.2-0.3-0.4-0.5-0.7-0.6c-0.3-0.1-0.6-0.2-0.9-0.3c-0.3,0-0.7,0-1,0.1c-0.4,0.1-0.7,0.2-1,0.3
			c-0.3,0.2-0.5,0.4-0.7,0.6c-0.2,0.2-0.3,0.5-0.4,0.9c-0.1,0.3-0.1,0.7,0,1.1c0.3,1.1,0.5,2.3,0.8,3.4c0.1,0.4,0.2,0.8,0.4,1
			c0.2,0.3,0.4,0.5,0.7,0.6c0.3,0.1,0.6,0.2,0.9,0.2c0.3,0,0.6,0,1-0.1c0.3-0.1,0.6-0.2,0.9-0.3c0.3-0.2,0.5-0.3,0.7-0.6
			c0.2-0.2,0.3-0.5,0.4-0.8c0.1-0.3,0.1-0.7,0-1.1C120.7,45.8,120.5,44.6,120.3,43.5"/>
		<path class="st7" d="M127.5,40c0.2,1.1,0.3,2.2,0.5,3.3c0.1,1,0.2,1.9,0.2,2.7c0,0.8-0.1,1.5-0.4,2.1c-0.2,0.6-0.5,1.1-1,1.5
			c-0.4,0.4-1,0.8-1.6,1c-0.3-0.5-0.6-1-0.9-1.5c0.4-0.2,0.8-0.5,1-0.8c0.3-0.3,0.5-0.7,0.6-1.1c0.1-0.4,0.2-0.9,0.2-1.5
			c0-0.6-0.1-1.3-0.2-2.1c-0.3-1.7-0.5-3.4-0.8-5c2.7-0.4,5.5-0.8,8.2-1c0.4,3.8,0.8,7.7,1.2,11.5c-0.7,0.1-1.4,0.1-2,0.2
			c-0.4-3.3-0.8-6.5-1.1-9.8C130.1,39.6,128.8,39.8,127.5,40"/>
		<path class="st7" d="M136.6,48.8c-0.3-3.8-0.7-7.7-1-11.5c0.7-0.1,1.4-0.1,2.1-0.2c0.1,1.5,0.2,3.1,0.3,4.6
			c1.1-0.1,2.1-0.1,3.2-0.2c0.6,0,1.1,0,1.6,0.2c0.5,0.2,0.9,0.4,1.2,0.7c0.3,0.3,0.6,0.7,0.8,1.1c0.2,0.4,0.3,0.9,0.3,1.3
			c0,0.4,0,0.8-0.2,1.3c-0.1,0.4-0.3,0.8-0.6,1.2c-0.3,0.3-0.6,0.6-1.1,0.9c-0.4,0.2-1,0.4-1.6,0.4C140,48.6,138.3,48.7,136.6,48.8
			 M138.5,47c0.9-0.1,1.9-0.1,2.8-0.2c0.6,0,1.1-0.2,1.4-0.6c0.4-0.3,0.5-0.8,0.5-1.3c0-0.5-0.2-1-0.6-1.2c-0.4-0.3-0.9-0.4-1.5-0.4
			c-0.9,0.1-1.9,0.1-2.8,0.2C138.3,44.6,138.4,45.8,138.5,47"/>
		<path class="st7" d="M153.7,48.3c0-1.7,0.1-3.3,0.1-5c-1.7-0.1-3.5-0.1-5.2-0.1c0,1.7,0,3.3,0,5c-0.7,0-1.3,0-2,0
			c-0.1-3.9-0.2-7.7-0.2-11.6c0.7,0,1.4,0,2.1,0c0,1.6,0,3.2,0,4.8c1.8,0,3.5,0,5.3,0.1c0-1.6,0.1-3.2,0.1-4.8c0.7,0,1.4,0,2.2,0.1
			c-0.2,3.9-0.3,7.7-0.5,11.6C155,48.4,154.4,48.4,153.7,48.3"/>
		<path class="st7" d="M157.7,48.5c0.2-3.9,0.4-7.7,0.6-11.6c0.7,0,1.4,0.1,2.1,0.1c-0.1,1.5-0.2,3.1-0.3,4.6
			c1.1,0.1,2.1,0.2,3.2,0.2c0.6,0.1,1.1,0.2,1.5,0.4c0.4,0.2,0.8,0.5,1.1,0.9c0.3,0.4,0.5,0.7,0.6,1.2c0.1,0.4,0.2,0.9,0.1,1.3
			c0,0.4-0.2,0.8-0.3,1.2c-0.2,0.4-0.4,0.8-0.8,1.1c-0.3,0.3-0.7,0.5-1.2,0.7c-0.5,0.2-1,0.2-1.6,0.2
			C161.1,48.7,159.4,48.6,157.7,48.5 M159.8,46.9c0.9,0.1,1.9,0.1,2.8,0.2c0.6,0.1,1.1-0.1,1.5-0.4c0.4-0.3,0.6-0.7,0.7-1.2
			c0.1-0.5-0.1-1-0.5-1.3c-0.4-0.3-0.8-0.5-1.4-0.6c-0.9-0.1-1.9-0.2-2.8-0.2C160,44.6,159.9,45.7,159.8,46.9 M171.1,38.1
			c-0.5,3.8-1,7.6-1.5,11.5c-0.7-0.1-1.3-0.2-2-0.2c0.5-3.8,0.9-7.7,1.4-11.5C169.7,37.9,170.4,38,171.1,38.1"/>
		<path class="st7" d="M180.5,43c-0.3,0.3-0.6,0.6-0.9,0.9c-0.3,0.3-0.6,0.6-0.9,0.9c-0.1,0.1-0.3,0.3-0.6,0.6
			c-0.3,0.3-0.6,0.6-0.9,0.9c-0.4,0.4-0.7,0.7-1.1,1.1c-0.4,0.4-0.8,0.8-1.1,1.1c-0.3,0.4-0.6,0.7-0.9,0.9c-0.3,0.3-0.4,0.5-0.5,0.6
			c-0.6-0.1-1.2-0.2-1.8-0.3c0.6-3.8,1.1-7.6,1.7-11.5c0.7,0.1,1.4,0.2,2.1,0.3c-0.4,2.7-0.9,5.4-1.3,8.1c0,0,0.1,0,0.1,0
			c2.3-2.4,4.7-4.8,7.2-7.1c0.7,0.1,1.3,0.3,2,0.4c-0.8,3.8-1.6,7.5-2.4,11.3c-0.6-0.1-1.3-0.3-2-0.4c0.5-2.7,1.1-5.4,1.6-8.1
			C180.6,43,180.6,43,180.5,43 M178.4,38.8c-0.5-0.1-0.9-0.2-1.3-0.5c-0.3-0.2-0.6-0.5-0.7-0.7c-0.2-0.3-0.3-0.5-0.3-0.8
			c0-0.3-0.1-0.5,0-0.8c0.5,0.1,1,0.2,1.5,0.3c0,0.1,0,0.2,0,0.4c0,0.1,0.1,0.3,0.2,0.4c0.1,0.1,0.2,0.2,0.3,0.3
			c0.1,0.1,0.3,0.2,0.5,0.2c0.2,0,0.4,0,0.6,0c0.2,0,0.3-0.1,0.4-0.2c0.1-0.1,0.2-0.2,0.3-0.3c0.1-0.1,0.1-0.2,0.1-0.3
			c0.5,0.1,1,0.2,1.5,0.3c-0.1,0.2-0.2,0.5-0.3,0.7c-0.2,0.2-0.4,0.5-0.6,0.7c-0.3,0.2-0.6,0.3-0.9,0.4
			C179.4,38.9,179,38.9,178.4,38.8"/>
		<path class="st7" d="M187.2,53c1-3.7,1.9-7.5,2.9-11.2c0.7,0.2,1.4,0.4,2.1,0.6c-0.4,1.6-0.8,3.1-1.3,4.7c0.5,0.1,1.1,0.3,1.6,0.4
			c0.2,0.1,0.4,0.1,0.6,0.1c0.2,0,0.4,0,0.7,0c0.2-0.1,0.4-0.2,0.7-0.3c0.2-0.2,0.4-0.4,0.6-0.7c0.7-0.9,1.4-1.9,2-2.8
			c0.7,0.2,1.4,0.4,2,0.6c-0.7,1-1.4,1.9-2.1,2.9c-0.4,0.5-0.7,0.9-1.1,1.1c-0.4,0.3-0.8,0.4-1.2,0.4c0.5,0.3,0.8,0.7,0.9,1.2
			c0.2,0.5,0.2,1,0.2,1.6c0,1.3,0,2.6,0,3.9c-0.7-0.2-1.4-0.4-2.1-0.6c0-1.2,0-2.4,0-3.6c0-0.4-0.1-0.7-0.1-0.9
			c-0.1-0.3-0.2-0.5-0.4-0.6c-0.2-0.2-0.3-0.3-0.5-0.4c-0.2-0.1-0.4-0.2-0.7-0.2c-0.5-0.2-1.1-0.3-1.6-0.5c-0.4,1.6-0.9,3.3-1.3,4.9
			C188.5,53.4,187.9,53.2,187.2,53"/>
		<path class="st7" d="M203.7,47.8c-0.4,1.1-0.8,2.1-1.1,3.2c-0.3,1-0.7,1.8-1.1,2.5c-0.4,0.7-0.8,1.2-1.3,1.7
			c-0.5,0.4-1,0.7-1.6,0.9c-0.6,0.2-1.2,0.2-1.9,0.2c0-0.6-0.1-1.1-0.1-1.7c0.5,0,0.9-0.1,1.3-0.3c0.4-0.2,0.7-0.4,1-0.7
			c0.3-0.3,0.6-0.7,0.9-1.3c0.3-0.5,0.5-1.2,0.8-2c0.5-1.6,1.1-3.2,1.6-4.8c2.6,0.9,5.2,1.9,7.8,2.9c-1.4,3.6-2.9,7.2-4.3,10.7
			c-0.6-0.3-1.3-0.5-1.9-0.8c1.2-3.1,2.4-6.1,3.5-9.2C206.2,48.7,205,48.2,203.7,47.8"/>
		<path class="st7" d="M213.1,59.7c-0.4,0.4-0.7,0.6-1.1,0.8c-0.3,0.2-0.6,0.3-0.9,0.4c-0.3,0.1-0.6,0.1-0.9,0
			c-0.3-0.1-0.6-0.1-0.9-0.3c-0.4-0.2-0.8-0.4-1.2-0.5c0.2-0.5,0.4-1,0.6-1.5c0.3,0.1,0.7,0.3,1,0.4c0.3,0.1,0.5,0.2,0.7,0.1
			c0.2,0,0.4-0.1,0.7-0.3c0.1-0.1,0.2-0.1,0.3-0.2c0-1.6,0-3.3,0-4.9c0-1.6,0-3.3-0.1-4.9c0.7,0.3,1.4,0.6,2.1,0.9
			c0,0.1,0,0.3,0,0.7c0,0.4,0,0.8,0,1.3c0,0.5,0,1,0,1.6c0,0.6,0,1.1,0,1.6c0,0.5,0,0.9-0.1,1.3c0,0.4,0,0.6,0,0.7c0,0,0.1,0,0.1,0
			c0.1-0.1,0.3-0.3,0.6-0.6c0.3-0.3,0.6-0.6,0.9-0.9c0.3-0.3,0.7-0.7,1.1-1.1c0.4-0.4,0.7-0.7,1.1-1c0.4-0.3,0.7-0.6,0.9-0.9
			c0.3-0.3,0.5-0.4,0.6-0.6c0.7,0.3,1.3,0.6,2,0.9C218.1,55.2,215.6,57.4,213.1,59.7"/>
		<path class="st7" d="M221.7,53.5c2.4,1.2,4.9,2.5,7.2,3.8c-0.3,0.5-0.6,1-0.8,1.5c-1.7-1-3.5-1.9-5.2-2.8
			c-0.4,0.8-0.9,1.7-1.3,2.6c1,0.5,1.9,1,2.9,1.5c0.5,0.3,1,0.6,1.3,1c0.3,0.4,0.6,0.8,0.7,1.3c0.1,0.4,0.2,0.9,0.1,1.3
			c-0.1,0.5-0.2,0.9-0.4,1.3c-0.2,0.4-0.5,0.7-0.8,1c-0.3,0.3-0.7,0.5-1.1,0.7c-0.4,0.1-0.9,0.2-1.4,0.2c-0.5,0-1-0.2-1.6-0.5
			c-1.5-0.8-3.1-1.6-4.7-2.4C218.3,60.5,220,57,221.7,53.5 M219.2,63.3c0.9,0.4,1.7,0.9,2.5,1.3c0.5,0.3,1,0.4,1.5,0.3
			c0.5-0.1,0.9-0.4,1.1-0.9c0.3-0.5,0.3-0.9,0.1-1.4c-0.2-0.5-0.6-0.8-1.1-1.1c-0.8-0.5-1.7-0.9-2.6-1.3
			C220.2,61.2,219.7,62.2,219.2,63.3"/>
	</g>
</g>
</svg>
