<svg width="225" height="245" viewBox="0 0 225 245" version="1.1" xmlns="http://www.w3.org/2000/svg" xmlns:xlink="http://www.w3.org/1999/xlink">
<g id="Canvas" fill="none">
<g id="Group 70">
<g id="Group 38" filter="url(#filter0_d)">
<g id="Shape">
<path d="M 0 32.5019L 56.5 65L 113 32.5093L 56.5 0.00747857L 0 32.5019Z" transform="translate(65 0)" fill="#F9F9F9"/>
</g>
<g id="Combined Shape Copy">
<path fill-rule="evenodd" clip-rule="evenodd" d="M 56.5 32.498L 0 0L 0 65L 56.5 97.5L 56.5 32.498Z" transform="translate(178 32.5) scale(-1 1)" fill="#B3B3B3"/>
</g>
<g id="Combined Shape">
<path fill-rule="evenodd" clip-rule="evenodd" d="M 56.5 32.498L 0 0L 0 65L 56.5 97.5L 56.5 32.498Z" transform="translate(65 32.5)" fill="#E6E6E6"/>
</g>
</g>
<g id="Group 38 Copy 5" filter="url(#filter1_d)">
<g id="Shape_2">
<path d="M 0 13.0007L 22.5 26L 45 13.0037L 22.5 0.00299143L 0 13.0007Z" transform="translate(16 118)" fill="#F9F9F9"/>
</g>
<g id="Combined Shape Copy_2">
<path fill-rule="evenodd" clip-rule="evenodd" d="M 22.5 12.999L 0 0L 0 26L 22.5 39L 22.5 12.999Z" transform="translate(61 131) scale(-1 1)" fill="#B3B3B3"/>
</g>
<g id="Combined Shape_2">
<path fill-rule="evenodd" clip-rule="evenodd" d="M 22.5 12.999L 0 0L 0 26L 22.5 39L 22.5 12.999Z" transform="translate(16 131)" fill="#E6E6E6"/>
</g>
</g>
<g id="Group 38 Copy 6" filter="url(#filter2_d)">
<g id="Shape_3">
<path d="M 0 19.5011L 33.5 39L 67 19.5056L 33.5 0.00448714L 0 19.5011Z" transform="translate(151 127)" fill="#F9F9F9"/>
</g>
<g id="Combined Shape Copy_3">
<path fill-rule="evenodd" clip-rule="evenodd" d="M 33.5 19.499L 0 0L 0 39L 33.5 58.5L 33.5 19.499Z" transform="translate(218 146.5) scale(-1 1)" fill="#B3B3B3"/>
</g>
<g id="Combined Shape_3">
<path fill-rule="evenodd" clip-rule="evenodd" d="M 33.5 19.499L 0 0L 0 39L 33.5 58.5L 33.5 19.499Z" transform="translate(151 146.5)" fill="#E6E6E6"/>
</g>
</g>
</g>
</g>
<defs>
<filter id="filter0_d" x="27" y="0.00732422" width="161" height="194.993" filterUnits="userSpaceOnUse" color-interpolation-filters="sRGB">
<feFlood flood-opacity="0" result="BackgroundImageFix"/>
<feColorMatrix in="SourceAlpha" type="matrix" values="0 0 0 0 0 0 0 0 0 0 0 0 0 0 0 0 0 0 255 0"/>
<feOffset dx="-14" dy="41"/>
<feGaussianBlur stdDeviation="12"/>
<feColorMatrix type="matrix" values="0 0 0 0 0 0 0 0 0 0 0 0 0 0 0 0 0 0 0.323653 0"/>
<feBlend mode="normal" in2="BackgroundImageFix" result="effect1_dropShadow"/>
<feBlend mode="normal" in="SourceGraphic" in2="effect1_dropShadow" result="shape"/>
</filter>
<filter id="filter1_d" x="0" y="118.003" width="65" height="78.9971" filterUnits="userSpaceOnUse" color-interpolation-filters="sRGB">
<feFlood flood-opacity="0" result="BackgroundImageFix"/>
<feColorMatrix in="SourceAlpha" type="matrix" values="0 0 0 0 0 0 0 0 0 0 0 0 0 0 0 0 0 0 255 0"/>
<feOffset dx="-6" dy="17"/>
<feGaussianBlur stdDeviation="5"/>
<feColorMatrix type="matrix" values="0 0 0 0 0 0 0 0 0 0 0 0 0 0 0 0 0 0 0.323653 0"/>
<feBlend mode="normal" in2="BackgroundImageFix" result="effect1_dropShadow"/>
<feBlend mode="normal" in="SourceGraphic" in2="effect1_dropShadow" result="shape"/>
</filter>
<filter id="filter2_d" x="128" y="127.004" width="97" height="117.996" filterUnits="userSpaceOnUse" color-interpolation-filters="sRGB">
<feFlood flood-opacity="0" result="BackgroundImageFix"/>
<feColorMatrix in="SourceAlpha" type="matrix" values="0 0 0 0 0 0 0 0 0 0 0 0 0 0 0 0 0 0 255 0"/>
<feOffset dx="-8" dy="25"/>
<feGaussianBlur stdDeviation="7.5"/>
<feColorMatrix type="matrix" values="0 0 0 0 0 0 0 0 0 0 0 0 0 0 0 0 0 0 0.323653 0"/>
<feBlend mode="normal" in2="BackgroundImageFix" result="effect1_dropShadow"/>
<feBlend mode="normal" in="SourceGraphic" in2="effect1_dropShadow" result="shape"/>
</filter>

</defs>
</svg>

