<svg xmlns="http://www.w3.org/2000/svg" xmlns:xlink="http://www.w3.org/1999/xlink" width="142" height="164" viewBox="0 0 142 164"><defs><path id="bq64a" d="M578.56 16817.93l-31.69-18.26v-69.05l59.7 34.53v69zm-28.06-93.59l28.07-16.2 31.68-18.27 31.68 18.27h.06l28 16.2-59.75 34.52zm123.16 6.29v69.06l-31.68 18.26h-.06l-28 16.21v-69zm-63.42-49.17l-1.84 1.06-33.52 19.37-33.46 19.33-1.9 1v81.64l1.9 1.05 33.46 19.38 33.52 19.32 1.84 1.06 1.84-1.06 33.52-19.32 33.52-19.43 1.84-1.05v-81.64l-1.84-1-33.52-19.33-33.52-19.37z"/></defs><g><g transform="translate(-539 -16681)"><use fill="#fff" xlink:href="#bq64a"/></g></g></svg>