<svg xmlns="http://www.w3.org/2000/svg" xmlns:xlink="http://www.w3.org/1999/xlink" width="61" height="36" viewBox="0 0 61 36"><defs><path id="jdhga" d="M215.11 11883.17v-35.01h60.02v35.01z"/><path id="jdhgb" d="M224.36 11865.66l20.76 13.26 20.76-13.26-20.76-13.25-20.76 13.25z"/><path id="jdhgc" d="M253.86 11865.66a8.75 8.75 0 1 1-17.5-.02 8.75 8.75 0 0 1 17.5.02"/><path id="jdhgd" d="M240.12 11861.91c-1 0-2 .07-3 .21-.2.43-.37.88-.5 1.34a20.06 20.06 0 0 1 16.83 4.81c.14-.45.25-.91.31-1.38-3.82-3.23-8.66-5-13.66-5"/><path id="jdhge" d="M237.62 11862.95a.26.26 0 0 0 .19-.3.23.23 0 0 0-.2-.2.23.23 0 0 0-.18.29c0 .13.11.24.25.24m-.06.12a.4.4 0 0 0 .32-.46.38.38 0 1 0-.74.09.39.39 0 0 0 .42.37"/><path id="jdhgf" d="M238.45 11862.55h.32c.06-.01.1-.06.1-.12a.09.09 0 0 0-.11-.09h-.32zm-.12.48h.15v-.3h.34a.26.26 0 0 0 0-.52h-.48z"/><path id="jdhgg" d="M239.03 11862.98c0-.12 0-.38-.2-.37h-.21c.26 0 .28.25.3.37"/><path id="jdhgh" d="M239.54 11862.8h.22a.22.22 0 0 0 .22-.23v-.11c0-.12-.1-.22-.22-.22h-.23zm-.15.16h.39a.35.35 0 0 0 .35-.36v-.14a.36.36 0 0 0-.37-.35h-.38z"/><path id="jdhgi" d="M240.44 11862.95l.75.03.01-.16-.6-.02v-.21l.48.01v-.14l-.47-.02v-.16l.58.02v-.16l-.72-.02-.03.83z"/><path id="jdhgj" d="M241.5 11863l.15.01.05-.57.11.58.13.02.22-.56-.05.57.14.01.07-.83-.2-.02-.22.56-.12-.59-.21-.01-.07.83z"/><path id="jdhgk" d="M243.23 11863.19l.62.11.02-.14-.47-.08.03-.19.39.07.02-.15-.38-.06.01-.13.47.08.01-.14-.59-.11-.13.74z"/><path id="jdhgl" d="M245.08 11863.05l.31.08a.11.11 0 0 0 0-.21l-.31-.08zm-.27.41h.15l.08-.3.32.08a.26.26 0 0 0 .32-.19.26.26 0 0 0-.18-.32l-.47-.12z"/><path id="jdhgm" d="M246.12 11863.38l.31.09a.1.1 0 0 0 .13-.07c0-.06 0-.11-.07-.13l-.3-.1zm-.29.39l.15.05.1-.3.31.1a.25.25 0 0 0 .33-.17.25.25 0 0 0-.17-.32l-.46-.15z"/><path id="jdhgn" d="M246.51 11863.98c0-.11.11-.36 0-.41l-.22-.07c.25.08.17.33.13.44"/><path id="jdhgo" d="M247.25 11864.08a.24.24 0 0 0 .3-.16.25.25 0 0 0-.12-.33.26.26 0 0 0-.3.17.24.24 0 0 0 .12.32m-.06.15a.42.42 0 1 0-.2-.52.39.39 0 0 0 .2.52"/><path id="jdhgp" d="M248.24 11864.48a.23.23 0 0 0 .3-.15.25.25 0 0 0-.09-.33.24.24 0 0 0-.3.16.23.23 0 0 0 .1.32m-.08.15c.2.07.43-.03.52-.23.1-.2.02-.43-.18-.54a.4.4 0 0 0-.5.23c-.1.2-.03.44.16.54"/><path id="jdhgq" d="M248.4 11864.27l.29.13-.06.11-.28-.13.05-.11z"/><path id="jdhgr" d="M248.58 11864.35l.11.05-.17.38-.1-.05.16-.38z"/><path id="jdhgs" d="M249.15 11864.56l.28.14c.04.04.1.04.14 0a.11.11 0 0 0 0-.15l-.29-.14zm-.35.35l.14.06.14-.27.29.15a.26.26 0 0 0 .35-.12.25.25 0 0 0-.11-.35l-.43-.21z"/><path id="jdhgt" d="M249.43 11865.22c.05-.1.17-.34 0-.42l-.2-.1c.24.12.12.35.07.46"/><path id="jdhgu" d="M249.74 11865.39l.66.37.07-.14-.52-.3.1-.18.41.23.07-.12-.41-.24.09-.14.49.28.08-.14-.63-.35-.41.73z"/><path id="jdhgv" d="M250.96 11865.8c0 .06 0 .14.1.21.1.07.17.06.2 0s-.43-.35-.27-.6c.16-.25.37-.05.46 0 .09.05.24.21.13.38l-.16-.1c.06-.07 0-.15-.08-.19-.08-.04-.14-.08-.2 0-.04.08.45.33.29.58-.16.25-.32.1-.45 0s-.3-.25-.18-.43z"/><path id="jdhgw" d="M251.86 11866.38c-.06.07 0 .15.08.22s.17.08.2 0-.42-.38-.24-.6c.18-.24.4 0 .47 0a.27.27 0 0 1 .1.37l-.15-.1c.05-.08 0-.15-.08-.2-.08-.07-.13-.08-.18 0-.05.06.42.35.25.58-.17.23-.33.1-.45 0-.12-.09-.28-.26-.16-.43z"/><path id="jdhgx" d="M252.8 11867.22a.23.23 0 0 0 .33-.07.25.25 0 0 0 0-.34.24.24 0 0 0-.33.07.23.23 0 0 0 0 .34m-.1.12a.39.39 0 0 0 .55-.09.4.4 0 0 0 0-.56.39.39 0 0 0-.55.1.38.38 0 0 0 0 .55"/><path id="jdhgy" d="M237.97 11863.72l-.12.35.19.06-.07-.41z"/><path id="jdhgz" d="M237.97 11863.72l.12.35-.18.06.06-.41z"/><path id="jdhgA" d="M238.33 11863.98h-.38v.18l.38-.18z"/><path id="jdhgB" d="M238.33 11863.98l-.3.21-.12-.15.42-.06z"/><path id="jdhgC" d="M237.61 11863.98l.31.21.11-.15-.42-.06z"/><path id="jdhgD" d="M237.61 11863.98h.38v.18l-.38-.18z"/><path id="jdhgE" d="M238.19 11864.39l-.12-.35-.17.06.29.29z"/><path id="jdhgF" d="M238.19 11864.39l-.3-.22.11-.15.19.37z"/><path id="jdhgG" d="M237.75 11864.39l.3-.22-.1-.15-.2.37z"/><path id="jdhgH" d="M237.75 11864.39l.12-.35.18.06-.3.29z"/><path id="jdhgI" d="M238.75 11867.4l-.12.35.18.06-.06-.41z"/><path id="jdhgJ" d="M238.75 11867.4l.11.35-.17.06.06-.41z"/><path id="jdhgK" d="M239.1 11867.65h-.37v.19l.37-.19z"/><path id="jdhgL" d="M239.1 11867.65l-.3.23-.11-.16.41-.07z"/><path id="jdhgM" d="M238.39 11867.65l.3.23.12-.16-.42-.07z"/><path id="jdhgN" d="M238.39 11867.65h.38v.19l-.38-.19z"/><path id="jdhgO" d="M238.97 11868.07l-.12-.35-.18.06.3.29z"/><path id="jdhgP" d="M238.97 11868.07l-.31-.22.11-.15.2.37z"/><path id="jdhgQ" d="M238.52 11868.07l.31-.22-.11-.15-.2.37z"/><path id="jdhgR" d="M238.52 11868.07l.12-.35.18.06-.3.29z"/><path id="jdhgS" d="M237.67 11868.3l-.07.24.12.04-.05-.28z"/><path id="jdhgT" d="M237.67 11868.3l.08.24-.12.04.04-.28z"/><path id="jdhgU" d="M237.91 11868.48h-.25v.12l.25-.12z"/><path id="jdhgV" d="M237.91 11868.48l-.2.15-.07-.1.27-.05z"/><path id="jdhgW" d="M237.44 11868.48l.2.15.07-.1-.27-.05z"/><path id="jdhgX" d="M237.44 11868.48h.25v.12l-.25-.12z"/><path id="jdhgY" d="M237.82 11868.76l-.08-.24-.11.04.19.2z"/><path id="jdhgZ" d="M237.82 11868.76l-.2-.15.07-.1.13.25z"/><path id="jdhgaa" d="M237.53 11868.76l.2-.15-.07-.1-.13.25z"/><path id="jdhgab" d="M237.53 11868.76l.07-.24.12.04-.19.2z"/><path id="jdhgac" d="M239.6 11867.05l-.05.17.08.03-.03-.2z"/><path id="jdhgad" d="M239.6 11867.05l.06.17-.09.03.03-.2z"/><path id="jdhgae" d="M239.77 11867.18h-.17v.09l.17-.09z"/><path id="jdhgaf" d="M239.77 11867.18l-.14.1-.05-.07.19-.03z"/><path id="jdhgag" d="M239.43 11867.18l.15.1.05-.07-.2-.03z"/><path id="jdhgah" d="M239.43 11867.18h.18v.09l-.18-.09z"/><path id="jdhgai" d="M239.71 11867.38l-.06-.17-.08.03.14.14z"/><path id="jdhgaj" d="M239.71 11867.38l-.14-.11.05-.07.09.18z"/><path id="jdhgak" d="M239.5 11867.38l.14-.11-.05-.07-.09.18z"/><path id="jdhgal" d="M239.5 11867.38l.05-.17.09.03-.14.14z"/><path id="jdhgam" d="M240.57 11868.33l-.1.3.14.05-.04-.35z"/><path id="jdhgan" d="M240.57 11868.33l.09.3-.14.05.05-.35z"/><path id="jdhgao" d="M240.86 11868.54h-.31v.16l.31-.16z"/><path id="jdhgap" d="M240.86 11868.54l-.25.19-.09-.13.34-.06z"/><path id="jdhgaq" d="M240.27 11868.54l.25.19.09-.13-.34-.06z"/><path id="jdhgar" d="M240.27 11868.54h.31v.16l-.31-.16z"/><path id="jdhgas" d="M240.75 11868.89l-.09-.3-.15.05.24.25z"/><path id="jdhgat" d="M240.75 11868.89l-.25-.18.09-.13.16.31z"/><path id="jdhgau" d="M240.39 11868.89l.24-.18-.09-.13-.15.31z"/><path id="jdhgav" d="M240.39 11868.89l.09-.3.15.05-.24.25z"/><path id="jdhgaw" d="M240.31 11869.2l-.1.29.15.05-.05-.34z"/><path id="jdhgax" d="M240.31 11869.2l.09.29-.15.05.06-.34z"/><path id="jdhgay" d="M240.6 11869.41h-.31v.16l.31-.16z"/><path id="jdhgaz" d="M240.6 11869.41l-.25.19-.09-.13.34-.06z"/><path id="jdhgaA" d="M240.01 11869.41l.25.19.1-.13-.35-.06z"/><path id="jdhgaB" d="M240.01 11869.41h.31v.16l-.31-.16z"/><path id="jdhgaC" d="M240.49 11869.76l-.09-.3-.15.05.24.25z"/><path id="jdhgaD" d="M240.49 11869.76l-.26-.19.1-.12.16.31z"/><path id="jdhgaE" d="M240.13 11869.76l.25-.19-.09-.12-.16.31z"/><path id="jdhgaF" d="M240.13 11869.76l.09-.3.15.05-.24.25z"/><path id="jdhgaG" d="M247.83 11862.57l-.11.36.18.06-.07-.42z"/><path id="jdhgaH" d="M247.83 11862.57l.12.36-.18.06.06-.42z"/><path id="jdhgaI" d="M248.19 11862.83h-.38v.19l.38-.19z"/><path id="jdhgaJ" d="M248.19 11862.83l-.31.22-.11-.15.42-.07z"/><path id="jdhgaK" d="M247.47 11862.83l.31.22.11-.15-.42-.07z"/><path id="jdhgaL" d="M247.47 11862.83h.38v.19l-.38-.19z"/><path id="jdhgaM" d="M248.05 11863.25l-.11-.35-.18.05.29.3z"/><path id="jdhgaN" d="M248.05 11863.25l-.3-.22.11-.15.19.37z"/><path id="jdhgaO" d="M247.61 11863.25l.3-.22-.1-.15-.2.37z"/><path id="jdhgaP" d="M247.61 11863.25l.12-.35.18.05-.3.3z"/><path id="jdhgaQ" d="M251.25 11868.36l-.12.36.18.06-.06-.42z"/><path id="jdhgaR" d="M251.25 11868.36l.12.36-.18.06.06-.42z"/><path id="jdhgaS" d="M251.61 11868.62h-.38v.18l.38-.18z"/><path id="jdhgaT" d="M251.61 11868.62l-.3.22-.12-.15.42-.07z"/><path id="jdhgaU" d="M250.89 11868.62l.31.22.11-.15-.42-.07z"/><path id="jdhgaV" d="M250.89 11868.62h.38v.18l-.38-.18z"/><path id="jdhgaW" d="M251.48 11869.04l-.12-.36-.18.06.3.3z"/><path id="jdhgaX" d="M251.48 11869.04l-.31-.22.11-.16.2.38z"/><path id="jdhgaY" d="M251.03 11869.04l.3-.22-.11-.16-.19.38z"/><path id="jdhgaZ" d="M251.03 11869.04l.12-.36.18.06-.3.3z"/><path id="jdhgba" d="M252.47 11868.57l-.09.23.13.04-.04-.27z"/><path id="jdhgbb" d="M252.47 11868.57l.08.23-.13.04.05-.27z"/><path id="jdhgbc" d="M252.7 11868.74h-.24v.12l.24-.12z"/><path id="jdhgbd" d="M252.7 11868.74l-.2.15-.07-.11.27-.04z"/><path id="jdhgbe" d="M252.23 11868.74l.2.15.08-.11-.28-.04z"/><path id="jdhgbf" d="M252.23 11868.74h.25v.12l-.25-.12z"/><path id="jdhgbg" d="M252.61 11869.02l-.07-.24-.12.04.19.2z"/><path id="jdhgbh" d="M252.61 11869.02l-.2-.15.08-.1.12.25z"/><path id="jdhgbi" d="M252.32 11869.02l.2-.15-.07-.1-.13.25z"/><path id="jdhgbj" d="M252.32 11869.02l.08-.24.11.04-.19.2z"/><path id="jdhgbk" d="M251.61 11869.2l-.1.29.15.05-.05-.34z"/><path id="jdhgbl" d="M251.61 11869.2l.09.29-.14.05.05-.34z"/><path id="jdhgbm" d="M251.9 11869.41h-.31v.16l.31-.16z"/><path id="jdhgbn" d="M251.9 11869.41l-.24.19-.1-.13.34-.06z"/><path id="jdhgbo" d="M251.31 11869.41l.26.19.09-.13-.35-.06z"/><path id="jdhgbp" d="M251.31 11869.41h.31v.16l-.31-.16z"/><path id="jdhgbq" d="M251.79 11869.76l-.09-.3-.15.05.24.25z"/><path id="jdhgbr" d="M251.79 11869.76l-.25-.19.09-.12.16.31z"/><path id="jdhgbs" d="M251.43 11869.76l.25-.19-.09-.12-.16.31z"/><path id="jdhgbt" d="M251.43 11869.76l.09-.3.15.05-.24.25z"/><path id="jdhgbu" d="M249.5 11871.03l-.1.29.15.06-.05-.35z"/><path id="jdhgbv" d="M249.5 11871.03l.09.29-.15.06.06-.35z"/><path id="jdhgbw" d="M249.8 11871.25h-.31v.16l.31-.16z"/><path id="jdhgbx" d="M249.8 11871.25l-.26.18-.09-.13.35-.05z"/><path id="jdhgby" d="M249.21 11871.25l.25.18.08-.13-.33-.05z"/><path id="jdhgbz" d="M249.21 11871.25h.31v.16l-.31-.16z"/><path id="jdhgbA" d="M249.68 11871.59l-.09-.29-.16.04.25.25z"/><path id="jdhgbB" d="M249.68 11871.59l-.25-.18.09-.12.16.3z"/><path id="jdhgbC" d="M249.32 11871.59l.25-.18-.09-.12-.16.3z"/><path id="jdhgbD" d="M249.32 11871.59l.09-.29.15.04-.24.25z"/><path id="jdhgbE" d="M249.49 11871.98l-.08.23.12.04-.04-.27z"/><path id="jdhgbF" d="M249.49 11871.98l.07.23-.12.04.05-.27z"/><path id="jdhgbG" d="M249.72 11872.15h-.24v.12l.24-.12z"/><path id="jdhgbH" d="M249.72 11872.15l-.2.14-.08-.1.28-.04z"/><path id="jdhgbI" d="M249.25 11872.15l.2.14.08-.1-.28-.04z"/><path id="jdhgbJ" d="M249.25 11872.15h.25v.12l-.25-.12z"/><path id="jdhgbK" d="M249.63 11872.42l-.07-.23-.13.04.2.19z"/><path id="jdhgbL" d="M249.63 11872.42l-.2-.14.07-.1.13.24z"/><path id="jdhgbM" d="M249.34 11872.42l.2-.14-.07-.1-.13.24z"/><path id="jdhgbN" d="M249.34 11872.42l.08-.23.11.04-.19.19z"/><path id="jdhgbO" d="M250.37 11870.4l-.08.24.12.04-.04-.28z"/><path id="jdhgbP" d="M250.37 11870.4l.07.24-.11.04.04-.28z"/><path id="jdhgbQ" d="M250.61 11870.57h-.26v.13l.26-.13z"/><path id="jdhgbR" d="M250.61 11870.57l-.2.15-.08-.1.28-.05z"/><path id="jdhgbS" d="M250.13 11870.57l.21.15.07-.1-.28-.05z"/><path id="jdhgbT" d="M250.13 11870.57h.26v.13l-.26-.13z"/><path id="jdhgbU" d="M250.52 11870.85l-.08-.23-.12.04.2.19z"/><path id="jdhgbV" d="M250.52 11870.85l-.21-.14.08-.1.13.24z"/><path id="jdhgbW" d="M250.22 11870.85l.21-.14-.08-.1-.13.24z"/><path id="jdhgbX" d="M250.22 11870.85l.08-.23.12.04-.2.19z"/><path id="jdhgbY" d="M251.07 11869.9l-.09.29.14.05-.05-.34z"/><path id="jdhgbZ" d="M251.07 11869.9l.1.29-.15.05.05-.34z"/><path id="jdhgca" d="M251.37 11870.12h-.32v.15l.32-.15z"/><path id="jdhgcb" d="M251.37 11870.12l-.25.18-.09-.13.34-.05z"/><path id="jdhgcc" d="M250.78 11870.12l.25.18.09-.13-.34-.05z"/><path id="jdhgcd" d="M250.78 11870.12h.31v.15l-.31-.15z"/><path id="jdhgce" d="M251.25 11870.46l-.09-.29-.15.05.24.24z"/><path id="jdhgcf" d="M251.25 11870.46l-.25-.18.09-.13.16.31z"/><path id="jdhgcg" d="M250.89 11870.46l.26-.18-.1-.13-.16.31z"/><path id="jdhgch" d="M250.89 11870.46l.1-.29.14.05-.24.24z"/><path id="jdhgci" d="M249.46 11870.24l-.07.23.11.04-.04-.27z"/><path id="jdhgcj" d="M249.46 11870.24l.08.23-.12.04.04-.27z"/><path id="jdhgck" d="M249.71 11870.41h-.26v.12l.26-.12z"/><path id="jdhgcl" d="M249.71 11870.41l-.21.14-.07-.1.28-.04z"/><path id="jdhgcm" d="M249.23 11870.41l.2.14.07-.1-.27-.04z"/><path id="jdhgcn" d="M249.23 11870.41h.25v.12l-.25-.12z"/><path id="jdhgco" d="M249.62 11870.69l-.09-.24-.12.04.21.2z"/><path id="jdhgcp" d="M249.62 11870.69l-.21-.15.07-.1.14.25z"/><path id="jdhgcq" d="M249.32 11870.69l.2-.15-.08-.1-.12.25z"/><path id="jdhgcr" d="M249.32 11870.69l.08-.24.12.04-.2.2z"/><path id="jdhgcs" d="M241.78 11865.71l-.09.29.15.05-.06-.34z"/><path id="jdhgct" d="M241.78 11865.71l.1.29-.15.05.05-.34z"/><path id="jdhgcu" d="M242.08 11865.92h-.31v.16l.31-.16z"/><path id="jdhgcv" d="M242.08 11865.92l-.25.19-.09-.13.34-.06z"/><path id="jdhgcw" d="M241.48 11865.92l.26.19.09-.13-.35-.06z"/><path id="jdhgcx" d="M241.48 11865.92h.31v.16l-.31-.16z"/><path id="jdhgcy" d="M241.97 11866.27l-.09-.29-.16.04.25.25z"/><path id="jdhgcz" d="M241.97 11866.27l-.26-.18.09-.13.17.31z"/><path id="jdhgcA" d="M241.6 11866.27l.25-.18-.09-.13-.16.31z"/><path id="jdhgcB" d="M241.6 11866.27l.1-.29.14.04-.24.25z"/><path id="jdhgcC" d="M247.5 11864.97l-.07.24.11.04-.04-.28z"/><path id="jdhgcD" d="M247.5 11864.97l.08.24-.12.04.04-.28z"/><path id="jdhgcE" d="M247.74 11865.15h-.25v.12l.25-.12z"/><path id="jdhgcF" d="M247.74 11865.15l-.21.14-.07-.1.28-.04z"/><path id="jdhgcG" d="M247.26 11865.15l.2.14.07-.1-.27-.04z"/><path id="jdhgcH" d="M247.26 11865.15h.26v.12l-.26-.12z"/><path id="jdhgcI" d="M247.65 11865.43l-.09-.24-.11.04.2.2z"/><path id="jdhgcJ" d="M247.65 11865.43l-.21-.15.08-.11.13.26z"/><path id="jdhgcK" d="M247.35 11865.43l.21-.15-.08-.11-.13.26z"/><path id="jdhgcL" d="M247.35 11865.43l.08-.24.12.04-.2.2z"/><path id="jdhgcM" d="M245.12 11869.22l-.12.35.18.06-.06-.41z"/><path id="jdhgcN" d="M245.12 11869.22l.11.35-.17.06.06-.41z"/><path id="jdhgcO" d="M245.47 11869.47h-.37v.19l.37-.19z"/><path id="jdhgcP" d="M245.47 11869.47l-.3.23-.11-.16.41-.07z"/><path id="jdhgcQ" d="M244.76 11869.47l.31.23.1-.16-.41-.07z"/><path id="jdhgcR" d="M244.76 11869.47h.37v.19l-.37-.19z"/><path id="jdhgcS" d="M245.34 11869.9l-.12-.36-.18.06.3.3z"/><path id="jdhgcT" d="M245.34 11869.9l-.3-.23.1-.15.2.38z"/><path id="jdhgcU" d="M244.9 11869.9l.3-.23-.11-.15-.19.38z"/><path id="jdhgcV" d="M244.9 11869.9l.11-.36.18.06-.29.3z"/><path id="jdhgcW" d="M246.13 11867.54l-.1.3.16.04-.06-.34z"/><path id="jdhgcX" d="M246.13 11867.54l.1.3-.15.04.05-.34z"/><path id="jdhgcY" d="M246.43 11867.76h-.32v.15l.32-.15z"/><path id="jdhgcZ" d="M246.43 11867.76l-.26.18-.09-.13.35-.05z"/><path id="jdhgda" d="M245.84 11867.76l.25.18.09-.13-.34-.05z"/><path id="jdhgdb" d="M245.84 11867.76h.31v.15l-.31-.15z"/><path id="jdhgdc" d="M246.31 11868.11l-.09-.3-.15.05.24.25z"/><path id="jdhgdd" d="M246.31 11868.11l-.25-.19.09-.13.16.32z"/><path id="jdhgde" d="M245.94 11868.11l.26-.19-.09-.13-.17.32z"/><path id="jdhgdf" d="M245.94 11868.11l.1-.3.15.05-.25.25z"/><path id="jdhgdg" d="M245.12 11866.76l-.1.29.15.05-.05-.34z"/><path id="jdhgdh" d="M245.12 11866.76l.09.29-.14.05.05-.34z"/><path id="jdhgdi" d="M245.41 11866.97h-.31v.16l.31-.16z"/><path id="jdhgdj" d="M245.41 11866.97l-.25.18-.09-.12.34-.06z"/><path id="jdhgdk" d="M244.82 11866.97l.26.18.08-.12-.34-.06z"/><path id="jdhgdl" d="M244.82 11866.97h.31v.16l-.31-.16z"/><path id="jdhgdm" d="M245.3 11867.32l-.09-.3-.15.05.24.25z"/><path id="jdhgdn" d="M245.3 11867.32l-.25-.18.09-.13.16.31z"/><path id="jdhgdo" d="M244.94 11867.32l.25-.18-.09-.13-.16.31z"/><path id="jdhgdp" d="M244.94 11867.32l.09-.3.15.05-.24.25z"/><path id="jdhgdq" d="M244.23 11867.6l-.07.24.12.04-.05-.28z"/><path id="jdhgdr" d="M244.23 11867.6l.09.24-.13.04.04-.28z"/><path id="jdhgds" d="M244.47 11867.78h-.24v.12l.24-.12z"/><path id="jdhgdt" d="M244.47 11867.78l-.2.14-.08-.1.28-.04z"/><path id="jdhgdu" d="M244 11867.78l.2.14.07-.1-.27-.04z"/><path id="jdhgdv" d="M244 11867.78h.25v.12l-.25-.12z"/><path id="jdhgdw" d="M244.38 11868.06l-.07-.24-.12.04.19.2z"/><path id="jdhgdx" d="M244.38 11868.06l-.2-.15.08-.1.12.25z"/><path id="jdhgdy" d="M244.09 11868.06l.2-.15-.07-.1-.13.25z"/><path id="jdhgdz" d="M244.09 11868.06l.08-.24.11.04-.19.2z"/><path id="jdhgdA" d="M244.68 11868.28l-.06.17.09.03-.03-.2z"/><path id="jdhgdB" d="M244.68 11868.28l.05.17-.08.03.03-.2z"/><path id="jdhgdC" d="M244.85 11868.4h-.18v.09l.18-.09z"/><path id="jdhgdD" d="M244.85 11868.4l-.14.11-.05-.07.19-.04z"/><path id="jdhgdE" d="M244.5 11868.4l.16.11.05-.07-.21-.04z"/><path id="jdhgdF" d="M244.5 11868.4h.19v.09l-.19-.09z"/><path id="jdhgdG" d="M244.78 11868.61l-.06-.17-.08.02.14.15z"/><path id="jdhgdH" d="M244.78 11868.61l-.15-.11.06-.07.09.18z"/><path id="jdhgdI" d="M244.57 11868.61l.15-.11-.06-.07-.09.18z"/><path id="jdhgdJ" d="M244.57 11868.61l.06-.17.09.02-.15.15z"/><path id="jdhgdK" d="M247.74 11871.24l-.1.3.15.05-.05-.35z"/><path id="jdhgdL" d="M247.74 11871.24l.1.3-.16.05.06-.35z"/><path id="jdhgdM" d="M248.03 11871.46h-.31v.16l.31-.16z"/><path id="jdhgdN" d="M248.03 11871.46l-.25.18-.09-.13.34-.05z"/><path id="jdhgdO" d="M247.44 11871.46l.25.18.1-.13-.35-.05z"/><path id="jdhgdP" d="M247.44 11871.46h.31v.16l-.31-.16z"/><path id="jdhgdQ" d="M247.92 11871.81l-.1-.3-.14.05.24.25z"/><path id="jdhgdR" d="M247.92 11871.81l-.25-.18.09-.13.16.31z"/><path id="jdhgdS" d="M247.56 11871.81l.25-.18-.09-.13-.16.31z"/><path id="jdhgdT" d="M247.56 11871.81l.09-.3.15.05-.24.25z"/><path id="jdhgdU" d="M248.49 11870.53l-.08.24.12.04-.04-.28z"/><path id="jdhgdV" d="M248.49 11870.53l.07.24-.12.04.05-.28z"/><path id="jdhgdW" d="M248.72 11870.71h-.25v.12l.25-.12z"/><path id="jdhgdX" d="M248.72 11870.71l-.19.14-.08-.1.27-.04z"/><path id="jdhgdY" d="M248.25 11870.71l.2.14.08-.1-.28-.04z"/><path id="jdhgdZ" d="M248.25 11870.71h.25v.12l-.25-.12z"/><path id="jdhgea" d="M248.63 11870.98l-.07-.23-.12.04.19.19z"/><path id="jdhgeb" d="M248.63 11870.98l-.19-.14.07-.1.12.24z"/><path id="jdhgec" d="M248.34 11870.98l.2-.14-.07-.1-.13.24z"/><path id="jdhged" d="M248.34 11870.98l.08-.23.12.04-.2.19z"/><path id="jdhgee" d="M247.05 11870.32l-.08.23.12.05-.04-.28z"/><path id="jdhgef" d="M247.05 11870.32l.08.23-.12.05.04-.28z"/><path id="jdhgeg" d="M247.28 11870.49h-.25v.13l.25-.13z"/><path id="jdhgeh" d="M247.28 11870.49l-.2.15-.07-.11.27-.04z"/><path id="jdhgei" d="M246.81 11870.49l.2.15.07-.11-.27-.04z"/><path id="jdhgej" d="M246.81 11870.49h.25v.13l-.25-.13z"/><path id="jdhgek" d="M247.19 11870.77l-.07-.24-.12.04.19.2z"/><path id="jdhgel" d="M247.19 11870.77l-.2-.15.08-.09.12.24z"/><path id="jdhgem" d="M246.9 11870.77l.2-.15-.07-.09-.13.24z"/><path id="jdhgen" d="M246.9 11870.77l.07-.24.13.04-.2.2z"/><path id="jdhgeo" d="M241.6 11869.93l-.11.35.18.06-.07-.41z"/><path id="jdhgep" d="M241.6 11869.93l.12.35-.18.06.06-.41z"/><path id="jdhgeq" d="M241.97 11870.19h-.38v.19l.38-.19z"/><path id="jdhger" d="M241.97 11870.19l-.31.22-.11-.15.42-.07z"/><path id="jdhges" d="M241.24 11870.19l.32.22.1-.15-.42-.07z"/><path id="jdhget" d="M241.24 11870.19h.38v.19l-.38-.19z"/><path id="jdhgeu" d="M241.82 11870.61l-.11-.35-.17.05.28.3z"/><path id="jdhgev" d="M241.82 11870.61l-.3-.22.11-.15.19.37z"/><path id="jdhgew" d="M241.38 11870.61l.31-.22-.12-.15-.19.37z"/><path id="jdhgex" d="M241.38 11870.61l.12-.35.18.05-.3.3z"/><path id="jdhgey" d="M245.12 11872.38l-.04.12.05.02-.01-.14z"/><path id="jdhgez" d="M245.12 11872.38l.04.12-.06.02.02-.14z"/><path id="jdhgeA" d="M245.24 11872.47h-.13v.06l.13-.06z"/><path id="jdhgeB" d="M245.24 11872.47l-.11.07-.03-.05.14-.02z"/><path id="jdhgeC" d="M245 11872.47l.1.07.03-.05-.13-.02z"/><path id="jdhgeD" d="M245 11872.47h.12v.06l-.12-.06z"/><path id="jdhgeE" d="M245.19 11872.61l-.03-.12-.06.02.09.1z"/><path id="jdhgeF" d="M245.19 11872.61l-.1-.07.03-.05.07.12z"/><path id="jdhgeG" d="M245.04 11872.61l.1-.07-.03-.05-.07.12z"/><path id="jdhgeH" d="M245.04 11872.61l.05-.12.05.02-.1.1z"/></defs><g><g transform="translate(-215 -11848)"><g><g><use fill="#3b9241" xlink:href="#jdhga"/></g><g><use fill="#edc226" xlink:href="#jdhgb"/></g><g><g><use fill="#2c146e" xlink:href="#jdhgc"/></g><g><use fill="#fff" xlink:href="#jdhgd"/></g><g><use fill="#3b9241" xlink:href="#jdhge"/></g><g><use fill="#3b9241" xlink:href="#jdhgf"/></g><g><use fill="#3b9241" xlink:href="#jdhgg"/></g><g><use fill="#3b9241" xlink:href="#jdhgh"/></g><g><use fill="#3b9241" xlink:href="#jdhgi"/></g><g><use fill="#3b9241" xlink:href="#jdhgj"/></g><g><use fill="#3b9241" xlink:href="#jdhgk"/></g><g><use fill="#3b9241" xlink:href="#jdhgl"/></g><g><use fill="#3b9241" xlink:href="#jdhgm"/></g><g><use fill="#3b9241" xlink:href="#jdhgn"/></g><g><use fill="#3b9241" xlink:href="#jdhgo"/></g><g><use fill="#3b9241" xlink:href="#jdhgp"/></g><g><use fill="#3b9241" xlink:href="#jdhgq"/></g><g><use fill="#3b9241" xlink:href="#jdhgr"/></g><g><use fill="#3b9241" xlink:href="#jdhgs"/></g><g><use fill="#3b9241" xlink:href="#jdhgt"/></g><g><use fill="#3b9241" xlink:href="#jdhgu"/></g><g><use fill="#3b9241" xlink:href="#jdhgv"/></g><g><use fill="#3b9241" xlink:href="#jdhgw"/></g><g><use fill="#3b9241" xlink:href="#jdhgx"/></g><g><use fill="#fff" xlink:href="#jdhgy"/></g><g><use fill="#fff" xlink:href="#jdhgz"/></g><g><use fill="#fff" xlink:href="#jdhgA"/></g><g><use fill="#fff" xlink:href="#jdhgB"/></g><g><use fill="#fff" xlink:href="#jdhgC"/></g><g><use fill="#fff" xlink:href="#jdhgD"/></g><g><use fill="#fff" xlink:href="#jdhgE"/></g><g><use fill="#fff" xlink:href="#jdhgF"/></g><g><use fill="#fff" xlink:href="#jdhgG"/></g><g><use fill="#fff" xlink:href="#jdhgH"/></g><g><use fill="#fff" xlink:href="#jdhgI"/></g><g><use fill="#fff" xlink:href="#jdhgJ"/></g><g><use fill="#fff" xlink:href="#jdhgK"/></g><g><use fill="#fff" xlink:href="#jdhgL"/></g><g><use fill="#fff" xlink:href="#jdhgM"/></g><g><use fill="#fff" xlink:href="#jdhgN"/></g><g><use fill="#fff" xlink:href="#jdhgO"/></g><g><use fill="#fff" xlink:href="#jdhgP"/></g><g><use fill="#fff" xlink:href="#jdhgQ"/></g><g><use fill="#fff" xlink:href="#jdhgR"/></g><g><use fill="#fff" xlink:href="#jdhgS"/></g><g><use fill="#fff" xlink:href="#jdhgT"/></g><g><use fill="#fff" xlink:href="#jdhgU"/></g><g><use fill="#fff" xlink:href="#jdhgV"/></g><g><use fill="#fff" xlink:href="#jdhgW"/></g><g><use fill="#fff" xlink:href="#jdhgX"/></g><g><use fill="#fff" xlink:href="#jdhgY"/></g><g><use fill="#fff" xlink:href="#jdhgZ"/></g><g><use fill="#fff" xlink:href="#jdhgaa"/></g><g><use fill="#fff" xlink:href="#jdhgab"/></g><g><use fill="#fff" xlink:href="#jdhgac"/></g><g><use fill="#fff" xlink:href="#jdhgad"/></g><g><use fill="#fff" xlink:href="#jdhgae"/></g><g><use fill="#fff" xlink:href="#jdhgaf"/></g><g><use fill="#fff" xlink:href="#jdhgag"/></g><g><use fill="#fff" xlink:href="#jdhgah"/></g><g><use fill="#fff" xlink:href="#jdhgai"/></g><g><use fill="#fff" xlink:href="#jdhgaj"/></g><g><use fill="#fff" xlink:href="#jdhgak"/></g><g><use fill="#fff" xlink:href="#jdhgal"/></g><g><use fill="#fff" xlink:href="#jdhgam"/></g><g><use fill="#fff" xlink:href="#jdhgan"/></g><g><use fill="#fff" xlink:href="#jdhgao"/></g><g><use fill="#fff" xlink:href="#jdhgap"/></g><g><use fill="#fff" xlink:href="#jdhgaq"/></g><g><use fill="#fff" xlink:href="#jdhgar"/></g><g><use fill="#fff" xlink:href="#jdhgas"/></g><g><use fill="#fff" xlink:href="#jdhgat"/></g><g><use fill="#fff" xlink:href="#jdhgau"/></g><g><use fill="#fff" xlink:href="#jdhgav"/></g><g><use fill="#fff" xlink:href="#jdhgaw"/></g><g><use fill="#fff" xlink:href="#jdhgax"/></g><g><use fill="#fff" xlink:href="#jdhgay"/></g><g><use fill="#fff" xlink:href="#jdhgaz"/></g><g><use fill="#fff" xlink:href="#jdhgaA"/></g><g><use fill="#fff" xlink:href="#jdhgaB"/></g><g><use fill="#fff" xlink:href="#jdhgaC"/></g><g><use fill="#fff" xlink:href="#jdhgaD"/></g><g><use fill="#fff" xlink:href="#jdhgaE"/></g><g><use fill="#fff" xlink:href="#jdhgaF"/></g><g><use fill="#fff" xlink:href="#jdhgaG"/></g><g><use fill="#fff" xlink:href="#jdhgaH"/></g><g><use fill="#fff" xlink:href="#jdhgaI"/></g><g><use fill="#fff" xlink:href="#jdhgaJ"/></g><g><use fill="#fff" xlink:href="#jdhgaK"/></g><g><use fill="#fff" xlink:href="#jdhgaL"/></g><g><use fill="#fff" xlink:href="#jdhgaM"/></g><g><use fill="#fff" xlink:href="#jdhgaN"/></g><g><use fill="#fff" xlink:href="#jdhgaO"/></g><g><use fill="#fff" xlink:href="#jdhgaP"/></g><g><use fill="#fff" xlink:href="#jdhgaQ"/></g><g><use fill="#fff" xlink:href="#jdhgaR"/></g><g><use fill="#fff" xlink:href="#jdhgaS"/></g><g><use fill="#fff" xlink:href="#jdhgaT"/></g><g><use fill="#fff" xlink:href="#jdhgaU"/></g><g><use fill="#fff" xlink:href="#jdhgaV"/></g><g><use fill="#fff" xlink:href="#jdhgaW"/></g><g><use fill="#fff" xlink:href="#jdhgaX"/></g><g><use fill="#fff" xlink:href="#jdhgaY"/></g><g><use fill="#fff" xlink:href="#jdhgaZ"/></g><g><use fill="#fff" xlink:href="#jdhgba"/></g><g><use fill="#fff" xlink:href="#jdhgbb"/></g><g><use fill="#fff" xlink:href="#jdhgbc"/></g><g><use fill="#fff" xlink:href="#jdhgbd"/></g><g><use fill="#fff" xlink:href="#jdhgbe"/></g><g><use fill="#fff" xlink:href="#jdhgbf"/></g><g><use fill="#fff" xlink:href="#jdhgbg"/></g><g><use fill="#fff" xlink:href="#jdhgbh"/></g><g><use fill="#fff" xlink:href="#jdhgbi"/></g><g><use fill="#fff" xlink:href="#jdhgbj"/></g><g><use fill="#fff" xlink:href="#jdhgbk"/></g><g><use fill="#fff" xlink:href="#jdhgbl"/></g><g><use fill="#fff" xlink:href="#jdhgbm"/></g><g><use fill="#fff" xlink:href="#jdhgbn"/></g><g><use fill="#fff" xlink:href="#jdhgbo"/></g><g><use fill="#fff" xlink:href="#jdhgbp"/></g><g><use fill="#fff" xlink:href="#jdhgbq"/></g><g><use fill="#fff" xlink:href="#jdhgbr"/></g><g><use fill="#fff" xlink:href="#jdhgbs"/></g><g><use fill="#fff" xlink:href="#jdhgbt"/></g><g><use fill="#fff" xlink:href="#jdhgbu"/></g><g><use fill="#fff" xlink:href="#jdhgbv"/></g><g><use fill="#fff" xlink:href="#jdhgbw"/></g><g><use fill="#fff" xlink:href="#jdhgbx"/></g><g><use fill="#fff" xlink:href="#jdhgby"/></g><g><use fill="#fff" xlink:href="#jdhgbz"/></g><g><use fill="#fff" xlink:href="#jdhgbA"/></g><g><use fill="#fff" xlink:href="#jdhgbB"/></g><g><use fill="#fff" xlink:href="#jdhgbC"/></g><g><use fill="#fff" xlink:href="#jdhgbD"/></g><g><use fill="#fff" xlink:href="#jdhgbE"/></g><g><use fill="#fff" xlink:href="#jdhgbF"/></g><g><use fill="#fff" xlink:href="#jdhgbG"/></g><g><use fill="#fff" xlink:href="#jdhgbH"/></g><g><use fill="#fff" xlink:href="#jdhgbI"/></g><g><use fill="#fff" xlink:href="#jdhgbJ"/></g><g><use fill="#fff" xlink:href="#jdhgbK"/></g><g><use fill="#fff" xlink:href="#jdhgbL"/></g><g><use fill="#fff" xlink:href="#jdhgbM"/></g><g><use fill="#fff" xlink:href="#jdhgbN"/></g><g><use fill="#fff" xlink:href="#jdhgbO"/></g><g><use fill="#fff" xlink:href="#jdhgbP"/></g><g><use fill="#fff" xlink:href="#jdhgbQ"/></g><g><use fill="#fff" xlink:href="#jdhgbR"/></g><g><use fill="#fff" xlink:href="#jdhgbS"/></g><g><use fill="#fff" xlink:href="#jdhgbT"/></g><g><use fill="#fff" xlink:href="#jdhgbU"/></g><g><use fill="#fff" xlink:href="#jdhgbV"/></g><g><use fill="#fff" xlink:href="#jdhgbW"/></g><g><use fill="#fff" xlink:href="#jdhgbX"/></g><g><use fill="#fff" xlink:href="#jdhgbY"/></g><g><use fill="#fff" xlink:href="#jdhgbZ"/></g><g><use fill="#fff" xlink:href="#jdhgca"/></g><g><use fill="#fff" xlink:href="#jdhgcb"/></g><g><use fill="#fff" xlink:href="#jdhgcc"/></g><g><use fill="#fff" xlink:href="#jdhgcd"/></g><g><use fill="#fff" xlink:href="#jdhgce"/></g><g><use fill="#fff" xlink:href="#jdhgcf"/></g><g><use fill="#fff" xlink:href="#jdhgcg"/></g><g><use fill="#fff" xlink:href="#jdhgch"/></g><g><use fill="#fff" xlink:href="#jdhgci"/></g><g><use fill="#fff" xlink:href="#jdhgcj"/></g><g><use fill="#fff" xlink:href="#jdhgck"/></g><g><use fill="#fff" xlink:href="#jdhgcl"/></g><g><use fill="#fff" xlink:href="#jdhgcm"/></g><g><use fill="#fff" xlink:href="#jdhgcn"/></g><g><use fill="#fff" xlink:href="#jdhgco"/></g><g><use fill="#fff" xlink:href="#jdhgcp"/></g><g><use fill="#fff" xlink:href="#jdhgcq"/></g><g><use fill="#fff" xlink:href="#jdhgcr"/></g><g><use fill="#fff" xlink:href="#jdhgcs"/></g><g><use fill="#fff" xlink:href="#jdhgct"/></g><g><use fill="#fff" xlink:href="#jdhgcu"/></g><g><use fill="#fff" xlink:href="#jdhgcv"/></g><g><use fill="#fff" xlink:href="#jdhgcw"/></g><g><use fill="#fff" xlink:href="#jdhgcx"/></g><g><use fill="#fff" xlink:href="#jdhgcy"/></g><g><use fill="#fff" xlink:href="#jdhgcz"/></g><g><use fill="#fff" xlink:href="#jdhgcA"/></g><g><use fill="#fff" xlink:href="#jdhgcB"/></g><g><use fill="#fff" xlink:href="#jdhgcC"/></g><g><use fill="#fff" xlink:href="#jdhgcD"/></g><g><use fill="#fff" xlink:href="#jdhgcE"/></g><g><use fill="#fff" xlink:href="#jdhgcF"/></g><g><use fill="#fff" xlink:href="#jdhgcG"/></g><g><use fill="#fff" xlink:href="#jdhgcH"/></g><g><use fill="#fff" xlink:href="#jdhgcI"/></g><g><use fill="#fff" xlink:href="#jdhgcJ"/></g><g><use fill="#fff" xlink:href="#jdhgcK"/></g><g><use fill="#fff" xlink:href="#jdhgcL"/></g><g><use fill="#fff" xlink:href="#jdhgcM"/></g><g><use fill="#fff" xlink:href="#jdhgcN"/></g><g><use fill="#fff" xlink:href="#jdhgcO"/></g><g><use fill="#fff" xlink:href="#jdhgcP"/></g><g><use fill="#fff" xlink:href="#jdhgcQ"/></g><g><use fill="#fff" xlink:href="#jdhgcR"/></g><g><use fill="#fff" xlink:href="#jdhgcS"/></g><g><use fill="#fff" xlink:href="#jdhgcT"/></g><g><use fill="#fff" xlink:href="#jdhgcU"/></g><g><use fill="#fff" xlink:href="#jdhgcV"/></g><g><use fill="#fff" xlink:href="#jdhgcW"/></g><g><use fill="#fff" xlink:href="#jdhgcX"/></g><g><use fill="#fff" xlink:href="#jdhgcY"/></g><g><use fill="#fff" xlink:href="#jdhgcZ"/></g><g><use fill="#fff" xlink:href="#jdhgda"/></g><g><use fill="#fff" xlink:href="#jdhgdb"/></g><g><use fill="#fff" xlink:href="#jdhgdc"/></g><g><use fill="#fff" xlink:href="#jdhgdd"/></g><g><use fill="#fff" xlink:href="#jdhgde"/></g><g><use fill="#fff" xlink:href="#jdhgdf"/></g><g><use fill="#fff" xlink:href="#jdhgdg"/></g><g><use fill="#fff" xlink:href="#jdhgdh"/></g><g><use fill="#fff" xlink:href="#jdhgdi"/></g><g><use fill="#fff" xlink:href="#jdhgdj"/></g><g><use fill="#fff" xlink:href="#jdhgdk"/></g><g><use fill="#fff" xlink:href="#jdhgdl"/></g><g><use fill="#fff" xlink:href="#jdhgdm"/></g><g><use fill="#fff" xlink:href="#jdhgdn"/></g><g><use fill="#fff" xlink:href="#jdhgdo"/></g><g><use fill="#fff" xlink:href="#jdhgdp"/></g><g><use fill="#fff" xlink:href="#jdhgdq"/></g><g><use fill="#fff" xlink:href="#jdhgdr"/></g><g><use fill="#fff" xlink:href="#jdhgds"/></g><g><use fill="#fff" xlink:href="#jdhgdt"/></g><g><use fill="#fff" xlink:href="#jdhgdu"/></g><g><use fill="#fff" xlink:href="#jdhgdv"/></g><g><use fill="#fff" xlink:href="#jdhgdw"/></g><g><use fill="#fff" xlink:href="#jdhgdx"/></g><g><use fill="#fff" xlink:href="#jdhgdy"/></g><g><use fill="#fff" xlink:href="#jdhgdz"/></g><g><use fill="#fff" xlink:href="#jdhgdA"/></g><g><use fill="#fff" xlink:href="#jdhgdB"/></g><g><use fill="#fff" xlink:href="#jdhgdC"/></g><g><use fill="#fff" xlink:href="#jdhgdD"/></g><g><use fill="#fff" xlink:href="#jdhgdE"/></g><g><use fill="#fff" xlink:href="#jdhgdF"/></g><g><use fill="#fff" xlink:href="#jdhgdG"/></g><g><use fill="#fff" xlink:href="#jdhgdH"/></g><g><use fill="#fff" xlink:href="#jdhgdI"/></g><g><use fill="#fff" xlink:href="#jdhgdJ"/></g><g><use fill="#fff" xlink:href="#jdhgdK"/></g><g><use fill="#fff" xlink:href="#jdhgdL"/></g><g><use fill="#fff" xlink:href="#jdhgdM"/></g><g><use fill="#fff" xlink:href="#jdhgdN"/></g><g><use fill="#fff" xlink:href="#jdhgdO"/></g><g><use fill="#fff" xlink:href="#jdhgdP"/></g><g><use fill="#fff" xlink:href="#jdhgdQ"/></g><g><use fill="#fff" xlink:href="#jdhgdR"/></g><g><use fill="#fff" xlink:href="#jdhgdS"/></g><g><use fill="#fff" xlink:href="#jdhgdT"/></g><g><use fill="#fff" xlink:href="#jdhgdU"/></g><g><use fill="#fff" xlink:href="#jdhgdV"/></g><g><use fill="#fff" xlink:href="#jdhgdW"/></g><g><use fill="#fff" xlink:href="#jdhgdX"/></g><g><use fill="#fff" xlink:href="#jdhgdY"/></g><g><use fill="#fff" xlink:href="#jdhgdZ"/></g><g><use fill="#fff" xlink:href="#jdhgea"/></g><g><use fill="#fff" xlink:href="#jdhgeb"/></g><g><use fill="#fff" xlink:href="#jdhgec"/></g><g><use fill="#fff" xlink:href="#jdhged"/></g><g><use fill="#fff" xlink:href="#jdhgee"/></g><g><use fill="#fff" xlink:href="#jdhgef"/></g><g><use fill="#fff" xlink:href="#jdhgeg"/></g><g><use fill="#fff" xlink:href="#jdhgeh"/></g><g><use fill="#fff" xlink:href="#jdhgei"/></g><g><use fill="#fff" xlink:href="#jdhgej"/></g><g><use fill="#fff" xlink:href="#jdhgek"/></g><g><use fill="#fff" xlink:href="#jdhgel"/></g><g><use fill="#fff" xlink:href="#jdhgem"/></g><g><use fill="#fff" xlink:href="#jdhgen"/></g><g><use fill="#fff" xlink:href="#jdhgeo"/></g><g><use fill="#fff" xlink:href="#jdhgep"/></g><g><use fill="#fff" xlink:href="#jdhgeq"/></g><g><use fill="#fff" xlink:href="#jdhger"/></g><g><use fill="#fff" xlink:href="#jdhges"/></g><g><use fill="#fff" xlink:href="#jdhget"/></g><g><use fill="#fff" xlink:href="#jdhgeu"/></g><g><use fill="#fff" xlink:href="#jdhgev"/></g><g><use fill="#fff" xlink:href="#jdhgew"/></g><g><use fill="#fff" xlink:href="#jdhgex"/></g><g><use fill="#fff" xlink:href="#jdhgey"/></g><g><use fill="#fff" xlink:href="#jdhgez"/></g><g><use fill="#fff" xlink:href="#jdhgeA"/></g><g><use fill="#fff" xlink:href="#jdhgeB"/></g><g><use fill="#fff" xlink:href="#jdhgeC"/></g><g><use fill="#fff" xlink:href="#jdhgeD"/></g><g><use fill="#fff" xlink:href="#jdhgeE"/></g><g><use fill="#fff" xlink:href="#jdhgeF"/></g><g><use fill="#fff" xlink:href="#jdhgeG"/></g><g><use fill="#fff" xlink:href="#jdhgeH"/></g></g></g></g></g></svg>