<svg xmlns="http://www.w3.org/2000/svg" xmlns:xlink="http://www.w3.org/1999/xlink" width="61" height="36" viewBox="0 0 61 36"><defs><path id="6waua" d="M940.14 11883.17v-35.01h14.12v35.01z"/><path id="6waub" d="M986.04 11883.17v-35.01h14.12v35.01z"/><path id="6wauc" d="M954.26 11883.17v-35.01h31.78v35.01z"/><path id="6waud" d="M970.15 11852.69l-2.08 4.05c-.24.44-.66.39-1.09.15l-1.51-.82 1.13 6.22c.24 1.14-.52 1.14-.9.65l-2.63-3.07-.45 1.59a.51.51 0 0 1-.59.37l-3.33-.73.87 3.31c.19.74.34 1-.18 1.24l-1.19.58 5.73 4.84c.23.2.33.51.25.81l-.5 1.72 5.71-.69c.18 0 .47.15.47.36l-.27 6.28h1l-.16-6.26c0-.21.27-.38.44-.38l5.71.69-.5-1.72a.8.8 0 0 1 .26-.81l5.72-4.84-1.18-.58c-.52-.2-.38-.5-.19-1.24l.87-3.31-3.32.73a.5.5 0 0 1-.59-.37l-.43-1.55-2.63 3.07c-.37.49-1.13.49-.89-.65l1.12-6.22-1.51.82c-.42.24-.85.29-1.08-.15z"/></defs><g><g transform="translate(-940 -11848)"><g><g><use fill="#ea0020" xlink:href="#6waua"/></g><g><use fill="#ea0020" xlink:href="#6waub"/></g><g><use fill="#fff" xlink:href="#6wauc"/></g><g><use fill="#ea0020" xlink:href="#6waud"/></g></g></g></g></svg>