<svg xmlns="http://www.w3.org/2000/svg" xmlns:xlink="http://www.w3.org/1999/xlink" width="551.35" height="16425.91" viewBox="0 0 551.35 16425.91"><defs><path id="odsqa" d="M1449.82 16982.55v403.03h-523.3v-100.98l523.3-302.05z"/><path id="odsqc" d="M1449.82 16982.55l-.2.12.2.11v-.23z"/><path id="odsqd" d="M1449.82 16987.25l-4.06-2.35-.88.51 4.94 2.85v-1.01z"/><path id="odsqe" d="M1449.82 16992.72l-8.81-5.08-.88.51 9.69 5.59v-1.02z"/><path id="odsqf" d="M1449.82 16998.2l-13.56-7.82-.88.51 14.44 8.33v-1.02z"/><path id="odsqg" d="M1449.82 17003.68l-18.3-10.56-.88.51 19.18 11.07v-1.02z"/><path id="odsqh" d="M1449.82 17009.16l-23.05-13.3-.88.51 23.93 13.81v-1.02z"/><path id="odsqi" d="M1449.82 17014.64l-27.8-16.04-.87.5 28.67 16.56v-1.02z"/><path id="odsqj" d="M1449.82 17020.12l-32.54-18.78-.88.5 33.42 19.3v-1.02z"/><path id="odsqk" d="M1449.82 17025.6l-37.29-21.52-.88.5 38.17 22.04v-1.02z"/><path id="odsql" d="M1449.82 17031.08l-42.03-24.26-.88.5 42.91 24.78v-1.02z"/><path id="odsqm" d="M1449.82 17036.56l-46.78-27.01-.88.51 47.66 27.52v-1.02z"/><path id="odsqn" d="M1449.82 17042.04l-51.53-29.75-.87.51 52.4 30.25v-1.01z"/><path id="odsqo" d="M1449.82 17047.52l-56.27-32.49-.88.51 57.15 32.99v-1.01z"/><path id="odsqp" d="M1449.82 17053l-61.02-35.23-.88.51 61.9 35.73v-1.01z"/><path id="odsqq" d="M1449.82 17058.48l-65.76-37.97-.88.51 66.64 38.47v-1.01z"/><path id="odsqr" d="M1449.82 17063.96l-70.51-40.71-.88.51 71.39 41.21v-1.01z"/><path id="odsqs" d="M1449.82 17069.44l-75.26-43.45-.88.51 76.14 43.95v-1.01z"/><path id="odsqt" d="M1449.82 17074.92l-80-46.19-.88.51 80.88 46.69v-1.01z"/><path id="odsqu" d="M1449.82 17080.4l-84.75-48.93-.88.51 85.63 49.43v-1.01z"/><path id="odsqv" d="M1449.82 17085.88l-89.49-51.67-.88.51 90.37 52.17v-1.01z"/><path id="odsqw" d="M1449.82 17091.36l-94.24-54.41-.88.51 95.12 54.91v-1.01z"/><path id="odsqx" d="M1449.82 17096.84l-98.99-57.15-.88.51 99.87 57.65v-1.01z"/><path id="odsqy" d="M1449.82 17102.32l-103.73-59.89-.88.51 104.61 60.39v-1.01z"/><path id="odsqz" d="M1449.82 17107.8l-108.48-62.63-.88.5 109.36 63.14v-1.01z"/><path id="odsqA" d="M1449.82 17113.28l-113.22-65.37-.88.5 114.1 65.88v-1.01z"/><path id="odsqB" d="M1449.82 17118.76l-117.97-68.11-.88.5 118.85 68.62v-1.01z"/><path id="odsqC" d="M1449.82 17124.23l-122.72-70.84-.88.5 123.6 71.36v-1.02z"/><path id="odsqD" d="M1449.82 17129.71l-127.46-73.58-.88.5 128.34 74.1v-1.02z"/><path id="odsqE" d="M1449.82 17135.19l-132.21-76.32-.88.5 133.09 76.84v-1.02z"/><path id="odsqF" d="M1449.82 17140.67l-136.95-79.06-.88.5 137.83 79.58v-1.02z"/><path id="odsqG" d="M1449.82 17146.15l-141.7-81.81-.88.51 142.58 82.32v-1.02z"/><path id="odsqH" d="M1449.82 17151.63l-146.45-84.55-.88.51 147.33 85.06v-1.02z"/><path id="odsqI" d="M1449.82 17157.11l-151.19-87.29-.88.51 152.07 87.8v-1.02z"/><path id="odsqJ" d="M1449.82 17162.59l-155.94-90.03-.88.51 156.82 90.54v-1.02z"/><path id="odsqK" d="M1449.82 17168.07l-160.68-92.77-.88.51 161.56 93.28v-1.02z"/><path id="odsqL" d="M1449.82 17173.55l-165.43-95.51-.88.51 166.31 96.02v-1.02z"/><path id="odsqM" d="M1449.82 17179.03l-170.18-98.25-.87.51 171.05 98.75v-1.01z"/><path id="odsqN" d="M1449.82 17184.51l-174.92-100.99-.88.51 175.8 101.49v-1.01z"/><path id="odsqO" d="M1449.82 17189.99l-179.67-103.73-.88.51 180.55 104.23v-1.01z"/><path id="odsqP" d="M1449.82 17195.47L1265.4 17089l-.87.51 185.29 106.97v-1.01z"/><path id="odsqQ" d="M1449.82 17200.95l-189.16-109.21-.88.51 190.04 109.71v-1.01z"/><path id="odsqR" d="M1449.82 17206.43l-193.91-111.95-.88.5 194.79 112.46v-1.01z"/><path id="odsqS" d="M1449.82 17211.91l-198.65-114.69-.88.5 199.53 115.2v-1.01z"/><path id="odsqT" d="M1449.82 17217.39l-203.4-117.43-.88.5 204.28 117.94v-1.01z"/><path id="odsqU" d="M1449.82 17222.87l-208.15-120.17-.87.5 209.02 120.68v-1.01z"/><path id="odsqV" d="M1449.82 17228.35l-212.89-122.91-.88.5 213.77 123.42v-1.01z"/><path id="odsqW" d="M1449.82 17233.83l-217.64-125.66-.88.51 218.52 126.16v-1.01z"/><path id="odsqX" d="M1449.82 17239.31l-222.38-128.4-.88.51 223.26 128.9v-1.01z"/><path id="odsqY" d="M1449.82 17244.79l-227.13-131.14-.88.51 228.01 131.64v-1.01z"/><path id="odsqZ" d="M1449.82 17250.26l-231.88-133.87-.87.51 232.75 134.38v-1.02z"/><path id="odsqaa" d="M1449.82 17255.74l-236.62-136.61-.88.51 237.5 137.12v-1.02z"/><path id="odsqab" d="M1449.82 17261.22l-241.37-139.35-.88.51 242.25 139.86v-1.02z"/><path id="odsqac" d="M1449.82 17266.7l-246.11-142.09-.88.51 246.99 142.6v-1.02z"/><path id="odsqad" d="M1449.82 17272.18l-250.86-144.83-.88.51 251.74 145.34v-1.02z"/><path id="odsqae" d="M1449.82 17277.66l-255.61-147.57-.87.51 256.48 148.08v-1.02z"/><path id="odsqaf" d="M1449.82 17283.14l-260.35-150.31-.88.51 261.23 150.82v-1.02z"/><path id="odsqag" d="M1449.82 17288.62l-265.1-153.05-.88.51 265.98 153.56v-1.02z"/><path id="odsqah" d="M1449.82 17294.1l-269.84-155.79-.88.51 270.72 156.3v-1.02z"/><path id="odsqai" d="M1449.82 17299.58l-274.59-158.53-.88.51 275.47 159.04v-1.02z"/><path id="odsqaj" d="M1449.82 17305.06l-279.34-161.27-.87.51 280.21 161.78v-1.02z"/><path id="odsqak" d="M1449.82 17310.54l-284.08-164.01-.88.51 284.96 164.51v-1.01z"/><path id="odsqal" d="M1449.82 17316.02l-288.83-166.75-.88.5 289.71 167.26v-1.01z"/><path id="odsqam" d="M1449.82 17321.5l-293.57-169.49-.88.5 294.45 170v-1.01z"/><path id="odsqan" d="M1449.82 17326.98l-298.32-172.23-.88.5 299.2 172.74v-1.01z"/><path id="odsqao" d="M1449.82 17332.46l-303.07-174.98-.87.51 303.94 175.48v-1.01z"/><path id="odsqap" d="M1449.82 17337.94l-307.81-177.72-.88.51 308.69 178.22v-1.01z"/><path id="odsqaq" d="M1449.82 17343.42l-312.56-180.46-.88.51 313.44 180.96v-1.01z"/><path id="odsqar" d="M1449.82 17348.9l-317.3-183.2-.88.51 318.18 183.7v-1.01z"/><path id="odsqas" d="M1449.82 17354.38l-322.05-185.94-.88.51 322.93 186.44v-1.01z"/><path id="odsqat" d="M1449.82 17359.86l-326.8-188.68-.88.51 327.68 189.18v-1.01z"/><path id="odsqau" d="M1449.82 17365.34l-331.54-191.42-.88.51 332.42 191.92v-1.01z"/><path id="odsqav" d="M1449.82 17370.82l-336.29-194.16-.88.51 337.17 194.66v-1.01z"/><path id="odsqaw" d="M1449.82 17376.3l-341.03-196.9-.88.51 341.91 197.4v-1.01z"/><path id="odsqax" d="M1449.82 17381.78l-345.78-199.64-.88.51 346.66 200.14v-1.01z"/><path id="odsqay" d="M1446.92 17385.58l-347.63-200.7-.88.51 346.76 200.19h1.75z"/><path id="odsqaz" d="M1437.43 17385.58l-342.88-197.96-.88.51 342.01 197.45h1.75z"/><path id="odsqaA" d="M1427.94 17385.58l-338.14-195.22-.88.51 337.26 194.71h1.76z"/><path id="odsqaB" d="M1418.45 17385.58l-333.39-192.48-.88.51 332.51 191.97h1.76z"/><path id="odsqaC" d="M1408.96 17385.58l-328.65-189.74-.88.51 327.77 189.23h1.76z"/><path id="odsqaD" d="M1399.47 17385.58l-323.91-187-.88.5 323.03 186.5h1.76z"/><path id="odsqaE" d="M1389.98 17385.58l-319.16-184.26-.88.5 318.28 183.76h1.76z"/><path id="odsqaF" d="M1380.49 17385.58l-314.42-181.52-.88.5 313.54 181.02h1.76z"/><path id="odsqaG" d="M1371 17385.58l-309.67-178.78-.88.5 308.79 178.28h1.76z"/><path id="odsqaH" d="M1361.51 17385.58l-304.93-176.04-.88.5 304.05 175.54h1.76z"/><path id="odsqaI" d="M1352.01 17385.58l-300.18-173.31-.88.51 299.31 172.8h1.75z"/><path id="odsqaJ" d="M1342.52 17385.58l-295.43-170.57-.88.51 294.56 170.06h1.75z"/><path id="odsqaK" d="M1333.03 17385.58l-290.69-167.83-.88.51 289.82 167.32h1.75z"/><path id="odsqaL" d="M1323.54 17385.58l-285.94-165.09-.88.51 285.07 164.58h1.75z"/><path id="odsqaM" d="M1314.05 17385.58l-281.2-162.35-.88.51 280.32 161.84h1.76z"/><path id="odsqaN" d="M1304.56 17385.58l-276.46-159.61-.88.51 275.58 159.1h1.76z"/><path id="odsqaO" d="M1295.07 17385.58l-271.71-156.87-.88.51 270.83 156.36h1.76z"/><path id="odsqaP" d="M1285.58 17385.58l-266.97-154.13-.88.51 266.09 153.62h1.76z"/><path id="odsqaQ" d="M1276.09 17385.58l-262.22-151.39-.88.51 261.34 150.88h1.76z"/><path id="odsqaR" d="M1266.6 17385.58l-257.48-148.65-.88.51 256.6 148.14h1.76z"/><path id="odsqaS" d="M1257.11 17385.58l-252.74-145.91-.88.51 251.86 145.4h1.76z"/><path id="odsqaT" d="M1247.61 17385.58l-247.98-143.17-.88.5 247.11 142.67h1.75z"/><path id="odsqaU" d="M1238.12 17385.58l-243.24-140.43-.88.5 242.37 139.93h1.75z"/><path id="odsqaV" d="M1228.63 17385.58l-238.5-137.69-.87.5 237.62 137.19h1.75z"/><path id="odsqaW" d="M1219.14 17385.58l-233.75-134.95-.88.5 232.87 134.45h1.76z"/><path id="odsqaX" d="M1209.65 17385.58l-229.01-132.21-.88.5 228.13 131.71h1.76z"/><path id="odsqaY" d="M1200.16 17385.58l-224.26-129.47-.88.5 223.38 128.97h1.76z"/><path id="odsqaZ" d="M1190.67 17385.58l-219.52-126.73-.88.5 218.64 126.23h1.76z"/><path id="odsqba" d="M1181.18 17385.58l-214.78-124-.87.51 213.89 123.49h1.76z"/><path id="odsqbb" d="M1171.69 17385.58l-210.03-121.26-.88.51 209.15 120.75h1.76z"/><path id="odsqbc" d="M1162.2 17385.58l-205.29-118.52-.88.51 204.41 118.01h1.76z"/><path id="odsqbd" d="M1152.7 17385.58l-200.53-115.78-.88.51 199.66 115.27h1.75z"/><path id="odsqbe" d="M1143.21 17385.58l-195.79-113.04-.88.51 194.92 112.53h1.75z"/><path id="odsqbf" d="M1133.72 17385.58l-191.05-110.3-.87.51 190.17 109.79h1.75z"/><path id="odsqbg" d="M1124.23 17385.58l-186.3-107.56-.88.51 185.43 107.05h1.75z"/><path id="odsqbh" d="M1114.74 17385.58l-181.56-104.82-.88.51 180.68 104.31h1.76z"/><path id="odsqbi" d="M1105.25 17385.58l-176.81-102.08-.88.51 175.93 101.57h1.76z"/><path id="odsqbj" d="M1095.76 17385.58l-169.24-97.7v1.01l167.48 96.69h1.76z"/><path id="odsqbk" d="M1086.27 17385.58l-159.75-92.23v1.02l157.99 91.21h1.76z"/><path id="odsqbl" d="M1076.78 17385.58l-150.26-86.75v1.02l148.5 85.73h1.76z"/><path id="odsqbm" d="M1067.29 17385.58l-140.77-81.27v1.02l139.01 80.25h1.76z"/><path id="odsqbn" d="M1057.8 17385.58l-131.28-75.79v1.02l129.52 74.77h1.76z"/><path id="odsqbo" d="M1048.31 17385.58l-121.79-70.31v1.02l120.03 69.29h1.76z"/><path id="odsqbp" d="M1038.81 17385.58l-112.29-64.83v1.02l110.54 63.81h1.75z"/><path id="odsqbq" d="M1029.32 17385.58l-102.8-59.35v1.02l101.05 58.33h1.75z"/><path id="odsqbr" d="M1019.83 17385.58l-93.31-53.87v1.02l91.56 52.85h1.75z"/><path id="odsqbs" d="M1010.34 17385.58l-83.82-48.39v1.01l82.07 47.38h1.75z"/><path id="odsqbt" d="M1000.85 17385.58l-74.33-42.91v1.01l72.57 41.9h1.76z"/><path id="odsqbu" d="M991.36 17385.58l-64.84-37.43v1.01l63.08 36.42h1.76z"/><path id="odsqbv" d="M981.87 17385.58l-55.35-31.95v1.01l53.59 30.94h1.76z"/><path id="odsqbw" d="M972.38 17385.58l-45.86-26.47v1.01l44.1 25.46h1.76z"/><path id="odsqbx" d="M962.89 17385.58l-36.37-20.99v1.01l34.61 19.98h1.76z"/><path id="odsqby" d="M953.4 17385.58l-26.88-15.51v1.01l25.12 14.5h1.76z"/><path id="odsqbz" d="M943.9 17385.58l-17.38-10.03v1.01l15.63 9.02h1.75z"/><path id="odsqbA" d="M934.41 17385.58l-7.89-4.55v1.01l6.14 3.54h1.75z"/><path id="odsqbB" d="M1188.17 17212.25l204.41-118.03-204.41 147.13v-29.1z"/><path id="odsqbD" d="M1324.45 16897.51l-68.14 39.34v-78.68l68.14 39.34z"/><path id="odsqbF" d="M1324.45 16897.52v-.01l-68.14 39.34 68.14 39.34 68.13-39.33v-.01l-68.13-39.33z"/><path id="odsqbH" d="M1324.45 16818.83v78.68l-68.14-39.34 68.14-39.34z"/><path id="odsqbJ" d="M1324.45 16976.19V17054.88l68.13-39.34v-78.68l-68.13 39.33z"/><path id="odsqbL" d="M1051.9 17054.88l-68.14 39.34 68.13 39.34h.01v-.01l68.13-39.33-68.13-39.34z"/><path id="odsqbN" d="M1120.03 17094.22v78.68l-68.13-39.34v-.01l68.13-39.33z"/><path id="odsqbP" d="M1188.17 17133.56l-68.14 39.33v-78.67l68.14 39.34z"/><path id="odsqbR" d="M1324.45 17054.88l-68.14-39.34-68.14 39.34 68.14 39.33v.01l68.14-39.34z"/><path id="odsqbT" d="M1392.58 17094.21v.01l-68.13 39.34v-78.68l68.13 39.33z"/><path id="odsqbU" d="M1324.45 17133.56v78.67l-68.14-39.33 68.14-39.34z"/><path id="odsqbW" d="M1324.45 17212.23l-68.14 39.35v-78.68l68.14 39.33z"/><path id="odsqbX" d="M1392.58 17015.54v78.67l-68.13-39.33 68.13-39.34z"/><path id="odsqbZ" d="M1188.17 16897.52V16976.21l68.14 39.33V16936.85l-68.14-39.33z"/><path id="odsqcb" d="M1256.31 17015.54l-68.14 39.34v-78.67l68.14 39.33z"/><path id="odsqcd" d="M1188.17 16976.21v78.67l-68.13-39.34 68.13-39.33z"/><path id="odsqcf" d="M1256.31 17094.22v78.68l68.14-39.34v-78.68l-68.14 39.34z"/><path id="odsqch" d="M1256.31 17094.22v78.67l-68.14-39.33v-.01l68.14-39.33z"/><path id="odsqcj" d="M1256.31 17094.21v.01l-68.14 39.33v-78.67l68.14 39.33z"/><path id="odsqcl" d="M1120.04 17015.54h-.01v78.68l68.14 39.34v-78.68l-68.13-39.34z"/><path id="odsqcn" d="M1324.45 17212.25l-204.42-118.03 204.42 147.13v-29.1z"/><path id="odsqcp" d="M1391.77 17172.9l-67.04-38.7v1.01l66.16 38.2.88-.51z"/><path id="odsqcq" d="M1387.03 17175.64l-62.3-35.96v1.01l61.42 35.46.88-.51z"/><path id="odsqcr" d="M1382.28 17178.38l-57.55-33.22v1.01l56.67 32.72.88-.51z"/><path id="odsqcs" d="M1377.53 17181.12l-52.8-30.48v1.01l51.92 29.98.88-.51z"/><path id="odsqct" d="M1372.79 17183.86l-48.06-27.74v1.01l47.18 27.24.88-.51z"/><path id="odsqcu" d="M1368.04 17186.6l-43.31-25v1.01l42.43 24.5.88-.51z"/><path id="odsqcv" d="M1363.3 17189.34l-38.57-22.26v1.01l37.69 21.76.88-.51z"/><path id="odsqcw" d="M1358.55 17192.08l-33.82-19.52v1.01l32.94 19.02.88-.51z"/><path id="odsqcx" d="M1353.8 17194.82l-29.07-16.78v1.01l28.19 16.28.88-.51z"/><path id="odsqcy" d="M1349.06 17197.56l-24.33-14.04v1.01l23.45 13.54.88-.51z"/><path id="odsqcz" d="M1344.31 17200.3l-19.58-11.31v1.02l18.7 10.8.88-.51z"/><path id="odsqcA" d="M1339.57 17203.04l-14.84-8.57v1.02l13.96 8.06.88-.51z"/><path id="odsqcB" d="M1334.82 17205.78l-10.09-5.83v1.02l9.21 5.32.88-.51z"/><path id="odsqcC" d="M1330.07 17208.52l-5.34-3.09v1.02l4.46 2.58.88-.51z"/><path id="odsqcD" d="M1324.73 17210.91v.69l.6-.34-.6-.35z"/><linearGradient id="odsqb" x1="638918.18" x2="638918.18" y1="561693.72" y2="432978.03" gradientUnits="userSpaceOnUse"><stop offset="0" stop-color="#117c90"/><stop offset=".43" stop-color="#147f93"/><stop offset=".81" stop-color="#1b8a9e"/><stop offset="1" stop-color="#2293a7"/></linearGradient><linearGradient id="odsqbC" x1="1392.58" x2="1188.17" y1="17167.78" y2="17167.78" gradientUnits="userSpaceOnUse"><stop offset="0" stop-color="#a09e9f"/><stop offset=".12" stop-color="#b2b1b2"/><stop offset=".37" stop-color="#d3d3d3"/><stop offset=".6" stop-color="#ecebeb"/><stop offset=".82" stop-color="#fafafa"/><stop offset="1" stop-color="#fff"/></linearGradient><linearGradient id="odsqbE" x1="1256.31" x2="1324.45" y1="16897.51" y2="16897.51" gradientUnits="userSpaceOnUse"><stop offset="0" stop-color="#7ed7e7"/><stop offset=".28" stop-color="#7bd5e6"/><stop offset=".52" stop-color="#70d0e1"/><stop offset=".75" stop-color="#5ec7d9"/><stop offset=".97" stop-color="#44bbcf"/><stop offset="1" stop-color="#41b9cd"/></linearGradient><linearGradient id="odsqbG" x1="176678.04" x2="195247.56" y1="88091.11" y2="88091.11" gradientUnits="userSpaceOnUse"><stop offset="0" stop-color="#7ed7e7"/><stop offset=".28" stop-color="#7bd5e6"/><stop offset=".52" stop-color="#70d0e1"/><stop offset=".75" stop-color="#5ec7d9"/><stop offset=".97" stop-color="#44bbcf"/><stop offset="1" stop-color="#41b9cd"/></linearGradient><linearGradient id="odsqbI" x1="91295.14" x2="91295.14" y1="84962.79" y2="78547.22" gradientUnits="userSpaceOnUse"><stop offset="0" stop-color="#117c90"/><stop offset=".43" stop-color="#147f93"/><stop offset=".81" stop-color="#1b8a9e"/><stop offset="1" stop-color="#2293a7"/></linearGradient><linearGradient id="odsqbK" x1="95991.77" x2="95991.77" y1="134922.63" y2="126552.66" gradientUnits="userSpaceOnUse"><stop offset="0" stop-color="#117c90"/><stop offset=".43" stop-color="#147f93"/><stop offset=".81" stop-color="#1b8a9e"/><stop offset="1" stop-color="#2293a7"/></linearGradient><linearGradient id="odsqbM" x1="983.76" x2="1120.03" y1="17094.22" y2="17094.22" gradientUnits="userSpaceOnUse"><stop offset="0" stop-color="#e2471a"/><stop offset=".38" stop-color="#eb5920"/><stop offset="1" stop-color="#fd822b"/></linearGradient><linearGradient id="odsqbO" x1="1051.9" x2="1120.03" y1="17133.56" y2="17133.56" gradientUnits="userSpaceOnUse"><stop offset="0" stop-color="#fd7c26"/><stop offset=".3" stop-color="#fd8029"/><stop offset=".56" stop-color="#fd8a34"/><stop offset=".81" stop-color="#fd9b46"/><stop offset="1" stop-color="#fdad59"/></linearGradient><linearGradient id="odsqbQ" x1="79551.21" x2="84194.27" y1="103753.95" y2="103753.95" gradientUnits="userSpaceOnUse"><stop offset="0" stop-color="#fd7c26"/><stop offset=".3" stop-color="#fd8029"/><stop offset=".56" stop-color="#fd8a34"/><stop offset=".81" stop-color="#fd9b46"/><stop offset="1" stop-color="#fdad59"/></linearGradient><linearGradient id="odsqbS" x1="1256.31" x2="1256.31" y1="17018.23" y2="17083.32" gradientUnits="userSpaceOnUse"><stop offset="0" stop-color="#fd953f"/><stop offset=".77" stop-color="#fda753"/><stop offset="1" stop-color="#fdad59"/></linearGradient><linearGradient id="odsqbV" x1="88973.61" x2="93616.67" y1="106888.16" y2="106888.16" gradientUnits="userSpaceOnUse"><stop offset="0" stop-color="#7ed7e7"/><stop offset=".28" stop-color="#7bd5e6"/><stop offset=".52" stop-color="#70d0e1"/><stop offset=".75" stop-color="#5ec7d9"/><stop offset=".97" stop-color="#44bbcf"/><stop offset="1" stop-color="#41b9cd"/></linearGradient><linearGradient id="odsqbY" x1="95991.77" x2="95991.77" y1="100503.29" y2="94970.43" gradientUnits="userSpaceOnUse"><stop offset="0" stop-color="#7ed7e7"/><stop offset=".28" stop-color="#7bd5e6"/><stop offset=".52" stop-color="#70d0e1"/><stop offset=".75" stop-color="#5ec7d9"/><stop offset=".97" stop-color="#44bbcf"/><stop offset="1" stop-color="#41b9cd"/></linearGradient><linearGradient id="odsqca" x1="86583.94" x2="86583.94" y1="132254.99" y2="121511.63" gradientUnits="userSpaceOnUse"><stop offset="0" stop-color="#e2471a"/><stop offset=".38" stop-color="#eb5920"/><stop offset="1" stop-color="#fd822b"/></linearGradient><linearGradient id="odsqcc" x1="86583.94" x2="86583.94" y1="92119.43" y2="95709.93" gradientUnits="userSpaceOnUse"><stop offset="0" stop-color="#fd953f"/><stop offset=".77" stop-color="#fda753"/><stop offset="1" stop-color="#fdad59"/></linearGradient><linearGradient id="odsqce" x1="79540.4" x2="84182.09" y1="94352.09" y2="94352.09" gradientUnits="userSpaceOnUse"><stop offset="0" stop-color="#fd7c26"/><stop offset=".3" stop-color="#fd8029"/><stop offset=".56" stop-color="#fd8a34"/><stop offset=".81" stop-color="#fd9b46"/><stop offset="1" stop-color="#fdad59"/></linearGradient><linearGradient id="odsqcg" x1="91295.14" x2="91295.14" y1="148112.55" y2="138772.45" gradientUnits="userSpaceOnUse"><stop offset="0" stop-color="#e2471a"/><stop offset=".38" stop-color="#eb5920"/><stop offset="1" stop-color="#fd822b"/></linearGradient><linearGradient id="odsqci" x1="84262.41" x2="88905.47" y1="103753.95" y2="103753.95" gradientUnits="userSpaceOnUse"><stop offset="0" stop-color="#fd7c26"/><stop offset=".3" stop-color="#fd8029"/><stop offset=".56" stop-color="#fd8a34"/><stop offset=".81" stop-color="#fd9b46"/><stop offset="1" stop-color="#fdad59"/></linearGradient><linearGradient id="odsqck" x1="84262.41" x2="88905.47" y1="100619.73" y2="100619.73" gradientUnits="userSpaceOnUse"><stop offset="0" stop-color="#fd953f"/><stop offset=".77" stop-color="#fda753"/><stop offset="1" stop-color="#fdad59"/></linearGradient><linearGradient id="odsqcm" x1="79551.21" x2="84194.27" y1="140057.29" y2="140057.29" gradientUnits="userSpaceOnUse"><stop offset="0" stop-color="#e2471a"/><stop offset=".38" stop-color="#eb5920"/><stop offset="1" stop-color="#fd822b"/></linearGradient><linearGradient id="odsqco" x1="236413.58" x2="278201.12" y1="184203" y2="184203" gradientUnits="userSpaceOnUse"><stop offset="0" stop-color="#a09e9f"/><stop offset=".12" stop-color="#b2b1b2"/><stop offset=".37" stop-color="#d3d3d3"/><stop offset=".6" stop-color="#ecebeb"/><stop offset=".82" stop-color="#fafafa"/><stop offset="1" stop-color="#fff"/></linearGradient></defs><g><g transform="translate(-926 -960.09)"><use fill="url(#odsqb)" xlink:href="#odsqa"/></g><g transform="translate(-926 -960.09)"><use fill="#137f93" xlink:href="#odsqc"/></g><g transform="translate(-926 -960.09)"><use fill="#137f93" xlink:href="#odsqd"/></g><g transform="translate(-926 -960.09)"><use fill="#137f93" xlink:href="#odsqe"/></g><g transform="translate(-926 -960.09)"><use fill="#137f93" xlink:href="#odsqf"/></g><g transform="translate(-926 -960.09)"><use fill="#137f93" xlink:href="#odsqg"/></g><g transform="translate(-926 -960.09)"><use fill="#137f93" xlink:href="#odsqh"/></g><g transform="translate(-926 -960.09)"><use fill="#137f93" xlink:href="#odsqi"/></g><g transform="translate(-926 -960.09)"><use fill="#137f93" xlink:href="#odsqj"/></g><g transform="translate(-926 -960.09)"><use fill="#137f93" xlink:href="#odsqk"/></g><g transform="translate(-926 -960.09)"><use fill="#137f93" xlink:href="#odsql"/></g><g transform="translate(-926 -960.09)"><use fill="#137f93" xlink:href="#odsqm"/></g><g transform="translate(-926 -960.09)"><use fill="#137f93" xlink:href="#odsqn"/></g><g transform="translate(-926 -960.09)"><use fill="#137f93" xlink:href="#odsqo"/></g><g transform="translate(-926 -960.09)"><use fill="#137f93" xlink:href="#odsqp"/></g><g transform="translate(-926 -960.09)"><use fill="#137f93" xlink:href="#odsqq"/></g><g transform="translate(-926 -960.09)"><use fill="#137f93" xlink:href="#odsqr"/></g><g transform="translate(-926 -960.09)"><use fill="#137f93" xlink:href="#odsqs"/></g><g transform="translate(-926 -960.09)"><use fill="#137f93" xlink:href="#odsqt"/></g><g transform="translate(-926 -960.09)"><use fill="#137f93" xlink:href="#odsqu"/></g><g transform="translate(-926 -960.09)"><use fill="#137f93" xlink:href="#odsqv"/></g><g transform="translate(-926 -960.09)"><use fill="#137f93" xlink:href="#odsqw"/></g><g transform="translate(-926 -960.09)"><use fill="#137f93" xlink:href="#odsqx"/></g><g transform="translate(-926 -960.09)"><use fill="#137f93" xlink:href="#odsqy"/></g><g transform="translate(-926 -960.09)"><use fill="#137f93" xlink:href="#odsqz"/></g><g transform="translate(-926 -960.09)"><use fill="#137f93" xlink:href="#odsqA"/></g><g transform="translate(-926 -960.09)"><use fill="#137f93" xlink:href="#odsqB"/></g><g transform="translate(-926 -960.09)"><use fill="#137f93" xlink:href="#odsqC"/></g><g transform="translate(-926 -960.09)"><use fill="#137f93" xlink:href="#odsqD"/></g><g transform="translate(-926 -960.09)"><use fill="#137f93" xlink:href="#odsqE"/></g><g transform="translate(-926 -960.09)"><use fill="#137f93" xlink:href="#odsqF"/></g><g transform="translate(-926 -960.09)"><use fill="#137f93" xlink:href="#odsqG"/></g><g transform="translate(-926 -960.09)"><use fill="#137f93" xlink:href="#odsqH"/></g><g transform="translate(-926 -960.09)"><use fill="#137f93" xlink:href="#odsqI"/></g><g transform="translate(-926 -960.09)"><use fill="#137f93" xlink:href="#odsqJ"/></g><g transform="translate(-926 -960.09)"><use fill="#137f93" xlink:href="#odsqK"/></g><g transform="translate(-926 -960.09)"><use fill="#137f93" xlink:href="#odsqL"/></g><g transform="translate(-926 -960.09)"><use fill="#137f93" xlink:href="#odsqM"/></g><g transform="translate(-926 -960.09)"><use fill="#137f93" xlink:href="#odsqN"/></g><g transform="translate(-926 -960.09)"><use fill="#137f93" xlink:href="#odsqO"/></g><g transform="translate(-926 -960.09)"><use fill="#137f93" xlink:href="#odsqP"/></g><g transform="translate(-926 -960.09)"><use fill="#137f93" xlink:href="#odsqQ"/></g><g transform="translate(-926 -960.09)"><use fill="#137f93" xlink:href="#odsqR"/></g><g transform="translate(-926 -960.09)"><use fill="#137f93" xlink:href="#odsqS"/></g><g transform="translate(-926 -960.09)"><use fill="#137f93" xlink:href="#odsqT"/></g><g transform="translate(-926 -960.09)"><use fill="#137f93" xlink:href="#odsqU"/></g><g transform="translate(-926 -960.09)"><use fill="#137f93" xlink:href="#odsqV"/></g><g transform="translate(-926 -960.09)"><use fill="#137f93" xlink:href="#odsqW"/></g><g transform="translate(-926 -960.09)"><use fill="#137f93" xlink:href="#odsqX"/></g><g transform="translate(-926 -960.09)"><use fill="#137f93" xlink:href="#odsqY"/></g><g transform="translate(-926 -960.09)"><use fill="#137f93" xlink:href="#odsqZ"/></g><g transform="translate(-926 -960.09)"><use fill="#137f93" xlink:href="#odsqaa"/></g><g transform="translate(-926 -960.09)"><use fill="#137f93" xlink:href="#odsqab"/></g><g transform="translate(-926 -960.09)"><use fill="#137f93" xlink:href="#odsqac"/></g><g transform="translate(-926 -960.09)"><use fill="#137f93" xlink:href="#odsqad"/></g><g transform="translate(-926 -960.09)"><use fill="#137f93" xlink:href="#odsqae"/></g><g transform="translate(-926 -960.09)"><use fill="#137f93" xlink:href="#odsqaf"/></g><g transform="translate(-926 -960.09)"><use fill="#137f93" xlink:href="#odsqag"/></g><g transform="translate(-926 -960.09)"><use fill="#137f93" xlink:href="#odsqah"/></g><g transform="translate(-926 -960.09)"><use fill="#137f93" xlink:href="#odsqai"/></g><g transform="translate(-926 -960.09)"><use fill="#137f93" xlink:href="#odsqaj"/></g><g transform="translate(-926 -960.09)"><use fill="#137f93" xlink:href="#odsqak"/></g><g transform="translate(-926 -960.09)"><use fill="#137f93" xlink:href="#odsqal"/></g><g transform="translate(-926 -960.09)"><use fill="#137f93" xlink:href="#odsqam"/></g><g transform="translate(-926 -960.09)"><use fill="#137f93" xlink:href="#odsqan"/></g><g transform="translate(-926 -960.09)"><use fill="#137f93" xlink:href="#odsqao"/></g><g transform="translate(-926 -960.09)"><use fill="#137f93" xlink:href="#odsqap"/></g><g transform="translate(-926 -960.09)"><use fill="#137f93" xlink:href="#odsqaq"/></g><g transform="translate(-926 -960.09)"><use fill="#137f93" xlink:href="#odsqar"/></g><g transform="translate(-926 -960.09)"><use fill="#137f93" xlink:href="#odsqas"/></g><g transform="translate(-926 -960.09)"><use fill="#137f93" xlink:href="#odsqat"/></g><g transform="translate(-926 -960.09)"><use fill="#137f93" xlink:href="#odsqau"/></g><g transform="translate(-926 -960.09)"><use fill="#137f93" xlink:href="#odsqav"/></g><g transform="translate(-926 -960.09)"><use fill="#137f93" xlink:href="#odsqaw"/></g><g transform="translate(-926 -960.09)"><use fill="#137f93" xlink:href="#odsqax"/></g><g transform="translate(-926 -960.09)"><use fill="#137f93" xlink:href="#odsqay"/></g><g transform="translate(-926 -960.09)"><use fill="#137f93" xlink:href="#odsqaz"/></g><g transform="translate(-926 -960.09)"><use fill="#137f93" xlink:href="#odsqaA"/></g><g transform="translate(-926 -960.09)"><use fill="#137f93" xlink:href="#odsqaB"/></g><g transform="translate(-926 -960.09)"><use fill="#137f93" xlink:href="#odsqaC"/></g><g transform="translate(-926 -960.09)"><use fill="#137f93" xlink:href="#odsqaD"/></g><g transform="translate(-926 -960.09)"><use fill="#137f93" xlink:href="#odsqaE"/></g><g transform="translate(-926 -960.09)"><use fill="#137f93" xlink:href="#odsqaF"/></g><g transform="translate(-926 -960.09)"><use fill="#137f93" xlink:href="#odsqaG"/></g><g transform="translate(-926 -960.09)"><use fill="#137f93" xlink:href="#odsqaH"/></g><g transform="translate(-926 -960.09)"><use fill="#137f93" xlink:href="#odsqaI"/></g><g transform="translate(-926 -960.09)"><use fill="#137f93" xlink:href="#odsqaJ"/></g><g transform="translate(-926 -960.09)"><use fill="#137f93" xlink:href="#odsqaK"/></g><g transform="translate(-926 -960.09)"><use fill="#137f93" xlink:href="#odsqaL"/></g><g transform="translate(-926 -960.09)"><use fill="#137f93" xlink:href="#odsqaM"/></g><g transform="translate(-926 -960.09)"><use fill="#137f93" xlink:href="#odsqaN"/></g><g transform="translate(-926 -960.09)"><use fill="#137f93" xlink:href="#odsqaO"/></g><g transform="translate(-926 -960.09)"><use fill="#137f93" xlink:href="#odsqaP"/></g><g transform="translate(-926 -960.09)"><use fill="#137f93" xlink:href="#odsqaQ"/></g><g transform="translate(-926 -960.09)"><use fill="#137f93" xlink:href="#odsqaR"/></g><g transform="translate(-926 -960.09)"><use fill="#137f93" xlink:href="#odsqaS"/></g><g transform="translate(-926 -960.09)"><use fill="#137f93" xlink:href="#odsqaT"/></g><g transform="translate(-926 -960.09)"><use fill="#137f93" xlink:href="#odsqaU"/></g><g transform="translate(-926 -960.09)"><use fill="#137f93" xlink:href="#odsqaV"/></g><g transform="translate(-926 -960.09)"><use fill="#137f93" xlink:href="#odsqaW"/></g><g transform="translate(-926 -960.09)"><use fill="#137f93" xlink:href="#odsqaX"/></g><g transform="translate(-926 -960.09)"><use fill="#137f93" xlink:href="#odsqaY"/></g><g transform="translate(-926 -960.09)"><use fill="#137f93" xlink:href="#odsqaZ"/></g><g transform="translate(-926 -960.09)"><use fill="#137f93" xlink:href="#odsqba"/></g><g transform="translate(-926 -960.09)"><use fill="#137f93" xlink:href="#odsqbb"/></g><g transform="translate(-926 -960.09)"><use fill="#137f93" xlink:href="#odsqbc"/></g><g transform="translate(-926 -960.09)"><use fill="#137f93" xlink:href="#odsqbd"/></g><g transform="translate(-926 -960.09)"><use fill="#137f93" xlink:href="#odsqbe"/></g><g transform="translate(-926 -960.09)"><use fill="#137f93" xlink:href="#odsqbf"/></g><g transform="translate(-926 -960.09)"><use fill="#137f93" xlink:href="#odsqbg"/></g><g transform="translate(-926 -960.09)"><use fill="#137f93" xlink:href="#odsqbh"/></g><g transform="translate(-926 -960.09)"><use fill="#137f93" xlink:href="#odsqbi"/></g><g transform="translate(-926 -960.09)"><use fill="#137f93" xlink:href="#odsqbj"/></g><g transform="translate(-926 -960.09)"><use fill="#137f93" xlink:href="#odsqbk"/></g><g transform="translate(-926 -960.09)"><use fill="#137f93" xlink:href="#odsqbl"/></g><g transform="translate(-926 -960.09)"><use fill="#137f93" xlink:href="#odsqbm"/></g><g transform="translate(-926 -960.09)"><use fill="#137f93" xlink:href="#odsqbn"/></g><g transform="translate(-926 -960.09)"><use fill="#137f93" xlink:href="#odsqbo"/></g><g transform="translate(-926 -960.09)"><use fill="#137f93" xlink:href="#odsqbp"/></g><g transform="translate(-926 -960.09)"><use fill="#137f93" xlink:href="#odsqbq"/></g><g transform="translate(-926 -960.09)"><use fill="#137f93" xlink:href="#odsqbr"/></g><g transform="translate(-926 -960.09)"><use fill="#137f93" xlink:href="#odsqbs"/></g><g transform="translate(-926 -960.09)"><use fill="#137f93" xlink:href="#odsqbt"/></g><g transform="translate(-926 -960.09)"><use fill="#137f93" xlink:href="#odsqbu"/></g><g transform="translate(-926 -960.09)"><use fill="#137f93" xlink:href="#odsqbv"/></g><g transform="translate(-926 -960.09)"><use fill="#137f93" xlink:href="#odsqbw"/></g><g transform="translate(-926 -960.09)"><use fill="#137f93" xlink:href="#odsqbx"/></g><g transform="translate(-926 -960.09)"><use fill="#137f93" xlink:href="#odsqby"/></g><g transform="translate(-926 -960.09)"><use fill="#137f93" xlink:href="#odsqbz"/></g><g transform="translate(-926 -960.09)"><use fill="#137f93" xlink:href="#odsqbA"/></g><g transform="translate(-926 -960.09)"><use fill="url(#odsqbC)" xlink:href="#odsqbB"/></g><g transform="translate(-926 -960.09)"><use fill="url(#odsqbE)" xlink:href="#odsqbD"/></g><g transform="translate(-926 -960.09)"><use fill="url(#odsqbG)" xlink:href="#odsqbF"/></g><g transform="translate(-926 -960.09)"><use fill="url(#odsqbI)" xlink:href="#odsqbH"/></g><g transform="translate(-926 -960.09)"><use fill="url(#odsqbK)" xlink:href="#odsqbJ"/></g><g transform="translate(-926 -960.09)"><use fill="url(#odsqbM)" xlink:href="#odsqbL"/></g><g transform="translate(-926 -960.09)"><use fill="url(#odsqbO)" xlink:href="#odsqbN"/></g><g transform="translate(-926 -960.09)"><use fill="url(#odsqbQ)" xlink:href="#odsqbP"/></g><g transform="translate(-926 -960.09)"/><g transform="translate(-926 -960.09)"/><g transform="translate(-926 -960.09)"><use fill="url(#odsqbS)" xlink:href="#odsqbR"/></g><g transform="translate(-926 -960.09)"><use fill="#4fc0d2" xlink:href="#odsqbT"/></g><g transform="translate(-926 -960.09)"><use fill="url(#odsqbV)" xlink:href="#odsqbU"/></g><g transform="translate(-926 -960.09)"><use fill="#edf9fc" xlink:href="#odsqbW"/></g><g transform="translate(-926 -960.09)"><use fill="url(#odsqbY)" xlink:href="#odsqbX"/></g><g transform="translate(-926 -960.09)"><use fill="url(#odsqca)" xlink:href="#odsqbZ"/></g><g transform="translate(-926 -960.09)"><use fill="url(#odsqcc)" xlink:href="#odsqcb"/></g><g transform="translate(-926 -960.09)"><use fill="url(#odsqce)" xlink:href="#odsqcd"/></g><g transform="translate(-926 -960.09)"><use fill="url(#odsqcg)" xlink:href="#odsqcf"/></g><g transform="translate(-926 -960.09)"><use fill="url(#odsqci)" xlink:href="#odsqch"/></g><g transform="translate(-926 -960.09)"><use fill="url(#odsqck)" xlink:href="#odsqcj"/></g><g transform="translate(-926 -960.09)"><use fill="url(#odsqcm)" xlink:href="#odsqcl"/></g><g transform="translate(-926 -960.09)"><use fill="url(#odsqco)" xlink:href="#odsqcn"/></g><g transform="translate(-926 -960.09)"><use fill="#fff" xlink:href="#odsqcp"/></g><g transform="translate(-926 -960.09)"><use fill="#fff" xlink:href="#odsqcq"/></g><g transform="translate(-926 -960.09)"><use fill="#fff" xlink:href="#odsqcr"/></g><g transform="translate(-926 -960.09)"><use fill="#fff" xlink:href="#odsqcs"/></g><g transform="translate(-926 -960.09)"><use fill="#fff" xlink:href="#odsqct"/></g><g transform="translate(-926 -960.09)"><use fill="#fff" xlink:href="#odsqcu"/></g><g transform="translate(-926 -960.09)"><use fill="#fff" xlink:href="#odsqcv"/></g><g transform="translate(-926 -960.09)"><use fill="#fff" xlink:href="#odsqcw"/></g><g transform="translate(-926 -960.09)"><use fill="#fff" xlink:href="#odsqcx"/></g><g transform="translate(-926 -960.09)"><use fill="#fff" xlink:href="#odsqcy"/></g><g transform="translate(-926 -960.09)"><use fill="#fff" xlink:href="#odsqcz"/></g><g transform="translate(-926 -960.09)"><use fill="#fff" xlink:href="#odsqcA"/></g><g transform="translate(-926 -960.09)"><use fill="#fff" xlink:href="#odsqcB"/></g><g transform="translate(-926 -960.09)"><use fill="#fff" xlink:href="#odsqcC"/></g><g transform="translate(-926 -960.09)"><use fill="#fff" xlink:href="#odsqcD"/></g></g></svg>