<svg xmlns="http://www.w3.org/2000/svg" xmlns:xlink="http://www.w3.org/1999/xlink" width="249" height="175" viewBox="0 0 249 175"><defs><path id="m7oga" d="M362.82 210.78h-10.4a5.72 5.72 0 0 1-1.8-3.7c-.26-1.62-.4-3.26-.41-4.9v-3.56a8 8 0 0 0-2.06-5.86 7.76 7.76 0 0 0-5.78-2.09h-9.61v20.11h-10.09v-50.32h19c5.74 0 10.23 1.31 13.46 3.93 3.23 2.62 4.86 6.26 4.87 10.93.07 2.39-.63 4.74-2 6.7a14.26 14.26 0 0 1-6 4.53c2.6.62 4.89 2.19 6.41 4.39a13.91 13.91 0 0 1 1.95 7.6v3.7c.01 1.48.2 2.96.57 4.4a6.1 6.1 0 0 0 1.95 3.41zm1.54-63h-59.45v75.68h75.67v-56.61a21.45 21.45 0 0 1-16.22-19.07z"/><path id="m7ogb" d="M276.72 203.9a19 19 0 0 1-7 5.28 27.21 27.21 0 0 1-12 2.32c-6.15 0-11.17-1.91-15.07-5.74-3.9-3.83-5.85-8.79-5.84-14.89v-10.5c0-6.09 1.87-11.05 5.62-14.88s8.57-5.75 14.46-5.75c6.13 0 10.82 1.49 14.08 4.47A15.53 15.53 0 0 1 276 176l-.07.21h-9.5a9.68 9.68 0 0 0-2.56-6.35c-1.52-1.55-3.74-2.33-6.67-2.33a9 9 0 0 0-7.46 3.58 14.32 14.32 0 0 0-2.83 9.19v10.57c-.15 3.35.89 6.65 2.94 9.3a9.69 9.69 0 0 0 7.91 3.57c1.91.06 3.82-.18 5.66-.72a8.53 8.53 0 0 0 3.25-1.79v-9.3h-8.91v-7h19zm-57.79-56.12v75.68h75.68v-75.68z"/><path id="m7ogc" d="M341.64 168.24h-8.88v14.65h8.71c2.83 0 4.95-.6 6.34-1.8a6.64 6.64 0 0 0 2.09-5.32 7.33 7.33 0 0 0-2.09-5.49c-1.4-1.36-3.45-2.04-6.17-2.04z"/><path id="m7ogd" d="M426.25 168.24h-6.66V203h6.66a10.5 10.5 0 0 0 8.5-3.66 14.37 14.37 0 0 0 3.08-9.56v-8.39c.15-3.43-.94-6.8-3.08-9.49a10.5 10.5 0 0 0-8.5-3.66z"/><path id="m7oge" d="M447.95 189.78c0 6.17-2 11.2-6 15.12-4 3.91-9.07 5.86-15.21 5.85H409.5v-50.29h17.27a20.78 20.78 0 0 1 15.21 5.9c4 3.92 6 8.96 6 15.11zm-40.84-42a21.45 21.45 0 0 1-16.22 19.07v56.61h75.67v-75.68z"/><path id="m7ogf" d="M359.97 295.84h-34.45v-50.32h34.38v7.78h-24.29v12.64h20.84v7.78h-20.84v14.34H360zm-55.06-63v75.67h75.67v-75.67z"/><path id="m7ogg" d="M438.23 295.84l-9.71-18.14-9.71 18.14H407l15.3-25.36-14.92-25h11.68l9.29 17.83 9.43-17.83h11.75l-14.93 25 15.79 25.36zm-47.34-63v75.67h75.67v-75.67z"/><path id="m7ogh" d="M374.47 146.23a11.27 11.27 0 1 1 22.54 0 11.27 11.27 0 0 1-22.54 0z"/></defs><g><g transform="translate(-218 -134)"><g><use fill="#fff" xlink:href="#m7oga"/></g><g><g><use fill="#fff" xlink:href="#m7ogb"/></g><g><use fill="#fff" xlink:href="#m7ogc"/></g><g><use fill="#fff" xlink:href="#m7ogd"/></g><g><use fill="#fff" xlink:href="#m7oge"/></g><g><use fill="#fff" xlink:href="#m7ogf"/></g><g><use fill="#fff" xlink:href="#m7ogg"/></g><g><use fill="#fff" xlink:href="#m7ogh"/></g></g></g><g transform="translate(-218 -134)"><g><use fill="#fff" xlink:href="#m7oga"/></g><g><g><use fill="#fff" xlink:href="#m7ogb"/></g><g><use fill="#fff" xlink:href="#m7ogc"/></g><g><use fill="#fff" xlink:href="#m7ogd"/></g><g><use fill="#fff" xlink:href="#m7oge"/></g><g><use fill="#fff" xlink:href="#m7ogf"/></g><g><use fill="#fff" xlink:href="#m7ogg"/></g><g><use fill="#fff" xlink:href="#m7ogh"/></g></g></g></g></svg>