<svg width="1919" height="511" viewBox="0 0 1919 511" version="1.1" xmlns="http://www.w3.org/2000/svg" xmlns:xlink="http://www.w3.org/1999/xlink">
<g id="Canvas" fill="none">
<g id="Group 67">
<g id="reflect-frame-top" opacity="0.595562">
<path fill-rule="evenodd" clip-rule="evenodd" d="M 210.683 0L 24.1014 0C 15.3904 0.561033 7.35656 4.75939 0 12.5951C 4.7311 8.23313 13.1695 2.39614 24.3259 2.39614C 24.3259 2.39614 203.021 2.39614 210.459 2.39614C 221.615 2.39614 230.054 8.23313 234.785 12.5951C 227.428 4.75939 219.395 0.561033 210.683 0Z" transform="translate(837.607 0)" fill="url(#paint0_linear)" fill-opacity="0.65"/>
</g>
<g id="f-cam-2">
<g id="oval-shade" opacity="0.496094" filter="url(#filter0_iii)">
<path fill-rule="evenodd" clip-rule="evenodd" d="M 4.80378 9.59624C 7.45684 9.59624 9.60756 7.44805 9.60756 4.79812C 9.60756 2.14819 7.45684 0 4.80378 0C 2.15073 0 0 2.14819 0 4.79812C 0 7.44805 2.15073 9.59624 4.80378 9.59624Z" transform="translate(906.062 14.3945)" fill="black"/>
</g>
<g id="oval">
<path fill-rule="evenodd" clip-rule="evenodd" d="M 3.43127 6.85446C 5.32631 6.85446 6.86255 5.32004 6.86255 3.42723C 6.86255 1.53442 5.32631 0 3.43127 0C 1.53623 0 0 1.53442 0 3.42723C 0 5.32004 1.53623 6.85446 3.43127 6.85446Z" transform="translate(907.434 15.7654)" fill="#141414"/>
</g>
<g id="front facing camera" opacity="0.502038">
<g id="front facing camera_2">
<path fill-rule="evenodd" clip-rule="evenodd" d="M 3.60284 6.59718C 5.26192 6.59718 6.60567 5.254 6.60567 3.59859C 6.60567 1.94318 5.26192 0.6 3.60284 0.6C 1.94375 0.6 0.6 1.94318 0.6 3.59859C 0.6 5.254 1.94375 6.59718 3.60284 6.59718Z" transform="translate(907.263 15.594)" fill="#334B80"/>
<path fill-rule="evenodd" clip-rule="evenodd" d="M 3.60284 6.59718C 5.26192 6.59718 6.60567 5.254 6.60567 3.59859C 6.60567 1.94318 5.26192 0.6 3.60284 0.6C 1.94375 0.6 0.6 1.94318 0.6 3.59859C 0.6 5.254 1.94375 6.59718 3.60284 6.59718Z" stroke-width="1.2" stroke-miterlimit="8" transform="translate(907.263 15.594)" stroke="#192E65"/>
<path fill-rule="evenodd" clip-rule="evenodd" d="M 3.60284 6.59718C 5.26192 6.59718 6.60567 5.254 6.60567 3.59859C 6.60567 1.94318 5.26192 0.6 3.60284 0.6C 1.94375 0.6 0.6 1.94318 0.6 3.59859C 0.6 5.254 1.94375 6.59718 3.60284 6.59718Z" stroke-width="1.2" stroke-miterlimit="8" transform="translate(907.263 15.594)" stroke="#272149"/>
</g>
<g id="middle">
<path fill-rule="evenodd" clip-rule="evenodd" d="M 0.982592 1.96287C 1.52526 1.96287 1.96518 1.52347 1.96518 0.981434C 1.96518 0.439403 1.52526 0 0.982592 0C 0.439921 0 0 0.439403 0 0.981434C 0 1.52347 0.439921 1.96287 0.982592 1.96287Z" transform="translate(909.883 18.2112)" fill="#14285E"/>
</g>
<g id="glare">
<path fill-rule="evenodd" clip-rule="evenodd" d="M 0.655061 1.30858C 1.01684 1.30858 1.31012 1.01564 1.31012 0.654289C 1.31012 0.292935 1.01684 0 0.655061 0C 0.293281 0 0 0.292935 0 0.654289C 0 1.01564 0.293281 1.30858 0.655061 1.30858Z" transform="translate(909.228 17.5569)" fill="#92B6D7"/>
</g>
<g id="reflection">
<path fill-rule="evenodd" clip-rule="evenodd" d="M 0.655061 1.30858C 1.01684 1.30858 1.31012 1.01564 1.31012 0.654289C 1.31012 0.292935 1.01684 0 0.655061 0C 0.293281 0 0 0.292935 0 0.654289C 0 1.01564 0.293281 1.30858 0.655061 1.30858Z" transform="translate(911.193 19.5198)" fill="#516C9D"/>
</g>
</g>
</g>
<g id="f-cam-1">
<g id="oval-shade_2" opacity="0.496094" filter="url(#filter1_iii)">
<path fill-rule="evenodd" clip-rule="evenodd" d="M 4.80378 9.59624C 7.45684 9.59624 9.60756 7.44805 9.60756 4.79812C 9.60756 2.14819 7.45684 0 4.80378 0C 2.15073 0 0 2.14819 0 4.79812C 0 7.44805 2.15073 9.59624 4.80378 9.59624Z" transform="translate(924.676 14.3945)" fill="black"/>
</g>
<g id="oval_2">
<path fill-rule="evenodd" clip-rule="evenodd" d="M 3.43127 6.85446C 5.32631 6.85446 6.86255 5.32004 6.86255 3.42723C 6.86255 1.53442 5.32631 0 3.43127 0C 1.53623 0 0 1.53442 0 3.42723C 0 5.32004 1.53623 6.85446 3.43127 6.85446Z" transform="translate(926.049 15.7654)" fill="#141414"/>
</g>
<g id="front facing camera_3" opacity="0.498868">
<g id="front facing camera_4">
<path fill-rule="evenodd" clip-rule="evenodd" d="M 3.60284 6.59718C 5.26192 6.59718 6.60567 5.254 6.60567 3.59859C 6.60567 1.94318 5.26192 0.6 3.60284 0.6C 1.94375 0.6 0.6 1.94318 0.6 3.59859C 0.6 5.254 1.94375 6.59718 3.60284 6.59718Z" transform="translate(925.877 15.594)" fill="#334B80"/>
<path fill-rule="evenodd" clip-rule="evenodd" d="M 3.60284 6.59718C 5.26192 6.59718 6.60567 5.254 6.60567 3.59859C 6.60567 1.94318 5.26192 0.6 3.60284 0.6C 1.94375 0.6 0.6 1.94318 0.6 3.59859C 0.6 5.254 1.94375 6.59718 3.60284 6.59718Z" stroke-width="1.2" stroke-miterlimit="8" transform="translate(925.877 15.594)" stroke="#192E65"/>
<path fill-rule="evenodd" clip-rule="evenodd" d="M 3.60284 6.59718C 5.26192 6.59718 6.60567 5.254 6.60567 3.59859C 6.60567 1.94318 5.26192 0.6 3.60284 0.6C 1.94375 0.6 0.6 1.94318 0.6 3.59859C 0.6 5.254 1.94375 6.59718 3.60284 6.59718Z" stroke-width="1.2" stroke-miterlimit="8" transform="translate(925.877 15.594)" stroke="#272149"/>
</g>
<g id="middle_2">
<path fill-rule="evenodd" clip-rule="evenodd" d="M 0.982592 1.96287C 1.52526 1.96287 1.96518 1.52347 1.96518 0.981434C 1.96518 0.439403 1.52526 0 0.982592 0C 0.439921 0 0 0.439403 0 0.981434C 0 1.52347 0.439921 1.96287 0.982592 1.96287Z" transform="translate(928.498 18.2112)" fill="#14285E"/>
</g>
<g id="glare_2">
<path fill-rule="evenodd" clip-rule="evenodd" d="M 0.655061 1.30858C 1.01684 1.30858 1.31012 1.01564 1.31012 0.654289C 1.31012 0.292935 1.01684 0 0.655061 0C 0.293281 0 0 0.292935 0 0.654289C 0 1.01564 0.293281 1.30858 0.655061 1.30858Z" transform="translate(927.843 17.5569)" fill="#92B6D7"/>
</g>
<g id="reflection_2">
<path fill-rule="evenodd" clip-rule="evenodd" d="M 0.655061 1.30858C 1.01684 1.30858 1.31012 1.01564 1.31012 0.654289C 1.31012 0.292935 1.01684 0 0.655061 0C 0.293281 0 0 0.292935 0 0.654289C 0 1.01564 0.293281 1.30858 0.655061 1.30858Z" transform="translate(929.808 19.5198)" fill="#516C9D"/>
</g>
</g>
</g>
<g id="proximity">
<g id="oval-shade_3" opacity="0.496094" filter="url(#filter2_iii)">
<path fill-rule="evenodd" clip-rule="evenodd" d="M 3.00236 5.99765C 4.66052 5.99765 6.00473 4.65503 6.00473 2.99883C 6.00473 1.34262 4.66052 0 3.00236 0C 1.3442 0 0 1.34262 0 2.99883C 0 4.65503 1.3442 5.99765 3.00236 5.99765Z" transform="translate(975.716 16.1934)" fill="black"/>
</g>
<g id="oval_3">
<path fill-rule="evenodd" clip-rule="evenodd" d="M 2.14455 4.28404C 3.32895 4.28404 4.28909 3.32502 4.28909 2.14202C 4.28909 0.959015 3.32895 0 2.14455 0C 0.960146 0 0 0.959015 0 2.14202C 0 3.32502 0.960146 4.28404 2.14455 4.28404Z" transform="translate(976.574 17.05)" fill="#141414"/>
</g>
<g id="oval-innershade">
<path fill-rule="evenodd" clip-rule="evenodd" d="M 0.643364 1.28521C 0.998684 1.28521 1.28673 0.997507 1.28673 0.642606C 1.28673 0.287704 0.998684 0 0.643364 0C 0.288044 0 0 0.287704 0 0.642606C 0 0.997507 0.288044 1.28521 0.643364 1.28521Z" transform="translate(978.719 18.7637)" fill="#141414"/>
</g>
</g>
<g id="sensor">
<g id="oval_4">
<path fill-rule="evenodd" clip-rule="evenodd" d="M 4.80378 9.59624C 7.45684 9.59624 9.60756 7.44805 9.60756 4.79812C 9.60756 2.14819 7.45684 0 4.80378 0C 2.15073 0 0 2.14819 0 4.79812C 0 7.44805 2.15073 9.59624 4.80378 9.59624Z" transform="translate(993.13 14.3945)" fill="#181819"/>
</g>
<g id="oval-shade_4" opacity="0.496094" filter="url(#filter3_iii)">
<path fill-rule="evenodd" clip-rule="evenodd" d="M 4.80378 9.59624C 7.45684 9.59624 9.60756 7.44805 9.60756 4.79812C 9.60756 2.14819 7.45684 0 4.80378 0C 2.15073 0 0 2.14819 0 4.79812C 0 7.44805 2.15073 9.59624 4.80378 9.59624Z" transform="translate(993.13 14.3945)" fill="black"/>
</g>
<g id="iris recognition led" opacity="0.695029">
<g id="iris recognition led_2">
<path fill-rule="evenodd" clip-rule="evenodd" d="M 3.60284 7.19718C 5.59263 7.19718 7.20567 5.58604 7.20567 3.59859C 7.20567 1.61114 5.59263 0 3.60284 0C 1.61304 0 0 1.61114 0 3.59859C 0 5.58604 1.61304 7.19718 3.60284 7.19718Z" transform="translate(994.331 15.594)" fill="#1E1939"/>
</g>
<g id="gutter">
<path fill-rule="evenodd" clip-rule="evenodd" d="M 2.29271 4.58003C 3.55895 4.58003 4.58543 3.55475 4.58543 2.29001C 4.58543 1.02527 3.55895 0 2.29271 0C 1.02648 0 0 1.02527 0 2.29001C 0 3.55475 1.02648 4.58003 2.29271 4.58003Z" transform="translate(995.641 16.9026)" fill="#342B64"/>
</g>
<g id="reflection_3">
<path fill-rule="evenodd" clip-rule="evenodd" d="M 0.982592 1.96287C 1.52526 1.96287 1.96518 1.52347 1.96518 0.981434C 1.96518 0.439403 1.52526 0 0.982592 0C 0.439921 0 0 0.439403 0 0.981434C 0 1.52347 0.439921 1.96287 0.982592 1.96287Z" transform="translate(996.951 18.2112)" fill="#51439F"/>
</g>
<g id="glare_3" opacity="0.34">
<path fill-rule="evenodd" clip-rule="evenodd" d="M 0.655061 1.30858C 1.01684 1.30858 1.31012 1.01564 1.31012 0.654289C 1.31012 0.292935 1.01684 0 0.655061 0C 0.293281 0 0 0.292935 0 0.654289C 0 1.01564 0.293281 1.30858 0.655061 1.30858Z" transform="translate(996.296 17.5569)" fill="white"/>
</g>
</g>
</g>
<g id="earpiece">
<g id="earpiece-hole">
<path fill-rule="evenodd" clip-rule="evenodd" d="M 0 2.09918C 0 0.939834 0.939834 0 2.09918 0L 24.9221 0C 26.0814 0 27.0213 0.939834 27.0213 2.09918C 27.0213 3.25852 26.0814 4.19836 24.9221 4.19836L 2.09918 4.19836C 0.939834 4.19836 0 3.25852 0 2.09918Z" transform="translate(968.511 17.3936) scale(-1 1)" fill="#181819"/>
</g>
</g>
<g id="screen-reflect">
<g id="status-bar-white">
<g id="lightning">
<path fill-rule="evenodd" clip-rule="evenodd" d="M 2.62012 0L 1.90576 2.39917L 1.96533 2.39917L 2.45703 2.39917L 3.60303 2.39917L 0.655273 5.9978L 1.6377 3.29883L 1.25586 3.29883L 0 3.29883L 2.62012 0Z" transform="translate(1048.37 17.9924)" fill="white"/>
</g>
<g id="battery">
<g id="inside">
<path fill-rule="evenodd" clip-rule="evenodd" d="M 0 1C 0 0.447715 0.447715 0 1 0L 11.0095 0C 11.5617 0 12.0095 0.447715 12.0095 1L 12.0095 3.49824C 12.0095 4.05052 11.5617 4.49824 11.0095 4.49824L 1 4.49824C 0.447715 4.49824 0 4.05052 0 3.49824L 0 1Z" transform="translate(1032.16 18.8921)" fill="#4CD964"/>
</g>
<g id="side">
<path fill-rule="evenodd" clip-rule="evenodd" d="M 0 2.32397C 0.518066 2.19092 0.900879 1.72095 0.900879 1.16187C 0.900879 0.603027 0.518066 0.133057 0 0L 0 2.32397Z" transform="translate(1045.97 20.1292)" fill="white"/>
</g>
<g id="frame">
<path fill-rule="evenodd" clip-rule="evenodd" d="M 2 0C 0.895508 0 0 0.895508 0 2L 0 4.89722C 0 6.00195 0.895508 6.89722 2 6.89722L 12.4111 6.89722C 13.5161 6.89722 14.4111 6.00195 14.4111 4.89722L 14.4111 2C 14.4111 0.895508 13.5161 0 12.4111 0L 2 0ZM 1.60059 0.599854C 1.04834 0.599854 0.600586 1.04761 0.600586 1.59985L 0.600586 5.29761C 0.600586 5.84985 1.04834 6.29761 1.60059 6.29761L 12.811 6.29761C 13.3633 6.29761 13.811 5.84985 13.811 5.29761L 13.811 1.59985C 13.811 1.04761 13.3633 0.599854 12.811 0.599854L 1.60059 0.599854Z" transform="translate(1030.96 17.6926)" fill="white"/>
</g>
</g>
<g id="wifi">
<path fill-rule="evenodd" clip-rule="evenodd" d="M 0 1.66895L 0.636719 2.30469C 1.50586 1.43652 2.70703 0.899414 4.0332 0.899414C 5.35986 0.899414 6.56104 1.43677 7.43018 2.30518L 8.06738 1.66895C 7.03516 0.637939 5.60889 0 4.03369 0C 2.4585 0 1.03223 0.637939 0 1.66895ZM 1.27344 2.94092L 1.91064 3.57715C 2.4541 3.03442 3.20459 2.69873 4.03369 2.69873C 4.86279 2.69873 5.61328 3.03442 6.15674 3.57715L 6.79346 2.94116C 6.08691 2.2356 5.11133 1.79907 4.0332 1.79907C 2.95557 1.79907 1.97998 2.23535 1.27344 2.94092ZM 5.51953 4.21362C 5.13916 3.8335 4.61377 3.59839 4.0332 3.59839C 3.45312 3.59839 2.92773 3.83325 2.54736 4.21313L 4.03369 5.69775L 5.51953 4.21362Z" transform="translate(871.104 18.2925)" fill="white"/>
</g>
<g id="signal">
<g id="4">
<path fill-rule="evenodd" clip-rule="evenodd" d="M 0 0.900709C 0 0.403261 0.403261 0 0.900709 0L 0.900709 0C 1.39816 0 1.80142 0.403261 1.80142 0.900709L 1.80142 5.09694C 1.80142 5.59439 1.39816 5.99765 0.900709 5.99765L 0.900709 5.99765C 0.403261 5.99765 0 5.59439 0 5.09694L 0 0.900709Z" transform="translate(865.529 17.9924)" fill="white"/>
</g>
<g id="3">
<path fill-rule="evenodd" clip-rule="evenodd" d="M 0 0.900709C 0 0.403261 0.403261 0 0.900709 0L 0.900709 0C 1.39816 0 1.80142 0.403261 1.80142 0.900709L 1.80142 3.89741C 1.80142 4.39486 1.39816 4.79812 0.900709 4.79812L 0.900709 4.79812C 0.403261 4.79812 0 4.39486 0 3.89741L 0 0.900709Z" transform="translate(862.827 19.1919)" fill="white"/>
</g>
<g id="2">
<path fill-rule="evenodd" clip-rule="evenodd" d="M 0 0.900709C 0 0.403261 0.403261 0 0.900709 0L 0.900709 0C 1.39816 0 1.80142 0.403261 1.80142 0.900709L 1.80142 2.69788C 1.80142 3.19533 1.39816 3.59859 0.900709 3.59859L 0.900709 3.59859C 0.403261 3.59859 0 3.19533 0 2.69788L 0 0.900709Z" transform="translate(860.125 20.3916)" fill="white"/>
</g>
<g id="1">
<path fill-rule="evenodd" clip-rule="evenodd" d="M 0 0.900709C 0 0.403261 0.403261 0 0.900709 0L 0.900709 0C 1.39816 0 1.80142 0.403261 1.80142 0.900709L 1.80142 2.09812C 1.80142 2.59557 1.39816 2.99883 0.900709 2.99883L 0.900709 2.99883C 0.403261 2.99883 0 2.59557 0 2.09812L 0 0.900709Z" transform="translate(857.423 20.9912)" fill="white"/>
</g>
</g>
</g>
</g>
<g id="Group 66">
<g id="iPhone-X-Mockup">
<g id="phone">
<g id="frame_2">
<g id="reflect-frame-bottom-2" opacity="0.695312">
<path fill-rule="evenodd" clip-rule="evenodd" d="M 209.588 0L 23.0063 0C 13.9434 0.393596 6.12963 3.79978 0 10.6575C 4.7311 6.71103 12.0744 2.16794 23.2308 2.16794C 23.2308 2.16794 201.926 2.16794 209.364 2.16794C 220.52 2.16794 228.529 7.384 233.26 11.3305C 226.857 3.95968 218.867 0.37046 209.588 0Z" transform="translate(838.703 510.4) scale(1 -1)" fill="url(#paint1_linear)" fill-opacity="0.65"/>
</g>
<g id="reflect-frame-bottom" opacity="0.602468">
<path fill-rule="evenodd" clip-rule="evenodd" d="M 0 10.6021C 5.63745 5.82275 12.9333 2.93994 20.9031 2.93994L 211.264 2.93994C 218.272 2.93994 224.759 5.16895 230.055 8.95605C 224.249 3.40771 216.38 0 207.715 0L 23.9451 0C 14.4534 0 5.91626 4.08936 0 10.6021Z" transform="translate(839.954 510.988) scale(1 -1)" fill="url(#paint2_linear)"/>
</g>
</g>
</g>
</g>
<g id="body">
<path fill-rule="evenodd" clip-rule="evenodd" d="M 32.1186 0L 217.078 0C 234.816 0 249.196 14.5475 249.196 32.4928L 249.196 477.308C 249.196 495.253 234.816 509.8 217.078 509.8L 32.1186 509.8C 14.38 509.8 0 495.253 0 477.308L 0 32.4928C 0 14.5475 14.38 0 32.1186 0Z" transform="translate(830.402 0.599609)" fill="#000105"/>
</g>
<g id="reflect-frame-right" opacity="0.65">
<path fill-rule="evenodd" clip-rule="evenodd" d="M 8.27169 459.055L 8.27169 21.9568C 8.27169 10.229 4.19082 5.89363 1.75636 3.10976C -0.678089 0.3259 -0.781706 -1.094 2.71618 1.00788C 6.21408 3.10976 13.2104 9.2316 13.2104 21.9568L 13.2104 459.055C 13.2104 471.78 6.21408 477.902 2.71618 480.004C -0.781706 482.106 -0.678089 480.686 1.75636 477.902C 4.19082 475.118 8.27169 470.783 8.27169 459.055Z" transform="translate(1066.39 13.7949)" fill="url(#paint3_linear)"/>
</g>
<g id="reflect-frame-left" opacity="0.65">
<path fill-rule="evenodd" clip-rule="evenodd" d="M 8.27169 459.055L 8.27169 21.9568C 8.27169 10.229 4.19082 5.89363 1.75636 3.10976C -0.678089 0.3259 -0.781706 -1.094 2.71618 1.00788C 6.21408 3.10976 13.2104 9.2316 13.2104 21.9568L 13.2104 459.055C 13.2104 471.78 6.21408 477.902 2.71618 480.004C -0.781706 482.106 -0.678089 480.686 1.75636 477.902C 4.19082 475.118 8.27169 470.783 8.27169 459.055Z" transform="translate(843.612 13.7949) scale(-1 1)" fill="url(#paint4_linear)"/>
</g>
<g id="controls">
<g id="silent">
<path fill-rule="evenodd" clip-rule="evenodd" d="M 0 1.2C 0 0.537258 0.537258 0 1.2 0L 3.60378 0C 4.26652 0 4.80378 0.537258 4.80378 1.2L 4.80378 19.192C 4.80378 19.8548 4.26652 20.392 3.60378 20.392L 1.2 20.392C 0.537258 20.392 0 19.8548 0 19.192L 0 1.2Z" transform="translate(828 67.7734)" fill="black"/>
</g>
<g id="vol+">
<path fill-rule="evenodd" clip-rule="evenodd" d="M 0 1.2C 0 0.537257 0.537258 0 1.2 0L 3.60378 0C 4.26652 0 4.80378 0.537258 4.80378 1.2L 4.80378 37.185C 4.80378 37.8477 4.26652 38.385 3.60378 38.385L 1.2 38.385C 0.537258 38.385 0 37.8477 0 37.185L 0 1.2Z" transform="translate(828 103.759)" fill="black"/>
</g>
<g id="power">
<path fill-rule="evenodd" clip-rule="evenodd" d="M 0 1.2C 0 0.537259 0.537258 0 1.2 0L 3.60378 0C 4.26652 0 4.80378 0.537258 4.80378 1.2L 4.80378 46.7812C 4.80378 47.444 4.26652 47.9812 3.60378 47.9812L 1.2 47.9812C 0.537258 47.9812 0 47.444 0 46.7812L 0 1.2Z" transform="translate(1077.2 91.7642)" fill="black"/>
</g>
<g id="vol-">
<path fill-rule="evenodd" clip-rule="evenodd" d="M 0 1.2C 0 0.537257 0.537258 0 1.2 0L 3.60378 0C 4.26652 0 4.80378 0.537258 4.80378 1.2L 4.80378 37.185C 4.80378 37.8477 4.26652 38.385 3.60378 38.385L 1.2 38.385C 0.537258 38.385 0 37.8477 0 37.185L 0 1.2Z" transform="translate(828 151.74)" fill="black"/>
</g>
</g>
<g id="Screen">
<g id="Screen Mask">
<path fill-rule="evenodd" clip-rule="evenodd" d="M 46.7364 0L 18.5821 0C 7.83253 0 0 7.93625 0 18.3015L 0 461.52C 0 475.035 12.1027 487.009 25.7878 487.009L 199.39 487.009C 212.572 487.009 225.177 474.942 225.177 461.52L 225.177 19.4995C 225.177 7.07607 216.669 0.0738795 206.595 0L 177.301 0C 177.023 0.049253 176.081 0.0738795 175.674 0.0738795C 172.953 0.0738795 172.082 2.43589 172.082 7.93625C 172.082 13.4366 165.684 18.0847 161.004 18.0847L 141.984 18.0847L 71.5614 18.0847L 63.3991 18.0847C 61.1746 18.0847 53.0155 15.5238 52.3526 7.93625C 51.6896 0.348671 51.5954 0.0738795 47.7624 0.0738795C 47.3557 0.0738795 47.0137 0.049253 46.7364 0Z" transform="translate(842.411 11.9951)" fill="#00ABBA"/>
</g>
<mask id="mask0" mask-type="alpha" maskUnits="userSpaceOnUse" x="842" y="11" width="226" height="489">
<g id="Screen Mask_2">
<path fill-rule="evenodd" clip-rule="evenodd" d="M 46.7364 0L 18.5821 0C 7.83253 0 0 7.93625 0 18.3015L 0 461.52C 0 475.035 12.1027 487.009 25.7878 487.009L 199.39 487.009C 212.572 487.009 225.177 474.942 225.177 461.52L 225.177 19.4995C 225.177 7.07607 216.669 0.0738795 206.595 0L 177.301 0C 177.023 0.049253 176.081 0.0738795 175.674 0.0738795C 172.953 0.0738795 172.082 2.43589 172.082 7.93625C 172.082 13.4366 165.684 18.0847 161.004 18.0847L 141.984 18.0847L 71.5614 18.0847L 63.3991 18.0847C 61.1746 18.0847 53.0155 15.5238 52.3526 7.93625C 51.6896 0.348671 51.5954 0.0738795 47.7624 0.0738795C 47.3557 0.0738795 47.0137 0.049253 46.7364 0Z" transform="translate(842.411 11.9951)" fill="white"/>
</g>
</mask>
<g mask="url(#mask0)">
</g>
</g>
<g id="Group">
<g id="reflect-glass-right" opacity="0.3">
<path fill-rule="evenodd" clip-rule="evenodd" d="M 5.96555 468.57L 5.96555 11.757C 5.96555 7.50005 3.93533 3.34062 0 0C 3.03315 1.17 4.99305 1.29654 7.09064 3.41965C 11.2358 7.61546 13.8109 13.0091 13.8109 17.4955L 13.8109 461.032C 13.8109 466.58 11.1615 471.703 8.07501 475.771C 5.97803 478.535 2.9988 481.025 0.400804 482.298C 4.14848 479.327 5.96555 472.827 5.96555 468.57Z" transform="translate(1053.78 12.5947)" fill="url(#paint5_linear)"/>
</g>
<g id="reflect-glass-left" opacity="0.3">
<path fill-rule="evenodd" clip-rule="evenodd" d="M 7.84533 467.966C 7.84533 472.223 9.45451 479.255 13.2022 482.226C 10.6042 480.953 8.81782 479.04 6.72023 476.917C 2.57509 472.721 0 466.714 0 462.228L 0 16.892C 0 12.4056 2.57509 7.01197 6.72023 2.81615C 8.81782 0.693046 10.7777 1.17 13.8109 0C 9.87555 3.34062 7.84533 6.89656 7.84533 11.1535L 7.84533 467.966Z" transform="translate(842.411 12.5947)" fill="url(#paint6_linear)"/>
</g>
</g>
<g id="Group 46">
<g id="Rectangle-path">
<path d="M 0 0L 7.95 0L 7.95 40.98L 0 40.98L 0 0Z" transform="translate(1054.74 290.36)" fill="#C72228"/>
</g>
<g id="Rectangle-path_2">
<path d="M 0 0L 1.23 0L 1.23 56.88L 0 56.88L 0 0Z" transform="translate(1058.1 282.41)" fill="#C72228"/>
</g>
<g id="Rectangle-path_3">
<path d="M 0 0L 7.95 0L 7.95 40.98L 0 40.98L 0 0Z" transform="translate(1038.84 306.9)" fill="#61A065"/>
</g>
<g id="Rectangle-path_4">
<path d="M 0 0L 1.23 0L 1.23 56.88L 0 56.88L 0 0Z" transform="translate(1042.2 298.95)" fill="#61A065"/>
</g>
<g id="Rectangle-path_5">
<path d="M 0 0L 7.95 0L 7.95 40.98L 0 40.98L 0 0Z" transform="translate(1022.93 295.83)" fill="#61A065"/>
</g>
<g id="Rectangle-path_6">
<path d="M 0 0L 1.23 0L 1.23 56.88L 0 56.88L 0 0Z" transform="translate(1026.3 287.87)" fill="#61A065"/>
</g>
<g id="Rectangle-path_7">
<path d="M 0 0L 7.95 0L 7.95 40.98L 0 40.98L 0 0Z" transform="translate(1007.03 278.68)" fill="#61A065"/>
</g>
<g id="Rectangle-path_8">
<path d="M 0 0L 1.23 0L 1.23 56.88L 0 56.88L 0 0Z" transform="translate(1010.39 270.73)" fill="#61A065"/>
</g>
<g id="Rectangle-path_9">
<path d="M 0 0L 7.95 0L 7.95 40.98L 0 40.98L 0 0Z" transform="translate(991.13 251.6)" fill="#DA222B"/>
</g>
<g id="Rectangle-path_10">
<path d="M 0 0L 1.23 0L 1.23 56.88L 0 56.88L 0 0Z" transform="translate(994.49 243.65)" fill="#DA222B"/>
</g>
<g id="Rectangle-path_11">
<path d="M 0 0L 7.95 0L 7.95 40.98L 0 40.98L 0 0Z" transform="translate(975.23 232.7)" fill="#619F66"/>
</g>
<g id="Rectangle-path_12">
<path d="M 0 0L 1.23 0L 1.23 56.88L 0 56.88L 0 0Z" transform="translate(978.59 224.75)" fill="#619F66"/>
</g>
<g id="Rectangle-path_13">
<path d="M 0 0L 7.95 0L 7.95 40.98L 0 40.98L 0 0Z" transform="translate(959.32 207.81)" fill="#DA222B"/>
</g>
<g id="Rectangle-path_14">
<path d="M 0 0L 1.23 0L 1.23 56.88L 0 56.88L 0 0Z" transform="translate(962.68 199.85)" fill="#DA222B"/>
</g>
<g id="Rectangle-path_15">
<path d="M 0 0L 7.95 0L 7.95 40.98L 0 40.98L 0 0Z" transform="translate(943.42 187.32)" fill="#DA222B"/>
</g>
<g id="Rectangle-path_16">
<path d="M 0 0L 1.23 0L 1.23 56.88L 0 56.88L 0 0Z" transform="translate(946.78 179.36)" fill="#DA222B"/>
</g>
<g id="Rectangle-path_17">
<path d="M 0 0L 7.95 0L 7.95 40.98L 0 40.98L 0 0Z" transform="translate(927.52 212.86)" fill="#61A067"/>
</g>
<g id="Rectangle-path_18">
<path d="M 0 0L 1.23 0L 1.23 56.88L 0 56.88L 0 0Z" transform="translate(930.88 204.91)" fill="#61A067"/>
</g>
<g id="Rectangle-path_19">
<path d="M 0 0L 7.95 0L 7.95 40.98L 0 40.98L 0 0Z" transform="translate(919.56 290.08) scale(-1)" fill="#61A065"/>
</g>
<g id="Rectangle-path_20">
<path d="M 0 0L 1.23 0L 1.23 56.88L 0 56.88L 0 0Z" transform="translate(916.2 298.03) scale(-1)" fill="#61A065"/>
</g>
<g id="Rectangle-path_21">
<path d="M 0 0L 7.95 0L 7.95 31.16L 0 31.16L 0 0Z" transform="translate(879.81 206.17)" fill="#C02126"/>
</g>
<g id="Rectangle-path_22">
<path d="M 0 0L 1.23 0L 1.23 43.25L 0 43.25L 0 0Z" transform="translate(883.17 200.12)" fill="#C02126"/>
</g>
<g id="Rectangle-path_23">
<path d="M 0 0L 7.95 0L 7.95 35.25L 0 35.25L 0 0Z" transform="translate(895.71 226.96)" fill="#6AA94E"/>
</g>
<g id="Rectangle-path_24">
<path d="M 0 0L 1.23 0L 1.23 48.93L 0 48.93L 0 0Z" transform="translate(899.07 220.12)" fill="#6AA94E"/>
</g>
<g id="Rectangle-path_25">
<path d="M 0 0L 7.95 0L 7.95 40.98L 0 40.98L 0 0Z" transform="translate(848 173.95)" fill="#CC2125"/>
</g>
<g id="Shape">
<path d="M 1.23 0L 1.23 56.88L 0 56.88L 0 0" transform="translate(851.36 166)" fill="#CC2125"/>
</g>
<g id="Rectangle-path_26">
<path d="M 0 0L 7.95 0L 7.95 19.7L 0 19.7L 0 0Z" transform="translate(863.91 184.55)" fill="#C02127"/>
</g>
<g id="Rectangle-path_27">
<path d="M 0 0L 1.23 0L 1.23 27.34L 0 27.34L 0 0Z" transform="translate(867.27 180.73)" fill="#C02127"/>
</g>
<g id="Shape_2">
<path d="M 110.14 60.41L 106.8 54.83L 95.14 45.16L 80.77 20.79L 71.43 50.72L 71.4 50.76L 64.69 58.65L 56.31 35.02L 52 31.88L 44.53 32.96L 34.85 25.49L 31.53 14.09L 25.51 11.77L 19.23 10.2L 15.49 18.49L 13.48 20.5L 6.44 18.6L 0.4 25.51L 0 25.15L 6.25 17.99L 13.32 19.89L 15.07 18.14L 18.92 9.57L 25.67 11.25L 31.98 13.68L 35.32 25.17L 44.68 32.39L 52.14 31.31L 56.77 34.68L 56.8 34.76L 64.89 57.58L 70.95 50.45L 80.62 19.46L 95.58 44.84L 107.24 54.51L 110.38 59.75L 114.72 58.22L 119.78 52.9L 122.57 38.48L 128.77 34.8L 135.24 18.74L 144.11 0L 156.06 7L 157.07 14.33L 165.72 19.14L 173.55 25.69L 177.23 29.94L 186.3 28.37L 188.6 21.57L 195.57 21.02L 206.89 2.65L 207.36 2.93L 195.89 21.54L 189 22.08L 186.71 28.85L 177.02 30.53L 173.17 26.07L 165.41 19.59L 156.57 14.67L 155.56 7.34L 144.35 0.77L 135.74 18.96L 129.2 35.17L 123.06 38.82L 120.28 53.16L 115.03 58.69L 110.14 60.41Z" transform="translate(851.67 223.68)" fill="white"/>
</g>
</g>
<g id="Group 65">
<g id="Group_2" style="mix-blend-mode:color-dodge">
<g id="Rectangle-path_28">
<path d="M 0 0L 7.95 0L 7.95 32.14L 0 32.14L 0 0Z" transform="translate(1164.27 276.82)" fill="#C7C7C7"/>
</g>
<g id="Rectangle-path_29">
<path d="M 0 0L 1.23 0L 1.23 58.72L 0 58.72L 0 0Z" transform="translate(1167.64 267.95)" fill="#C7C7C7"/>
</g>
<g id="Rectangle-path_30">
<path d="M 0 0L 1.23 0L 1.23 56.88L 0 56.88L 0 0Z" transform="translate(1151.73 285.78)" fill="#C7C7C7"/>
</g>
<g id="Rectangle-path_31">
<path d="M 0 0L 7.95 0L 7.95 27.18L 0 27.18L 0 0Z" transform="translate(1148.37 307.54)" fill="#C7C7C7"/>
</g>
<g id="Rectangle-path_32">
<path d="M 0 0L 7.95 0L 7.95 25.83L 0 25.83L 0 0Z" transform="translate(1181.69 265.19)" fill="#C7C7C7"/>
</g>
<g id="Rectangle-path_33">
<path d="M 0 0L 1.23 0L 1.23 58.72L 0 58.72L 0 0Z" transform="translate(1185.05 256.32)" fill="#C7C7C7"/>
</g>
<g id="Rectangle-path_34">
<path d="M 0 0L 7.95 0L 7.95 20.49L 0 20.49L 0 0Z" transform="translate(1197.59 261.66)" fill="#C7C7C7"/>
</g>
<g id="Rectangle-path_35">
<path d="M 0 0L 1.23 0L 1.23 58.72L 0 58.72L 0 0Z" transform="translate(1200.96 232.3)" fill="#C7C7C7"/>
</g>
<g id="Rectangle-path_36">
<path d="M 0 0L 7.95 0L 7.95 40.98L 0 40.98L 0 0Z" transform="translate(1133.98 281.54)" fill="#C7C7C7"/>
</g>
<g id="Rectangle-path_37">
<path d="M 0 0L 1.23 0L 1.23 56.88L 0 56.88L 0 0Z" transform="translate(1137.35 273.59)" fill="#C7C7C7"/>
</g>
<g id="Rectangle-path_38">
<path d="M 0 0L 7.95 0L 7.95 40.98L 0 40.98L 0 0Z" transform="translate(1118.08 267.98)" fill="#C7C7C7"/>
</g>
<g id="Rectangle-path_39">
<path d="M 0 0L 1.23 0L 1.23 56.88L 0 56.88L 0 0Z" transform="translate(1121.44 260.03)" fill="#C7C7C7"/>
</g>
<g id="Rectangle-path_40">
<path d="M 0 0L 7.95 0L 7.95 22.27L 0 22.27L 0 0Z" transform="translate(1102.18 247.46)" fill="#C7C7C7"/>
</g>
<g id="Rectangle-path_41">
<path d="M 0 0L 1.23 0L 1.23 56.88L 0 56.88L 0 0Z" transform="translate(1105.54 239.5)" fill="#C7C7C7"/>
</g>
<g id="Rectangle-path_42">
<path d="M 0 0L 7.95 0L 7.95 40.98L 0 40.98L 0 0Z" transform="translate(1086.27 215.34)" fill="#C7C7C7"/>
</g>
<g id="Rectangle-path_43">
<path d="M 0 0L 1.23 0L 1.23 56.88L 0 56.88L 0 0Z" transform="translate(1089.64 207.39)" fill="#C7C7C7"/>
</g>
<g id="Rectangle-path_44">
<path d="M 0 0L 7.95 0L 7.95 48.93L 0 48.93L 0 0Z" transform="translate(1213.5 217.55)" fill="#C7C7C7"/>
</g>
<g id="Rectangle-path_45">
<path d="M 0 0L 1.23 0L 1.23 56.88L 0 56.88L 0 0Z" transform="translate(1216.86 217.55)" fill="#C7C7C7"/>
</g>
<g id="Rectangle-path_46">
<path d="M 0 0L 7.95 0L 7.95 27.05L 0 27.05L 0 0Z" transform="translate(1229.4 205.25)" fill="#C7C7C7"/>
</g>
<g id="Rectangle-path_47">
<path d="M 0 0L 1.23 0L 1.23 56.88L 0 56.88L 0 0Z" transform="translate(1232.76 197.3)" fill="#C7C7C7"/>
</g>
<g id="Rectangle-path_48">
<path d="M 0 0L 7.95 0L 7.95 24.6L 0 24.6L 0 0Z" transform="translate(1245.3 198.93)" fill="#C7C7C7"/>
</g>
<g id="Rectangle-path_49">
<path d="M 0 0L 1.23 0L 1.23 56.88L 0 56.88L 0 0Z" transform="translate(1248.66 190.98)" fill="#C7C7C7"/>
</g>
<g id="Rectangle-path_50">
<path d="M 0 0L 7.95 0L 7.95 25.84L 0 25.84L 0 0Z" transform="translate(1261.21 170.65)" fill="#C7C7C7"/>
</g>
<g id="Rectangle-path_51">
<path d="M 0 0L 1.23 0L 1.23 35.87L 0 35.87L 0 0Z" transform="translate(1264.57 165.64)" fill="#C7C7C7"/>
</g>
<g id="Rectangle-path_52">
<path d="M 0 0L 7.95 0L 7.95 40.98L 0 40.98L 0 0Z" transform="translate(1277.11 198.93)" fill="#C7C7C7"/>
</g>
<g id="Rectangle-path_53">
<path d="M 0 0L 1.23 0L 1.23 56.88L 0 56.88L 0 0Z" transform="translate(1280.47 190.98)" fill="#C7C7C7"/>
</g>
<g id="Rectangle-path_54">
<path d="M 0 0L 7.95 0L 7.95 20.49L 0 20.49L 0 0Z" transform="translate(1293.01 243.01)" fill="#C7C7C7"/>
</g>
<g id="Rectangle-path_55">
<path d="M 0 0L 1.23 0L 1.23 56.88L 0 56.88L 0 0Z" transform="translate(1296.37 214.57)" fill="#C7C7C7"/>
</g>
<g id="Rectangle-path_56">
<path d="M 0 0L 7.95 0L 7.95 40.98L 0 40.98L 0 0Z" transform="translate(1308.91 200.35)" fill="#C7C7C7"/>
</g>
<g id="Rectangle-path_57">
<path d="M 0 0L 1.23 0L 1.23 56.88L 0 56.88L 0 0Z" transform="translate(1312.28 192.39)" fill="#C7C7C7"/>
</g>
<g id="Rectangle-path_58">
<path d="M 0 0L 7.95 0L 7.95 40.98L 0 40.98L 0 0Z" transform="translate(1324.82 173.59)" fill="#C7C7C7"/>
</g>
<g id="Rectangle-path_59">
<path d="M 0 0L 1.23 0L 1.23 56.88L 0 56.88L 0 0Z" transform="translate(1328.18 165.64)" fill="#C7C7C7"/>
</g>
<g id="Rectangle-path_60">
<path d="M 0 0L 7.95 0L 7.95 40.98L 0 40.98L 0 0Z" transform="translate(1340.72 150)" fill="#C7C7C7"/>
</g>
<g id="Rectangle-path_61">
<path d="M 0 0L 1.23 0L 1.23 56.88L 0 56.88L 0 0Z" transform="translate(1344.08 142.05)" fill="#C7C7C7"/>
</g>
<g id="Rectangle-path_62">
<path d="M 0 0L 7.95 0L 7.95 19.7L 0 19.7L 0 0Z" transform="translate(1356.62 160.61)" fill="#C7C7C7"/>
</g>
<g id="Rectangle-path_63">
<path d="M 0 0L 1.23 0L 1.23 27.34L 0 27.34L 0 0Z" transform="translate(1359.98 156.78)" fill="#C7C7C7"/>
</g>
<g id="Rectangle-path_64">
<path d="M 0 0L 7.95 0L 7.95 31.16L 0 31.16L 0 0Z" transform="translate(1372.53 182.22)" fill="#C7C7C7"/>
</g>
<g id="Rectangle-path_65">
<path d="M 0 0L 1.23 0L 1.23 43.25L 0 43.25L 0 0Z" transform="translate(1375.89 176.17)" fill="#C7C7C7"/>
</g>
<g id="Rectangle-path_66">
<path d="M 0 0L 7.95 0L 7.95 35.25L 0 35.25L 0 0Z" transform="translate(1388.43 203.01)" fill="#C7C7C7"/>
</g>
<g id="Rectangle-path_67">
<path d="M 0 0L 1.23 0L 1.23 48.93L 0 48.93L 0 0Z" transform="translate(1391.79 196.17)" fill="#C7C7C7"/>
</g>
<g id="Rectangle-path_68">
<path d="M 0 0L 7.95 0L 7.95 29.35L 0 29.35L 0 0Z" transform="translate(1404.33 236.78)" fill="#C7C7C7"/>
</g>
<g id="Rectangle-path_69">
<path d="M 0 0L 1.23 0L 1.23 56.88L 0 56.88L 0 0Z" transform="translate(1407.69 217.2)" fill="#C7C7C7"/>
</g>
<g id="Rectangle-path_70">
<path d="M 0 0L 7.95 0L 7.95 40.98L 0 40.98L 0 0Z" transform="translate(1420.23 202.03)" fill="#C7C7C7"/>
</g>
<g id="Rectangle-path_71">
<path d="M 0 0L 1.23 0L 1.23 56.88L 0 56.88L 0 0Z" transform="translate(1423.6 194.08)" fill="#C7C7C7"/>
</g>
<g id="Rectangle-path_72">
<path d="M 0 0L 7.95 0L 7.95 40.98L 0 40.98L 0 0Z" transform="translate(1436.14 175.68)" fill="#C7C7C7"/>
</g>
<g id="Rectangle-path_73">
<path d="M 0 0L 1.23 0L 1.23 56.88L 0 56.88L 0 0Z" transform="translate(1439.5 167.73)" fill="#C7C7C7"/>
</g>
<g id="Rectangle-path_74">
<path d="M 0 0L 7.95 0L 7.95 40.98L 0 40.98L 0 0Z" transform="translate(1452.04 162.65)" fill="#C7C7C7"/>
</g>
<g id="Rectangle-path_75">
<path d="M 0 0L 1.23 0L 1.23 56.88L 0 56.88L 0 0Z" transform="translate(1455.4 154.7)" fill="#C7C7C7"/>
</g>
<g id="Rectangle-path_76">
<path d="M 0 0L 7.95 0L 7.95 40.98L 0 40.98L 0 0Z" transform="translate(1467.94 135.95)" fill="#C7C7C7"/>
</g>
<g id="Rectangle-path_77">
<path d="M 0 0L 1.23 0L 1.23 56.88L 0 56.88L 0 0Z" transform="translate(1471.3 128)" fill="#C7C7C7"/>
</g>
<g id="Rectangle-path_78">
<path d="M 0 0L 7.95 0L 7.95 40.98L 0 40.98L 0 0Z" transform="translate(671.29 300.04)" fill="#C7C7C7"/>
</g>
<g id="Rectangle-path_79">
<path d="M 0 0L 1.23 0L 1.23 58.72L 0 58.72L 0 0Z" transform="translate(674.65 291.17)" fill="#C7C7C7"/>
</g>
<g id="Rectangle-path_80">
<path d="M 0 0L 1.23 0L 1.23 56.88L 0 56.88L 0 0Z" transform="translate(658.75 309)" fill="#C7C7C7"/>
</g>
<g id="Rectangle-path_81">
<path d="M 0 0L 7.95 0L 7.95 40.98L 0 40.98L 0 0Z" transform="translate(655.38 316.95)" fill="#C7C7C7"/>
</g>
<g id="Rectangle-path_82">
<path d="M 0 0L 7.95 0L 7.95 40.98L 0 40.98L 0 0Z" transform="translate(688.7 288.41)" fill="#C7C7C7"/>
</g>
<g id="Rectangle-path_83">
<path d="M 0 0L 1.23 0L 1.23 58.72L 0 58.72L 0 0Z" transform="translate(692.07 279.54)" fill="#C7C7C7"/>
</g>
<g id="Rectangle-path_84">
<path d="M 0 0L 7.95 0L 7.95 40.98L 0 40.98L 0 0Z" transform="translate(704.61 264.39)" fill="#C7C7C7"/>
</g>
<g id="Rectangle-path_85">
<path d="M 0 0L 1.23 0L 1.23 58.72L 0 58.72L 0 0Z" transform="translate(707.97 255.52)" fill="#C7C7C7"/>
</g>
<g id="Rectangle-path_86">
<path d="M 0 0L 7.95 0L 7.95 40.98L 0 40.98L 0 0Z" transform="translate(641 304.76)" fill="#C7C7C7"/>
</g>
<g id="Rectangle-path_87">
<path d="M 0 0L 1.23 0L 1.23 56.88L 0 56.88L 0 0Z" transform="translate(644.36 296.81)" fill="#C7C7C7"/>
</g>
<g id="Rectangle-path_88">
<path d="M 0 0L 7.95 0L 7.95 40.98L 0 40.98L 0 0Z" transform="translate(625.09 291.2)" fill="#C7C7C7"/>
</g>
<g id="Rectangle-path_89">
<path d="M 0 0L 1.23 0L 1.23 56.88L 0 56.88L 0 0Z" transform="translate(628.45 283.25)" fill="#C7C7C7"/>
</g>
<g id="Rectangle-path_90">
<path d="M 0 0L 7.95 0L 7.95 22.27L 0 22.27L 0 0Z" transform="translate(609.19 270.67)" fill="#C7C7C7"/>
</g>
<g id="Rectangle-path_91">
<path d="M 0 0L 1.23 0L 1.23 56.88L 0 56.88L 0 0Z" transform="translate(612.55 262.72)" fill="#C7C7C7"/>
</g>
<g id="Rectangle-path_92">
<path d="M 0 0L 7.95 0L 7.95 40.98L 0 40.98L 0 0Z" transform="translate(593.29 238.56)" fill="#C7C7C7"/>
</g>
<g id="Rectangle-path_93">
<path d="M 0 0L 1.23 0L 1.23 56.88L 0 56.88L 0 0Z" transform="translate(596.65 230.6)" fill="#C7C7C7"/>
</g>
<g id="Rectangle-path_94">
<path d="M 0 0L 7.95 0L 7.95 29.32L 0 29.32L 0 0Z" transform="translate(577.38 291.2)" fill="#C7C7C7"/>
</g>
<g id="Rectangle-path_95">
<path d="M 0 0L 1.23 0L 1.23 56.88L 0 56.88L 0 0Z" transform="translate(580.75 271.59)" fill="#C7C7C7"/>
</g>
<g id="Rectangle-path_96">
<path d="M 0 0L 7.95 0L 7.95 40.98L 0 40.98L 0 0Z" transform="translate(720.51 248.72)" fill="#C7C7C7"/>
</g>
<g id="Rectangle-path_97">
<path d="M 0 0L 1.23 0L 1.23 56.88L 0 56.88L 0 0Z" transform="translate(723.87 240.77)" fill="#C7C7C7"/>
</g>
<g id="Rectangle-path_98">
<path d="M 0 0L 7.95 0L 7.95 40.98L 0 40.98L 0 0Z" transform="translate(736.41 228.47)" fill="#C7C7C7"/>
</g>
<g id="Rectangle-path_99">
<path d="M 0 0L 1.23 0L 1.23 56.88L 0 56.88L 0 0Z" transform="translate(739.77 220.52)" fill="#C7C7C7"/>
</g>
<g id="Rectangle-path_100">
<path d="M 0 0L 7.95 0L 7.95 40.98L 0 40.98L 0 0Z" transform="translate(561.48 312.85)" fill="#C7C7C7"/>
</g>
<g id="Rectangle-path_101">
<path d="M 0 0L 1.23 0L 1.23 56.88L 0 56.88L 0 0Z" transform="translate(564.84 304.9)" fill="#C7C7C7"/>
</g>
<g id="Rectangle-path_102">
<path d="M 0 0L 7.95 0L 7.95 40.98L 0 40.98L 0 0Z" transform="translate(545.58 329.39)" fill="#C7C7C7"/>
</g>
<g id="Rectangle-path_103">
<path d="M 0 0L 1.23 0L 1.23 56.88L 0 56.88L 0 0Z" transform="translate(548.94 321.44)" fill="#C7C7C7"/>
</g>
<g id="Rectangle-path_104">
<path d="M 0 0L 7.95 0L 7.95 40.98L 0 40.98L 0 0Z" transform="translate(529.68 318.31)" fill="#C7C7C7"/>
</g>
<g id="Rectangle-path_105">
<path d="M 0 0L 1.23 0L 1.23 56.88L 0 56.88L 0 0Z" transform="translate(533.04 310.36)" fill="#C7C7C7"/>
</g>
<g id="Rectangle-path_106">
<path d="M 0 0L 7.95 0L 7.95 40.98L 0 40.98L 0 0Z" transform="translate(513.77 301.17)" fill="#C7C7C7"/>
</g>
<g id="Rectangle-path_107">
<path d="M 0 0L 1.23 0L 1.23 56.88L 0 56.88L 0 0Z" transform="translate(517.13 293.22)" fill="#C7C7C7"/>
</g>
<g id="Rectangle-path_108">
<path d="M 0 0L 7.95 0L 7.95 29.29L 0 29.29L 0 0Z" transform="translate(497.87 271.82)" fill="#C7C7C7"/>
</g>
<g id="Rectangle-path_109">
<path d="M 0 0L 1.23 0L 1.23 40.65L 0 40.65L 0 0Z" transform="translate(501.23 266.13)" fill="#C7C7C7"/>
</g>
<g id="Shape_3">
<path d="M 4 17.91C 6.20914 17.91 8 16.1191 8 13.91L 8 0L 0 0L 0 14C 0.0489254 16.1739 1.82554 17.9106 4 17.91Z" transform="translate(481.95 265.06)" fill="#C7C7C7"/>
</g>
<g id="Shape_4">
<path d="M 0.62 24.93C 0.958505 24.9245 1.23004 24.6485 1.23 24.31L 1.23 0L 0 0L 0 24.31C 0 24.6524 0.277583 24.93 0.62 24.93Z" transform="translate(485.33 261.53)" fill="#C7C7C7"/>
</g>
<g id="Rectangle-path_110">
<path d="M 0 0L 7.95 0L 7.95 20.49L 0 20.49L 0 0Z" transform="translate(466.06 230.29)" fill="#C7C7C7"/>
</g>
<g id="Rectangle-path_111">
<path d="M 0 0L 1.23 0L 1.23 56.88L 0 56.88L 0 0Z" transform="translate(469.43 222.34)" fill="#C7C7C7"/>
</g>
<g id="Rectangle-path_112">
<path d="M 0 0L 7.95 0L 7.95 26.72L 0 26.72L 0 0Z" transform="translate(450.16 209.8)" fill="#C7C7C7"/>
</g>
<g id="Rectangle-path_113">
<path d="M 0 0L 1.23 0L 1.23 56.88L 0 56.88L 0 0Z" transform="translate(453.52 201.85)" fill="#C7C7C7"/>
</g>
<g id="Rectangle-path_114">
<path d="M 0 0L 7.95 0L 7.95 21.43L 0 21.43L 0 0Z" transform="translate(434.26 235.35)" fill="#C7C7C7"/>
</g>
<g id="Rectangle-path_115">
<path d="M 0 0L 1.23 0L 1.23 56.88L 0 56.88L 0 0Z" transform="translate(437.62 227.4)" fill="#C7C7C7"/>
</g>
<g id="Rectangle-path_116">
<path d="M 0 0L 7.95 0L 7.95 40.98L 0 40.98L 0 0Z" transform="translate(752.32 222.15)" fill="#C7C7C7"/>
</g>
<g id="Rectangle-path_117">
<path d="M 0 0L 1.23 0L 1.23 56.88L 0 56.88L 0 0Z" transform="translate(755.68 214.2)" fill="#C7C7C7"/>
</g>
<g id="Rectangle-path_118">
<path d="M 0 0L 7.95 0L 7.95 25.84L 0 25.84L 0 0Z" transform="translate(768.22 193.87)" fill="#C7C7C7"/>
</g>
<g id="Rectangle-path_119">
<path d="M 0 0L 1.23 0L 1.23 35.87L 0 35.87L 0 0Z" transform="translate(771.58 188.86)" fill="#C7C7C7"/>
</g>
<g id="Rectangle-path_120">
<path d="M 0 0L 7.95 0L 7.95 40.98L 0 40.98L 0 0Z" transform="translate(784.12 222.15)" fill="#C7C7C7"/>
</g>
<g id="Rectangle-path_121">
<path d="M 0 0L 1.23 0L 1.23 56.88L 0 56.88L 0 0Z" transform="translate(787.48 214.2)" fill="#C7C7C7"/>
</g>
<g id="Rectangle-path_122">
<path d="M 0 0L 7.95 0L 7.95 40.98L 0 40.98L 0 0Z" transform="translate(800.02 245.74)" fill="#C7C7C7"/>
</g>
<g id="Rectangle-path_123">
<path d="M 0 0L 1.23 0L 1.23 56.88L 0 56.88L 0 0Z" transform="translate(803.39 237.79)" fill="#C7C7C7"/>
</g>
<g id="Rectangle-path_124">
<path d="M 0 0L 7.95 0L 7.95 40.98L 0 40.98L 0 0Z" transform="translate(815.93 223.57)" fill="#C7C7C7"/>
</g>
<g id="Rectangle-path_125">
<path d="M 0 0L 1.23 0L 1.23 56.88L 0 56.88L 0 0Z" transform="translate(819.29 215.61)" fill="#C7C7C7"/>
</g>
<g id="Rectangle-path_126">
<path d="M 0 0L 1.23 0L 1.23 56.88L 0 56.88L 0 0Z" transform="translate(835.19 188.86)" fill="#C7C7C7"/>
</g>
</g>
<g id="Group_3" style="mix-blend-mode:color-dodge">
<g id="Rectangle-path_127">
<path d="M 0 0L 7.95 0L 7.95 40.98L 0 40.98L 0 0Z" transform="translate(1670.98 238.78)" fill="#C7C7C7"/>
</g>
<g id="Rectangle-path_128">
<path d="M 0 0L 1.23 0L 1.23 56.88L 0 56.88L 0 0Z" transform="translate(1674.34 230.83)" fill="#C7C7C7"/>
</g>
<g id="Rectangle-path_129">
<path d="M 0 0L 7.95 0L 7.95 22.27L 0 22.27L 0 0Z" transform="translate(1655.08 218.25)" fill="#C7C7C7"/>
</g>
<g id="Rectangle-path_130">
<path d="M 0 0L 1.23 0L 1.23 56.88L 0 56.88L 0 0Z" transform="translate(1658.44 210.3)" fill="#C7C7C7"/>
</g>
<g id="Rectangle-path_131">
<path d="M 0 0L 7.95 0L 7.95 40.98L 0 40.98L 0 0Z" transform="translate(1639.18 186.13)" fill="#C7C7C7"/>
</g>
<g id="Rectangle-path_132">
<path d="M 0 0L 1.23 0L 1.23 56.88L 0 56.88L 0 0Z" transform="translate(1642.54 178.18)" fill="#C7C7C7"/>
</g>
<g id="Rectangle-path_133">
<path d="M 0 0L 7.95 0L 7.95 29.32L 0 29.32L 0 0Z" transform="translate(1623.27 238.78)" fill="#C7C7C7"/>
</g>
<g id="Rectangle-path_134">
<path d="M 0 0L 1.23 0L 1.23 56.88L 0 56.88L 0 0Z" transform="translate(1626.64 219.16)" fill="#C7C7C7"/>
</g>
<g id="Rectangle-path_135">
<path d="M 0 0L 7.95 0L 7.95 40.98L 0 40.98L 0 0Z" transform="translate(1607.37 260.43)" fill="#C7C7C7"/>
</g>
<g id="Rectangle-path_136">
<path d="M 0 0L 1.23 0L 1.23 56.88L 0 56.88L 0 0Z" transform="translate(1610.73 252.48)" fill="#C7C7C7"/>
</g>
<g id="Rectangle-path_137">
<path d="M 0 0L 7.95 0L 7.95 40.98L 0 40.98L 0 0Z" transform="translate(1591.47 276.96)" fill="#C7C7C7"/>
</g>
<g id="Rectangle-path_138">
<path d="M 0 0L 1.23 0L 1.23 56.88L 0 56.88L 0 0Z" transform="translate(1594.83 269.01)" fill="#C7C7C7"/>
</g>
<g id="Rectangle-path_139">
<path d="M 0 0L 7.95 0L 7.95 40.98L 0 40.98L 0 0Z" transform="translate(1575.57 265.89)" fill="#C7C7C7"/>
</g>
<g id="Rectangle-path_140">
<path d="M 0 0L 1.23 0L 1.23 56.88L 0 56.88L 0 0Z" transform="translate(1578.93 257.94)" fill="#C7C7C7"/>
</g>
<g id="Rectangle-path_141">
<path d="M 0 0L 7.95 0L 7.95 40.98L 0 40.98L 0 0Z" transform="translate(1559.66 248.74)" fill="#C7C7C7"/>
</g>
<g id="Rectangle-path_142">
<path d="M 0 0L 1.23 0L 1.23 56.88L 0 56.88L 0 0Z" transform="translate(1563.02 240.79)" fill="#C7C7C7"/>
</g>
<g id="Rectangle-path_143">
<path d="M 0 0L 7.95 0L 7.95 29.29L 0 29.29L 0 0Z" transform="translate(1543.76 219.39)" fill="#C7C7C7"/>
</g>
<g id="Rectangle-path_144">
<path d="M 0 0L 1.23 0L 1.23 40.65L 0 40.65L 0 0Z" transform="translate(1547.12 213.71)" fill="#C7C7C7"/>
</g>
<g id="Shape_5">
<path d="M 4 18C 6.20914 18 8 16.2091 8 14L 8 0L 0 0L 0 14C 0 16.2091 1.79086 18 4 18Z" transform="translate(1527.83 212.55)" fill="#C7C7C7"/>
</g>
<g id="Shape_6">
<path d="M 0.614034 25C 0.777542 25.0027 0.935279 24.9396 1.05185 24.8249C 1.16842 24.7102 1.23406 24.5535 1.23403 24.39L 1.23403 0L 0.00403442 0L 0.00403442 24.32C -0.0160144 24.4935 0.0392884 24.6673 0.15593 24.7973C 0.272572 24.9274 0.43936 25.0012 0.614034 25Z" transform="translate(1531.22 209.06)" fill="#C7C7C7"/>
</g>
<g id="Rectangle-path_145">
<path d="M 0 0L 7.95 0L 7.95 20.49L 0 20.49L 0 0Z" transform="translate(1511.95 177.87)" fill="#C7C7C7"/>
</g>
<g id="Rectangle-path_146">
<path d="M 0 0L 1.23 0L 1.23 56.88L 0 56.88L 0 0Z" transform="translate(1515.32 169.92)" fill="#C7C7C7"/>
</g>
<g id="Rectangle-path_147">
<path d="M 0 0L 7.95 0L 7.95 26.72L 0 26.72L 0 0Z" transform="translate(1496.05 157.38)" fill="#C7C7C7"/>
</g>
<g id="Rectangle-path_148">
<path d="M 0 0L 1.23 0L 1.23 56.88L 0 56.88L 0 0Z" transform="translate(1499.41 149.43)" fill="#C7C7C7"/>
</g>
<g id="Rectangle-path_149">
<path d="M 0 0L 7.95 0L 7.95 21.43L 0 21.43L 0 0Z" transform="translate(1480.15 182.93)" fill="#C7C7C7"/>
</g>
<g id="Rectangle-path_150">
<path d="M 0 0L 1.23 0L 1.23 56.88L 0 56.88L 0 0Z" transform="translate(1483.51 174.98)" fill="#C7C7C7"/>
</g>
</g>
<g id="Group Copy 6" style="mix-blend-mode:color-dodge">
<g id="Rectangle-path_151">
<path d="M 0 0L 7.95 0L 7.95 40.98L 0 40.98L 0 0Z" transform="translate(1879.98 298.78)" fill="#C7C7C7"/>
</g>
<g id="Rectangle-path_152">
<path d="M 0 0L 1.23 0L 1.23 56.88L 0 56.88L 0 0Z" transform="translate(1883.34 290.83)" fill="#C7C7C7"/>
</g>
<g id="Rectangle-path_153">
<path d="M 0 0L 7.95 0L 7.95 22.27L 0 22.27L 0 0Z" transform="translate(1864.08 278.25)" fill="#C7C7C7"/>
</g>
<g id="Rectangle-path_154">
<path d="M 0 0L 1.23 0L 1.23 56.88L 0 56.88L 0 0Z" transform="translate(1867.44 270.3)" fill="#C7C7C7"/>
</g>
<g id="Rectangle-path Copy 63">
<path d="M 0 0L 7.95 0L 7.95 40.98L 0 40.98L 0 0Z" transform="translate(1910.98 298.78)" fill="#C7C7C7"/>
</g>
<g id="Rectangle-path Copy 62">
<path d="M 0 0L 1.23 0L 1.23 56.88L 0 56.88L 0 0Z" transform="translate(1914.34 290.83)" fill="#C7C7C7"/>
</g>
<g id="Rectangle-path Copy 61">
<path d="M 0 0L 7.95 0L 7.95 22.27L 0 22.27L 0 0Z" transform="translate(1895.08 278.25)" fill="#C7C7C7"/>
</g>
<g id="Rectangle-path Copy 60">
<path d="M 0 0L 1.23 0L 1.23 56.88L 0 56.88L 0 0Z" transform="translate(1898.44 270.3)" fill="#C7C7C7"/>
</g>
<g id="Rectangle-path_155">
<path d="M 0 0L 7.95 0L 7.95 40.98L 0 40.98L 0 0Z" transform="translate(1848.18 246.13)" fill="#C7C7C7"/>
</g>
<g id="Rectangle-path_156">
<path d="M 0 0L 1.23 0L 1.23 56.88L 0 56.88L 0 0Z" transform="translate(1851.54 238.18)" fill="#C7C7C7"/>
</g>
<g id="Rectangle-path_157">
<path d="M 0 0L 7.95 0L 7.95 29.32L 0 29.32L 0 0Z" transform="translate(1832.27 298.78)" fill="#C7C7C7"/>
</g>
<g id="Rectangle-path_158">
<path d="M 0 0L 1.23 0L 1.23 56.88L 0 56.88L 0 0Z" transform="translate(1835.64 279.16)" fill="#C7C7C7"/>
</g>
<g id="Rectangle-path_159">
<path d="M 0 0L 7.95 0L 7.95 40.98L 0 40.98L 0 0Z" transform="translate(1816.37 320.43)" fill="#C7C7C7"/>
</g>
<g id="Rectangle-path_160">
<path d="M 0 0L 1.23 0L 1.23 56.88L 0 56.88L 0 0Z" transform="translate(1819.73 312.48)" fill="#C7C7C7"/>
</g>
<g id="Rectangle-path_161">
<path d="M 0 0L 7.95 0L 7.95 40.98L 0 40.98L 0 0Z" transform="translate(1800.47 336.96)" fill="#C7C7C7"/>
</g>
<g id="Rectangle-path_162">
<path d="M 0 0L 1.23 0L 1.23 56.88L 0 56.88L 0 0Z" transform="translate(1803.83 329.01)" fill="#C7C7C7"/>
</g>
<g id="Rectangle-path_163">
<path d="M 0 0L 7.95 0L 7.95 40.98L 0 40.98L 0 0Z" transform="translate(1784.57 325.89)" fill="#C7C7C7"/>
</g>
<g id="Rectangle-path_164">
<path d="M 0 0L 1.23 0L 1.23 56.88L 0 56.88L 0 0Z" transform="translate(1787.93 317.94)" fill="#C7C7C7"/>
</g>
<g id="Rectangle-path_165">
<path d="M 0 0L 7.95 0L 7.95 40.98L 0 40.98L 0 0Z" transform="translate(1768.66 308.74)" fill="#C7C7C7"/>
</g>
<g id="Rectangle-path_166">
<path d="M 0 0L 1.23 0L 1.23 56.88L 0 56.88L 0 0Z" transform="translate(1772.02 300.79)" fill="#C7C7C7"/>
</g>
<g id="Rectangle-path_167">
<path d="M 0 0L 7.95 0L 7.95 29.29L 0 29.29L 0 0Z" transform="translate(1752.76 279.39)" fill="#C7C7C7"/>
</g>
<g id="Rectangle-path_168">
<path d="M 0 0L 1.23 0L 1.23 40.65L 0 40.65L 0 0Z" transform="translate(1756.12 273.71)" fill="#C7C7C7"/>
</g>
<g id="Shape_7">
<path d="M 4 18C 6.20914 18 8 16.2091 8 14L 8 0L 0 0L 0 14C 0 16.2091 1.79086 18 4 18Z" transform="translate(1736.83 272.55)" fill="#C7C7C7"/>
</g>
<g id="Shape_8">
<path d="M 0.614034 25C 0.777542 25.0027 0.935279 24.9396 1.05185 24.8249C 1.16842 24.7102 1.23406 24.5535 1.23403 24.39L 1.23403 0L 0.00403442 0L 0.00403442 24.32C -0.0160144 24.4935 0.0392884 24.6673 0.15593 24.7973C 0.272572 24.9274 0.43936 25.0012 0.614034 25Z" transform="translate(1740.22 269.06)" fill="#C7C7C7"/>
</g>
<g id="Rectangle-path_169">
<path d="M 0 0L 7.95 0L 7.95 20.49L 0 20.49L 0 0Z" transform="translate(1720.95 237.87)" fill="#C7C7C7"/>
</g>
<g id="Rectangle-path_170">
<path d="M 0 0L 1.23 0L 1.23 56.88L 0 56.88L 0 0Z" transform="translate(1724.32 229.92)" fill="#C7C7C7"/>
</g>
<g id="Rectangle-path_171">
<path d="M 0 0L 7.95 0L 7.95 26.72L 0 26.72L 0 0Z" transform="translate(1705.05 217.38)" fill="#C7C7C7"/>
</g>
<g id="Rectangle-path_172">
<path d="M 0 0L 1.23 0L 1.23 56.88L 0 56.88L 0 0Z" transform="translate(1708.41 209.43)" fill="#C7C7C7"/>
</g>
<g id="Rectangle-path_173">
<path d="M 0 0L 7.95 0L 7.95 21.43L 0 21.43L 0 0Z" transform="translate(1689.15 242.93)" fill="#C7C7C7"/>
</g>
<g id="Rectangle-path_174">
<path d="M 0 0L 1.23 0L 1.23 56.88L 0 56.88L 0 0Z" transform="translate(1692.51 234.98)" fill="#C7C7C7"/>
</g>
</g>
<g id="Group_4" style="mix-blend-mode:color-dodge">
<g id="Rectangle-path_175">
<path d="M 0 0L 7.95 0L 7.95 40.98L 0 40.98L 0 0Z" transform="translate(229 198.1)" fill="#C7C7C7"/>
</g>
<g id="Rectangle-path_176">
<path d="M 0 0L 1.23 0L 1.23 56.88L 0 56.88L 0 0Z" transform="translate(232.36 190.15)" fill="#C7C7C7"/>
</g>
<g id="Rectangle-path_177">
<path d="M 0 0L 7.95 0L 7.95 20.49L 0 20.49L 0 0Z" transform="translate(244.91 174.51)" fill="#C7C7C7"/>
</g>
<g id="Rectangle-path_178">
<path d="M 0 0L 1.23 0L 1.23 56.88L 0 56.88L 0 0Z" transform="translate(248.27 166.55)" fill="#C7C7C7"/>
</g>
<g id="Rectangle-path_179">
<path d="M 0 0L 7.95 0L 7.95 40.98L 0 40.98L 0 0Z" transform="translate(260.81 196.68)" fill="#C7C7C7"/>
</g>
<g id="Rectangle-path_180">
<path d="M 0 0L 1.23 0L 1.23 56.88L 0 56.88L 0 0Z" transform="translate(264.17 188.73)" fill="#C7C7C7"/>
</g>
<g id="Rectangle-path_181">
<path d="M 0 0L 7.95 0L 7.95 40.98L 0 40.98L 0 0Z" transform="translate(276.71 223.44)" fill="#C7C7C7"/>
</g>
<g id="Rectangle-path_182">
<path d="M 0 0L 1.23 0L 1.23 56.88L 0 56.88L 0 0Z" transform="translate(280.07 215.49)" fill="#C7C7C7"/>
</g>
<g id="Rectangle-path_183">
<path d="M 0 0L 7.95 0L 7.95 40.98L 0 40.98L 0 0Z" transform="translate(292.61 247.03)" fill="#C7C7C7"/>
</g>
<g id="Rectangle-path_184">
<path d="M 0 0L 1.23 0L 1.23 56.88L 0 56.88L 0 0Z" transform="translate(295.97 239.08)" fill="#C7C7C7"/>
</g>
<g id="Rectangle-path_185">
<path d="M 0 0L 7.95 0L 7.95 19.7L 0 19.7L 0 0Z" transform="translate(308.52 257.71)" fill="#C7C7C7"/>
</g>
<g id="Rectangle-path_186">
<path d="M 0 0L 1.23 0L 1.23 27.34L 0 27.34L 0 0Z" transform="translate(311.88 253.89)" fill="#C7C7C7"/>
</g>
<g id="Rectangle-path_187">
<path d="M 0 0L 7.95 0L 7.95 31.16L 0 31.16L 0 0Z" transform="translate(324.42 224.64)" fill="#C7C7C7"/>
</g>
<g id="Rectangle-path_188">
<path d="M 0 0L 1.23 0L 1.23 43.25L 0 43.25L 0 0Z" transform="translate(327.78 218.59)" fill="#C7C7C7"/>
</g>
<g id="Rectangle-path_189">
<path d="M 0 0L 7.95 0L 7.95 35.25L 0 35.25L 0 0Z" transform="translate(340.32 199.75)" fill="#C7C7C7"/>
</g>
<g id="Rectangle-path_190">
<path d="M 0 0L 1.23 0L 1.23 48.93L 0 48.93L 0 0Z" transform="translate(343.68 192.91)" fill="#C7C7C7"/>
</g>
<g id="Rectangle-path_191">
<path d="M 0 0L 7.95 0L 7.95 29.35L 0 29.35L 0 0Z" transform="translate(356.23 171.88)" fill="#C7C7C7"/>
</g>
<g id="Rectangle-path_192">
<path d="M 0 0L 1.23 0L 1.23 56.88L 0 56.88L 0 0Z" transform="translate(359.59 163.93)" fill="#C7C7C7"/>
</g>
<g id="Rectangle-path_193">
<path d="M 0 0L 7.95 0L 7.95 40.98L 0 40.98L 0 0Z" transform="translate(372.13 195)" fill="#C7C7C7"/>
</g>
<g id="Rectangle-path_194">
<path d="M 0 0L 1.23 0L 1.23 56.88L 0 56.88L 0 0Z" transform="translate(375.49 187.05)" fill="#C7C7C7"/>
</g>
<g id="Rectangle-path_195">
<path d="M 0 0L 7.95 0L 7.95 40.98L 0 40.98L 0 0Z" transform="translate(388.03 221.35)" fill="#C7C7C7"/>
</g>
<g id="Rectangle-path_196">
<path d="M 0 0L 1.23 0L 1.23 56.88L 0 56.88L 0 0Z" transform="translate(391.39 213.4)" fill="#C7C7C7"/>
</g>
<g id="Rectangle-path_197">
<path d="M 0 0L 7.95 0L 7.95 40.98L 0 40.98L 0 0Z" transform="translate(403.93 234.38)" fill="#C7C7C7"/>
</g>
<g id="Rectangle-path_198">
<path d="M 0 0L 1.23 0L 1.23 56.88L 0 56.88L 0 0Z" transform="translate(407.29 226.43)" fill="#C7C7C7"/>
</g>
<g id="Rectangle-path_199">
<path d="M 0 0L 7.95 0L 7.95 40.98L 0 40.98L 0 0Z" transform="translate(419.84 261.08)" fill="#C7C7C7"/>
</g>
<g id="Rectangle-path_200">
<path d="M 0 0L 1.23 0L 1.23 56.88L 0 56.88L 0 0Z" transform="translate(423.2 253.13)" fill="#C7C7C7"/>
</g>
</g>
<g id="Group Copy 7" style="mix-blend-mode:color-dodge">
<g id="Rectangle-path_201">
<path d="M 0 0L 7.95 0L 7.95 40.98L 0 40.98L 0 0Z" transform="translate(23 168.1)" fill="#C7C7C7"/>
</g>
<g id="Rectangle-path_202">
<path d="M 0 0L 1.23 0L 1.23 56.88L 0 56.88L 0 0Z" transform="translate(26.3601 160.15)" fill="#C7C7C7"/>
</g>
<g id="Rectangle-path_203">
<path d="M 0 0L 7.95 0L 7.95 20.49L 0 20.49L 0 0Z" transform="translate(38.9099 144.51)" fill="#C7C7C7"/>
</g>
<g id="Rectangle-path_204">
<path d="M 0 0L 1.23 0L 1.23 56.88L 0 56.88L 0 0Z" transform="translate(42.27 136.55)" fill="#C7C7C7"/>
</g>
<g id="Rectangle-path Copy 77">
<path d="M 0 0L 7.95 0L 7.95 40.98L 0 40.98L 0 0Z" transform="translate(-7 168.1)" fill="#C7C7C7"/>
</g>
<g id="Rectangle-path Copy 65">
<path d="M 0 0L 7.95 0L 7.95 20.49L 0 20.49L 0 0Z" transform="translate(8.90991 144.51)" fill="#C7C7C7"/>
</g>
<g id="Rectangle-path Copy 64">
<path d="M 0 0L 1.23 0L 1.23 56.88L 0 56.88L 0 0Z" transform="translate(12.27 136.55)" fill="#C7C7C7"/>
</g>
<g id="Rectangle-path_205">
<path d="M 0 0L 7.95 0L 7.95 40.98L 0 40.98L 0 0Z" transform="translate(54.8101 166.68)" fill="#C7C7C7"/>
</g>
<g id="Rectangle-path_206">
<path d="M 0 0L 1.23 0L 1.23 56.88L 0 56.88L 0 0Z" transform="translate(58.1699 158.73)" fill="#C7C7C7"/>
</g>
<g id="Rectangle-path_207">
<path d="M 0 0L 7.95 0L 7.95 40.98L 0 40.98L 0 0Z" transform="translate(70.71 193.44)" fill="#C7C7C7"/>
</g>
<g id="Rectangle-path_208">
<path d="M 0 0L 1.23 0L 1.23 56.88L 0 56.88L 0 0Z" transform="translate(74.0701 185.49)" fill="#C7C7C7"/>
</g>
<g id="Rectangle-path_209">
<path d="M 0 0L 7.95 0L 7.95 40.98L 0 40.98L 0 0Z" transform="translate(86.6101 217.03)" fill="#C7C7C7"/>
</g>
<g id="Rectangle-path_210">
<path d="M 0 0L 1.23 0L 1.23 56.88L 0 56.88L 0 0Z" transform="translate(89.97 209.08)" fill="#C7C7C7"/>
</g>
<g id="Rectangle-path_211">
<path d="M 0 0L 7.95 0L 7.95 19.7L 0 19.7L 0 0Z" transform="translate(102.52 227.71)" fill="#C7C7C7"/>
</g>
<g id="Rectangle-path_212">
<path d="M 0 0L 1.23 0L 1.23 27.34L 0 27.34L 0 0Z" transform="translate(105.88 223.89)" fill="#C7C7C7"/>
</g>
<g id="Rectangle-path_213">
<path d="M 0 0L 7.95 0L 7.95 31.16L 0 31.16L 0 0Z" transform="translate(118.42 194.64)" fill="#C7C7C7"/>
</g>
<g id="Rectangle-path_214">
<path d="M 0 0L 1.23 0L 1.23 43.25L 0 43.25L 0 0Z" transform="translate(121.78 188.59)" fill="#C7C7C7"/>
</g>
<g id="Rectangle-path_215">
<path d="M 0 0L 7.95 0L 7.95 35.25L 0 35.25L 0 0Z" transform="translate(134.32 169.75)" fill="#C7C7C7"/>
</g>
<g id="Rectangle-path_216">
<path d="M 0 0L 1.23 0L 1.23 48.93L 0 48.93L 0 0Z" transform="translate(137.68 162.91)" fill="#C7C7C7"/>
</g>
<g id="Rectangle-path_217">
<path d="M 0 0L 7.95 0L 7.95 29.35L 0 29.35L 0 0Z" transform="translate(150.23 141.88)" fill="#C7C7C7"/>
</g>
<g id="Rectangle-path_218">
<path d="M 0 0L 1.23 0L 1.23 56.88L 0 56.88L 0 0Z" transform="translate(153.59 133.93)" fill="#C7C7C7"/>
</g>
<g id="Rectangle-path_219">
<path d="M 0 0L 7.95 0L 7.95 40.98L 0 40.98L 0 0Z" transform="translate(166.13 165)" fill="#C7C7C7"/>
</g>
<g id="Rectangle-path_220">
<path d="M 0 0L 1.23 0L 1.23 56.88L 0 56.88L 0 0Z" transform="translate(169.49 157.05)" fill="#C7C7C7"/>
</g>
<g id="Rectangle-path_221">
<path d="M 0 0L 7.95 0L 7.95 40.98L 0 40.98L 0 0Z" transform="translate(182.03 191.35)" fill="#C7C7C7"/>
</g>
<g id="Rectangle-path_222">
<path d="M 0 0L 1.23 0L 1.23 56.88L 0 56.88L 0 0Z" transform="translate(185.39 183.4)" fill="#C7C7C7"/>
</g>
<g id="Rectangle-path_223">
<path d="M 0 0L 7.95 0L 7.95 40.98L 0 40.98L 0 0Z" transform="translate(197.93 204.38)" fill="#C7C7C7"/>
</g>
<g id="Rectangle-path_224">
<path d="M 0 0L 1.23 0L 1.23 56.88L 0 56.88L 0 0Z" transform="translate(201.29 196.43)" fill="#C7C7C7"/>
</g>
<g id="Rectangle-path_225">
<path d="M 0 0L 7.95 0L 7.95 40.98L 0 40.98L 0 0Z" transform="translate(213.84 231.08)" fill="#C7C7C7"/>
</g>
<g id="Rectangle-path_226">
<path d="M 0 0L 1.23 0L 1.23 56.88L 0 56.88L 0 0Z" transform="translate(217.2 223.13)" fill="#C7C7C7"/>
</g>
</g>
</g>
<g id="Rectangle-path_227">
<path d="M 0 0L 29 0L 29 31L 0 31L 0 0Z" transform="translate(1003 465)" fill="#00ABBA"/>
</g>
<g id="Rectangle-path_228">
<path d="M 0 0L 29 0L 29 31L 0 31L 0 0Z" transform="translate(1089 465)" fill="#00ABBA"/>
</g>
</g>
</g>
</g>
<defs>
<filter id="filter0_iii" x="906.062" y="13.3945" width="9.60756" height="11.5962" filterUnits="userSpaceOnUse" color-interpolation-filters="sRGB">
<feFlood flood-opacity="0" result="BackgroundImageFix"/>
<feBlend mode="normal" in="SourceGraphic" in2="BackgroundImageFix" result="shape"/>
<feColorMatrix in="SourceAlpha" type="matrix" values="0 0 0 0 0 0 0 0 0 0 0 0 0 0 0 0 0 0 255 0" result="hardAlpha"/>
<feOffset/>
<feGaussianBlur stdDeviation="2"/>
<feComposite in2="hardAlpha" operator="arithmetic" k2="-1" k3="1"/>
<feColorMatrix type="matrix" values="0 0 0 0 1 0 0 0 0 1 0 0 0 0 1 0 0 0 0.048998 0"/>
<feBlend mode="normal" in2="shape" result="effect1_innerShadow"/>
<feColorMatrix in="SourceAlpha" type="matrix" values="0 0 0 0 0 0 0 0 0 0 0 0 0 0 0 0 0 0 255 0" result="hardAlpha"/>
<feOffset dy="1"/>
<feGaussianBlur stdDeviation="0.5"/>
<feComposite in2="hardAlpha" operator="arithmetic" k2="-1" k3="1"/>
<feColorMatrix type="matrix" values="0 0 0 0 0.992214 0 0 0 0 0.992214 0 0 0 0 0.992214 0 0 0 0.160128 0"/>
<feBlend mode="normal" in2="effect1_innerShadow" result="effect2_innerShadow"/>
<feColorMatrix in="SourceAlpha" type="matrix" values="0 0 0 0 0 0 0 0 0 0 0 0 0 0 0 0 0 0 255 0" result="hardAlpha"/>
<feOffset dy="-1"/>
<feGaussianBlur stdDeviation="0.5"/>
<feComposite in2="hardAlpha" operator="arithmetic" k2="-1" k3="1"/>
<feColorMatrix type="matrix" values="0 0 0 0 1 0 0 0 0 1 0 0 0 0 1 0 0 0 0.438208 0"/>
<feBlend mode="normal" in2="effect2_innerShadow" result="effect3_innerShadow"/>
</filter>
<filter id="filter1_iii" x="924.676" y="13.3945" width="9.60756" height="11.5962" filterUnits="userSpaceOnUse" color-interpolation-filters="sRGB">
<feFlood flood-opacity="0" result="BackgroundImageFix"/>
<feBlend mode="normal" in="SourceGraphic" in2="BackgroundImageFix" result="shape"/>
<feColorMatrix in="SourceAlpha" type="matrix" values="0 0 0 0 0 0 0 0 0 0 0 0 0 0 0 0 0 0 255 0" result="hardAlpha"/>
<feOffset/>
<feGaussianBlur stdDeviation="2"/>
<feComposite in2="hardAlpha" operator="arithmetic" k2="-1" k3="1"/>
<feColorMatrix type="matrix" values="0 0 0 0 1 0 0 0 0 1 0 0 0 0 1 0 0 0 0.048998 0"/>
<feBlend mode="normal" in2="shape" result="effect1_innerShadow"/>
<feColorMatrix in="SourceAlpha" type="matrix" values="0 0 0 0 0 0 0 0 0 0 0 0 0 0 0 0 0 0 255 0" result="hardAlpha"/>
<feOffset dy="1"/>
<feGaussianBlur stdDeviation="0.5"/>
<feComposite in2="hardAlpha" operator="arithmetic" k2="-1" k3="1"/>
<feColorMatrix type="matrix" values="0 0 0 0 0.992214 0 0 0 0 0.992214 0 0 0 0 0.992214 0 0 0 0.160128 0"/>
<feBlend mode="normal" in2="effect1_innerShadow" result="effect2_innerShadow"/>
<feColorMatrix in="SourceAlpha" type="matrix" values="0 0 0 0 0 0 0 0 0 0 0 0 0 0 0 0 0 0 255 0" result="hardAlpha"/>
<feOffset dy="-1"/>
<feGaussianBlur stdDeviation="0.5"/>
<feComposite in2="hardAlpha" operator="arithmetic" k2="-1" k3="1"/>
<feColorMatrix type="matrix" values="0 0 0 0 1 0 0 0 0 1 0 0 0 0 1 0 0 0 0.438208 0"/>
<feBlend mode="normal" in2="effect2_innerShadow" result="effect3_innerShadow"/>
</filter>
<filter id="filter2_iii" x="975.716" y="15.1934" width="6.00473" height="7.99765" filterUnits="userSpaceOnUse" color-interpolation-filters="sRGB">
<feFlood flood-opacity="0" result="BackgroundImageFix"/>
<feBlend mode="normal" in="SourceGraphic" in2="BackgroundImageFix" result="shape"/>
<feColorMatrix in="SourceAlpha" type="matrix" values="0 0 0 0 0 0 0 0 0 0 0 0 0 0 0 0 0 0 255 0" result="hardAlpha"/>
<feOffset/>
<feGaussianBlur stdDeviation="2"/>
<feComposite in2="hardAlpha" operator="arithmetic" k2="-1" k3="1"/>
<feColorMatrix type="matrix" values="0 0 0 0 1 0 0 0 0 1 0 0 0 0 1 0 0 0 0.048998 0"/>
<feBlend mode="normal" in2="shape" result="effect1_innerShadow"/>
<feColorMatrix in="SourceAlpha" type="matrix" values="0 0 0 0 0 0 0 0 0 0 0 0 0 0 0 0 0 0 255 0" result="hardAlpha"/>
<feOffset dy="1"/>
<feGaussianBlur stdDeviation="0.5"/>
<feComposite in2="hardAlpha" operator="arithmetic" k2="-1" k3="1"/>
<feColorMatrix type="matrix" values="0 0 0 0 0.992214 0 0 0 0 0.992214 0 0 0 0 0.992214 0 0 0 0.160128 0"/>
<feBlend mode="normal" in2="effect1_innerShadow" result="effect2_innerShadow"/>
<feColorMatrix in="SourceAlpha" type="matrix" values="0 0 0 0 0 0 0 0 0 0 0 0 0 0 0 0 0 0 255 0" result="hardAlpha"/>
<feOffset dy="-1"/>
<feGaussianBlur stdDeviation="0.5"/>
<feComposite in2="hardAlpha" operator="arithmetic" k2="-1" k3="1"/>
<feColorMatrix type="matrix" values="0 0 0 0 1 0 0 0 0 1 0 0 0 0 1 0 0 0 0.438208 0"/>
<feBlend mode="normal" in2="effect2_innerShadow" result="effect3_innerShadow"/>
</filter>
<filter id="filter3_iii" x="993.13" y="13.3945" width="9.60756" height="11.5962" filterUnits="userSpaceOnUse" color-interpolation-filters="sRGB">
<feFlood flood-opacity="0" result="BackgroundImageFix"/>
<feBlend mode="normal" in="SourceGraphic" in2="BackgroundImageFix" result="shape"/>
<feColorMatrix in="SourceAlpha" type="matrix" values="0 0 0 0 0 0 0 0 0 0 0 0 0 0 0 0 0 0 255 0" result="hardAlpha"/>
<feOffset/>
<feGaussianBlur stdDeviation="2"/>
<feComposite in2="hardAlpha" operator="arithmetic" k2="-1" k3="1"/>
<feColorMatrix type="matrix" values="0 0 0 0 1 0 0 0 0 1 0 0 0 0 1 0 0 0 0.048998 0"/>
<feBlend mode="normal" in2="shape" result="effect1_innerShadow"/>
<feColorMatrix in="SourceAlpha" type="matrix" values="0 0 0 0 0 0 0 0 0 0 0 0 0 0 0 0 0 0 255 0" result="hardAlpha"/>
<feOffset dy="1"/>
<feGaussianBlur stdDeviation="0.5"/>
<feComposite in2="hardAlpha" operator="arithmetic" k2="-1" k3="1"/>
<feColorMatrix type="matrix" values="0 0 0 0 0.992214 0 0 0 0 0.992214 0 0 0 0 0.992214 0 0 0 0.160128 0"/>
<feBlend mode="normal" in2="effect1_innerShadow" result="effect2_innerShadow"/>
<feColorMatrix in="SourceAlpha" type="matrix" values="0 0 0 0 0 0 0 0 0 0 0 0 0 0 0 0 0 0 255 0" result="hardAlpha"/>
<feOffset dy="-1"/>
<feGaussianBlur stdDeviation="0.5"/>
<feComposite in2="hardAlpha" operator="arithmetic" k2="-1" k3="1"/>
<feColorMatrix type="matrix" values="0 0 0 0 1 0 0 0 0 1 0 0 0 0 1 0 0 0 0.438208 0"/>
<feBlend mode="normal" in2="effect2_innerShadow" result="effect3_innerShadow"/>
</filter>

<linearGradient id="paint0_linear" x2="1" gradientUnits="userSpaceOnUse" gradientTransform="matrix(0 12.5951 -234.785 0 117.392 0)">
<stop stop-color="#454545"/>
<stop offset="0.226279" stop-color="#999999"/>
<stop offset="1" stop-color="white"/>
</linearGradient>
<linearGradient id="paint1_linear" x2="1" gradientUnits="userSpaceOnUse" gradientTransform="matrix(0 11.3305 -233.26 0 116.63 0)">
<stop stop-color="#454545"/>
<stop offset="0.226279" stop-color="#999999"/>
<stop offset="1" stop-color="white"/>
</linearGradient>
<linearGradient id="paint2_linear" x2="1" gradientUnits="userSpaceOnUse" gradientTransform="matrix(0 -7.4762 162.227 0 115.027 2.85316)">
<stop stop-color="white" stop-opacity="0.01"/>
<stop offset="1" stop-color="white" stop-opacity="0.55"/>
</linearGradient>
<linearGradient id="paint3_linear" x2="1" gradientUnits="userSpaceOnUse" gradientTransform="translate(13.2104 240.506) scale(-9.2397 -336.432)">
<stop/>
<stop offset="0.222178" stop-color="#BABABA"/>
<stop offset="0.54678" stop-color="#000108"/>
<stop offset="1" stop-color="#060606"/>
</linearGradient>
<linearGradient id="paint4_linear" x2="1" gradientUnits="userSpaceOnUse" gradientTransform="translate(13.2104 240.506) scale(-9.2397 -336.432)">
<stop/>
<stop offset="0.222178" stop-color="#BABABA"/>
<stop offset="0.54678" stop-color="#000108"/>
<stop offset="1" stop-color="#060606"/>
</linearGradient>
<linearGradient id="paint5_linear" x2="1" gradientUnits="userSpaceOnUse" gradientTransform="translate(13.8109 241.149) scale(-13.8109 -482.298)">
<stop stop-color="white" stop-opacity="0.01"/>
<stop offset="1" stop-color="white" stop-opacity="0.55"/>
</linearGradient>
<linearGradient id="paint6_linear" x2="1" gradientUnits="userSpaceOnUse" gradientTransform="translate(13.8109 241.113) scale(-13.8109 -482.226)">
<stop stop-color="white" stop-opacity="0.01"/>
<stop offset="1" stop-color="white" stop-opacity="0.55"/>
</linearGradient>

</defs>
</svg>

