<svg xmlns="http://www.w3.org/2000/svg" xmlns:xlink="http://www.w3.org/1999/xlink" width="115" height="25" viewBox="0 0 115 25"><defs><path id="b4zla" d="M84.29 51.59h-2.41v4h2.36c.63.05 1.26-.13 1.76-.51.4-.37.6-.9.57-1.45a2 2 0 0 0-.57-1.5c-.47-.4-1.09-.6-1.71-.54z"/><path id="b4zlb" d="M107.29 51.6h-1.81V61h1.81c.89.05 1.74-.32 2.32-1 .58-.74.87-1.66.83-2.6v-2.24a3.9 3.9 0 0 0-.83-2.58 2.88 2.88 0 0 0-2.32-.99z"/><path id="b4zlc" d="M66.64 61.28a5.18 5.18 0 0 1-1.9 1.44 7.43 7.43 0 0 1-3.26.63 5.42 5.42 0 0 1-5.69-5.56v-2.91a5.27 5.27 0 0 1 5.46-5.57c1.38-.1 2.75.34 3.83 1.22a4.25 4.25 0 0 1 1.36 3.2v.06h-2.61c0-.66-.24-1.3-.69-1.79a2.74 2.74 0 0 0-3.84.34c-.54.72-.81 1.6-.77 2.5v2.87c-.04.91.24 1.8.79 2.53a2.65 2.65 0 0 0 2.16 1A5 5 0 0 0 63 61c.32-.1.62-.27.88-.49V58h-2.4v-1.9h5.16zM50.93 46v20.6H71.5V46z"/><path id="b4zld" d="M90.05 63.13h-2.83a1.58 1.58 0 0 1-.49-1 9 9 0 0 1-.11-1.33v-1a2.19 2.19 0 0 0-.56-1.59 2.1 2.1 0 0 0-1.57-.57h-2.61v5.47h-2.75V49.47h5.16c1.32-.09 2.64.3 3.71 1.07a3.6 3.6 0 0 1 1.32 3 3 3 0 0 1-.55 1.82c-.42.55-.99.97-1.63 1.23.71.17 1.33.6 1.74 1.2.38.62.56 1.34.53 2.06v1c0 .4.06.8.16 1.2.07.36.26.68.53.92zM90.47 46H74.3v20.6h20.58V51.21A5.82 5.82 0 0 1 90.47 46z"/><path id="b4zle" d="M113.19 57.43a5.54 5.54 0 0 1-1.62 4.11 5.66 5.66 0 0 1-4.13 1.59h-4.7V49.47h4.7a5.54 5.54 0 0 1 5.75 5.71zM102.09 46a5.82 5.82 0 0 1-4.41 5.19V66.6h20.57V46z"/><path id="b4zlf" d="M136.05 63.27h-9.36V49.59H136v2.11h-6.6v3.44h5.66v2.11h-5.66v3.9h6.6zm-15-17.13v20.57h20.58V46.14z"/><path id="b4zlg" d="M157.3 63.27l-2.64-4.94-2.66 4.94h-3.21l4.17-6.9-4.06-6.78h3.17l2.53 4.85 2.56-4.85h3.2l-4.06 6.78 4.29 6.9zm-12.87-17.13v20.57H165V46.14z"/><path id="b4zlh" d="M93.22 45.6a3.06 3.06 0 1 1 6.12 0 3.06 3.06 0 0 1-6.12 0z"/></defs><g><g transform="translate(-50 -42)"><g><use fill="#fff" xlink:href="#b4zla"/></g><g><use fill="#fff" xlink:href="#b4zlb"/></g><g><use fill="#fff" xlink:href="#b4zlc"/></g><g><use fill="#fff" xlink:href="#b4zld"/></g><g><use fill="#fff" xlink:href="#b4zle"/></g><g><use fill="#fff" xlink:href="#b4zlf"/></g><g><use fill="#fff" xlink:href="#b4zlg"/></g><g><use fill="#fff" xlink:href="#b4zlh"/></g></g></g></svg>