<svg width="600" height="842" viewBox="0 0 600 842" version="1.1" xmlns="http://www.w3.org/2000/svg" xmlns:xlink="http://www.w3.org/1999/xlink">
<g id="Canvas" fill="none">
<g id="Group 48">
<g id="Shape">
<path d="M 0 463L 600 463L 600 0L 0 395.882L 0 463Z" transform="translate(0 379)" fill="url(#paint0_linear)"/>
</g>
<g id="Shape_2">
<path d="M 150 0L 0 86.9867L 0 261L 150 174.023L 150 0Z" transform="translate(150 261)" fill="url(#paint1_linear)"/>
</g>
<g id="Shape_3">
<path d="M 150 86.995L 0 174L 0 0L 150 86.995Z" transform="translate(300 87)" fill="url(#paint2_linear)"/>
</g>
<g id="Group 2">
<g id="Shape_4">
<path d="M 148.12 85.52L 0 0L 0 2.24L 146.17 86.64L 148.12 85.52Z" transform="translate(2 263)" fill="white"/>
</g>
<g id="Shape_5">
<path d="M 137.63 79.46L 0 0L 0 2.24L 135.69 80.58L 137.63 79.46Z" transform="translate(2 275)" fill="white"/>
</g>
<g id="Shape_6">
<path d="M 127.15 73.41L 0 0L 0 2.25L 125.2 74.53L 127.15 73.41Z" transform="translate(2 287)" fill="white"/>
</g>
<g id="Shape_7">
<path d="M 116.66 67.35L 0 0L 0 2.24L 114.72 68.48L 116.66 67.35Z" transform="translate(2 299)" fill="white"/>
</g>
<g id="Shape_8">
<path d="M 106.17 61.3L 0 0L 0 2.24L 104.23 62.42L 106.17 61.3Z" transform="translate(2 311)" fill="white"/>
</g>
<g id="Shape_9">
<path d="M 95.69 55.25L 0 0L 0 2.25L 93.75 56.37L 95.69 55.25Z" transform="translate(2 323)" fill="white"/>
</g>
<g id="Shape_10">
<path d="M 85.2 49.19L 0 0L 0 2.24L 83.26 50.31L 85.2 49.19Z" transform="translate(2 336)" fill="white"/>
</g>
<g id="Shape_11">
<path d="M 74.72 43.13L 0 0L 0 2.24L 72.77 44.26L 74.72 43.13Z" transform="translate(2 348)" fill="white"/>
</g>
<g id="Shape_12">
<path d="M 64.23 37.09L 0 0L 0 2.25L 62.29 38.21L 64.23 37.09Z" transform="translate(2 360)" fill="white"/>
</g>
<g id="Shape_13">
<path d="M 53.75 31.03L 0 0L 0 2.24L 51.8 32.15L 53.75 31.03Z" transform="translate(2 372)" fill="white"/>
</g>
<g id="Shape_14">
<path d="M 43.26 24.97L 0 0L 0 2.24L 41.32 26.09L 43.26 24.97Z" transform="translate(2 384)" fill="white"/>
</g>
<g id="Shape_15">
<path d="M 32.77 18.92L 0 0L 0 2.24L 30.83 20.04L 32.77 18.92Z" transform="translate(2 396)" fill="white"/>
</g>
<g id="Shape_16">
<path d="M 22.29 12.87L 0 0L 0 2.24L 20.35 13.99L 22.29 12.87Z" transform="translate(2 408)" fill="white"/>
</g>
<g id="Shape_17">
<path d="M 11.8 6.82L 0 0L 0 2.25L 9.86 7.94L 11.8 6.82Z" transform="translate(2 420)" fill="white"/>
</g>
<g id="Shape_18">
<path d="M 0 0L 0 1.52L 1.32 0.76L 0 0Z" transform="translate(2 432)" fill="white"/>
</g>
</g>
<g id="Shape Copy">
<path d="M 150 86.995L 0 174L 0 0L 150 86.995Z" transform="translate(600 435) scale(-1 1)" fill="url(#paint3_linear)"/>
</g>
<g id="Shape Copy 4">
<path d="M 150 86.995L 0 174L 0 0L 150 86.995Z" transform="translate(150 348) scale(-1 1)" fill="url(#paint4_linear)"/>
</g>
<g id="Shape Copy 5">
<path d="M 0 174L 0 0L 150 86.995L 0 174Z" transform="translate(150 522)" fill="#EFF8FB"/>
</g>
<g id="Shape Copy 9">
<path fill-rule="evenodd" clip-rule="evenodd" d="M 150 86.995L 0 174L 0 0L 150 86.995Z" transform="translate(150 522) scale(-1 1)" fill="#4A7E90"/>
</g>
<g id="Combined Shape">
<path fill-rule="evenodd" clip-rule="evenodd" d="M 150 174L 0 86.9951L 150 0L 300 86.9951L 150 174Z" transform="translate(150 435)" fill="#4A7E90"/>
</g>
<g id="Shape Copy 6">
<path d="M 150 86.995L 0 174L 0 0L 150 86.995Z" transform="translate(0 435)" fill="url(#paint5_linear)"/>
</g>
<g id="Shape Copy 7">
<path d="M 150 86.995L 0 174L 0 0L 150 86.995Z" transform="translate(0 609)" fill="url(#paint6_linear)"/>
</g>
<g id="Shape_19">
<path d="M 150 86.99L 150 87.01L 0 174L 0 0L 150 86.99Z" transform="translate(450 0)" fill="url(#paint7_linear)"/>
</g>
<g id="Shape_20">
<path d="M 150 0L 150 174L 0 87L 150 0Z" transform="translate(300 0)" fill="url(#paint8_linear)"/>
</g>
</g>
</g>
<defs>

<linearGradient id="paint0_linear" x2="1" gradientUnits="userSpaceOnUse" gradientTransform="translate(405546 330758) scale(361344 278837)">
<stop stop-color="#7ED7E7"/>
<stop offset="0.33" stop-color="#99D2E3"/>
<stop offset="0.63" stop-color="#8ECADB"/>
<stop offset="0.91" stop-color="#7CBDCF"/>
<stop offset="1" stop-color="#74B7CA"/>
</linearGradient>
<linearGradient id="paint1_linear" x2="1" gradientUnits="userSpaceOnUse" gradientTransform="matrix(0 156.836 -90.1358 0 75 51.241)">
<stop stop-color="#9CD5E5"/>
<stop offset="0.33" stop-color="#99D2E3"/>
<stop offset="0.63" stop-color="#8ECADB"/>
<stop offset="0.91" stop-color="#7CBDCF"/>
<stop offset="1" stop-color="#74B7CA"/>
</linearGradient>
<linearGradient id="paint2_linear" x2="1" gradientUnits="userSpaceOnUse" gradientTransform="translate(146577 44147.3) scale(22581 26194)">
<stop stop-color="#5FA69B"/>
<stop offset="0.34" stop-color="#61A7AE"/>
<stop offset="1" stop-color="#66A8DE"/>
</linearGradient>
<linearGradient id="paint3_linear" x2="1" gradientUnits="userSpaceOnUse" gradientTransform="matrix(0 -27217.1 23463 0 180448 118828)">
<stop stop-color="#41B9CD"/>
<stop offset="0.33" stop-color="#99D2E3"/>
<stop offset="0.63" stop-color="#8ECADB"/>
<stop offset="0.91" stop-color="#7CBDCF"/>
<stop offset="1" stop-color="#74B7CA"/>
</linearGradient>
<linearGradient id="paint4_linear" x2="1" gradientUnits="userSpaceOnUse" gradientTransform="matrix(0 -27217.1 23463 0 180448 118828)">
<stop stop-color="#41B9CD"/>
<stop offset="0.33" stop-color="#99D2E3"/>
<stop offset="0.63" stop-color="#8ECADB"/>
<stop offset="0.91" stop-color="#7CBDCF"/>
<stop offset="1" stop-color="#74B7CA"/>
</linearGradient>
<linearGradient id="paint5_linear" x2="1" gradientUnits="userSpaceOnUse" gradientTransform="translate(101397 134728) scale(22765.5 26408)">
<stop stop-color="#7ED7E7"/>
<stop offset="0.33" stop-color="#99D2E3"/>
<stop offset="0.63" stop-color="#8ECADB"/>
<stop offset="0.91" stop-color="#7CBDCF"/>
<stop offset="1" stop-color="#74B7CA"/>
</linearGradient>
<linearGradient id="paint6_linear" x2="1" gradientUnits="userSpaceOnUse" gradientTransform="translate(101397 134728) scale(22765.5 26408)">
<stop stop-color="#7ED7E7"/>
<stop offset="0.33" stop-color="#99D2E3"/>
<stop offset="0.63" stop-color="#8ECADB"/>
<stop offset="0.91" stop-color="#7CBDCF"/>
<stop offset="1" stop-color="#74B7CA"/>
</linearGradient>
<linearGradient id="paint7_linear" x2="1" gradientUnits="userSpaceOnUse" gradientTransform="matrix(0 -164.579 141.879 0 75 158.953)">
<stop stop-color="#5FA69B"/>
<stop offset="0.34" stop-color="#61A7AE"/>
<stop offset="1" stop-color="#66A8DE"/>
</linearGradient>
<linearGradient id="paint8_linear" x2="1" gradientUnits="userSpaceOnUse" gradientTransform="matrix(0 -31344.4 27021 0 157868 44368.3)">
<stop stop-color="#487B8D"/>
<stop offset="0.43" stop-color="#4A7E90"/>
<stop offset="0.81" stop-color="#52899B"/>
<stop offset="1" stop-color="#5891A4"/>
</linearGradient>

</defs>
</svg>

