<svg width="332" height="274" viewBox="0 0 332 274" version="1.1" xmlns="http://www.w3.org/2000/svg" xmlns:xlink="http://www.w3.org/1999/xlink">
<title>Group 29</title>
<desc>Created using Figma</desc>
<g id="Canvas" transform="translate(-2018 -804)">
<g id="Group 29">
<g id="Group" opacity="0.5">
<g id="Shape">
<use xlink:href="#path0_fill" transform="translate(2195 804)" fill="#FFFFFF"/>
</g>
<g id="Shape">
<use xlink:href="#path1_fill" transform="translate(2195 819.6)" fill="#FFFFFF"/>
</g>
<g id="Shape">
<use xlink:href="#path2_fill" transform="translate(2195 834.2)" fill="#FFFFFF"/>
</g>
<g id="Shape">
<use xlink:href="#path3_fill" transform="translate(2195 849.8)" fill="#FFFFFF"/>
</g>
<g id="Shape">
<use xlink:href="#path4_fill" transform="translate(2195 865.01)" fill="#FFFFFF"/>
</g>
<g id="Shape">
<use xlink:href="#path5_fill" transform="translate(2195 879.61)" fill="#FFFFFF"/>
</g>
<g id="Shape">
<use xlink:href="#path6_fill" transform="translate(2195 892.21)" fill="#FFFFFF"/>
</g>
<g id="Shape">
<use xlink:href="#path7_fill" transform="translate(2195 904.81)" fill="#FFFFFF"/>
</g>
<g id="Shape">
<use xlink:href="#path8_fill" transform="translate(2195 917.41)" fill="#FFFFFF"/>
</g>
<g id="Shape">
<use xlink:href="#path9_fill" transform="translate(2195 930.01)" fill="#FFFFFF"/>
</g>
<g id="Shape">
<use xlink:href="#path10_fill" transform="translate(2195 942.61)" fill="#FFFFFF"/>
</g>
<g id="Shape">
<use xlink:href="#path11_fill" transform="translate(2195 955.21)" fill="#FFFFFF"/>
</g>
<g id="Shape">
<use xlink:href="#path12_fill" transform="translate(2195 967.82)" fill="#FFFFFF"/>
</g>
<g id="Shape">
<use xlink:href="#path13_fill" transform="translate(2195 980.42)" fill="#FFFFFF"/>
</g>
</g>
<g id="Group" opacity="0.5">
<g id="Shape">
<use xlink:href="#path0_fill" transform="translate(2110 846)" fill="#FFFFFF"/>
</g>
<g id="Shape">
<use xlink:href="#path1_fill" transform="translate(2110 861.6)" fill="#FFFFFF"/>
</g>
<g id="Shape">
<use xlink:href="#path2_fill" transform="translate(2110 876.2)" fill="#FFFFFF"/>
</g>
<g id="Shape">
<use xlink:href="#path3_fill" transform="translate(2110 891.8)" fill="#FFFFFF"/>
</g>
<g id="Shape">
<use xlink:href="#path4_fill" transform="translate(2110 907.01)" fill="#FFFFFF"/>
</g>
<g id="Shape">
<use xlink:href="#path5_fill" transform="translate(2110 921.61)" fill="#FFFFFF"/>
</g>
<g id="Shape">
<use xlink:href="#path6_fill" transform="translate(2110 934.21)" fill="#FFFFFF"/>
</g>
<g id="Shape">
<use xlink:href="#path7_fill" transform="translate(2110 946.81)" fill="#FFFFFF"/>
</g>
<g id="Shape">
<use xlink:href="#path8_fill" transform="translate(2110 959.41)" fill="#FFFFFF"/>
</g>
<g id="Shape">
<use xlink:href="#path9_fill" transform="translate(2110 972.01)" fill="#FFFFFF"/>
</g>
<g id="Shape">
<use xlink:href="#path10_fill" transform="translate(2110 984.61)" fill="#FFFFFF"/>
</g>
<g id="Shape">
<use xlink:href="#path11_fill" transform="translate(2110 997.21)" fill="#FFFFFF"/>
</g>
<g id="Shape">
<use xlink:href="#path12_fill" transform="translate(2110 1009.82)" fill="#FFFFFF"/>
</g>
<g id="Shape">
<use xlink:href="#path13_fill" transform="translate(2110 1022.42)" fill="#FFFFFF"/>
</g>
</g>
<g id="Group" opacity="0.5">
<g id="Shape">
<use xlink:href="#path0_fill" transform="translate(2018 900)" fill="#FFFFFF"/>
</g>
<g id="Shape">
<use xlink:href="#path1_fill" transform="translate(2018 915.6)" fill="#FFFFFF"/>
</g>
<g id="Shape">
<use xlink:href="#path2_fill" transform="translate(2018 930.2)" fill="#FFFFFF"/>
</g>
<g id="Shape">
<use xlink:href="#path3_fill" transform="translate(2018 945.8)" fill="#FFFFFF"/>
</g>
<g id="Shape">
<use xlink:href="#path4_fill" transform="translate(2018 961.01)" fill="#FFFFFF"/>
</g>
<g id="Shape">
<use xlink:href="#path5_fill" transform="translate(2018 975.61)" fill="#FFFFFF"/>
</g>
<g id="Shape">
<use xlink:href="#path6_fill" transform="translate(2018 988.21)" fill="#FFFFFF"/>
</g>
<g id="Shape">
<use xlink:href="#path7_fill" transform="translate(2018 1000.81)" fill="#FFFFFF"/>
</g>
<g id="Shape">
<use xlink:href="#path8_fill" transform="translate(2018 1013.41)" fill="#FFFFFF"/>
</g>
<g id="Shape">
<use xlink:href="#path9_fill" transform="translate(2018 1026.01)" fill="#FFFFFF"/>
</g>
<g id="Shape">
<use xlink:href="#path10_fill" transform="translate(2018 1038.61)" fill="#FFFFFF"/>
</g>
<g id="Shape">
<use xlink:href="#path11_fill" transform="translate(2018 1051.21)" fill="#FFFFFF"/>
</g>
<g id="Shape">
<use xlink:href="#path14_fill" transform="translate(2018 1063.82)" fill="#FFFFFF"/>
</g>
<g id="Shape">
<use xlink:href="#path13_fill" transform="translate(2018 1076.42)" fill="#FFFFFF"/>
</g>
</g>
</g>
</g>
<defs>
<path id="path0_fill" d="M 154.17 89.01L 0 0L 0 2.33L 152.15 90.18L 154.17 89.01Z"/>
<path id="path1_fill" d="M 143.25 82.71L 0 0L 0 2.33L 141.23 83.88L 143.25 82.71Z"/>
<path id="path2_fill" d="M 132.34 76.41L 0 0L 0 2.34L 130.32 77.58L 132.34 76.41Z"/>
<path id="path3_fill" d="M 121.43 70.11L 0 0L 0 2.34L 119.41 71.28L 121.43 70.11Z"/>
<path id="path4_fill" d="M 99.6 57.5L 0 0L 0 2.33L 97.58 58.67L 99.6 57.5Z"/>
<path id="path5_fill" d="M 88.68 51.2L 0 0L 0 2.33L 86.66 52.37L 88.68 51.2Z"/>
<path id="path6_fill" d="M 77.77 44.9L 0 0L 0 2.33L 75.75 46.07L 77.77 44.9Z"/>
<path id="path7_fill" d="M 66.86 38.6L 0 0L 0 2.33L 64.83 39.77L 66.86 38.6Z"/>
<path id="path8_fill" d="M 55.94 32.3L 0 0L 0 2.34L 53.92 33.47L 55.94 32.3Z"/>
<path id="path9_fill" d="M 45.03 26L 0 0L 0 2.34L 43.01 27.16L 45.03 26Z"/>
<path id="path10_fill" d="M 34.11 19.7L 0 0L 0 2.34L 32.09 20.87L 34.11 19.7Z"/>
<path id="path11_fill" d="M 23.2 13.4L 0 0L 0 2.34L 21.18 14.56L 23.2 13.4Z"/>
<path id="path12_fill" d="M 12.29 7.09L 0 0L 0 2.33L 10.26 8.26L 12.29 7.09Z"/>
<path id="path13_fill" d="M 0 0L 0 1.58L 1.37 0.79L 0 0Z"/>
<path id="path14_fill" d="M 12.28 7.09L 0 0L 0 2.33L 10.26 8.26L 12.28 7.09Z"/>
</defs>
</svg>
