<svg width="45" height="61" viewBox="0 0 45 61" version="1.1" xmlns="http://www.w3.org/2000/svg" xmlns:xlink="http://www.w3.org/1999/xlink">
<title>Group 2</title>
<desc>Created using Figma</desc>
<g id="Canvas" transform="translate(-784 -2059)">
<g id="Group 2">
<g id="Group" style="mix-blend-mode:multiply">
<g id="Shape" opacity="0.01">
<use xlink:href="#path0_fill" transform="translate(784 2069)" fill="#FFFFFF"/>
</g>
<g id="Shape" opacity="0.01">
<use xlink:href="#path1_fill" transform="translate(784.119 2069.12)" fill="#FEFEFE"/>
</g>
<g id="Shape" opacity="0.02">
<use xlink:href="#path2_fill" transform="translate(784.236 2069.24)" fill="#FDFDFD"/>
</g>
<g id="Shape" opacity="0.04">
<use xlink:href="#path3_fill" transform="translate(784.354 2069.35)" fill="#FCFCFC"/>
</g>
<g id="Shape" opacity="0.05">
<use xlink:href="#path4_fill" transform="translate(784.472 2069.41)" fill="#FBFBFB"/>
</g>
<g id="Shape" opacity="0.06">
<use xlink:href="#path5_fill" transform="translate(784.625 2069.57)" fill="#FAFAFA"/>
</g>
<g id="Shape" opacity="0.07">
<use xlink:href="#path6_fill" transform="translate(784.709 2069.69)" fill="#F9F9F9"/>
</g>
<g id="Shape" opacity="0.09">
<use xlink:href="#path7_fill" transform="translate(784.826 2069.78)" fill="#F8F8F8"/>
</g>
<g id="Shape" opacity="0.1">
<use xlink:href="#path8_fill" transform="translate(784.964 2069.92)" fill="#F7F7F7"/>
</g>
<g id="Shape" opacity="0.11">
<use xlink:href="#path9_fill" transform="translate(785.063 2070.04)" fill="#F6F6F6"/>
</g>
<g id="Shape" opacity="0.12">
<use xlink:href="#path10_fill" transform="translate(785.181 2070.16)" fill="#F5F5F5"/>
</g>
<g id="Shape" opacity="0.14">
<use xlink:href="#path11_fill" transform="translate(785.296 2070.26)" fill="#F4F4F4"/>
</g>
<g id="Shape" opacity="0.15">
<use xlink:href="#path12_fill" transform="translate(785.422 2070.38)" fill="#F3F3F3"/>
</g>
<g id="Shape" opacity="0.16">
<use xlink:href="#path13_fill" transform="translate(785.531 2070.49)" fill="#F2F2F2"/>
</g>
<g id="Shape" opacity="0.17">
<use xlink:href="#path14_fill" transform="translate(785.649 2070.64)" fill="#F1F1F1"/>
</g>
<g id="Shape" opacity="0.19">
<use xlink:href="#path15_fill" transform="translate(785.768 2070.72)" fill="#F0F0F0"/>
</g>
<g id="Shape" opacity="0.2">
<use xlink:href="#path16_fill" transform="translate(785.881 2070.83)" fill="#EFEFEF"/>
</g>
<g id="Shape" opacity="0.21">
<use xlink:href="#path17_fill" transform="translate(785.992 2070.95)" fill="#EEEEEE"/>
</g>
<g id="Shape" opacity="0.22">
<use xlink:href="#path18_fill" transform="translate(786.114 2071.06)" fill="#EDEDED"/>
</g>
<g id="Shape" opacity="0.23">
<use xlink:href="#path19_fill" transform="translate(786.229 2071.12)" fill="#ECECEC"/>
</g>
<g id="Shape" opacity="0.25">
<use xlink:href="#path20_fill" transform="translate(786.346 2071.31)" fill="#EBEBEB"/>
</g>
<g id="Shape" opacity="0.26">
<use xlink:href="#path21_fill" transform="translate(786.462 2071.41)" fill="#EAEAEA"/>
</g>
<g id="Shape" opacity="0.27">
<use xlink:href="#path22_fill" transform="translate(786.579 2071.51)" fill="#E9E9E9"/>
</g>
<g id="Shape" opacity="0.28">
<use xlink:href="#path23_fill" transform="translate(786.696 2071.62)" fill="#E8E8E8"/>
</g>
<g id="Shape" opacity="0.3">
<use xlink:href="#path24_fill" transform="translate(786.81 2071.74)" fill="#E7E7E7"/>
</g>
<g id="Shape" opacity="0.31">
<use xlink:href="#path25_fill" transform="translate(786.927 2071.86)" fill="#E6E6E6"/>
</g>
<g id="Shape" opacity="0.32">
<use xlink:href="#path26_fill" transform="translate(787.041 2071.97)" fill="#E5E5E5"/>
</g>
<g id="Shape" opacity="0.33">
<use xlink:href="#path27_fill" transform="translate(787.158 2072.07)" fill="#E4E4E4"/>
</g>
<g id="Shape" opacity="0.35">
<use xlink:href="#path28_fill" transform="translate(787.292 2072.19)" fill="#E3E3E3"/>
</g>
<g id="Shape" opacity="0.36">
<use xlink:href="#path29_fill" transform="translate(787.392 2072.29)" fill="#E2E2E2"/>
</g>
<g id="Shape" opacity="0.37">
<use xlink:href="#path30_fill" transform="translate(787.496 2072.41)" fill="#E2E1E1"/>
</g>
<g id="Shape" opacity="0.38">
<use xlink:href="#path31_fill" transform="translate(787.615 2072.5)" fill="#E1E0E0"/>
</g>
<g id="Shape" opacity="0.4">
<use xlink:href="#path32_fill" transform="translate(787.738 2072.62)" fill="#E0DFDF"/>
</g>
<g id="Shape" opacity="0.41">
<use xlink:href="#path33_fill" transform="translate(787.894 2072.73)" fill="#DFDEDE"/>
</g>
<g id="Shape" opacity="0.42">
<use xlink:href="#path34_fill" transform="translate(787.95 2072.85)" fill="#DEDDDD"/>
</g>
<g id="Shape" opacity="0.43">
<use xlink:href="#path35_fill" transform="translate(788.08 2072.99)" fill="#DDDCDC"/>
</g>
<g id="Shape" opacity="0.44">
<use xlink:href="#path36_fill" transform="translate(788.206 2073.09)" fill="#DCDBDB"/>
</g>
<g id="Shape" opacity="0.46">
<use xlink:href="#path37_fill" transform="translate(788.308 2073.18)" fill="#DBDADA"/>
</g>
<g id="Shape" opacity="0.47">
<use xlink:href="#path38_fill" transform="translate(788.422 2073.26)" fill="#DAD9D9"/>
</g>
<g id="Shape" opacity="0.48">
<use xlink:href="#path39_fill" transform="translate(788.537 2073.4)" fill="#D9D8D8"/>
</g>
<g id="Shape" opacity="0.49">
<use xlink:href="#path40_fill" transform="translate(788.65 2073.5)" fill="#D8D7D7"/>
</g>
<g id="Shape" opacity="0.51">
<use xlink:href="#path41_fill" transform="translate(788.765 2073.61)" fill="#D7D6D6"/>
</g>
<g id="Shape" opacity="0.52">
<use xlink:href="#path42_fill" transform="translate(788.88 2073.72)" fill="#D6D5D5"/>
</g>
<g id="Shape" opacity="0.53">
<use xlink:href="#path43_fill" transform="translate(788.992 2073.84)" fill="#D5D4D4"/>
</g>
<g id="Shape" opacity="0.54">
<use xlink:href="#path44_fill" transform="translate(789.11 2073.91)" fill="#D4D3D3"/>
</g>
<g id="Shape" opacity="0.56">
<use xlink:href="#path45_fill" transform="translate(789.226 2074.04)" fill="#D3D2D2"/>
</g>
<g id="Shape" opacity="0.57">
<use xlink:href="#path46_fill" transform="translate(789.332 2074.15)" fill="#D2D1D1"/>
</g>
<g id="Shape" opacity="0.58">
<use xlink:href="#path47_fill" transform="translate(789.447 2074.26)" fill="#D1D0D0"/>
</g>
<g id="Shape" opacity="0.59">
<use xlink:href="#path48_fill" transform="translate(789.592 2074.36)" fill="#D0CFCF"/>
</g>
<g id="Shape" opacity="0.6">
<use xlink:href="#path49_fill" transform="translate(789.648 2074.47)" fill="#CFCECE"/>
</g>
<g id="Shape" opacity="0.62">
<use xlink:href="#path50_fill" transform="translate(789.79 2074.57)" fill="#CECDCD"/>
</g>
<g id="Shape" opacity="0.63">
<use xlink:href="#path51_fill" transform="translate(789.901 2074.68)" fill="#CDCCCC"/>
</g>
<g id="Shape" opacity="0.64">
<use xlink:href="#path52_fill" transform="translate(790.016 2074.78)" fill="#CCCBCB"/>
</g>
<g id="Shape" opacity="0.65">
<use xlink:href="#path53_fill" transform="translate(790.127 2074.88)" fill="#CBCACA"/>
</g>
<g id="Shape" opacity="0.67">
<use xlink:href="#path54_fill" transform="translate(790.241 2075)" fill="#CAC9C9"/>
</g>
<g id="Shape" opacity="0.68">
<use xlink:href="#path55_fill" transform="translate(790.353 2075.08)" fill="#C9C8C8"/>
</g>
<g id="Shape" opacity="0.69">
<use xlink:href="#path56_fill" transform="translate(790.467 2075.2)" fill="#C8C8C7"/>
</g>
<g id="Shape" opacity="0.7">
<use xlink:href="#path57_fill" transform="translate(790.537 2075.3)" fill="#C7C7C6"/>
</g>
<g id="Shape" opacity="0.72">
<use xlink:href="#path58_fill" transform="translate(790.691 2075.43)" fill="#C6C6C5"/>
</g>
<g id="Shape" opacity="0.73">
<use xlink:href="#path59_fill" transform="translate(790.802 2075.51)" fill="#C5C5C4"/>
</g>
<g id="Shape" opacity="0.74">
<use xlink:href="#path60_fill" transform="translate(790.95 2075.61)" fill="#C4C4C3"/>
</g>
<g id="Shape" opacity="0.75">
<use xlink:href="#path61_fill" transform="translate(791.009 2075.68)" fill="#C3C3C2"/>
</g>
<g id="Shape" opacity="0.77">
<use xlink:href="#path62_fill" transform="translate(791.14 2075.8)" fill="#C2C2C1"/>
</g>
<g id="Shape" opacity="0.78">
<use xlink:href="#path63_fill" transform="translate(791.254 2075.92)" fill="#C1C1C0"/>
</g>
<g id="Shape" opacity="0.79">
<use xlink:href="#path64_fill" transform="translate(791.364 2076.02)" fill="#C0C0BF"/>
</g>
<g id="Shape" opacity="0.8">
<use xlink:href="#path65_fill" transform="translate(791.477 2076.13)" fill="#BFBFBE"/>
</g>
<g id="Shape" opacity="0.81">
<use xlink:href="#path66_fill" transform="translate(791.587 2076.23)" fill="#BEBEBE"/>
</g>
<g id="Shape" opacity="0.83">
<use xlink:href="#path67_fill" transform="translate(791.703 2076.32)" fill="#BDBDBD"/>
</g>
<g id="Shape" opacity="0.84">
<use xlink:href="#path68_fill" transform="translate(791.839 2076.42)" fill="#BCBCBC"/>
</g>
<g id="Shape" opacity="0.85">
<use xlink:href="#path69_fill" transform="translate(791.925 2076.52)" fill="#BBBBBB"/>
</g>
<g id="Shape" opacity="0.86">
<use xlink:href="#path70_fill" transform="translate(792.055 2076.62)" fill="#BABABA"/>
</g>
<g id="Shape" opacity="0.88">
<use xlink:href="#path71_fill" transform="translate(792.148 2076.72)" fill="#B9B9B9"/>
</g>
<g id="Shape" opacity="0.89">
<use xlink:href="#path72_fill" transform="translate(792.257 2076.82)" fill="#B8B8B8"/>
</g>
<g id="Shape" opacity="0.9">
<use xlink:href="#path73_fill" transform="translate(792.371 2076.91)" fill="#B7B7B7"/>
</g>
<g id="Shape" opacity="0.91">
<use xlink:href="#path74_fill" transform="translate(792.472 2077.01)" fill="#B6B6B6"/>
</g>
<g id="Shape" opacity="0.93">
<use xlink:href="#path75_fill" transform="translate(792.624 2077.11)" fill="#B5B5B5"/>
</g>
<g id="Shape" opacity="0.94">
<use xlink:href="#path76_fill" transform="translate(792.679 2077.19)" fill="#B4B4B4"/>
</g>
<g id="Shape" opacity="0.95">
<use xlink:href="#path77_fill" transform="translate(792.8 2077.34)" fill="#B3B3B3"/>
</g>
<g id="Shape" opacity="0.96">
<use xlink:href="#path78_fill" transform="translate(792.922 2077.41)" fill="#B2B2B2"/>
</g>
<g id="Shape" opacity="0.98">
<use xlink:href="#path79_fill" transform="translate(793.039 2077.52)" fill="#B1B1B1"/>
</g>
<g id="Shape" opacity="0.99">
<use xlink:href="#path80_fill" transform="translate(793.16 2077.61)" fill="#B0B0B0"/>
</g>
<g id="Shape">
<use xlink:href="#path81_fill" transform="translate(793.255 2077.68)" fill="#B3B3B3"/>
</g>
</g>
<g id="Shape">
<use xlink:href="#path82_fill" transform="translate(791.609 2059)" fill="#60A8B7"/>
</g>
<g id="Shape">
<use xlink:href="#path83_fill" transform="translate(808.02 2068.69)" fill="#2EFFF1"/>
</g>
<g id="Shape">
<use xlink:href="#path84_fill" transform="translate(791.562 2068.61)" fill="#38A8FF"/>
</g>
</g>
</g>
<defs>
<path id="path0_fill" d="M 31.002 48.7087C 29.0374 51.907 27.297 51.5968 22.8443 48.7914L 4.55046 41.1266C 0.0976783 38.3143 -1.03761 32.4554 0.927052 29.2571L 11.267 1.76854C 13.2385 -1.43663 8.38461 0.169401 12.8374 2.98168L 42.9192 15.5542C 47.3652 18.3596 43.599 31.9247 41.6411 35.1298L 31.002 48.7087Z"/>
<path id="path1_fill" d="M 30.8286 48.3078C 28.8775 51.4923 27.1372 51.1752 22.732 48.3905L 4.55379 40.7532C 0.121399 37.9961 -1.04108 32.151 0.916781 28.9665L 11.2228 1.76738C 13.1738 -1.4171 8.39473 0.147569 12.8203 2.94606L 42.7049 15.4083C 47.1305 18.2068 43.4935 31.6202 41.5425 34.8047L 30.8286 48.3078Z"/>
<path id="path2_fill" d="M 30.6577 47.8985C 28.7134 51.0692 26.9731 50.7452 22.6155 47.9881L 4.55284 40.406C 0.14764 37.6489 -1.04203 31.8658 0.902234 28.6882L 11.1742 1.77168C 13.1185 -1.39902 8.40738 0.124297 12.8058 2.909L 42.4253 15.2747C 46.8305 18.0319 43.3158 31.3212 41.3716 34.4919L 30.6577 47.8985Z"/>
<path id="path3_fill" d="M 30.4844 47.512C 28.547 50.662 26.8134 50.338 22.4966 47.6016L 4.55633 40.0195C 0.171534 37.2623 -1.04533 31.5482 0.892137 28.3982L 11.0893 1.77116C 13.0268 -1.37886 8.37009 0.103093 12.7617 2.86712L 42.1433 15.1295C 46.5213 17.8866 43.1358 31.0243 41.2051 34.1743L 30.4844 47.512Z"/>
<path id="path4_fill" d="M 30.3122 47.1439C 28.3884 50.2801 26.648 49.9493 22.3856 47.2404L 4.56089 39.6583C 0.203279 36.9011 -1.04758 31.249 0.876295 28.1128L 11.0735 1.77527C 12.9974 -1.36097 8.41543 0.0796289 12.773 2.83676L 41.9235 14.9888C 46.2811 17.746 43.018 30.7251 41.0941 33.8614L 30.3122 47.1439Z"/>
<path id="path5_fill" d="M 30.1054 46.7192C 28.1883 49.8416 26.448 49.4763 22.2331 46.8226L 4.55797 39.2887C 0.227553 36.5316 -1.0505 30.9484 0.866578 27.8328L 11.0638 1.77794C 12.9809 -1.34451 8.4669 0.0616239 12.7973 2.79808L 41.7234 14.8536C 46.0538 17.6108 42.9131 30.4245 41.0028 33.5401L 30.1054 46.7192Z"/>
<path id="path6_fill" d="M 29.9664 46.3281C 28.0629 49.4299 26.3226 49.0853 22.1485 46.4246L 4.56174 38.9252C 0.251715 36.1681 -1.05353 30.6538 0.856749 27.5452L 10.986 1.77976C 12.8895 -1.32201 8.44347 0.0358764 12.7535 2.75854L 41.4349 14.7107C 45.7449 17.4334 42.7265 30.1231 40.823 33.2249L 29.9664 46.3281Z"/>
<path id="path7_fill" d="M 29.7958 45.9583C 27.8992 49.0394 26.1588 48.7155 22.0324 46.0617L 4.56794 38.583C 0.278311 35.881 -1.05412 30.3737 0.842557 27.2857L 10.9378 1.7822C 12.8345 -1.30578 8.44968 0.0176389 12.7393 2.72652L 41.1963 14.5753C 45.4791 17.2842 42.5559 29.8222 40.6933 32.9102L 29.7958 45.9583Z"/>
<path id="path8_fill" d="M 29.6232 45.531C 27.7401 48.5984 25.9998 48.2399 21.9141 45.6344L 4.56526 38.1902C 0.302828 35.4951 -1.0568 30.0429 0.833083 26.9755L 10.8875 1.78226C 12.7774 -1.28505 8.4606 -0.00298717 12.723 2.68522L 40.9489 14.403C 45.2113 17.0981 42.4445 29.4914 40.5614 32.5587L 29.6232 45.531Z"/>
<path id="path9_fill" d="M 29.4499 45.136C 27.5736 48.1895 25.8333 47.8242 21.802 45.2463L 4.5687 37.8227C 0.32666 35.1483 -1.05336 29.7443 0.816126 26.6908L 10.8434 1.78696C 12.7197 -1.26656 8.47083 -0.0258525 12.7129 2.65546L 40.7008 14.2974C 44.9429 16.9719 42.2984 29.2204 40.4221 32.2739L 29.4499 45.136Z"/>
<path id="path10_fill" d="M 29.2773 44.7296C 27.4146 47.7624 25.6675 47.3971 21.6837 44.8399L 4.57283 37.437C 0.351181 34.7695 -1.05603 29.4206 0.806657 26.4085L 10.7931 1.78727C 12.6558 -1.24557 8.48176 -0.0462227 12.6966 2.61441L 40.4534 14.153C 44.6751 16.8205 42.153 28.9174 40.2903 31.9572L 29.2773 44.7296Z"/>
<path id="path11_fill" d="M 29.1073 44.3422C 27.2514 47.3612 25.5111 46.989 21.5682 44.4594L 4.57285 37.0909C 0.378395 34.4441 -1.05601 29.1366 0.793082 26.1244L 10.7524 1.79274C 12.6015 -1.22632 8.49538 -0.0683241 12.683 2.57852L 40.2155 14.0206C 44.4032 16.6675 42.0102 28.6265 40.1543 31.6387L 29.1073 44.3422Z"/>
<path id="path12_fill" d="M 28.9269 43.9425C 27.0846 46.9477 25.3375 46.5686 21.4489 44.0596L 4.57596 36.7257C 0.408701 34.0926 -1.0597 28.8334 0.782599 25.835L 10.7011 1.79282C 12.5434 -1.20556 8.49849 -0.0889258 12.6725 2.54413L 39.9671 13.8759C 44.1343 16.509 41.857 28.3509 40.0147 31.3217L 28.9269 43.9425Z"/>
<path id="path13_fill" d="M 28.7638 43.55C 26.9283 46.5346 25.188 46.1486 21.3335 43.6741L 4.58286 36.3608C 0.435994 33.7415 -1.0596 28.5374 0.769103 25.5597L 10.6604 1.80015C 12.4891 -1.18444 8.51219 -0.109163 12.6591 2.48943L 39.7224 13.7247C 43.8693 16.3371 41.7143 28.0067 39.8856 30.9568L 28.7638 43.55Z"/>
<path id="path14_fill" d="M 28.5917 43.1548C 26.7698 46.1188 25.0227 45.7259 21.2226 43.2789L 4.58071 35.9863C 0.461038 33.3877 -1.06175 28.2319 0.760157 25.2679L 10.5835 1.79786C 12.4054 -1.16606 8.49644 -0.132132 12.6229 2.48714L 39.4552 13.6191C 43.5816 16.2246 41.549 27.7425 39.7271 30.7064L 28.5917 43.1548Z"/>
<path id="path15_fill" d="M 28.4187 42.7622C 26.6036 45.7123 24.8565 45.3125 21.1039 42.8863L 4.58442 35.6281C 0.505537 33.0364 -1.06483 27.9357 0.743471 24.9925L 10.56 1.805C 12.3751 -1.14513 8.52054 -0.152566 12.6334 2.43914L 39.2277 13.4677C 43.3066 16.0525 41.4235 27.4256 39.6152 30.3758L 28.4187 42.7622Z"/>
<path id="path16_fill" d="M 28.2445 42.3636C 26.4498 45.293 24.7027 44.8932 20.9909 42.4945L 4.58699 35.2571C 0.508103 32.686 -1.06227 27.6336 0.73924 24.7041L 10.5218 1.80617C 12.3233 -1.12328 8.5503 -0.172072 12.6224 2.39895L 38.9924 13.3241C 43.0713 15.8951 41.2833 27.1097 39.4818 30.0599L 28.2445 42.3636Z"/>
<path id="path17_fill" d="M 28.0784 41.9702C 26.2905 44.8859 24.5434 44.4792 20.8792 42.1012L 4.59767 34.8982C 0.518789 32.3409 -1.05838 27.316 0.729531 24.4211L 10.4781 1.81258C 12.2728 -1.10309 8.56099 -0.193232 12.6127 2.36401L 38.7515 13.2133C 42.8304 15.7775 41.1445 26.8542 39.3566 29.7561L 28.0784 41.9702Z"/>
<path id="path18_fill" d="M 27.9021 41.5742C 26.121 44.4761 24.3807 44.0625 20.7572 41.7121L 4.59806 34.5297C 0.566765 31.9863 -1.06479 27.0372 0.716324 24.1422L 10.4309 1.81636C 12.2052 -1.08552 8.56818 -0.210127 12.5995 2.33333L 38.5004 13.0517C 42.5249 15.5951 40.9953 26.5272 39.1802 29.429L 27.9021 41.5742Z"/>
<path id="path19_fill" d="M 27.7331 41.2311C 25.9655 44.1123 24.2184 43.6987 20.6426 41.3689L 4.59898 34.2211C 0.594874 31.6914 -1.06387 26.7906 0.703644 23.8818L 10.3842 1.82476C 12.1517 -1.05645 8.58269 -0.243091 12.5868 2.30036L 38.2566 12.9153C 42.2607 15.445 40.8535 26.2392 39.0791 29.1204L 27.7331 41.2311Z"/>
<path id="path20_fill" d="M 27.5613 40.7597C 25.8006 43.6271 24.0535 43.1997 20.5321 40.9044L 4.60401 33.7772C 0.620299 31.2613 -1.06564 26.4157 0.695078 23.5483L 10.3348 1.82206C 12.0956 -1.04536 8.59452 -0.245789 12.5714 2.2632L 38.0101 12.7748C 41.9938 15.2906 40.7293 25.9332 38.9482 28.7937L 27.5613 40.7597Z"/>
<path id="path21_fill" d="M 27.3913 40.3826C 25.6442 43.2293 23.8971 42.7951 20.4164 40.5273L 4.61077 33.4277C 0.654251 30.9256 -1.06568 26.1282 0.681443 23.2815L 10.294 1.81718C 12.0411 -1.02955 8.60128 -0.250664 12.5646 2.21697L 37.7653 12.6251C 41.7286 15.1272 40.5661 25.625 38.8122 28.4786L 27.3913 40.3826Z"/>
<path id="path22_fill" d="M 27.2199 39.9992C 25.4796 42.8252 23.7325 42.391 20.2994 40.1439L 4.60932 33.0719C 0.679992 30.5905 -1.06713 25.8413 0.673194 23.0084L 10.245 1.83359C 11.9853 -0.99936 8.61342 -0.289399 12.5495 2.19202L 37.5259 12.5313C 41.4552 15.0127 40.4151 25.3657 38.6816 28.1987L 27.2199 39.9992Z"/>
<path id="path23_fill" d="M 27.0485 39.6034C 25.3218 42.4157 23.5746 41.9746 20.1824 39.7551L 4.61462 32.7106C 0.705686 30.2361 -1.06863 25.5421 0.664897 22.7298L 10.1823 1.83763C 11.909 -0.974642 8.60513 -0.31293 12.5141 2.1616L 37.2593 12.363C 41.1682 14.8306 40.2505 25.0389 38.5237 27.8512L 27.0485 39.6034Z"/>
<path id="path24_fill" d="M 26.8799 39.209C 25.16 42.0075 23.4128 41.5595 20.0817 39.3606L 4.62277 32.3437C 0.734235 29.8899 -1.06727 25.2441 0.652657 22.4456L 10.1701 1.84297C 11.89 -0.955517 8.65407 -0.328269 12.5426 2.12558L 37.0159 12.2305C 40.9044 14.6843 40.1091 24.741 38.3755 27.5394L 26.8799 39.209Z"/>
<path id="path25_fill" d="M 26.7087 38.806C 25.0024 41.5632 23.2485 41.1358 19.9582 38.9646L 4.62157 31.9752C 0.760221 29.5283 -1.06848 24.9376 0.644653 22.1529L 10.1077 1.83977C 11.8208 -0.917357 8.65286 -0.359038 12.5142 2.08102L 36.7904 12.0825C 40.6585 14.5226 39.9855 24.4345 38.2792 27.2467L 26.7087 38.806Z"/>
<path id="path26_fill" d="M 26.5404 38.3823C 24.8408 41.1395 23.0937 40.6845 19.8442 38.5409L 4.62995 31.5791C 0.788997 29.1528 -1.06689 24.6036 0.63264 21.8464L 10.0685 1.85034C 11.7612 -0.906787 8.66124 -0.369147 12.5022 2.05713L 36.5472 11.9552C 40.3882 14.3746 39.8443 24.1486 38.1448 26.9127L 26.5404 38.3823Z"/>
<path id="path27_fill" d="M 26.3693 38.0308C 24.6833 40.7879 22.9294 40.3123 19.7275 38.1962L 4.6356 31.2551C 0.815046 28.8495 -1.06804 24.3623 0.624698 21.6052L 10.0197 1.86412C 11.7057 -0.89301 8.6601 -0.38294 12.4943 2.02955L 36.2877 11.8243C 40.1015 14.2368 39.6868 23.8591 37.9941 26.6025L 26.3693 38.0308Z"/>
<path id="path28_fill" d="M 26.1808 37.6211C 24.5017 40.3783 22.7818 39.882 19.5934 37.7935L 4.63752 30.9006C 0.844157 28.5019 -1.06612 24.056 0.61302 21.3265L 9.98086 1.87492C 11.6532 -0.882213 8.68921 -0.392822 12.4826 2.00588L 36.0653 11.6903C 39.8587 14.089 39.5596 23.5667 37.8804 26.2962L 26.1808 37.6211Z"/>
<path id="path29_fill" d="M 26.0265 37.2467C 24.361 39.9556 22.6274 39.48 19.4935 37.4122L 4.63956 30.5193C 0.873391 28.1413 -1.06408 23.7437 0.601466 21.0348L 9.92851 1.87272C 11.5941 -0.843054 8.69805 -0.422592 12.4642 1.96233L 35.8158 11.5503C 39.5888 13.9283 39.4121 23.2681 37.7465 25.9769L 26.0265 37.2467Z"/>
<path id="path30_fill" d="M 25.8675 36.8507C 24.2087 39.5458 22.4684 39.0633 19.3957 37.023L 4.65729 30.1647C 0.911517 27.8004 -1.05315 23.4511 0.578408 20.756L 9.87147 1.8765C 11.5302 -0.818596 8.69539 -0.43949 12.448 1.92475L 35.5616 11.4093C 39.3074 13.7804 39.2598 22.9617 37.6011 25.6568L 25.8675 36.8507Z"/>
<path id="path31_fill" d="M 25.6939 36.4747C 24.0488 39.156 22.2949 38.6666 19.2765 36.647L 4.6537 29.8162C 0.935115 27.4657 -1.05674 23.1715 0.574814 20.4971L 9.83388 1.88645C 11.479 -0.79486 8.71219 -0.457111 12.4376 1.88645L 35.3201 11.2676C 39.0455 13.618 39.1203 22.6545 37.4751 25.3359L 25.6939 36.4747Z"/>
<path id="path32_fill" d="M 25.4902 36.0675C 23.8518 38.7281 22.0911 38.2387 19.1271 36.2467L 4.65385 29.4573C 0.955661 27.1206 -1.06339 22.8746 0.574965 20.214L 9.79324 1.88596C 11.4316 -0.774669 8.73273 -0.478277 12.4309 1.88596L 35.0823 11.1637C 38.7873 13.5004 38.9777 22.3921 37.3461 25.0597L 25.4902 36.0675Z"/>
<path id="path33_fill" d="M 25.334 35.6736C 23.7092 38.3205 21.9349 37.8173 19.0321 35.8528L 4.65401 29.0772C 0.976216 26.7543 -1.07002 22.5635 0.575126 19.9166L 9.69823 1.89877C 11.323 -0.748081 8.69211 -0.493046 12.3699 1.82984L 34.8038 11.0111C 38.4748 13.334 38.7943 22.0741 37.1695 24.7209L 25.334 35.6736Z"/>
<path id="path34_fill" d="M 25.1892 35.2777C 23.5781 37.9108 21.7902 37.4007 18.9417 35.4638L 4.66565 28.7158C 1.01505 26.4067 -1.05838 22.2641 0.552777 19.6379L 9.70987 1.90265C 11.321 -0.723516 8.76493 -0.509838 12.4291 1.79926L 34.6183 10.8702C 38.2689 13.1793 38.6971 21.7816 37.0996 24.4077L 25.1892 35.2777Z"/>
<path id="path35_fill" d="M 25.0053 34.8536C 23.4009 37.466 21.647 36.9215 18.8122 35.0466L 4.67202 28.3192C 1.04181 26.0308 -1.05881 21.9364 0.54555 19.3585L 9.66186 1.91277C 11.2662 -0.699608 8.7713 -0.527287 12.3811 1.76803L 34.3391 10.7287C 37.9693 13.0171 38.5336 21.4746 36.9292 24.087L 25.0053 34.8536Z"/>
<path id="path36_fill" d="M 24.8245 34.5004C 23.2337 37.0921 21.4798 36.5682 18.7061 34.6865L 4.68157 27.9936C 1.07176 25.712 -1.05606 21.6728 0.534702 19.0811L 9.62382 1.91799C 11.2146 -0.673716 8.78765 -0.542752 12.3975 1.73188L 34.1515 10.603C 37.7613 12.8776 38.4479 21.1903 36.8708 23.782L 24.8245 34.5004Z"/>
<path id="path37_fill" d="M 24.6679 34.1077C 23.084 36.6857 21.33 36.1756 18.5904 34.3007L 4.68139 27.6285C 1.09877 25.3676 -1.05624 21.3767 0.527728 18.7988L 9.57605 1.92512C 11.16 -0.652797 8.80106 -0.556298 12.3837 1.70455L 33.8726 10.4722C 37.4552 12.7331 38.271 20.8942 36.687 23.4721L 24.6679 34.1077Z"/>
<path id="path38_fill" d="M 24.5001 33.737C 22.9298 36.2942 21.1759 35.8048 18.477 33.93L 4.69036 27.2922C 1.13493 25.0382 -1.05407 21.0886 0.516303 18.5383L 9.53744 1.93347C 11.1078 -0.623771 8.81683 -0.575521 12.3723 1.67154L 33.6436 10.3565C 37.1991 12.6036 38.1372 20.6199 36.5668 23.1841L 24.5001 33.737Z"/>
<path id="path39_fill" d="M 24.3301 33.3241C 22.7665 35.8675 21.0126 35.3368 18.3613 33.524L 4.69708 26.9069C 1.16205 24.6736 -1.05414 20.786 0.509429 18.2426L 9.48977 1.94104C 11.0533 -0.602416 8.80996 -0.58863 12.3654 1.64465L 33.392 10.2055C 36.9271 12.4319 37.9876 20.3035 36.424 22.847L 24.3301 33.3241Z"/>
<path id="path40_fill" d="M 24.1634 32.9357C 22.6135 35.4654 20.8528 34.9208 18.2491 33.1356L 4.70037 26.5461C 1.19253 24.3335 -1.05086 20.4942 0.499118 17.9645L 9.44547 1.95245C 11.0022 -0.577223 8.84044 -0.604794 12.3551 1.6147L 33.1506 10.0722C 36.6652 12.2917 37.8481 20.0117 36.2913 22.5413L 24.1634 32.9357Z"/>
<path id="path41_fill" d="M 23.9936 32.5425C 22.4504 35.0515 20.6965 34.5069 18.1404 32.7493L 4.70726 26.1873C 1.21981 23.9816 -1.05077 20.1974 0.492411 17.6815L 9.40477 1.95898C 10.948 -0.550012 8.85412 -0.61894 12.3416 1.57987L 32.9059 9.93398C 36.3934 12.1397 37.7054 19.7149 36.1623 22.2308L 23.9936 32.5425Z"/>
<path id="path42_fill" d="M 23.8238 32.1536C 22.2942 34.6489 20.5335 34.0974 18.025 32.3673L 4.71422 25.826C 1.24717 23.641 -1.0506 19.8982 0.485776 17.4099L 9.39134 1.96995C 10.9209 -0.525257 8.90187 -0.635543 12.3689 1.55638L 32.6954 9.82777C 36.1624 12.0128 37.5968 19.4777 36.0604 21.9385L 23.8238 32.1536Z"/>
<path id="path43_fill" d="M 23.6574 31.7472C 22.1347 34.2286 20.3807 33.6703 17.913 31.9609L 4.71782 25.4816C 1.27796 23.3035 -1.04701 19.6158 0.475776 17.1413L 9.31336 1.97705C 10.8293 -0.497475 8.87828 -0.649117 12.3181 1.52212L 32.427 9.62809C 35.8669 11.8062 37.4169 19.0919 35.9009 21.5665L 23.6574 31.7472Z"/>
<path id="path44_fill" d="M 23.4856 31.4013C 21.9765 33.8552 20.2157 33.2968 17.7956 31.615L 4.72278 25.1288C 1.32371 22.9714 -1.04884 19.332 0.467141 16.8574L 9.27073 1.98961C 10.7799 -0.471134 8.89004 -0.664134 12.3095 1.49332L 32.1805 9.55793C 35.5795 11.7154 37.2723 18.8564 35.7631 21.3171L 23.4856 31.4013Z"/>
<path id="path45_fill" d="M 23.3216 30.9875C 21.8192 33.4275 20.0653 32.8623 17.6859 31.2012L 4.73549 24.7495C 1.33642 22.6058 -1.04293 19.0146 0.459457 16.5746L 9.22906 1.99623C 10.7314 -0.443828 8.90955 -0.678184 12.3018 1.46549L 31.9348 9.4267C 35.3339 11.5704 37.1286 18.5666 35.633 21.0067L 23.3216 30.9875Z"/>
<path id="path46_fill" d="M 23.155 30.6008C 21.6662 33.0271 19.9055 32.4481 17.5805 30.8214L 4.73885 24.3904C 1.33978 22.2605 -1.03957 18.7245 0.456018 16.2982L 9.19163 2.00938C 10.6804 -0.416899 8.9265 -0.692612 12.2984 1.43727L 31.7003 9.28131C 35.0993 11.4112 36.996 18.242 35.5072 20.6821L 23.155 30.6008Z"/>
<path id="path47_fill" d="M 22.9855 30.2082C 21.5035 32.6138 19.7428 32.0348 17.4654 30.4288L 4.74612 24.0323C 1.40144 21.9162 -1.0391 18.4284 0.442898 16.0228L 9.14452 2.01656C 10.6265 -0.389035 8.94057 -0.706105 12.2853 1.40999L 31.456 9.14375C 34.8075 11.2598 36.8537 17.9597 35.3717 20.3722L 22.9855 30.2082Z"/>
<path id="path48_fill" d="M 22.7864 29.825C 21.318 32.2169 19.5573 31.631 17.3479 30.0525L 4.75095 23.6766C 1.42666 21.6088 -1.03427 18.1624 0.434132 15.7499L 9.10176 2.03315C 10.5702 -0.358662 8.9522 -0.723982 12.2697 1.38522L 31.2093 9.02248C 34.5336 11.0903 36.709 17.673 35.2406 20.051L 22.7864 29.825Z"/>
<path id="path49_fill" d="M 22.6751 29.4257C 21.2135 31.8037 19.4528 31.2109 17.2366 29.66L 4.75522 23.3117C 1.45812 21.2439 -1.03 17.8388 0.424804 15.4608L 9.05844 2.03358C 10.52 -0.337558 8.96327 -0.723556 12.2672 1.34429L 30.9756 8.87816C 34.2727 10.946 36.5705 17.377 35.1089 19.7482L 22.6751 29.4257Z"/>
<path id="path50_fill" d="M 22.4788 29.0448C 21.024 31.409 19.2701 30.8093 17.1219 29.2791L 4.76285 22.9584C 1.48615 20.8905 -1.02916 17.5544 0.418839 15.1971L 9.01169 2.05244C 10.4597 -0.304905 9.01169 -0.746046 12.2544 1.3287L 30.7317 8.75917C 34.0085 10.827 36.4286 17.0926 34.9806 19.4499L 22.4788 29.0448Z"/>
<path id="path51_fill" d="M 22.3065 28.6615C 20.8721 30.9982 19.1114 30.3985 17.0107 28.8959L 4.77408 22.6027C 1.51777 20.5349 -1.02474 17.2608 0.40967 14.9172L 8.97533 2.06207C 10.4097 -0.274599 8.97533 -0.757097 12.2452 1.29697L 30.4914 8.62404C 33.7478 10.6919 36.2903 16.7989 34.8491 19.1425L 22.3065 28.6615Z"/>
<path id="path52_fill" d="M 22.1376 28.2768C 20.71 30.5996 18.9492 29.9931 16.903 28.5111L 4.77512 22.2455C 1.546 20.1777 -1.0237 16.9725 0.403913 14.6634L 8.93558 2.07711C 10.3632 -0.245774 9.01716 -0.769629 12.2463 1.27065L 30.2546 8.49433C 33.4837 10.5622 36.1553 16.5107 34.7277 18.8336L 22.1376 28.2768Z"/>
<path id="path53_fill" d="M 21.9723 27.8881C 20.5582 30.1972 18.7975 29.5768 16.7921 28.1293L 4.78656 21.8913C 1.57783 19.8648 -1.01906 16.6803 0.394956 14.3712L 8.89263 2.08822C 10.3066 -0.220881 9.0218 -0.779201 12.2305 1.24729L 30.0077 8.36758C 33.2164 10.3941 36.0036 16.2185 34.5896 18.5276L 21.9723 27.8881Z"/>
<path id="path54_fill" d="M 21.8034 27.495C 20.3962 29.7834 18.6355 29.163 16.6776 27.7362L 4.7945 21.5327C 1.60617 19.52 -1.01791 16.3906 0.389304 14.0953L 8.84619 2.10179C 10.2534 -0.186631 9.03654 -0.7932 12.2453 1.21951L 29.7845 8.22951C 32.966 10.2422 35.9028 15.9219 34.4684 18.2172L 21.8034 27.495Z"/>
<path id="path55_fill" d="M 21.6378 27.1358C 20.2782 29.4105 18.4835 28.7832 16.5664 27.384L 4.79881 21.1804C 1.64447 19.1884 -1.0136 16.1073 0.38002 13.8327L 8.80292 2.11486C 10.2033 -0.159769 9.05445 -0.800802 12.202 1.19123L 29.5168 8.08405C 32.678 10.0761 35.71 15.611 34.3163 17.8857L 21.6378 27.1358Z"/>
<path id="path56_fill" d="M 21.4692 26.7283C 20.1095 28.9891 18.3216 28.355 16.4521 26.9764L 4.80692 20.8211C 1.67297 18.836 -1.01229 15.81 0.37453 13.5492L 8.76344 2.12775C 10.1231 -0.126206 9.06935 -0.815489 12.2033 1.16965L 29.287 7.97976C 32.421 9.9649 35.5821 15.3482 34.1953 17.6297L 21.4692 26.7283Z"/>
<path id="path57_fill" d="M 21.3315 26.3422C 19.9718 28.5824 18.1907 27.9482 16.3756 26.5972L 4.81879 20.4626C 1.70524 18.4981 -1.00722 15.5136 0.366005 13.2803L 8.72092 2.14146C 10.0805 -0.0987046 9.08802 -0.822452 12.1948 1.142L 29.0474 7.85562C 32.1609 9.82008 35.4444 15.0655 34.0712 17.3057L 21.3315 26.3422Z"/>
<path id="path58_fill" d="M 21.1358 25.956C 19.7762 28.1823 18.0087 27.5413 16.2344 26.2179L 4.82029 20.1108C 1.73393 18.1602 -1.00572 15.2238 0.360706 13.0043L 8.68163 2.15501C 10.0413 -0.0644788 9.09632 -0.836476 12.1895 1.12109L 28.8041 7.72442C 31.8973 9.67509 35.3032 14.7758 33.9367 16.9953L 21.1358 25.956Z"/>
<path id="path59_fill" d="M 20.9711 25.5774C 19.6115 27.7831 17.8508 27.1283 16.1241 25.8325L 4.83236 19.753C 1.7664 17.8161 -1.00044 14.928 0.352387 12.7292L 8.63932 2.16938C 9.99895 -0.0363257 9.11519 -0.842787 12.1812 1.0941L 28.5647 7.60093C 31.6306 9.53092 35.1657 14.4938 33.8128 16.6926L 20.9711 25.5774Z"/>
<path id="path60_fill" d="M 20.7688 25.1935C 19.4092 27.3785 17.6621 26.7237 16.0101 25.4554L 4.84076 19.4035C 1.7952 17.4804 -0.998837 14.6474 0.347194 12.4624L 8.59334 2.1852C 9.95297 0.000172555 9.13039 -0.854538 12.1692 1.06856L 28.3283 7.472C 31.3671 9.3951 35.0245 14.1994 33.6785 16.3913L 20.7688 25.1935Z"/>
<path id="path61_fill" d="M 20.6549 24.8416C 19.2953 27.0128 17.555 26.3511 15.8962 25.1035L 4.84247 19.0792C 1.82409 17.1698 -0.997133 14.392 0.3421 12.1863L 8.55425 2.19862C 9.91388 0.0273833 9.14569 -0.861792 12.1641 1.04752L 28.0853 7.34757C 31.1037 9.24999 34.8834 13.9095 33.5238 16.0808L 20.6549 24.8416Z"/>
<path id="path62_fill" d="M 20.4702 24.4377C 19.1105 26.5951 17.377 25.9265 15.793 24.7065L 4.85483 18.696C 1.85685 16.8004 -0.991569 14.0709 0.334068 11.9134L 8.49184 2.2152C 9.85147 0.0646344 9.17165 -0.87279 12.1356 1.02274L 27.8257 7.22628C 30.8237 9.11492 34.7259 13.6297 33.4002 15.7872L 20.4702 24.4377Z"/>
<path id="path63_fill" d="M 20.3015 24.0398C 18.9895 26.1766 17.222 25.508 15.6788 24.3087L 4.86294 18.3395C 1.89216 16.4646 -0.990255 13.7833 0.328585 11.6465L 8.48635 2.23094C 9.79839 0.0941585 9.16617 -0.877731 12.1573 0.997119L 27.6163 7.09038C 30.5871 8.97212 34.6116 13.3353 33.2996 15.479L 20.3015 24.0398Z"/>
<path id="path64_fill" d="M 20.1374 23.6574C 18.8321 25.7804 17.0646 25.1049 15.569 23.9331L 4.86875 17.9915C 1.92516 16.1236 -0.984445 13.4974 0.320798 11.3744L 8.43098 2.24829C 9.73622 0.125298 9.19237 -0.887948 12.1428 0.980009L 27.3638 6.96988C 30.3142 8.83094 34.4611 13.0562 33.1626 15.1723L 20.1374 23.6574Z"/>
<path id="path65_fill" d="M 19.9694 23.2638C 18.6709 25.373 16.9102 24.6906 15.4554 23.5464L 4.87751 17.6254C 1.95431 15.7782 -0.982484 13.2003 0.315961 11.0979L 8.38535 2.25444C 9.6838 0.186589 9.20793 -0.902478 12.1311 0.9448L 27.1278 6.83128C 30.051 8.67855 34.3203 12.7591 33.0286 14.8614L 19.9694 23.2638Z"/>
<path id="path66_fill" d="M 19.8054 22.8893C 18.5206 24.9571 16.753 24.2678 15.3458 23.165L 4.89028 17.2785C 1.98748 15.445 -0.976511 12.9154 0.308337 10.8268L 8.35054 2.27283C 9.62859 0.204983 9.2275 -0.904763 12.1235 0.92873L 26.8891 6.71181C 29.7919 8.54531 34.1835 12.4742 32.9054 14.5627L 19.8054 22.8893Z"/>
<path id="path67_fill" d="M 19.6353 22.518C 18.3572 24.5858 16.5897 23.8966 15.2301 22.8006L 4.89008 16.9348C 2.01447 15.1151 -0.969913 12.6406 0.30134 10.5658L 8.30275 2.29444C 9.574 0.226589 9.2341 -0.910728 12.1165 0.915872L 26.6441 6.59556C 29.5197 8.41527 34.0405 12.1994 32.7625 14.2673L 19.6353 22.518Z"/>
<path id="path68_fill" d="M 19.4375 22.1339C 18.1798 24.2017 16.4123 23.5124 15.1003 22.4165L 4.90307 16.5783C 2.04785 14.7792 -0.963726 12.353 0.29393 10.2989L 8.26815 2.317C 9.5258 0.249148 9.25388 -0.908847 12.1091 0.890181L 26.3852 6.47337C 29.2404 8.2724 33.8631 11.9118 32.6191 13.9659L 19.4375 22.1339Z"/>
<path id="path69_fill" d="M 19.297 21.7482C 18.0461 23.816 16.2786 23.0785 15.0142 22.0377L 4.91212 16.227C 2.07729 14.4349 -0.961474 12.0913 0.289384 10.0235L 8.22281 2.33106C 9.47367 0.297678 9.26973 -0.922353 12.0978 0.869782L 26.1631 6.34269C 28.9979 8.13482 33.7634 11.6226 32.5126 13.6629L 19.297 21.7482Z"/>
<path id="path70_fill" d="M 19.1334 21.3665C 17.8962 23.3861 16.1287 22.6761 14.905 21.656L 4.91852 15.8729C 2.11089 14.1015 -0.955069 11.7786 0.282193 9.75209L 8.18163 2.34919C 9.42569 0.329589 9.28973 -0.924906 12.0974 0.846551L 25.9248 6.22296C 28.7392 7.99442 33.6271 11.3374 32.383 13.357L 19.1334 21.3665Z"/>
<path id="path71_fill" d="M 18.9659 20.9868C 17.7354 22.9926 15.9679 22.2757 14.7918 21.2831L 4.92771 15.5276C 2.14047 13.77 -0.952682 11.4953 0.277781 9.48951L 8.16362 2.36922C 9.39409 0.370301 9.3261 -0.932444 12.1065 0.825228L 25.7028 6.09824C 28.4833 7.85591 33.5003 11.0542 32.2698 13.06L 18.9659 20.9868Z"/>
<path id="path72_fill" d="M 18.8021 20.6037C 17.5852 22.5957 15.8109 21.8651 14.6824 20.907L 4.94067 15.1722C 2.18063 13.4283 -0.946518 11.2019 0.270349 9.21675L 8.10181 2.38595C 9.32547 0.400817 9.31867 -0.936392 12.0787 0.807494L 25.4507 5.97712C 28.2107 7.71411 33.3501 10.8021 32.1264 12.7597L 18.8021 20.6037Z"/>
<path id="path73_fill" d="M 18.6339 20.2247C 17.4238 22.196 15.6563 21.4654 14.555 20.528L 4.94243 14.8276C 2.22318 13.0975 -0.944757 10.9194 0.265312 8.95492L 8.06278 2.40674C 9.27285 0.442279 9.33403 -0.94318 12.0737 0.78692L 25.2077 5.86694C 27.9269 7.59704 33.2023 10.5058 32.0058 12.4703L 18.6339 20.2247Z"/>
<path id="path74_fill" d="M 18.4787 19.8513C 17.2822 21.802 15.5079 21.0645 14.4746 20.1546L 4.95717 14.4749C 2.23791 12.7586 -0.936818 10.6356 0.259655 8.68496L 8.02313 2.42627C 9.2196 0.475604 9.38276 -0.944319 12.102 0.765103L 25.0185 5.73483C 27.7377 7.44426 33.1151 10.2083 31.9186 12.159L 18.4787 19.8513Z"/>
<path id="path75_fill" d="M 18.2717 19.4585C 17.082 21.3953 15.3145 20.6509 14.322 19.7617L 4.96776 14.1303C 2.2485 12.4278 -0.93303 10.353 0.256645 8.41614L 7.97933 2.44695C 9.16901 0.510061 9.33896 -0.951219 12.0582 0.75131L 24.73 5.57629C 27.4492 7.27193 32.9285 9.8912 31.7388 11.8281L 18.2717 19.4585Z"/>
<path id="path76_fill" d="M 18.1626 19.1035C 16.9865 21.0197 15.2122 20.2753 14.2672 19.4137L 4.99456 13.7891C 2.32969 12.1073 -0.906221 10.0808 0.235866 8.16456L 7.93136 2.47798C 9.10744 0.561773 9.37937 -0.968435 12.0102 0.740987L 24.4508 5.49704C 27.1157 7.18578 32.7446 9.63274 31.5685 11.5765L 18.1626 19.1035Z"/>
<path id="path77_fill" d="M 17.9869 18.6783C 16.8176 20.5807 15.0433 19.8294 14.1459 18.9885L 4.99564 13.3984C 2.35116 11.7234 -0.911945 9.75208 0.236941 7.88412L 7.89165 2.48704C 9.06093 0.584616 9.39404 -0.959378 12.0385 0.715579L 24.2752 5.36824C 26.9196 7.0363 32.6709 9.35919 31.5016 11.2616L 17.9869 18.6783Z"/>
<path id="path78_fill" d="M 17.8112 18.3235C 16.6555 20.2121 14.8812 19.4539 14.0314 18.6405L 4.99671 13.0711C 2.37263 11.4169 -0.917668 9.49375 0.238016 7.61201L 7.86553 2.49753C 9.02121 0.615789 9.4223 -0.948884 12.0396 0.684717L 24.0179 5.23398C 26.6352 6.88826 32.5156 9.0664 31.3599 10.955L 17.8112 18.3235Z"/>
<path id="path79_fill" d="M 17.6399 17.9295C 16.491 19.7974 14.7167 19.0323 13.9145 18.2534L 4.99532 12.7392C 2.39843 11.0918 -0.919063 9.22382 0.236621 7.35587L 7.82335 2.53089C 8.97223 0.662929 9.4413 -0.963779 12.0382 0.676714L 23.7786 5.12948C 26.3755 6.76998 32.3782 8.79647 31.2565 10.6437L 17.6399 17.9295Z"/>
<path id="path80_fill" d="M 17.4638 17.5751C 16.3218 19.4293 14.5542 18.6573 13.7928 17.8991L 4.99605 12.3848C 2.42636 10.7581 -0.925128 8.93839 0.237354 7.08422L 7.78329 2.54874C 8.92538 0.701462 9.46243 -0.966603 12.0321 0.660105L 23.5414 5.00259C 26.1179 6.6293 32.243 8.51793 31.1009 10.3652L 17.4638 17.5751Z"/>
<path id="path81_fill" d="M 17.3143 17.2002C 16.1858 19.0406 14.4115 18.2617 13.6977 17.5311L 5.02324 12.0168C 2.47394 10.4108 -0.904736 8.63933 0.223755 6.80584L 7.7357 2.57364C 8.86419 0.74015 9.46243 -0.969271 12.0117 0.643651L 23.2898 4.88963C 25.8459 6.49566 32.1274 8.23955 30.9649 10.073L 17.3143 17.2002Z"/>
<path id="path82_fill" d="M 32.9642 9.69132L 16.5059 0L 0 9.6086L 16.4583 19.2999L 32.9642 9.69132L 32.9642 9.69132Z"/>
<path id="path83_fill" d="M 0.047587 9.60861L 0 28.9085L 16.5127 19.3068L 16.5535 0L 0.047587 9.60861L 0.047587 9.60861Z"/>
<path id="path84_fill" d="M 0.047587 0L 0 19.2999L 16.4583 28.9912L 16.5059 9.69132L 0.047587 0L 0.047587 0Z"/>
</defs>
</svg>
