<svg width="45" height="61" viewBox="0 0 45 61" version="1.1" xmlns="http://www.w3.org/2000/svg" xmlns:xlink="http://www.w3.org/1999/xlink">
<title>Group 26</title>
<desc>Created using Figma</desc>
<g id="Canvas" transform="translate(-2032 -932)">
<g id="Group 26">
<g id="Group" style="mix-blend-mode:multiply">
<g id="Shape" opacity="0.01">
<use xlink:href="#path0_fill" transform="translate(2032.01 942.358)" fill="#FFFFFF"/>
</g>
<g id="Shape" opacity="0.01">
<use xlink:href="#path1_fill" transform="translate(2032.18 942.476)" fill="#FEFEFE"/>
</g>
<g id="Shape" opacity="0.02">
<use xlink:href="#path2_fill" transform="translate(2032.34 942.587)" fill="#FDFDFD"/>
</g>
<g id="Shape" opacity="0.04">
<use xlink:href="#path3_fill" transform="translate(2032.34 942.7)" fill="#FCFCFC"/>
</g>
<g id="Shape" opacity="0.05">
<use xlink:href="#path4_fill" transform="translate(2032.44 942.794)" fill="#FBFBFB"/>
</g>
<g id="Shape" opacity="0.06">
<use xlink:href="#path5_fill" transform="translate(2032.6 942.927)" fill="#FAFAFA"/>
</g>
<g id="Shape" opacity="0.07">
<use xlink:href="#path6_fill" transform="translate(2032.72 943.065)" fill="#F9F9F9"/>
</g>
<g id="Shape" opacity="0.09">
<use xlink:href="#path7_fill" transform="translate(2032.83 943.172)" fill="#F8F8F8"/>
</g>
<g id="Shape" opacity="0.1">
<use xlink:href="#path8_fill" transform="translate(2032.95 943.25)" fill="#F7F7F7"/>
</g>
<g id="Shape" opacity="0.11">
<use xlink:href="#path9_fill" transform="translate(2033.07 943.361)" fill="#F6F6F6"/>
</g>
<g id="Shape" opacity="0.12">
<use xlink:href="#path10_fill" transform="translate(2033.19 943.493)" fill="#F5F5F5"/>
</g>
<g id="Shape" opacity="0.14">
<use xlink:href="#path11_fill" transform="translate(2033.29 943.594)" fill="#F4F4F4"/>
</g>
<g id="Shape" opacity="0.15">
<use xlink:href="#path12_fill" transform="translate(2033.42 943.702)" fill="#F3F3F3"/>
</g>
<g id="Shape" opacity="0.16">
<use xlink:href="#path13_fill" transform="translate(2033.54 943.799)" fill="#F2F2F2"/>
</g>
<g id="Shape" opacity="0.17">
<use xlink:href="#path14_fill" transform="translate(2033.65 943.94)" fill="#F1F1F1"/>
</g>
<g id="Shape" opacity="0.19">
<use xlink:href="#path15_fill" transform="translate(2033.77 944.058)" fill="#F0F0F0"/>
</g>
<g id="Shape" opacity="0.2">
<use xlink:href="#path16_fill" transform="translate(2033.88 944.203)" fill="#EFEFEF"/>
</g>
<g id="Shape" opacity="0.21">
<use xlink:href="#path17_fill" transform="translate(2034.01 944.273)" fill="#EEEEEE"/>
</g>
<g id="Shape" opacity="0.22">
<use xlink:href="#path18_fill" transform="translate(2034.11 944.399)" fill="#EDEDED"/>
</g>
<g id="Shape" opacity="0.23">
<use xlink:href="#path19_fill" transform="translate(2034.32 944.514)" fill="#ECECEC"/>
</g>
<g id="Shape" opacity="0.25">
<use xlink:href="#path20_fill" transform="translate(2034.38 944.659)" fill="#EBEBEB"/>
</g>
<g id="Shape" opacity="0.26">
<use xlink:href="#path21_fill" transform="translate(2034.43 944.736)" fill="#EAEAEA"/>
</g>
<g id="Shape" opacity="0.27">
<use xlink:href="#path22_fill" transform="translate(2034.59 944.805)" fill="#E9E9E9"/>
</g>
<g id="Shape" opacity="0.28">
<use xlink:href="#path23_fill" transform="translate(2034.69 944.945)" fill="#E8E8E8"/>
</g>
<g id="Shape" opacity="0.3">
<use xlink:href="#path24_fill" transform="translate(2034.8 945.109)" fill="#E7E7E7"/>
</g>
<g id="Shape" opacity="0.31">
<use xlink:href="#path25_fill" transform="translate(2034.93 945.177)" fill="#E6E6E6"/>
</g>
<g id="Shape" opacity="0.32">
<use xlink:href="#path26_fill" transform="translate(2035.05 945.28)" fill="#E5E5E5"/>
</g>
<g id="Shape" opacity="0.33">
<use xlink:href="#path27_fill" transform="translate(2035.17 945.388)" fill="#E4E4E4"/>
</g>
<g id="Shape" opacity="0.35">
<use xlink:href="#path28_fill" transform="translate(2035.26 945.5)" fill="#E3E3E3"/>
</g>
<g id="Shape" opacity="0.36">
<use xlink:href="#path29_fill" transform="translate(2035.37 945.608)" fill="#E2E2E2"/>
</g>
<g id="Shape" opacity="0.37">
<use xlink:href="#path30_fill" transform="translate(2035.51 945.711)" fill="#E2E1E1"/>
</g>
<g id="Shape" opacity="0.38">
<use xlink:href="#path31_fill" transform="translate(2035.62 945.825)" fill="#E1E0E0"/>
</g>
<g id="Shape" opacity="0.4">
<use xlink:href="#path32_fill" transform="translate(2035.74 945.978)" fill="#E0DFDF"/>
</g>
<g id="Shape" opacity="0.41">
<use xlink:href="#path33_fill" transform="translate(2035.85 946.087)" fill="#DFDEDE"/>
</g>
<g id="Shape" opacity="0.42">
<use xlink:href="#path34_fill" transform="translate(2035.97 946.124)" fill="#DEDDDD"/>
</g>
<g id="Shape" opacity="0.43">
<use xlink:href="#path35_fill" transform="translate(2036.09 946.26)" fill="#DDDCDC"/>
</g>
<g id="Shape" opacity="0.44">
<use xlink:href="#path36_fill" transform="translate(2036.19 946.37)" fill="#DCDBDB"/>
</g>
<g id="Shape" opacity="0.46">
<use xlink:href="#path37_fill" transform="translate(2036.32 946.481)" fill="#DBDADA"/>
</g>
<g id="Shape" opacity="0.47">
<use xlink:href="#path38_fill" transform="translate(2036.45 946.587)" fill="#DAD9D9"/>
</g>
<g id="Shape" opacity="0.48">
<use xlink:href="#path39_fill" transform="translate(2036.51 946.692)" fill="#D9D8D8"/>
</g>
<g id="Shape" opacity="0.49">
<use xlink:href="#path40_fill" transform="translate(2036.66 946.817)" fill="#D8D7D7"/>
</g>
<g id="Shape" opacity="0.51">
<use xlink:href="#path41_fill" transform="translate(2036.77 946.904)" fill="#D7D6D6"/>
</g>
<g id="Shape" opacity="0.52">
<use xlink:href="#path42_fill" transform="translate(2036.89 947.056)" fill="#D6D5D5"/>
</g>
<g id="Shape" opacity="0.53">
<use xlink:href="#path43_fill" transform="translate(2037 947.12)" fill="#D5D4D4"/>
</g>
<g id="Shape" opacity="0.54">
<use xlink:href="#path44_fill" transform="translate(2037.11 947.245)" fill="#D4D3D3"/>
</g>
<g id="Shape" opacity="0.56">
<use xlink:href="#path45_fill" transform="translate(2037.27 947.33)" fill="#D3D2D2"/>
</g>
<g id="Shape" opacity="0.57">
<use xlink:href="#path46_fill" transform="translate(2037.34 947.416)" fill="#D2D1D1"/>
</g>
<g id="Shape" opacity="0.58">
<use xlink:href="#path47_fill" transform="translate(2037.46 947.544)" fill="#D1D0D0"/>
</g>
<g id="Shape" opacity="0.59">
<use xlink:href="#path48_fill" transform="translate(2037.57 947.658)" fill="#D0CFCF"/>
</g>
<g id="Shape" opacity="0.6">
<use xlink:href="#path49_fill" transform="translate(2037.68 947.752)" fill="#CFCECE"/>
</g>
<g id="Shape" opacity="0.62">
<use xlink:href="#path50_fill" transform="translate(2037.79 947.816)" fill="#CECDCD"/>
</g>
<g id="Shape" opacity="0.63">
<use xlink:href="#path51_fill" transform="translate(2037.91 947.96)" fill="#CDCCCC"/>
</g>
<g id="Shape" opacity="0.64">
<use xlink:href="#path52_fill" transform="translate(2038.02 948.066)" fill="#CCCBCB"/>
</g>
<g id="Shape" opacity="0.65">
<use xlink:href="#path53_fill" transform="translate(2038.13 948.167)" fill="#CBCACA"/>
</g>
<g id="Shape" opacity="0.67">
<use xlink:href="#path54_fill" transform="translate(2038.21 948.268)" fill="#CAC9C9"/>
</g>
<g id="Shape" opacity="0.68">
<use xlink:href="#path55_fill" transform="translate(2038.37 948.374)" fill="#C9C8C8"/>
</g>
<g id="Shape" opacity="0.69">
<use xlink:href="#path56_fill" transform="translate(2038.47 948.475)" fill="#C8C8C7"/>
</g>
<g id="Shape" opacity="0.7">
<use xlink:href="#path57_fill" transform="translate(2038.55 948.592)" fill="#C7C7C6"/>
</g>
<g id="Shape" opacity="0.72">
<use xlink:href="#path58_fill" transform="translate(2038.7 948.716)" fill="#C6C6C5"/>
</g>
<g id="Shape" opacity="0.73">
<use xlink:href="#path59_fill" transform="translate(2038.81 948.759)" fill="#C5C5C4"/>
</g>
<g id="Shape" opacity="0.74">
<use xlink:href="#path60_fill" transform="translate(2038.92 948.843)" fill="#C4C4C3"/>
</g>
<g id="Shape" opacity="0.75">
<use xlink:href="#path61_fill" transform="translate(2039.03 948.989)" fill="#C3C3C2"/>
</g>
<g id="Shape" opacity="0.77">
<use xlink:href="#path62_fill" transform="translate(2039.15 949.102)" fill="#C2C2C1"/>
</g>
<g id="Shape" opacity="0.78">
<use xlink:href="#path63_fill" transform="translate(2039.25 949.183)" fill="#C1C1C0"/>
</g>
<g id="Shape" opacity="0.79">
<use xlink:href="#path64_fill" transform="translate(2039.37 949.263)" fill="#C0C0BF"/>
</g>
<g id="Shape" opacity="0.8">
<use xlink:href="#path65_fill" transform="translate(2039.48 949.381)" fill="#BFBFBE"/>
</g>
<g id="Shape" opacity="0.81">
<use xlink:href="#path66_fill" transform="translate(2039.59 949.48)" fill="#BEBEBE"/>
</g>
<g id="Shape" opacity="0.83">
<use xlink:href="#path67_fill" transform="translate(2039.71 949.578)" fill="#BDBDBD"/>
</g>
<g id="Shape" opacity="0.84">
<use xlink:href="#path68_fill" transform="translate(2039.82 949.664)" fill="#BCBCBC"/>
</g>
<g id="Shape" opacity="0.85">
<use xlink:href="#path69_fill" transform="translate(2039.93 949.779)" fill="#BBBBBB"/>
</g>
<g id="Shape" opacity="0.86">
<use xlink:href="#path70_fill" transform="translate(2040.02 949.911)" fill="#BABABA"/>
</g>
<g id="Shape" opacity="0.88">
<use xlink:href="#path71_fill" transform="translate(2040.15 949.986)" fill="#B9B9B9"/>
</g>
<g id="Shape" opacity="0.89">
<use xlink:href="#path72_fill" transform="translate(2040.26 950.025)" fill="#B8B8B8"/>
</g>
<g id="Shape" opacity="0.9">
<use xlink:href="#path73_fill" transform="translate(2040.36 950.162)" fill="#B7B7B7"/>
</g>
<g id="Shape" opacity="0.91">
<use xlink:href="#path74_fill" transform="translate(2040.54 950.262)" fill="#B6B6B6"/>
</g>
<g id="Shape" opacity="0.93">
<use xlink:href="#path75_fill" transform="translate(2040.54 950.355)" fill="#B5B5B5"/>
</g>
<g id="Shape" opacity="0.94">
<use xlink:href="#path76_fill" transform="translate(2040.71 950.41)" fill="#B4B4B4"/>
</g>
<g id="Shape" opacity="0.95">
<use xlink:href="#path77_fill" transform="translate(2040.82 950.547)" fill="#B3B3B3"/>
</g>
<g id="Shape" opacity="0.96">
<use xlink:href="#path78_fill" transform="translate(2040.96 950.672)" fill="#B2B2B2"/>
</g>
<g id="Shape" opacity="0.98">
<use xlink:href="#path79_fill" transform="translate(2041 950.737)" fill="#B1B1B1"/>
</g>
<g id="Shape" opacity="0.99">
<use xlink:href="#path80_fill" transform="translate(2041.15 950.791)" fill="#B0B0B0"/>
</g>
<g id="Shape">
<use xlink:href="#path81_fill" transform="translate(2041.26 950.925)" fill="#B3B3B3"/>
</g>
</g>
<g id="Shape">
<use xlink:href="#path82_fill" transform="translate(2039.62 932.5)" fill="#F9F9F9"/>
</g>
<g id="Shape">
<use xlink:href="#path83_fill" transform="translate(2056.03 942.06)" fill="#B3B3B3"/>
</g>
<g id="Shape">
<use xlink:href="#path84_fill" transform="translate(2039.57 941.98)" fill="#E6E6E6"/>
</g>
</g>
</g>
<defs>
<path id="path0_fill" d="M 30.9896 48.0315C 28.9896 51.1815 27.2896 50.8815 22.8396 48.1115L 4.54965 40.5515C 0.0996494 37.7815 -1.04035 32.0015 0.929649 28.8515L 11.2596 1.74154C 13.2596 -1.41846 8.37965 0.171545 12.8296 2.94154L 42.8997 15.3315C 47.3497 18.1015 43.5997 31.4815 41.6297 34.6415L 30.9896 48.0315Z"/>
<path id="path1_fill" d="M 30.8221 47.6336C 28.8221 50.7736 27.1321 50.4636 22.7221 47.7136L 4.55213 40.1836C 0.12213 37.4336 -1.03787 31.7036 0.91213 28.5636L 11.2121 1.74362C 13.2121 -1.39638 8.39213 0.143616 12.8121 2.90362L 42.6621 15.1936C 47.0821 17.9536 43.4521 31.1936 41.4921 34.3236L 30.8221 47.6336Z"/>
<path id="path2_fill" d="M 30.5559 47.243C 28.6059 50.373 26.8659 50.053 22.5559 47.333L 4.55586 39.823C 0.14586 37.083 -1.04414 31.403 0.905859 28.283L 11.1659 1.743C 13.1659 -1.377 8.39586 0.123004 12.8059 2.863L 42.4159 15.053C 46.8159 17.803 43.3059 30.883 41.3659 34.053L 30.5559 47.243Z"/>
<path id="path3_fill" d="M 30.4966 46.8497C 28.5666 49.9597 26.8266 49.6397 22.4966 46.9397L 4.55659 39.4697C 0.176593 36.7397 -1.04341 31.1097 0.886594 27.9997L 11.1266 1.74967C 13.0566 -1.36033 8.40659 0.0996747 12.7866 2.82967L 42.1666 14.9197C 46.5466 17.6497 43.1666 30.5897 41.2266 33.6997L 30.4966 46.8497Z"/>
<path id="path4_fill" d="M 30.3505 46.4758C 28.4205 49.5758 26.6805 49.2458 22.4205 46.5758L 4.56048 39.1258C 0.20048 36.4058 -1.04952 30.8358 0.88048 27.7458L 11.0805 1.74577C 13.0005 -1.34423 8.42048 0.0857735 12.7805 2.79577L 41.9205 14.7958C 46.2805 17.5058 43.0205 30.3058 41.0905 33.3958L 30.3505 46.4758Z"/>
<path id="path5_fill" d="M 30.1334 46.0733C 28.2234 49.1433 26.4834 48.8133 22.2634 46.1633L 4.5634 38.7433C 0.223403 36.0433 -1.0466 30.5133 0.863404 27.4433L 11.0334 1.75331C 12.9434 -1.32669 8.4334 0.0633094 12.7634 2.75331L 41.6734 14.6333C 46.0134 17.3333 42.8734 29.9933 40.9534 33.0633L 30.1334 46.0733Z"/>
<path id="path6_fill" d="M 29.9611 45.6547C 28.0511 48.7147 26.3111 48.3747 22.1411 45.7547L 4.56113 38.3547C 0.251132 35.6747 -1.04887 30.1947 0.851132 27.1347L 10.9811 1.72466C 12.8811 -1.27534 8.44113 0.0146568 12.7411 2.72466L 41.4311 14.5147C 45.7411 17.1947 42.7211 29.7047 40.8211 32.7647L 29.9611 45.6547Z"/>
<path id="path7_fill" d="M 29.7887 45.2682C 27.8987 48.2682 26.1587 47.9682 22.0287 45.3682L 4.5687 37.9982C 0.278703 35.3282 -1.0513 29.8982 0.838703 26.8582L 10.9387 1.73816C 12.8287 -1.26184 8.4487 -0.00184488 12.7387 2.66816L 41.1687 14.3482C 45.4487 17.0182 42.5587 29.3482 40.6687 32.4282L 29.7887 45.2682Z"/>
<path id="path8_fill" d="M 29.6185 44.9098C 27.7285 47.9098 25.9885 47.5898 21.9085 45.0198L 4.56849 37.6698C 0.298487 35.0198 -1.05151 29.6698 0.828487 26.6698L 10.8885 1.74979C 12.7685 -1.25021 8.45849 -0.0202093 12.7185 2.63979L 40.9385 14.2198C 45.1985 16.8798 42.4285 29.0998 40.5485 32.1198L 29.6185 44.9098Z"/>
<path id="path9_fill" d="M 29.4409 44.5286C 27.5709 47.5286 25.8309 47.1786 21.7909 44.6286L 4.57091 37.3186C 0.330906 34.6786 -1.05909 29.3186 0.820906 26.3186L 10.8209 1.75855C 12.6909 -1.24145 8.45091 -0.0314469 12.6909 2.60855L 40.6909 14.0986C 44.9309 16.7386 42.2909 28.8086 40.4109 31.8186L 29.4409 44.5286Z"/>
<path id="path10_fill" d="M 29.2744 44.1174C 27.4044 47.1174 25.6644 46.7474 21.6744 44.2274L 4.5744 36.9374C 0.354399 34.3074 -1.0556 29.0274 0.804399 26.0374L 10.8044 1.7674C 12.6644 -1.2326 8.4944 -0.0426002 12.7044 2.5774L 40.4644 13.9574C 44.6744 16.5874 42.1544 28.5174 40.2944 31.5074L 29.2744 44.1174Z"/>
<path id="path11_fill" d="M 29.1088 43.7356C 27.2588 46.7356 25.5188 46.3456 21.5788 43.8456L 4.5788 36.5856C 0.378798 33.9756 -1.0612 28.7456 0.798798 25.7756L 10.7988 1.77561C 12.6488 -1.22439 8.5388 -0.0543921 12.7388 2.55561L 40.2588 13.8356C 44.4488 16.4456 42.0488 28.2356 40.1988 31.2056L 29.1088 43.7356Z"/>
<path id="path12_fill" d="M 28.9308 43.3477C 27.0908 46.3477 25.3408 45.9377 21.4508 43.4677L 4.58076 36.2277C 0.410758 33.6277 -1.05924 28.4477 0.780759 25.4977L 10.7008 1.78767C 12.5408 -1.21233 8.50076 -0.0723262 12.7008 2.52767L 39.9908 13.6977C 44.1608 16.2977 41.8808 27.9477 40.0408 30.9077L 28.9308 43.3477Z"/>
<path id="path13_fill" d="M 28.7458 42.9714C 26.9158 45.9714 25.1758 45.5414 21.3258 43.0914L 4.57578 35.8814C 0.455783 33.3014 -1.06422 28.2014 0.765783 25.2014L 10.6458 1.77142C 12.4758 -1.16858 8.50578 -0.108584 12.6458 2.47142L 39.7058 13.5514C 43.8558 16.1314 41.7058 27.6314 39.8658 30.5514L 28.7458 42.9714Z"/>
<path id="path14_fill" d="M 28.5893 42.5596C 26.7693 45.4796 25.0193 45.0996 21.2193 42.6796L 4.58927 35.4896C 0.459268 32.9296 -1.06073 27.8496 0.759268 24.9196L 10.6093 1.77959C 12.4293 -1.15041 8.52927 -0.130409 12.6093 2.43959L 39.4293 13.4396C 43.5493 15.9996 41.5293 27.3596 39.7093 30.2896L 28.5893 42.5596Z"/>
<path id="path15_fill" d="M 28.4079 42.1624C 26.5979 45.0724 24.8579 44.6824 21.0979 42.2824L 4.58792 35.1325C 0.487925 32.5724 -1.06208 27.5424 0.747925 24.6425L 10.5579 1.77245C 12.3679 -1.12755 8.55792 -0.14755 12.6279 2.40245L 39.2279 13.2724C 43.3179 15.8224 41.4179 27.0424 39.6079 29.9524L 28.4079 42.1624Z"/>
<path id="path16_fill" d="M 28.2465 41.7369C 26.4465 44.6269 24.6965 44.2369 20.9865 41.8669L 4.59648 34.7369C 0.516478 32.1969 -1.06352 27.2169 0.736477 24.3269L 10.5165 1.79686C 12.3265 -1.09314 8.51648 -0.203144 12.6265 2.38686L 38.9865 13.1569C 43.0565 15.6969 41.2765 26.7669 39.4765 29.6569L 28.2465 41.7369Z"/>
<path id="path17_fill" d="M 28.0572 41.3868C 26.2672 44.2668 24.5272 43.8668 20.8572 41.5268L 4.58725 34.4168C 0.587248 31.8968 -1.07275 26.9568 0.717248 24.0868L 10.4672 1.79681C 12.2572 -1.08319 8.54725 -0.203191 12.5972 2.33681L 38.7272 13.0068C 42.7772 15.5368 41.1172 26.4568 39.3272 29.3368L 28.0572 41.3868Z"/>
<path id="path18_fill" d="M 27.8911 40.991C 26.1111 43.841 24.3611 43.441 20.7511 41.121L 4.59113 34.041C 0.591125 31.531 -1.06888 26.651 0.711125 23.791L 10.4211 1.791C 12.2011 -1.069 8.56112 -0.209001 12.5811 2.301L 38.4811 12.871C 42.4811 15.381 40.9811 26.161 39.2011 29.021L 27.8911 40.991Z"/>
<path id="path19_fill" d="M 27.6832 40.5961C 25.9132 43.4361 24.1732 43.0261 20.6032 40.7361L 4.60323 33.6761C 0.603231 31.1861 -1.06677 26.3561 0.703231 23.5161L 10.3832 1.78608C 12.1532 -1.05392 8.58323 -0.213916 12.5832 2.25608L 38.2432 12.7261C 42.2432 15.2161 40.8432 25.8561 39.0732 28.7261L 27.6832 40.5961Z"/>
<path id="path20_fill" d="M 27.5271 40.1712C 25.7671 43.0012 24.0171 42.5812 20.5271 40.3112L 4.60714 33.3112C 0.607145 30.8312 -1.06286 26.0512 0.697145 23.2312L 10.3371 1.78124C 12.0971 -1.03876 8.58714 -0.218762 12.5671 2.21124L 38.0071 12.5812C 42.0071 15.0612 40.6971 25.5812 38.9371 28.3812L 27.5271 40.1712Z"/>
<path id="path21_fill" d="M 27.4193 39.8137C 25.6793 42.6237 23.9293 42.2037 20.4193 39.9637L 4.61932 32.9637C 0.619316 30.4937 -1.06068 25.7637 0.689316 22.9637L 10.2993 1.80369C 12.0493 -1.00631 8.60932 -0.266309 12.5693 2.19369L 37.7693 12.4637C 41.7693 14.9237 40.5593 25.2737 38.7693 28.0837L 27.4193 39.8137Z"/>
<path id="path22_fill" d="M 27.214 39.4649C 25.474 42.2649 23.724 41.8349 20.294 39.6149L 4.61402 32.6149C 0.674022 30.1649 -1.06598 25.4849 0.674022 22.6849L 10.244 1.80488C 11.984 -0.985117 8.61402 -0.285117 12.544 2.16488L 37.544 12.3249C 41.474 14.7749 40.434 24.9849 38.704 27.7749L 27.214 39.4649Z"/>
<path id="path23_fill" d="M 27.0639 39.0546C 25.3339 41.8246 23.5839 41.3946 20.1939 39.2046L 4.63392 32.2546C 0.723921 29.8146 -1.04608 25.1846 0.633921 22.4146L 10.1739 1.81458C 11.9039 -0.965419 8.60392 -0.305419 12.5139 2.13458L 37.3139 12.1946C 41.2239 14.6246 40.3139 24.6946 38.5839 27.4646L 27.0639 39.0546Z"/>
<path id="path24_fill" d="M 26.8853 38.6114C 25.1653 41.3714 23.4153 40.9314 20.0753 38.7614L 4.63525 31.8914C 0.745252 29.4714 -1.05475 24.8914 0.635252 22.1314L 10.1353 1.8214C 11.8553 -0.938602 8.61525 -0.328602 12.5053 2.0914L 37.0053 12.0914C 40.8953 14.5114 40.1053 24.4314 38.3853 27.1814L 26.8853 38.6114Z"/>
<path id="path25_fill" d="M 26.7124 38.2631C 25.0024 41.0031 23.2524 40.5631 19.9524 38.4231L 4.63235 31.5231C 0.762352 29.1231 -1.05765 24.5831 0.632352 21.8431L 10.0724 1.82311C 11.7824 -0.916894 8.61235 -0.346895 12.4724 2.06311L 36.7524 11.9231C 40.6124 14.3331 39.9424 24.1031 38.2324 26.8431L 26.7124 38.2631Z"/>
<path id="path26_fill" d="M 26.5323 37.88C 24.8323 40.61 23.0823 40.16 19.8423 38.04L 4.63227 31.17C 0.792271 28.78 -1.06773 24.3 0.632271 21.58L 10.0623 1.82996C 11.7623 -0.900039 8.66227 -0.360039 12.5023 2.02996L 36.5023 11.79C 40.3423 14.18 39.7923 23.79 38.1023 26.54L 26.5323 37.88Z"/>
<path id="path27_fill" d="M 26.3594 37.502C 24.6694 40.202 22.9194 39.752 19.7194 37.662L 4.62941 30.822C 0.809412 28.442 -1.07059 24.012 0.629412 21.302L 10.0194 1.83197C 11.7094 -0.878029 8.67941 -0.378029 12.4894 2.00197L 36.2894 11.612C 40.1094 13.992 39.6894 23.482 37.9994 26.192L 26.3594 37.502Z"/>
<path id="path28_fill" d="M 26.2108 37.1098C 24.5408 39.7998 22.7908 39.3398 19.6308 37.2698L 4.6308 30.4598C 0.830797 28.0998 -1.0792 23.7098 0.630797 21.0198L 9.9908 1.83975C 11.6708 -0.850246 8.7008 -0.400246 12.5008 1.95975L 36.0708 11.4998C 39.8708 13.8598 39.5708 23.2098 37.8908 25.8998L 26.2108 37.1098Z"/>
<path id="path29_fill" d="M 26.0466 36.7222C 24.3766 39.4022 22.6266 38.9322 19.5166 36.8922L 4.62656 30.1022C 0.856563 27.7522 -1.08344 23.4222 0.626563 20.7422L 9.94656 1.84215C 11.6166 -0.827849 8.71656 -0.417849 12.4866 1.93215L 35.8366 11.3922C 39.5966 13.7422 39.4266 22.9422 37.7566 25.6222L 26.0466 36.7222Z"/>
<path id="path30_fill" d="M 25.8495 36.3388C 24.1995 38.9988 22.4495 38.5288 19.3795 36.5088L 4.64947 29.7488C 0.899467 27.4188 -1.06053 23.1288 0.589467 20.4788L 9.87947 1.85884C 11.5395 -0.801165 8.70947 -0.431164 12.4495 1.85884L 35.5695 11.2888C 39.3095 13.6188 39.2595 22.6788 37.5695 25.2888L 25.8495 36.3388Z"/>
<path id="path31_fill" d="M 25.6853 35.9547C 24.0353 38.5947 22.2853 38.1147 19.2653 36.1247L 4.65531 29.3847C 0.925309 27.0647 -1.06469 22.8347 0.585309 20.1947L 9.84531 1.85469C 11.4853 -0.785311 8.72531 -0.445311 12.4453 1.85469L 35.3753 11.1747C 39.0953 13.4847 39.1653 22.4047 37.5253 25.0447L 25.6853 35.9547Z"/>
<path id="path32_fill" d="M 25.5101 35.5217C 23.8801 38.1417 22.1301 37.6617 19.1501 35.6917L 4.66013 29.0217C 0.96013 26.7217 -1.05987 22.5417 0.57013 19.9117L 9.80013 1.8617C 11.4301 -0.768302 8.73013 -0.468302 12.4301 1.8617L 35.0801 11.0117C 38.7801 13.3217 38.9801 22.0817 37.3401 24.7117L 25.5101 35.5217Z"/>
<path id="path33_fill" d="M 25.3461 35.1331C 23.7161 37.7431 21.9661 37.2531 19.0361 35.3131L 4.66611 28.6331C 0.986114 26.3431 -1.06389 22.2031 0.566114 19.6331L 9.75611 1.87312C 11.3761 -0.736881 8.75611 -0.486881 12.4261 1.80312L 34.8361 10.8031C 38.5161 13.0931 38.8361 21.7131 37.2061 24.3231L 25.3461 35.1331Z"/>
<path id="path34_fill" d="M 25.1712 34.8165C 23.5612 37.4065 21.8112 36.9165 18.9312 34.9965L 4.67123 28.3465C 1.02123 26.0665 -1.05877 21.9865 0.551235 19.3465L 9.71124 1.87648C 11.3212 -0.713517 8.71124 -0.503517 12.4112 1.77648L 34.6012 10.7165C 38.2512 12.9965 38.6912 21.4765 37.0812 24.0665L 25.1712 34.8165Z"/>
<path id="path35_fill" d="M 25.0033 34.4C 23.3932 36.98 21.6433 36.48 18.8133 34.59L 4.67325 27.96C 1.04325 25.7 -1.05675 21.66 0.543251 19.09L 9.66325 1.89001C 11.2633 -0.689992 8.77325 -0.519992 12.4033 1.74001L 34.3533 10.59C 37.9833 12.85 38.5433 21.19 36.9433 23.76L 25.0033 34.4Z"/>
<path id="path36_fill" d="M 24.8094 34.02C 23.2194 36.57 21.4694 36.07 18.6794 34.2L 4.67943 27.6C 1.06943 25.36 -1.06057 21.37 0.539427 18.81L 9.61943 1.89003C 11.2094 -0.669969 8.78943 -0.529969 12.3894 1.71003L 34.1094 10.46C 37.7194 12.7 38.3994 20.89 36.8094 23.46L 24.8094 34.02Z"/>
<path id="path37_fill" d="M 24.685 33.6291C 23.105 36.1691 21.345 35.6291 18.605 33.8191L 4.68496 27.2391C 1.10496 25.0091 -1.05504 21.0791 0.524962 18.5291L 9.52496 1.89908C 11.105 -0.640918 8.74496 -0.550918 12.325 1.67908L 33.815 10.3191C 37.395 12.5491 38.215 20.5991 36.625 23.1391L 24.685 33.6291Z"/>
<path id="path38_fill" d="M 24.4713 33.2433C 22.9013 35.7733 21.1513 35.2433 18.4713 33.4333L 4.69127 26.8833C 1.13127 24.6733 -1.05873 20.7833 0.521275 18.2633L 9.52127 1.90329C 11.0913 -0.616708 8.80128 -0.566708 12.3613 1.65329L 33.6113 10.1933C 37.1713 12.4033 38.1113 20.3133 36.5413 22.8333L 24.4713 33.2433Z"/>
<path id="path39_fill" d="M 24.3583 32.8579C 22.7983 35.3679 21.0383 34.8579 18.3583 33.0579L 4.69826 26.5379C 1.15826 24.3279 -1.05174 20.5379 0.508264 17.9879L 9.50826 1.91793C 11.0683 -0.592075 8.84826 -0.582075 12.3783 1.61793L 33.3783 10.0579C 36.9083 12.2679 37.9683 20.0579 36.3783 22.5279L 24.3583 32.8579Z"/>
<path id="path40_fill" d="M 24.1495 32.4626C 22.5995 34.9526 20.8495 34.4626 18.2395 32.6526L 4.69953 26.1826C 1.18953 23.9926 -1.05047 20.1826 0.499529 17.7126L 9.43953 1.9226C 10.9895 -0.567402 8.83953 -0.597402 12.3495 1.5926L 33.1395 9.9326C 36.6495 12.1226 37.8295 19.7326 36.2795 22.2326L 24.1495 32.4626Z"/>
<path id="path41_fill" d="M 23.9908 32.0964C 22.4508 34.5664 20.6908 34.0264 18.1308 32.2964L 4.71079 25.8264C 1.22079 23.6564 -1.04921 19.9164 0.490795 17.4464L 9.40079 1.9364C 10.9408 -0.543603 8.85079 -0.613603 12.3408 1.5664L 32.9008 9.8064C 36.3908 11.9764 37.7008 19.4464 36.1508 21.9264L 23.9908 32.0964Z"/>
<path id="path42_fill" d="M 23.8134 31.6645C 22.2834 34.1245 20.5334 33.5745 18.0234 31.8745L 4.71337 25.4245C 1.24337 23.2645 -1.04663 19.5845 0.483369 17.1245L 9.35337 1.94446C 10.8834 -0.515535 8.86337 -0.625535 12.3534 1.52446L 32.6734 9.66446C 36.1434 11.8245 37.5734 19.1545 36.0434 21.6645L 23.8134 31.6645Z"/>
<path id="path43_fill" d="M 23.6537 31.3199C 22.1337 33.7599 20.3737 33.2099 17.9137 31.5299L 4.72375 25.1099C 1.28375 22.9699 -1.04625 19.3299 0.47375 16.8899L 9.31375 1.94987C 10.8337 -0.490131 8.88375 -0.640131 12.3138 1.49987L 32.4038 9.49987C 35.8538 11.6399 37.4038 18.8299 35.8838 21.2699L 23.6537 31.3199Z"/>
<path id="path44_fill" d="M 23.4865 30.9145C 21.9665 33.3445 20.2165 32.7845 17.7965 31.1345L 4.72649 24.7545C 1.30649 22.6345 -1.04351 19.0445 0.466492 16.6145L 9.26649 1.9645C 10.7765 -0.465498 8.89649 -0.655498 12.2665 1.4745L 32.1365 9.4045C 35.5465 11.5345 37.2265 18.5745 35.7165 21.0045L 23.4865 30.9145Z"/>
<path id="path45_fill" d="M 23.2693 30.5604C 21.7693 32.9704 20.0093 32.4004 17.6393 30.7704L 4.7293 24.4104C 1.3293 22.2904 -1.0407 18.7504 0.4593 16.3504L 9.2193 1.97038C 10.7193 -0.439621 8.8993 -0.669621 12.2993 1.45038L 31.9293 9.28038C 35.3193 11.3904 37.1193 18.2804 35.6193 20.7004L 23.2693 30.5604Z"/>
<path id="path46_fill" d="M 23.15 30.1938C 21.66 32.5838 19.9 32.0138 17.57 30.4138L 4.74003 24.0738C 1.37003 21.9738 -1.03997 18.4838 0.450034 16.0738L 9.19003 1.98381C 10.67 -0.406193 8.92003 -0.686193 12.29 1.41381L 31.69 9.15381C 35.06 11.2438 36.99 18.0038 35.5 20.3938L 23.15 30.1938Z"/>
<path id="path47_fill" d="M 22.973 29.7862C 21.493 32.1662 19.733 31.5862 17.453 30.0062L 4.74301 23.6962C 1.39301 21.6062 -1.03699 18.1762 0.443007 15.7962L 9.14301 1.98615C 10.623 -0.383848 8.93301 -0.693848 12.283 1.38615L 31.443 9.01615C 34.793 11.1062 36.843 17.7162 35.363 20.0862L 22.973 29.7862Z"/>
<path id="path48_fill" d="M 22.815 29.3919C 21.345 31.7519 19.585 31.1719 17.345 29.6219L 4.75497 23.3419C 1.42497 21.2719 -1.03503 17.8819 0.434974 15.5219L 9.10497 2.00192C 10.575 -0.358079 8.95497 -0.708079 12.275 1.36192L 31.215 8.89192C 34.535 10.9619 36.705 17.4219 35.215 19.7819L 22.815 29.3919Z"/>
<path id="path49_fill" d="M 22.6371 29.028C 21.1771 31.368 19.4171 30.778 17.2271 29.248L 4.75713 22.988C 1.45713 20.988 -1.03287 17.598 0.427127 15.258L 9.05713 2.01798C 10.5171 -0.332019 8.96713 -0.722019 12.2571 1.33798L 30.9671 8.75798C 34.2671 10.818 36.5571 17.138 35.0971 19.478L 22.6371 29.028Z"/>
<path id="path50_fill" d="M 22.4793 28.6838C 21.0293 31.0038 19.2693 30.4138 17.1293 28.9138L 4.7693 22.6738C 1.4893 20.6738 -1.0307 17.3438 0.419301 15.0238L 9.0193 2.02376C 10.4693 -0.296241 9.0193 -0.736241 12.2593 1.30376L 30.7293 8.63376C 34.0093 10.6338 36.4193 16.8538 34.9793 19.1738L 22.4793 28.6838Z"/>
<path id="path51_fill" d="M 22.3017 28.2605C 20.8617 30.5705 19.1017 29.9705 17.0117 28.4905L 4.77165 22.2905C 1.52165 20.2905 -1.02835 17.0205 0.411654 14.7105L 8.97165 2.04047C 10.4117 -0.269529 8.97165 -0.749529 12.2417 1.28047L 30.4817 8.51047C 33.7417 10.5105 36.2817 16.5105 34.8417 18.8705L 22.3017 28.2605Z"/>
<path id="path52_fill" d="M 22.1403 27.874C 20.7103 30.164 18.9503 29.564 16.9003 28.114L 4.78025 21.934C 1.55025 19.934 -1.01975 16.734 0.400252 14.434L 8.98025 2.04403C 10.4103 -0.245967 9.06025 -0.755967 12.2903 1.25403L 30.2903 8.37403C 33.5203 10.374 36.1903 16.274 34.7603 18.564L 22.1403 27.874Z"/>
<path id="path53_fill" d="M 21.9675 27.4932C 20.5575 29.7732 18.7875 29.1632 16.7875 27.7332L 4.78748 21.5832C 1.57748 19.5832 -1.02252 16.4432 0.397477 14.1732L 8.86748 2.06324C 10.2875 -0.216757 9.00748 -0.766757 12.2075 1.22324L 29.9875 8.22324C 33.1875 10.2232 35.9875 15.9632 34.5575 18.2232L 21.9675 27.4932Z"/>
<path id="path54_fill" d="M 21.8401 27.1216C 20.4301 29.3816 18.6701 28.7616 16.7101 27.3616L 4.79011 21.2316C 1.61011 19.2316 -1.01989 16.1616 0.390106 13.9016L 8.84011 2.07157C 10.2501 -0.188427 9.03011 -0.778427 12.2201 1.20157L 29.7901 8.12157C 32.9701 10.1216 35.8801 15.7116 34.4801 17.9716L 21.8401 27.1216Z"/>
<path id="path55_fill" d="M 21.6328 26.7365C 20.2428 28.9765 18.4728 28.3565 16.5628 26.9765L 4.80277 20.8765C 1.64277 18.8765 -1.01723 15.8765 0.382765 13.6265L 8.80276 2.08649C 10.2028 -0.153513 9.05277 -0.793513 12.2128 1.17649L 29.5228 7.99649C 32.6828 9.99649 35.7228 15.4165 34.3228 17.6665L 21.6328 26.7365Z"/>
<path id="path56_fill" d="M 21.4664 26.3554C 20.0764 28.5854 18.3164 27.9554 16.4664 26.6054L 4.80643 20.5254C 1.66643 18.5254 -1.01357 15.5854 0.376433 13.3654L 8.75643 2.0954C 10.1464 -0.124604 9.06643 -0.804603 12.1964 1.1554L 29.2764 7.8654C 32.4164 9.8654 35.5764 15.1354 34.1864 17.3654L 21.4664 26.3554Z"/>
<path id="path57_fill" d="M 21.3348 25.9582C 19.9648 28.1682 18.1948 27.5382 16.3348 26.2082L 4.81478 20.2082C 1.70478 18.2682 -1.00522 15.3282 0.364777 13.1182L 8.71478 2.11825C 10.0948 -0.0917535 9.08478 -0.811753 12.1948 1.11825L 29.0348 7.73825C 32.1548 9.67825 35.4348 14.8482 34.0348 17.0582L 21.3348 25.9582Z"/>
<path id="path58_fill" d="M 21.1323 25.564C 19.7623 27.754 18.0023 27.114 16.2323 25.814L 4.82227 19.814C 1.73227 17.884 -1.00773 14.994 0.362269 12.814L 8.67227 2.12403C 10.0423 -0.0759659 9.09227 -0.825966 12.1823 1.12403L 28.8023 7.64403C 31.8923 9.56403 35.2923 14.644 33.9323 16.784L 21.1323 25.564Z"/>
<path id="path59_fill" d="M 20.9617 25.2407C 19.6117 27.4107 17.8517 26.7707 16.1217 25.4907L 4.83168 19.4907C 1.76168 17.5807 -0.998321 14.7407 0.351679 12.5607L 8.63168 2.15068C 9.99168 -0.0193217 9.11168 -0.849322 12.1817 1.09068L 28.5617 7.50068C 31.6217 9.41068 35.1517 14.2907 33.8017 16.5007L 20.9617 25.2407Z"/>
<path id="path60_fill" d="M 20.7954 24.8771C 19.4454 27.0371 17.6854 26.3871 16.0054 25.1371L 4.8354 19.1371C 1.8354 17.2471 -1.0046 14.4471 0.345402 12.2971L 8.5954 2.15713C 9.9354 -0.00287485 9.1254 -0.842875 12.1654 1.05713L 28.3154 7.36713C 31.3154 9.25712 35.0154 13.9971 33.6654 16.1571L 20.7954 24.8771Z"/>
<path id="path61_fill" d="M 20.6266 24.4511C 19.2966 26.5911 17.5366 25.9411 15.8966 24.7111L 4.84663 18.7711C 1.84663 16.8911 -0.993368 14.1511 0.336632 12.0111L 8.55663 2.16111C 9.88663 0.0211117 9.14663 -0.838888 12.1566 1.02111L 28.0766 7.23111C 31.0766 9.11111 34.8766 13.7111 33.5366 15.8511L 20.6266 24.4511Z"/>
<path id="path62_fill" d="M 20.4623 24.0581C 19.1423 26.1881 17.3723 25.5281 15.7823 24.3281L 4.85228 18.4081C 1.85228 16.5481 -0.987723 13.8581 0.332277 11.7281L 8.51228 2.16807C 9.83228 0.0380707 9.15228 -0.831929 12.1523 0.988071L 27.8523 7.09807C 30.8523 8.96807 34.7423 13.4181 33.4223 15.5381L 20.4623 24.0581Z"/>
<path id="path63_fill" d="M 20.2972 23.7066C 18.9872 25.8166 17.2272 25.1466 15.6772 23.9666L 4.86716 18.0866C 1.86716 16.2266 -0.982842 13.5866 0.327158 11.4766L 8.47716 2.19661C 9.78716 0.0866132 9.17716 -0.863387 12.1472 0.986613L 27.6072 6.98661C 30.6072 8.83661 34.6072 13.1366 33.2872 15.2466L 20.2972 23.7066Z"/>
<path id="path64_fill" d="M 20.1329 23.3474C 18.8329 25.4374 17.0629 24.7674 15.5629 23.6174L 4.87285 17.7374C 1.87285 15.8974 -0.977148 13.3074 0.322852 11.2174L 8.43285 2.21739C 9.73285 0.127387 9.19285 -0.872613 12.1429 0.957387L 27.3629 6.86739C 30.3129 8.70739 34.4629 12.8674 33.1529 14.9574L 20.1329 23.3474Z"/>
<path id="path65_fill" d="M 19.9671 22.949C 18.6671 25.029 16.9071 24.349 15.4571 23.219L 4.8771 17.389C 1.9471 15.569 -0.982905 13.029 0.317095 10.949L 8.3871 2.22901C 9.6771 0.159014 9.2071 -0.880986 12.1271 0.939014L 27.1271 6.74901C 30.0571 8.56901 34.3271 12.589 33.0271 14.659L 19.9671 22.949Z"/>
<path id="path66_fill" d="M 19.7966 22.5705C 18.5166 24.6305 16.7966 23.9505 15.3466 22.8505L 4.88662 17.0405C 1.98662 15.2305 -0.973385 12.7405 0.306615 10.6805L 8.30661 2.25046C 9.58661 0.190465 9.18661 -0.889535 12.0866 0.920465L 26.8366 6.62046C 29.7366 8.43046 34.1366 12.3105 32.8366 14.3605L 19.7966 22.5705Z"/>
<path id="path67_fill" d="M 19.6345 22.2022C 18.3545 24.2022 16.6345 23.5522 15.2345 22.4822L 4.89454 16.6922C 2.01454 14.9022 -0.975456 12.4622 0.304544 10.4222L 8.30454 2.27222C 9.57454 0.222221 9.23454 -0.897779 12.1145 0.902221L 26.6445 6.50222C 29.5145 8.29222 34.0345 12.0222 32.7645 14.0722L 19.6345 22.2022Z"/>
<path id="path68_fill" d="M 19.4643 21.8361C 18.2043 23.8361 16.4643 23.1661 15.1243 22.1161L 4.90433 16.3361C 2.05433 14.5661 -0.965673 12.1661 0.294327 10.1461L 8.29433 2.27609C 9.55433 0.276093 9.29433 -0.903907 12.1343 0.866093L 26.4343 6.37609C 29.2843 8.14609 33.9243 11.7361 32.6643 13.7661L 19.4643 21.8361Z"/>
<path id="path69_fill" d="M 19.299 21.4409C 18.039 23.4409 16.299 22.7509 15.009 21.7309L 4.90897 16.0009C 2.07897 14.2309 -0.961028 11.8909 0.288972 9.88091L 8.21897 2.30091C 9.46897 0.300906 9.21897 -0.909094 12.099 0.850906L 26.159 6.25091C 28.989 8.01091 33.759 11.4609 32.499 13.4709L 19.299 21.4409Z"/>
<path id="path70_fill" d="M 19.153 21.0285C 17.913 23.0285 16.153 22.3185 14.923 21.3185L 4.92301 15.6185C 2.11301 13.8685 -0.956986 11.6185 0.283014 9.61854L 8.18301 2.31854C 9.42301 0.318545 9.29301 -0.911455 12.093 0.838545L 25.983 6.08854C 28.793 7.83854 33.683 11.0885 32.443 13.0885L 19.153 21.0285Z"/>
<path id="path71_fill" d="M 18.9672 20.6737C 17.7372 22.6737 15.9672 21.9437 14.7872 20.9737L 4.92718 15.2937C 2.14718 13.5537 -0.952819 11.2937 0.277181 9.34373L 8.13718 2.34373C 9.36718 0.34373 9.29718 -0.91627 12.1372 0.82373L 25.6772 6.01373C 28.4672 7.75373 33.4772 10.9037 32.2472 12.8837L 18.9672 20.6737Z"/>
<path id="path72_fill" d="M 18.8014 20.3647C 17.5814 22.3647 15.8014 21.6047 14.6814 20.6547L 4.9414 14.9747C 2.1814 13.2547 -0.948602 11.0647 0.271398 9.10468L 8.1014 2.36468C 9.3214 0.364682 9.3214 -0.915318 12.1014 0.804682L 25.4714 5.90468C 28.2314 7.62468 33.3614 10.6347 32.1414 12.5947L 18.8014 20.3647Z"/>
<path id="path73_fill" d="M 18.6363 19.9477C 17.4263 21.8877 15.6363 21.1677 14.5763 20.2477L 4.94632 14.6177C 2.20632 12.9177 -0.943683 10.7677 0.266317 8.82768L 8.05632 2.37768C 9.26632 0.437677 9.33632 -0.932323 12.0563 0.777677L 25.1863 5.77768C 27.9263 7.47768 33.1863 10.3477 31.9663 12.2877L 18.6363 19.9477Z"/>
<path id="path74_fill" d="M 18.4607 19.5676C 17.2607 21.4976 15.4607 20.7676 14.4607 19.8676L 4.95072 14.2676C 2.24072 12.5776 -0.939276 10.4876 0.260724 8.55756L 8.02072 2.38756C 9.21072 0.467563 9.35072 -0.932437 12.0207 0.757563L 24.9207 5.64756C 27.6307 7.33756 33.0207 10.0576 31.8207 11.9876L 18.4607 19.5676Z"/>
<path id="path75_fill" d="M 18.3552 19.1951C 17.1652 21.1051 15.3552 20.3751 14.3552 19.5051L 4.96518 13.9351C 2.27518 12.2551 -0.934819 10.2151 0.255181 8.30514L 7.98518 2.41514C 9.16518 0.505142 9.36518 -0.934858 12.0552 0.735142L 24.7252 5.53514C 27.4152 7.20514 32.9252 9.78514 31.7252 11.6951L 18.3552 19.1951Z"/>
<path id="path76_fill" d="M 18.1303 18.8698C 16.9503 20.7598 15.1303 20.0198 14.2403 19.1698L 4.9703 13.5898C 2.3003 11.9298 -0.929703 9.92978 0.250297 8.03978L 7.9403 2.43978C 9.1103 0.53978 9.3803 -0.94022 12.0503 0.71978L 24.4803 5.40978C 27.1503 7.06978 32.7803 9.50978 31.6003 11.4098L 18.1303 18.8698Z"/>
<path id="path77_fill" d="M 17.9744 18.4531C 16.8044 20.3231 15.0344 19.5831 14.1344 18.7631L 4.98438 13.2431C 2.34438 11.5931 -0.925622 9.65308 0.244378 7.77308L 7.90438 2.45308C 9.06438 0.583082 9.40438 -0.946918 12.0444 0.703082L 24.2544 5.29308C 26.8944 6.93308 32.6444 9.23308 31.4744 11.1031L 17.9744 18.4531Z"/>
<path id="path78_fill" d="M 17.7696 18.0483C 16.6196 19.9083 14.8396 19.1583 13.9896 18.3583L 4.98963 12.8683C 2.36963 11.2383 -0.920369 9.33831 0.239631 7.47831L 7.85963 2.47831C 9.01963 0.618312 9.41963 -0.951687 12.0396 0.688313L 24.0396 5.17831C 26.6596 6.80831 32.5396 8.94831 31.3796 10.8083L 17.7696 18.0483Z"/>
<path id="path79_fill" d="M 17.6813 17.7033C 16.5313 19.5533 14.7613 18.7933 13.9513 18.0233L 5.0013 12.5533C 2.4013 10.9333 -0.908696 9.09325 0.231304 7.25325L 7.8213 2.49325C 8.9713 0.653254 9.4413 -0.946746 12.0313 0.663254L 23.7713 5.05325C 26.3713 6.67325 32.3713 8.67325 31.2213 10.5133L 17.6813 17.7033Z"/>
<path id="path80_fill" d="M 17.4693 17.3691C 17.105 18.0077 16.4506 18.4269 15.7181 18.4908C 14.9857 18.5546 14.2686 18.255 13.7993 17.6891L 5.00929 12.2091C 2.43929 10.6091 -0.910712 8.8191 0.229288 6.9891L 7.77929 2.5191C 8.91929 0.689098 9.44929 -0.950902 12.0193 0.649098L 23.5293 4.9391C 26.1093 6.5391 32.2293 8.3991 31.0893 10.2191L 17.4693 17.3691Z"/>
<path id="path81_fill" d="M 17.3112 16.9654C 16.9517 17.5917 16.3089 18.0029 15.5896 18.0666C 14.8703 18.1304 14.1652 17.8387 13.7012 17.2854L 5.02118 11.8754C 2.47118 10.2854 -0.898822 8.53543 0.221178 6.72543L 7.74118 2.53543C 8.87118 0.725433 9.47118 -0.954567 12.0212 0.635433L 23.3012 4.81543C 25.8412 6.40543 32.0912 8.12543 30.9612 9.93543L 17.3112 16.9654Z"/>
<path id="path82_fill" d="M 32.96 9.56L 16.5 0L 0 9.48L 16.45 19.03L 32.96 9.56Z"/>
<path id="path83_fill" d="M 0.04 9.47L 0 28.51L 16.5 19.03L 16.55 0L 0.04 9.47Z"/>
<path id="path84_fill" d="M 0.05 0L 0 19.03L 16.46 28.59L 16.5 9.55L 0.05 0Z"/>
</defs>
</svg>
