<svg width="35" height="35" viewBox="0 0 35 35" version="1.1" xmlns="http://www.w3.org/2000/svg" xmlns:xlink="http://www.w3.org/1999/xlink">
<g id="Canvas" fill="none">
<g id="Group 10 Copy 3">
<g id="Rectangle 10">
<path fill-rule="evenodd" clip-rule="evenodd" d="M 34 1L 1 1L 1 34L 34 34L 34 1Z" transform="translate(35 35) scale(-1)" fill="#0E1221"/>
<path fill-rule="evenodd" clip-rule="evenodd" d="M 34 1L 1 1L 1 34L 34 34L 34 1Z" stroke-width="2" stroke-miterlimit="8" transform="translate(35 35) scale(-1)" stroke="#02EDD8"/>
</g>
<g id="Fill 3060 + Fill 3061">
<g id="Fill 3060">
<path fill-rule="evenodd" clip-rule="evenodd" d="M 5.74897 14C 5.60724 14 5.46648 13.9336 5.37104 13.8197L 0.104124 7.29238C -0.0347078 7.12065 -0.0347078 6.87398 0.104124 6.70415L 5.37104 0.176791C 5.5359 -0.0233941 5.84056 -0.0603951 6.0488 0.100891C 6.25705 0.270717 6.29176 0.565776 6.12593 0.7745L 1.09812 6.99732L 6.12593 13.222C 6.29176 13.4298 6.25705 13.7239 6.0488 13.8956C 5.96011 13.9611 5.85405 14 5.74897 14Z" transform="translate(30 24) scale(-1)" fill="#00FFFF"/>
</g>
<g id="Fill 3061">
<path fill-rule="evenodd" clip-rule="evenodd" d="M 26.5345 0.7L 0.465517 0.7C 0.208552 0.7 0 0.546 0 0.35C 0 0.1547 0.208552 0 0.465517 0L 26.5345 0C 26.7914 0 27 0.1547 27 0.35C 27 0.546 26.7914 0.7 26.5345 0.7Z" transform="translate(30 17.7002) scale(-1)" fill="#00FFFF"/>
</g>
</g>
</g>
</g>
</svg>

