<svg xmlns="http://www.w3.org/2000/svg" xmlns:xlink="http://www.w3.org/1999/xlink" width="251" height="109" viewBox="0 0 251 109"><defs><path id="uqsda" d="M252.33 14944.67c2.15 0 4.25-.1 6.25 0a2 2 0 0 1 2 2.26 2.05 2.05 0 0 1-2 2.26c-2 .08-4.01 0-6.23 0zm.02 11.45c2.3 0 4.55-.15 6.79 0a2.6 2.6 0 0 1 2.59 2.74 2.57 2.57 0 0 1-2.63 2.69c-2.19.08-4.38 0-6.75 0zm-7.89 13.12c5.83-.23 11.56-.22 17.25-.76a7.76 7.76 0 0 0 7.23-6.51c.9-4.3-.39-7.1-4.2-9.6a8.21 8.21 0 0 0-3.86-14.83c-5.42-.4-10.82-.1-16.42-.1z"/><path id="uqsdb" d="M201.98 14968.93h-7.76v-12.05h-9.62v12.03h-7.8v-31.76h7.72v11.96h9.59v-11.91h7.87v31.73z"/><path id="uqsdc" d="M329.4 14942.2l-5 4.62c-2.56-2.08-5.5-3.19-8.63-2.4-1.87.5-3.56 1.53-4.86 2.95-2.9 3.25-2.5 8.9.37 12 2.62 2.87 8.48 3.65 13.13 0l4.94 4.52c-4.72 6.45-15.72 7.3-22.34 1.8a16.29 16.29 0 1 1 22.42-23.5"/><path id="uqsdd" d="M289.06 14944.48v24.44h-7.85v-24.29h-8.09v-7.47h23.87v7.32h-7.93z"/><path id="uqsde" d="M227.23 14953.37l-2.59-.18v-6.92l2.56-.22v-7.4h7.21v7.36l3 .28c0 2 .05 4 0 5.91 0 .37-.56.87-1 1-.6.13-1.22.17-1.83.13v15.56h-7.3z"/><path id="uqsdf" d="M211 14947.75c2.43 2.25 4.65 2.22 7 .11v21h-7z"/><path id="uqsdg" d="M214.59 14944.68c-2.47 0-4.16-1.48-4.15-3.66.01-2.18 1.66-3.6 4-3.63a4 4 0 0 1 4.33 3.57c.06 2-1.84 3.7-4.18 3.72"/><path id="uqsdh" d="M406.46 14885.09l-9.18 11c-.1.28-.26.53-.46.75a9.21 9.21 0 0 1-2.5 1.32c-5.53 1.78-11 3.85-16.5 5.64-1.38.47-2.82.73-4.27.79-1.46-.45-1.18-1.38-.65-2.37 1.8-3.33 3.8-6.54 5.73-9.79.54-.77.93-1.63 1.15-2.54-10.77 5-21 10.62-31.76 15-.2 0-.4-.05-.58-.15-.16-.12-.3-.28-.39-.46-.32-.83-.3-1.76.05-2.58 1.3-5 2.62-10 3.83-15 .35-1.13.9-2.18 1.61-3.12 2-.51 4 .18 5.94.41a753.3 753.3 0 0 1 21.71 2.83c1.93.28 3.12-.12 4-1.89.55-.99 1.16-1.94 1.83-2.85.95.1 1.8.6 2.34 1.4 2 2.59 4 5.18 6.1 7.74.42.67 1.02 1.2 1.72 1.57.39-1.82.57-3.67.56-5.53.06-3 .6-5.92.45-8.88-.05-1.12.73-1.84.95-2.8 2.51-.69 5.11-.64 7.67-.93 3.4-.39 6.8-.63 10.2-.94.54.87-.1 1.42-.58 2-2.6 3.06-5.06 6.26-8.33 8.69-.27.17-.47.42-.59.72"/><path id="uqsdi" d="M363.09 14967.47c-.07.5-.2 1-.75.38-.31-.4-.57-.83-.78-1.29l-22.85-40.63c-.25-.44-.44-.9-.66-1.36a3 3 0 0 1 .22-.28 5 5 0 0 1 3.46-.58c4.94.63 9.92 0 14.86.67 1.13.07 2.24.24 3.34.5.22.09.42.24.56.43 1.51 3.08 1 6.44 1.26 9.67.55 7.7.91 15.38 1.51 23.07.24 3.14-.11 6.28-.17 9.42"/><path id="uqsdj" d="M352.54 14883.59c-.84 4.82-2.26 9.5-3.44 14.23a40.38 40.38 0 0 0-1.5 6.6c-.54 1.17-1.67 1.23-2.71 1.38-8.3 1.25-16.64 2.24-25 3.4-2.64.48-5.32.64-8 .5-.64-1.19.6-1.21 1.08-1.5 9.02-5.69 18.06-11.35 27.13-17 4.13-2.57 8.27-5.11 12.4-7.66"/><path id="uqsdk" d="M311.93 14909.7c1.5-1 3.27-.82 4.93-1.05 9.88-1.34 19.77-2.63 29.65-3.95.37-.07.74-.17 1.1-.28v.05c.12.15.2.32.23.51a16 16 0 0 1-2 5.45c-1.82 3.73-3.53 7.51-5.37 11.24a8 8 0 0 1-2.24 2.95h-.13l-26.12-14.87"/><path id="uqsdl" d="M394.28 14953.62c-7.33-7.66-14.67-15.32-22-23-1.5-.85-1.34-2.33-1.24-3.66.53-7.08.27-14.2 1.07-21.27.26-1.22.85-1.3 1.65-.43a12.2 12.2 0 0 1 1.87 3.48c5.86 13.27 11.79 26.5 17.66 39.77.59 1.51 1.05 3.06 1.38 4.64a.86.86 0 0 1-.38.44"/><path id="uqsdm" d="M394.28 14953.62v-.56c-1.23-10.5-.3-21.05-.57-31.58-.07-2.9 0-5.8 0-8.7-.1-.94.12-1.9.64-2.69.29-.16.6-.58.77.12l.4 1c4.7 8.76 7.85 18.17 11.56 27.35.38.66.48 1.45.27 2.18a4.8 4.8 0 0 1-1.53 3.11 100.94 100.94 0 0 1-9.6 9.81c-.65.6-1.3.92-1.91 0"/><path id="uqsdn" d="M363.09 14967.47c-.23-1.75-.56-3.5-.67-5.24-.55-9.33-1-18.65-1.57-28-.17-3-.47-5.91-.7-8.86a2.24 2.24 0 0 1 2.33 0 215.7 215.7 0 0 1 7.81 3.35 1.87 1.87 0 0 1 1.26 2.37c-1.43 6.25-2.83 12.5-4.28 18.75-1.37 5.88-2.78 11.75-4.18 17.62"/><path id="uqsdo" d="M371.55 14931.1c-.22-.92-.94-1.26-1.72-1.59-3.23-1.36-6.46-2.75-9.68-4.13l-.05-.07a.87.87 0 0 1-.19-.5c.61-2.67 2.41-4.7 3.74-7 2.3-3.93 4.56-7.87 7.08-11.66.45-.68.84-1.5 1.91-1 0 7.37-.25 14.73-.72 22.1a6.83 6.83 0 0 0 .35 3.34l-.72.45"/><path id="uqsdp" d="M398.09 14875.59c.19.4.25.85.17 1.28-.33 5.28-.62 10.56-.93 15.84.12.97-.17 1.94-.8 2.68l-10.56-13.3 12.12-6.5"/><path id="uqsdq" d="M406.82 14940.93c-2.15-6.28-4.83-12.35-7.15-18.56-1.4-3.72-3.16-7.3-4.18-11.16l3.38 4.95c2.08 1.12 2.9 3.25 4 5.09 2.18 3.54 4.33 7.11 6.52 10.65 1.4 2.25 2.18 4.78 3.4 7.11-.09 1.06-1 .95-1.67 1.16-1.17.37-2.54.09-3.53 1.08-.41.27-.63 0-.81-.32"/><path id="uqsdr" d="M395.09 14910.18l-.4-.43-.21-.24a4.07 4.07 0 0 1-.17-2.6c.4-2.61.9-5.22 1.27-7.84.09-1 .58-1.91 1.35-2.55l.35-.41c2.26 4.58 5.17 8.77 7.7 13.19 1.04 1.65 1.91 3.4 2.6 5.21l-12.5-4.33"/><path id="uqsds" d="M412.83 14939.01c-3.31-4.75-6.14-9.8-9.16-14.73a72.74 72.74 0 0 1-4.8-8.12c2 0 4.05.05 6.07 0a2.06 2.06 0 0 1 2.42 1.77c1.77 7 3.63 14.06 5.47 21.08"/><path id="uqsdt" d="M416.25 14873.62l9.68-12.17.49.24c-.89 4.38-1 8.88-2.51 13.15-1.76.38-3.57.42-5.34.11-.91-.19-1.93-.23-2.32-1.33"/><path id="uqsdu" d="M416.25 14873.62c2.53.56 5.16.45 7.66 1.22l-17.45 10.25c.55-1.76 2.1-2.76 3.17-4.1 2-2.51 4.2-4.87 6.32-7.3l.3-.1"/><path id="uqsdv" d="M406.82 14940.93l.81.32c1.48.71 2.89 1.58 4.19 2.58l-15.62 9.83c1.44-2.64 3.82-4.5 5.65-6.82 1.59-2 3.64-3.66 5-5.91"/><path id="uqsdw" d="M372.64 14905.2c-2.87 3.7-4.92 7.9-7.42 11.83-1.69 2.66-3.07 5.5-5.09 7.94-1.15.1-1.64-.75-2.13-1.53-3.38-5.37-6.58-10.85-9.87-16.27a3.84 3.84 0 0 1-.55-2.33v-.37l.37-.05c2-.64 4.09-.95 6.18-.91h15.66a5.23 5.23 0 0 1 3.1.58c6.53.58 12.71 2.75 19.06 4.19 1 .24 2.14.38 2.73 1.46v40.53c.15.95.04 1.93-.33 2.82-3.38-7.55-6.78-15.1-10.14-22.64-3.64-8.2-7.26-16.4-10.88-24.6-.14-.28-.27-.57-.65-.61"/><path id="uqsdx" d="M373.41 14904.46h-25.44l18.85-9.33c4.3-2.13 8.64-4.24 13-6.33.6-.47 1.36-.7 2.13-.65-.37 1.79-1.54 3.15-2.37 4.63-1.79 3.2-3.73 6.32-5.57 9.49-.33.56-1 1.08-.53 1.88a.23.23 0 0 1 0 .35"/><path id="uqsdy" d="M373.41 14904.46v-.35c6.49-1.81 12.75-4.28 19.15-6.34 1.4-.59 2.85-1.01 4.34-1.25l-2.24 13.24c-4.07-.56-8-1.84-12-2.81a75.17 75.17 0 0 1-9.31-2.49"/><path id="uqsdz" d="M347.58 14904.84c3.33 4.58 5.9 9.63 8.92 14.4l3.63 5.73v.35c-6.43-.18-12.86-.24-19.27-.72-.88-.07-1.77 0-2.65 0 .68-2.72 2.26-5 3.43-7.56 1.78-4.18 3.79-8.26 6-12.22"/></defs><g><g transform="translate(-176 -14861)"><g><g><use fill="#cecece" xlink:href="#uqsda"/></g><g><g><use fill="#fff" xlink:href="#uqsdb"/></g></g><g><g><use fill="#cecece" xlink:href="#uqsdc"/></g></g><g><use fill="#cecece" xlink:href="#uqsdd"/></g><g><use fill="#fff" xlink:href="#uqsde"/></g><g><use fill="#fff" xlink:href="#uqsdf"/></g><g><use fill="#fff" xlink:href="#uqsdg"/></g><g><use fill="#c1c1c1" xlink:href="#uqsdh"/></g><g><use fill="#6e6e6e" xlink:href="#uqsdi"/></g><g><use fill="#adadad" xlink:href="#uqsdj"/></g><g><use fill="#a0a0a0" xlink:href="#uqsdk"/></g><g><use fill="#636363" xlink:href="#uqsdl"/></g><g><use fill="#8c8c8c" xlink:href="#uqsdm"/></g><g><use fill="#505050" xlink:href="#uqsdn"/></g><g><use fill="#6e6e6e" xlink:href="#uqsdo"/></g><g><use fill="#adadad" xlink:href="#uqsdp"/></g><g><use fill="#adadad" xlink:href="#uqsdq"/></g><g><use fill="#cecece" xlink:href="#uqsdr"/></g><g><use fill="#c2c2c2" xlink:href="#uqsds"/></g><g><g><use fill="#c2c2c2" xlink:href="#uqsdt"/></g></g><g><use fill="#979797" xlink:href="#uqsdu"/></g><g><use fill="#6e6e6e" xlink:href="#uqsdv"/></g><g><use fill="#7f7f7f" xlink:href="#uqsdw"/></g><g><use fill="#adadad" xlink:href="#uqsdx"/></g><g><use fill="#8c8c8c" xlink:href="#uqsdy"/></g><g><use fill="#8f8f8f" xlink:href="#uqsdz"/></g></g></g></g></svg>