<svg xmlns="http://www.w3.org/2000/svg" xmlns:xlink="http://www.w3.org/1999/xlink" width="168" height="66" viewBox="0 0 168 66"><defs><path id="z0uea" d="M493.67 14959.17c.22.05.33-.1.46-.24l11.58-11.5c.38-.38.38-.54 0-.9-1.39-1.39-2.77-2.8-4.18-4.17-2.5-2.4-4.91-4.89-7.38-7.32-.14-.13-.26-.3-.49-.28v-.75c.9-.7 1.73-1.48 2.49-2.33 1.54-1.5 3-3 4.57-4.55.38-.38.6-.36 1 0 .93.91 1.84 1.84 2.78 2.75 3 2.88 5.89 5.85 8.84 8.77.59.58.52.67 1.18 0 1.07-1.08 2.14-2.18 3.24-3.24 2.57-2.47 5.07-5 7.61-7.52.3-.3.61-.6.93-.88a.48.48 0 0 1 .74 0l.12.12c2.22 2.24 4.53 4.42 6.74 6.68.47.47.48.6 0 1-3.89 3.8-7.7 7.68-11.56 11.52l-.19.17a.49.49 0 0 0 0 .83c1.52 1.44 3 2.92 4.46 4.4l7.34 7.36c.39.42.39.51 0 .92-1.33 1.33-2.64 2.7-4 4-1 .91-1.88 1.85-2.82 2.77-.39.38-.59.37-1 0-2.06-2.05-4.1-4.13-6.19-6.16-1.89-1.84-3.75-3.7-5.62-5.56-.33-.33-.38-.32-.74 0-2.57 2.43-5 5-7.54 7.46-.14.09-.27.2-.38.32l-4 4c-.34.32-.52.33-.84 0l-4.54-4.52c-.86-.84-1.65-1.73-2.57-2.5z"/><path id="z0ueb" d="M533.92 14959.17c-.16-.14-.32-.27-.47-.42l-10.46-10.44c-.3-.3-.63-.58-.94-.88a.54.54 0 0 1 0-.93l.31-.28 10.14-10.12c.46-.46.93-.9 1.41-1.35.27-.25.26-.47 0-.74l-7-6.87c-.23-.23-.42-.26-.67 0-.25.26-.65.6-1 .92l-11 11c-.36.35-.42.35-.78 0-2.25-2.25-4.49-4.5-6.75-6.74-1.64-1.63-3.3-3.25-4.95-4.87-.6-.6-.63-.6-1.22 0l-6.13 6.11c-.23.23-.43.53-.81.53v-.25c.2 0 .31-.09.43-.21l6.48-6.4c.53-.52.73-.51 1.27 0 3.19 3 6.24 6.2 9.37 9.28.84.83 1.73 1.59 2.49 2.48a.26.26 0 0 0 .41 0l.29-.3c2.14-2.13 4.25-4.3 6.43-6.4 1.76-1.7 3.47-3.45 5.21-5.15.45-.44.77-.44 1.21 0l6.75 6.74c.45.44.44.62 0 1.08l-6.2 6.13-5.21 5.21c-.7.69-.59.73 0 1.31 1.47 1.46 3 2.91 4.42 4.39 2.24 2.26 4.51 4.49 6.76 6.73.13.12.24.26.37.39a.1.1 0 0 1-.16 0"/><path id="z0uec" d="M514.35 14914.27c0 .26.17.37.31.51l10.78 10.71c.46.45.46.6 0 1.05l-5.42 5.42a.57.57 0 0 1-1 0l-4.67-4.7c-.44-.45-.46-.45-.92 0l-4.59 4.6c-.45.46-.6.45-1 0l-5.34-5.26c-.52-.52-.52-.67 0-1.18 3.62-3.51 7.16-7.09 10.73-10.65.14-.14.35-.25.3-.51z"/><path id="z0ued" d="M513.5 14979.74a.5.5 0 0 0-.22-.42c-3.6-3.52-7.16-7.09-10.73-10.65-.19-.19-.52-.28-.48-.67a1 1 0 0 1 .35-.63l5-4.93c.14-.14.28-.27.41-.42a.63.63 0 0 1 1 0c1.5 1.66 3.15 3.17 4.7 4.78.26.27.44.24.7 0l4.66-4.69c.5-.49.7-.5 1.17 0l5.33 5.32c.52.52.52.67 0 1.2l-1.48 1.46-9.19 9.12c-.15.14-.35.26-.3.51h-.26c-.13-.16 0-.29.07-.4.07-.13.21-.23.32-.33l9.12-9.13c.5-.5 1.06-.94 1.54-1.45.48-.5.35-.5 0-.87-1.73-1.78-3.58-3.44-5.3-5.22-.3-.32-.5-.3-.8 0-1.5 1.61-3.1 3.14-4.66 4.7-.38.38-.62.36-1 0-1.55-1.53-3.08-3.08-4.62-4.62-.45-.44-.55-.44-1 0l-5.2 5.21c-.34.33-.35.4 0 .68 2.2 2.2 4.37 4.44 6.63 6.6 1.48 1.41 2.9 2.87 4.34 4.3.14.14.35.28.2.53z"/><path id="z0uee" d="M513.75 14979.74c0-.23-.15-.35-.28-.48l-10.9-10.82c-.43-.42-.43-.47 0-.89l5.31-5.29c.38-.38.54-.38.93 0l4.7 4.71c.36.35.5.37.83 0 1.57-1.59 3.2-3.13 4.71-4.76.31-.33.56-.34.88 0l5.36 5.3c.42.4.42.55 0 1-3.68 3.54-7.24 7.2-10.87 10.78-.14.13-.32.24-.27.48z"/><path id="z0uef" d="M650.74 14948.58c0-.34.31-.55.49-.8 1.1-1.56 2.17-3.15 3.23-4.74.67-1 1.37-2 2.06-3a.77.77 0 0 1 .7-.3h1.87c.19 0 .37 0 .46.22.08.18.05.38-.08.51-.84 1-1.5 2.18-2.28 3.24-.63.85-1.18 1.76-1.78 2.63-.76 1.1-1.54 2.17-2.3 3.27-.47.68-.89 1.4-1.38 2.06l-1.06 1.52a.74.74 0 0 0 0 1c.51.7 1 1.4 1.48 2.1.48.7 1 1.45 1.52 2.16.52.71 1.17 1.7 1.76 2.55.59.85 1 1.38 1.48 2.08l1.34 2 1.72 2.44c.07.1.16.1.25.1v.25c-.23.15-.31 0-.41-.18-.23-.39-.5-.75-.81-1.08-.35-.42-.67-.88-.95-1.36a2.23 2.23 0 0 0-.49-.73 21.9 21.9 0 0 1-1.59-2.26 3.5 3.5 0 0 0-.58-.89l-.07-.09c-.08-.2-.23-.39-.42-.52-.4-.52-.75-1.08-1.05-1.67-.19-.4-.44-.75-.75-1.07-.3-.33-.55-.7-.77-1.1-.19-.34-.33-.72-.71-.9-.5-.58-.93-1.22-1.29-1.9a1.85 1.85 0 0 1 0-1.14c.12-.26.28-.51.48-.73.15-.12.21-.3.35-.44.25-.19.43-.46.5-.78.32-.56.68-1.08 1.1-1.58.28-.21.5-.5.62-.84 0-.09.07-.17.11-.26.16-.26.34-.52.54-.76.45-.44.83-.95 1.13-1.5.67-1 1.36-1.96 2-2.94.49-.73 1-1.46 1.5-2.18a.9.9 0 0 0 .11-.27l.06-.1.06-.06c.11-.1.29-.18.22-.36-.07-.18-.24-.1-.37-.1h-1.5a.76.76 0 0 0-.72.38c-.76 1.17-1.58 2.3-2.36 3.45-.63.93-1.25 1.86-1.9 2.77-.22.3-.41.62-.65.91-.24.3-.43.57-.66.84l-.07.1c-.07 0-.13.08-.21 0"/><path id="z0ueg" d="M660.25 14968.41h-2.46a.91.91 0 0 1-.81-.42l-1.3-1.9-1.83-2.7c-.62-.89-1-1.49-1.53-2.25s-.92-1.25-1.34-1.89c-.63-1-1.38-1.89-2-2.9-.18-.33-.35-.36-.55-.08l-2.1 3-1.84 2.64-2.26 3.3-2 2.9a.64.64 0 0 1-.58.27h-2c-.18 0-.35 0-.43-.2a.45.45 0 0 1 0-.5c.14-.16.2-.38.4-.47.13.18 0 .31-.1.44s-.15.35.07.5c.7.08 1.4.08 2.09 0a.42.42 0 0 0 .33-.22c.39-.73.95-1.36 1.4-2 .26-.38.53-.75.75-1.15.82-1.15 1.63-2.3 2.43-3.46.17-.24.3-.49.5-.72.31-.27.55-.61.7-1a4 4 0 0 1 .52-.78c.4-.43.74-.93 1-1.47.08-.2.2-.37.36-.52.2-.2.37-.42.5-.68a.36.36 0 0 1 .07-.1c.35-.23.53-.2.76.11a10.57 10.57 0 0 1 .97 1.37c.34.58.72 1.13 1.14 1.65.04.07.08.13.1.2.36.57.74 1.11 1.15 1.63 0 .06.07.13.1.2l.87 1.26.07.1c.19.3.4.59.62.86l.1.2c.2.3.4.58.63.84l.06.1c.11.25.27.49.46.7a6.8 6.8 0 0 0 .72 1.04l.07.08a4.66 4.66 0 0 0 .55.81 1.58 1.58 0 0 0 1.82 1c.37-.02.75-.02 1.12 0h.14c.16-.02.33.03.46.12z"/><path id="z0ueh" d="M493.67 14959.83c.23 0 .35.15.48.29l6.6 6.58c.43.43.5.42.94 0l3.92-3.91c.11-.12.21-.27.39-.29.18-.02 0 .13 0 .18-1.07 1.05-2.1 2.14-3.2 3.16-.38.38-.78.75-1.16 1.14a.51.51 0 0 1-.84 0l-3-3-3.65-3.57c-.12-.12-.23-.25-.43-.21z"/><path id="z0uei" d="M660.25 14968.25h-.5a.94.94 0 0 0-.24-.89c-.19-.25-.47-.46-.44-.83.4.25.56.69.83 1 .1.13.14.31.35.28z"/><path id="z0uej" d="M612.43 14949.09v-18.36c0-.38.13-.53.5-.53h19.36c.29 0 .43.14.42.44v1.5a.41.41 0 0 1-.44.48h-16.5c-.69 0-.74.05-.74.72v12.95c0 .58.07.67.68.67h15.24c.7 0 .73 0 .73.72v1.2c0 .43-.14.56-.58.56h-15.28c-.7 0-.79.09-.79.78V14965.17c0 .42.15.56.59.57h16.28c.76 0 .8 0 .79.8v1.13a.46.46 0 0 1-.46.52c-.3.02-.6.02-.91 0h-18.4c-.3 0-.49-.19-.48-.53v-18.57z"/><path id="z0uek" d="M642.28 14964.76a17 17 0 0 1-1.5 2.26l-.6.89c-.15.37-.52.35-.78.34-.63 0-1.26.08-1.9 0a.39.39 0 0 1 0-.61c.12-.1.19-.24.2-.4l.39-.48c.88-1.18 1.68-2.43 2.52-3.64.5-.7 1-1.4 1.47-2.11.74-1.08 1.49-2.15 2.22-3.24l1.9-2.75c.26-.36.5-.74.75-1.1a.44.44 0 0 0 0-.54c-.24-.34-.46-.68-.73-1-.65-.9-1.25-1.81-1.88-2.71-.63-.9-1.3-1.82-1.93-2.75-.63-.93-1.24-1.8-1.87-2.68-.85-1.21-1.68-2.43-2.56-3.62a.54.54 0 0 1-.15-.57c.09-.25.33-.2.53-.2h1.4c.55-.06 1.06.24 1.29.74.6.9 1.25 1.79 1.85 2.7.24.37.52.7.76 1.08.36.44.7.9 1 1.4l.6.9c.12.22.46.33.34.67a.15.15 0 0 1-.11 0c-.36-.26-.64-.6-.83-1-1-1.52-2.1-3-3.12-4.51-.3-.43-.57-.85-.87-1.27a.82.82 0 0 0-.74-.38h-1.25c-.12 0-.28 0-.35.07-.07.07 0 .26.12.37l1.32 1.86c.9 1.27 1.76 2.56 2.66 3.82 1.2 1.67 2.34 3.37 3.53 5l1.32 1.86c.21.27.21.65 0 .93-.82 1.07-1.54 2.2-2.3 3.3-1.19 1.71-2.37 3.43-3.54 5.15-.9 1.33-1.85 2.63-2.72 4-.21.32-.44.63-.67.95-.23.32-.14.35.19.36h1.29c.22.01.44-.1.57-.28a44.1 44.1 0 0 0 1.67-2.38c.1-.21.27-.4.48-.51a.15.15 0 0 1 .1 0"/><path id="z0uel" d="M502.75 14965.83c.93-1 2-2 2.93-3 .11-.12.26-.21.32-.37s.18-.22.27-.31l6.49-6.47c.25-.25.53-.48.79-.73s.47-.33.79 0c1.24 1.23 2.46 2.48 3.72 3.69 2.76 2.65 5.43 5.4 8.16 8.09.34.33.46.34.79 0 2.28-2.26 4.55-4.51 6.84-6.75.31-.31.38-.55.07-.86h.16c.33.3.35.53 0 .83l-7 7a.63.63 0 0 1-1 0l-.73-.86c-3.7-3.66-7.38-7.33-11.06-11-.26-.25-.41-.23-.64 0-.71.73-1.42 1.45-2.15 2.15-2.84 2.7-5.57 5.53-8.36 8.28-.11.1-.19.25-.37.25"/><path id="z0uem" d="M569.14 14948.92c.32.53.57 1.1.73 1.7.29.62.51 1.28.76 1.93.25.65.36 1 .55 1.5l.65 1.67c.22.5.41 1.01.57 1.53.13.5.32.99.55 1.45.22.5.41 1 .58 1.5.32.87.7 1.74 1 2.64.23.73.55 1.45.83 2.18.3.68.56 1.38.79 2.1.08.28.38.5.33.86-.05.36-.14.43-.44.43h-2.24c-.36 0-.66-.35-.82-.83-.21-.65-.48-1.28-.71-1.9l-.59-1.59a8.39 8.39 0 0 0-.64-1.59 5.75 5.75 0 0 1-.43-1.16l-.58-1.53c-.17-.52-.37-1.02-.6-1.52a7 7 0 0 1-.51-1.39 8.59 8.59 0 0 1-.57-1.59c0-.28-.36-.4-.69-.39H554a.76.76 0 0 0-.85.67c-.18.59-.4 1.16-.65 1.72-.23.54-.39 1.11-.61 1.66-.22.55-.37.91-.52 1.38 0 .1-.15.16-.23.24a.3.3 0 0 1-.08-.18c.05-.27.14-.54.26-.8.49-1 .87-2.14 1.28-3.22.14-.38.31-.76.43-1.16.12-.4.63-.5 1.07-.5h13.38c.2-.02.4-.02.59 0 .24.05.43.22.5.45.43 1.21.92 2.4 1.37 3.6.31.84.66 1.67 1 2.51.34.84.68 1.78 1 2.68a54.93 54.93 0 0 0 1.17 3.1c.08.38.26.72.53 1 .08.06.17.08.27.07h1.91c.32 0 .44-.17.31-.45-.36-.79-.64-1.62-.94-2.43-.3-.8-.74-1.72-1-2.63-.07-.27-.24-.5-.32-.76-.4-1-.76-2-1.15-3-.33-.82-.64-1.65-.94-2.49-.3-.84-.68-1.74-1-2.62-.32-.88-.74-2-1.13-2.94-.21-.52-.35-1.05-.59-1.55a.4.4 0 0 1-.07-.35s.08-.05.12 0"/><path id="z0uen" d="M551.13 14960.4v.19c-.16.67-.4 1.33-.72 1.95-.18.41-.33.84-.47 1.28-.3.87-.67 1.7-1 2.57a7.07 7.07 0 0 1-.67 1.64.74.74 0 0 1-.7.35c-.65-.07-1.3 0-2 0-.45 0-.62-.21-.42-.61s.35-1 .6-1.44a6 6 0 0 0 .46-1.18c.27-.91.66-1.77 1-2.65.34-.88.66-1.7 1-2.52.2-.48.38-1 .58-1.5.16-.52.36-1.03.6-1.52.19-.4.35-.8.48-1.22.17-.35.3-.7.42-1.07.27-.9.65-1.75 1-2.61.46-1.2.93-2.37 1.4-3.56.35-.87.71-1.75 1-2.65.16-.51.36-1.01.61-1.48.2-.38.34-.78.45-1.2.17-.51.38-1 .6-1.53.15-.5.35-.98.57-1.44.2-.43.36-.87.5-1.31.3-.7.52-1.41.86-2.1a.07.07 0 0 1 .11 0c.04.08.04.17 0 .25-.15.23-.26.49-.32.76-.11.36-.25.72-.4 1.07-.1.27-.24.52-.35.78-.12.45-.29.89-.5 1.3-.08.3-.2.59-.33.87-.2.62-.43 1.24-.67 1.85-.2.33-.36.69-.45 1.07-.29.89-.65 1.76-1 2.64-.35.88-.68 1.69-1 2.54-.32.85-.7 1.86-1.08 2.78-.37.92-.64 1.76-1.05 2.6-.18.4-.3.8-.46 1.2-.43 1.25-.94 2.46-1.4 3.68l-1 2.46c-.36.87-.7 1.75-1 2.63-.2.61-.44 1.21-.72 1.8 0 .1-.07.19-.1.28-.05.09-.18.26-.24.39a.26.26 0 0 0 .14.4c.74.04 1.47.04 2.2 0a.55.55 0 0 0 .2-.24c.3-.54.53-1.12.7-1.71.48-1.2 1-2.4 1.41-3.6a1 1 0 0 0 .32-.76c.13-.44.28-.87.45-1.28a.15.15 0 0 1 .23-.11"/><path id="z0ueo" d="M557.47 14936.76h-.12c0-.29.08-.57.24-.81.21-.4.37-.82.48-1.26.16-.53.47-1 .58-1.54.1-.38.24-.75.43-1.1.3-.59.43-1.24.76-1.82.1-.16.18-.35.36-.36.48-.08.97-.08 1.45 0 .24.07.42.27.46.52.18.56.45 1.08.63 1.64a14.83 14.83 0 0 1 .7 1.93c.35.63.48 1.36.8 2 .32.64.41 1.08.61 1.61.24.51.44 1.04.6 1.58.12.42.28.83.46 1.23.27.68.48 1.39.8 2.05.24.54.46 1.1.64 1.66.18.49.4 1 .58 1.47l.6 1.62c.3.56.5 1.16.61 1.78h-.08c-.24-.16-.28-.45-.36-.68-.33-.91-.7-1.79-1-2.7-.17-.53-.37-1.04-.6-1.54a13 13 0 0 1-.47-1.23c-.33-.91-.7-1.8-1-2.71-.26-.74-.57-1.46-.85-2.19s-.5-1.37-.78-2c-.34-.84-.63-1.71-1-2.55-.23-.5-.42-1.02-.59-1.54-.13-.44-.39-.83-.49-1.28 0-.05 0 0 0 0-.3-.46-.78-.23-1.18-.28a.53.53 0 0 0-.62.3c-.32.75-.64 1.5-.9 2.27-.18.49-.36 1-.56 1.47-.3.75-.55 1.51-.88 2.24-.06.13-.09.3-.26.35"/><path id="z0uep" d="M645.42 14947.34h.1c.2 0 .28.1.35.23.16.3.4.56.55.87l.43.65c.2.19.35.4.46.65.2.31.42.62.65.9l.12.2.23.4c.23.4.45.4.71 0a9.06 9.06 0 0 0 .6-.97 3.73 3.73 0 0 0 .75-1.1c.21-.2.4-.43.56-.68.25-.28.4-.65.67-.92l2.78-4c.72-1 1.43-2.1 2.13-3.14a.83.83 0 0 1 .78-.43h1.5c.2 0 .46-.1.52.18s-.14.42-.38.5c0-.34-.2-.47-.55-.4h-.45c-.94 0-1 0-1.48.75l-3 4.36-2.56 3.73c-.53.76-1.09 1.5-1.55 2.3-.11.2-.27.35-.47.47-.32.19-.52.13-.72-.2-.7-1.14-1.5-2.21-2.26-3.33-.15-.22-.29-.44-.46-.65a.27.27 0 0 1 0-.37"/><path id="z0ueq" d="M643.6 14944.43c-1-1.38-1.94-2.75-2.89-4.14a.82.82 0 0 0-.7-.36h-1.79c-.14 0-.3 0-.35.16a.4.4 0 0 0 .07.39c1 1.36 2 2.73 2.92 4.11.63.89 1.22 1.8 1.84 2.69l1.65 2.33c.55.78 1.15 1.67 1.72 2.52.04.09.11.16.2.21a.12.12 0 0 1 0 .17 3.48 3.48 0 0 1-.78-1c-1.25-1.73-2.46-3.49-3.68-5.24l-3.75-5.38c-.14-.21-.4-.33-.39-.66.02-.33.11-.45.41-.45h2c.48 0 .71.4 1 .73.66.91 1.3 1.84 1.91 2.79a3.28 3.28 0 0 1 .66 1.08c0 .04-.02.07-.04.09"/><path id="z0uer" d="M646.26 14952.51v-.17l.74 1c.13.17.13.41 0 .58a192.13 192.13 0 0 0-3.2 4.67c-.73 1.1-1.53 2.15-2.28 3.24-.6.86-1.15 1.75-1.76 2.59a28 28 0 0 1-1.68 2.36.12.12 0 0 1 0-.16l1.4-2.09 1.92-2.79 1.33-1.89c.64-.94 1.27-1.9 1.92-2.84.45-.66.92-1.3 1.37-2l.82-1.19a.42.42 0 0 0 0-.54c-.2-.27-.38-.57-.56-.85"/><path id="z0ues" d="M646.42 14948.43a2 2 0 0 1-.59-.77l-.3-.33c.04-.3-.37-.37-.34-.66.46.14.54.63.8.95.26.32.5.44.43.81"/><path id="z0uet" d="M649.59 14950.5c-.18.34-.39.68-.61 1-.23.29-.45.25-.65-.07l-.34-.56c.21 0 .25.14.35.25l.08.17c.28.29.3.29.58-.09l.24-.42c.12-.08.15-.28.35-.25"/><path id="z0ueu" d="M643.6 14944.43a.9.9 0 0 1 0-.17c.45.4.8.92 1 1.5-.47-.35-.64-.91-1-1.33"/><path id="z0uev" d="M649.59 14950.5l-.35.25c.41-.71.9-1.38 1.43-2 .12.27-.19.33-.25.51s-.05.12-.08.17c-.26.28-.4.64-.67.91 0 .06-.05.12-.08.17"/><path id="z0uew" d="M647.24 14949.76c-.1-.24-.36-.39-.39-.68.4.26.68.64.83 1.08-.15-.12-.25-.3-.4-.43"/><path id="z0uex" d="M648.35 14951.09l-.35-.25c-.06 0-.07-.09-.07-.16s-.35-.25-.25-.5c.28.26.5.58.66.93"/><path id="z0uey" d="M650.42 14949.25c0-.21.28-.28.25-.51 0-.06.02-.12.07-.16l.19-.07c-.06.3-.25.57-.51.74"/><path id="z0uez" d="M649 14951.17c0 .17-.13.31-.3.33-.17 0-.26-.07-.28-.24.24.24.41.06.58-.09"/><path id="z0ueA" d="M638.09 14966.66v.16c-.13.15-.22.34-.41.43.08-.23.22-.44.41-.59"/><path id="z0ueB" d="M501.2 14966.82c-.13 0-.19-.11-.27-.19-2.26-2.27-4.52-4.54-6.8-6.79-.19-.19-.22-.33 0-.51.47-.49.94-1 1.42-1.46.48-.46 1.07-1 1.58-1.51l8.34-8.33c.21-.2.45-.37.65-.58a.6.6 0 0 0 0-1c-2.46-2.29-4.74-4.75-7.17-7.08-1.57-1.5-3.1-3.05-4.65-4.58-.4-.41-.4-.41 0-.81l6.63-6.55c.36-.36.4-.36.77 0 2.66 2.65 5.3 5.33 8 8 1.3 1.26 2.58 2.53 3.85 3.8a.58.58 0 0 0 1 0c2.16-2.16 4.3-4.35 6.5-6.47 1.81-1.75 3.58-3.55 5.37-5.33.26-.25.44-.24.7 0 2.21 2.23 4.44 4.46 6.68 6.68a.4.4 0 0 1 0 .63c-.2.22-.44.42-.68.61l-6 6c-1.7 1.65-3.38 3.33-5.07 5l-.2.19c-.38.29-.4.57-.07.89l5.57 5.5 6.31 6.29c.4.4.4.53-.06.88l-.44.38c-2 2-4.09 4.08-6.12 6.13-.3.31-.47.28-.76 0-3.8-3.83-7.63-7.65-11.47-11.48-.75-.75-.86-.75-1.6 0-1.75 1.74-3.47 3.52-5.25 5.22-2.17 2.09-4.26 4.25-6.4 6.35-.1.09-.17.2-.3.2"/><path id="z0ueC" d="M525.49 14926.01c0 .16-.12.25-.21.34l-5.45 5.38c-.25.26-.45.2-.67 0l-1.62-1.64-3.06-3.1c-.48-.5-.57-.5-1.06 0l-4.68 4.68c-.37.36-.43.36-.81 0-1.77-1.76-3.53-3.53-5.31-5.28-.28-.28-.33-.45 0-.74 3.69-3.54 7.25-7.2 10.88-10.79.44-.43.44-.43.89 0l10.8 10.73c.14.13.3.22.32.43"/><path id="z0ueD" d="M508.35 14962.18c.12 0 .2.11.26.19l4.7 4.72c.06.07.15.12.21.19.28.32.52.26.8 0l4.77-4.77c.4-.41.4-.41.81 0l5 5c.55.54.55.53 0 1.08l-9.87 9.86-.68.64c-.38.37-.5.37-.88 0-1.93-1.92-3.83-3.87-5.78-5.76-1.67-1.61-3.3-3.26-5-4.88-.39-.39-.39-.42 0-.8l5.3-5.22c.1-.09.16-.2.31-.2"/><path id="z0ueE" d="M645.42 14947.34c0 .37.32.57.5.84.7 1.08 1.47 2.12 2.22 3.18v.07c.33.6.7.59 1.08 0 .74-1.21 1.58-2.36 2.39-3.52.47-.69.89-1.42 1.39-2.08.64-.85 1.17-1.77 1.8-2.62.5-.68 1-1.41 1.43-2.11.19-.24.36-.48.52-.74.1-.14.27-.2.44-.18h1.46c.33 0 .52 0 .25.4v.19l-1.74 2.5c-.5.71-1 1.42-1.46 2.12-.46.7-1 1.58-1.61 2.3-.1.3-.35.49-.5.76-.16.16-.3.36-.38.58a2 2 0 0 1-.37.49l-1.07 1.57c-.1.11-.17.24-.23.37-.25.26-.46.55-.62.86l-.48.67c0 .13-.07.21-.14.31s-.26.3-.13.52c.1.1.18.22.24.35l1.25 1.83c.11.08.2.2.27.32.32.58.68 1.13 1.09 1.66.48.62.88 1.3 1.35 1.93.82 1.1 1.56 2.25 2.35 3.37.9 1.29 1.82 2.56 2.68 3.88.09.14.2.26.3.4.09.14.12.48-.2.5-.6.05-1.21.05-1.82 0a.82.82 0 0 1-.58-.43c-1-1.5-2-3-3.06-4.45l-3.27-4.75c-.55-.8-1.14-1.57-1.63-2.41a.91.91 0 0 0-.41-.34.24.24 0 0 0-.35.1c-.76 1.2-1.6 2.36-2.41 3.52-.82 1.16-1.68 2.5-2.57 3.72-.37.6-.77 1.18-1.22 1.72-.67.94-1.34 1.88-2 2.84a.84.84 0 0 1-.8.42h-1.4c-.3 0-.36-.12-.21-.35l1.1-1.64 1.87-2.73 1.79-2.58 1.89-2.77 1.87-2.67c.29-.42.56-.85.88-1.25a.6.6 0 0 0 0-.74c-.86-1.21-1.74-2.41-2.6-3.63-.84-1.22-1.75-2.57-2.65-3.85-.63-.91-1.3-1.81-1.94-2.72l-1.81-2.61c-.18-.26-.1-.35.18-.36h1.83c.4 0 .54.41.73.67.82 1.15 1.6 2.31 2.4 3.47l1.8 2.67c.1.15.23.28.34.42"/><path id="z0ueF" d="M642.18 14964.75c.28-.52.6-1.01.95-1.49.48-.7 1-1.4 1.46-2.1l1.47-2.09c.47-.68.94-1.36 1.39-2.06.33-.41.63-.86.87-1.34.07-.16.22-.19.39-.1.23.09.43.25.56.46.63 1 1.27 1.9 1.91 2.85l2.24 3.27 1.9 2.71 1.39 2.05c.18.26.35.53.54.78.14.2.37.32.61.3h1.54c.13 0 .26 0 .32-.13s0-.2-.1-.3c-.66-.93-1.3-1.88-2-2.8-.7-.94-1.2-1.69-1.79-2.53-.59-.84-1-1.4-1.47-2.1-.47-.7-1-1.36-1.44-2.07-.42-.54-.8-1.12-1.11-1.73.32.06.35.42.57.6.21.38.47.74.75 1.07.24.37.52.71.75 1.1l1.07 1.57a3 3 0 0 1 .43.58c.26.28.41.64.66.92.48.78 1 1.54 1.58 2.25.15.27.32.51.51.74l.9 1.35a8 8 0 0 0 .58.85c.19.25.45.54.09.87h-.06a8 8 0 0 0-1.62 0c-.45.04-.88-.2-1.09-.6l-.38-.54c-.13-.27-.35-.48-.49-.75s-.4-.65-.67-.9l-.09-.18a4.6 4.6 0 0 1-.49-.75c-.27-.28-.39-.65-.68-.9l-.08-.18c-.24-.29-.4-.64-.66-.92-.28-.46-.58-.9-.92-1.33 0-.05 0-.1-.08-.17-.41-.54-.75-1.13-1.17-1.66l-.08-.17c-.4-.55-.78-1.1-1.17-1.66l-.5-.75c-.19-.22-.3-.49-.48-.7-.18-.2-.4-.3-.68 0s-.35.5-.51.75c-.16.26-.3.28-.33.5-.37.5-.69 1-1.08 1.5l-.5.75a6 6 0 0 1-.73 1c-.6.95-1.23 1.88-1.91 2.77-.3.5-.63.96-1 1.4h-.1"/><path id="z0ueG" d="M654.1 14947.68c.25-.53.57-1.03.94-1.48.57-.89 1.2-1.76 1.81-2.64.48-.68 1-1.37 1.44-2.05.19-.26.3-.59.62-.75 0 .31-.22.49-.37.71l-3 4.37c-.35.5-.68 1-1 1.51-.1.15-.2.31-.4.33"/><path id="z0ueH" d="M650.4 14954.18l-.3-.27c-.16-.27 0-.46.15-.66l.19-.25s.07.12 0 .15c-.16.31-.19.67-.08 1"/><path id="z0ueI" d="M652.42 14956.92c-.27-.12-.32-.45-.57-.59-.06-.11-.19-.18-.19-.32.48.12.52.59.76.91"/><path id="z0ueJ" d="M652.85 14949.5c0-.23.22-.32.3-.5.08-.18.1-.37.36-.33-.18.3-.26.7-.66.84"/><path id="z0ueK" d="M653.92 14959.09a3.72 3.72 0 0 1-.75-1.09c.33.3.59.67.75 1.09"/><path id="z0ueL" d="M656.08 14962.17c-.34-.22-.45-.6-.66-.92.3.24.53.56.66.92"/><path id="z0ueM" d="M651.5 14951.41c.01-.15.12-.28.27-.31-.04.33-.22.63-.5.81-.12-.25.2-.31.23-.5"/><path id="z0ueN" d="M651.5 14951.41c0 .22-.25.29-.24.51.01.22-.11.37-.34.41.08-.36.29-.69.58-.92"/><path id="z0ueO" d="M651.6 14947.59c-.21.32-.33.7-.67.92a2 2 0 0 1 .67-.92"/><path id="z0ueP" d="M658.17 14965.16a1.21 1.21 0 0 1-.51-.74c.22.2.4.46.51.74"/><path id="z0ueQ" d="M655.42 14961.25a1.66 1.66 0 0 1-.43-.58c.23.1.4.33.43.58"/><path id="z0ueR" d="M653.51 14948.67c-.17.05-.21.25-.36.33a.7.7 0 0 1 .46-.56 1.6 1.6 0 0 0-.1.23"/><path id="z0ueS" d="M656.59 14967.09c.32.19.4.58.67.82a1 1 0 0 0 .66.27 7.43 7.43 0 0 1 1.76.06h-2a.55.55 0 0 1-.43-.2c-.3-.28-.52-.62-.67-1"/><path id="z0ueT" d="M637.51 14968.25c.7-.07 1.4-.1 2.09-.07a1 1 0 0 0 .58-.27c-.05.37-.35.33-.6.36-.69.1-1.38.1-2.07 0"/><path id="z0ueU" d="M650 14957.51c.46.5.85 1.06 1.17 1.66a6.4 6.4 0 0 1-1.17-1.66"/><path id="z0ueV" d="M651.25 14959.34c.34.32.62.7.84 1.11.12.17.32.31.33.55a8 8 0 0 1-1.17-1.66"/><path id="z0ueW" d="M646.42 14958.83a7 7 0 0 1 1.08-1.5 5.51 5.51 0 0 1-1.08 1.5"/><path id="z0ueX" d="M648.35 14956.09c.17-.4.34-.44.62-.16.23.24.41.52.54.83-.18-.12-.32-.3-.41-.5-.23-.38-.37-.41-.75-.17"/><path id="z0ueY" d="M652.5 14961.17c.4.37.72.82.92 1.33-.36-.4-.66-.85-.92-1.33"/><path id="z0ueZ" d="M645.19 14960.59c.26-.32.38-.75.73-1a2 2 0 0 1-.73 1"/><path id="z0ueaa" d="M654.16 14963.59c.37.2.48.58.68.91-.36-.21-.46-.6-.68-.91"/><path id="z0ueab" d="M653.42 14962.5c.3.24.53.56.66.92-.28-.26-.5-.57-.66-.92"/><path id="z0ueac" d="M655.42 14965.42c.36.2.47.59.67.91-.36-.21-.46-.6-.67-.91"/><path id="z0uead" d="M654.84 14964.5c.22.21.38.47.49.75a1.19 1.19 0 0 1-.49-.75"/><path id="z0ueae" d="M656.09 14966.33c.24.2.41.46.5.75-.24-.2-.42-.45-.5-.75"/><path id="z0ueaf" d="M647.83 14956.83c.1-.29.28-.55.52-.74-.09.3-.27.55-.51.74"/><path id="z0ueag" d="M557.47 14936.76c.33-.75.63-1.5.9-2.28l.7-1.79c.23-.6.58-1.42.87-2.13.12-.29.28-.49.64-.46.36.03.5 0 .75 0 .33 0 .61.22.68.54.35.95.72 1.9 1.08 2.84.23.52.43 1.05.59 1.6.12.38.27.77.45 1.13.17.6.4 1.17.69 1.72.2.66.45 1.3.73 1.92l.44 1.2c.33.93.7 1.85 1.05 2.77.35.92.65 1.7 1 2.54.2.53.43 1.07.62 1.61s.36 1 .58 1.5c.22.5.36 1 .55 1.51l.69 1.73c.18.48.36 1 .55 1.46.19.46.42 1.16.68 1.73.17.37.28.77.42 1.16.22.5.41 1.03.58 1.55.12.44.34.86.5 1.3.27.7.55 1.41.8 2.12.27.71.46 1.24.73 1.84.27.6.43 1.13.66 1.7.23.55.38 1 .55 1.45.07.23.16.44.27.65.12.26 0 .51-.21.52-.81.06-1.62.06-2.43 0a7.47 7.47 0 0 1-1-2.16c-.37-.9-.74-1.79-1-2.7-.18-.54-.4-1-.6-1.57-.2-.56-.36-1.08-.62-1.6-.2-.37-.3-.79-.46-1.18a123.7 123.7 0 0 1-1.37-3.65 1 1 0 0 0-.37-.48.12.12 0 0 1 0-.17.5.5 0 0 1 .65.44c.16.62.48 1.18.66 1.78.18.6.47 1.1.63 1.67.14.42.3.84.48 1.24.54 1.41 1.06 2.82 1.62 4.22.33.86.6 1.75 1 2.58.1.38.25.74.44 1.07.12.14.23.25.42.22.46-.06.94-.08 1.4-.06.24 0 .33-.06.27-.32-.17-.54-.37-1.07-.6-1.59-.22-.64-.47-1.27-.71-1.9-.33-.82-.64-1.65-1-2.48-.22-.59-.43-1.2-.68-1.78-.25-.58-.4-1.06-.6-1.58-.23-.52-.43-1.05-.6-1.59-.15-.42-.3-.83-.5-1.24-.35-.86-.67-1.75-1-2.62-.31-.87-.68-1.78-1-2.68-.3-.9-.66-1.78-1-2.67-.32-.89-.66-1.72-1-2.59-.17-.5-.37-1-.57-1.5-.2-.52-.47-1.13-.64-1.7a198.7 198.7 0 0 1-1.45-3.75c-.33-.88-.7-1.75-1-2.64a25.9 25.9 0 0 0-.61-1.59c-.22-.53-.44-1-.6-1.54-.18-.43-.34-.87-.47-1.32 0-.15-.17-.22-.31-.25-.14-.03-.25 0-.38 0-.47-.07-.72.07-.9.58-.38 1-.8 2.06-1.21 3.08-.35.86-.7 1.72-1 2.58-.31.86-.65 1.73-1 2.6-.35.85-.65 1.66-1 2.5-.23.52-.43 1.05-.6 1.58-.06.22-.1.5-.43.46a.23.23 0 0 1 0-.25l.66-1.84c.18-.24.3-.52.35-.82l.49-1.34a2 2 0 0 0 .33-.75c.06-.39.33-.7.42-1.09.08-.25.2-.5.33-.74z"/><path id="z0ueah" d="M568.13 14954.66v.15h-.57c-.14-.03-.3-.03-.45 0h-13.4a.63.63 0 0 0-.65.48c-.34 1-.75 2-1.15 3-.18.45-.36.9-.52 1.38l-.26.73h-.08c-.2.44-.36.91-.5 1.39-.05.27-.17.52-.34.75-.42 1.07-.87 2.13-1.24 3.2-.21.48-.39.96-.53 1.47-.06.25-.19.48-.37.68a.54.54 0 0 1-.53.24h-1.49c-.57 0-.67-.15-.47-.68.02-.06.04-.11.07-.15 0-.1 0-.2.06-.26a.09.09 0 0 1 .12 0c.06.06.08.15.07.24 0 .52 0 .5.51.5.34-.05.67-.05 1 0 .26.06.52-.07.62-.3.25-.53.47-1.07.65-1.61.4-1 .8-1.95 1.14-2.94.35-1 .67-1.76 1-2.63.33-.87.67-1.82 1.06-2.7.16-.37.3-.75.42-1.12.12-.37.43-1 .55-1.48.12-.48.42-.52.8-.51h13.7c.21-.03.42-.03.62 0 .06 0 .1.03.14.08"/><path id="z0ueai" d="M573.96 14962.01c-.32-.84-.64-1.69-1-2.53a25.4 25.4 0 0 1-1-2.65c-.16-.45-.35-.9-.52-1.35-.23-.61-.42-1.24-.71-1.84-.16-.37-.3-.74-.42-1.12-.2-.51-.4-1-.58-1.54-.33-.89-.64-1.78-1-2.65-.18-.41-.33-.85-.48-1.27-.43-1.25-.92-2.47-1.4-3.71-.46-1.24-1-2.47-1.42-3.7a5.78 5.78 0 0 1-.6-1.82c.33.83.62 1.67.96 2.49.34.82.67 1.83 1.08 2.72.17.4.32.81.46 1.23.29.89.66 1.74 1 2.62.24.68.52 1.36.79 2l1 2.69c.32.86.6 1.74 1 2.59.23.54.4 1.11.65 1.64.24.53.36 1 .55 1.43.38.94.75 1.89 1.07 2.85.24.55.45 1.13.62 1.71.04.05.04.13 0 .18"/><path id="z0ueaj" d="M553.97 14954.75h13.24c.12 0 .25 0 .35.07h-13.59v-.05"/><path id="z0ueak" d="M573.96 14962.01v-.18c.32.68.6 1.38.83 2.1.33.84.63 1.7 1 2.53.17.4.27.83.48 1.23.21.4 0 .56-.38.56h-2c-.12 0-.26 0-.33-.1h2.24c.37 0 .45-.17.32-.5-.36-1-.74-1.95-1.12-2.92-.28-.87-.62-1.73-1-2.56v-.16"/><path id="z0ueal" d="M553.97 14954.75v.08c-.69 0-.71.08-.93.74-.22.66-.49 1.24-.73 1.87-.25.77-.56 1.51-.92 2.23 0-.45.27-.77.4-1.16.18-.54.39-1.08.62-1.6.2-.46.38-.92.53-1.39.26-.73.27-.78 1-.77"/><path id="z0ueam" d="M545.82 14967.09h-.11c.26-.5.35-1.07.62-1.57a9 9 0 0 0 .44-1.16c.32-.78.62-1.58.93-2.38l1.09-2.76.61-1.62 1-2.52.51-1.31c.51-1.35 1-2.69 1.57-4a69.43 69.43 0 0 0 1.69-4.35c.17-.47.37-.95.51-1.44 0-.13 0-.28.2-.34v.25c.06.33 0 .66-.17.95-.22.57-.43 1.14-.67 1.69-.24.55-.38 1-.61 1.54-.23.54-.37.94-.56 1.42l-.71 1.8c-.23.6-.35 1-.55 1.43-.2.43-.43 1.19-.7 1.76a9 9 0 0 0-.41 1.09c-.29.88-.69 1.71-1 2.59-.18.49-.38 1-.57 1.46-.25.52-.46 1.06-.63 1.62a7.6 7.6 0 0 1-.45 1.07l-.59 1.55c-.21.55-.45 1.06-.63 1.62s-.38.85-.5 1.31a.46.46 0 0 1-.33.34"/><path id="z0uean" d="M545.64 14967.33c0 .75 0 .75.75.75h1.07c.22.02.44-.03.61-.16 0 .07-.06.15-.1.23-.4.07-.8.09-1.22.05a6 6 0 0 1-1.27 0c-.36-.36 0-.58.16-.83"/><path id="z0ueao" d="M545.48 14968.16h2.49c0 .08-.12.09-.21.09h-2.1a.48.48 0 0 1-.18-.08"/><path id="z0ueap" d="M555.9 14940.93a1 1 0 0 1-.35.82l.35-.82"/><path id="z0ueaq" d="M550.21 14962.57c0-.28.25-.48.34-.75.03.3-.1.58-.34.75"/><path id="z0uear" d="M556.72 14938.84c.03.29-.1.57-.33.75l.33-.75"/><path id="z0ueas" d="M557.47 14937.01c0 .3-.23.49-.33.74a1 1 0 0 1 .33-.74"/><path id="z0ueat" d="M564.81 14937.83v.1a5.52 5.52 0 0 1-.68-1.57c-.43-1-.82-2.07-1.2-3.11-.32-.86-.7-1.7-1-2.58a.64.64 0 0 0-.64-.5c-1.2 0-1.21-.05-1.62 1.13l-.48 1.23a.22.22 0 0 1-.16.16l.66-1.77v-.07c.16-.26.13-.67.48-.8.4-.06.8-.06 1.19 0a.6.6 0 0 1 .55.4c.29.76.56 1.54.86 2.3l1.13 2.92c.29.73.57 1.46.82 2.2"/><path id="z0ueau" d="M649.67 14950.33c.21-.31.32-.7.67-.91-.2.32-.31.71-.67.91"/><path id="z0ueav" d="M647.67 14950.18c0 .21.28.28.25.5-.33-.23-.45-.62-.68-.92.22.06.29.27.43.42"/><path id="z0ueaw" d="M650.25 14953.25c0 .22-.23.41-.15.66a.42.42 0 0 1 .15-.66"/><path id="z0ueax" d="M553.47 14954.67c.13-.12.29-.08.43-.08h13.72c.15 0 .31 0 .44.07h-14.59"/><path id="z0ueay" d="M566.88 14952.26h-12c-.15 0-.32.05-.41-.12-.1-.17 0-.29.12-.44.19-.36.33-.75.44-1.15.3-.9.69-1.79 1-2.69a9.9 9.9 0 0 1 .6-1.53 9 9 0 0 0 .44-1.2c.49-1.2.87-2.46 1.38-3.67.37-.88.66-1.8 1-2.68.2-.49.38-1 .56-1.5a28 28 0 0 0 .6-2c.03-.11.08-.22.15-.3 0-.07.1-.15.2-.13.08.02.14.1.14.18.22 1 .53 1.97.92 2.91.34.9.65 1.81 1 2.71.22.53.4 1.08.59 1.63.3.92.69 1.82 1 2.73.16.41.3.83.44 1.25.3.92.68 1.8 1 2.71.16.57.37 1.12.63 1.65.2.4.2.88.5 1.26.16.18-.07.42-.37.35zm8.98 15.42l-.67-1.89c-.23-.63-.5-1.15-.7-1.75-.18-.6-.33-1-.52-1.42-.38-.87-.66-1.78-1-2.65a5.27 5.27 0 0 1-.44-1.1c-.16-.56-.36-1.12-.6-1.66-.2-.6-.43-1.2-.68-1.79-.25-.59-.33-1-.57-1.46-.22-.48-.4-.98-.56-1.49-.2-.55-.46-1.08-.64-1.65a4.72 4.72 0 0 0-.38-1 12.5 12.5 0 0 1-.62-1.57c-.28-.65-.53-1.32-.78-2-.18-.4-.34-.8-.46-1.22-.17-.52-.36-1.03-.58-1.54-.14-.44-.3-.88-.48-1.3a13.6 13.6 0 0 1-.64-1.65c-.16-.5-.35-.98-.56-1.45-.21-.49-.37-1-.58-1.49a29.4 29.4 0 0 1-.78-2c-.15-.46-.4-.88-.5-1.35a9.52 9.52 0 0 0-.61-1.56c-.22-.52-.37-1.06-.61-1.58-.32-.7-.23-.75-1-.74h-.5a.25.25 0 0 0-.28.2c-.21.65-.52 1.28-.74 1.93-.31.9-.76 1.73-1 2.65 0 .1-.08.17-.12.26-.22.53-.47 1.05-.64 1.6-.17.53-.37 1-.56 1.45-.2.46-.4 1.07-.63 1.6-.17.32-.3.66-.4 1-.1.55-.45 1-.58 1.54-.07.3-.26.57-.32.88a.49.49 0 0 1-.28.4c-.06.3-.15.61-.27.9-.26.47-.45.97-.6 1.48-.16.51-.41 1-.57 1.5-.21.68-.57 1.34-.78 2.05-.03.1-.07.18-.11.26-.27.53-.49 1.07-.66 1.63-.13.48-.3.94-.51 1.4-.17.5-.37.99-.6 1.46-.16.29-.28.6-.35.91-.13.55-.42 1-.6 1.54-.13.46-.3.9-.5 1.34-.25.52-.42 1.07-.63 1.6l-.57 1.48c-.23.63-.5 1.24-.73 1.87-.16.45-.35.9-.52 1.34-.17.45-.47 1.05-.64 1.6-.09.3-.22.58-.4.84 0 .14 0 .28-.04.41-.08.4 0 .5.42.45.42-.07.85-.07 1.28 0 .2.07.4-.02.5-.2.15-.24.28-.5.38-.78.2-.6.41-1.18.67-1.75l.55-1.42c.17-.42.33-1.05.57-1.54.24-.49.26-.79.44-1.16.26-.56.45-1.14.67-1.72.16-.5.36-1 .59-1.49.17-.33.19-.68.34-1a14 14 0 0 0 .7-1.76c.1-.33.24-.5.59-.49a.63.63 0 0 1 .36 0h13.86a.77.77 0 0 1 .37 0h.07c.4 0 .55.21.58.56.02.15.06.3.13.43.27.6.51 1.2.72 1.83.18.46.32.94.53 1.38.2.44.45 1.12.66 1.68.2.56.34 1 .53 1.42.37.87.7 1.76 1 2.64.29.88.74 1.74 1 2.65.07.3.23.73.58.72.62 0 1.24 0 1.87-.06.13 0 .22-.05.17-.2z"/><path id="z0ueaz" d="M599.93 14955.74c-.05 1-.3 1.9-.33 2.84a9.5 9.5 0 0 1-.52 2.33 6.92 6.92 0 0 1-2.36 3.66 8 8 0 0 1-4.32 1.53c-1.05.1-2.1.09-3.15-.05a7.78 7.78 0 0 1-4.24-2.12 9.34 9.34 0 0 1-1.65-2.57c-.17-.6-.38-1.2-.62-1.78-.21-.33-.1-.76-.17-1.14-.3-1.31-.42-2.66-.34-4-.03-1.44.08-2.88.34-4.3.1-.78.37-1.5.53-2.25.14-.53.35-1.03.62-1.5.25-.55.56-1.07.93-1.54a8.12 8.12 0 0 1 2.14-1.85 9.2 9.2 0 0 1 4.6-1c.92 0 1.83.11 2.72.35a6.36 6.36 0 0 1 3.76 2.53c.4.58.73 1.2 1 1.84.26.63.27 1.32.59 1.93.2.37.09.82.16 1.23a26 26 0 0 1 .34 5.91zm2.63-7.72v-19.75c0-.33-.12-.45-.44-.44h-1.33c-.6 0-.64 0-.63.64 0 3.91-.07 7.83.06 11.74 0 .9 0 1.8.08 2.7v.87a.27.27 0 0 1-.15.28.3.3 0 0 1-.34-.08 2.7 2.7 0 0 1-.2-.27 9.26 9.26 0 0 0-2.26-2.4 9.45 9.45 0 0 0-5.46-1.8c-1.55-.1-3.1.07-4.6.47-1.08.33-2.09.84-3 1.5a9.41 9.41 0 0 0-2.43 2.64 12 12 0 0 0-1.3 2.71c-.23.73-.41 1.48-.6 2.24a23.23 23.23 0 0 0-.45 4.15 27 27 0 0 0 0 3.24c.09 1.97.51 3.92 1.25 5.75a12.11 12.11 0 0 0 1.77 2.93 9 9 0 0 0 3.66 2.62 14.39 14.39 0 0 0 4.49.88c1.1.01 2.21-.11 3.29-.36a9.29 9.29 0 0 0 5.29-3.41l.58-.75c.1-.12.27-.17.42-.12.17.05.17.2.18.33.06 1.15.37 2.27.49 3.41 0 .2.08.38.29.4.33.02.67.02 1 0 .2 0 .27-.2.29-.37a4.2 4.2 0 0 0 0-.5v-19.3z"/></defs><g><g transform="translate(-493 -14914)"><g><g><use fill="#fff" xlink:href="#z0uea"/></g><g><g><use fill="#fff" xlink:href="#z0ueb"/></g></g><g><use fill="#fff" xlink:href="#z0uec"/></g><g><use fill="#fff" xlink:href="#z0ued"/></g><g><use fill="#fff" xlink:href="#z0uee"/></g><g><use fill="#fff" xlink:href="#z0uef"/></g><g><use fill="#fff" xlink:href="#z0ueg"/></g><g><use fill="#fff" xlink:href="#z0ueh"/></g><g><use fill="#fff" xlink:href="#z0uei"/></g><g><use fill="#fff" xlink:href="#z0uej"/></g><g><use fill="#fff" xlink:href="#z0uek"/></g><g><use fill="#fff" xlink:href="#z0uel"/></g><g><use fill="#fff" xlink:href="#z0uem"/></g><g><use fill="#fff" xlink:href="#z0uen"/></g><g><use fill="#fff" xlink:href="#z0ueo"/></g><g><use fill="#fff" xlink:href="#z0uep"/></g><g><use fill="#fff" xlink:href="#z0ueq"/></g><g><use fill="#fff" xlink:href="#z0uer"/></g><g><use fill="#fff" xlink:href="#z0ues"/></g><g><use fill="#fff" xlink:href="#z0uet"/></g><g><use fill="#fff" xlink:href="#z0ueu"/></g><g><use fill="#fff" xlink:href="#z0uev"/></g><g><use fill="#fff" xlink:href="#z0uew"/></g><g><use fill="#fff" xlink:href="#z0uex"/></g><g><use fill="#fff" xlink:href="#z0uey"/></g><g><use fill="#fff" xlink:href="#z0uez"/></g><g><use fill="#fff" xlink:href="#z0ueA"/></g><g><use fill="#fff" xlink:href="#z0ueB"/></g><g><use fill="#fff" xlink:href="#z0ueC"/></g><g><use fill="#fff" xlink:href="#z0ueD"/></g><g><use fill="#fff" xlink:href="#z0ueE"/></g><g><use fill="#fff" xlink:href="#z0ueF"/></g><g><use fill="#fff" xlink:href="#z0ueG"/></g><g><use fill="#fff" xlink:href="#z0ueH"/></g><g><use fill="#fff" xlink:href="#z0ueI"/></g><g><use fill="#fff" xlink:href="#z0ueJ"/></g><g><use fill="#fff" xlink:href="#z0ueK"/></g><g><use fill="#fff" xlink:href="#z0ueL"/></g><g><use fill="#fff" xlink:href="#z0ueM"/></g><g><use fill="#fff" xlink:href="#z0ueN"/></g><g><use fill="#fff" xlink:href="#z0ueO"/></g><g><use fill="#fff" xlink:href="#z0ueP"/></g><g><use fill="#fff" xlink:href="#z0ueQ"/></g><g><use fill="#fff" xlink:href="#z0ueR"/></g><g><use fill="#fff" xlink:href="#z0ueS"/></g><g><use fill="#fff" xlink:href="#z0ueT"/></g><g><use fill="#fff" xlink:href="#z0ueU"/></g><g><use fill="#fff" xlink:href="#z0ueV"/></g><g><use fill="#fff" xlink:href="#z0ueW"/></g><g><use fill="#fff" xlink:href="#z0ueX"/></g><g><use fill="#fff" xlink:href="#z0ueY"/></g><g><use fill="#fff" xlink:href="#z0ueZ"/></g><g><use fill="#fff" xlink:href="#z0ueaa"/></g><g><use fill="#fff" xlink:href="#z0ueab"/></g><g><use fill="#fff" xlink:href="#z0ueac"/></g><g><use fill="#fff" xlink:href="#z0uead"/></g><g><use fill="#fff" xlink:href="#z0ueae"/></g><g><use fill="#fff" xlink:href="#z0ueaf"/></g><g><use fill="#fff" xlink:href="#z0ueag"/></g><g><use fill="#fff" xlink:href="#z0ueah"/></g><g><use fill="#fff" xlink:href="#z0ueai"/></g><g><use fill="#fff" xlink:href="#z0ueaj"/></g><g><use fill="#fff" xlink:href="#z0ueak"/></g><g><use fill="#fff" xlink:href="#z0ueal"/></g><g><use fill="#fff" xlink:href="#z0ueam"/></g><g><use fill="#fff" xlink:href="#z0uean"/></g><g><use fill="#fff" xlink:href="#z0ueao"/></g><g><use fill="#fff" xlink:href="#z0ueap"/></g><g><use fill="#fff" xlink:href="#z0ueaq"/></g><g><use fill="#fff" xlink:href="#z0uear"/></g><g><use fill="#fff" xlink:href="#z0ueas"/></g><g><use fill="#fff" xlink:href="#z0ueat"/></g><g><use fill="#fff" xlink:href="#z0ueau"/></g><g><use fill="#fff" xlink:href="#z0ueav"/></g><g><use fill="#fff" xlink:href="#z0ueaw"/></g><g><use fill="#fff" xlink:href="#z0ueax"/></g><g><use fill="#fff" xlink:href="#z0ueay"/></g><g><use fill="#fff" xlink:href="#z0ueaz"/></g></g></g></g></svg>