<svg xmlns="http://www.w3.org/2000/svg" xmlns:xlink="http://www.w3.org/1999/xlink" width="167" height="75" viewBox="0 0 167 75"><defs><path id="bbu9a" d="M836.66 14965.9l.38 2.62.58-2.36 4.05-13.88h2.29l3.95 13.88.56 2.41.44-2.67 3.2-13.59h2.72l-4.98 19.88h-2.47l-4.22-14.51-.32-1.5-.32 1.5-4.37 14.51h-2.46l-4.95-19.88h2.69l3.23 13.59z"/><path id="bbu9b" d="M857.97 14972.19h2.1v-19.91h-2.1v19.91z"/><path id="bbu9c" d="M882.07 14972.19h-2.72l-10.28-15.35v15.35h-2.71v-19.91h2.71l10.31 15.41v-15.41h2.69v19.91z"/><path id="bbu9d" d="M900.93 14970.46a6.34 6.34 0 0 1-2.93 2.25c-1.4.52-2.88.78-4.37.74a8.42 8.42 0 0 1-4.5-1.18 8.25 8.25 0 0 1-3-3.37 11.39 11.39 0 0 1-1.09-5.06v-1.75c0-3.1.74-5.53 2.2-7.24a7.56 7.56 0 0 1 6.11-2.57c1.88-.09 3.73.5 5.21 1.65a7.22 7.22 0 0 1 2.42 4.7h-2.72c-.5-2.75-2.13-4.1-4.88-4.1a4.8 4.8 0 0 0-4.14 1.91 9.26 9.26 0 0 0-1.42 5.6v1.68a8.67 8.67 0 0 0 1.6 5.52 5.16 5.16 0 0 0 4.32 2c.9.01 1.81-.1 2.7-.32a4.2 4.2 0 0 0 1.88-1.16v-4.67h-4.79v-2.2h7.51z"/><path id="bbu9e" d="M911.11 14963.96a13.16 13.16 0 0 1-5.12-2.48 4.76 4.76 0 0 1-1.6-3.64 5 5 0 0 1 2-4.05 7.76 7.76 0 0 1 5.08-1.6 8.23 8.23 0 0 1 3.8.83 6.09 6.09 0 0 1 3.48 5.44H916a3.75 3.75 0 0 0-1.18-2.95 5.91 5.91 0 0 0-6.5-.18 3 3 0 0 0-1.14 2.45c0 .84.4 1.63 1.07 2.13 1.1.77 2.33 1.3 3.64 1.6 1.4.34 2.75.88 4 1.59a6.18 6.18 0 0 1 2.16 2c.49.83.73 1.78.71 2.75a4.8 4.8 0 0 1-1.95 4 8.33 8.33 0 0 1-5.24 1.5 9.34 9.34 0 0 1-4-.82 6.46 6.46 0 0 1-2.84-2.24 5.37 5.37 0 0 1-1-3.23h2.75a3.58 3.58 0 0 0 1.4 3 5.92 5.92 0 0 0 3.7 1.09 5.36 5.36 0 0 0 3.31-.88 2.89 2.89 0 0 0 1.15-2.4c.05-.9-.35-1.78-1.07-2.33-1.2-.75-2.5-1.29-3.87-1.6"/><path id="bbu9f" d="M757.57 14933.78l39.85 1.96 9.29 18.97-13.96 12.92-5.86-24.21-29.32-9.64z"/><path id="bbu9g" d="M761.57 14993.14l65.91-61.96 5.82 15.67-7.45-2.6v15.81l-64.28 33.08z"/><path id="bbu9h" d="M752.16 14919.8l48.9 2.99 18.93 40.29-19.76 10.17-10.74-41.24-37.33-12.21z"/></defs><g><g transform="translate(-752 -14919)"><g><g><use fill="#fff" xlink:href="#bbu9a"/></g><g><use fill="#fff" xlink:href="#bbu9b"/></g><g><use fill="#fff" xlink:href="#bbu9c"/></g><g><g><use fill="#fff" xlink:href="#bbu9d"/></g><g><use fill="#fff" xlink:href="#bbu9e"/></g><g><use fill="#fff" xlink:href="#bbu9f"/></g><g><use fill="#fff" xlink:href="#bbu9g"/></g><g><use fill="#fff" xlink:href="#bbu9h"/></g></g></g></g></g></svg>