<svg xmlns="http://www.w3.org/2000/svg" xmlns:xlink="http://www.w3.org/1999/xlink" width="116" height="107" viewBox="0 0 116 107"><defs><path id="rn90a" d="M7.07 852.15l112.84 65.15 2.44-1.4L7.07 849.34v2.81z"/><path id="rn90b" d="M7.07 867.33l99.7 57.56 2.43-1.41L7.07 864.52v2.81z"/><path id="rn90c" d="M7.07 882.51l86.55 49.97 2.44-1.41L7.07 879.7v2.81z"/><path id="rn90d" d="M7.07 897.68l73.41 42.38 2.43-1.4-75.84-43.79v2.81z"/><path id="rn90e" d="M7.07 912.86l60.26 34.79 2.44-1.4-62.7-36.2v2.81z"/><path id="rn90f" d="M7.07 928.04l47.12 27.2 2.43-1.41-49.55-28.6v2.81z"/></defs><g><g opacity=".4" transform="translate(-7 -849)"><use fill="#60a8b7" xlink:href="#rn90a"/></g><g opacity=".4" transform="translate(-7 -849)"><use fill="#60a8b7" xlink:href="#rn90b"/></g><g opacity=".4" transform="translate(-7 -849)"><use fill="#60a8b7" xlink:href="#rn90c"/></g><g opacity=".4" transform="translate(-7 -849)"><use fill="#60a8b7" xlink:href="#rn90d"/></g><g opacity=".4" transform="translate(-7 -849)"><use fill="#60a8b7" xlink:href="#rn90e"/></g><g opacity=".4" transform="translate(-7 -849)"><use fill="#60a8b7" xlink:href="#rn90f"/></g></g></svg>