<svg xmlns="http://www.w3.org/2000/svg" xmlns:xlink="http://www.w3.org/1999/xlink" width="39" height="42" viewBox="0 0 39 42"><defs><path id="z6r3a" d="M575.55 6316.2c.88-.54 1.57-.14 1.5.9v7.43c0 1.02-.72 1.43-1.6.9l-6-3.62a1 1 0 0 1 0-1.9l6.1-3.7zm-5.88-23.25v-2.3h.04v-3.79l-.04.01v-1.35c0-1.02.71-1.42 1.58-.89l6.11 3.7a1 1 0 0 1 0 1.91l-6 3.62c-.89.51-1.6.11-1.69-.9zm15.88-2a18.57 18.57 0 0 1-8.4 32.27v-3.83a14.84 14.84 0 0 0 5.53-26c-1.82-1.38.96-4.17 2.87-2.45zm-21.43 25.64a14.84 14.84 0 0 1 5.55-25.94v-3.78a18.57 18.57 0 0 0-8.55 32.07c3 2.8 4.88-.93 3-2.35z"/></defs><g><g transform="translate(-554 -6284)"><use fill="#fff" xlink:href="#z6r3a"/></g></g></svg>