<svg width="155" height="178" viewBox="0 0 155 178" version="1.1" xmlns="http://www.w3.org/2000/svg" xmlns:xlink="http://www.w3.org/1999/xlink">
<g id="Canvas" fill="none">
<g id="Group Copy" opacity="0.5">
<g id="Shape">
<path d="M 154.17 89.01L 0 0L 0 2.33L 152.15 90.18L 154.17 89.01Z" fill="white"/>
</g>
<g id="Shape_2">
<path d="M 143.25 82.71L 0 0L 0 2.33L 141.23 83.88L 143.25 82.71Z" transform="translate(0 15.6001)" fill="white"/>
</g>
<g id="Shape_3">
<path d="M 132.34 76.41L 0 0L 0 2.34L 130.32 77.58L 132.34 76.41Z" transform="translate(0 30.2)" fill="white"/>
</g>
<g id="Shape_4">
<path d="M 121.43 70.11L 0 0L 0 2.34L 119.41 71.28L 121.43 70.11Z" transform="translate(0 45.8)" fill="white"/>
</g>
<g id="Shape_5">
<path d="M 99.6 57.5L 0 0L 0 2.33L 97.58 58.67L 99.6 57.5Z" transform="translate(0 61.01)" fill="white"/>
</g>
<g id="Shape_6">
<path d="M 88.68 51.2L 0 0L 0 2.33L 86.66 52.37L 88.68 51.2Z" transform="translate(0 75.6101)" fill="white"/>
</g>
<g id="Shape_7">
<path d="M 77.77 44.9L 0 0L 0 2.33L 75.75 46.07L 77.77 44.9Z" transform="translate(0 88.21)" fill="white"/>
</g>
<g id="Shape_8">
<path d="M 66.86 38.6L 0 0L 0 2.33L 64.83 39.77L 66.86 38.6Z" transform="translate(0 100.81)" fill="white"/>
</g>
<g id="Shape_9">
<path d="M 55.94 32.3L 0 0L 0 2.34L 53.92 33.47L 55.94 32.3Z" transform="translate(0 113.41)" fill="white"/>
</g>
<g id="Shape_10">
<path d="M 45.03 26L 0 0L 0 2.34L 43.01 27.16L 45.03 26Z" transform="translate(0 126.01)" fill="white"/>
</g>
<g id="Shape_11">
<path d="M 34.11 19.7L 0 0L 0 2.34L 32.09 20.87L 34.11 19.7Z" transform="translate(0 138.61)" fill="white"/>
</g>
<g id="Shape_12">
<path d="M 23.2 13.4L 0 0L 0 2.34L 21.18 14.56L 23.2 13.4Z" transform="translate(0 151.21)" fill="white"/>
</g>
<g id="Shape_13">
<path d="M 12.29 7.09L 0 0L 0 2.33L 10.26 8.26L 12.29 7.09Z" transform="translate(0 163.82)" fill="white"/>
</g>
<g id="Shape_14">
<path d="M 0 0L 0 1.58L 1.37 0.79L 0 0Z" transform="translate(0 176.42)" fill="white"/>
</g>
</g>
</g>
</svg>

