<svg xmlns="http://www.w3.org/2000/svg" xmlns:xlink="http://www.w3.org/1999/xlink" width="51" height="58" viewBox="0 0 51 58"><defs><path id="kzz2a" d="M326.15 11258.2l-24.9 14.45v28.9l24.9 14.45 24.95-14.45v-28.9z"/><path id="kzz2b" d="M317.72 11273.68a2.57 2.57 0 1 1-.02 5.14 2.57 2.57 0 0 1 .02-5.14zm19.31 11.87c.08.7.12 1.4.12 2.11v8.06h-4.4v-7.14c0-1.72-.18-3.9-2.53-3.9-2.35 0-2.73 1.85-2.73 3.76v7.24h-4.28v-14.67h4.09v2h.07c.62-1.19 2.1-2 4.3-2 3.76 0 5.02 1.72 5.36 4.5zm-21.88-4.54h5.13v14.67h-5.13z"/></defs><g><g transform="translate(-301 -11258)"><use fill="#fff" fill-opacity="0" stroke="#fff" stroke-miterlimit="50" stroke-width="2" xlink:href="#kzz2a"/></g><g transform="translate(-301 -11258)"><use fill="#fff" xlink:href="#kzz2b"/></g></g></svg>