<svg width="240" height="169" viewBox="0 0 240 169" version="1.1" xmlns="http://www.w3.org/2000/svg" xmlns:xlink="http://www.w3.org/1999/xlink">
<g id="Canvas" fill="none">
<g id="Group 30">
<g id="Shape">
<path fill-rule="evenodd" clip-rule="evenodd" d="M 0 0L 57.3523 0C 58.0774 8.85474 64.3752 16.2581 73 18.3948L 73 73L 0 73L 0 0ZM 45.8335 60.769L 55.8667 60.769L 55.9246 60.0649C 54.9519 59.2058 54.2905 58.0496 54.0432 56.7756C 53.6882 55.3884 53.5037 53.9631 53.4934 52.5315L 53.4934 48.9624C 53.583 46.3889 52.9299 43.844 51.6123 41.6316C 50.1443 39.5054 47.9417 37.9971 45.4285 37.397C 47.7141 36.4844 49.7129 34.9756 51.2168 33.0276C 52.5388 31.137 53.2153 28.8704 53.146 26.5647C 53.1333 22.0632 51.5671 18.5491 48.448 16.0217C 45.3286 13.4946 41.0002 12.231 35.4629 12.231L 17.1333 12.231L 17.1333 60.769L 26.8672 60.769L 26.8672 41.3711L 36.1382 41.3711C 38.1951 41.2471 40.2124 41.9763 41.7144 43.3872C 43.1111 44.9268 43.8276 46.9648 43.7017 49.0396L 43.7017 52.4736C 43.7109 54.0569 43.8433 55.6372 44.0972 57.2C 44.2131 58.564 44.832 59.8359 45.8335 60.769Z" transform="translate(84 13)" fill="white"/>
</g>
<g id="Group 29">
<g id="Shape_2">
<path fill-rule="evenodd" clip-rule="evenodd" d="M 0 73.0852L 0 0L 72.9446 0L 72.9446 73.0852L 0 73.0852ZM 48.9541 59.2949C 51.5691 58.1455 53.8796 56.3994 55.7012 54.196L 55.7397 35.8765L 37.4265 35.8765L 37.4265 42.6365L 46.0144 42.6365L 46.0144 51.6174C 45.1094 52.417 44.04 53.0073 42.8818 53.3462C 41.1113 53.8645 39.27 54.0991 37.4265 54.0415C 34.4849 54.1604 31.6594 52.8828 29.8022 50.594C 27.8259 48.0308 26.8218 44.8481 26.9685 41.6128L 26.9685 31.405C 26.8296 28.2202 27.7932 25.0852 29.6963 22.5303C 31.3909 20.2769 34.0718 18.9878 36.8867 19.073C 39.7075 19.073 41.8506 19.823 43.3157 21.323C 44.8562 22.9978 45.7336 25.1785 45.783 27.4553L 54.9397 27.4553L 55.0071 27.2524C 55.1025 22.9351 53.3357 18.7856 50.1589 15.8667C 47.0168 12.989 42.4932 11.55 36.5879 11.55C 30.9075 11.55 26.2617 13.4009 22.6506 17.103C 19.0393 20.8049 17.2336 25.5947 17.2336 31.4727L 17.2336 41.6128C 17.2273 47.5037 19.1035 52.2969 22.8625 55.9922C 26.6216 59.6877 31.4634 61.5354 37.3879 61.5354C 41.363 61.677 45.3181 60.9109 48.9541 59.2949Z" transform="translate(0.896484 13.3076)" fill="white"/>
</g>
<g id="Shape_3">
<path d="M 8.55904 0L 0 0L 0 14.1477L 8.39518 14.1477C 11.1261 14.1477 13.1631 13.5683 14.506 12.4094C 15.9165 11.0889 16.6567 9.20111 16.5205 7.27183C 16.6161 5.30048 15.8858 3.37866 14.506 1.97006C 13.1566 0.656686 11.1807 0 8.55904 0Z" transform="translate(110.612 33.0662)" fill="white"/>
</g>
<g id="Shape_4">
<path d="M 6.41928 0.0125811L 0 0.0125811L 0 33.5808L 6.41928 33.5808C 9.54908 33.737 12.5746 32.4318 14.612 30.0463C 16.6777 27.4268 17.7317 24.1491 17.5807 20.8141L 17.5807 12.7117C 17.7258 9.39823 16.6715 6.14372 14.612 3.5471C 12.5746 1.16162 9.54908 -0.143627 6.41928 0.0125811Z" transform="translate(194.304 33.0535)" fill="white"/>
</g>
<g id="Shape_5">
<path fill-rule="evenodd" clip-rule="evenodd" d="M 0 18.4163C 8.61694 16.2771 14.9092 8.86499 15.6338 0L 72.9348 0L 72.9348 73.0852L 0 73.0852L 0 18.4163ZM 49.2144 55.1616C 53.0698 51.3826 54.9976 46.5154 54.9976 40.5601L 55.0264 32.5349C 55.0264 26.5925 53.0986 21.7285 49.2432 17.9431C 45.3362 14.1208 40.0408 12.0627 34.583 12.2454L 17.9373 12.2454L 17.9373 60.811L 34.5542 60.811C 40.4722 60.824 45.3589 58.9409 49.2144 55.1616Z" transform="translate(166.641 13.3076)" fill="white"/>
</g>
<g id="Shape_6">
<path fill-rule="evenodd" clip-rule="evenodd" d="M 0 73.0757L 0 0L 72.9351 0L 72.9351 73.0757L 0 73.0757ZM 19.865 60.8401L 53.0698 60.8401L 53.0986 53.3269L 29.5903 53.3269L 29.5903 39.4785L 49.677 39.4785L 49.677 31.9653L 29.5903 31.9653L 29.5903 19.7585L 53.0024 19.7585L 53.0024 12.2454L 19.865 12.2454L 19.865 60.8401Z" transform="translate(83.7686 95.4512)" fill="white"/>
</g>
<g id="Shape_7">
<path fill-rule="evenodd" clip-rule="evenodd" d="M 0 73.0757L 0 0L 72.9348 0L 72.9348 73.0757L 0 73.0757ZM 36.27 43.3218L 45.6292 60.8398L 57.3496 60.8398L 42.1301 36.3494L 56.5205 12.2065L 45.1953 12.2065L 36.1062 29.4253L 27.1519 12.2065L 15.894 12.2065L 30.2749 36.3494L 15.5278 60.8398L 26.9109 60.8398L 36.27 43.3218Z" transform="translate(166.641 95.4512)" fill="white"/>
</g>
<g id="Oval">
<path d="M 10.8627 21.7672C 16.8619 21.7672 21.7253 16.8944 21.7253 10.8836C 21.7253 4.87275 16.8619 0 10.8627 0C 4.86337 0 0 4.87275 0 10.8836C 0 16.8944 4.86337 21.7672 10.8627 21.7672Z" transform="translate(150.814 0.927002)" fill="white"/>
</g>
</g>
</g>
</g>
</svg>

