<svg width="1920" height="965" viewBox="0 0 1920 965" version="1.1" xmlns="http://www.w3.org/2000/svg" xmlns:xlink="http://www.w3.org/1999/xlink">
<g id="Canvas" fill="none">
<g id="Group 48">
<g id="Group 39 + Group 39 Copy Mask" opacity="0.2">
<mask id="mask0" mask-type="alpha" maskUnits="userSpaceOnUse" x="0" y="0" width="1920" height="924">
<g id="Mask">
<path fill-rule="evenodd" clip-rule="evenodd" d="M 0 0L 1920 0L 1920 924L 0 924L 0 0Z" fill="white"/>
</g>
</mask>
<g mask="url(#mask0)">
<g id="Group 39">
<g id="Shape">
<path d="M 213 118.899L 7.10681 0L 0 0L 213 123L 213 118.899Z" transform="translate(1900 0)" fill="#60A8B7"/>
</g>
<g id="Shape_2">
<path d="M 251 140.903L 7.09649 0L 0 0L 251 145L 251 140.903Z" transform="translate(1863 0)" fill="#60A8B7"/>
</g>
<g id="Shape_3">
<path d="M 290 162.906L 7.11379 0L 0 0L 290 167L 290 162.906Z" transform="translate(1824 0)" fill="#60A8B7"/>
</g>
<g id="Shape_4">
<path d="M 328 184.908L 7.10506 0L 0 0L 328 189L 328 184.908Z" transform="translate(1786 0)" fill="#60A8B7"/>
</g>
<g id="Shape_5">
<path d="M 366 206.91L 7.09816 0L 0 0L 366 211L 366 206.91Z" transform="translate(1747 0)" fill="#60A8B7"/>
</g>
<g id="Shape_6">
<path d="M 0 0L 391.457 226L 395 223.945L 7.09965 0L 0 0Z" transform="translate(1709 0)" fill="#60A8B7"/>
</g>
<g id="Shape_7">
<path d="M 0 0L 410.444 237L 414 234.96L 7.09673 0L 0 0Z" transform="translate(1671 0)" fill="#60A8B7"/>
</g>
<g id="Shape_8">
<path d="M 0 0L 429.446 248L 433 245.946L 7.10863 0L 0 0Z" transform="translate(1632 0)" fill="#60A8B7"/>
</g>
<g id="Shape_9">
<path d="M 0 0L 448.461 260L 452 257.938L 7.09208 0L 0 0Z" transform="translate(1594 0)" fill="#60A8B7"/>
</g>
<g id="Shape_10">
<path d="M 0 0L 468.44 271L 472 268.939L 7.10487 0L 0 0Z" transform="translate(1555 0)" fill="#60A8B7"/>
</g>
<g id="Shape_11">
<path d="M 0 0L 487.456 281L 491 278.961L 7.08804 0L 0 0Z" transform="translate(1517 0)" fill="#60A8B7"/>
</g>
<g id="Shape_12">
<path d="M 0 0L 506.443 292L 510 289.947L 7.10014 0L 0 0Z" transform="translate(1479 0)" fill="#60A8B7"/>
</g>
<g id="Shape_13">
<path d="M 0 0L 525.458 303L 529 300.947L 7.09803 0L 0 0Z" transform="translate(1440 0)" fill="#60A8B7"/>
</g>
<g id="Shape_14">
<path d="M 0 0L 544.445 314L 548 311.962L 7.09607 0L 0 0Z" transform="translate(1402 0)" fill="#60A8B7"/>
</g>
<g id="Shape_15">
<path d="M 0 0L 564.454 325L 568 322.963L 7.10675 0L 0 0Z" transform="translate(1364 0)" fill="#60A8B7"/>
</g>
<g id="Shape_16">
<path d="M 0 0L 583.44 336L 587 333.948L 7.10445 0L 0 0Z" transform="translate(1325 0)" fill="#60A8B7"/>
</g>
<g id="Shape_17">
<path d="M 0 0L 602.456 347L 606 344.949L 7.10264 0L 0 0Z" transform="translate(1287 0)" fill="#60A8B7"/>
</g>
<g id="Shape_18">
<path d="M 0 0L 621.442 359L 625 356.958L 7.10062 0L 0 0Z" transform="translate(1248 0)" fill="#60A8B7"/>
</g>
<g id="Shape_19">
<path d="M 0 0L 640.458 370L 644 367.958L 7.09887 0L 0 0Z" transform="translate(1210 0)" fill="#60A8B7"/>
</g>
<g id="Shape_20">
<path d="M 0 0L 660.439 381L 664 378.944L 7.10793 0L 0 0Z" transform="translate(1173 0)" fill="#60A8B7"/>
</g>
<g id="Shape_21">
<path d="M 0 0L 679.454 392L 683 389.944L 7.10607 0L 0 0Z" transform="translate(1134 0)" fill="#60A8B7"/>
</g>
<g id="Shape_22">
<path d="M 0 0L 698.441 403L 702 400.959L 7.10417 0L 0 0Z" transform="translate(1096 0)" fill="#60A8B7"/>
</g>
<g id="Shape_23">
<path d="M 0 0L 717.456 414L 721 411.945L 7.10266 0L 0 0Z" transform="translate(1058 0)" fill="#60A8B7"/>
</g>
<g id="Shape_24">
<path d="M 0 0L 736.442 425L 740 422.945L 7.10094 0L 0 0Z" transform="translate(1019 0)" fill="#60A8B7"/>
</g>
<g id="Shape_25">
<path d="M 0 0L 756.453 436L 760 433.96L 7.10894 0L 0 0Z" transform="translate(981 0)" fill="#60A8B7"/>
</g>
<g id="Shape_26">
<path d="M 0 0L 774.444 447L 778 444.96L 7.09803 0L 0 0Z" transform="translate(942 0)" fill="#60A8B7"/>
</g>
<g id="Shape_27">
<path d="M 0 0L 793.459 458L 797 455.946L 7.09668 0L 0 0Z" transform="translate(904 0)" fill="#60A8B7"/>
</g>
<g id="Shape_28">
<path d="M 0 0L 812.445 470L 816 467.942L 7.0954 0L 0 0Z" transform="translate(866 0)" fill="#60A8B7"/>
</g>
<g id="Shape_29">
<path d="M 0 0L 831.46 481L 835 478.957L 7.09417 0L 0 0Z" transform="translate(827 0)" fill="#60A8B7"/>
</g>
<g id="Shape_30">
<path d="M 0 0L 850.446 492L 854 489.957L 7.09288 0L 0 0Z" transform="translate(789 0)" fill="#60A8B7"/>
</g>
<g id="Shape_31">
<path d="M 0 0L 870.457 502L 874 499.947L 7.1 0L 0 0Z" transform="translate(750 0)" fill="#60A8B7"/>
</g>
<g id="Shape_32">
<path d="M 0 0L 889.443 513L 893 510.947L 7.09864 0L 0 0Z" transform="translate(712 0)" fill="#60A8B7"/>
</g>
<g id="Shape_33">
<path d="M 0 0L 908.444 524L 912 521.962L 7.08287 0L 0 0Z" transform="translate(674 0)" fill="#60A8B7"/>
</g>
<g id="Shape_34">
<path d="M 0 0L 927.445 535L 931 532.947L 7.0963 0L 0 0Z" transform="translate(635 0)" fill="#60A8B7"/>
</g>
<g id="Shape_35">
<path d="M 0 0L 946.46 546L 950 543.947L 7.09521 0L 0 0Z" transform="translate(597 0)" fill="#60A8B7"/>
</g>
<g id="Shape_36">
<path d="M 0 0L 966.442 557L 970 554.948L 7.08689 0L 0 0Z" transform="translate(559 0)" fill="#60A8B7"/>
</g>
<g id="Shape_37">
<path d="M 0 0L 985.457 569L 989 566.959L 7.10032 0L 0 0Z" transform="translate(521 0)" fill="#60A8B7"/>
</g>
<g id="Shape_38">
<path d="M 0 0L 1004.46 580L 1008 577.944L 7.0991 0L 0 0Z" transform="translate(483 0)" fill="#60A8B7"/>
</g>
<g id="Shape_39">
<path d="M 0 0L 1023.44 591L 1027 588.945L 7.09804 0L 0 0Z" transform="translate(444 0)" fill="#60A8B7"/>
</g>
<g id="Shape_40">
<path d="M 0 0L 1042.46 602L 1046 599.959L 7.09701 0L 0 0Z" transform="translate(406 0)" fill="#60A8B7"/>
</g>
<g id="Shape_41">
<path d="M 0 0L 1062.44 613L 1066 610.96L 7.0881 0L 0 0Z" transform="translate(368 0)" fill="#60A8B7"/>
</g>
<g id="Shape_42">
<path d="M 0 0L 1081.46 624L 1085 621.945L 7.10161 0L 0 0Z" transform="translate(329 0)" fill="#60A8B7"/>
</g>
<g id="Shape_43">
<path d="M 0 0L 1100.44 635L 1104 632.96L 7.10048 0L 0 0Z" transform="translate(291 0)" fill="#60A8B7"/>
</g>
<g id="Shape_44">
<path d="M 0 0L 1119.46 646L 1123 643.96L 7.09948 0L 0 0Z" transform="translate(253 0)" fill="#60A8B7"/>
</g>
<g id="Shape_45">
<path d="M 0 0L 1138.44 657L 1142 654.96L 7.09851 0L 0 0Z" transform="translate(214 0)" fill="#60A8B7"/>
</g>
<g id="Shape_46">
<path d="M 0 0L 1158.46 669L 1162 666.943L 7.10369 0L 0 0Z" transform="translate(176 0)" fill="#60A8B7"/>
</g>
<g id="Shape_47">
<path d="M 0 0L 1177.44 680L 1181 677.958L 7.0881 0L 0 0Z" transform="translate(137 0)" fill="#60A8B7"/>
</g>
<g id="Shape_48">
<path d="M 0 0L 1196.46 691L 1200 688.958L 7.10171 0L 0 0Z" transform="translate(99 0)" fill="#60A8B7"/>
</g>
<g id="Shape_49">
<path d="M 0 0L 1215.44 702L 1219 699.943L 7.10069 0L 0 0Z" transform="translate(61 0)" fill="#60A8B7"/>
</g>
<g id="Shape_50">
<path d="M 0 0L 1234.46 712L 1238 709.946L 7.09986 0L 0 0Z" transform="translate(22 0)" fill="#60A8B7"/>
</g>
<g id="Shape_51">
<path d="M 0 4.09287L 1237.44 718L 1241 715.961L 0 0L 0 4.09287Z" transform="translate(0 5)" fill="#60A8B7"/>
</g>
<g id="Shape_52">
<path d="M 0 4.09319L 1218.46 707L 1222 704.961L 0 0L 0 4.09319Z" transform="translate(0 27)" fill="#60A8B7"/>
</g>
<g id="Shape_53">
<path d="M 0 4.09352L 1199.46 696L 1203 693.946L 0 0L 0 4.09352Z" transform="translate(0 49)" fill="#60A8B7"/>
</g>
<g id="Shape_54">
<path d="M 0 4.09983L 1180.46 686L 1184 683.957L 0 0L 0 4.09983Z" transform="translate(0 72)" fill="#60A8B7"/>
</g>
<g id="Shape_55">
<path d="M 0 4.10028L 1161.44 675L 1165 672.957L 0 0L 0 4.10028Z" transform="translate(0 94)" fill="#60A8B7"/>
</g>
<g id="Shape_56">
<path d="M 0 4.10905L 1141.46 663L 1145 660.96L 0 0L 0 4.10905Z" transform="translate(0 116)" fill="#60A8B7"/>
</g>
<g id="Shape_57">
<path d="M 0 4.09485L 1122.44 652L 1126 649.945L 0 0L 0 4.09485Z" transform="translate(0 138)" fill="#60A8B7"/>
</g>
<g id="Shape_58">
<path d="M 0 4.09533L 1103.46 641L 1107 638.96L 0 0L 0 4.09533Z" transform="translate(0 161)" fill="#60A8B7"/>
</g>
<g id="Shape_59">
<path d="M 0 4.11022L 1084.44 630L 1088 627.959L 0 0L 0 4.11022Z" transform="translate(0 183)" fill="#60A8B7"/>
</g>
<g id="Shape_60">
<path d="M 0 4.09606L 1065.46 619L 1069 616.945L 0 0L 0 4.09606Z" transform="translate(0 205)" fill="#60A8B7"/>
</g>
<g id="Shape_61">
<path d="M 0 4.09649L 1045.46 608L 1049 605.944L 0 0L 0 4.09649Z" transform="translate(0 226)" fill="#60A8B7"/>
</g>
<g id="Shape_62">
<path d="M 0 4.09693L 1026.46 597L 1030 594.959L 0 0L 0 4.09693Z" transform="translate(0 248)" fill="#60A8B7"/>
</g>
<g id="Shape_63">
<path d="M 0 4.09739L 1007.44 586L 1011 583.959L 0 0L 0 4.09739Z" transform="translate(0 271)" fill="#60A8B7"/>
</g>
<g id="Shape_64">
<path d="M 0 4.09787L 988.443 575L 992 572.944L 0 0L 0 4.09787Z" transform="translate(0 293)" fill="#60A8B7"/>
</g>
<g id="Shape_65">
<path d="M 0 4.09837L 969.457 564L 973 561.958L 0 0L 0 4.09837Z" transform="translate(0 315)" fill="#60A8B7"/>
</g>
<g id="Shape_66">
<path d="M 0 4.09148L 949.446 552L 953 549.962L 0 0L 0 4.09148Z" transform="translate(0 337)" fill="#60A8B7"/>
</g>
<g id="Shape_67">
<path d="M 0 4.10632L 930.46 541L 934 538.947L 0 0L 0 4.10632Z" transform="translate(0 360)" fill="#60A8B7"/>
</g>
<g id="Shape_68">
<path d="M 0 4.09216L 911.445 530L 915 527.947L 0 0L 0 4.09216Z" transform="translate(0 382)" fill="#60A8B7"/>
</g>
<g id="Shape_69">
<path d="M 0 4.09258L 892.458 519L 896 516.946L 0 0L 0 4.09258Z" transform="translate(0 404)" fill="#60A8B7"/>
</g>
<g id="Shape_70">
<path d="M 0 4.10758L 873.443 508L 877 505.961L 0 0L 0 4.10758Z" transform="translate(0 426)" fill="#60A8B7"/>
</g>
<g id="Shape_71">
<path d="M 0 4.09347L 854.457 497L 858 494.946L 0 0L 0 4.09347Z" transform="translate(0 447)" fill="#60A8B7"/>
</g>
<g id="Shape_72">
<path d="M 0 4.09395L 834.446 486L 838 483.946L 0 0L 0 4.09395Z" transform="translate(0 470)" fill="#60A8B7"/>
</g>
<g id="Shape_73">
<path d="M 0 4.09445L 816.456 475L 820 472.96L 0 0L 0 4.09445Z" transform="translate(0 492)" fill="#60A8B7"/>
</g>
<g id="Shape_74">
<path d="M 0 4.09497L 797.44 464L 801 461.96L 0 0L 0 4.09497Z" transform="translate(0 514)" fill="#60A8B7"/>
</g>
<g id="Shape_75">
<path d="M 0 4.09552L 778.454 453L 782 450.945L 0 0L 0 4.09552Z" transform="translate(0 536)" fill="#60A8B7"/>
</g>
<g id="Shape_76">
<path d="M 0 4.11054L 759.439 442L 763 439.945L 0 0L 0 4.11054Z" transform="translate(0 558)" fill="#60A8B7"/>
</g>
<g id="Shape_77">
<path d="M 0 4.09671L 739.457 431L 743 428.959L 0 0L 0 4.09671Z" transform="translate(0 581)" fill="#60A8B7"/>
</g>
<g id="Shape_78">
<path d="M 0 4.09735L 720.442 420L 724 417.959L 0 0L 0 4.09735Z" transform="translate(0 603)" fill="#60A8B7"/>
</g>
<g id="Shape_79">
<path d="M 0 4.09788L 701.456 409L 705 406.944L 0 0L 0 4.09788Z" transform="translate(0 625)" fill="#60A8B7"/>
</g>
<g id="Shape_80">
<path d="M 0 4.09858L 682.44 398L 686 395.943L 0 0L 0 4.09858Z" transform="translate(0 647)" fill="#60A8B7"/>
</g>
<g id="Shape_81">
<path d="M 0 4.11392L 663.454 387L 667 384.958L 0 0L 0 4.11392Z" transform="translate(0 669)" fill="#60A8B7"/>
</g>
<g id="Shape_82">
<path d="M 0 4.10012L 643.444 376L 647 373.943L 0 0L 0 4.10012Z" transform="translate(0 691)" fill="#60A8B7"/>
</g>
<g id="Shape_83">
<path d="M 0 4.10096L 624.457 365L 628 362.942L 0 0L 0 4.10096Z" transform="translate(0 713)" fill="#60A8B7"/>
</g>
<g id="Shape_84">
<path d="M 0 4.09043L 605.442 353L 609 350.962L 0 0L 0 4.09043Z" transform="translate(0 735)" fill="#60A8B7"/>
</g>
<g id="Shape_85">
<path d="M 0 4.09084L 586.455 342L 590 339.962L 0 0L 0 4.09084Z" transform="translate(0 757)" fill="#60A8B7"/>
</g>
<g id="Shape_86">
<path d="M 0 4.09145L 567.44 331L 571 328.947L 0 0L 0 4.09145Z" transform="translate(0 780)" fill="#60A8B7"/>
</g>
<g id="Shape_87">
<path d="M 0 4.10648L 547.445 320L 551 317.947L 0 0L 0 4.10648Z" transform="translate(0 802)" fill="#60A8B7"/>
</g>
<g id="Shape_88">
<path d="M 0 4.09281L 528.458 309L 532 306.961L 0 0L 0 4.09281Z" transform="translate(0 824)" fill="#60A8B7"/>
</g>
<g id="Shape_89">
<path d="M 0 4.09357L 509.457 298L 513 295.961L 0 0L 0 4.09357Z" transform="translate(0 846)" fill="#60A8B7"/>
</g>
<g id="Shape_90">
<path d="M 0 4.09417L 490.456 287L 494 284.946L 0 0L 0 4.09417Z" transform="translate(0 868)" fill="#60A8B7"/>
</g>
<g id="Shape_91">
<path d="M 0 4.09526L 471.44 276L 475 273.96L 0 0L 0 4.09526Z" transform="translate(0 890)" fill="#60A8B7"/>
</g>
<g id="Shape_92">
<path d="M 0 4.09621L 452.454 265L 456 262.959L 0 0L 0 4.09621Z" transform="translate(0 912)" fill="#60A8B7"/>
</g>
</g>
<g id="Group 39 Copy">
<g id="Shape_93">
<path d="M 0 0L 1100.44 635L 1104 632.96L 7.10048 0L 0 0Z" transform="translate(1993 1555) scale(-1)" fill="#60A8B7"/>
</g>
<g id="Shape_94">
<path d="M 0 0L 1119.46 646L 1123 643.96L 7.09948 0L 0 0Z" transform="translate(2031 1555) scale(-1)" fill="#60A8B7"/>
</g>
<g id="Shape_95">
<path d="M 0 0L 1138.44 657L 1142 654.96L 7.09851 0L 0 0Z" transform="translate(2070 1555) scale(-1)" fill="#60A8B7"/>
</g>
<g id="Shape_96">
<path d="M 0 0L 1158.46 669L 1162 666.943L 7.10369 0L 0 0Z" transform="translate(2108 1555) scale(-1)" fill="#60A8B7"/>
</g>
<g id="Shape_97">
<path d="M 0 0L 1177.44 680L 1181 677.958L 7.0881 0L 0 0Z" transform="translate(2147 1555) scale(-1)" fill="#60A8B7"/>
</g>
<g id="Shape_98">
<path d="M 0 0L 1196.46 691L 1200 688.958L 7.10171 0L 0 0Z" transform="translate(2185 1555) scale(-1)" fill="#60A8B7"/>
</g>
<g id="Shape_99">
<path d="M 0 0L 1215.44 702L 1219 699.943L 7.10069 0L 0 0Z" transform="translate(2223 1555) scale(-1)" fill="#60A8B7"/>
</g>
<g id="Shape_100">
<path d="M 0 0L 1234.46 712L 1238 709.946L 7.09986 0L 0 0Z" transform="translate(2262 1555) scale(-1)" fill="#60A8B7"/>
</g>
<g id="Shape_101">
<path d="M 0 4.09287L 1237.44 718L 1241 715.961L 0 0L 0 4.09287Z" transform="translate(2284 1550) scale(-1)" fill="#60A8B7"/>
</g>
<g id="Shape_102">
<path d="M 0 4.09319L 1218.46 707L 1222 704.961L 0 0L 0 4.09319Z" transform="translate(2284 1528) scale(-1)" fill="#60A8B7"/>
</g>
<g id="Shape_103">
<path d="M 0 4.09352L 1199.46 696L 1203 693.946L 0 0L 0 4.09352Z" transform="translate(2284 1506) scale(-1)" fill="#60A8B7"/>
</g>
<g id="Shape_104">
<path d="M 0 4.09983L 1180.46 686L 1184 683.957L 0 0L 0 4.09983Z" transform="translate(2284 1483) scale(-1)" fill="#60A8B7"/>
</g>
<g id="Shape_105">
<path d="M 0 4.10028L 1161.44 675L 1165 672.957L 0 0L 0 4.10028Z" transform="translate(2284 1461) scale(-1)" fill="#60A8B7"/>
</g>
<g id="Shape_106">
<path d="M 0 4.10905L 1141.46 663L 1145 660.96L 0 0L 0 4.10905Z" transform="translate(2284 1439) scale(-1)" fill="#60A8B7"/>
</g>
<g id="Shape_107">
<path d="M 0 4.09485L 1122.44 652L 1126 649.945L 0 0L 0 4.09485Z" transform="translate(2284 1417) scale(-1)" fill="#60A8B7"/>
</g>
<g id="Shape_108">
<path d="M 0 4.09533L 1103.46 641L 1107 638.96L 0 0L 0 4.09533Z" transform="translate(2284 1394) scale(-1)" fill="#60A8B7"/>
</g>
<g id="Shape_109">
<path d="M 0 4.11022L 1084.44 630L 1088 627.959L 0 0L 0 4.11022Z" transform="translate(2284 1372) scale(-1)" fill="#60A8B7"/>
</g>
<g id="Shape_110">
<path d="M 0 4.09606L 1065.46 619L 1069 616.945L 0 0L 0 4.09606Z" transform="translate(2284 1350) scale(-1)" fill="#60A8B7"/>
</g>
<g id="Shape_111">
<path d="M 0 4.09649L 1045.46 608L 1049 605.944L 0 0L 0 4.09649Z" transform="translate(2284 1329) scale(-1)" fill="#60A8B7"/>
</g>
<g id="Shape_112">
<path d="M 0 4.09693L 1026.46 597L 1030 594.959L 0 0L 0 4.09693Z" transform="translate(2284 1307) scale(-1)" fill="#60A8B7"/>
</g>
<g id="Shape_113">
<path d="M 0 4.09739L 1007.44 586L 1011 583.959L 0 0L 0 4.09739Z" transform="translate(2284 1284) scale(-1)" fill="#60A8B7"/>
</g>
<g id="Shape_114">
<path d="M 0 4.09787L 988.443 575L 992 572.944L 0 0L 0 4.09787Z" transform="translate(2284 1262) scale(-1)" fill="#60A8B7"/>
</g>
<g id="Shape_115">
<path d="M 0 4.09837L 969.457 564L 973 561.958L 0 0L 0 4.09837Z" transform="translate(2284 1240) scale(-1)" fill="#60A8B7"/>
</g>
<g id="Shape_116">
<path d="M 0 4.09148L 949.446 552L 953 549.962L 0 0L 0 4.09148Z" transform="translate(2284 1218) scale(-1)" fill="#60A8B7"/>
</g>
<g id="Shape_117">
<path d="M 0 4.10632L 930.46 541L 934 538.947L 0 0L 0 4.10632Z" transform="translate(2284 1195) scale(-1)" fill="#60A8B7"/>
</g>
<g id="Shape_118">
<path d="M 0 4.09216L 911.445 530L 915 527.947L 0 0L 0 4.09216Z" transform="translate(2284 1173) scale(-1)" fill="#60A8B7"/>
</g>
<g id="Shape_119">
<path d="M 0 4.09258L 892.458 519L 896 516.946L 0 0L 0 4.09258Z" transform="translate(2284 1151) scale(-1)" fill="#60A8B7"/>
</g>
<g id="Shape_120">
<path d="M 0 4.10758L 873.443 508L 877 505.961L 0 0L 0 4.10758Z" transform="translate(2284 1129) scale(-1)" fill="#60A8B7"/>
</g>
<g id="Shape_121">
<path d="M 0 4.09347L 854.457 497L 858 494.946L 0 0L 0 4.09347Z" transform="translate(2284 1108) scale(-1)" fill="#60A8B7"/>
</g>
<g id="Shape_122">
<path d="M 0 4.09395L 834.446 486L 838 483.946L 0 0L 0 4.09395Z" transform="translate(2284 1085) scale(-1)" fill="#60A8B7"/>
</g>
<g id="Shape_123">
<path d="M 0 4.09445L 816.456 475L 820 472.96L 0 0L 0 4.09445Z" transform="translate(2284 1063) scale(-1)" fill="#60A8B7"/>
</g>
<g id="Shape_124">
<path d="M 0 4.09497L 797.44 464L 801 461.96L 0 0L 0 4.09497Z" transform="translate(2284 1041) scale(-1)" fill="#60A8B7"/>
</g>
<g id="Shape_125">
<path d="M 0 4.09552L 778.454 453L 782 450.945L 0 0L 0 4.09552Z" transform="translate(2284 1019) scale(-1)" fill="#60A8B7"/>
</g>
<g id="Shape_126">
<path d="M 0 4.11054L 759.439 442L 763 439.945L 0 0L 0 4.11054Z" transform="translate(2284 997) scale(-1)" fill="#60A8B7"/>
</g>
<g id="Shape_127">
<path d="M 0 4.09671L 739.457 431L 743 428.959L 0 0L 0 4.09671Z" transform="translate(2284 974) scale(-1)" fill="#60A8B7"/>
</g>
<g id="Shape_128">
<path d="M 0 4.09735L 720.442 420L 724 417.959L 0 0L 0 4.09735Z" transform="translate(2284 952) scale(-1)" fill="#60A8B7"/>
</g>
<g id="Shape_129">
<path d="M 0 4.09788L 701.456 409L 705 406.944L 0 0L 0 4.09788Z" transform="translate(2284 930) scale(-1)" fill="#60A8B7"/>
</g>
<g id="Shape_130">
<path d="M 0 4.09858L 682.44 398L 686 395.943L 0 0L 0 4.09858Z" transform="translate(2284 908) scale(-1)" fill="#60A8B7"/>
</g>
<g id="Shape_131">
<path d="M 0 4.11392L 663.454 387L 667 384.958L 0 0L 0 4.11392Z" transform="translate(2284 886) scale(-1)" fill="#60A8B7"/>
</g>
<g id="Shape_132">
<path d="M 0 4.10012L 643.444 376L 647 373.943L 0 0L 0 4.10012Z" transform="translate(2284 864) scale(-1)" fill="#60A8B7"/>
</g>
<g id="Shape_133">
<path d="M 0 4.10096L 624.457 365L 628 362.942L 0 0L 0 4.10096Z" transform="translate(2284 842) scale(-1)" fill="#60A8B7"/>
</g>
<g id="Shape_134">
<path d="M 0 4.09043L 605.442 353L 609 350.962L 0 0L 0 4.09043Z" transform="translate(2284 820) scale(-1)" fill="#60A8B7"/>
</g>
<g id="Shape_135">
<path d="M 0 4.09084L 586.455 342L 590 339.962L 0 0L 0 4.09084Z" transform="translate(2284 798) scale(-1)" fill="#60A8B7"/>
</g>
<g id="Shape_136">
<path d="M 0 4.09145L 567.44 331L 571 328.947L 0 0L 0 4.09145Z" transform="translate(2284 775) scale(-1)" fill="#60A8B7"/>
</g>
<g id="Shape_137">
<path d="M 0 4.10648L 547.445 320L 551 317.947L 0 0L 0 4.10648Z" transform="translate(2284 753) scale(-1)" fill="#60A8B7"/>
</g>
<g id="Shape_138">
<path d="M 0 4.09281L 528.458 309L 532 306.961L 0 0L 0 4.09281Z" transform="translate(2284 731) scale(-1)" fill="#60A8B7"/>
</g>
<g id="Shape_139">
<path d="M 0 4.09357L 509.457 298L 513 295.961L 0 0L 0 4.09357Z" transform="translate(2284 709) scale(-1)" fill="#60A8B7"/>
</g>
<g id="Shape_140">
<path d="M 0 4.09417L 490.456 287L 494 284.946L 0 0L 0 4.09417Z" transform="translate(2284 687) scale(-1)" fill="#60A8B7"/>
</g>
<g id="Shape_141">
<path d="M 0 4.09526L 471.44 276L 475 273.96L 0 0L 0 4.09526Z" transform="translate(2284 665) scale(-1)" fill="#60A8B7"/>
</g>
<g id="Shape_142">
<path d="M 0 4.09621L 452.454 265L 456 262.959L 0 0L 0 4.09621Z" transform="translate(2284 643) scale(-1)" fill="#60A8B7"/>
</g>
<g id="Shape_143">
<path d="M 0 4.08088L 432.446 253L 436 250.952L 0 0L 0 4.08088Z" transform="translate(2284 621) scale(-1)" fill="#60A8B7"/>
</g>
<g id="Shape_144">
<path d="M 0 4.08126L 413.459 242L 417 239.952L 0 0L 0 4.08126Z" transform="translate(2284 599) scale(-1)" fill="#60A8B7"/>
</g>
<g id="Shape_145">
<path d="M 0 4.08194L 394.443 231L 398 228.966L 0 0L 0 4.08194Z" transform="translate(2284 576) scale(-1)" fill="#60A8B7"/>
</g>
<g id="Shape_146">
<path d="M 0 4.1007L 375.456 221L 379 218.957L 0 0L 0 4.1007Z" transform="translate(2284 554) scale(-1)" fill="#60A8B7"/>
</g>
</g>
</g>
</g>
<g id="Path 2" filter="url(#filter0_d)">
<path fill-rule="evenodd" clip-rule="evenodd" d="M 1685 0L 0 977L 1685 977L 1685 0Z" transform="translate(235 -52)" fill="white"/>
</g>
</g>
</g>
<defs>
<filter id="filter0_d" x="181" y="-120" width="1793" height="1085" filterUnits="userSpaceOnUse" color-interpolation-filters="sRGB">
<feFlood flood-opacity="0" result="BackgroundImageFix"/>
<feColorMatrix in="SourceAlpha" type="matrix" values="0 0 0 0 0 0 0 0 0 0 0 0 0 0 0 0 0 0 255 0"/>
<feOffset dy="-14"/>
<feGaussianBlur stdDeviation="27"/>
<feColorMatrix type="matrix" values="0 0 0 0 0.135212 0 0 0 0 0.221583 0 0 0 0 0.251196 0 0 0 0.807377 0"/>
<feBlend mode="normal" in2="BackgroundImageFix" result="effect1_dropShadow"/>
<feBlend mode="normal" in="SourceGraphic" in2="effect1_dropShadow" result="shape"/>
</filter>

</defs>
</svg>

