<svg xmlns="http://www.w3.org/2000/svg" xmlns:xlink="http://www.w3.org/1999/xlink" width="119" height="18" viewBox="0 0 119 18"><defs><path id="ci7da" d="M519.4 991.76a9.15 9.15 0 0 1-5.5-2.85c-2.3-2.75-1.5-6.86 1.82-8.8a9.16 9.16 0 0 1 8.98-.06l.75.43v-6h4.21c0 4.61-.01 9.22-.05 13.83v3.02h-3.99a27 27 0 0 0-.15-.92l-3.98 1.35zm6.34-6.38c0-2.13-1.84-3.67-4.52-3.7-1.26-.01-2.47.37-3.35 1.05a3 3 0 0 0-1.27 2.54c0 2.1 1.93 3.7 4.52 3.71 2.59.02 4.6-1.48 4.62-3.6z"/><path id="ci7db" d="M475.7 991.76a9.67 9.67 0 0 1-5.21-2.56c-3.25-3.37-1.3-8.68 3.66-9.96a8.96 8.96 0 0 1 7.4 1.1h.45v-5.86h3.98v16.88h-3.96l-.18-.95-4.04 1.37zm6.34-6.41c0-2.15-1.82-3.64-4.52-3.68-2.7-.03-4.57 1.53-4.58 3.63 0 2.1 1.94 3.68 4.52 3.68 2.58 0 4.57-1.48 4.58-3.63z"/><path id="ci7dc" d="M447.46 991.23c.94-1.69 1.92-3.37 2.83-5.11 1.84-3.51 3.67-7.03 5.48-10.56.12-.4.63-.67 1.18-.63 3.41-.04 3.4-.06 4.63 2.32 2.3 4.48 4.61 8.95 6.93 13.4.12.22.2.44.33.71h-4.25c-.45-.87-.96-1.78-1.39-2.7-.11-.44-.66-.74-1.25-.68-2.5.03-4.99 0-7.48.03-.46.06-.86.27-1.08.57-.48.7-.87 1.42-1.17 2.17a.87.87 0 0 1-.5.58c-.28.13-.61.17-.92.1-1.13-.03-2.26 0-3.39 0v-.17m13.85-6.27l-3.01-5.78-3.01 5.73c.52 0 .87.04 1.2.05h4.87"/><path id="ci7dd" d="M539.26 991.76c-.63-.13-1.27-.23-1.9-.38-3.84-.93-6.02-3.57-5.57-6.85.33-2.86 3.28-5.15 7.1-5.52 5.81-.56 10.05 2.2 10.07 6.57-.02.19-.05.37-.1.56H535.8a2.8 2.8 0 0 0 1.35 2.14c.82.55 1.9.82 2.99.77 1.22-.07 2.41-.33 3.5-.77.51-.28 1.2-.3 1.76-.07.76.3 1.51.56 2.4.84a8.27 8.27 0 0 1-4.99 2.48c-.33.05-.65.13-.98.2zm-3.3-8.02h8.88c-.65-1.45-2.54-2.4-4.59-2.28-1.95-.04-3.7.89-4.28 2.28z"/><path id="ci7de" d="M489.02 977.21h3.97v-2.73h-3.97v2.73z"/><path id="ci7df" d="M564.72 979.24c-1.18 1.22-2.26 2.25-3.25 3.38-.75.77-2.01 1.56-2.01 2.35s1.26 1.58 2 2.35c1.27 1.32 2.55 2.62 3.99 4.1h-4.36c-.29 0-.63-.29-.85-.5l-3.42-3.48c-1.17 1.19-2.3 2.25-3.34 3.42-.34.43-.98.66-1.64.6-1.11-.04-2.22 0-3.58 0l6.21-6.4-5.6-5.75c1.6 0 3-.04 4.43.03.28 0 .6.32.83.56.88.88 1.74 1.76 2.7 2.76.96-.97 1.84-1.84 2.66-2.74.33-.44.98-.68 1.64-.62 1.1.05 2.22 0 3.59 0"/><path id="ci7dg" d="M496.17 979.29h3.96l.14 1.12 1.06-.56c2.59-1.35 5.75-1.23 7.83.25.97.7 1.52 1.67 1.5 2.67.08 2.82 0 5.63 0 8.54h-3.94v-1.04c-.05-2.09-.08-4.19-.16-6.28-.05-1.29-.82-2.08-2.15-2.3-1.43-.23-2.87.32-3.49 1.3a4.2 4.2 0 0 0-.67 2c-.08 2.09 0 4.18 0 6.33h-4.06z"/><path id="ci7dh" d="M492.98 991.34c-.3 0-.56.05-.83.06h-3.08c-.03-.33-.08-.56-.08-.83v-10.91c-.08-.5.32-.97.96-1.13.98-.32 1.94-.7 3.06-1.12z"/></defs><g><g transform="translate(-447 -974)"><g><g><g><use fill="#fff" xlink:href="#ci7da"/></g></g><g><g><use fill="#fff" xlink:href="#ci7db"/></g></g><g><use fill="#fff" xlink:href="#ci7dc"/></g><g><g><use fill="#fff" xlink:href="#ci7dd"/></g></g><g><use fill="#fff" xlink:href="#ci7de"/></g><g><use fill="#fff" xlink:href="#ci7df"/></g><g><use fill="#fff" xlink:href="#ci7dg"/></g><g><use fill="#fff" xlink:href="#ci7dh"/></g></g></g></g></svg>