<svg xmlns="http://www.w3.org/2000/svg" xmlns:xlink="http://www.w3.org/1999/xlink" width="128" height="21" viewBox="0 0 128 21"><defs><path id="qhzza" d="M246.79 974.61l-.09 1.46 1.86.2v11.96l-1.68.22-.08 1.43h11.92l-.2-4.06-2.45-.06-.34 2.67h-3.65v-5.82h1.64l.4 1.46h1.49v-3.78l-1.7-.04-.34.9h-1.49v-5.08h3.6l.14 2.55 2.32.06.29-4.07h-11.64z"/><path id="qhzzb" d="M260 989.93l-.26-1.09 1.15-.2v-7.4l-.88-.12v-1.1l3.18-.42.35.62v.4a5.28 5.28 0 0 1 3.43-1.18c2.07 0 3.6.95 3.6 2.84v6.28l1.39.2-.08 1.09h-4.82v-6.95c.08-1.01-.38-1.58-1.5-1.58-.33 0-.66.05-.97.15-.28.23-.63.39-1.02.47v6.72l1.8.2-.08 1.75h-5.24z"/><path id="qhzzc" d="M329.63 989.92v-1.1l1.77-.2v-7.4l-1.76-.12V980l3.43-.42.1.62v.4a5.28 5.28 0 0 1 3.44-1.18c2.06 0 3.6.95 3.6 2.84v6.28l1.37.2-.06 1.09h-3.95v-6.94c-.51-1.01-.98-1.58-2.14-1.58-.33 0-.66.05-.97.15-.2.12-.33.29-.41.47v6.72l1.2.2-.1 1.76h-5.51z"/><path id="qhzzd" d="M278.47 989.72c-.83.25-1.71.36-2.6.35-1.55 0-3.52-2.35-3.52-2.35v-6.46l-.94-.19.07-1.28 1.67-.06.75-1.96 2-.07v2h2.41l-.16 1.4-2.25.18v6.46c.14.53.5.88 1.2.68h1.25z"/><path id="qhzze" d="M364.88 989.93l.22-1.07.66-.22v-7.41l-.88-.11v-1.1l3.81-.42-.28.72v.23s2.87-.97 4.49-.97l.55.38-.4 2.8-2.08-.06-.2-1.49c-.53.06-1.04.19-1.5.39v7.03l1.5.21-.1 1.01h-5.78z"/><path id="qhzzf" d="M311.16 989.93l-.48-1.07 1.37-.22v-7.4l-1.77-.12v-1.1l4.13-.45.28.78v.2c1.17-.52 2.46-.85 3.8-.97l.55.39-.44 2.79-2.08-.06-.21-1.49c-.5.06-.95.17-.75.4v7.02l.75.22-.1 1h-5.05z"/><path id="qhzzg" d="M279.4 989.93l.06-1.07 1.7-.22v-7.4l-1.76-.12v-1.1l4.12-.45.28.78v.2a8.9 8.9 0 0 1 3.43-.97l.55.39-.39 2.79-2.08-.06-.2-1.49c-.47.04-.92.17-1.3.4v7.02l1.26.22-.09 1h-5.58z"/><path id="qhzzh" d="M291.33 984.25l3.88-.15c-.06-1.23-.39-3.17-1.91-3.17-.38 0-.76.08-1.09.23a6.13 6.13 0 0 0-.88 3.1zm.04 1.32c0 1.76.98 3.12 2.9 3.12.92.01 1.84-.15 2.67-.49l.53.98a7.6 7.6 0 0 1-4.07 1.06c-3.37 0-5.32-2.3-5.32-5.28 0-2.54 1.41-5.31 5.28-5.31 3.38 0 4.65 2.47 4.65 5.23l-.33.66z"/><path id="qhzzi" d="M345.1 984.25l3.88-.15c-.07-1.23-.4-3.17-1.92-3.17-.38 0-.75.08-1.09.23a6.13 6.13 0 0 0-.88 3.1zm.04 1.32c0 1.76.97 3.12 2.9 3.12.93 0 1.86-.17 2.7-.52l.53.98a7.63 7.63 0 0 1-4.07 1.06c-3.38 0-5.32-2.3-5.32-5.28 0-2.54 1.4-5.31 5.24-5.31 3.38 0 4.66 2.47 4.66 5.23l-.33.66z"/><path id="qhzzj" d="M322.52 984.25l3.88-.15c-.06-1.23-.4-3.17-1.92-3.17-.38 0-.75.08-1.09.23a5.97 5.97 0 0 0-.87 3.1zm.04 1.32c0 1.76.98 3.12 2.9 3.12.93 0 1.86-.17 2.7-.52l.53.98a7.61 7.61 0 0 1-4.07 1.06c-3.37 0-5.32-2.3-5.32-5.28 0-2.54 1.4-5.31 5.28-5.31 3.37 0 4.65 2.47 4.65 5.23l-.33.66z"/><path id="qhzzk" d="M360.5 989.92l-.31-.88a4.58 4.58 0 0 1-3 1.03c-1.99 0-3.74-.79-3.74-2.98V981l-1.76-.1v-.98l4.09-.37.31.85v6.37c0 1.16.6 1.77 1.78 1.77.39 0 .78-.05 1.15-.15.23-.19.43-.4.6-.62v-6.8l-.88-.1v-1.03l4.1-.38.3.88v8.22l1.28.2-.16 1.09h-3.74"/><path id="qhzzl" d="M309.55 984.53c0-3.1-1.16-5.05-4.05-5.05a4.23 4.23 0 0 0-3.2 1.24v-.32l-.34-.95-4.06.46v1.06l1.77.15v12.52l-1.27.2-.07 1.1h5.58l.1-1.1-1.7-.2v-3.97c.64.27 1.36.4 2.08.4 4.72 0 4.77-3.81 4.77-5.57m-5.23 4.1a3.96 3.96 0 0 1-1.62-.28v-6.48c.18-.22.38-.42.6-.62.37-.1.76-.15 1.16-.15 1.73 0 2.03 1.4 2.03 3.9s-.46 3.08-.58 3.34c-.5.19-1.04.28-1.6.28"/></defs><g><g transform="translate(-246 -974)"><g><g><use fill="#fff" xlink:href="#qhzza"/></g><g><g><use fill="#fff" xlink:href="#qhzzb"/></g><g><use fill="#fff" xlink:href="#qhzzc"/></g><g><use fill="#fff" xlink:href="#qhzzd"/></g><g><g><use fill="#fff" xlink:href="#qhzze"/></g></g><g><use fill="#fff" xlink:href="#qhzzf"/></g><g><use fill="#fff" xlink:href="#qhzzg"/></g><g><use fill="#fff" xlink:href="#qhzzh"/></g><g><use fill="#fff" xlink:href="#qhzzi"/></g><g><use fill="#fff" xlink:href="#qhzzj"/></g><g><use fill="#fff" xlink:href="#qhzzk"/></g><g><use fill="#fff" xlink:href="#qhzzl"/></g></g></g></g></g></svg>