<svg xmlns="http://www.w3.org/2000/svg" xmlns:xlink="http://www.w3.org/1999/xlink" width="54" height="62" viewBox="0 0 54 62"><defs><path id="o95wa" d="M983.4 754.12l-26.64 15.45v30.92L983.4 816l26.6-15.51v-30.92z"/><path id="o95wb" d="M986.69 777.9h1.6c.25 0 .45-.21.45-.46v-2.68c0-.25-.2-.45-.45-.45h-2.63a4.88 4.88 0 0 0-5 4.51v3.53h-3.13c-.24 0-.44.2-.44.45v3.57c0 .25.2.45.44.45h3.13v8.48c0 .25.2.45.45.45h2.68c.24 0 .44-.2.44-.45v-8.48h2.93c.2 0 .37-.13.43-.32l1-3.58a.46.46 0 0 0-.43-.57h-4v-2.76c0-.8 1.44-1.7 2.42-1.7"/></defs><g><g transform="translate(-956 -754)"><g><g><use fill="#fff" fill-opacity="0" stroke="#fff" stroke-miterlimit="50" stroke-width="2" xlink:href="#o95wa"/></g></g><g><g><use fill="#fff" xlink:href="#o95wb"/></g></g></g></g></svg>