<svg xmlns="http://www.w3.org/2000/svg" xmlns:xlink="http://www.w3.org/1999/xlink" width="54" height="62" viewBox="0 0 54 62"><defs><path id="14a1a" d="M914.81 754.12l-26.64 15.45v30.92L914.81 816l26.64-15.46v-30.97z"/><path id="14a1b" d="M901.03 785.57a13.4 13.4 0 1 1 26.8 0 13.4 13.4 0 0 1-26.8 0z"/><path id="14a1c" d="M917.82 788.19a1.59 1.59 0 0 1-1.59 1.59h-4.05v-3.45h4.05c.88 0 1.59.71 1.59 1.59zm-5.64-6.63h3.36a1.59 1.59 0 0 1 0 3.18h-3.36zm6.31 1.59c0-1.6-1.3-2.9-2.91-2.9h-.23v-1.65H914v1.65h-3.13v10.85H914v1.64h1.32v-1.64h.92c1.6 0 2.91-1.3 2.91-2.91v-.27c0-1.12-.65-2.14-1.66-2.62.63-.54 1-1.32 1-2.15z"/></defs><g><g transform="translate(-888 -754)"><use fill="#fff" fill-opacity="0" stroke="#fff" stroke-miterlimit="50" stroke-width="2" xlink:href="#14a1a"/></g><g transform="translate(-888 -754)"><use fill="#fff" fill-opacity="0" stroke="#fff" stroke-miterlimit="50" xlink:href="#14a1b"/></g><g transform="translate(-888 -754)"><use fill="#fff" xlink:href="#14a1c"/></g></g></svg>