<svg xmlns="http://www.w3.org/2000/svg" xmlns:xlink="http://www.w3.org/1999/xlink" width="55" height="62" viewBox="0 0 55 62"><defs><path id="czxfa" d="M1118.45 754.12l-26.64 15.45v30.92l26.64 15.51 26.64-15.46v-30.97z"/><path id="czxfb" d="M1129.06 780.9a3.66 3.66 0 0 0-3.29-3.1 92.64 92.64 0 0 0-14.33 0 3.66 3.66 0 0 0-3.29 3.1 34.46 34.46 0 0 0 0 8.5 3.68 3.68 0 0 0 3.3 3.1c3 .2 5.12.27 7.15.27 2.03 0 4.12-.07 7.17-.26a3.7 3.7 0 0 0 3.3-3.11 35 35 0 0 0 0-8.5zm-6.9 4.26l-5.7 2.5a.58.58 0 0 1-.19 0 .46.46 0 0 1-.25-.07.46.46 0 0 1-.2-.4v-5a.47.47 0 0 1 .64-.42l5.7 2.5c.17.08.28.24.28.42s-.1.35-.28.43z"/></defs><g><g transform="translate(-1091 -754)"><g><g><use fill="#fff" fill-opacity="0" stroke="#fff" stroke-miterlimit="50" stroke-width="2" xlink:href="#czxfa"/></g></g><g><g><use fill="#fff" xlink:href="#czxfb"/></g></g></g></g></svg>