<svg xmlns="http://www.w3.org/2000/svg" xmlns:xlink="http://www.w3.org/1999/xlink" width="57" height="66" viewBox="0 0 57 66"><defs><path id="uewoa" d="M1195.59 701.54h-21.41c-.26 0-.46.2-.47.46v13a.46.46 0 0 0 .47.47h21.41a.45.45 0 0 0 .46-.47v-13c0-.25-.2-.46-.46-.46zm-2.1 11a.46.46 0 0 1-.23.87.46.46 0 0 1-.23-.06l-6.42-3.69-1.44 1.15a.43.43 0 0 1-.25.05c-.09 0-.17 0-.25-.05l-1.44-1.14-6.41 3.7a.53.53 0 0 1-.23.06.47.47 0 0 1-.24-.87l6.1-3.49-6.15-4.86a.46.46 0 0 1-.08-.65c.16-.2.45-.24.66-.09l8.08 6.4 8.09-6.4c.2-.15.5-.11.66.09a.46.46 0 0 1-.08.65l-6.15 4.86 6.09 3.49z"/><path id="uewob" d="M1185.42 676.88L1157.66 693v32.22l27.76 16.11 27.76-16.11V693z"/></defs><g><g transform="translate(-1157 -676)"><use fill="#fff" xlink:href="#uewoa"/></g><g transform="translate(-1157 -676)"><use fill="#fff" fill-opacity="0" stroke="#fff" stroke-miterlimit="50" stroke-width="2" xlink:href="#uewob"/></g></g></svg>