<svg xmlns="http://www.w3.org/2000/svg" xmlns:xlink="http://www.w3.org/1999/xlink" width="54" height="62" viewBox="0 0 54 62"><defs><path id="h0ita" d="M1184.9 754.12l-26.64 15.45v30.92L1184.9 816l26.64-15.46v-30.97z"/><path id="h0itb" d="M1192.69 792.67a10.64 10.64 0 0 1-4.43 2.68v-1.93c.08-.87-.3-1.71-1-2.23a8.6 8.6 0 0 0 3.45-1.02 4.57 4.57 0 0 0 1.68-1.83c.22-.45.38-.93.47-1.43.13-.6.19-1.22.18-1.84a4.7 4.7 0 0 0-1.27-3.32 4.41 4.41 0 0 0-.12-3.28h-.32c-.4 0-.8.1-1.17.27-.67.26-1.31.6-1.91 1a11.77 11.77 0 0 0-6.19 0 9.53 9.53 0 0 0-2.26-1.15 3.58 3.58 0 0 0-1.07-.13h-.12a4.42 4.42 0 0 0-.13 3.28c-.84.9-1.3 2.1-1.27 3.32 0 .62.06 1.23.18 1.84.1.5.26.98.48 1.43a4.48 4.48 0 0 0 1.67 1.83 8.48 8.48 0 0 0 3.45 1.02 2.51 2.51 0 0 0-1 2.23v2a10.75 10.75 0 0 1-4.55-2.72 10.74 10.74 0 0 1-2.32-11.84 11 11 0 0 1 5.75-5.75 10.81 10.81 0 0 1 14.16 14.16 10.62 10.62 0 0 1-2.34 3.41zm-7.63-20.5a12.86 12.86 0 1 0 0 25.72 12.86 12.86 0 0 0 0-25.72z"/></defs><g><g transform="translate(-1158 -754)"><g><g><g><use fill="#fff" fill-opacity="0" stroke="#fff" stroke-miterlimit="50" stroke-width="2" xlink:href="#h0ita"/></g></g><g><use fill="#fff" xlink:href="#h0itb"/></g></g></g></g></svg>