<svg xmlns="http://www.w3.org/2000/svg" xmlns:xlink="http://www.w3.org/1999/xlink" width="54" height="62" viewBox="0 0 54 62"><defs><path id="neqva" d="M1249.21 754.12l-26.64 15.45v30.92l26.64 15.51 26.64-15.46v-30.97z"/><path id="neqvb" d="M1260.08 778.87h-.85a1 1 0 0 0-.76.74v10.54c.09.36.39.64.76.69h.85v2.5h-7.68v-2.5h1.6v-11.08h-.08l-3.76 13.58h-2.9l-3.71-13.58h-.09v11.08h1.61v2.5h-6.43v-2.5h.82a.9.9 0 0 0 .78-.69v-10.54a1 1 0 0 0-.78-.74h-.82v-2.5h8l2.64 9.82h.07l2.66-9.82h8v2.5"/></defs><g><g transform="translate(-1222 -754)"><g><g><use fill="#fff" fill-opacity="0" stroke="#fff" stroke-miterlimit="50" stroke-width="2" xlink:href="#neqva"/></g></g><g><g><g><g><use fill="#fff" xlink:href="#neqvb"/></g></g></g></g></g></g></svg>