<svg xmlns="http://www.w3.org/2000/svg" xmlns:xlink="http://www.w3.org/1999/xlink" width="56" height="65" viewBox="0 0 56 65"><defs><path id="7f2ga" d="M1249.8 676l-27.8 16.11v32.22l27.76 16.11 27.77-16.11v-32.22z"/><path id="7f2gb" d="M1247.39 711.66s.15 5.83-.5 5c-.21-.26 0 .08-.71-2.33s-1.34-4.18-1.34-4.18l11-7.15s1.27-1 1.24-.21zm12.19-12.26l-.13.05-12.58 4.85-7.15 2.77c-.42.17-1 .35-.92.94.08.59.59.63 1 .77 1.48.47 3 .92 4.45 1.38.23.05.41.22.47.46l1.7 5.64a.82.82 0 0 0 1.34.53c.2-.12.38-.27.55-.43.67-.65 1.34-1.3 2-2a.52.52 0 0 1 .83-.06c1.12.86 2.26 1.69 3.4 2.53.46.37.95.7 1.47 1a1 1 0 0 0 1.6-.65c.09-.24.15-.48.2-.72l2.82-13.32.5-2.45c.03-1.2-.6-1.64-1.55-1.3z"/></defs><g><g transform="translate(-1222 -676)"><use fill="#fff" fill-opacity="0" stroke="#fff" stroke-miterlimit="50" stroke-width="2" xlink:href="#7f2ga"/></g><g transform="translate(-1222 -676)"><use fill="#fff" xlink:href="#7f2gb"/></g></g></svg>