<svg xmlns="http://www.w3.org/2000/svg" xmlns:xlink="http://www.w3.org/1999/xlink" width="54" height="62" viewBox="0 0 54 62"><defs><path id="a1tqa" d="M1050.93 754.12l-26.64 15.45v30.92l26.64 15.51 26.64-15.46v-30.97z"/><path id="a1tqb" d="M1061.68 778.6a.47.47 0 0 0-.56-.1c-.2.09-.4.16-.6.2a4 4 0 0 0 .7-1.35.46.46 0 0 0-.7-.5 9.8 9.8 0 0 1-2.25.88 4.7 4.7 0 0 0-5.87-.46 4.64 4.64 0 0 0-2 4.28 11 11 0 0 1-7.73-4.17.49.49 0 0 0-.4-.17c-.15 0-.29.1-.36.23a4.51 4.51 0 0 0-.52 3.5c.16.6.43 1.19.8 1.7-.16-.1-.32-.2-.46-.31a.48.48 0 0 0-.5-.06.47.47 0 0 0-.26.42 4.74 4.74 0 0 0 2.52 4.14 2.91 2.91 0 0 1-.64-.13.47.47 0 0 0-.5.13.46.46 0 0 0-.06.5 5.05 5.05 0 0 0 3.53 2.87 8 8 0 0 1-4.92 1 .43.43 0 0 0-.5.28c-.06.2 0 .33.22.43a13.66 13.66 0 0 0 6.9 1.74c3.44.05 6.73-1.42 9-4a11.37 11.37 0 0 0 3.18-8.4c.78-.6 1.45-1.31 2-2.12a.47.47 0 0 0 0-.56"/></defs><g><g transform="translate(-1024 -754)"><g><g><use fill="#fff" fill-opacity="0" stroke="#fff" stroke-miterlimit="50" stroke-width="2" xlink:href="#a1tqa"/></g></g><g><g><use fill="#fff" xlink:href="#a1tqb"/></g></g></g></g></svg>