<svg xmlns="http://www.w3.org/2000/svg" xmlns:xlink="http://www.w3.org/1999/xlink" width="40" height="33" viewBox="0 0 40 33"><defs><path id="aesaa" d="M257.64 13227.69s.27 10-.86 8.65c-.36-.45-.06.14-1.22-4-1.2-4.35-2.29-7.18-2.29-7.18l19-12.3s2.17-1.66 2.14-.36zm20.94-21.12l-.22.09-21.6 8.33c-4.12 1.58-8.23 3.16-12.32 4.77-.72.29-1.66.6-1.58 1.6.08 1 1 1.1 1.74 1.33 2.55.8 5.1 1.59 7.66 2.37.4.09.71.4.8.8 1 3.23 2 6.46 2.94 9.69a1.42 1.42 0 0 0 2.3.92c.34-.21.66-.46.94-.75 1.14-1.11 2.3-2.21 3.4-3.36a.9.9 0 0 1 1.42-.11c1.93 1.47 3.9 2.92 5.85 4.34a19 19 0 0 0 2.52 1.76 1.79 1.79 0 0 0 2.77-1.11c.15-.41.26-.83.33-1.25l4.85-22.9.88-4.2c.04-2.2-1.03-2.93-2.68-2.32z"/></defs><g><g transform="translate(-242 -13206)"><use fill="#fff" xlink:href="#aesaa"/></g></g></svg>