<svg xmlns="http://www.w3.org/2000/svg" xmlns:xlink="http://www.w3.org/1999/xlink" width="35" height="20" viewBox="0 0 35 20"><defs><path id="29xta" d="M1382.87 72.87v-1.51h33.56v1.51z"/><path id="29xtb" d="M1382.87 71.36v-1.51h33.56v1.51z"/><path id="29xtc" d="M1382.87 69.85v-1.5h33.56v1.5z"/><path id="29xtd" d="M1382.87 68.35v-1.51h33.56v1.51z"/><path id="29xte" d="M1382.87 66.84v-1.51h33.56v1.51z"/><path id="29xtf" d="M1382.87 65.33v-1.5h33.56v1.5z"/><path id="29xtg" d="M1382.87 63.83v-1.51h33.56v1.51z"/><path id="29xth" d="M1382.87 62.32v-1.5h33.56v1.5z"/><path id="29xti" d="M1382.87 60.82v-1.51h33.56v1.51z"/><path id="29xtj" d="M1382.87 59.31V57.8h33.56v1.51z"/><path id="29xtk" d="M1382.87 57.81V56.3h33.56v1.51z"/><path id="29xtl" d="M1382.87 56.3v-1.51h33.56v1.51z"/><path id="29xtm" d="M1382.87 54.79v-1.51h33.56v1.51z"/><path id="29xtn" d="M1382.87 63.82V53.28h15.33v10.54z"/><path id="29xto" d="M1384.25 54.45l.13.4h.43l-.35.24.13.4-.34-.25-.34.25.14-.4-.34-.24h.41l.13-.4z"/><path id="29xtp" d="M1384.25 56.21l.13.39h.43l-.35.25.13.4-.34-.25-.34.25.14-.4-.34-.25h.41l.13-.39z"/><path id="29xtq" d="M1384.25 57.97l.13.4h.43l-.35.24.13.4-.34-.25-.34.25.14-.4-.34-.24h.41l.13-.4z"/><path id="29xtr" d="M1384.25 59.73l.13.4h.43l-.35.24.13.4-.34-.25-.34.25.14-.4-.34-.24h.41l.13-.4z"/><path id="29xts" d="M1384.25 61.49l.13.4h.43l-.35.24.13.4-.34-.25-.34.25.14-.4-.34-.24h.41l.13-.4z"/><path id="29xtt" d="M1385.48 55.37l.13.4h.42l-.34.25.13.4-.34-.25-.34.25.13-.4-.34-.25h.42l.13-.4z"/><path id="29xtu" d="M1385.48 57.13l.13.4h.42l-.34.25.13.4-.34-.25-.34.25.13-.4-.34-.25h.42l.13-.4z"/><path id="29xtv" d="M1385.48 58.89l.13.4h.42l-.34.25.13.4-.34-.25-.34.25.13-.4-.34-.25h.42l.13-.4z"/><path id="29xtw" d="M1385.48 60.66l.13.39h.42l-.34.25.13.4-.34-.25-.34.25.13-.4-.34-.25h.42l.13-.39z"/><path id="29xtx" d="M1386.72 54.45l.13.4h.42l-.34.24.13.4-.34-.25-.34.25.13-.4-.34-.24h.42l.13-.4z"/><path id="29xty" d="M1386.72 56.21l.13.39h.42l-.34.25.13.4-.34-.25-.34.25.13-.4-.34-.25h.42l.13-.39z"/><path id="29xtz" d="M1386.72 57.97l.13.4h.42l-.34.24.13.4-.34-.25-.34.25.13-.4-.34-.24h.42l.13-.4z"/><path id="29xtA" d="M1386.72 59.73l.13.4h.42l-.34.24.13.4-.34-.25-.34.25.13-.4-.34-.24h.42l.13-.4z"/><path id="29xtB" d="M1386.72 61.49l.13.4h.42l-.34.24.13.4-.34-.25-.34.25.13-.4-.34-.24h.42l.13-.4z"/><path id="29xtC" d="M1387.94 55.37l.13.4h.43l-.35.25.14.4-.35-.25-.33.25.13-.4-.34-.25h.42l.12-.4z"/><path id="29xtD" d="M1387.94 57.13l.13.4h.43l-.35.25.14.4-.35-.25-.33.25.13-.4-.34-.25h.42l.12-.4z"/><path id="29xtE" d="M1387.94 58.89l.13.4h.43l-.35.25.14.4-.35-.25-.33.25.13-.4-.34-.25h.42l.12-.4z"/><path id="29xtF" d="M1387.94 60.66l.13.39h.43l-.35.25.14.4-.35-.25-.33.25.13-.4-.34-.25h.42l.12-.39z"/><path id="29xtG" d="M1389.19 54.45l.13.4h.41l-.34.24.14.4-.34-.25-.34.25.13-.4-.34-.24h.42l.13-.4z"/><path id="29xtH" d="M1389.19 56.21l.13.39h.41l-.34.25.14.4-.34-.25-.34.25.13-.4-.34-.25h.42l.13-.39z"/><path id="29xtI" d="M1389.19 57.97l.13.4h.41l-.34.24.14.4-.34-.25-.34.25.13-.4-.34-.24h.42l.13-.4z"/><path id="29xtJ" d="M1389.19 59.73l.13.4h.41l-.34.24.14.4-.34-.25-.34.25.13-.4-.34-.24h.42l.13-.4z"/><path id="29xtK" d="M1389.19 61.49l.13.4h.41l-.34.24.14.4-.34-.25-.34.25.13-.4-.34-.24h.42l.13-.4z"/><path id="29xtL" d="M1390.41 55.37l.13.4h.42l-.34.25.13.4-.34-.25-.33.25.12-.4-.33-.25h.41l.13-.4z"/><path id="29xtM" d="M1390.41 57.13l.13.4h.42l-.34.25.13.4-.34-.25-.33.25.12-.4-.33-.25h.41l.13-.4z"/><path id="29xtN" d="M1390.41 58.89l.13.4h.42l-.34.25.13.4-.34-.25-.33.25.12-.4-.33-.25h.41l.13-.4z"/><path id="29xtO" d="M1390.41 60.66l.13.39h.42l-.34.25.13.4-.34-.25-.33.25.12-.4-.33-.25h.41l.13-.39z"/><path id="29xtP" d="M1391.65 54.45l.13.4h.42l-.34.24.13.4-.34-.25-.33.25.12-.4-.33-.24h.41l.13-.4z"/><path id="29xtQ" d="M1391.65 56.21l.13.39h.42l-.34.25.13.4-.34-.25-.33.25.12-.4-.33-.25h.41l.13-.39z"/><path id="29xtR" d="M1391.65 57.97l.13.4h.42l-.34.24.13.4-.34-.25-.33.25.12-.4-.33-.24h.41l.13-.4z"/><path id="29xtS" d="M1391.65 59.73l.13.4h.42l-.34.24.13.4-.34-.25-.33.25.12-.4-.33-.24h.41l.13-.4z"/><path id="29xtT" d="M1391.65 61.49l.13.4h.42l-.34.24.13.4-.34-.25-.33.25.12-.4-.33-.24h.41l.13-.4z"/><path id="29xtU" d="M1392.88 55.37l.13.4h.42l-.34.25.13.4-.34-.25-.34.25.13-.4-.34-.25h.42l.13-.4z"/><path id="29xtV" d="M1392.88 57.13l.13.4h.42l-.34.25.13.4-.34-.25-.34.25.13-.4-.34-.25h.42l.13-.4z"/><path id="29xtW" d="M1392.88 58.89l.13.4h.42l-.34.25.13.4-.34-.25-.34.25.13-.4-.34-.25h.42l.13-.4z"/><path id="29xtX" d="M1392.88 60.66l.13.39h.42l-.34.25.13.4-.34-.25-.34.25.13-.4-.34-.25h.42l.13-.39z"/><path id="29xtY" d="M1394.12 54.45l.13.4h.42l-.34.24.13.4-.34-.25-.33.25.12-.4-.34-.24h.42l.13-.4z"/><path id="29xtZ" d="M1394.12 56.21l.13.39h.42l-.34.25.13.4-.34-.25-.33.25.12-.4-.34-.25h.42l.13-.39z"/><path id="29xtaa" d="M1394.12 57.97l.13.4h.42l-.34.24.13.4-.34-.25-.33.25.12-.4-.34-.24h.42l.13-.4z"/><path id="29xtab" d="M1394.12 59.73l.13.4h.42l-.34.24.13.4-.34-.25-.33.25.12-.4-.34-.24h.42l.13-.4z"/><path id="29xtac" d="M1394.12 61.49l.13.4h.42l-.34.24.13.4-.34-.25-.33.25.12-.4-.34-.24h.42l.13-.4z"/><path id="29xtad" d="M1395.35 55.37l.12.4h.42l-.33.25.12.4-.33-.25-.34.25.13-.4-.34-.25h.42l.13-.4z"/><path id="29xtae" d="M1395.35 57.13l.12.4h.42l-.33.25.12.4-.33-.25-.34.25.13-.4-.34-.25h.42l.13-.4z"/><path id="29xtaf" d="M1395.35 58.89l.12.4h.42l-.33.25.12.4-.33-.25-.34.25.13-.4-.34-.25h.42l.13-.4z"/><path id="29xtag" d="M1395.35 60.66l.12.39h.42l-.33.25.12.4-.33-.25-.34.25.13-.4-.34-.25h.42l.13-.39z"/><path id="29xtah" d="M1396.59 54.45l.13.4h.41l-.33.24.13.4-.34-.25-.34.25.13-.4-.34-.24h.42l.13-.4z"/><path id="29xtai" d="M1396.59 56.21l.13.39h.41l-.33.25.13.4-.34-.25-.34.25.13-.4-.34-.25h.42l.13-.39z"/><path id="29xtaj" d="M1396.59 57.97l.13.4h.41l-.33.24.13.4-.34-.25-.34.25.13-.4-.34-.24h.42l.13-.4z"/><path id="29xtak" d="M1396.59 59.73l.13.4h.41l-.33.24.13.4-.34-.25-.34.25.13-.4-.34-.24h.42l.13-.4z"/><path id="29xtal" d="M1396.59 61.49l.13.4h.41l-.33.24.13.4-.34-.25-.34.25.13-.4-.34-.24h.42l.13-.4z"/></defs><g><g transform="translate(-1382 -53)"><g><g><use fill="#cb001b" xlink:href="#29xta"/></g><g><use fill="#fff" xlink:href="#29xtb"/></g><g><use fill="#cb001b" xlink:href="#29xtc"/></g><g><use fill="#fff" xlink:href="#29xtd"/></g><g><use fill="#cb001b" xlink:href="#29xte"/></g><g><use fill="#fff" xlink:href="#29xtf"/></g><g><use fill="#cb001b" xlink:href="#29xtg"/></g><g><use fill="#fff" xlink:href="#29xth"/></g><g><use fill="#cb001b" xlink:href="#29xti"/></g><g><use fill="#fff" xlink:href="#29xtj"/></g><g><use fill="#cb001b" xlink:href="#29xtk"/></g><g><use fill="#fff" xlink:href="#29xtl"/></g><g><use fill="#cb001b" xlink:href="#29xtm"/></g><g><use fill="#2a3460" xlink:href="#29xtn"/></g><g><use fill="#fff" xlink:href="#29xto"/></g><g><use fill="#fff" xlink:href="#29xtp"/></g><g><use fill="#fff" xlink:href="#29xtq"/></g><g><use fill="#fff" xlink:href="#29xtr"/></g><g><use fill="#fff" xlink:href="#29xts"/></g><g><use fill="#fff" xlink:href="#29xtt"/></g><g><use fill="#fff" xlink:href="#29xtu"/></g><g><use fill="#fff" xlink:href="#29xtv"/></g><g><use fill="#fff" xlink:href="#29xtw"/></g><g><use fill="#fff" xlink:href="#29xtx"/></g><g><use fill="#fff" xlink:href="#29xty"/></g><g><use fill="#fff" xlink:href="#29xtz"/></g><g><use fill="#fff" xlink:href="#29xtA"/></g><g><use fill="#fff" xlink:href="#29xtB"/></g><g><use fill="#fff" xlink:href="#29xtC"/></g><g><use fill="#fff" xlink:href="#29xtD"/></g><g><use fill="#fff" xlink:href="#29xtE"/></g><g><use fill="#fff" xlink:href="#29xtF"/></g><g><use fill="#fff" xlink:href="#29xtG"/></g><g><use fill="#fff" xlink:href="#29xtH"/></g><g><use fill="#fff" xlink:href="#29xtI"/></g><g><use fill="#fff" xlink:href="#29xtJ"/></g><g><use fill="#fff" xlink:href="#29xtK"/></g><g><use fill="#fff" xlink:href="#29xtL"/></g><g><use fill="#fff" xlink:href="#29xtM"/></g><g><use fill="#fff" xlink:href="#29xtN"/></g><g><use fill="#fff" xlink:href="#29xtO"/></g><g><use fill="#fff" xlink:href="#29xtP"/></g><g><use fill="#fff" xlink:href="#29xtQ"/></g><g><use fill="#fff" xlink:href="#29xtR"/></g><g><use fill="#fff" xlink:href="#29xtS"/></g><g><use fill="#fff" xlink:href="#29xtT"/></g><g><use fill="#fff" xlink:href="#29xtU"/></g><g><use fill="#fff" xlink:href="#29xtV"/></g><g><use fill="#fff" xlink:href="#29xtW"/></g><g><use fill="#fff" xlink:href="#29xtX"/></g><g><use fill="#fff" xlink:href="#29xtY"/></g><g><use fill="#fff" xlink:href="#29xtZ"/></g><g><use fill="#fff" xlink:href="#29xtaa"/></g><g><use fill="#fff" xlink:href="#29xtab"/></g><g><use fill="#fff" xlink:href="#29xtac"/></g><g><use fill="#fff" xlink:href="#29xtad"/></g><g><use fill="#fff" xlink:href="#29xtae"/></g><g><use fill="#fff" xlink:href="#29xtaf"/></g><g><use fill="#fff" xlink:href="#29xtag"/></g><g><use fill="#fff" xlink:href="#29xtah"/></g><g><use fill="#fff" xlink:href="#29xtai"/></g><g><use fill="#fff" xlink:href="#29xtaj"/></g><g><use fill="#fff" xlink:href="#29xtak"/></g><g><use fill="#fff" xlink:href="#29xtal"/></g></g></g></g></svg>