<svg xmlns="http://www.w3.org/2000/svg" width="46" height="28" viewBox="0 0 46 28"><path fill="#6d6d6d" d="M23 0A25.83 25.83 0 0 0 0 14a25.83 25.83 0 0 0 23 14 25.83 25.83 0 0 0 23-14A25.83 25.83 0 0 0 23 0zm11.34 7.42c2.7 1.68 5 3.93 6.71 6.58A21.59 21.59 0 0 1 23 23.8 21.47 21.47 0 0 1 4.95 14a21.6 21.6 0 0 1 7.24-6.9c-.44 1.2-.69 2.5-.69 3.84 0 6.18 5.15 11.2 11.5 11.2s11.5-5.02 11.5-11.2c0-1.35-.25-2.64-.7-3.83l.54.31zM23 9.54c0 2.32-1.93 4.2-4.31 4.2a4.26 4.26 0 0 1-4.32-4.2c0-2.32 1.94-4.2 4.32-4.2A4.26 4.26 0 0 1 23 9.54z"/></svg>