<svg xmlns="http://www.w3.org/2000/svg" viewBox="0 0 267.65 55.75"><defs><style>.cls-1,.cls-7{fill:#d24a43;}.cls-1,.cls-5,.cls-6{fill-rule:evenodd;}.cls-2{fill:none;stroke:#d24a43;stroke-miterlimit:22.93;stroke-width:0.57px;}.cls-3,.cls-5{fill:#fff;}.cls-4,.cls-6{fill:#4e6394;}</style></defs><title>Ресурс 1</title><g id="Слой_2" data-name="Слой 2"><g id="Слой_1-2" data-name="Слой 1"><path class="cls-1" d="M34.39,16.34h4c1.48,19.74-3.19,30.82-18.83,39l-.1,0-.1,0C3.73,47.16-.94,36.08.54,16.34h4.1c2.91-.09,4.23-1.87,4.71-5H30C30.32,14,31,16.09,34.39,16.34Z"/><path class="cls-2" d="M34.39,16.34h4c1.48,19.74-3.19,30.82-18.83,39l-.1,0-.1,0C3.73,47.16-.94,36.08.54,16.34h4.1c2.91-.09,4.23-1.87,4.71-5H30C30.32,14,31,16.09,34.39,16.34Z"/><path class="cls-3" d="M24,34.08h2.89a1.58,1.58,0,0,0,1.79-1.79c0-1.15-.73-1.73-2.18-1.73H24ZM18.26,20.93V19H32.53V23.1H24v3.5h3.22a11.83,11.83,0,0,1,4.2.6,5,5,0,0,1,2.4,1.93,5.75,5.75,0,0,1,.89,3.26A7,7,0,0,1,34,35.47a4.45,4.45,0,0,1-2.46,2.22,9.39,9.39,0,0,1-3.53.71H23.68Z"/><path class="cls-3" d="M11.09,30.35h3.14l-1.57-5.61Zm5.27,8-1.09-3.81H10.08L8.92,38.39H4.1l6-19.35h6.28l6.05,19.35Z"/><path class="cls-4" d="M267.65,38.85V55.46h-4.83V46.34l-6.22,9.12h-4.84V38.85h4.84V48l6.26-9.19Zm-33.81,0h15.6V43H244.2V55.46h-5.13V43h-5.23ZM228,48.67l4.5,1.36a8.29,8.29,0,0,1-1.43,3.16,6.17,6.17,0,0,1-2.42,1.91,9,9,0,0,1-3.67.65,10.7,10.7,0,0,1-4.42-.79,7,7,0,0,1-3-2.77,9.42,9.42,0,0,1-1.25-5.07,8.62,8.62,0,0,1,2.19-6.34,10,10,0,0,1,11.14-.95,7.45,7.45,0,0,1,2.67,3.9l-4.53,1a3.92,3.92,0,0,0-.5-1.11,3,3,0,0,0-1.05-.9,3.24,3.24,0,0,0-4.07,1.09,6,6,0,0,0-.7,3.28,6.24,6.24,0,0,0,.84,3.79,3.31,3.31,0,0,0,4.58.2A5.1,5.1,0,0,0,228,48.67Zm-25.9-1.48a5.58,5.58,0,0,0,.93,3.62,3.54,3.54,0,0,0,5.1,0,6.16,6.16,0,0,0,.91-3.86,5.14,5.14,0,0,0-.95-3.43,3.24,3.24,0,0,0-2.57-1.08,3.11,3.11,0,0,0-2.49,1.1A5.59,5.59,0,0,0,202.12,47.19Zm-5.13,0a7.86,7.86,0,0,1,8.58-8.6A8.69,8.69,0,0,1,212,40.8,8.4,8.4,0,0,1,214.2,47a10.22,10.22,0,0,1-1,4.78,7,7,0,0,1-2.83,2.9,9.34,9.34,0,0,1-4.62,1,10.66,10.66,0,0,1-4.65-.89,7,7,0,0,1-3-2.83A9.42,9.42,0,0,1,197,47.16Zm-18.66-8.31h5.13v5.81h5.61V38.85h5.15V55.46h-5.15V48.74h-5.61v6.72h-5.13Zm-7,9.82,4.5,1.36a8.29,8.29,0,0,1-1.43,3.16A6.18,6.18,0,0,1,172,55.11a9,9,0,0,1-3.67.65,10.7,10.7,0,0,1-4.42-.79,7,7,0,0,1-3-2.77,9.42,9.42,0,0,1-1.25-5.07,8.62,8.62,0,0,1,2.19-6.34A10,10,0,0,1,173,39.84a7.44,7.44,0,0,1,2.67,3.9l-4.53,1a3.92,3.92,0,0,0-.5-1.11,3,3,0,0,0-1.05-.9,3.24,3.24,0,0,0-4.07,1.09,6,6,0,0,0-.7,3.28,6.24,6.24,0,0,0,.84,3.79,3.31,3.31,0,0,0,4.58.2A5.11,5.11,0,0,0,171.32,48.67Zm-20,.45-1.84-6-1.82,6Zm1.08,3.59h-5.85l-.8,2.74h-5.24l6.24-16.61h5.6l6.24,16.61h-5.37ZM138.8,55.46h-5.12V42.93H128V55.46h-5.12V38.85H138.8Zm-30.74-8.27A5.58,5.58,0,0,0,109,50.8a3.54,3.54,0,0,0,5.1,0A6.16,6.16,0,0,0,115,47a5.14,5.14,0,0,0-.95-3.43,3.24,3.24,0,0,0-2.57-1.08,3.11,3.11,0,0,0-2.49,1.1A5.58,5.58,0,0,0,108.05,47.19Zm-5.14,0a7.86,7.86,0,0,1,8.58-8.6,8.69,8.69,0,0,1,6.39,2.23A8.4,8.4,0,0,1,120.13,47a10.22,10.22,0,0,1-1,4.78,7,7,0,0,1-2.83,2.9,9.34,9.34,0,0,1-4.62,1,10.66,10.66,0,0,1-4.65-.89,7,7,0,0,1-3-2.83A9.42,9.42,0,0,1,102.92,47.16ZM98,46.43a3.6,3.6,0,0,1,3,3.76,4.94,4.94,0,0,1-1.88,4,8,8,0,0,1-5.29,1.56q-5.85,0-7.26-4.9l4.85-.36a2.11,2.11,0,0,0,2.32,1.73,2.23,2.23,0,0,0,1.62-.53,2,2,0,0,0,.55-1.48,1.85,1.85,0,0,0-.69-1.49,2.89,2.89,0,0,0-1.89-.57H91.93v-3H93a2.22,2.22,0,0,0,1.55-.51,1.86,1.86,0,0,0,.56-1.43c0-.9-.56-1.35-1.69-1.35a1.8,1.8,0,0,0-2,1.55l-4.59-.53q1.13-4.32,6.71-4.32a8.5,8.5,0,0,1,4.85,1.2A3.74,3.74,0,0,1,100.14,43,3.49,3.49,0,0,1,98,46.43ZM70.84,38.85H84.59V42.4H76V45h8v3.39H76V51.7h8.86v3.76h-14Zm-12.89,13h2.63q2.41,0,2.41-1.74,0-1.53-2.41-1.53H57.94Zm0-6.64h2.74q3.77,0,5.6,1.33a4.78,4.78,0,0,1,1.82,4.14,4.09,4.09,0,0,1-1.67,3.52,8.05,8.05,0,0,1-4.79,1.22H52.82V38.85h14v3.36H57.94Zm193-22.81c0,2.31.42,4,1.28,5a4.87,4.87,0,0,0,7,0q1.24-1.48,1.25-5.31a7.06,7.06,0,0,0-1.3-4.71,4.45,4.45,0,0,0-3.53-1.48,4.27,4.27,0,0,0-3.42,1.51C251.33,18.45,250.9,20.11,250.9,22.44Zm-7.06,0q0-5.59,3.11-8.7t8.67-3.11q5.7,0,8.78,3.06t3.08,8.57a14,14,0,0,1-1.35,6.56,9.62,9.62,0,0,1-3.89,4,12.83,12.83,0,0,1-6.34,1.42A14.65,14.65,0,0,1,249.52,33a9.69,9.69,0,0,1-4.1-3.9A12.94,12.94,0,0,1,243.85,22.4ZM227.06,28.9h3.6a3.94,3.94,0,0,0,2.57-.64,2.18,2.18,0,0,0,.75-1.74,2,2,0,0,0-.74-1.63,4.13,4.13,0,0,0-2.59-.62h-3.58Zm0-9h3.07a3.56,3.56,0,0,0,2.3-.57,2.08,2.08,0,0,0,.64-1.64,2,2,0,0,0-.64-1.56,3.47,3.47,0,0,0-2.25-.56h-3.11Zm-7.12-9h13.21a7.18,7.18,0,0,1,5.06,1.64,5.29,5.29,0,0,1,1.77,4,5.12,5.12,0,0,1-1.26,3.48,5.63,5.63,0,0,1-2.46,1.53,6.42,6.42,0,0,1,3.62,2A5.6,5.6,0,0,1,241,27.31a6.25,6.25,0,0,1-.82,3.19A6.1,6.1,0,0,1,238,32.75a7.46,7.46,0,0,1-2.68.74,31.22,31.22,0,0,1-3.16.31H219.95Zm-24.64,0h21.44v5.64h-7.19V33.8H202.5V16.62h-7.19Zm-8,13.5,6.18,1.87a11.39,11.39,0,0,1-2,4.34,8.49,8.49,0,0,1-3.33,2.63,12.37,12.37,0,0,1-5,.89,14.7,14.7,0,0,1-6.08-1.08A9.66,9.66,0,0,1,173,29.32a12.94,12.94,0,0,1-1.71-7q0-5.67,3-8.71t8.52-3a11.57,11.57,0,0,1,6.78,1.74,10.23,10.23,0,0,1,3.67,5.36L187,19.08a5.38,5.38,0,0,0-.69-1.53,4.1,4.1,0,0,0-1.45-1.24,4.45,4.45,0,0,0-5.59,1.49,8.22,8.22,0,0,0-1,4.5q0,3.8,1.15,5.21a4.54,4.54,0,0,0,6.3.27A7,7,0,0,0,187.31,24.48ZM147.48,11h21.44v5.64h-7.2V33.8h-7.05V16.62h-7.19Zm-24.93,0h7.05v8h7.71V11h7.08V33.8h-7.08V24.57h-7.71V33.8h-7.05ZM96.31,16.59h-11V33.8h-7V11H96.31ZM66,25.1l-2.52-8.2L61,25.1ZM67.48,30h-8L58.34,33.8H51.13L59.71,11H67.4L76,33.8H68.6Z"/><path class="cls-5" d="M100.9,11.48c6.25-2.79,11.28,2.86,18.22-.57l-1.6,5.36c-7.27,3.19-11.24-2.49-18.22.57l1.6-5.36"/><path class="cls-4" d="M109.28,11.82c-2.63-.58-5.21-1.14-8,0L100,16c3.16-1.1,5.71-.51,8.28.08s5.37,1.24,8.8-.2l1.24-4.15c-3.35,1.31-6.25.68-9.09.05M100.71,11c3.14-1.4,5.92-.79,8.77-.16s6,1.31,9.43-.4l1-.49L119.58,11,118,16.41l-.06.21-.2.09c-3.82,1.68-6.72,1-9.6.34-2.67-.61-5.31-1.22-8.62.23l-.95.41.3-1,1.6-5.36.06-.21Z"/><path class="cls-6" d="M99.92,19.91c6.25-2.79,11.28,2.86,18.22-.57l-1.6,5.36c-7.27,3.19-11.24-2.49-18.22.57l1.6-5.36"/><path class="cls-4" d="M108.29,20.25c-2.63-.58-5.21-1.14-8,0l-1.25,4.2c3.16-1.1,5.71-.51,8.28.08s5.37,1.24,8.8-.2l1.24-4.15c-3.36,1.31-6.26.68-9.09.05m-8.57-.78c3.14-1.4,5.92-.79,8.77-.16s6,1.31,9.43-.4l1-.49-.31,1.05L117,24.83l-.06.21-.2.09c-3.82,1.68-6.72,1-9.6.34-2.67-.61-5.31-1.22-8.62.23l-.95.41.3-1,1.6-5.36.06-.21Z"/><path class="cls-1" d="M99.3,28.43c6.94-2.93,11.28,2.86,18.22-.57l-1.6,5.36c-7.27,3.19-11.24-2.49-18.22.57l1.6-5.36"/><path class="cls-7" d="M108.09,28.74c-2.62-.61-5.25-1.22-8.39,0L98.44,33c3.16-1.1,5.71-.51,8.28.08s5.37,1.24,8.8-.2l1.24-4.15c-3.27,1.28-6,.66-8.68,0m-9-.76c3.52-1.49,6.36-.83,9.19-.18s5.6,1.3,9-.38l1-.49L118,28l-1.6,5.36-.06.21-.2.09c-3.82,1.68-6.72,1-9.6.34-2.67-.61-5.31-1.22-8.62.23l-.95.41.3-1,1.6-5.36.06-.22Z"/><path class="cls-4" d="M266.33.11h1.3V6.54h-1.3Zm-4.81,5.35h1.27a4.09,4.09,0,0,0,.84-.06.84.84,0,0,0,.42-.27.75.75,0,0,0,.19-.51.73.73,0,0,0-.3-.64,2,2,0,0,0-1.1-.21h-1.32ZM260.22.11h1.3V2.68h1.74a3.34,3.34,0,0,1,1.18.19,1.72,1.72,0,0,1,.82.67,1.9,1.9,0,0,1,.33,1.1,1.85,1.85,0,0,1-.34,1.12,1.66,1.66,0,0,1-.76.62,3.7,3.7,0,0,1-1.23.15h-3Zm-6.93,6.43V.11h1.3V2.64h2.54V.11h1.3V6.54h-1.3V3.73h-2.54V6.54ZM249.8,4l-.89-2.39L248,4Zm2.39,2.54h-1.41l-.56-1.46h-2.57l-.53,1.46h-1.38l2.5-6.43h1.37ZM242.08,1.2V3h.71a3.36,3.36,0,0,0,1-.1.85.85,0,0,0,.41-.32.87.87,0,0,0,.15-.5.83.83,0,0,0-.21-.58.89.89,0,0,0-.52-.28,6.2,6.2,0,0,0-.93,0Zm-1.3,5.34V.11h2.08a7.54,7.54,0,0,1,1.54.1,1.68,1.68,0,0,1,.93.63,2,2,0,0,1,.37,1.25,2.08,2.08,0,0,1-.22,1,1.76,1.76,0,0,1-.55.63,1.87,1.87,0,0,1-.67.3,7.39,7.39,0,0,1-1.35.09h-.85V6.54Zm-7.05,0,2.2-3.35-2-3.07h1.52l1.29,2.07L238,.11h1.5l-2,3.12,2.2,3.31h-1.57l-1.42-2.22-1.43,2.22ZM228.4,3.32A2.41,2.41,0,0,0,228.9,5a1.64,1.64,0,0,0,1.28.56A1.63,1.63,0,0,0,231.46,5,2.46,2.46,0,0,0,232,3.3a2.42,2.42,0,0,0-.48-1.65,1.8,1.8,0,0,0-2.58,0A2.43,2.43,0,0,0,228.4,3.32Zm-1.34,0a4.09,4.09,0,0,1,.29-1.65,3.06,3.06,0,0,1,.6-.88,2.52,2.52,0,0,1,.83-.58A3.51,3.51,0,0,1,230.17,0a3,3,0,0,1,2.27.88,3.37,3.37,0,0,1,.85,2.45,3.37,3.37,0,0,1-.85,2.44,3,3,0,0,1-2.26.88,3,3,0,0,1-2.28-.87A3.32,3.32,0,0,1,227.06,3.36ZM215.49.11h1.21V4.39l2.6-4.28h1.29V6.54h-1.21V2.34l-2.6,4.2h-1.3Zm-11.85,0h1.21V4.39l2.6-4.28h1.29V6.54h-1.21V2.34l-2.6,4.2h-1.3Zm-4.47,6.43V1.2h-1.91V.11h5.11V1.2h-1.9V6.54Zm-4-2.36,1.26.4a2.82,2.82,0,0,1-1,1.56,3,3,0,0,1-3.81-.36,3.35,3.35,0,0,1-.82-2.39,3.52,3.52,0,0,1,.83-2.49A2.84,2.84,0,0,1,193.83,0a2.67,2.67,0,0,1,1.92.7,2.53,2.53,0,0,1,.66,1.18l-1.29.31a1.33,1.33,0,0,0-1.35-1.08,1.46,1.46,0,0,0-1.16.51,2.51,2.51,0,0,0-.44,1.66A2.69,2.69,0,0,0,192.6,5a1.42,1.42,0,0,0,1.14.52,1.3,1.3,0,0,0,.89-.33A1.91,1.91,0,0,0,195.16,4.17Zm-10.43-.85a2.41,2.41,0,0,0,.5,1.65,1.64,1.64,0,0,0,1.28.56A1.63,1.63,0,0,0,187.79,5a2.46,2.46,0,0,0,.5-1.68,2.43,2.43,0,0,0-.48-1.65,1.8,1.8,0,0,0-2.58,0A2.43,2.43,0,0,0,184.73,3.32Zm-1.34,0a4.08,4.08,0,0,1,.29-1.65,3.06,3.06,0,0,1,.6-.88,2.52,2.52,0,0,1,.83-.58A3.51,3.51,0,0,1,186.5,0a3,3,0,0,1,2.27.88,3.37,3.37,0,0,1,.85,2.45,3.37,3.37,0,0,1-.85,2.44,3,3,0,0,1-2.26.88,3,3,0,0,1-2.28-.87A3.32,3.32,0,0,1,183.39,3.36Zm-6.63,3.17V.11h1.3V2.64h2.54V.11h1.3V6.54h-1.3V3.73h-2.54V6.54ZM174,4.17l1.26.4a2.82,2.82,0,0,1-1,1.56,3,3,0,0,1-3.81-.36,3.35,3.35,0,0,1-.82-2.39,3.52,3.52,0,0,1,.83-2.49A2.84,2.84,0,0,1,172.64,0a2.67,2.67,0,0,1,1.92.7,2.52,2.52,0,0,1,.66,1.18l-1.29.31a1.33,1.33,0,0,0-1.35-1.08,1.46,1.46,0,0,0-1.16.51A2.51,2.51,0,0,0,171,3.28,2.69,2.69,0,0,0,171.41,5a1.42,1.42,0,0,0,1.14.52,1.3,1.3,0,0,0,.89-.33A1.92,1.92,0,0,0,174,4.17ZM166.6,4l-.89-2.39L164.84,4ZM169,6.54h-1.41L167,5.08h-2.57l-.53,1.46h-1.38L165,.11h1.37ZM156.34.11h5.11V6.54h-1.3V1.19h-2.52V6.54h-1.3ZM150,3.32a2.41,2.41,0,0,0,.5,1.65,1.64,1.64,0,0,0,1.28.56A1.63,1.63,0,0,0,153.06,5a2.46,2.46,0,0,0,.5-1.68,2.43,2.43,0,0,0-.48-1.65,1.8,1.8,0,0,0-2.58,0A2.43,2.43,0,0,0,150,3.32Zm-1.34,0A4.08,4.08,0,0,1,149,1.71a3.05,3.05,0,0,1,.6-.88,2.52,2.52,0,0,1,.83-.58A3.51,3.51,0,0,1,151.77,0,3,3,0,0,1,154,.88a3.37,3.37,0,0,1,.85,2.45,3.37,3.37,0,0,1-.85,2.44,3,3,0,0,1-2.26.88,3,3,0,0,1-2.28-.87A3.32,3.32,0,0,1,148.67,3.36Zm-4.74-1.5-1.26-.29A2.09,2.09,0,0,1,145,0a2.55,2.55,0,0,1,1.71.5,1.5,1.5,0,0,1,.58,1.17,1.39,1.39,0,0,1-.26.83,2.22,2.22,0,0,1-.79.65,2,2,0,0,1,1,.62,1.54,1.54,0,0,1,.32,1,1.71,1.71,0,0,1-.62,1.37,2.83,2.83,0,0,1-1.86.52,3.19,3.19,0,0,1-1.59-.33,2.1,2.1,0,0,1-.88-1.26l1.19-.39a1.25,1.25,0,0,0,.49.75,1.52,1.52,0,0,0,.75.17,1.27,1.27,0,0,0,.89-.26.81.81,0,0,0,.28-.61.76.76,0,0,0-.32-.64,1.58,1.58,0,0,0-1-.24h-.3v-1h.15a1.37,1.37,0,0,0,.91-.27.88.88,0,0,0,.32-.71.78.78,0,0,0-.26-.59,1,1,0,0,0-.73-.24A1,1,0,0,0,143.93,1.86Zm-7.32,4.67V.11h4.76V1.2h-3.47V2.62h3.23V3.7h-3.23V5.45h3.59V6.54Zm-5.54-1.08h1.26a4.17,4.17,0,0,0,.85-.06.82.82,0,0,0,.43-.27.76.76,0,0,0,.18-.52.72.72,0,0,0-.32-.65,2.11,2.11,0,0,0-1.08-.2h-1.32ZM129.77.11h4.8V1.19h-3.51V2.68h1.74a3.47,3.47,0,0,1,1.19.18,1.73,1.73,0,0,1,.81.65,1.87,1.87,0,0,1,.33,1.11,1.84,1.84,0,0,1-.34,1.12,1.76,1.76,0,0,1-.77.64,3.48,3.48,0,0,1-1.23.17h-3ZM119.65,1.2V3h.71a3.36,3.36,0,0,0,1-.1.85.85,0,0,0,.41-.32.87.87,0,0,0,.15-.5.83.83,0,0,0-.21-.58.89.89,0,0,0-.52-.28,6.21,6.21,0,0,0-.93,0Zm-1.3,5.34V.11h2.08a7.54,7.54,0,0,1,1.54.1,1.68,1.68,0,0,1,.93.63,2,2,0,0,1,.37,1.25,2.09,2.09,0,0,1-.22,1,1.76,1.76,0,0,1-.55.63,1.87,1.87,0,0,1-.67.3,7.38,7.38,0,0,1-1.35.09h-.85V6.54ZM111.71.11h1.45l1.5,3.34L115.94.11h1.35L115.12,5a4.78,4.78,0,0,1-.72,1.21,1.22,1.22,0,0,1-1,.41,4.22,4.22,0,0,1-.9-.07v-1l.5,0a1,1,0,0,0,.65-.16,1.63,1.63,0,0,0,.37-.71Zm-3.8,6.43V1.2H106V.11h5.11V1.2h-1.9V6.54ZM100.37.11h1.3V2.84a.87.87,0,0,0,.59-.22,4.54,4.54,0,0,0,.47-1,2.7,2.7,0,0,1,.81-1.3,2.52,2.52,0,0,1,1.3-.25H105V1h-.18a1.29,1.29,0,0,0-.58.1.74.74,0,0,0-.3.3,6.44,6.44,0,0,0-.34.83,3.1,3.1,0,0,1-.26.56,1.33,1.33,0,0,1-.49.42,1.34,1.34,0,0,1,.72.5,6.79,6.79,0,0,1,.62,1.05l.88,1.76h-1.52l-.77-1.66-.08-.14-.16-.3a1.93,1.93,0,0,0-.41-.59.84.84,0,0,0-.49-.12V6.54h-1.3ZM93.7.11h1.45l1.5,3.34L97.93.11h1.35L97.11,5a4.78,4.78,0,0,1-.72,1.21,1.22,1.22,0,0,1-1,.41,4.22,4.22,0,0,1-.9-.07v-1l.5,0a1,1,0,0,0,.65-.16,1.63,1.63,0,0,0,.37-.71ZM89.37,1.2V3h.71a3.36,3.36,0,0,0,1-.1.85.85,0,0,0,.41-.32.87.87,0,0,0,.15-.5.83.83,0,0,0-.21-.58.89.89,0,0,0-.52-.28,6.2,6.2,0,0,0-.93,0Zm-1.3,5.34V.11h2.08a7.54,7.54,0,0,1,1.54.1,1.68,1.68,0,0,1,.93.63A2,2,0,0,1,93,2.09a2.08,2.08,0,0,1-.22,1,1.76,1.76,0,0,1-.55.63,1.87,1.87,0,0,1-.67.3,7.38,7.38,0,0,1-1.35.09h-.85V6.54Zm-4.45,0V1.2H81.71V.11h5.11V1.2h-1.9V6.54Zm-4-2.36,1.26.4a2.82,2.82,0,0,1-1,1.56,3,3,0,0,1-3.81-.36,3.35,3.35,0,0,1-.82-2.39A3.52,3.52,0,0,1,76.1.89,2.84,2.84,0,0,1,78.28,0,2.67,2.67,0,0,1,80.2.7a2.53,2.53,0,0,1,.66,1.18l-1.29.31a1.33,1.33,0,0,0-1.35-1.08,1.46,1.46,0,0,0-1.16.51,2.51,2.51,0,0,0-.44,1.66A2.69,2.69,0,0,0,77.05,5a1.42,1.42,0,0,0,1.14.52,1.3,1.3,0,0,0,.89-.33A1.92,1.92,0,0,0,79.61,4.17Zm-12.12-3h-1a9,9,0,0,0-1,0,.67.67,0,0,0-.42.24.77.77,0,0,0-.18.53.81.81,0,0,0,.17.54.71.71,0,0,0,.43.25,7.21,7.21,0,0,0,1.06,0h1Zm0,5.34V3.85h-.26a1.52,1.52,0,0,0-.87.18,5.29,5.29,0,0,0-.86,1.1l-.94,1.4H63l.78-1.25a7.68,7.68,0,0,1,.74-1,2.88,2.88,0,0,1,.69-.54,2,2,0,0,1-1.3-.62,1.76,1.76,0,0,1-.4-1.16,1.86,1.86,0,0,1,.3-1,1.44,1.44,0,0,1,.78-.61A5,5,0,0,1,66.06.11h2.73V6.54ZM56.8.11H58V4.39L60.62.11h1.29V6.54H60.7V2.34l-2.6,4.2H56.8Zm-7,0h1.3V5.46h2.52V.11h1.3V5.46h.54V7.94H54.4V6.54H49.83ZM46.32,4l-.89-2.39L44.57,4Zm2.39,2.54H47.3l-.56-1.46H44.17l-.53,1.46H42.26L44.77.11h1.37ZM36.07.11h1.21V4.39L39.89.11h1.29V6.54H40V2.34l-2.6,4.2h-1.3Zm-7,0h1.3V5.46h2.52V.11h1.3V5.46h.54V7.94H33.67V6.54H29.1ZM22.76,3.32A2.41,2.41,0,0,0,23.26,5a1.64,1.64,0,0,0,1.28.56A1.63,1.63,0,0,0,25.82,5a2.46,2.46,0,0,0,.5-1.68,2.42,2.42,0,0,0-.48-1.65,1.8,1.8,0,0,0-2.58,0A2.43,2.43,0,0,0,22.76,3.32Zm-1.34,0a4.09,4.09,0,0,1,.29-1.65,3.05,3.05,0,0,1,.6-.88,2.52,2.52,0,0,1,.83-.58A3.51,3.51,0,0,1,24.53,0,3,3,0,0,1,26.8.88a3.37,3.37,0,0,1,.85,2.45,3.37,3.37,0,0,1-.85,2.44,3,3,0,0,1-2.26.88,3,3,0,0,1-2.28-.87A3.32,3.32,0,0,1,21.42,3.36Zm-2.3.81,1.26.4a2.82,2.82,0,0,1-1,1.56,2.75,2.75,0,0,1-1.71.51,2.77,2.77,0,0,1-2.1-.87,3.35,3.35,0,0,1-.82-2.39A3.52,3.52,0,0,1,15.61.89,2.84,2.84,0,0,1,17.79,0a2.67,2.67,0,0,1,1.92.7,2.53,2.53,0,0,1,.66,1.18l-1.29.31a1.33,1.33,0,0,0-1.35-1.08,1.46,1.46,0,0,0-1.16.51,2.51,2.51,0,0,0-.44,1.66A2.69,2.69,0,0,0,16.56,5a1.42,1.42,0,0,0,1.14.52,1.3,1.3,0,0,0,.89-.33A1.91,1.91,0,0,0,19.13,4.17Zm-6.9,0,1.26.4a2.82,2.82,0,0,1-1,1.56,2.75,2.75,0,0,1-1.71.51,2.77,2.77,0,0,1-2.1-.87,3.35,3.35,0,0,1-.82-2.39A3.52,3.52,0,0,1,8.72.89,2.84,2.84,0,0,1,10.9,0a2.67,2.67,0,0,1,1.92.7,2.53,2.53,0,0,1,.66,1.18l-1.29.31a1.33,1.33,0,0,0-1.35-1.08,1.46,1.46,0,0,0-1.16.51,2.51,2.51,0,0,0-.44,1.66A2.69,2.69,0,0,0,9.67,5a1.42,1.42,0,0,0,1.14.52,1.3,1.3,0,0,0,.89-.33A1.91,1.91,0,0,0,12.23,4.17ZM4.85,4,4,1.61,3.1,4ZM7.24,6.54H5.83L5.27,5.08H2.7L2.17,6.54H.79L3.3.11H4.67Z"/></g></g></svg>