<svg width="52" height="60" viewBox="0 0 52 60" version="1.1" xmlns="http://www.w3.org/2000/svg" xmlns:xlink="http://www.w3.org/1999/xlink">
<title>5</title>
<desc>Created using Figma</desc>
<g id="Canvas" transform="translate(-889 -870)">
<g id="5">
<g id="Group 43">
<g id="Polygon Copy 30">
<use xlink:href="#path0_fill" transform="translate(885 870)" fill="#818181"/>
<mask id="mask0_outline_ins">
<use xlink:href="#path0_fill" fill="white" transform="translate(885 870)"/>
</mask>
<g mask="url(#mask0_outline_ins)">
<use xlink:href="#path1_stroke_2x" transform="translate(885 870)" fill="#818181"/>
</g>
</g>
<g id="Shape">
<use xlink:href="#path2_fill" transform="translate(903 888)" fill="#FFFFFF"/>
</g>
</g>
</g>
</g>
<defs>
<path id="path0_fill" fill-rule="evenodd" d="M 29.8551 0L 55.7104 15L 55.7104 45L 29.8551 60L 3.99982 45L 3.99982 15L 29.8551 0Z"/>
<path id="path1_stroke_2x" d="M 29.8551 0L 30.8587 -1.72995L 29.8551 -2.31221L 28.8515 -1.72995L 29.8551 0ZM 55.7104 15L 57.7104 15L 57.7104 13.8481L 56.714 13.2701L 55.7104 15ZM 55.7104 45L 56.714 46.7299L 57.7104 46.1519L 57.7104 45L 55.7104 45ZM 29.8551 60L 28.8515 61.7299L 29.8551 62.3122L 30.8587 61.7299L 29.8551 60ZM 3.99982 45L 1.99982 45L 1.99982 46.1519L 2.99619 46.7299L 3.99982 45ZM 3.99982 15L 2.99619 13.2701L 1.99982 13.8481L 1.99982 15L 3.99982 15ZM 28.8515 1.72995L 54.7067 16.7299L 56.714 13.2701L 30.8587 -1.72995L 28.8515 1.72995ZM 53.7104 15L 53.7104 45L 57.7104 45L 57.7104 15L 53.7104 15ZM 54.7067 43.2701L 28.8515 58.2701L 30.8587 61.7299L 56.714 46.7299L 54.7067 43.2701ZM 30.8587 58.2701L 5.00346 43.2701L 2.99619 46.7299L 28.8515 61.7299L 30.8587 58.2701ZM 5.99982 45L 5.99982 15L 1.99982 15L 1.99982 45L 5.99982 45ZM 5.00346 16.7299L 30.8587 1.72995L 28.8515 -1.72995L 2.99619 13.2701L 5.00346 16.7299Z"/>
<path id="path2_fill" fill-rule="evenodd" d="M 0 12C 0 5.37256 5.37256 0 12 0C 18.6274 0 24 5.37256 24 12C 24 18.6274 18.6274 24 12 24C 5.37256 24 0 18.6274 0 12ZM 15.9222 21.2869C 17.1221 20.7794 18.2 20.0525 19.1263 19.1263C 20.0524 18.2001 20.7795 17.1221 21.2869 15.9222C 21.8119 14.681 22.0781 13.3614 22.0781 12C 22.0781 10.6386 21.8119 9.31897 21.287 8.07776C 20.7795 6.87787 20.0526 5.79987 19.1264 4.87366C 18.2001 3.94751 17.1222 3.22058 15.9223 2.71307C 14.681 2.18805 13.3614 1.92188 12 1.92188C 10.6386 1.92188 9.31897 2.18805 8.07776 2.71307C 6.87787 3.22052 5.79987 3.94751 4.87366 4.87366C 3.94751 5.79987 3.22058 6.87787 2.71307 8.07776C 2.18805 9.31897 1.92188 10.6386 1.92188 12C 1.92188 13.3614 2.18805 14.681 2.71301 15.9222C 3.22046 17.1221 3.94745 18.2001 4.8736 19.1263C 5.7998 20.0525 6.87781 20.7794 8.07764 21.2869C 8.42029 21.4319 8.7691 21.5563 9.12292 21.6616L 9.12292 19.8281C 9.12292 18.875 9.44324 18.1797 10.0839 17.7422C 9.67761 17.7031 9.30457 17.6484 8.96472 17.5781C 8.76202 17.5362 8.55237 17.4831 8.33575 17.4189C 8.18921 17.3755 8.03949 17.327 7.8866 17.2734C 7.50775 17.1406 7.16791 16.9824 6.86707 16.7988C 6.56628 16.6152 6.27728 16.377 5.99988 16.084C 5.72253 15.791 5.49011 15.459 5.30261 15.0879C 5.11511 14.7168 4.96667 14.2715 4.8573 13.752C 4.74799 13.2324 4.69324 12.6602 4.69324 12.0352C 4.69324 10.8242 5.08783 9.79297 5.87683 8.94141C 5.51746 8.01172 5.55658 6.99219 5.99402 5.88281C 6.01746 5.875 6.05652 5.86719 6.11121 5.85938C 6.16595 5.85156 6.289 5.85547 6.48035 5.87109C 6.67175 5.88672 6.87878 5.92773 7.10144 5.99414C 7.3241 6.06055 7.62097 6.18555 7.99207 6.36914C 8.36322 6.55273 8.7558 6.78516 9.1698 7.06641C 10.0839 6.80859 11.0448 6.67969 12.0526 6.67969C 13.0526 6.67969 14.0175 6.80859 14.9471 7.06641C 15.6034 6.62109 16.1952 6.30078 16.7225 6.10547C 17.2499 5.91016 17.6152 5.82422 17.8182 5.84766L 18.1112 5.88281C 18.5487 6.98438 18.5878 8.00391 18.2284 8.94141C 19.0175 9.79297 19.412 10.8242 19.412 12.0352C 19.412 12.6602 19.3573 13.2324 19.2479 13.752C 19.1386 14.2715 18.9901 14.7168 18.8026 15.0879C 18.6151 15.459 18.3828 15.791 18.1053 16.084C 17.828 16.377 17.539 16.6152 17.2382 16.7988C 16.9374 16.9824 16.5975 17.1406 16.2186 17.2734C 15.8398 17.4062 15.4803 17.5078 15.1405 17.5781C 14.8007 17.6484 14.4277 17.7031 14.0214 17.7422C 14.6698 18.1875 14.994 18.8828 14.994 19.8281L 14.994 21.6266C 15.1965 21.5636 15.3972 21.4941 15.596 21.4182C 15.7053 21.3764 15.814 21.3326 15.9222 21.2869Z"/>
</defs>
</svg>
