<svg width="53" height="61" viewBox="0 0 53 61" version="1.1" xmlns="http://www.w3.org/2000/svg" xmlns:xlink="http://www.w3.org/1999/xlink">
<title>Group 2</title>
<desc>Created using Figma</desc>
<g id="Canvas" transform="translate(-2460 -12326)">
<g id="Group 2">
<g id="_1-2">
<g id="Polygon-Copy-31-2">
<g id="Shape">
<use xlink:href="#path0_stroke" transform="translate(2461.62 12327.7)" fill="#FFFFFF"/>
</g>
</g>
</g>
<g id="Shape">
<use xlink:href="#path1_fill" transform="translate(2475.51 12343.1)" fill="#FFFFFF"/>
</g>
</g>
</g>
<defs>
<path id="path0_stroke" d="M 24.9 0L 25.4017 -0.865061L 24.9 -1.15599L 24.3983 -0.865061L 24.9 0ZM 0 14.44L -0.501666 13.5749L -1 13.8639L -1 14.44L 0 14.44ZM 0 43.35L -1 43.35L -1 43.9261L -0.501666 44.2151L 0 43.35ZM 24.9 57.79L 24.3983 58.6551L 24.9002 58.9461L 25.4019 58.6549L 24.9 57.79ZM 49.8 43.34L 50.3019 44.2049L 50.8 43.9159L 50.8 43.34L 49.8 43.34ZM 49.8 14.44L 50.8 14.44L 50.8 13.8639L 50.3017 13.5749L 49.8 14.44ZM 24.3983 -0.865061L -0.501666 13.5749L 0.501666 15.3051L 25.4017 0.865061L 24.3983 -0.865061ZM -1 14.44L -1 43.35L 1 43.35L 1 14.44L -1 14.44ZM -0.501666 44.2151L 24.3983 58.6551L 25.4017 56.9249L 0.501666 42.4849L -0.501666 44.2151ZM 25.4019 58.6549L 50.3019 44.2049L 49.2981 42.4751L 24.3981 56.9251L 25.4019 58.6549ZM 50.8 43.34L 50.8 14.44L 48.8 14.44L 48.8 43.34L 50.8 43.34ZM 50.3017 13.5749L 25.4017 -0.865061L 24.3983 0.865061L 49.2983 15.3051L 50.3017 13.5749Z"/>
<path id="path1_fill" fill-rule="evenodd" d="M 0.0100098 11.2303L 0.0100098 22.0003L 5.11001 22.0003L 5.11001 7.32031L 0.0100098 7.32031L 0.0100098 11.2303ZM 21.8901 11.8401C 21.5501 9.06008 20.2801 7.33008 16.5301 7.33008C 14.3301 7.33008 12.8501 8.14008 12.2301 9.33008L 12.1601 9.33008L 12.1601 7.33008L 8.11011 7.33008L 8.11011 22.0001L 12.3901 22.0001L 12.3901 14.7301C 12.3901 12.8101 12.7601 10.9601 15.1101 10.9601C 17.4601 10.9601 17.6501 13.1501 17.6501 14.8601L 17.6501 22.0001L 22.0501 22.0001L 22.0501 14.0001C 22.0532 13.295 22.0131 12.5903 21.9301 11.8901L 21.8901 11.8401ZM 2.58007 1.95923e-05C 1.53971 -0.00402856 0.599526 0.619559 0.198586 1.57957C -0.202354 2.53959 0.0150489 3.64663 0.749271 4.38372C 1.48349 5.12081 2.58968 5.34253 3.55125 4.94533C 4.51282 4.54814 5.14007 3.6104 5.14007 2.57002C 5.14008 1.15454 3.99554 0.00552728 2.58007 1.95923e-05Z"/>
</defs>
</svg>
