<svg width="52" height="60" viewBox="0 0 52 60" version="1.1" xmlns="http://www.w3.org/2000/svg" xmlns:xlink="http://www.w3.org/1999/xlink">
<title>6</title>
<desc>Created using Figma</desc>
<g id="Canvas" transform="translate(-889 -950)">
<g id="6">
<g id="Polygon Copy 73">
<use xlink:href="#path0_fill" transform="translate(885 950)" fill="#5CC371"/>
<mask id="mask0_outline_ins">
<use xlink:href="#path0_fill" fill="white" transform="translate(885 950)"/>
</mask>
<g mask="url(#mask0_outline_ins)">
<use xlink:href="#path1_stroke_2x" transform="translate(885 950)" fill="#5CC371"/>
</g>
</g>
<g id="Medium_icon">
<g id="g10">
<g id="g12">
<g id="path14">
<use xlink:href="#path2_fill" transform="matrix(1 -1.22465e-16 -1.22465e-16 -1 905 987.75)" fill="#FFFFFF"/>
</g>
</g>
</g>
</g>
</g>
</g>
<defs>
<path id="path0_fill" fill-rule="evenodd" d="M 29.8551 0L 55.7104 15L 55.7104 45L 29.8551 60L 3.99982 45L 3.99982 15L 29.8551 0Z"/>
<path id="path1_stroke_2x" d="M 29.8551 0L 30.8587 -1.72995L 29.8551 -2.31221L 28.8515 -1.72995L 29.8551 0ZM 55.7104 15L 57.7104 15L 57.7104 13.8481L 56.714 13.2701L 55.7104 15ZM 55.7104 45L 56.714 46.7299L 57.7104 46.1519L 57.7104 45L 55.7104 45ZM 29.8551 60L 28.8515 61.7299L 29.8551 62.3122L 30.8587 61.7299L 29.8551 60ZM 3.99982 45L 1.99982 45L 1.99982 46.1519L 2.99619 46.7299L 3.99982 45ZM 3.99982 15L 2.99619 13.2701L 1.99982 13.8481L 1.99982 15L 3.99982 15ZM 28.8515 1.72995L 54.7067 16.7299L 56.714 13.2701L 30.8587 -1.72995L 28.8515 1.72995ZM 53.7104 15L 53.7104 45L 57.7104 45L 57.7104 15L 53.7104 15ZM 54.7067 43.2701L 28.8515 58.2701L 30.8587 61.7299L 56.714 46.7299L 54.7067 43.2701ZM 30.8587 58.2701L 5.00346 43.2701L 2.99619 46.7299L 28.8515 61.7299L 30.8587 58.2701ZM 5.99982 45L 5.99982 15L 1.99982 15L 1.99982 45L 5.99982 45ZM 5.00346 16.7299L 30.8587 1.72995L 28.8515 -1.72995L 2.99619 13.2701L 5.00346 16.7299Z"/>
<path id="path2_fill" d="M 20 13.5L 19.209 13.5C 18.9153 13.5 18.5 13.0764 18.5 12.8052L 18.5 2.975C 18.5 2.70345 18.9153 2.33333 19.209 2.33333L 20 2.33333L 20 0L 12.8333 0L 12.8333 2.33333L 14.3333 2.33333L 14.3333 12.6667L 14.2598 12.6667L 10.757 0L 8.04512 0L 4.5875 12.6667L 4.5 12.6667L 4.5 2.33333L 6 2.33333L 6 0L 0 0L 0 2.33333L 0.768295 2.33333C 1.0847 2.33333 1.5 2.70345 1.5 2.975L 1.5 12.8052C 1.5 13.0764 1.0847 13.5 0.768295 13.5L 0 13.5L 0 15.8333L 7.50273 15.8333L 9.96602 6.66667L 10.0338 6.66667L 12.5198 15.8333L 20 15.8333L 20 13.5Z"/>
</defs>
</svg>
