<svg width="52" height="60" viewBox="0 0 52 60" version="1.1" xmlns="http://www.w3.org/2000/svg" xmlns:xlink="http://www.w3.org/1999/xlink">
<title>2</title>
<desc>Created using Figma</desc>
<g id="Canvas" transform="translate(-889 -630)">
<g id="2">
<g id="Polygon Copy 3">
<use xlink:href="#path0_fill" transform="translate(885 630)" fill="#00BAF2"/>
<mask id="mask0_outline_ins">
<use xlink:href="#path0_fill" fill="white" transform="translate(885 630)"/>
</mask>
<g mask="url(#mask0_outline_ins)">
<use xlink:href="#path1_stroke_2x" transform="translate(885 630)" fill="#00BAF2"/>
</g>
</g>
<g id="Fill 7305">
<g id="Fill 7305">
<use xlink:href="#path2_fill" transform="translate(905 652)" fill="#FFFFFF"/>
</g>
</g>
</g>
</g>
<defs>
<path id="path0_fill" fill-rule="evenodd" d="M 29.8551 0L 55.7104 15L 55.7104 45L 29.8551 60L 3.99982 45L 3.99982 15L 29.8551 0Z"/>
<path id="path1_stroke_2x" d="M 29.8551 0L 30.8587 -1.72995L 29.8551 -2.31221L 28.8515 -1.72995L 29.8551 0ZM 55.7104 15L 57.7104 15L 57.7104 13.8481L 56.714 13.2701L 55.7104 15ZM 55.7104 45L 56.714 46.7299L 57.7104 46.1519L 57.7104 45L 55.7104 45ZM 29.8551 60L 28.8515 61.7299L 29.8551 62.3122L 30.8587 61.7299L 29.8551 60ZM 3.99982 45L 1.99982 45L 1.99982 46.1519L 2.99619 46.7299L 3.99982 45ZM 3.99982 15L 2.99619 13.2701L 1.99982 13.8481L 1.99982 15L 3.99982 15ZM 28.8515 1.72995L 54.7067 16.7299L 56.714 13.2701L 30.8587 -1.72995L 28.8515 1.72995ZM 53.7104 15L 53.7104 45L 57.7104 45L 57.7104 15L 53.7104 15ZM 54.7067 43.2701L 28.8515 58.2701L 30.8587 61.7299L 56.714 46.7299L 54.7067 43.2701ZM 30.8587 58.2701L 5.00346 43.2701L 2.99619 46.7299L 28.8515 61.7299L 30.8587 58.2701ZM 5.99982 45L 5.99982 15L 1.99982 15L 1.99982 45L 5.99982 45ZM 5.00346 16.7299L 30.8587 1.72995L 28.8515 -1.72995L 2.99619 13.2701L 5.00346 16.7299Z"/>
<path id="path2_fill" fill-rule="evenodd" d="M 19.8861 2.00116C 19.7539 1.8542 19.5409 1.81855 19.3661 1.90551C 19.2574 1.95768 19.0522 2.03681 18.8096 2.10551C 19.1157 1.69681 19.3626 1.24463 19.4722 0.835925C 19.5174 0.662879 19.4496 0.470702 19.3 0.366353C 19.1504 0.262873 18.9513 0.262873 18.8017 0.366353C 18.5669 0.532442 17.4287 1.0281 16.7095 1.18463C 15.093 -0.233656 13.1773 -0.381485 11.226 0.757663C 9.62768 1.69681 9.27985 3.59249 9.34855 4.74903C 5.6911 4.39337 3.41715 2.46204 2.13626 0.862013C 2.04583 0.757663 1.89887 0.696793 1.76582 0.705488C 1.62321 0.715054 1.49625 0.793316 1.42321 0.915057C 0.816241 1.94029 0.649282 3.07074 0.938852 4.1838C 1.09711 4.79251 1.37451 5.33165 1.69452 5.7673C 1.53973 5.68817 1.39277 5.59339 1.25277 5.48034C 1.1232 5.37512 0.944069 5.34991 0.791023 5.4273C 0.639717 5.49687 0.543193 5.64556 0.543193 5.81861C 0.543193 7.80994 1.79626 9.03692 2.89366 9.68041C 2.69801 9.66302 2.49888 9.61867 2.30061 9.55867C 2.13713 9.50649 1.96061 9.5491 1.84756 9.68041C 1.73452 9.81084 1.70756 9.98476 1.77799 10.1404C 2.4067 11.5317 3.59802 12.4796 5.07283 12.8196C 3.7989 13.5761 2.10061 13.9318 0.484932 13.7405C 0.278842 13.7153 0.0849255 13.7926 0.0214463 13.9935C -0.0429025 14.184 0.0414466 14.3066 0.222319 14.4013C 2.36496 15.6109 4.53108 16.0188 6.66068 16.0188C 6.66155 16.0188 6.66242 16.0188 6.66242 16.0188C 9.85377 16.0188 12.8416 14.8457 15.0721 12.3404C 17.1652 10.0013 18.2643 7.20994 18.0426 4.49685C 18.5948 4.08902 19.4217 3.33162 19.9331 2.52291C 20.0374 2.35769 20.0183 2.14029 19.8861 2.00116Z"/>
</defs>
</svg>
