<svg width="37" height="30" viewBox="0 0 37 30" version="1.1" xmlns="http://www.w3.org/2000/svg" xmlns:xlink="http://www.w3.org/1999/xlink">
<title>Arrow 4.1</title>
<desc>Created using Figma</desc>
<g id="Canvas" transform="translate(12194 -5536)">
<g id="Arrow 4.1">
<use xlink:href="#path0_stroke" transform="matrix(-1 0 0 1 -12157 5551)" fill="#FFFFFF"/>
</g>
</g>
<defs>
<path id="path0_stroke" d="M 36.4142 1.41421C 37.1953 0.633165 37.1953 -0.633165 36.4142 -1.41421L 23.6863 -14.1421C 22.9052 -14.9232 21.6389 -14.9232 20.8579 -14.1421C 20.0768 -13.3611 20.0768 -12.0948 20.8579 -11.3137L 32.1716 0L 20.8579 11.3137C 20.0768 12.0948 20.0768 13.3611 20.8579 14.1421C 21.6389 14.9232 22.9052 14.9232 23.6863 14.1421L 36.4142 1.41421ZM 0 2L 35 2L 35 -2L 0 -2L 0 2Z"/>
</defs>
</svg>
