<svg width="6" height="6" viewBox="0 0 6 6" version="1.1" xmlns="http://www.w3.org/2000/svg" xmlns:xlink="http://www.w3.org/1999/xlink">
<title>Vector</title>
<desc>Created using Figma</desc>
<g id="Canvas" transform="translate(10021 757)">
<g id="Vector">
<use xlink:href="#path0_stroke" transform="translate(-10020.5 -756.5)" fill="#BB6BD9"/>
</g>
</g>
<defs>
<path id="path0_stroke" d="M 0.312348 2.60957C 0.0967166 2.43706 -0.21793 2.47202 -0.390434 2.68765C -0.562939 2.90328 -0.527978 3.21793 -0.312348 3.39043L 0.312348 2.60957ZM 2.5 5L 2.18765 5.39043C 2.30556 5.48476 2.45978 5.52075 2.60726 5.48836C 2.75474 5.45597 2.87969 5.35866 2.94721 5.22361L 2.5 5ZM 5.44721 0.223607C 5.57071 -0.0233825 5.4706 -0.323719 5.22361 -0.447214C 4.97662 -0.570708 4.67628 -0.470596 4.55279 -0.223607L 5.44721 0.223607ZM -0.312348 3.39043L 2.18765 5.39043L 2.81235 4.60957L 0.312348 2.60957L -0.312348 3.39043ZM 2.94721 5.22361L 5.44721 0.223607L 4.55279 -0.223607L 2.05279 4.77639L 2.94721 5.22361Z"/>
</defs>
</svg>
