<svg width="278" height="259" viewBox="0 0 278 259" version="1.1" xmlns="http://www.w3.org/2000/svg" xmlns:xlink="http://www.w3.org/1999/xlink">
<title>Group 5</title>
<desc>Created using Figma</desc>
<g id="Canvas" transform="translate(15647 -12069)">
<g id="Group 5">
<g id="Group">
<g id="Vector">
<mask id="mask0_outline_ins">
<use xlink:href="#path0_fill" fill="white" transform="translate(-15544.6 12096.5)"/>
</mask>
<g mask="url(#mask0_outline_ins)">
<use xlink:href="#path1_stroke_2x" transform="translate(-15544.6 12096.5)" fill="#2F80ED"/>
</g>
</g>
<g id="Vector">
<mask id="mask1_outline_ins">
<use xlink:href="#path2_fill" fill="white" transform="translate(-15619 12167)"/>
</mask>
<g mask="url(#mask1_outline_ins)">
<use xlink:href="#path3_stroke_2x" transform="translate(-15619 12167)" fill="#BB6BD9"/>
</g>
</g>
<g id="Vector">
<mask id="mask2_outline_ins">
<use xlink:href="#path4_fill" fill="white" transform="translate(-15613.3 12102.3)"/>
</mask>
<g mask="url(#mask2_outline_ins)">
<use xlink:href="#path5_stroke_2x" transform="translate(-15613.3 12102.3)" fill="#7969F0"/>
</g>
</g>
<g id="Vector">
<use xlink:href="#path6_fill" transform="translate(-15614.1 12096.5)" fill="#BB6BD9"/>
</g>
</g>
<g id="Ellipse 9">
<mask id="mask3_outline_ins">
<use xlink:href="#path7_fill" fill="white" transform="translate(-15630.4 12084.5)"/>
</mask>
<g mask="url(#mask3_outline_ins)">
<use xlink:href="#path8_stroke_2x" transform="translate(-15630.4 12084.5)" fill="#DF3162" fill-opacity="0.5"/>
</g>
</g>
<g id="Ellipse 9.1">
<mask id="mask4_outline_ins">
<use xlink:href="#path9_fill" fill="white" transform="translate(-15647 12069)"/>
</mask>
<g mask="url(#mask4_outline_ins)">
<use xlink:href="#path10_stroke_2x" transform="translate(-15647 12069)" fill="#DF3162" fill-opacity="0.5"/>
</g>
</g>
</g>
</g>
<defs>
<path id="path0_fill" d="M 36.7087 106.531L 36.7087 0C 23.9099 0 11.533 2.09655 2.14609e-06 5.7655L 36.7087 106.531Z"/>
<path id="path1_stroke_2x" d="M 36.7087 106.531L 31.0712 108.585C 32.0677 111.32 34.8843 112.945 37.7515 112.439C 40.6186 111.934 42.7087 109.442 42.7087 106.531L 36.7087 106.531ZM 36.7087 0L 42.7087 0C 42.7087 -3.31371 40.0224 -6 36.7087 -6L 36.7087 0ZM 2.14609e-06 5.7655L -1.81893 0.0478585C -3.37636 0.543316 -4.66427 1.65265 -5.38502 3.11947C -6.10577 4.58629 -6.19698 6.28365 -5.63756 7.81926L 2.14609e-06 5.7655ZM 42.7087 106.531L 42.7087 0L 30.7087 0L 30.7087 106.531L 42.7087 106.531ZM 36.7087 -6C 23.2542 -6 10.2645 -3.7962 -1.81893 0.0478585L 1.81894 11.4831C 12.8015 7.9893 24.5655 6 36.7087 6L 36.7087 -6ZM -5.63756 7.81926L 31.0712 108.585L 42.3463 104.477L 5.63756 3.71175L -5.63756 7.81926Z"/>
<path id="path2_fill" d="M 5.7665 0C 2.1097 10.3516 0 21.4895 0 33.0204C 0 43.6341 2.35628 59.5706 7.60156 70.5659L 133.925 44.0959L 5.7665 0Z"/>
<path id="path3_stroke_2x" d="M 5.7665 0L 7.71861 -5.67356C 4.60333 -6.74544 1.20649 -5.10492 0.109124 -1.99852L 5.7665 0ZM 7.60156 70.5659L 2.18621 73.1493C 3.37782 75.6472 6.12336 77.0059 8.83208 76.4383L 7.60156 70.5659ZM 133.925 44.0959L 135.156 49.9683C 137.798 49.4147 139.745 47.1645 139.914 44.4701C 140.082 41.7757 138.43 39.3006 135.878 38.4223L 133.925 44.0959ZM 0.109124 -1.99852C -3.75592 8.94259 -6 20.7552 -6 33.0204L 6 33.0204C 6 22.2237 7.97531 11.7607 11.4239 1.99852L 0.109124 -1.99852ZM -6 33.0204C -6 44.1857 -3.56828 61.0866 2.18621 73.1493L 13.0169 67.9825C 8.28084 58.0546 6 43.0825 6 33.0204L -6 33.0204ZM 8.83208 76.4383L 135.156 49.9683L 132.695 38.2234L 6.37104 64.6934L 8.83208 76.4383ZM 135.878 38.4223L 7.71861 -5.67356L 3.81439 5.67356L 131.973 49.7694L 135.878 38.4223Z"/>
<path id="path4_fill" d="M -1.34131e-07 64.7311L 105.344 100.897L 68.6354 1.24964e-07C 36.4274 10.4828 10.9704 34.4621 -1.34131e-07 64.7311Z"/>
<path id="path5_stroke_2x" d="M -1.34131e-07 64.7311L -5.64094 62.6866C -6.18919 64.1993 -6.10691 65.8688 -5.41257 67.3203C -4.71824 68.7717 -3.47004 69.8835 -1.94824 70.406L -1.34131e-07 64.7311ZM 105.344 100.897L 103.396 106.572C 105.582 107.322 108.006 106.75 109.625 105.1C 111.245 103.451 111.773 101.018 110.983 98.8452L 105.344 100.897ZM 68.6354 1.24964e-07L 74.2739 -2.0514C 73.1683 -5.09019 69.8534 -6.7062 66.7785 -5.70541L 68.6354 1.24964e-07ZM -1.94824 70.406L 103.396 106.572L 107.292 95.2217L 1.94824 59.0562L -1.94824 70.406ZM 110.983 98.8452L 74.2739 -2.0514L 62.997 2.0514L 99.7057 102.948L 110.983 98.8452ZM 66.7785 -5.70541C 32.9232 5.31349 5.99807 30.5729 -5.64094 62.6866L 5.64094 66.7755C 15.9428 38.3513 39.9316 15.652 70.4924 5.70541L 66.7785 -5.70541Z"/>
<path id="path6_fill" d="M 106.188 0L 106.188 106.53L 0 133.916C 13.924 176.24 56.2586 207.032 106.188 207.032C 167.51 207.032 217.299 160.647 217.299 103.516C 217.299 46.3858 167.51 0 106.188 0Z"/>
<path id="path7_fill" d="M 244.78 114.025C 244.78 177 189.984 228.051 122.39 228.051C 54.7958 228.051 0 177 0 114.025C 0 51.0509 54.7958 0 122.39 0C 189.984 0 244.78 51.0509 244.78 114.025Z"/>
<path id="path8_stroke_2x" d="M 243.78 114.025C 243.78 176.382 189.5 227.051 122.39 227.051L 122.39 229.051C 190.468 229.051 245.78 177.618 245.78 114.025L 243.78 114.025ZM 122.39 227.051C 55.2803 227.051 1 176.382 1 114.025L -1 114.025C -1 177.618 54.3114 229.051 122.39 229.051L 122.39 227.051ZM 1 114.025C 1 51.6687 55.2803 1 122.39 1L 122.39 -1C 54.3114 -1 -1 50.4331 -1 114.025L 1 114.025ZM 122.39 1C 189.5 1 243.78 51.6687 243.78 114.025L 245.78 114.025C 245.78 50.4331 190.468 -1 122.39 -1L 122.39 1Z"/>
<path id="path9_fill" d="M 278 129.5C 278 201.021 215.768 259 139 259C 62.2324 259 0 201.021 0 129.5C 0 57.9791 62.2324 0 139 0C 215.768 0 278 57.9791 278 129.5Z"/>
<path id="path10_stroke_2x" d="M 277 129.5C 277 200.403 215.283 258 139 258L 139 260C 216.252 260 279 201.639 279 129.5L 277 129.5ZM 139 258C 62.7169 258 1 200.403 1 129.5L -1 129.5C -1 201.639 61.748 260 139 260L 139 258ZM 1 129.5C 1 58.5969 62.7169 1 139 1L 139 -1C 61.748 -1 -1 57.3613 -1 129.5L 1 129.5ZM 139 1C 215.283 1 277 58.5969 277 129.5L 279 129.5C 279 57.3613 216.252 -1 139 -1L 139 1Z"/>
</defs>
</svg>
