<svg width="255" height="255" viewBox="0 0 255 255" version="1.1" xmlns="http://www.w3.org/2000/svg" xmlns:xlink="http://www.w3.org/1999/xlink">
<title>Group</title>
<desc>Created using Figma</desc>
<g id="Canvas" transform="translate(13492 -6352)">
<g id="Group">
<g id="Vector">
<mask id="mask0_outline_ins">
<use xlink:href="#path0_fill" fill="white" transform="translate(-13406.1 6352.8)"/>
</mask>
<g mask="url(#mask0_outline_ins)">
<use xlink:href="#path1_stroke_2x" transform="translate(-13406.1 6352.8)" fill="#2F80ED"/>
</g>
</g>
<g id="Vector">
<mask id="mask1_outline_ins">
<use xlink:href="#path2_fill" fill="white" transform="translate(-13491.2 6439.36)"/>
</mask>
<g mask="url(#mask1_outline_ins)">
<use xlink:href="#path3_stroke_2x" transform="translate(-13491.2 6439.36)" fill="#BB6BD9"/>
</g>
</g>
<g id="Vector">
<mask id="mask2_outline_ins">
<use xlink:href="#path4_fill" fill="white" transform="translate(-13484.6 6359.88)"/>
</mask>
<g mask="url(#mask2_outline_ins)">
<use xlink:href="#path5_stroke_2x" transform="translate(-13484.6 6359.88)" fill="#7969F0"/>
</g>
</g>
<g id="Vector">
<use xlink:href="#path6_fill" transform="translate(-13485.6 6352.8)" fill="#BB6BD9"/>
</g>
</g>
</g>
<defs>
<path id="path0_fill" d="M 41.9905 130.798L 41.9905 0C 27.3502 0 13.1924 2.57413 2.45488e-06 7.07886L 41.9905 130.798Z"/>
<path id="path1_stroke_2x" d="M 41.9905 130.798L 36.3089 132.726C 37.2527 135.507 40.0704 137.196 42.9678 136.718C 45.8651 136.24 47.9905 133.735 47.9905 130.798L 41.9905 130.798ZM 41.9905 0L 47.9905 0C 47.9905 -3.31371 45.3042 -6 41.9905 -6L 41.9905 0ZM 2.45488e-06 7.07886L -1.93886 1.40077C -5.07069 2.47017 -6.74529 5.87343 -5.68167 9.00723L 2.45488e-06 7.07886ZM 47.9905 130.798L 47.9905 0L 35.9905 0L 35.9905 130.798L 47.9905 130.798ZM 41.9905 -6C 26.6449 -6 11.833 -3.30183 -1.93886 1.40077L 1.93887 12.757C 14.5518 8.4501 28.0554 6 41.9905 6L 41.9905 -6ZM -5.68167 9.00723L 36.3089 132.726L 47.6722 128.87L 5.68167 5.1505L -5.68167 9.00723Z"/>
<path id="path2_fill" d="M 6.59621 0C 2.41325 12.7098 0 26.3849 0 40.5426C 0 53.5741 2.69531 73.1411 8.69531 86.6411L 153.195 54.1411L 6.59621 0Z"/>
<path id="path3_stroke_2x" d="M 6.59621 0L 8.67487 -5.62843C 7.14715 -6.19264 5.45571 -6.11159 3.98893 -5.40389C 2.52215 -4.6962 1.40606 -3.42266 0.896941 -1.87571L 6.59621 0ZM 8.69531 86.6411L 3.21244 89.0779C 4.3744 91.6924 7.22064 93.1227 10.0119 92.4949L 8.69531 86.6411ZM 153.195 54.1411L 154.512 59.9949C 157.106 59.4115 159.006 57.191 159.182 54.5385C 159.358 51.8859 157.768 49.4337 155.274 48.5127L 153.195 54.1411ZM 0.896941 -1.87571C -3.47056 11.3948 -6 25.7023 -6 40.5426L 6 40.5426C 6 27.0674 8.29706 14.0248 12.2955 1.87571L 0.896941 -1.87571ZM -6 40.5426C -6 54.0813 -3.24165 74.5562 3.21244 89.0779L 14.1782 84.2043C 8.63227 71.726 6 53.0669 6 40.5426L -6 40.5426ZM 10.0119 92.4949L 154.512 59.9949L 151.879 48.2873L 7.37872 80.7873L 10.0119 92.4949ZM 155.274 48.5127L 8.67487 -5.62843L 4.51756 5.62843L 151.117 59.7695L 155.274 48.5127Z"/>
<path id="path4_fill" d="M -1.5343e-07 79.4763L 120.502 123.88L 78.511 1.5343e-07C 41.6688 12.8707 12.5489 42.3123 -1.5343e-07 79.4763Z"/>
<path id="path5_stroke_2x" d="M -1.5343e-07 79.4763L -5.68467 77.5568C -6.7243 80.6357 -5.12381 83.9827 -2.07458 85.1063L -1.5343e-07 79.4763ZM 120.502 123.88L 118.427 129.51C 120.596 130.309 123.032 129.791 124.688 128.178C 126.344 126.565 126.926 124.144 126.184 121.954L 120.502 123.88ZM 78.511 1.5343e-07L 84.1935 -1.92612C 83.6795 -3.44234 82.581 -4.69029 81.1422 -5.39233C 79.7033 -6.09438 78.0436 -6.1923 76.5322 -5.66431L 78.511 1.5343e-07ZM -2.07458 85.1063L 118.427 129.51L 122.576 118.25L 2.07458 73.8464L -2.07458 85.1063ZM 126.184 121.954L 84.1935 -1.92612L 72.8286 1.92612L 114.819 125.806L 126.184 121.954ZM 76.5322 -5.66431C 37.9374 7.81862 7.45405 38.646 -5.68467 77.5568L 5.68467 81.3958C 17.6437 45.9786 45.4002 17.9227 80.4898 5.66431L 76.5322 -5.66431Z"/>
<path id="path6_fill" d="M 121.467 0L 121.467 130.798L 0 164.423C 15.9274 216.388 64.3533 254.196 121.467 254.196C 191.612 254.196 248.565 197.243 248.565 127.098C 248.565 56.9527 191.612 0 121.467 0Z"/>
</defs>
</svg>
