<svg width="42" height="36" viewBox="0 0 42 36" version="1.1" xmlns="http://www.w3.org/2000/svg" xmlns:xlink="http://www.w3.org/1999/xlink">
<title>Group</title>
<desc>Created using Figma</desc>
<g id="Canvas" transform="translate(13295 -2048)">
<g id="Group">
<g id="Group">
<g id="Group">
<g id="Vector">
<use xlink:href="#path0_fill" transform="translate(-13295 2048)" fill="#FFFFFF"/>
</g>
</g>
<g id="Group">
<g id="Vector">
<use xlink:href="#path1_fill" transform="translate(-13262.4 2050.47)" fill="#FFFFFF"/>
</g>
</g>
<g id="Group">
<g id="Vector">
<use xlink:href="#path2_fill" transform="translate(-13266 2050.47)" fill="#FFFFFF"/>
</g>
</g>
<g id="Group">
<g id="Vector">
<use xlink:href="#path3_fill" transform="translate(-13258.8 2050.47)" fill="#FFFFFF"/>
</g>
</g>
</g>
<g id="Group">
<g id="Group">
<g id="Vector">
<use xlink:href="#path4_fill" transform="translate(-13281.9 2057.34)" fill="#FFFFFF"/>
</g>
</g>
</g>
</g>
</g>
<defs>
<path id="path0_fill" d="M 40.4168 0L 0.65659 0C 0.291818 0 0 0.282165 0 0.634871L 0 35.2706C 0 35.6233 0.291818 35.9055 0.65659 35.9055L 40.4168 35.9055C 40.7815 35.9055 41.0733 35.6233 41.0733 35.2706L 41.0733 28.4987C 41.0733 28.146 40.7815 27.8638 40.4168 27.8638C 40.052 27.8638 39.7602 28.146 39.7602 28.4987L 39.7602 34.6358L 1.31318 34.6358L 1.31318 6.34872L 39.7602 6.34872L 39.7602 26.0297C 39.7602 26.3824 40.052 26.6646 40.4168 26.6646C 40.7815 26.6646 41.0733 26.3824 41.0733 26.0297L 41.0733 0.634871C 41.0733 0.282165 40.7815 0 40.4168 0ZM 1.31318 1.26974L 25.5341 1.26974L 25.5341 5.07897L 1.31318 5.07897L 1.31318 1.26974ZM 26.8472 5.07897L 26.8472 1.26974L 39.7602 1.26974L 39.7602 5.07897L 26.8472 5.07897Z"/>
<path id="path1_fill" d="M 0.729545 0C 0.364773 0 5.56598e-07 0.282165 5.56598e-07 0.705413C 5.56598e-07 1.12866 0.291818 1.41083 0.729545 1.41083C 1.09432 1.41083 1.45909 1.12866 1.45909 0.705413C 1.45909 0.282165 1.09432 0 0.729545 0Z"/>
<path id="path2_fill" d="M 0.729544 0C 0.364772 0 -5.56598e-07 0.282165 -5.56598e-07 0.705413C -5.56598e-07 1.12866 0.291817 1.41083 0.729544 1.41083C 1.16727 1.41083 1.45909 1.12866 1.45909 0.705413C 1.45909 0.282165 1.09432 0 0.729544 0Z"/>
<path id="path3_fill" d="M 0.729543 0C 0.364771 0 -1.1132e-06 0.282165 -1.1132e-06 0.705413C -1.1132e-06 1.12866 0.291817 1.41083 0.729543 1.41083C 1.16727 1.41083 1.45909 1.12866 1.45909 0.705413C 1.45909 0.282165 1.16727 0 0.729543 0Z"/>
<path id="path4_fill" d="M 8.2252 3.31543L 6.91202 7.54791L 6.47429 9.09982L 8.15225 9.09982L 11.6541 9.09982L 4.94225 18.1997L 6.32838 14.1082L 6.83906 12.5564L 5.16111 12.5564L 1.6593 12.5564L 8.2252 3.31543ZM 9.53838 -1.7222e-05C 9.53838 -1.7222e-05 9.46543 -1.7222e-05 9.53838 -1.7222e-05C 9.24656 -1.7222e-05 9.10065 0.141083 8.95474 0.282165L 0.127257 12.5564C -0.0916062 12.9091 -0.0186526 13.3323 0.273165 13.5439C 0.419074 13.6145 0.564983 13.685 0.710892 13.685L 5.16111 13.685L 2.82657 20.6686C 2.68066 21.0213 2.89953 21.4446 3.2643 21.5856C 3.33725 21.5856 3.41021 21.6562 3.48316 21.6562C 3.70202 21.6562 3.92089 21.5151 4.0668 21.374L 13.1861 8.95873C 13.405 8.60603 13.332 8.18281 13.0402 7.97118C 12.8943 7.90064 12.7484 7.83009 12.6025 7.83009L 8.15225 7.90061L 10.2679 0.917054C 10.4138 0.564347 10.122 0.141065 9.75724 -1.7222e-05C 9.68429 -1.7222e-05 9.61133 -1.7222e-05 9.53838 -1.7222e-05Z"/>
</defs>
</svg>
