<svg width="34" height="37" viewBox="0 0 34 37" version="1.1" xmlns="http://www.w3.org/2000/svg" xmlns:xlink="http://www.w3.org/1999/xlink">
<title>Group</title>
<desc>Created using Figma</desc>
<g id="Canvas" transform="translate(13735 -2524)">
<g id="Group">
<g id="Group">
<g id="Vector">
<use xlink:href="#path0_fill" transform="translate(-13735 2524)" fill="#FFFFFF"/>
</g>
</g>
<g id="Group">
<g id="Vector">
<use xlink:href="#path1_fill" transform="translate(-13719.3 2554.18)" fill="#FFFFFF"/>
</g>
</g>
<g id="Group">
<g id="Vector">
<use xlink:href="#path2_fill" transform="translate(-13719.9 2529)" fill="#FFFFFF"/>
</g>
</g>
</g>
</g>
<defs>
<path id="path0_fill" d="M 17.2675 33.7256C 16.9153 33.7256 16.7039 33.4434 16.7039 33.1613C 16.7039 32.8085 16.9857 32.5969 17.2675 32.5264C 17.972 32.5264 18.747 32.4558 19.4515 32.3148C 23.6082 31.6093 27.2012 29.352 29.5966 25.966C 31.9919 22.5801 32.9782 18.4181 32.2737 14.2562C 30.8647 5.79124 22.7627 0.00685129 14.3085 1.41768C 5.78388 2.8285 0.00684259 10.9407 1.41588 19.4762C 1.83859 21.9452 2.82491 24.2731 4.3044 26.2482C 4.51575 26.5304 4.4453 26.8831 4.16349 27.0947C 3.88169 27.3063 3.52943 27.2358 3.31807 26.9536C 1.69768 24.7668 0.71136 22.2979 0.218198 19.6173C -1.26129 10.447 4.93846 1.77038 14.0972 0.218475C 23.2559 -1.26289 31.9215 4.94474 33.4714 14.1151C 35.0213 23.2855 28.7511 31.9621 19.5924 33.514C 18.8174 33.655 18.0425 33.7256 17.2675 33.7256Z"/>
<path id="path1_fill" d="M 2.95897 5.9431C 2.81807 5.9431 2.67716 5.87256 2.53626 5.73148L 0.140903 3.26254C 0 3.12145 -5.37504e-07 2.98037 -5.37504e-07 2.83929C -5.37504e-07 2.6982 0.070452 2.55712 0.211355 2.41604L 2.60671 0.158718C 2.81807 -0.052906 3.24078 -0.052906 3.45213 0.158718C 3.66349 0.370342 3.66349 0.79359 3.45213 1.00521L 1.40903 2.83929L 3.38168 4.88498C 3.59304 5.09661 3.59304 5.51986 3.38168 5.73148C 3.24078 5.87256 3.09988 5.9431 2.95897 5.9431Z"/>
<path id="path2_fill" d="M 0.563614 13.1316C 0.493163 13.1316 0.352258 13.1316 0.281806 13.061C 0.0704512 12.9199 -2.68752e-07 12.7789 -2.68752e-07 12.5672L -2.68752e-07 0.575212C -2.68752e-07 0.222506 0.281807 0.0108817 0.563614 0.0108817C 0.915873 -0.0596596 1.12723 0.222506 1.12723 0.575212L 1.12723 11.5797L 6.83382 8.33475C 7.11562 8.19367 7.46788 8.26421 7.60879 8.54638C 7.74969 8.82854 7.67924 9.18125 7.39743 9.32233L 0.845421 13.061C 0.774969 13.1316 0.634066 13.1316 0.563614 13.1316Z"/>
</defs>
</svg>
