<svg width="511" height="99" viewBox="0 0 511 99" version="1.1" xmlns="http://www.w3.org/2000/svg" xmlns:xlink="http://www.w3.org/1999/xlink">
<title>Group 2</title>
<desc>Created using Figma</desc>
<g id="Canvas" transform="translate(11696 -780)">
<g id="Group 2">
<g id="Group 2.10">
<g id="Ellipse 7.36">
<use xlink:href="#path0_fill" transform="translate(-11605 785)" fill="#FFFFFF"/>
</g>
<g id="Ellipse 7.37">
<use xlink:href="#path1_fill" transform="translate(-11608 782)" fill="#FFFFFF" fill-opacity="0.2"/>
</g>
<g id="Ellipse 7.38">
<use xlink:href="#path2_fill" transform="translate(-11610 780)" fill="#FFFFFF" fill-opacity="0.2"/>
</g>
</g>
<g id="Vector 10">
<use xlink:href="#path3_stroke" transform="translate(-11696 798.003)" fill="#56CCF2"/>
</g>
<g id="Group 2.5">
<g id="Ellipse 7.36">
<use xlink:href="#path0_fill" transform="translate(-11521 802)" fill="#FFFFFF"/>
</g>
<g id="Ellipse 7.37">
<use xlink:href="#path1_fill" transform="translate(-11524 799)" fill="#FFFFFF" fill-opacity="0.2"/>
</g>
<g id="Ellipse 7.38">
<use xlink:href="#path2_fill" transform="translate(-11526 797)" fill="#FFFFFF" fill-opacity="0.2"/>
</g>
</g>
<g id="Group 2.6">
<g id="Ellipse 7.36">
<use xlink:href="#path0_fill" transform="translate(-11405 861)" fill="#FFFFFF"/>
</g>
<g id="Ellipse 7.37">
<use xlink:href="#path1_fill" transform="translate(-11408 858)" fill="#FFFFFF" fill-opacity="0.2"/>
</g>
<g id="Ellipse 7.38">
<use xlink:href="#path2_fill" transform="translate(-11410 856)" fill="#FFFFFF" fill-opacity="0.2"/>
</g>
</g>
<g id="Group 2.7">
<g id="Ellipse 7.36">
<use xlink:href="#path0_fill" transform="translate(-11215 797)" fill="#FFFFFF"/>
</g>
<g id="Ellipse 7.37">
<use xlink:href="#path1_fill" transform="translate(-11218 794)" fill="#FFFFFF" fill-opacity="0.2"/>
</g>
<g id="Ellipse 7.38">
<use xlink:href="#path2_fill" transform="translate(-11220 792)" fill="#FFFFFF" fill-opacity="0.2"/>
</g>
</g>
<g id="Group">
<g id="Vector">
<use xlink:href="#path4_fill" transform="translate(-11415 809)" fill="#FFFFFF"/>
</g>
</g>
</g>
</g>
<defs>
<path id="path0_fill" d="M 4 2C 4 3.10457 3.10457 4 2 4C 0.895431 4 0 3.10457 0 2C 0 0.895431 0.895431 0 2 0C 3.10457 0 4 0.895431 4 2Z"/>
<path id="path1_fill" d="M 10 5C 10 7.76142 7.76142 10 5 10C 2.23858 10 0 7.76142 0 5C 0 2.23858 2.23858 0 5 0C 7.76142 0 10 2.23858 10 5Z"/>
<path id="path2_fill" d="M 14 7C 14 10.866 10.866 14 7 14C 3.13401 14 0 10.866 0 7C 0 3.13401 3.13401 0 7 0C 10.866 0 14 3.13401 14 7Z"/>
<path id="path3_stroke" d="M 150 8.00039L 150.132 8.48255L 150 8.00039ZM 425 7.99965L 425.106 8.48836L 425 7.99965ZM -1.69542e-06 80.4958C 36.1544 80.4959 62.9429 65.3961 86.0671 48.859C 91.8469 44.7256 97.4013 40.4997 102.813 36.3984C 108.227 32.2953 113.498 28.3174 118.722 24.6706C 129.172 17.3748 139.399 11.4292 150.132 8.48255L 149.868 7.51823C 138.969 10.5104 128.63 16.5337 118.15 23.8506C 112.908 27.5102 107.622 31.4995 102.209 35.6014C 96.7942 39.7051 91.2516 43.9219 85.4854 48.0456C 62.4254 64.5368 35.8456 79.4959 1.69542e-06 79.4958L -1.69542e-06 80.4958ZM 150.132 8.48255C 177.902 0.858629 202.732 13.4851 225.851 28.6527C 237.374 36.213 248.519 44.4371 259.287 50.9837C 270.069 57.5386 280.586 62.486 290.951 63.4973L 291.049 62.502C 280.914 61.5133 270.556 56.664 259.807 50.1292C 249.044 43.5863 238.001 35.4278 226.399 27.8166C 203.268 12.6409 178.098 -0.232217 149.868 7.51823L 150.132 8.48255ZM 290.951 63.4973C 301.309 64.5078 312.579 62.0429 324.207 57.6866C 335.837 53.329 347.864 47.0637 359.744 40.4362C 371.638 33.8004 383.363 26.8141 394.452 20.9731C 405.538 15.1334 415.926 10.4732 425.106 8.48836L 424.894 7.51094C 415.574 9.52596 405.087 14.2407 393.986 20.0884C 382.887 25.9348 371.112 32.9486 359.256 39.5629C 347.386 46.1854 335.413 52.4201 323.856 56.7501C 312.296 61.0814 301.191 63.4915 291.049 62.502L 290.951 63.4973ZM 425.106 8.48836C 454.654 2.09985 494.679 0.5 511 0.5L 511 -0.5C 494.654 -0.5 454.546 1.10002 424.894 7.51094L 425.106 8.48836Z"/>
<path id="path4_fill" d="M 106.685 2.37244C 101.059 -1.72368 92.9995 -0.358307 88.8939 5.25489C 85.8527 9.50271 85.7006 15.2676 88.5897 19.6671L 79.0099 28.0111C 73.8399 26.1906 68.0615 28.0111 64.8683 32.2589L 52.2472 26.1906C 50.7266 19.3637 44.036 14.9642 37.1932 16.4813C 30.3505 17.9983 25.9407 24.6735 27.4613 31.5004C 27.4613 31.6521 27.6134 31.9555 27.6134 32.1072L 18.9459 43.4853C 12.8635 40.1477 5.10843 42.2716 1.61103 48.3399C -1.88636 54.4082 0.546607 62.1453 6.62903 65.4829C 8.45376 66.5449 10.5826 67 12.7115 67C 13.3197 67 14.08 66.8483 14.6883 66.8483C 21.531 65.7863 26.3969 59.2629 25.1804 52.436C 25.0284 51.8292 24.8763 51.2224 24.7243 50.6156L 33.0876 39.6926C 38.7138 43.3336 46.1648 41.8165 50.1184 36.5067C 50.2705 36.2033 50.4225 35.8999 50.7266 35.5965L 62.2832 41.0579C 62.2832 41.3614 62.2832 41.5131 62.4353 41.8165C 63.4997 48.7951 70.0383 53.3463 77.0331 52.2843C 84.0279 51.2224 88.5897 44.6989 87.5253 37.7204C 87.2212 36.355 86.765 34.9896 86.1568 33.6243L 96.4969 24.6735C 103.34 26.1906 110.182 21.9428 111.703 15.1159C 112.767 10.413 110.943 5.25489 106.685 2.37244ZM 12.7115 61.8419C 8.45376 61.8419 4.95637 58.3526 4.95637 54.1048C 4.95637 49.857 8.45376 46.3677 12.7115 46.3677C 16.9692 46.3677 20.4666 49.857 20.4666 54.1048C 20.4666 58.3526 16.9692 61.8419 12.7115 61.8419ZM 39.6262 36.6584C 35.3685 36.6584 31.8711 33.1691 31.8711 28.9213C 31.8711 24.6735 35.3685 21.1842 39.6262 21.1842C 43.8839 21.1842 47.3813 24.6735 47.3813 28.9213C 47.3813 33.1691 43.8839 36.6584 39.6262 36.6584ZM 75.0563 47.7331C 70.7986 47.7331 67.3012 44.2438 67.3012 39.996C 67.3012 35.7482 70.7986 32.2589 75.0563 32.2589C 79.314 32.2589 82.8114 35.7482 82.8114 39.996C 82.8114 44.2438 79.314 47.7331 75.0563 47.7331ZM 99.5381 19.8188C 95.2804 19.8188 91.783 16.3296 91.783 12.0817C 91.783 7.83392 95.2804 4.49635 99.5381 4.49635C 103.796 4.49635 107.293 7.98563 107.293 12.2334C 107.293 16.4813 103.796 19.8188 99.5381 19.8188Z"/>
</defs>
</svg>
