<svg width="274" height="150" viewBox="0 0 274 150" version="1.1" xmlns="http://www.w3.org/2000/svg" xmlns:xlink="http://www.w3.org/1999/xlink">
<title>Group 2</title>
<desc>Created using Figma</desc>
<g id="Canvas" transform="translate(11275 -530)">
<g id="Group 2">
<g id="Vector 3.2">
<use xlink:href="#path0_stroke" transform="matrix(1 0 0 -1 -11274 673)" fill="#56CCF2"/>
</g>
<g id="Group 2.3">
<g id="Ellipse 7.36">
<use xlink:href="#path1_fill" transform="translate(-11106 671)" fill="#FFFFFF"/>
</g>
<g id="Ellipse 7.37">
<use xlink:href="#path2_fill" transform="translate(-11109 668)" fill="#FFFFFF" fill-opacity="0.2"/>
</g>
<g id="Ellipse 7.38">
<use xlink:href="#path3_fill" transform="translate(-11111 666)" fill="#FFFFFF" fill-opacity="0.2"/>
</g>
</g>
<g id="Group 2.4">
<g id="Ellipse 7.36">
<use xlink:href="#path1_fill" transform="translate(-11010 566)" fill="#FFFFFF"/>
</g>
<g id="Ellipse 7.37">
<use xlink:href="#path2_fill" transform="translate(-11013 563)" fill="#FFFFFF" fill-opacity="0.2"/>
</g>
<g id="Ellipse 7.38">
<use xlink:href="#path3_fill" transform="translate(-11015 561)" fill="#FFFFFF" fill-opacity="0.2"/>
</g>
</g>
<g id="Group 2.2">
<g id="Ellipse 7.36">
<use xlink:href="#path1_fill" transform="translate(-11249 561)" fill="#FFFFFF"/>
</g>
<g id="Ellipse 7.37">
<use xlink:href="#path2_fill" transform="translate(-11252 558)" fill="#FFFFFF" fill-opacity="0.2"/>
</g>
<g id="Ellipse 7.38">
<use xlink:href="#path3_fill" transform="translate(-11254 556)" fill="#FFFFFF" fill-opacity="0.2"/>
</g>
</g>
<g id="Group">
<g id="Vector">
<use xlink:href="#path4_fill" transform="translate(-11228 557.4)" fill="#FFFFFF"/>
</g>
<g id="Vector">
<use xlink:href="#path5_fill" transform="translate(-11166.8 530)" fill="#FFFFFF"/>
</g>
<g id="Vector">
<use xlink:href="#path6_fill" transform="translate(-11106.4 555)" fill="#FFFFFF"/>
</g>
</g>
</g>
</g>
<defs>
<path id="path0_stroke" d="M 166.5 0L 166.679 -0.466922L 166.409 -0.570162L 166.185 -0.388378L 166.5 0ZM 0.314901 135.388L 166.815 0.388378L 166.185 -0.388378L -0.314901 134.612L 0.314901 135.388ZM 166.321 0.466922L 266.321 38.7689L 266.679 37.8351L 166.679 -0.466922L 166.321 0.466922Z"/>
<path id="path1_fill" d="M 4 2C 4 3.10457 3.10457 4 2 4C 0.895431 4 0 3.10457 0 2C 0 0.895431 0.895431 0 2 0C 3.10457 0 4 0.895431 4 2Z"/>
<path id="path2_fill" d="M 10 5C 10 7.76142 7.76142 10 5 10C 2.23858 10 0 7.76142 0 5C 0 2.23858 2.23858 0 5 0C 7.76142 0 10 2.23858 10 5Z"/>
<path id="path3_fill" d="M 14 7C 14 10.866 10.866 14 7 14C 3.13401 14 0 10.866 0 7C 0 3.13401 3.13401 0 7 0C 10.866 0 14 3.13401 14 7Z"/>
<path id="path4_fill" d="M 69 47.5C 66.8 40.8 60.7 36.3 53.6 36.3L 46.9 36.3C 50.9 32.9 53.8 27.8 53.8 22.1L 53.8 15.8C 53.8 7.1 46.7 -3.8147e-07 38 -3.8147e-07L 32.9 -3.8147e-07C 24.2 -3.8147e-07 17.1 7.1 17.1 15.8L 17.1 22.3C 17.1 28 19.7 33 24 36.5L 17.3 36.5C 10.5 36.6 4.2 41 2 47.7L 0 53.6L 3.8 55.5L 12.5 59.8L 19.6 63.3L 52 62.8L 58.9 59.5L 67.6 55.2L 71 53.6L 69 47.5ZM 21.4 15.9C 21.4 9.4 26.7 4.1 33.1 4.1L 38.2 4.1C 44.7 4.1 49.9 9.4 49.9 15.9L 49.9 16.7C 48.9 15.7 47.9 14.7 47.1 13.5C 45.7 11.5 43.5 10.3 41 10.3L 30.1 10.3C 27.7 10.3 25.6 11.5 24.2 13.5C 23.4 14.7 22.4 15.7 21.4 16.7L 21.4 15.9ZM 21.4 22.4L 21.4 21.6C 23.8 20.2 26.1 18.2 27.7 15.7C 28.3 14.7 29.3 14.3 30.1 14.3L 41 14.3C 42 14.3 42.8 14.7 43.4 15.7C 45 18.1 47 20.2 49.7 21.6L 49.7 22.4C 49.7 30.3 43.4 36.6 35.5 36.6C 27.7 36.6 21.4 30.3 21.4 22.4ZM 43.3 40.6C 42.1 43 39.3 44.7 35.6 44.7C 32 44.7 29.1 43.1 27.9 40.6L 35.6 40.6L 43.3 40.6ZM 57.4 55.8L 56 52.4L 56 50.8L 52 50.8L 52 58.9L 19.6 59.2L 19.6 50.9L 15.6 50.9L 15.6 52.5L 14.2 55.9L 5.3 51.4L 6 48.9C 7.6 43.8 12.3 40.6 17.5 40.6L 23.8 40.6C 25 45.3 29.9 48.7 35.7 48.7C 41.6 48.7 46.4 45.3 47.6 40.6L 54 40.6C 59.3 40.6 63.9 43.8 65.5 48.9L 66.3 51.3L 57.4 55.8Z"/>
<path id="path5_fill" d="M 69 47.4C 66.8 40.7 60.7 36.2 53.6 36.2L 46.9 36.2C 50.9 32.8 53.8 27.7 53.8 22L 53.8 15.7C 53.8 7.1 46.8 0 38.1 0L 33 0C 24.3 0 17.2 7.1 17.2 15.8L 17.2 22.3C 17.2 28 19.8 33 24.1 36.5L 17.4 36.5C 10.5 36.5 4.2 41 2 47.7L 7.62939e-07 53.6L 3.8 55.5L 12.5 59.8L 19.6 63.3L 52 63L 58.9 59.7L 67.6 55.4L 71 53.7L 69 47.4ZM 21.5 15.8C 21.5 9.3 26.8 4 33.2 4L 38.3 4C 44.8 4 50 9.3 50 15.8L 50 16.6C 49 15.6 48 14.6 47.2 13.4C 45.8 11.4 43.6 10.2 41.1 10.2L 30.2 10.2C 27.8 10.2 25.7 11.4 24.3 13.4C 23.5 14.6 22.5 15.6 21.5 16.6L 21.5 15.8ZM 21.5 22.3L 21.5 21.5C 23.9 20.1 26.2 18.1 27.8 15.6C 28.4 14.6 29.4 14.2 30.2 14.2L 41.1 14.2C 42.1 14.2 42.9 14.6 43.5 15.6C 45.1 18 47.1 20.1 49.8 21.5L 49.8 22.3C 49.8 30.2 43.5 36.5 35.6 36.5C 27.7 36.5 21.5 30.2 21.5 22.3ZM 43.3 40.5C 42.1 42.9 39.3 44.6 35.6 44.6C 32 44.6 29.1 43 27.9 40.5L 35.6 40.5L 43.3 40.5ZM 57.5 55.8L 56.1 52.4L 56.1 50.8L 52.1 50.8L 52.1 58.9L 19.6 59L 19.6 50.7L 15.6 50.7L 15.6 52.3L 14.2 55.7L 5.3 51.2L 6.1 48.8C 7.7 43.7 12.4 40.5 17.6 40.5L 23.9 40.5C 25.1 45.2 30 48.6 35.8 48.6C 41.7 48.6 46.5 45.2 47.7 40.5L 54 40.5C 59.3 40.5 63.9 43.7 65.5 48.8L 66.3 51.2L 57.5 55.8Z"/>
<path id="path6_fill" d="M 69.1 47.5C 66.9 40.8 60.8 36.3 53.7 36.3L 47 36.3C 51 32.9 53.9 27.8 53.9 22.1L 53.9 15.8C 53.9 7.1 46.8 3.55271e-15 38.1 3.55271e-15L 33 3.55271e-15C 24.3 3.55271e-15 17.2 7.1 17.2 15.8L 17.2 22.3C 17.2 28 19.8 33 24.1 36.5L 17.4 36.5C 10.5 36.5 4.2 41 2 47.7L -1.52588e-06 53.6L 3.8 55.5L 12.5 59.8L 19.6 63.3L 52 63L 58.9 59.7L 67.6 55.4L 71 53.7L 69.1 47.5ZM 21.5 15.9C 21.5 9.4 26.8 4.1 33.2 4.1L 38.3 4.1C 44.8 4.1 50 9.4 50 15.9L 50 16.7C 49 15.7 48 14.7 47.2 13.5C 45.8 11.5 43.6 10.3 41.1 10.3L 30.2 10.3C 27.8 10.3 25.7 11.5 24.3 13.5C 23.5 14.7 22.5 15.7 21.5 16.7L 21.5 15.9ZM 21.5 22.3L 21.5 21.5C 23.9 20.1 26.2 18.1 27.8 15.6C 28.4 14.6 29.4 14.2 30.2 14.2L 41.1 14.2C 42.1 14.2 42.9 14.6 43.5 15.6C 45.1 18 47.1 20.1 49.8 21.5L 49.8 22.3C 49.8 30.2 43.5 36.5 35.6 36.5C 27.8 36.5 21.5 30.2 21.5 22.3ZM 43.4 40.6C 42.2 43 39.4 44.7 35.7 44.7C 32.1 44.7 29.2 43.1 28 40.6L 35.7 40.6L 43.4 40.6ZM 57.6 55.8L 56.2 52.4L 56.2 50.8L 52.2 50.8L 52.2 58.9L 19.8 59.2L 19.8 50.9L 15.8 50.9L 15.8 52.5L 14.4 55.9L 5.5 51.4L 6.3 49C 7.9 43.9 12.6 40.7 17.8 40.7L 24.1 40.7C 25.3 45.4 30.2 48.8 36 48.8C 41.9 48.8 46.7 45.4 47.9 40.7L 54.2 40.7C 59.5 40.7 64.1 43.9 65.7 49L 66.5 51.4L 57.6 55.8Z"/>
</defs>
</svg>
