<?xml version="1.0" encoding="utf-8"?>
<!-- Generator: Adobe Illustrator 16.0.0, SVG Export Plug-In . SVG Version: 6.00 Build 0)  -->
<!DOCTYPE svg PUBLIC "-//W3C//DTD SVG 1.1//EN" "http://www.w3.org/Graphics/SVG/1.1/DTD/svg11.dtd">
<svg version="1.1" id="Слой_1" xmlns="http://www.w3.org/2000/svg" xmlns:xlink="http://www.w3.org/1999/xlink" x="0px" y="0px"
	 width="151.493px" height="146.993px" viewBox="0 0 151.493 146.993" enable-background="new 0 0 151.493 146.993"
	 xml:space="preserve">
<g>
	<defs>
		<rect id="SVGID_1_" x="-522.594" y="-328.593" width="1200" height="800"/>
	</defs>
	<clipPath id="SVGID_2_">
		<use xlink:href="#SVGID_1_"  overflow="visible"/>
	</clipPath>
	<path clip-path="url(#SVGID_2_)" fill="#FFFFFF" d="M12.616,67.646h60.661V6.985H12.616V67.646z M58.941,51.967
		c-1.201,1.588-3.07,3.001-5.609,4.238c-2.538,1.237-5.746,1.855-9.624,1.855c-4.93,0-8.955-1.532-12.076-4.597
		s-4.68-7.044-4.68-11.937v-8.42c0-4.874,1.5-8.849,4.5-11.923c3.001-3.074,6.864-4.612,11.591-4.612
		c4.912,0,8.673,1.196,11.286,3.587c2.613,2.392,3.947,5.535,4.003,9.431l-0.056,0.166H50.66c-0.149-2.142-0.831-3.836-2.05-5.082
		c-1.219-1.247-3.001-1.87-5.346-1.87c-2.474,0-4.469,0.955-5.982,2.864c-1.514,1.909-2.271,4.367-2.271,7.374v8.467
		c0,3.063,0.784,5.548,2.354,7.457c1.569,1.91,3.683,2.864,6.343,2.864c1.883,0,3.397-0.194,4.542-0.58
		c1.144-0.386,2.012-0.865,2.603-1.436v-7.456h-7.145v-5.595h15.233V51.967z"/>
	<path clip-path="url(#SVGID_2_)" fill="#FFFFFF" d="M12.616,135.828h60.661V75.166H12.616V135.828z M56.753,125.66H29.14V85.334
		h27.557v6.232h-19.47v10.137h16.701v6.23H37.227v11.496h19.526V125.66z"/>
	<path clip-path="url(#SVGID_2_)" fill="#FFFFFF" d="M81.535,135.828h60.661V75.166H81.535V135.828z M119.482,125.66l-7.782-14.541
		l-7.783,14.541h-9.444l12.27-20.33L94.777,85.334h9.361l7.449,14.291l7.563-14.291h9.416l-11.964,19.996l12.655,20.33H119.482z"/>
	<path clip-path="url(#SVGID_2_)" fill="#171717" d="M58.941,51.967c-1.201,1.588-3.07,3.001-5.609,4.238
		c-2.538,1.237-5.746,1.855-9.624,1.855c-4.93,0-8.955-1.532-12.076-4.597s-4.68-7.044-4.68-11.937v-8.42
		c0-4.874,1.5-8.849,4.5-11.923c3.001-3.074,6.864-4.612,11.591-4.612c4.912,0,8.673,1.196,11.286,3.587
		c2.613,2.392,3.947,5.535,4.003,9.431l-0.056,0.166H50.66c-0.149-2.142-0.831-3.836-2.05-5.082c-1.219-1.247-3.001-1.87-5.346-1.87
		c-2.474,0-4.469,0.955-5.982,2.864c-1.514,1.909-2.271,4.367-2.271,7.374v8.467c0,3.063,0.784,5.548,2.354,7.457
		c1.569,1.91,3.683,2.864,6.343,2.864c1.883,0,3.397-0.194,4.542-0.58c1.144-0.386,2.012-0.865,2.603-1.436v-7.456h-7.145v-5.595
		h15.233V51.967z"/>
	<polygon clip-path="url(#SVGID_2_)" fill="#171717" points="56.753,125.66 29.14,125.66 29.14,85.334 56.697,85.334 56.697,91.566 
		37.227,91.566 37.227,101.703 53.928,101.703 53.928,107.934 37.227,107.934 37.227,119.43 56.753,119.43 	"/>
	<polygon clip-path="url(#SVGID_2_)" fill="#171717" points="119.482,125.66 111.7,111.119 103.917,125.66 94.472,125.66 
		106.742,105.33 94.777,85.334 104.138,85.334 111.587,99.625 119.15,85.334 128.566,85.334 116.602,105.33 129.257,125.66 	"/>
</g>
</svg>
