<svg width="52" height="37" viewBox="0 0 52 37" version="1.1" xmlns="http://www.w3.org/2000/svg" xmlns:xlink="http://www.w3.org/1999/xlink">
<title>Group</title>
<desc>Created using Figma</desc>
<g id="Canvas" transform="translate(12594 1219)">
<g id="Group">
<g id="Vector">
<use xlink:href="#path0_fill" transform="translate(-12561.3 -1219)" fill="#FFFFFF"/>
</g>
<g id="Vector">
<use xlink:href="#path1_fill" transform="translate(-12594 -1216.28)" fill="#FFFFFF"/>
</g>
<g id="Group">
<g id="Vector">
<use xlink:href="#path2_fill" transform="translate(-12570.1 -1211.87)" fill="#FFFFFF"/>
</g>
<g id="Vector">
<use xlink:href="#path3_fill" transform="translate(-12576 -1216.21)" fill="#FFFFFF"/>
</g>
</g>
<g id="Group">
<g id="Vector">
<use xlink:href="#path4_fill" transform="translate(-12558 -1216.21)" fill="#FFFFFF"/>
</g>
<g id="Vector">
<use xlink:href="#path5_fill" transform="translate(-12552 -1211.87)" fill="#FFFFFF"/>
</g>
</g>
<g id="Group">
<g id="Vector">
<use xlink:href="#path6_fill" transform="translate(-12576 -1198.04)" fill="#FFFFFF"/>
</g>
<g id="Vector">
<use xlink:href="#path7_fill" transform="translate(-12557.9 -1198.04)" fill="#FFFFFF"/>
</g>
</g>
</g>
</g>
<defs>
<path id="path0_fill" d="M 2.36232 4.75744C 3.667 4.75744 4.72465 3.69245 4.72465 2.37872C 4.72465 1.06499 3.667 0 2.36232 0C 1.05765 0 0 1.06499 0 2.37872C 0 3.69245 1.05765 4.75744 2.36232 4.75744Z"/>
<path id="path1_fill" d="M 0 5.04117e-08L 0 16.0432L 15.9326 16.0432L 15.9326 5.04117e-08L 0 5.04117e-08ZM 12.1529 11.8936C 11.8379 12.3165 11.3392 12.6865 10.683 13.0037C 10.0268 13.3208 9.18682 13.5059 8.16315 13.5059C 6.87699 13.5059 5.80082 13.1094 4.98713 12.2901C 4.17344 11.4707 3.75347 10.4399 3.75347 9.14486L 3.75347 6.92472C 3.75347 5.62964 4.14719 4.59886 4.93464 3.77952C 5.72208 2.96019 6.74575 2.56373 7.97941 2.56373C 9.26557 2.56373 10.263 2.8809 10.9454 3.51522C 11.6279 4.14955 11.9691 4.96889 11.9954 5.99966L 9.97426 5.99966C 9.94802 5.44463 9.76428 4.99532 9.4493 4.65172C 9.13433 4.33456 8.66186 4.14955 8.05816 4.14955C 7.40195 4.14955 6.87699 4.41385 6.48327 4.91602C 6.08955 5.4182 5.87957 6.07896 5.87957 6.87186L 5.87957 9.11843C 5.87957 9.93777 6.08955 10.5721 6.50952 11.1007C 6.92949 11.6029 7.4807 11.8672 8.16315 11.8672C 8.66186 11.8672 9.05558 11.8143 9.34431 11.7086C 9.63304 11.6029 9.86927 11.4707 10.0268 11.3386L 10.0268 9.35631L 8.16315 9.35631L 8.16315 7.87621L 12.1529 7.87621L 12.1529 11.8936Z"/>
<path id="path2_fill" d="M 1.86361 2.01647e-07L 8.01027e-07 2.01647e-07L 8.01027e-07 3.09234L 1.83736 3.09234C 2.44107 3.09234 2.88729 2.96019 3.17602 2.72232C 3.46474 2.45801 3.62223 2.08799 3.62223 1.58581C 3.62223 1.11007 3.46474 0.713616 3.17602 0.422884C 2.86104 0.132151 2.41482 2.01647e-07 1.86361 2.01647e-07Z"/>
<path id="path3_fill" d="M 12.5203 5.04117e-08L 4.00514e-07 5.04117e-08L 4.00514e-07 16.0432L 15.9326 16.0432L 15.9326 4.04383C 14.069 3.56808 12.6778 1.95584 12.5203 5.04117e-08ZM 12.1791 13.3473L 10.0005 13.3473C 9.81677 13.1887 9.68553 12.9244 9.63304 12.5544C 9.58054 12.1843 9.55429 11.8407 9.55429 11.5236L 9.55429 10.7571C 9.55429 10.2285 9.42305 9.80562 9.13432 9.51489C 8.8456 9.22415 8.45188 9.06557 7.92691 9.06557L 5.90581 9.06557L 5.90581 13.3208L 3.77972 13.3208L 3.77972 2.66945L 7.76943 2.66945C 8.97684 2.66945 9.92177 2.93376 10.6042 3.48879C 11.2867 4.04383 11.6279 4.8103 11.6279 5.81465C 11.6279 6.36969 11.4966 6.84543 11.2079 7.24189C 10.9192 7.63834 10.4992 7.9555 9.94802 8.19337C 10.578 8.37839 11.0242 8.69555 11.2867 9.11843C 11.5491 9.54132 11.7066 10.0964 11.7066 10.7307L 11.7066 11.5236C 11.7066 11.8143 11.7591 12.1315 11.8379 12.4486C 11.9166 12.7658 12.0479 13.0037 12.2578 13.1623L 12.2578 13.3473L 12.1791 13.3473Z"/>
<path id="path4_fill" d="M 3.41225 5.04117e-08C 3.25476 1.98227 1.86361 3.56808 8.01027e-07 4.04383L 8.01027e-07 16.0432L 15.9326 16.0432L 15.9326 5.04117e-08L 3.41225 5.04117e-08ZM 12.0216 8.90699C 12.0216 10.2021 11.6016 11.2857 10.7617 12.1051C 9.92177 12.9244 8.8456 13.3473 7.55944 13.3473L 3.93721 13.3473L 3.93721 2.66945L 7.55944 2.66945C 8.8456 2.66945 9.92177 3.09234 10.7617 3.91168C 11.6016 4.73101 12.0216 5.81465 12.0216 7.10974L 12.0216 8.90699Z"/>
<path id="path5_fill" d="M 1.39115 2.01647e-07L -1.60205e-06 2.01647e-07L -1.60205e-06 7.37404L 1.39115 7.37404C 2.15234 7.37404 2.75605 7.10973 3.17602 6.60756C 3.59598 6.07895 3.83222 5.4182 3.83222 4.57243L 3.83222 2.8016C 3.83222 1.98227 3.62223 1.29508 3.17602 0.792907C 2.75605 0.264303 2.15234 2.01647e-07 1.39115 2.01647e-07Z"/>
<path id="path6_fill" d="M 0 0L 0 16.0432L 15.9326 16.0432L 15.9326 0L 0 0ZM 11.6016 13.3473L 4.33093 13.3473L 4.33093 2.66945L 11.5754 2.66945L 11.5754 4.30813L 6.45702 4.30813L 6.45702 7.00401L 10.8404 7.00401L 10.8404 8.64269L 6.45702 8.64269L 6.45702 11.6822L 11.5754 11.6822L 11.5754 13.3473L 11.6016 13.3473Z"/>
<path id="path7_fill" d="M 0 0L 0 16.0432L 15.9326 16.0432L 15.9326 0L 0 0ZM 9.97426 13.3473L 7.92691 9.51489L 5.87956 13.3473L 3.41225 13.3473L 6.64076 7.98193L 3.49099 2.69588L 5.95831 2.69588L 7.92691 6.47541L 9.92177 2.69588L 12.3891 2.69588L 9.23932 7.98193L 12.5728 13.3473L 9.97426 13.3473Z"/>
</defs>
</svg>
