<svg width="927" height="484" viewBox="0 0 927 484" version="1.1" xmlns="http://www.w3.org/2000/svg" xmlns:xlink="http://www.w3.org/1999/xlink">
<title>Group 6</title>
<desc>Created using Figma</desc>
<g id="Canvas" transform="translate(13578 -6970)">
<g id="Group 6">
<g id="Group 4.1">
<g id="Line">
<use xlink:href="#path0_stroke" transform="translate(-13488 7013)" fill="#BFBFBF" fill-opacity="0.2"/>
</g>
<g id="Line">
<use xlink:href="#path0_stroke" transform="translate(-13488 7039)" fill="#BFBFBF" fill-opacity="0.2"/>
</g>
<g id="Line">
<use xlink:href="#path0_stroke" transform="translate(-13488 7065)" fill="#BFBFBF" fill-opacity="0.2"/>
</g>
<g id="Line">
<use xlink:href="#path0_stroke" transform="translate(-13488 7091)" fill="#BFBFBF" fill-opacity="0.2"/>
</g>
<g id="Line">
<use xlink:href="#path0_stroke" transform="translate(-13488 7117)" fill="#BFBFBF" fill-opacity="0.1"/>
</g>
<g id="Line">
<use xlink:href="#path0_stroke" transform="translate(-13488 7221)" fill="#BFBFBF" fill-opacity="0.1"/>
</g>
<g id="Line">
<use xlink:href="#path0_stroke" transform="translate(-13488 7351)" fill="#BFBFBF" fill-opacity="0.2"/>
</g>
<g id="Line">
<use xlink:href="#path0_stroke" transform="translate(-13488 7325)" fill="#BFBFBF" fill-opacity="0.2"/>
</g>
<g id="Line">
<use xlink:href="#path0_stroke" transform="translate(-13488 7299)" fill="#BFBFBF" fill-opacity="0.2"/>
</g>
<g id="Line">
<use xlink:href="#path0_stroke" transform="translate(-13488 7273)" fill="#BFBFBF" fill-opacity="0.2"/>
</g>
<g id="Line">
<use xlink:href="#path0_stroke" transform="translate(-13488 7247)" fill="#BFBFBF" fill-opacity="0.1"/>
</g>
<g id="Line">
<use xlink:href="#path0_stroke" transform="translate(-13488 7195)" fill="#BFBFBF" fill-opacity="0.1"/>
</g>
<g id="Line">
<use xlink:href="#path0_stroke" transform="translate(-13488 7169)" fill="#BFBFBF" fill-opacity="0.1"/>
</g>
<g id="Line">
<use xlink:href="#path0_stroke" transform="translate(-13488 7143)" fill="#BFBFBF" fill-opacity="0.1"/>
</g>
<g id="Line">
<use xlink:href="#path0_stroke" transform="translate(-13488 7377)" fill="#BFBFBF" fill-opacity="0.2"/>
</g>
</g>
<g id="Group 5">
<g id="Pre - ICO">
<use xlink:href="#path1_fill" transform="translate(-13209 7421)" fill="#FFFFFF"/>
</g>
<g id="17 000GEX">
<use xlink:href="#path2_fill" transform="translate(-13588 7075)" fill="#FFFFFF"/>
</g>
<g id="18 000GEX">
<use xlink:href="#path3_fill" transform="translate(-13588 7050)" fill="#FFFFFF"/>
</g>
<g id="19 000GEX">
<use xlink:href="#path4_fill" transform="translate(-13588 7025)" fill="#FFFFFF"/>
</g>
<g id="20 000GEX">
<use xlink:href="#path5_fill" transform="translate(-13588 6996)" fill="#FFFFFF"/>
</g>
<g id="1 week">
<use xlink:href="#path6_fill" transform="translate(-13200 7390)" fill="#FFFFFF"/>
</g>
<g id="2 week">
<use xlink:href="#path7_fill" transform="translate(-13129 7390)" fill="#FFFFFF"/>
</g>
<g id="3 week">
<use xlink:href="#path8_fill" transform="translate(-13059 7390)" fill="#FFFFFF"/>
</g>
<g id="4 week">
<use xlink:href="#path9_fill" transform="translate(-12990 7390.41)" fill="#FFFFFF"/>
</g>
<g id="1 week">
<use xlink:href="#path6_fill" transform="translate(-12920 7390)" fill="#FFFFFF"/>
</g>
<g id="2 week">
<use xlink:href="#path7_fill" transform="translate(-12849 7390)" fill="#FFFFFF"/>
</g>
<g id="3 week">
<use xlink:href="#path8_fill" transform="translate(-12780 7390)" fill="#FFFFFF"/>
</g>
<g id="4 week">
<use xlink:href="#path9_fill" transform="translate(-12710.3 7390.41)" fill="#FFFFFF"/>
</g>
<g id="Line 4.4">
<use xlink:href="#path10_stroke" transform="matrix(-3.32087e-08 1 1 5.75356e-08 -13227 6970)" fill="#BFBFBF" fill-opacity="0.2"/>
</g>
<g id="Line 4.1">
<use xlink:href="#path10_stroke" transform="matrix(-3.32087e-08 1 1 5.75356e-08 -13139.2 6970)" fill="#BFBFBF" fill-opacity="0.2"/>
</g>
<g id="Line 4.3">
<use xlink:href="#path10_stroke" transform="matrix(-3.32087e-08 1 1 5.75356e-08 -12999.9 6970)" fill="#BFBFBF" fill-opacity="0.2"/>
</g>
<g id="Line 4.7">
<use xlink:href="#path10_stroke" transform="matrix(-3.32087e-08 1 1 5.75356e-08 -12824 6970)" fill="#BFBFBF" fill-opacity="0.2"/>
</g>
<g id="Line 4.8">
<use xlink:href="#path10_stroke" transform="matrix(-3.32087e-08 1 1 5.75356e-08 -12738 6970)" fill="#BFBFBF" fill-opacity="0.2"/>
</g>
<g id="Line 4.11">
<use xlink:href="#path10_stroke" transform="matrix(-3.34069e-08 1 1 5.71943e-08 -12651 6970)" fill="#BFBFBF" fill-opacity="0.2"/>
</g>
<g id="7 000GEX">
<use xlink:href="#path11_fill" transform="translate(-13588 7338)" fill="#56CCF2"/>
</g>
<g id="0">
<use xlink:href="#path12_fill" transform="translate(-13588 7365)" fill="#56CCF2"/>
</g>
<g id="8 000GEX">
<use xlink:href="#path13_fill" transform="translate(-13588 7313)" fill="#56CCF2"/>
</g>
<g id="9 000GEX">
<use xlink:href="#path14_fill" transform="translate(-13588 7286)" fill="#56CCF2"/>
</g>
<g id="10 000GEX">
<use xlink:href="#path15_fill" transform="translate(-13588 7260)" fill="#56CCF2"/>
</g>
<g id="11 000GEX">
<use xlink:href="#path16_fill" transform="translate(-13588 7233)" fill="#8490AD"/>
</g>
<g id="12 000GEX">
<use xlink:href="#path17_fill" transform="translate(-13588 7207)" fill="#8490AD"/>
</g>
<g id="13 000GEX">
<use xlink:href="#path18_fill" transform="translate(-13588 7182)" fill="#8490AD"/>
</g>
<g id="14 000GEX">
<use xlink:href="#path19_fill" transform="translate(-13588 7155)" fill="#8490AD"/>
</g>
<g id="15 000GEX">
<use xlink:href="#path20_fill" transform="translate(-13588 7130)" fill="#8490AD"/>
</g>
<g id="16 000GEX">
<use xlink:href="#path21_fill" transform="translate(-13588 7103)" fill="#8490AD"/>
</g>
<g id="Ico">
<use xlink:href="#path22_fill" transform="translate(-12929 7429)" fill="#FFFFFF"/>
</g>
<g id="Line 4.9">
<use xlink:href="#path10_stroke" transform="matrix(-4.1565e-08 1 1 4.59686e-08 -12912 6970)" fill="#BFBFBF" fill-opacity="0.2"/>
</g>
<g id="Line 4.12">
<use xlink:href="#path10_stroke" transform="matrix(-3.32087e-08 1 1 5.75356e-08 -13488.1 6970)" fill="#BFBFBF" fill-opacity="0.2"/>
</g>
<g id="Line 4.13">
<use xlink:href="#path10_stroke" transform="matrix(-3.32087e-08 1 1 5.75356e-08 -13401 6970)" fill="#BFBFBF" fill-opacity="0.2"/>
</g>
<g id="Line 4.15">
<use xlink:href="#path10_stroke" transform="matrix(-3.32087e-08 1 1 5.75356e-08 -13313 6970)" fill="#BFBFBF" fill-opacity="0.2"/>
</g>
</g>
</g>
</g>
<defs>
<path id="path0_stroke" d="M 0 -5.55112e-17L 837 -5.55112e-17L 837 -1L 0 -1L 0 -5.55112e-17Z"/>
<path id="path1_fill" d="M 112.482 14.8945C 112.482 16.1953 112.037 17.1973 111.146 17.9004C 110.262 18.5977 108.993 18.9463 107.341 18.9463L 105.829 18.9463L 105.829 24L 104.335 24L 104.335 11.1504L 107.666 11.1504C 110.877 11.1504 112.482 12.3984 112.482 14.8945ZM 105.829 17.6631L 107.174 17.6631C 108.498 17.6631 109.456 17.4492 110.048 17.0215C 110.64 16.5937 110.936 15.9082 110.936 14.9648C 110.936 14.1152 110.657 13.4824 110.101 13.0664C 109.544 12.6504 108.677 12.4424 107.499 12.4424L 105.829 12.4424L 105.829 17.6631ZM 119.355 14.1914C 119.783 14.1914 120.167 14.2266 120.507 14.2969L 120.305 15.6504C 119.906 15.5625 119.555 15.5186 119.25 15.5186C 118.471 15.5186 117.803 15.835 117.246 16.4678C 116.695 17.1006 116.42 17.8887 116.42 18.832L 116.42 24L 114.961 24L 114.961 14.3672L 116.165 14.3672L 116.332 16.1514L 116.402 16.1514C 116.76 15.5244 117.19 15.041 117.694 14.7012C 118.198 14.3613 118.752 14.1914 119.355 14.1914ZM 126.378 24.1758C 124.954 24.1758 123.829 23.7422 123.003 22.875C 122.183 22.0078 121.772 20.8037 121.772 19.2627C 121.772 17.71 122.153 16.4766 122.915 15.5625C 123.683 14.6484 124.711 14.1914 126 14.1914C 127.207 14.1914 128.162 14.5898 128.865 15.3867C 129.568 16.1777 129.92 17.2236 129.92 18.5244L 129.92 19.4473L 123.284 19.4473C 123.313 20.5781 123.598 21.4365 124.137 22.0225C 124.682 22.6084 125.446 22.9014 126.431 22.9014C 127.468 22.9014 128.493 22.6846 129.507 22.251L 129.507 23.5518C 128.991 23.7744 128.502 23.9326 128.039 24.0264C 127.582 24.126 127.028 24.1758 126.378 24.1758ZM 125.982 15.4131C 125.209 15.4131 124.591 15.665 124.128 16.1689C 123.671 16.6729 123.401 17.3701 123.319 18.2607L 128.355 18.2607C 128.355 17.3408 128.15 16.6377 127.74 16.1514C 127.33 15.6592 126.744 15.4131 125.982 15.4131ZM 136.283 19.8428L 136.283 18.5068L 140.599 18.5068L 140.599 19.8428L 136.283 19.8428ZM 147.788 24L 147.788 11.1504L 149.282 11.1504L 149.282 24L 147.788 24ZM 158.317 12.3018C 156.905 12.3018 155.789 12.7734 154.969 13.7168C 154.154 14.6543 153.747 15.9404 153.747 17.5752C 153.747 19.2568 154.14 20.5576 154.925 21.4775C 155.716 22.3916 156.841 22.8486 158.3 22.8486C 159.196 22.8486 160.219 22.6875 161.367 22.3652L 161.367 23.6748C 160.477 24.0088 159.378 24.1758 158.071 24.1758C 156.179 24.1758 154.717 23.6016 153.686 22.4531C 152.66 21.3047 152.147 19.6729 152.147 17.5576C 152.147 16.2334 152.394 15.0732 152.886 14.0771C 153.384 13.0811 154.099 12.3135 155.03 11.7744C 155.968 11.2354 157.069 10.9658 158.335 10.9658C 159.683 10.9658 160.86 11.2119 161.868 11.7041L 161.235 12.9873C 160.263 12.5303 159.29 12.3018 158.317 12.3018ZM 175.324 17.5576C 175.324 19.6143 174.803 21.2314 173.76 22.4092C 172.723 23.5869 171.278 24.1758 169.427 24.1758C 167.534 24.1758 166.072 23.5986 165.041 22.4443C 164.016 21.2842 163.503 19.6494 163.503 17.54C 163.503 15.4482 164.019 13.8281 165.05 12.6797C 166.081 11.5254 167.546 10.9482 169.444 10.9482C 171.29 10.9482 172.731 11.5342 173.769 12.7061C 174.806 13.8779 175.324 15.4951 175.324 17.5576ZM 165.085 17.5576C 165.085 19.2979 165.454 20.6191 166.192 21.5215C 166.937 22.418 168.015 22.8662 169.427 22.8662C 170.851 22.8662 171.926 22.418 172.652 21.5215C 173.379 20.625 173.742 19.3037 173.742 17.5576C 173.742 15.8291 173.379 14.5195 172.652 13.6289C 171.932 12.7324 170.862 12.2842 169.444 12.2842C 168.021 12.2842 166.937 12.7354 166.192 13.6377C 165.454 14.5342 165.085 15.8408 165.085 17.5576Z"/>
<path id="path2_fill" d="M 14.7988 20L 13.6913 20L 13.6913 12.877C 13.6913 12.2845 13.7096 11.724 13.746 11.1953C 13.6503 11.291 13.5432 11.3913 13.4247 11.4961C 13.3063 11.6009 12.7639 12.0452 11.7978 12.8291L 11.1962 12.0498L 13.8417 10.0059L 14.7988 10.0059L 14.7988 20ZM 19.871 20L 24.0136 11.0518L 18.5654 11.0518L 18.5654 10.0059L 25.2167 10.0059L 25.2167 10.915L 21.1288 20L 19.871 20ZM 36.8788 14.9893C 36.8788 16.7165 36.6054 18.0062 36.0585 18.8584C 35.5162 19.7106 34.6845 20.1367 33.5634 20.1367C 32.4879 20.1367 31.6699 19.7015 31.1093 18.8311C 30.5488 17.9561 30.2685 16.6755 30.2685 14.9893C 30.2685 13.2484 30.5397 11.9564 31.082 11.1133C 31.6243 10.2702 32.4514 9.84863 33.5634 9.84863C 34.6481 9.84863 35.4706 10.2884 36.0312 11.168C 36.5963 12.0475 36.8788 13.3213 36.8788 14.9893ZM 31.4169 14.9893C 31.4169 16.443 31.5878 17.5026 31.9296 18.168C 32.2714 18.8288 32.816 19.1592 33.5634 19.1592C 34.3199 19.1592 34.8668 18.8242 35.204 18.1543C 35.5458 17.4798 35.7167 16.4248 35.7167 14.9893C 35.7167 13.5537 35.5458 12.5033 35.204 11.8379C 34.8668 11.168 34.3199 10.833 33.5634 10.833C 32.816 10.833 32.2714 11.1634 31.9296 11.8242C 31.5878 12.4805 31.4169 13.5355 31.4169 14.9893ZM 44.8906 14.9893C 44.8906 16.7165 44.6171 18.0062 44.0703 18.8584C 43.5279 19.7106 42.6962 20.1367 41.5751 20.1367C 40.4996 20.1367 39.6816 19.7015 39.121 18.8311C 38.5605 17.9561 38.2802 16.6755 38.2802 14.9893C 38.2802 13.2484 38.5514 11.9564 39.0937 11.1133C 39.636 10.2702 40.4632 9.84863 41.5751 9.84863C 42.6598 9.84863 43.4824 10.2884 44.0429 11.168C 44.608 12.0475 44.8906 13.3213 44.8906 14.9893ZM 39.4286 14.9893C 39.4286 16.443 39.5995 17.5026 39.9413 18.168C 40.2831 18.8288 40.8277 19.1592 41.5751 19.1592C 42.3316 19.1592 42.8785 18.8242 43.2158 18.1543C 43.5576 17.4798 43.7285 16.4248 43.7285 14.9893C 43.7285 13.5537 43.5576 12.5033 43.2158 11.8379C 42.8785 11.168 42.3316 10.833 41.5751 10.833C 40.8277 10.833 40.2831 11.1634 39.9413 11.8242C 39.5995 12.4805 39.4286 13.5355 39.4286 14.9893ZM 52.9023 14.9893C 52.9023 16.7165 52.6288 18.0062 52.082 18.8584C 51.5397 19.7106 50.7079 20.1367 49.5869 20.1367C 48.5113 20.1367 47.6933 19.7015 47.1328 18.8311C 46.5722 17.9561 46.2919 16.6755 46.2919 14.9893C 46.2919 13.2484 46.5631 11.9564 47.1054 11.1133C 47.6477 10.2702 48.4749 9.84863 49.5869 9.84863C 50.6715 9.84863 51.4941 10.2884 52.0546 11.168C 52.6197 12.0475 52.9023 13.3213 52.9023 14.9893ZM 47.4404 14.9893C 47.4404 16.443 47.6113 17.5026 47.9531 18.168C 48.2949 18.8288 48.8395 19.1592 49.5869 19.1592C 50.3434 19.1592 50.8902 18.8242 51.2275 18.1543C 51.5693 17.4798 51.7402 16.4248 51.7402 14.9893C 51.7402 13.5537 51.5693 12.5033 51.2275 11.8379C 50.8902 11.168 50.3434 10.833 49.5869 10.833C 48.8395 10.833 48.2949 11.1634 47.9531 11.8242C 47.6113 12.4805 47.4404 13.5355 47.4404 14.9893ZM 59.3759 14.7637L 62.7734 14.7637L 62.7734 19.624C 62.2447 19.7926 61.707 19.9202 61.1601 20.0068C 60.6132 20.0934 59.9798 20.1367 59.2597 20.1367C 57.7467 20.1367 56.5686 19.6878 55.7255 18.79C 54.8824 17.8877 54.4609 16.6253 54.4609 15.0029C 54.4609 13.9639 54.6682 13.0547 55.0829 12.2754C 55.5022 11.4915 56.1038 10.8945 56.8876 10.4844C 57.6715 10.0697 58.5898 9.8623 59.6425 9.8623C 60.7089 9.8623 61.7024 10.0583 62.623 10.4502L 62.1718 11.4756C 61.2695 11.0928 60.4013 10.9014 59.5673 10.9014C 58.3505 10.9014 57.4003 11.2637 56.7167 11.9883C 56.0331 12.7129 55.6913 13.7178 55.6913 15.0029C 55.6913 16.3519 56.0195 17.375 56.6757 18.0723C 57.3365 18.7695 58.305 19.1182 59.581 19.1182C 60.2737 19.1182 60.9505 19.0384 61.6113 18.8789L 61.6113 15.8027L 59.3759 15.8027L 59.3759 14.7637ZM 70.7509 20L 65.1796 20L 65.1796 10.0059L 70.7509 10.0059L 70.7509 11.0381L 66.3417 11.0381L 66.3417 14.2578L 70.4843 14.2578L 70.4843 15.2832L 66.3417 15.2832L 66.3417 18.9609L 70.7509 18.9609L 70.7509 20ZM 79.624 20L 78.3046 20L 75.6181 15.6045L 72.8837 20L 71.6533 20L 74.9755 14.7773L 71.8788 10.0059L 73.164 10.0059L 75.6454 13.9639L 78.1474 10.0059L 79.3847 10.0059L 76.288 14.7363L 79.624 20Z"/>
<path id="path3_fill" d="M 14.7988 20L 13.6913 20L 13.6913 12.877C 13.6913 12.2845 13.7096 11.724 13.746 11.1953C 13.6503 11.291 13.5432 11.3913 13.4247 11.4961C 13.3063 11.6009 12.7639 12.0452 11.7978 12.8291L 11.1962 12.0498L 13.8417 10.0059L 14.7988 10.0059L 14.7988 20ZM 21.915 9.8623C 22.8264 9.8623 23.5488 10.0742 24.082 10.498C 24.6152 10.9219 24.8818 11.5075 24.8818 12.2549C 24.8818 12.7471 24.7291 13.196 24.4238 13.6016C 24.1184 14.0072 23.6308 14.3763 22.9609 14.709C 23.7721 15.0964 24.3486 15.5042 24.6904 15.9326C 25.0322 16.3564 25.2031 16.8486 25.2031 17.4092C 25.2031 18.2386 24.9137 18.9017 24.3349 19.3984C 23.7561 19.8906 22.9632 20.1367 21.956 20.1367C 20.8896 20.1367 20.0693 19.9043 19.4951 19.4395C 18.9208 18.9701 18.6337 18.307 18.6337 17.4502C 18.6337 16.3063 19.331 15.4154 20.7255 14.7773C 20.0966 14.4219 19.6454 14.0391 19.372 13.6289C 19.0986 13.2142 18.9619 12.7516 18.9619 12.2412C 18.9619 11.5166 19.2285 10.9401 19.7617 10.5117C 20.2994 10.0788 21.0172 9.8623 21.915 9.8623ZM 19.7548 17.4775C 19.7548 18.0244 19.9439 18.4505 20.3222 18.7559C 20.705 19.0612 21.2405 19.2139 21.9286 19.2139C 22.6077 19.2139 23.1363 19.0544 23.5146 18.7354C 23.8928 18.4163 24.082 17.9788 24.082 17.4229C 24.082 16.9808 23.9042 16.5889 23.5488 16.2471C 23.1933 15.9007 22.5735 15.5658 21.6894 15.2422C 21.0104 15.5339 20.5182 15.8574 20.2128 16.2129C 19.9075 16.5638 19.7548 16.9854 19.7548 17.4775ZM 21.9013 10.7852C 21.3316 10.7852 20.885 10.9219 20.5615 11.1953C 20.2379 11.4688 20.0761 11.8333 20.0761 12.2891C 20.0761 12.7083 20.2106 13.0684 20.4794 13.3691C 20.7483 13.6699 21.2451 13.9707 21.9697 14.2715C 22.6214 13.998 23.0816 13.7041 23.3505 13.3896C 23.624 13.0752 23.7607 12.7083 23.7607 12.2891C 23.7607 11.8288 23.5943 11.4642 23.2617 11.1953C 22.9335 10.9219 22.4801 10.7852 21.9013 10.7852ZM 36.8788 14.9893C 36.8788 16.7165 36.6054 18.0062 36.0585 18.8584C 35.5162 19.7106 34.6845 20.1367 33.5634 20.1367C 32.4879 20.1367 31.6699 19.7015 31.1093 18.8311C 30.5488 17.9561 30.2685 16.6755 30.2685 14.9893C 30.2685 13.2484 30.5397 11.9564 31.082 11.1133C 31.6243 10.2702 32.4514 9.84863 33.5634 9.84863C 34.6481 9.84863 35.4706 10.2884 36.0312 11.168C 36.5963 12.0475 36.8788 13.3213 36.8788 14.9893ZM 31.4169 14.9893C 31.4169 16.443 31.5878 17.5026 31.9296 18.168C 32.2714 18.8288 32.816 19.1592 33.5634 19.1592C 34.3199 19.1592 34.8668 18.8242 35.204 18.1543C 35.5458 17.4798 35.7167 16.4248 35.7167 14.9893C 35.7167 13.5537 35.5458 12.5033 35.204 11.8379C 34.8668 11.168 34.3199 10.833 33.5634 10.833C 32.816 10.833 32.2714 11.1634 31.9296 11.8242C 31.5878 12.4805 31.4169 13.5355 31.4169 14.9893ZM 44.8906 14.9893C 44.8906 16.7165 44.6171 18.0062 44.0703 18.8584C 43.5279 19.7106 42.6962 20.1367 41.5751 20.1367C 40.4996 20.1367 39.6816 19.7015 39.121 18.8311C 38.5605 17.9561 38.2802 16.6755 38.2802 14.9893C 38.2802 13.2484 38.5514 11.9564 39.0937 11.1133C 39.636 10.2702 40.4632 9.84863 41.5751 9.84863C 42.6598 9.84863 43.4824 10.2884 44.0429 11.168C 44.608 12.0475 44.8906 13.3213 44.8906 14.9893ZM 39.4286 14.9893C 39.4286 16.443 39.5995 17.5026 39.9413 18.168C 40.2831 18.8288 40.8277 19.1592 41.5751 19.1592C 42.3316 19.1592 42.8785 18.8242 43.2158 18.1543C 43.5576 17.4798 43.7285 16.4248 43.7285 14.9893C 43.7285 13.5537 43.5576 12.5033 43.2158 11.8379C 42.8785 11.168 42.3316 10.833 41.5751 10.833C 40.8277 10.833 40.2831 11.1634 39.9413 11.8242C 39.5995 12.4805 39.4286 13.5355 39.4286 14.9893ZM 52.9023 14.9893C 52.9023 16.7165 52.6288 18.0062 52.082 18.8584C 51.5397 19.7106 50.7079 20.1367 49.5869 20.1367C 48.5113 20.1367 47.6933 19.7015 47.1328 18.8311C 46.5722 17.9561 46.2919 16.6755 46.2919 14.9893C 46.2919 13.2484 46.5631 11.9564 47.1054 11.1133C 47.6477 10.2702 48.4749 9.84863 49.5869 9.84863C 50.6715 9.84863 51.4941 10.2884 52.0546 11.168C 52.6197 12.0475 52.9023 13.3213 52.9023 14.9893ZM 47.4404 14.9893C 47.4404 16.443 47.6113 17.5026 47.9531 18.168C 48.2949 18.8288 48.8395 19.1592 49.5869 19.1592C 50.3434 19.1592 50.8902 18.8242 51.2275 18.1543C 51.5693 17.4798 51.7402 16.4248 51.7402 14.9893C 51.7402 13.5537 51.5693 12.5033 51.2275 11.8379C 50.8902 11.168 50.3434 10.833 49.5869 10.833C 48.8395 10.833 48.2949 11.1634 47.9531 11.8242C 47.6113 12.4805 47.4404 13.5355 47.4404 14.9893ZM 59.3759 14.7637L 62.7734 14.7637L 62.7734 19.624C 62.2447 19.7926 61.707 19.9202 61.1601 20.0068C 60.6132 20.0934 59.9798 20.1367 59.2597 20.1367C 57.7467 20.1367 56.5686 19.6878 55.7255 18.79C 54.8824 17.8877 54.4609 16.6253 54.4609 15.0029C 54.4609 13.9639 54.6682 13.0547 55.0829 12.2754C 55.5022 11.4915 56.1038 10.8945 56.8876 10.4844C 57.6715 10.0697 58.5898 9.8623 59.6425 9.8623C 60.7089 9.8623 61.7024 10.0583 62.623 10.4502L 62.1718 11.4756C 61.2695 11.0928 60.4013 10.9014 59.5673 10.9014C 58.3505 10.9014 57.4003 11.2637 56.7167 11.9883C 56.0331 12.7129 55.6913 13.7178 55.6913 15.0029C 55.6913 16.3519 56.0195 17.375 56.6757 18.0723C 57.3365 18.7695 58.305 19.1182 59.581 19.1182C 60.2737 19.1182 60.9505 19.0384 61.6113 18.8789L 61.6113 15.8027L 59.3759 15.8027L 59.3759 14.7637ZM 70.7509 20L 65.1796 20L 65.1796 10.0059L 70.7509 10.0059L 70.7509 11.0381L 66.3417 11.0381L 66.3417 14.2578L 70.4843 14.2578L 70.4843 15.2832L 66.3417 15.2832L 66.3417 18.9609L 70.7509 18.9609L 70.7509 20ZM 79.624 20L 78.3046 20L 75.6181 15.6045L 72.8837 20L 71.6533 20L 74.9755 14.7773L 71.8788 10.0059L 73.164 10.0059L 75.6454 13.9639L 78.1474 10.0059L 79.3847 10.0059L 76.288 14.7363L 79.624 20Z"/>
<path id="path4_fill" d="M 14.7988 20L 13.6913 20L 13.6913 12.877C 13.6913 12.2845 13.7096 11.724 13.746 11.1953C 13.6503 11.291 13.5432 11.3913 13.4247 11.4961C 13.3063 11.6009 12.7639 12.0452 11.7978 12.8291L 11.1962 12.0498L 13.8417 10.0059L 14.7988 10.0059L 14.7988 20ZM 25.1757 14.2715C 25.1757 18.1816 23.6627 20.1367 20.6367 20.1367C 20.108 20.1367 19.6887 20.0911 19.3788 20L 19.3788 19.0225C 19.7434 19.141 20.1581 19.2002 20.623 19.2002C 21.7167 19.2002 22.5416 18.863 23.0976 18.1885C 23.6581 17.5094 23.9635 16.4704 24.0136 15.0713L 23.9316 15.0713C 23.6809 15.4495 23.3482 15.7389 22.9335 15.9395C 22.5188 16.1354 22.0517 16.2334 21.5322 16.2334C 20.6481 16.2334 19.9462 15.9691 19.4267 15.4404C 18.9072 14.9118 18.6474 14.1735 18.6474 13.2256C 18.6474 12.1865 18.9368 11.3662 19.5156 10.7646C 20.0989 10.1631 20.8645 9.8623 21.8124 9.8623C 22.4915 9.8623 23.0839 10.0378 23.5898 10.3887C 24.1002 10.735 24.4921 11.2432 24.7656 11.9131C 25.039 12.5785 25.1757 13.3646 25.1757 14.2715ZM 21.8124 10.833C 21.1607 10.833 20.6572 11.0426 20.3017 11.4619C 19.9462 11.8812 19.7685 12.4645 19.7685 13.2119C 19.7685 13.8682 19.9326 14.3854 20.2607 14.7637C 20.5888 15.1374 21.0878 15.3242 21.7578 15.3242C 22.1725 15.3242 22.553 15.2399 22.8994 15.0713C 23.2503 14.9027 23.526 14.6725 23.7265 14.3809C 23.927 14.0892 24.0273 13.7839 24.0273 13.4648C 24.0273 12.9863 23.9339 12.5443 23.747 12.1387C 23.5602 11.7331 23.2981 11.4141 22.9609 11.1816C 22.6282 10.9492 22.2454 10.833 21.8124 10.833ZM 36.8788 14.9893C 36.8788 16.7165 36.6054 18.0062 36.0585 18.8584C 35.5162 19.7106 34.6845 20.1367 33.5634 20.1367C 32.4879 20.1367 31.6699 19.7015 31.1093 18.8311C 30.5488 17.9561 30.2685 16.6755 30.2685 14.9893C 30.2685 13.2484 30.5397 11.9564 31.082 11.1133C 31.6243 10.2702 32.4514 9.84863 33.5634 9.84863C 34.6481 9.84863 35.4706 10.2884 36.0312 11.168C 36.5963 12.0475 36.8788 13.3213 36.8788 14.9893ZM 31.4169 14.9893C 31.4169 16.443 31.5878 17.5026 31.9296 18.168C 32.2714 18.8288 32.816 19.1592 33.5634 19.1592C 34.3199 19.1592 34.8668 18.8242 35.204 18.1543C 35.5458 17.4798 35.7167 16.4248 35.7167 14.9893C 35.7167 13.5537 35.5458 12.5033 35.204 11.8379C 34.8668 11.168 34.3199 10.833 33.5634 10.833C 32.816 10.833 32.2714 11.1634 31.9296 11.8242C 31.5878 12.4805 31.4169 13.5355 31.4169 14.9893ZM 44.8906 14.9893C 44.8906 16.7165 44.6171 18.0062 44.0703 18.8584C 43.5279 19.7106 42.6962 20.1367 41.5751 20.1367C 40.4996 20.1367 39.6816 19.7015 39.121 18.8311C 38.5605 17.9561 38.2802 16.6755 38.2802 14.9893C 38.2802 13.2484 38.5514 11.9564 39.0937 11.1133C 39.636 10.2702 40.4632 9.84863 41.5751 9.84863C 42.6598 9.84863 43.4824 10.2884 44.0429 11.168C 44.608 12.0475 44.8906 13.3213 44.8906 14.9893ZM 39.4286 14.9893C 39.4286 16.443 39.5995 17.5026 39.9413 18.168C 40.2831 18.8288 40.8277 19.1592 41.5751 19.1592C 42.3316 19.1592 42.8785 18.8242 43.2158 18.1543C 43.5576 17.4798 43.7285 16.4248 43.7285 14.9893C 43.7285 13.5537 43.5576 12.5033 43.2158 11.8379C 42.8785 11.168 42.3316 10.833 41.5751 10.833C 40.8277 10.833 40.2831 11.1634 39.9413 11.8242C 39.5995 12.4805 39.4286 13.5355 39.4286 14.9893ZM 52.9023 14.9893C 52.9023 16.7165 52.6288 18.0062 52.082 18.8584C 51.5397 19.7106 50.7079 20.1367 49.5869 20.1367C 48.5113 20.1367 47.6933 19.7015 47.1328 18.8311C 46.5722 17.9561 46.2919 16.6755 46.2919 14.9893C 46.2919 13.2484 46.5631 11.9564 47.1054 11.1133C 47.6477 10.2702 48.4749 9.84863 49.5869 9.84863C 50.6715 9.84863 51.4941 10.2884 52.0546 11.168C 52.6197 12.0475 52.9023 13.3213 52.9023 14.9893ZM 47.4404 14.9893C 47.4404 16.443 47.6113 17.5026 47.9531 18.168C 48.2949 18.8288 48.8395 19.1592 49.5869 19.1592C 50.3434 19.1592 50.8902 18.8242 51.2275 18.1543C 51.5693 17.4798 51.7402 16.4248 51.7402 14.9893C 51.7402 13.5537 51.5693 12.5033 51.2275 11.8379C 50.8902 11.168 50.3434 10.833 49.5869 10.833C 48.8395 10.833 48.2949 11.1634 47.9531 11.8242C 47.6113 12.4805 47.4404 13.5355 47.4404 14.9893ZM 59.3759 14.7637L 62.7734 14.7637L 62.7734 19.624C 62.2447 19.7926 61.707 19.9202 61.1601 20.0068C 60.6132 20.0934 59.9798 20.1367 59.2597 20.1367C 57.7467 20.1367 56.5686 19.6878 55.7255 18.79C 54.8824 17.8877 54.4609 16.6253 54.4609 15.0029C 54.4609 13.9639 54.6682 13.0547 55.0829 12.2754C 55.5022 11.4915 56.1038 10.8945 56.8876 10.4844C 57.6715 10.0697 58.5898 9.8623 59.6425 9.8623C 60.7089 9.8623 61.7024 10.0583 62.623 10.4502L 62.1718 11.4756C 61.2695 11.0928 60.4013 10.9014 59.5673 10.9014C 58.3505 10.9014 57.4003 11.2637 56.7167 11.9883C 56.0331 12.7129 55.6913 13.7178 55.6913 15.0029C 55.6913 16.3519 56.0195 17.375 56.6757 18.0723C 57.3365 18.7695 58.305 19.1182 59.581 19.1182C 60.2737 19.1182 60.9505 19.0384 61.6113 18.8789L 61.6113 15.8027L 59.3759 15.8027L 59.3759 14.7637ZM 70.7509 20L 65.1796 20L 65.1796 10.0059L 70.7509 10.0059L 70.7509 11.0381L 66.3417 11.0381L 66.3417 14.2578L 70.4843 14.2578L 70.4843 15.2832L 66.3417 15.2832L 66.3417 18.9609L 70.7509 18.9609L 70.7509 20ZM 79.624 20L 78.3046 20L 75.6181 15.6045L 72.8837 20L 71.6533 20L 74.9755 14.7773L 71.8788 10.0059L 73.164 10.0059L 75.6454 13.9639L 78.1474 10.0059L 79.3847 10.0059L 76.288 14.7363L 79.624 20Z"/>
<path id="path5_fill" d="M 17.164 20L 10.5947 20L 10.5947 19.0225L 13.2265 16.377C 14.0286 15.5658 14.5572 14.987 14.8124 14.6406C 15.0676 14.2943 15.2591 13.957 15.3867 13.6289C 15.5143 13.3008 15.5781 12.9476 15.5781 12.5693C 15.5781 12.0361 15.4163 11.6146 15.0927 11.3047C 14.7691 10.9902 14.3203 10.833 13.746 10.833C 13.3313 10.833 12.9371 10.9014 12.5634 11.0381C 12.1943 11.1748 11.7818 11.4232 11.3261 11.7832L 10.7245 11.0107C 11.6451 10.2451 12.6477 9.8623 13.7324 9.8623C 14.6712 9.8623 15.4072 10.1038 15.9404 10.5869C 16.4736 11.0654 16.7402 11.7103 16.7402 12.5215C 16.7402 13.1549 16.5624 13.7816 16.207 14.4014C 15.8515 15.0212 15.1861 15.805 14.2109 16.7529L 12.0234 18.8926L 12.0234 18.9473L 17.164 18.9473L 17.164 20ZM 25.2304 14.9893C 25.2304 16.7165 24.957 18.0062 24.4101 18.8584C 23.8678 19.7106 23.0361 20.1367 21.915 20.1367C 20.8395 20.1367 20.0214 19.7015 19.4609 18.8311C 18.9003 17.9561 18.6201 16.6755 18.6201 14.9893C 18.6201 13.2484 18.8912 11.9564 19.4335 11.1133C 19.9759 10.2702 20.803 9.84863 21.915 9.84863C 22.9996 9.84863 23.8222 10.2884 24.3828 11.168C 24.9479 12.0475 25.2304 13.3213 25.2304 14.9893ZM 19.7685 14.9893C 19.7685 16.443 19.9394 17.5026 20.2812 18.168C 20.623 18.8288 21.1676 19.1592 21.915 19.1592C 22.6715 19.1592 23.2184 18.8242 23.5556 18.1543C 23.8974 17.4798 24.0683 16.4248 24.0683 14.9893C 24.0683 13.5537 23.8974 12.5033 23.5556 11.8379C 23.2184 11.168 22.6715 10.833 21.915 10.833C 21.1676 10.833 20.623 11.1634 20.2812 11.8242C 19.9394 12.4805 19.7685 13.5355 19.7685 14.9893ZM 36.8788 14.9893C 36.8788 16.7165 36.6054 18.0062 36.0585 18.8584C 35.5162 19.7106 34.6845 20.1367 33.5634 20.1367C 32.4879 20.1367 31.6699 19.7015 31.1093 18.8311C 30.5488 17.9561 30.2685 16.6755 30.2685 14.9893C 30.2685 13.2484 30.5397 11.9564 31.082 11.1133C 31.6243 10.2702 32.4514 9.84863 33.5634 9.84863C 34.6481 9.84863 35.4706 10.2884 36.0312 11.168C 36.5963 12.0475 36.8788 13.3213 36.8788 14.9893ZM 31.4169 14.9893C 31.4169 16.443 31.5878 17.5026 31.9296 18.168C 32.2714 18.8288 32.816 19.1592 33.5634 19.1592C 34.3199 19.1592 34.8668 18.8242 35.204 18.1543C 35.5458 17.4798 35.7167 16.4248 35.7167 14.9893C 35.7167 13.5537 35.5458 12.5033 35.204 11.8379C 34.8668 11.168 34.3199 10.833 33.5634 10.833C 32.816 10.833 32.2714 11.1634 31.9296 11.8242C 31.5878 12.4805 31.4169 13.5355 31.4169 14.9893ZM 44.8906 14.9893C 44.8906 16.7165 44.6171 18.0062 44.0703 18.8584C 43.5279 19.7106 42.6962 20.1367 41.5751 20.1367C 40.4996 20.1367 39.6816 19.7015 39.121 18.8311C 38.5605 17.9561 38.2802 16.6755 38.2802 14.9893C 38.2802 13.2484 38.5514 11.9564 39.0937 11.1133C 39.636 10.2702 40.4632 9.84863 41.5751 9.84863C 42.6598 9.84863 43.4824 10.2884 44.0429 11.168C 44.608 12.0475 44.8906 13.3213 44.8906 14.9893ZM 39.4286 14.9893C 39.4286 16.443 39.5995 17.5026 39.9413 18.168C 40.2831 18.8288 40.8277 19.1592 41.5751 19.1592C 42.3316 19.1592 42.8785 18.8242 43.2158 18.1543C 43.5576 17.4798 43.7285 16.4248 43.7285 14.9893C 43.7285 13.5537 43.5576 12.5033 43.2158 11.8379C 42.8785 11.168 42.3316 10.833 41.5751 10.833C 40.8277 10.833 40.2831 11.1634 39.9413 11.8242C 39.5995 12.4805 39.4286 13.5355 39.4286 14.9893ZM 52.9023 14.9893C 52.9023 16.7165 52.6288 18.0062 52.082 18.8584C 51.5397 19.7106 50.7079 20.1367 49.5869 20.1367C 48.5113 20.1367 47.6933 19.7015 47.1328 18.8311C 46.5722 17.9561 46.2919 16.6755 46.2919 14.9893C 46.2919 13.2484 46.5631 11.9564 47.1054 11.1133C 47.6477 10.2702 48.4749 9.84863 49.5869 9.84863C 50.6715 9.84863 51.4941 10.2884 52.0546 11.168C 52.6197 12.0475 52.9023 13.3213 52.9023 14.9893ZM 47.4404 14.9893C 47.4404 16.443 47.6113 17.5026 47.9531 18.168C 48.2949 18.8288 48.8395 19.1592 49.5869 19.1592C 50.3434 19.1592 50.8902 18.8242 51.2275 18.1543C 51.5693 17.4798 51.7402 16.4248 51.7402 14.9893C 51.7402 13.5537 51.5693 12.5033 51.2275 11.8379C 50.8902 11.168 50.3434 10.833 49.5869 10.833C 48.8395 10.833 48.2949 11.1634 47.9531 11.8242C 47.6113 12.4805 47.4404 13.5355 47.4404 14.9893ZM 59.3759 14.7637L 62.7734 14.7637L 62.7734 19.624C 62.2447 19.7926 61.707 19.9202 61.1601 20.0068C 60.6132 20.0934 59.9798 20.1367 59.2597 20.1367C 57.7467 20.1367 56.5686 19.6878 55.7255 18.79C 54.8824 17.8877 54.4609 16.6253 54.4609 15.0029C 54.4609 13.9639 54.6682 13.0547 55.0829 12.2754C 55.5022 11.4915 56.1038 10.8945 56.8876 10.4844C 57.6715 10.0697 58.5898 9.8623 59.6425 9.8623C 60.7089 9.8623 61.7024 10.0583 62.623 10.4502L 62.1718 11.4756C 61.2695 11.0928 60.4013 10.9014 59.5673 10.9014C 58.3505 10.9014 57.4003 11.2637 56.7167 11.9883C 56.0331 12.7129 55.6913 13.7178 55.6913 15.0029C 55.6913 16.3519 56.0195 17.375 56.6757 18.0723C 57.3365 18.7695 58.305 19.1182 59.581 19.1182C 60.2737 19.1182 60.9505 19.0384 61.6113 18.8789L 61.6113 15.8027L 59.3759 15.8027L 59.3759 14.7637ZM 70.7509 20L 65.1796 20L 65.1796 10.0059L 70.7509 10.0059L 70.7509 11.0381L 66.3417 11.0381L 66.3417 14.2578L 70.4843 14.2578L 70.4843 15.2832L 66.3417 15.2832L 66.3417 18.9609L 70.7509 18.9609L 70.7509 20ZM 79.624 20L 78.3046 20L 75.6181 15.6045L 72.8837 20L 71.6533 20L 74.9755 14.7773L 71.8788 10.0059L 73.164 10.0059L 75.6454 13.9639L 78.1474 10.0059L 79.3847 10.0059L 76.288 14.7363L 79.624 20Z"/>
<path id="path6_fill" d="M 7.26868 15L 6.16125 15L 6.16125 7.87695C 6.16125 7.28451 6.17948 6.72396 6.21594 6.19531C 6.12024 6.29102 6.01314 6.39128 5.89465 6.49609C 5.77616 6.60091 5.23385 7.04525 4.2677 7.8291L 3.66614 7.0498L 6.31165 5.00586L 7.26868 5.00586L 7.26868 15ZM 21.3507 15L 19.9767 10.6045C 19.8901 10.3356 19.7283 9.72493 19.4913 8.77246L 19.4366 8.77246C 19.2544 9.56999 19.0948 10.1852 18.9581 10.6182L 17.5431 15L 16.2306 15L 14.1866 7.50781L 15.3761 7.50781C 15.8592 9.38997 16.226 10.8232 16.4767 11.8076C 16.7319 12.792 16.8777 13.4551 16.9142 13.7969L 16.9689 13.7969C 17.019 13.5371 17.0988 13.2021 17.2081 12.792C 17.3221 12.3773 17.42 12.0492 17.5021 11.8076L 18.8761 7.50781L 20.1066 7.50781L 21.4464 11.8076C 21.7016 12.5915 21.8748 13.25 21.9659 13.7832L 22.0206 13.7832C 22.0389 13.6191 22.0867 13.3662 22.1642 13.0244C 22.2462 12.6826 22.7225 10.8438 23.5929 7.50781L 24.7687 7.50781L 22.6974 15L 21.3507 15ZM 29.2941 15.1367C 28.1866 15.1367 27.3116 14.7995 26.6691 14.125C 26.031 13.4505 25.712 12.514 25.712 11.3154C 25.712 10.1077 26.0083 9.14844 26.6007 8.4375C 27.1977 7.72656 27.9975 7.37109 29.0001 7.37109C 29.9389 7.37109 30.6818 7.68099 31.2286 8.30078C 31.7755 8.91602 32.049 9.72949 32.049 10.7412L 32.049 11.459L 26.8878 11.459C 26.9106 12.3385 27.1316 13.0062 27.5509 13.4619C 27.9747 13.9176 28.5695 14.1455 29.3351 14.1455C 30.1417 14.1455 30.9392 13.9769 31.7277 13.6396L 31.7277 14.6514C 31.3266 14.8245 30.9461 14.9476 30.5861 15.0205C 30.2306 15.098 29.7999 15.1367 29.2941 15.1367ZM 28.9865 8.32129C 28.3849 8.32129 27.9041 8.51725 27.5441 8.90918C 27.1886 9.30111 26.979 9.84342 26.9152 10.5361L 30.8322 10.5361C 30.8322 9.82064 30.6726 9.27376 30.3536 8.89551C 30.0346 8.5127 29.5789 8.32129 28.9865 8.32129ZM 37.1554 15.1367C 36.048 15.1367 35.173 14.7995 34.5304 14.125C 33.8924 13.4505 33.5734 12.514 33.5734 11.3154C 33.5734 10.1077 33.8696 9.14844 34.462 8.4375C 35.059 7.72656 35.8588 7.37109 36.8615 7.37109C 37.8003 7.37109 38.5431 7.68099 39.09 8.30078C 39.6368 8.91602 39.9103 9.72949 39.9103 10.7412L 39.9103 11.459L 34.7491 11.459C 34.7719 12.3385 34.993 13.0062 35.4122 13.4619C 35.8361 13.9176 36.4308 14.1455 37.1964 14.1455C 38.0031 14.1455 38.8006 13.9769 39.589 13.6396L 39.589 14.6514C 39.1879 14.8245 38.8074 14.9476 38.4474 15.0205C 38.0919 15.098 37.6613 15.1367 37.1554 15.1367ZM 36.8478 8.32129C 36.2462 8.32129 35.7654 8.51725 35.4054 8.90918C 35.0499 9.30111 34.8403 9.84342 34.7765 10.5361L 38.6935 10.5361C 38.6935 9.82064 38.534 9.27376 38.215 8.89551C 37.896 8.5127 37.4402 8.32129 36.8478 8.32129ZM 42.9728 11.165C 43.1687 10.887 43.4672 10.5225 43.8683 10.0713L 46.2882 7.50781L 47.6349 7.50781L 44.5997 10.7002L 47.8468 15L 46.4728 15L 43.8273 11.459L 42.9728 12.1973L 42.9728 15L 41.8517 15L 41.8517 4.36328L 42.9728 4.36328L 42.9728 10.0029C 42.9728 10.2536 42.9545 10.641 42.9181 11.165L 42.9728 11.165Z"/>
<path id="path7_fill" d="M 9.63391 15L 3.06458 15L 3.06458 14.0225L 5.69641 11.377C 6.49849 10.5658 7.02714 9.98698 7.28235 9.64062C 7.53756 9.29427 7.72896 8.95703 7.85657 8.62891C 7.98417 8.30078 8.04797 7.94759 8.04797 7.56934C 8.04797 7.03613 7.88619 6.61458 7.56262 6.30469C 7.23905 5.99023 6.79016 5.83301 6.21594 5.83301C 5.80123 5.83301 5.40702 5.90137 5.03333 6.03809C 4.66418 6.1748 4.25175 6.42318 3.79602 6.7832L 3.19446 6.01074C 4.11503 5.24512 5.11764 4.8623 6.20227 4.8623C 7.14107 4.8623 7.87708 5.10384 8.41028 5.58691C 8.94348 6.06543 9.21008 6.71029 9.21008 7.52148C 9.21008 8.15495 9.03235 8.78158 8.67688 9.40137C 8.32141 10.0212 7.65605 10.805 6.68079 11.7529L 4.49329 13.8926L 4.49329 13.9473L 9.63391 13.9473L 9.63391 15ZM 21.3507 15L 19.9767 10.6045C 19.8901 10.3356 19.7283 9.72493 19.4913 8.77246L 19.4366 8.77246C 19.2544 9.56999 19.0948 10.1852 18.9581 10.6182L 17.5431 15L 16.2306 15L 14.1866 7.50781L 15.3761 7.50781C 15.8592 9.38997 16.226 10.8232 16.4767 11.8076C 16.7319 12.792 16.8777 13.4551 16.9142 13.7969L 16.9689 13.7969C 17.019 13.5371 17.0988 13.2021 17.2081 12.792C 17.3221 12.3773 17.42 12.0492 17.5021 11.8076L 18.8761 7.50781L 20.1066 7.50781L 21.4464 11.8076C 21.7016 12.5915 21.8748 13.25 21.9659 13.7832L 22.0206 13.7832C 22.0389 13.6191 22.0867 13.3662 22.1642 13.0244C 22.2462 12.6826 22.7225 10.8438 23.5929 7.50781L 24.7687 7.50781L 22.6974 15L 21.3507 15ZM 29.2941 15.1367C 28.1866 15.1367 27.3116 14.7995 26.6691 14.125C 26.031 13.4505 25.712 12.514 25.712 11.3154C 25.712 10.1077 26.0083 9.14844 26.6007 8.4375C 27.1977 7.72656 27.9975 7.37109 29.0001 7.37109C 29.9389 7.37109 30.6818 7.68099 31.2286 8.30078C 31.7755 8.91602 32.049 9.72949 32.049 10.7412L 32.049 11.459L 26.8878 11.459C 26.9106 12.3385 27.1316 13.0062 27.5509 13.4619C 27.9747 13.9176 28.5695 14.1455 29.3351 14.1455C 30.1417 14.1455 30.9392 13.9769 31.7277 13.6396L 31.7277 14.6514C 31.3266 14.8245 30.9461 14.9476 30.5861 15.0205C 30.2306 15.098 29.7999 15.1367 29.2941 15.1367ZM 28.9865 8.32129C 28.3849 8.32129 27.9041 8.51725 27.5441 8.90918C 27.1886 9.30111 26.979 9.84342 26.9152 10.5361L 30.8322 10.5361C 30.8322 9.82064 30.6726 9.27376 30.3536 8.89551C 30.0346 8.5127 29.5789 8.32129 28.9865 8.32129ZM 37.1554 15.1367C 36.048 15.1367 35.173 14.7995 34.5304 14.125C 33.8924 13.4505 33.5734 12.514 33.5734 11.3154C 33.5734 10.1077 33.8696 9.14844 34.462 8.4375C 35.059 7.72656 35.8588 7.37109 36.8615 7.37109C 37.8003 7.37109 38.5431 7.68099 39.09 8.30078C 39.6368 8.91602 39.9103 9.72949 39.9103 10.7412L 39.9103 11.459L 34.7491 11.459C 34.7719 12.3385 34.993 13.0062 35.4122 13.4619C 35.8361 13.9176 36.4308 14.1455 37.1964 14.1455C 38.0031 14.1455 38.8006 13.9769 39.589 13.6396L 39.589 14.6514C 39.1879 14.8245 38.8074 14.9476 38.4474 15.0205C 38.0919 15.098 37.6613 15.1367 37.1554 15.1367ZM 36.8478 8.32129C 36.2462 8.32129 35.7654 8.51725 35.4054 8.90918C 35.0499 9.30111 34.8403 9.84342 34.7765 10.5361L 38.6935 10.5361C 38.6935 9.82064 38.534 9.27376 38.215 8.89551C 37.896 8.5127 37.4402 8.32129 36.8478 8.32129ZM 42.9728 11.165C 43.1687 10.887 43.4672 10.5225 43.8683 10.0713L 46.2882 7.50781L 47.6349 7.50781L 44.5997 10.7002L 47.8468 15L 46.4728 15L 43.8273 11.459L 42.9728 12.1973L 42.9728 15L 41.8517 15L 41.8517 4.36328L 42.9728 4.36328L 42.9728 10.0029C 42.9728 10.2536 42.9545 10.641 42.9181 11.165L 42.9728 11.165Z"/>
<path id="path8_fill" d="M 9.25793 7.35742C 9.25793 7.99544 9.07792 8.51725 8.7179 8.92285C 8.36243 9.32845 7.85657 9.59961 7.20032 9.73633L 7.20032 9.79102C 8.0024 9.89128 8.59713 10.1465 8.9845 10.5566C 9.37187 10.9668 9.56555 11.5046 9.56555 12.1699C 9.56555 13.1224 9.23515 13.8561 8.57434 14.3711C 7.91353 14.8815 6.97473 15.1367 5.75793 15.1367C 5.22929 15.1367 4.74394 15.0957 4.30188 15.0137C 3.86438 14.9362 3.43827 14.7972 3.02356 14.5967L 3.02356 13.5166C 3.4565 13.7308 3.91679 13.8949 4.40442 14.0088C 4.89661 14.1182 5.36145 14.1729 5.79895 14.1729C 7.52616 14.1729 8.38977 13.4961 8.38977 12.1426C 8.38977 10.9303 7.4373 10.3242 5.53235 10.3242L 4.54797 10.3242L 4.54797 9.34668L 5.54602 9.34668C 6.32532 9.34668 6.94283 9.17578 7.39856 8.83398C 7.85429 8.48763 8.08215 8.00911 8.08215 7.39844C 8.08215 6.91081 7.91353 6.52799 7.57629 6.25C 7.24361 5.97201 6.79016 5.83301 6.21594 5.83301C 5.77844 5.83301 5.36601 5.89225 4.97864 6.01074C 4.59127 6.12923 4.14921 6.34798 3.65247 6.66699L 3.07825 5.90137C 3.4884 5.5778 3.96008 5.32487 4.49329 5.14258C 5.03105 4.95573 5.59615 4.8623 6.1886 4.8623C 7.1593 4.8623 7.91353 5.08561 8.45129 5.53223C 8.98905 5.97428 9.25793 6.58268 9.25793 7.35742ZM 21.3507 15L 19.9767 10.6045C 19.8901 10.3356 19.7283 9.72493 19.4913 8.77246L 19.4366 8.77246C 19.2544 9.56999 19.0948 10.1852 18.9581 10.6182L 17.5431 15L 16.2306 15L 14.1866 7.50781L 15.3761 7.50781C 15.8592 9.38997 16.226 10.8232 16.4767 11.8076C 16.7319 12.792 16.8777 13.4551 16.9142 13.7969L 16.9689 13.7969C 17.019 13.5371 17.0988 13.2021 17.2081 12.792C 17.3221 12.3773 17.42 12.0492 17.5021 11.8076L 18.8761 7.50781L 20.1066 7.50781L 21.4464 11.8076C 21.7016 12.5915 21.8748 13.25 21.9659 13.7832L 22.0206 13.7832C 22.0389 13.6191 22.0867 13.3662 22.1642 13.0244C 22.2462 12.6826 22.7225 10.8438 23.5929 7.50781L 24.7687 7.50781L 22.6974 15L 21.3507 15ZM 29.2941 15.1367C 28.1866 15.1367 27.3116 14.7995 26.6691 14.125C 26.031 13.4505 25.712 12.514 25.712 11.3154C 25.712 10.1077 26.0083 9.14844 26.6007 8.4375C 27.1977 7.72656 27.9975 7.37109 29.0001 7.37109C 29.9389 7.37109 30.6818 7.68099 31.2286 8.30078C 31.7755 8.91602 32.049 9.72949 32.049 10.7412L 32.049 11.459L 26.8878 11.459C 26.9106 12.3385 27.1316 13.0062 27.5509 13.4619C 27.9747 13.9176 28.5695 14.1455 29.3351 14.1455C 30.1417 14.1455 30.9392 13.9769 31.7277 13.6396L 31.7277 14.6514C 31.3266 14.8245 30.9461 14.9476 30.5861 15.0205C 30.2306 15.098 29.7999 15.1367 29.2941 15.1367ZM 28.9865 8.32129C 28.3849 8.32129 27.9041 8.51725 27.5441 8.90918C 27.1886 9.30111 26.979 9.84342 26.9152 10.5361L 30.8322 10.5361C 30.8322 9.82064 30.6726 9.27376 30.3536 8.89551C 30.0346 8.5127 29.5789 8.32129 28.9865 8.32129ZM 37.1554 15.1367C 36.048 15.1367 35.173 14.7995 34.5304 14.125C 33.8924 13.4505 33.5734 12.514 33.5734 11.3154C 33.5734 10.1077 33.8696 9.14844 34.462 8.4375C 35.059 7.72656 35.8588 7.37109 36.8615 7.37109C 37.8003 7.37109 38.5431 7.68099 39.09 8.30078C 39.6368 8.91602 39.9103 9.72949 39.9103 10.7412L 39.9103 11.459L 34.7491 11.459C 34.7719 12.3385 34.993 13.0062 35.4122 13.4619C 35.8361 13.9176 36.4308 14.1455 37.1964 14.1455C 38.0031 14.1455 38.8006 13.9769 39.589 13.6396L 39.589 14.6514C 39.1879 14.8245 38.8074 14.9476 38.4474 15.0205C 38.0919 15.098 37.6613 15.1367 37.1554 15.1367ZM 36.8478 8.32129C 36.2462 8.32129 35.7654 8.51725 35.4054 8.90918C 35.0499 9.30111 34.8403 9.84342 34.7765 10.5361L 38.6935 10.5361C 38.6935 9.82064 38.534 9.27376 38.215 8.89551C 37.896 8.5127 37.4402 8.32129 36.8478 8.32129ZM 42.9728 11.165C 43.1687 10.887 43.4672 10.5225 43.8683 10.0713L 46.2882 7.50781L 47.6349 7.50781L 44.5997 10.7002L 47.8468 15L 46.4728 15L 43.8273 11.459L 42.9728 12.1973L 42.9728 15L 41.8517 15L 41.8517 4.36328L 42.9728 4.36328L 42.9728 10.0029C 42.9728 10.2536 42.9545 10.641 42.9181 11.165L 42.9728 11.165Z"/>
<path id="path9_fill" d="M 10.1056 12.7031L 8.62221 12.7031L 8.62221 15L 7.53529 15L 7.53529 12.7031L 2.67494 12.7031L 2.67494 11.7119L 7.41908 4.95117L 8.62221 4.95117L 8.62221 11.6709L 10.1056 11.6709L 10.1056 12.7031ZM 7.53529 11.6709L 7.53529 8.34863C 7.53529 7.69694 7.55808 6.96094 7.60365 6.14062L 7.54897 6.14062C 7.33022 6.57812 7.12514 6.94043 6.93373 7.22754L 3.80971 11.6709L 7.53529 11.6709ZM 21.3507 15L 19.9767 10.6045C 19.8901 10.3356 19.7283 9.72493 19.4913 8.77246L 19.4367 8.77246C 19.2544 9.56999 19.0949 10.1852 18.9581 10.6182L 17.5431 15L 16.2306 15L 14.1867 7.50781L 15.3761 7.50781C 15.8592 9.38997 16.226 10.8232 16.4767 11.8076C 16.7319 12.792 16.8777 13.4551 16.9142 13.7969L 16.9689 13.7969C 17.019 13.5371 17.0988 13.2021 17.2081 12.792C 17.3221 12.3773 17.4201 12.0492 17.5021 11.8076L 18.8761 7.50781L 20.1066 7.50781L 21.4464 11.8076C 21.7016 12.5915 21.8748 13.25 21.966 13.7832L 22.0206 13.7832C 22.0389 13.6191 22.0867 13.3662 22.1642 13.0244C 22.2462 12.6826 22.7225 10.8438 23.5929 7.50781L 24.7687 7.50781L 22.6974 15L 21.3507 15ZM 29.2941 15.1367C 28.1867 15.1367 27.3117 14.7995 26.6691 14.125C 26.0311 13.4505 25.7121 12.514 25.7121 11.3154C 25.7121 10.1077 26.0083 9.14844 26.6007 8.4375C 27.1977 7.72656 27.9975 7.37109 29.0001 7.37109C 29.9389 7.37109 30.6818 7.68099 31.2287 8.30078C 31.7755 8.91602 32.049 9.72949 32.049 10.7412L 32.049 11.459L 26.8878 11.459C 26.9106 12.3385 27.1316 13.0062 27.5509 13.4619C 27.9747 13.9176 28.5695 14.1455 29.3351 14.1455C 30.1417 14.1455 30.9393 13.9769 31.7277 13.6396L 31.7277 14.6514C 31.3266 14.8245 30.9461 14.9476 30.5861 15.0205C 30.2306 15.098 29.7999 15.1367 29.2941 15.1367ZM 28.9865 8.32129C 28.3849 8.32129 27.9041 8.51725 27.5441 8.90918C 27.1886 9.30111 26.979 9.84342 26.9152 10.5361L 30.8322 10.5361C 30.8322 9.82064 30.6727 9.27376 30.3537 8.89551C 30.0346 8.5127 29.5789 8.32129 28.9865 8.32129ZM 37.1554 15.1367C 36.048 15.1367 35.173 14.7995 34.5304 14.125C 33.8924 13.4505 33.5734 12.514 33.5734 11.3154C 33.5734 10.1077 33.8696 9.14844 34.4621 8.4375C 35.0591 7.72656 35.8589 7.37109 36.8615 7.37109C 37.8003 7.37109 38.5431 7.68099 39.09 8.30078C 39.6369 8.91602 39.9103 9.72949 39.9103 10.7412L 39.9103 11.459L 34.7492 11.459C 34.7719 12.3385 34.993 13.0062 35.4122 13.4619C 35.8361 13.9176 36.4308 14.1455 37.1964 14.1455C 38.0031 14.1455 38.8006 13.9769 39.589 13.6396L 39.589 14.6514C 39.188 14.8245 38.8074 14.9476 38.4474 15.0205C 38.0919 15.098 37.6613 15.1367 37.1554 15.1367ZM 36.8478 8.32129C 36.2462 8.32129 35.7654 8.51725 35.4054 8.90918C 35.0499 9.30111 34.8403 9.84342 34.7765 10.5361L 38.6935 10.5361C 38.6935 9.82064 38.534 9.27376 38.215 8.89551C 37.896 8.5127 37.4402 8.32129 36.8478 8.32129ZM 42.9728 11.165C 43.1688 10.887 43.4673 10.5225 43.8683 10.0713L 46.2882 7.50781L 47.6349 7.50781L 44.5997 10.7002L 47.8468 15L 46.4728 15L 43.8273 11.459L 42.9728 12.1973L 42.9728 15L 41.8517 15L 41.8517 4.36328L 42.9728 4.36328L 42.9728 10.0029C 42.9728 10.2536 42.9546 10.641 42.9181 11.165L 42.9728 11.165Z"/>
<path id="path10_stroke" d="M 0 0L 407 0L 407 -1L 0 -1L 0 0Z"/>
<path id="path11_fill" d="M 19.8711 18L 24.0136 9.05176L 18.5654 9.05176L 18.5654 8.00586L 25.2168 8.00586L 25.2168 8.91504L 21.1289 18L 19.8711 18ZM 36.8789 12.9893C 36.8789 14.7165 36.6054 16.0062 36.0586 16.8584C 35.5162 17.7106 34.6845 18.1367 33.5634 18.1367C 32.4879 18.1367 31.6699 17.7015 31.1093 16.8311C 30.5488 15.9561 30.2685 14.6755 30.2685 12.9893C 30.2685 11.2484 30.5397 9.95638 31.082 9.11328C 31.6243 8.27018 32.4515 7.84863 33.5634 7.84863C 34.6481 7.84863 35.4707 8.28841 36.0312 9.16797C 36.5963 10.0475 36.8789 11.3213 36.8789 12.9893ZM 31.417 12.9893C 31.417 14.443 31.5879 15.5026 31.9296 16.168C 32.2714 16.8288 32.816 17.1592 33.5634 17.1592C 34.3199 17.1592 34.8668 16.8242 35.2041 16.1543C 35.5459 15.4798 35.7168 14.4248 35.7168 12.9893C 35.7168 11.5537 35.5459 10.5033 35.2041 9.83789C 34.8668 9.16797 34.3199 8.83301 33.5634 8.83301C 32.816 8.83301 32.2714 9.16341 31.9296 9.82422C 31.5879 10.4805 31.417 11.5355 31.417 12.9893ZM 44.8906 12.9893C 44.8906 14.7165 44.6171 16.0062 44.0703 16.8584C 43.528 17.7106 42.6963 18.1367 41.5752 18.1367C 40.4996 18.1367 39.6816 17.7015 39.1211 16.8311C 38.5605 15.9561 38.2802 14.6755 38.2802 12.9893C 38.2802 11.2484 38.5514 9.95638 39.0937 9.11328C 39.636 8.27018 40.4632 7.84863 41.5752 7.84863C 42.6598 7.84863 43.4824 8.28841 44.0429 9.16797C 44.608 10.0475 44.8906 11.3213 44.8906 12.9893ZM 39.4287 12.9893C 39.4287 14.443 39.5996 15.5026 39.9414 16.168C 40.2832 16.8288 40.8278 17.1592 41.5752 17.1592C 42.3317 17.1592 42.8785 16.8242 43.2158 16.1543C 43.5576 15.4798 43.7285 14.4248 43.7285 12.9893C 43.7285 11.5537 43.5576 10.5033 43.2158 9.83789C 42.8785 9.16797 42.3317 8.83301 41.5752 8.83301C 40.8278 8.83301 40.2832 9.16341 39.9414 9.82422C 39.5996 10.4805 39.4287 11.5355 39.4287 12.9893ZM 52.9023 12.9893C 52.9023 14.7165 52.6289 16.0062 52.082 16.8584C 51.5397 17.7106 50.708 18.1367 49.5869 18.1367C 48.5114 18.1367 47.6933 17.7015 47.1328 16.8311C 46.5722 15.9561 46.292 14.6755 46.292 12.9893C 46.292 11.2484 46.5631 9.95638 47.1054 9.11328C 47.6477 8.27018 48.4749 7.84863 49.5869 7.84863C 50.6715 7.84863 51.4941 8.28841 52.0546 9.16797C 52.6198 10.0475 52.9023 11.3213 52.9023 12.9893ZM 47.4404 12.9893C 47.4404 14.443 47.6113 15.5026 47.9531 16.168C 48.2949 16.8288 48.8395 17.1592 49.5869 17.1592C 50.3434 17.1592 50.8903 16.8242 51.2275 16.1543C 51.5693 15.4798 51.7402 14.4248 51.7402 12.9893C 51.7402 11.5537 51.5693 10.5033 51.2275 9.83789C 50.8903 9.16797 50.3434 8.83301 49.5869 8.83301C 48.8395 8.83301 48.2949 9.16341 47.9531 9.82422C 47.6113 10.4805 47.4404 11.5355 47.4404 12.9893ZM 59.3759 12.7637L 62.7734 12.7637L 62.7734 17.624C 62.2448 17.7926 61.707 17.9202 61.1601 18.0068C 60.6132 18.0934 59.9798 18.1367 59.2597 18.1367C 57.7467 18.1367 56.5686 17.6878 55.7255 16.79C 54.8824 15.8877 54.4609 14.6253 54.4609 13.0029C 54.4609 11.9639 54.6683 11.0547 55.083 10.2754C 55.5022 9.49154 56.1038 8.89453 56.8877 8.48438C 57.6715 8.06966 58.5898 7.8623 59.6425 7.8623C 60.7089 7.8623 61.7024 8.05827 62.623 8.4502L 62.1718 9.47559C 61.2695 9.09277 60.4013 8.90137 59.5673 8.90137C 58.3505 8.90137 57.4004 9.26367 56.7168 9.98828C 56.0332 10.7129 55.6914 11.7178 55.6914 13.0029C 55.6914 14.3519 56.0195 15.375 56.6757 16.0723C 57.3366 16.7695 58.305 17.1182 59.581 17.1182C 60.2737 17.1182 60.9505 17.0384 61.6113 16.8789L 61.6113 13.8027L 59.3759 13.8027L 59.3759 12.7637ZM 70.7509 18L 65.1796 18L 65.1796 8.00586L 70.7509 8.00586L 70.7509 9.03809L 66.3418 9.03809L 66.3418 12.2578L 70.4843 12.2578L 70.4843 13.2832L 66.3418 13.2832L 66.3418 16.9609L 70.7509 16.9609L 70.7509 18ZM 79.624 18L 78.3046 18L 75.6181 13.6045L 72.8838 18L 71.6533 18L 74.9755 12.7773L 71.8789 8.00586L 73.164 8.00586L 75.6455 11.9639L 78.1474 8.00586L 79.3847 8.00586L 76.288 12.7363L 79.624 18Z"/>
<path id="path12_fill" d="M 78.9746 12.9893C 78.9746 14.7165 78.7011 16.0062 78.1543 16.8584C 77.6119 17.7106 76.7802 18.1367 75.6591 18.1367C 74.5836 18.1367 73.7656 17.7015 73.205 16.8311C 72.6445 15.9561 72.3642 14.6755 72.3642 12.9893C 72.3642 11.2484 72.6354 9.95638 73.1777 9.11328C 73.72 8.27018 74.5472 7.84863 75.6591 7.84863C 76.7438 7.84863 77.5664 8.28841 78.1269 9.16797C 78.692 10.0475 78.9746 11.3213 78.9746 12.9893ZM 73.5127 12.9893C 73.5127 14.443 73.6836 15.5026 74.0254 16.168C 74.3671 16.8288 74.9117 17.1592 75.6591 17.1592C 76.4157 17.1592 76.9625 16.8242 77.2998 16.1543C 77.6416 15.4798 77.8125 14.4248 77.8125 12.9893C 77.8125 11.5537 77.6416 10.5033 77.2998 9.83789C 76.9625 9.16797 76.4157 8.83301 75.6591 8.83301C 74.9117 8.83301 74.3671 9.16341 74.0254 9.82422C 73.6836 10.4805 73.5127 11.5355 73.5127 12.9893Z"/>
<path id="path13_fill" d="M 21.915 7.8623C 22.8265 7.8623 23.5488 8.07422 24.082 8.49805C 24.6152 8.92188 24.8818 9.50749 24.8818 10.2549C 24.8818 10.7471 24.7291 11.196 24.4238 11.6016C 24.1185 12.0072 23.6308 12.3763 22.9609 12.709C 23.7721 13.0964 24.3486 13.5042 24.6904 13.9326C 25.0322 14.3564 25.2031 14.8486 25.2031 15.4092C 25.2031 16.2386 24.9137 16.9017 24.3349 17.3984C 23.7561 17.8906 22.9632 18.1367 21.956 18.1367C 20.8896 18.1367 20.0693 17.9043 19.4951 17.4395C 18.9209 16.9701 18.6338 16.307 18.6338 15.4502C 18.6338 14.3063 19.331 13.4154 20.7255 12.7773C 20.0966 12.4219 19.6455 12.0391 19.372 11.6289C 19.0986 11.2142 18.9619 10.7516 18.9619 10.2412C 18.9619 9.5166 19.2285 8.9401 19.7617 8.51172C 20.2994 8.07878 21.0172 7.8623 21.915 7.8623ZM 19.7548 15.4775C 19.7548 16.0244 19.944 16.4505 20.3222 16.7559C 20.705 17.0612 21.2405 17.2139 21.9287 17.2139C 22.6077 17.2139 23.1364 17.0544 23.5146 16.7354C 23.8929 16.4163 24.082 15.9788 24.082 15.4229C 24.082 14.9808 23.9043 14.5889 23.5488 14.2471C 23.1933 13.9007 22.5735 13.5658 21.6894 13.2422C 21.0104 13.5339 20.5182 13.8574 20.2129 14.2129C 19.9075 14.5638 19.7548 14.9854 19.7548 15.4775ZM 21.9013 8.78516C 21.3317 8.78516 20.8851 8.92188 20.5615 9.19531C 20.2379 9.46875 20.0761 9.83333 20.0761 10.2891C 20.0761 10.7083 20.2106 11.0684 20.4795 11.3691C 20.7483 11.6699 21.2451 11.9707 21.9697 12.2715C 22.6214 11.998 23.0817 11.7041 23.3505 11.3896C 23.624 11.0752 23.7607 10.7083 23.7607 10.2891C 23.7607 9.82878 23.5944 9.46419 23.2617 9.19531C 22.9336 8.92188 22.4801 8.78516 21.9013 8.78516ZM 36.8789 12.9893C 36.8789 14.7165 36.6054 16.0062 36.0586 16.8584C 35.5162 17.7106 34.6845 18.1367 33.5634 18.1367C 32.4879 18.1367 31.6699 17.7015 31.1093 16.8311C 30.5488 15.9561 30.2685 14.6755 30.2685 12.9893C 30.2685 11.2484 30.5397 9.95638 31.082 9.11328C 31.6243 8.27018 32.4515 7.84863 33.5634 7.84863C 34.6481 7.84863 35.4707 8.28841 36.0312 9.16797C 36.5963 10.0475 36.8789 11.3213 36.8789 12.9893ZM 31.417 12.9893C 31.417 14.443 31.5879 15.5026 31.9296 16.168C 32.2714 16.8288 32.816 17.1592 33.5634 17.1592C 34.3199 17.1592 34.8668 16.8242 35.2041 16.1543C 35.5459 15.4798 35.7168 14.4248 35.7168 12.9893C 35.7168 11.5537 35.5459 10.5033 35.2041 9.83789C 34.8668 9.16797 34.3199 8.83301 33.5634 8.83301C 32.816 8.83301 32.2714 9.16341 31.9296 9.82422C 31.5879 10.4805 31.417 11.5355 31.417 12.9893ZM 44.8906 12.9893C 44.8906 14.7165 44.6171 16.0062 44.0703 16.8584C 43.528 17.7106 42.6963 18.1367 41.5752 18.1367C 40.4996 18.1367 39.6816 17.7015 39.1211 16.8311C 38.5605 15.9561 38.2802 14.6755 38.2802 12.9893C 38.2802 11.2484 38.5514 9.95638 39.0937 9.11328C 39.636 8.27018 40.4632 7.84863 41.5752 7.84863C 42.6598 7.84863 43.4824 8.28841 44.0429 9.16797C 44.608 10.0475 44.8906 11.3213 44.8906 12.9893ZM 39.4287 12.9893C 39.4287 14.443 39.5996 15.5026 39.9414 16.168C 40.2832 16.8288 40.8278 17.1592 41.5752 17.1592C 42.3317 17.1592 42.8785 16.8242 43.2158 16.1543C 43.5576 15.4798 43.7285 14.4248 43.7285 12.9893C 43.7285 11.5537 43.5576 10.5033 43.2158 9.83789C 42.8785 9.16797 42.3317 8.83301 41.5752 8.83301C 40.8278 8.83301 40.2832 9.16341 39.9414 9.82422C 39.5996 10.4805 39.4287 11.5355 39.4287 12.9893ZM 52.9023 12.9893C 52.9023 14.7165 52.6289 16.0062 52.082 16.8584C 51.5397 17.7106 50.708 18.1367 49.5869 18.1367C 48.5114 18.1367 47.6933 17.7015 47.1328 16.8311C 46.5722 15.9561 46.292 14.6755 46.292 12.9893C 46.292 11.2484 46.5631 9.95638 47.1054 9.11328C 47.6477 8.27018 48.4749 7.84863 49.5869 7.84863C 50.6715 7.84863 51.4941 8.28841 52.0546 9.16797C 52.6198 10.0475 52.9023 11.3213 52.9023 12.9893ZM 47.4404 12.9893C 47.4404 14.443 47.6113 15.5026 47.9531 16.168C 48.2949 16.8288 48.8395 17.1592 49.5869 17.1592C 50.3434 17.1592 50.8903 16.8242 51.2275 16.1543C 51.5693 15.4798 51.7402 14.4248 51.7402 12.9893C 51.7402 11.5537 51.5693 10.5033 51.2275 9.83789C 50.8903 9.16797 50.3434 8.83301 49.5869 8.83301C 48.8395 8.83301 48.2949 9.16341 47.9531 9.82422C 47.6113 10.4805 47.4404 11.5355 47.4404 12.9893ZM 59.3759 12.7637L 62.7734 12.7637L 62.7734 17.624C 62.2448 17.7926 61.707 17.9202 61.1601 18.0068C 60.6132 18.0934 59.9798 18.1367 59.2597 18.1367C 57.7467 18.1367 56.5686 17.6878 55.7255 16.79C 54.8824 15.8877 54.4609 14.6253 54.4609 13.0029C 54.4609 11.9639 54.6683 11.0547 55.083 10.2754C 55.5022 9.49154 56.1038 8.89453 56.8877 8.48438C 57.6715 8.06966 58.5898 7.8623 59.6425 7.8623C 60.7089 7.8623 61.7024 8.05827 62.623 8.4502L 62.1718 9.47559C 61.2695 9.09277 60.4013 8.90137 59.5673 8.90137C 58.3505 8.90137 57.4004 9.26367 56.7168 9.98828C 56.0332 10.7129 55.6914 11.7178 55.6914 13.0029C 55.6914 14.3519 56.0195 15.375 56.6757 16.0723C 57.3366 16.7695 58.305 17.1182 59.581 17.1182C 60.2737 17.1182 60.9505 17.0384 61.6113 16.8789L 61.6113 13.8027L 59.3759 13.8027L 59.3759 12.7637ZM 70.7509 18L 65.1796 18L 65.1796 8.00586L 70.7509 8.00586L 70.7509 9.03809L 66.3418 9.03809L 66.3418 12.2578L 70.4843 12.2578L 70.4843 13.2832L 66.3418 13.2832L 66.3418 16.9609L 70.7509 16.9609L 70.7509 18ZM 79.624 18L 78.3046 18L 75.6181 13.6045L 72.8838 18L 71.6533 18L 74.9755 12.7773L 71.8789 8.00586L 73.164 8.00586L 75.6455 11.9639L 78.1474 8.00586L 79.3847 8.00586L 76.288 12.7363L 79.624 18Z"/>
<path id="path14_fill" d="M 25.1757 12.2715C 25.1757 16.1816 23.6627 18.1367 20.6367 18.1367C 20.108 18.1367 19.6888 18.0911 19.3789 18L 19.3789 17.0225C 19.7435 17.141 20.1582 17.2002 20.623 17.2002C 21.7168 17.2002 22.5416 16.863 23.0976 16.1885C 23.6582 15.5094 23.9635 14.4704 24.0136 13.0713L 23.9316 13.0713C 23.681 13.4495 23.3483 13.7389 22.9336 13.9395C 22.5188 14.1354 22.0517 14.2334 21.5322 14.2334C 20.6481 14.2334 19.9463 13.9691 19.4267 13.4404C 18.9072 12.9118 18.6474 12.1735 18.6474 11.2256C 18.6474 10.1865 18.9368 9.36621 19.5156 8.76465C 20.0989 8.16309 20.8645 7.8623 21.8125 7.8623C 22.4915 7.8623 23.0839 8.03776 23.5898 8.38867C 24.1002 8.73503 24.4921 9.24316 24.7656 9.91309C 25.039 10.5785 25.1757 11.3646 25.1757 12.2715ZM 21.8125 8.83301C 21.1608 8.83301 20.6572 9.04264 20.3017 9.46191C 19.9463 9.88119 19.7685 10.4645 19.7685 11.2119C 19.7685 11.8682 19.9326 12.3854 20.2607 12.7637C 20.5888 13.1374 21.0879 13.3242 21.7578 13.3242C 22.1725 13.3242 22.553 13.2399 22.8994 13.0713C 23.2503 12.9027 23.526 12.6725 23.7265 12.3809C 23.927 12.0892 24.0273 11.7839 24.0273 11.4648C 24.0273 10.9863 23.9339 10.5443 23.747 10.1387C 23.5602 9.73307 23.2981 9.41406 22.9609 9.18164C 22.6282 8.94922 22.2454 8.83301 21.8125 8.83301ZM 36.8789 12.9893C 36.8789 14.7165 36.6054 16.0062 36.0586 16.8584C 35.5162 17.7106 34.6845 18.1367 33.5634 18.1367C 32.4879 18.1367 31.6699 17.7015 31.1093 16.8311C 30.5488 15.9561 30.2685 14.6755 30.2685 12.9893C 30.2685 11.2484 30.5397 9.95638 31.082 9.11328C 31.6243 8.27018 32.4515 7.84863 33.5634 7.84863C 34.6481 7.84863 35.4707 8.28841 36.0312 9.16797C 36.5963 10.0475 36.8789 11.3213 36.8789 12.9893ZM 31.417 12.9893C 31.417 14.443 31.5879 15.5026 31.9296 16.168C 32.2714 16.8288 32.816 17.1592 33.5634 17.1592C 34.3199 17.1592 34.8668 16.8242 35.2041 16.1543C 35.5459 15.4798 35.7168 14.4248 35.7168 12.9893C 35.7168 11.5537 35.5459 10.5033 35.2041 9.83789C 34.8668 9.16797 34.3199 8.83301 33.5634 8.83301C 32.816 8.83301 32.2714 9.16341 31.9296 9.82422C 31.5879 10.4805 31.417 11.5355 31.417 12.9893ZM 44.8906 12.9893C 44.8906 14.7165 44.6171 16.0062 44.0703 16.8584C 43.528 17.7106 42.6963 18.1367 41.5752 18.1367C 40.4996 18.1367 39.6816 17.7015 39.1211 16.8311C 38.5605 15.9561 38.2802 14.6755 38.2802 12.9893C 38.2802 11.2484 38.5514 9.95638 39.0937 9.11328C 39.636 8.27018 40.4632 7.84863 41.5752 7.84863C 42.6598 7.84863 43.4824 8.28841 44.0429 9.16797C 44.608 10.0475 44.8906 11.3213 44.8906 12.9893ZM 39.4287 12.9893C 39.4287 14.443 39.5996 15.5026 39.9414 16.168C 40.2832 16.8288 40.8278 17.1592 41.5752 17.1592C 42.3317 17.1592 42.8785 16.8242 43.2158 16.1543C 43.5576 15.4798 43.7285 14.4248 43.7285 12.9893C 43.7285 11.5537 43.5576 10.5033 43.2158 9.83789C 42.8785 9.16797 42.3317 8.83301 41.5752 8.83301C 40.8278 8.83301 40.2832 9.16341 39.9414 9.82422C 39.5996 10.4805 39.4287 11.5355 39.4287 12.9893ZM 52.9023 12.9893C 52.9023 14.7165 52.6289 16.0062 52.082 16.8584C 51.5397 17.7106 50.708 18.1367 49.5869 18.1367C 48.5114 18.1367 47.6933 17.7015 47.1328 16.8311C 46.5722 15.9561 46.292 14.6755 46.292 12.9893C 46.292 11.2484 46.5631 9.95638 47.1054 9.11328C 47.6477 8.27018 48.4749 7.84863 49.5869 7.84863C 50.6715 7.84863 51.4941 8.28841 52.0546 9.16797C 52.6198 10.0475 52.9023 11.3213 52.9023 12.9893ZM 47.4404 12.9893C 47.4404 14.443 47.6113 15.5026 47.9531 16.168C 48.2949 16.8288 48.8395 17.1592 49.5869 17.1592C 50.3434 17.1592 50.8903 16.8242 51.2275 16.1543C 51.5693 15.4798 51.7402 14.4248 51.7402 12.9893C 51.7402 11.5537 51.5693 10.5033 51.2275 9.83789C 50.8903 9.16797 50.3434 8.83301 49.5869 8.83301C 48.8395 8.83301 48.2949 9.16341 47.9531 9.82422C 47.6113 10.4805 47.4404 11.5355 47.4404 12.9893ZM 59.3759 12.7637L 62.7734 12.7637L 62.7734 17.624C 62.2448 17.7926 61.707 17.9202 61.1601 18.0068C 60.6132 18.0934 59.9798 18.1367 59.2597 18.1367C 57.7467 18.1367 56.5686 17.6878 55.7255 16.79C 54.8824 15.8877 54.4609 14.6253 54.4609 13.0029C 54.4609 11.9639 54.6683 11.0547 55.083 10.2754C 55.5022 9.49154 56.1038 8.89453 56.8877 8.48438C 57.6715 8.06966 58.5898 7.8623 59.6425 7.8623C 60.7089 7.8623 61.7024 8.05827 62.623 8.4502L 62.1718 9.47559C 61.2695 9.09277 60.4013 8.90137 59.5673 8.90137C 58.3505 8.90137 57.4004 9.26367 56.7168 9.98828C 56.0332 10.7129 55.6914 11.7178 55.6914 13.0029C 55.6914 14.3519 56.0195 15.375 56.6757 16.0723C 57.3366 16.7695 58.305 17.1182 59.581 17.1182C 60.2737 17.1182 60.9505 17.0384 61.6113 16.8789L 61.6113 13.8027L 59.3759 13.8027L 59.3759 12.7637ZM 70.7509 18L 65.1796 18L 65.1796 8.00586L 70.7509 8.00586L 70.7509 9.03809L 66.3418 9.03809L 66.3418 12.2578L 70.4843 12.2578L 70.4843 13.2832L 66.3418 13.2832L 66.3418 16.9609L 70.7509 16.9609L 70.7509 18ZM 79.624 18L 78.3046 18L 75.6181 13.6045L 72.8838 18L 71.6533 18L 74.9755 12.7773L 71.8789 8.00586L 73.164 8.00586L 75.6455 11.9639L 78.1474 8.00586L 79.3847 8.00586L 76.288 12.7363L 79.624 18Z"/>
<path id="path15_fill" d="M 14.7988 18L 13.6914 18L 13.6914 10.877C 13.6914 10.2845 13.7096 9.72396 13.7461 9.19531C 13.6504 9.29102 13.5433 9.39128 13.4248 9.49609C 13.3063 9.60091 12.764 10.0452 11.7978 10.8291L 11.1963 10.0498L 13.8418 8.00586L 14.7988 8.00586L 14.7988 18ZM 25.2304 12.9893C 25.2304 14.7165 24.957 16.0062 24.4101 16.8584C 23.8678 17.7106 23.0361 18.1367 21.915 18.1367C 20.8395 18.1367 20.0214 17.7015 19.4609 16.8311C 18.9004 15.9561 18.6201 14.6755 18.6201 12.9893C 18.6201 11.2484 18.8912 9.95638 19.4336 9.11328C 19.9759 8.27018 20.803 7.84863 21.915 7.84863C 22.9996 7.84863 23.8222 8.28841 24.3828 9.16797C 24.9479 10.0475 25.2304 11.3213 25.2304 12.9893ZM 19.7685 12.9893C 19.7685 14.443 19.9394 15.5026 20.2812 16.168C 20.623 16.8288 21.1676 17.1592 21.915 17.1592C 22.6715 17.1592 23.2184 16.8242 23.5556 16.1543C 23.8974 15.4798 24.0683 14.4248 24.0683 12.9893C 24.0683 11.5537 23.8974 10.5033 23.5556 9.83789C 23.2184 9.16797 22.6715 8.83301 21.915 8.83301C 21.1676 8.83301 20.623 9.16341 20.2812 9.82422C 19.9394 10.4805 19.7685 11.5355 19.7685 12.9893ZM 36.8789 12.9893C 36.8789 14.7165 36.6054 16.0062 36.0586 16.8584C 35.5162 17.7106 34.6845 18.1367 33.5634 18.1367C 32.4879 18.1367 31.6699 17.7015 31.1093 16.8311C 30.5488 15.9561 30.2685 14.6755 30.2685 12.9893C 30.2685 11.2484 30.5397 9.95638 31.082 9.11328C 31.6243 8.27018 32.4515 7.84863 33.5634 7.84863C 34.6481 7.84863 35.4707 8.28841 36.0312 9.16797C 36.5963 10.0475 36.8789 11.3213 36.8789 12.9893ZM 31.417 12.9893C 31.417 14.443 31.5879 15.5026 31.9296 16.168C 32.2714 16.8288 32.816 17.1592 33.5634 17.1592C 34.3199 17.1592 34.8668 16.8242 35.2041 16.1543C 35.5459 15.4798 35.7168 14.4248 35.7168 12.9893C 35.7168 11.5537 35.5459 10.5033 35.2041 9.83789C 34.8668 9.16797 34.3199 8.83301 33.5634 8.83301C 32.816 8.83301 32.2714 9.16341 31.9296 9.82422C 31.5879 10.4805 31.417 11.5355 31.417 12.9893ZM 44.8906 12.9893C 44.8906 14.7165 44.6171 16.0062 44.0703 16.8584C 43.528 17.7106 42.6963 18.1367 41.5752 18.1367C 40.4996 18.1367 39.6816 17.7015 39.1211 16.8311C 38.5605 15.9561 38.2802 14.6755 38.2802 12.9893C 38.2802 11.2484 38.5514 9.95638 39.0937 9.11328C 39.636 8.27018 40.4632 7.84863 41.5752 7.84863C 42.6598 7.84863 43.4824 8.28841 44.0429 9.16797C 44.608 10.0475 44.8906 11.3213 44.8906 12.9893ZM 39.4287 12.9893C 39.4287 14.443 39.5996 15.5026 39.9414 16.168C 40.2832 16.8288 40.8278 17.1592 41.5752 17.1592C 42.3317 17.1592 42.8785 16.8242 43.2158 16.1543C 43.5576 15.4798 43.7285 14.4248 43.7285 12.9893C 43.7285 11.5537 43.5576 10.5033 43.2158 9.83789C 42.8785 9.16797 42.3317 8.83301 41.5752 8.83301C 40.8278 8.83301 40.2832 9.16341 39.9414 9.82422C 39.5996 10.4805 39.4287 11.5355 39.4287 12.9893ZM 52.9023 12.9893C 52.9023 14.7165 52.6289 16.0062 52.082 16.8584C 51.5397 17.7106 50.708 18.1367 49.5869 18.1367C 48.5114 18.1367 47.6933 17.7015 47.1328 16.8311C 46.5722 15.9561 46.292 14.6755 46.292 12.9893C 46.292 11.2484 46.5631 9.95638 47.1054 9.11328C 47.6477 8.27018 48.4749 7.84863 49.5869 7.84863C 50.6715 7.84863 51.4941 8.28841 52.0546 9.16797C 52.6198 10.0475 52.9023 11.3213 52.9023 12.9893ZM 47.4404 12.9893C 47.4404 14.443 47.6113 15.5026 47.9531 16.168C 48.2949 16.8288 48.8395 17.1592 49.5869 17.1592C 50.3434 17.1592 50.8903 16.8242 51.2275 16.1543C 51.5693 15.4798 51.7402 14.4248 51.7402 12.9893C 51.7402 11.5537 51.5693 10.5033 51.2275 9.83789C 50.8903 9.16797 50.3434 8.83301 49.5869 8.83301C 48.8395 8.83301 48.2949 9.16341 47.9531 9.82422C 47.6113 10.4805 47.4404 11.5355 47.4404 12.9893ZM 59.3759 12.7637L 62.7734 12.7637L 62.7734 17.624C 62.2448 17.7926 61.707 17.9202 61.1601 18.0068C 60.6132 18.0934 59.9798 18.1367 59.2597 18.1367C 57.7467 18.1367 56.5686 17.6878 55.7255 16.79C 54.8824 15.8877 54.4609 14.6253 54.4609 13.0029C 54.4609 11.9639 54.6683 11.0547 55.083 10.2754C 55.5022 9.49154 56.1038 8.89453 56.8877 8.48438C 57.6715 8.06966 58.5898 7.8623 59.6425 7.8623C 60.7089 7.8623 61.7024 8.05827 62.623 8.4502L 62.1718 9.47559C 61.2695 9.09277 60.4013 8.90137 59.5673 8.90137C 58.3505 8.90137 57.4004 9.26367 56.7168 9.98828C 56.0332 10.7129 55.6914 11.7178 55.6914 13.0029C 55.6914 14.3519 56.0195 15.375 56.6757 16.0723C 57.3366 16.7695 58.305 17.1182 59.581 17.1182C 60.2737 17.1182 60.9505 17.0384 61.6113 16.8789L 61.6113 13.8027L 59.3759 13.8027L 59.3759 12.7637ZM 70.7509 18L 65.1796 18L 65.1796 8.00586L 70.7509 8.00586L 70.7509 9.03809L 66.3418 9.03809L 66.3418 12.2578L 70.4843 12.2578L 70.4843 13.2832L 66.3418 13.2832L 66.3418 16.9609L 70.7509 16.9609L 70.7509 18ZM 79.624 18L 78.3046 18L 75.6181 13.6045L 72.8838 18L 71.6533 18L 74.9755 12.7773L 71.8789 8.00586L 73.164 8.00586L 75.6455 11.9639L 78.1474 8.00586L 79.3847 8.00586L 76.288 12.7363L 79.624 18Z"/>
<path id="path16_fill" d="M 14.7988 18L 13.6914 18L 13.6914 10.877C 13.6914 10.2845 13.7096 9.72396 13.7461 9.19531C 13.6504 9.29102 13.5433 9.39128 13.4248 9.49609C 13.3063 9.60091 12.764 10.0452 11.7978 10.8291L 11.1963 10.0498L 13.8418 8.00586L 14.7988 8.00586L 14.7988 18ZM 22.8105 18L 21.7031 18L 21.7031 10.877C 21.7031 10.2845 21.7213 9.72396 21.7578 9.19531C 21.6621 9.29102 21.555 9.39128 21.4365 9.49609C 21.318 9.60091 20.7757 10.0452 19.8095 10.8291L 19.208 10.0498L 21.8535 8.00586L 22.8105 8.00586L 22.8105 18ZM 36.8789 12.9893C 36.8789 14.7165 36.6054 16.0062 36.0586 16.8584C 35.5162 17.7106 34.6845 18.1367 33.5634 18.1367C 32.4879 18.1367 31.6699 17.7015 31.1093 16.8311C 30.5488 15.9561 30.2685 14.6755 30.2685 12.9893C 30.2685 11.2484 30.5397 9.95638 31.082 9.11328C 31.6243 8.27018 32.4515 7.84863 33.5634 7.84863C 34.6481 7.84863 35.4707 8.28841 36.0312 9.16797C 36.5963 10.0475 36.8789 11.3213 36.8789 12.9893ZM 31.417 12.9893C 31.417 14.443 31.5879 15.5026 31.9296 16.168C 32.2714 16.8288 32.816 17.1592 33.5634 17.1592C 34.3199 17.1592 34.8668 16.8242 35.2041 16.1543C 35.5459 15.4798 35.7168 14.4248 35.7168 12.9893C 35.7168 11.5537 35.5459 10.5033 35.2041 9.83789C 34.8668 9.16797 34.3199 8.83301 33.5634 8.83301C 32.816 8.83301 32.2714 9.16341 31.9296 9.82422C 31.5879 10.4805 31.417 11.5355 31.417 12.9893ZM 44.8906 12.9893C 44.8906 14.7165 44.6171 16.0062 44.0703 16.8584C 43.528 17.7106 42.6963 18.1367 41.5752 18.1367C 40.4996 18.1367 39.6816 17.7015 39.1211 16.8311C 38.5605 15.9561 38.2802 14.6755 38.2802 12.9893C 38.2802 11.2484 38.5514 9.95638 39.0937 9.11328C 39.636 8.27018 40.4632 7.84863 41.5752 7.84863C 42.6598 7.84863 43.4824 8.28841 44.0429 9.16797C 44.608 10.0475 44.8906 11.3213 44.8906 12.9893ZM 39.4287 12.9893C 39.4287 14.443 39.5996 15.5026 39.9414 16.168C 40.2832 16.8288 40.8278 17.1592 41.5752 17.1592C 42.3317 17.1592 42.8785 16.8242 43.2158 16.1543C 43.5576 15.4798 43.7285 14.4248 43.7285 12.9893C 43.7285 11.5537 43.5576 10.5033 43.2158 9.83789C 42.8785 9.16797 42.3317 8.83301 41.5752 8.83301C 40.8278 8.83301 40.2832 9.16341 39.9414 9.82422C 39.5996 10.4805 39.4287 11.5355 39.4287 12.9893ZM 52.9023 12.9893C 52.9023 14.7165 52.6289 16.0062 52.082 16.8584C 51.5397 17.7106 50.708 18.1367 49.5869 18.1367C 48.5114 18.1367 47.6933 17.7015 47.1328 16.8311C 46.5722 15.9561 46.292 14.6755 46.292 12.9893C 46.292 11.2484 46.5631 9.95638 47.1054 9.11328C 47.6477 8.27018 48.4749 7.84863 49.5869 7.84863C 50.6715 7.84863 51.4941 8.28841 52.0546 9.16797C 52.6198 10.0475 52.9023 11.3213 52.9023 12.9893ZM 47.4404 12.9893C 47.4404 14.443 47.6113 15.5026 47.9531 16.168C 48.2949 16.8288 48.8395 17.1592 49.5869 17.1592C 50.3434 17.1592 50.8903 16.8242 51.2275 16.1543C 51.5693 15.4798 51.7402 14.4248 51.7402 12.9893C 51.7402 11.5537 51.5693 10.5033 51.2275 9.83789C 50.8903 9.16797 50.3434 8.83301 49.5869 8.83301C 48.8395 8.83301 48.2949 9.16341 47.9531 9.82422C 47.6113 10.4805 47.4404 11.5355 47.4404 12.9893ZM 59.3759 12.7637L 62.7734 12.7637L 62.7734 17.624C 62.2448 17.7926 61.707 17.9202 61.1601 18.0068C 60.6132 18.0934 59.9798 18.1367 59.2597 18.1367C 57.7467 18.1367 56.5686 17.6878 55.7255 16.79C 54.8824 15.8877 54.4609 14.6253 54.4609 13.0029C 54.4609 11.9639 54.6683 11.0547 55.083 10.2754C 55.5022 9.49154 56.1038 8.89453 56.8877 8.48438C 57.6715 8.06966 58.5898 7.8623 59.6425 7.8623C 60.7089 7.8623 61.7024 8.05827 62.623 8.4502L 62.1718 9.47559C 61.2695 9.09277 60.4013 8.90137 59.5673 8.90137C 58.3505 8.90137 57.4004 9.26367 56.7168 9.98828C 56.0332 10.7129 55.6914 11.7178 55.6914 13.0029C 55.6914 14.3519 56.0195 15.375 56.6757 16.0723C 57.3366 16.7695 58.305 17.1182 59.581 17.1182C 60.2737 17.1182 60.9505 17.0384 61.6113 16.8789L 61.6113 13.8027L 59.3759 13.8027L 59.3759 12.7637ZM 70.7509 18L 65.1796 18L 65.1796 8.00586L 70.7509 8.00586L 70.7509 9.03809L 66.3418 9.03809L 66.3418 12.2578L 70.4843 12.2578L 70.4843 13.2832L 66.3418 13.2832L 66.3418 16.9609L 70.7509 16.9609L 70.7509 18ZM 79.624 18L 78.3046 18L 75.6181 13.6045L 72.8838 18L 71.6533 18L 74.9755 12.7773L 71.8789 8.00586L 73.164 8.00586L 75.6455 11.9639L 78.1474 8.00586L 79.3847 8.00586L 76.288 12.7363L 79.624 18Z"/>
<path id="path17_fill" d="M 14.7988 18L 13.6914 18L 13.6914 10.877C 13.6914 10.2845 13.7096 9.72396 13.7461 9.19531C 13.6504 9.29102 13.5433 9.39128 13.4248 9.49609C 13.3063 9.60091 12.764 10.0452 11.7978 10.8291L 11.1963 10.0498L 13.8418 8.00586L 14.7988 8.00586L 14.7988 18ZM 25.1757 18L 18.6064 18L 18.6064 17.0225L 21.2382 14.377C 22.0403 13.5658 22.569 12.987 22.8242 12.6406C 23.0794 12.2943 23.2708 11.957 23.3984 11.6289C 23.526 11.3008 23.5898 10.9476 23.5898 10.5693C 23.5898 10.0361 23.428 9.61458 23.1045 9.30469C 22.7809 8.99023 22.332 8.83301 21.7578 8.83301C 21.3431 8.83301 20.9489 8.90137 20.5752 9.03809C 20.206 9.1748 19.7936 9.42318 19.3379 9.7832L 18.7363 9.01074C 19.6569 8.24512 20.6595 7.8623 21.7441 7.8623C 22.6829 7.8623 23.4189 8.10384 23.9521 8.58691C 24.4853 9.06543 24.7519 9.71029 24.7519 10.5215C 24.7519 11.1549 24.5742 11.7816 24.2187 12.4014C 23.8632 13.0212 23.1979 13.805 22.2226 14.7529L 20.0351 16.8926L 20.0351 16.9473L 25.1757 16.9473L 25.1757 18ZM 36.8789 12.9893C 36.8789 14.7165 36.6054 16.0062 36.0586 16.8584C 35.5162 17.7106 34.6845 18.1367 33.5634 18.1367C 32.4879 18.1367 31.6699 17.7015 31.1093 16.8311C 30.5488 15.9561 30.2685 14.6755 30.2685 12.9893C 30.2685 11.2484 30.5397 9.95638 31.082 9.11328C 31.6243 8.27018 32.4515 7.84863 33.5634 7.84863C 34.6481 7.84863 35.4707 8.28841 36.0312 9.16797C 36.5963 10.0475 36.8789 11.3213 36.8789 12.9893ZM 31.417 12.9893C 31.417 14.443 31.5879 15.5026 31.9296 16.168C 32.2714 16.8288 32.816 17.1592 33.5634 17.1592C 34.3199 17.1592 34.8668 16.8242 35.2041 16.1543C 35.5459 15.4798 35.7168 14.4248 35.7168 12.9893C 35.7168 11.5537 35.5459 10.5033 35.2041 9.83789C 34.8668 9.16797 34.3199 8.83301 33.5634 8.83301C 32.816 8.83301 32.2714 9.16341 31.9296 9.82422C 31.5879 10.4805 31.417 11.5355 31.417 12.9893ZM 44.8906 12.9893C 44.8906 14.7165 44.6171 16.0062 44.0703 16.8584C 43.528 17.7106 42.6963 18.1367 41.5752 18.1367C 40.4996 18.1367 39.6816 17.7015 39.1211 16.8311C 38.5605 15.9561 38.2802 14.6755 38.2802 12.9893C 38.2802 11.2484 38.5514 9.95638 39.0937 9.11328C 39.636 8.27018 40.4632 7.84863 41.5752 7.84863C 42.6598 7.84863 43.4824 8.28841 44.0429 9.16797C 44.608 10.0475 44.8906 11.3213 44.8906 12.9893ZM 39.4287 12.9893C 39.4287 14.443 39.5996 15.5026 39.9414 16.168C 40.2832 16.8288 40.8278 17.1592 41.5752 17.1592C 42.3317 17.1592 42.8785 16.8242 43.2158 16.1543C 43.5576 15.4798 43.7285 14.4248 43.7285 12.9893C 43.7285 11.5537 43.5576 10.5033 43.2158 9.83789C 42.8785 9.16797 42.3317 8.83301 41.5752 8.83301C 40.8278 8.83301 40.2832 9.16341 39.9414 9.82422C 39.5996 10.4805 39.4287 11.5355 39.4287 12.9893ZM 52.9023 12.9893C 52.9023 14.7165 52.6289 16.0062 52.082 16.8584C 51.5397 17.7106 50.708 18.1367 49.5869 18.1367C 48.5114 18.1367 47.6933 17.7015 47.1328 16.8311C 46.5722 15.9561 46.292 14.6755 46.292 12.9893C 46.292 11.2484 46.5631 9.95638 47.1054 9.11328C 47.6477 8.27018 48.4749 7.84863 49.5869 7.84863C 50.6715 7.84863 51.4941 8.28841 52.0546 9.16797C 52.6198 10.0475 52.9023 11.3213 52.9023 12.9893ZM 47.4404 12.9893C 47.4404 14.443 47.6113 15.5026 47.9531 16.168C 48.2949 16.8288 48.8395 17.1592 49.5869 17.1592C 50.3434 17.1592 50.8903 16.8242 51.2275 16.1543C 51.5693 15.4798 51.7402 14.4248 51.7402 12.9893C 51.7402 11.5537 51.5693 10.5033 51.2275 9.83789C 50.8903 9.16797 50.3434 8.83301 49.5869 8.83301C 48.8395 8.83301 48.2949 9.16341 47.9531 9.82422C 47.6113 10.4805 47.4404 11.5355 47.4404 12.9893ZM 59.3759 12.7637L 62.7734 12.7637L 62.7734 17.624C 62.2448 17.7926 61.707 17.9202 61.1601 18.0068C 60.6132 18.0934 59.9798 18.1367 59.2597 18.1367C 57.7467 18.1367 56.5686 17.6878 55.7255 16.79C 54.8824 15.8877 54.4609 14.6253 54.4609 13.0029C 54.4609 11.9639 54.6683 11.0547 55.083 10.2754C 55.5022 9.49154 56.1038 8.89453 56.8877 8.48438C 57.6715 8.06966 58.5898 7.8623 59.6425 7.8623C 60.7089 7.8623 61.7024 8.05827 62.623 8.4502L 62.1718 9.47559C 61.2695 9.09277 60.4013 8.90137 59.5673 8.90137C 58.3505 8.90137 57.4004 9.26367 56.7168 9.98828C 56.0332 10.7129 55.6914 11.7178 55.6914 13.0029C 55.6914 14.3519 56.0195 15.375 56.6757 16.0723C 57.3366 16.7695 58.305 17.1182 59.581 17.1182C 60.2737 17.1182 60.9505 17.0384 61.6113 16.8789L 61.6113 13.8027L 59.3759 13.8027L 59.3759 12.7637ZM 70.7509 18L 65.1796 18L 65.1796 8.00586L 70.7509 8.00586L 70.7509 9.03809L 66.3418 9.03809L 66.3418 12.2578L 70.4843 12.2578L 70.4843 13.2832L 66.3418 13.2832L 66.3418 16.9609L 70.7509 16.9609L 70.7509 18ZM 79.624 18L 78.3046 18L 75.6181 13.6045L 72.8838 18L 71.6533 18L 74.9755 12.7773L 71.8789 8.00586L 73.164 8.00586L 75.6455 11.9639L 78.1474 8.00586L 79.3847 8.00586L 76.288 12.7363L 79.624 18Z"/>
<path id="path18_fill" d="M 14.7988 18L 13.6914 18L 13.6914 10.877C 13.6914 10.2845 13.7096 9.72396 13.7461 9.19531C 13.6504 9.29102 13.5433 9.39128 13.4248 9.49609C 13.3063 9.60091 12.764 10.0452 11.7978 10.8291L 11.1963 10.0498L 13.8418 8.00586L 14.7988 8.00586L 14.7988 18ZM 24.7998 10.3574C 24.7998 10.9954 24.6198 11.5173 24.2597 11.9229C 23.9043 12.3285 23.3984 12.5996 22.7421 12.7363L 22.7421 12.791C 23.5442 12.8913 24.139 13.1465 24.5263 13.5566C 24.9137 13.9668 25.1074 14.5046 25.1074 15.1699C 25.1074 16.1224 24.777 16.8561 24.1162 17.3711C 23.4554 17.8815 22.5166 18.1367 21.2998 18.1367C 20.7711 18.1367 20.2858 18.0957 19.8437 18.0137C 19.4062 17.9362 18.9801 17.7972 18.5654 17.5967L 18.5654 16.5166C 18.9983 16.7308 19.4586 16.8949 19.9463 17.0088C 20.4384 17.1182 20.9033 17.1729 21.3408 17.1729C 23.068 17.1729 23.9316 16.4961 23.9316 15.1426C 23.9316 13.9303 22.9791 13.3242 21.0742 13.3242L 20.0898 13.3242L 20.0898 12.3467L 21.0879 12.3467C 21.8671 12.3467 22.4847 12.1758 22.9404 11.834C 23.3961 11.4876 23.624 11.0091 23.624 10.3984C 23.624 9.91081 23.4554 9.52799 23.1181 9.25C 22.7854 8.97201 22.332 8.83301 21.7578 8.83301C 21.3203 8.83301 20.9078 8.89225 20.5205 9.01074C 20.1331 9.12923 19.691 9.34798 19.1943 9.66699L 18.6201 8.90137C 19.0302 8.5778 19.5019 8.32487 20.0351 8.14258C 20.5729 7.95573 21.138 7.8623 21.7304 7.8623C 22.7011 7.8623 23.4554 8.08561 23.9931 8.53223C 24.5309 8.97428 24.7998 9.58268 24.7998 10.3574ZM 36.8789 12.9893C 36.8789 14.7165 36.6054 16.0062 36.0586 16.8584C 35.5162 17.7106 34.6845 18.1367 33.5634 18.1367C 32.4879 18.1367 31.6699 17.7015 31.1093 16.8311C 30.5488 15.9561 30.2685 14.6755 30.2685 12.9893C 30.2685 11.2484 30.5397 9.95638 31.082 9.11328C 31.6243 8.27018 32.4515 7.84863 33.5634 7.84863C 34.6481 7.84863 35.4707 8.28841 36.0312 9.16797C 36.5963 10.0475 36.8789 11.3213 36.8789 12.9893ZM 31.417 12.9893C 31.417 14.443 31.5879 15.5026 31.9296 16.168C 32.2714 16.8288 32.816 17.1592 33.5634 17.1592C 34.3199 17.1592 34.8668 16.8242 35.2041 16.1543C 35.5459 15.4798 35.7168 14.4248 35.7168 12.9893C 35.7168 11.5537 35.5459 10.5033 35.2041 9.83789C 34.8668 9.16797 34.3199 8.83301 33.5634 8.83301C 32.816 8.83301 32.2714 9.16341 31.9296 9.82422C 31.5879 10.4805 31.417 11.5355 31.417 12.9893ZM 44.8906 12.9893C 44.8906 14.7165 44.6171 16.0062 44.0703 16.8584C 43.528 17.7106 42.6963 18.1367 41.5752 18.1367C 40.4996 18.1367 39.6816 17.7015 39.1211 16.8311C 38.5605 15.9561 38.2802 14.6755 38.2802 12.9893C 38.2802 11.2484 38.5514 9.95638 39.0937 9.11328C 39.636 8.27018 40.4632 7.84863 41.5752 7.84863C 42.6598 7.84863 43.4824 8.28841 44.0429 9.16797C 44.608 10.0475 44.8906 11.3213 44.8906 12.9893ZM 39.4287 12.9893C 39.4287 14.443 39.5996 15.5026 39.9414 16.168C 40.2832 16.8288 40.8278 17.1592 41.5752 17.1592C 42.3317 17.1592 42.8785 16.8242 43.2158 16.1543C 43.5576 15.4798 43.7285 14.4248 43.7285 12.9893C 43.7285 11.5537 43.5576 10.5033 43.2158 9.83789C 42.8785 9.16797 42.3317 8.83301 41.5752 8.83301C 40.8278 8.83301 40.2832 9.16341 39.9414 9.82422C 39.5996 10.4805 39.4287 11.5355 39.4287 12.9893ZM 52.9023 12.9893C 52.9023 14.7165 52.6289 16.0062 52.082 16.8584C 51.5397 17.7106 50.708 18.1367 49.5869 18.1367C 48.5114 18.1367 47.6933 17.7015 47.1328 16.8311C 46.5722 15.9561 46.292 14.6755 46.292 12.9893C 46.292 11.2484 46.5631 9.95638 47.1054 9.11328C 47.6477 8.27018 48.4749 7.84863 49.5869 7.84863C 50.6715 7.84863 51.4941 8.28841 52.0546 9.16797C 52.6198 10.0475 52.9023 11.3213 52.9023 12.9893ZM 47.4404 12.9893C 47.4404 14.443 47.6113 15.5026 47.9531 16.168C 48.2949 16.8288 48.8395 17.1592 49.5869 17.1592C 50.3434 17.1592 50.8903 16.8242 51.2275 16.1543C 51.5693 15.4798 51.7402 14.4248 51.7402 12.9893C 51.7402 11.5537 51.5693 10.5033 51.2275 9.83789C 50.8903 9.16797 50.3434 8.83301 49.5869 8.83301C 48.8395 8.83301 48.2949 9.16341 47.9531 9.82422C 47.6113 10.4805 47.4404 11.5355 47.4404 12.9893ZM 59.3759 12.7637L 62.7734 12.7637L 62.7734 17.624C 62.2448 17.7926 61.707 17.9202 61.1601 18.0068C 60.6132 18.0934 59.9798 18.1367 59.2597 18.1367C 57.7467 18.1367 56.5686 17.6878 55.7255 16.79C 54.8824 15.8877 54.4609 14.6253 54.4609 13.0029C 54.4609 11.9639 54.6683 11.0547 55.083 10.2754C 55.5022 9.49154 56.1038 8.89453 56.8877 8.48438C 57.6715 8.06966 58.5898 7.8623 59.6425 7.8623C 60.7089 7.8623 61.7024 8.05827 62.623 8.4502L 62.1718 9.47559C 61.2695 9.09277 60.4013 8.90137 59.5673 8.90137C 58.3505 8.90137 57.4004 9.26367 56.7168 9.98828C 56.0332 10.7129 55.6914 11.7178 55.6914 13.0029C 55.6914 14.3519 56.0195 15.375 56.6757 16.0723C 57.3366 16.7695 58.305 17.1182 59.581 17.1182C 60.2737 17.1182 60.9505 17.0384 61.6113 16.8789L 61.6113 13.8027L 59.3759 13.8027L 59.3759 12.7637ZM 70.7509 18L 65.1796 18L 65.1796 8.00586L 70.7509 8.00586L 70.7509 9.03809L 66.3418 9.03809L 66.3418 12.2578L 70.4843 12.2578L 70.4843 13.2832L 66.3418 13.2832L 66.3418 16.9609L 70.7509 16.9609L 70.7509 18ZM 79.624 18L 78.3046 18L 75.6181 13.6045L 72.8838 18L 71.6533 18L 74.9755 12.7773L 71.8789 8.00586L 73.164 8.00586L 75.6455 11.9639L 78.1474 8.00586L 79.3847 8.00586L 76.288 12.7363L 79.624 18Z"/>
<path id="path19_fill" d="M 14.7988 18L 13.6914 18L 13.6914 10.877C 13.6914 10.2845 13.7096 9.72396 13.7461 9.19531C 13.6504 9.29102 13.5433 9.39128 13.4248 9.49609C 13.3063 9.60091 12.764 10.0452 11.7978 10.8291L 11.1963 10.0498L 13.8418 8.00586L 14.7988 8.00586L 14.7988 18ZM 25.6474 15.7031L 24.164 15.7031L 24.164 18L 23.0771 18L 23.0771 15.7031L 18.2168 15.7031L 18.2168 14.7119L 22.9609 7.95117L 24.164 7.95117L 24.164 14.6709L 25.6474 14.6709L 25.6474 15.7031ZM 23.0771 14.6709L 23.0771 11.3486C 23.0771 10.6969 23.0999 9.96094 23.1455 9.14062L 23.0908 9.14062C 22.872 9.57812 22.667 9.94043 22.4755 10.2275L 19.3515 14.6709L 23.0771 14.6709ZM 36.8789 12.9893C 36.8789 14.7165 36.6054 16.0062 36.0586 16.8584C 35.5162 17.7106 34.6845 18.1367 33.5634 18.1367C 32.4879 18.1367 31.6699 17.7015 31.1093 16.8311C 30.5488 15.9561 30.2685 14.6755 30.2685 12.9893C 30.2685 11.2484 30.5397 9.95638 31.082 9.11328C 31.6243 8.27018 32.4515 7.84863 33.5634 7.84863C 34.6481 7.84863 35.4707 8.28841 36.0312 9.16797C 36.5963 10.0475 36.8789 11.3213 36.8789 12.9893ZM 31.417 12.9893C 31.417 14.443 31.5879 15.5026 31.9296 16.168C 32.2714 16.8288 32.816 17.1592 33.5634 17.1592C 34.3199 17.1592 34.8668 16.8242 35.2041 16.1543C 35.5459 15.4798 35.7168 14.4248 35.7168 12.9893C 35.7168 11.5537 35.5459 10.5033 35.2041 9.83789C 34.8668 9.16797 34.3199 8.83301 33.5634 8.83301C 32.816 8.83301 32.2714 9.16341 31.9296 9.82422C 31.5879 10.4805 31.417 11.5355 31.417 12.9893ZM 44.8906 12.9893C 44.8906 14.7165 44.6171 16.0062 44.0703 16.8584C 43.528 17.7106 42.6963 18.1367 41.5752 18.1367C 40.4996 18.1367 39.6816 17.7015 39.1211 16.8311C 38.5605 15.9561 38.2802 14.6755 38.2802 12.9893C 38.2802 11.2484 38.5514 9.95638 39.0937 9.11328C 39.636 8.27018 40.4632 7.84863 41.5752 7.84863C 42.6598 7.84863 43.4824 8.28841 44.0429 9.16797C 44.608 10.0475 44.8906 11.3213 44.8906 12.9893ZM 39.4287 12.9893C 39.4287 14.443 39.5996 15.5026 39.9414 16.168C 40.2832 16.8288 40.8278 17.1592 41.5752 17.1592C 42.3317 17.1592 42.8785 16.8242 43.2158 16.1543C 43.5576 15.4798 43.7285 14.4248 43.7285 12.9893C 43.7285 11.5537 43.5576 10.5033 43.2158 9.83789C 42.8785 9.16797 42.3317 8.83301 41.5752 8.83301C 40.8278 8.83301 40.2832 9.16341 39.9414 9.82422C 39.5996 10.4805 39.4287 11.5355 39.4287 12.9893ZM 52.9023 12.9893C 52.9023 14.7165 52.6289 16.0062 52.082 16.8584C 51.5397 17.7106 50.708 18.1367 49.5869 18.1367C 48.5114 18.1367 47.6933 17.7015 47.1328 16.8311C 46.5722 15.9561 46.292 14.6755 46.292 12.9893C 46.292 11.2484 46.5631 9.95638 47.1054 9.11328C 47.6477 8.27018 48.4749 7.84863 49.5869 7.84863C 50.6715 7.84863 51.4941 8.28841 52.0546 9.16797C 52.6198 10.0475 52.9023 11.3213 52.9023 12.9893ZM 47.4404 12.9893C 47.4404 14.443 47.6113 15.5026 47.9531 16.168C 48.2949 16.8288 48.8395 17.1592 49.5869 17.1592C 50.3434 17.1592 50.8903 16.8242 51.2275 16.1543C 51.5693 15.4798 51.7402 14.4248 51.7402 12.9893C 51.7402 11.5537 51.5693 10.5033 51.2275 9.83789C 50.8903 9.16797 50.3434 8.83301 49.5869 8.83301C 48.8395 8.83301 48.2949 9.16341 47.9531 9.82422C 47.6113 10.4805 47.4404 11.5355 47.4404 12.9893ZM 59.3759 12.7637L 62.7734 12.7637L 62.7734 17.624C 62.2448 17.7926 61.707 17.9202 61.1601 18.0068C 60.6132 18.0934 59.9798 18.1367 59.2597 18.1367C 57.7467 18.1367 56.5686 17.6878 55.7255 16.79C 54.8824 15.8877 54.4609 14.6253 54.4609 13.0029C 54.4609 11.9639 54.6683 11.0547 55.083 10.2754C 55.5022 9.49154 56.1038 8.89453 56.8877 8.48438C 57.6715 8.06966 58.5898 7.8623 59.6425 7.8623C 60.7089 7.8623 61.7024 8.05827 62.623 8.4502L 62.1718 9.47559C 61.2695 9.09277 60.4013 8.90137 59.5673 8.90137C 58.3505 8.90137 57.4004 9.26367 56.7168 9.98828C 56.0332 10.7129 55.6914 11.7178 55.6914 13.0029C 55.6914 14.3519 56.0195 15.375 56.6757 16.0723C 57.3366 16.7695 58.305 17.1182 59.581 17.1182C 60.2737 17.1182 60.9505 17.0384 61.6113 16.8789L 61.6113 13.8027L 59.3759 13.8027L 59.3759 12.7637ZM 70.7509 18L 65.1796 18L 65.1796 8.00586L 70.7509 8.00586L 70.7509 9.03809L 66.3418 9.03809L 66.3418 12.2578L 70.4843 12.2578L 70.4843 13.2832L 66.3418 13.2832L 66.3418 16.9609L 70.7509 16.9609L 70.7509 18ZM 79.624 18L 78.3046 18L 75.6181 13.6045L 72.8838 18L 71.6533 18L 74.9755 12.7773L 71.8789 8.00586L 73.164 8.00586L 75.6455 11.9639L 78.1474 8.00586L 79.3847 8.00586L 76.288 12.7363L 79.624 18Z"/>
<path id="path20_fill" d="M 14.7988 18L 13.6914 18L 13.6914 10.877C 13.6914 10.2845 13.7096 9.72396 13.7461 9.19531C 13.6504 9.29102 13.5433 9.39128 13.4248 9.49609C 13.3063 9.60091 12.764 10.0452 11.7978 10.8291L 11.1963 10.0498L 13.8418 8.00586L 14.7988 8.00586L 14.7988 18ZM 21.7304 11.8955C 22.7832 11.8955 23.6103 12.1576 24.2119 12.6816C 24.818 13.2012 25.1211 13.9144 25.1211 14.8213C 25.1211 15.8558 24.7907 16.667 24.1298 17.2549C 23.4736 17.8428 22.5667 18.1367 21.4091 18.1367C 20.2835 18.1367 19.4244 17.9567 18.832 17.5967L 18.832 16.5029C 19.151 16.708 19.5475 16.8698 20.0214 16.9883C 20.4954 17.1022 20.9625 17.1592 21.4228 17.1592C 22.2249 17.1592 22.847 16.9701 23.289 16.5918C 23.7356 16.2135 23.9589 15.6667 23.9589 14.9512C 23.9589 13.5566 23.1045 12.8594 21.3955 12.8594C 20.9625 12.8594 20.3838 12.9255 19.6591 13.0576L 19.0713 12.6816L 19.4472 8.00586L 24.417 8.00586L 24.417 9.05176L 20.4179 9.05176L 20.165 12.0527C 20.6891 11.9479 21.2109 11.8955 21.7304 11.8955ZM 36.8789 12.9893C 36.8789 14.7165 36.6054 16.0062 36.0586 16.8584C 35.5162 17.7106 34.6845 18.1367 33.5634 18.1367C 32.4879 18.1367 31.6699 17.7015 31.1093 16.8311C 30.5488 15.9561 30.2685 14.6755 30.2685 12.9893C 30.2685 11.2484 30.5397 9.95638 31.082 9.11328C 31.6243 8.27018 32.4515 7.84863 33.5634 7.84863C 34.6481 7.84863 35.4707 8.28841 36.0312 9.16797C 36.5963 10.0475 36.8789 11.3213 36.8789 12.9893ZM 31.417 12.9893C 31.417 14.443 31.5879 15.5026 31.9296 16.168C 32.2714 16.8288 32.816 17.1592 33.5634 17.1592C 34.3199 17.1592 34.8668 16.8242 35.2041 16.1543C 35.5459 15.4798 35.7168 14.4248 35.7168 12.9893C 35.7168 11.5537 35.5459 10.5033 35.2041 9.83789C 34.8668 9.16797 34.3199 8.83301 33.5634 8.83301C 32.816 8.83301 32.2714 9.16341 31.9296 9.82422C 31.5879 10.4805 31.417 11.5355 31.417 12.9893ZM 44.8906 12.9893C 44.8906 14.7165 44.6171 16.0062 44.0703 16.8584C 43.528 17.7106 42.6963 18.1367 41.5752 18.1367C 40.4996 18.1367 39.6816 17.7015 39.1211 16.8311C 38.5605 15.9561 38.2802 14.6755 38.2802 12.9893C 38.2802 11.2484 38.5514 9.95638 39.0937 9.11328C 39.636 8.27018 40.4632 7.84863 41.5752 7.84863C 42.6598 7.84863 43.4824 8.28841 44.0429 9.16797C 44.608 10.0475 44.8906 11.3213 44.8906 12.9893ZM 39.4287 12.9893C 39.4287 14.443 39.5996 15.5026 39.9414 16.168C 40.2832 16.8288 40.8278 17.1592 41.5752 17.1592C 42.3317 17.1592 42.8785 16.8242 43.2158 16.1543C 43.5576 15.4798 43.7285 14.4248 43.7285 12.9893C 43.7285 11.5537 43.5576 10.5033 43.2158 9.83789C 42.8785 9.16797 42.3317 8.83301 41.5752 8.83301C 40.8278 8.83301 40.2832 9.16341 39.9414 9.82422C 39.5996 10.4805 39.4287 11.5355 39.4287 12.9893ZM 52.9023 12.9893C 52.9023 14.7165 52.6289 16.0062 52.082 16.8584C 51.5397 17.7106 50.708 18.1367 49.5869 18.1367C 48.5114 18.1367 47.6933 17.7015 47.1328 16.8311C 46.5722 15.9561 46.292 14.6755 46.292 12.9893C 46.292 11.2484 46.5631 9.95638 47.1054 9.11328C 47.6477 8.27018 48.4749 7.84863 49.5869 7.84863C 50.6715 7.84863 51.4941 8.28841 52.0546 9.16797C 52.6198 10.0475 52.9023 11.3213 52.9023 12.9893ZM 47.4404 12.9893C 47.4404 14.443 47.6113 15.5026 47.9531 16.168C 48.2949 16.8288 48.8395 17.1592 49.5869 17.1592C 50.3434 17.1592 50.8903 16.8242 51.2275 16.1543C 51.5693 15.4798 51.7402 14.4248 51.7402 12.9893C 51.7402 11.5537 51.5693 10.5033 51.2275 9.83789C 50.8903 9.16797 50.3434 8.83301 49.5869 8.83301C 48.8395 8.83301 48.2949 9.16341 47.9531 9.82422C 47.6113 10.4805 47.4404 11.5355 47.4404 12.9893ZM 59.3759 12.7637L 62.7734 12.7637L 62.7734 17.624C 62.2448 17.7926 61.707 17.9202 61.1601 18.0068C 60.6132 18.0934 59.9798 18.1367 59.2597 18.1367C 57.7467 18.1367 56.5686 17.6878 55.7255 16.79C 54.8824 15.8877 54.4609 14.6253 54.4609 13.0029C 54.4609 11.9639 54.6683 11.0547 55.083 10.2754C 55.5022 9.49154 56.1038 8.89453 56.8877 8.48438C 57.6715 8.06966 58.5898 7.8623 59.6425 7.8623C 60.7089 7.8623 61.7024 8.05827 62.623 8.4502L 62.1718 9.47559C 61.2695 9.09277 60.4013 8.90137 59.5673 8.90137C 58.3505 8.90137 57.4004 9.26367 56.7168 9.98828C 56.0332 10.7129 55.6914 11.7178 55.6914 13.0029C 55.6914 14.3519 56.0195 15.375 56.6757 16.0723C 57.3366 16.7695 58.305 17.1182 59.581 17.1182C 60.2737 17.1182 60.9505 17.0384 61.6113 16.8789L 61.6113 13.8027L 59.3759 13.8027L 59.3759 12.7637ZM 70.7509 18L 65.1796 18L 65.1796 8.00586L 70.7509 8.00586L 70.7509 9.03809L 66.3418 9.03809L 66.3418 12.2578L 70.4843 12.2578L 70.4843 13.2832L 66.3418 13.2832L 66.3418 16.9609L 70.7509 16.9609L 70.7509 18ZM 79.624 18L 78.3046 18L 75.6181 13.6045L 72.8838 18L 71.6533 18L 74.9755 12.7773L 71.8789 8.00586L 73.164 8.00586L 75.6455 11.9639L 78.1474 8.00586L 79.3847 8.00586L 76.288 12.7363L 79.624 18Z"/>
<path id="path21_fill" d="M 14.7988 18L 13.6914 18L 13.6914 10.877C 13.6914 10.2845 13.7096 9.72396 13.7461 9.19531C 13.6504 9.29102 13.5433 9.39128 13.4248 9.49609C 13.3063 9.60091 12.764 10.0452 11.7978 10.8291L 11.1963 10.0498L 13.8418 8.00586L 14.7988 8.00586L 14.7988 18ZM 18.7226 13.7275C 18.7226 11.7633 19.1032 10.2959 19.8642 9.3252C 20.6298 8.34994 21.7601 7.8623 23.2548 7.8623C 23.7698 7.8623 24.1754 7.9056 24.4716 7.99219L 24.4716 8.96973C 24.1207 8.85579 23.7197 8.79883 23.2685 8.79883C 22.1976 8.79883 21.3795 9.13379 20.8144 9.80371C 20.2493 10.4691 19.9394 11.5173 19.8847 12.9482L 19.9668 12.9482C 20.4681 12.1644 21.261 11.7725 22.3457 11.7725C 23.2435 11.7725 23.9498 12.0436 24.4648 12.5859C 24.9843 13.1283 25.2441 13.8643 25.2441 14.7939C 25.2441 15.833 24.9593 16.651 24.3896 17.248C 23.8245 17.8405 23.0589 18.1367 22.0927 18.1367C 21.0582 18.1367 20.2379 17.7493 19.6318 16.9746C 19.0257 16.1953 18.7226 15.113 18.7226 13.7275ZM 22.0791 17.1729C 22.7262 17.1729 23.2275 16.9701 23.583 16.5645C 23.943 16.1543 24.123 15.5641 24.123 14.7939C 24.123 14.1331 23.9567 13.6136 23.624 13.2354C 23.2913 12.8571 22.7946 12.668 22.1338 12.668C 21.7236 12.668 21.3476 12.7523 21.0058 12.9209C 20.664 13.0895 20.3906 13.3219 20.1855 13.6182C 19.985 13.9144 19.8847 14.222 19.8847 14.541C 19.8847 15.0104 19.9759 15.4479 20.1582 15.8535C 20.3405 16.2591 20.5979 16.5804 20.9306 16.8174C 21.2679 17.0544 21.6507 17.1729 22.0791 17.1729ZM 36.8789 12.9893C 36.8789 14.7165 36.6054 16.0062 36.0586 16.8584C 35.5162 17.7106 34.6845 18.1367 33.5634 18.1367C 32.4879 18.1367 31.6699 17.7015 31.1093 16.8311C 30.5488 15.9561 30.2685 14.6755 30.2685 12.9893C 30.2685 11.2484 30.5397 9.95638 31.082 9.11328C 31.6243 8.27018 32.4515 7.84863 33.5634 7.84863C 34.6481 7.84863 35.4707 8.28841 36.0312 9.16797C 36.5963 10.0475 36.8789 11.3213 36.8789 12.9893ZM 31.417 12.9893C 31.417 14.443 31.5879 15.5026 31.9296 16.168C 32.2714 16.8288 32.816 17.1592 33.5634 17.1592C 34.3199 17.1592 34.8668 16.8242 35.2041 16.1543C 35.5459 15.4798 35.7168 14.4248 35.7168 12.9893C 35.7168 11.5537 35.5459 10.5033 35.2041 9.83789C 34.8668 9.16797 34.3199 8.83301 33.5634 8.83301C 32.816 8.83301 32.2714 9.16341 31.9296 9.82422C 31.5879 10.4805 31.417 11.5355 31.417 12.9893ZM 44.8906 12.9893C 44.8906 14.7165 44.6171 16.0062 44.0703 16.8584C 43.528 17.7106 42.6963 18.1367 41.5752 18.1367C 40.4996 18.1367 39.6816 17.7015 39.1211 16.8311C 38.5605 15.9561 38.2802 14.6755 38.2802 12.9893C 38.2802 11.2484 38.5514 9.95638 39.0937 9.11328C 39.636 8.27018 40.4632 7.84863 41.5752 7.84863C 42.6598 7.84863 43.4824 8.28841 44.0429 9.16797C 44.608 10.0475 44.8906 11.3213 44.8906 12.9893ZM 39.4287 12.9893C 39.4287 14.443 39.5996 15.5026 39.9414 16.168C 40.2832 16.8288 40.8278 17.1592 41.5752 17.1592C 42.3317 17.1592 42.8785 16.8242 43.2158 16.1543C 43.5576 15.4798 43.7285 14.4248 43.7285 12.9893C 43.7285 11.5537 43.5576 10.5033 43.2158 9.83789C 42.8785 9.16797 42.3317 8.83301 41.5752 8.83301C 40.8278 8.83301 40.2832 9.16341 39.9414 9.82422C 39.5996 10.4805 39.4287 11.5355 39.4287 12.9893ZM 52.9023 12.9893C 52.9023 14.7165 52.6289 16.0062 52.082 16.8584C 51.5397 17.7106 50.708 18.1367 49.5869 18.1367C 48.5114 18.1367 47.6933 17.7015 47.1328 16.8311C 46.5722 15.9561 46.292 14.6755 46.292 12.9893C 46.292 11.2484 46.5631 9.95638 47.1054 9.11328C 47.6477 8.27018 48.4749 7.84863 49.5869 7.84863C 50.6715 7.84863 51.4941 8.28841 52.0546 9.16797C 52.6198 10.0475 52.9023 11.3213 52.9023 12.9893ZM 47.4404 12.9893C 47.4404 14.443 47.6113 15.5026 47.9531 16.168C 48.2949 16.8288 48.8395 17.1592 49.5869 17.1592C 50.3434 17.1592 50.8903 16.8242 51.2275 16.1543C 51.5693 15.4798 51.7402 14.4248 51.7402 12.9893C 51.7402 11.5537 51.5693 10.5033 51.2275 9.83789C 50.8903 9.16797 50.3434 8.83301 49.5869 8.83301C 48.8395 8.83301 48.2949 9.16341 47.9531 9.82422C 47.6113 10.4805 47.4404 11.5355 47.4404 12.9893ZM 59.3759 12.7637L 62.7734 12.7637L 62.7734 17.624C 62.2448 17.7926 61.707 17.9202 61.1601 18.0068C 60.6132 18.0934 59.9798 18.1367 59.2597 18.1367C 57.7467 18.1367 56.5686 17.6878 55.7255 16.79C 54.8824 15.8877 54.4609 14.6253 54.4609 13.0029C 54.4609 11.9639 54.6683 11.0547 55.083 10.2754C 55.5022 9.49154 56.1038 8.89453 56.8877 8.48438C 57.6715 8.06966 58.5898 7.8623 59.6425 7.8623C 60.7089 7.8623 61.7024 8.05827 62.623 8.4502L 62.1718 9.47559C 61.2695 9.09277 60.4013 8.90137 59.5673 8.90137C 58.3505 8.90137 57.4004 9.26367 56.7168 9.98828C 56.0332 10.7129 55.6914 11.7178 55.6914 13.0029C 55.6914 14.3519 56.0195 15.375 56.6757 16.0723C 57.3366 16.7695 58.305 17.1182 59.581 17.1182C 60.2737 17.1182 60.9505 17.0384 61.6113 16.8789L 61.6113 13.8027L 59.3759 13.8027L 59.3759 12.7637ZM 70.7509 18L 65.1796 18L 65.1796 8.00586L 70.7509 8.00586L 70.7509 9.03809L 66.3418 9.03809L 66.3418 12.2578L 70.4843 12.2578L 70.4843 13.2832L 66.3418 13.2832L 66.3418 16.9609L 70.7509 16.9609L 70.7509 18ZM 79.624 18L 78.3046 18L 75.6181 13.6045L 72.8838 18L 71.6533 18L 74.9755 12.7773L 71.8789 8.00586L 73.164 8.00586L 75.6455 11.9639L 78.1474 8.00586L 79.3847 8.00586L 76.288 12.7363L 79.624 18Z"/>
<path id="path22_fill" d="M 128.523 24L 128.523 11.1504L 130.018 11.1504L 130.018 24L 128.523 24ZM 137.181 24.1758C 135.786 24.1758 134.705 23.748 133.938 22.8926C 133.176 22.0312 132.795 20.8154 132.795 19.2451C 132.795 17.6338 133.182 16.3887 133.955 15.5098C 134.734 14.6309 135.842 14.1914 137.277 14.1914C 137.74 14.1914 138.203 14.2412 138.666 14.3408C 139.129 14.4404 139.492 14.5576 139.756 14.6924L 139.308 15.9316C 138.985 15.8027 138.634 15.6973 138.253 15.6152C 137.872 15.5273 137.535 15.4834 137.242 15.4834C 135.285 15.4834 134.307 16.7314 134.307 19.2275C 134.307 20.4111 134.544 21.3193 135.019 21.9521C 135.499 22.585 136.208 22.9014 137.146 22.9014C 137.948 22.9014 138.771 22.7285 139.615 22.3828L 139.615 23.6748C 138.971 24.0088 138.159 24.1758 137.181 24.1758ZM 150.224 19.1748C 150.224 20.7451 149.828 21.9727 149.037 22.8574C 148.246 23.7363 147.153 24.1758 145.759 24.1758C 144.897 24.1758 144.133 23.9736 143.465 23.5693C 142.797 23.165 142.281 22.585 141.918 21.8291C 141.555 21.0732 141.373 20.1885 141.373 19.1748C 141.373 17.6045 141.766 16.3828 142.551 15.5098C 143.336 14.6309 144.426 14.1914 145.82 14.1914C 147.168 14.1914 148.237 14.6396 149.028 15.5361C 149.825 16.4326 150.224 17.6455 150.224 19.1748ZM 142.885 19.1748C 142.885 20.4053 143.131 21.3428 143.623 21.9873C 144.115 22.6318 144.839 22.9541 145.794 22.9541C 146.749 22.9541 147.473 22.6348 147.965 21.9961C 148.463 21.3516 148.712 20.4111 148.712 19.1748C 148.712 17.9502 148.463 17.0215 147.965 16.3887C 147.473 15.75 146.743 15.4307 145.776 15.4307C 144.821 15.4307 144.101 15.7441 143.614 16.3711C 143.128 16.998 142.885 17.9326 142.885 19.1748Z"/>
</defs>
</svg>
