<svg width="36" height="36" viewBox="0 0 36 36" version="1.1" xmlns="http://www.w3.org/2000/svg" xmlns:xlink="http://www.w3.org/1999/xlink">
<title>Group</title>
<desc>Created using Figma</desc>
<g id="Canvas" transform="translate(13577 -10528)">
<g id="Group">
<g id="Group">
<g id="Vector">
<use xlink:href="#path0_fill" transform="translate(-13577 10528)" fill="#9496A9"/>
</g>
</g>
</g>
</g>
<defs>
<path id="path0_fill" d="M 36 5.54118C 36 2.48824 33.513 0 30.4439 0L 5.53846 0C 2.48702 0 0 2.48824 0 5.54118L 0 30.4588C 0 33.5294 2.48702 36 5.53846 36L 30.4439 36C 33.513 36 35.9824 33.5118 35.9824 30.4588L 36 5.54118ZM 25.9108 14.8765C 26.6516 22.0941 21.8716 25.8 17.1445 25.8C 13.4228 25.8 9.70113 23.5059 8.71338 18.7941C 8.71338 18.7941 10.9887 19.8706 13.1583 20.0471C 12.3469 19.0235 11.7295 17.7529 11.4121 16.2176C 11.4121 16.2176 14.1284 17.5059 16.4566 17.5059C 16.6507 17.5059 16.8447 17.4882 17.0387 17.4706C 17.1269 16.7824 17.0916 15.9353 16.88 14.8941C 16.2097 11.5765 18.3792 9.81176 20.7604 9.81176C 22.1538 9.81176 23.6002 10.4118 24.6232 11.6294C 25.0818 11.5588 25.5757 11.5235 26.0696 11.5235C 26.3518 11.5235 26.634 11.5412 26.9162 11.5588C 26.9162 11.5588 26.2636 12.2824 25.5757 13.3412C 25.7344 13.8 25.8579 14.3118 25.9108 14.8765Z"/>
</defs>
</svg>
