<svg width="34" height="34" xmlns="http://www.w3.org/2000/svg" xmlns:xlink="http://www.w3.org/1999/xlink"><use xlink:href="#path0_fill" fill="#9496A9"/><defs><path id="path0_fill" d="M34 5.2C34 2.3 31.7 0 28.8 0H5.2A5.2 5.2 0 0 0 0 5.2v23.6C0 31.7 2.3 34 5.2 34h23.6c2.9 0 5.2-2.4 5.2-5.2V5.2zM27.9 24H25c-.9 0-1-.7-2.7-2.4-1.5-1.4-2-1.5-2.4-1.5-.4 0-.6.2-.6.8V23c0 .6-.3.9-1.9.9-2.4 0-5.2-1.6-7.3-4.4-3.1-4.3-4-7.4-4-8 0-.4.3-.7.7-.7h2.6c.6 0 .9.2 1.1.9 1.2 3.4 3.3 6.4 4.2 6.4.3 0 .3-.2.3-1v-3.4c0-1.7-1-1.9-1-2.5 0-.2.3-.4.6-.4h4c.6 0 .7.2.7.8v4.8c0 .5 0 .7.3.7s.6-.2 1.1-.8c1.7-1.8 3-4.8 3-4.8.3-.3.5-.6 1-.6h2.6c.5 0 .7.3.6.8-.3 1.3-3.2 5.5-3.2 5.5-.3.4-.4.7 0 1l1.6 1.9c1.3 1.4 2.2 2.5 2.2 3.1 0 .5-.3.6-.6.6z"/></defs></svg>