<svg xmlns="http://www.w3.org/2000/svg" width="25px" height="25px" fill="#7f888f" viewBox="0 0 90 90"><path d="M65.7 10.5c1.18 2.66 1.94 7.07.8 10.3 4.63 3.95 6.22 13.55 4 21.4 6.58.5 14.43-.25 19.5 1.78-4.74-.6-11.2-1.8-17.32-1.4-1.16.1-2.87-.04-2.8 1.6 7.1.55 14.12 1.15 19.92 2.97-5.76-.94-12.75-2.38-19.9-2.58-2.97 5.84-8.92 8.7-17.13 9.3.88 1.93 2.57 2.66 2.98 5.75.62 4.62-.96 11.38.6 14.46.75 1.48 1.97 1.52 2.8 2.78-2.02 2.38-7-.27-7.58-2.78-.97-4.3 1.48-10.95-1.2-13.86.2 4.68-1.1 11.26.2 15.45.52 1.64 2 2.28 1.6 3.76-9.35.95-5.44-12.1-6.97-19.8-1.4.1-.8 2.1-.8 2.96-.04 7.52 1.54 17.84-6.57 16.83-.23-1.58 1.1-2.12 1.6-3.56 1.47-4.23-.28-10.54.4-15.65-3.1 2.33.32 10.48-1.6 14.66-1.1 2.4-4.66 3.45-7.36 2.37.35-1.8 2.2-1.5 2.98-3.17 1.1-2.32 0-5.67.4-9.1-5.73 1.14-10.17-.17-12.35-3.77-.97-1.6-1.2-3.5-2.4-4.94-1.16-1.43-3.03-1.63-3.57-3.57 7.1-1.7 7.37 7.3 13.74 7.52 1.95.07 2.97-.56 4.78-1 .5-2.26 1.6-3.96 3.18-5.14-7.93-1.1-14.47-3.56-17.52-9.5-7.2.35-13.8 1.3-19.9 2.76 5.54-2 12.38-2.73 19.7-2.97-.42-2.6-4.2-1.88-6.56-1.78-4.37.18-9.87.72-13.34 1.38 5.03-1.8 12.1-1.57 18.92-1.6-2.1-6.53-1.37-16.92 3.18-20.8-1.3-3.24-.9-8.55.8-11.08 5.08.23 8.16 2.44 11.35 4.56 3.96-1.13 8.12-1.7 13.54-1.4 2.27.14 4.64 1.16 6.36 1 1.68-.16 3.54-2.05 5.18-2.77 2.13-.95 3.93-1.3 6.37-1.4z"/></svg>