<svg xmlns="http://www.w3.org/2000/svg" width="25px" height="25px" fill="#7f888f" viewBox="0 0 300 300"><path d="M5.3 144.65l69.13 25.8 26.75 86.04c1.7 5.5 8.45 7.54 12.93 3.88l38.54-31.4c4.04-3.3 9.8-3.46 14-.4l69.5 50.46c4.8 3.48 11.57.85 12.77-4.93l50.92-244.88c1.3-6.32-4.9-11.6-10.9-9.26L5.2 129.4c-7 2.7-6.94 12.6.08 15.25zm91.57 12.06l135.1-83.2c2.43-1.5 4.92 1.8 2.84 3.73L123.3 180.87c-3.9 3.65-6.43 8.53-7.15 13.83l-3.8 28.15c-.5 3.75-5.78 4.13-6.82.5L90.93 172c-1.68-5.84.76-12.1 5.94-15.3z"/></svg>