<svg xmlns="http://www.w3.org/2000/svg" width="25px" height="25px" fill="#7f888f" viewBox="0 0 304.36 304.36"><path d="M261.94 175.58c10.1 9.85 20.76 19.13 29.8 29.98 4 4.82 7.8 9.8 10.7 15.4 4.1 7.95.38 16.7-6.75 17.18l-44.35-.02c-11.44.94-20.56-3.66-28.23-11.48-6.14-6.25-11.82-12.9-17.73-19.37-2.43-2.64-4.96-5.13-8-7.1-6.04-3.92-11.3-2.72-14.75 3.6-3.52 6.4-4.32 13.52-4.67 20.68-.47 10.44-3.63 13.2-14.12 13.67-22.4 1.05-43.68-2.34-63.45-13.65C83 214.5 69.5 200.43 57.73 184.5 34.82 153.48 17.3 119.4 1.54 84.35-2 76.45.58 72.22 9.3 72.07c14.46-.28 28.92-.26 43.4-.02 5.88.1 9.78 3.46 12.05 9 7.82 19.25 17.4 37.56 29.42 54.53 3.2 4.52 6.46 9.04 11.1 12.22 5.15 3.52 9.07 2.35 11.5-3.38 1.52-3.63 2.2-7.54 2.54-11.43 1.16-13.4 1.3-26.75-.7-40.1-1.24-8.3-5.92-13.7-14.23-15.27-4.24-.8-3.6-2.38-1.56-4.8 3.58-4.17 6.93-6.77 13.6-6.77h50.12c7.9 1.55 9.64 5.1 10.72 13.04l.05 55.66c-.1 3.07 1.52 12.2 7.06 14.23 4.43 1.43 7.35-2.1 10-4.92 12-12.73 20.57-27.78 28.22-43.37 3.4-6.84 6.3-13.95 9.14-21.06 2.1-5.28 5.38-7.88 11.33-7.76l48.23.04c1.43 0 2.87.02 4.26.26 8.13 1.4 10.35 4.88 7.84 12.82-3.95 12.45-11.65 22.82-19.17 33.25-8.03 11.13-16.64 21.88-24.6 33.07-7.34 10.22-6.76 15.38 2.34 24.26zm0 0" fill-rule="evenodd" clip-rule="evenodd"/></svg>