<?xml version="1.0" encoding="UTF-8"?>
<svg width="1440px" height="578px" viewBox="0 0 1440 578" version="1.1" xmlns="http://www.w3.org/2000/svg" xmlns:xlink="http://www.w3.org/1999/xlink">
    <!-- Generator: Sketch 48.2 (47327) - http://www.bohemiancoding.com/sketch -->
    <title>Group 11</title>
    <desc>Created with Sketch.</desc>
    <defs>
        <rect id="path-1" x="0" y="0" width="1440" height="769"></rect>
        <linearGradient x1="3.06299223%" y1="46.5755372%" x2="100%" y2="46.5755373%" id="linearGradient-3">
            <stop stop-color="#3023AE" offset="0%"></stop>
            <stop stop-color="#EE5D5B" offset="100%"></stop>
        </linearGradient>
        <path d="M-29,682.176925 C36.6104602,578.859303 93.925345,527.200493 142.944654,527.200493 C216.473618,527.200493 262.258325,553.565607 329,553 C395.741675,552.434393 431.948,433.897313 506.902004,434.169095 C581.856009,434.440877 606,699 708,699 C810,699 829,291 929,291 C1029,291 1005,505 1104,505 C1203,505 1245,164 1314,164 C1383,164 1362,323 1440,320 C1492,318 1518.33333,326.666667 1519,346 C1834.23674,566.912098 1834.23674,718.912098 1519,802 C1203.76326,885.087902 666.763264,900.421236 -92,848 L-29,682.176925 Z" id="path-4"></path>
        <filter x="-1.6%" y="-2.7%" width="103.1%" height="108.1%" filterUnits="objectBoundingBox" id="filter-5">
            <feMorphology radius="1.5" operator="dilate" in="SourceAlpha" result="shadowSpreadOuter1"></feMorphology>
            <feOffset dx="0" dy="10" in="shadowSpreadOuter1" result="shadowOffsetOuter1"></feOffset>
            <feMorphology radius="1.5" operator="erode" in="SourceAlpha" result="shadowInner"></feMorphology>
            <feOffset dx="0" dy="10" in="shadowInner" result="shadowInner"></feOffset>
            <feComposite in="shadowOffsetOuter1" in2="shadowInner" operator="out" result="shadowOffsetOuter1"></feComposite>
            <feGaussianBlur stdDeviation="7.5" in="shadowOffsetOuter1" result="shadowBlurOuter1"></feGaussianBlur>
            <feColorMatrix values="0 0 0 0 0.0335721538   0 0 0 0 0.0340062121   0 0 0 0 0.0352093963  0 0 0 0.421903306 0" type="matrix" in="shadowBlurOuter1"></feColorMatrix>
        </filter>
    </defs>
    <g id="v2" stroke="none" stroke-width="1" fill="none" fill-rule="evenodd" transform="translate(0.000000, -146.000000)">
        <g id="Group-11" transform="translate(0.000000, -1.000000)">
            <mask id="mask-2" fill="white">
                <use xlink:href="#path-1"></use>
            </mask>
            <g id="Path"></g>
            <g id="Path-2" mask="url(#mask-2)">
                <use fill="black" fill-opacity="1" filter="url(#filter-5)" xlink:href="#path-4"></use>
                <use stroke="url(#linearGradient-3)" stroke-width="3" xlink:href="#path-4"></use>
            </g>
            <circle id="Oval-2" fill="#353535" opacity="0.699999988" mask="url(#mask-2)" cx="138" cy="528" r="17"></circle>
            <polygon id="Triangle-4" fill="#3E27A8" mask="url(#mask-2)" points="146 528 134 538 134 518"></polygon>
            <circle id="Oval-2-Copy" fill="#353535" opacity="0.699999988" mask="url(#mask-2)" cx="332" cy="552" r="17"></circle>
            <polygon id="Triangle-4-Copy" fill="#562F9E" mask="url(#mask-2)" points="340 552 328 562 328 542"></polygon>
            <circle id="Oval-2-Copy-2" fill="#353535" opacity="0.699999988" mask="url(#mask-2)" cx="503" cy="435" r="17"></circle>
            <polygon id="Triangle-4-Copy-2" fill="#6B3594" mask="url(#mask-2)" points="511 435 499 445 499 425"></polygon>
            <circle id="Oval-2-Copy-3" fill="#353535" opacity="0.699999988" mask="url(#mask-2)" cx="707" cy="699" r="17"></circle>
            <polygon id="Triangle-4-Copy-3" fill="#853C88" mask="url(#mask-2)" points="715 699 703 709 703 689"></polygon>
            <circle id="Oval-2-Copy-4" fill="#353535" opacity="0.699999988" mask="url(#mask-2)" cx="930" cy="292" r="17"></circle>
            <polygon id="Triangle-4-Copy-4" fill="#A1467C" mask="url(#mask-2)" points="938 292 926 302 926 282"></polygon>
            <circle id="Oval-2-Copy-5" fill="#353535" opacity="0.699999988" mask="url(#mask-2)" cx="1102" cy="505" r="17"></circle>
            <polygon id="Triangle-4-Copy-5" fill="#B74C72" mask="url(#mask-2)" points="1110 505 1098 515 1098 495"></polygon>
            <circle id="Oval-2-Copy-6" fill="#353535" opacity="0.699999988" mask="url(#mask-2)" cx="1312" cy="164" r="17"></circle>
            <polygon id="Triangle-4-Copy-6" fill="#D75666" mask="url(#mask-2)" points="1320 164 1308 174 1308 154"></polygon>
        </g>
    </g>
</svg>