<?xml version="1.0" encoding="UTF-8"?>
<svg width="68px" height="71px" viewBox="0 0 68 71" version="1.1" xmlns="http://www.w3.org/2000/svg" xmlns:xlink="http://www.w3.org/1999/xlink">
    <!-- Generator: Sketch 48.2 (47327) - http://www.bohemiancoding.com/sketch -->
    <title>credit-card</title>
    <desc>Created with Sketch.</desc>
    <defs>
        <linearGradient x1="0%" y1="50%" x2="100%" y2="50%" id="linearGradient-1">
            <stop stop-color="#C2E5B8" offset="0%"></stop>
            <stop stop-color="#71CBBE" offset="100%"></stop>
        </linearGradient>
        <linearGradient x1="0%" y1="50%" x2="100%" y2="50%" id="linearGradient-2">
            <stop stop-color="#666CC8" offset="0%"></stop>
            <stop stop-color="#3EA7A1" offset="100%"></stop>
        </linearGradient>
    </defs>
    <g id="v2" stroke="none" stroke-width="1" fill="none" fill-rule="evenodd" transform="translate(-1065.000000, -2698.000000)">
        <g id="credit-card" transform="translate(1065.000000, 2698.000000)" fill="url(#linearGradient-2)" fill-rule="nonzero">
            <path d="M54.2186667,18.2851861 C55.2372321,18.2851861 55.5241519,16.8913211 54.6060084,16.4702577 L18.7553755,0.382732106 C16.5747848,-0.604588957 14.0068523,0.382732106 13.0313249,2.6042045 L0.478582278,31.0913211 C-0.496945148,33.298274 0.478582278,35.8972515 2.67351899,36.8845726 L9.90389873,40.0498078 C10.8076962,40.4563517 11.8406076,39.7884581 11.8406076,38.7866176 L11.8406076,26.6919346 C11.8406076,22.0602372 15.5562194,18.2997055 20.1325907,18.2997055 L54.2186667,18.2997055 L54.2186667,18.2851861 Z" id="Shape"></path>
            <path d="M63.6009451,22.2344703 L20.1182447,22.2344703 C17.6937722,22.2344703 15.7283713,24.2236319 15.7283713,26.6774151 L15.7283713,57.7635092 C15.7283713,60.2172924 17.6937722,62.206454 20.1182447,62.206454 L25.9570633,62.206454 C25.8136034,61.3352883 25.7418734,60.4496033 25.7418734,59.5493988 C25.7418734,58.5330389 25.8422954,57.5457178 26.0144473,56.5729162 L21.308962,56.5729162 L21.308962,41.6905031 L62.4245738,41.6905031 L62.4245738,56.5583967 L57.7047426,56.5583967 C57.8768945,57.5311984 57.9773165,58.5185194 57.9773165,59.5348793 C57.9773165,60.4350838 57.9055865,61.3207689 57.7621266,62.1919346 L63.6009451,62.1919346 C66.0254177,62.1919346 67.9908186,60.202773 67.9908186,57.7489898 L67.9908186,26.6774151 C67.9908186,24.2236319 66.0254177,22.2344703 63.6009451,22.2344703 Z M62.4245738,32.5287444 L21.308962,32.5287444 L21.308962,27.8680082 L62.4245738,27.8680082 L62.4245738,32.5287444 Z" id="Shape"></path>
            <path d="M41.8667679,48.1226094 C35.6406076,48.1226094 30.5908186,53.2334479 30.5908186,59.5348793 C30.5908186,65.8363108 35.6406076,70.9471493 41.8667679,70.9471493 C48.0929283,70.9471493 53.1427173,65.8363108 53.1427173,59.5348793 C53.1427173,53.2334479 48.0929283,48.1226094 41.8667679,48.1226094 Z M45.108962,64.0359018 C44.6211983,64.6457178 43.9756287,65.0522618 43.2296371,65.2555337 C42.8996793,65.3426503 42.7562194,65.5168834 42.7705654,65.8653497 C42.7849114,66.1992965 42.7705654,66.5332434 42.7705654,66.8817096 C42.7705654,67.1866176 42.6127595,67.3463313 42.3258397,67.3463313 C41.9671899,67.3608507 41.6085401,67.3608507 41.2498903,67.3463313 C40.9342785,67.3463313 40.7908186,67.1575787 40.7908186,66.8526708 C40.7908186,66.6058405 40.7908186,66.3590102 40.7908186,66.11218 C40.7908186,65.5749611 40.7621266,65.5459223 40.2456709,65.4588057 C39.5857553,65.3571697 38.9401857,65.197456 38.337654,64.9070675 C37.8642363,64.6747566 37.8068523,64.5586012 37.9503122,64.0504213 C38.0507342,63.6729162 38.1511561,63.295411 38.2659241,62.9324254 C38.395038,62.4968425 38.5098059,62.4532843 38.9114937,62.6565562 C39.5857553,63.0050225 40.2887089,63.2082945 41.0347004,63.295411 C41.5081181,63.3534888 41.9815359,63.3099305 42.4262616,63.1066585 C43.2583291,62.7436728 43.387443,61.7708712 42.6844895,61.1900941 C42.4406076,60.9868221 42.1823797,60.8416278 41.8954599,60.7254724 C41.1638143,60.406045 40.4034768,60.1592147 39.7292152,59.7381513 C38.6102278,59.0702577 37.9072743,58.1410143 37.9933502,56.7616687 C38.0794262,55.20809 38.9545316,54.2498078 40.3604388,53.7271084 C40.9342785,53.509317 40.9486245,53.5238364 40.9486245,52.9140204 C40.9486245,52.7107485 40.9486245,52.4929571 40.9486245,52.2896851 C40.9629705,51.8250634 41.0347004,51.7524663 41.4937722,51.7379468 C41.6372321,51.7379468 41.780692,51.7379468 41.9098059,51.7379468 C42.8853333,51.7379468 42.8853333,51.7379468 42.8853333,52.7252679 C42.8853333,53.4222004 42.8853333,53.4222004 43.5739409,53.5238364 C44.0903966,53.610953 44.5925063,53.7561472 45.08027,53.9739387 C45.3528439,54.0900941 45.4532658,54.2788466 45.3671899,54.5692352 C45.2524219,54.9902986 45.137654,55.4258814 44.9941941,55.8324254 C44.8650802,56.2244499 44.7359662,56.2825276 44.3629705,56.1082945 C43.6026329,55.7307894 42.8136034,55.5855951 41.9815359,55.6291534 C41.766346,55.6436728 41.5511561,55.6727117 41.3503122,55.7598282 C40.6330127,56.0792556 40.5038987,56.8923436 41.1207764,57.3860041 C41.4363882,57.6328344 41.780692,57.8215869 42.1536878,57.9813006 C42.7992574,58.2426503 43.430481,58.504 44.0473586,58.8524663 C45.9410295,59.9123845 46.4718312,62.3661677 45.108962,64.0359018 Z" id="Shape"></path>
        </g>
    </g>
</svg>