<?xml version="1.0" encoding="UTF-8"?>
<svg width="61px" height="61px" viewBox="0 0 61 61" version="1.1" xmlns="http://www.w3.org/2000/svg" xmlns:xlink="http://www.w3.org/1999/xlink">
    <!-- Generator: Sketch 48.2 (47327) - http://www.bohemiancoding.com/sketch -->
    <title>dollar-symbol</title>
    <desc>Created with Sketch.</desc>
    <defs>
        <linearGradient x1="0%" y1="50%" x2="100%" y2="50%" id="linearGradient-1">
            <stop stop-color="#666CC8" offset="0%"></stop>
            <stop stop-color="#3EA7A1" offset="100%"></stop>
        </linearGradient>
    </defs>
    <g id="v2" stroke="none" stroke-width="1" fill="none" fill-rule="evenodd" transform="translate(-470.000000, -2703.000000)">
        <g id="dollar-symbol" transform="translate(470.000000, 2703.000000)" fill="url(#linearGradient-1)" fill-rule="nonzero">
            <path d="M58.6390227,43.4660994 C57.4795186,43.3776936 55.0722872,44.6911511 54.404312,45.0195155 C52.0474938,46.2066791 48.7958409,48.0632008 46.6532789,49.5408406 C46.5020393,49.6418758 46.3003864,49.7807992 46.1491467,49.869205 C45.1912955,50.4880455 44.1704277,50.9048157 43.0361302,51.1447743 C36.8100971,52.4708613 27.7357169,52.6224141 27.7357169,52.6224141 L27.2063781,52.6476729 C26.8030723,52.6729317 26.4501798,52.3950849 26.3997665,52.0035735 C26.33675,51.5741739 26.6518326,51.1826625 27.0929483,51.1447743 L40.5910888,49.8565756 C42.0782789,49.6923934 43.2629897,48.3031594 43.0991467,46.7371139 C42.9353037,45.1710683 41.4985269,44.021793 40.0113368,44.1859752 L28.0129897,44.0344224 C27.1937748,44.021793 25.883031,43.8197226 25.101626,43.5923934 C17.3631963,41.3317308 13.0024525,43.45347 10.6834442,44.4385631 C10.1667087,43.579764 9.18365083,43.0240704 8.08716322,43.0998468 L2.90720455,43.4408406 C1.18055165,43.5545052 -0.117588843,44.9942567 0.00844421488,46.6613375 L0.840262397,58.1793499 C0.953692149,59.8464306 2.45348554,61.0967412 4.16753512,60.9830766 L9.3474938,60.6420828 C10.4439814,60.5663064 11.3262128,59.8969482 11.7169153,58.9750021 L34.4532789,59.9600952 C36.9865434,60.2253126 39.3559649,59.922207 41.58675,58.7476729 L42.2421219,58.4066791 L59.4204277,48.3284182 C60.2648492,47.8358716 60.8698079,46.9770725 60.8950145,46.0172381 C60.9454277,44.8679627 60.2774525,43.579764 58.6390227,43.4660994 Z M6.0706343,58.2551263 C5.10017975,58.2551263 4.30617149,57.4973623 4.30617149,56.5501573 C4.30617149,55.6029524 5.10017975,54.8451884 6.0706343,54.8451884 C7.04108884,54.8451884 7.83509711,55.6029524 7.83509711,56.5501573 C7.83509711,57.4973623 7.04108884,58.2551263 6.0706343,58.2551263 Z" id="Shape"></path>
            <path d="M46.4012128,47.0528489 C48.1530723,45.8277971 51.7450145,43.8702402 53.7741467,42.8472588 C54.3917087,42.5441532 55.0344773,42.2284182 55.7276591,41.9884596 C54.8454277,41.3948778 53.9001798,41.369619 52.9171219,41.748501 C50.9888161,42.5188944 47.4346839,44.2364928 45.6198079,45.2215859 C45.6072045,45.2468447 45.5946012,45.2721035 45.5946012,45.2973623 C45.7206343,45.6762443 45.8214607,46.0677557 45.8592707,46.4718965 C45.8970806,46.8002609 45.8844773,47.1159959 45.871874,47.4317308 C46.0357169,47.3054369 46.2121632,47.1791429 46.4012128,47.0528489 Z" id="Shape"></path>
            <path d="M51.0392293,40.5992257 C50.1569979,40.0309027 49.2243533,40.0056439 48.2665021,40.3845259 C47.069188,40.8518137 44.4098905,41.7232422 43.2251798,42.3547122 C43.729312,42.6704472 44.183031,43.0619586 44.5737335,43.516617 C44.6493533,43.4660994 44.7249731,43.4029524 44.8131963,43.3524348 L45.6828244,42.8725176 C46.943155,42.1779006 49.6528657,41.2180663 51.0392293,40.5992257 Z" id="Shape"></path>
            <path d="M49.3125764,18.1946708 C52.6776591,16.7549193 55.0470806,13.395499 55.0470806,9.49301449 C55.0470806,4.26444306 50.8123698,0.0335942029 45.6072045,0.0335942029 C40.4020393,0.0335942029 36.1673285,4.27707246 36.1673285,9.49301449 C36.1673285,9.54353209 36.1799318,9.59404969 36.1799318,9.64456729 C41.7884029,10.2381491 46.6028657,13.5344224 49.3125764,18.1946708 Z" id="Shape"></path>
            <path d="M34.3818182,40.6161491 C26.8072314,40.6161491 20.6694215,34.4656315 20.6694215,26.8753623 C20.6694215,19.2850932 26.8072314,13.1345756 34.3818182,13.1345756 C41.956405,13.1345756 48.0942149,19.2850932 48.0942149,26.8753623 C48.0942149,34.4656315 41.956405,40.6161491 34.3818182,40.6161491 Z M40.2009022,27.3112175 C39.7918514,26.7814674 39.1745877,26.4175983 38.3491479,26.2198329 C39.4002938,25.6828448 39.8622317,24.771446 39.7354064,23.4854882 C39.6930077,23.019173 39.5643292,22.6150307 39.3490745,22.2724674 C39.1336715,21.9298299 38.842996,21.6543762 38.4759362,21.445995 C38.109173,21.237354 37.7102771,21.0785254 37.2801753,20.9690269 C36.8499623,20.8595284 36.3560401,20.7800214 35.7987422,20.7306171 L35.7987422,18.0600414 L34.1693586,18.0600414 L34.1693586,20.656418 C33.8872073,20.656418 33.4569202,20.6634704 32.8785342,20.6776124 L32.8785342,18.0600414 L31.2489282,18.0600414 L31.2489282,20.7306171 C31.0160691,20.7377067 30.6739889,20.7413072 30.2225395,20.7413072 L27.9793388,20.7306171 L27.9793388,22.4686368 L29.1537893,22.4686368 C29.6899248,22.4686368 30.003838,22.7089025 30.0955288,23.1892483 L30.0955288,26.2307827 C30.1661686,26.2307827 30.2225395,26.2344203 30.2649011,26.2414727 L30.0955288,26.2414727 L30.0955288,30.5014842 C30.0391579,30.8617158 29.834614,31.0419985 29.4818601,31.0419985 L28.3074838,31.0419985 L27.979413,32.9813841 L30.0957141,32.9813841 C30.2297666,32.9813841 30.4236367,32.9831658 30.6776951,32.9863579 C30.9316053,32.9899213 31.1219916,32.9917029 31.2490023,32.9917029 L31.2490023,35.6940147 L32.8788678,35.6940147 L32.8788678,33.0234761 C33.1750654,33.0307141 33.6053526,33.0341661 34.1696921,33.0341661 L34.1696921,35.6940147 L35.7991128,35.6940147 L35.7991128,32.9917029 C36.3776841,32.9634932 36.8908414,32.9107854 37.3385846,32.8328002 C37.7865503,32.754815 38.2152067,32.6331417 38.6242574,32.467001 C39.0332711,32.3010829 39.3753513,32.0942977 39.6504237,31.8470167 C39.9256444,31.5999584 40.1529443,31.2854193 40.3331386,30.9038448 C40.5127399,30.5222704 40.6275202,30.080713 40.6767383,29.5789872 C40.7688368,28.5972124 40.6100271,27.8411902 40.2009022,27.3112175 Z M32.910222,22.5848908 C32.9596254,22.5848908 33.0989405,22.5831091 33.3282047,22.5795458 C33.5575799,22.5759082 33.7479663,22.5724191 33.899623,22.5688558 C34.0513168,22.5653667 34.2558978,22.5742008 34.5134771,22.5953952 C34.7709452,22.6165897 34.9878307,22.6449108 35.1641335,22.6801731 C35.3404364,22.7154353 35.534603,22.7737479 35.7460404,22.8549995 C35.9578484,22.9361769 36.1270354,23.0351338 36.2538608,23.1516848 C36.3809456,23.2682357 36.4884988,23.4166711 36.5765205,23.5968426 C36.6648017,23.7769769 36.7089052,23.9836136 36.7089052,24.2167155 C36.7089052,24.4145551 36.6772174,24.5947637 36.6138047,24.7573411 C36.5505032,24.9198072 36.4550321,25.0558452 36.3282067,25.1653437 C36.2013442,25.2748793 36.0705903,25.3703472 35.9365379,25.4515245 C35.8026337,25.5327019 35.6314083,25.5981041 35.4233806,25.6475083 C35.21539,25.6969868 35.0337502,25.7358495 34.8786467,25.7640593 C34.723432,25.7923433 34.5294878,25.8118303 34.2966658,25.8223719 C34.0638067,25.8329134 33.8873926,25.8401143 33.7675349,25.8436034 C33.6475659,25.8470925 33.4836047,25.8470925 33.2754287,25.8436034 C33.0672157,25.8401143 32.9456901,25.8382584 32.9103332,25.8382584 L32.9103332,22.5848537 L32.910222,22.5848537 L32.910222,22.5848908 Z M37.3598581,29.8016589 C37.2926651,29.9642363 37.2063853,30.1056193 37.1006481,30.2258078 C36.9947255,30.3456994 36.8553362,30.451783 36.6825913,30.543502 C36.5098835,30.6354807 36.342179,30.7095314 36.1800708,30.7660623 C36.0177402,30.8228159 35.8219058,30.8719975 35.5928641,30.9145349 C35.3633035,30.9569609 35.1623916,30.9868039 34.9893873,31.0045835 C34.8166424,31.0222888 34.6103936,31.0363566 34.3704557,31.0470466 C34.1307032,31.0574397 33.9436524,31.0628218 33.8096741,31.0628218 C33.6756217,31.0628218 33.5062865,31.0608917 33.3017055,31.0574397 C33.0970133,31.0541362 32.96663,31.0523545 32.9101479,31.0523545 L32.9101479,27.4702687 C32.9665188,27.4702687 33.1340751,27.4668167 33.4127796,27.4596158 C33.6915212,27.4524891 33.9188951,27.4491856 34.0952721,27.4491856 C34.271612,27.4491856 34.5150708,27.4596158 34.8255743,27.4809587 C35.1357813,27.5020047 35.3968073,27.5336665 35.6086154,27.5760554 C35.8201639,27.6185185 36.0510217,27.6837722 36.3016334,27.7721876 C36.5519856,27.8604545 36.7548988,27.9681714 36.9101506,28.0953381 C37.0653653,28.2227276 37.1957856,28.3849709 37.3015599,28.5828477 C37.4075937,28.7806132 37.4604808,29.0067368 37.4604808,29.2611446 C37.4604437,29.4591698 37.426977,29.6390443 37.3598581,29.8016589 Z" id="Combined-Shape"></path>
        </g>
    </g>
</svg>