<?xml version="1.0" encoding="UTF-8"?>
<svg width="55px" height="68px" viewBox="0 0 55 68" version="1.1" xmlns="http://www.w3.org/2000/svg" xmlns:xlink="http://www.w3.org/1999/xlink">
    <!-- Generator: Sketch 48.2 (47327) - http://www.bohemiancoding.com/sketch -->
    <title>004-dollar-symbol</title>
    <desc>Created with Sketch.</desc>
    <defs>
        <linearGradient x1="0%" y1="50%" x2="100%" y2="50%" id="linearGradient-1">
            <stop stop-color="#666CC8" offset="0%"></stop>
            <stop stop-color="#3EA7A1" offset="100%"></stop>
        </linearGradient>
    </defs>
    <g id="v2" stroke="none" stroke-width="1" fill="none" fill-rule="evenodd" transform="translate(-220.000000, -2700.000000)">
        <g id="004-dollar-symbol" transform="translate(220.000000, 2700.000000)" fill="url(#linearGradient-1)" fill-rule="nonzero">
            <path d="M27.4929487,53.5673469 C16.5211538,53.5673469 7.60833333,44.8106122 7.60833333,33.9861224 C7.60833333,28.8236735 9.65320513,24.1191837 12.9814103,20.6220408 C16.6057692,16.8195918 21.7673077,14.4326531 27.4929487,14.4326531 C38.4788462,14.4326531 47.3775641,23.2032653 47.3775641,34 C47.3775641,44.8106122 38.4647436,53.5673469 27.4929487,53.5673469 Z M35.5841063,34.6467529 C35.0476373,33.9143815 34.2380973,33.4113381 33.1555351,33.1379304 C34.5341104,32.3955525 35.1399409,31.1355576 34.9736097,29.3577404 C34.9180039,28.7130668 34.7492424,28.1543463 34.4669364,27.6807577 C34.1844358,27.2070666 33.8032157,26.826256 33.3218177,26.5381722 C32.8408085,26.2497291 32.3176576,26.0301511 31.7535801,25.8787711 C31.1893567,25.7273911 30.541579,25.6174738 29.8106842,25.5491732 L29.8106842,21.8571429 L27.6737515,21.8571429 L27.6737515,25.446594 C27.3037108,25.446594 26.7393902,25.4563439 25.9808384,25.475895 L25.9808384,21.8571429 L23.8436141,21.8571429 L23.8436141,25.5491732 C23.5382199,25.5589744 23.0895826,25.563952 22.4975078,25.563952 L19.5555556,25.5491732 L19.5555556,27.9519589 L21.0958444,27.9519589 C21.7989849,27.9519589 22.2106813,28.2841226 22.3309336,28.9481933 L22.3309336,33.1530684 C22.4235775,33.1530684 22.4975078,33.1580972 22.553065,33.1678471 L22.3309336,33.1678471 L22.3309336,39.0572482 C22.2570033,39.5552628 21.9887444,39.804501 21.5261085,39.804501 L19.9859168,39.804501 L19.5556528,42.485672 L22.3311767,42.485672 C22.5069861,42.485672 22.7612463,42.4881351 23.0944433,42.4925483 C23.4274459,42.4974745 23.6771371,42.4999377 23.8437113,42.4999377 L23.8437113,46.2358425 L25.9812759,46.2358425 L25.9812759,42.5438635 C26.3697384,42.55387 26.934059,42.5586423 27.6741889,42.5586423 L27.6741889,46.2358425 L29.8111703,46.2358425 L29.8111703,42.4999377 C30.5699651,42.4609381 31.2429696,42.3880704 31.8301838,42.280257 C32.4176896,42.1724437 32.9798715,42.0042322 33.5163406,41.7745451 C34.052761,41.5451659 34.5013983,41.2592886 34.8621552,40.9174264 C35.2231065,40.575872 35.5212096,40.1410265 35.7575341,39.6135056 C35.9930808,39.0859847 36.1436149,38.4755384 36.2081642,37.78191 C36.3289511,36.4246214 36.1206726,35.3794322 35.5841063,34.6467529 Z M26.0223969,28.1126783 C26.0871893,28.1126783 26.2699008,28.1102151 26.5705801,28.1052889 C26.8714053,28.10026 27.1210965,28.0954364 27.3199939,28.0905101 C27.51894,28.0856865 27.7872475,28.0978995 28.1250621,28.1272005 C28.4627309,28.1565015 28.7471757,28.1956551 28.9783964,28.2444046 C29.2096172,28.293154 29.4642662,28.3737703 29.7415659,28.4860994 C30.0193516,28.5983259 30.2412399,28.7351324 30.4075711,28.8962623 C30.5742425,29.0573922 30.7152983,29.2626019 30.8307386,29.5116862 C30.9465191,29.7607192 31.0043607,30.0463912 31.0043607,30.368651 C31.0043607,30.6421614 30.9628022,30.891297 30.8796366,31.1160578 C30.7966169,31.3406647 30.6714067,31.5287351 30.5050755,31.6801151 C30.3386958,31.8315465 30.1672123,31.9635293 29.9914029,32.0757558 C29.8157879,32.1879823 29.5912262,32.2783998 29.3183984,32.3467004 C29.0456191,32.4151036 28.807399,32.4688307 28.6039812,32.5078303 C28.4004175,32.5469325 28.1460601,32.573873 27.8407145,32.5884466 C27.5353204,32.6030201 27.3039538,32.6129752 27.1467607,32.6177989 C26.9894217,32.6226225 26.7743869,32.6226225 26.5013646,32.6177989 C26.2282937,32.6129752 26.0689133,32.6104095 26.0225427,32.6104095 L26.0225427,28.112627 L26.0223969,28.112627 L26.0223969,28.1126783 Z M31.8580839,38.0897503 C31.7699604,38.3145111 31.6568047,38.5099709 31.5181306,38.6761298 C31.3792134,38.841878 31.1964047,38.9885371 30.9698501,39.1153371 C30.7433442,39.2424963 30.5234002,39.3448702 30.3107957,39.4230234 C30.0978995,39.5014844 29.8410632,39.5694771 29.5406755,39.6282844 C29.2396073,39.6869377 28.9761119,39.7281952 28.7492172,39.7527752 C28.5226626,39.7772526 28.2521679,39.7967011 27.9374899,39.8114799 C27.623055,39.8258482 27.3777384,39.8332889 27.2020262,39.8332889 C27.0262167,39.8332889 26.804134,39.8306205 26.5358265,39.8258482 C26.2673733,39.8212811 26.0963759,39.818818 26.0222997,39.818818 L26.0222997,34.8666388 C26.0962301,34.8666388 26.3159797,34.8618665 26.6815,34.8519113 C27.0470689,34.8420588 27.3452693,34.8374918 27.5765872,34.8374918 C27.8078566,34.8374918 28.1271522,34.8519113 28.5343768,34.8814176 C28.9412125,34.9105134 29.2835476,34.9542853 29.5613333,35.0128873 C29.8387787,35.071592 30.1415481,35.1618042 30.4702247,35.2840371 C30.7985611,35.4060648 31.0646813,35.5549817 31.2682936,35.7307878 C31.4718573,35.9069018 31.6429033,36.1312008 31.781626,36.4047624 C31.920689,36.6781701 31.9900503,36.9907827 31.9900503,37.3424975 C31.9900017,37.6162644 31.9461101,37.8649381 31.8580839,38.0897503 Z" id="Combined-Shape"></path>
            <path d="M49.0275641,55.204898 C37.5480769,66.5012245 19.1160256,66.8759184 7.17115385,56.3567347 L11.0070513,56.3567347 L11.0070513,52.3322449 L2.94038462,52.3322449 L2.84166667,52.3322449 L0.119871795,52.3322449 L0.119871795,55.0522449 L0.119871795,55.1077551 L0.119871795,63.0457143 L4.20961538,63.0457143 L4.20961538,59.1461224 C10.7814103,65.0440816 19.1301282,68 27.4788462,68 C36.3352564,68 45.1775641,64.6832653 51.9185897,58.0497959 L53.3711538,56.6204082 L50.4801282,53.7755102 L49.0275641,55.204898 Z" id="Shape"></path>
            <path d="M50.7762821,4.95428571 L50.7762821,8.85387755 C44.2044872,2.95591837 35.8557692,0 27.5070513,0 C18.650641,0 9.80833333,3.31673469 3.06730769,9.95020408 L1.62884615,11.3657143 L4.51987179,14.2106122 L5.9724359,12.7812245 C17.4519231,1.48489796 35.8839744,1.11020408 47.8288462,11.6293878 L43.9929487,11.6293878 L43.9929487,15.6538776 L52.0596154,15.6538776 L52.1583333,15.6538776 L54.8801282,15.6538776 L54.8801282,12.9338776 L54.8801282,12.8783673 L54.8801282,4.95428571 L50.7762821,4.95428571 Z" id="Shape"></path>
        </g>
    </g>
</svg>