<?xml version="1.0" encoding="UTF-8"?>
<svg width="66px" height="57px" viewBox="0 0 66 57" version="1.1" xmlns="http://www.w3.org/2000/svg" xmlns:xlink="http://www.w3.org/1999/xlink">
    <!-- Generator: Sketch 48.2 (47327) - http://www.bohemiancoding.com/sketch -->
    <title>desktop-monitor</title>
    <desc>Created with Sketch.</desc>
    <defs>
        <linearGradient x1="0%" y1="50%" x2="100%" y2="50%" id="linearGradient-1">
            <stop stop-color="#C2E5B8" offset="0%"></stop>
            <stop stop-color="#71CBBE" offset="100%"></stop>
        </linearGradient>
        <linearGradient x1="0%" y1="50%" x2="100%" y2="50%" id="linearGradient-2">
            <stop stop-color="#666CC8" offset="0%"></stop>
            <stop stop-color="#3EA7A1" offset="100%"></stop>
        </linearGradient>
    </defs>
    <g id="v2" stroke="none" stroke-width="1" fill="none" fill-rule="evenodd" transform="translate(-792.000000, -2705.000000)">
        <g id="desktop-monitor" transform="translate(792.000000, 2705.000000)" fill="url(#linearGradient-2)" fill-rule="nonzero">
            <path d="M64.2868852,1.67227941 C63.2115301,0.601134454 61.9193005,0.0650231092 60.4085137,0.0650231092 L5.49170492,0.0650231092 C3.98151913,0.0650231092 2.68904918,0.601134454 1.61297268,1.67227941 C0.537497268,2.74378361 0,4.03107353 0,5.53546639 L0,42.7331155 C0,44.2378676 0.537497268,45.5250378 1.61297268,46.5967815 C2.68904918,47.6679265 3.98151913,48.2030798 5.49170492,48.2030798 L24.1638142,48.2030798 C24.1638142,49.0689769 23.9806011,49.9587038 23.6144153,50.8697458 C23.2484699,51.7815063 22.8822842,52.5789076 22.5160984,53.2624286 C22.1503934,53.9467878 21.9673005,54.4475735 21.9673005,54.7664622 C21.9673005,55.3589748 22.1845355,55.8729328 22.6193661,56.3048634 C23.0539563,56.7384706 23.5688525,56.9556933 24.1638142,56.9556933 L41.7372459,56.9556933 C42.3322077,56.9556933 42.847224,56.7385903 43.2818142,56.3048634 C43.7170055,55.8730525 43.9342404,55.3590945 43.9342404,54.7664622 C43.9342404,54.4709244 43.7507869,53.9748088 43.3847213,53.279792 C43.0185355,52.5851345 42.6523497,51.7750399 42.2866448,50.8528613 C41.920459,49.929605 41.7373661,49.0464643 41.7373661,48.2030798 L60.4094754,48.2030798 C61.9194208,48.2030798 63.2116503,47.6679265 64.2870055,46.5967815 C65.3628415,45.5251576 65.9005792,44.2379874 65.9005792,42.7331155 L65.9005792,5.53546639 C65.9009399,4.03107353 65.3627213,2.74378361 64.2868852,1.67227941 Z M61.507071,33.9806218 C61.507071,34.2769979 61.3985137,34.5330189 61.1811585,34.7498824 C60.9635628,34.9659076 60.7060546,35.0740399 60.4085137,35.0740399 L5.49170492,35.0740399 C5.19440437,35.0740399 4.93689617,34.9659076 4.71954098,34.7498824 C4.50230601,34.5323004 4.3935082,34.2769979 4.3935082,33.9806218 L4.3935082,5.53546639 C4.3935082,5.23909034 4.50194536,4.98282983 4.71954098,4.76632563 C4.93701639,4.55018067 5.19452459,4.44156933 5.49170492,4.44156933 L60.4093552,4.44156933 C60.7064153,4.44156933 60.9644044,4.54982143 61.1811585,4.76632563 C61.3985137,4.98294958 61.507071,5.23921008 61.507071,5.53546639 L61.507071,33.9806218 Z" id="Shape"></path>
        </g>
    </g>
</svg>