<?xml version="1.0" encoding="UTF-8"?>
<svg width="151px" height="29px" viewBox="0 0 151 29" version="1.1" xmlns="http://www.w3.org/2000/svg" xmlns:xlink="http://www.w3.org/1999/xlink">
    <!-- Generator: Sketch 48.2 (47327) - http://www.bohemiancoding.com/sketch -->
    <title>Group</title>
    <desc>Created with Sketch.</desc>
    <defs>
        <polygon id="path-1" points="0.0669285314 0.0993358271 20.1494666 0.0993358271 20.1494666 27.8867091 0.0669285314 27.8867091"></polygon>
    </defs>
    <g id="v2" stroke="none" stroke-width="1" fill="none" fill-rule="evenodd" transform="translate(-220.000000, -42.000000)">
        <g id="Group" transform="translate(220.000000, 42.000000)">
            <path d="M48.5613374,10.3574339 L43.8880503,10.3574339 L43.8880503,12.3858659 L45.5704337,12.3858659 C46.8022704,12.3858659 47.7788578,12.6843733 48.5002252,13.2813971 C49.2215926,13.8784208 49.5822709,14.6828324 49.5822709,15.6946558 C49.5822709,16.7112745 49.2239891,17.5276743 48.5074148,18.1438795 C47.7908406,18.7600848 46.8382185,19.0729781 45.6495201,19.0825688 L41.7095796,19.0825688 L41.7095796,8.60952972 L48.5613374,8.60952972 L48.5613374,10.3574339 Z M43.8880503,14.1265771 L43.8880503,17.3490507 L45.606382,17.3490507 C46.157593,17.3490507 46.5973569,17.1979987 46.9256869,16.8958903 C47.2540169,16.5937819 47.4181795,16.1885791 47.4181795,15.6802697 C47.4181795,15.2055279 47.2612065,14.8302957 46.9472559,14.5545619 C46.6333053,14.278828 46.2031276,14.1361678 45.6567098,14.1265771 L43.8880503,14.1265771 Z M54.3705927,14.8027211 L53.1267793,14.8027211 L53.1267793,19.0825688 L50.9698776,19.0825688 L50.9698776,8.60952972 L53.1267793,8.60952972 L53.1267793,12.8030612 L54.1117645,12.8030612 L56.6712878,8.60952972 L59.3027079,8.60952972 L56.074545,13.5655214 L59.6406225,19.0825688 L57.0667198,19.0825688 L54.3705927,14.8027211 Z M68.2385389,15.5939535 C68.1570555,16.7208658 67.741257,17.6079962 66.9911307,18.2553714 C66.2410045,18.9027465 65.2524344,19.2264292 64.0253909,19.2264292 C62.683312,19.2264292 61.627639,18.7744722 60.8583402,17.8705447 C60.0890414,16.9666172 59.7043978,15.7258334 59.7043978,14.1481562 L59.7043978,13.5079773 C59.7043978,12.5009492 59.8817413,11.6138188 60.2364335,10.8465594 C60.5911258,10.0792999 61.0979926,9.49067689 61.7570492,9.08067262 C62.4161058,8.67066835 63.1817983,8.46566929 64.0541496,8.46566929 C65.2620206,8.46566929 66.2350132,8.78935202 66.9731565,9.43672718 C67.7112999,10.0841023 68.1378829,10.9928116 68.2529182,12.1628823 L66.0960165,12.1628823 C66.043292,11.4867349 65.8551641,10.9964155 65.5316272,10.6919094 C65.2080904,10.3874033 64.7156027,10.2351525 64.0541496,10.2351525 C63.3351787,10.2351525 62.797157,10.4928999 62.4400681,11.0084023 C62.0829793,11.5239048 61.8996445,12.323521 61.8900582,13.407275 L61.8900582,14.1985073 C61.8900582,15.330215 62.0614103,16.1574042 62.4041198,16.6800997 C62.7468292,17.2027952 63.2872475,17.464139 64.0253909,17.464139 C64.6916372,17.464139 65.1889179,17.3118882 65.5172479,17.0073821 C65.8455779,16.7028761 66.0337058,16.2317379 66.0816372,15.5939535 L68.2385389,15.5939535 Z" id="БКС--Copy-2" fill="#FFFFFF"></path>
            <path d="M81.7660709,15.7593929 C81.6366562,16.8671238 81.2280472,17.7218859 80.5402318,18.3237051 C79.8524164,18.9255242 78.9381388,19.2264292 77.7973718,19.2264292 C76.560742,19.2264292 75.5697754,18.782864 74.8244423,17.8957203 C74.0791092,17.0085765 73.7064482,15.8217399 73.7064482,14.3351747 L73.7064482,13.3281517 C73.7064482,12.3546913 73.8801969,11.4987303 74.2276995,10.7602431 C74.575202,10.0217559 75.0676897,9.45471171 75.7051771,9.05909355 C76.3426646,8.6634754 77.0807969,8.46566929 77.9195962,8.46566929 C79.0316044,8.46566929 79.9231149,8.77616494 80.5941543,9.39716556 C81.2651938,10.0181662 81.6558287,10.8777236 81.7660709,11.9758637 L80.3784642,11.9758637 C80.2586357,11.1414691 79.9986118,10.5372613 79.5983847,10.1632223 C79.1981576,9.78918335 78.638567,9.60216667 77.9195962,9.60216667 C77.0376587,9.60216667 76.3462587,9.92824704 75.8453757,10.5804176 C75.3444927,11.2325881 75.094055,12.1604786 75.094055,13.3641168 L75.094055,14.3783328 C75.094055,15.5148359 75.3313118,16.4187499 75.8058325,17.0901019 C76.2803533,17.7614539 76.9441931,18.0971249 77.7973718,18.0971249 C78.564274,18.0971249 79.152623,17.9232953 79.5624364,17.5756308 C79.9722497,17.2279664 80.2442563,16.6225598 80.3784642,15.7593929 L81.7660709,15.7593929 Z M87.2014633,12.4937612 C87.0001514,12.4601936 86.7820669,12.4434101 86.5472031,12.4434101 C85.6748518,12.4434101 85.082908,12.8150458 84.771354,13.5583284 L84.771354,19.0825688 L83.4412646,19.0825688 L83.4412646,11.2997197 L84.7354056,11.2997197 L84.7569746,12.1988474 C85.1931503,11.5035185 85.8114559,11.1558593 86.6119101,11.1558593 C86.8707396,11.1558593 87.0672554,11.1894264 87.2014633,11.2565616 L87.2014633,12.4937612 Z M91.2337306,17.13326 L93.045528,11.2997197 L94.4690832,11.2997197 L91.3415757,20.2838034 C90.8574687,21.5785537 90.0881814,22.2259191 89.0336909,22.2259191 L88.7820523,22.2043401 L88.2859649,22.1108308 L88.2859649,21.0318776 L88.6454486,21.0606497 C89.0960036,21.0606497 89.4470958,20.969539 89.6987356,20.7873149 C89.9503754,20.6050907 90.1576755,20.2718174 90.3206422,19.7874849 L90.6154188,18.9962526 L87.8402053,11.2997197 L89.2925191,11.2997197 L91.2337306,17.13326 Z M102.22674,15.2774605 C102.22674,16.4619173 101.955931,17.4161819 101.414307,18.140283 C100.872682,18.8643841 100.139343,19.2264292 99.2142669,19.2264292 C98.2700186,19.2264292 97.5270932,18.926723 96.9854685,18.3273016 L96.9854685,22.0748657 L95.6553791,22.0748657 L95.6553791,11.2997197 L96.8704338,11.2997197 L96.9351408,12.1628823 C97.4767655,11.4915303 98.229277,11.1558593 99.1926979,11.1558593 C100.12736,11.1558593 100.866691,11.5083138 101.410712,12.2132334 C101.954733,12.918153 102.22674,13.8987918 102.22674,15.1551791 L102.22674,15.2774605 Z M100.89665,15.1264071 C100.89665,14.2488541 100.709721,13.5559333 100.335856,13.0476239 C99.961991,12.5393145 99.4491328,12.2851636 98.7972659,12.2851636 C97.9920186,12.2851636 97.3880922,12.6424135 96.9854685,13.3569238 L96.9854685,17.0757159 C97.383299,17.7854308 97.9920185,18.140283 98.8116453,18.140283 C99.4491328,18.140283 99.9559996,17.887331 100.332261,17.3814193 C100.708522,16.8755076 100.89665,16.1238443 100.89665,15.1264071 Z M105.72092,9.41514811 L105.72092,11.2997197 L107.173234,11.2997197 L107.173234,12.3283218 L105.72092,12.3283218 L105.72092,17.1548391 C105.72092,17.4665382 105.785627,17.7003091 105.915042,17.8561587 C106.044456,18.0120082 106.264937,18.0899319 106.576491,18.0899319 C106.729872,18.0899319 106.940767,18.0611601 107.209183,18.0036156 L107.209183,19.0825688 C106.859283,19.1784762 106.518976,19.2264292 106.188249,19.2264292 C105.5939,19.2264292 105.145748,19.0466055 104.84378,18.6869526 C104.541813,18.3272998 104.390831,17.8166004 104.390831,17.1548391 L104.390831,12.3283218 L102.974466,12.3283218 L102.974466,11.2997197 L104.390831,11.2997197 L104.390831,9.41514811 L105.72092,9.41514811 Z M108.090234,15.119214 C108.090234,14.35675 108.240017,13.6710221 108.539588,13.0620099 C108.83916,12.4529978 109.256156,11.9830584 109.790591,11.6521778 C110.325026,11.3212971 110.934944,11.1558593 111.620363,11.1558593 C112.679647,11.1558593 113.536407,11.5226997 114.190671,12.2563915 C114.844934,12.9900834 115.172061,13.9659269 115.172061,15.1839512 L115.172061,15.2774605 C115.172061,16.0351292 115.027071,16.7148629 114.737086,17.3166821 C114.447101,17.9185012 114.032501,18.3872417 113.493273,18.7229177 C112.954044,19.0585937 112.334541,19.2264292 111.634742,19.2264292 C110.580252,19.2264292 109.725888,18.8595888 109.071624,18.125897 C108.417361,17.3922051 108.090234,16.4211569 108.090234,15.2127233 L108.090234,15.119214 Z M109.427513,15.2774605 C109.427513,16.1406274 109.627623,16.8335482 110.027851,17.3562437 C110.428078,17.8789392 110.963703,18.140283 111.634742,18.140283 C112.310575,18.140283 112.847398,17.8753427 113.245229,17.3454542 C113.643059,16.8155656 113.841972,16.073493 113.841972,15.119214 C113.841972,14.2656379 113.639465,13.5739159 113.234444,13.0440274 C112.829424,12.5141388 112.291402,12.2491985 111.620363,12.2491985 C110.963703,12.2491985 110.434069,12.5105424 110.031445,13.0332379 C109.628822,13.5559333 109.427513,14.3040001 109.427513,15.2774605 Z M126.467036,14.4574561 L122.074147,14.4574561 L122.074147,19.0825688 L120.693729,19.0825688 L120.693729,8.60952972 L127.178814,8.60952972 L127.178814,9.74602709 L122.074147,9.74602709 L122.074147,13.3281517 L126.467036,13.3281517 L126.467036,14.4574561 Z M133.10208,18.3129155 C132.584421,18.9219277 131.82472,19.2264292 130.822954,19.2264292 C129.993741,19.2264292 129.362254,18.9854654 128.928475,18.5035306 C128.494696,18.0215957 128.275414,17.3082949 128.27062,16.3636067 L128.27062,11.2997197 L129.60071,11.2997197 L129.60071,16.3276416 C129.60071,17.507303 130.080016,18.0971249 131.038644,18.0971249 C132.05479,18.0971249 132.730612,17.7182962 133.066132,16.9606275 L133.066132,11.2997197 L134.396221,11.2997197 L134.396221,19.0825688 L133.130839,19.0825688 L133.10208,18.3129155 Z M137.674712,11.2997197 L137.71785,12.2779706 C138.312199,11.5298926 139.088676,11.1558593 140.047304,11.1558593 C141.69135,11.1558593 142.520551,12.0837498 142.53493,13.9395585 L142.53493,19.0825688 L141.204841,19.0825688 L141.204841,13.9323655 C141.200048,13.371307 141.071833,12.9565136 140.820194,12.6879728 C140.568554,12.419432 140.17672,12.2851636 139.644682,12.2851636 C139.2133,12.2851636 138.834647,12.4002508 138.508714,12.6304287 C138.18278,12.8606065 137.928748,13.1627104 137.746609,13.5367493 L137.746609,19.0825688 L136.416519,19.0825688 L136.416519,11.2997197 L137.674712,11.2997197 Z M144.217314,15.1264071 C144.217314,13.9323595 144.500105,12.9721008 145.065695,12.245602 C145.631285,11.5191032 146.371814,11.1558593 147.287304,11.1558593 C148.198,11.1558593 148.919357,11.4675538 149.451395,12.0909521 L149.451395,8.03408801 L150.781485,8.03408801 L150.781485,19.0825688 L149.55924,19.0825688 L149.494533,18.2481783 C148.962495,18.9003489 148.221966,19.2264292 147.272924,19.2264292 C146.371814,19.2264292 145.637277,18.8571912 145.06929,18.1187039 C144.501303,17.3802167 144.217314,16.4163615 144.217314,15.2271094 L144.217314,15.1264071 Z M145.547403,15.2774605 C145.547403,16.1598089 145.72954,16.850332 146.093818,17.3490507 C146.458097,17.8477693 146.961369,18.0971249 147.603649,18.0971249 C148.447242,18.0971249 149.063151,17.7182962 149.451395,16.9606275 L149.451395,13.3856959 C149.053565,12.6520041 148.442449,12.2851636 147.618029,12.2851636 C146.966162,12.2851636 146.458097,12.5369169 146.093818,13.0404309 C145.72954,13.5439449 145.547403,14.289614 145.547403,15.2774605 Z" id="Crypto-Fund" fill="#FFFFFF"></path>
            <g id="Page-1">
                <path d="M27.3878043,19.6206194 C23.6210607,17.3132666 18.4456936,16.9373482 13.6341376,19.0505994 C10.2570781,20.5337572 7.65072198,22.9834922 6.09149711,25.8157795 C6.13286978,25.8462461 6.17363223,25.8772041 6.21549308,25.9073021 C7.66182792,26.9464831 9.23630819,27.6717845 10.8591176,28.0984397 C12.380265,25.0618542 15.0886493,22.4156834 18.6569505,20.8483739 C21.5645095,19.5713569 24.6052177,19.2034237 27.3878043,19.6206194 Z" id="Fill-1" fill-opacity="0.200000018" fill="#FFFFFF"></path>
                <path d="M11.0502252,14.7985321 C16.5840333,11.7000307 22.9919154,12.1527298 27.080121,15.49005 C26.9290314,15.1298563 26.7601236,14.7745765 26.5677834,14.4265449 C23.2189159,8.36615033 14.8433301,6.62267512 7.86050216,10.5324723 C4.42205496,12.4576415 1.96337117,15.3948419 0.752213718,18.6040304 C1.35364297,20.4634752 2.33474885,22.2025279 3.6601388,23.6931795 C4.74205243,20.1671631 7.31972841,16.8873363 11.0502252,14.7985321" id="Fill-3" fill-opacity="0.200000018" fill="#FFFFFF"></path>
                <path d="M28.1029047,16.6188618 C29.0906009,10.7168198 26.2878771,4.5905781 20.7411324,1.64723519 C13.8245739,-2.02288333 5.26189575,0.64589172 1.61585295,7.6081219 C0.62925512,9.49213655 0.104591086,11.4974033 0,13.4932107 C1.36566423,10.9703804 3.47152093,8.69668827 6.2054123,7.02372847 C13.5199539,2.54759665 22.5575024,4.06515226 26.3916139,10.4135052 C27.5451669,12.3233182 28.095338,14.4527854 28.1029047,16.6188618 Z" id="Fill-5" fill-opacity="0.200000018" fill="#FFFFFF"></path>
                <path d="M11.3311322,6.87368051 C14.0529413,5.23352144 16.1170592,2.9561438 17.3964388,0.434050636 C17.0737564,4.8605514 14.370742,9.3191158 9.86661289,12.033345 C6.70532596,13.9383669 3.21025069,14.6505234 0.0143034725,14.2824674 C0.0138152994,14.2308707 0.0123507801,14.1795198 0.0123507801,14.1278003 C0.0123507801,12.3389937 0.34076923,10.627705 0.938537185,9.050199 C4.27764116,9.56825389 7.99068572,8.88668677 11.3311322,6.87368051" id="Fill-7" fill="#FFFFFF"></path>
                <path d="M12.0633918,16.5787638 C17.4965143,13.3048338 20.3119306,7.49284026 19.4855756,2.26020333 C19.7197766,2.57199449 19.9410411,2.89705335 20.1442431,3.23869685 C23.6828878,9.1888957 20.9939084,17.3614358 14.1381275,21.49273 C10.7622885,23.527112 7.00591854,24.2013082 3.63947688,23.6519268 C2.34044827,22.1977613 1.33517782,20.4728363 0.715686167,18.5721142 C4.29008957,19.3925008 8.40075112,18.7858717 12.0633918,16.5787638" id="Fill-9" fill="#FFFFFF"></path>
                <g id="Group-13" transform="translate(8.298943, 0.614369)">
                    <mask id="mask-2" fill="white">
                        <use xlink:href="#path-1"></use>
                    </mask>
                    <g id="Clip-12"></g>
                    <path d="M15.08057,4.51674576 C13.9400756,2.59919329 12.325199,1.11603544 10.4252294,0.0993358271 C16.0725378,1.97204835 20.1495154,7.3244632 20.1495154,13.6362071 C20.1495154,21.5066611 13.8111979,27.8867091 5.99249561,27.8867091 C3.87663137,27.8867091 1.86962973,27.4187767 0.0669285314,26.5811912 C2.92091049,26.5416337 5.9010852,25.7266524 8.64620455,24.0724886 C15.9907688,19.6464792 18.8716003,10.8912656 15.08057,4.51674576" id="Fill-11" fill="#FFFFFF" mask="url(#mask-2)"></path>
                </g>
            </g>
        </g>
    </g>
</svg>