<svg width="190" height="36" viewBox="0 0 190 36" version="1.1" xmlns="http://www.w3.org/2000/svg" xmlns:xlink="http://www.w3.org/1999/xlink">
<title>Group 2</title>
<desc>Created using Figma</desc>
<g id="Canvas" transform="translate(24 2034)">
<g id="Group 2">
<g id="&#208;&#145;&#208;&#154;&#208;&#161;  Copy 2">
<use xlink:href="#path0_fill" transform="translate(28.3489 -2023.55)" fill="#323232"/>
</g>
<g id="Crypto Fund">
<use xlink:href="#path1_fill" transform="translate(68.4113 -2024.09)" fill="#323232"/>
</g>
<g id="Page 1">
<g id="Fill 1">
<use xlink:href="#path2_fill" transform="translate(-16.3211 -2011.79)" fill="#B7B6B6" fill-opacity="0.5"/>
</g>
<g id="Fill 3">
<use xlink:href="#path3_fill" transform="translate(-23.0518 -2023.38)" fill="#B7B6B6" fill-opacity="0.5"/>
</g>
<g id="Fill 5">
<use xlink:href="#path4_fill" transform="translate(-24 -2034)" fill="#B7B6B6" fill-opacity="0.5"/>
</g>
<g id="Fill 7">
<use xlink:href="#path5_fill" transform="translate(-23.9844 -2033.45)" fill="#323232"/>
</g>
<g id="Fill 9">
<use xlink:href="#path6_fill" transform="translate(-23.0978 -2031.16)" fill="#323232"/>
</g>
<g id="Group 13">
<mask id="mask0_outline" mask-type="alpha">
<g id="Clip 12">
<use xlink:href="#path7_fill" transform="translate(-13.4541 -2033.1)" fill="#FFFFFF"/>
</g>
</mask>
<g id="Fill 11" mask="url(#mask0_outline)">
<use xlink:href="#path8_fill" transform="translate(-13.4541 -2033.1)" fill="#323232"/>
</g>
</g>
</g>
</g>
</g>
<defs>
<path id="path0_fill" fill-rule="evenodd" d="M 8.62142 2.37923L 2.74112 2.37923L 2.74112 4.93038L 4.85803 4.93038C 6.40802 4.93038 7.63684 5.30581 8.54452 6.05668C 9.4522 6.80755 9.90604 7.81925 9.90604 9.09182C 9.90604 10.3704 9.45522 11.3972 8.55357 12.1722C 7.65192 12.9472 6.45325 13.3407 4.95754 13.3528L 0 13.3528L 0 0.180908L 8.62142 0.180908L 8.62142 2.37923ZM 2.74112 7.11963L 2.74112 11.1725L 4.90326 11.1725C 5.59684 11.1725 6.15018 10.9825 6.56331 10.6026C 6.97644 10.2226 7.18301 9.71299 7.18301 9.0737C 7.18301 8.47662 6.98549 8.00469 6.59045 7.6579C 6.19542 7.31111 5.65413 7.13169 4.96659 7.11963L 2.74112 7.11963ZM 15.9311 7.97004L 14.366 7.97004L 14.366 13.3528L 11.652 13.3528L 11.652 0.180908L 14.366 0.180908L 14.366 5.45508L 15.6054 5.45508L 18.826 0.180908L 22.137 0.180908L 18.0751 6.41402L 22.5622 13.3528L 19.3236 13.3528L 15.9311 7.97004ZM 33.3808 8.96519C 33.2783 10.3825 32.7551 11.4982 31.8112 12.3124C 30.8674 13.1266 29.6235 13.5337 28.0795 13.5337C 26.3908 13.5337 25.0625 12.9653 24.0945 11.8284C 23.1265 10.6916 22.6425 9.13105 22.6425 7.14682L 22.6425 6.34167C 22.6425 5.07514 22.8656 3.9594 23.3119 2.99443C 23.7582 2.02945 24.396 1.28914 25.2253 0.773485C 26.0546 0.257826 27.018 0 28.1157 0C 29.6355 0 30.8598 0.407093 31.7886 1.22129C 32.7174 2.03549 33.2542 3.17837 33.3989 4.64996L 30.6849 4.64996C 30.6186 3.79957 30.3819 3.1829 29.9748 2.79993C 29.5677 2.41695 28.948 2.22547 28.1157 2.22547C 27.211 2.22547 26.534 2.54963 26.0847 3.19798C 25.6354 3.84632 25.4047 4.85199 25.3927 6.21502L 25.3927 7.21015C 25.3927 8.63349 25.6083 9.67384 26.0395 10.3312C 26.4707 10.9886 27.1507 11.3173 28.0795 11.3173C 28.9178 11.3173 29.5435 11.1258 29.9567 10.7428C 30.3698 10.3599 30.6065 9.76732 30.6668 8.96519L 33.3808 8.96519Z"/>
<path id="path1_fill" fill-rule="evenodd" d="M 10.1412 9.71611C 9.97841 11.1093 9.46426 12.1843 8.5988 12.9412C 7.73334 13.6981 6.58292 14.0766 5.14752 14.0766C 3.5915 14.0766 2.34458 13.5187 1.40675 12.4029C 0.468911 11.2872 0 9.79452 0 7.92488L 0 6.65835C 0 5.43404 0.218624 4.3575 0.655879 3.42871C 1.09313 2.49992 1.71282 1.78676 2.51496 1.28919C 3.31709 0.791626 4.24587 0.542847 5.30131 0.542847C 6.70053 0.542847 7.8223 0.933355 8.66665 1.71438C 9.511 2.49541 10.0025 3.57647 10.1412 4.95759L 8.39525 4.95759C 8.24447 3.90818 7.91729 3.14827 7.41369 2.67785C 6.9101 2.20742 6.20598 1.97221 5.30131 1.97221C 4.19159 1.97221 3.32162 2.38232 2.69137 3.20255C 2.06112 4.02278 1.746 5.18978 1.746 6.70359L 1.746 7.97916C 1.746 9.40853 2.04453 10.5454 2.64161 11.3897C 3.23869 12.2341 4.07398 12.6563 5.14752 12.6563C 6.1125 12.6563 6.8528 12.4376 7.36846 12.0004C 7.88412 11.5631 8.22638 10.8017 8.39525 9.71611L 10.1412 9.71611ZM 16.9805 5.60894C 16.7272 5.56672 16.4528 5.54561 16.1572 5.54561C 15.0596 5.54561 14.3148 6.01302 13.9227 6.94784L 13.9227 13.8956L 12.2491 13.8956L 12.2491 4.1072L 13.8775 4.1072L 13.9046 5.23803C 14.4535 4.36352 15.2315 3.92627 16.2387 3.92627C 16.5643 3.92627 16.8116 3.96849 16.9805 4.05292L 16.9805 5.60894ZM 22.0542 11.444L 24.3339 4.10718L 26.1252 4.10718L 22.1899 15.4064C 21.5808 17.0348 20.6128 17.849 19.2859 17.849L 18.9693 17.8218L 18.3451 17.7042L 18.3451 16.3472L 18.7974 16.3834C 19.3643 16.3834 19.8061 16.2688 20.1227 16.0397C 20.4394 15.8105 20.7002 15.3913 20.9053 14.7822L 21.2762 13.787L 17.7842 4.10718L 19.6116 4.10718L 22.0542 11.444ZM 35.8865 9.10998C 35.8865 10.5997 35.5457 11.7998 34.8642 12.7105C 34.1827 13.6212 33.2599 14.0766 32.0959 14.0766C 30.9078 14.0766 29.973 13.6996 29.2915 12.9457L 29.2915 17.659L 27.6179 17.659L 27.6179 4.1072L 29.1467 4.1072L 29.2282 5.19279C 29.9097 4.34844 30.8565 3.92627 32.0688 3.92627C 33.2449 3.92627 34.1751 4.36955 34.8597 5.25612C 35.5442 6.14269 35.8865 7.37603 35.8865 8.95618L 35.8865 9.10998ZM 34.2128 8.91997C 34.2128 7.81628 33.9776 6.94479 33.5072 6.3055C 33.0368 5.6662 32.3915 5.34656 31.5712 5.34656C 30.558 5.34656 29.7981 5.79587 29.2915 6.6945L 29.2915 11.3716C 29.7921 12.2642 30.558 12.7105 31.5893 12.7105C 32.3915 12.7105 33.0292 12.3924 33.5027 11.7561C 33.9761 11.1198 34.2128 10.1744 34.2128 8.91997ZM 40.2831 1.73694L 40.2831 4.10715L 42.1105 4.10715L 42.1105 5.40081L 40.2831 5.40081L 40.2831 11.4711C 40.2831 11.8631 40.3645 12.1571 40.5274 12.3531C 40.6902 12.5491 40.9676 12.6471 41.3596 12.6471C 41.5526 12.6471 41.818 12.611 42.1558 12.5386L 42.1558 13.8956C 41.7155 14.0162 41.2873 14.0765 40.8711 14.0765C 40.1233 14.0765 39.5594 13.8503 39.1794 13.398C 38.7995 12.9457 38.6095 12.3034 38.6095 11.4711L 38.6095 5.40081L 36.8273 5.40081L 36.8273 4.10715L 38.6095 4.10715L 38.6095 1.73694L 40.2831 1.73694ZM 43.2644 8.91095C 43.2644 7.952 43.4528 7.08957 43.8298 6.32362C 44.2067 5.55767 44.7314 4.96663 45.4039 4.55049C 46.0764 4.13434 46.8438 3.92627 47.7062 3.92627C 49.0391 3.92627 50.1172 4.38764 50.9404 5.3104C 51.7637 6.23316 52.1753 7.46047 52.1753 8.99237L 52.1753 9.10998C 52.1753 10.0629 51.9928 10.9178 51.628 11.6747C 51.2631 12.4316 50.7414 13.0211 50.0629 13.4433C 49.3844 13.8655 48.6049 14.0766 47.7243 14.0766C 46.3975 14.0766 45.3225 13.6152 44.4992 12.6924C 43.676 11.7697 43.2644 10.5484 43.2644 9.02856L 43.2644 8.91095ZM 44.947 9.10989C 44.947 10.1955 45.1988 11.067 45.7024 11.7244C 46.206 12.3818 46.88 12.7104 47.7243 12.7104C 48.5747 12.7104 49.2502 12.3772 49.7508 11.7108C 50.2514 11.0444 50.5017 10.1111 50.5017 8.91087C 50.5017 7.83733 50.2468 6.96736 49.7372 6.30092C 49.2276 5.63448 48.5506 5.30127 47.7063 5.30127C 46.88 5.30127 46.2136 5.62996 45.707 6.28735C 45.2003 6.94474 44.947 7.88558 44.947 9.10989ZM 66.3875 8.07865L 60.86 8.07865L 60.86 13.8956L 59.1231 13.8956L 59.1231 0.723755L 67.2831 0.723755L 67.2831 2.15312L 60.86 2.15312L 60.86 6.65833L 66.3875 6.65833L 66.3875 8.07865ZM 74.7362 12.9276C 74.0849 13.6936 73.129 14.0765 71.8685 14.0765C 70.8251 14.0765 70.0305 13.7735 69.4847 13.1674C 68.9389 12.5612 68.6629 11.6641 68.6569 10.476L 68.6569 4.10718L 70.3305 4.10718L 70.3305 10.4308C 70.3305 11.9144 70.9336 12.6562 72.1398 12.6562C 73.4184 12.6562 74.2688 12.1798 74.691 11.2269L 74.691 4.10718L 76.3646 4.10718L 76.3646 13.8956L 74.7724 13.8956L 74.7362 12.9276ZM 80.4899 4.1072L 80.5441 5.33754C 81.292 4.39669 82.269 3.92627 83.4752 3.92627C 85.5439 3.92627 86.5873 5.09327 86.6054 7.42731L 86.6054 13.8956L 84.9317 13.8956L 84.9317 7.41826C 84.9257 6.71262 84.7644 6.19094 84.4478 5.8532C 84.1311 5.51546 83.6381 5.34659 82.9686 5.34659C 82.4258 5.34659 81.9494 5.49133 81.5393 5.78082C 81.1292 6.07032 80.8095 6.45027 80.5803 6.9207L 80.5803 13.8956L 78.9067 13.8956L 78.9067 4.1072L 80.4899 4.1072ZM 88.7223 8.91996C 88.7223 7.41821 89.0781 6.2105 89.7898 5.29679C 90.5014 4.38308 91.4332 3.92623 92.5852 3.92623C 93.7311 3.92623 94.6388 4.31824 95.3082 5.10229L 95.3082 0L 96.9818 0L 96.9818 13.8956L 95.4439 13.8956L 95.3625 12.8462C 94.693 13.6664 93.7612 14.0765 92.5671 14.0765C 91.4332 14.0765 90.509 13.6121 89.7943 12.6833C 89.0796 11.7546 88.7223 10.5423 88.7223 9.04661L 88.7223 8.91996ZM 90.3959 9.10995C 90.3959 10.2197 90.6251 11.0881 91.0835 11.7154C 91.5418 12.3426 92.1751 12.6562 92.9832 12.6562C 94.0447 12.6562 94.8197 12.1798 95.3082 11.2269L 95.3082 6.73069C 94.8076 5.80793 94.0387 5.34656 93.0013 5.34656C 92.1811 5.34656 91.5418 5.66319 91.0835 6.29645C 90.6251 6.92972 90.3959 7.86754 90.3959 9.10995Z"/>
<path id="path2_fill" fill-rule="evenodd" d="M 26.8458 2.46713C 22.0975 -0.434815 15.5735 -0.907605 9.50815 1.75022C 5.25108 3.61557 1.96554 6.69658 0 10.2587C 0.0521538 10.297 0.103538 10.336 0.156308 10.3738C 1.97954 11.6808 3.96431 12.593 6.01 13.1296C 7.92754 9.31052 11.3417 5.98246 15.8398 4.01126C 19.5051 2.40517 23.3382 1.94242 26.8458 2.46713Z"/>
<path id="path3_fill" fill-rule="evenodd" d="M 12.9815 7.99015C 19.9574 4.09318 28.0351 4.66254 33.1886 8.85986C 32.9982 8.40685 32.7852 7.96002 32.5428 7.5223C 28.3212 -0.099812 17.7631 -2.29257 8.96062 2.62475C 4.62615 5.04602 1.52677 8.74012 0 12.7763C 0.758154 15.1149 1.99492 17.3021 3.66569 19.1769C 5.02954 14.7422 8.27892 10.6172 12.9815 7.99015Z"/>
<path id="path4_fill" fill-rule="evenodd" d="M 35.4262 20.9013C 36.6712 13.4784 33.1382 5.77345 26.146 2.07163C 17.4271 -2.54425 6.63308 0.812252 2.03692 9.5686C 0.793231 11.9381 0.131846 14.4601 0 16.9702C 1.72154 13.7973 4.37615 10.9377 7.82246 8.83361C 17.0431 3.20401 28.4357 5.11263 33.2689 13.0969C 34.7231 15.4989 35.4166 18.1771 35.4262 20.9013Z"/>
<path id="path5_fill" fill-rule="evenodd" d="M 14.2683 8.09907C 17.6994 6.03626 20.3014 3.17202 21.9142 0C 21.5074 5.56718 18.1 11.1747 12.4222 14.5883C 8.43708 16.9843 4.03123 17.8799 0.00246154 17.417C 0.00184615 17.3522 0 17.2876 0 17.2225C 0 14.9728 0.414 12.8205 1.16754 10.8365C 5.37677 11.488 10.0574 10.6308 14.2683 8.09907Z"/>
<path id="path6_fill" fill-rule="evenodd" d="M 14.3048 18.0083C 21.1537 13.8907 24.7028 6.58105 23.6611 0C 23.9563 0.392137 24.2352 0.800961 24.4914 1.23064C 28.9522 8.71416 25.5625 18.9927 16.9202 24.1886C 12.6646 26.7472 7.92938 27.5952 3.68569 26.9042C 2.04815 25.0753 0.780923 22.9059 0 20.5154C 4.50585 21.5472 9.68769 20.7842 14.3048 18.0083Z"/>
<path id="path7_fill" fill-rule="evenodd" d="M 0 0L 25.3158 0L 25.3158 34.948L 0 34.948L 0 0Z"/>
<path id="path8_fill" fill-rule="evenodd" d="M 18.926 5.55574C 17.4883 3.14405 15.4526 1.2787 13.0575 0C 20.1765 2.3553 25.3158 9.08699 25.3158 17.0252C 25.3158 26.9238 17.3258 34.948 7.46969 34.948C 4.80246 34.948 2.27246 34.3595 0 33.306C 3.59769 33.2563 7.35446 32.2313 10.8149 30.1509C 20.0734 24.5843 23.7049 13.5729 18.926 5.55574Z"/>
</defs>
</svg>
