<?xml version="1.0" encoding="UTF-8"?>
<svg width="190px" height="36px" viewBox="0 0 190 36" version="1.1" xmlns="http://www.w3.org/2000/svg" xmlns:xlink="http://www.w3.org/1999/xlink">
    <!-- Generator: Sketch 48.2 (47327) - http://www.bohemiancoding.com/sketch -->
    <title>Group 2</title>
    <desc>Created with Sketch.</desc>
    <defs>
        <polygon id="path-1" points="0.084369232 0.124933907 25.4001542 0.124933907 25.4001542 35.0729001 0.084369232 35.0729001"></polygon>
    </defs>
    <g id="v2" stroke="none" stroke-width="1" fill="none" fill-rule="evenodd" transform="translate(-220.000000, -1284.000000)">
        <g id="Group-2" transform="translate(220.000000, 1284.000000)">
            <text id="БКС--Copy-2" font-family="Roboto-Bold, Roboto" font-size="18.527452" font-weight="bold" fill="#323232">
                <tspan x="51.2000008" y="23.8000001">Б</tspan>
                <tspan x="62.8067981" y="23.8000001" letter-spacing="-0.281617288">К</tspan>
                <tspan x="74.2133975" y="23.8000001">С </tspan>
            </text>
            <text id="Crypto-Fund" font-family="Roboto-Regular, Roboto" font-size="18.527452" font-weight="normal" fill="#323232">
                <tspan x="91.3347526" y="23.8045043">C</tspan>
                <tspan x="103.39388" y="23.8045043" letter-spacing="0.170452562">r</tspan>
                <tspan x="109.996471" y="23.8045043">yp</tspan>
                <tspan x="129.157185" y="23.8045043" letter-spacing="-0.176010802">t</tspan>
                <tspan x="134.852423" y="23.8045043">o </tspan>
                <tspan x="150.00549" y="23.8045043" letter-spacing="-0.209360197">F</tspan>
                <tspan x="159.837864" y="23.8045043">und</tspan>
            </text>
            <g id="Page-1">
                <path d="M34.5247082,24.6767025 C29.7764004,21.7747626 23.2524003,21.3019728 17.1870156,23.9597926 C12.9299387,25.8251489 9.64440014,28.9061618 7.67886165,32.4683078 C7.7310155,32.5066254 7.78240012,32.545561 7.83516935,32.5834151 C9.65840014,33.8903851 11.6431694,34.8025911 13.6888617,35.3391919 C15.6064002,31.5201018 19.0205541,28.192033 23.518708,26.2208399 C27.1839389,24.6147454 31.0170158,24.1519986 34.5247082,24.6767025 Z" id="Fill-1" fill-opacity="0.5" fill="#B7B6B6"></path>
                <path d="M13.9297694,18.6120003 C20.9056157,14.7150388 28.9833081,15.2843951 34.1368467,19.481717 C33.9463851,19.0287041 33.733462,18.5818715 33.4910005,18.1441548 C29.269462,10.5220431 18.711308,8.32928768 9.9088463,13.2466096 C5.5743847,15.6678801 2.47500004,19.3619745 0.948230783,23.3981463 C1.70638464,25.7367557 2.94315389,27.9239489 4.61392315,29.7987301 C5.97776932,25.3640862 9.22715398,21.2390733 13.9297694,18.6120003" id="Fill-3" fill-opacity="0.5" fill="#B7B6B6"></path>
                <path d="M35.4261544,20.9014149 C36.6712313,13.478462 33.1381543,5.77353485 26.1460004,2.07171505 C17.4270772,-2.54416484 6.63307702,0.812333059 2.03692311,9.56867654 C0.793230781,11.9381873 0.131846156,14.4601959 0,16.9703075 C1.72153849,13.7973633 4.37615391,10.9377581 7.82246166,8.8336894 C17.0430772,3.20409275 28.4356927,5.11271081 33.2689236,13.0969856 C34.7230774,15.4989427 35.4166159,18.1771574 35.4261544,20.9014149 Z" id="Fill-5" fill-opacity="0.5" fill="#B7B6B6"></path>
                <path d="M14.2838771,8.64497524 C17.7149541,6.58215975 20.3169541,3.71791937 21.9297234,0.545902154 C21.5229542,6.1130782 18.1155695,11.7205804 12.4377233,15.1342457 C8.45264628,17.5301771 4.04680006,18.4258509 0.0180307698,17.9629496 C0.0174153852,17.8980569 0.0155692313,17.8334732 0.0155692313,17.768426 C0.0155692313,15.5186577 0.429569238,13.366383 1.18310771,11.3823658 C5.39233854,12.0339195 10.072954,11.1767178 14.2838771,8.64497524" id="Fill-7" fill="#323232"></path>
                <path d="M15.2069541,20.850984 C22.0558773,16.7333874 25.6049542,9.42368769 24.5632619,2.84264039 C24.8584927,3.23477773 25.1374158,3.64360177 25.3935696,4.07328418 C29.8543389,11.5568036 26.4646465,21.8353445 17.8223387,27.0312416 C13.5668002,29.5898683 8.83156936,30.4377996 4.58787699,29.7468468 C2.95033851,27.9179541 1.68310772,25.7485291 0.902184629,23.3580055 C5.40803085,24.3897995 10.5898771,23.6268467 15.2069541,20.850984" id="Fill-9" fill="#323232"></path>
                <g id="Group-13" transform="translate(10.461539, 0.772687)">
                    <mask id="mask-2" fill="white">
                        <use xlink:href="#path-1"></use>
                    </mask>
                    <g id="Clip-12"></g>
                    <path d="M19.0103695,5.68067648 C17.5726772,3.26898546 15.5369848,1.40362921 13.1419079,0.124933907 C20.2608311,2.48023008 25.4002158,9.21192117 25.4002158,17.150153 C25.4002158,27.0487626 17.4102156,35.0729001 7.55406165,35.0729001 C4.88683084,35.0729001 2.3568308,34.4843851 0.084369232,33.4309602 C3.68206159,33.3812091 7.43883088,32.3562134 10.8992925,30.2757841 C20.1577541,24.7092261 23.7892927,13.6978611 19.0103695,5.68067648" id="Fill-11" fill="#323232" mask="url(#mask-2)"></path>
                </g>
            </g>
        </g>
    </g>
</svg>