<?xml version="1.0" encoding="UTF-8"?>
<svg width="50px" height="50px" viewBox="0 0 50 50" version="1.1" xmlns="http://www.w3.org/2000/svg" xmlns:xlink="http://www.w3.org/1999/xlink">
    <!-- Generator: sketchtool 48.2 (47327) - http://www.bohemiancoding.com/sketch -->
    <title>1B7B0B22-DBE8-41B6-B3C9-0E4B368F277A</title>
    <desc>Created with sketchtool.</desc>
    <defs>
        <linearGradient x1="0%" y1="34.078125%" x2="100%" y2="34.0781242%" id="linearGradient-1">
            <stop stop-color="#DAECB6" offset="0%"></stop>
            <stop stop-color="#66C8BF" offset="100%"></stop>
        </linearGradient>
    </defs>
    <g id="v2" stroke="none" stroke-width="1" fill="none" fill-rule="evenodd" transform="translate(-538.000000, -6881.000000)">
        <g id="send" transform="translate(538.000000, 6881.000000)">
            <rect id="Rectangle" x="0" y="0" width="50" height="50"></rect>
            <circle id="Oval" stroke="url(#linearGradient-1)" stroke-width="2" cx="25" cy="25" r="24"></circle>
            <path d="M35.214395,13.5465573 L31.6430346,34.9747197 C31.5965323,35.2444332 31.4477271,35.4536905 31.1966146,35.6024979 C31.0664081,35.6769016 30.9222531,35.7141029 30.7641452,35.7141029 C30.6618401,35.7141029 30.5502362,35.6908521 30.4293301,35.6443498 L24.1096963,33.0634839 L20.7336446,37.1789187 C20.5662363,37.3928294 20.3383783,37.4997831 20.0500639,37.4997831 C19.9291579,37.4997831 19.8268543,37.4811825 19.7431502,37.4439806 C19.5664413,37.3788774 19.4246114,37.2695985 19.317656,37.1161409 C19.2107007,36.9626832 19.1572238,36.7929523 19.1572238,36.606943 L19.1572238,31.7381743 L31.2105652,16.9644608 L16.2973454,29.8687904 L10.7868479,27.6087889 C10.4427307,27.4785824 10.2567242,27.2228234 10.2288228,26.8415044 C10.2102219,26.4694858 10.3590271,26.1951263 10.6752429,26.0184174 L33.8890855,12.6258159 C34.0285925,12.5421117 34.1773977,12.5002603 34.3355056,12.5002603 C34.5215149,12.5002603 34.6889207,12.5514121 34.8377281,12.6537172 C35.1446434,12.8769283 35.2701978,13.1745387 35.214395,13.5465573 Z" id="Shape" fill="url(#linearGradient-1)"></path>
        </g>
    </g>
</svg>