<svg width="50" height="50" viewBox="0 0 50 50" version="1.1" xmlns="http://www.w3.org/2000/svg" xmlns:xlink="http://www.w3.org/1999/xlink">
<title>facebook</title>
<desc>Created using Figma</desc>
<g id="Canvas" transform="translate(-811 -3563)">
<g id="facebook">
<g id="Oval">
<mask id="mask0_outline_ins">
<use xlink:href="#path0_fill" fill="white" transform="translate(811 3563)"/>
</mask>
<g mask="url(#mask0_outline_ins)">
<use xlink:href="#path1_stroke_2x" transform="translate(811 3563)" fill="url(#paint0_linear)"/>
</g>
</g>
<g id="Shape">
<use xlink:href="#path2_fill" transform="translate(829.182 3576.64)" fill="url(#paint1_linear)"/>
</g>
</g>
</g>
<defs>
<linearGradient id="paint0_linear" x1="0" y1="0" x2="1" y2="0" gradientUnits="userSpaceOnUse" gradientTransform="matrix(50 -4.17233e-07 4.17233e-07 50 -4.72372e-15 17.0391)">
<stop offset="0" stop-color="#DAECB6"/>
<stop offset="1" stop-color="#66C8BF"/>
</linearGradient>
<linearGradient id="paint1_linear" x1="0" y1="0" x2="1" y2="0" gradientUnits="userSpaceOnUse" gradientTransform="matrix(12.5 -2.18099e-07 1.04308e-07 26.1364 -1.18093e-15 8.90678)">
<stop offset="0" stop-color="#DAECB6"/>
<stop offset="1" stop-color="#66C8BF"/>
</linearGradient>
<path id="path0_fill" fill-rule="evenodd" d="M 25 50C 38.8071 50 50 38.8071 50 25C 50 11.1929 38.8071 0 25 0C 11.1929 0 0 11.1929 0 25C 0 38.8071 11.1929 50 25 50Z"/>
<path id="path1_stroke_2x" d="M 25 52C 39.9117 52 52 39.9117 52 25L 48 25C 48 37.7025 37.7025 48 25 48L 25 52ZM 52 25C 52 10.0883 39.9117 -2 25 -2L 25 2C 37.7025 2 48 12.2975 48 25L 52 25ZM 25 -2C 10.0883 -2 -2 10.0883 -2 25L 2 25C 2 12.2975 12.2975 2 25 2L 25 -2ZM -2 25C -2 39.9117 10.0883 52 25 52L 25 48C 12.2975 48 2 37.7025 2 25L -2 25Z"/>
<path id="path2_fill" fill-rule="evenodd" d="M 8.31217 26.1364L 2.76959 26.1364L 2.76959 13.0665L 0 13.0665L 0 8.56311L 2.76959 8.56311L 2.76959 5.8594C 2.76959 2.18573 4.33262 0 8.77616 0L 12.4746 0L 12.4746 4.50507L 10.1631 4.50507C 8.43324 4.50507 8.31894 5.1344 8.31894 6.30892L 8.31132 8.56311L 12.5 8.56311L 12.0098 13.0665L 8.31132 13.0665L 8.31132 26.1364L 8.31217 26.1364Z"/>
</defs>
</svg>
