<svg width="50" height="50" viewBox="0 0 50 50" version="1.1" xmlns="http://www.w3.org/2000/svg" xmlns:xlink="http://www.w3.org/1999/xlink">
<title>twitter</title>
<desc>Created using Figma</desc>
<g id="Canvas" transform="translate(-466 -3563)">
<g id="twitter">
<g id="Oval">
<mask id="mask0_outline_ins">
<use xlink:href="#path0_fill" fill="white" transform="translate(466 3563)"/>
</mask>
<g mask="url(#mask0_outline_ins)">
<use xlink:href="#path1_stroke_2x" transform="translate(466 3563)" fill="url(#paint0_linear)"/>
</g>
</g>
<g id="Shape">
<use xlink:href="#path2_fill" transform="translate(479.636 3578.91)" fill="url(#paint1_linear)"/>
</g>
</g>
</g>
<defs>
<linearGradient id="paint0_linear" x1="0" y1="0" x2="1" y2="0" gradientUnits="userSpaceOnUse" gradientTransform="matrix(50 -4.17233e-07 4.17233e-07 50 -4.72372e-15 17.0391)">
<stop offset="0" stop-color="#DAECB6"/>
<stop offset="1" stop-color="#66C8BF"/>
</linearGradient>
<linearGradient id="paint1_linear" x1="0" y1="0" x2="1" y2="0" gradientUnits="userSpaceOnUse" gradientTransform="matrix(23.8636 -1.70686e-07 1.99134e-07 20.4545 -2.2545e-15 6.97053)">
<stop offset="0" stop-color="#DAECB6"/>
<stop offset="1" stop-color="#66C8BF"/>
</linearGradient>
<path id="path0_fill" fill-rule="evenodd" d="M 25 50C 38.8071 50 50 38.8071 50 25C 50 11.1929 38.8071 0 25 0C 11.1929 0 0 11.1929 0 25C 0 38.8071 11.1929 50 25 50Z"/>
<path id="path1_stroke_2x" d="M 25 52C 39.9117 52 52 39.9117 52 25L 48 25C 48 37.7025 37.7025 48 25 48L 25 52ZM 52 25C 52 10.0883 39.9117 -2 25 -2L 25 2C 37.7025 2 48 12.2975 48 25L 52 25ZM 25 -2C 10.0883 -2 -2 10.0883 -2 25L 2 25C 2 12.2975 12.2975 2 25 2L 25 -2ZM -2 25C -2 39.9117 10.0883 52 25 52L 25 48C 12.2975 48 2 37.7025 2 25L -2 25Z"/>
<path id="path2_fill" fill-rule="evenodd" d="M 21.0524 3.23379C 22.0637 2.5956 22.8397 1.58365 23.2039 0.378186C 22.257 0.970579 21.2107 1.39899 20.0944 1.63093C 19.2035 0.626371 17.9303 0 16.5212 0C 13.8179 0 11.6272 2.31196 11.6272 5.16313C 11.6272 5.5679 11.6678 5.96234 11.7518 6.33905C 7.68421 6.12336 4.07742 4.06993 1.66122 0.943988C 1.23961 1.70922 0.998695 2.5956 0.998695 3.54106C 0.998695 5.33154 1.86292 6.91224 3.17678 7.83997C 2.37418 7.81338 1.6192 7.57849 0.958075 7.1944L 0.958075 7.25792C 0.958075 9.76045 2.64451 11.8479 4.88702 12.3206C 4.47522 12.4417 4.04381 12.5023 3.59558 12.5023C 3.28043 12.5023 2.97227 12.4713 2.67533 12.4107C 3.29724 14.4612 5.10553 15.9562 7.2486 15.9961C 5.57196 17.3818 3.46112 18.2061 1.16818 18.2061C 0.773183 18.2061 0.38239 18.184 0 18.1352C 2.16687 19.5992 4.73995 20.4545 7.50492 20.4545C 16.5114 20.4545 21.4334 12.5865 21.4334 5.76291C 21.4334 5.53836 21.4306 5.31529 21.4208 5.09517C 22.3775 4.36687 23.2095 3.45686 23.8636 2.42128C 22.9854 2.83196 22.0413 3.10969 21.0524 3.23379Z"/>
</defs>
</svg>
