<?xml version="1.0" encoding="UTF-8"?>
<svg width="50px" height="50px" viewBox="0 0 50 50" version="1.1" xmlns="http://www.w3.org/2000/svg" xmlns:xlink="http://www.w3.org/1999/xlink">
    <!-- Generator: Sketch 48.2 (47327) - http://www.bohemiancoding.com/sketch -->
    <title>Group 14</title>
    <desc>Created with Sketch.</desc>
    <defs>
        <linearGradient x1="0%" y1="50%" x2="100%" y2="50%" id="linearGradient-1">
            <stop stop-color="#C2E5B8" offset="0%"></stop>
            <stop stop-color="#71CBBE" offset="100%"></stop>
        </linearGradient>
        <linearGradient x1="0%" y1="34.078125%" x2="100%" y2="34.0781242%" id="linearGradient-2">
            <stop stop-color="#DAECB6" offset="0%"></stop>
            <stop stop-color="#66C8BF" offset="100%"></stop>
        </linearGradient>
    </defs>
    <g id="v2" stroke="none" stroke-width="1" fill="none" fill-rule="evenodd" transform="translate(-883.000000, -6881.000000)">
        <g id="Group-14" transform="translate(883.000000, 6881.000000)">
            <path d="M24.9951845,37.7187755 C17.5022514,37.7187755 11.4154472,32.026898 11.4154472,24.9909796 C11.4154472,21.6353878 12.811945,18.5774694 15.0848655,16.3043265 C17.5600375,13.8327347 21.0849906,12.2812245 24.9951845,12.2812245 C32.4977486,12.2812245 38.5749218,17.9821224 38.5749218,25 C38.5749218,32.026898 32.4881176,37.7187755 24.9951845,37.7187755 Z M30.5208531,25.4203894 C30.154484,24.944348 29.6016274,24.6173697 28.8623167,24.4396547 C29.8037827,23.9571091 30.2175206,23.1381124 30.1039286,21.9825313 C30.0659539,21.5634934 29.9507022,21.2003251 29.7579078,20.8924925 C29.5649806,20.5845933 29.3046351,20.3370664 28.9758755,20.1498119 C28.6473814,19.9623239 28.2901076,19.8195982 27.904884,19.7212012 C27.5195607,19.6228042 27.0771759,19.551358 26.5780282,19.5069626 L26.5780282,17.1071429 L25.1186595,17.1071429 L25.1186595,19.4402861 C24.8659488,19.4402861 24.4805592,19.4466235 23.9625238,19.4593317 L23.9625238,17.1071429 L22.5029559,17.1071429 L22.5029559,19.5069626 C22.2943941,19.5133333 21.9880077,19.5165688 21.5836639,19.5165688 L19.5745257,19.5069626 L19.5745257,21.0687733 L20.6264304,21.0687733 C21.1066239,21.0687733 21.3877824,21.2846797 21.4699059,21.7163257 L21.4699059,24.4494944 C21.5331749,24.4494944 21.5836639,24.4527632 21.6216053,24.4591006 L21.4699059,24.4591006 L21.4699059,28.2872113 C21.4194169,28.6109208 21.2362157,28.7729257 20.9202692,28.7729257 L19.868431,28.7729257 L19.5745921,30.5156868 L21.4700719,30.5156868 C21.5901368,30.5156868 21.7637779,30.5172878 21.9913271,30.5201564 C22.2187435,30.5233584 22.3892643,30.5249595 22.5030223,30.5249595 L22.5030223,32.9532976 L23.9628226,32.9532976 L23.9628226,30.5535113 C24.228114,30.5600155 24.6135037,30.5631175 25.1189583,30.5631175 L25.1189583,32.9532976 L26.5783602,32.9532976 L26.5783602,30.5249595 C27.0965615,30.4996097 27.5561744,30.4522458 27.9571987,30.3821671 C28.3584222,30.3120884 28.7423513,30.202751 29.1087204,30.0534543 C29.4750563,29.9043579 29.7814427,29.7185376 30.0278133,29.4963271 C30.2743166,29.2743168 30.4778993,28.9916672 30.6392916,28.6487786 C30.8001527,28.3058901 30.9029565,27.9091 30.947039,27.4582415 C31.0295276,26.5760039 30.8872886,25.8966309 30.5208531,25.4203894 Z M23.9909052,21.1732409 C24.0351536,21.1732409 24.1599323,21.1716398 24.3652742,21.1684378 C24.5707158,21.165169 24.7412366,21.1620336 24.877069,21.1588316 C25.0129347,21.1556962 25.196169,21.1636347 25.4268717,21.1826803 C25.6574748,21.201726 25.8517297,21.2271758 26.0096366,21.258863 C26.1675434,21.2905501 26.3414501,21.3429507 26.5308255,21.4159646 C26.7205328,21.4889118 26.8720663,21.577836 26.9856583,21.6825705 C27.0994827,21.7873049 27.1958135,21.9206913 27.2746507,22.082596 C27.3537203,22.2444675 27.3932219,22.4301543 27.3932219,22.6396232 C27.3932219,22.8174049 27.3648405,22.979343 27.3080445,23.1254376 C27.2513481,23.2714321 27.1658387,23.3936778 27.0522467,23.4920748 C26.9386215,23.5905052 26.8215108,23.6762941 26.7014459,23.7492413 C26.5815137,23.8221885 26.4281545,23.8809598 26.241833,23.9253552 C26.0555448,23.9698173 25.8928579,24.0047399 25.7539384,24.0300897 C25.6149193,24.0555061 25.4412118,24.0730175 25.2326831,24.0824903 C25.0241212,24.0919631 24.8661148,24.0984339 24.7587634,24.1015693 C24.6513124,24.1047046 24.5044593,24.1047046 24.3180051,24.1015693 C24.1315177,24.0984339 24.0226725,24.0967662 23.9910048,24.0967662 L23.9910048,21.1732075 L23.9909052,21.1732075 L23.9909052,21.1732409 Z M27.9762524,27.6583377 C27.9160705,27.8044322 27.8387934,27.9314811 27.7440892,28.0394843 C27.6492189,28.1472207 27.5243739,28.2425491 27.3696538,28.3249691 C27.2149668,28.4076226 27.0647611,28.4741656 26.9195678,28.5249652 C26.7741753,28.5759649 26.5987749,28.6201601 26.3936321,28.6583849 C26.1880245,28.6965095 26.0080764,28.7233269 25.8531239,28.7393039 C25.6984037,28.7552142 25.5136756,28.7678557 25.2987736,28.7774619 C25.0840375,28.7868013 24.9165043,28.7916378 24.7965057,28.7916378 C24.6764407,28.7916378 24.5247744,28.7899033 24.3415401,28.7868013 C24.1582061,28.7838327 24.0414274,28.7822317 23.9908388,28.7822317 L23.9908388,25.5633152 C24.0413279,25.5633152 24.1914008,25.5602132 24.4410244,25.5537424 C24.6906812,25.5473382 24.8943302,25.5443696 25.0523035,25.5443696 C25.2102435,25.5443696 25.428299,25.5537424 25.7064037,25.5729215 C25.9842427,25.5918337 26.2180325,25.6202854 26.4077398,25.6583768 C26.5972147,25.6965348 26.8039841,25.7551727 27.0284462,25.8346241 C27.2526759,25.9139421 27.4344165,26.0107381 27.5734688,26.1250121 C27.7124879,26.2394861 27.8292998,26.3852805 27.9240373,26.5630956 C28.0190071,26.7408106 28.0663758,26.9440087 28.0663758,27.1726234 C28.0663426,27.3505719 28.0363679,27.5122098 27.9762524,27.6583377 Z" id="Combined-Shape" fill="url(#linearGradient-1)" fill-rule="nonzero"></path>
            <circle id="Oval" stroke="url(#linearGradient-2)" stroke-width="2" cx="25" cy="25" r="24"></circle>
        </g>
    </g>
</svg>