<?xml version="1.0" encoding="utf-8"?>
<!-- Generator: Adobe Illustrator 17.0.0, SVG Export Plug-In . SVG Version: 6.00 Build 0)  -->
<!DOCTYPE svg PUBLIC "-//W3C//DTD SVG 1.1//EN" "http://www.w3.org/Graphics/SVG/1.1/DTD/svg11.dtd">
<svg version="1.1" id="Layer_1" xmlns="http://www.w3.org/2000/svg" xmlns:xlink="http://www.w3.org/1999/xlink" x="0px" y="0px"
	 width="50px" height="50.008px" viewBox="83.346 4.996 50 50.008" enable-background="new 83.346 4.996 50 50.008"
	 xml:space="preserve">
<path fill="#66C8BF" d="M108.346,15c-8.284,0-15,6.716-15,15c0,2.941,0.846,5.685,2.309,8c0,0,0.426,2.469-0.846,4.983
	c-0.347,0.686-0.82,1.374-1.463,2.017c0.952,0,1.812-0.023,2.586-0.063c4.921-0.253,6.414-1.185,6.414-1.185
	c1.837,0.803,3.867,1.248,6,1.248c8.284,0,15-6.716,15-15S116.631,15,108.346,15z M109.902,36.661V38.5h-2v-1.833h-0.722V38.5h-2
	v-1.833h-0.056h-1.778v-2h1.778v-4.233v-1v-1V25.05h-1.778v-2h1.778h0.056V21.5h2v1.55h0.722V21.5h2v1.555
	c2.115,0.099,3.611,1.616,3.611,3.686c0,1.101-0.423,2.045-1.137,2.703c0.866,0.755,1.415,1.866,1.415,3.105
	C113.791,34.748,112.063,36.545,109.902,36.661z M111.791,32.55c0,1.169-0.952,2.117-2.111,2.117h-2.556v-4.233h2.556
	C110.839,30.433,111.791,31.381,111.791,32.55z M109.68,28.433h-2.556V25.05h2.556c1.191,0,1.833,0.717,1.833,1.692
	S110.871,28.433,109.68,28.433z M108.35,6.996c12.684,0,23.004,10.32,23.004,23.004s-10.32,23.004-23.004,23.004
	S85.346,42.684,85.346,30S95.666,6.996,108.35,6.996 M108.35,4.996C94.541,4.996,83.346,16.191,83.346,30
	s11.195,25.004,25.004,25.004S133.354,43.809,133.354,30S122.16,4.996,108.35,4.996L108.35,4.996z"/>
</svg>
