<svg width="50" height="50" viewBox="0 0 50 50" version="1.1" xmlns="http://www.w3.org/2000/svg" xmlns:xlink="http://www.w3.org/1999/xlink">
<title>github</title>
<desc>Created using Figma</desc>
<g id="Canvas" transform="translate(-121 -3563)">
<g id="github">
<g id="Oval">
<mask id="mask0_outline_ins">
<use xlink:href="#path0_fill" fill="white" transform="translate(121 3563)"/>
</mask>
<g mask="url(#mask0_outline_ins)">
<use xlink:href="#path1_stroke_2x" transform="translate(121 3563)" fill="url(#paint0_linear)"/>
</g>
</g>
<g id="Shape">
<use xlink:href="#path2_fill" transform="translate(132.364 3574.36)" fill="url(#paint1_linear)"/>
</g>
</g>
</g>
<defs>
<linearGradient id="paint0_linear" x1="0" y1="0" x2="1" y2="0" gradientUnits="userSpaceOnUse" gradientTransform="matrix(50 -4.17233e-07 4.17233e-07 50 -4.72372e-15 17.0391)">
<stop offset="0" stop-color="#DAECB6"/>
<stop offset="1" stop-color="#66C8BF"/>
</linearGradient>
<linearGradient id="paint1_linear" x1="0" y1="0" x2="1" y2="0" gradientUnits="userSpaceOnUse" gradientTransform="matrix(27.2727 -2.27581e-07 2.27581e-07 27.2727 -2.57658e-15 9.29403)">
<stop offset="0" stop-color="#DAECB6"/>
<stop offset="1" stop-color="#66C8BF"/>
</linearGradient>
<path id="path0_fill" fill-rule="evenodd" d="M 25 50C 38.8071 50 50 38.8071 50 25C 50 11.1929 38.8071 0 25 0C 11.1929 0 0 11.1929 0 25C 0 38.8071 11.1929 50 25 50Z"/>
<path id="path1_stroke_2x" d="M 25 52C 39.9117 52 52 39.9117 52 25L 48 25C 48 37.7025 37.7025 48 25 48L 25 52ZM 52 25C 52 10.0883 39.9117 -2 25 -2L 25 2C 37.7025 2 48 12.2975 48 25L 52 25ZM 25 -2C 10.0883 -2 -2 10.0883 -2 25L 2 25C 2 12.2975 12.2975 2 25 2L 25 -2ZM -2 25C -2 39.9117 10.0883 52 25 52L 25 48C 12.2975 48 2 37.7025 2 25L -2 25Z"/>
<path id="path2_fill" fill-rule="evenodd" d="M 0 13.9823C 0 20.1589 3.90687 25.3999 9.32558 27.2488C 10.0078 27.3775 10.2565 26.9458 10.2565 26.575C 10.2565 26.2428 10.2447 25.3639 10.2381 24.1974C 6.44503 25.042 5.64474 22.3228 5.64474 22.3228C 5.02443 20.7074 4.13038 20.2774 4.13038 20.2774C 2.89227 19.4096 4.22414 19.4276 4.22414 19.4276C 5.59284 19.5263 6.31277 20.8687 6.31277 20.8687C 7.52995 23.0051 9.50473 22.388 10.2816 22.0301C 10.4055 21.1262 10.7579 20.5108 11.1472 20.1606C 8.11928 19.8078 4.93569 18.6087 4.93569 13.251C 4.93569 11.724 5.46727 10.476 6.33956 9.49836C 6.19976 9.14472 5.7318 7.72332 6.4735 5.79893C 6.4735 5.79893 7.61868 5.42212 10.223 7.23149C 11.3112 6.92163 12.4774 6.76627 13.6368 6.76112C 14.7954 6.76627 15.9615 6.92163 17.0514 7.23149C 19.654 5.42212 20.7976 5.79893 20.7976 5.79893C 21.5409 7.72332 21.073 9.14472 20.9332 9.49836C 21.8071 10.476 22.3345 11.724 22.3345 13.251C 22.3345 18.6216 19.1467 19.8036 16.1088 20.1503C 16.5985 20.5821 17.0338 21.4353 17.0338 22.7391C 17.0338 24.6085 17.0179 26.1166 17.0179 26.575C 17.0179 26.9492 17.2632 27.3835 17.9555 27.2471C 23.3692 25.3948 27.2727 20.158 27.2727 13.9823C 27.2727 6.25985 21.1667 0 13.6351 0C 6.106 0 0 6.25985 0 13.9823Z"/>
</defs>
</svg>
