<svg xmlns="http://www.w3.org/2000/svg" width="50" height="50" viewBox="0 0 50 50">
    <g fill="none" fill-rule="evenodd">
        <path d="M0 0h50v50H0z"/>
        <circle cx="25" cy="25" r="24" stroke="#66c8bf" stroke-width="2"/>
        <path fill="#66c8bf" d="M11.364 25.346c0 6.177 3.907 11.418 9.325 13.266.682.13.931-.303.931-.673 0-.333-.012-1.212-.018-2.378-3.793.845-4.594-1.875-4.594-1.875-.62-1.615-1.514-2.045-1.514-2.045-1.238-.868.094-.85.094-.85 1.368.099 2.088 1.441 2.088 1.441 1.218 2.137 3.192 1.52 3.97 1.162.123-.904.476-1.52.865-1.87-3.028-.353-6.212-1.552-6.212-6.91 0-1.526.532-2.774 1.404-3.752-.14-.354-.608-1.775.134-3.7 0 0 1.145-.376 3.75 1.433a12.763 12.763 0 0 1 3.413-.47c1.159.005 2.325.16 3.415.47 2.603-1.81 3.746-1.432 3.746-1.432.744 1.924.276 3.345.136 3.699.874.978 1.401 2.226 1.401 3.753 0 5.37-3.188 6.552-6.226 6.899.49.432.925 1.285.925 2.589 0 1.87-.015 3.377-.015 3.836 0 .374.245.808.937.672 5.414-1.853 9.317-7.09 9.317-13.265 0-7.723-6.106-13.982-13.637-13.982-7.53 0-13.635 6.26-13.635 13.982z"/>
    </g>
</svg>
