<svg xmlns="http://www.w3.org/2000/svg" width="50" height="50" viewBox="0 0 50 50">
    <g fill="none" fill-rule="evenodd">
        <path d="M0 0h50v50H0z"/>
        <circle cx="25" cy="25" r="24" stroke="#66c8bf" stroke-width="2"/>
        <path fill="#66c8bf" d="M35.214 13.547l-3.571 21.428a.88.88 0 0 1-.446.627.856.856 0 0 1-.768.042l-6.32-2.58-3.375 4.115a.821.821 0 0 1-.684.32.754.754 0 0 1-.307-.055.876.876 0 0 1-.425-.328.87.87 0 0 1-.16-.51v-4.868L31.21 16.964 16.297 29.87l-5.51-2.26c-.344-.13-.53-.386-.558-.767-.019-.373.13-.647.446-.824L33.89 12.626a.853.853 0 0 1 .447-.126c.186 0 .353.051.502.154.307.223.432.52.376.893z"/>
    </g>
</svg>
