<svg xmlns="http://www.w3.org/2000/svg" width="20" height="35" viewBox="0 0 20 35"><defs><linearGradient id="a" x1="396.02" x2="371.98" y1="256.92" y2="256.92" gradientUnits="userSpaceOnUse"><stop offset="0" stop-color="#0ed8be"/><stop offset="1" stop-color="#16b769"/></linearGradient></defs><path fill="#fff" d="M1.18 17.24L17.44 1.21a.98.98 0 0 1 1.38 0c.38.37.38.98 0 1.36L3.25 17.92l15.57 15.36c.38.37.38.98 0 1.36a.99.99 0 0 1-.69.28c-.24 0-.5-.1-.68-.28L1.18 18.6a.95.95 0 0 1 0-1.36z"/><path fill="url(#a)" d="M375.18 256.24l16.26-16.03a.98.98 0 0 1 1.38 0c.38.37.38.98 0 1.36l-15.57 15.35 15.57 15.36c.38.37.38.98 0 1.36a.99.99 0 0 1-.69.28c-.24 0-.5-.1-.68-.28l-16.27-16.04a.95.95 0 0 1 0-1.36z" transform="translate(-374 -239)"/></svg>