<svg xmlns="http://www.w3.org/2000/svg" width="20" height="35" viewBox="0 0 20 35"><defs><linearGradient id="a" x1="533.02" x2="508.98" y1="256.92" y2="256.92" gradientUnits="userSpaceOnUse"><stop offset="0" stop-color="#0ed8be"/><stop offset="1" stop-color="#16b769"/></linearGradient></defs><path fill="#fff" d="M18.82 17.24L2.56 1.21a.98.98 0 0 0-1.38 0 .95.95 0 0 0 0 1.36l15.57 15.35L1.18 33.28a.95.95 0 0 0 0 1.36c.19.18.44.28.69.28.24 0 .5-.1.68-.28L18.82 18.6a.95.95 0 0 0 0-1.36z"/><path fill="url(#a)" d="M529.82 256.24l-16.26-16.03a.98.98 0 0 0-1.38 0 .95.95 0 0 0 0 1.36l15.57 15.35-15.57 15.36a.95.95 0 0 0 0 1.36c.19.18.44.28.69.28.24 0 .5-.1.68-.28l16.27-16.04a.95.95 0 0 0 0-1.36z" transform="translate(-511 -239)"/></svg>