<svg xmlns="http://www.w3.org/2000/svg" width="19" height="20" viewBox="0 0 19 20"><path fill="#fff" d="M16.87 4.58c.73-1 1.15-2.02 1.13-2.74a.97.97 0 0 0-.16-.55.44.44 0 0 0-.08-.1l-.1-.07c-.15-.09-.34-.13-.59-.12a5.4 5.4 0 0 0-2.76 1.24c-.8.61-1.58 1.46-2.68 2.64l-.59.63-2.2-.57h.01a.46.46 0 0 0-.02-.67l-.4-.37a.5.5 0 0 0-.35-.13.5.5 0 0 0-.34.15l-.58.59-.31-.08c.06-.09.1-.2.1-.3a.45.45 0 0 0-.16-.33l-.4-.37a.5.5 0 0 0-.7.02L5.18 4l-2.23-.58a.59.59 0 0 0-.57.16l-.76.77a.43.43 0 0 0 .12.7l4.73 2.38.12.08 1.36 1.25a51.36 51.36 0 0 0-3.33 3.94l-3.62-.21a.68.68 0 0 0-.5.19l-.36.36a.43.43 0 0 0-.13.31c0 .17.11.33.27.4l2.57 1.08.1.07.22.2c-.06.17-.09.33-.09.47 0 .18.07.33.2.44v.01c.13.11.28.17.47.16.14 0 .3-.04.49-.11l.21.2.07.09 1.27 2.41c.08.15.24.25.42.25.12 0 .23-.06.32-.14l.36-.38a.63.63 0 0 0 .16-.47l-.43-3.5.3-.22a52.11 52.11 0 0 0 3.6-3.21l1.36 1.24.1.11 2.71 4.42a.46.46 0 0 0 .73.08l.77-.77a.57.57 0 0 0 .12-.55l-.72-2.13.52-.53a.46.46 0 0 0 .14-.34.47.47 0 0 0-.15-.33l-.41-.37a.5.5 0 0 0-.65-.02l-.1-.3.58-.59a.46.46 0 0 0-.02-.66l-.4-.37a.5.5 0 0 0-.7.02l-.72-2.09.63-.6c1.15-1.13 1.99-1.93 2.57-2.73z"/></svg>