<?xml version="1.0" encoding="UTF-8" standalone="no"?>
<svg
   xmlns:dc="http://purl.org/dc/elements/1.1/"
   xmlns:cc="http://creativecommons.org/ns#"
   xmlns:rdf="http://www.w3.org/1999/02/22-rdf-syntax-ns#"
   xmlns:svg="http://www.w3.org/2000/svg"
   xmlns="http://www.w3.org/2000/svg"
   viewBox="0 0 502.01126 494.94"
   height="494.94"
   width="502.01126"
   xml:space="preserve"
   version="1.1"
   id="svg2"><metadata
     id="metadata8"><rdf:RDF><cc:Work
         rdf:about=""><dc:format>image/svg+xml</dc:format><dc:type
           rdf:resource="http://purl.org/dc/dcmitype/StillImage" /></cc:Work></rdf:RDF></metadata><defs
     id="defs6"><clipPath
       id="clipPath16"
       clipPathUnits="userSpaceOnUse"><path
         id="path18"
         d="m 0,395.952 401.609,0 L 401.609,0 0,0 0,395.952 Z" /></clipPath><clipPath
       id="clipPath68"
       clipPathUnits="userSpaceOnUse"><path
         id="path70"
         d="m 0,395.952 401.609,0 L 401.609,0 0,0 0,395.952 Z" /></clipPath><clipPath
       id="clipPath88"
       clipPathUnits="userSpaceOnUse"><path
         id="path90"
         d="m 0,395.952 401.609,0 L 401.609,0 0,0 0,395.952 Z" /></clipPath><clipPath
       id="clipPath108"
       clipPathUnits="userSpaceOnUse"><path
         id="path110"
         d="m 0,395.952 401.609,0 L 401.609,0 0,0 0,395.952 Z" /></clipPath><clipPath
       id="clipPath128"
       clipPathUnits="userSpaceOnUse"><path
         id="path130"
         d="m 0,395.952 401.609,0 L 401.609,0 0,0 0,395.952 Z" /></clipPath><clipPath
       id="clipPath148"
       clipPathUnits="userSpaceOnUse"><path
         id="path150"
         d="m 0,395.952 401.609,0 L 401.609,0 0,0 0,395.952 Z" /></clipPath></defs><g
     transform="matrix(1.25,0,0,-1.25,0,494.94)"
     id="g10"><g
       id="g12"><g
         clip-path="url(#clipPath16)"
         id="g14"><g
           transform="translate(369.3843,265.9497)"
           id="g20"><path
             id="path22"
             style="fill:none;stroke:#384d71;stroke-width:1.60899997;stroke-linecap:round;stroke-linejoin:round;stroke-miterlimit:10;stroke-dasharray:none;stroke-opacity:1"
             d="m 0,0 0,-2.422 m 0,-5.205 0,2.422 m -3.813,1.392 2.421,0 m 5.203,0 -2.422,0 m -3.676,0 c 0,1.262 1.024,2.285 2.287,2.285 1.26,0 2.284,-1.023 2.284,-2.285 0,-1.262 -1.024,-2.286 -2.284,-2.286 -1.263,0 -2.287,1.024 -2.287,2.286 z m 9.647,9.546 -43.941,0 c -5.218,0 -9.449,-4.232 -9.449,-9.449 0,-5.218 4.231,-9.451 9.449,-9.451 l 43.941,0 c 0.996,0 1.807,0.813 1.807,1.81 l 0,15.282 c 0,0.996 -0.811,1.808 -1.807,1.808 z m 3.704,4.846 -56.507,0 c -7.894,0 -14.293,-6.403 -14.293,-14.295 0,-7.894 6.399,-14.295 14.293,-14.295 l 56.507,0 c 1.508,0 2.736,1.228 2.736,2.735 l 0,23.118 c 0,1.507 -1.228,2.737 -2.736,2.737 z m -73.116,2.786 78.358,0 0,-34.162 -78.358,0 0,34.162 z" /></g><g
           transform="translate(376.4272,324.7671)"
           id="g24"><path
             id="path26"
             style="fill:none;stroke:#384d71;stroke-width:1.60899997;stroke-linecap:round;stroke-linejoin:round;stroke-miterlimit:10;stroke-dasharray:none;stroke-opacity:1"
             d="m 0,0 c -4.637,0 -7.451,-1.159 -10.602,-1.159 -4.925,0 -12.27,3.321 -12.27,9.264 0,5.945 7.345,9.266 12.27,9.266 3.151,0 5.965,-1.16 10.602,-1.16 M -18.876,4.353 c 3.226,1.385 3.226,6.119 0,7.506 M -0.289,4.053 c -7.555,-4.282 -20.268,-2.778 -20.268,4.052 0,6.831 12.713,8.335 20.268,4.054 M 3.235,8.105 c 0,0.612 0.497,1.107 1.107,1.107 0.612,0 1.108,-0.495 1.108,-1.107 0,-0.609 -0.496,-1.106 -1.108,-1.106 -0.61,0 -1.107,0.497 -1.107,1.106 z m -3.524,-6.804 0,13.61 c 0,1.274 1.04,2.315 2.315,2.315 l 4.634,0 c 1.273,0 2.315,-1.041 2.315,-2.315 l 0,-13.61 c 0,-1.274 -1.042,-2.316 -2.315,-2.316 l -4.634,0 c -1.275,0 -2.315,1.042 -2.315,2.316 z" /></g><g
           transform="translate(383.3696,298.4883)"
           id="g28"><path
             id="path30"
             style="fill:none;stroke:#384d71;stroke-width:1.60899997;stroke-linecap:round;stroke-linejoin:round;stroke-miterlimit:10;stroke-dasharray:none;stroke-opacity:1"
             d="m 0,0 0,-1.871 m -0.933,0.934 1.87,0 m -6.638,0.002 c 0,0.382 0.307,0.69 0.69,0.69 0.381,0 0.689,-0.308 0.689,-0.69 0,-0.38 -0.308,-0.69 -0.689,-0.69 -0.383,0 -0.69,0.31 -0.69,0.69 z m 3.197,-6.793 0,13.585 -2.84,0 c -3.697,0 -4.72,-3.726 -4.72,-6.794 0,-3.067 1.023,-6.791 4.72,-6.791 l 2.84,0 z m -9.842,6.791 c 0,-7.102 4.066,-9.07 7.002,-9.07 l 7.665,0 0,18.143 -7.665,0 c -2.936,0 -7.002,-1.968 -7.002,-9.073 z" /></g><g
           transform="translate(328.7163,231.5703)"
           id="g32"><path
             id="path34"
             style="fill:none;stroke:#384d71;stroke-width:1.60899997;stroke-linecap:round;stroke-linejoin:round;stroke-miterlimit:10;stroke-dasharray:none;stroke-opacity:1"
             d="m 0,0 -27.214,0 0,-13.193 c 0,-7.743 6.279,-14.022 14.024,-14.022 l 13.19,0 m 27.503,0 L 0,-27.215 0,0 27.503,0 m 25.479,-96.021 0,21.811 m -7.913,-4.856 c 0,1.227 0.996,2.223 2.224,2.223 1.228,0 2.225,-0.996 2.225,-2.223 0,-1.227 -0.997,-2.223 -2.225,-2.223 -1.228,0 -2.224,0.996 -2.224,2.223 z m 0,-12.1 c 0,1.228 0.996,2.225 2.224,2.225 1.228,0 2.225,-0.997 2.225,-2.225 0,-1.227 -0.997,-2.223 -2.225,-2.223 -1.228,0 -2.224,0.996 -2.224,2.223 z m -11.101,12.1 c 0,1.227 0.996,2.223 2.223,2.223 1.229,0 2.222,-0.996 2.222,-2.223 0,-1.227 -0.993,-2.223 -2.222,-2.223 -1.227,0 -2.223,0.996 -2.223,2.223 z m 0,-12.1 c 0,1.228 0.996,2.225 2.223,2.225 1.229,0 2.222,-0.997 2.222,-2.225 0,-1.227 -0.993,-2.223 -2.222,-2.223 -1.227,0 -2.223,0.996 -2.223,2.223 z m -3.761,16.956 26.055,0 0,-21.811 -26.055,0 0,21.811 z m 22.197,59.542 0,10.808 m -19.109,-10.808 0,10.808 m 2.73,-10.808 0,10.808 m 2.73,-10.808 0,10.808 m 2.73,-10.808 0,10.808 m 2.73,-10.808 0,10.808 m 2.729,-10.808 0,10.808 m 2.731,-10.808 0,10.808 m -0.359,-25.967 0,2.7 m -2.124,-1.35 7.219,0 m -24.976,-7.721 0,15.442 c 0,1.544 1.265,2.808 2.808,2.808 l 19.361,0 c 1.544,0 2.807,-1.264 2.807,-2.808 l 0,-15.442 c 0,-1.544 -1.263,-2.808 -2.807,-2.808 l -19.361,0 c -1.543,0 -2.808,1.264 -2.808,2.808 z m -1.932,-62.525 0,-48.085 31.464,0 m -31.464,75.298 31.464,0 m -31.464,29.628 31.464,0 m 0,-56.841 -31.464,0 0,98.723 31.464,0" /></g><g
           transform="translate(180.6826,371.4717)"
           id="g36"><path
             id="path38"
             style="fill:#384d71;fill-opacity:1;fill-rule:evenodd;stroke:none"
             d="m 0,0 -166.757,0 -13.121,0 0,-13.122 0,-285.425 0,-5.915 60.666,0 17.001,-17.001 9.278,9.277 -20.843,20.845 -52.981,0 0,278.219 L 0,-13.122 0,0 Z m 0,-304.462 -11.356,0 -17.001,-17.001 -9.278,9.277 20.844,20.845 16.791,0 0,-13.121 z M 0,-13.122 0,0 l 37.636,0 0,-13.122 -18.238,0 0,-50.664 -5.389,0 0,50.664 -14.009,0 z m 77.155,-121.39 -3.041,0 0,-5.389 3.041,0 0,5.389 z m 0,-169.95 -77.155,0 0,13.121 14.009,0 0,168.205 5.389,0 0,-11.376 13.607,0 0,-5.389 -13.607,0 0,-151.44 57.757,0 0,-13.121 z m 0,164.561 129.845,0 0,-151.44 -51.534,0 0,-13.121 51.534,0 0,-66.205 13.122,0 L 220.122,0 218.58,0 207,0 83.088,0 l 0,-13.122 2.319,0 0,-52.112 5.387,0 0,52.112 116.206,0 0,-121.39 -116.206,0 0,37.432 -5.387,0 0,-37.432 -8.252,0 0,-5.389 z m 3.041,-164.561 -3.041,0 0,13.121 3.041,0 0,-13.121 z" /></g><g
           transform="translate(194.6919,307.686)"
           id="g40"><path
             id="path42"
             style="fill:none;stroke:#384d71;stroke-width:1.60899997;stroke-linecap:round;stroke-linejoin:round;stroke-miterlimit:10;stroke-dasharray:none;stroke-opacity:1"
             d="m 0,0 5.389,0 0,50.664 18.238,0 0,13.122 -204.393,0 -13.122,0 0,-13.122 0,-285.425 0,-5.915 60.667,0 17.001,-17.001 9.278,9.277 -20.843,20.845 -52.981,0 0,278.219 L 0,50.664 0,0 Z m 76.785,-70.727 0,37.433 -5.388,0 0,-37.433 -11.293,0 0,-5.389 132.887,0 0,-151.439 -51.534,0 0,-13.121 51.534,0 0,-66.205 13.121,0 0,370.667 -1.542,0 -11.579,0 -123.912,0 0,-13.122 2.318,0 0,-52.112 5.388,0 0,52.112 116.206,0 0,-121.391 -116.206,0 z m -10.598,-156.828 0,-13.121 -91.552,0 -17.001,-17.001 -9.279,9.277 20.845,20.845 30.8,0 0,168.205 5.389,0 0,-11.377 13.607,0 0,-5.389 -13.607,0 0,-151.439 60.798,0 z" /></g><g
           transform="translate(149.5908,52.7432)"
           id="g44"><path
             id="path46"
             style="fill:#ffffff;fill-opacity:1;fill-rule:evenodd;stroke:none"
             d="m 0,0 -8.97,-8.972 -50.444,0 -8.97,8.972 3.81,3.811 7.392,-7.392 45.98,0 7.391,7.392 L 0,0 Z" /></g><g
           transform="translate(149.5908,52.7432)"
           id="g48"><path
             id="path50"
             style="fill:none;stroke:#384d71;stroke-width:1.60899997;stroke-linecap:round;stroke-linejoin:round;stroke-miterlimit:10;stroke-dasharray:none;stroke-opacity:1"
             d="m 0,0 -8.97,-8.972 -50.444,0 -8.97,8.972 3.81,3.811 7.392,-7.392 45.98,0 7.391,7.392 L 0,0 Z" /></g><g
           transform="translate(321.5728,305.2061)"
           id="g52"><path
             id="path54"
             style="fill:none;stroke:#384d71;stroke-width:1.60899997;stroke-linecap:round;stroke-linejoin:round;stroke-miterlimit:10;stroke-dasharray:none;stroke-opacity:1"
             d="m 0,0 c 10.043,0 18.235,8.192 18.235,18.237 0,10.045 -8.192,18.238 -18.235,18.238 -10.046,0 -18.239,-8.193 -18.239,-18.238 C -18.239,8.192 -10.046,0 0,0 Z" /></g></g></g><text
       id="text56"
       style="font-variant:normal;font-weight:bold;font-stretch:normal;font-size:25.00169945px;font-family:Roboto;-inkscape-font-specification:Roboto-Bold;writing-mode:lr-tb;fill:#000000;fill-opacity:1;fill-rule:nonzero;stroke:none"
       transform="matrix(1,0,0,-1,314.896,314.4277)"><tspan
         id="tspan58"
         y="0"
         x="0">7</tspan></text>
<text
       id="text60"
       style="font-variant:normal;font-weight:normal;font-stretch:normal;font-size:17.10840034px;font-family:Roboto;-inkscape-font-specification:Roboto-Regular;writing-mode:lr-tb;fill:#000000;fill-opacity:1;fill-rule:nonzero;stroke:none"
       transform="matrix(1,0,0,-1,305.2065,285.4595)"><tspan
         id="tspan62"
         y="0"
         x="0 9.6320295 14.21708 23.84911">5.91</tspan></text>
<g
       id="g64"><g
         clip-path="url(#clipPath68)"
         id="g66"><g
           transform="translate(231.937,281.0957)"
           id="g72"><path
             id="path74"
             style="fill:none;stroke:#384d71;stroke-width:1.60899997;stroke-linecap:round;stroke-linejoin:round;stroke-miterlimit:10;stroke-dasharray:none;stroke-opacity:1"
             d="m 0,0 c 10.043,0 18.235,8.193 18.235,18.237 0,10.045 -8.192,18.236 -18.235,18.236 -10.043,0 -18.236,-8.191 -18.236,-18.236 C -18.236,8.193 -10.043,0 0,0 Z" /></g></g></g><text
       id="text76"
       style="font-variant:normal;font-weight:bold;font-stretch:normal;font-size:25.00169945px;font-family:Roboto;-inkscape-font-specification:Roboto-Bold;writing-mode:lr-tb;fill:#000000;fill-opacity:1;fill-rule:nonzero;stroke:none"
       transform="matrix(1,0,0,-1,225.2603,290.3179)"><tspan
         id="tspan78"
         y="0"
         x="0">1</tspan></text>
<text
       id="text80"
       style="font-variant:normal;font-weight:normal;font-stretch:normal;font-size:17.10840034px;font-family:Roboto;-inkscape-font-specification:Roboto-Regular;writing-mode:lr-tb;fill:#000000;fill-opacity:1;fill-rule:nonzero;stroke:none"
       transform="matrix(1,0,0,-1,215.5737,261.3496)"><tspan
         id="tspan82"
         y="0"
         x="0 9.6320295 14.21708 23.84911">4.13</tspan></text>
<g
       id="g84"><g
         clip-path="url(#clipPath88)"
         id="g86"><g
           transform="translate(280.6343,31.6719)"
           id="g92"><path
             id="path94"
             style="fill:none;stroke:#384d71;stroke-width:1.60899997;stroke-linecap:round;stroke-linejoin:round;stroke-miterlimit:10;stroke-dasharray:none;stroke-opacity:1"
             d="M 0,0 C 10.043,0 18.235,8.193 18.235,18.237 18.235,28.28 10.043,36.474 0,36.474 -10.043,36.474 -18.235,28.28 -18.235,18.237 -18.235,8.193 -10.043,0 0,0 Z" /></g></g></g><text
       id="text96"
       style="font-variant:normal;font-weight:bold;font-stretch:normal;font-size:25.00169945px;font-family:Roboto;-inkscape-font-specification:Roboto-Bold;writing-mode:lr-tb;fill:#000000;fill-opacity:1;fill-rule:nonzero;stroke:none"
       transform="matrix(1,0,0,-1,273.9565,40.8936)"><tspan
         id="tspan98"
         y="0"
         x="0">9</tspan></text>
<text
       id="text100"
       style="font-variant:normal;font-weight:normal;font-stretch:normal;font-size:17.10840034px;font-family:Roboto;-inkscape-font-specification:Roboto-Regular;writing-mode:lr-tb;fill:#000000;fill-opacity:1;fill-rule:nonzero;stroke:none"
       transform="matrix(1,0,0,-1,264.2729,11.9248)"><tspan
         id="tspan102"
         y="0"
         x="0 9.6320295 14.21708 23.84911">3.80</tspan></text>
<g
       id="g104"><g
         clip-path="url(#clipPath108)"
         id="g106"><g
           transform="translate(287.3628,141.3691)"
           id="g112"><path
             id="path114"
             style="fill:none;stroke:#384d71;stroke-width:1.60899997;stroke-linecap:round;stroke-linejoin:round;stroke-miterlimit:10;stroke-dasharray:none;stroke-opacity:1"
             d="m 0,0 c 10.047,0 18.236,8.192 18.236,18.237 0,10.044 -8.189,18.236 -18.236,18.236 -10.043,0 -18.235,-8.192 -18.235,-18.236 C -18.235,8.192 -10.043,0 0,0 Z" /></g></g></g><text
       id="text116"
       style="font-variant:normal;font-weight:bold;font-stretch:normal;font-size:25.00169945px;font-family:Roboto;-inkscape-font-specification:Roboto-Bold;writing-mode:lr-tb;fill:#000000;fill-opacity:1;fill-rule:nonzero;stroke:none"
       transform="matrix(1,0,0,-1,280.6851,150.5898)"><tspan
         id="tspan118"
         y="0"
         x="0">4</tspan></text>
<text
       id="text120"
       style="font-variant:normal;font-weight:normal;font-stretch:normal;font-size:17.10840034px;font-family:Roboto;-inkscape-font-specification:Roboto-Regular;writing-mode:lr-tb;fill:#000000;fill-opacity:1;fill-rule:nonzero;stroke:none"
       transform="matrix(1,0,0,-1,266.186,121.624)"><tspan
         id="tspan122"
         y="0"
         x="0 9.6320295 19.264059 23.84911 33.48114">12.47</tspan></text>
<g
       id="g124"><g
         clip-path="url(#clipPath128)"
         id="g126"><g
           transform="translate(99.1563,218.9121)"
           id="g132"><path
             id="path134"
             style="fill:none;stroke:#384d71;stroke-width:1.60899997;stroke-linecap:round;stroke-linejoin:round;stroke-miterlimit:10;stroke-dasharray:none;stroke-opacity:1"
             d="M 0,0 C 10.043,0 18.236,8.193 18.236,18.236 18.236,28.28 10.043,36.473 0,36.473 -10.046,36.473 -18.239,28.28 -18.239,18.236 -18.239,8.193 -10.046,0 0,0 Z" /></g></g></g><text
       id="text136"
       style="font-variant:normal;font-weight:bold;font-stretch:normal;font-size:25.00169945px;font-family:Roboto;-inkscape-font-specification:Roboto-Bold;writing-mode:lr-tb;fill:#000000;fill-opacity:1;fill-rule:nonzero;stroke:none"
       transform="matrix(1,0,0,-1,92.4785,228.1328)"><tspan
         id="tspan138"
         y="0"
         x="0">2</tspan></text>
<text
       id="text140"
       style="font-variant:normal;font-weight:normal;font-stretch:normal;font-size:17.10840034px;font-family:Roboto;-inkscape-font-specification:Roboto-Regular;writing-mode:lr-tb;fill:#000000;fill-opacity:1;fill-rule:nonzero;stroke:none"
       transform="matrix(1,0,0,-1,77.9756,199.1636)"><tspan
         id="tspan142"
         y="0"
         x="0 9.6320295 19.264059 23.84911 33.48114">24.56</tspan></text>
<g
       id="g144"><g
         clip-path="url(#clipPath148)"
         id="g146"><path
           id="path152"
           style="fill:#ffffff;fill-opacity:1;fill-rule:nonzero;stroke:#384c71;stroke-width:1.60899997;stroke-linecap:round;stroke-linejoin:round;stroke-miterlimit:22.9260006;stroke-dasharray:none;stroke-opacity:1"
           d="m 295.041,76.266 41.108,0 0,-5.389 -41.108,0 0,5.389 z" /><g
           transform="translate(260.8784,80.1309)"
           id="g154"><path
             id="path156"
             style="fill:none;stroke:#384c71;stroke-width:3.2190001;stroke-linecap:round;stroke-linejoin:round;stroke-miterlimit:22.9260006;stroke-dasharray:none;stroke-opacity:1"
             d="M 0,0 29.528,17.081" /></g><g
           transform="translate(213.688,231.5703)"
           id="g158"><path
             id="path160"
             style="fill:none;stroke:#384c71;stroke-width:3.2190001;stroke-linecap:round;stroke-linejoin:round;stroke-miterlimit:22.9260006;stroke-dasharray:none;stroke-opacity:1"
             d="M 0,0 35.607,-20.556" /></g><g
           transform="translate(194.6919,248.3359)"
           id="g162"><path
             id="path164"
             style="fill:none;stroke:#384c71;stroke-width:3.2190001;stroke-linecap:round;stroke-linejoin:round;stroke-miterlimit:22.9260006;stroke-dasharray:none;stroke-opacity:1"
             d="M 0,0 -12.738,17.95" /></g><g
           transform="translate(194.6919,307.686)"
           id="g166"><path
             id="path168"
             style="fill:none;stroke:#384c71;stroke-width:3.2190001;stroke-linecap:round;stroke-linejoin:round;stroke-miterlimit:22.9260006;stroke-dasharray:none;stroke-opacity:1"
             d="M 0,0 -19.398,-33.583" /></g><g
           transform="translate(271.4771,306.2378)"
           id="g170"><path
             id="path172"
             style="fill:none;stroke:#384c71;stroke-width:3.2190001;stroke-linecap:round;stroke-linejoin:round;stroke-miterlimit:22.9260006;stroke-dasharray:none;stroke-opacity:1"
             d="M 0,0 15.924,-27.502" /></g><g
           transform="translate(263.771,371.4717)"
           id="g174"><path
             id="path176"
             style="fill:none;stroke:#384c71;stroke-width:3.2190001;stroke-linecap:round;stroke-linejoin:round;stroke-miterlimit:22.9260006;stroke-dasharray:none;stroke-opacity:1"
             d="M 0,0 -39.37,22.871" /></g><g
           transform="translate(227.2935,67.0098)"
           id="g178"><path
             id="path180"
             style="fill:#ffffff;fill-opacity:1;fill-rule:evenodd;stroke:none"
             d="m 0,0 5.391,0 0,-30.301 c 9.273,-9.273 18.546,-18.546 27.82,-27.819 l 127.468,0 0,-5.39 -129.701,0 L 0,-32.532 0,0 Z" /></g><g
           transform="translate(227.2935,67.0098)"
           id="g182"><path
             id="path184"
             style="fill:none;stroke:#384c71;stroke-width:1.60899997;stroke-linecap:round;stroke-linejoin:round;stroke-miterlimit:22.9260006;stroke-dasharray:none;stroke-opacity:1"
             d="m 0,0 5.391,0 0,-30.301 c 9.273,-9.273 18.546,-18.546 27.82,-27.819 l 127.468,0 0,-5.39 -129.701,0 L 0,-32.532 0,0 Z" /></g></g></g></g></svg>