<?xml version="1.0" encoding="UTF-8" standalone="no"?>
<svg
   xmlns:dc="http://purl.org/dc/elements/1.1/"
   xmlns:cc="http://creativecommons.org/ns#"
   xmlns:rdf="http://www.w3.org/1999/02/22-rdf-syntax-ns#"
   xmlns:svg="http://www.w3.org/2000/svg"
   xmlns="http://www.w3.org/2000/svg"
   viewBox="0 0 427.94501 502.72626"
   height="502.72626"
   width="427.94501"
   xml:space="preserve"
   version="1.1"
   id="svg2"><metadata
     id="metadata8"><rdf:RDF><cc:Work
         rdf:about=""><dc:format>image/svg+xml</dc:format><dc:type
           rdf:resource="http://purl.org/dc/dcmitype/StillImage" /></cc:Work></rdf:RDF></metadata><defs
     id="defs6"><clipPath
       id="clipPath16"
       clipPathUnits="userSpaceOnUse"><path
         id="path18"
         d="m 0,402.181 342.356,0 L 342.356,0 0,0 0,402.181 Z" /></clipPath><clipPath
       id="clipPath96"
       clipPathUnits="userSpaceOnUse"><path
         id="path98"
         d="m 0,402.181 342.356,0 L 342.356,0 0,0 0,402.181 Z" /></clipPath><clipPath
       id="clipPath116"
       clipPathUnits="userSpaceOnUse"><path
         id="path118"
         d="m 0,402.181 342.356,0 L 342.356,0 0,0 0,402.181 Z" /></clipPath><clipPath
       id="clipPath136"
       clipPathUnits="userSpaceOnUse"><path
         id="path138"
         d="m 0,402.181 342.356,0 L 342.356,0 0,0 0,402.181 Z" /></clipPath><clipPath
       id="clipPath156"
       clipPathUnits="userSpaceOnUse"><path
         id="path158"
         d="m 0,402.181 342.356,0 L 342.356,0 0,0 0,402.181 Z" /></clipPath><clipPath
       id="clipPath176"
       clipPathUnits="userSpaceOnUse"><path
         id="path178"
         d="m 0,402.181 342.356,0 L 342.356,0 0,0 0,402.181 Z" /></clipPath></defs><g
     transform="matrix(1.25,0,0,-1.25,0,502.72625)"
     id="g10"><g
       id="g12"><g
         clip-path="url(#clipPath16)"
         id="g14"><g
           transform="translate(312.9893,149.5371)"
           id="g20"><path
             id="path22"
             style="fill:none;stroke:#384d71;stroke-width:1.45299995;stroke-linecap:round;stroke-linejoin:round;stroke-miterlimit:10;stroke-dasharray:none;stroke-opacity:1"
             d="m 0,0 0,-2.188 m 0,-4.7 0,2.188 m -3.445,1.256 2.187,0 m 4.702,0 -2.187,0 m -3.323,0 c 0,1.14 0.925,2.064 2.066,2.064 1.138,0 2.063,-0.924 2.063,-2.064 0,-1.14 -0.925,-2.065 -2.063,-2.065 -1.141,0 -2.066,0.925 -2.066,2.065 z m 8.713,8.623 -39.69,0 c -4.713,0 -8.535,-3.823 -8.535,-8.535 0,-4.713 3.822,-8.537 8.535,-8.537 l 39.69,0 c 0.9,0 1.632,0.735 1.632,1.634 l 0,13.805 c 0,0.899 -0.732,1.633 -1.632,1.633 z m 3.346,4.377 -51.04,0 c -7.128,0 -12.91,-5.784 -12.91,-12.912 0,-7.131 5.782,-12.913 12.91,-12.913 l 51.04,0 c 1.362,0 2.472,1.11 2.472,2.472 l 0,20.881 c 0,1.36 -1.11,2.472 -2.472,2.472 z m -66.042,2.516 70.777,0 0,-30.857 -70.777,0 0,30.857 z" /></g><g
           transform="translate(319.7217,52.2695)"
           id="g24"><path
             id="path26"
             style="fill:none;stroke:#384d71;stroke-width:1.45299995;stroke-linecap:round;stroke-linejoin:round;stroke-miterlimit:10;stroke-dasharray:none;stroke-opacity:1"
             d="m 0,0 c -4.185,0 -6.73,-1.047 -9.576,-1.047 -4.446,0 -11.08,3.001 -11.08,8.369 0,5.368 6.634,8.367 11.08,8.367 2.846,0 5.391,-1.046 9.576,-1.046 M -17.05,3.932 c 2.914,1.251 2.914,5.527 0,6.78 m 16.789,-7.05 c -6.824,-3.869 -18.304,-2.51 -18.304,3.66 0,6.169 11.48,7.528 18.304,3.66 m 3.187,-3.66 c 0,0.552 0.445,0.999 0.999,0.999 0.55,0 0.999,-0.447 0.999,-0.999 0,-0.553 -0.449,-1 -0.999,-1 -0.554,0 -0.999,0.447 -0.999,1 z m -3.187,-6.145 0,12.291 c 0,1.151 0.943,2.092 2.091,2.092 l 4.186,0 c 1.152,0 2.093,-0.941 2.093,-2.092 l 0,-12.291 c 0,-1.153 -0.941,-2.093 -2.093,-2.093 l -4.186,0 c -1.148,0 -2.091,0.94 -2.091,2.093 z" /></g><g
           transform="translate(325.624,119.6289)"
           id="g28"><path
             id="path30"
             style="fill:none;stroke:#384d71;stroke-width:1.45299995;stroke-linecap:round;stroke-linejoin:round;stroke-miterlimit:10;stroke-dasharray:none;stroke-opacity:1"
             d="m 0,0 0,-1.69 m -0.846,0.845 1.692,0 m -5.999,0.001 c 0,0.345 0.278,0.623 0.625,0.623 0.342,0 0.621,-0.278 0.621,-0.623 0,-0.344 -0.279,-0.623 -0.621,-0.623 -0.347,0 -0.625,0.279 -0.625,0.623 z m 2.891,-6.135 0,12.268 -2.567,0 c -3.34,0 -4.265,-3.363 -4.265,-6.134 0,-2.771 0.925,-6.134 4.265,-6.134 l 2.567,0 z m -8.892,6.134 c 0,-6.416 3.672,-8.195 6.325,-8.195 l 6.923,0 0,16.39 -6.923,0 c -2.653,0 -6.325,-1.779 -6.325,-8.195 z" /></g><g
           transform="translate(324.373,280.6895)"
           id="g32"><path
             id="path34"
             style="fill:none;stroke:#384d71;stroke-width:1.45299995;stroke-linecap:round;stroke-linejoin:round;stroke-miterlimit:10;stroke-dasharray:none;stroke-opacity:1"
             d="m 0,0 0,-19.701 m -7.147,4.387 c 0,-1.11 0.901,-2.01 2.008,-2.01 1.11,0 2.009,0.9 2.009,2.01 0,1.108 -0.899,2.008 -2.009,2.008 -1.107,0 -2.008,-0.9 -2.008,-2.008 z m 0,10.928 c 0,-1.109 0.901,-2.008 2.008,-2.008 1.11,0 2.009,0.899 2.009,2.008 0,1.109 -0.899,2.009 -2.009,2.009 -1.107,0 -2.008,-0.9 -2.008,-2.009 z m -10.029,-10.928 c 0,-1.11 0.9,-2.01 2.009,-2.01 1.109,0 2.01,0.9 2.01,2.01 0,1.108 -0.901,2.008 -2.01,2.008 -1.109,0 -2.009,-0.9 -2.009,-2.008 z m 0,10.928 c 0,-1.109 0.9,-2.008 2.009,-2.008 1.109,0 2.01,0.899 2.01,2.008 0,1.109 -0.901,2.009 -2.01,2.009 -1.109,0 -2.009,-0.9 -2.009,-2.009 z m -3.396,-15.315 23.537,0 0,19.701 -23.537,0 0,-19.701 z m 20.05,-51.079 0,-9.762 m -17.26,9.762 0,-9.762 m 2.465,9.762 0,-9.762 m 2.465,9.762 0,-9.762 m 2.466,9.762 0,-9.762 m 2.466,9.762 0,-9.762 m 2.466,9.762 0,-9.762 m 2.466,9.762 0,-9.762 m -0.324,23.455 0,-2.439 m -1.915,1.22 6.521,0 m -22.561,6.973 0,-13.947 c 0,-1.395 1.141,-2.536 2.537,-2.536 l 17.487,0 c 1.393,0 2.537,1.141 2.537,2.536 l 0,13.947 c 0,1.395 -1.144,2.537 -2.537,2.537 l -17.487,0 c -1.396,0 -2.537,-1.142 -2.537,-2.537 z m -1.745,29.193 28.417,0 m -28.417,-24.058 28.417,0 m 0,48.637 -28.417,0 0,-86.468 28.417,0" /></g><g
           transform="translate(192.0566,334.2505)"
           id="g36"><path
             id="path38"
             style="fill:#ffffff;fill-opacity:1;fill-rule:nonzero;stroke:none"
             d="m 0,0 0,31.215 0,1.008 0.712,0.713 23.142,23.143 0.712,0.713 1.011,0 115.637,0 0,-4.868 -114.63,0 L 4.866,30.207 4.866,0 0,0 Z" /></g><g
           transform="translate(192.0566,334.2505)"
           id="g40"><path
             id="path42"
             style="fill:none;stroke:#384c71;stroke-width:1.454;stroke-linecap:round;stroke-linejoin:round;stroke-miterlimit:22.9260006;stroke-dasharray:none;stroke-opacity:1"
             d="m 0,0 0,31.215 0,1.008 0.712,0.713 23.142,23.143 0.712,0.713 1.011,0 115.637,0 0,-4.868 -114.63,0 L 4.866,30.207 4.866,0 0,0 Z" /></g><g
           transform="translate(166.21,33.9639)"
           id="g44"><path
             id="path46"
             style="fill:#384c71;fill-opacity:1;fill-rule:evenodd;stroke:none"
             d="m 0,0 -27.688,0 0,56.007 6.582,6.582 -3.442,3.441 -8.008,-8.007 0,-58.023 -121.075,0 0,288.435 54.916,0 0,11.851 -54.916,0 -11.852,0 0,-11.851 0,-288.435 0,-8.106 0,-3.746 L 0,-11.852 0,0 Z m 0,288.435 -24.711,0 0,11.851 24.711,0 0,-11.851 z m 0,0 0,11.851 45.371,0 0,-11.851 -22.75,0 0,-153.864 14.383,0 0,-4.867 -14.383,0 0,-23.369 -5.974,-5.96 -3.441,3.441 4.546,4.538 0,180.081 -17.752,0 z M 0,0 l 24.712,0 0,-11.852 L 0,-11.852 0,0 Z m 173.934,300.286 -2.007,0 0,56.792 -4.866,0 0,-56.792 -3.493,0 -50.209,0 0,-11.851 50.209,0 0,-153.864 -89.433,0 0,-4.867 8.37,0 0,-61.975 4.866,0 0,61.975 76.197,0 0,-129.704 -76.197,0 0,38.703 -4.866,0 0,-38.703 -16.477,0 0,-11.852 109.392,0 0,11.852 0,300.286 -1.486,0 z" /></g><g
           transform="translate(133.6543,91.9873)"
           id="g48"><path
             id="path50"
             style="fill:none;stroke:#384c71;stroke-width:1.454;stroke-linecap:round;stroke-linejoin:round;stroke-miterlimit:22.9260006;stroke-dasharray:none;stroke-opacity:1"
             d="m 0,0 8.007,8.007 3.442,-3.442 -6.581,-6.582 0,-56.006 52.4,0 0,-11.852 -190.195,0 0,3.745 0,8.107 0,288.434 0,11.851 11.852,0 54.916,0 0,-11.851 -54.916,0 0,-288.434 L 0,-58.023 0,0 Z m 49.203,42.352 -3.441,3.441 4.546,4.537 0,180.081 -42.464,0 0,11.851 70.083,0 0,-11.851 -22.75,0 0,-153.863 14.383,0 0,-4.867 -14.383,0 0,-23.369 -5.974,-5.96 z m 157.286,199.91 -2.007,0 0,56.793 -4.866,0 0,-56.793 -3.492,0 -50.209,0 0,-11.851 50.209,0 0,-153.863 -89.434,0 0,-4.867 8.371,0 0,-61.976 4.866,0 0,61.976 76.197,0 0,-129.704 -76.197,0 0,38.703 -4.866,0 0,-38.703 -16.477,0 0,-11.852 109.392,0 0,11.852 0,300.285 -1.487,0 z" /></g><path
           id="path52"
           style="fill:#ffffff;fill-opacity:1;fill-rule:nonzero;stroke:#384c71;stroke-width:1.454;stroke-linecap:round;stroke-linejoin:round;stroke-miterlimit:22.9260006;stroke-dasharray:none;stroke-opacity:1"
           d="m 67.495,330.758 74.003,0 0,-4.869 -74.003,0 0,4.869 z" /><path
           id="path54"
           style="fill:#ffffff;fill-opacity:1;fill-rule:nonzero;stroke:#384c71;stroke-width:1.454;stroke-linecap:round;stroke-linejoin:round;stroke-miterlimit:22.9260006;stroke-dasharray:none;stroke-opacity:1"
           d="m 242.438,330.758 37.131,0 0,-4.869 -37.131,0 0,4.869 z" /><g
           transform="translate(211.5811,322.3984)"
           id="g56"><path
             id="path58"
             style="fill:none;stroke:#384c71;stroke-width:2.90700006;stroke-linecap:round;stroke-linejoin:round;stroke-miterlimit:22.9260006;stroke-dasharray:none;stroke-opacity:1"
             d="M 0,0 26.672,-15.429" /></g><g
           transform="translate(203.2139,167.0674)"
           id="g60"><path
             id="path62"
             style="fill:none;stroke:#384c71;stroke-width:2.90700006;stroke-linecap:round;stroke-linejoin:round;stroke-miterlimit:22.9260006;stroke-dasharray:none;stroke-opacity:1"
             d="M 0,0 32.162,18.566" /></g><g
           transform="translate(253.5811,72.667)"
           id="g64"><path
             id="path66"
             style="fill:none;stroke:#384c71;stroke-width:2.90700006;stroke-linecap:round;stroke-linejoin:round;stroke-miterlimit:22.9260006;stroke-dasharray:none;stroke-opacity:1"
             d="M 0,0 14.482,25.103" /></g><g
           transform="translate(141.6616,99.9941)"
           id="g68"><path
             id="path70"
             style="fill:none;stroke:#384c71;stroke-width:2.90700006;stroke-linecap:round;stroke-linejoin:round;stroke-miterlimit:22.9260006;stroke-dasharray:none;stroke-opacity:1"
             d="M 0,0 3.236,19.22" /></g><g
           transform="translate(145.6836,128.627)"
           id="g72"><path
             id="path74"
             style="fill:none;stroke:#384c71;stroke-width:2.90700006;stroke-linecap:round;stroke-linejoin:round;stroke-miterlimit:22.9260006;stroke-dasharray:none;stroke-opacity:1"
             d="M 0,0 33.732,9.153" /></g><g
           transform="translate(190.9219,22.1123)"
           id="g76"><path
             id="path78"
             style="fill:none;stroke:#384c71;stroke-width:2.90700006;stroke-linecap:round;stroke-linejoin:round;stroke-miterlimit:22.9260006;stroke-dasharray:none;stroke-opacity:1"
             d="M 0,0 35.825,-20.658" /></g><g
           transform="translate(118.9224,368.5088)"
           id="g80"><path
             id="path82"
             style="fill:none;stroke:#384d71;stroke-width:1.45299995;stroke-linecap:round;stroke-linejoin:round;stroke-miterlimit:10;stroke-dasharray:none;stroke-opacity:1"
             d="m 0,0 c 9.073,0 16.473,7.4 16.473,16.473 0,9.073 -7.4,16.472 -16.473,16.472 -9.073,0 -16.473,-7.399 -16.473,-16.472 C -16.473,7.4 -9.073,0 0,0 Z" /></g></g></g><text
       id="text84"
       style="font-variant:normal;font-weight:bold;font-stretch:normal;font-size:22.58279991px;font-family:Roboto;-inkscape-font-specification:Roboto-Bold;writing-mode:lr-tb;fill:#000000;fill-opacity:1;fill-rule:nonzero;stroke:none"
       transform="matrix(1,0,0,-1,112.8921,376.8384)"><tspan
         id="tspan86"
         y="0"
         x="0">9</tspan></text>
<text
       id="text88"
       style="font-variant:normal;font-weight:normal;font-stretch:normal;font-size:15.4531002px;font-family:Roboto;-inkscape-font-specification:Roboto-Regular;writing-mode:lr-tb;fill:#000000;fill-opacity:1;fill-rule:nonzero;stroke:none"
       transform="matrix(1,0,0,-1,104.1421,350.6733)"><tspan
         id="tspan90"
         y="0"
         x="0 8.7000952 12.841526 21.541622">3.30</tspan></text>
<g
       id="g92"><g
         clip-path="url(#clipPath96)"
         id="g94"><g
           transform="translate(290.3115,89.3564)"
           id="g100"><path
             id="path102"
             style="fill:none;stroke:#384d71;stroke-width:1.45299995;stroke-linecap:round;stroke-linejoin:round;stroke-miterlimit:10;stroke-dasharray:none;stroke-opacity:1"
             d="m 0,0 c 9.074,0 16.475,7.4 16.475,16.472 0,9.072 -7.401,16.472 -16.475,16.472 -9.071,0 -16.471,-7.4 -16.471,-16.472 C -16.471,7.4 -9.071,0 0,0 Z" /></g></g></g><text
       id="text104"
       style="font-variant:normal;font-weight:bold;font-stretch:normal;font-size:22.58279991px;font-family:Roboto;-inkscape-font-specification:Roboto-Bold;writing-mode:lr-tb;fill:#000000;fill-opacity:1;fill-rule:nonzero;stroke:none"
       transform="matrix(1,0,0,-1,284.2842,97.6855)"><tspan
         id="tspan106"
         y="0"
         x="0">7</tspan></text>
<text
       id="text108"
       style="font-variant:normal;font-weight:normal;font-stretch:normal;font-size:15.4531002px;font-family:Roboto;-inkscape-font-specification:Roboto-Regular;writing-mode:lr-tb;fill:#000000;fill-opacity:1;fill-rule:nonzero;stroke:none"
       transform="matrix(1,0,0,-1,275.5322,71.5205)"><tspan
         id="tspan110"
         y="0"
         x="0 8.7000952 12.841526 21.541622">5.50</tspan></text>
<g
       id="g112"><g
         clip-path="url(#clipPath116)"
         id="g114"><g
           transform="translate(254.4238,227.5771)"
           id="g120"><path
             id="path122"
             style="fill:none;stroke:#384d71;stroke-width:1.45299995;stroke-linecap:round;stroke-linejoin:round;stroke-miterlimit:10;stroke-dasharray:none;stroke-opacity:1"
             d="m 0,0 c 9.071,0 16.472,7.399 16.472,16.472 0,9.073 -7.401,16.472 -16.472,16.472 -9.074,0 -16.475,-7.399 -16.475,-16.472 C -16.475,7.399 -9.074,0 0,0 Z" /></g></g></g><text
       id="text124"
       style="font-variant:normal;font-weight:bold;font-stretch:normal;font-size:22.58279991px;font-family:Roboto;-inkscape-font-specification:Roboto-Bold;writing-mode:lr-tb;fill:#000000;fill-opacity:1;fill-rule:nonzero;stroke:none"
       transform="matrix(1,0,0,-1,248.3916,235.9058)"><tspan
         id="tspan126"
         y="0"
         x="0">4</tspan></text>
<text
       id="text128"
       style="font-variant:normal;font-weight:normal;font-stretch:normal;font-size:15.4531002px;font-family:Roboto;-inkscape-font-specification:Roboto-Regular;writing-mode:lr-tb;fill:#000000;fill-opacity:1;fill-rule:nonzero;stroke:none"
       transform="matrix(1,0,0,-1,235.292,209.7402)"><tspan
         id="tspan130"
         y="0"
         x="0 8.7000952 17.40019 21.541622 30.241716">11.44</tspan></text>
<g
       id="g132"><g
         clip-path="url(#clipPath136)"
         id="g134"><g
           transform="translate(200.6377,79.0762)"
           id="g140"><path
             id="path142"
             style="fill:none;stroke:#384d71;stroke-width:1.45299995;stroke-linecap:round;stroke-linejoin:round;stroke-miterlimit:10;stroke-dasharray:none;stroke-opacity:1"
             d="m 0,0 c 9.073,0 16.474,7.399 16.474,16.472 0,9.073 -7.401,16.472 -16.474,16.472 -9.072,0 -16.472,-7.399 -16.472,-16.472 C -16.472,7.399 -9.072,0 0,0 Z" /></g></g></g><text
       id="text144"
       style="font-variant:normal;font-weight:bold;font-stretch:normal;font-size:22.58279991px;font-family:Roboto;-inkscape-font-specification:Roboto-Bold;writing-mode:lr-tb;fill:#000000;fill-opacity:1;fill-rule:nonzero;stroke:none"
       transform="matrix(1,0,0,-1,194.6084,87.4043)"><tspan
         id="tspan146"
         y="0"
         x="0">1</tspan></text>
<text
       id="text148"
       style="font-variant:normal;font-weight:normal;font-stretch:normal;font-size:15.4531002px;font-family:Roboto;-inkscape-font-specification:Roboto-Regular;writing-mode:lr-tb;fill:#000000;fill-opacity:1;fill-rule:nonzero;stroke:none"
       transform="matrix(1,0,0,-1,185.8584,61.2402)"><tspan
         id="tspan150"
         y="0"
         x="0 8.7000952 12.841526 21.541622">6.98</tspan></text>
<g
       id="g152"><g
         clip-path="url(#clipPath156)"
         id="g154"><g
           transform="translate(94.6353,206.7402)"
           id="g160"><path
             id="path162"
             style="fill:none;stroke:#384d71;stroke-width:1.45299995;stroke-linecap:round;stroke-linejoin:round;stroke-miterlimit:10;stroke-dasharray:none;stroke-opacity:1"
             d="m 0,0 c 9.071,0 16.471,7.4 16.471,16.472 0,9.074 -7.4,16.473 -16.471,16.473 -9.073,0 -16.473,-7.399 -16.473,-16.473 C -16.473,7.4 -9.073,0 0,0 Z" /></g></g></g><text
       id="text164"
       style="font-variant:normal;font-weight:bold;font-stretch:normal;font-size:22.58279991px;font-family:Roboto;-inkscape-font-specification:Roboto-Bold;writing-mode:lr-tb;fill:#000000;fill-opacity:1;fill-rule:nonzero;stroke:none"
       transform="matrix(1,0,0,-1,88.604,215.0688)"><tspan
         id="tspan166"
         y="0"
         x="0">2</tspan></text>
<text
       id="text168"
       style="font-variant:normal;font-weight:normal;font-stretch:normal;font-size:15.4531002px;font-family:Roboto;-inkscape-font-specification:Roboto-Regular;writing-mode:lr-tb;fill:#000000;fill-opacity:1;fill-rule:nonzero;stroke:none"
       transform="matrix(1,0,0,-1,75.5044,188.9043)"><tspan
         id="tspan170"
         y="0"
         x="0 8.7000952 17.40019 21.541622 30.241716">26.28</tspan></text>
<g
       id="g172"><g
         clip-path="url(#clipPath176)"
         id="g174"><g
           transform="translate(96.3389,344.853)"
           id="g180"><path
             id="path182"
             style="fill:none;stroke:#000000;stroke-width:1.23500001;stroke-linecap:round;stroke-linejoin:round;stroke-miterlimit:22.9260006;stroke-dasharray:none;stroke-opacity:1"
             d="M 0,0 157.117,0" /></g></g></g></g></svg>