<?xml version="1.0" encoding="UTF-8" standalone="no"?>
<svg
   xmlns:dc="http://purl.org/dc/elements/1.1/"
   xmlns:cc="http://creativecommons.org/ns#"
   xmlns:rdf="http://www.w3.org/1999/02/22-rdf-syntax-ns#"
   xmlns:svg="http://www.w3.org/2000/svg"
   xmlns="http://www.w3.org/2000/svg"
   viewBox="0 0 427.94376 502.72626"
   height="502.72626"
   width="427.94376"
   xml:space="preserve"
   version="1.1"
   id="svg2"><metadata
     id="metadata8"><rdf:RDF><cc:Work
         rdf:about=""><dc:format>image/svg+xml</dc:format><dc:type
           rdf:resource="http://purl.org/dc/dcmitype/StillImage" /></cc:Work></rdf:RDF></metadata><defs
     id="defs6"><clipPath
       id="clipPath16"
       clipPathUnits="userSpaceOnUse"><path
         id="path18"
         d="m 0,402.181 342.355,0 L 342.355,0 0,0 0,402.181 Z" /></clipPath><clipPath
       id="clipPath94"
       clipPathUnits="userSpaceOnUse"><path
         id="path96"
         d="m 0,402.181 342.355,0 L 342.355,0 0,0 0,402.181 Z" /></clipPath><clipPath
       id="clipPath114"
       clipPathUnits="userSpaceOnUse"><path
         id="path116"
         d="m 0,402.181 342.355,0 L 342.355,0 0,0 0,402.181 Z" /></clipPath><clipPath
       id="clipPath134"
       clipPathUnits="userSpaceOnUse"><path
         id="path136"
         d="m 0,402.181 342.355,0 L 342.355,0 0,0 0,402.181 Z" /></clipPath><clipPath
       id="clipPath154"
       clipPathUnits="userSpaceOnUse"><path
         id="path156"
         d="m 0,402.181 342.355,0 L 342.355,0 0,0 0,402.181 Z" /></clipPath><clipPath
       id="clipPath174"
       clipPathUnits="userSpaceOnUse"><path
         id="path176"
         d="m 0,402.181 342.355,0 L 342.355,0 0,0 0,402.181 Z" /></clipPath></defs><g
     transform="matrix(1.25,0,0,-1.25,0,502.72625)"
     id="g10"><g
       id="g12"><g
         clip-path="url(#clipPath16)"
         id="g14"><g
           transform="translate(29.3696,149.5371)"
           id="g20"><path
             id="path22"
             style="fill:none;stroke:#384d71;stroke-width:1.45299995;stroke-linecap:round;stroke-linejoin:round;stroke-miterlimit:10;stroke-dasharray:none;stroke-opacity:1"
             d="m 0,0 0,-2.188 m 0,-4.7 0,2.188 m 3.445,1.256 -2.188,0 m -4.701,0 2.187,0 m 3.321,0 c 0,1.14 -0.925,2.064 -2.064,2.064 -1.141,0 -2.064,-0.924 -2.064,-2.064 0,-1.14 0.923,-2.065 2.064,-2.065 1.139,0 2.064,0.925 2.064,2.065 z m -8.712,8.623 39.69,0 c 4.713,0 8.535,-3.823 8.535,-8.535 0,-4.713 -3.822,-8.537 -8.535,-8.537 l -39.69,0 c -0.899,0 -1.634,0.735 -1.634,1.634 l 0,13.805 c 0,0.899 0.735,1.633 1.634,1.633 z m -3.347,4.377 51.039,0 c 7.13,0 12.912,-5.784 12.912,-12.912 0,-7.131 -5.782,-12.913 -12.912,-12.913 l -51.039,0 c -1.36,0 -2.47,1.11 -2.47,2.472 l 0,20.881 c 0,1.36 1.11,2.472 2.47,2.472 z m 66.043,2.516 -70.78,0 0,-30.857 70.78,0 0,30.857 z" /></g><g
           transform="translate(22.6338,52.2695)"
           id="g24"><path
             id="path26"
             style="fill:none;stroke:#384d71;stroke-width:1.45299995;stroke-linecap:round;stroke-linejoin:round;stroke-miterlimit:10;stroke-dasharray:none;stroke-opacity:1"
             d="m 0,0 c 4.188,0 6.73,-1.047 9.578,-1.047 4.447,0 11.081,3.001 11.081,8.369 0,5.368 -6.634,8.367 -11.081,8.367 C 6.73,15.689 4.188,14.643 0,14.643 M 17.052,3.932 c -2.916,1.251 -2.916,5.527 0,6.78 M 0.262,3.662 c 6.824,-3.869 18.305,-2.51 18.305,3.66 0,6.169 -11.481,7.528 -18.305,3.66 m -3.185,-3.66 c 0,0.552 -0.448,0.999 -1,0.999 -0.552,0 -0.999,-0.447 -0.999,-0.999 0,-0.553 0.447,-1 0.999,-1 0.552,0 1,0.447 1,1 z m 3.185,-6.145 0,12.291 c 0,1.151 -0.942,2.092 -2.092,2.092 l -4.186,0 c -1.149,0 -2.09,-0.941 -2.09,-2.092 l 0,-12.291 c 0,-1.153 0.941,-2.093 2.09,-2.093 l 4.186,0 c 1.15,0 2.092,0.94 2.092,2.093 z" /></g><g
           transform="translate(16.7344,119.6289)"
           id="g28"><path
             id="path30"
             style="fill:none;stroke:#384d71;stroke-width:1.45299995;stroke-linecap:round;stroke-linejoin:round;stroke-miterlimit:10;stroke-dasharray:none;stroke-opacity:1"
             d="m 0,0 0,-1.69 m 0.844,0.845 -1.689,0 m 5.995,0.001 c 0,0.345 -0.278,0.623 -0.621,0.623 -0.345,0 -0.623,-0.278 -0.623,-0.623 0,-0.344 0.278,-0.623 0.623,-0.623 0.343,0 0.621,0.279 0.621,0.623 z m -2.888,-6.135 0,12.268 2.565,0 c 3.341,0 4.267,-3.363 4.267,-6.134 0,-2.771 -0.926,-6.134 -4.267,-6.134 l -2.565,0 z m 8.891,6.134 c 0,-6.416 -3.672,-8.195 -6.326,-8.195 l -6.924,0 0,16.39 6.924,0 c 2.654,0 6.326,-1.779 6.326,-8.195 z" /></g><g
           transform="translate(17.9829,280.6895)"
           id="g32"><path
             id="path34"
             style="fill:none;stroke:#384d71;stroke-width:1.45299995;stroke-linecap:round;stroke-linejoin:round;stroke-miterlimit:10;stroke-dasharray:none;stroke-opacity:1"
             d="m 0,0 0,-19.701 m 7.148,4.387 c 0,-1.11 -0.9,-2.01 -2.009,-2.01 -1.11,0 -2.008,0.9 -2.008,2.01 0,1.108 0.898,2.008 2.008,2.008 1.109,0 2.009,-0.9 2.009,-2.008 z m 0,10.928 c 0,-1.109 -0.9,-2.008 -2.009,-2.008 -1.11,0 -2.008,0.899 -2.008,2.008 0,1.109 0.898,2.009 2.008,2.009 1.109,0 2.009,-0.9 2.009,-2.009 z m 10.027,-10.928 c 0,-1.11 -0.898,-2.01 -2.007,-2.01 -1.108,0 -2.008,0.9 -2.008,2.01 0,1.108 0.9,2.008 2.008,2.008 1.109,0 2.007,-0.9 2.007,-2.008 z m 0,10.928 c 0,-1.109 -0.898,-2.008 -2.007,-2.008 -1.108,0 -2.008,0.899 -2.008,2.008 0,1.109 0.9,2.009 2.008,2.009 1.109,0 2.007,-0.9 2.007,-2.009 z m 3.397,-15.315 -23.534,0 0,19.701 23.534,0 0,-19.701 z M 0.525,-70.78 l 0,-9.762 m 17.258,9.762 0,-9.762 m -2.466,9.762 0,-9.762 m -2.466,9.762 0,-9.762 m -2.464,9.762 0,-9.762 m -2.466,9.762 0,-9.762 m -2.466,9.762 0,-9.762 m -2.466,9.762 0,-9.762 m 0.324,23.455 0,-2.439 m 1.916,1.22 -6.52,0 m 22.561,6.973 0,-13.947 c 0,-1.395 -1.143,-2.536 -2.537,-2.536 l -17.487,0 c -1.396,0 -2.537,1.141 -2.537,2.536 l 0,13.947 c 0,1.395 1.141,2.537 2.537,2.537 l 17.487,0 c 1.394,0 2.537,-1.142 2.537,-2.537 z m 1.745,29.193 -28.419,0 m 28.419,-24.058 -28.419,0 m 0,48.637 28.419,0 0,-86.468 -28.419,0" /></g><g
           transform="translate(150.3003,334.2505)"
           id="g36"><path
             id="path38"
             style="fill:#ffffff;fill-opacity:1;fill-rule:nonzero;stroke:none"
             d="m 0,0 0,31.215 0,1.008 -0.712,0.713 -23.142,23.143 -0.714,0.713 -1.007,0 -115.637,0 0,-4.868 114.628,0 L -4.868,30.207 -4.868,0 0,0 Z" /></g><g
           transform="translate(150.3003,334.2505)"
           id="g40"><path
             id="path42"
             style="fill:none;stroke:#384c71;stroke-width:1.454;stroke-linecap:round;stroke-linejoin:round;stroke-miterlimit:22.9260006;stroke-dasharray:none;stroke-opacity:1"
             d="m 0,0 0,31.215 0,1.008 -0.712,0.713 -23.142,23.143 -0.714,0.713 -1.007,0 -115.637,0 0,-4.868 114.628,0 L -4.868,30.207 -4.868,0 0,0 Z" /></g><path
           id="path44"
           style="fill:#384c71;fill-opacity:1;fill-rule:evenodd;stroke:none"
           d="m 176.146,22.112 -24.711,0 0,11.852 24.711,0 0,-11.852 z m 0,312.138 0,-11.852 -17.752,0 0,-180.081 4.547,-4.537 -3.441,-3.441 -5.972,5.96 0,23.369 -14.383,0 0,4.867 14.383,0 0,153.863 -22.751,0 0,11.852 45.369,0 z m -173.932,0 2.006,0 0,56.792 4.868,0 0,-56.792 3.491,0 50.208,0 0,-11.852 -50.208,0 0,-153.863 89.432,0 0,-4.867 -8.367,0 0,-61.976 -4.868,0 0,61.976 -76.197,0 0,-129.704 76.197,0 0,38.703 4.868,0 0,-38.703 16.474,0 0,-11.852 -109.391,0 0,11.852 0,300.286 1.487,0 z m 173.932,-11.852 24.714,0 0,11.851 -24.714,0 0,-11.851 z m 0,-300.286 0,11.852 27.691,0 0,56.007 -6.583,6.582 3.441,3.441 8.008,-8.007 0,-58.023 121.073,0 0,288.434 -54.913,0 0,11.852 54.913,0 11.853,0 0,-11.852 0,-288.434 0,-8.107 0,-3.745 -165.483,0 z" /><g
           transform="translate(208.7031,91.9873)"
           id="g46"><path
             id="path48"
             style="fill:none;stroke:#384c71;stroke-width:1.454;stroke-linecap:round;stroke-linejoin:round;stroke-miterlimit:22.9260006;stroke-dasharray:none;stroke-opacity:1"
             d="m 0,0 -8.008,8.007 -3.441,-3.442 6.583,-6.582 0,-56.006 -52.402,0 0,-11.852 190.194,0 0,3.745 0,8.107 0,288.434 0,11.851 -11.853,0 -54.913,0 0,-11.851 54.913,0 0,-288.434 L 0,-58.023 0,0 Z m -49.204,42.352 3.442,3.441 -4.547,4.537 0,180.081 42.466,0 0,11.851 -70.083,0 0,-11.851 22.751,0 0,-153.863 -14.383,0 0,-4.867 14.383,0 0,-23.369 5.971,-5.96 z m -157.285,199.91 2.006,0 0,56.793 4.868,0 0,-56.793 3.491,0 50.207,0 0,-11.851 -50.207,0 0,-153.863 89.432,0 0,-4.867 -8.368,0 0,-61.976 -4.867,0 0,61.976 -76.197,0 0,-129.704 76.197,0 0,38.703 4.867,0 0,-38.703 16.475,0 0,-11.852 -109.391,0 0,11.852 0,300.285 1.487,0 z" /></g><path
           id="path50"
           style="fill:#ffffff;fill-opacity:1;fill-rule:nonzero;stroke:#384c71;stroke-width:1.454;stroke-linecap:round;stroke-linejoin:round;stroke-miterlimit:22.9260006;stroke-dasharray:none;stroke-opacity:1"
           d="m 274.863,330.758 -74.003,0 0,-4.869 74.003,0 0,4.869 z" /><path
           id="path52"
           style="fill:#ffffff;fill-opacity:1;fill-rule:nonzero;stroke:#384c71;stroke-width:1.454;stroke-linecap:round;stroke-linejoin:round;stroke-miterlimit:22.9260006;stroke-dasharray:none;stroke-opacity:1"
           d="m 99.92,330.758 -37.133,0 0,-4.869 37.133,0 0,4.869 z" /><g
           transform="translate(130.7773,322.3984)"
           id="g54"><path
             id="path56"
             style="fill:none;stroke:#384c71;stroke-width:2.90700006;stroke-linecap:round;stroke-linejoin:round;stroke-miterlimit:22.9260006;stroke-dasharray:none;stroke-opacity:1"
             d="M 0,0 -26.673,-15.429" /></g><g
           transform="translate(139.145,167.0674)"
           id="g58"><path
             id="path60"
             style="fill:none;stroke:#384c71;stroke-width:2.90700006;stroke-linecap:round;stroke-linejoin:round;stroke-miterlimit:22.9260006;stroke-dasharray:none;stroke-opacity:1"
             d="M 0,0 -32.164,18.566" /></g><g
           transform="translate(88.7759,72.667)"
           id="g62"><path
             id="path64"
             style="fill:none;stroke:#384c71;stroke-width:2.90700006;stroke-linecap:round;stroke-linejoin:round;stroke-miterlimit:22.9260006;stroke-dasharray:none;stroke-opacity:1"
             d="M 0,0 -14.482,25.103" /></g><g
           transform="translate(200.6953,99.9941)"
           id="g66"><path
             id="path68"
             style="fill:none;stroke:#384c71;stroke-width:2.90700006;stroke-linecap:round;stroke-linejoin:round;stroke-miterlimit:22.9260006;stroke-dasharray:none;stroke-opacity:1"
             d="M 0,0 -3.234,19.22" /></g><g
           transform="translate(196.6748,128.627)"
           id="g70"><path
             id="path72"
             style="fill:none;stroke:#384c71;stroke-width:2.90700006;stroke-linecap:round;stroke-linejoin:round;stroke-miterlimit:22.9260006;stroke-dasharray:none;stroke-opacity:1"
             d="M 0,0 -33.733,9.153" /></g><g
           transform="translate(151.4355,22.1123)"
           id="g74"><path
             id="path76"
             style="fill:none;stroke:#384c71;stroke-width:2.90700006;stroke-linecap:round;stroke-linejoin:round;stroke-miterlimit:22.9260006;stroke-dasharray:none;stroke-opacity:1"
             d="M 0,0 -35.826,-20.658" /></g><g
           transform="translate(223.4346,368.5088)"
           id="g78"><path
             id="path80"
             style="fill:none;stroke:#384d71;stroke-width:1.45299995;stroke-linecap:round;stroke-linejoin:round;stroke-miterlimit:10;stroke-dasharray:none;stroke-opacity:1"
             d="m 0,0 c 9.074,0 16.475,7.4 16.475,16.473 0,9.073 -7.401,16.472 -16.475,16.472 -9.071,0 -16.471,-7.399 -16.471,-16.472 C -16.471,7.4 -9.071,0 0,0 Z" /></g></g></g><text
       id="text82"
       style="font-variant:normal;font-weight:bold;font-stretch:normal;font-size:22.58279991px;font-family:Roboto;-inkscape-font-specification:Roboto-Bold;writing-mode:lr-tb;fill:#000000;fill-opacity:1;fill-rule:nonzero;stroke:none"
       transform="matrix(1,0,0,-1,217.4062,376.8384)"><tspan
         id="tspan84"
         y="0"
         x="0">9</tspan></text>
<text
       id="text86"
       style="font-variant:normal;font-weight:normal;font-stretch:normal;font-size:15.4531002px;font-family:Roboto;-inkscape-font-specification:Roboto-Regular;writing-mode:lr-tb;fill:#000000;fill-opacity:1;fill-rule:nonzero;stroke:none"
       transform="matrix(1,0,0,-1,208.6562,350.6733)"><tspan
         id="tspan88"
         y="0"
         x="0 8.7000952 12.841526 21.541622">3.30</tspan></text>
<g
       id="g90"><g
         clip-path="url(#clipPath94)"
         id="g92"><g
           transform="translate(52.0439,89.3564)"
           id="g98"><path
             id="path100"
             style="fill:none;stroke:#384d71;stroke-width:1.45299995;stroke-linecap:round;stroke-linejoin:round;stroke-miterlimit:10;stroke-dasharray:none;stroke-opacity:1"
             d="m 0,0 c 9.074,0 16.473,7.4 16.473,16.472 0,9.072 -7.399,16.472 -16.473,16.472 -9.071,0 -16.472,-7.4 -16.472,-16.472 C -16.472,7.4 -9.071,0 0,0 Z" /></g></g></g><text
       id="text102"
       style="font-variant:normal;font-weight:bold;font-stretch:normal;font-size:22.58279991px;font-family:Roboto;-inkscape-font-specification:Roboto-Bold;writing-mode:lr-tb;fill:#000000;fill-opacity:1;fill-rule:nonzero;stroke:none"
       transform="matrix(1,0,0,-1,46.0142,97.6855)"><tspan
         id="tspan104"
         y="0"
         x="0">7</tspan></text>
<text
       id="text106"
       style="font-variant:normal;font-weight:normal;font-stretch:normal;font-size:15.4531002px;font-family:Roboto;-inkscape-font-specification:Roboto-Regular;writing-mode:lr-tb;fill:#000000;fill-opacity:1;fill-rule:nonzero;stroke:none"
       transform="matrix(1,0,0,-1,37.2642,71.5205)"><tspan
         id="tspan108"
         y="0"
         x="0 8.7000952 12.841526 21.541622">5.50</tspan></text>
<g
       id="g110"><g
         clip-path="url(#clipPath114)"
         id="g112"><g
           transform="translate(87.7075,227.5771)"
           id="g118"><path
             id="path120"
             style="fill:none;stroke:#384d71;stroke-width:1.45299995;stroke-linecap:round;stroke-linejoin:round;stroke-miterlimit:10;stroke-dasharray:none;stroke-opacity:1"
             d="m 0,0 c 9.073,0 16.473,7.399 16.473,16.472 0,9.073 -7.4,16.472 -16.473,16.472 -9.071,0 -16.471,-7.399 -16.471,-16.472 C -16.471,7.399 -9.071,0 0,0 Z" /></g></g></g><text
       id="text122"
       style="font-variant:normal;font-weight:bold;font-stretch:normal;font-size:22.58279991px;font-family:Roboto;-inkscape-font-specification:Roboto-Bold;writing-mode:lr-tb;fill:#000000;fill-opacity:1;fill-rule:nonzero;stroke:none"
       transform="matrix(1,0,0,-1,81.6772,235.9058)"><tspan
         id="tspan124"
         y="0"
         x="0">4</tspan></text>
<text
       id="text126"
       style="font-variant:normal;font-weight:normal;font-stretch:normal;font-size:15.4531002px;font-family:Roboto;-inkscape-font-specification:Roboto-Regular;writing-mode:lr-tb;fill:#000000;fill-opacity:1;fill-rule:nonzero;stroke:none"
       transform="matrix(1,0,0,-1,68.5786,209.7402)"><tspan
         id="tspan128"
         y="0"
         x="0 8.7000952 17.40019 21.541622 30.241716">11.44</tspan></text>
<g
       id="g130"><g
         clip-path="url(#clipPath134)"
         id="g132"><g
           transform="translate(141.7187,79.0762)"
           id="g138"><path
             id="path140"
             style="fill:none;stroke:#384d71;stroke-width:1.45299995;stroke-linecap:round;stroke-linejoin:round;stroke-miterlimit:10;stroke-dasharray:none;stroke-opacity:1"
             d="m 0,0 c 9.074,0 16.474,7.399 16.474,16.472 0,9.073 -7.4,16.472 -16.474,16.472 -9.071,0 -16.472,-7.399 -16.472,-16.472 C -16.472,7.399 -9.071,0 0,0 Z" /></g></g></g><text
       id="text142"
       style="font-variant:normal;font-weight:bold;font-stretch:normal;font-size:22.58279991px;font-family:Roboto;-inkscape-font-specification:Roboto-Bold;writing-mode:lr-tb;fill:#000000;fill-opacity:1;fill-rule:nonzero;stroke:none"
       transform="matrix(1,0,0,-1,135.688,87.4043)"><tspan
         id="tspan144"
         y="0"
         x="0">1</tspan></text>
<text
       id="text146"
       style="font-variant:normal;font-weight:normal;font-stretch:normal;font-size:15.4531002px;font-family:Roboto;-inkscape-font-specification:Roboto-Regular;writing-mode:lr-tb;fill:#000000;fill-opacity:1;fill-rule:nonzero;stroke:none"
       transform="matrix(1,0,0,-1,126.939,61.2402)"><tspan
         id="tspan148"
         y="0"
         x="0 8.7000952 12.841526 21.541622">6.98</tspan></text>
<g
       id="g150"><g
         clip-path="url(#clipPath154)"
         id="g152"><g
           transform="translate(247.8281,206.7402)"
           id="g158"><path
             id="path160"
             style="fill:none;stroke:#384d71;stroke-width:1.45299995;stroke-linecap:round;stroke-linejoin:round;stroke-miterlimit:10;stroke-dasharray:none;stroke-opacity:1"
             d="m 0,0 c 9.071,0 16.472,7.4 16.472,16.472 0,9.074 -7.401,16.473 -16.472,16.473 -9.074,0 -16.474,-7.399 -16.474,-16.473 C -16.474,7.4 -9.074,0 0,0 Z" /></g></g></g><text
       id="text162"
       style="font-variant:normal;font-weight:bold;font-stretch:normal;font-size:22.58279991px;font-family:Roboto;-inkscape-font-specification:Roboto-Bold;writing-mode:lr-tb;fill:#000000;fill-opacity:1;fill-rule:nonzero;stroke:none"
       transform="matrix(1,0,0,-1,241.7969,215.0688)"><tspan
         id="tspan164"
         y="0"
         x="0">2</tspan></text>
<text
       id="text166"
       style="font-variant:normal;font-weight:normal;font-stretch:normal;font-size:15.4531002px;font-family:Roboto;-inkscape-font-specification:Roboto-Regular;writing-mode:lr-tb;fill:#000000;fill-opacity:1;fill-rule:nonzero;stroke:none"
       transform="matrix(1,0,0,-1,228.6973,188.9043)"><tspan
         id="tspan168"
         y="0"
         x="0 8.7000952 17.40019 21.541622 30.241716">26.28</tspan></text>
<g
       id="g170"><g
         clip-path="url(#clipPath174)"
         id="g172"><g
           transform="translate(246.0186,344.853)"
           id="g178"><path
             id="path180"
             style="fill:none;stroke:#000000;stroke-width:1.23500001;stroke-linecap:round;stroke-linejoin:round;stroke-miterlimit:22.9260006;stroke-dasharray:none;stroke-opacity:1"
             d="M 0,0 -157.118,0" /></g></g></g></g></svg>