<?xml version="1.0" encoding="UTF-8" standalone="no"?>
<svg
   xmlns:dc="http://purl.org/dc/elements/1.1/"
   xmlns:cc="http://creativecommons.org/ns#"
   xmlns:rdf="http://www.w3.org/1999/02/22-rdf-syntax-ns#"
   xmlns:svg="http://www.w3.org/2000/svg"
   xmlns="http://www.w3.org/2000/svg"
   viewBox="0 0 501.43625 435.27374"
   height="435.27374"
   width="501.43625"
   xml:space="preserve"
   version="1.1"
   id="svg2"><metadata
     id="metadata8"><rdf:RDF><cc:Work
         rdf:about=""><dc:format>image/svg+xml</dc:format><dc:type
           rdf:resource="http://purl.org/dc/dcmitype/StillImage" /></cc:Work></rdf:RDF></metadata><defs
     id="defs6"><clipPath
       id="clipPath16"
       clipPathUnits="userSpaceOnUse"><path
         id="path18"
         d="m 0,348.219 401.149,0 L 401.149,0 0,0 0,348.219 Z" /></clipPath><clipPath
       id="clipPath106"
       clipPathUnits="userSpaceOnUse"><path
         id="path108"
         d="m 0,348.219 401.149,0 L 401.149,0 0,0 0,348.219 Z" /></clipPath><clipPath
       id="clipPath126"
       clipPathUnits="userSpaceOnUse"><path
         id="path128"
         d="m 0,348.219 401.149,0 L 401.149,0 0,0 0,348.219 Z" /></clipPath><clipPath
       id="clipPath146"
       clipPathUnits="userSpaceOnUse"><path
         id="path148"
         d="m 0,348.219 401.149,0 L 401.149,0 0,0 0,348.219 Z" /></clipPath><clipPath
       id="clipPath166"
       clipPathUnits="userSpaceOnUse"><path
         id="path168"
         d="m 0,348.219 401.149,0 L 401.149,0 0,0 0,348.219 Z" /></clipPath><clipPath
       id="clipPath186"
       clipPathUnits="userSpaceOnUse"><path
         id="path188"
         d="m 0,348.219 401.149,0 L 401.149,0 0,0 0,348.219 Z" /></clipPath><clipPath
       id="clipPath206"
       clipPathUnits="userSpaceOnUse"><path
         id="path208"
         d="m 0,348.219 401.149,0 L 401.149,0 0,0 0,348.219 Z" /></clipPath><clipPath
       id="clipPath226"
       clipPathUnits="userSpaceOnUse"><path
         id="path228"
         d="m 0,348.219 401.149,0 L 401.149,0 0,0 0,348.219 Z" /></clipPath></defs><g
     transform="matrix(1.25,0,0,-1.25,0,435.27375)"
     id="g10"><g
       id="g12"><g
         clip-path="url(#clipPath16)"
         id="g14"><g
           transform="translate(377.9526,124.3652)"
           id="g20"><path
             id="path22"
             style="fill:none;stroke:#384d71;stroke-width:1.148;stroke-linecap:round;stroke-linejoin:round;stroke-miterlimit:10;stroke-dasharray:none;stroke-opacity:1"
             d="m 0,0 0,-1.729 m 0,-3.713 0,1.728 m -2.721,0.993 1.728,0 m 3.713,0 -1.729,0 m -2.623,0 c 0,0.9 0.731,1.63 1.632,1.63 0.898,0 1.629,-0.73 1.629,-1.63 0,-0.9 -0.731,-1.631 -1.629,-1.631 -0.901,0 -1.632,0.731 -1.632,1.631 z m 6.883,6.81 -31.349,0 c -3.722,0 -6.742,-3.02 -6.742,-6.741 0,-3.723 3.02,-6.743 6.742,-6.743 l 31.349,0 c 0.71,0 1.288,0.582 1.288,1.291 l 0,10.904 c 0,0.711 -0.578,1.289 -1.288,1.289 z m 2.642,3.457 -40.313,0 c -5.631,0 -10.197,-4.567 -10.197,-10.198 0,-5.631 4.566,-10.198 10.197,-10.198 l 40.313,0 c 1.076,0 1.952,0.876 1.952,1.951 l 0,16.494 c 0,1.074 -0.876,1.951 -1.952,1.951 z m -52.163,1.988 55.903,0 0,-24.372 -55.903,0 0,24.372 z" /></g><g
           transform="translate(383.1831,78.9336)"
           id="g24"><path
             id="path26"
             style="fill:none;stroke:#384d71;stroke-width:1.148;stroke-linecap:round;stroke-linejoin:round;stroke-miterlimit:10;stroke-dasharray:none;stroke-opacity:1"
             d="m 0,0 c -3.307,0 -5.315,-0.827 -7.563,-0.827 -3.513,0 -8.753,2.369 -8.753,6.609 0,4.24 5.24,6.611 8.753,6.611 2.248,0 4.256,-0.828 7.563,-0.828 M -13.467,3.104 c 2.302,0.99 2.302,4.367 0,5.356 M -0.206,2.892 c -5.39,-3.057 -14.458,-1.982 -14.458,2.89 0,4.872 9.068,5.947 14.458,2.891 M 2.31,5.782 c 0,0.436 0.352,0.79 0.79,0.79 0.434,0 0.789,-0.354 0.789,-0.79 0,-0.435 -0.355,-0.789 -0.789,-0.789 -0.438,0 -0.79,0.354 -0.79,0.789 z m -2.516,-4.854 0,9.709 c 0,0.91 0.744,1.652 1.651,1.652 l 3.306,0 c 0.909,0 1.652,-0.742 1.652,-1.652 l 0,-9.709 C 6.403,0.02 5.66,-0.725 4.751,-0.725 l -3.306,0 c -0.907,0 -1.651,0.745 -1.651,1.653 z" /></g><g
           transform="translate(387.9321,143.0713)"
           id="g28"><path
             id="path30"
             style="fill:none;stroke:#384d71;stroke-width:1.148;stroke-linecap:round;stroke-linejoin:round;stroke-miterlimit:10;stroke-dasharray:none;stroke-opacity:1"
             d="m 0,0 0,-1.334 m -0.668,0.666 1.335,0 m -4.736,0.002 c 0,0.27 0.218,0.491 0.492,0.491 0.271,0 0.491,-0.221 0.491,-0.491 0,-0.272 -0.22,-0.492 -0.491,-0.492 -0.274,0 -0.492,0.22 -0.492,0.492 z m 2.282,-4.847 0,9.691 -2.027,0 c -2.638,0 -3.369,-2.657 -3.369,-4.846 0,-2.188 0.731,-4.845 3.369,-4.845 l 2.027,0 z m -7.023,4.845 c 0,-5.068 2.9,-6.471 4.996,-6.471 l 5.468,0 0,12.943 -5.468,0 C -5.91,5.804 -8.81,4.4 -8.81,-0.668 Z" /></g><g
           transform="translate(386.9438,257.4546)"
           id="g32"><path
             id="path34"
             style="fill:none;stroke:#384d71;stroke-width:1.148;stroke-linecap:round;stroke-linejoin:round;stroke-miterlimit:10;stroke-dasharray:none;stroke-opacity:1"
             d="m 0,0 0,-15.561 m -5.645,3.465 c 0,-0.876 0.711,-1.586 1.586,-1.586 0.876,0 1.587,0.71 1.587,1.586 0,0.876 -0.711,1.586 -1.587,1.586 -0.875,0 -1.586,-0.71 -1.586,-1.586 z m 0,8.632 c 0,-0.876 0.711,-1.587 1.586,-1.587 0.876,0 1.587,0.711 1.587,1.587 0,0.876 -0.711,1.587 -1.587,1.587 -0.875,0 -1.586,-0.711 -1.586,-1.587 z m -7.92,-8.632 c 0,-0.876 0.71,-1.586 1.586,-1.586 0.876,0 1.587,0.71 1.587,1.586 0,0.876 -0.711,1.586 -1.587,1.586 -0.876,0 -1.586,-0.71 -1.586,-1.586 z m 0,8.632 c 0,-0.876 0.71,-1.587 1.586,-1.587 0.876,0 1.587,0.711 1.587,1.587 0,0.876 -0.711,1.587 -1.587,1.587 -0.876,0 -1.586,-0.711 -1.586,-1.587 z m -2.683,-12.097 18.589,0 0,15.561 -18.589,0 0,-15.561 z m 15.836,-40.344 0,-7.71 m -13.632,7.71 0,-7.71 m 1.946,7.71 0,-7.71 m 1.948,7.71 0,-7.71 m 1.948,7.71 0,-7.71 m 1.947,7.71 0,-7.71 m 1.947,7.71 0,-7.71 m 1.948,7.71 0,-7.71 m -0.255,18.526 0,-1.927 m -1.514,0.963 5.15,0 m -17.819,5.508 0,-11.016 c 0,-1.102 0.902,-2.003 2.003,-2.003 l 13.814,0 c 1.1,0 2.003,0.901 2.003,2.003 l 0,11.016 c 0,1.102 -0.903,2.003 -2.003,2.003 l -13.814,0 c -1.101,0 -2.003,-0.901 -2.003,-2.003 z m -1.378,23.058 22.446,0 m -22.446,-19.002 22.446,0 m 0,38.416 -22.446,0 0,-68.296 22.446,0" /></g><g
           transform="translate(168.0957,302.6851)"
           id="g36"><path
             id="path38"
             style="fill:#384c71;fill-opacity:1;fill-rule:evenodd;stroke:none"
             d="m 0,0 -37.399,0 0,-4.023 0,-5.338 0,-39.589 -37.111,0 0,-9.362 37.111,0 5.516,0 0,-132.68 0,-3.844 3.845,0 28.038,0 0,3.844 -28.038,0 0,132.68 0,7.236 0,2.126 0,39.589 L 0,-9.361 0,0 Z m -158.16,-246.54 -9.361,0 0,9.362 0,178.866 0,6.358 0,3.004 44.267,0 0,-9.362 -34.906,0 0,-178.866 126.277,0 0,13.012 3.845,0 0,-13.012 28.038,0 0,-9.362 -158.16,0 z M 0,0 l 15.129,0 0,-9.361 L 0,-9.361 0,0 Z m 74.15,-187.762 0,-0.723 -6.352,-6.351 -67.798,0 0,3.844 66.205,0 5.587,5.586 2.358,-2.356 z m 0,178.401 -0.363,0 0,9.361 0.363,0 0,-9.361 z M 0,-237.178 l 74.15,0 0,-9.361 -74.15,0 0,9.361 z m 74.15,48.693 0,0.723 0.36,-0.363 -0.36,-0.36 z m 15.335,179.124 -15.335,0 0,9.361 15.335,0 0,-9.361 z m -15.335,-227.817 15.335,0 0,-9.361 -15.335,0 0,9.361 z m 71.721,113.266 4.957,0 0,-4.211 3.844,0 0,12.679 68.446,0 0,-79.472 -68.446,0 0,44.073 -3.844,0 0,-44.073 0,-3.844 3.844,0 68.446,0 0,-38.418 -68.446,0 0,15.698 -3.844,0 0,-15.698 -13.012,0 0,-9.362 85.302,0 6.609,0 2.752,0 0,246.54 -2.759,0 0,44.959 -3.844,0 0,-44.959 -2.758,0 -40.482,0 0,-9.361 40.482,0 0,-102.239 -68.446,0 -3.844,0 0,-3.844 0,-4.624 -4.957,0 0,-3.844 z m -56.386,114.551 0,9.361 39.449,0 0,-9.361 -17.168,0 0,-110.707 4.776,0 0,-3.844 -4.776,0 0,-26.956 -0.196,0 0.052,-0.145 -7.266,-7.266 -2.719,2.72 6.284,6.283 0,139.915 -18.436,0 z m 0,-227.817 15.697,0 0,-9.361 -15.697,0 0,9.361 z" /></g><g
           transform="translate(235.894,107.8486)"
           id="g40"><path
             id="path42"
             style="fill:none;stroke:#384c71;stroke-width:1.148;stroke-linecap:round;stroke-linejoin:round;stroke-miterlimit:22.9260006;stroke-dasharray:none;stroke-opacity:1"
             d="m 0,0 6.712,6.712 -2.719,2.719 -5.587,-5.586 -94.242,0 0,132.68 0,7.236 0,2.125 0,39.59 43.167,0 0,9.36 -52.529,0 0,-4.023 0,-5.337 0,-39.59 -37.111,0 0,-9.361 37.111,0 5.517,0 0,-132.68 0,-3.845 3.845,0 L 0,0 Z m 43.968,70.924 4.775,0 0,3.845 -4.775,0 0,110.707 17.168,0 0,9.36 -55.148,0 0,-9.36 34.135,0 0,-139.915 -6.284,-6.284 2.719,-2.719 7.265,7.265 -0.052,0.146 0.197,0 0,26.955 z m 34.104,0 4.957,0 0,-4.21 3.845,0 0,12.678 68.445,0 0,-79.471 -68.445,0 0,44.072 -3.845,0 0,-44.072 0,-3.845 3.845,0 68.445,0 0,-38.418 -68.445,0 0,15.698 -3.845,0 0,-15.698 -13.011,0 0,-9.361 85.301,0 6.61,0 2.752,0 0,246.539 -2.759,0 0,44.96 -3.844,0 0,-44.96 -2.759,0 -40.481,0 0,-9.36 40.481,0 0,-102.239 -68.445,0 -3.845,0 0,-3.845 0,-4.623 -4.957,0 0,-3.845 z m -304.03,-122.627 -9.362,0 0,9.361 0,178.867 0,6.357 0,3.004 44.267,0 0,-9.361 -34.905,0 0,-178.867 126.277,0 0,13.013 3.845,0 0,-13.013 133.22,0 0,-9.361 -263.342,0 z" /></g><path
           id="path44"
           style="fill:#ffffff;fill-opacity:1;fill-rule:nonzero;stroke:#384c71;stroke-width:1.148;stroke-linecap:round;stroke-linejoin:round;stroke-miterlimit:22.9260006;stroke-dasharray:none;stroke-opacity:1"
           d="m 44.841,250.977 48.744,0 0,-3.845 -48.744,0 0,3.845 z" /><path
           id="path46"
           style="fill:#ffffff;fill-opacity:1;fill-rule:nonzero;stroke:#384c71;stroke-width:1.148;stroke-linecap:round;stroke-linejoin:round;stroke-miterlimit:22.9260006;stroke-dasharray:none;stroke-opacity:1"
           d="m 183.225,299.927 58.657,0 0,-3.845 -58.657,0 0,3.845 z" /><path
           id="path48"
           style="fill:#ffffff;fill-opacity:1;fill-rule:nonzero;stroke:#384c71;stroke-width:1.148;stroke-linecap:round;stroke-linejoin:round;stroke-miterlimit:22.9260006;stroke-dasharray:none;stroke-opacity:1"
           d="m 350.732,296.082 -29.33,0 0,3.845 29.33,0 0,-3.845 z" /><g
           transform="translate(280.855,302.6851)"
           id="g50"><path
             id="path52"
             style="fill:#ffffff;fill-opacity:1;fill-rule:nonzero;stroke:none"
             d="m 0,0 0,24.655 0,0.796 0.564,0.563 18.279,18.279 0.563,0.563 0.796,0 92.915,0 0,-3.844 -92.119,0 L 3.847,23.859 3.847,0 0,0 Z" /></g><g
           transform="translate(280.855,302.6851)"
           id="g54"><path
             id="path56"
             style="fill:none;stroke:#384c71;stroke-width:1.148;stroke-linecap:round;stroke-linejoin:round;stroke-miterlimit:22.9260006;stroke-dasharray:none;stroke-opacity:1"
             d="m 0,0 0,24.655 0,0.796 0.564,0.563 18.279,18.279 0.563,0.563 0.796,0 92.915,0 0,-3.844 -92.119,0 L 3.847,23.859 3.847,0 0,0 Z" /></g><g
           transform="translate(273.2778,56.1455)"
           id="g58"><path
             id="path60"
             style="fill:none;stroke:#384c71;stroke-width:2.296;stroke-linecap:round;stroke-linejoin:round;stroke-miterlimit:22.9260006;stroke-dasharray:none;stroke-opacity:1"
             d="M 0,0 28.297,-16.316" /></g><g
           transform="translate(136.8633,107.8486)"
           id="g62"><path
             id="path64"
             style="fill:none;stroke:#384c71;stroke-width:2.296;stroke-linecap:round;stroke-linejoin:round;stroke-miterlimit:22.9260006;stroke-dasharray:none;stroke-opacity:1"
             d="M 0,0 14.458,-25.405" /></g><g
           transform="translate(239.8872,117.2793)"
           id="g66"><path
             id="path68"
             style="fill:none;stroke:#384c71;stroke-width:2.296;stroke-linecap:round;stroke-linejoin:round;stroke-miterlimit:22.9260006;stroke-dasharray:none;stroke-opacity:1"
             d="M 0,0 2.686,15.285" /></g><g
           transform="translate(243.0874,140.1035)"
           id="g70"><path
             id="path72"
             style="fill:none;stroke:#384c71;stroke-width:2.296;stroke-linecap:round;stroke-linejoin:round;stroke-miterlimit:22.9260006;stroke-dasharray:none;stroke-opacity:1"
             d="M 0,0 26.646,7.022" /></g><g
           transform="translate(319.5737,103.9248)"
           id="g74"><path
             id="path76"
             style="fill:none;stroke:#384c71;stroke-width:2.296;stroke-linecap:round;stroke-linejoin:round;stroke-miterlimit:22.9260006;stroke-dasharray:none;stroke-opacity:1"
             d="M 0,0 11.359,-19.621" /></g><g
           transform="translate(322.7681,174.5625)"
           id="g78"><path
             id="path80"
             style="fill:none;stroke:#384c71;stroke-width:2.296;stroke-linecap:round;stroke-linejoin:round;stroke-miterlimit:22.9260006;stroke-dasharray:none;stroke-opacity:1"
             d="M 0,0 11.359,-19.829" /></g><g
           transform="translate(284.6372,182.6172)"
           id="g82"><path
             id="path84"
             style="fill:none;stroke:#384c71;stroke-width:2.296;stroke-linecap:round;stroke-linejoin:round;stroke-miterlimit:22.9260006;stroke-dasharray:none;stroke-opacity:1"
             d="M 0,0 25.404,14.665" /></g><g
           transform="translate(297.0298,293.3242)"
           id="g86"><path
             id="path88"
             style="fill:none;stroke:#384c71;stroke-width:2.296;stroke-linecap:round;stroke-linejoin:round;stroke-miterlimit:22.9260006;stroke-dasharray:none;stroke-opacity:1"
             d="M 0,0 21.273,-12.186" /></g><g
           transform="translate(71.665,155.4482)"
           id="g90"><path
             id="path92"
             style="fill:none;stroke:#384d71;stroke-width:1.148;stroke-linecap:round;stroke-linejoin:round;stroke-miterlimit:10;stroke-dasharray:none;stroke-opacity:1"
             d="m 0,0 c 7.165,0 13.01,5.845 13.01,13.012 0,7.165 -5.845,13.009 -13.01,13.009 -7.166,0 -13.011,-5.844 -13.011,-13.009 C -13.011,5.845 -7.166,0 0,0 Z" /></g></g></g><text
       id="text94"
       style="font-variant:normal;font-weight:bold;font-stretch:normal;font-size:17.83679962px;font-family:Roboto;-inkscape-font-specification:Roboto-Bold;writing-mode:lr-tb;fill:#000000;fill-opacity:1;fill-rule:nonzero;stroke:none"
       transform="matrix(1,0,0,-1,66.9014,162.0283)"><tspan
         id="tspan96"
         y="0"
         x="0">3</tspan></text>
<text
       id="text98"
       style="font-variant:normal;font-weight:normal;font-stretch:normal;font-size:12.20549965px;font-family:Roboto;-inkscape-font-specification:Roboto-Regular;writing-mode:lr-tb;fill:#000000;fill-opacity:1;fill-rule:nonzero;stroke:none"
       transform="matrix(1,0,0,-1,56.5537,141.3604)"><tspan
         id="tspan100"
         y="0"
         x="0 6.8716965 13.743393 17.014467 23.886164">21.29</tspan></text>
<g
       id="g102"><g
         clip-path="url(#clipPath106)"
         id="g104"><g
           transform="translate(270.9663,95.1943)"
           id="g110"><path
             id="path112"
             style="fill:none;stroke:#384d71;stroke-width:1.148;stroke-linecap:round;stroke-linejoin:round;stroke-miterlimit:10;stroke-dasharray:none;stroke-opacity:1"
             d="m 0,0 c 7.166,0 13.011,5.844 13.011,13.011 0,7.165 -5.845,13.01 -13.011,13.01 -7.166,0 -13.011,-5.845 -13.011,-13.01 C -13.011,5.844 -7.166,0 0,0 Z" /></g></g></g><text
       id="text114"
       style="font-variant:normal;font-weight:bold;font-stretch:normal;font-size:17.83679962px;font-family:Roboto;-inkscape-font-specification:Roboto-Bold;writing-mode:lr-tb;fill:#000000;fill-opacity:1;fill-rule:nonzero;stroke:none"
       transform="matrix(1,0,0,-1,266.2026,101.7734)"><tspan
         id="tspan116"
         y="0"
         x="0">1</tspan></text>
<text
       id="text118"
       style="font-variant:normal;font-weight:normal;font-stretch:normal;font-size:12.20549965px;font-family:Roboto;-inkscape-font-specification:Roboto-Regular;writing-mode:lr-tb;fill:#000000;fill-opacity:1;fill-rule:nonzero;stroke:none"
       transform="matrix(1,0,0,-1,255.8569,81.1055)"><tspan
         id="tspan120"
         y="0"
         x="0 6.8716965 13.743393 17.008364 23.88006">10.04</tspan></text>
<g
       id="g122"><g
         clip-path="url(#clipPath126)"
         id="g124"><g
           transform="translate(336.7632,20.5928)"
           id="g130"><path
             id="path132"
             style="fill:none;stroke:#384d71;stroke-width:1.148;stroke-linecap:round;stroke-linejoin:round;stroke-miterlimit:10;stroke-dasharray:none;stroke-opacity:1"
             d="m 0,0 c 7.164,0 13.01,5.845 13.01,13.011 0,7.166 -5.846,13.01 -13.01,13.01 -7.168,0 -13.013,-5.844 -13.013,-13.01 C -13.013,5.845 -7.168,0 0,0 Z" /></g></g></g><text
       id="text134"
       style="font-variant:normal;font-weight:bold;font-stretch:normal;font-size:17.83679962px;font-family:Roboto;-inkscape-font-specification:Roboto-Bold;writing-mode:lr-tb;fill:#000000;fill-opacity:1;fill-rule:nonzero;stroke:none"
       transform="matrix(1,0,0,-1,331.9995,27.1719)"><tspan
         id="tspan136"
         y="0"
         x="0">6</tspan></text>
<text
       id="text138"
       style="font-variant:normal;font-weight:normal;font-stretch:normal;font-size:12.20549965px;font-family:Roboto;-inkscape-font-specification:Roboto-Regular;writing-mode:lr-tb;fill:#000000;fill-opacity:1;fill-rule:nonzero;stroke:none"
       transform="matrix(1,0,0,-1,325.0874,6.5049)"><tspan
         id="tspan140"
         y="0"
         x="0 6.8716965 10.142771 17.014467">2.19</tspan></text>
<g
       id="g142"><g
         clip-path="url(#clipPath146)"
         id="g144"><g
           transform="translate(358.0298,154.4004)"
           id="g150"><path
             id="path152"
             style="fill:none;stroke:#384d71;stroke-width:1.148;stroke-linecap:round;stroke-linejoin:round;stroke-miterlimit:10;stroke-dasharray:none;stroke-opacity:1"
             d="m 0,0 c 7.166,0 13.011,5.845 13.011,13.011 0,7.165 -5.845,13.01 -13.011,13.01 -7.166,0 -13.011,-5.845 -13.011,-13.01 C -13.011,5.845 -7.166,0 0,0 Z" /></g></g></g><text
       id="text154"
       style="font-variant:normal;font-weight:bold;font-stretch:normal;font-size:17.83679962px;font-family:Roboto;-inkscape-font-specification:Roboto-Bold;writing-mode:lr-tb;fill:#000000;fill-opacity:1;fill-rule:nonzero;stroke:none"
       transform="matrix(1,0,0,-1,353.2671,160.9795)"><tspan
         id="tspan156"
         y="0"
         x="0">5</tspan></text>
<text
       id="text158"
       style="font-variant:normal;font-weight:normal;font-stretch:normal;font-size:12.20549965px;font-family:Roboto;-inkscape-font-specification:Roboto-Regular;writing-mode:lr-tb;fill:#000000;fill-opacity:1;fill-rule:nonzero;stroke:none"
       transform="matrix(1,0,0,-1,346.355,140.3115)"><tspan
         id="tspan160"
         y="0"
         x="0 6.8716965 10.142771 17.014467">4.36</tspan></text>
<g
       id="g162"><g
         clip-path="url(#clipPath166)"
         id="g164"><g
           transform="translate(324.7163,231.249)"
           id="g170"><path
             id="path172"
             style="fill:none;stroke:#384d71;stroke-width:1.148;stroke-linecap:round;stroke-linejoin:round;stroke-miterlimit:10;stroke-dasharray:none;stroke-opacity:1"
             d="M 0,0 C 7.166,0 13.01,5.844 13.01,13.01 13.01,20.176 7.166,26.021 0,26.021 -7.166,26.021 -13.01,20.176 -13.01,13.01 -13.01,5.844 -7.166,0 0,0 Z" /></g></g></g><text
       id="text174"
       style="font-variant:normal;font-weight:bold;font-stretch:normal;font-size:17.83679962px;font-family:Roboto;-inkscape-font-specification:Roboto-Bold;writing-mode:lr-tb;fill:#000000;fill-opacity:1;fill-rule:nonzero;stroke:none"
       transform="matrix(1,0,0,-1,319.9526,237.8286)"><tspan
         id="tspan176"
         y="0"
         x="0">4</tspan></text>
<text
       id="text178"
       style="font-variant:normal;font-weight:normal;font-stretch:normal;font-size:12.20549965px;font-family:Roboto;-inkscape-font-specification:Roboto-Regular;writing-mode:lr-tb;fill:#000000;fill-opacity:1;fill-rule:nonzero;stroke:none"
       transform="matrix(1,0,0,-1,309.605,217.1611)"><tspan
         id="tspan180"
         y="0"
         x="0 6.8716965 13.743393 17.008364 23.88006">10.46</tspan></text>
<g
       id="g182"><g
         clip-path="url(#clipPath186)"
         id="g184"><g
           transform="translate(205.2085,208.6768)"
           id="g190"><path
             id="path192"
             style="fill:none;stroke:#384d71;stroke-width:1.148;stroke-linecap:round;stroke-linejoin:round;stroke-miterlimit:10;stroke-dasharray:none;stroke-opacity:1"
             d="M 0,0 C 7.167,0 13.011,5.844 13.011,13.01 13.011,20.176 7.167,26.021 0,26.021 -7.166,26.021 -13.011,20.176 -13.011,13.01 -13.011,5.844 -7.166,0 0,0 Z" /></g></g></g><text
       id="text194"
       style="font-variant:normal;font-weight:bold;font-stretch:normal;font-size:17.83679962px;font-family:Roboto;-inkscape-font-specification:Roboto-Bold;writing-mode:lr-tb;fill:#000000;fill-opacity:1;fill-rule:nonzero;stroke:none"
       transform="matrix(1,0,0,-1,200.4453,215.2559)"><tspan
         id="tspan196"
         y="0"
         x="0">2</tspan></text>
<text
       id="text198"
       style="font-variant:normal;font-weight:normal;font-stretch:normal;font-size:12.20549965px;font-family:Roboto;-inkscape-font-specification:Roboto-Regular;writing-mode:lr-tb;fill:#000000;fill-opacity:1;fill-rule:nonzero;stroke:none"
       transform="matrix(1,0,0,-1,190.0986,194.5898)"><tspan
         id="tspan200"
         y="0"
         x="0 6.8716965 13.743393 17.008364 23.88006">22.59</tspan></text>
<g
       id="g202"><g
         clip-path="url(#clipPath206)"
         id="g204"><g
           transform="translate(308.9321,313.165)"
           id="g210"><path
             id="path212"
             style="fill:none;stroke:#384d71;stroke-width:1.148;stroke-linecap:round;stroke-linejoin:round;stroke-miterlimit:10;stroke-dasharray:none;stroke-opacity:1"
             d="m 0,0 c 7.167,0 13.011,5.845 13.011,13.011 0,7.165 -5.844,13.01 -13.011,13.01 -7.165,0 -13.01,-5.845 -13.01,-13.01 C -13.01,5.845 -7.165,0 0,0 Z" /></g></g></g><text
       id="text214"
       style="font-variant:normal;font-weight:bold;font-stretch:normal;font-size:17.83679962px;font-family:Roboto;-inkscape-font-specification:Roboto-Bold;writing-mode:lr-tb;fill:#000000;fill-opacity:1;fill-rule:nonzero;stroke:none"
       transform="matrix(1,0,0,-1,304.1694,319.7437)"><tspan
         id="tspan216"
         y="0"
         x="0">9</tspan></text>
<text
       id="text218"
       style="font-variant:normal;font-weight:normal;font-stretch:normal;font-size:12.20549965px;font-family:Roboto;-inkscape-font-specification:Roboto-Regular;writing-mode:lr-tb;fill:#000000;fill-opacity:1;fill-rule:nonzero;stroke:none"
       transform="matrix(1,0,0,-1,300.6948,299.0786)"><tspan
         id="tspan220"
         y="0"
         x="0 6.8716965 10.142771">3.3</tspan></text>
<g
       id="g222"><g
         clip-path="url(#clipPath226)"
         id="g224"><g
           transform="translate(319.9067,0.4883)"
           id="g230"><path
             id="path232"
             style="fill:none;stroke:#000000;stroke-width:0.97600001;stroke-linecap:round;stroke-linejoin:round;stroke-miterlimit:22.9260006;stroke-dasharray:none;stroke-opacity:1"
             d="m 0,0 39.793,0 0,81.369" /></g></g></g></g></svg>