<?xml version="1.0" encoding="UTF-8" standalone="no"?>
<svg
   xmlns:dc="http://purl.org/dc/elements/1.1/"
   xmlns:cc="http://creativecommons.org/ns#"
   xmlns:rdf="http://www.w3.org/1999/02/22-rdf-syntax-ns#"
   xmlns:svg="http://www.w3.org/2000/svg"
   xmlns="http://www.w3.org/2000/svg"
   viewBox="0 0 534.86401 464.29199"
   height="464.29199"
   width="534.86401"
   xml:space="preserve"
   id="svg2"
   version="1.1"><metadata
     id="metadata8"><rdf:RDF><cc:Work
         rdf:about=""><dc:format>image/svg+xml</dc:format><dc:type
           rdf:resource="http://purl.org/dc/dcmitype/StillImage" /></cc:Work></rdf:RDF></metadata><defs
     id="defs6"><clipPath
       id="clipPath18"
       clipPathUnits="userSpaceOnUse"><path
         id="path16"
         d="M 0,348.219 H 401.148 V 0 H 0 Z" /></clipPath><clipPath
       id="clipPath54"
       clipPathUnits="userSpaceOnUse"><path
         id="path52"
         d="M 0,348.219 H 401.148 V 0 H 0 Z" /></clipPath><clipPath
       id="clipPath74"
       clipPathUnits="userSpaceOnUse"><path
         id="path72"
         d="M 0,348.219 H 401.148 V 0 H 0 Z" /></clipPath><clipPath
       id="clipPath94"
       clipPathUnits="userSpaceOnUse"><path
         id="path92"
         d="M 0,348.219 H 401.148 V 0 H 0 Z" /></clipPath><clipPath
       id="clipPath114"
       clipPathUnits="userSpaceOnUse"><path
         id="path112"
         d="M 0,348.219 H 401.148 V 0 H 0 Z" /></clipPath><clipPath
       id="clipPath134"
       clipPathUnits="userSpaceOnUse"><path
         id="path132"
         d="M 0,348.219 H 401.148 V 0 H 0 Z" /></clipPath><clipPath
       id="clipPath154"
       clipPathUnits="userSpaceOnUse"><path
         id="path152"
         d="M 0,348.219 H 401.148 V 0 H 0 Z" /></clipPath><clipPath
       id="clipPath174"
       clipPathUnits="userSpaceOnUse"><path
         id="path172"
         d="M 0,348.219 H 401.148 V 0 H 0 Z" /></clipPath></defs><g
     transform="matrix(1.3333333,0,0,-1.3333333,0,464.292)"
     id="g10"><g
       id="g12"><g
         clip-path="url(#clipPath18)"
         id="g14"><g
           transform="translate(17.9648,90.499)"
           id="g20"><path
             id="path22"
             style="fill:none;stroke:#384d71;stroke-width:1.148;stroke-linecap:round;stroke-linejoin:round;stroke-miterlimit:10;stroke-dasharray:none;stroke-opacity:1"
             d="m 0,0 c 3.307,0 5.316,0.827 7.564,0.827 3.513,0 8.753,-2.37 8.753,-6.61 0,-4.24 -5.24,-6.61 -8.753,-6.61 -2.248,0 -4.257,0.828 -7.564,0.828 m 13.467,8.46 c -2.302,-0.99 -2.302,-4.367 0,-5.355 m -13.26,5.567 c 5.389,3.057 14.457,1.982 14.457,-2.89 0,-4.872 -9.068,-5.947 -14.457,-2.891 m -2.516,2.891 c 0,-0.436 -0.354,-0.789 -0.79,-0.789 -0.436,0 -0.789,0.353 -0.789,0.789 0,0.435 0.353,0.79 0.789,0.79 0.436,0 0.79,-0.355 0.79,-0.79 z m 2.516,4.854 v -9.709 c 0,-0.908 -0.744,-1.652 -1.653,-1.652 h -3.305 c -0.909,0 -1.653,0.744 -1.653,1.652 v 9.709 c 0,0.91 0.744,1.653 1.653,1.653 h 3.305 c 0.909,0 1.653,-0.743 1.653,-1.653 z" /></g><g
           transform="translate(23.1963,124.3652)"
           id="g24"><path
             id="path26"
             style="fill:none;stroke:#384d71;stroke-width:1.148;stroke-linecap:round;stroke-linejoin:round;stroke-miterlimit:10;stroke-dasharray:none;stroke-opacity:1"
             d="m 0,0 v -1.729 m 0,-3.713 v 1.728 m 2.721,0.993 H 0.993 m -3.713,0 h 1.727 m 2.624,0 c 0,0.9 -0.731,1.63 -1.631,1.63 -0.9,0 -1.63,-0.73 -1.63,-1.63 0,-0.9 0.73,-1.631 1.63,-1.631 0.9,0 1.631,0.731 1.631,1.631 z m -6.882,6.81 h 31.349 c 3.722,0 6.741,-3.02 6.741,-6.741 0,-3.723 -3.019,-6.743 -6.741,-6.743 H -5.251 c -0.71,0 -1.29,0.582 -1.29,1.291 V 2.8 c 0,0.711 0.58,1.289 1.29,1.289 z m -2.643,3.457 h 40.313 c 5.632,0 10.198,-4.567 10.198,-10.198 0,-5.631 -4.566,-10.198 -10.198,-10.198 H -7.894 c -1.075,0 -1.952,0.876 -1.952,1.951 V 5.595 c 0,1.074 0.877,1.951 1.952,1.951 z M 44.27,9.534 H -11.635 V -14.838 H 44.27 Z" /></g><g
           transform="translate(13.2168,143.0713)"
           id="g28"><path
             id="path30"
             style="fill:none;stroke:#384d71;stroke-width:1.148;stroke-linecap:round;stroke-linejoin:round;stroke-miterlimit:10;stroke-dasharray:none;stroke-opacity:1"
             d="m 0,0 v -1.334 m 0.667,0.666 h -1.334 m 4.735,0.002 c 0,0.27 -0.219,0.491 -0.491,0.491 -0.272,0 -0.492,-0.221 -0.492,-0.491 0,-0.272 0.22,-0.492 0.492,-0.492 0.272,0 0.491,0.22 0.491,0.492 z M 1.787,-5.513 v 9.691 h 2.026 c 2.638,0 3.369,-2.657 3.369,-4.846 0,-2.188 -0.731,-4.845 -3.369,-4.845 z m 7.022,4.845 c 0,-5.068 -2.9,-6.471 -4.996,-6.471 H -1.656 V 5.804 h 5.469 c 2.096,0 4.996,-1.404 4.996,-6.472 z" /></g><g
           transform="translate(14.2036,257.4546)"
           id="g32"><path
             id="path34"
             style="fill:none;stroke:#384d71;stroke-width:1.148;stroke-linecap:round;stroke-linejoin:round;stroke-miterlimit:10;stroke-dasharray:none;stroke-opacity:1"
             d="m 0,0 v -15.561 m 5.645,3.465 c 0,-0.876 -0.71,-1.586 -1.586,-1.586 -0.876,0 -1.587,0.71 -1.587,1.586 0,0.876 0.711,1.586 1.587,1.586 0.876,0 1.586,-0.71 1.586,-1.586 z m 0,8.632 c 0,-0.876 -0.71,-1.587 -1.586,-1.587 -0.876,0 -1.587,0.711 -1.587,1.587 0,0.876 0.711,1.587 1.587,1.587 0.876,0 1.586,-0.711 1.586,-1.587 z m 7.921,-8.632 c 0,-0.876 -0.711,-1.586 -1.586,-1.586 -0.876,0 -1.587,0.71 -1.587,1.586 0,0.876 0.711,1.586 1.587,1.586 0.875,0 1.586,-0.71 1.586,-1.586 z m 0,8.632 c 0,-0.876 -0.711,-1.587 -1.586,-1.587 -0.876,0 -1.587,0.711 -1.587,1.587 0,0.876 0.711,1.587 1.587,1.587 0.875,0 1.586,-0.711 1.586,-1.587 z m 2.682,-12.097 H -2.34 V 0 H 16.248 Z M 0.413,-55.905 v -7.71 m 13.632,7.71 v -7.71 m -1.947,7.71 v -7.71 m -1.948,7.71 v -7.71 m -1.947,7.71 v -7.71 m -1.948,7.71 v -7.71 m -1.946,7.71 v -7.71 m -1.948,7.71 v -7.71 m 0.255,18.526 v -1.927 m 1.514,0.963 h -5.151 m 17.82,5.508 v -11.016 c 0,-1.102 -0.902,-2.003 -2.004,-2.003 H 0.983 c -1.102,0 -2.004,0.901 -2.004,2.003 v 11.016 c 0,1.102 0.902,2.003 2.004,2.003 h 13.812 c 1.102,0 2.004,-0.901 2.004,-2.003 z m 1.377,23.058 H -4.269 M 18.176,-36.489 H -4.269 m 0,38.416 H 18.176 V -66.369 H -4.269" /></g><g
           transform="translate(329.7686,155.4482)"
           id="g36"><path
             id="path38"
             style="fill:none;stroke:#384d71;stroke-width:1.148;stroke-linecap:round;stroke-linejoin:round;stroke-miterlimit:10;stroke-dasharray:none;stroke-opacity:1"
             d="m 0,0 c 7.166,0 13.011,5.845 13.011,13.012 0,7.165 -5.845,13.009 -13.011,13.009 -7.165,0 -13.01,-5.844 -13.01,-13.009 C -13.01,5.845 -7.165,0 0,0 Z" /></g></g></g><text
       id="text42"
       style="font-variant:normal;font-weight:bold;font-stretch:normal;font-size:17.83679962px;font-family:Roboto;-inkscape-font-specification:Roboto-Bold;writing-mode:lr-tb;fill:#000000;fill-opacity:1;fill-rule:nonzero;stroke:none"
       transform="matrix(1,0,0,-1,325.0039,162.0283)"><tspan
         id="tspan40"
         y="0"
         x="0">3</tspan></text>
<text
       id="text46"
       style="font-variant:normal;font-weight:normal;font-stretch:normal;font-size:12.20549965px;font-family:Roboto;-inkscape-font-specification:Roboto-Regular;writing-mode:lr-tb;fill:#000000;fill-opacity:1;fill-rule:nonzero;stroke:none"
       transform="matrix(1,0,0,-1,314.6582,141.3604)"><tspan
         id="tspan44"
         y="0"
         x="0 6.8716965 13.743393 17.008364 23.88006">21.29</tspan></text>
<g
       id="g48"><g
         clip-path="url(#clipPath54)"
         id="g50"><g
           transform="translate(130.0034,95.1943)"
           id="g56"><path
             id="path58"
             style="fill:none;stroke:#384d71;stroke-width:1.148;stroke-linecap:round;stroke-linejoin:round;stroke-miterlimit:10;stroke-dasharray:none;stroke-opacity:1"
             d="m 0,0 c 7.167,0 13.011,5.844 13.011,13.011 0,7.165 -5.844,13.01 -13.011,13.01 -7.166,0 -13.01,-5.845 -13.01,-13.01 C -13.01,5.844 -7.166,0 0,0 Z" /></g></g></g><text
       id="text62"
       style="font-variant:normal;font-weight:bold;font-stretch:normal;font-size:17.83679962px;font-family:Roboto;-inkscape-font-specification:Roboto-Bold;writing-mode:lr-tb;fill:#000000;fill-opacity:1;fill-rule:nonzero;stroke:none"
       transform="matrix(1,0,0,-1,125.2397,101.7734)"><tspan
         id="tspan60"
         y="0"
         x="0">1</tspan></text>
<text
       id="text66"
       style="font-variant:normal;font-weight:normal;font-stretch:normal;font-size:12.20549965px;font-family:Roboto;-inkscape-font-specification:Roboto-Regular;writing-mode:lr-tb;fill:#000000;fill-opacity:1;fill-rule:nonzero;stroke:none"
       transform="matrix(1,0,0,-1,114.8931,81.1055)"><tspan
         id="tspan64"
         y="0"
         x="0 6.8716965 13.743393 17.008364 23.88006">10.04</tspan></text>
<g
       id="g68"><g
         clip-path="url(#clipPath74)"
         id="g70"><g
           transform="translate(64.3867,20.5928)"
           id="g76"><path
             id="path78"
             style="fill:none;stroke:#384d71;stroke-width:1.148;stroke-linecap:round;stroke-linejoin:round;stroke-miterlimit:10;stroke-dasharray:none;stroke-opacity:1"
             d="m 0,0 c 7.166,0 13.011,5.845 13.011,13.011 0,7.166 -5.845,13.01 -13.011,13.01 -7.166,0 -13.01,-5.844 -13.01,-13.01 C -13.01,5.845 -7.166,0 0,0 Z" /></g></g></g><text
       id="text82"
       style="font-variant:normal;font-weight:bold;font-stretch:normal;font-size:17.83679962px;font-family:Roboto;-inkscape-font-specification:Roboto-Bold;writing-mode:lr-tb;fill:#000000;fill-opacity:1;fill-rule:nonzero;stroke:none"
       transform="matrix(1,0,0,-1,59.6235,27.1719)"><tspan
         id="tspan80"
         y="0"
         x="0">6</tspan></text>
<text
       id="text86"
       style="font-variant:normal;font-weight:normal;font-stretch:normal;font-size:12.20549965px;font-family:Roboto;-inkscape-font-specification:Roboto-Regular;writing-mode:lr-tb;fill:#000000;fill-opacity:1;fill-rule:nonzero;stroke:none"
       transform="matrix(1,0,0,-1,52.7124,6.5049)"><tspan
         id="tspan84"
         y="0"
         x="0 6.8716965 10.142771 17.014467">2.19</tspan></text>
<g
       id="g88"><g
         clip-path="url(#clipPath94)"
         id="g90"><g
           transform="translate(43.1191,154.4004)"
           id="g96"><path
             id="path98"
             style="fill:none;stroke:#384d71;stroke-width:1.148;stroke-linecap:round;stroke-linejoin:round;stroke-miterlimit:10;stroke-dasharray:none;stroke-opacity:1"
             d="m 0,0 c 7.166,0 13.01,5.845 13.01,13.011 0,7.165 -5.844,13.01 -13.01,13.01 -7.166,0 -13.01,-5.845 -13.01,-13.01 C -13.01,5.845 -7.166,0 0,0 Z" /></g></g></g><text
       id="text102"
       style="font-variant:normal;font-weight:bold;font-stretch:normal;font-size:17.83679962px;font-family:Roboto;-inkscape-font-specification:Roboto-Bold;writing-mode:lr-tb;fill:#000000;fill-opacity:1;fill-rule:nonzero;stroke:none"
       transform="matrix(1,0,0,-1,38.356,160.9795)"><tspan
         id="tspan100"
         y="0"
         x="0">5</tspan></text>
<text
       id="text106"
       style="font-variant:normal;font-weight:normal;font-stretch:normal;font-size:12.20549965px;font-family:Roboto;-inkscape-font-specification:Roboto-Regular;writing-mode:lr-tb;fill:#000000;fill-opacity:1;fill-rule:nonzero;stroke:none"
       transform="matrix(1,0,0,-1,31.4438,140.3115)"><tspan
         id="tspan104"
         y="0"
         x="0 6.8716965 10.142771 17.014467">4.36</tspan></text>
<g
       id="g108"><g
         clip-path="url(#clipPath114)"
         id="g110"><g
           transform="translate(76.4331,231.249)"
           id="g116"><path
             id="path118"
             style="fill:none;stroke:#384d71;stroke-width:1.148;stroke-linecap:round;stroke-linejoin:round;stroke-miterlimit:10;stroke-dasharray:none;stroke-opacity:1"
             d="M 0,0 C 7.166,0 13.011,5.844 13.011,13.01 13.011,20.176 7.166,26.021 0,26.021 -7.166,26.021 -13.011,20.176 -13.011,13.01 -13.011,5.844 -7.166,0 0,0 Z" /></g></g></g><text
       id="text122"
       style="font-variant:normal;font-weight:bold;font-stretch:normal;font-size:17.83679962px;font-family:Roboto;-inkscape-font-specification:Roboto-Bold;writing-mode:lr-tb;fill:#000000;fill-opacity:1;fill-rule:nonzero;stroke:none"
       transform="matrix(1,0,0,-1,71.6694,237.8286)"><tspan
         id="tspan120"
         y="0"
         x="0">4</tspan></text>
<text
       id="text126"
       style="font-variant:normal;font-weight:normal;font-stretch:normal;font-size:12.20549965px;font-family:Roboto;-inkscape-font-specification:Roboto-Regular;writing-mode:lr-tb;fill:#000000;fill-opacity:1;fill-rule:nonzero;stroke:none"
       transform="matrix(1,0,0,-1,61.3228,217.1611)"><tspan
         id="tspan124"
         y="0"
         x="0 6.8716965 13.743393 17.008364 23.88006">10.46</tspan></text>
<g
       id="g128"><g
         clip-path="url(#clipPath134)"
         id="g130"><g
           transform="translate(196.2256,208.6768)"
           id="g136"><path
             id="path138"
             style="fill:none;stroke:#384d71;stroke-width:1.148;stroke-linecap:round;stroke-linejoin:round;stroke-miterlimit:10;stroke-dasharray:none;stroke-opacity:1"
             d="M 0,0 C 7.166,0 13.011,5.844 13.011,13.01 13.011,20.176 7.166,26.021 0,26.021 -7.167,26.021 -13.011,20.176 -13.011,13.01 -13.011,5.844 -7.167,0 0,0 Z" /></g></g></g><text
       id="text142"
       style="font-variant:normal;font-weight:bold;font-stretch:normal;font-size:17.83679962px;font-family:Roboto;-inkscape-font-specification:Roboto-Bold;writing-mode:lr-tb;fill:#000000;fill-opacity:1;fill-rule:nonzero;stroke:none"
       transform="matrix(1,0,0,-1,191.4614,215.2559)"><tspan
         id="tspan140"
         y="0"
         x="0">2</tspan></text>
<text
       id="text146"
       style="font-variant:normal;font-weight:normal;font-stretch:normal;font-size:12.20549965px;font-family:Roboto;-inkscape-font-specification:Roboto-Regular;writing-mode:lr-tb;fill:#000000;fill-opacity:1;fill-rule:nonzero;stroke:none"
       transform="matrix(1,0,0,-1,181.1147,194.5898)"><tspan
         id="tspan144"
         y="0"
         x="0 6.8716965 13.743393 17.014467 23.886164">22.59</tspan></text>
<g
       id="g148"><g
         clip-path="url(#clipPath154)"
         id="g150"><g
           transform="translate(92.2163,313.165)"
           id="g156"><path
             id="path158"
             style="fill:none;stroke:#384d71;stroke-width:1.148;stroke-linecap:round;stroke-linejoin:round;stroke-miterlimit:10;stroke-dasharray:none;stroke-opacity:1"
             d="m 0,0 c 7.166,0 13.01,5.845 13.01,13.011 0,7.165 -5.844,13.01 -13.01,13.01 -7.166,0 -13.011,-5.845 -13.011,-13.01 C -13.011,5.845 -7.166,0 0,0 Z" /></g></g></g><text
       id="text162"
       style="font-variant:normal;font-weight:bold;font-stretch:normal;font-size:17.83679962px;font-family:Roboto;-inkscape-font-specification:Roboto-Bold;writing-mode:lr-tb;fill:#000000;fill-opacity:1;fill-rule:nonzero;stroke:none"
       transform="matrix(1,0,0,-1,87.4526,319.7437)"><tspan
         id="tspan160"
         y="0"
         x="0">9</tspan></text>
<text
       id="text166"
       style="font-variant:normal;font-weight:normal;font-stretch:normal;font-size:12.20549965px;font-family:Roboto;-inkscape-font-specification:Roboto-Regular;writing-mode:lr-tb;fill:#000000;fill-opacity:1;fill-rule:nonzero;stroke:none"
       transform="matrix(1,0,0,-1,83.9771,299.0786)"><tspan
         id="tspan164"
         y="0"
         x="0 6.8716965 10.142771">3.3</tspan></text>
<g
       id="g168"><g
         clip-path="url(#clipPath174)"
         id="g170"><g
           transform="translate(87.1821,178.7729)"
           id="g176"><path
             id="path178"
             style="fill:#384c71;fill-opacity:1;fill-rule:evenodd;stroke:none"
             d="M 0,0 H -4.957 V -4.21 H -8.802 V 8.468 h -68.445 v -79.471 h 68.445 v 44.072 h 3.845 v -44.072 -3.845 h -3.845 -68.445 v -38.418 h 68.445 v 15.698 h 3.845 v -15.698 H 8.055 v -9.361 h -85.302 -6.609 -2.752 v 246.539 h 2.758 v 44.96 h 3.845 v -44.96 h 2.758 40.482 v -9.361 H -77.247 V 12.313 h 68.445 3.845 V 8.468 3.844 l 4.957,0 z m 56.386,123.912 v -9.361 H 37.95 V -25.364 l 6.283,-6.283 -2.718,-2.72 -7.265,7.266 0.05,0.145 H 34.105 V 0 h -4.776 v 3.844 h 4.776 V 114.551 H 16.937 v 9.361 z m 0,-237.178 H 40.688 v -9.361 h 15.698 z m 15.336,49.416 v -0.723 l -0.362,0.361 z m 0,178.401 H 56.387 v 9.361 h 15.335 z m 0,-227.817 H 56.387 v -9.361 h 15.335 z m 0,237.178 h 0.361 v -9.361 H 71.722 Z M 145.871,-67.08 v -3.844 H 78.073 l -6.351,6.351 v 0.723 l 2.357,2.356 5.587,-5.586 z m 0,181.631 h -15.13 v 9.361 h 15.13 z m 0,-227.817 H 71.722 v -9.361 h 74.149 z m 0,42.342 v 3.844 h 28.039 v 132.681 7.235 2.126 39.589 h -28.039 v 9.361 h 37.4 v -4.023 -5.338 -39.589 h 37.11 v -9.361 h -37.11 -5.518 V -67.08 -70.924 h -3.843 z m 158.16,-51.703 h 9.361 v 9.361 178.867 6.357 3.004 h -44.268 v -9.361 h 34.907 V -113.266 H 177.753 v 13.013 h -3.843 v -13.013 h -28.039 v -9.361 z" /></g><g
           transform="translate(165.2554,107.8486)"
           id="g180"><path
             id="path182"
             style="fill:none;stroke:#384c71;stroke-width:1.148;stroke-linecap:round;stroke-linejoin:round;stroke-miterlimit:22.9260006;stroke-dasharray:none;stroke-opacity:1"
             d="m 0,0 -6.713,6.712 2.718,2.719 5.587,-5.586 h 94.244 v 132.68 7.236 2.125 39.59 H 52.667 v 9.36 h 52.531 v -4.023 -5.337 -39.59 h 37.11 v -9.361 H 105.198 99.68 V 3.845 L 99.68,0 h -3.844 z m -43.968,70.924 h -4.776 v 3.845 h 4.776 v 110.707 h -17.169 v 9.36 H -5.99 v -9.36 H -40.124 V 45.561 l 6.284,-6.284 -2.718,-2.719 -7.266,7.265 0.051,0.146 h -0.195 z m -34.105,0 h -4.957 v -4.21 h -3.845 V 79.392 H -155.32 V -0.079 h 68.445 v 44.072 h 3.845 V -0.079 -3.924 h -3.845 -68.445 v -38.418 h 68.445 v 15.698 h 3.845 v -15.698 h 13.012 v -9.361 h -85.302 -6.61 -2.751 v 246.539 h 2.758 v 44.96 h 3.844 v -44.96 h 2.759 40.482 v -9.36 H -155.32 V 83.237 h 68.445 3.845 v -3.845 -4.623 h 4.957 z M 225.958,-51.703 h 9.361 v 9.361 178.867 6.357 3.004 H 191.05 v -9.361 h 34.908 V -42.342 H 99.68 v 13.013 H 95.836 V -42.342 H -37.385 v -9.361 z" /></g><path
           id="path184"
           style="fill:#ffffff;fill-opacity:1;fill-rule:nonzero;stroke:#384c71;stroke-width:1.148;stroke-linecap:round;stroke-linejoin:round;stroke-miterlimit:22.9260006;stroke-dasharray:none;stroke-opacity:1"
           d="m 356.306,250.977 h -48.742 v -3.845 h 48.742 z" /><path
           id="path186"
           style="fill:#ffffff;fill-opacity:1;fill-rule:nonzero;stroke:#384c71;stroke-width:1.148;stroke-linecap:round;stroke-linejoin:round;stroke-miterlimit:22.9260006;stroke-dasharray:none;stroke-opacity:1"
           d="m 217.923,299.927 h -58.658 v -3.845 h 58.658 z" /><path
           id="path188"
           style="fill:#ffffff;fill-opacity:1;fill-rule:nonzero;stroke:#384c71;stroke-width:1.148;stroke-linecap:round;stroke-linejoin:round;stroke-miterlimit:22.9260006;stroke-dasharray:none;stroke-opacity:1"
           d="m 50.417,296.082 h 29.329 v 3.845 H 50.417 Z" /><g
           transform="translate(120.2925,302.6851)"
           id="g190"><path
             id="path192"
             style="fill:#ffffff;fill-opacity:1;fill-rule:nonzero;stroke:none"
             d="m 0,0 v 24.655 0.796 l -0.563,0.563 -18.279,18.279 -0.563,0.563 h -0.797 -92.914 v -3.844 h 92.118 L -3.845,23.859 V 0 Z" /></g><g
           transform="translate(120.2925,302.6851)"
           id="g194"><path
             id="path196"
             style="fill:none;stroke:#384c71;stroke-width:1.148;stroke-linecap:round;stroke-linejoin:round;stroke-miterlimit:22.9260006;stroke-dasharray:none;stroke-opacity:1"
             d="m 0,0 v 24.655 0.796 l -0.563,0.563 -18.279,18.279 -0.563,0.563 h -0.797 -92.914 v -3.844 h 92.118 L -3.845,23.859 V 0 Z" /></g><g
           transform="translate(127.8706,56.1455)"
           id="g198"><path
             id="path200"
             style="fill:none;stroke:#384c71;stroke-width:2.296;stroke-linecap:round;stroke-linejoin:round;stroke-miterlimit:22.9260006;stroke-dasharray:none;stroke-opacity:1"
             d="M 0,0 -28.296,-16.316" /></g><g
           transform="translate(264.2852,78.5195)"
           id="g202"><path
             id="path204"
             style="fill:none;stroke:#384c71;stroke-width:2.296;stroke-linecap:round;stroke-linejoin:round;stroke-miterlimit:22.9260006;stroke-dasharray:none;stroke-opacity:1"
             d="M 0,0 -14.457,25.405" /></g><g
           transform="translate(161.2607,117.2793)"
           id="g206"><path
             id="path208"
             style="fill:none;stroke:#384c71;stroke-width:2.296;stroke-linecap:round;stroke-linejoin:round;stroke-miterlimit:22.9260006;stroke-dasharray:none;stroke-opacity:1"
             d="M 0,0 -2.686,15.285" /></g><g
           transform="translate(158.0596,140.1035)"
           id="g210"><path
             id="path212"
             style="fill:none;stroke:#384c71;stroke-width:2.296;stroke-linecap:round;stroke-linejoin:round;stroke-miterlimit:22.9260006;stroke-dasharray:none;stroke-opacity:1"
             d="M 0,0 -26.644,7.022" /></g><g
           transform="translate(81.5742,103.9248)"
           id="g214"><path
             id="path216"
             style="fill:none;stroke:#384c71;stroke-width:2.296;stroke-linecap:round;stroke-linejoin:round;stroke-miterlimit:22.9260006;stroke-dasharray:none;stroke-opacity:1"
             d="M 0,0 -11.36,-19.621" /></g><g
           transform="translate(78.3804,174.5625)"
           id="g218"><path
             id="path220"
             style="fill:none;stroke:#384c71;stroke-width:2.296;stroke-linecap:round;stroke-linejoin:round;stroke-miterlimit:22.9260006;stroke-dasharray:none;stroke-opacity:1"
             d="M 0,0 -11.36,-19.829" /></g><g
           transform="translate(116.5112,182.6172)"
           id="g222"><path
             id="path224"
             style="fill:none;stroke:#384c71;stroke-width:2.296;stroke-linecap:round;stroke-linejoin:round;stroke-miterlimit:22.9260006;stroke-dasharray:none;stroke-opacity:1"
             d="M 0,0 -25.404,14.665" /></g><g
           transform="translate(104.1187,293.3242)"
           id="g226"><path
             id="path228"
             style="fill:none;stroke:#384c71;stroke-width:2.296;stroke-linecap:round;stroke-linejoin:round;stroke-miterlimit:22.9260006;stroke-dasharray:none;stroke-opacity:1"
             d="M 0,0 -21.274,-12.186" /></g><g
           transform="translate(81.2417,0.4883)"
           id="g230"><path
             id="path232"
             style="fill:none;stroke:#000000;stroke-width:0.97600001;stroke-linecap:round;stroke-linejoin:round;stroke-miterlimit:22.9260006;stroke-dasharray:none;stroke-opacity:1"
             d="M 0,0 H -39.793 V 81.369" /></g></g></g></g></svg>