<?xml version="1.0" encoding="UTF-8" standalone="no"?>
<svg
   xmlns:dc="http://purl.org/dc/elements/1.1/"
   xmlns:cc="http://creativecommons.org/ns#"
   xmlns:rdf="http://www.w3.org/1999/02/22-rdf-syntax-ns#"
   xmlns:svg="http://www.w3.org/2000/svg"
   xmlns="http://www.w3.org/2000/svg"
   viewBox="0 0 312.22934 534.6427"
   height="534.6427"
   width="312.22934"
   xml:space="preserve"
   id="svg2"
   version="1.1"><metadata
     id="metadata8"><rdf:RDF><cc:Work
         rdf:about=""><dc:format>image/svg+xml</dc:format><dc:type
           rdf:resource="http://purl.org/dc/dcmitype/StillImage" /></cc:Work></rdf:RDF></metadata><defs
     id="defs6"><clipPath
       id="clipPath18"
       clipPathUnits="userSpaceOnUse"><path
         id="path16"
         d="M 0,400.982 H 234.172 V 0 H 0 Z" /></clipPath><clipPath
       id="clipPath104"
       clipPathUnits="userSpaceOnUse"><path
         id="path102"
         d="M 0,400.982 H 234.172 V 0 H 0 Z" /></clipPath><clipPath
       id="clipPath124"
       clipPathUnits="userSpaceOnUse"><path
         id="path122"
         d="M 0,400.982 H 234.172 V 0 H 0 Z" /></clipPath><clipPath
       id="clipPath144"
       clipPathUnits="userSpaceOnUse"><path
         id="path142"
         d="M 0,400.982 H 234.172 V 0 H 0 Z" /></clipPath><clipPath
       id="clipPath164"
       clipPathUnits="userSpaceOnUse"><path
         id="path162"
         d="M 0,400.982 H 234.172 V 0 H 0 Z" /></clipPath><clipPath
       id="clipPath184"
       clipPathUnits="userSpaceOnUse"><path
         id="path182"
         d="M 0,400.982 H 234.172 V 0 H 0 Z" /></clipPath><clipPath
       id="clipPath204"
       clipPathUnits="userSpaceOnUse"><path
         id="path202"
         d="M 0,400.982 H 234.172 V 0 H 0 Z" /></clipPath><clipPath
       id="clipPath224"
       clipPathUnits="userSpaceOnUse"><path
         id="path222"
         d="M 0,400.982 H 234.172 V 0 H 0 Z" /></clipPath></defs><g
     transform="matrix(1.3333333,0,0,-1.3333333,0,534.64267)"
     id="g10"><g
       id="g12"><g
         clip-path="url(#clipPath18)"
         id="g14"><g
           transform="translate(20.0229,184.1738)"
           id="g20"><path
             id="path22"
             style="fill:none;stroke:#384d71;stroke-width:0.98199999;stroke-linecap:round;stroke-linejoin:round;stroke-miterlimit:10;stroke-dasharray:none;stroke-opacity:1"
             d="M 0,0 V 1.479 M 0,4.656 V 3.178 M 2.328,2.328 H 0.849 m -3.177,0 h 1.478 m 2.245,0 C 1.395,1.558 0.771,0.934 0,0.934 c -0.77,0 -1.395,0.624 -1.395,1.394 0,0.77 0.625,1.395 1.395,1.395 0.771,0 1.395,-0.625 1.395,-1.395 z m -5.888,-5.827 h 26.821 c 3.185,0 5.767,2.583 5.767,5.768 0,3.185 -2.582,5.768 -5.767,5.768 H -4.493 c -0.608,0 -1.103,-0.496 -1.103,-1.104 v -9.329 c 0,-0.607 0.495,-1.103 1.103,-1.103 z m -2.261,-2.956 h 34.49 c 4.817,0 8.725,3.906 8.725,8.724 0,4.818 -3.908,8.725 -8.725,8.725 h -34.49 c -0.919,0 -1.669,-0.75 -1.669,-1.67 v -14.11 c 0,-0.92 0.75,-1.669 1.669,-1.669 z M 37.874,-8.157 H -9.954 v 20.852 h 47.828 z" /></g><g
           transform="translate(15.3701,223.4136)"
           id="g24"><path
             id="path26"
             style="fill:none;stroke:#384d71;stroke-width:0.98199999;stroke-linecap:round;stroke-linejoin:round;stroke-miterlimit:10;stroke-dasharray:none;stroke-opacity:1"
             d="m 0,0 c 2.829,0 4.548,0.708 6.471,0.708 3.006,0 7.488,-2.027 7.488,-5.656 0,-3.628 -4.482,-5.654 -7.488,-5.654 -1.923,0 -3.642,0.707 -6.471,0.707 m 11.522,7.238 c -1.969,-0.845 -1.969,-3.735 0,-4.581 M 0.177,-2.474 c 4.612,2.614 12.369,1.696 12.369,-2.474 0,-4.168 -7.757,-5.087 -12.369,-2.473 m -2.152,2.473 c 0,-0.372 -0.303,-0.675 -0.676,-0.675 -0.372,0 -0.675,0.303 -0.675,0.675 0,0.373 0.303,0.676 0.675,0.676 0.373,0 0.676,-0.303 0.676,-0.676 z m 2.152,4.154 v -8.307 c 0,-0.777 -0.636,-1.413 -1.414,-1.413 h -2.828 c -0.777,0 -1.414,0.636 -1.414,1.413 v 8.307 c 0,0.777 0.637,1.413 1.414,1.413 h 2.828 c 0.778,0 1.414,-0.636 1.414,-1.413 z" /></g><g
           transform="translate(42.5288,230.8154)"
           id="g28"><path
             id="path30"
             style="fill:none;stroke:#384d71;stroke-width:0.98199999;stroke-linecap:round;stroke-linejoin:round;stroke-miterlimit:10;stroke-dasharray:none;stroke-opacity:1"
             d="M 0,0 H 1.142 M 0.571,-0.571 V 0.571 M 0.57,-3.48 c -0.233,0 -0.42,0.188 -0.42,0.42 0,0.233 0.187,0.421 0.42,0.421 0.233,0 0.422,-0.188 0.422,-0.421 0,-0.232 -0.189,-0.42 -0.422,-0.42 z m 4.146,1.952 h -8.291 v -1.734 c 0,-2.257 2.273,-2.883 4.146,-2.883 1.872,0 4.145,0.626 4.145,2.883 z M 0.571,-7.536 c 4.336,0 5.537,2.481 5.537,4.274 V 1.417 H -4.966 v -4.679 c 0,-1.793 1.201,-4.274 5.537,-4.274 z" /></g><g
           transform="translate(44.4902,237.2656)"
           id="g32"><path
             id="path34"
             style="fill:none;stroke:#384d71;stroke-width:0.98199999;stroke-linecap:round;stroke-linejoin:round;stroke-miterlimit:10;stroke-dasharray:none;stroke-opacity:1"
             d="m 0,0 h 16.61 v 8.053 c 0,4.725 -3.832,8.558 -8.558,8.558 H 0 m -16.787,0 H 0 V 0 H -16.787 M -32.338,58.608 V 45.295 m 4.83,2.964 c 0,-0.749 -0.608,-1.357 -1.357,-1.357 -0.75,0 -1.358,0.608 -1.358,1.357 0,0.75 0.608,1.357 1.358,1.357 0.749,0 1.357,-0.607 1.357,-1.357 z m 0,7.386 c 0,-0.75 -0.608,-1.358 -1.357,-1.358 -0.75,0 -1.358,0.608 -1.358,1.358 0,0.749 0.608,1.356 1.358,1.356 0.749,0 1.357,-0.607 1.357,-1.356 z m 6.777,-7.386 c 0,-0.749 -0.608,-1.357 -1.358,-1.357 -0.749,0 -1.356,0.608 -1.356,1.357 0,0.75 0.607,1.357 1.356,1.357 0.75,0 1.358,-0.607 1.358,-1.357 z m 0,7.386 c 0,-0.75 -0.608,-1.358 -1.358,-1.358 -0.749,0 -1.356,0.608 -1.356,1.358 0,0.749 0.607,1.356 1.356,1.356 0.75,0 1.358,-0.607 1.358,-1.356 z m 2.294,-10.35 H -34.34 v 13.313 h 15.903 z M -31.983,8.953 V 2.356 m 11.661,6.597 V 2.356 m -1.666,6.597 V 2.356 m -1.665,6.597 V 2.356 M -25.32,8.953 V 2.356 m -1.666,6.597 V 2.356 m -1.666,6.597 V 2.356 m -1.666,6.597 V 2.356 m 0.219,15.85 v -1.649 m 1.294,0.824 h -4.406 m 15.245,4.713 v -9.425 c 0,-0.942 -0.771,-1.713 -1.714,-1.713 h -11.817 c -0.942,0 -1.714,0.771 -1.714,1.713 v 9.425 c 0,0.943 0.772,1.714 1.714,1.714 h 11.817 c 0.944,0 1.714,-0.771 1.714,-1.714 z m 1.179,38.162 v 34.88 H -35.99 M -16.787,43.647 H -35.99 M -16.787,25.564 H -35.99 m 0,34.692 h 19.203 V 0 H -35.99" /></g><g
           transform="translate(21.1865,165.2129)"
           id="g36"><path
             id="path38"
             style="fill:none;stroke:#384d71;stroke-width:0.98199999;stroke-linecap:round;stroke-linejoin:round;stroke-miterlimit:10;stroke-dasharray:none;stroke-opacity:1"
             d="m 0,0 c 0,-0.788 -0.638,-1.424 -1.425,-1.424 -0.788,0 -1.426,0.636 -1.426,1.424 0,0.789 0.638,1.426 1.426,1.426 C -0.638,1.426 0,0.789 0,0 Z m -9.296,-0.138 h -1.142 m 0.571,-0.57 v 1.142 m 2.726,-7.623 h 1.363 c 3.894,0 7.051,3.157 7.051,7.051 0,3.896 -3.157,7.052 -7.051,7.052 h -1.363 c -0.766,0 -1.391,-0.625 -1.391,-1.391 V -5.799 c 0,-0.765 0.625,-1.39 1.391,-1.39 z m -3.977,-1.392 h 5.34 c 4.662,0 8.443,3.781 8.443,8.443 0,4.663 -3.781,8.444 -8.443,8.444 h -5.34 z" /></g><path
           id="path40"
           style="fill:#384c71;fill-opacity:1;fill-rule:evenodd;stroke:none"
           d="M 81.303,0.491 H 78.3 V 8.5 h 3.003 z m 0,358.593 h -6.891 v 8.009 h 6.891 z M 0.491,0.491 H 8.5 36.597 V 8.5 H 8.5 v 128.642 h 71.104 1.699 v 14.49 H 79.604 V 140.431 H 8.5 v 56.437 H 79.604 V 171.07 h 1.699 v 36.402 h -1.699 v -7.315 H 8.5 v 33.82 h 71.104 v -7.068 h 1.699 v 10.357 H 8.5 v 121.818 h 19.969 v 8.01 H 8.5 v 33.395 H 0.491 V 8.5 Z m 165.631,233.486 h 59.55 v -16.788 h 8.009 v 175.293 8.009 h -8.009 -34.105 v -8.009 h 34.105 V 237.266 h -59.55 z M 81.303,359.084 v 8.01 h 30.513 v 33.397 h 2.589 5.42 30.039 v -8.009 h -30.039 v -25.388 -4.72 -3.29 -121.818 h 10.071 v -3.289 h -16.609 v 3.289 h 3.249 v 121.818 h -4.72 z m 0,-358.593 V 8.5 h 33.045 v 128.642 h -4.242 v 3.289 h 4.242 v 35.353 8.008 h 8.007 103.317 v 5.655 h 8.009 v -5.655 -2.354 -5.654 H 122.355 V 8.5 0.491 h -8.007 z m 0,226.418 h 1.591 v 7.068 h 5.301 v 3.289 h -6.892 z m 0,-55.839 h 1.591 v 25.798 3.289 7.315 h -1.591 z m 0,-33.928 h 0.598 0.993 2.297 v 3.289 h -2.297 v 11.201 h -1.591 z" /><g
           transform="translate(110.106,137.1416)"
           id="g42"><path
             id="path44"
             style="fill:none;stroke:#384c71;stroke-width:0.98199999;stroke-linecap:round;stroke-linejoin:round;stroke-miterlimit:22.9260006;stroke-dasharray:none;stroke-opacity:1"
             d="m 0,0 h 4.242 v -128.642 h -36.048 v -8.008 H 4.242 12.25 v 8.008 167.285 h 111.325 v 5.654 2.353 5.656 h -8.009 V 46.65 H 12.25 4.242 V 38.643 3.289 L 0,3.289 Z m 56.016,96.835 h 59.55 V 80.048 h 8.009 v 175.292 8.009 h -8.009 -34.105 v -8.009 h 34.105 V 100.124 h -59.55 z m -46.297,3.289 v 121.819 3.289 4.72 25.388 h 30.039 v 8.009 H 9.719 4.299 1.71 v -33.397 h -37.404 v -8.009 H 1.71 6.43 V 100.124 H 3.181 v -3.289 h 16.61 v 3.289 z M -109.615,-136.65 h 8.009 28.097 v 8.008 h -28.097 V 0 h 71.105 2.296 0.993 2.297 v 3.289 h -2.297 V 14.49 h -3.289 V 3.289 h -71.105 v 56.438 h 71.105 V 33.929 h 3.289 v 25.798 3.289 7.314 h -3.289 v -7.314 h -71.105 v 33.819 h 71.105 v -7.068 h 3.289 v 7.068 h 5.301 v 3.289 h -79.695 v 121.819 h 19.969 v 8.009 h -19.969 v 33.396 h -8.009 v -391.99 z" /></g><path
           id="path46"
           style="fill:#ffffff;fill-opacity:1;fill-rule:evenodd;stroke:#384c71;stroke-width:0.98199999;stroke-linecap:round;stroke-linejoin:round;stroke-miterlimit:22.9260006;stroke-dasharray:none;stroke-opacity:1"
           d="m 8.5,397.2 h 103.316 v 3.29 H 8.5 Z" /><path
           id="path48"
           style="fill:#ffffff;fill-opacity:1;fill-rule:nonzero;stroke:#384c71;stroke-width:0.98199999;stroke-linecap:round;stroke-linejoin:round;stroke-miterlimit:22.9260006;stroke-dasharray:none;stroke-opacity:1"
           d="m 149.864,398.131 h 41.703 v -3.29 h -41.703 z" /><path
           id="path50"
           style="fill:#ffffff;fill-opacity:1;fill-rule:nonzero;stroke:#384c71;stroke-width:0.98199999;stroke-linecap:round;stroke-linejoin:round;stroke-miterlimit:22.9260006;stroke-dasharray:none;stroke-opacity:1"
           d="M 36.597,6.141 H 78.3 V 2.852 H 36.597 Z" /><path
           id="path52"
           style="fill:#ffffff;fill-opacity:1;fill-rule:nonzero;stroke:#384c71;stroke-width:0.98199999;stroke-linecap:round;stroke-linejoin:round;stroke-miterlimit:22.9260006;stroke-dasharray:none;stroke-opacity:1"
           d="m 49.319,364.734 h 25.093 v -3.29 H 49.319 Z" /><g
           transform="translate(28.4688,359.0845)"
           id="g54"><path
             id="path56"
             style="fill:none;stroke:#384c71;stroke-width:0.98199999;stroke-linecap:round;stroke-linejoin:round;stroke-miterlimit:22.9260006;stroke-dasharray:none;stroke-opacity:1"
             d="M 0,0 18.023,-10.426" /></g><g
           transform="translate(91.5527,249.812)"
           id="g58"><path
             id="path60"
             style="fill:none;stroke:#384c71;stroke-width:0.98199999;stroke-linecap:round;stroke-linejoin:round;stroke-miterlimit:22.9260006;stroke-dasharray:none;stroke-opacity:1"
             d="M 0,0 21.734,-12.546" /></g><g
           transform="translate(129.8965,237.2656)"
           id="g62"><path
             id="path64"
             style="fill:none;stroke:#384c71;stroke-width:0.98199999;stroke-linecap:round;stroke-linejoin:round;stroke-miterlimit:22.9260006;stroke-dasharray:none;stroke-opacity:1"
             d="M 0,0 10.78,7.952" /></g><g
           transform="translate(166.1221,237.2656)"
           id="g66"><path
             id="path68"
             style="fill:none;stroke:#384c71;stroke-width:0.98199999;stroke-linecap:round;stroke-linejoin:round;stroke-miterlimit:22.9260006;stroke-dasharray:none;stroke-opacity:1"
             d="M 0,0 -20.497,11.84" /></g><g
           transform="translate(79.6045,226.9087)"
           id="g70"><path
             id="path72"
             style="fill:none;stroke:#384c71;stroke-width:0.98199999;stroke-linecap:round;stroke-linejoin:round;stroke-miterlimit:22.9260006;stroke-dasharray:none;stroke-opacity:1"
             d="M 0,0 -9.787,-16.788" /></g><g
           transform="translate(225.6719,217.1895)"
           id="g74"><path
             id="path76"
             style="fill:none;stroke:#384c71;stroke-width:0.98199999;stroke-linecap:round;stroke-linejoin:round;stroke-miterlimit:22.9260006;stroke-dasharray:none;stroke-opacity:1"
             d="M 0,0 -13.96,-24.031" /></g><g
           transform="translate(79.5366,171.0703)"
           id="g78"><path
             id="path80"
             style="fill:none;stroke:#384c71;stroke-width:0.98199999;stroke-linecap:round;stroke-linejoin:round;stroke-miterlimit:22.9260006;stroke-dasharray:none;stroke-opacity:1"
             d="M 0,0 -9.719,-16.965" /></g><g
           transform="translate(110.106,137.1416)"
           id="g82"><path
             id="path84"
             style="fill:none;stroke:#384c71;stroke-width:0.98199999;stroke-linecap:round;stroke-linejoin:round;stroke-miterlimit:22.9260006;stroke-dasharray:none;stroke-opacity:1"
             d="M 0,0 -21.734,-12.546" /></g><g
           transform="translate(60.604,30.4756)"
           id="g86"><path
             id="path88"
             style="fill:none;stroke:#384d71;stroke-width:0.98199999;stroke-linecap:round;stroke-linejoin:round;stroke-miterlimit:10;stroke-dasharray:none;stroke-opacity:1"
             d="m 0,0 c 6.131,0 11.131,5.001 11.131,11.132 0,6.131 -5,11.131 -11.131,11.131 -6.131,0 -11.13,-5 -11.13,-11.131 C -11.13,5.001 -6.131,0 0,0 Z" /></g></g></g><text
       id="text92"
       style="font-variant:normal;font-weight:bold;font-stretch:normal;font-size:15.26010036px;font-family:Roboto;-inkscape-font-specification:Roboto-Bold;writing-mode:lr-tb;fill:#000000;fill-opacity:1;fill-rule:nonzero;stroke:none"
       transform="matrix(1,0,0,-1,56.5298,36.1045)"><tspan
         id="tspan90"
         y="0"
         x="0">3</tspan></text>
<text
       id="text96"
       style="font-variant:normal;font-weight:normal;font-stretch:normal;font-size:10.44229984px;font-family:Roboto;-inkscape-font-specification:Roboto-Regular;writing-mode:lr-tb;fill:#000000;fill-opacity:1;fill-rule:nonzero;stroke:none"
       transform="matrix(1,0,0,-1,47.6772,18.4229)"><tspan
         id="tspan94"
         y="0"
         x="0 5.879015 11.75803 14.551345 20.430361">17.33</tspan></text>
<g
       id="g98"><g
         clip-path="url(#clipPath104)"
         id="g100"><g
           transform="translate(29.3721,108.8018)"
           id="g106"><path
             id="path108"
             style="fill:none;stroke:#384d71;stroke-width:0.98199999;stroke-linecap:round;stroke-linejoin:round;stroke-miterlimit:10;stroke-dasharray:none;stroke-opacity:1"
             d="m 0,0 c 6.131,0 11.13,5 11.13,11.131 0,6.131 -4.999,11.131 -11.13,11.131 -6.131,0 -11.131,-5 -11.131,-11.131 C -11.131,5 -6.131,0 0,0 Z" /></g></g></g><text
       id="text112"
       style="font-variant:normal;font-weight:bold;font-stretch:normal;font-size:15.26010036px;font-family:Roboto;-inkscape-font-specification:Roboto-Bold;writing-mode:lr-tb;fill:#000000;fill-opacity:1;fill-rule:nonzero;stroke:none"
       transform="matrix(1,0,0,-1,25.2969,114.4287)"><tspan
         id="tspan110"
         y="0"
         x="0">5</tspan></text>
<text
       id="text116"
       style="font-variant:normal;font-weight:normal;font-stretch:normal;font-size:10.44229984px;font-family:Roboto;-inkscape-font-specification:Roboto-Regular;writing-mode:lr-tb;fill:#000000;fill-opacity:1;fill-rule:nonzero;stroke:none"
       transform="matrix(1,0,0,-1,19.3843,96.748)"><tspan
         id="tspan114"
         y="0"
         x="0 5.879015 8.6775513 14.556566">5.03</tspan></text>
<g
       id="g118"><g
         clip-path="url(#clipPath124)"
         id="g120"><g
           transform="translate(49.8086,283.7017)"
           id="g126"><path
             id="path128"
             style="fill:none;stroke:#384d71;stroke-width:0.98199999;stroke-linecap:round;stroke-linejoin:round;stroke-miterlimit:10;stroke-dasharray:none;stroke-opacity:1"
             d="m 0,0 c 6.13,0 11.131,5 11.131,11.131 0,6.131 -5.001,11.131 -11.131,11.131 -6.131,0 -11.132,-5 -11.132,-11.131 C -11.132,5 -6.131,0 0,0 Z" /></g></g></g><text
       id="text132"
       style="font-variant:normal;font-weight:bold;font-stretch:normal;font-size:15.26010036px;font-family:Roboto;-inkscape-font-specification:Roboto-Bold;writing-mode:lr-tb;fill:#000000;fill-opacity:1;fill-rule:nonzero;stroke:none"
       transform="matrix(1,0,0,-1,45.7339,289.3301)"><tspan
         id="tspan130"
         y="0"
         x="0">6</tspan></text>
<text
       id="text136"
       style="font-variant:normal;font-weight:normal;font-stretch:normal;font-size:10.44229984px;font-family:Roboto;-inkscape-font-specification:Roboto-Regular;writing-mode:lr-tb;fill:#000000;fill-opacity:1;fill-rule:nonzero;stroke:none"
       transform="matrix(1,0,0,-1,39.8208,271.6489)"><tspan
         id="tspan134"
         y="0"
         x="0 5.879015 8.6775513 14.556566">2.64</tspan></text>
<g
       id="g138"><g
         clip-path="url(#clipPath144)"
         id="g140"><g
           transform="translate(145.2881,204.2734)"
           id="g146"><path
             id="path148"
             style="fill:none;stroke:#384d71;stroke-width:0.98199999;stroke-linecap:round;stroke-linejoin:round;stroke-miterlimit:10;stroke-dasharray:none;stroke-opacity:1"
             d="m 0,0 c 6.13,0 11.13,5 11.13,11.131 0,6.131 -5,11.131 -11.13,11.131 -6.132,0 -11.133,-5 -11.133,-11.131 C -11.133,5 -6.132,0 0,0 Z" /></g></g></g><text
       id="text152"
       style="font-variant:normal;font-weight:bold;font-stretch:normal;font-size:15.26010036px;font-family:Roboto;-inkscape-font-specification:Roboto-Bold;writing-mode:lr-tb;fill:#000000;fill-opacity:1;fill-rule:nonzero;stroke:none"
       transform="matrix(1,0,0,-1,141.2119,209.8999)"><tspan
         id="tspan150"
         y="0"
         x="0">1</tspan></text>
<text
       id="text156"
       style="font-variant:normal;font-weight:normal;font-stretch:normal;font-size:10.44229984px;font-family:Roboto;-inkscape-font-specification:Roboto-Regular;writing-mode:lr-tb;fill:#000000;fill-opacity:1;fill-rule:nonzero;stroke:none"
       transform="matrix(1,0,0,-1,132.3604,192.2197)"><tspan
         id="tspan154"
         y="0"
         x="0 5.879015 11.75803 14.551345 20.430361">10.87</tspan></text>
<g
       id="g158"><g
         clip-path="url(#clipPath164)"
         id="g160"><g
           transform="translate(177.793,303.6709)"
           id="g166"><path
             id="path168"
             style="fill:none;stroke:#384d71;stroke-width:0.98199999;stroke-linecap:round;stroke-linejoin:round;stroke-miterlimit:10;stroke-dasharray:none;stroke-opacity:1"
             d="m 0,0 c 6.132,0 11.133,5 11.133,11.131 0,6.131 -5.001,11.131 -11.133,11.131 -6.13,0 -11.13,-5 -11.13,-11.131 C -11.13,5 -6.13,0 0,0 Z" /></g></g></g><text
       id="text172"
       style="font-variant:normal;font-weight:bold;font-stretch:normal;font-size:15.26010036px;font-family:Roboto;-inkscape-font-specification:Roboto-Bold;writing-mode:lr-tb;fill:#000000;fill-opacity:1;fill-rule:nonzero;stroke:none"
       transform="matrix(1,0,0,-1,173.7197,309.2988)"><tspan
         id="tspan170"
         y="0"
         x="0">2</tspan></text>
<text
       id="text176"
       style="font-variant:normal;font-weight:normal;font-stretch:normal;font-size:10.44229984px;font-family:Roboto;-inkscape-font-specification:Roboto-Regular;writing-mode:lr-tb;fill:#000000;fill-opacity:1;fill-rule:nonzero;stroke:none"
       transform="matrix(1,0,0,-1,164.8672,291.6177)"><tspan
         id="tspan174"
         y="0"
         x="0 5.879015 11.75803 14.551345 20.430361">20.88</tspan></text>
<g
       id="g178"><g
         clip-path="url(#clipPath184)"
         id="g180"><g
           transform="translate(88.1763,326.0737)"
           id="g186"><path
             id="path188"
             style="fill:none;stroke:#384d71;stroke-width:0.98199999;stroke-linecap:round;stroke-linejoin:round;stroke-miterlimit:10;stroke-dasharray:none;stroke-opacity:1"
             d="m 0,0 c 6.132,0 11.131,5 11.131,11.131 0,6.131 -4.999,11.131 -11.131,11.131 -6.13,0 -11.13,-5 -11.13,-11.131 C -11.13,5 -6.13,0 0,0 Z" /></g></g></g><text
       id="text192"
       style="font-variant:normal;font-weight:bold;font-stretch:normal;font-size:15.26010036px;font-family:Roboto;-inkscape-font-specification:Roboto-Bold;writing-mode:lr-tb;fill:#000000;fill-opacity:1;fill-rule:nonzero;stroke:none"
       transform="matrix(1,0,0,-1,84.1016,331.7017)"><tspan
         id="tspan190"
         y="0"
         x="0">4</tspan></text>
<text
       id="text196"
       style="font-variant:normal;font-weight:normal;font-stretch:normal;font-size:10.44229984px;font-family:Roboto;-inkscape-font-specification:Roboto-Regular;writing-mode:lr-tb;fill:#000000;fill-opacity:1;fill-rule:nonzero;stroke:none"
       transform="matrix(1,0,0,-1,75.25,314.0205)"><tspan
         id="tspan194"
         y="0"
         x="0 5.879015 11.75803 14.551345 20.430361">16.01</tspan></text>
<g
       id="g198"><g
         clip-path="url(#clipPath204)"
         id="g200"><g
           transform="translate(152.0039,361.6562)"
           id="g206"><path
             id="path208"
             style="fill:none;stroke:#384d71;stroke-width:0.98199999;stroke-linecap:round;stroke-linejoin:round;stroke-miterlimit:10;stroke-dasharray:none;stroke-opacity:1"
             d="m 0,0 c 6.132,0 11.131,5 11.131,11.131 0,6.131 -4.999,11.131 -11.131,11.131 -6.13,0 -11.13,-5 -11.13,-11.131 C -11.13,5 -6.13,0 0,0 Z" /></g></g></g><text
       id="text212"
       style="font-variant:normal;font-weight:bold;font-stretch:normal;font-size:15.26010036px;font-family:Roboto;-inkscape-font-specification:Roboto-Bold;writing-mode:lr-tb;fill:#000000;fill-opacity:1;fill-rule:nonzero;stroke:none"
       transform="matrix(1,0,0,-1,147.9287,367.2847)"><tspan
         id="tspan210"
         y="0"
         x="0">8</tspan></text>
<text
       id="text216"
       style="font-variant:normal;font-weight:normal;font-stretch:normal;font-size:10.44229984px;font-family:Roboto;-inkscape-font-specification:Roboto-Regular;writing-mode:lr-tb;fill:#000000;fill-opacity:1;fill-rule:nonzero;stroke:none"
       transform="matrix(1,0,0,-1,142.0176,349.603)"><tspan
         id="tspan214"
         y="0"
         x="0 5.879015 8.6775513 14.556566">3.80</tspan></text>
<g
       id="g218"><g
         clip-path="url(#clipPath224)"
         id="g220"><g
           transform="translate(17.2402,92.9229)"
           id="g226"><path
             id="path228"
             style="fill:none;stroke:#000000;stroke-width:0.83499998;stroke-linecap:round;stroke-linejoin:round;stroke-miterlimit:22.9260006;stroke-dasharray:none;stroke-opacity:1"
             d="M 0,0 H 33.658 V 65.653" /></g><g
           transform="translate(36.082,267.4014)"
           id="g230"><path
             id="path232"
             style="fill:none;stroke:#000000;stroke-width:0.83499998;stroke-linecap:round;stroke-linejoin:round;stroke-miterlimit:22.9260006;stroke-dasharray:none;stroke-opacity:1"
             d="M 0,0 C 0,0 28.356,-1.277 28.356,0 V -46.493" /></g><g
           transform="translate(173.5557,345.4624)"
           id="g234"><path
             id="path236"
             style="fill:none;stroke:#000000;stroke-width:0.83499998;stroke-linecap:round;stroke-linejoin:round;stroke-miterlimit:22.9260006;stroke-dasharray:none;stroke-opacity:1"
             d="M 0,0 H -40.025 L -86.592,41.95" /></g></g></g></g></svg>