<?xml version="1.0" encoding="UTF-8" standalone="no"?>
<svg
   xmlns:dc="http://purl.org/dc/elements/1.1/"
   xmlns:cc="http://creativecommons.org/ns#"
   xmlns:rdf="http://www.w3.org/1999/02/22-rdf-syntax-ns#"
   xmlns:svg="http://www.w3.org/2000/svg"
   xmlns="http://www.w3.org/2000/svg"
   viewBox="0 0 485.29599 534.21198"
   height="534.21198"
   width="485.29599"
   xml:space="preserve"
   id="svg2"
   version="1.1"><metadata
     id="metadata8"><rdf:RDF><cc:Work
         rdf:about=""><dc:format>image/svg+xml</dc:format><dc:type
           rdf:resource="http://purl.org/dc/dcmitype/StillImage" /></cc:Work></rdf:RDF></metadata><defs
     id="defs6"><clipPath
       id="clipPath18"
       clipPathUnits="userSpaceOnUse"><path
         id="path16"
         d="M 0,400.659 H 363.972 V 0 H 0 Z" /></clipPath><clipPath
       id="clipPath156"
       clipPathUnits="userSpaceOnUse"><path
         id="path154"
         d="M 0,400.659 H 363.972 V 0 H 0 Z" /></clipPath><clipPath
       id="clipPath172"
       clipPathUnits="userSpaceOnUse"><path
         id="path170"
         d="M 0,400.659 H 363.972 V 0 H 0 Z" /></clipPath><clipPath
       id="clipPath196"
       clipPathUnits="userSpaceOnUse"><path
         id="path194"
         d="M 0,400.659 H 363.972 V 0 H 0 Z" /></clipPath><clipPath
       id="clipPath216"
       clipPathUnits="userSpaceOnUse"><path
         id="path214"
         d="M 0,400.659 H 363.972 V 0 H 0 Z" /></clipPath><clipPath
       id="clipPath236"
       clipPathUnits="userSpaceOnUse"><path
         id="path234"
         d="M 0,400.659 H 363.972 V 0 H 0 Z" /></clipPath><clipPath
       id="clipPath256"
       clipPathUnits="userSpaceOnUse"><path
         id="path254"
         d="M 0,400.659 H 363.972 V 0 H 0 Z" /></clipPath><clipPath
       id="clipPath276"
       clipPathUnits="userSpaceOnUse"><path
         id="path274"
         d="M 0,400.659 H 363.972 V 0 H 0 Z" /></clipPath><clipPath
       id="clipPath296"
       clipPathUnits="userSpaceOnUse"><path
         id="path294"
         d="M 0,400.659 H 363.972 V 0 H 0 Z" /></clipPath><clipPath
       id="clipPath316"
       clipPathUnits="userSpaceOnUse"><path
         id="path314"
         d="M 0,400.659 H 363.972 V 0 H 0 Z" /></clipPath></defs><g
     transform="matrix(1.3333333,0,0,-1.3333333,0,534.212)"
     id="g10"><g
       id="g12"><g
         clip-path="url(#clipPath18)"
         id="g14"><g
           transform="translate(48.4316,194.8174)"
           id="g20"><path
             id="path22"
             style="fill:none;stroke:#384d71;stroke-width:0.96399999;stroke-linecap:round;stroke-linejoin:round;stroke-miterlimit:10;stroke-dasharray:none;stroke-opacity:1"
             d="m 0,0 h -1.121 m 0.56,0.56 v -1.122 m 0.001,3.979 c 0.229,0 0.414,-0.185 0.414,-0.413 0,-0.228 -0.185,-0.413 -0.414,-0.413 -0.228,0 -0.413,0.185 -0.413,0.413 0,0.228 0.185,0.413 0.413,0.413 z M -4.631,1.5 h 8.142 v 1.702 c 0,2.217 -2.233,2.832 -4.072,2.832 -1.838,0 -4.07,-0.615 -4.07,-2.832 z m 4.07,5.9 C -4.818,7.4 -5.998,4.963 -5.998,3.202 V -1.392 H 4.877 v 4.594 c 0,1.761 -1.18,4.198 -5.438,4.198 z" /></g><g
           transform="translate(5.8594,134.6904)"
           id="g24"><path
             id="path26"
             style="fill:#ffffff;fill-opacity:1;fill-rule:evenodd;stroke:none"
             d="M 0,0 -5.377,5.376 V 35.612 L 0,40.988 2.284,38.705 -2.147,34.274 V 6.714 L 2.284,2.283 Z" /></g><g
           transform="translate(5.8594,134.6904)"
           id="g28"><path
             id="path30"
             style="fill:none;stroke:#384d71;stroke-width:0.96399999;stroke-linecap:round;stroke-linejoin:round;stroke-miterlimit:10;stroke-dasharray:none;stroke-opacity:1"
             d="M 0,0 -5.377,5.376 V 35.612 L 0,40.988 2.284,38.705 -2.147,34.274 V 6.714 L 2.284,2.283 Z" /></g><g
           transform="translate(75.584,198.5654)"
           id="g32"><path
             id="path34"
             style="fill:none;stroke:#384d71;stroke-width:0.96399999;stroke-linecap:round;stroke-linejoin:round;stroke-miterlimit:10;stroke-dasharray:none;stroke-opacity:1"
             d="m 0,0 c 0,2.778 0.695,4.466 0.695,6.354 0,2.952 -1.991,7.354 -5.553,7.354 -3.563,0 -5.554,-4.402 -5.554,-7.354 0,-1.888 0.695,-3.576 0.695,-6.354 m 7.108,11.315 c -0.83,-1.935 -3.668,-1.935 -4.498,0 M -2.43,0.174 c 2.568,4.528 1.665,12.146 -2.428,12.146 -4.094,0 -4.996,-7.618 -2.43,-12.146 m 2.43,-2.114 c -0.367,0 -0.663,-0.297 -0.663,-0.664 0,-0.366 0.296,-0.663 0.663,-0.663 0.366,0 0.663,0.297 0.663,0.663 0,0.367 -0.297,0.664 -0.663,0.664 z m 4.078,2.114 h -8.157 c -0.763,0 -1.389,-0.625 -1.389,-1.389 v -2.777 c 0,-0.764 0.626,-1.388 1.389,-1.388 h 8.157 c 0.763,0 1.388,0.624 1.388,1.388 v 2.777 c 0,0.764 -0.625,1.389 -1.388,1.389 z" /></g><g
           transform="translate(348.0107,199.7812)"
           id="g36"><path
             id="path38"
             style="fill:none;stroke:#384d71;stroke-width:0.96399999;stroke-linecap:round;stroke-linejoin:round;stroke-miterlimit:10;stroke-dasharray:none;stroke-opacity:1"
             d="m 0,0 c -2.778,0 -4.466,0.695 -6.354,0.695 -2.952,0 -7.354,-1.991 -7.354,-5.553 0,-3.563 4.402,-5.554 7.354,-5.554 1.888,0 3.576,0.695 6.354,0.695 m -11.315,7.109 c 1.935,-0.832 1.935,-3.669 0,-4.499 m 11.141,4.677 c -4.528,2.568 -12.146,1.665 -12.146,-2.428 0,-4.094 7.618,-4.997 12.146,-2.43 m 2.114,2.43 c 0,-0.367 0.297,-0.663 0.664,-0.663 0.366,0 0.663,0.296 0.663,0.663 0,0.366 -0.297,0.663 -0.663,0.663 -0.367,0 -0.664,-0.297 -0.664,-0.663 z m -2.114,4.078 v -8.158 c 0,-0.762 0.625,-1.388 1.39,-1.388 h 2.776 c 0.764,0 1.389,0.626 1.389,1.388 v 8.158 c 0,0.763 -0.625,1.388 -1.389,1.388 H 1.216 c -0.765,0 -1.39,-0.625 -1.39,-1.388 z" /></g><g
           transform="translate(319.5781,180.0664)"
           id="g40"><path
             id="path42"
             style="fill:none;stroke:#384d71;stroke-width:0.96399999;stroke-linecap:round;stroke-linejoin:round;stroke-miterlimit:10;stroke-dasharray:none;stroke-opacity:1"
             d="M 0,0 H 1.12 M 0.561,0.562 V -0.561 M 0.56,3.418 c -0.229,0 -0.414,-0.185 -0.414,-0.413 0,-0.228 0.185,-0.413 0.414,-0.413 0.227,0 0.413,0.185 0.413,0.413 0,0.228 -0.186,0.413 -0.413,0.413 z M 4.631,1.501 h -8.143 v 1.703 c 0,2.216 2.234,2.83 4.073,2.83 1.837,0 4.07,-0.614 4.07,-2.83 z M 0.561,7.4 C 4.818,7.4 5.997,4.964 5.997,3.204 V -1.391 H -4.877 v 4.595 c 0,1.76 1.179,4.196 5.438,4.196 z" /></g><g
           transform="translate(320.2822,173.9053)"
           id="g44"><path
             id="path46"
             style="fill:none;stroke:#384d71;stroke-width:0.96399999;stroke-linecap:round;stroke-linejoin:round;stroke-miterlimit:10;stroke-dasharray:none;stroke-opacity:1"
             d="m 0,0 h -16.312 v -7.907 c 0,-4.641 3.763,-8.405 8.404,-8.405 H 0 m 16.485,0 -16.485,0 V 0 h 16.485 m 15.272,-57.553 v 13.073 m -4.742,-2.911 c 0,0.737 0.596,1.333 1.332,1.333 0.735,0 1.332,-0.596 1.332,-1.333 0,-0.736 -0.597,-1.333 -1.332,-1.333 -0.736,0 -1.332,0.597 -1.332,1.333 z m 0,-7.252 c 0,0.736 0.596,1.332 1.332,1.332 0.735,0 1.332,-0.596 1.332,-1.332 0,-0.736 -0.597,-1.333 -1.332,-1.333 -0.736,0 -1.332,0.597 -1.332,1.333 z m -6.657,7.252 c 0,0.737 0.597,1.333 1.333,1.333 0.737,0 1.333,-0.596 1.333,-1.333 0,-0.736 -0.596,-1.333 -1.333,-1.333 -0.736,0 -1.333,0.597 -1.333,1.333 z m 0,-7.252 c 0,0.736 0.597,1.332 1.333,1.332 0.737,0 1.333,-0.596 1.333,-1.332 0,-0.736 -0.596,-1.333 -1.333,-1.333 -0.736,0 -1.333,0.597 -1.333,1.333 z M 18.105,-44.48 H 33.722 V -57.552 H 18.105 Z m 13.304,35.689 v 6.478 M 19.957,-8.791 v 6.478 m 1.636,-6.478 v 6.478 m 1.636,-6.478 v 6.478 m 1.635,-6.478 v 6.478 M 26.5,-8.791 v 6.478 m 1.637,-6.478 v 6.478 m 1.635,-6.478 v 6.478 m -0.214,-15.565 v 1.619 m -1.271,-0.809 h 4.327 m -14.971,-4.627 v 9.254 c 0,0.926 0.757,1.683 1.683,1.683 h 11.605 c 0.925,0 1.683,-0.758 1.683,-1.683 v -9.254 c 0,-0.926 -0.757,-1.684 -1.683,-1.684 H 19.326 c -0.926,0 -1.683,0.757 -1.683,1.684 z m -1.158,-37.477 v -34.253 h 18.858 m -18.858,50.564 h 18.858 m -18.858,17.757 h 18.858 m 0,-34.068 H 16.485 V 0 h 18.858" /></g><g
           transform="translate(171.9263,31.6143)"
           id="g48"><path
             id="path50"
             style="fill:#ffffff;fill-opacity:1;fill-rule:evenodd;stroke:none"
             d="M 0,0 5.377,-5.378 H 35.613 L 40.99,0 38.705,2.283 34.274,-2.146 H 6.714 l -4.43,4.429 z" /></g><g
           transform="translate(171.9263,31.6143)"
           id="g52"><path
             id="path54"
             style="fill:none;stroke:#384d71;stroke-width:0.96399999;stroke-linecap:round;stroke-linejoin:round;stroke-miterlimit:10;stroke-dasharray:none;stroke-opacity:1"
             d="M 0,0 5.377,-5.378 H 35.613 L 40.99,0 38.705,2.283 34.274,-2.146 H 6.714 l -4.43,4.429 z" /></g><g
           transform="translate(46.2007,253.7681)"
           id="g56"><path
             id="path58"
             style="fill:none;stroke:#384d71;stroke-width:0.96399999;stroke-linecap:round;stroke-linejoin:round;stroke-miterlimit:10;stroke-dasharray:none;stroke-opacity:1"
             d="m 0,0 c -0.68,0 -1.232,-0.552 -1.232,-1.232 0,-0.68 0.552,-1.232 1.232,-1.232 0.68,0 1.232,0.552 1.232,1.232 C 1.232,-0.552 0.68,0 0,0 Z m -14.725,-1.142 c 6.983,2.416 12.469,7.921 14.85,14.915 0.733,2.14 2.75,3.582 5.017,3.582 2.928,0 5.301,-2.373 5.301,-5.301 0,-0.68 -0.128,-1.35 -0.382,-1.981 L 10.039,10.018 10.019,9.961 C 6.611,0.33 -0.908,-7.279 -10.475,-10.853 l -0.104,-0.039 -0.1,-0.046 c -0.706,-0.332 -1.469,-0.5 -2.249,-0.5 -2.7,0 -5.301,2.617 -5.301,5.302 0,2.49 1.189,4.162 3.504,4.994 z m -0.907,2.578 c 6.194,2.138 11.06,7.018 13.172,13.222 1.082,3.159 4.077,5.43 7.602,5.43 4.437,0 8.035,-3.597 8.035,-8.034 0,-1.062 -0.208,-2.075 -0.582,-3.004 C 8.923,-1.328 0.821,-9.55 -9.519,-13.413 c -1.035,-0.485 -2.19,-0.757 -3.409,-0.757 -4.436,0 -8.034,4.071 -8.034,8.034 0,2.445 1.24,4.322 1.771,6.638 0.936,4.097 0.182,7.853 -0.788,10.069 -4.3,9.832 9.582,11.847 13.153,4.458 1.392,-2.88 0.638,-6.345 -0.809,-8.452 M -22.559,21.5 h 38.934 c 0,-21.498 -17.435,-38.933 -38.934,-38.933 z" /></g><path
           id="path60"
           style="fill:#ffffff;fill-opacity:1;fill-rule:nonzero;stroke:#384c71;stroke-width:0.96499997;stroke-linecap:round;stroke-linejoin:round;stroke-miterlimit:22.9260006;stroke-dasharray:none;stroke-opacity:1"
           d="m 324.737,45.713 h -24.642 v -3.229 h 24.642 z" /><path
           id="path62"
           style="fill:#ffffff;fill-opacity:1;fill-rule:nonzero;stroke:#384c71;stroke-width:0.96499997;stroke-linecap:round;stroke-linejoin:round;stroke-miterlimit:22.9260006;stroke-dasharray:none;stroke-opacity:1"
           d="M 87.696,78.51 H 63.543 v -3.23 h 24.153 z" /><path
           id="path64"
           style="fill:#ffffff;fill-opacity:1;fill-rule:nonzero;stroke:#384c71;stroke-width:0.96499997;stroke-linecap:round;stroke-linejoin:round;stroke-miterlimit:22.9260006;stroke-dasharray:none;stroke-opacity:1"
           d="M 92.555,397.859 H 51.602 v -3.23 h 40.953 z" /><g
           transform="translate(355.625,3.7129)"
           id="g66"><path
             id="path68"
             style="fill:#ffffff;fill-opacity:1;fill-rule:nonzero;stroke:none"
             d="m 0,0 h -76.898 l -17.623,17.622 v 18.83 H -97.75 V 16.953 16.284 l 0.473,-0.473 18.567,-18.568 0.473,-0.473 h 0.671 L 0,-3.23 Z" /></g><g
           transform="translate(355.625,3.7129)"
           id="g70"><path
             id="path72"
             style="fill:none;stroke:#384c71;stroke-width:0.96499997;stroke-linecap:round;stroke-linejoin:round;stroke-miterlimit:22.9260006;stroke-dasharray:none;stroke-opacity:1"
             d="m 0,0 h -76.898 l -17.623,17.622 v 18.83 H -97.75 V 16.953 16.284 l 0.473,-0.473 18.567,-18.568 0.473,-0.473 h 0.671 L 0,-3.23 Z" /></g><g
           transform="translate(126.0459,270)"
           id="g74"><path
             id="path76"
             style="fill:none;stroke:#384c71;stroke-width:1.92900002;stroke-linecap:round;stroke-linejoin:round;stroke-miterlimit:22.9260006;stroke-dasharray:none;stroke-opacity:1"
             d="M 0,0 -21.17,12.32" /></g><g
           transform="translate(93.4893,244.6387)"
           id="g78"><path
             id="path80"
             style="fill:none;stroke:#384c71;stroke-width:1.92900002;stroke-linecap:round;stroke-linejoin:round;stroke-miterlimit:22.9260006;stroke-dasharray:none;stroke-opacity:1"
             d="M 0,0 -9.544,-16.659" /></g><g
           transform="translate(126.9629,206.457)"
           id="g82"><path
             id="path84"
             style="fill:none;stroke:#384c71;stroke-width:1.92900002;stroke-linecap:round;stroke-linejoin:round;stroke-miterlimit:22.9260006;stroke-dasharray:none;stroke-opacity:1"
             d="M 0,0 -21.17,-12.788" /></g><g
           transform="translate(220.4463,206.0093)"
           id="g86"><path
             id="path88"
             style="fill:none;stroke:#384c71;stroke-width:1.92900002;stroke-linecap:round;stroke-linejoin:round;stroke-miterlimit:22.9260006;stroke-dasharray:none;stroke-opacity:1"
             d="M 0,0 -20.13,-11.627" /></g><g
           transform="translate(184.873,206.0093)"
           id="g90"><path
             id="path92"
             style="fill:none;stroke:#384c71;stroke-width:1.92900002;stroke-linecap:round;stroke-linejoin:round;stroke-miterlimit:22.9260006;stroke-dasharray:none;stroke-opacity:1"
             d="M 0,0 10.585,-7.809" /></g><g
           transform="translate(250.9873,173.9053)"
           id="g94"><path
             id="path96"
             style="fill:none;stroke:#384c71;stroke-width:1.92900002;stroke-linecap:round;stroke-linejoin:round;stroke-miterlimit:22.9260006;stroke-dasharray:none;stroke-opacity:1"
             d="M 0,0 21.344,-12.319" /></g><g
           transform="translate(279.6191,48.0303)"
           id="g98"><path
             id="path100"
             style="fill:none;stroke:#384c71;stroke-width:1.92900002;stroke-linecap:round;stroke-linejoin:round;stroke-miterlimit:22.9260006;stroke-dasharray:none;stroke-opacity:1"
             d="M 0,0 17.7,10.238" /></g><g
           transform="translate(285.9727,202.9917)"
           id="g102"><path
             id="path104"
             style="fill:none;stroke:#384c71;stroke-width:1.92900002;stroke-linecap:round;stroke-linejoin:round;stroke-miterlimit:22.9260006;stroke-dasharray:none;stroke-opacity:1"
             d="M 0,0 9.611,-16.486" /></g><g
           transform="translate(289.2637,252.9678)"
           id="g106"><path
             id="path108"
             style="fill:none;stroke:#384c71;stroke-width:1.92900002;stroke-linecap:round;stroke-linejoin:round;stroke-miterlimit:22.9260006;stroke-dasharray:none;stroke-opacity:1"
             d="M 0,0 13.709,-23.599" /></g><g
           transform="translate(51.6021,392.312)"
           id="g110"><path
             id="path112"
             style="fill:#384c71;fill-opacity:1;fill-rule:evenodd;stroke:none"
             d="m 0,0 h -29.327 v -45.118 l -12.494,-12.494 -5.561,5.562 10.191,10.19 V 7.865 h 5.237 2.627 L 0,7.865 Z m 43.036,-319.35 h -6.941 v 7.864 h 6.941 z m 0,206.903 v -35.226 h -1.149 v 31.996 h -71.214 v -65.391 -6.105 -13.321 h 71.214 v 33.559 h 1.149 v -36.788 h -72.363 v -4.339 l -12.494,-12.494 -5.561,5.561 10.191,10.192 v 17.63 6.105 74.56 l -10.191,10.191 5.561,5.562 12.494,-12.495 v -9.197 H 41.887 Z M 43.036,0 h -2.083 v 7.865 h 2.083 z M -9.023,-319.35 h -20.304 -7.864 v 7.864 42.034 l -10.191,10.191 5.561,5.561 12.494,-12.494 v -45.292 h 20.304 z m 52.059,171.677 h 2.082 v 24.814 h 4.859 v 3.23 h -4.859 v 3.952 3.23 h -2.082 z m 0,-56.05 v 36.788 h 2.082 v -16.139 h 4.859 v -3.229 h -4.859 v -14.191 -1.668 -1.561 z m 182.985,-140.559 h -29.933 v 125.875 h 3.297 v 3.231 h -3.297 v 28.873 3.229 h -3.231 -24.013 v -3.229 h 24.013 v -157.979 h -22.972 l -12.494,-12.494 1.638,-1.639 -4.431,-4.429 h -27.559 l -4.431,4.429 1.639,1.639 -12.494,12.494 H 80.971 v 28.439 4.357 125.183 h 52.3 v 3.229 h -52.3 -3.23 -3.123 v -3.229 h 3.123 v -125.183 h -4.635 -30.07 v -7.864 h 30.07 v -24.932 -7.865 h 7.865 27.524 l 10.19,-10.19 1.639,1.639 5.377,-5.378 h 30.236 l 5.377,5.378 1.639,-1.639 10.19,10.19 h 52.878 z m 0,125.875 h -1.995 v 3.23 h 1.995 z m 0,103.413 v -7.865 H 82.309 74.444 v 7.865 V 0 H 43.036 v 7.865 h 31.408 3.867 3.998 v -122.859 z m 0,-7.865 v 7.865 h 5.12 5.379 2.485 v -24.35 h -7.864 v 16.485 z m 0,-95.548 h 78.002 v -125.875 h -30.888 v -7.865 h 30.888 v -39.683 h 7.864 v 219.688 h -4.472 -3.392 -65.018 v 5.554 h -7.864 v -5.554 -4.633 -3.23 -9.315 h 3.23 v 9.315 h 69.652 v -35.171 h -69.652 v 6.767 h -3.23 v -6.767 h -5.12 z m 0,-125.875 h 1.996 v -7.865 h -1.996 z" /></g><g
           transform="translate(51.6021,392.312)"
           id="g114"><path
             id="path116"
             style="fill:none;stroke:#384c71;stroke-width:0.96499997;stroke-linecap:round;stroke-linejoin:round;stroke-miterlimit:22.9260006;stroke-dasharray:none;stroke-opacity:1"
             d="m 0,0 h -29.327 v -45.118 l -12.494,-12.494 -5.561,5.562 10.191,10.19 V 7.865 h 5.237 2.627 L 0,7.865 Z m 311.887,-391.83 h -7.864 v 39.683 h -30.888 v 7.865 h 30.888 v 125.875 h -79.997 v 3.231 h 7.115 v 6.767 h 3.23 v -6.767 h 69.652 v 35.171 h -69.652 v -9.315 h -3.23 v 9.315 3.23 4.633 5.554 h 7.864 v -5.554 h 65.018 3.392 4.472 z M 82.309,-122.859 h -7.865 v 7.865 V 0 H 40.953 v 7.865 h 33.491 3.867 3.998 v -122.859 h 148.832 5.379 2.485 v -24.35 h -7.864 v 16.485 z m -119.5,-64.314 v -17.63 l -10.191,-10.192 5.561,-5.561 12.494,12.494 v 4.339 h 74.445 v 1.561 1.668 14.191 h 4.859 v 3.229 h -4.859 v 16.139 h -3.231 v -33.559 h -71.214 v 13.321 6.105 65.391 h 71.214 v -31.996 h 3.231 v 24.814 h 4.859 v 3.23 h -4.859 v 3.952 3.23 h -3.231 -71.214 v 9.197 l -12.494,12.495 -5.561,-5.562 10.191,-10.191 v -74.56 z M 80.971,-352.147 h 27.524 l 10.19,-10.19 1.639,1.639 5.377,-5.378 h 30.236 l 5.377,5.378 1.639,-1.639 10.19,10.19 h 54.874 v 7.865 h -31.929 v 125.875 h 3.297 v 3.231 h -3.297 v 28.873 3.229 h -3.231 -24.013 v -3.229 h 24.013 v -157.979 h -22.972 l -12.494,-12.494 1.638,-1.639 -4.431,-4.429 h -27.559 l -4.431,4.429 1.639,1.639 -12.494,12.494 H 80.971 v 28.439 4.357 125.183 h 52.3 v 3.229 h -52.3 -3.23 -3.123 v -3.229 h 3.123 V -311.486 H 73.106 36.094 v -7.864 h 37.012 v -24.932 -7.865 z m -89.994,32.797 h -20.304 -7.864 v 7.864 42.034 l -10.191,10.191 5.561,5.561 12.494,-12.494 v -45.292 h 20.304 z" /></g><g
           transform="translate(42.5791,80.5156)"
           id="g118"><path
             id="path120"
             style="fill:none;stroke:#384c71;stroke-width:1.92900002;stroke-linecap:round;stroke-linejoin:round;stroke-miterlimit:22.9260006;stroke-dasharray:none;stroke-opacity:1"
             d="M 0,0 17.7,10.549" /></g><g
           transform="translate(124.7085,43.3955)"
           id="g122"><path
             id="path124"
             style="fill:#ffffff;fill-opacity:1;fill-rule:nonzero;stroke:none"
             d="m 0,0 h -89.446 l -17.621,17.622 v 11.944 h -3.23 V 16.952 16.283 l 0.473,-0.472 18.568,-18.568 0.472,-0.473 h 0.669 L 0,-3.23 Z" /></g><g
           transform="translate(124.7085,43.3955)"
           id="g126"><path
             id="path128"
             style="fill:none;stroke:#384c71;stroke-width:0.96499997;stroke-linecap:round;stroke-linejoin:round;stroke-miterlimit:22.9260006;stroke-dasharray:none;stroke-opacity:1"
             d="m 0,0 h -89.446 l -17.621,17.622 v 11.944 h -3.23 V 16.952 16.283 l 0.473,-0.472 18.568,-18.568 0.472,-0.473 h 0.669 L 0,-3.23 Z" /></g><g
           transform="translate(5.8594,297.6333)"
           id="g130"><path
             id="path132"
             style="fill:#ffffff;fill-opacity:1;fill-rule:evenodd;stroke:none"
             d="M 0,0 -5.377,5.377 V 35.613 L 0,40.99 2.284,38.706 -2.147,34.275 V 6.714 l 4.431,-4.43 z" /></g><g
           transform="translate(5.8594,297.6333)"
           id="g134"><path
             id="path136"
             style="fill:none;stroke:#384d71;stroke-width:0.96399999;stroke-linecap:round;stroke-linejoin:round;stroke-miterlimit:10;stroke-dasharray:none;stroke-opacity:1"
             d="M 0,0 -5.377,5.377 V 35.613 L 0,40.99 2.284,38.706 -2.147,34.275 V 6.714 l 4.431,-4.43 z" /></g><g
           transform="translate(337.5684,245.7896)"
           id="g138"><path
             id="path140"
             style="fill:none;stroke:#384d71;stroke-width:0.96399999;stroke-linecap:round;stroke-linejoin:round;stroke-miterlimit:10;stroke-dasharray:none;stroke-opacity:1"
             d="m 0,0 c 6.021,0 10.932,4.91 10.932,10.93 0,6.021 -4.911,10.931 -10.932,10.931 -6.021,0 -10.932,-4.91 -10.932,-10.931 C -10.932,4.91 -6.021,0 0,0 Z" /></g></g></g><text
       id="text144"
       style="font-variant:normal;font-weight:bold;font-stretch:normal;font-size:14.98579979px;font-family:Roboto;-inkscape-font-specification:Roboto-Bold;writing-mode:lr-tb;fill:#000000;fill-opacity:1;fill-rule:nonzero;stroke:none"
       transform="matrix(1,0,0,-1,333.5674,251.3159)"><tspan
         id="tspan142"
         y="0"
         x="0">6</tspan></text>
<text
       id="text148"
       style="font-variant:normal;font-weight:normal;font-stretch:normal;font-size:10.25459957px;font-family:Roboto;-inkscape-font-specification:Roboto-Regular;writing-mode:lr-tb;fill:#000000;fill-opacity:1;fill-rule:nonzero;stroke:none"
       transform="matrix(1,0,0,-1,327.6309,233.998)"><tspan
         id="tspan146"
         y="0"
         x="0 5.7733397 8.5215731 14.294912">3.14</tspan></text>
<g
       id="g150"><g
         clip-path="url(#clipPath156)"
         id="g152"><g
           transform="translate(58.3545,14.792)"
           id="g158"><path
             id="path160"
             style="fill:none;stroke:#384d71;stroke-width:0.96399999;stroke-linecap:round;stroke-linejoin:round;stroke-miterlimit:10;stroke-dasharray:none;stroke-opacity:1"
             d="m 0,0 c 6.021,0 10.931,4.91 10.931,10.931 0,6.02 -4.91,10.93 -10.931,10.93 -6.021,0 -10.931,-4.91 -10.931,-10.93 C -10.931,4.91 -6.021,0 0,0 Z" /></g></g></g><text
       id="text164"
       style="font-variant:normal;font-weight:bold;font-stretch:normal;font-size:14.98579979px;font-family:Roboto;-inkscape-font-specification:Roboto-Bold;writing-mode:lr-tb;fill:#000000;fill-opacity:1;fill-rule:nonzero;stroke:none"
       transform="matrix(1,0,0,-1,54.3525,20.3184)"><tspan
         id="tspan162"
         y="0"
         x="0">8</tspan></text>
<g
       id="g166"><g
         clip-path="url(#clipPath172)"
         id="g168"><text
           id="text176"
           style="font-variant:normal;font-weight:normal;font-stretch:normal;font-size:10.25459957px;font-family:Roboto;-inkscape-font-specification:Roboto-Regular;writing-mode:lr-tb;fill:#000000;fill-opacity:1;fill-rule:nonzero;stroke:none"
           transform="matrix(1,0,0,-1,51.4331,2.9561)"><tspan
             id="tspan174"
             y="0"
             x="0 5.7733397 8.5215731">4.0</tspan></text>
<g
           transform="translate(290.6699,19.5537)"
           id="g178"><path
             id="path180"
             style="fill:none;stroke:#384d71;stroke-width:0.96399999;stroke-linecap:round;stroke-linejoin:round;stroke-miterlimit:10;stroke-dasharray:none;stroke-opacity:1"
             d="m 0,0 c 6.02,0 10.93,4.91 10.93,10.931 0,6.02 -4.91,10.93 -10.93,10.93 -6.021,0 -10.933,-4.91 -10.933,-10.93 C -10.933,4.91 -6.021,0 0,0 Z" /></g></g></g><text
       id="text184"
       style="font-variant:normal;font-weight:bold;font-stretch:normal;font-size:14.98579979px;font-family:Roboto;-inkscape-font-specification:Roboto-Bold;writing-mode:lr-tb;fill:#000000;fill-opacity:1;fill-rule:nonzero;stroke:none"
       transform="matrix(1,0,0,-1,286.668,25.0801)"><tspan
         id="tspan182"
         y="0"
         x="0">9</tspan></text>
<text
       id="text188"
       style="font-variant:normal;font-weight:normal;font-stretch:normal;font-size:10.25459957px;font-family:Roboto;-inkscape-font-specification:Roboto-Regular;writing-mode:lr-tb;fill:#000000;fill-opacity:1;fill-rule:nonzero;stroke:none"
       transform="matrix(1,0,0,-1,280.8613,7.7168)"><tspan
         id="tspan186"
         y="0"
         x="0 5.7733397 8.5215731 14.294912">3.80</tspan></text>
<g
       id="g190"><g
         clip-path="url(#clipPath196)"
         id="g192"><g
           transform="translate(301.0898,104.165)"
           id="g198"><path
             id="path200"
             style="fill:none;stroke:#384d71;stroke-width:0.96399999;stroke-linecap:round;stroke-linejoin:round;stroke-miterlimit:10;stroke-dasharray:none;stroke-opacity:1"
             d="m 0,0 c 6.021,0 10.931,4.911 10.931,10.932 0,6.02 -4.91,10.929 -10.931,10.929 -6.021,0 -10.931,-4.909 -10.931,-10.929 C -10.931,4.911 -6.021,0 0,0 Z" /></g></g></g><text
       id="text204"
       style="font-variant:normal;font-weight:bold;font-stretch:normal;font-size:14.98579979px;font-family:Roboto;-inkscape-font-specification:Roboto-Bold;writing-mode:lr-tb;fill:#000000;fill-opacity:1;fill-rule:nonzero;stroke:none"
       transform="matrix(1,0,0,-1,297.0879,109.6924)"><tspan
         id="tspan202"
         y="0"
         x="0">4</tspan></text>
<text
       id="text208"
       style="font-variant:normal;font-weight:normal;font-stretch:normal;font-size:10.25459957px;font-family:Roboto;-inkscape-font-specification:Roboto-Regular;writing-mode:lr-tb;fill:#000000;fill-opacity:1;fill-rule:nonzero;stroke:none"
       transform="matrix(1,0,0,-1,288.3945,92.3291)"><tspan
         id="tspan206"
         y="0"
         x="0 5.7733397 11.546679 14.289785 20.063126">17.00</tspan></text>
<g
       id="g210"><g
         clip-path="url(#clipPath216)"
         id="g212"><g
           transform="translate(73.2139,115.0215)"
           id="g218"><path
             id="path220"
             style="fill:none;stroke:#384d71;stroke-width:0.96399999;stroke-linecap:round;stroke-linejoin:round;stroke-miterlimit:10;stroke-dasharray:none;stroke-opacity:1"
             d="m 0,0 c 6.021,0 10.931,4.91 10.931,10.931 0,6.02 -4.91,10.931 -10.931,10.931 -6.021,0 -10.931,-4.911 -10.931,-10.931 C -10.931,4.91 -6.021,0 0,0 Z" /></g></g></g><text
       id="text224"
       style="font-variant:normal;font-weight:bold;font-stretch:normal;font-size:14.98579979px;font-family:Roboto;-inkscape-font-specification:Roboto-Bold;writing-mode:lr-tb;fill:#000000;fill-opacity:1;fill-rule:nonzero;stroke:none"
       transform="matrix(1,0,0,-1,69.2124,120.5479)"><tspan
         id="tspan222"
         y="0"
         x="0">3</tspan></text>
<text
       id="text228"
       style="font-variant:normal;font-weight:normal;font-stretch:normal;font-size:10.25459957px;font-family:Roboto;-inkscape-font-specification:Roboto-Regular;writing-mode:lr-tb;fill:#000000;fill-opacity:1;fill-rule:nonzero;stroke:none"
       transform="matrix(1,0,0,-1,60.519,103.1846)"><tspan
         id="tspan226"
         y="0"
         x="0 5.7733397 11.546679 14.294912 20.068253">16.85</tspan></text>
<g
       id="g230"><g
         clip-path="url(#clipPath236)"
         id="g232"><g
           transform="translate(187.2432,129.002)"
           id="g238"><path
             id="path240"
             style="fill:none;stroke:#384d71;stroke-width:0.96399999;stroke-linecap:round;stroke-linejoin:round;stroke-miterlimit:10;stroke-dasharray:none;stroke-opacity:1"
             d="M 0,0 C 6.02,0 10.931,4.909 10.931,10.93 10.931,16.951 6.02,21.861 0,21.861 -6.021,21.861 -10.932,16.951 -10.932,10.93 -10.932,4.909 -6.021,0 0,0 Z" /></g></g></g><text
       id="text244"
       style="font-variant:normal;font-weight:bold;font-stretch:normal;font-size:14.98579979px;font-family:Roboto;-inkscape-font-specification:Roboto-Bold;writing-mode:lr-tb;fill:#000000;fill-opacity:1;fill-rule:nonzero;stroke:none"
       transform="matrix(1,0,0,-1,183.2407,134.5283)"><tspan
         id="tspan242"
         y="0"
         x="0">2</tspan></text>
<text
       id="text248"
       style="font-variant:normal;font-weight:normal;font-stretch:normal;font-size:10.25459957px;font-family:Roboto;-inkscape-font-specification:Roboto-Regular;writing-mode:lr-tb;fill:#000000;fill-opacity:1;fill-rule:nonzero;stroke:none"
       transform="matrix(1,0,0,-1,174.5479,117.165)"><tspan
         id="tspan246"
         y="0"
         x="0 5.7733397 11.546679 14.294912 20.068253">24.40</tspan></text>
<g
       id="g250"><g
         clip-path="url(#clipPath256)"
         id="g252"><g
           transform="translate(66.4956,229.8823)"
           id="g258"><path
             id="path260"
             style="fill:none;stroke:#384d71;stroke-width:0.96399999;stroke-linecap:round;stroke-linejoin:round;stroke-miterlimit:10;stroke-dasharray:none;stroke-opacity:1"
             d="m 0,0 c 6.021,0 10.931,4.911 10.931,10.932 0,6.02 -4.91,10.931 -10.931,10.931 -6.021,0 -10.931,-4.911 -10.931,-10.931 C -10.931,4.911 -6.021,0 0,0 Z" /></g></g></g><text
       id="text264"
       style="font-variant:normal;font-weight:bold;font-stretch:normal;font-size:14.98579979px;font-family:Roboto;-inkscape-font-specification:Roboto-Bold;writing-mode:lr-tb;fill:#000000;fill-opacity:1;fill-rule:nonzero;stroke:none"
       transform="matrix(1,0,0,-1,62.4941,235.4102)"><tspan
         id="tspan262"
         y="0"
         x="0">5</tspan></text>
<text
       id="text268"
       style="font-variant:normal;font-weight:normal;font-stretch:normal;font-size:10.25459957px;font-family:Roboto;-inkscape-font-specification:Roboto-Regular;writing-mode:lr-tb;fill:#000000;fill-opacity:1;fill-rule:nonzero;stroke:none"
       transform="matrix(1,0,0,-1,56.6875,218.0469)"><tspan
         id="tspan266"
         y="0"
         x="0 5.7733397 8.5215731 14.294912">7.42</tspan></text>
<g
       id="g270"><g
         clip-path="url(#clipPath276)"
         id="g272"><g
           transform="translate(184.0156,234.0308)"
           id="g278"><path
             id="path280"
             style="fill:none;stroke:#384d71;stroke-width:0.96399999;stroke-linecap:round;stroke-linejoin:round;stroke-miterlimit:10;stroke-dasharray:none;stroke-opacity:1"
             d="m 0,0 c 6.021,0 10.931,4.911 10.931,10.931 0,6.02 -4.91,10.93 -10.931,10.93 -6.02,0 -10.931,-4.91 -10.931,-10.93 C -10.931,4.911 -6.02,0 0,0 Z" /></g></g></g><text
       id="text284"
       style="font-variant:normal;font-weight:bold;font-stretch:normal;font-size:14.98579979px;font-family:Roboto;-inkscape-font-specification:Roboto-Bold;writing-mode:lr-tb;fill:#000000;fill-opacity:1;fill-rule:nonzero;stroke:none"
       transform="matrix(1,0,0,-1,180.0146,239.5571)"><tspan
         id="tspan282"
         y="0"
         x="0">1</tspan></text>
<text
       id="text288"
       style="font-variant:normal;font-weight:normal;font-stretch:normal;font-size:10.25459957px;font-family:Roboto;-inkscape-font-specification:Roboto-Regular;writing-mode:lr-tb;fill:#000000;fill-opacity:1;fill-rule:nonzero;stroke:none"
       transform="matrix(1,0,0,-1,171.3213,222.1938)"><tspan
         id="tspan286"
         y="0"
         x="0 5.7733397 11.546679 14.294912 20.068253">16.28</tspan></text>
<g
       id="g290"><g
         clip-path="url(#clipPath296)"
         id="g292"><g
           transform="translate(72.2046,324.3887)"
           id="g298"><path
             id="path300"
             style="fill:none;stroke:#384d71;stroke-width:0.96399999;stroke-linecap:round;stroke-linejoin:round;stroke-miterlimit:10;stroke-dasharray:none;stroke-opacity:1"
             d="m 0,0 c 6.021,0 10.931,4.911 10.931,10.931 0,6.021 -4.91,10.931 -10.931,10.931 -6.021,0 -10.931,-4.91 -10.931,-10.931 C -10.931,4.911 -6.021,0 0,0 Z" /></g></g></g><text
       id="text304"
       style="font-variant:normal;font-weight:bold;font-stretch:normal;font-size:14.98579979px;font-family:Roboto;-inkscape-font-specification:Roboto-Bold;writing-mode:lr-tb;fill:#000000;fill-opacity:1;fill-rule:nonzero;stroke:none"
       transform="matrix(1,0,0,-1,68.2031,329.9165)"><tspan
         id="tspan302"
         y="0"
         x="0">3</tspan></text>
<text
       id="text308"
       style="font-variant:normal;font-weight:normal;font-stretch:normal;font-size:10.25459957px;font-family:Roboto;-inkscape-font-specification:Roboto-Regular;writing-mode:lr-tb;fill:#000000;fill-opacity:1;fill-rule:nonzero;stroke:none"
       transform="matrix(1,0,0,-1,59.5098,312.5532)"><tspan
         id="tspan306"
         y="0"
         x="0 5.7733397 11.546679 14.294912 20.068253">16.58</tspan></text>
<g
       id="g310"><g
         clip-path="url(#clipPath316)"
         id="g312"><g
           transform="translate(352.3467,231.0698)"
           id="g318"><path
             id="path320"
             style="fill:none;stroke:#000000;stroke-width:0.81999999;stroke-linecap:round;stroke-linejoin:round;stroke-miterlimit:22.9260006;stroke-dasharray:none;stroke-opacity:1"
             d="M 0,0 H -32.608 V -33.873" /></g><g
           transform="translate(44.5039,0.4824)"
           id="g322"><path
             id="path324"
             style="fill:none;stroke:#000000;stroke-width:0.81999999;stroke-linecap:round;stroke-linejoin:round;stroke-miterlimit:22.9260006;stroke-dasharray:none;stroke-opacity:1"
             d="M 0,0 H 32.581 V 62.638" /></g></g></g></g></svg>