<?xml version="1.0" encoding="UTF-8" standalone="no"?>
<svg
   xmlns:dc="http://purl.org/dc/elements/1.1/"
   xmlns:cc="http://creativecommons.org/ns#"
   xmlns:rdf="http://www.w3.org/1999/02/22-rdf-syntax-ns#"
   xmlns:svg="http://www.w3.org/2000/svg"
   xmlns="http://www.w3.org/2000/svg"
   viewBox="0 0 431.66132 534.52264"
   height="534.52264"
   width="431.66132"
   xml:space="preserve"
   id="svg2"
   version="1.1"><metadata
     id="metadata8"><rdf:RDF><cc:Work
         rdf:about=""><dc:format>image/svg+xml</dc:format><dc:type
           rdf:resource="http://purl.org/dc/dcmitype/StillImage" /></cc:Work></rdf:RDF></metadata><defs
     id="defs6"><clipPath
       id="clipPath18"
       clipPathUnits="userSpaceOnUse"><path
         id="path16"
         d="M 0,400.892 H 323.746 V 0 H 0 Z" /></clipPath><clipPath
       id="clipPath128"
       clipPathUnits="userSpaceOnUse"><path
         id="path126"
         d="M 0,400.892 H 323.746 V 0 H 0 Z" /></clipPath><clipPath
       id="clipPath148"
       clipPathUnits="userSpaceOnUse"><path
         id="path146"
         d="M 0,400.892 H 323.746 V 0 H 0 Z" /></clipPath><clipPath
       id="clipPath168"
       clipPathUnits="userSpaceOnUse"><path
         id="path166"
         d="M 0,400.892 H 323.746 V 0 H 0 Z" /></clipPath><clipPath
       id="clipPath188"
       clipPathUnits="userSpaceOnUse"><path
         id="path186"
         d="M 0,400.892 H 323.746 V 0 H 0 Z" /></clipPath><clipPath
       id="clipPath208"
       clipPathUnits="userSpaceOnUse"><path
         id="path206"
         d="M 0,400.892 H 323.746 V 0 H 0 Z" /></clipPath><clipPath
       id="clipPath228"
       clipPathUnits="userSpaceOnUse"><path
         id="path226"
         d="M 0,400.892 H 323.746 V 0 H 0 Z" /></clipPath><clipPath
       id="clipPath248"
       clipPathUnits="userSpaceOnUse"><path
         id="path246"
         d="M 0,400.892 H 323.746 V 0 H 0 Z" /></clipPath><clipPath
       id="clipPath268"
       clipPathUnits="userSpaceOnUse"><path
         id="path266"
         d="M 0,400.892 H 323.746 V 0 H 0 Z" /></clipPath><clipPath
       id="clipPath288"
       clipPathUnits="userSpaceOnUse"><path
         id="path286"
         d="M 0,400.892 H 323.746 V 0 H 0 Z" /></clipPath></defs><g
     transform="matrix(1.3333333,0,0,-1.3333333,0,534.52267)"
     id="g10"><g
       id="g12"><g
         clip-path="url(#clipPath18)"
         id="g14"><g
           transform="translate(275.7085,183.6475)"
           id="g20"><path
             id="path22"
             style="fill:none;stroke:#384d71;stroke-width:0.89200002;stroke-linecap:round;stroke-linejoin:round;stroke-miterlimit:10;stroke-dasharray:none;stroke-opacity:1"
             d="m 0,0 c 0,2.569 -0.643,4.131 -0.643,5.877 0,2.73 1.841,6.802 5.136,6.802 3.295,0 5.136,-4.072 5.136,-6.802 C 9.629,4.131 8.986,2.569 8.986,0 M 2.412,10.465 c 0.769,-1.789 3.393,-1.789 4.161,0 M 2.247,0.161 c -2.375,4.188 -1.539,11.235 2.246,11.235 3.786,0 4.62,-7.047 2.247,-11.235 M 4.493,-1.795 c 0.338,0 0.613,-0.274 0.613,-0.613 0,-0.338 -0.275,-0.613 -0.613,-0.613 -0.338,0 -0.612,0.275 -0.612,0.613 0,0.339 0.274,0.613 0.612,0.613 z M 0.722,0.161 h 7.544 c 0.706,0 1.283,-0.578 1.283,-1.284 v -2.569 c 0,-0.706 -0.577,-1.284 -1.283,-1.284 H 0.722 c -0.707,0 -1.284,0.578 -1.284,1.284 v 2.569 c 0,0.706 0.577,1.284 1.284,1.284 z" /></g><g
           transform="translate(14.7612,184.7725)"
           id="g24"><path
             id="path26"
             style="fill:none;stroke:#384d71;stroke-width:0.89200002;stroke-linecap:round;stroke-linejoin:round;stroke-miterlimit:10;stroke-dasharray:none;stroke-opacity:1"
             d="m 0,0 c 2.57,0 4.131,0.643 5.878,0.643 2.729,0 6.801,-1.842 6.801,-5.137 0,-3.295 -4.072,-5.137 -6.801,-5.137 -1.747,0 -3.308,0.644 -5.878,0.644 m 10.465,6.574 c -1.789,-0.769 -1.789,-3.394 0,-4.161 M 0.161,-2.247 c 4.188,2.374 11.235,1.54 11.235,-2.247 0,-3.786 -7.047,-4.621 -11.235,-2.246 m -1.955,2.246 c 0,-0.339 -0.275,-0.613 -0.613,-0.613 -0.339,0 -0.614,0.274 -0.614,0.613 0,0.339 0.275,0.614 0.614,0.614 0.338,0 0.613,-0.275 0.613,-0.614 z m 1.955,3.772 v -7.544 c 0,-0.706 -0.578,-1.285 -1.284,-1.285 h -2.568 c -0.706,0 -1.284,0.579 -1.284,1.285 v 7.544 c 0,0.706 0.578,1.284 1.284,1.284 h 2.568 c 0.706,0 1.284,-0.578 1.284,-1.284 z" /></g><g
           transform="translate(40.4072,160.8398)"
           id="g28"><path
             id="path30"
             style="fill:none;stroke:#384d71;stroke-width:0.89200002;stroke-linecap:round;stroke-linejoin:round;stroke-miterlimit:10;stroke-dasharray:none;stroke-opacity:1"
             d="m 0,0 h 15.086 v -7.312 c 0,-4.292 -3.48,-7.774 -7.772,-7.774 H 0 m -15.247,0 H 0 V 0 h -15.247 m -14.124,-53.229 v 12.09 m 4.387,-2.691 c 0,0.681 -0.552,1.232 -1.233,1.232 -0.68,0 -1.232,-0.551 -1.232,-1.232 0,-0.681 0.552,-1.233 1.232,-1.233 0.681,0 1.233,0.552 1.233,1.233 z m 0,-6.707 c 0,0.68 -0.552,1.231 -1.233,1.231 -0.68,0 -1.232,-0.551 -1.232,-1.231 0,-0.682 0.552,-1.234 1.232,-1.234 0.681,0 1.233,0.552 1.233,1.234 z m 6.154,6.707 c 0,0.681 -0.551,1.232 -1.232,1.232 -0.681,0 -1.232,-0.551 -1.232,-1.232 0,-0.681 0.551,-1.233 1.232,-1.233 0.681,0 1.232,0.552 1.232,1.233 z m 0,-6.707 c 0,0.68 -0.551,1.231 -1.232,1.231 -0.681,0 -1.232,-0.551 -1.232,-1.231 0,-0.682 0.551,-1.234 1.232,-1.234 0.681,0 1.232,0.552 1.232,1.234 z m 2.085,9.398 h -14.444 v -12.09 h 14.444 z m -12.304,33.008 v 5.991 m 10.592,-5.991 v 5.991 m -1.514,-5.991 v 5.992 m -1.512,-5.992 v 5.992 m -1.514,-5.992 v 5.992 m -1.513,-5.992 v 5.992 m -1.513,-5.992 v 5.992 m -1.513,-5.992 v 5.992 m 0.199,-14.396 v 1.498 m 1.175,-0.749 h -4.002 m 13.847,-4.279 v 8.559 c 0,0.857 -0.701,1.557 -1.558,1.557 h -10.732 c -0.856,0 -1.557,-0.701 -1.557,-1.557 v -8.559 c 0,-0.857 0.701,-1.557 1.557,-1.557 h 10.732 c 0.857,0 1.558,0.7 1.558,1.557 z m 1.07,-34.662 v -31.679 h -17.441 m 17.441,46.764 h -17.441 m 17.441,16.424 h -17.441 m 0,-31.509 h 17.441 V 0 h -17.441" /></g><path
           id="path32"
           style="fill:#384d71;fill-opacity:1;fill-rule:evenodd;stroke:none"
           d="m 79.861,44.421 h -1.846 v -7.273 h 1.846 z m 0,119.407 V 160.84 H 7.72 V 44.421 H 36.288 V 37.147 H 7.72 V 0.446 H 0.446 V 203.63 H 4.583 7.72 67.853 v 5.136 h 7.273 v -5.136 -4.286 -2.988 -8.615 h -2.987 v 8.615 H 7.72 v -32.528 h 64.419 v 6.26 h 2.987 v -6.26 z m 0,92.656 v -7.274 h -4.735 v -15.247 h -7.273 v 22.521 h 2.298 4.975 z m 0,-95.644 h 1.845 v 2.988 h -1.845 z m 0,-123.693 v 7.274 h 27.685 V 160.84 h -3.049 v 2.988 h 3.049 v 26.704 2.987 h 2.988 22.21 v -2.987 h -22.21 V 44.421 h 21.247 l 11.555,-11.555 -5.144,-5.143 -9.425,9.424 z m 168.597,171.298 h -1.283 v -14.926 h -4.495 v -2.987 h 4.495 v -13.125 -1.543 -1.444 h 1.283 z m 0,50.395 h -1.283 v -2.988 -3.655 h -4.495 v -2.987 h 4.495 v -22.95 h 1.283 z m 0,111.273 v -7.274 H 220.052 V 256.484 249.21 H 212.778 79.861 v 7.274 h 132.917 v 143.962 h 7.274 v -30.333 z m 0,-332.966 h -59.899 l -9.426,-9.424 -5.142,5.143 11.554,11.555 h 28.469 v 146.111 h -48.369 v 2.987 h 48.369 2.988 2.889 v -2.987 h -2.889 V 44.421 h 31.456 z m 0,332.966 h 7.864 v -7.274 h -7.864 z m 0,-195.693 h 67.568 V 44.421 h -23.913 v -7.274 h 31.186 v 1.411 5.863 356.025 h -7.273 V 370.113 H 297.89 v -7.274 h 18.136 V 258.84 h -65.864 -1.704 v -32.58 h 1.704 v 29.592 h 65.864 v -78.445 h -65.864 v 31.038 h -1.704 z m 5.779,-137.273 h -5.778 v 7.273 h 5.778 z" /><g
           transform="translate(67.8525,233.9634)"
           id="g34"><path
             id="path36"
             style="fill:none;stroke:#384d71;stroke-width:0.89200002;stroke-linecap:round;stroke-linejoin:round;stroke-miterlimit:10;stroke-dasharray:none;stroke-opacity:1"
             d="m 0,0 h 7.274 v 15.247 h 137.651 7.275 v 7.274 106.354 h 36.27 v 7.274 H 152.2 v 30.333 h -7.275 V 22.521 H 7.274 2.299 l -2.299,0 z m 7.274,-70.135 v 6.26 H 4.287 v -6.26 h -64.42 v 32.528 h 64.42 v -8.615 h 2.987 v 8.615 2.987 4.287 5.136 H 0 v -5.136 h -60.133 -3.137 -4.137 v -203.184 h 7.274 v 36.701 h 28.568 v 7.274 h -28.568 v 116.418 h 73.987 v 2.989 z m 29.37,-2.989 h 3.049 v -116.418 h -29.53 v -7.274 h 50.752 l 9.425,-9.425 5.143,5.144 -11.555,11.555 H 42.681 v 146.111 h 22.21 v 2.986 h -22.21 -2.988 v -2.986 -26.704 h -3.049 z m 138.184,29.693 h 4.495 v -13.125 -1.543 -1.444 h 68.85 V -189.542 H 224.26 v -7.274 h 31.187 v 1.41 5.864 356.024 h -7.274 v -30.333 h -18.135 v -7.274 h 18.135 V 24.876 h -65.864 -2.986 v -2.987 -3.655 h -4.495 v -2.987 h 4.495 V -7.704 h 2.986 v 29.593 h 65.864 v -78.445 h -65.864 v 31.037 h -2.986 v -14.926 h -4.495 z m 11.556,-146.111 v -7.274 h -65.677 l -9.426,-9.425 -5.143,5.144 11.555,11.555 h 28.469 v 146.111 h -48.37 v 2.986 h 48.37 2.988 2.889 v -2.986 h -2.889 v -146.111 z" /></g><g
           transform="translate(177.6177,29.2383)"
           id="g38"><path
             id="path40"
             style="fill:#ffffff;fill-opacity:1;fill-rule:evenodd;stroke:none"
             d="M 0,0 -4.973,-4.974 H -32.937 L -37.91,0 l 2.113,2.112 4.097,-4.097 h 25.49 l 4.098,4.097 z" /></g><g
           transform="translate(177.6177,29.2383)"
           id="g42"><path
             id="path44"
             style="fill:none;stroke:#384d71;stroke-width:0.89200002;stroke-linecap:round;stroke-linejoin:round;stroke-miterlimit:10;stroke-dasharray:none;stroke-opacity:1"
             d="M 0,0 -4.973,-4.974 H -32.937 L -37.91,0 l 2.113,2.112 4.097,-4.097 h 25.49 l 4.098,4.097 z" /></g><g
           transform="translate(293.8989,234.7031)"
           id="g46"><path
             id="path48"
             style="fill:none;stroke:#384d71;stroke-width:0.89200002;stroke-linecap:round;stroke-linejoin:round;stroke-miterlimit:10;stroke-dasharray:none;stroke-opacity:1"
             d="m 0,0 c 0.628,0 1.139,-0.51 1.139,-1.14 0,-0.628 -0.511,-1.138 -1.139,-1.138 -0.629,0 -1.14,0.51 -1.14,1.138 C -1.14,-0.51 -0.629,0 0,0 Z M 13.618,-1.056 C 7.158,1.178 2.086,6.27 -0.117,12.739 c -0.678,1.979 -2.542,3.313 -4.639,3.313 -2.708,0 -4.904,-2.196 -4.904,-4.904 0,-0.628 0.118,-1.249 0.354,-1.832 l 0.02,-0.051 0.019,-0.052 C -6.114,0.305 0.839,-6.732 9.688,-10.038 l 0.095,-0.035 0.093,-0.044 c 0.652,-0.306 1.359,-0.461 2.08,-0.461 2.498,0 4.902,2.419 4.902,4.903 0,2.303 -1.098,3.849 -3.24,4.619 z m 0.839,2.384 C 8.729,3.306 4.228,7.819 2.275,13.557 c -1.001,2.922 -3.771,5.022 -7.031,5.022 -4.103,0 -7.432,-3.327 -7.432,-7.431 0,-0.982 0.192,-1.919 0.539,-2.777 3.396,-9.6 10.889,-17.204 20.452,-20.776 0.958,-0.449 2.025,-0.701 3.153,-0.701 4.104,0 7.431,3.766 7.431,7.431 0,2.261 -1.148,3.997 -1.638,6.139 -0.866,3.79 -0.168,7.264 0.728,9.313 C 22.456,18.87 9.616,20.734 6.312,13.9 5.025,11.237 5.722,8.032 7.062,6.083 m 13.802,13.802 h -36.01 c 0,-19.883 16.126,-36.008 36.01,-36.008 z" /></g><g
           transform="translate(304.6646,203.5044)"
           id="g50"><path
             id="path52"
             style="fill:none;stroke:#384d71;stroke-width:0.89200002;stroke-linecap:round;stroke-linejoin:round;stroke-miterlimit:10;stroke-dasharray:none;stroke-opacity:1"
             d="M 0,0 C 0,0.716 0.58,1.294 1.295,1.294 2.011,1.294 2.589,0.716 2.589,0 2.589,-0.716 2.011,-1.294 1.295,-1.294 0.58,-1.294 0,-0.716 0,0 Z M 8.444,0.125 H 9.48 M 8.961,0.644 V -0.393 M 6.485,6.53 H 5.248 c -3.536,0 -6.404,-2.867 -6.404,-6.405 0,-3.537 2.868,-6.404 6.404,-6.404 h 1.237 c 0.697,0 1.264,0.567 1.264,1.264 V 5.267 c 0,0.695 -0.567,1.263 -1.264,1.263 z m 3.614,1.264 H 5.248 c -4.234,0 -7.669,-3.434 -7.669,-7.669 0,-4.234 3.435,-7.668 7.669,-7.668 h 4.851 z" /></g><path
           id="path54"
           style="fill:#ffffff;fill-opacity:1;fill-rule:nonzero;stroke:#384c71;stroke-width:0.89200002;stroke-linecap:round;stroke-linejoin:round;stroke-miterlimit:22.9260006;stroke-dasharray:none;stroke-opacity:1"
           d="m 36.288,42.278 h 22.79 v -2.987 h -22.79 z" /><path
           id="path56"
           style="fill:#ffffff;fill-opacity:1;fill-rule:nonzero;stroke:#384c71;stroke-width:0.89200002;stroke-linecap:round;stroke-linejoin:round;stroke-miterlimit:22.9260006;stroke-dasharray:none;stroke-opacity:1"
           d="m 254.237,42.278 h 37.876 v -2.987 h -37.876 z" /><path
           id="path58"
           style="fill:#ffffff;fill-opacity:1;fill-rule:nonzero;stroke:#384c71;stroke-width:0.89200002;stroke-linecap:round;stroke-linejoin:round;stroke-miterlimit:22.9260006;stroke-dasharray:none;stroke-opacity:1"
           d="m 256.323,368.184 h 22.629 v -2.987 h -22.629 z" /><path
           id="path60"
           style="fill:#ffffff;fill-opacity:1;fill-rule:nonzero;stroke:#384c71;stroke-width:0.89200002;stroke-linecap:round;stroke-linejoin:round;stroke-miterlimit:22.9260006;stroke-dasharray:none;stroke-opacity:1"
           d="m 220.052,400.446 h 95.974 v -2.988 h -95.974 z" /><g
           transform="translate(7.7197,3.4336)"
           id="g62"><path
             id="path64"
             style="fill:#ffffff;fill-opacity:1;fill-rule:nonzero;stroke:none"
             d="m 0,0 h 71.122 l 16.297,16.298 v 17.416 h 2.987 V 15.679 15.061 L 89.969,14.623 72.796,-2.55 72.359,-2.987 H 71.74 l -71.74,0 z" /></g><g
           transform="translate(7.7197,3.4336)"
           id="g66"><path
             id="path68"
             style="fill:none;stroke:#384c71;stroke-width:0.89200002;stroke-linecap:round;stroke-linejoin:round;stroke-miterlimit:22.9260006;stroke-dasharray:none;stroke-opacity:1"
             d="m 0,0 h 71.122 l 16.297,16.298 v 17.416 h 2.987 V 15.679 15.061 L 89.969,14.623 72.796,-2.55 72.359,-2.987 H 71.74 l -71.74,0 z" /></g><g
           transform="translate(297.8901,362.8389)"
           id="g70"><path
             id="path72"
             style="fill:none;stroke:#384c71;stroke-width:1.78400004;stroke-linecap:round;stroke-linejoin:round;stroke-miterlimit:22.9260006;stroke-dasharray:none;stroke-opacity:1"
             d="M 0,0 -16.37,-9.469" /></g><g
           transform="translate(220.0522,249.7153)"
           id="g74"><path
             id="path76"
             style="fill:none;stroke:#384c71;stroke-width:1.78400004;stroke-linecap:round;stroke-linejoin:round;stroke-miterlimit:22.9260006;stroke-dasharray:none;stroke-opacity:1"
             d="M 0,0 19.579,11.395" /></g><g
           transform="translate(250.2241,208.4448)"
           id="g78"><path
             id="path80"
             style="fill:none;stroke:#384c71;stroke-width:1.78400004;stroke-linecap:round;stroke-linejoin:round;stroke-miterlimit:22.9260006;stroke-dasharray:none;stroke-opacity:1"
             d="M 0,0 8.827,15.408" /></g><g
           transform="translate(219.2036,190.9463)"
           id="g82"><path
             id="path84"
             style="fill:none;stroke:#384c71;stroke-width:1.78400004;stroke-linecap:round;stroke-linejoin:round;stroke-miterlimit:22.9260006;stroke-dasharray:none;stroke-opacity:1"
             d="M 0,0 19.579,-11.827" /></g><g
           transform="translate(132.7437,190.5322)"
           id="g86"><path
             id="path88"
             style="fill:none;stroke:#384c71;stroke-width:1.78400004;stroke-linecap:round;stroke-linejoin:round;stroke-miterlimit:22.9260006;stroke-dasharray:none;stroke-opacity:1"
             d="M 0,0 18.617,-10.754" /></g><g
           transform="translate(165.645,190.5322)"
           id="g90"><path
             id="path92"
             style="fill:none;stroke:#384c71;stroke-width:1.78400004;stroke-linecap:round;stroke-linejoin:round;stroke-miterlimit:22.9260006;stroke-dasharray:none;stroke-opacity:1"
             d="M 0,0 -9.791,-7.223" /></g><g
           transform="translate(104.4966,160.8398)"
           id="g94"><path
             id="path96"
             style="fill:none;stroke:#384c71;stroke-width:1.78400004;stroke-linecap:round;stroke-linejoin:round;stroke-miterlimit:22.9260006;stroke-dasharray:none;stroke-opacity:1"
             d="M 0,0 -19.741,-11.394" /></g><g
           transform="translate(78.0156,44.4209)"
           id="g98"><path
             id="path100"
             style="fill:none;stroke:#384c71;stroke-width:1.78400004;stroke-linecap:round;stroke-linejoin:round;stroke-miterlimit:22.9260006;stroke-dasharray:none;stroke-opacity:1"
             d="M 0,0 -16.371,9.47" /></g><g
           transform="translate(72.1392,187.7412)"
           id="g102"><path
             id="path104"
             style="fill:none;stroke:#384c71;stroke-width:1.78400004;stroke-linecap:round;stroke-linejoin:round;stroke-miterlimit:22.9260006;stroke-dasharray:none;stroke-opacity:1"
             d="M 0,0 -8.889,-15.247" /></g><g
           transform="translate(67.8525,208.7661)"
           id="g106"><path
             id="path108"
             style="fill:none;stroke:#384c71;stroke-width:1.78400004;stroke-linecap:round;stroke-linejoin:round;stroke-miterlimit:22.9260006;stroke-dasharray:none;stroke-opacity:1"
             d="M 0,0 -12.679,21.827" /></g><g
           transform="translate(24.4204,227.3237)"
           id="g110"><path
             id="path112"
             style="fill:none;stroke:#384d71;stroke-width:0.89200002;stroke-linecap:round;stroke-linejoin:round;stroke-miterlimit:10;stroke-dasharray:none;stroke-opacity:1"
             d="m 0,0 c 5.568,0 10.109,4.541 10.109,10.109 0,5.569 -4.541,10.11 -10.109,10.11 -5.568,0 -10.11,-4.541 -10.11,-10.11 C -10.11,4.541 -5.568,0 0,0 Z" /></g></g></g><text
       id="text116"
       style="font-variant:normal;font-weight:bold;font-stretch:normal;font-size:13.85999966px;font-family:Roboto;-inkscape-font-specification:Roboto-Bold;writing-mode:lr-tb;fill:#000000;fill-opacity:1;fill-rule:nonzero;stroke:none"
       transform="matrix(1,0,0,-1,20.7197,232.4351)"><tspan
         id="tspan114"
         y="0"
         x="0">6</tspan></text>
<text
       id="text120"
       style="font-variant:normal;font-weight:normal;font-stretch:normal;font-size:9.48419952px;font-family:Roboto;-inkscape-font-specification:Roboto-Regular;writing-mode:lr-tb;fill:#000000;fill-opacity:1;fill-rule:nonzero;stroke:none"
       transform="matrix(1,0,0,-1,15.3491,216.3765)"><tspan
         id="tspan118"
         y="0"
         x="0 5.3396044 7.8813701 13.220975">3.09</tspan></text>
<g
       id="g122"><g
         clip-path="url(#clipPath128)"
         id="g124"><g
           transform="translate(165.8267,369.2881)"
           id="g130"><path
             id="path132"
             style="fill:none;stroke:#384d71;stroke-width:0.89200002;stroke-linecap:round;stroke-linejoin:round;stroke-miterlimit:10;stroke-dasharray:none;stroke-opacity:1"
             d="M 0,0 C 5.569,0 10.11,4.542 10.11,10.11 10.11,15.678 5.569,20.219 0,20.219 -5.568,20.219 -10.109,15.678 -10.109,10.11 -10.109,4.542 -5.568,0 0,0 Z" /></g></g></g><text
       id="text136"
       style="font-variant:normal;font-weight:bold;font-stretch:normal;font-size:13.85999966px;font-family:Roboto;-inkscape-font-specification:Roboto-Bold;writing-mode:lr-tb;fill:#000000;fill-opacity:1;fill-rule:nonzero;stroke:none"
       transform="matrix(1,0,0,-1,162.1265,374.4004)"><tspan
         id="tspan134"
         y="0"
         x="0">8</tspan></text>
<text
       id="text140"
       style="font-variant:normal;font-weight:normal;font-stretch:normal;font-size:9.48419952px;font-family:Roboto;-inkscape-font-specification:Roboto-Regular;writing-mode:lr-tb;fill:#000000;fill-opacity:1;fill-rule:nonzero;stroke:none"
       transform="matrix(1,0,0,-1,159.4263,358.3418)"><tspan
         id="tspan138"
         y="0"
         x="0 5.3396044 7.8813701">3.8</tspan></text>
<g
       id="g142"><g
         clip-path="url(#clipPath148)"
         id="g144"><g
           transform="translate(67.7959,18.084)"
           id="g150"><path
             id="path152"
             style="fill:none;stroke:#384d71;stroke-width:0.89200002;stroke-linecap:round;stroke-linejoin:round;stroke-miterlimit:10;stroke-dasharray:none;stroke-opacity:1"
             d="M 0,0 C 5.568,0 10.11,4.541 10.11,10.109 10.11,15.678 5.568,20.22 0,20.22 -5.568,20.22 -10.109,15.678 -10.109,10.109 -10.109,4.541 -5.568,0 0,0 Z" /></g></g></g><text
       id="text156"
       style="font-variant:normal;font-weight:bold;font-stretch:normal;font-size:13.85999966px;font-family:Roboto;-inkscape-font-specification:Roboto-Bold;writing-mode:lr-tb;fill:#000000;fill-opacity:1;fill-rule:nonzero;stroke:none"
       transform="matrix(1,0,0,-1,64.0952,23.1953)"><tspan
         id="tspan154"
         y="0"
         x="0">9</tspan></text>
<text
       id="text160"
       style="font-variant:normal;font-weight:normal;font-stretch:normal;font-size:9.48419952px;font-family:Roboto;-inkscape-font-specification:Roboto-Regular;writing-mode:lr-tb;fill:#000000;fill-opacity:1;fill-rule:nonzero;stroke:none"
       transform="matrix(1,0,0,-1,58.7251,7.1367)"><tspan
         id="tspan158"
         y="0"
         x="0 5.3396044 7.8813701 13.220975">3.80</tspan></text>
<g
       id="g162"><g
         clip-path="url(#clipPath168)"
         id="g164"><g
           transform="translate(58.2695,96.3398)"
           id="g170"><path
             id="path172"
             style="fill:none;stroke:#384d71;stroke-width:0.89200002;stroke-linecap:round;stroke-linejoin:round;stroke-miterlimit:10;stroke-dasharray:none;stroke-opacity:1"
             d="m 0,0 c 5.568,0 10.11,4.541 10.11,10.109 0,5.569 -4.542,10.11 -10.11,10.11 -5.568,0 -10.11,-4.541 -10.11,-10.11 C -10.11,4.541 -5.568,0 0,0 Z" /></g></g></g><text
       id="text176"
       style="font-variant:normal;font-weight:bold;font-stretch:normal;font-size:13.85999966px;font-family:Roboto;-inkscape-font-specification:Roboto-Bold;writing-mode:lr-tb;fill:#000000;fill-opacity:1;fill-rule:nonzero;stroke:none"
       transform="matrix(1,0,0,-1,54.5688,101.4512)"><tspan
         id="tspan174"
         y="0"
         x="0">4</tspan></text>
<text
       id="text180"
       style="font-variant:normal;font-weight:normal;font-stretch:normal;font-size:9.48419952px;font-family:Roboto;-inkscape-font-specification:Roboto-Regular;writing-mode:lr-tb;fill:#000000;fill-opacity:1;fill-rule:nonzero;stroke:none"
       transform="matrix(1,0,0,-1,46.5288,85.3926)"><tspan
         id="tspan178"
         y="0"
         x="0 5.3396044 10.679209 13.220975 18.560579">17.00</tspan></text>
<g
       id="g182"><g
         clip-path="url(#clipPath188)"
         id="g184"><g
           transform="translate(268.9155,106.3799)"
           id="g190"><path
             id="path192"
             style="fill:none;stroke:#384d71;stroke-width:0.89200002;stroke-linecap:round;stroke-linejoin:round;stroke-miterlimit:10;stroke-dasharray:none;stroke-opacity:1"
             d="M 0,0 C 5.568,0 10.109,4.542 10.109,10.11 10.109,15.678 5.568,20.22 0,20.22 -5.567,20.22 -10.109,15.678 -10.109,10.11 -10.109,4.542 -5.567,0 0,0 Z" /></g></g></g><text
       id="text196"
       style="font-variant:normal;font-weight:bold;font-stretch:normal;font-size:13.85999966px;font-family:Roboto;-inkscape-font-specification:Roboto-Bold;writing-mode:lr-tb;fill:#000000;fill-opacity:1;fill-rule:nonzero;stroke:none"
       transform="matrix(1,0,0,-1,265.2144,111.4922)"><tspan
         id="tspan194"
         y="0"
         x="0">3</tspan></text>
<text
       id="text200"
       style="font-variant:normal;font-weight:normal;font-stretch:normal;font-size:9.48419952px;font-family:Roboto;-inkscape-font-specification:Roboto-Regular;writing-mode:lr-tb;fill:#000000;fill-opacity:1;fill-rule:nonzero;stroke:none"
       transform="matrix(1,0,0,-1,257.1753,95.4336)"><tspan
         id="tspan198"
         y="0"
         x="0 5.3396044 10.679209 13.220975 18.560579">20.56</tspan></text>
<g
       id="g202"><g
         clip-path="url(#clipPath208)"
         id="g204"><g
           transform="translate(163.564,119.3096)"
           id="g210"><path
             id="path212"
             style="fill:none;stroke:#384d71;stroke-width:0.89200002;stroke-linecap:round;stroke-linejoin:round;stroke-miterlimit:10;stroke-dasharray:none;stroke-opacity:1"
             d="M 0,0 C 5.567,0 10.109,4.541 10.109,10.109 10.109,15.678 5.567,20.22 0,20.22 -5.568,20.22 -10.11,15.678 -10.11,10.109 -10.11,4.541 -5.568,0 0,0 Z" /></g></g></g><text
       id="text216"
       style="font-variant:normal;font-weight:bold;font-stretch:normal;font-size:13.85999966px;font-family:Roboto;-inkscape-font-specification:Roboto-Bold;writing-mode:lr-tb;fill:#000000;fill-opacity:1;fill-rule:nonzero;stroke:none"
       transform="matrix(1,0,0,-1,159.8628,124.4219)"><tspan
         id="tspan214"
         y="0"
         x="0">2</tspan></text>
<text
       id="text220"
       style="font-variant:normal;font-weight:normal;font-stretch:normal;font-size:9.48419952px;font-family:Roboto;-inkscape-font-specification:Roboto-Regular;writing-mode:lr-tb;fill:#000000;fill-opacity:1;fill-rule:nonzero;stroke:none"
       transform="matrix(1,0,0,-1,151.8232,108.3633)"><tspan
         id="tspan218"
         y="0"
         x="0 5.3396044 10.679209 13.220975 18.560579">24.40</tspan></text>
<g
       id="g222"><g
         clip-path="url(#clipPath228)"
         id="g224"><g
           transform="translate(275.1284,212.6123)"
           id="g230"><path
             id="path232"
             style="fill:none;stroke:#384d71;stroke-width:0.89200002;stroke-linecap:round;stroke-linejoin:round;stroke-miterlimit:10;stroke-dasharray:none;stroke-opacity:1"
             d="M 0,0 C 5.568,0 10.11,4.542 10.11,10.11 10.11,15.678 5.568,20.22 0,20.22 -5.568,20.22 -10.11,15.678 -10.11,10.11 -10.11,4.542 -5.568,0 0,0 Z" /></g></g></g><text
       id="text236"
       style="font-variant:normal;font-weight:bold;font-stretch:normal;font-size:13.85999966px;font-family:Roboto;-inkscape-font-specification:Roboto-Bold;writing-mode:lr-tb;fill:#000000;fill-opacity:1;fill-rule:nonzero;stroke:none"
       transform="matrix(1,0,0,-1,271.4282,217.7241)"><tspan
         id="tspan234"
         y="0"
         x="0">5</tspan></text>
<text
       id="text240"
       style="font-variant:normal;font-weight:normal;font-stretch:normal;font-size:9.48419952px;font-family:Roboto;-inkscape-font-specification:Roboto-Regular;writing-mode:lr-tb;fill:#000000;fill-opacity:1;fill-rule:nonzero;stroke:none"
       transform="matrix(1,0,0,-1,266.0571,201.6655)"><tspan
         id="tspan238"
         y="0"
         x="0 5.3396044 7.8766279 13.216232">7.42</tspan></text>
<g
       id="g242"><g
         clip-path="url(#clipPath248)"
         id="g244"><g
           transform="translate(166.5024,216.4482)"
           id="g250"><path
             id="path252"
             style="fill:none;stroke:#384d71;stroke-width:0.89200002;stroke-linecap:round;stroke-linejoin:round;stroke-miterlimit:10;stroke-dasharray:none;stroke-opacity:1"
             d="M 0,0 C 5.567,0 10.109,4.542 10.109,10.11 10.109,15.678 5.567,20.219 0,20.219 -5.568,20.219 -10.11,15.678 -10.11,10.11 -10.11,4.542 -5.568,0 0,0 Z" /></g></g></g><text
       id="text256"
       style="font-variant:normal;font-weight:bold;font-stretch:normal;font-size:13.85999966px;font-family:Roboto;-inkscape-font-specification:Roboto-Bold;writing-mode:lr-tb;fill:#000000;fill-opacity:1;fill-rule:nonzero;stroke:none"
       transform="matrix(1,0,0,-1,162.8013,221.5596)"><tspan
         id="tspan254"
         y="0"
         x="0">1</tspan></text>
<text
       id="text260"
       style="font-variant:normal;font-weight:normal;font-stretch:normal;font-size:9.48419952px;font-family:Roboto;-inkscape-font-specification:Roboto-Regular;writing-mode:lr-tb;fill:#000000;fill-opacity:1;fill-rule:nonzero;stroke:none"
       transform="matrix(1,0,0,-1,154.7612,205.501)"><tspan
         id="tspan258"
         y="0"
         x="0 5.3396044 10.679209 13.216232 18.555838">16.28</tspan></text>
<g
       id="g262"><g
         clip-path="url(#clipPath268)"
         id="g264"><g
           transform="translate(270.0698,300.0186)"
           id="g270"><path
             id="path272"
             style="fill:none;stroke:#384d71;stroke-width:0.89200002;stroke-linecap:round;stroke-linejoin:round;stroke-miterlimit:10;stroke-dasharray:none;stroke-opacity:1"
             d="M 0,0 C 5.567,0 10.109,4.542 10.109,10.11 10.109,15.678 5.567,20.219 0,20.219 -5.568,20.219 -10.108,15.678 -10.108,10.11 -10.108,4.542 -5.568,0 0,0 Z" /></g></g></g><text
       id="text276"
       style="font-variant:normal;font-weight:bold;font-stretch:normal;font-size:13.85999966px;font-family:Roboto;-inkscape-font-specification:Roboto-Bold;writing-mode:lr-tb;fill:#000000;fill-opacity:1;fill-rule:nonzero;stroke:none"
       transform="matrix(1,0,0,-1,266.3696,305.1304)"><tspan
         id="tspan274"
         y="0"
         x="0">3</tspan></text>
<text
       id="text280"
       style="font-variant:normal;font-weight:normal;font-stretch:normal;font-size:9.48419952px;font-family:Roboto;-inkscape-font-specification:Roboto-Regular;writing-mode:lr-tb;fill:#000000;fill-opacity:1;fill-rule:nonzero;stroke:none"
       transform="matrix(1,0,0,-1,258.3286,289.0718)"><tspan
         id="tspan278"
         y="0"
         x="0 5.3396044 10.679209 13.220975 18.560579">21.29</tspan></text>
<g
       id="g282"><g
         clip-path="url(#clipPath288)"
         id="g284"><g
           transform="translate(150.6763,354.7837)"
           id="g290"><path
             id="path292"
             style="fill:none;stroke:#000000;stroke-width:0.75800002;stroke-linecap:round;stroke-linejoin:round;stroke-miterlimit:22.9260006;stroke-dasharray:none;stroke-opacity:1"
             d="m 0,0 h 30.133 l 80.355,28.846" /></g></g></g></g></svg>