<?xml version="1.0" encoding="UTF-8" standalone="no"?>
<svg
   xmlns:dc="http://purl.org/dc/elements/1.1/"
   xmlns:cc="http://creativecommons.org/ns#"
   xmlns:rdf="http://www.w3.org/1999/02/22-rdf-syntax-ns#"
   xmlns:svg="http://www.w3.org/2000/svg"
   xmlns="http://www.w3.org/2000/svg"
   viewBox="0 0 485.72266 534.40399"
   height="534.40399"
   width="485.72266"
   xml:space="preserve"
   id="svg2"
   version="1.1"><metadata
     id="metadata8"><rdf:RDF><cc:Work
         rdf:about=""><dc:format>image/svg+xml</dc:format><dc:type
           rdf:resource="http://purl.org/dc/dcmitype/StillImage" /></cc:Work></rdf:RDF></metadata><defs
     id="defs6"><clipPath
       id="clipPath18"
       clipPathUnits="userSpaceOnUse"><path
         id="path16"
         d="M 0,400.803 H 364.292 V 0 H 0 Z" /></clipPath><clipPath
       id="clipPath54"
       clipPathUnits="userSpaceOnUse"><path
         id="path52"
         d="M 0,400.803 H 364.292 V 0 H 0 Z" /></clipPath><clipPath
       id="clipPath74"
       clipPathUnits="userSpaceOnUse"><path
         id="path72"
         d="M 0,400.803 H 364.292 V 0 H 0 Z" /></clipPath><clipPath
       id="clipPath94"
       clipPathUnits="userSpaceOnUse"><path
         id="path92"
         d="M 0,400.803 H 364.292 V 0 H 0 Z" /></clipPath><clipPath
       id="clipPath114"
       clipPathUnits="userSpaceOnUse"><path
         id="path112"
         d="M 0,400.803 H 364.292 V 0 H 0 Z" /></clipPath><clipPath
       id="clipPath134"
       clipPathUnits="userSpaceOnUse"><path
         id="path132"
         d="M 0,400.803 H 364.292 V 0 H 0 Z" /></clipPath><clipPath
       id="clipPath154"
       clipPathUnits="userSpaceOnUse"><path
         id="path152"
         d="M 0,400.803 H 364.292 V 0 H 0 Z" /></clipPath><clipPath
       id="clipPath174"
       clipPathUnits="userSpaceOnUse"><path
         id="path172"
         d="M 0,400.803 H 364.292 V 0 H 0 Z" /></clipPath><clipPath
       id="clipPath194"
       clipPathUnits="userSpaceOnUse"><path
         id="path192"
         d="M 0,400.803 H 364.292 V 0 H 0 Z" /></clipPath><clipPath
       id="clipPath214"
       clipPathUnits="userSpaceOnUse"><path
         id="path212"
         d="M 0,400.803 H 364.292 V 0 H 0 Z" /></clipPath><clipPath
       id="clipPath342"
       clipPathUnits="userSpaceOnUse"><path
         id="path340"
         d="M 0,400.803 H 364.292 V 0 H 0 Z" /></clipPath><clipPath
       id="clipPath362"
       clipPathUnits="userSpaceOnUse"><path
         id="path360"
         d="M 0,400.803 H 364.292 V 0 H 0 Z" /></clipPath><clipPath
       id="clipPath390"
       clipPathUnits="userSpaceOnUse"><path
         id="path388"
         d="M 0,400.803 H 364.292 V 0 H 0 Z" /></clipPath></defs><g
     transform="matrix(1.3333333,0,0,-1.3333333,0,534.404)"
     id="g10"><g
       id="g12"><g
         clip-path="url(#clipPath18)"
         id="g14"><g
           transform="translate(263.8804,190.8047)"
           id="g20"><path
             id="path22"
             style="fill:none;stroke:#384d71;stroke-width:0.86799997;stroke-linecap:round;stroke-linejoin:round;stroke-miterlimit:10;stroke-dasharray:none;stroke-opacity:1"
             d="m 0,0 c 0,2.502 -0.626,4.021 -0.626,5.723 0,2.656 1.792,6.619 5.001,6.619 3.207,0 4.999,-3.963 4.999,-6.619 C 9.374,4.021 8.748,2.502 8.748,0 M 2.35,10.188 c 0.747,-1.743 3.301,-1.743 4.049,0 M 2.187,0.157 c -2.311,4.077 -1.499,10.936 2.188,10.936 3.686,0 4.497,-6.859 2.187,-10.936 M 4.375,-1.746 c 0.329,0 0.597,-0.268 0.597,-0.597 0,-0.33 -0.268,-0.596 -0.597,-0.596 -0.33,0 -0.599,0.266 -0.599,0.596 0,0.329 0.269,0.597 0.599,0.597 z M 0.701,0.157 h 7.346 c 0.686,0 1.249,-0.562 1.249,-1.25 v -2.501 c 0,-0.686 -0.563,-1.249 -1.249,-1.249 H 0.701 c -0.686,0 -1.249,0.563 -1.249,1.249 v 2.501 c 0,0.688 0.563,1.25 1.249,1.25 z" /></g><g
           transform="translate(13.5884,181.1934)"
           id="g24"><path
             id="path26"
             style="fill:none;stroke:#384d71;stroke-width:0.86799997;stroke-linecap:round;stroke-linejoin:round;stroke-miterlimit:10;stroke-dasharray:none;stroke-opacity:1"
             d="m 0,0 c 2.501,0 4.021,0.627 5.721,0.627 2.657,0 6.621,-1.793 6.621,-5 0,-3.208 -3.964,-5 -6.621,-5 -1.7,0 -3.22,0.625 -5.721,0.625 m 10.187,6.399 c -1.742,-0.747 -1.742,-3.301 0,-4.049 M 0.156,-2.187 c 4.078,2.312 10.936,1.499 10.936,-2.186 0,-3.687 -6.858,-4.498 -10.936,-2.188 m -1.903,2.188 c 0,-0.33 -0.267,-0.598 -0.596,-0.598 -0.33,0 -0.597,0.268 -0.597,0.598 0,0.329 0.267,0.597 0.597,0.597 0.329,0 0.596,-0.268 0.596,-0.597 z m 1.903,3.672 v -7.345 c 0,-0.686 -0.562,-1.249 -1.249,-1.249 h -2.501 c -0.687,0 -1.249,0.563 -1.249,1.249 v 7.345 c 0,0.686 0.562,1.25 1.249,1.25 h 2.501 c 0.687,0 1.249,-0.564 1.249,-1.25 z" /></g><g
           transform="translate(293.0522,187.5264)"
           id="g28"><path
             id="path30"
             style="fill:none;stroke:#384d71;stroke-width:0.86799997;stroke-linecap:round;stroke-linejoin:round;stroke-miterlimit:10;stroke-dasharray:none;stroke-opacity:1"
             d="m 0,0 h -1.011 m 0.505,0.505 v -1.01 m 0.002,3.583 c 0.205,0 0.371,-0.167 0.371,-0.372 0,-0.206 -0.166,-0.372 -0.371,-0.372 -0.207,0 -0.373,0.166 -0.373,0.372 0,0.205 0.166,0.372 0.373,0.372 z M -4.17,1.352 h 7.329 v 1.532 c 0,1.996 -2.009,2.55 -3.665,2.55 -1.654,0 -3.664,-0.554 -3.664,-2.55 z m 3.664,5.311 c -3.832,0 -4.893,-2.193 -4.893,-3.779 v -4.136 h 9.79 v 4.136 c 0,1.586 -1.062,3.779 -4.897,3.779 z" /></g><g
           transform="translate(39.3335,161.2021)"
           id="g32"><path
             id="path34"
             style="fill:none;stroke:#384d71;stroke-width:0.86799997;stroke-linecap:round;stroke-linejoin:round;stroke-miterlimit:10;stroke-dasharray:none;stroke-opacity:1"
             d="m 0,0 h 14.685 v -7.119 c 0,-4.178 -3.388,-7.567 -7.565,-7.567 H 0 m -14.841,0 H 0 V 0 h -14.841 m -13.748,-51.814 v 11.768 m 4.269,-2.619 c 0,0.662 -0.537,1.199 -1.2,1.199 -0.662,0 -1.2,-0.537 -1.2,-1.199 0,-0.663 0.538,-1.2 1.2,-1.2 0.663,0 1.2,0.537 1.2,1.2 z m 0,-6.529 c 0,0.662 -0.537,1.199 -1.2,1.199 -0.662,0 -1.2,-0.537 -1.2,-1.199 0,-0.663 0.538,-1.201 1.2,-1.201 0.663,0 1.2,0.538 1.2,1.201 z m 5.991,6.529 c 0,0.662 -0.537,1.199 -1.2,1.199 -0.662,0 -1.199,-0.537 -1.199,-1.199 0,-0.663 0.537,-1.2 1.199,-1.2 0.663,0 1.2,0.537 1.2,1.2 z m 0,-6.529 c 0,0.662 -0.537,1.199 -1.2,1.199 -0.662,0 -1.199,-0.537 -1.199,-1.199 0,-0.663 0.537,-1.201 1.199,-1.201 0.663,0 1.2,0.538 1.2,1.201 z m 2.029,9.148 h -14.06 v -11.769 h 14.06 z m -11.977,32.131 v 5.831 m 10.31,-5.831 v 5.831 m -1.473,-5.831 v 5.832 m -1.472,-5.832 v 5.832 m -1.473,-5.832 v 5.832 m -1.473,-5.832 v 5.832 m -1.474,-5.832 v 5.832 m -1.472,-5.832 v 5.832 m 0.194,-14.013 v 1.458 m 1.144,-0.729 h -3.895 m 13.478,-4.165 v 8.331 c 0,0.834 -0.683,1.515 -1.516,1.515 h -10.447 c -0.833,0 -1.515,-0.682 -1.515,-1.515 v -8.331 c 0,-0.834 0.682,-1.516 1.515,-1.516 h 10.447 c 0.834,0 1.516,0.682 1.516,1.516 z m 1.042,-33.74 v -5.937 h -16.977 m 16.977,20.621 h -16.977 m 16.977,15.987 h -16.977 m 0,-30.671 h 16.977 V 0 h -16.977" /></g><g
           transform="translate(217.769,16.6143)"
           id="g36"><path
             id="path38"
             style="fill:none;stroke:#384d71;stroke-width:0.86799997;stroke-linecap:round;stroke-linejoin:round;stroke-miterlimit:10;stroke-dasharray:none;stroke-opacity:1"
             d="m 0,0 c 5.419,0 9.84,4.421 9.84,9.841 0,5.421 -4.421,9.841 -9.84,9.841 -5.422,0 -9.843,-4.42 -9.843,-9.841 C -9.843,4.421 -5.422,0 0,0 Z" /></g></g></g><text
       id="text42"
       style="font-variant:normal;font-weight:bold;font-stretch:normal;font-size:13.49139977px;font-family:Roboto;-inkscape-font-specification:Roboto-Bold;writing-mode:lr-tb;fill:#000000;fill-opacity:1;fill-rule:nonzero;stroke:none"
       transform="matrix(1,0,0,-1,214.1655,21.5898)"><tspan
         id="tspan40"
         y="0"
         x="0">8</tspan></text>
<text
       id="text46"
       style="font-variant:normal;font-weight:normal;font-stretch:normal;font-size:9.23200035px;font-family:Roboto;-inkscape-font-specification:Roboto-Regular;writing-mode:lr-tb;fill:#000000;fill-opacity:1;fill-rule:nonzero;stroke:none"
       transform="matrix(1,0,0,-1,208.938,5.959)"><tspan
         id="tspan44"
         y="0"
         x="0 5.1976161 7.671792 12.869408">3.59</tspan></text>
<g
       id="g48"><g
         clip-path="url(#clipPath54)"
         id="g50"><g
           transform="translate(65.5044,21.9229)"
           id="g56"><path
             id="path58"
             style="fill:none;stroke:#384d71;stroke-width:0.86799997;stroke-linecap:round;stroke-linejoin:round;stroke-miterlimit:10;stroke-dasharray:none;stroke-opacity:1"
             d="m 0,0 c 5.42,0 9.841,4.421 9.841,9.841 0,5.42 -4.421,9.841 -9.841,9.841 -5.42,0 -9.841,-4.421 -9.841,-9.841 C -9.841,4.421 -5.42,0 0,0 Z" /></g></g></g><text
       id="text62"
       style="font-variant:normal;font-weight:bold;font-stretch:normal;font-size:13.49139977px;font-family:Roboto;-inkscape-font-specification:Roboto-Bold;writing-mode:lr-tb;fill:#000000;fill-opacity:1;fill-rule:nonzero;stroke:none"
       transform="matrix(1,0,0,-1,61.9023,26.8984)"><tspan
         id="tspan60"
         y="0"
         x="0">9</tspan></text>
<text
       id="text66"
       style="font-variant:normal;font-weight:normal;font-stretch:normal;font-size:9.23200035px;font-family:Roboto;-inkscape-font-specification:Roboto-Regular;writing-mode:lr-tb;fill:#000000;fill-opacity:1;fill-rule:nonzero;stroke:none"
       transform="matrix(1,0,0,-1,59.2729,11.2676)"><tspan
         id="tspan64"
         y="0"
         x="0 5.1976161 7.671792">3.8</tspan></text>
<g
       id="g68"><g
         clip-path="url(#clipPath74)"
         id="g70"><g
           transform="translate(22.0737,228.145)"
           id="g76"><path
             id="path78"
             style="fill:none;stroke:#384d71;stroke-width:0.86799997;stroke-linecap:round;stroke-linejoin:round;stroke-miterlimit:10;stroke-dasharray:none;stroke-opacity:1"
             d="M 0,0 C 5.42,0 9.841,4.42 9.841,9.84 9.841,15.26 5.42,19.681 0,19.681 -5.419,19.681 -9.84,15.26 -9.84,9.84 -9.84,4.42 -5.419,0 0,0 Z" /></g></g></g><text
       id="text82"
       style="font-variant:normal;font-weight:bold;font-stretch:normal;font-size:13.49139977px;font-family:Roboto;-inkscape-font-specification:Roboto-Bold;writing-mode:lr-tb;fill:#000000;fill-opacity:1;fill-rule:nonzero;stroke:none"
       transform="matrix(1,0,0,-1,18.4717,233.1206)"><tspan
         id="tspan80"
         y="0"
         x="0">6</tspan></text>
<text
       id="text86"
       style="font-variant:normal;font-weight:normal;font-stretch:normal;font-size:9.23200035px;font-family:Roboto;-inkscape-font-specification:Roboto-Regular;writing-mode:lr-tb;fill:#000000;fill-opacity:1;fill-rule:nonzero;stroke:none"
       transform="matrix(1,0,0,-1,13.2446,217.4888)"><tspan
         id="tspan84"
         y="0"
         x="0 5.1976161 7.671792 12.869408">3.09</tspan></text>
<g
       id="g88"><g
         clip-path="url(#clipPath94)"
         id="g90"><g
           transform="translate(56.6597,111.4395)"
           id="g96"><path
             id="path98"
             style="fill:none;stroke:#384d71;stroke-width:0.86799997;stroke-linecap:round;stroke-linejoin:round;stroke-miterlimit:10;stroke-dasharray:none;stroke-opacity:1"
             d="m 0,0 c 5.42,0 9.84,4.42 9.84,9.84 0,5.42 -4.42,9.841 -9.84,9.841 -5.42,0 -9.841,-4.421 -9.841,-9.841 C -9.841,4.42 -5.42,0 0,0 Z" /></g></g></g><text
       id="text102"
       style="font-variant:normal;font-weight:bold;font-stretch:normal;font-size:13.49139977px;font-family:Roboto;-inkscape-font-specification:Roboto-Bold;writing-mode:lr-tb;fill:#000000;fill-opacity:1;fill-rule:nonzero;stroke:none"
       transform="matrix(1,0,0,-1,53.0566,116.4141)"><tspan
         id="tspan100"
         y="0"
         x="0">4</tspan></text>
<text
       id="text106"
       style="font-variant:normal;font-weight:normal;font-stretch:normal;font-size:9.23200035px;font-family:Roboto;-inkscape-font-specification:Roboto-Regular;writing-mode:lr-tb;fill:#000000;fill-opacity:1;fill-rule:nonzero;stroke:none"
       transform="matrix(1,0,0,-1,45.231,100.7832)"><tspan
         id="tspan104"
         y="0"
         x="0 5.1976161 10.395232 12.864792 18.062408">17.00</tspan></text>
<g
       id="g108"><g
         clip-path="url(#clipPath114)"
         id="g110"><g
           transform="translate(156.1431,120.2344)"
           id="g116"><path
             id="path118"
             style="fill:none;stroke:#384d71;stroke-width:0.86799997;stroke-linecap:round;stroke-linejoin:round;stroke-miterlimit:10;stroke-dasharray:none;stroke-opacity:1"
             d="m 0,0 c 5.419,0 9.84,4.421 9.84,9.841 0,5.42 -4.421,9.841 -9.84,9.841 -5.421,0 -9.842,-4.421 -9.842,-9.841 C -9.842,4.421 -5.421,0 0,0 Z" /></g></g></g><text
       id="text122"
       style="font-variant:normal;font-weight:bold;font-stretch:normal;font-size:13.49139977px;font-family:Roboto;-inkscape-font-specification:Roboto-Bold;writing-mode:lr-tb;fill:#000000;fill-opacity:1;fill-rule:nonzero;stroke:none"
       transform="matrix(1,0,0,-1,152.54,125.2109)"><tspan
         id="tspan120"
         y="0"
         x="0">2</tspan></text>
<text
       id="text126"
       style="font-variant:normal;font-weight:normal;font-stretch:normal;font-size:9.23200035px;font-family:Roboto;-inkscape-font-specification:Roboto-Regular;writing-mode:lr-tb;fill:#000000;fill-opacity:1;fill-rule:nonzero;stroke:none"
       transform="matrix(1,0,0,-1,144.7134,109.5781)"><tspan
         id="tspan124"
         y="0"
         x="0 5.1976161 10.395232 12.864792 18.062408">24.42</tspan></text>
<g
       id="g128"><g
         clip-path="url(#clipPath134)"
         id="g130"><g
           transform="translate(291.8315,117.1572)"
           id="g136"><path
             id="path138"
             style="fill:none;stroke:#384d71;stroke-width:0.86799997;stroke-linecap:round;stroke-linejoin:round;stroke-miterlimit:10;stroke-dasharray:none;stroke-opacity:1"
             d="m 0,0 c 5.419,0 9.84,4.421 9.84,9.842 0,5.42 -4.421,9.84 -9.84,9.84 -5.421,0 -9.842,-4.42 -9.842,-9.84 C -9.842,4.421 -5.421,0 0,0 Z" /></g></g></g><text
       id="text142"
       style="font-variant:normal;font-weight:bold;font-stretch:normal;font-size:13.49139977px;font-family:Roboto;-inkscape-font-specification:Roboto-Bold;writing-mode:lr-tb;fill:#000000;fill-opacity:1;fill-rule:nonzero;stroke:none"
       transform="matrix(1,0,0,-1,288.228,122.1338)"><tspan
         id="tspan140"
         y="0"
         x="0">3</tspan></text>
<text
       id="text146"
       style="font-variant:normal;font-weight:normal;font-stretch:normal;font-size:9.23200035px;font-family:Roboto;-inkscape-font-specification:Roboto-Regular;writing-mode:lr-tb;fill:#000000;fill-opacity:1;fill-rule:nonzero;stroke:none"
       transform="matrix(1,0,0,-1,280.4019,106.502)"><tspan
         id="tspan144"
         y="0"
         x="0 5.1976161 10.395232 12.869408 18.067024">21.00</tspan></text>
<g
       id="g148"><g
         clip-path="url(#clipPath154)"
         id="g150"><g
           transform="translate(335.5728,216.6968)"
           id="g156"><path
             id="path158"
             style="fill:none;stroke:#384d71;stroke-width:0.86799997;stroke-linecap:round;stroke-linejoin:round;stroke-miterlimit:10;stroke-dasharray:none;stroke-opacity:1"
             d="m 0,0 c 5.42,0 9.841,4.42 9.841,9.841 0,5.42 -4.421,9.841 -9.841,9.841 -5.419,0 -9.84,-4.421 -9.84,-9.841 C -9.84,4.42 -5.419,0 0,0 Z" /></g></g></g><text
       id="text162"
       style="font-variant:normal;font-weight:bold;font-stretch:normal;font-size:13.49139977px;font-family:Roboto;-inkscape-font-specification:Roboto-Bold;writing-mode:lr-tb;fill:#000000;fill-opacity:1;fill-rule:nonzero;stroke:none"
       transform="matrix(1,0,0,-1,331.9702,221.6724)"><tspan
         id="tspan160"
         y="0"
         x="0">8</tspan></text>
<text
       id="text166"
       style="font-variant:normal;font-weight:normal;font-stretch:normal;font-size:9.23200035px;font-family:Roboto;-inkscape-font-specification:Roboto-Regular;writing-mode:lr-tb;fill:#000000;fill-opacity:1;fill-rule:nonzero;stroke:none"
       transform="matrix(1,0,0,-1,326.7437,206.0405)"><tspan
         id="tspan164"
         y="0"
         x="0 5.1976161 7.671792 12.869408">2.80</tspan></text>
<g
       id="g168"><g
         clip-path="url(#clipPath174)"
         id="g170"><g
           transform="translate(267.1606,216.3994)"
           id="g176"><path
             id="path178"
             style="fill:none;stroke:#384d71;stroke-width:0.86799997;stroke-linecap:round;stroke-linejoin:round;stroke-miterlimit:10;stroke-dasharray:none;stroke-opacity:1"
             d="m 0,0 c 5.421,0 9.842,4.421 9.842,9.841 0,5.42 -4.421,9.841 -9.842,9.841 -5.42,0 -9.841,-4.421 -9.841,-9.841 C -9.841,4.421 -5.42,0 0,0 Z" /></g></g></g><text
       id="text182"
       style="font-variant:normal;font-weight:bold;font-stretch:normal;font-size:13.49139977px;font-family:Roboto;-inkscape-font-specification:Roboto-Bold;writing-mode:lr-tb;fill:#000000;fill-opacity:1;fill-rule:nonzero;stroke:none"
       transform="matrix(1,0,0,-1,263.5591,221.3755)"><tspan
         id="tspan180"
         y="0"
         x="0">5</tspan></text>
<text
       id="text186"
       style="font-variant:normal;font-weight:normal;font-stretch:normal;font-size:9.23200035px;font-family:Roboto;-inkscape-font-specification:Roboto-Regular;writing-mode:lr-tb;fill:#000000;fill-opacity:1;fill-rule:nonzero;stroke:none"
       transform="matrix(1,0,0,-1,258.3315,205.7441)"><tspan
         id="tspan184"
         y="0"
         x="0 5.1976161 7.671792 12.869408">6.63</tspan></text>
<g
       id="g188"><g
         clip-path="url(#clipPath194)"
         id="g190"><g
           transform="translate(162.1641,309.9395)"
           id="g196"><path
             id="path198"
             style="fill:none;stroke:#384d71;stroke-width:0.86799997;stroke-linecap:round;stroke-linejoin:round;stroke-miterlimit:10;stroke-dasharray:none;stroke-opacity:1"
             d="m 0,0 c 5.42,0 9.841,4.42 9.841,9.84 0,5.421 -4.421,9.841 -9.841,9.841 -5.42,0 -9.841,-4.42 -9.841,-9.841 C -9.841,4.42 -5.42,0 0,0 Z" /></g></g></g><text
       id="text202"
       style="font-variant:normal;font-weight:bold;font-stretch:normal;font-size:13.49139977px;font-family:Roboto;-inkscape-font-specification:Roboto-Bold;writing-mode:lr-tb;fill:#000000;fill-opacity:1;fill-rule:nonzero;stroke:none"
       transform="matrix(1,0,0,-1,158.562,314.915)"><tspan
         id="tspan200"
         y="0"
         x="0">3</tspan></text>
<text
       id="text206"
       style="font-variant:normal;font-weight:normal;font-stretch:normal;font-size:9.23200035px;font-family:Roboto;-inkscape-font-specification:Roboto-Regular;writing-mode:lr-tb;fill:#000000;fill-opacity:1;fill-rule:nonzero;stroke:none"
       transform="matrix(1,0,0,-1,150.7354,299.2832)"><tspan
         id="tspan204"
         y="0"
         x="0 5.1976161 12.869408 18.067024 10.395232">2088.</tspan></text>
<g
       id="g208"><g
         clip-path="url(#clipPath214)"
         id="g210"><path
           id="path216"
           style="fill:#384d71;fill-opacity:1;fill-rule:evenodd;stroke:none"
           d="m 77.27,47.879 h -1.171 v -7.081 h 1.171 z m 0,116.23 v -2.907 H 7.516 V 47.879 H 35.479 V 40.798 H 7.516 V 5.072 H 0.434 v 35.726 7.081 152.838 h 0.988 6.094 58.689 v 7.136 h 7.081 v -7.136 -7.08 -6.249 h -2.909 v 6.249 H 66.205 7.516 v -29.528 h 62.861 v 6.094 h 2.909 v -6.094 z M 66.205,232.38 h 7.081 v 14.842 h 3.984 v 7.08 h -3.984 -7.081 v -7.08 z M 77.27,161.202 h 1.172 v 2.907 H 77.27 Z m 0,-120.404 v 7.081 h 26.861 0.556 v 113.323 h -4.062 v 2.907 h 4.062 v 25.995 2.908 h 24.684 v -2.908 H 107.596 V 47.879 h 3.547 17.29 l 11.248,-11.248 -5.006,-5.007 -9.175,9.174 h -14.357 -7.012 z m 162.942,36.607 v -7.08 H 216.438 V 47.879 40.798 h -7.081 -25.656 l -9.174,-9.174 -5.007,5.007 11.248,11.248 h 28.589 v 10.184 12.262 7.08 112.699 h -47.96 v 2.908 h 52.647 v -2.908 h -1.778 V 77.405 h 4.172 z m 0,172.724 h -3.359 v -2.908 h 3.359 z m 0,114.781 v -7.081 h -23.774 -4.172 v -107.7 h 2.404 v -2.907 h -21.091 v 2.907 h 15.778 v 107.7 7.081 12.367 10.078 h -26.558 v 7.081 h 33.639 v -0.618 -6.463 -22.445 z M 77.27,247.222 h 31.429 3.048 4.032 55.616 v 2.907 h -55.616 v 137.226 h 30.152 v 7.081 h -30.152 -3.487 -3.593 V 254.302 H 77.27 Z M 262.162,70.325 h 62.021 v 7.08 h -62.021 z m 0,287.504 h 62.021 v 7.081 h -62.021 z m -21.95,7.081 h 3.358 v -7.081 h -3.358 z m 0,-287.505 h 3.358 v -7.08 h -3.358 z m 104.01,111.439 H 314.86 v 60.671 h 4.48 v 7.08 h -4.48 -1.995 v 10e-4 h -69.198 -2.909 v -2.909 -3.558 h -0.546 v -2.907 h 0.546 v -21.403 h 2.909 v 27.868 h 64.113 v -4.172 -60.671 -4.172 h -64.113 v 25.156 h -2.909 v -25.156 -2.908 h 2.909 64.113 v -0.001 h 7.08 29.362 z m 0,60.671 h -6.447 v 7.08 h 6.447 z m 0,0 v 7.08 h 5.682 c 0.279,-2.357 0.534,-4.717 0.764,-7.08 z m 0,-67.752 v 7.081 h 6.721 c -0.207,-2.364 -0.439,-4.724 -0.698,-7.081 z" /><path
           id="path218"
           style="fill:none;stroke:#384d71;stroke-width:0.86799997;stroke-linecap:round;stroke-linejoin:round;stroke-miterlimit:10;stroke-dasharray:none;stroke-opacity:1"
           d="m 262.162,70.325 h 62.021 v 7.08 h -62.021 z m 0,287.504 h 62.021 v 7.081 h -62.021 z m 75.613,-108.314 h 12.893 c -0.23,2.363 -0.485,4.723 -0.764,7.08 h -12.129 z m -100.922,-2.293 h 3.905 v -21.403 h 2.909 v 27.868 h 64.113 v -4.172 -60.671 -4.172 h -64.113 v 25.156 h -2.909 v -25.156 -2.908 h 2.909 64.113 v -0.001 h 7.08 35.385 c 0.259,2.357 0.491,4.717 0.698,7.081 H 314.86 v 60.671 h 4.48 v 7.08 h -4.48 -1.995 v 10e-4 h -69.198 -2.909 v -2.909 -3.558 h -3.905 z m -136.228,-86.02 h 4.062 V 47.879 h -0.556 -28.033 v -7.081 h 28.033 7.012 14.357 l 9.175,-9.174 5.006,5.007 -11.248,11.248 h -17.29 -3.547 v 142.225 h 21.775 v 2.908 h -24.684 v -2.908 -25.995 h -4.062 z m -27.339,2.907 v 6.094 h -2.909 v -6.094 H 7.516 v 29.528 h 58.689 4.172 v -6.249 h 2.909 v 6.249 7.08 7.136 h -7.081 v -7.136 H 7.516 1.422 0.434 V 47.879 40.798 5.072 h 7.082 v 35.726 h 27.963 v 7.081 H 7.516 v 113.323 h 70.925 v 2.907 z m 138.98,86.02 v 107.7 h 4.172 27.133 v 7.081 h -27.133 v 22.445 6.463 0.618 h -33.639 v -7.081 h 26.558 v -10.078 -12.367 -7.081 -107.7 h -15.778 v -2.907 h 21.091 v 2.907 z m 4.172,-202.25 v -7.081 h -7.081 -25.656 l -9.174,-9.174 -5.007,5.007 11.248,11.248 h 28.589 v 10.184 12.262 7.08 112.699 h -47.96 v 2.908 h 52.647 v -2.908 h -1.778 V 77.405 h 4.172 27.133 v -7.08 H 216.438 Z M 66.205,232.38 h 7.081 v 14.842 h 35.413 3.048 4.032 55.616 v 2.907 h -55.616 v 137.226 h 30.152 v 7.081 h -30.152 -3.487 -3.593 V 254.302 H 73.286 66.205 v -7.08 z" /><g
           transform="translate(173.0522,33.0996)"
           id="g220"><path
             id="path222"
             style="fill:#ffffff;fill-opacity:1;fill-rule:evenodd;stroke:none"
             d="m 0,0 -4.841,-4.842 h -27.222 l -4.84,4.842 2.057,2.056 3.988,-3.989 h 24.813 l 3.988,3.989 z" /></g><g
           transform="translate(173.0522,33.0996)"
           id="g224"><path
             id="path226"
             style="fill:none;stroke:#384c71;stroke-width:0.86799997;stroke-linecap:round;stroke-linejoin:round;stroke-miterlimit:10;stroke-dasharray:none;stroke-opacity:1"
             d="m 0,0 -4.841,-4.842 h -27.222 l -4.84,4.842 2.057,2.056 3.988,-3.989 h 24.813 l 3.988,3.989 z" /></g><g
           transform="translate(287.4702,234.3306)"
           id="g228"><path
             id="path230"
             style="fill:none;stroke:#384d71;stroke-width:0.86799997;stroke-linecap:round;stroke-linejoin:round;stroke-miterlimit:10;stroke-dasharray:none;stroke-opacity:1"
             d="m 0,0 c 0.611,0 1.108,-0.497 1.108,-1.109 0,-0.613 -0.497,-1.109 -1.108,-1.109 -0.612,0 -1.109,0.496 -1.109,1.109 C -1.109,-0.497 -0.612,0 0,0 Z M 13.258,-1.028 C 6.97,1.147 2.03,6.103 -0.112,12.4 c -0.661,1.927 -2.477,3.225 -4.518,3.225 -2.636,0 -4.771,-2.137 -4.771,-4.772 0,-0.613 0.115,-1.217 0.343,-1.785 l 0.021,-0.049 0.016,-0.05 C -5.952,0.297 0.816,-6.553 9.43,-9.771 l 0.094,-0.035 0.09,-0.042 c 0.636,-0.298 1.323,-0.449 2.025,-0.449 2.43,0 4.773,2.355 4.773,4.773 0,2.241 -1.071,3.748 -3.154,4.496 z m 0.814,2.32 C 8.497,3.217 4.117,7.611 2.215,13.196 c -0.975,2.845 -3.67,4.889 -6.845,4.889 -3.993,0 -7.233,-3.239 -7.233,-7.232 0,-0.957 0.186,-1.87 0.524,-2.705 3.306,-9.344 10.6,-16.746 19.909,-20.224 0.931,-0.437 1.972,-0.682 3.069,-0.682 3.994,0 7.233,3.666 7.233,7.234 0,2.201 -1.117,3.891 -1.594,5.977 C 16.434,4.14 17.114,7.522 17.987,9.517 21.858,18.369 9.36,20.183 6.145,13.531 4.892,10.938 5.571,7.818 6.873,5.921 M 20.31,19.356 h -35.051 c 0,-19.355 15.695,-35.051 35.051,-35.051 z" /></g><g
           transform="translate(46.3711,175.1689)"
           id="g232"><path
             id="path234"
             style="fill:none;stroke:#384d71;stroke-width:0.86799997;stroke-linecap:round;stroke-linejoin:round;stroke-miterlimit:10;stroke-dasharray:none;stroke-opacity:1"
             d="M 0,0 C 0.697,0 1.26,-0.562 1.26,-1.261 1.26,-1.956 0.697,-2.52 0,-2.52 c -0.697,0 -1.26,0.564 -1.26,1.259 C -1.26,-0.562 -0.697,0 0,0 Z m 0.122,-8.218 v -1.011 m 0.505,0.505 h -1.01 m 6.74,2.412 v 1.204 c 0,3.443 -2.792,6.234 -6.235,6.234 -3.443,0 -6.235,-2.791 -6.235,-6.234 v -1.204 c 0,-0.679 0.553,-1.231 1.23,-1.231 h 10.01 c 0.677,0 1.23,0.552 1.23,1.231 z m 1.229,-3.516 v 4.72 c 0,4.123 -3.342,7.465 -7.464,7.465 -4.122,0 -7.465,-3.342 -7.465,-7.465 v -4.72 z" /></g><g
           transform="translate(324.1831,77.4053)"
           id="g236"><path
             id="path238"
             style="fill:#ffffff;fill-opacity:1;fill-rule:evenodd;stroke:none"
             d="m 0,0 h -3.139 l 0.501,1.224 c 20.183,43.508 30.662,91.104 30.662,139.066 0,47.96 -10.475,95.401 -30.658,138.906 L -3.2,280.424 0.006,280.42 C 20.366,236.528 30.934,188.693 30.934,140.29 30.934,91.887 20.36,43.892 0,0" /></g><g
           transform="translate(324.1831,77.4053)"
           id="g240"><path
             id="path242"
             style="fill:none;stroke:#384c71;stroke-width:0.86799997;stroke-linecap:round;stroke-linejoin:round;stroke-miterlimit:22.9260006;stroke-dasharray:none;stroke-opacity:1"
             d="m 0,0 h -3.139 l 0.501,1.224 c 20.183,43.508 30.662,91.104 30.662,139.066 0,47.96 -10.475,95.401 -30.658,138.906 L -3.2,280.424 0.006,280.42 C 20.366,236.528 30.934,188.693 30.934,140.29 30.934,91.887 20.36,43.892 0,0 Z" /></g><path
           id="path244"
           style="fill:#ffffff;fill-opacity:1;fill-rule:nonzero;stroke:#384c71;stroke-width:0.86799997;stroke-linecap:round;stroke-linejoin:round;stroke-miterlimit:22.9260006;stroke-dasharray:none;stroke-opacity:1"
           d="M 35.479,45.793 H 57.663 V 42.885 H 35.479 Z" /><path
           id="path246"
           style="fill:#ffffff;fill-opacity:1;fill-rule:nonzero;stroke:#384c71;stroke-width:0.86799997;stroke-linecap:round;stroke-linejoin:round;stroke-miterlimit:22.9260006;stroke-dasharray:none;stroke-opacity:1"
           d="M 145.931,392.349 H 182.8 v -2.908 h -36.869 z" /><g
           transform="translate(76.0981,47.8789)"
           id="g248"><path
             id="path250"
             style="fill:none;stroke:#384c71;stroke-width:1.73699999;stroke-linecap:round;stroke-linejoin:round;stroke-miterlimit:22.9260006;stroke-dasharray:none;stroke-opacity:1"
             d="M 0,0 -15.936,9.217" /></g><g
           transform="translate(100.625,161.2021)"
           id="g252"><path
             id="path254"
             style="fill:none;stroke:#384c71;stroke-width:1.73699999;stroke-linecap:round;stroke-linejoin:round;stroke-miterlimit:22.9260006;stroke-dasharray:none;stroke-opacity:1"
             d="M 0,0 -19.215,-10.215" /></g><g
           transform="translate(70.3174,187.3877)"
           id="g256"><path
             id="path258"
             style="fill:none;stroke:#384c71;stroke-width:1.73699999;stroke-linecap:round;stroke-linejoin:round;stroke-miterlimit:22.9260006;stroke-dasharray:none;stroke-opacity:1"
             d="M 0,0 -8.593,-14.842" /></g><g
           transform="translate(68.2866,207.853)"
           id="g260"><path
             id="path262"
             style="fill:none;stroke:#384c71;stroke-width:1.73699999;stroke-linecap:round;stroke-linejoin:round;stroke-miterlimit:22.9260006;stroke-dasharray:none;stroke-opacity:1"
             d="M 0,0 -12.186,21.246" /></g><g
           transform="translate(129.3706,190.1045)"
           id="g264"><path
             id="path266"
             style="fill:none;stroke:#384c71;stroke-width:1.73699999;stroke-linecap:round;stroke-linejoin:round;stroke-miterlimit:22.9260006;stroke-dasharray:none;stroke-opacity:1"
             d="M 0,0 18.122,-9.435" /></g><g
           transform="translate(161.397,190.1045)"
           id="g268"><path
             id="path270"
             style="fill:none;stroke:#384c71;stroke-width:1.73699999;stroke-linecap:round;stroke-linejoin:round;stroke-miterlimit:22.9260006;stroke-dasharray:none;stroke-opacity:1"
             d="M 0,0 -9.686,-5.998" /></g><g
           transform="translate(233.105,179.0117)"
           id="g272"><path
             id="path274"
             style="fill:none;stroke:#384c71;stroke-width:1.73699999;stroke-linecap:round;stroke-linejoin:round;stroke-miterlimit:22.9260006;stroke-dasharray:none;stroke-opacity:1"
             d="M 0,0 -19.061,11.093 0,0" /></g><g
           transform="translate(193.5786,250.1294)"
           id="g276"><path
             id="path278"
             style="fill:none;stroke:#384c71;stroke-width:1.73699999;stroke-linecap:round;stroke-linejoin:round;stroke-miterlimit:22.9260006;stroke-dasharray:none;stroke-opacity:1"
             d="M 0,0 -19.215,11.513" /></g><g
           transform="translate(214.6704,250.1294)"
           id="g280"><path
             id="path282"
             style="fill:none;stroke:#384c71;stroke-width:1.73699999;stroke-linecap:round;stroke-linejoin:round;stroke-miterlimit:22.9260006;stroke-dasharray:none;stroke-opacity:1"
             d="M 0,0 19.214,11.092" /></g><g
           transform="translate(243.7261,225.8193)"
           id="g284"><path
             id="path286"
             style="fill:none;stroke:#384c71;stroke-width:1.73699999;stroke-linecap:round;stroke-linejoin:round;stroke-miterlimit:22.9260006;stroke-dasharray:none;stroke-opacity:1"
             d="M 0,0 8.593,-14.998" /></g><g
           transform="translate(319.3403,256.5957)"
           id="g288"><path
             id="path290"
             style="fill:none;stroke:#384c71;stroke-width:1.73699999;stroke-linecap:round;stroke-linejoin:round;stroke-miterlimit:22.9260006;stroke-dasharray:none;stroke-opacity:1"
             d="M 0,0 15.935,9.217" /></g><g
           transform="translate(243.5708,357.8291)"
           id="g292"><path
             id="path294"
             style="fill:none;stroke:#384c71;stroke-width:1.73699999;stroke-linecap:round;stroke-linejoin:round;stroke-miterlimit:22.9260006;stroke-dasharray:none;stroke-opacity:1"
             d="M 0,0 16.092,-9.218" /></g><g
           transform="translate(243.5708,77.4053)"
           id="g296"><path
             id="path298"
             style="fill:none;stroke:#384c71;stroke-width:1.73699999;stroke-linecap:round;stroke-linejoin:round;stroke-miterlimit:22.9260006;stroke-dasharray:none;stroke-opacity:1"
             d="M 0,0 16.092,9.217" /></g><g
           transform="translate(7.5156,5.0723)"
           id="g300"><path
             id="path302"
             style="fill:#ffffff;fill-opacity:1;fill-rule:evenodd;stroke:none"
             d="m 0,0 v 2.908 h 68.784 c 5.004,5.004 10.008,10.009 15.012,15.014 v 17.804 h 2.909 V 16.717 C 81.131,11.146 75.561,5.572 69.988,0 Z" /></g><g
           transform="translate(7.5156,5.0723)"
           id="g304"><path
             id="path306"
             style="fill:none;stroke:#384c71;stroke-width:0.86799997;stroke-linecap:round;stroke-linejoin:round;stroke-miterlimit:22.9260006;stroke-dasharray:none;stroke-opacity:1"
             d="m 0,0 v 2.908 h 68.784 c 5.004,5.004 10.008,10.009 15.012,15.014 v 17.804 h 2.909 V 16.717 C 81.131,11.146 75.561,5.572 69.988,0 Z" /></g><g
           transform="translate(216.438,40.7979)"
           id="g308"><path
             id="path310"
             style="fill:#ffffff;fill-opacity:1;fill-rule:evenodd;stroke:none"
             d="m 0,0 v 2.908 h 89.79 l 14.637,26.619 h 3.318 L 91.511,0 Z" /></g><g
           transform="translate(216.438,40.7979)"
           id="g312"><path
             id="path314"
             style="fill:none;stroke:#384c71;stroke-width:0.86799997;stroke-linecap:round;stroke-linejoin:round;stroke-miterlimit:22.9260006;stroke-dasharray:none;stroke-opacity:1"
             d="m 0,0 v 2.908 h 89.79 l 14.637,26.619 h 3.318 L 91.511,0 Z" /></g><g
           transform="translate(216.438,394.436)"
           id="g316"><path
             id="path318"
             style="fill:#ffffff;fill-opacity:1;fill-rule:evenodd;stroke:none"
             d="m 0,0 v -2.908 h 89.79 l 14.637,-26.618 h 3.318 L 91.511,0 Z" /></g><g
           transform="translate(216.438,394.436)"
           id="g320"><path
             id="path322"
             style="fill:none;stroke:#384c71;stroke-width:0.86799997;stroke-linecap:round;stroke-linejoin:round;stroke-miterlimit:22.9260006;stroke-dasharray:none;stroke-opacity:1"
             d="m 0,0 v -2.908 h 89.79 l 14.637,-26.618 h 3.318 L 91.511,0 Z" /></g><g
           transform="translate(286.0513,309.9395)"
           id="g324"><path
             id="path326"
             style="fill:none;stroke:#384d71;stroke-width:0.86799997;stroke-linecap:round;stroke-linejoin:round;stroke-miterlimit:10;stroke-dasharray:none;stroke-opacity:1"
             d="m 0,0 c 5.419,0 9.84,4.42 9.84,9.84 0,5.421 -4.421,9.841 -9.84,9.841 -5.421,0 -9.843,-4.42 -9.843,-9.841 C -9.843,4.42 -5.421,0 0,0 Z" /></g></g></g><text
       id="text330"
       style="font-variant:normal;font-weight:bold;font-stretch:normal;font-size:13.49139977px;font-family:Roboto;-inkscape-font-specification:Roboto-Bold;writing-mode:lr-tb;fill:#000000;fill-opacity:1;fill-rule:nonzero;stroke:none"
       transform="matrix(1,0,0,-1,282.4487,314.915)"><tspan
         id="tspan328"
         y="0"
         x="0">3</tspan></text>
<text
       id="text334"
       style="font-variant:normal;font-weight:normal;font-stretch:normal;font-size:9.23200035px;font-family:Roboto;-inkscape-font-specification:Roboto-Regular;writing-mode:lr-tb;fill:#000000;fill-opacity:1;fill-rule:nonzero;stroke:none"
       transform="matrix(1,0,0,-1,274.6216,299.2832)"><tspan
         id="tspan332"
         y="0"
         x="0 5.1976161 10.395232 12.864792 18.062408">19.90</tspan></text>
<g
       id="g336"><g
         clip-path="url(#clipPath342)"
         id="g338"><g
           transform="translate(146.4502,214.1211)"
           id="g344"><path
             id="path346"
             style="fill:none;stroke:#384d71;stroke-width:0.86799997;stroke-linecap:round;stroke-linejoin:round;stroke-miterlimit:10;stroke-dasharray:none;stroke-opacity:1"
             d="m 0,0 c 5.42,0 9.841,4.421 9.841,9.841 0,5.42 -4.421,9.841 -9.841,9.841 -5.419,0 -9.84,-4.421 -9.84,-9.841 C -9.84,4.421 -5.419,0 0,0 Z" /></g></g></g><text
       id="text350"
       style="font-variant:normal;font-weight:bold;font-stretch:normal;font-size:13.49139977px;font-family:Roboto;-inkscape-font-specification:Roboto-Bold;writing-mode:lr-tb;fill:#000000;fill-opacity:1;fill-rule:nonzero;stroke:none"
       transform="matrix(1,0,0,-1,142.8481,219.0967)"><tspan
         id="tspan348"
         y="0"
         x="0">1</tspan></text>
<text
       id="text354"
       style="font-variant:normal;font-weight:normal;font-stretch:normal;font-size:9.23200035px;font-family:Roboto;-inkscape-font-specification:Roboto-Regular;writing-mode:lr-tb;fill:#000000;fill-opacity:1;fill-rule:nonzero;stroke:none"
       transform="matrix(1,0,0,-1,135.0225,203.4658)"><tspan
         id="tspan352"
         y="0"
         x="0 5.1976161 10.395232 12.864792 18.062408">16.29</tspan></text>
<g
       id="g356"><g
         clip-path="url(#clipPath362)"
         id="g358"><g
           transform="translate(11.9419,212.8735)"
           id="g364"><path
             id="path366"
             style="fill:none;stroke:#000000;stroke-width:0.73799998;stroke-linecap:round;stroke-linejoin:round;stroke-miterlimit:22.9260006;stroke-dasharray:none;stroke-opacity:1"
             d="M 0,0 H 29.178 L 21.221,-33.305" /></g><g
           transform="translate(206.7622,0.3691)"
           id="g368"><path
             id="path370"
             style="fill:none;stroke:#000000;stroke-width:0.73799998;stroke-linecap:round;stroke-linejoin:round;stroke-miterlimit:22.9260006;stroke-dasharray:none;stroke-opacity:1"
             d="m 0,0 h 24.169 l 32.42,55.705" /></g><g
           transform="translate(351.7603,380.687)"
           id="g372"><path
             id="path374"
             style="fill:none;stroke:#384d71;stroke-width:0.86799997;stroke-linecap:round;stroke-linejoin:round;stroke-miterlimit:10;stroke-dasharray:none;stroke-opacity:1"
             d="m 0,0 c 5.419,0 9.84,4.42 9.84,9.841 0,5.42 -4.421,9.841 -9.84,9.841 -5.42,0 -9.841,-4.421 -9.841,-9.841 C -9.841,4.42 -5.42,0 0,0 Z" /></g></g></g><text
       id="text378"
       style="font-variant:normal;font-weight:bold;font-stretch:normal;font-size:13.49139977px;font-family:Roboto;-inkscape-font-specification:Roboto-Bold;writing-mode:lr-tb;fill:#000000;fill-opacity:1;fill-rule:nonzero;stroke:none"
       transform="matrix(1,0,0,-1,348.1577,385.6636)"><tspan
         id="tspan376"
         y="0"
         x="0">8</tspan></text>
<text
       id="text382"
       style="font-variant:normal;font-weight:normal;font-stretch:normal;font-size:9.23200035px;font-family:Roboto;-inkscape-font-specification:Roboto-Regular;writing-mode:lr-tb;fill:#000000;fill-opacity:1;fill-rule:nonzero;stroke:none"
       transform="matrix(1,0,0,-1,342.9312,370.0317)"><tspan
         id="tspan380"
         y="0"
         x="0 5.1976161 7.671792 12.869408">3.59</tspan></text>
<g
       id="g384"><g
         clip-path="url(#clipPath390)"
         id="g386"><g
           transform="translate(266.4331,379.4971)"
           id="g392"><path
             id="path394"
             style="fill:none;stroke:#000000;stroke-width:0.73799998;stroke-linecap:round;stroke-linejoin:round;stroke-miterlimit:22.9260006;stroke-dasharray:none;stroke-opacity:1"
             d="M 0,0 67.87,-14.46 H 97.489" /></g></g></g></g></svg>