<?xml version="1.0" encoding="utf-8"?>
<!-- Generator: Adobe Illustrator 21.1.0, SVG Export Plug-In . SVG Version: 6.00 Build 0)  -->
<svg version="1.1" id="_x31_" xmlns="http://www.w3.org/2000/svg" xmlns:xlink="http://www.w3.org/1999/xlink" x="0px" y="0px"
	 viewBox="0 0 140 140" style="enable-background:new 0 0 140 140;" xml:space="preserve">
<style type="text/css">
	.st0{fill-rule:evenodd;clip-rule:evenodd;}
	.st1{fill-rule:evenodd;clip-rule:evenodd;fill:#DA251D;}
	.st2{fill-rule:evenodd;clip-rule:evenodd;fill:#28166F;}
	.st3{fill-rule:evenodd;clip-rule:evenodd;fill:#28374D;}
</style>
<g>
	<g>
		<path class="st0" d="M13.9,73l-0.3,0.3c-0.3,0-0.5,0-0.8,0c-0.3,0-0.5,0-0.8,0c0-0.4,0-1,0-1.8c0-0.8,0-1.4,0-1.8
			c0-0.3,0-0.6,0-1.1c0-0.5,0-0.9,0-1.1H9.6c0,0.3,0,0.7,0,1.3c0,0.6,0,1,0,1.3c0,0.4,0,0.9,0,1.6c0,0.7,0,1.3,0,1.6
			c-0.4,0-0.6,0-0.8,0c-0.2,0-0.5,0-0.8,0L7.7,73c0.1-1.1,0.1-2.1,0.1-3.1c0-0.9,0-1.9-0.1-3L8,66.7c0.3,0,0.8,0,1.4,0s1.1,0,1.4,0
			c0,0,0.3,0,0.8,0c0.4,0,1,0,1.9,0h0l0.3,0.3c0,0.8-0.1,1.8-0.1,3C13.9,71.2,13.9,72.2,13.9,73L13.9,73z M21.8,70
			c0,1-0.4,1.8-1.1,2.5c-0.7,0.6-1.6,0.9-2.6,0.9c-0.7,0-1.3-0.2-1.8-0.5c-0.5-0.3-0.9-0.8-1.2-1.5c-0.2-0.5-0.3-1-0.3-1.5
			c0-1,0.4-1.9,1.1-2.5c0.7-0.6,1.5-0.9,2.6-0.9c1,0,1.8,0.3,2.4,1C21.5,68.2,21.8,69,21.8,70L21.8,70z M19.8,70.4
			c0-0.8-0.1-1.4-0.4-2c-0.3-0.6-0.8-1-1.5-1.3c-0.7,0.5-1,1.2-1,2.3c0,0.8,0.1,1.4,0.4,1.9c0.3,0.6,0.8,1.1,1.5,1.3
			C19.4,72.2,19.8,71.5,19.8,70.4L19.8,70.4z M27.7,72l-1.1,1.3c-0.2,0-0.4,0-0.7,0c-1,0-1.9-0.3-2.5-0.9c-0.7-0.6-1-1.4-1-2.4
			c0-1,0.3-1.9,1-2.5c0.7-0.6,1.5-0.9,2.6-0.9c0.3,0,0.7,0,1,0.1l0.5,0.8c-0.5-0.1-0.8-0.1-1-0.1c-0.7,0-1.2,0.2-1.6,0.6
			c-0.4,0.4-0.6,0.9-0.6,1.6c0,0.8,0.3,1.4,0.8,1.8c0.5,0.4,1.1,0.6,1.9,0.6C27.1,72,27.3,72,27.7,72L27.7,72z M34.7,72.3
			c-0.4,0.3-0.9,0.7-1.5,1.2c-0.7-1.1-1.5-2.4-2.6-4l-0.3,0.2c0,1.2,0.1,2.4,0.2,3.6c-0.3,0-0.6,0-0.9,0c-0.3,0-0.6,0-0.9,0L28.4,73
			c0.1-1.1,0.1-2.1,0.1-3.1c0-0.9,0-1.9-0.1-3l0.3-0.3c0.3,0,0.5,0,0.8,0c0.3,0,0.6,0,0.9,0c-0.1,0.8-0.2,1.6-0.2,2.4
			c1.1-0.8,2.2-1.7,3.2-2.6l0.7,0.5l-2.1,1.5C32.9,69.8,33.8,71.1,34.7,72.3L34.7,72.3z M41.6,70c0-1-0.3-1.8-0.9-2.5
			c-0.6-0.6-1.4-1-2.4-1c-1,0-1.9,0.3-2.6,0.9C35,68.1,34.6,69,34.6,70c0,0.5,0.1,1,0.3,1.5c0.3,0.6,0.7,1.1,1.2,1.5
			c0.5,0.3,1.1,0.5,1.8,0.5c1,0,1.9-0.3,2.6-0.9C41.3,71.8,41.6,71,41.6,70L41.6,70z M39.6,70.4c0,1-0.3,1.8-1,2.3
			c-0.6-0.3-1.1-0.7-1.5-1.3c-0.3-0.5-0.4-1.2-0.4-1.9c0-1,0.3-1.8,1-2.3c0.7,0.2,1.2,0.7,1.5,1.3C39.4,69,39.6,69.7,39.6,70.4z"/>
		<g>
			<path class="st1" d="M31.9,86.9H34v1.7h-2.1V86.9L31.9,86.9z M21.1,47.8h9.2v8h-9.2V47.8L21.1,47.8z M30.6,49.3V56h-1.8v0.4h8.2
				v-7.1H30.6L30.6,49.3z M37.5,52.8h5.4v6.3h-7.3v-2.4h1.8V52.8L37.5,52.8z M43.3,58.1v1.4h-2.5v4.3h6.5v-5.7H43.3L43.3,58.1z
				 M43.8,64.8h5.6v4.6h-5.6V64.8L43.8,64.8z M44.2,71.6h4.7v3.9h-4.7V71.6L44.2,71.6z M42.2,78H46v3.1h-3.8V78L42.2,78z M37.9,83.3
				h2.9v2.4h-2.9V83.3z"/>
			<path class="st2" d="M17.4,53.1h-2.1v-1.7h2.1V53.1L17.4,53.1z M28.2,92.2H19v-8h9.2V92.2L28.2,92.2z M18.7,90.7V84h1.8v-0.4
				h-8.2v7.1H18.7L18.7,90.7z M11.8,87.2H6.4v-6.3h7.3v2.4h-1.8V87.2L11.8,87.2z M6,81.9v-1.4h2.5v-4.3H2v5.7H6L6,81.9z M5.6,75.2H0
				v-4.6h5.6V75.2L5.6,75.2z M5.1,68.4H0.4v-3.9h4.7V68.4L5.1,68.4z M7.1,62H3.4v-3.1h3.8V62L7.1,62z M11.5,56.7H8.6v-2.4h2.9V56.7z
				"/>
		</g>
	</g>
	<path class="st3" d="M66.2,53.3h-6.6V62h2v-6.8h2.6V62h2V53.3L66.2,53.3z M70.6,62.2c1.8,0,3.3-1.4,3.3-3.3c0-1.9-1.5-3.3-3.3-3.3
		c-1.8,0-3.3,1.4-3.3,3.3C67.3,60.7,68.8,62.2,70.6,62.2L70.6,62.2z M70.6,60.3c-0.8,0-1.4-0.6-1.4-1.5s0.6-1.5,1.4-1.5
		c0.8,0,1.4,0.6,1.4,1.5S71.4,60.3,70.6,60.3L70.6,60.3z M79.6,58.8c0.4-0.3,0.6-0.7,0.6-1.3c0-1-0.7-1.8-2.1-1.8H75V62h3.4
		c1.4,0,2.1-0.7,2.1-1.8C80.4,59.6,80.1,59.1,79.6,58.8L79.6,58.8z M77.9,57.3c0.3,0,0.5,0.1,0.5,0.4c0,0.3-0.2,0.4-0.5,0.4h-1.2
		v-0.9H77.9L77.9,57.3z M78.1,60.4h-1.4v-0.9h1.4c0.3,0,0.5,0.1,0.5,0.4C78.6,60.3,78.4,60.4,78.1,60.4L78.1,60.4z M84.4,62.2
		c1.8,0,3.3-1.4,3.3-3.3c0-1.9-1.5-3.3-3.3-3.3c-1.8,0-3.3,1.4-3.3,3.3C81.1,60.7,82.5,62.2,84.4,62.2L84.4,62.2z M84.4,60.3
		c-0.8,0-1.4-0.6-1.4-1.5s0.6-1.5,1.4-1.5c0.8,0,1.4,0.6,1.4,1.5S85.2,60.3,84.4,60.3L84.4,60.3z M94,55.8h-5.1v3.5
		c0,0.8-0.3,1.1-0.9,1V62c1.8,0.2,2.8-0.7,2.8-2.6v-1.9h1.3V62H94V55.8L94,55.8z M104.1,62l-2.1-3.1l1.9-3.1h-2.1l-1.6,2.7v-2.7
		h-1.8v2.7L97,55.8h-2.1l1.9,3.1L94.8,62h2.1l1.7-2.7V62h1.8v-2.7l1.7,2.7H104.1L104.1,62z M107.4,62.2c-1.9,0-3.3-1.4-3.3-3.3
		c0-1.9,1.4-3.3,3.3-3.3c1.2,0,2.3,0.6,2.8,1.6l-1.6,0.9c-0.2-0.4-0.7-0.7-1.2-0.7c-0.8,0-1.4,0.6-1.4,1.4c0,0.9,0.6,1.4,1.4,1.4
		c0.5,0,1-0.3,1.2-0.7l1.6,0.9C109.7,61.5,108.7,62.2,107.4,62.2L107.4,62.2z M117,62l-2.3-3.1l2.3-3.1h-2.2l-1.9,2.7v-2.7h-1.9V62
		h1.9v-2.8l2,2.8H117L117,62z M121.9,55.8h1.9V62h-1.9v-0.6c-0.4,0.5-1,0.8-1.9,0.8c-1.6,0-3-1.4-3-3.3c0-1.9,1.3-3.3,3-3.3
		c0.8,0,1.4,0.3,1.9,0.8V55.8L121.9,55.8z M120.4,60.4c0.9,0,1.5-0.6,1.5-1.5s-0.6-1.5-1.5-1.5c-0.9,0-1.5,0.6-1.5,1.5
		S119.5,60.4,120.4,60.4L120.4,60.4z M130.3,55.8h-3c-1.5,0-2.3,1.1-2.3,2.2c0,0.8,0.4,1.6,1.2,2l-1.5,2.1h2.1l1.3-1.8h0.4V62h1.8
		V55.8L130.3,55.8z M127.4,57.4h1.1v1.2h-1.1c-0.4,0-0.7-0.2-0.7-0.6C126.7,57.6,127,57.4,127.4,57.4L127.4,57.4z M62.5,73.3
		c1.2,0,2.3-0.6,2.8-1.6l-1.6-0.9c-0.2,0.4-0.7,0.7-1.2,0.7c-0.8,0-1.4-0.6-1.4-1.4c0-0.9,0.6-1.4,1.4-1.4c0.5,0,1,0.3,1.2,0.7
		l1.6-0.9c-0.5-1-1.6-1.6-2.8-1.6c-1.9,0-3.3,1.4-3.3,3.3C59.2,71.9,60.6,73.3,62.5,73.3L62.5,73.3z M71.1,66.9h-5.6v1.8h1.9v4.4
		h1.9v-4.4h1.9V66.9L71.1,66.9z M75.6,66.7c-0.8,0-1.4,0.3-1.9,0.8v-0.6h-1.9v8.7h1.9v-3.1c0.4,0.5,1,0.8,1.9,0.8c1.6,0,3-1.4,3-3.3
		C78.6,68.1,77.3,66.7,75.6,66.7L75.6,66.7z M75.3,71.5c-0.9,0-1.5-0.6-1.5-1.5c0-0.9,0.6-1.5,1.5-1.5c0.9,0,1.5,0.6,1.5,1.5
		C76.7,70.9,76.1,71.5,75.3,71.5L75.3,71.5z M82.7,73.3c1.8,0,3.3-1.4,3.3-3.3c0-1.9-1.5-3.3-3.3-3.3c-1.8,0-3.3,1.4-3.3,3.3
		C79.4,71.9,80.8,73.3,82.7,73.3L82.7,73.3z M82.7,71.5c-0.8,0-1.4-0.6-1.4-1.5c0-0.9,0.6-1.5,1.4-1.5c0.8,0,1.4,0.6,1.4,1.5
		C84.1,70.9,83.5,71.5,82.7,71.5L82.7,71.5z M91.5,66.9L88.8,70v-3.1H87v6.2h1.4L91,70v3.1h1.8v-6.2H91.5L91.5,66.9z M99.3,66.9
		h-5.6v1.8h1.9v4.4h1.9v-4.4h1.9V66.9L99.3,66.9z M101.5,70.7h4.4c0-0.2,0.1-0.5,0.1-0.7c0-1.9-1.3-3.3-3.2-3.3
		c-2,0-3.3,1.4-3.3,3.3c0,1.9,1.3,3.3,3.4,3.3c1.2,0,2.1-0.4,2.7-1.3l-1.5-0.9c-0.2,0.3-0.7,0.5-1.2,0.5
		C102.3,71.6,101.7,71.4,101.5,70.7L101.5,70.7z M101.5,69.4c0.2-0.6,0.6-1,1.4-1c0.6,0,1.1,0.3,1.3,1H101.5L101.5,69.4z
		 M112.2,66.9h-5.1v3.5c0,0.8-0.3,1.1-0.9,1v1.7c1.8,0.2,2.8-0.7,2.8-2.6v-1.9h1.3v4.4h1.9V66.9L112.2,66.9z M116.5,68.8h-1v-1.9
		h-1.9v6.2h2.9c1.5,0,2.4-0.9,2.4-2.2S118,68.8,116.5,68.8L116.5,68.8z M116.5,71.5h-1.1v-1.1h1.1c0.4,0,0.6,0.2,0.6,0.6
		C117.1,71.3,116.9,71.5,116.5,71.5L116.5,71.5z M123.8,66.9v2.2h-2.1v-2.2h-1.9v6.2h1.9v-2.2h2.1v2.2h1.9v-6.2H123.8L123.8,66.9z
		 M131.6,66.9v0.6c-0.4-0.5-1-0.8-1.9-0.8c-1.6,0-3,1.4-3,3.3c0,1.9,1.3,3.3,3,3.3c0.8,0,1.4-0.3,1.9-0.8v0.6h1.9v-6.2H131.6
		L131.6,66.9z M130.1,71.5c-0.9,0-1.5-0.6-1.5-1.5c0-0.9,0.6-1.5,1.5-1.5c0.9,0,1.5,0.6,1.5,1.5C131.6,70.9,131,71.5,130.1,71.5
		L130.1,71.5z M140,66.9h-3c-1.5,0-2.3,1.1-2.3,2.2c0,0.8,0.4,1.6,1.2,2l-1.5,2.1h2.1l1.3-1.8h0.4v1.8h1.8V66.9L140,66.9z
		 M137.1,68.5h1.1v1.2h-1.1c-0.4,0-0.7-0.2-0.7-0.6C136.5,68.8,136.7,68.5,137.1,68.5L137.1,68.5z M65.5,84.2l-2.3-3.1l2.3-3.1h-2.2
		l-1.9,2.7V78h-1.9v6.2h1.9v-2.8l2,2.8H65.5L65.5,84.2z M68.8,84.4c-1.8,0-3.3-1.4-3.3-3.3c0-1.9,1.5-3.3,3.3-3.3
		c1.8,0,3.3,1.4,3.3,3.3C72.1,83,70.6,84.4,68.8,84.4L68.8,84.4z M68.8,82.6c0.8,0,1.4-0.6,1.4-1.5c0-0.9-0.6-1.5-1.4-1.5
		c-0.8,0-1.4,0.6-1.4,1.5C67.4,82,68,82.6,68.8,82.6L68.8,82.6z M76.9,77.8c-0.8,0-1.4,0.3-1.9,0.8V78h-1.9v8.7H75v-3.1
		c0.4,0.5,1,0.8,1.9,0.8c1.6,0,3-1.4,3-3.3C79.8,79.3,78.5,77.8,76.9,77.8L76.9,77.8z M76.5,82.6c-0.9,0-1.5-0.6-1.5-1.5
		c0-0.9,0.6-1.5,1.5-1.5c0.9,0,1.5,0.6,1.5,1.5C78,82.1,77.4,82.6,76.5,82.6L76.5,82.6z M86.8,78h-5.8v6.2h1.9v-4.5h2.1v4.5h1.9V78
		L86.8,78z M91.1,84.4c1.8,0,3.3-1.4,3.3-3.3c0-1.9-1.5-3.3-3.3-3.3c-1.8,0-3.3,1.4-3.3,3.3C87.8,83,89.3,84.4,91.1,84.4L91.1,84.4z
		 M91.1,82.6c-0.8,0-1.4-0.6-1.4-1.5c0-0.9,0.6-1.5,1.4-1.5c0.8,0,1.4,0.6,1.4,1.5C92.5,82,91.9,82.6,91.1,82.6L91.1,82.6z
		 M99.2,77.8c-0.8,0-1.4,0.3-1.9,0.8V78h-1.9v8.7h1.9v-3.1c0.4,0.5,1,0.8,1.9,0.8c1.6,0,3-1.4,3-3.3
		C102.2,79.3,100.8,77.8,99.2,77.8L99.2,77.8z M98.8,82.6c-0.9,0-1.5-0.6-1.5-1.5c0-0.9,0.6-1.5,1.5-1.5c0.9,0,1.5,0.6,1.5,1.5
		C100.3,82.1,99.7,82.6,98.8,82.6L98.8,82.6z M107.7,78v0.6c-0.4-0.5-1-0.8-1.9-0.8c-1.6,0-3,1.4-3,3.3c0,1.9,1.3,3.3,3,3.3
		c0.8,0,1.4-0.3,1.9-0.8v0.6h1.9V78H107.7L107.7,78z M106.3,82.6c-0.9,0-1.5-0.6-1.5-1.5c0-0.9,0.6-1.5,1.5-1.5
		c0.9,0,1.5,0.6,1.5,1.5C107.7,82.1,107.1,82.6,106.3,82.6L106.3,82.6z M116.6,82.5V78h-1.9v4.5h-1.9V78H111v6.2h4.8v1.7h1.8v-3.4
		H116.6L116.6,82.5z M123,78l-2.7,3.1V78h-1.8v6.2h1.4l2.7-3.1v3.1h1.8V78H123L123,78z M130.9,78h-3c-1.5,0-2.3,1.1-2.3,2.2
		c0,0.8,0.4,1.6,1.2,2l-1.5,2.1h2.1l1.3-1.8h0.4v1.8h1.8V78L130.9,78z M128.1,79.7h1.1v1.2h-1.1c-0.4,0-0.7-0.2-0.7-0.6
		C127.4,79.9,127.7,79.7,128.1,79.7z"/>
</g>
</svg>
