<?xml version="1.0" encoding="UTF-8"?>
<!DOCTYPE svg PUBLIC "-//W3C//DTD SVG 1.1//EN" "http://www.w3.org/Graphics/SVG/1.1/DTD/svg11.dtd">
<!-- Creator: CorelDRAW X7 -->
<svg xmlns="http://www.w3.org/2000/svg" xml:space="preserve" width="3300px" height="3780px" version="1.1" style="shape-rendering:geometricPrecision; text-rendering:geometricPrecision; image-rendering:optimizeQuality; fill-rule:evenodd; clip-rule:evenodd"
viewBox="0 0 1852 2121"
 xmlns:xlink="http://www.w3.org/1999/xlink">
 <defs>
  <style type="text/css">
   <![CDATA[
    .fil1 {fill:#335598}
    .fil4 {fill:#989898}
    .fil2 {fill:#999999}
    .fil3 {fill:#FDFEFE}
    .fil0 {fill:white}
   ]]>
  </style>
 </defs>
 <g id="Слой_x0020_1">
  <metadata id="CorelCorpID_0Corel-Layer"/>
  <g id="_465362568">
   <path class="fil0" d="M275 722l242 -27c-1,-1 -1,-1 -2,-1 0,0 -1,-1 -2,-1 -13,-5 12,2 -4,-1l-62 0 2 -77 1210 0 0 77 -804 1 1 125 803 1 0 77 -803 0 0 127 803 1 0 76 -804 1 0 125 804 2 0 76 -803 1 0 126 803 1 0 76 -803 1 -1 126 804 1 0 76 -803 1 0 126 803 1 0 76 -1212 0 0 -76 56 0c8,0 13,0 19,-3l-253 -29 0 287 1556 0 0 -1608 -1378 0 0 -76 919 0 0 -128 -919 0 1 -76 918 0 1 -179 -1098 0 0 657c0,7 0,14 0,21 -1,19 2,15 6,16z"/>
   <path class="fil1" d="M387 1399c-5,23 -13,49 -16,71l-73 0c-10,-8 -11,-38 -13,-51l-48 -256c-5,-23 -18,-80 -18,-101 15,0 38,-2 51,-1 13,1 8,3 16,35 7,31 50,230 56,241l51 -275c0,0 77,0 77,0 0,0 36,227 63,277l51 -277 66 0c1,16 -57,313 -66,359 -12,61 9,49 -86,48l-62 -277c-8,13 -40,170 -49,207zm130 -704l-242 27 -33 4 -180 21c-11,2 -19,3 -30,4 -10,2 -24,4 -32,4l0 967c0,68 -4,54 24,57 25,3 47,5 72,9l146 17 27 3 253 29 82 11c79,9 174,22 252,30l0 -39 0 -126 -1 -78 1 -126 0 -78 0 -126 -1 -79 0 -125 1 -78 0 -127 0 -78 -1 -125 0 -39c-56,5 -114,13 -170,20 -55,6 -114,16 -168,21z"/>
   <path class="fil2" d="M1391 48c8,4 4,1 10,7l303 303c11,11 96,92 101,104l-414 0 0 -414zm-1149 678l33 -4c-4,-1 -7,3 -6,-16 0,-7 0,-14 0,-21l0 -657 1098 0 -1 179 -918 0 -1 76 919 0 0 128 -919 0 0 76 1378 0 0 1608 -1556 0 0 -287 -27 -3 0 316 1609 0 0 -1597c0,-38 5,-50 -9,-63 -87,-82 -191,-191 -279,-279 -54,-54 -120,-118 -172,-173 -13,-13 -22,-8 -61,-8l-1081 0c-11,2 -7,14 -7,28l0 697z"/>
   <path class="fil3" d="M298 1470l73 0c3,-22 11,-48 16,-71 9,-37 41,-194 49,-207l62 277c95,1 74,13 86,-48 9,-46 67,-343 66,-359l-66 0 -51 277c-7,-13 -53,-234 -63,-276 0,0 0,0 0,0 -17,0 -60,-2 -77,-1l-51 275c-6,-11 -49,-210 -56,-241 -8,-32 -3,-34 -16,-35 -13,-1 -36,1 -51,1 0,21 13,78 18,101l48 256c2,13 3,43 13,51z"/>
   <path class="fil2" d="M538 693c55,-6 92,-13 147,-19 56,-7 114,-15 170,-20l0 39 804 -1 0 -77 -1210 0 -2 77 62 0c0,0 29,1 29,1z"/>
   <path class="fil3" d="M1391 462l414 0c-5,-12 -90,-93 -101,-104l-303 -303c-6,-6 -2,-3 -10,-7l0 414z"/>
   <path class="fil4" d="M856 1839l0 39c-78,-8 -173,-21 -252,-30l-82 -11c-6,3 -11,3 -19,3l-56 0 0 76 1212 0 0 -76 -803 -1z"/>
   <polygon class="fil2" points="856,1713 1659,1712 1659,1636 855,1635 "/>
   <polygon class="fil2" points="856,1305 1659,1304 1659,1228 855,1226 "/>
   <polygon class="fil2" points="856,896 1659,896 1659,819 856,818 "/>
   <polygon class="fil2" points="856,1509 1659,1508 1659,1432 856,1431 "/>
   <polygon class="fil2" points="855,1101 1659,1100 1659,1024 856,1023 "/>
  </g>
 </g>
</svg>
