<svg width="182" height="38" fill="none" xmlns="http://www.w3.org/2000/svg"><path fill-rule="evenodd" clip-rule="evenodd" d="M55.5 6H46v10.7h8.8c.3 0 .5.2.5.5v3c0 .2-.2.5-.5.5H46v15.8c0 .2-.2.5-.5.5h-4c-.3 0-.5-.3-.5-.5v-34c0-.3.2-.5.5-.5h14c.2 0 .5.2.5.5v3c0 .3-.3.5-.5.5zm9.3 31h-3.6c-.2 0-.4-.3-.4-.5v-26c0-.2.2-.5.4-.5h3.6c.2 0 .5.3.5.5v26c0 .2-.3.5-.5.5zM63 6.7c-1.6 0-3-1.5-3-3.4C60 1.5 61.4 0 63 0s3 1.5 3 3.3c0 1.9-1.4 3.4-3 3.4zM89.5 37h-5.2c-.3 0-.5-.3-.5-.5L76.4 11l.8 25.5c0 .2-.3.5-.6.5h-4c-.3 0-.6-.3-.6-.5v-34c0-.3.3-.5.5-.5h5.2c.2 0 .6 0 .6.2L85.6 27l-.8-24.4c0-.3.3-.5.6-.5h4c.3 0 .6.2.6.5v34c0 .2-.3.5-.5.5z" fill="#fff"/><path fill-rule="evenodd" clip-rule="evenodd" d="M110.5 37h-14c-.2 0-.5-.3-.5-.5v-34c0-.3.3-.5.5-.5h14c.2 0 .5.2.5.5v3c0 .3-.3.5-.5.5H101v10.7h8.8c.3 0 .5.2.5.5v3c0 .2-.2.5-.5.5H101V33h9.5c.2 0 .5.3.5.5v3c0 .2-.3.5-.5.5zm22.2 0h-4.2c-.2 0-.6-.2-.7-.5l-5.3-12-5.3 12c-.1.3-.5.5-.7.5h-4.2c-.2 0-.4-.2-.3-.5l8-17.8-7.3-16.2c0-.3 0-.5.3-.5h4.1c.3 0 .7.2.8.5l4.6 10.4 4.6-10.4c.1-.3.5-.5.7-.5h4.2c.2 0 .4.2.3.5L125 18.7l7.9 17.8c0 .3 0 .5-.3.5zM153 17V9.2c0-4.7-3.8-8.2-8.5-8.2a8.2 8.2 0 0 0-8.5 8.2v27.3c0 .2.3.5.5.5h4c.3 0 .6-.3.6-.5V25.2h3.4c4.7 0 8.5-3.5 8.5-8.2zm-5.1 0c0 1.8-1.5 3.8-3.4 3.8h-3.4V9.2c0-1.8 1.5-3.8 3.4-3.8 2 0 3.4 2 3.4 3.8V17zM174 29.8V9.3c0-4.8-3.8-8.3-8.5-8.3a8.3 8.3 0 0 0-8.5 8.3v20.5c0 4.7 3.8 8.2 8.5 8.2s8.5-3.5 8.5-8.2zm-5.1 0c0 1.9-1.5 3.8-3.4 3.8s-3.4-2-3.4-3.8V9.3c0-2 1.5-3.8 3.4-3.8s3.4 1.9 3.4 3.8v20.5z" fill="#F58A1E"/><path fill-rule="evenodd" clip-rule="evenodd" d="M3 7a3 3 0 0 1-3-3 3 3 0 0 1 3-3 3 3 0 0 1 3 3 3 3 0 0 1-3 3zm8 0a3 3 0 0 1-3-3 3 3 0 0 1 3-3 3 3 0 0 1 3 3 3 3 0 0 1-3 3z" fill="#fff"/><path fill-rule="evenodd" clip-rule="evenodd" d="M18 7a3 3 0 0 1-3-3 3 3 0 0 1 3-3 3 3 0 0 1 3 3 3 3 0 0 1-3 3zm8 0a3 3 0 0 1-3-3 3 3 0 0 1 3-3 3 3 0 0 1 3 3 3 3 0 0 1-3 3z" fill="#F58A1E"/><path fill-rule="evenodd" clip-rule="evenodd" d="M33 7a3 3 0 0 1-3-3 3 3 0 0 1 3-3 3 3 0 0 1 3 3 3 3 0 0 1-3 3zM3 15a3 3 0 0 1-3-3 3 3 0 0 1 3-3 3 3 0 0 1 3 3 3 3 0 0 1-3 3z" fill="#fff"/><path fill-rule="evenodd" clip-rule="evenodd" d="M11 15a3 3 0 0 1-3-3 3 3 0 0 1 3-3 3 3 0 0 1 3 3 3 3 0 0 1-3 3z" fill="#F58A1E"/><path fill-rule="evenodd" clip-rule="evenodd" d="M18 15a3 3 0 0 1-3-3 3 3 0 0 1 3-3 3 3 0 0 1 3 3 3 3 0 0 1-3 3zm8 0a3 3 0 0 1-3-3 3 3 0 0 1 3-3 3 3 0 0 1 3 3 3 3 0 0 1-3 3zm7 0a3 3 0 0 1-3-3 3 3 0 0 1 3-3 3 3 0 0 1 3 3 3 3 0 0 1-3 3z" fill="#fff"/><path fill-rule="evenodd" clip-rule="evenodd" d="M3 22a3 3 0 0 1-3-3 3 3 0 0 1 3-3 3 3 0 0 1 3 3 3 3 0 0 1-3 3zm8 0a3 3 0 0 1-3-3 3 3 0 0 1 3-3 3 3 0 0 1 3 3 3 3 0 0 1-3 3zm7 0a3 3 0 0 1-3-3 3 3 0 0 1 3-3 3 3 0 0 1 3 3 3 3 0 0 1-3 3zm8 0a3 3 0 0 1-3-3 3 3 0 0 1 3-3 3 3 0 0 1 3 3 3 3 0 0 1-3 3z" fill="#F58A1E"/><path fill-rule="evenodd" clip-rule="evenodd" d="M33 22a3 3 0 0 1-3-3 3 3 0 0 1 3-3 3 3 0 0 1 3 3 3 3 0 0 1-3 3zM3 30a3 3 0 0 1-3-3 3 3 0 0 1 3-3 3 3 0 0 1 3 3 3 3 0 0 1-3 3z" fill="#fff"/><path fill-rule="evenodd" clip-rule="evenodd" d="M11 30a3 3 0 0 1-3-3 3 3 0 0 1 3-3 3 3 0 0 1 3 3 3 3 0 0 1-3 3z" fill="#F58A1E"/><path fill-rule="evenodd" clip-rule="evenodd" d="M18 30a3 3 0 0 1-3-3 3 3 0 0 1 3-3 3 3 0 0 1 3 3 3 3 0 0 1-3 3zm8 0a3 3 0 0 1-3-3 3 3 0 0 1 3-3 3 3 0 0 1 3 3 3 3 0 0 1-3 3zm7 0a3 3 0 0 1-3-3 3 3 0 0 1 3-3 3 3 0 0 1 3 3 3 3 0 0 1-3 3zM3 38a3 3 0 0 1-3-3 3 3 0 0 1 3-3 3 3 0 0 1 3 3 3 3 0 0 1-3 3zm8 0a3 3 0 0 1-3-3 3 3 0 0 1 3-3 3 3 0 0 1 3 3 3 3 0 0 1-3 3z" fill="#fff"/><path fill-rule="evenodd" clip-rule="evenodd" d="M18 38a3 3 0 0 1-3-3 3 3 0 0 1 3-3 3 3 0 0 1 3 3 3 3 0 0 1-3 3zm8 0a3 3 0 0 1-3-3 3 3 0 0 1 3-3 3 3 0 0 1 3 3 3 3 0 0 1-3 3z" fill="#F58A1E"/><path fill-rule="evenodd" clip-rule="evenodd" d="M33 38a3 3 0 0 1-3-3 3 3 0 0 1 3-3 3 3 0 0 1 3 3 3 3 0 0 1-3 3zm146 0a3 3 0 0 1-3-3 3 3 0 0 1 3-3 3 3 0 0 1 3 3 3 3 0 0 1-3 3z" fill="#fff"/></svg>