<svg xmlns="http://www.w3.org/2000/svg" width="94" height="98" viewBox="0 0 94 98"><path fill="none" stroke="#424a60" stroke-linecap="round" stroke-miterlimit="50" stroke-width="1.6" d="M78 22.83L83.84 17"/><path fill="#afb6bb" d="M79 14l7.01-7 7.01 7-7.01 7z"/><path fill="#3083c9" d="M47.64 10c-3.31 0-6.54.39-9.64 1.1v10.44H24.78a1.65 1.65 0 1 0 0 3.31H38v8.25H16.52a1.65 1.65 0 0 0 0 3.3H38v8.25H8.26a1.65 1.65 0 0 0 0 3.3H38v8.25H1.65a1.65 1.65 0 0 0 0 3.3H38v8.25H11.57c-.92 0-1.65.73-1.65 1.65 0 .91.73 1.64 1.65 1.64H38v8.25H21.47c-.91 0-1.64.75-1.64 1.66 0 .91.73 1.65 1.64 1.65H38v12.1a42.92 42.92 0 0 0 52.6-41.8A42.93 42.93 0 0 0 47.64 10z"/><path fill="#2b77aa" d="M70.95 38.48a1.65 1.65 0 0 0-2.13-.17l-21.4 15.45a5.86 5.86 0 0 0-.7 8.91 5.9 5.9 0 0 0 8.93-.7l15.47-21.36c.47-.65.41-1.56-.17-2.13z"/><path fill="#efce4a" d="M68.95 35.48a1.66 1.66 0 0 0-2.13-.17l-21.4 15.45a5.9 5.9 0 1 0 8.23 8.22l15.47-21.36c.48-.66.41-1.57-.17-2.14z"/><path fill="#424a60" d="M44.62 10.04a44.8 44.8 0 0 1 3.3-.14c1.11 0 2.21.06 3.3.14V4.95h4.13a2.48 2.48 0 1 0 0-4.95H40.49A2.49 2.49 0 0 0 38 2.47a2.49 2.49 0 0 0 2.49 2.48h4.13z"/><path fill="#a1c8ec" d="M47.65 8C46.74 8 46 8.74 46 9.65v4.95a1.65 1.65 0 0 0 3.31 0V9.65c0-.91-.74-1.65-1.66-1.65zM47.65 89c-.91 0-1.65.74-1.65 1.65v4.95c0 .92.74 1.65 1.65 1.65.92 0 1.66-.73 1.66-1.65v-4.95c0-.91-.74-1.65-1.66-1.65zM90.61 51h-4.96a1.65 1.65 0 1 0 0 3.29h4.96c.92 0 1.65-.73 1.65-1.64 0-.92-.73-1.65-1.65-1.65zM69.96 14.22a1.65 1.65 0 0 0-2.26.61l-2.48 4.28a1.66 1.66 0 0 0 1.43 2.48c.57 0 1.12-.3 1.43-.83l2.48-4.28c.46-.79.19-1.81-.6-2.26zM85.76 72.7l-4.29-2.48a1.65 1.65 0 1 0-1.64 2.86l4.29 2.47c.26.16.54.23.82.23.57 0 1.13-.3 1.43-.83.46-.79.19-1.8-.61-2.25zM68.08 84.83a1.63 1.63 0 0 0-2.25-.6 1.63 1.63 0 0 0-.61 2.24l2.48 4.29c.31.53.86.83 1.43.83.28 0 .56-.07.83-.23a1.63 1.63 0 0 0 .6-2.24zM80.65 35.77c.28 0 .57-.07.83-.21l4.29-2.48a1.65 1.65 0 1 0-1.65-2.86l-4.29 2.48a1.64 1.64 0 0 0 .82 3.07z"/></svg>