<svg xmlns="http://www.w3.org/2000/svg" width="99" height="99" viewBox="0 0 99 99"><path fill="#4c4c49" d="M0 49.5a49.5 49.5 0 1 0 99 0 49.5 49.5 0 0 0-99 0zm10.24 0A39.3 39.3 0 0 1 49.5 10.24 39.3 39.3 0 0 1 88.76 49.5 39.3 39.3 0 0 1 49.5 88.76 39.3 39.3 0 0 1 10.24 49.5z"/><path fill="#9b9c98" d="M72.22 42.69a23.68 23.68 0 0 0-2.08-5.03l4.46-8.92 7.19-1.44a39.4 39.4 0 0 0-10.58-10.57l-1.43 7.18-8.92 4.46a23.87 23.87 0 0 0-5.03-2.07l-3.16-9.47 4.07-6.11a39.2 39.2 0 0 0-14.96 0l4.06 6.11-3.15 9.47c-1.77.5-3.46 1.2-5.03 2.07l-8.92-4.46-1.44-7.18A39.51 39.51 0 0 0 16.73 27.3l7.18 1.44 4.46 8.92a23.66 23.66 0 0 0-2.07 5.03l-9.47 3.15-6.11-4.06a39.2 39.2 0 0 0 0 14.96l6.11-4.07 9.47 3.16c.5 1.77 1.2 3.45 2.07 5.03l-4.46 8.92-7.18 1.43A39.55 39.55 0 0 0 27.3 81.79l1.44-7.19 8.92-4.46c1.57.88 3.26 1.57 5.03 2.08l3.15 9.47-4.06 6.1a39.2 39.2 0 0 0 14.96 0l-4.07-6.1 3.16-9.47a23.9 23.9 0 0 0 5.03-2.08l8.92 4.46 1.43 7.19a39.44 39.44 0 0 0 10.58-10.58l-7.19-1.43-4.46-8.92a23.9 23.9 0 0 0 2.08-5.03l9.47-3.16 6.1 4.07a39.2 39.2 0 0 0 0-14.96l-6.1 4.06-9.47-3.15"/><path fill="#4c4c49" d="M54.24 61.12a5.12 5.12 0 1 1-10.23 0 5.12 5.12 0 0 1 10.23 0M66.24 49.12a5.12 5.12 0 1 1-10.23 0 5.12 5.12 0 0 1 10.23 0M54.24 37.12a5.12 5.12 0 1 1-10.23 0 5.12 5.12 0 0 1 10.23 0M42.24 49.12a5.12 5.12 0 1 1-10.23 0 5.12 5.12 0 0 1 10.23 0"/></svg>