<svg xmlns="http://www.w3.org/2000/svg" width="105" height="101" viewBox="0 0 105 101"><path fill="#f0c419" d="M11.52 35.72c0-.95-.76-1.72-1.71-1.72H2.72a1.72 1.72 0 1 0 0 3.44h7.09c.95 0 1.71-.77 1.71-1.72zM36.72 0C35.77 0 35 .77 35 1.72v7.11a1.72 1.72 0 0 0 3.43 0V1.72c0-.95-.77-1.72-1.71-1.72zM11.92 8.5a1.7 1.7 0 0 0-2.42 0 1.72 1.72 0 0 0 0 2.43l6.78 6.81a1.73 1.73 0 0 0 2.43 0c.67-.68.67-1.77 0-2.44zM64.71 8.5a1.72 1.72 0 0 0-2.43 0l-6.78 6.8a1.73 1.73 0 0 0 0 2.44 1.73 1.73 0 0 0 2.43 0l6.78-6.81c.67-.67.67-1.75 0-2.43zM26.3 7.04a1.72 1.72 0 0 0-3.16 1.35l1.38 3.28a1.74 1.74 0 0 0 2.26.91 1.7 1.7 0 0 0 .9-2.25zM48.68 6.12a1.71 1.71 0 0 0-2.22.95l-1.34 3.3a1.73 1.73 0 0 0 1.6 2.37c.67 0 1.32-.41 1.59-1.08l1.32-3.3a1.72 1.72 0 0 0-.95-2.24zM11.31 45.14l-3.26 1.38a1.73 1.73 0 0 0 .67 3.31c.22 0 .45-.04.67-.14l3.26-1.39a1.71 1.71 0 1 0-1.34-3.16zM8.07 26.31l3.29 1.34a1.71 1.71 0 0 0 2.23-.95 1.72 1.72 0 0 0-.94-2.24l-3.29-1.34a1.74 1.74 0 0 0-2.24.95c-.35.88.07 1.89.95 2.24z"/><path fill="#ede21b" d="M22.6 54.74c1.23.14 2.43.38 3.57.76a12 12 0 0 1 15.35-14.07l.01.01a12.02 12.02 0 0 1 12.59-7.51c0-.26-.04-.52-.04-.8 0-3.54 1.04-6.84 2.81-9.64A23.64 23.64 0 0 0 36.65 12 23.69 23.69 0 0 0 22.6 54.74z"/><path fill="#d0e8f9" d="M104.39 45.64h-.13c.06.52.1 1.04.1 1.59a1.71 1.71 0 0 1-3.43 0c0-5.69-4.61-10.32-10.29-10.32a10.32 10.32 0 0 0-10.29 10.32 1.7 1.7 0 0 1-1.71 1.71 1.7 1.7 0 0 1-1.71-1.71c0-6.99 5.22-12.77 11.96-13.63A16.32 16.32 0 0 0 72.64 18a16.3 16.3 0 0 0-16.25 15.68 13.67 13.67 0 0 1 10.2 10.23c.22.93-.35 1.85-1.27 2.07a1.72 1.72 0 0 1-2.06-1.28 10.3 10.3 0 0 0-12.37-7.68 10.33 10.33 0 0 0-7.66 12.41 1.7 1.7 0 0 1-1.67 2.11 1.7 1.7 0 0 1-1.66-1.33c-.51-2.15-.46-4.3.01-6.31-3.52-.52-7.09.82-9.41 3.65a10.3 10.3 0 0 0-2.01 9.08l.01.06a10.17 10.17 0 0 0 3.4 5.37c.73.61.83 1.69.24 2.43a1.73 1.73 0 0 1-2.42.23 13.65 13.65 0 0 1-4.36-6.5 16.18 16.18 0 0 0-17.98 7.33A16.25 16.25 0 0 0 5.47 77.9a16.22 16.22 0 0 0 7.37 10.08 1.72 1.72 0 0 1-.89 3.19c-.24 0-.46-.06-.68-.16a19.4 19.4 0 0 0 9.16 2.74l14.08.01a22.3 22.3 0 0 0 20.21-13.74 22.33 22.33 0 0 0 20.57 13.76 29.22 29.22 0 0 0 29.14-29.23V47.36z"/><path fill="#abcadd" d="M91.75 33.02A19.75 19.75 0 0 0 72.07 14a19.74 19.74 0 0 0-19.66 18.75 13.65 13.65 0 0 0-11.84 7.33 13.66 13.66 0 0 0-16.39 13.93 19.61 19.61 0 0 0-20.31 9.18 19.71 19.71 0 0 0-2.3 14.96 19.66 19.66 0 0 0 8.91 12.21c.28.16.59.25.89.25a1.72 1.72 0 0 0 .89-3.19A16.2 16.2 0 0 1 4.9 77.34a16.28 16.28 0 0 1 1.9-12.36 16.21 16.21 0 0 1 17.98-7.33 13.74 13.74 0 0 0 4.37 6.51c.32.26.7.38 1.09.38a1.71 1.71 0 0 0 1.09-3.04 10.32 10.32 0 0 1-3.41-5.38l-.01-.05a10.26 10.26 0 0 1 11.43-12.74 13.76 13.76 0 0 0-.02 6.32 1.73 1.73 0 0 0 2.06 1.28 1.73 1.73 0 0 0 1.28-2.07 10.28 10.28 0 1 1 20.02-4.72 1.73 1.73 0 0 0 2.06 1.28 1.73 1.73 0 0 0 1.28-2.07 13.7 13.7 0 0 0-10.21-10.24 16.33 16.33 0 0 1 16.26-15.68c8.73 0 15.86 6.94 16.25 15.6a13.75 13.75 0 0 0-11.97 13.63c0 .95.77 1.71 1.72 1.71a1.7 1.7 0 0 0 1.71-1.71 10.3 10.3 0 0 1 10.28-10.31c5.68 0 10.38 4.62 10.38 10.31v5.16c0 .94.76 1.72 1.7 1.72.95 0 1.72-.78 1.72-1.72v-5.16c0-7.01-5.34-12.81-12.11-13.64z"/><path fill="#fff" d="M100.42 70.12l-4.85-2.8 4.85-2.81c.82-.48 1.1-1.53.63-2.35a1.71 1.71 0 0 0-2.35-.63l-4.85 2.81v-5.62a1.71 1.71 0 1 0-3.42 0v5.62l-4.86-2.81a1.7 1.7 0 0 0-2.34.63c-.47.82-.19 1.87.63 2.35l4.85 2.81-4.85 2.8a1.72 1.72 0 1 0 1.71 2.98l4.86-2.81v5.62a1.7 1.7 0 1 0 3.42 0v-5.62l4.85 2.81a1.73 1.73 0 0 0 2.35-.63c.47-.82.19-1.87-.63-2.35zM65.04 62.16a1.7 1.7 0 0 0-2.34-.63l-4.85 2.81v-5.62a1.72 1.72 0 1 0-3.43 0v5.62l-4.85-2.81a1.72 1.72 0 0 0-1.71 2.98l4.85 2.81-4.85 2.8a1.72 1.72 0 0 0 1.71 2.98l4.85-2.81v5.62a1.72 1.72 0 0 0 3.43 0v-5.62l4.85 2.81a1.7 1.7 0 0 0 2.34-.63c.48-.82.2-1.87-.62-2.35l-4.86-2.8 4.86-2.81c.82-.48 1.1-1.53.62-2.35z"/><path fill="#abc5d3" d="M84.05 85.16a1.73 1.73 0 0 0-2.35-.63l-4.85 2.82v-5.63a1.72 1.72 0 1 0-3.43 0v5.63l-4.85-2.82a1.72 1.72 0 0 0-2.34.63c-.47.82-.19 1.88.62 2.35l4.86 2.81-4.86 2.81a1.72 1.72 0 0 0 1.72 2.98l4.85-2.81v5.61a1.72 1.72 0 0 0 3.43 0V93.3l4.85 2.81c.27.15.56.23.86.23.59 0 1.17-.32 1.49-.86.46-.82.19-1.88-.63-2.35l-4.86-2.81 4.86-2.81a1.74 1.74 0 0 0 .63-2.35z"/></svg>