<svg xmlns="http://www.w3.org/2000/svg" width="46" height="63" viewBox="0 0 46 63"><path fill="#ffc400" d="M31.48 59.94c1.28 0 2.54-.09 3.8-.25l.39 2.97c-1.38.19-2.78.28-4.19.28zm7.54-1.01c1.22-.33 2.42-.75 3.58-1.24l1.18 2.76a31.07 31.07 0 0 1-3.97 1.38zm5.35-52.92a29.75 29.75 0 0 0-3.49-1.49l.99-2.83c1.32.46 2.61 1.01 3.86 1.65zM37.13 3.5c-1.24-.25-2.5-.42-3.77-.5l.2-2.99c1.4.09 2.79.27 4.16.55zm-7.45-.51c-1.27.08-2.53.25-3.77.49L25.33.54C26.7.27 28.09.09 29.5 0zm-7.47 1.49c-1.2.41-2.37.9-3.5 1.47l-1.35-2.68a32.15 32.15 0 0 1 3.88-1.63zm-6.79 3.41c-1.04.71-2.04 1.5-2.98 2.35L10.43 8c1.04-.93 2.14-1.8 3.3-2.59zM9.8 12.94c-.83.97-1.59 1.99-2.27 3.05l-2.52-1.63c.76-1.17 1.6-2.3 2.51-3.37zm-4.14 6.42a28.2 28.2 0 0 0-1.38 3.54l-2.86-.89a32.1 32.1 0 0 1 1.52-3.92zm-2.28 7.29c-.21 1.24-.34 2.5-.38 3.78l-3-.11c.05-1.41.19-2.8.42-4.17zm-.27 7.48c.11 1.27.32 2.52.6 3.75l-2.92.68a30.4 30.4 0 0 1-.67-4.15zm1.71 7.39c.45 1.19.97 2.34 1.58 3.46l-2.64 1.43a32.07 32.07 0 0 1-1.75-3.82zm3.64 6.72c.74 1.02 1.56 2 2.44 2.91l-2.17 2.08a31.96 31.96 0 0 1-2.7-3.22zm5.22 5.46c.99.79 2.03 1.52 3.12 2.17l-1.55 2.57a30.24 30.24 0 0 1-3.44-2.4zm6.55 3.93c1.16.5 2.36.93 3.58 1.27l-.8 2.89a32.06 32.06 0 0 1-3.96-1.4zm6.9 5.01c1.38.19 2.78.29 4.19.3l.02-3c-1.28-.01-2.55-.1-3.8-.27z"/></svg>