<svg width="35" height="35" viewBox="0 0 35 35" version="1.1" xmlns="http://www.w3.org/2000/svg" xmlns:xlink="http://www.w3.org/1999/xlink">
<title>Group</title>
<desc>Created using Figma</desc>
<g id="Canvas" transform="translate(13631 -10528)">
<g id="Group">
<g id="Group">
<g id="Vector">
<use xlink:href="#path0_fill" transform="translate(-13631 10528)" fill="#9496A9"/>
</g>
</g>
</g>
</g>
<defs>
<path id="path0_fill" d="M 35 5.38726C 35 2.41912 32.5821 0 29.5982 0L 5.38461 0C 2.41793 0 0 2.41912 0 5.38726L 0 29.6127C 0 32.598 2.41793 35 5.38461 35L 29.5982 35C 32.5821 35 34.9828 32.5809 34.9828 29.6127L 35 5.38726ZM 23.2362 8.32108C 23.1847 8.59559 23.1161 8.88726 23.0475 9.16177C 22.9103 9.72794 22.7389 10.2598 22.6531 10.5686L 22.6531 10.5858L 22.6531 10.6029C 22.6531 10.6201 22.636 10.6201 22.636 10.6373C 22.636 10.6544 22.6188 10.6716 22.6188 10.6716C 22.6188 10.6887 22.6017 10.7059 22.5845 10.7059C 22.5674 10.723 22.5674 10.723 22.5502 10.7402C 22.5331 10.7574 22.5331 10.7574 22.5159 10.7745C 22.4988 10.7917 22.4988 10.7917 22.4816 10.8088C 22.4645 10.826 22.4473 10.826 22.4473 10.8431C 22.4302 10.8431 22.4302 10.8603 22.413 10.8603C 22.3959 10.8603 22.3787 10.8775 22.3787 10.8775C 22.3616 10.8775 22.3444 10.8946 22.3444 10.8946C 22.3273 10.8946 22.3101 10.8946 22.293 10.9118C 22.2758 10.9118 22.2587 10.9118 22.2415 10.9118C 22.2244 10.9118 22.2072 10.9118 22.1901 10.9118C 22.173 10.9118 22.1558 10.9118 22.1387 10.9118C 22.1215 10.9118 22.1044 10.9118 22.0872 10.8946C 22.0701 10.8946 22.0701 10.8946 22.0529 10.8946L 22.0358 10.8946L 22.0186 10.8946C 21.3155 10.6201 20.7668 10.5 20.3552 10.5C 20.1323 10.5 19.9437 10.5343 19.8065 10.5858C 19.6693 10.6373 19.5492 10.723 19.4464 10.8431C 19.3778 10.9289 19.3092 11.0147 19.2577 11.1348C 19.1891 11.2892 19.1205 11.4951 19.0691 11.7181C 19.0176 11.9583 18.9833 12.2328 18.9833 12.5588C 19.6178 12.576 20.4238 12.5588 20.9554 12.5588C 21.1269 12.5588 21.2641 12.5074 21.367 12.5074C 21.4699 12.5074 21.5213 12.5074 21.5213 12.5074C 21.6414 12.5074 21.7614 12.5931 21.8643 12.6961C 21.95 12.7819 22.0015 12.9534 22.0015 13.0735L 22.0015 16.0074C 22.0015 16.1275 21.95 16.2647 21.8643 16.3505C 21.7785 16.4363 21.6585 16.4877 21.5213 16.4877C 21.5213 16.4877 21.487 16.4877 21.4013 16.4877C 21.3327 16.4877 21.2298 16.4877 21.1097 16.4877C 20.8525 16.4877 20.5267 16.4877 20.1837 16.4877C 19.8922 16.4877 19.5835 16.4877 19.3263 16.4877C 19.3435 17.6887 19.3606 20.2451 19.3949 22.6642C 19.4292 25.4779 19.4464 28.0686 19.4464 28.0686C 19.4464 28.1887 19.3949 28.3088 19.3092 28.4118C 19.2234 28.4976 19.1034 28.549 18.9662 28.549L 14.7477 28.5662C 14.6276 28.5662 14.4904 28.5147 14.4047 28.4289C 14.319 28.3431 14.2675 28.223 14.2675 28.0858C 14.2675 28.0858 14.2675 27.9828 14.2675 27.8113C 14.2675 27.6226 14.2675 27.3652 14.2675 27.0221C 14.2675 26.3529 14.2675 25.4265 14.2675 24.3627C 14.2675 21.8407 14.2504 18.8725 14.1475 16.7108C 13.4787 16.6936 12.6041 16.7108 12.1411 16.7108C 11.9353 16.7108 11.8153 16.7108 11.8153 16.7108C 11.5581 16.7108 11.3351 16.4706 11.3351 16.2132L 11.318 13.0564C 11.318 12.9363 11.3694 12.799 11.4552 12.7132C 11.5409 12.6275 11.6781 12.576 11.7981 12.576C 11.7981 12.576 11.8324 12.576 11.8667 12.576C 11.9182 12.576 11.9868 12.576 12.0725 12.576C 12.244 12.576 12.4669 12.576 12.7242 12.576C 13.0157 12.576 13.3244 12.576 13.6159 12.5588C 13.633 11.924 13.6845 10.9804 13.8045 10.3456C 13.9588 9.55637 14.2161 8.78431 14.6962 8.1152C 15.022 7.66912 15.4508 7.27451 15.9824 6.94853C 17.0627 6.31373 18.2117 6.09069 19.3092 6.09069C 20.6982 6.09069 22.0015 6.45098 22.9789 6.81128C 23.1333 6.86275 23.2533 7.01716 23.2876 7.18873C 23.3048 7.29167 23.3048 7.39461 23.3048 7.51471C 23.3219 7.77206 23.2876 8.04657 23.2362 8.32108Z"/>
</defs>
</svg>
