<svg width="39" height="38" viewBox="0 0 39 38" version="1.1" xmlns="http://www.w3.org/2000/svg" xmlns:xlink="http://www.w3.org/1999/xlink">
<title>Group</title>
<desc>Created using Figma</desc>
<g id="Canvas" transform="translate(13291 -2524)">
<g id="Group">
<g id="Group">
<g id="Vector">
<use xlink:href="#path0_fill" transform="translate(-13276.4 2534.21)" fill="#FFFFFF"/>
</g>
</g>
<g id="Group">
<g id="Vector">
<use xlink:href="#path1_fill" transform="translate(-13270.8 2543.88)" fill="#FFFFFF"/>
</g>
</g>
<g id="Group">
<g id="Vector">
<use xlink:href="#path2_fill" transform="translate(-13266.3 2540.44)" fill="#FFFFFF"/>
</g>
</g>
<g id="Group">
<g id="Vector">
<use xlink:href="#path3_fill" transform="translate(-13280.2 2539.85)" fill="#FFFFFF"/>
</g>
</g>
<g id="Group">
<g id="Vector">
<use xlink:href="#path4_fill" transform="translate(-13280.2 2539.86)" fill="#FFFFFF"/>
</g>
</g>
<g id="Group">
<g id="Vector">
<use xlink:href="#path5_fill" transform="translate(-13280.2 2539.87)" fill="#FFFFFF"/>
</g>
</g>
<g id="Group">
<g id="Group">
<g id="Group">
<g id="Group">
<g id="Vector">
<use xlink:href="#path6_fill" transform="matrix(0.392298 0 0 0.392298 -13262.2 2544.41)" fill="#FFFFFF"/>
</g>
<g id="Vector">
<use xlink:href="#path7_fill" transform="matrix(0.392298 0 0 0.392298 -13262.4 2544.22)" fill="#FFFFFF"/>
</g>
</g>
</g>
</g>
</g>
<g id="Group">
<g id="Group">
<g id="Vector">
<use xlink:href="#path8_fill" transform="translate(-13289.7 2524.35)" fill="#FFFFFF"/>
</g>
<g id="Vector">
<use xlink:href="#path9_fill" transform="translate(-13290.1 2524)" fill="#FFFFFF"/>
</g>
</g>
</g>
</g>
</g>
<defs>
<path id="path0_fill" d="M 10.7263 11.3042C 10.5854 11.3042 10.4445 11.2337 10.3036 11.1632L 0.158517 1.00521C -0.0528385 0.793589 -0.0528385 0.370342 0.158517 0.158718C 0.369872 -0.0529061 0.792581 -0.0529061 1.00394 0.158718L 11.149 10.3167C 11.3603 10.5283 11.3603 10.9515 11.149 11.1632C 11.0081 11.2337 10.8672 11.3042 10.7263 11.3042Z"/>
<path id="path1_fill" d="M 5.08602 1.63597C 5.01557 1.63597 5.01557 1.63597 5.08602 1.63597L 0.506661 1.14218C 0.154402 1.07163 -0.0569533 0.78947 0.0134984 0.507304C 0.0839501 0.154598 0.365757 -0.0570249 0.647564 0.0135164L 5.15647 0.507304C 5.50873 0.577846 5.72009 0.860011 5.64964 1.14218C 5.64964 1.42434 5.36783 1.63597 5.08602 1.63597Z"/>
<path id="path2_fill" d="M 0.563613 5.07897C 0.211354 5.07897 -5.37504e-07 4.79681 -5.37504e-07 4.51464L -5.37504e-07 0.564331C -5.37504e-07 0.211624 0.281806 -5.38187e-07 0.563613 -5.38187e-07C 0.915871 -5.38187e-07 1.12723 0.282165 1.12723 0.564331L 1.12723 4.51464C 1.12723 4.86735 0.845419 5.07897 0.563613 5.07897Z"/>
<path id="path3_fill" d="M 10.7263 11.3042C 10.5854 11.3042 10.4445 11.2337 10.3036 11.1632L 0.158516 1.00521C -0.0528389 0.793589 -0.0528389 0.370342 0.158516 0.158718C 0.369871 -0.0529054 0.792582 -0.0529054 1.00394 0.158718L 11.149 10.3167C 11.3603 10.5283 11.3603 10.9515 11.149 11.1632C 11.0785 11.2337 10.8672 11.3042 10.7263 11.3042Z"/>
<path id="path4_fill" d="M 5.08602 1.63596C 5.08602 1.63596 5.01557 1.63596 5.08602 1.63596L 0.506661 1.14218C 0.154402 1.07164 -0.056953 0.78947 0.0134987 0.507305C 0.0839504 0.154599 0.365757 -0.0570255 0.647564 0.0135158L 5.15647 0.507305C 5.50873 0.577847 5.72009 0.860011 5.64964 1.14218C 5.64964 1.42434 5.36783 1.63596 5.08602 1.63596Z"/>
<path id="path5_fill" d="M 0.563614 5.07897C 0.211355 5.07897 1.25147e-15 4.79681 1.25147e-15 4.51464L 1.25147e-15 0.56433C 1.25147e-15 0.211623 0.281807 2.50613e-15 0.563614 2.50613e-15C 0.915872 2.50613e-15 1.12723 0.282165 1.12723 0.56433L 1.12723 4.51464C 1.12723 4.79681 0.915872 5.07897 0.563614 5.07897Z"/>
<path id="path6_fill" d="M 8.73603 0.070537C 8.10196 0.070537 7.6088 0.56433 7.67925 1.1992L 7.67925 6.06655L 4.93162 6.06655C 4.86117 6.06655 4.79073 6.06655 4.72027 6.06655C 4.64982 6.06655 4.57936 6.06655 4.57936 6.06655L 1.19769 6.06655C 0.563622 6.06655 0.0704345 6.56033 0.0704345 7.12466C 0.0704345 7.689 0.563596 8.25333 1.12721 8.25333L 3.59302 8.25333L 3.59302 35.835L 1.12721 35.835C 0.493145 35.835 0 36.3288 0 36.8931C 0 37.528 0.493162 38.0218 1.05678 38.0218C 1.05678 38.0218 1.05676 38.0218 1.12721 38.0218L 7.60878 38.0218L 7.60878 42.6775C 7.60878 43.3123 8.10196 43.8061 8.73603 43.8061C 9.3701 43.8061 9.86324 43.3123 9.86324 42.6775L 9.86324 38.0218L 11.8359 38.0218L 13.7381 38.0218L 13.7381 42.6775C 13.7381 43.3123 14.2312 43.8061 14.8653 43.8061C 15.4994 43.8061 15.9925 43.3123 15.9925 42.6775L 15.9925 38.0218C 20.9242 37.8101 24.8694 33.7893 24.8694 28.9219C 24.8694 24.9716 22.3332 21.6562 18.8106 20.3864C 20.7128 18.9051 21.9105 16.5772 21.9105 13.9672C 21.9105 10.2285 19.3742 7.05413 15.9925 6.20764L 15.9925 1.12866C 15.9925 0.493785 15.4994 -8.611e-06 14.9358 -8.611e-06C 14.3017 -8.611e-06 13.8085 0.493785 13.879 1.12866L 13.879 5.996L 10.0746 5.996L 10.0746 1.12866C 9.86323 0.564326 9.3701 0.070537 8.73603 0.070537ZM 5.77705 8.25333L 13.879 8.25333C 17.0493 8.25333 19.5856 10.8634 19.5856 14.0377C 19.5856 17.2826 17.0493 19.8221 13.879 19.8221L 5.77705 19.8221L 5.77705 8.25333ZM 5.77705 22.0794L 15.4289 22.0794C 19.3742 22.0794 22.5445 25.1832 22.5445 28.9925C 22.5445 32.8017 19.3742 35.9055 15.4289 35.9055L 14.2313 35.9055L 11.7654 35.9055L 5.77705 35.9055L 5.77705 22.0794Z"/>
<path id="path7_fill" d="M 15.2176 44.8643C 14.3017 44.8643 13.5972 44.1588 13.5972 43.2418L 13.5972 39.1504L 10.8496 39.1504L 10.8496 43.2418C 10.8496 44.1588 10.145 44.8643 9.22917 44.8643C 8.3133 44.8643 7.60879 44.1588 7.60879 43.2418L 7.60879 39.1504L 1.69083 39.1504L 1.6204 39.1504C 0.704526 39.1504 1.72001e-05 38.3745 1.72001e-05 37.4574C 1.72001e-05 36.5404 0.77496 35.835 1.69083 35.835L 3.59304 35.835L 3.59304 9.31144L 1.69083 9.31144C 1.26812 9.31144 0.845429 9.09983 0.563622 8.81766C 0.281815 8.5355 0.0704517 8.11224 0.0704517 7.61845C 0.0704517 6.70142 0.845412 5.99601 1.69083 5.99601L 5.00207 5.99601C 5.07252 5.99601 5.14297 5.99601 5.21342 5.99601C 5.28387 5.99601 5.35434 5.99601 5.49524 5.99601L 7.67923 5.99601L 7.67923 1.69299C 7.67923 0.775954 8.38374 0.0705456 9.29961 4.3055e-06L 9.37009 4.3055e-06C 10.286 4.3055e-06 10.9905 0.775954 10.9905 1.69299L 10.9905 5.99601L 13.7381 5.99601L 13.7381 1.69299C 13.7381 0.775954 14.4426 0.0705456 15.3585 4.3055e-06L 15.4289 4.3055e-06C 16.3448 4.3055e-06 17.0493 0.775954 17.0493 1.69299L 17.0493 6.41926C 20.5719 7.54793 22.9673 10.8633 22.9673 14.602C 22.9673 17.0004 21.9809 19.1872 20.2901 20.8097C 23.6718 22.4321 25.8558 25.8181 25.8558 29.4863C 25.8558 34.4947 21.9809 38.5861 16.9789 39.0799L 16.9789 43.1713C 16.838 44.1588 16.063 44.8643 15.2176 44.8643ZM 9.72235 38.0218L 14.654 38.0218L 14.654 43.1713C 14.654 43.4534 14.9358 43.7356 15.2176 43.7356C 15.4994 43.7356 15.7812 43.4534 15.7812 43.1713L 15.7812 38.0218L 16.2743 38.0218C 20.9946 37.8101 24.6581 34.0714 24.6581 29.4863C 24.6581 25.9592 22.3332 22.7143 18.9515 21.4445L 18.0356 21.0918L 18.8106 20.5275C 20.6423 19.1167 21.6991 16.9299 21.6991 14.5315C 21.6991 11.075 19.4447 8.11224 16.1334 7.26575L 15.7107 7.1952L 15.7107 1.69299C 15.7107 1.34028 15.4289 1.12867 15.1471 1.12867C 14.8653 1.12867 14.5835 1.41083 14.5835 1.69299L 14.5835 7.12468L 9.65187 7.12468L 9.65187 1.69299C 9.65187 1.34028 9.37007 1.12867 9.08826 1.12867C 8.80646 1.12867 8.52466 1.41083 8.52466 1.69299L 8.52466 7.12468L 5.14298 7.12468L 5.07251 7.12468L 5.00207 7.12468L 4.93164 7.12468L 1.54992 7.12468C 1.19766 7.12468 0.986315 7.40683 0.986315 7.689C 0.986315 7.83008 1.05678 7.97117 1.12723 8.11225C 1.26813 8.25333 1.40902 8.25332 1.54992 8.25332L 4.5089 8.25332L 4.5089 36.9636L 1.54992 36.9636C 1.19766 36.9636 0.986315 37.1752 0.986315 37.528C 0.986315 37.8101 1.19766 38.0923 1.54992 38.0923L 8.59509 38.0923L 8.59509 43.2418C 8.59509 43.524 8.87693 43.8061 9.15874 43.8061C 9.44055 43.8061 9.72235 43.524 9.72235 43.2418L 9.72235 38.0218ZM 15.8517 36.9636L 14.654 36.9636L 5.63615 36.9636L 5.63615 22.15L 15.8517 22.15C 20.0788 22.15 23.4604 25.4654 23.4604 29.5568C 23.5309 33.5777 20.0788 36.9636 15.8517 36.9636ZM 6.76336 35.835L 14.7244 35.835L 15.9221 35.835C 19.5151 35.835 22.4741 33.0133 22.4741 29.4863C 22.4741 25.9592 19.5151 23.1375 15.9221 23.1375L 6.76336 23.1375L 6.76336 35.835ZM 14.3017 20.9508L 5.70659 20.9508L 5.70659 8.25332L 14.3721 8.25332C 17.8243 8.25332 20.5719 11.075 20.5719 14.602C 20.5719 18.0586 17.7538 20.9508 14.3017 20.9508ZM 6.76336 19.8221L 14.3721 19.8221C 17.1902 19.8221 19.5151 17.4237 19.5151 14.5315C 19.5151 11.6393 17.1902 9.24092 14.3721 9.24092L 6.76336 9.24092L 6.76336 19.8221Z"/>
<path id="path8_fill" d="M 8.80646 11.0044C 8.52466 11.3571 8.0315 11.7099 7.32698 11.992C 6.62246 12.2742 5.70659 12.4858 4.64981 12.4858C 3.24078 12.4858 2.11355 11.992 1.26813 11.0044C 0.42271 10.0169 -4.69303e-16 8.74712 -4.69303e-16 7.12467L -4.69303e-16 5.14951C -4.69303e-16 3.59761 0.42271 2.3984 1.26813 1.41083C 2.11355 0.423248 3.17033 0 4.50891 0C 5.77704 0 6.83382 0.352706 7.53833 0.987578C 8.3133 1.62245 8.66556 2.53949 8.66556 3.52706L 8.66556 3.59761L 8.3133 3.59761C 8.24285 2.68057 7.89059 1.90461 7.25653 1.34028C 6.69291 0.775954 5.77704 0.493789 4.57936 0.493789C 3.31123 0.493789 2.32491 0.917037 1.62039 1.76353C 0.84542 2.68057 0.493162 3.80923 0.493162 5.14951L 0.493162 7.12467C 0.493162 8.53549 0.84542 9.7347 1.62039 10.6517C 2.39536 11.5688 3.38168 11.992 4.64981 11.992C 5.56569 11.992 6.34065 11.8509 6.97472 11.5688C 7.60878 11.2866 8.10195 11.0044 8.3133 10.7223L 8.3133 7.19521L 4.64981 7.19521L 4.64981 6.77196L 8.80646 6.77196L 8.80646 11.0044Z"/>
<path id="path9_fill" d="M 5.07252 13.2618C 3.52259 13.2618 2.32491 12.6974 1.40903 11.6393C 0.493162 10.5812 0 9.17037 0 7.54792L 0 5.50222C 0 3.87977 0.42271 2.53949 1.33858 1.55191C 2.25445 0.493789 3.45213 0 4.93162 0C 6.2702 0 7.39743 0.352706 8.24285 1.05812C 9.08827 1.76353 9.51098 2.75111 9.51098 3.87977L 9.51098 3.95031L 9.37008 4.30302L 8.38375 4.30302L 8.38375 3.95031C 8.3133 3.10382 8.0315 2.46894 7.46788 1.90461C 6.83382 1.48137 5.9884 1.1992 4.93162 1.1992C 3.80439 1.1992 2.95897 1.55191 2.25445 2.3984C 1.54994 3.17436 1.19768 4.23248 1.19768 5.50222L 1.19768 7.47738C 1.19768 8.81766 1.54994 9.94632 2.25445 10.7223C 2.95897 11.5688 3.87484 11.9215 5.00207 11.9215C 5.84749 11.9215 6.55201 11.7804 7.18607 11.5688C 7.82014 11.3571 8.10195 11.075 8.3133 10.9339L 8.3133 7.90062L 4.64981 7.90062L 4.64981 6.77196L 9.58143 6.77196L 9.58143 11.4982L 9.51098 11.5688C 9.15872 11.992 8.66556 12.4153 7.89059 12.6974C 7.11562 13.0501 6.1293 13.2618 5.07252 13.2618Z"/>
</defs>
</svg>
