<svg width="41" height="40" viewBox="0 0 41 40" version="1.1" xmlns="http://www.w3.org/2000/svg" xmlns:xlink="http://www.w3.org/1999/xlink">
<title>Group</title>
<desc>Created using Figma</desc>
<g id="Canvas" transform="translate(13295 -2163)">
<g id="Group">
<g id="Group">
<g id="Group">
<g id="Vector">
<use xlink:href="#path0_fill" transform="translate(-13294.3 2163)" fill="#FFFFFF"/>
</g>
</g>
<g id="Group">
<g id="Vector">
<use xlink:href="#path1_fill" transform="translate(-13290.6 2167.57)" fill="#FFFFFF"/>
</g>
</g>
</g>
</g>
</g>
<defs>
<path id="path0_fill" d="M 39.453 6.8425C 39.3121 6.70142 39.1007 6.63088 38.9598 6.70142C 37.903 6.91305 36.7758 6.98359 35.6486 6.98359C 29.942 6.98359 24.4467 4.58518 20.2901 0.211624C 20.1492 0.0705413 20.0083 0 19.8674 0C 19.7265 0 19.5151 0.0705413 19.4447 0.211624C 15.2176 4.51464 9.72234 6.91305 4.01575 6.91305C 2.95897 6.91305 1.83174 6.8425 0.704517 6.70142C 0.493162 6.70142 0.352259 6.70142 0.211355 6.8425C 0.0704517 6.98359 0 7.12467 0 7.33629C 0.211355 13.4028 1.40903 18.9051 3.52259 23.6313C 5.21343 27.4406 7.46788 30.756 10.2155 33.5071C 14.9358 38.2334 19.5151 39.6442 19.7265 39.6442C 19.7969 39.6442 19.8674 39.6442 19.9378 39.6442C 20.0083 39.6442 20.0787 39.6442 20.1492 39.6442C 20.3605 39.5737 24.8695 38.1628 29.6602 33.5071C 32.4078 30.756 34.6622 27.4406 36.3531 23.6313C 38.3962 18.9051 39.5939 13.4028 39.8757 7.33629C 39.6643 7.12467 39.5939 6.98359 39.453 6.8425ZM 28.6738 32.5901C 24.6581 36.5404 20.7128 38.0923 19.8674 38.445C 19.022 38.1628 15.0767 36.6109 11.1314 32.6606C 6.97472 28.5692 1.97265 20.9508 1.26813 8.04171C 2.184 8.18279 3.09988 8.18279 4.01575 8.18279C 7.04517 8.18279 10.0041 7.54792 12.8927 6.27817C 15.4994 5.14951 17.8243 3.52706 19.8674 1.48137C 21.9105 3.52706 24.2354 5.14951 26.7717 6.27817C 29.5897 7.54792 32.6191 8.18279 35.6486 8.18279C 36.5644 8.18279 37.4803 8.11225 38.3962 8.04171C 37.6917 20.9508 32.76 28.4987 28.6738 32.5901Z"/>
<path id="path1_fill" d="M 16.5562 0.158718C 16.3448 -0.0529061 15.9925 -0.0529061 15.7812 0.158718C 11.3427 3.75632 6.1293 5.66094 0.634065 5.73148C 0.42271 5.73148 0.281807 5.80202 0.140903 5.9431C 6.29887e-08 6.08418 -1.34376e-07 6.22527 -1.34376e-07 6.43689C 0.493162 10.4577 1.40903 14.1964 2.81807 17.4413C 4.29755 20.8273 6.19975 23.79 8.66556 26.259C 11.5541 29.2217 14.4426 30.7736 15.9221 31.4085C 15.9925 31.479 16.063 31.479 16.2039 31.479C 16.3448 31.479 16.3448 31.479 16.4857 31.4085C 17.7538 30.8442 20.2196 29.5744 22.8264 27.1055C 23.1082 26.8939 23.1082 26.4706 22.8264 26.1884C 22.615 25.9063 22.1923 25.9063 21.9105 26.1884C 19.5856 28.3047 17.4016 29.5039 16.1334 30.1388C 14.654 29.4333 12.1177 28.0225 9.51098 25.342C 7.18608 23.0141 5.35433 20.1219 3.9453 16.877C 2.67717 13.9143 1.76129 10.5283 1.33858 6.93068C 6.69291 6.71906 11.8359 4.81444 16.1334 1.35792C 20.5014 4.81444 25.574 6.71906 30.9283 6.93068C 30.4351 10.5988 29.5897 13.9143 28.3216 16.877C 27.1239 19.6987 25.5035 22.2381 23.6013 24.4249C 23.39 24.7071 23.39 25.0598 23.6718 25.342C 23.9536 25.5536 24.3058 25.5536 24.5876 25.2714C 26.5603 23.0141 28.2511 20.3335 29.5193 17.3708C 30.9283 14.1259 31.8442 10.3872 32.3373 6.36635C 32.3373 6.15473 32.2669 6.01364 32.1964 5.87256C 32.0555 5.73148 31.9146 5.66094 31.7033 5.66094C 26.208 5.73148 20.9946 3.75632 16.5562 0.158718Z"/>
</defs>
</svg>
