<svg width="35" height="35" viewBox="0 0 35 35" version="1.1" xmlns="http://www.w3.org/2000/svg" xmlns:xlink="http://www.w3.org/1999/xlink">
<title>Group</title>
<desc>Created using Figma</desc>
<g id="Canvas" transform="translate(13289 -2374)">
<g id="Group">
<g id="Group">
<g id="Vector">
<use xlink:href="#path0_fill" transform="translate(-13287.3 2375.11)" fill="#FFFFFF"/>
</g>
</g>
<g id="Group">
<g id="Vector">
<use xlink:href="#path1_fill" transform="translate(-13288.2 2374)" fill="#FFFFFF"/>
</g>
</g>
<g id="Group">
<g id="Vector">
<use xlink:href="#path2_fill" transform="translate(-13270.3 2392.62)" fill="#FFFFFF"/>
</g>
</g>
</g>
</g>
<defs>
<path id="path0_fill" d="M 0.581227 31.9728C 0.440323 31.9728 0.29942 31.9023 0.158516 31.8318C -0.0528388 31.6201 -0.0528388 31.1969 0.158516 30.9853L 29.6778 0.158718C 29.8891 -0.052906 30.3118 -0.052906 30.5232 0.158718C 30.7346 0.370342 30.7346 0.793589 30.5232 1.00521L 1.00394 31.7612C 0.933485 31.9023 0.792582 31.9728 0.581227 31.9728Z"/>
<path id="path1_fill" d="M 7.74969 15.5191C 3.45213 15.5191 -6.7188e-08 11.992 -6.7188e-08 7.75954C -6.7188e-08 3.45652 3.52259 -1.68184e-08 7.74969 -1.68184e-08C 12.0472 -1.68184e-08 15.4994 3.52706 15.4994 7.75954C 15.4994 11.992 11.9768 15.5191 7.74969 15.5191ZM 7.74969 1.12866C 4.0862 1.12866 1.12723 4.09139 1.12723 7.75954C 1.12723 11.4277 4.0862 14.3904 7.74969 14.3904C 11.4132 14.3904 14.3721 11.4277 14.3721 7.75954C 14.3721 4.09139 11.3427 1.12866 7.74969 1.12866Z"/>
<path id="path2_fill" d="M 7.74969 15.5191C 3.45213 15.5191 0 11.992 0 7.75954C 0 3.52706 3.52259 -5.38187e-07 7.74969 -5.38187e-07C 11.9768 -5.38187e-07 15.4994 3.52706 15.4994 7.75954C 15.4994 11.992 12.0472 15.5191 7.74969 15.5191ZM 7.74969 1.05812C 4.0862 1.05812 1.12723 4.02085 1.12723 7.689C 1.12723 11.3571 4.0862 14.3199 7.74969 14.3199C 11.4132 14.3199 14.3722 11.3571 14.3722 7.689C 14.3722 4.02085 11.4132 1.05812 7.74969 1.05812Z"/>
</defs>
</svg>
