<svg width="40" height="37" viewBox="0 0 40 37" version="1.1" xmlns="http://www.w3.org/2000/svg" xmlns:xlink="http://www.w3.org/1999/xlink">
<title>Group</title>
<desc>Created using Figma</desc>
<g id="Canvas" transform="translate(13735 -2163)">
<g id="Group">
<g id="Group">
<g id="Group">
<g id="Vector">
<use xlink:href="#path0_fill" transform="translate(-13717.7 2191.85)" fill="#FFFFFF"/>
</g>
</g>
<g id="Group">
<g id="Vector">
<use xlink:href="#path1_fill" transform="translate(-13735 2166.6)" fill="#FFFFFF"/>
</g>
</g>
<g id="Group">
<g id="Vector">
<use xlink:href="#path2_fill" transform="translate(-13729 2163)" fill="#FFFFFF"/>
</g>
</g>
</g>
</g>
</g>
<defs>
<path id="path0_fill" d="M 4.43846 1.07637e-06L 0.634065 1.07637e-06C 0.281807 1.07637e-06 2.68752e-07 0.282165 2.68752e-07 0.634871C 2.68752e-07 0.987577 0.281807 1.26974 0.634065 1.26974L 4.43846 1.26974C 4.79072 1.26974 5.07252 0.987577 5.07252 0.634871C 5.07252 0.282165 4.79072 1.07637e-06 4.43846 1.07637e-06Z"/>
<path id="path1_fill" d="M 39.5939 28.3576L 39.5939 28.2871L 39.5939 28.2165L 39.5939 28.146L 36.0713 21.5151L 36.0713 4.23248C 36.0713 3.87977 35.7895 3.59761 35.4372 3.59761C 35.085 3.59761 34.8031 3.87977 34.8031 4.23248L 34.8031 21.0213L 4.79072 21.0213L 4.79072 3.17436C 4.79072 2.11624 5.63614 1.26974 6.69291 1.26974L 31.8442 1.26974C 32.1964 1.26974 32.4782 0.987578 32.4782 0.634871C 32.4782 0.282165 32.1964 -6.72734e-08 31.8442 -6.72734e-08L 6.69291 -6.72734e-08C 4.93162 -6.72734e-08 3.52259 1.41083 3.52259 3.17436L 3.52259 21.5151L 1.04981e-09 28.146L 1.04981e-09 28.2165L 1.04981e-09 28.2871L 1.04981e-09 28.3576L 1.04981e-09 28.4281L 1.04981e-09 29.6979C 1.04981e-09 31.4614 1.40903 32.8722 3.17033 32.8722L 36.494 32.8722C 38.2553 32.8722 39.6643 31.4614 39.6643 29.6979L 39.5939 28.3576ZM 4.50891 22.291L 35.0145 22.291L 37.903 27.7933L 1.62039 27.7933L 4.50891 22.291ZM 36.4235 31.6025L 3.09988 31.6025C 2.0431 31.6025 1.19768 30.756 1.19768 29.6979L 1.19768 29.063L 38.3257 29.063L 38.3257 29.6979C 38.3257 30.6855 37.4803 31.6025 36.4235 31.6025Z"/>
<path id="path2_fill" d="M 29.5897 1.26974L 31.4215 1.26974L 16.3448 16.3656L 11.695 11.7099C 11.4132 11.4277 11.0609 11.4277 10.7791 11.7099L 0.211355 22.2205C -0.070452 22.5027 -0.070452 22.8554 0.211355 23.1375C 0.352258 23.2786 0.493162 23.3492 0.634065 23.3492C 0.774969 23.3492 0.986324 23.2786 1.05678 23.1375L 11.1314 13.0501L 15.7812 17.7059C 16.063 17.988 16.4152 17.988 16.6971 17.7059L 32.3373 2.18678L 32.3373 4.02085C 32.3373 4.37356 32.6191 4.65572 32.9714 4.65572C 33.3237 4.65572 33.6055 4.37356 33.6055 4.02085L 33.6055 0.634871C 33.6055 0.282165 33.3237 0 32.9714 0L 29.5897 0C 29.2375 0 28.9557 0.282165 28.9557 0.634871C 28.9557 0.987578 29.2375 1.26974 29.5897 1.26974Z"/>
</defs>
</svg>
