<svg width="37" height="37" viewBox="0 0 37 37" version="1.1" xmlns="http://www.w3.org/2000/svg" xmlns:xlink="http://www.w3.org/1999/xlink">
<title>Group</title>
<desc>Created using Figma</desc>
<g id="Canvas" transform="translate(12806 -2524)">
<g id="Group">
<g id="Group">
<g id="Group">
<g id="Vector">
<use xlink:href="#path0_fill" transform="translate(-12802.5 2533.81)" fill="#FFFFFF"/>
</g>
</g>
</g>
<g id="Group">
<g id="Vector">
<use xlink:href="#path1_fill" transform="translate(-12805.1 2524)" fill="#FFFFFF"/>
</g>
</g>
<g id="Group">
<g id="Vector">
<use xlink:href="#path2_fill" transform="translate(-12805.2 2558.99)" fill="#FFFFFF"/>
</g>
</g>
</g>
</g>
<defs>
<path id="path0_fill" d="M 29.5897 1.26974L 31.4215 1.26974L 16.2743 16.4361L 11.6245 11.7804C 11.3427 11.4982 10.9905 11.4982 10.7087 11.7804L 0.211355 22.291C -0.0704518 22.5732 -0.0704518 22.9259 0.211355 23.2081C 0.352259 23.2786 0.493162 23.3492 0.634065 23.3492C 0.774969 23.3492 0.986324 23.2786 1.05678 23.1375L 11.1314 13.0501L 15.7812 17.7059C 16.063 17.988 16.4152 17.988 16.6971 17.7059L 32.2669 2.18678L 32.2669 4.02085C 32.2669 4.37356 32.5487 4.65572 32.901 4.65572C 33.2532 4.65572 33.535 4.37356 33.535 4.02085L 33.535 0.634872C 33.535 0.282165 33.2532 -2.69094e-07 32.901 -2.69094e-07L 29.5193 -2.69094e-07C 29.167 -2.69094e-07 28.8852 0.282165 28.8852 0.634872C 28.8852 0.987578 29.2375 1.26974 29.5897 1.26974Z"/>
<path id="path1_fill" d="M 0.563614 36.1171C 0.211355 36.1171 1.04981e-09 35.835 1.04981e-09 35.5528L 1.04981e-09 0.56433C 1.04981e-09 0.282165 0.281807 0 0.563614 0C 0.845421 0 1.12723 0.282165 1.12723 0.56433L 1.12723 35.4823C 1.19768 35.835 0.915872 36.1171 0.563614 36.1171Z"/>
<path id="path2_fill" d="M 35.4372 1.12866L 0.563614 1.12866C 0.211355 1.12866 0 0.846496 0 0.564331C 0 0.211625 0.281807 -1.07637e-06 0.563614 -1.07637e-06L 35.4372 -1.07637e-06C 35.7895 -1.07637e-06 36.0008 0.282166 36.0008 0.564331C 36.0713 0.846496 35.7895 1.12866 35.4372 1.12866Z"/>
</defs>
</svg>
