<svg width="41" height="37" viewBox="0 0 41 37" version="1.1" xmlns="http://www.w3.org/2000/svg" xmlns:xlink="http://www.w3.org/1999/xlink">
<title>Group</title>
<desc>Created using Figma</desc>
<g id="Canvas" transform="translate(12810 -2048)">
<g id="Group">
<g id="Group">
<g id="Group">
<g id="Vector">
<use xlink:href="#path0_fill" transform="translate(-12797 2053.93)" fill="#FFFFFF"/>
</g>
</g>
<g id="Group">
<g id="Vector">
<use xlink:href="#path1_fill" transform="translate(-12809.4 2048)" fill="#FFFFFF"/>
</g>
</g>
</g>
<g id="Group">
<g id="Vector">
<use xlink:href="#path2_fill" transform="translate(-12791.5 2061.54)" fill="#FFFFFF"/>
</g>
</g>
</g>
</g>
<defs>
<path id="path0_fill" d="M 14.0199 3.87977L 10.92 3.87977L 10.92 3.5976C 10.92 1.62245 9.29963 -2.69094e-07 7.32698 -2.69094e-07C 5.35433 -2.69094e-07 3.73394 1.62245 3.73394 3.5976L 3.73394 3.87977L 0.634066 3.87977C 0.281807 3.87977 5.37504e-07 4.16194 5.37504e-07 4.51464L 5.37504e-07 16.6477C 5.37504e-07 17.0004 0.281807 17.2826 0.634066 17.2826L 13.9494 17.2826C 14.3017 17.2826 14.5835 17.0004 14.5835 16.6477L 14.5835 4.51464C 14.654 4.16194 14.3721 3.87977 14.0199 3.87977ZM 5.07252 3.5976C 5.07252 2.32786 6.1293 1.26974 7.39743 1.26974C 8.66556 1.26974 9.72234 2.32786 9.72234 3.5976L 9.72234 3.87977L 5.07252 3.87977L 5.07252 3.5976ZM 13.3858 9.09982L 13.3858 15.9423L 1.33858 15.9423L 1.33858 9.09982L 1.33858 5.07897L 3.80439 5.07897L 5.07252 5.07897L 9.72234 5.07897L 10.9905 5.07897L 13.4563 5.07897L 13.4563 9.09982L 13.3858 9.09982Z"/>
<path id="path1_fill" d="M 38.1848 0L 1.54994 0C 0.704517 0 0 0.705413 0 1.48137L 0 29.2746C 0 30.1211 0.704517 30.756 1.47949 30.756L 15.288 30.756L 15.288 35.6233L 9.29963 35.6233C 8.94737 35.6233 8.66556 35.9055 8.66556 36.2582C 8.66556 36.6109 8.94737 36.8931 9.29963 36.8931L 30.2942 36.8931C 30.6465 36.8931 30.9283 36.6109 30.9283 36.2582C 30.9283 35.9055 30.6465 35.6233 30.2942 35.6233L 24.3058 35.6233L 24.3058 30.756L 38.1144 30.756C 38.9598 30.756 39.5939 30.0506 39.5939 29.2746L 39.5939 1.48137C 39.6643 0.705413 39.0303 0 38.1848 0ZM 23.1082 35.6939L 16.6266 35.6939L 16.6266 30.8265L 23.1082 30.8265L 23.1082 35.6939ZM 38.3962 29.3452C 38.3962 29.4863 38.2553 29.5568 38.1848 29.5568L 1.54994 29.5568C 1.40903 29.5568 1.33858 29.4157 1.33858 29.3452L 1.33858 1.48137C 1.26813 1.41083 1.40903 1.26974 1.47949 1.26974L 38.1144 1.26974C 38.2553 1.26974 38.3257 1.41083 38.3257 1.48137L 38.3257 29.3452L 38.3962 29.3452Z"/>
<path id="path2_fill" d="M 1.97265 1.12866C 2.39536 1.12866 2.74762 1.48137 2.74762 1.90461C 2.74762 2.18678 2.60671 2.46894 2.32491 2.61003C 2.25446 2.61003 2.25445 2.68057 2.25445 2.75111L 2.25445 4.30302C 2.25445 4.4441 2.11355 4.58518 1.97265 4.58518C 1.83174 4.58518 1.69084 4.4441 1.69084 4.30302L 1.69084 2.75111C 1.69084 2.68057 1.62039 2.61003 1.62039 2.61003C 1.40903 2.46894 1.19768 2.25732 1.19768 1.90461C 1.12723 1.48137 1.47949 1.12866 1.97265 1.12866ZM 1.97265 5.38187e-07C 0.915873 5.38187e-07 -2.68752e-07 0.917037 -2.68752e-07 1.97516C -2.68752e-07 2.46894 0.211355 2.89219 0.493162 3.2449L 0.493162 4.37356C 0.493162 5.22005 1.12723 5.85493 1.97265 5.85493C 2.81807 5.85493 3.45213 5.22005 3.45213 4.37356L 3.45213 3.2449C 3.73394 2.89219 3.9453 2.3984 3.9453 1.97516C 3.9453 0.846495 3.02942 5.38187e-07 1.97265 5.38187e-07Z"/>
</defs>
</svg>
