<svg width="41" height="40" viewBox="0 0 41 40" version="1.1" xmlns="http://www.w3.org/2000/svg" xmlns:xlink="http://www.w3.org/1999/xlink">
<title>Group</title>
<desc>Created using Figma</desc>
<g id="Canvas" transform="translate(12810 -2374)">
<g id="Group">
<g id="Group">
<g id="Group">
<g id="Vector">
<use xlink:href="#path0_fill" transform="translate(-12809.4 2374)" fill="#FFFFFF"/>
</g>
</g>
<g id="Group">
<g id="Vector">
<use xlink:href="#path1_fill" transform="translate(-12804.9 2376.54)" fill="#FFFFFF"/>
</g>
</g>
<g id="Group">
<g id="Vector">
<use xlink:href="#path2_fill" transform="translate(-12806.9 2384.23)" fill="#FFFFFF"/>
</g>
</g>
<g id="Group">
<g id="Vector">
<use xlink:href="#path3_fill" transform="translate(-12785.3 2374)" fill="#FFFFFF"/>
</g>
</g>
<g id="Group">
<g id="Vector">
<use xlink:href="#path4_fill" transform="translate(-12780.7 2376.54)" fill="#FFFFFF"/>
</g>
</g>
<g id="Group">
<g id="Vector">
<use xlink:href="#path5_fill" transform="translate(-12780.6 2384.16)" fill="#FFFFFF"/>
</g>
</g>
<g id="Group">
<g id="Vector">
<use xlink:href="#path6_fill" transform="translate(-12797.4 2384.16)" fill="#FFFFFF"/>
</g>
</g>
<g id="Group">
<g id="Vector">
<use xlink:href="#path7_fill" transform="translate(-12792.7 2386.7)" fill="#FFFFFF"/>
</g>
</g>
<g id="Group">
<g id="Vector">
<use xlink:href="#path8_fill" transform="translate(-12794.9 2394.32)" fill="#FFFFFF"/>
</g>
</g>
<g id="Group">
<g id="Vector">
<use xlink:href="#path9_fill" transform="translate(-12777.9 2409.83)" fill="#FFFFFF"/>
</g>
</g>
<g id="Group">
<g id="Vector">
<use xlink:href="#path10_fill" transform="translate(-12781.4 2409.83)" fill="#FFFFFF"/>
</g>
</g>
<g id="Group">
<g id="Vector">
<use xlink:href="#path11_fill" transform="translate(-12774.5 2409.83)" fill="#FFFFFF"/>
</g>
</g>
<g id="Group">
<g id="Vector">
<use xlink:href="#path12_fill" transform="translate(-12809.4 2407.37)" fill="#FFFFFF"/>
</g>
</g>
</g>
</g>
</g>
<defs>
<path id="path0_fill" d="M 1.33858 18.5524L 5.63614 18.5524L 7.18607 21.6562C 7.32698 21.8678 7.53833 22.0089 7.74969 22.0089C 7.96104 22.0089 8.24285 21.8678 8.3133 21.6562L 9.86324 18.5524L 10.145 18.5524C 10.4973 18.5524 10.7791 18.2702 10.7791 17.9175C 10.7791 17.5648 10.4973 17.2826 10.145 17.2826L 9.44053 17.2826C 9.22917 17.2826 8.94737 17.4237 8.87692 17.6353L 7.74969 19.9632L 6.62246 17.6353C 6.48156 17.4237 6.2702 17.2826 6.05885 17.2826L 1.33858 17.2826C 1.26813 17.2826 1.26813 17.2121 1.26813 17.2121L 1.26813 1.34028C 1.26813 1.26974 1.33858 1.26974 1.33858 1.26974L 14.1608 1.26974C 14.2312 1.26974 14.2312 1.34028 14.2312 1.34028L 14.2312 8.18279C 14.2312 8.53549 14.5131 8.81766 14.8653 8.81766C 15.2176 8.81766 15.4994 8.53549 15.4994 8.18279L 15.4994 1.34028C 15.4994 0.634871 14.9358 0 14.1608 0L 1.33858 0C 0.634065 0 0 0.634871 0 1.34028L 0 17.1415C 0 17.9175 0.634065 18.5524 1.33858 18.5524Z"/>
<path id="path1_fill" d="M 3.17033 -6.72734e-08C 1.40903 -6.72734e-08 0 1.41083 0 3.17436C 0 4.93789 1.40903 6.34872 3.17033 6.34872C 4.93162 6.34872 6.34065 4.93789 6.34065 3.17436C 6.34065 1.41083 4.93162 -6.72734e-08 3.17033 -6.72734e-08ZM 3.17033 5.07897C 2.11355 5.07897 1.26813 4.23248 1.26813 3.17436C 1.26813 2.11624 2.11355 1.26974 3.17033 1.26974C 4.2271 1.26974 5.07252 2.11624 5.07252 3.17436C 5.07252 4.23248 4.2271 5.07897 3.17033 5.07897Z"/>
<path id="path2_fill" d="M 5.21343 1.1992C 5.9884 1.1992 6.69291 1.41083 7.32698 1.83407C 7.60878 2.0457 8.0315 1.90461 8.1724 1.62245C 8.3133 1.34028 8.24285 0.917037 7.96104 0.775954C 7.11562 0.282165 6.19975 1.25306e-15 5.21343 1.25306e-15C 2.32491 1.25306e-15 -6.7188e-08 2.32786 -6.7188e-08 5.22005C -6.7188e-08 5.57276 0.281807 5.85493 0.634065 5.85493L 7.67924 5.85493C 8.0315 5.85493 8.3133 5.57276 8.3133 5.22005C 8.3133 4.86735 8.0315 4.58518 7.67924 4.58518L 1.33858 4.58518C 1.62039 2.61003 3.24078 1.1992 5.21343 1.1992Z"/>
<path id="path3_fill" d="M 14.1608 0L 1.33858 0C 0.563614 0 -5.37504e-07 0.634871 -5.37504e-07 1.34028L -5.37504e-07 8.18279C -5.37504e-07 8.53549 0.281807 8.81766 0.634066 8.81766C 0.986324 8.81766 1.26813 8.53549 1.26813 8.18279L 1.26813 1.34028C 1.26813 1.26974 1.33858 1.26974 1.33858 1.26974L 14.1608 1.26974C 14.2312 1.26974 14.2312 1.34028 14.2312 1.34028L 14.2312 17.1415C 14.2312 17.2121 14.1608 17.2121 14.1608 17.2121L 9.51098 17.2121C 9.29963 17.2121 9.01782 17.3532 8.94737 17.5648L 7.82014 19.8926L 6.62246 17.6353C 6.48156 17.4237 6.2702 17.2826 6.05885 17.2826L 5.35433 17.2826C 5.00207 17.2826 4.72026 17.5648 4.72026 17.9175C 4.72026 18.2702 5.00207 18.5524 5.35433 18.5524L 5.63614 18.5524L 7.18607 21.6562C 7.32698 21.8678 7.53833 22.0089 7.74969 22.0089C 7.96104 22.0089 8.24285 21.8678 8.3133 21.6562L 9.86324 18.5524L 14.1608 18.5524C 14.9358 18.5524 15.4994 17.9175 15.4994 17.2121L 15.4994 1.34028C 15.4994 0.634871 14.8653 0 14.1608 0Z"/>
<path id="path4_fill" d="M 3.17033 -6.72734e-08C 1.40903 -6.72734e-08 -5.37504e-07 1.41083 -5.37504e-07 3.17436C -5.37504e-07 4.93789 1.40903 6.34872 3.17033 6.34872C 4.93162 6.34872 6.34065 4.93789 6.34065 3.17436C 6.34065 1.41083 4.93162 -6.72734e-08 3.17033 -6.72734e-08ZM 3.17033 5.07897C 2.11355 5.07897 1.26813 4.23248 1.26813 3.17436C 1.26813 2.11624 2.11355 1.26974 3.17033 1.26974C 4.2271 1.26974 5.07252 2.11624 5.07252 3.17436C 5.07252 4.23248 4.2271 5.07897 3.17033 5.07897Z"/>
<path id="path5_fill" d="M 0 5.22005C 0 5.57276 0.281808 5.85493 0.634066 5.85493L 7.67924 5.85493C 8.0315 5.85493 8.3133 5.57276 8.3133 5.22005C 8.3133 2.32786 5.9884 -2.69094e-07 3.09988 -2.69094e-07C 2.11355 -2.69094e-07 1.12723 0.282165 0.352259 0.775954C 0.0704517 0.987578 5.35404e-07 1.34028 0.140904 1.62245C 0.352259 1.90462 0.704518 1.97516 0.986325 1.83407C 1.62039 1.41083 2.32491 1.1992 3.09988 1.1992C 5.07252 1.1992 6.69291 2.61003 6.97472 4.51464L 0.634066 4.51464C 0.281808 4.58518 0 4.86735 0 5.22005Z"/>
<path id="path6_fill" d="M 2.68752e-07 1.34028L 2.68752e-07 17.1415C 2.68752e-07 17.9175 0.634065 18.4818 1.33858 18.4818L 5.63614 18.4818L 7.18607 21.5856C 7.32698 21.7973 7.53833 21.9383 7.74969 21.9383C 7.96104 21.9383 8.24285 21.7973 8.3133 21.5856L 9.86324 18.4818L 14.1608 18.4818C 14.9358 18.4818 15.4994 17.8469 15.4994 17.1415L 15.4994 1.34028C 15.4994 0.56433 14.8653 -2.69094e-07 14.1608 -2.69094e-07L 1.40903 -2.69094e-07C 0.634066 -2.69094e-07 2.68752e-07 0.56433 2.68752e-07 1.34028ZM 14.3017 1.34028L 14.3017 17.1415C 14.3017 17.2121 14.2312 17.2121 14.2312 17.2121L 9.58143 17.2121C 9.37008 17.2121 9.08827 17.3532 9.01782 17.5648L 7.89059 19.8926L 6.76336 17.5648C 6.62246 17.3532 6.41111 17.2121 6.19975 17.2121L 1.54994 17.2121C 1.47949 17.2121 1.47949 17.1415 1.47949 17.1415L 1.47949 1.34028C 1.47949 1.26974 1.54994 1.26974 1.54994 1.26974L 14.3721 1.26974C 14.2312 1.26974 14.3017 1.26974 14.3017 1.34028Z"/>
<path id="path7_fill" d="M 3.17033 6.34872C 4.93162 6.34872 6.34065 4.93789 6.34065 3.17436C 6.34065 1.41083 4.93162 0 3.17033 0C 1.40903 0 5.37504e-07 1.41083 5.37504e-07 3.17436C 5.37504e-07 4.93789 1.40903 6.34872 3.17033 6.34872ZM 3.17033 1.26974C 4.2271 1.26974 5.07252 2.11624 5.07252 3.17436C 5.07252 4.23248 4.2271 5.07897 3.17033 5.07897C 2.11355 5.07897 1.26813 4.23248 1.26813 3.17436C 1.26813 2.11624 2.11355 1.26974 3.17033 1.26974Z"/>
<path id="path8_fill" d="M 0.634066 5.85493L 9.79279 5.85493C 10.145 5.85493 10.4269 5.57276 10.4269 5.22006C 10.4269 2.32786 8.10195 -5.38187e-07 5.21343 -5.38187e-07C 2.32491 -5.38187e-07 5.37504e-07 2.32786 5.37504e-07 5.22006C 5.37504e-07 5.57276 0.281807 5.85493 0.634066 5.85493ZM 5.28388 1.1992C 7.25653 1.1992 8.87692 2.61003 9.15872 4.51464L 1.33858 4.51464C 1.62039 2.68057 3.31123 1.1992 5.28388 1.1992Z"/>
<path id="path9_fill" d="M 0.704518 1.41083C 1.05678 1.41083 1.40903 1.12866 1.40903 0.705412C 1.40903 0.282165 1.12723 -5.38187e-07 0.704518 -5.38187e-07C 0.352259 -5.38187e-07 5.37504e-07 0.282165 5.37504e-07 0.705412C 5.37504e-07 1.12866 0.352259 1.41083 0.704518 1.41083Z"/>
<path id="path10_fill" d="M 0.704517 1.41083C 1.05678 1.41083 1.40903 1.12866 1.40903 0.705412C 1.40903 0.282165 1.12723 -5.38187e-07 0.704517 -5.38187e-07C 0.281806 -5.38187e-07 -5.37504e-07 0.282165 -5.37504e-07 0.705412C -5.37504e-07 1.12866 0.352258 1.41083 0.704517 1.41083Z"/>
<path id="path11_fill" d="M 0.704516 1.41083C 1.05677 1.41083 1.40903 1.12866 1.40903 0.705412C 1.40903 0.282165 1.12723 -5.38187e-07 0.704516 -5.38187e-07C 0.281806 -5.38187e-07 -1.07501e-06 0.282165 -1.07501e-06 0.705412C -1.07501e-06 1.12866 0.352257 1.41083 0.704516 1.41083Z"/>
<path id="path12_fill" d="M 39.0303 -5.38187e-07L 0.634065 -5.38187e-07C 0.281807 -5.38187e-07 0 0.282166 0 0.634872L 0 5.71384C 0 6.06655 0.281807 6.34871 0.634065 6.34871L 39.0303 6.34871C 39.3825 6.34871 39.6643 6.06655 39.6643 5.71384L 39.6643 0.634872C 39.6643 0.282166 39.3825 -5.38187e-07 39.0303 -5.38187e-07ZM 1.26813 1.26974L 24.6581 1.26974L 24.6581 5.07897L 1.26813 5.07897L 1.26813 1.26974ZM 38.3962 5.07897L 25.9262 5.07897L 25.9262 1.26974L 38.3962 1.26974L 38.3962 5.07897Z"/>
</defs>
</svg>
