<svg width="40" height="36" viewBox="0 0 40 36" version="1.1" xmlns="http://www.w3.org/2000/svg" xmlns:xlink="http://www.w3.org/1999/xlink">
<title>Group</title>
<desc>Created using Figma</desc>
<g id="Canvas" transform="translate(13735 -2048)">
<g id="Group">
<g id="Group">
<g id="Vector">
<use xlink:href="#path0_fill" transform="translate(-13735 2048)" fill="#FFFFFF"/>
</g>
</g>
<g id="Group">
<g id="Vector">
<use xlink:href="#path1_fill" transform="translate(-13703.5 2050.47)" fill="#FFFFFF"/>
</g>
</g>
<g id="Group">
<g id="Vector">
<use xlink:href="#path2_fill" transform="translate(-13707 2050.47)" fill="#FFFFFF"/>
</g>
</g>
<g id="Group">
<g id="Vector">
<use xlink:href="#path3_fill" transform="translate(-13700.1 2050.47)" fill="#FFFFFF"/>
</g>
</g>
<g id="Group">
<g id="Vector">
<use xlink:href="#path4_fill" transform="translate(-13717.1 2069.37)" fill="#FFFFFF"/>
</g>
</g>
<g id="Group">
<g id="Vector">
<use xlink:href="#path5_fill" transform="translate(-13729.4 2060.27)" fill="#FFFFFF"/>
</g>
</g>
</g>
</g>
<defs>
<path id="path0_fill" d="M 39.0303 26.5941C 39.3825 26.5941 39.6643 26.3119 39.6643 25.9592L 39.6643 0.634871C 39.6643 0.282165 39.3825 0 39.0303 0L 0.634065 0C 0.281807 0 0 0.282165 0 0.634871L 0 35.2706C 0 35.6233 0.281807 35.9055 0.634065 35.9055L 39.0303 35.9055C 39.3825 35.9055 39.6643 35.6233 39.6643 35.2706L 39.6643 28.4987C 39.6643 28.146 39.3825 27.8638 39.0303 27.8638C 38.678 27.8638 38.3962 28.146 38.3962 28.4987L 38.3962 34.6358L 1.26813 34.6358L 1.26813 6.34872L 38.3962 6.34872L 38.3962 26.0297C 38.3962 26.3119 38.678 26.5941 39.0303 26.5941ZM 24.6581 5.07897L 1.26813 5.07897L 1.26813 1.26974L 24.6581 1.26974L 24.6581 5.07897ZM 25.9262 5.07897L 25.9262 1.26974L 38.3962 1.26974L 38.3962 5.07897L 25.9262 5.07897Z"/>
<path id="path1_fill" d="M 0.704518 1.41083C 1.09361 1.41083 1.40903 1.095 1.40903 0.705413C 1.40903 0.315824 1.09361 0 0.704518 0C 0.315424 0 0 0.315824 0 0.705413C 0 1.095 0.315424 1.41083 0.704518 1.41083Z"/>
<path id="path2_fill" d="M 0.704517 1.41083C 1.09361 1.41083 1.40903 1.095 1.40903 0.705413C 1.40903 0.315824 1.09361 0 0.704517 0C 0.315423 0 0 0.315824 0 0.705413C 0 1.095 0.315423 1.41083 0.704517 1.41083Z"/>
<path id="path3_fill" d="M 0.704516 1.41083C 1.09361 1.41083 1.40903 1.095 1.40903 0.705413C 1.40903 0.315824 1.09361 0 0.704516 0C 0.315422 0 0 0.315824 0 0.705413C 0 1.095 0.315422 1.41083 0.704516 1.41083Z"/>
<path id="path4_fill" d="M 7.04517 0.211624C 6.76337 -0.070541 6.41111 -0.070541 6.1293 0.211624L 2.74762 3.59761C 2.46581 3.45652 2.25446 3.38598 1.9022 3.38598C 0.845421 3.38598 -2.68752e-07 4.23248 -2.68752e-07 5.2906C -2.68752e-07 6.34871 0.845421 7.19521 1.9022 7.19521C 2.95897 7.19521 3.80439 6.34871 3.80439 5.2906C 3.80439 5.00843 3.73394 4.72626 3.59304 4.4441L 6.97472 1.05812C 7.32698 0.846495 7.32698 0.423248 7.04517 0.211624ZM 1.97265 5.92547C 1.62039 5.92547 1.33858 5.6433 1.33858 5.2906C 1.33858 4.93789 1.62039 4.65573 1.97265 4.65573C 2.32491 4.65573 2.60671 4.93789 2.60671 5.2906C 2.60671 5.6433 2.32491 5.92547 1.97265 5.92547Z"/>
<path id="path5_fill" d="M 22.6855 14.3904C 22.6855 14.7431 22.9673 15.0253 23.3195 15.0253L 27.8284 15.0253C 28.1807 15.0253 28.4625 14.7431 28.4625 14.3904C 28.4625 14.3904 28.4625 14.3904 28.4625 14.3199C 28.4625 10.4401 26.9126 6.91304 24.3763 4.30302L 24.3058 4.23248L 24.2354 4.16193C 21.6287 1.62245 18.1061 -2.69094e-07 14.2312 -2.69094e-07C 10.3564 -2.69094e-07 6.76336 1.55191 4.2271 4.16193L 4.15665 4.23248L 4.0862 4.30302C 1.54994 6.91304 0 10.4401 0 14.3199C 0 14.6726 0.281807 14.9547 0.634065 14.9547L 5.14298 14.9547C 5.49523 14.9547 5.77704 14.6726 5.77704 14.3199C 5.77704 9.59361 9.58143 5.78439 14.3017 5.78439C 19.022 5.78439 22.6855 9.7347 22.6855 14.3904ZM 4.43846 13.7555L 1.19768 13.7555C 1.33858 10.6517 2.60671 7.83008 4.57936 5.6433L 6.90427 7.97116C 5.49523 9.52307 4.57936 11.5688 4.43846 13.7555ZM 13.5972 4.65572C 11.4132 4.79681 9.37008 5.71384 7.82014 7.05413L 5.49523 4.72627C 7.67924 2.75111 10.4973 1.48137 13.5972 1.34028L 13.5972 4.65572ZM 27.1944 13.7555L 23.9536 13.7555C 23.8127 11.5688 22.8968 9.52307 21.5582 7.97116L 23.8831 5.6433C 25.7853 7.83008 27.0535 10.6517 27.1944 13.7555ZM 14.8653 1.41083C 17.9652 1.55191 20.7833 2.82165 22.9673 4.79681L 20.6424 7.12467C 19.0924 5.71384 17.0493 4.86735 14.8653 4.72627L 14.8653 1.41083Z"/>
</defs>
</svg>
