<svg width="41" height="32" viewBox="0 0 41 32" version="1.1" xmlns="http://www.w3.org/2000/svg" xmlns:xlink="http://www.w3.org/1999/xlink">
<title>Group</title>
<desc>Created using Figma</desc>
<g id="Canvas" transform="translate(12811 -2163)">
<g id="Group">
<g id="Group">
<g id="Group">
<g id="Vector">
<use xlink:href="#path0_fill" transform="translate(-12800.4 2171.61)" fill="#FFFFFF"/>
</g>
</g>
<g id="Group">
<g id="Vector">
<use xlink:href="#path1_fill" transform="translate(-12805.1 2167.37)" fill="#FFFFFF"/>
</g>
</g>
<g id="Group">
<g id="Vector">
<use xlink:href="#path2_fill" transform="translate(-12810.1 2163)" fill="#FFFFFF"/>
</g>
</g>
<g id="Group">
<g id="Vector">
<use xlink:href="#path3_fill" transform="translate(-12786.1 2171.61)" fill="#FFFFFF"/>
</g>
</g>
<g id="Group">
<g id="Vector">
<use xlink:href="#path4_fill" transform="translate(-12784.1 2167.37)" fill="#FFFFFF"/>
</g>
</g>
<g id="Group">
<g id="Vector">
<use xlink:href="#path5_fill" transform="translate(-12781.7 2163)" fill="#FFFFFF"/>
</g>
</g>
</g>
</g>
</g>
<defs>
<path id="path0_fill" d="M 5.77704 1.26974C 5.9884 1.1992 6.1293 1.05812 6.19975 0.917037C 6.2702 0.705413 6.2702 0.493789 6.1293 0.352706C 5.9884 0.141082 5.77704 -1.34547e-07 5.56569 -1.34547e-07C 5.49523 -1.34547e-07 5.49523 -1.34547e-07 5.42478 -1.34547e-07C 3.9453 0.352706 2.53626 1.26974 1.54994 2.46894C 0.563614 3.73869 1.34376e-07 5.2906 1.34376e-07 6.91305C 1.34376e-07 8.53549 0.563614 10.0874 1.54994 11.2866C 2.53626 12.4858 3.87484 13.4028 5.42478 13.7555C 5.49523 13.7555 5.49523 13.7555 5.56569 13.7555C 5.84749 13.7555 6.05885 13.6145 6.1293 13.4028C 6.19975 13.1912 6.19975 13.0501 6.1293 12.8385C 6.05885 12.6269 5.91794 12.5563 5.70659 12.4858C 3.09987 11.8509 1.33858 9.52307 1.33858 6.91305C 1.33858 4.16194 3.17033 1.83407 5.77704 1.26974Z"/>
<path id="path1_fill" d="M 8.3133 20.9508C 4.15665 19.4694 1.33858 15.5191 1.33858 11.075C 1.33858 6.77196 4.01575 2.82165 8.0315 1.34028C 8.24285 1.26974 8.38375 1.12866 8.45421 0.917037C 8.52466 0.705413 8.52466 0.56433 8.38375 0.352706C 8.24285 0.141082 8.0315 -1.34547e-07 7.82014 -1.34547e-07C 7.74969 -1.34547e-07 7.67924 1.31393e-07 7.60879 0.0705414C 7.46788 0.141083 7.32698 0.211624 7.18608 0.211624C 5.77704 0.775954 4.50891 1.62245 3.45213 2.75111C 2.39536 3.80923 1.54994 5.07897 0.915872 6.4898C 0.281807 7.97116 -1.34376e-07 9.45253 -1.34376e-07 11.075C -1.34376e-07 12.6974 0.281807 14.1788 0.915872 15.6602C 1.47949 17.071 2.32491 18.3407 3.45213 19.3989C 4.50891 20.457 5.77704 21.3035 7.18608 21.9383C 7.39743 22.0089 7.67924 22.15 7.89059 22.2205C 7.96104 22.2205 8.0315 22.291 8.10195 22.291C 8.38375 22.291 8.59511 22.15 8.66556 21.9383C 8.73601 21.7973 8.73601 21.5856 8.66556 21.374C 8.66556 21.1624 8.52466 21.0213 8.3133 20.9508Z"/>
<path id="path2_fill" d="M 11.1314 29.9095C 5.14298 27.5816 1.33858 21.8678 1.33858 15.4485C 1.33858 9.31145 4.93162 3.73869 10.4973 1.26974C 10.7087 1.1992 10.8496 0.987578 10.8496 0.846495C 10.92 0.634871 10.8496 0.423248 10.7087 0.282165C 10.5678 0.0705413 10.4269 0 10.2155 0C 10.145 0 10.0041 0 9.93369 0.0705413C 8.10195 0.917037 6.41111 2.0457 4.93162 3.52706C 3.38168 5.07897 2.184 6.91305 1.33858 8.8882C 0.493162 11.0044 0 13.1912 0 15.4485C 0 17.7059 0.42271 19.9632 1.33858 22.0089C 2.184 23.984 3.38168 25.8181 4.93162 27.37C 6.48156 28.9219 8.3133 30.1211 10.286 30.9676C 10.4269 31.0382 10.4973 31.0382 10.6382 31.1087C 10.7087 31.1087 10.7791 31.1792 10.8496 31.1792C 11.1314 31.1792 11.3427 31.0382 11.4132 30.8265C 11.4836 30.6855 11.4836 30.4738 11.4132 30.3327C 11.4132 30.1211 11.2723 29.98 11.1314 29.9095Z"/>
<path id="path3_fill" d="M 4.679 11.2866C 5.66532 10.0169 6.22893 8.46495 6.22893 6.91305C 6.22893 5.2906 5.66532 3.73869 4.679 2.46894C 3.69267 1.26974 2.35409 0.352706 0.804151 -1.34547e-07C 0.7337 -1.34547e-07 0.733699 -1.34547e-07 0.663247 -1.34547e-07C 0.451892 -1.34547e-07 0.240538 0.141082 0.0996343 0.352706C 0.0291826 0.56433 -0.0412707 0.775954 0.029181 0.917037C 0.0996327 1.12866 0.240538 1.26974 0.451893 1.26974C 3.05861 1.90461 4.89035 4.23248 4.89035 6.91305C 4.89035 9.59361 3.0586 11.9215 0.522344 12.4858C 0.310988 12.5563 0.170086 12.6974 0.0996343 12.8385C 0.0291826 13.0501 0.0291826 13.1912 0.0996343 13.4028C 0.240538 13.6145 0.451892 13.7555 0.663247 13.7555C 0.733699 13.7555 0.7337 13.7555 0.804151 13.7555C 2.35409 13.3323 3.76312 12.4858 4.679 11.2866Z"/>
<path id="path4_fill" d="M 7.87298 15.6602C 8.50704 14.1788 8.78885 12.6974 8.78885 11.075C 8.78885 9.45253 8.50704 7.97116 7.87298 6.4898C 7.30937 5.07897 6.46394 3.80923 5.33672 2.75111C 4.27994 1.69299 3.01181 0.846495 1.60278 0.211624C 1.46187 0.141083 1.32097 0.0705414 1.18007 0.0705414C 1.10961 0.0705414 1.03916 -1.34547e-07 0.968712 -1.34547e-07C 0.757357 -1.34547e-07 0.546 0.141082 0.405096 0.352706C 0.334645 0.493789 0.264194 0.705413 0.334646 0.917037C 0.405097 1.12866 0.546 1.26974 0.757355 1.34028C 4.7731 2.89219 7.45027 6.77196 7.45027 11.075C 7.45027 15.5191 4.6322 19.4694 0.47555 20.9508C 0.264194 21.0213 0.123289 21.1624 0.0528377 21.3035C -0.017614 21.4445 -0.017614 21.6562 0.0528377 21.8678C 0.193741 22.0794 0.405098 22.2205 0.616454 22.2205C 0.686905 22.2205 0.757356 22.2205 0.827808 22.15C 1.03916 22.0794 1.32097 22.0089 1.53233 21.8678C 2.94136 21.3035 4.20949 20.457 5.26627 19.3283C 6.46394 18.3407 7.30937 17.071 7.87298 15.6602Z"/>
<path id="path5_fill" d="M 10.1979 8.8882C 9.35247 6.91305 8.15479 5.07897 6.60485 3.52706C 5.12536 2.0457 3.43452 0.917037 1.60278 0.0705413C 1.46187 0 1.39142 0 1.32097 0C 1.10961 0 0.96871 0.0705413 0.827807 0.211624C 0.686903 0.352706 0.616454 0.56433 0.686905 0.775954C 0.757357 0.987578 0.89826 1.12866 1.03916 1.1992C 6.60485 3.73869 10.1979 9.31145 10.1979 15.378C 10.1979 21.7973 6.32304 27.5111 0.405097 29.839C 0.264194 29.9095 0.123291 30.0506 0.0528388 30.1917C -0.0176129 30.3328 -0.0176129 30.5444 0.0528388 30.6855C 0.193742 30.8971 0.405097 31.0382 0.616452 31.0382C 0.686904 31.0382 0.757355 31.0382 0.827807 30.9676C 0.96871 30.8971 1.03916 30.8971 1.18007 30.8265C 3.15271 29.98 4.98446 28.7808 6.5344 27.2289C 8.08433 25.677 9.28201 23.843 10.1274 21.8678C 10.9729 19.7516 11.466 17.5648 11.466 15.3075C 11.466 13.0501 11.1138 11.0044 10.1979 8.8882Z"/>
</defs>
</svg>
