<svg width="40" height="39" viewBox="0 0 40 39" version="1.1" xmlns="http://www.w3.org/2000/svg" xmlns:xlink="http://www.w3.org/1999/xlink">
<title>Group</title>
<desc>Created using Figma</desc>
<g id="Canvas" transform="translate(13735 -2374)">
<g id="Group">
<g id="Group">
<g id="Group">
<g id="Vector">
<use xlink:href="#path0_fill" transform="translate(-13735 2374)" fill="#FFFFFF"/>
</g>
</g>
</g>
<g id="Group">
<g id="Group">
<g id="Vector">
<use xlink:href="#path1_fill" transform="translate(-13720.1 2390.86)" fill="#FFFFFF"/>
</g>
<g id="Vector">
<use xlink:href="#path2_fill" transform="translate(-13720.6 2390.51)" fill="#FFFFFF"/>
</g>
</g>
</g>
</g>
</g>
<defs>
<path id="path0_fill" d="M 2.53626 2.61003L 2.53626 6.06655C 2.53626 6.41926 2.81807 6.70142 3.17033 6.70142C 3.52259 6.70142 3.80439 6.41926 3.80439 6.06655L 3.80439 4.86735C 4.2271 5.07897 4.64981 5.22005 5.14298 5.22005L 35.085 5.22005C 35.4372 5.22005 35.719 4.93789 35.719 4.58518C 35.719 4.23248 35.4372 3.95031 35.085 3.95031L 5.14298 3.95031C 4.36801 3.95031 3.80439 3.31544 3.80439 2.61003C 3.80439 1.83407 4.43846 1.26974 5.14298 1.26974L 35.085 1.26974C 36.9167 1.26974 38.3962 2.75111 38.3962 4.58518C 38.3962 6.41926 36.9167 7.90062 35.085 7.90062L 0.634065 7.90062C 0.281807 7.90062 0 8.18279 0 8.53549L 0 37.669C 0 38.0217 0.281807 38.3039 0.634065 38.3039L 35.085 38.3039C 37.6212 38.3039 39.6643 36.2582 39.6643 33.7187L 39.6643 4.58518C 39.6643 2.0457 37.6212 0 35.085 0L 5.14298 0C 3.73394 0 2.53626 1.1992 2.53626 2.61003ZM 38.3962 33.7187C 38.3962 35.5528 36.9167 37.0342 35.085 37.0342L 1.26813 37.0342L 1.26813 9.24091L 35.085 9.24091C 36.4235 9.24091 37.5508 8.67658 38.3962 7.83008L 38.3962 33.7187Z"/>
<path id="path1_fill" d="M 8.80646 11.0044C 8.52466 11.3571 8.0315 11.7099 7.32698 11.992C 6.62246 12.2742 5.70659 12.4858 4.64981 12.4858C 3.24078 12.4858 2.11355 11.992 1.26813 11.0044C 0.42271 10.0169 2.68752e-07 8.74712 2.68752e-07 7.12467L 2.68752e-07 5.14951C 2.68752e-07 3.59761 0.42271 2.3984 1.26813 1.41083C 2.11355 0.423247 3.17033 -2.69094e-07 4.50891 -2.69094e-07C 5.77704 -2.69094e-07 6.83382 0.352706 7.53833 0.987577C 8.3133 1.62245 8.66556 2.53949 8.66556 3.52706L 8.66556 3.59761L 8.3133 3.59761C 8.24285 2.68057 7.89059 1.90461 7.25653 1.34028C 6.62246 0.775954 5.70659 0.493789 4.50891 0.493789C 3.31123 0.493789 2.32491 0.917037 1.54994 1.83407C 0.774968 2.68057 0.422711 3.80923 0.422711 5.22005L 0.422711 7.12467C 0.422711 8.53549 0.774968 9.7347 1.54994 10.6517C 2.32491 11.5688 3.31123 11.992 4.57936 11.992C 5.49523 11.992 6.2702 11.8509 6.90427 11.5688C 7.53833 11.2866 8.03149 11.0044 8.24285 10.7223L 8.24285 7.19521L 4.50891 7.19521L 4.50891 6.77196L 8.66556 6.77196L 8.66556 11.0044L 8.80646 11.0044Z"/>
<path id="path2_fill" d="M 5.07252 13.1912C 3.59304 13.1912 2.32491 12.6269 1.40903 11.5688C 0.493162 10.5106 0 9.09982 0 7.47738L 0 5.50222C 0 3.87977 0.42271 2.53949 1.33858 1.55191C 2.25445 0.493789 3.45213 -2.69094e-07 4.86117 -2.69094e-07C 6.19975 -2.69094e-07 7.32698 0.352706 8.1724 1.05812C 9.01782 1.76353 9.44053 2.75111 9.44053 3.87977L 9.44053 3.95031L 9.29963 4.30302L 8.3133 4.30302L 8.3133 3.95031C 8.24285 3.10382 7.96104 2.46894 7.39743 1.90461C 6.83382 1.41083 5.9884 1.12866 4.86117 1.12866C 3.73394 1.12866 2.88852 1.48137 2.184 2.32786C 1.47949 3.10382 1.12723 4.16194 1.12723 5.43168L 1.12723 7.47738C 1.12723 8.81766 1.47949 9.94632 2.184 10.7223C 2.88852 11.5688 3.80439 11.9215 4.93162 11.9215C 5.77704 11.9215 6.48156 11.7804 7.11562 11.5688C 7.74969 11.3571 8.0315 11.075 8.24285 10.9339L 8.24285 7.90062L 4.50891 7.90062L 4.50891 6.77196L 9.44053 6.77196L 9.44053 11.4982L 9.51098 11.5688C 9.22917 11.992 8.66556 12.3447 7.89059 12.6974C 7.11562 12.9796 6.19975 13.1912 5.07252 13.1912Z"/>
</defs>
</svg>
