<svg width="499" height="167" viewBox="0 0 499 167" version="1.1" xmlns="http://www.w3.org/2000/svg" xmlns:xlink="http://www.w3.org/1999/xlink">
<title>Group 2</title>
<desc>Created using Figma</desc>
<g id="Canvas" transform="translate(11915 -505)">
<g id="Group 2">
<g id="Vector 2">
<use xlink:href="#path0_stroke" transform="translate(-11914 506)" fill="#56CCF2"/>
</g>
<g id="Vector 9">
<use xlink:href="#path1_stroke" transform="translate(-11566 532)" fill="#56CCF2"/>
</g>
<g id="Ellipse 7.39">
<use xlink:href="#path2_fill" transform="translate(-11484 530)" fill="#FFFFFF"/>
</g>
<g id="Ellipse 7.40">
<use xlink:href="#path3_fill" transform="translate(-11487 527)" fill="#FFFFFF" fill-opacity="0.2"/>
</g>
<g id="Ellipse 7.41">
<use xlink:href="#path4_fill" transform="translate(-11489 525)" fill="#FFFFFF" fill-opacity="0.2"/>
</g>
<g id="Ellipse 7.33">
<use xlink:href="#path2_fill" transform="translate(-11472 590)" fill="#FFFFFF"/>
</g>
<g id="Ellipse 7.34">
<use xlink:href="#path3_fill" transform="translate(-11475 587)" fill="#FFFFFF" fill-opacity="0.2"/>
</g>
<g id="Ellipse 7.35">
<use xlink:href="#path4_fill" transform="translate(-11477 585)" fill="#FFFFFF" fill-opacity="0.2"/>
</g>
<g id="Group 2.9">
<g id="Ellipse 7.36">
<use xlink:href="#path2_fill" transform="translate(-11849 550)" fill="#FFFFFF"/>
</g>
<g id="Ellipse 7.37">
<use xlink:href="#path3_fill" transform="translate(-11852 547)" fill="#FFFFFF" fill-opacity="0.2"/>
</g>
<g id="Ellipse 7.38">
<use xlink:href="#path4_fill" transform="translate(-11854 545)" fill="#FFFFFF" fill-opacity="0.2"/>
</g>
</g>
<g id="Ellipse 7.30">
<use xlink:href="#path2_fill" transform="translate(-11732 632)" fill="#FFFFFF"/>
</g>
<g id="Ellipse 7.31">
<use xlink:href="#path3_fill" transform="translate(-11735 629)" fill="#FFFFFF" fill-opacity="0.2"/>
</g>
<g id="Ellipse 7.32">
<use xlink:href="#path4_fill" transform="translate(-11737 627)" fill="#FFFFFF" fill-opacity="0.2"/>
</g>
<g id="Group">
<g id="Group">
<g id="Vector">
<use xlink:href="#path5_fill" transform="translate(-11649.8 661.065)" fill="#FFFFFF"/>
</g>
<g id="Vector">
<use xlink:href="#path6_fill" transform="translate(-11679 559)" fill="#FFFFFF"/>
</g>
<g id="Vector">
<use xlink:href="#path7_fill" transform="translate(-11609.5 613.677)" fill="#FFFFFF"/>
</g>
<g id="Vector">
<use xlink:href="#path8_fill" transform="translate(-11594.9 617.323)" fill="#FFFFFF"/>
</g>
<g id="Vector">
<use xlink:href="#path8_fill" transform="translate(-11587.6 617.323)" fill="#FFFFFF"/>
</g>
<g id="Vector">
<use xlink:href="#path8_fill" transform="translate(-11580.3 617.323)" fill="#FFFFFF"/>
</g>
<g id="Vector">
<use xlink:href="#path8_fill" transform="translate(-11573 617.323)" fill="#FFFFFF"/>
</g>
</g>
</g>
</g>
</g>
<defs>
<path id="path0_stroke" d="M 130 61L 129.96 61.4984L 130 61ZM -0.379285 0.325796C 22.0365 26.4218 67.8233 56.4874 129.96 61.4984L 130.04 60.5016C 68.1767 55.5126 22.6301 25.5782 0.379285 -0.325796L -0.379285 0.325796ZM 129.96 61.4984C 172.205 64.9053 195.846 79.8551 210.297 94.044C 217.53 101.147 222.471 108.068 226.308 113.303C 228.221 115.913 229.875 118.127 231.401 119.718C 232.916 121.297 234.389 122.356 235.955 122.498L 236.045 121.502C 234.861 121.394 233.606 120.572 232.123 119.026C 230.651 117.491 229.036 115.334 227.115 112.712C 223.283 107.484 218.298 100.499 210.997 93.3305C 196.379 78.9775 172.52 63.9274 130.04 60.5016L 129.96 61.4984Z"/>
<path id="path1_stroke" d="M 0.416025 60.2774C 5.71102 52.3349 19.6693 37.3714 35.8133 24.3896C 43.8808 17.9024 52.4781 11.9231 60.7945 7.56794C 69.1198 3.20804 77.1182 0.5 84 0.5L 84 -0.5C 76.8818 -0.5 68.7135 2.29196 60.3305 6.68206C 51.9385 11.0769 43.2859 17.0976 35.1867 23.6104C 18.9974 36.6286 4.95565 51.6651 -0.416025 59.7226L 0.416025 60.2774ZM 84 0.5C 101.888 0.5 114.888 5.96239 125.139 11.441C 127.705 12.812 130.097 14.1834 132.356 15.4732C 134.611 16.7615 136.737 17.9701 138.756 19.0073C 142.784 21.0764 146.458 22.5 150 22.5L 150 21.5C 146.709 21.5 143.216 20.1736 139.213 18.1177C 137.216 17.0924 135.11 15.8948 132.851 14.6049C 130.596 13.3166 128.191 11.938 125.611 10.559C 115.279 5.03761 102.112 -0.5 84 -0.5L 84 0.5Z"/>
<path id="path2_fill" d="M 4 2C 4 3.10457 3.10457 4 2 4C 0.895431 4 0 3.10457 0 2C 0 0.895431 0.895431 0 2 0C 3.10457 0 4 0.895431 4 2Z"/>
<path id="path3_fill" d="M 10 5C 10 7.76142 7.76142 10 5 10C 2.23858 10 0 7.76142 0 5C 0 2.23858 2.23858 0 5 0C 7.76142 0 10 2.23858 10 5Z"/>
<path id="path4_fill" d="M 14 7C 14 10.866 10.866 14 7 14C 3.13401 14 0 10.866 0 7C 0 3.13401 3.13401 0 7 0C 10.866 0 14 3.13401 14 7Z"/>
<path id="path5_fill" d="M 18.2812 0L 0 0L 0 3.64516L 18.2812 3.64516L 18.2812 0Z"/>
<path id="path6_fill" d="M 113.344 47.3871L 113.344 30.9839L 113.344 29.1613L 113.344 18.2258L 98.5359 18.2258C 97.6219 8.01935 89.0297 0 78.6094 0C 76.2328 0 74.0391 0.364516 72.0281 1.09355C 70.7484 0.364516 69.1031 0 67.6406 0L 9.14062 0C 4.02187 0 0 4.00968 0 9.1129L 0 103.887C 0 108.99 4.02187 113 9.14062 113L 67.6406 113C 72.7594 113 76.7812 108.99 76.7812 103.887L 76.7812 91.129L 113.344 91.129L 113.344 72.9032C 115.355 72.9032 117 71.2629 117 69.2581L 117 51.0323C 117 49.0274 115.355 47.3871 113.344 47.3871ZM 109.688 29.1613L 96.525 29.1613C 97.6219 26.9742 98.3531 24.4226 98.7188 21.871L 109.688 21.871L 109.688 29.1613ZM 64.8984 29.1613C 63.0703 26.4274 62.1562 23.329 62.1562 20.0484C 62.1562 10.9355 69.4688 3.64516 78.6094 3.64516C 87.75 3.64516 95.0625 10.9355 95.0625 20.0484C 95.0625 23.329 94.1484 26.4274 92.3203 29.1613L 64.8984 29.1613ZM 36.5625 72.9032L 18.2812 72.9032L 18.2812 65.6129L 36.5625 65.6129L 36.5625 72.9032ZM 36.5625 61.9677L 14.625 61.9677L 14.625 76.5484L 36.5625 76.5484L 36.5625 83.8387L 10.9688 83.8387L 10.9688 36.4516L 36.5625 36.4516L 36.5625 61.9677ZM 58.5 21.871C 58.6828 24.4226 59.4141 26.9742 60.6938 29.1613L 43.875 29.1613C 41.8641 29.1613 40.2188 27.521 40.2188 25.5161C 40.2188 23.5113 41.8641 21.871 43.875 21.871L 58.5 21.871ZM 9.14062 3.64516L 67.0922 3.64516C 64.35 5.46774 62.1562 8.01935 60.6938 10.9355L 3.65625 10.9355L 3.65625 9.1129C 3.65625 6.01452 6.03281 3.64516 9.14062 3.64516ZM 67.6406 109.355L 9.14062 109.355C 6.03281 109.355 3.65625 106.985 3.65625 103.887L 3.65625 98.4194L 73.125 98.4194L 73.125 103.887C 73.125 106.985 70.7484 109.355 67.6406 109.355ZM 73.125 94.7742L 3.65625 94.7742L 3.65625 14.5806L 59.2313 14.5806C 58.8656 15.6742 58.6828 16.95 58.5 18.2258L 43.875 18.2258C 39.8531 18.2258 36.5625 21.5065 36.5625 25.5161L 36.5625 32.8065L 7.3125 32.8065L 7.3125 87.4839L 37.6594 87.4839C 38.9391 89.671 41.3156 91.129 43.875 91.129L 73.125 91.129L 73.125 94.7742ZM 109.688 87.4839L 43.875 87.4839C 41.8641 87.4839 40.2188 85.8436 40.2188 83.8387L 40.2188 31.7129C 41.3156 32.2597 42.5953 32.8065 43.875 32.8065L 109.688 32.8065L 109.688 47.3871L 74.9531 47.3871C 67.8234 47.3871 62.1562 53.0371 62.1562 60.1452C 62.1562 67.2532 67.8234 72.9032 74.9531 72.9032L 109.688 72.9032L 109.688 87.4839ZM 113.344 69.2581L 74.9531 69.2581C 69.8344 69.2581 65.8125 65.2484 65.8125 60.1452C 65.8125 55.0419 69.8344 51.0323 74.9531 51.0323L 113.344 51.0323L 113.344 69.2581Z"/>
<path id="path7_fill" d="M 0 5.46774C 0 8.56613 2.37656 10.9355 5.48438 10.9355C 8.59219 10.9355 10.9688 8.56613 10.9688 5.46774C 10.9688 2.36935 8.59219 0 5.48438 0C 2.37656 0 0 2.36935 0 5.46774ZM 7.3125 5.46774C 7.3125 6.56129 6.58125 7.29032 5.48438 7.29032C 4.3875 7.29032 3.65625 6.56129 3.65625 5.46774C 3.65625 4.37419 4.3875 3.64516 5.48438 3.64516C 6.58125 3.64516 7.3125 4.37419 7.3125 5.46774Z"/>
<path id="path8_fill" d="M 3.65625 0L 0 0L 0 3.64516L 3.65625 3.64516L 3.65625 0Z"/>
</defs>
</svg>
