<?xml version="1.0" encoding="utf-8"?>
<!-- Generator: Adobe Illustrator 16.0.0, SVG Export Plug-In . SVG Version: 6.00 Build 0)  -->
<!DOCTYPE svg PUBLIC "-//W3C//DTD SVG 1.1//EN" "http://www.w3.org/Graphics/SVG/1.1/DTD/svg11.dtd">
<svg version="1.1" id="Слой_1" xmlns="http://www.w3.org/2000/svg" xmlns:xlink="http://www.w3.org/1999/xlink" x="0px" y="0px"
	 width="152px" height="160px" viewBox="0 0 152 160" enable-background="new 0 0 152 160" xml:space="preserve">
<g>
	<defs>
		<rect id="SVGID_1_" x="-524" y="-320" width="1200" height="800"/>
	</defs>
	<clipPath id="SVGID_2_">
		<use xlink:href="#SVGID_1_"  overflow="visible"/>
	</clipPath>
	<path clip-path="url(#SVGID_2_)" fill="#FFFFFF" d="M11.21,76.24h60.661V15.579H11.21V76.24z M57.535,60.561
		c-1.201,1.588-3.07,3.001-5.609,4.238c-2.538,1.237-5.746,1.855-9.624,1.855c-4.93,0-8.955-1.532-12.076-4.597
		s-4.68-7.044-4.68-11.937V41.7c0-4.874,1.5-8.849,4.5-11.923c3.001-3.074,6.864-4.612,11.591-4.612
		c4.912,0,8.673,1.196,11.286,3.587c2.613,2.392,3.947,5.535,4.003,9.431l-0.056,0.166h-7.616c-0.149-2.142-0.831-3.836-2.05-5.082
		c-1.219-1.247-3.001-1.87-5.346-1.87c-2.474,0-4.469,0.955-5.982,2.864c-1.514,1.909-2.271,4.367-2.271,7.374v8.467
		c0,3.063,0.784,5.548,2.354,7.457c1.569,1.91,3.683,2.864,6.343,2.864c1.883,0,3.397-0.194,4.542-0.58
		c1.144-0.386,2.012-0.865,2.603-1.436v-7.456h-7.145v-5.595h15.233V60.561z"/>
	<path clip-path="url(#SVGID_2_)" fill="#FFFFFF" d="M11.21,144.421h60.661V83.76H11.21V144.421z M55.347,134.253H27.734V93.927
		h27.557v6.232h-19.47v10.137h16.701v6.231H35.821v11.495h19.526V134.253z"/>
	<path clip-path="url(#SVGID_2_)" fill="#FFFFFF" d="M80.129,144.421h60.661V83.76H80.129V144.421z M118.076,134.253l-7.782-14.54
		l-7.783,14.54h-9.444l12.27-20.329L93.371,93.927h9.361l7.449,14.292l7.563-14.292h9.416l-11.964,19.997l12.655,20.329H118.076z"/>
	<path clip-path="url(#SVGID_2_)" fill="none" d="M57.535,60.561c-1.201,1.588-3.07,3.001-5.609,4.238
		c-2.538,1.237-5.746,1.855-9.624,1.855c-4.93,0-8.955-1.532-12.076-4.597s-4.68-7.044-4.68-11.937V41.7
		c0-4.874,1.5-8.849,4.5-11.923c3.001-3.074,6.864-4.612,11.591-4.612c4.912,0,8.673,1.196,11.286,3.587
		c2.613,2.392,3.947,5.535,4.003,9.431l-0.056,0.166h-7.616c-0.149-2.142-0.831-3.836-2.05-5.082
		c-1.219-1.247-3.001-1.87-5.346-1.87c-2.474,0-4.469,0.955-5.982,2.864c-1.514,1.909-2.271,4.367-2.271,7.374v8.467
		c0,3.063,0.784,5.548,2.354,7.457c1.569,1.91,3.683,2.864,6.343,2.864c1.883,0,3.397-0.194,4.542-0.58
		c1.144-0.386,2.012-0.865,2.603-1.436v-7.456h-7.145v-5.595h15.233V60.561z"/>
	<polygon clip-path="url(#SVGID_2_)" fill="none" points="55.347,134.253 27.734,134.253 27.734,93.927 55.291,93.927 
		55.291,100.159 35.821,100.159 35.821,110.296 52.522,110.296 52.522,116.527 35.821,116.527 35.821,128.022 55.347,128.022 	"/>
	<polygon clip-path="url(#SVGID_2_)" fill="none" points="118.076,134.253 110.294,119.713 102.511,134.253 93.066,134.253 
		105.336,113.924 93.371,93.927 102.732,93.927 110.182,108.219 117.744,93.927 127.16,93.927 115.196,113.924 127.852,134.253 	"/>
</g>
</svg>
