<svg width="457" height="331" viewBox="0 0 457 331" version="1.1" xmlns="http://www.w3.org/2000/svg" xmlns:xlink="http://www.w3.org/1999/xlink">
<title>Group 2</title>
<desc>Created using Figma</desc>
<g id="Canvas" transform="translate(9893 -5371)">
<g id="Group 2">
<g id="Vector">
<use xlink:href="#path0_fill" transform="translate(-9778.78 5376.08)" fill="#FFFFFF"/>
</g>
<g id="Vector">
<use xlink:href="#path1_fill" transform="translate(-9778.78 5371)" fill="#FFFFFF"/>
</g>
<g id="Vector">
<use xlink:href="#path2_fill" transform="translate(-9778.78 5413.75)" fill="#FFFFFF"/>
</g>
<g id="Vector">
<use xlink:href="#path2_fill" transform="translate(-9778.78 5413.75)" fill="url(#paint3_linear)"/>
</g>
<g id="Vector">
<use xlink:href="#path3_fill" transform="translate(-9686.97 5413.75)" fill="#FFFFFF"/>
<use xlink:href="#path3_fill" transform="translate(-9686.97 5413.75)" fill="url(#paint5_linear)"/>
</g>
<g id="Vector">
<use xlink:href="#path4_fill" transform="translate(-9837.99 5503.97)" fill="#FFFFFF"/>
</g>
<g id="Vector">
<use xlink:href="#path5_fill" transform="translate(-9837.99 5500.99)" fill="#FFFFFF"/>
</g>
<g id="Vector">
<use xlink:href="#path6_fill" transform="translate(-9837.99 5526.57)" fill="#FFFFFF"/>
</g>
<g id="Vector">
<use xlink:href="#path6_fill" transform="translate(-9837.99 5526.57)" fill="url(#paint9_linear)"/>
</g>
<g id="Vector">
<use xlink:href="#path7_fill" transform="translate(-9782.98 5526.57)" fill="#FFFFFF"/>
<use xlink:href="#path7_fill" transform="translate(-9782.98 5526.57)" fill="url(#paint11_linear)"/>
</g>
<g id="Group" opacity="0.6">
<g id="Vector" opacity="0.6">
<use xlink:href="#path5_fill" transform="translate(-9838 5501)" fill="url(#paint12_linear)"/>
</g>
<g id="Vector" opacity="0.6">
<use xlink:href="#path8_fill" transform="translate(-9838 5527)" fill="url(#paint13_linear)"/>
</g>
</g>
<g id="Group">
<g id="Group">
<g id="Vector">
<use xlink:href="#path9_fill" transform="translate(-9892.84 5559)" fill="#FFFFFF"/>
</g>
<g id="Vector">
<use xlink:href="#path10_fill" transform="translate(-9851.65 5578.09)" fill="#FFFFFF"/>
<use xlink:href="#path10_fill" transform="translate(-9851.65 5578.09)" fill="url(#paint16_linear)"/>
</g>
</g>
</g>
<g id="Vector">
<use xlink:href="#path11_fill" transform="translate(-9893 5578.1)" fill="url(#paint17_linear)"/>
</g>
<g id="Group">
<g id="Vector">
<use xlink:href="#path12_fill" transform="translate(-9538.07 5578.69)" fill="#9B51E0"/>
</g>
<g id="Vector">
<use xlink:href="#path13_fill" transform="translate(-9520.9 5579.92)" fill="#FFFFFF"/>
<use xlink:href="#path13_fill" transform="translate(-9520.9 5579.92)" fill="url(#paint20_linear)"/>
</g>
<g id="Vector">
<use xlink:href="#path14_fill" transform="translate(-9558.1 5590.94)" fill="url(#paint21_linear)"/>
</g>
<g id="Vector">
<use xlink:href="#path15_fill" transform="translate(-9540.52 5592.16)" fill="#FFFFFF"/>
<use xlink:href="#path15_fill" transform="translate(-9540.52 5592.16)" fill="url(#paint23_linear)"/>
</g>
<g id="Vector">
<use xlink:href="#path16_fill" transform="translate(-9572 5501.97)" fill="#FFFFFF"/>
</g>
<g id="Vector">
<use xlink:href="#path17_fill" transform="translate(-9572 5533.4)" fill="url(#paint25_linear)"/>
</g>
<g id="Vector">
<use xlink:href="#path18_fill" transform="translate(-9554.83 5508.91)" fill="#FFFFFF"/>
<use xlink:href="#path18_fill" transform="translate(-9554.83 5508.91)" fill="url(#paint27_linear)"/>
</g>
<g id="Vector">
<use xlink:href="#path19_fill" transform="translate(-9554.83 5470)" fill="#FFFFFF"/>
</g>
<g id="Vector">
<use xlink:href="#path20_fill" transform="translate(-9554.83 5482.64)" fill="#FFFFFF"/>
<use xlink:href="#path20_fill" transform="translate(-9554.83 5482.64)" fill="url(#paint30_linear)"/>
</g>
<g id="Vector">
<use xlink:href="#path21_fill" transform="translate(-9541.74 5475.71)" fill="#FFFFFF"/>
<use xlink:href="#path21_fill" transform="translate(-9541.74 5475.71)" fill="url(#paint32_linear)"/>
</g>
</g>
<g id="Group">
<g id="Vector">
<use xlink:href="#path22_fill" transform="translate(-9484 5405)" fill="#FFFFFF"/>
</g>
<g id="Vector">
<use xlink:href="#path23_fill" transform="translate(-9484 5421.78)" fill="#FFFFFF"/>
</g>
<g id="Vector" opacity="0.25">
<use xlink:href="#path23_fill" transform="translate(-9484 5421.78)" fill="url(#paint35_linear)"/>
</g>
<g id="Group">
<g id="Group">
<g id="Group">
<g id="Vector">
<use xlink:href="#path24_fill" transform="translate(-9466.54 5412.58)" fill="#FFFFFF"/>
</g>
</g>
</g>
</g>
<g id="Group" opacity="0.25">
<g id="Group" opacity="0.25">
<g id="Group" opacity="0.25">
<g id="Vector" opacity="0.25">
<use xlink:href="#path24_fill" transform="translate(-9466.54 5412.58)" fill="url(#paint37_linear)"/>
</g>
</g>
</g>
</g>
<g id="Group" opacity="0.25">
<g id="Group" opacity="0.25">
<g id="Group" opacity="0.25">
<g id="Vector" opacity="0.25">
<use xlink:href="#path25_fill" transform="translate(-9466.54 5412.58)" fill="url(#paint38_linear)"/>
</g>
</g>
</g>
</g>
</g>
<g id="Group">
<g id="Vector">
<use xlink:href="#path22_fill" transform="translate(-9659 5643)" fill="#FFFFFF"/>
</g>
<g id="Vector">
<use xlink:href="#path23_fill" transform="translate(-9659 5659.78)" fill="#FFFFFF"/>
</g>
<g id="Vector" opacity="0.25">
<use xlink:href="#path23_fill" transform="translate(-9659 5659.78)" fill="url(#paint41_linear)"/>
</g>
<g id="Group">
<g id="Group">
<g id="Group">
<g id="Vector">
<use xlink:href="#path24_fill" transform="translate(-9641.54 5650.58)" fill="#FFFFFF"/>
</g>
</g>
</g>
</g>
<g id="Group" opacity="0.25">
<g id="Group" opacity="0.25">
<g id="Group" opacity="0.25">
<g id="Vector" opacity="0.25">
<use xlink:href="#path24_fill" transform="translate(-9641.54 5650.58)" fill="url(#paint43_linear)"/>
</g>
</g>
</g>
</g>
<g id="Group" opacity="0.25">
<g id="Group" opacity="0.25">
<g id="Group" opacity="0.25">
<g id="Vector" opacity="0.25">
<use xlink:href="#path25_fill" transform="translate(-9641.54 5650.58)" fill="url(#paint44_linear)"/>
</g>
</g>
</g>
</g>
</g>
</g>
</g>
<defs>
<linearGradient id="paint3_linear" x1="0" y1="0" x2="1" y2="0" gradientUnits="userSpaceOnUse" gradientTransform="matrix(91.6613 0 0 91.9081 0 54.906)">
<stop offset="0" stop-color="#1E2C73"/>
<stop offset="1" stop-color="#61BEEA"/>
</linearGradient>
<linearGradient id="paint5_linear" x1="0" y1="0" x2="1" y2="0" gradientUnits="userSpaceOnUse" gradientTransform="matrix(-97 141 -64.3133 -44.2439 135.131 22.3754)">
<stop offset="0" stop-color="#46B4E7"/>
<stop offset="1" stop-color="#F0F1F6"/>
</linearGradient>
<linearGradient id="paint9_linear" x1="0" y1="0" x2="1" y2="0" gradientUnits="userSpaceOnUse" gradientTransform="matrix(54.9268 0 0 55.0171 0 32.8673)">
<stop offset="0" stop-color="#1E2C73"/>
<stop offset="1" stop-color="#61BEEA"/>
</linearGradient>
<linearGradient id="paint11_linear" x1="0" y1="0" x2="1" y2="0" gradientUnits="userSpaceOnUse" gradientTransform="matrix(-55 100 -45.5731 -25.0652 77.765 12.962)">
<stop offset="0" stop-color="#4FB7E8"/>
<stop offset="1" stop-color="#FFFFFF" stop-opacity="0"/>
</linearGradient>
<linearGradient id="paint12_linear" x1="0" y1="0" x2="1" y2="0" gradientUnits="userSpaceOnUse" gradientTransform="matrix(110.066 0 0 110.066 0.00700762 -29.5264)">
<stop offset="0" stop-color="#8490AD"/>
<stop offset="0.1641" stop-color="#8D98B3" stop-opacity="0.8359"/>
<stop offset="0.4318" stop-color="#A5AFC3" stop-opacity="0.5682"/>
<stop offset="0.7677" stop-color="#CDD4DD" stop-opacity="0.2323"/>
<stop offset="1" stop-color="#ECF1F2" stop-opacity="0"/>
</linearGradient>
<linearGradient id="paint13_linear" x1="0" y1="0" x2="1" y2="0" gradientUnits="userSpaceOnUse" gradientTransform="matrix(55.0489 0 0 55.0491 0.00700762 32.8281)">
<stop offset="0" stop-color="#8490AD"/>
<stop offset="0.1641" stop-color="#8D98B3" stop-opacity="0.8359"/>
<stop offset="0.4318" stop-color="#A5AFC3" stop-opacity="0.5682"/>
<stop offset="0.7677" stop-color="#CDD4DD" stop-opacity="0.2323"/>
<stop offset="1" stop-color="#ECF1F2" stop-opacity="0"/>
</linearGradient>
<linearGradient id="paint16_linear" x1="0" y1="0" x2="1" y2="0" gradientUnits="userSpaceOnUse" gradientTransform="matrix(-32.0704 91.0004 -41.3636 -14.5774 73.3371 7.77625)">
<stop offset="0" stop-color="#4FB7E8"/>
<stop offset="1" stop-color="#FFFFFF" stop-opacity="0"/>
</linearGradient>
<linearGradient id="paint17_linear" x1="0" y1="0" x2="1" y2="0" gradientUnits="userSpaceOnUse" gradientTransform="matrix(41.2826 0 0 41.2828 0 24.6624)">
<stop offset="0" stop-color="#1E2C73"/>
<stop offset="1" stop-color="#61BEEA"/>
</linearGradient>
<linearGradient id="paint20_linear" x1="0" y1="0" x2="1" y2="0" gradientUnits="userSpaceOnUse" gradientTransform="matrix(10.6786 -43.1351 4.45865 26.3918 -2.34812 55.564)">
<stop offset="0" stop-color="#D481B7"/>
<stop offset="1" stop-color="#C583ED"/>
</linearGradient>
<linearGradient id="paint21_linear" x1="0" y1="0" x2="1" y2="0" gradientUnits="userSpaceOnUse" gradientTransform="matrix(-4.95826e-13 70.5 -11.9101 -2.59637e-09 15.0527 33.563)">
<stop offset="0" stop-color="#9B51E0"/>
<stop offset="1" stop-color="#E8D7F2"/>
</linearGradient>
<linearGradient id="paint23_linear" x1="0" y1="0" x2="1" y2="0" gradientUnits="userSpaceOnUse" gradientTransform="matrix(10.2679 -43.1351 4.28716 26.3918 -2.2578 55.564)">
<stop offset="0" stop-color="#D481B7"/>
<stop offset="1" stop-color="#C583ED"/>
</linearGradient>
<linearGradient id="paint25_linear" x1="0" y1="0" x2="1" y2="0" gradientUnits="userSpaceOnUse" gradientTransform="matrix(0.300447 -76 12.5407 0.0519654 2.31529 97.037)">
<stop offset="0" stop-color="#C688F0"/>
<stop offset="1" stop-color="#E8D7F2"/>
</linearGradient>
<linearGradient id="paint27_linear" x1="0" y1="0" x2="1" y2="0" gradientUnits="userSpaceOnUse" gradientTransform="matrix(57.0893 -53.9189 23.8366 32.9898 -12.5534 69.455)">
<stop offset="0" stop-color="#D481B7"/>
<stop offset="1" stop-color="#C583ED"/>
</linearGradient>
<linearGradient id="paint30_linear" x1="0" y1="0" x2="1" y2="0" gradientUnits="userSpaceOnUse" gradientTransform="matrix(8.01095e-16 38.3603 -13.0829 2.34889e-15 13.0829 -2.34889e-15)">
<stop offset="0" stop-color="#CD82D1"/>
<stop offset="1" stop-color="#FFFFFF" stop-opacity="0"/>
</linearGradient>
<linearGradient id="paint32_linear" x1="0" y1="0" x2="1" y2="0" gradientUnits="userSpaceOnUse" gradientTransform="matrix(23 -19 9.60324 11.625 -5.05748 24.4746)">
<stop offset="0" stop-color="#D481B7"/>
<stop offset="1" stop-color="#C583ED"/>
</linearGradient>
<linearGradient id="paint35_linear" x1="0" y1="0" x2="1" y2="0" gradientUnits="userSpaceOnUse" gradientTransform="matrix(17.5622 0 0 17.4281 0 12.4586)">
<stop offset="0" stop-color="#8490AD"/>
<stop offset="0.1641" stop-color="#8D98B3" stop-opacity="0.8359"/>
<stop offset="0.4318" stop-color="#A5AFC3" stop-opacity="0.5682"/>
<stop offset="0.7677" stop-color="#CDD4DD" stop-opacity="0.2323"/>
<stop offset="1" stop-color="#ECF1F2" stop-opacity="0"/>
</linearGradient>
<linearGradient id="paint37_linear" x1="0" y1="0" x2="1" y2="0" gradientUnits="userSpaceOnUse" gradientTransform="matrix(30.6382 0 0 30.4042 0.107998 10.4767)">
<stop offset="0" stop-color="#8490AD"/>
<stop offset="0.1641" stop-color="#8D98B3" stop-opacity="0.8359"/>
<stop offset="0.4318" stop-color="#A5AFC3" stop-opacity="0.5682"/>
<stop offset="0.7677" stop-color="#CDD4DD" stop-opacity="0.2323"/>
<stop offset="1" stop-color="#ECF1F2" stop-opacity="0"/>
</linearGradient>
<linearGradient id="paint38_linear" x1="0" y1="0" x2="1" y2="0" gradientUnits="userSpaceOnUse" gradientTransform="matrix(-11.2498 5.18708 -5.22699 -11.1639 39.2761 21.4463)">
<stop offset="0" stop-color="#8490AD"/>
<stop offset="0.1641" stop-color="#8D98B3" stop-opacity="0.8359"/>
<stop offset="0.4318" stop-color="#A5AFC3" stop-opacity="0.5682"/>
<stop offset="0.7677" stop-color="#CDD4DD" stop-opacity="0.2323"/>
<stop offset="1" stop-color="#ECF1F2" stop-opacity="0"/>
</linearGradient>
<linearGradient id="paint41_linear" x1="0" y1="0" x2="1" y2="0" gradientUnits="userSpaceOnUse" gradientTransform="matrix(17.5622 0 0 17.4281 0 12.4586)">
<stop offset="0" stop-color="#8490AD"/>
<stop offset="0.1641" stop-color="#8D98B3" stop-opacity="0.8359"/>
<stop offset="0.4318" stop-color="#A5AFC3" stop-opacity="0.5682"/>
<stop offset="0.7677" stop-color="#CDD4DD" stop-opacity="0.2323"/>
<stop offset="1" stop-color="#ECF1F2" stop-opacity="0"/>
</linearGradient>
<linearGradient id="paint43_linear" x1="0" y1="0" x2="1" y2="0" gradientUnits="userSpaceOnUse" gradientTransform="matrix(30.6382 0 0 30.4042 0.107998 10.4767)">
<stop offset="0" stop-color="#8490AD"/>
<stop offset="0.1641" stop-color="#8D98B3" stop-opacity="0.8359"/>
<stop offset="0.4318" stop-color="#A5AFC3" stop-opacity="0.5682"/>
<stop offset="0.7677" stop-color="#CDD4DD" stop-opacity="0.2323"/>
<stop offset="1" stop-color="#ECF1F2" stop-opacity="0"/>
</linearGradient>
<linearGradient id="paint44_linear" x1="0" y1="0" x2="1" y2="0" gradientUnits="userSpaceOnUse" gradientTransform="matrix(-11.2498 5.18708 -5.22699 -11.1639 39.2761 21.4463)">
<stop offset="0" stop-color="#8490AD"/>
<stop offset="0.1641" stop-color="#8D98B3" stop-opacity="0.8359"/>
<stop offset="0.4318" stop-color="#A5AFC3" stop-opacity="0.5682"/>
<stop offset="0.7677" stop-color="#CDD4DD" stop-opacity="0.2323"/>
<stop offset="1" stop-color="#ECF1F2" stop-opacity="0"/>
</linearGradient>
<path id="path0_fill" d="M 183.775 42.5715L 91.7998 85.3182L -5.34639e-06 42.5715L 91.975 1.67075e-07L 183.775 42.5715Z"/>
<path id="path1_fill" d="M 183.775 42.7467L 91.7998 85.3182L -5.34639e-06 42.7467L 91.975 0L 183.775 42.7467Z"/>
<path id="path2_fill" d="M 91.7998 201.645L -5.34639e-06 159.074L -5.34639e-06 -6.68302e-07L 91.7998 42.5715L 91.7998 201.645Z"/>
<path id="path3_fill" d="M 0 201.645L 91.975 159.074L 91.975 0L 0 42.5715L 0 201.645Z"/>
<path id="path4_fill" d="M 110.02 25.5779L 55.0098 51.1559L -6.68298e-07 25.5779L 55.0098 2.67321e-06L 110.02 25.5779Z"/>
<path id="path5_fill" d="M 110.02 25.5779L 55.0098 50.9807L -6.68298e-07 25.5779L 55.0098 -5.34642e-06L 110.02 25.5779Z"/>
<path id="path6_fill" d="M 55.0098 120.707L -6.68298e-07 95.3041L -6.68298e-07 5.34642e-06L 55.0098 25.4027L 55.0098 120.707Z"/>
<path id="path7_fill" d="M -1.3366e-06 120.707L 55.0098 95.3041L 55.0098 5.34642e-06L -1.3366e-06 25.4027L -1.3366e-06 120.707Z"/>
<path id="path8_fill" d="M 55.0098 120.707L 0 95.3041L 0 0L 55.0098 25.4027L 55.0098 120.707Z"/>
<path id="path9_fill" d="M 82.5147 19.0959L 41.1698 38.1917L 0 19.0959L 41.3449 0L 82.5147 19.0959Z"/>
<path id="path10_fill" d="M 0 90.5739L 41.1697 71.4781L 41.1697 0L 0 19.0959L 0 90.5739Z"/>
<path id="path11_fill" d="M 41.3449 90.5739L 0 71.4781L 0 0L 41.3449 19.0959L 41.3449 90.5739Z"/>
<path id="path12_fill" d="M 17.1713 104.063L 7.798e-07 97.5331L 7.798e-07 -1.55673e-06L 17.1713 6.9375L 17.1713 104.063Z"/>
<path id="path13_fill" d="M 0 102.838L 10.6298 97.5331L 10.6298 0L 0 5.71323L 0 102.838Z"/>
<path id="path14_fill" d="M 17.5801 104.063L 3.899e-07 97.125L 3.899e-07 -1.55673e-06L 17.5801 6.9375L 17.5801 104.063Z"/>
<path id="path15_fill" d="M -7.798e-07 102.838L 10.221 97.125L 10.221 3.11347e-06L -7.798e-07 5.71324L -7.798e-07 102.838Z"/>
<path id="path16_fill" d="M 0 31.4228L 17.1713 38.3603L 74 6.9375L 54.7845 -3.89183e-07L 0 31.4228Z"/>
<path id="path17_fill" d="M 17.1713 104.063L 0 97.125L 0 7.78367e-07L 17.1713 6.9375L 17.1713 104.063Z"/>
<path id="path18_fill" d="M 0 128.548L 56.8287 97.5331L 56.8287 0L 0 31.4228L 0 128.548Z"/>
<path id="path19_fill" d="M -7.798e-07 12.6507L 13.0829 18.364L 35.9779 5.71323L 22.0774 0L -7.798e-07 12.6507Z"/>
<path id="path20_fill" d="M 13.0829 38.3604L 0 33.0552L 0 6.10352e-05L 13.0829 5.7133L 13.0829 38.3604Z"/>
<path id="path21_fill" d="M 0 45.2978L 22.895 32.6471L 22.895 0L 0 12.6507L 0 45.2978Z"/>
<path id="path22_fill" d="M 0 16.7796L 17.4542 24.3576L 47.9991 7.57791L 29.454 0L 0 16.7796Z"/>
<path id="path23_fill" d="M 17.4542 42.2198L 0 35.1831L 0 -5.16204e-07L 17.4542 7.57791L 17.4542 42.2198Z"/>
<path id="path24_fill" d="M 15.8179 36.807C 13.6361 38.4308 11.4543 38.4308 9.818 37.8895C 8.18167 36.807 7.63622 35.1831 7.63622 32.4767L 7.63622 27.6052C 7.63622 24.8988 8.18167 22.1924 9.818 19.486C 10.9089 16.7797 13.0907 14.6145 15.2724 13.532C 17.9997 11.9081 19.636 11.9081 20.7269 12.4494C 22.3632 12.9907 22.9087 14.0733 22.9087 16.2384L 19.0906 18.9448C 19.0906 17.8622 18.5451 16.7797 17.9997 16.7797C 17.4542 16.2384 16.3633 16.7797 15.2724 17.3209C 14.1816 17.3209 13.0907 18.9448 12.5452 20.0273C 11.9998 21.6512 11.4543 23.275 11.4543 24.8988L 11.4543 29.7704C 11.4543 31.3942 11.9998 32.4767 12.5452 33.5593C 13.0907 34.1006 14.1816 34.1006 15.8179 33.5593C 16.9088 33.018 17.4542 32.4767 17.9997 31.9355C 18.5451 31.3942 19.0906 30.8529 19.636 30.3116L 19.636 25.9814L 15.8179 28.1465L 15.8179 24.8988L 23.4541 20.5686L 23.4541 29.2291C 22.9087 30.3116 21.8178 31.9355 20.7269 33.018C 19.636 34.6419 17.9997 35.7244 15.8179 36.807ZM 30.5449 -1.29051e-07L 2.60088e-07 16.7797L 2.60088e-07 51.4215L 30.5449 34.6419"/>
<path id="path25_fill" d="M 15.8179 36.807C 13.6361 38.4308 11.4543 38.4308 9.818 37.8895C 8.18167 36.807 7.63622 35.1831 7.63622 32.4767L 7.63622 27.6052C 7.63622 24.8988 8.18167 22.1924 9.818 19.486C 10.9089 16.7797 13.0907 14.6145 15.2724 13.532C 17.9997 11.9081 19.636 11.9081 20.7269 12.4494C 22.3632 12.9907 22.9087 14.0733 22.9087 16.2384L 19.0906 18.9448C 19.0906 17.8622 18.5451 16.7797 17.9997 16.7797C 17.4542 16.2384 16.3633 16.7797 15.2724 17.3209C 14.1816 17.3209 13.0907 18.9448 12.5452 20.0273C 11.9998 21.6512 11.4543 23.275 11.4543 24.8988L 11.4543 29.7704C 11.4543 31.3942 11.9998 32.4767 12.5452 33.5593C 13.0907 34.1006 14.1816 34.1006 15.8179 33.5593C 16.9088 33.018 17.4542 32.4767 17.9997 31.9355C 18.5451 31.3942 19.0906 30.8529 19.636 30.3116L 19.636 25.9814L 15.8179 28.1465L 15.8179 24.8988L 23.4541 20.5686L 23.4541 29.2291C 22.9087 30.3116 21.8178 31.9355 20.7269 33.018C 19.636 34.6419 17.9997 35.7244 15.8179 36.807ZM 30.5449 0L 0 16.7797L 0 51.4215L 30.5449 34.6419"/>
</defs>
</svg>
