<svg width="390" height="373" viewBox="0 0 390 373" version="1.1" xmlns="http://www.w3.org/2000/svg" xmlns:xlink="http://www.w3.org/1999/xlink">
<title>Group 3</title>
<desc>Created using Figma</desc>
<g id="Canvas" transform="translate(-415 -5413)">
<g id="Group 3">
<g id="Line 6">
<use xlink:href="#path0_stroke" transform="matrix(0.873799 0.486288 -0.486288 0.873799 539.909 5613.51)" fill="#73C5EC"/>
<use xlink:href="#path0_stroke" transform="matrix(0.873799 0.486288 -0.486288 0.873799 539.909 5613.51)" fill="url(#paint1_linear)"/>
</g>
<g id="Line 6.1">
<use xlink:href="#path1_stroke" transform="matrix(0.873799 0.486288 -0.486288 0.873799 666 5607)" fill="#73C5EC"/>
<use xlink:href="#path1_stroke" transform="matrix(0.873799 0.486288 -0.486288 0.873799 666 5607)" fill="url(#paint3_linear)"/>
</g>
<g id="Line 6.2">
<use xlink:href="#path2_stroke" transform="matrix(0.90064 0.434567 -0.434567 0.90064 541.537 5571.42)" fill="#73C5EC"/>
<use xlink:href="#path2_stroke" transform="matrix(0.90064 0.434567 -0.434567 0.90064 541.537 5571.42)" fill="url(#paint5_linear)"/>
</g>
<g id="Group">
<g id="Rectangle">
<use xlink:href="#path3_fill" transform="translate(638.639 5521.66)" fill="#FFFFFF"/>
<use xlink:href="#path3_fill" transform="translate(638.639 5521.66)" fill="url(#paint7_linear)"/>
</g>
<g id="Vector">
<use xlink:href="#path4_fill" transform="translate(586.087 5460.4)" fill="#FFFFFF"/>
<use xlink:href="#path4_fill" transform="translate(586.087 5460.4)" fill="url(#paint9_linear)"/>
</g>
<g id="Group">
<g id="Vector">
<use xlink:href="#path5_fill" transform="translate(609.279 5470.65)" fill="url(#paint10_linear)"/>
</g>
</g>
<g id="Vector">
<use xlink:href="#path6_fill" transform="translate(662.105 5418.83)" fill="#FFFFFF"/>
<use xlink:href="#path6_fill" transform="translate(662.105 5418.83)" fill="url(#paint12_linear)"/>
</g>
<g id="Vector">
<use xlink:href="#path7_fill" transform="translate(623.795 5436.59)" fill="#FFFFFF"/>
<use xlink:href="#path7_fill" transform="translate(623.795 5436.59)" fill="url(#paint14_linear)"/>
</g>
<g id="Vector">
<use xlink:href="#path8_fill" transform="translate(623.795 5413)" fill="#FFFFFF"/>
<use xlink:href="#path8_fill" transform="translate(623.795 5413)" fill="url(#paint16_linear)"/>
</g>
<g id="Group">
<g id="Vector">
<use xlink:href="#path9_fill" transform="translate(634.446 5417.8)" fill="#FFFFFF"/>
</g>
</g>
<g id="Group">
<g id="Vector">
<use xlink:href="#path9_fill" transform="translate(634.446 5417.8)" fill="url(#paint18_linear)"/>
</g>
</g>
<g id="Group">
<g id="Vector">
<use xlink:href="#path10_fill" transform="translate(634.446 5417.8)" fill="url(#paint19_linear)"/>
</g>
</g>
<g id="Vector">
<use xlink:href="#path11_fill" transform="translate(586.087 5511.31)" fill="#FFFFFF"/>
<use xlink:href="#path11_fill" transform="translate(586.087 5511.31)" fill="url(#paint21_linear)"/>
</g>
</g>
<g id="Group">
<g id="Rectangle">
<use xlink:href="#path3_fill" transform="translate(467.552 5605.32)" fill="#FFFFFF"/>
<use xlink:href="#path3_fill" transform="translate(467.552 5605.32)" fill="url(#paint23_linear)"/>
</g>
<g id="Vector">
<use xlink:href="#path4_fill" transform="translate(415 5544.06)" fill="#FFFFFF"/>
<use xlink:href="#path4_fill" transform="translate(415 5544.06)" fill="url(#paint25_linear)"/>
</g>
<g id="Group">
<g id="Vector">
<use xlink:href="#path5_fill" transform="translate(438.192 5554.3)" fill="url(#paint26_linear)"/>
</g>
</g>
<g id="Vector">
<use xlink:href="#path6_fill" transform="translate(491.018 5502.49)" fill="#FFFFFF"/>
<use xlink:href="#path6_fill" transform="translate(491.018 5502.49)" fill="url(#paint28_linear)"/>
</g>
<g id="Vector">
<use xlink:href="#path7_fill" transform="translate(452.708 5520.25)" fill="#FFFFFF"/>
<use xlink:href="#path7_fill" transform="translate(452.708 5520.25)" fill="url(#paint30_linear)"/>
</g>
<g id="Vector">
<use xlink:href="#path8_fill" transform="translate(452.708 5496.66)" fill="#FFFFFF"/>
<use xlink:href="#path8_fill" transform="translate(452.708 5496.66)" fill="url(#paint32_linear)"/>
</g>
<g id="Group">
<g id="Vector">
<use xlink:href="#path9_fill" transform="translate(463.359 5501.46)" fill="#FFFFFF"/>
</g>
</g>
<g id="Group">
<g id="Vector">
<use xlink:href="#path9_fill" transform="translate(463.359 5501.46)" fill="url(#paint34_linear)"/>
</g>
</g>
<g id="Group">
<g id="Vector">
<use xlink:href="#path10_fill" transform="translate(463.359 5501.46)" fill="url(#paint35_linear)"/>
</g>
</g>
<g id="Vector">
<use xlink:href="#path11_fill" transform="translate(415 5594.97)" fill="#FFFFFF"/>
<use xlink:href="#path11_fill" transform="translate(415 5594.97)" fill="url(#paint37_linear)"/>
</g>
</g>
<g id="Group">
<g id="Rectangle">
<use xlink:href="#path3_fill" transform="translate(723.552 5664.66)" fill="#FFFFFF"/>
<use xlink:href="#path3_fill" transform="translate(723.552 5664.66)" fill="url(#paint39_linear)"/>
</g>
<g id="Vector">
<use xlink:href="#path4_fill" transform="translate(671 5603.4)" fill="#FFFFFF"/>
<use xlink:href="#path4_fill" transform="translate(671 5603.4)" fill="url(#paint41_linear)"/>
</g>
<g id="Group">
<g id="Vector">
<use xlink:href="#path5_fill" transform="translate(694.192 5613.65)" fill="url(#paint42_linear)"/>
</g>
</g>
<g id="Vector">
<use xlink:href="#path6_fill" transform="translate(747.018 5561.83)" fill="#FFFFFF"/>
<use xlink:href="#path6_fill" transform="translate(747.018 5561.83)" fill="url(#paint44_linear)"/>
</g>
<g id="Vector">
<use xlink:href="#path7_fill" transform="translate(708.708 5579.59)" fill="#FFFFFF"/>
<use xlink:href="#path7_fill" transform="translate(708.708 5579.59)" fill="url(#paint46_linear)"/>
</g>
<g id="Vector">
<use xlink:href="#path8_fill" transform="translate(708.708 5556)" fill="#FFFFFF"/>
<use xlink:href="#path8_fill" transform="translate(708.708 5556)" fill="url(#paint48_linear)"/>
</g>
<g id="Group">
<g id="Vector">
<use xlink:href="#path9_fill" transform="translate(719.359 5560.8)" fill="#FFFFFF"/>
</g>
</g>
<g id="Group">
<g id="Vector">
<use xlink:href="#path9_fill" transform="translate(719.359 5560.8)" fill="url(#paint50_linear)"/>
</g>
</g>
<g id="Group">
<g id="Vector">
<use xlink:href="#path10_fill" transform="translate(719.359 5560.8)" fill="url(#paint51_linear)"/>
</g>
</g>
<g id="Vector">
<use xlink:href="#path11_fill" transform="translate(671 5654.31)" fill="#FFFFFF"/>
<use xlink:href="#path11_fill" transform="translate(671 5654.31)" fill="url(#paint53_linear)"/>
</g>
</g>
</g>
</g>
<defs>
<linearGradient id="paint1_linear" x1="0" y1="0" x2="1" y2="0" gradientUnits="userSpaceOnUse" gradientTransform="matrix(275.885 1.05815 -867.467 5829.04 634.03 -2833.6)">
<stop offset="0" stop-color="#7EC9ED"/>
<stop offset="1" stop-color="#E8EEF6"/>
</linearGradient>
<linearGradient id="paint3_linear" x1="0" y1="0" x2="1" y2="0" gradientUnits="userSpaceOnUse" gradientTransform="matrix(152.812 2.38906 -480.489 13160.6 338.575 -6493.23)">
<stop offset="0" stop-color="#7EC9ED"/>
<stop offset="1" stop-color="#E8EEF6"/>
</linearGradient>
<linearGradient id="paint5_linear" x1="0" y1="0" x2="1" y2="0" gradientUnits="userSpaceOnUse" gradientTransform="matrix(138.022 3.29752 -433.984 18165 317.198 -8987.8)">
<stop offset="0" stop-color="#7EC9ED"/>
<stop offset="1" stop-color="#E8EEF6"/>
</linearGradient>
<linearGradient id="paint7_linear" x1="0" y1="0" x2="1" y2="0" gradientUnits="userSpaceOnUse" gradientTransform="matrix(3.57541e-15 65.6361 -58.3909 4.01905e-15 58.3909 -4.01905e-15)">
<stop offset="0" stop-color="#24397E"/>
<stop offset="1" stop-color="#4179B2"/>
</linearGradient>
<linearGradient id="paint9_linear" x1="0" y1="0" x2="1" y2="0" gradientUnits="userSpaceOnUse" gradientTransform="matrix(-171.879 93.3359 -202.279 -371.477 218.899 192.066)">
<stop offset="0" stop-color="#A7D7F0"/>
<stop offset="1" stop-color="#FFFFFF"/>
</linearGradient>
<linearGradient id="paint10_linear" x1="0" y1="0" x2="1" y2="0" gradientUnits="userSpaceOnUse" gradientTransform="matrix(-99.9945 167.737 -167.81 -99.9886 194.282 44.8572)">
<stop offset="0" stop-color="#8490AD"/>
<stop offset="0.0001" stop-color="#60BEEA"/>
<stop offset="1" stop-color="#F0F1F6"/>
</linearGradient>
<linearGradient id="paint12_linear" x1="0" y1="0" x2="1" y2="0" gradientUnits="userSpaceOnUse" gradientTransform="matrix(6.57456e-16 69.1409 -10.7371 4.23366e-15 10.7371 -4.23366e-15)">
<stop offset="0" stop-color="#24397E"/>
<stop offset="1" stop-color="#4179B2"/>
</linearGradient>
<linearGradient id="paint14_linear" x1="0" y1="0" x2="1" y2="0" gradientUnits="userSpaceOnUse" gradientTransform="matrix(2.01124 -71.7494 11.053 0.405933 -2.17443 75.8443)">
<stop offset="0" stop-color="#203076"/>
<stop offset="1" stop-color="#5EB8E5"/>
</linearGradient>
<linearGradient id="paint16_linear" x1="0" y1="0" x2="1" y2="0" gradientUnits="userSpaceOnUse" gradientTransform="matrix(-79.1927 43.0281 -93.1994 -171.252 100.857 88.5432)">
<stop offset="0" stop-color="#A7D7F0"/>
<stop offset="1" stop-color="#FFFFFF"/>
</linearGradient>
<linearGradient id="paint18_linear" x1="0" y1="0" x2="1" y2="0" gradientUnits="userSpaceOnUse" gradientTransform="matrix(50.8589 0 0 50.7915 0.0278305 18.5727)">
<stop offset="0" stop-color="#8490AD"/>
<stop offset="0.1641" stop-color="#8D98B3" stop-opacity="0.8359"/>
<stop offset="0.4318" stop-color="#A5AFC3" stop-opacity="0.5682"/>
<stop offset="0.7677" stop-color="#CDD4DD" stop-opacity="0.2323"/>
<stop offset="1" stop-color="#ECF1F2" stop-opacity="0"/>
</linearGradient>
<linearGradient id="paint19_linear" x1="0" y1="0" x2="1" y2="0" gradientUnits="userSpaceOnUse" gradientTransform="matrix(43.0633 -83.1391 83.2245 43.0724 -33.7702 66.2797)">
<stop offset="0" stop-color="#5BBCE9"/>
<stop offset="1" stop-color="#F0F1F6"/>
</linearGradient>
<linearGradient id="paint21_linear" x1="0" y1="0" x2="1" y2="0" gradientUnits="userSpaceOnUse" gradientTransform="matrix(4.37932 -136.377 24.067 0.771574 -4.73466 144.161)">
<stop offset="0" stop-color="#203076"/>
<stop offset="1" stop-color="#5EB8E5"/>
</linearGradient>
<linearGradient id="paint23_linear" x1="0" y1="0" x2="1" y2="0" gradientUnits="userSpaceOnUse" gradientTransform="matrix(3.57541e-15 65.6361 -58.3909 4.01905e-15 58.3909 -4.01905e-15)">
<stop offset="0" stop-color="#24397E"/>
<stop offset="1" stop-color="#4179B2"/>
</linearGradient>
<linearGradient id="paint25_linear" x1="0" y1="0" x2="1" y2="0" gradientUnits="userSpaceOnUse" gradientTransform="matrix(-171.879 93.3359 -202.279 -371.477 218.899 192.066)">
<stop offset="0" stop-color="#A7D7F0"/>
<stop offset="1" stop-color="#FFFFFF"/>
</linearGradient>
<linearGradient id="paint26_linear" x1="0" y1="0" x2="1" y2="0" gradientUnits="userSpaceOnUse" gradientTransform="matrix(-99.9945 167.737 -167.81 -99.9886 194.282 44.8572)">
<stop offset="0" stop-color="#8490AD"/>
<stop offset="0.0001" stop-color="#60BEEA"/>
<stop offset="1" stop-color="#F0F1F6"/>
</linearGradient>
<linearGradient id="paint28_linear" x1="0" y1="0" x2="1" y2="0" gradientUnits="userSpaceOnUse" gradientTransform="matrix(6.57456e-16 69.1409 -10.7371 4.23366e-15 10.7371 -4.23366e-15)">
<stop offset="0" stop-color="#24397E"/>
<stop offset="1" stop-color="#4179B2"/>
</linearGradient>
<linearGradient id="paint30_linear" x1="0" y1="0" x2="1" y2="0" gradientUnits="userSpaceOnUse" gradientTransform="matrix(2.01124 -71.7494 11.053 0.405933 -2.17443 75.8443)">
<stop offset="0" stop-color="#203076"/>
<stop offset="1" stop-color="#5EB8E5"/>
</linearGradient>
<linearGradient id="paint32_linear" x1="0" y1="0" x2="1" y2="0" gradientUnits="userSpaceOnUse" gradientTransform="matrix(-79.1927 43.0281 -93.1994 -171.252 100.857 88.5432)">
<stop offset="0" stop-color="#A7D7F0"/>
<stop offset="1" stop-color="#FFFFFF"/>
</linearGradient>
<linearGradient id="paint34_linear" x1="0" y1="0" x2="1" y2="0" gradientUnits="userSpaceOnUse" gradientTransform="matrix(50.8589 0 0 50.7915 0.0278305 18.5727)">
<stop offset="0" stop-color="#8490AD"/>
<stop offset="0.1641" stop-color="#8D98B3" stop-opacity="0.8359"/>
<stop offset="0.4318" stop-color="#A5AFC3" stop-opacity="0.5682"/>
<stop offset="0.7677" stop-color="#CDD4DD" stop-opacity="0.2323"/>
<stop offset="1" stop-color="#ECF1F2" stop-opacity="0"/>
</linearGradient>
<linearGradient id="paint35_linear" x1="0" y1="0" x2="1" y2="0" gradientUnits="userSpaceOnUse" gradientTransform="matrix(43.0633 -83.1391 83.2245 43.0724 -33.7702 66.2797)">
<stop offset="0" stop-color="#5BBCE9"/>
<stop offset="1" stop-color="#F0F1F6"/>
</linearGradient>
<linearGradient id="paint37_linear" x1="0" y1="0" x2="1" y2="0" gradientUnits="userSpaceOnUse" gradientTransform="matrix(4.37932 -136.377 24.067 0.771574 -4.73466 144.161)">
<stop offset="0" stop-color="#203076"/>
<stop offset="1" stop-color="#5EB8E5"/>
</linearGradient>
<linearGradient id="paint39_linear" x1="0" y1="0" x2="1" y2="0" gradientUnits="userSpaceOnUse" gradientTransform="matrix(3.57541e-15 65.6361 -58.3909 4.01905e-15 58.3909 -4.01905e-15)">
<stop offset="0" stop-color="#24397E"/>
<stop offset="1" stop-color="#4179B2"/>
</linearGradient>
<linearGradient id="paint41_linear" x1="0" y1="0" x2="1" y2="0" gradientUnits="userSpaceOnUse" gradientTransform="matrix(-171.879 93.3359 -202.279 -371.477 218.899 192.066)">
<stop offset="0" stop-color="#A7D7F0"/>
<stop offset="1" stop-color="#FFFFFF"/>
</linearGradient>
<linearGradient id="paint42_linear" x1="0" y1="0" x2="1" y2="0" gradientUnits="userSpaceOnUse" gradientTransform="matrix(-99.9945 167.737 -167.81 -99.9886 194.282 44.8572)">
<stop offset="0" stop-color="#8490AD"/>
<stop offset="0.0001" stop-color="#60BEEA"/>
<stop offset="1" stop-color="#F0F1F6"/>
</linearGradient>
<linearGradient id="paint44_linear" x1="0" y1="0" x2="1" y2="0" gradientUnits="userSpaceOnUse" gradientTransform="matrix(6.57456e-16 69.1409 -10.7371 4.23366e-15 10.7371 -4.23366e-15)">
<stop offset="0" stop-color="#24397E"/>
<stop offset="1" stop-color="#4179B2"/>
</linearGradient>
<linearGradient id="paint46_linear" x1="0" y1="0" x2="1" y2="0" gradientUnits="userSpaceOnUse" gradientTransform="matrix(2.01124 -71.7494 11.053 0.405933 -2.17443 75.8443)">
<stop offset="0" stop-color="#203076"/>
<stop offset="1" stop-color="#5EB8E5"/>
</linearGradient>
<linearGradient id="paint48_linear" x1="0" y1="0" x2="1" y2="0" gradientUnits="userSpaceOnUse" gradientTransform="matrix(-79.1927 43.0281 -93.1994 -171.252 100.857 88.5432)">
<stop offset="0" stop-color="#A7D7F0"/>
<stop offset="1" stop-color="#FFFFFF"/>
</linearGradient>
<linearGradient id="paint50_linear" x1="0" y1="0" x2="1" y2="0" gradientUnits="userSpaceOnUse" gradientTransform="matrix(50.8589 0 0 50.7915 0.0278305 18.5727)">
<stop offset="0" stop-color="#8490AD"/>
<stop offset="0.1641" stop-color="#8D98B3" stop-opacity="0.8359"/>
<stop offset="0.4318" stop-color="#A5AFC3" stop-opacity="0.5682"/>
<stop offset="0.7677" stop-color="#CDD4DD" stop-opacity="0.2323"/>
<stop offset="1" stop-color="#ECF1F2" stop-opacity="0"/>
</linearGradient>
<linearGradient id="paint51_linear" x1="0" y1="0" x2="1" y2="0" gradientUnits="userSpaceOnUse" gradientTransform="matrix(43.0633 -83.1391 83.2245 43.0724 -33.7702 66.2797)">
<stop offset="0" stop-color="#5BBCE9"/>
<stop offset="1" stop-color="#F0F1F6"/>
</linearGradient>
<linearGradient id="paint53_linear" x1="0" y1="0" x2="1" y2="0" gradientUnits="userSpaceOnUse" gradientTransform="matrix(4.37932 -136.377 24.067 0.771574 -4.73466 144.161)">
<stop offset="0" stop-color="#203076"/>
<stop offset="1" stop-color="#5EB8E5"/>
</linearGradient>
<path id="path0_stroke" d="M 0.54768 95.8032L 241.26 1.39644L 240.165 -1.39644L -0.54768 93.0104L 0.54768 95.8032Z"/>
<path id="path1_stroke" d="M -0.599799 1.37486L 141.837 63.5148L 143.037 60.7651L 0.599799 -1.37486L -0.599799 1.37486Z"/>
<path id="path2_stroke" d="M 104.68 -0.918285L -1.18607 135.82L 1.18607 137.656L 107.053 0.918285L 104.68 -0.918285Z"/>
<path id="path3_fill" d="M 0 0L 58.3909 0L 58.3909 65.6361L 0 65.6361L 0 0Z"/>
<path id="path4_fill" d="M 23.1921 61.592L 0 51.1265L 110.377 0L 133.483 10.4655L 23.1921 61.592Z"/>
<path id="path5_fill" d="M 0 51.1265L 0 172.08L 110.377 120.954L 110.377 -2.61788e-06L 0 51.1265ZM 66.8276 98.9075L 46.556 108.258L 51.3662 84.0671C 47.7585 83.1235 45.2675 79.6922 45.2675 75.3173C 45.2675 71.8002 46.9854 68.4547 49.4765 66.2243C 50.2495 65.538 51.1085 65.0233 51.9675 64.5944C 52.5687 64.3371 53.17 64.0797 53.8572 63.9082C 54.2008 63.8224 54.5444 63.7366 54.802 63.7366C 55.4892 63.6508 56.0905 63.6508 56.6918 63.6508C 57.293 63.7366 57.8943 63.8224 58.4956 63.994C 59.3546 64.2513 60.1276 64.6802 60.8148 65.1949C 61.0725 65.3665 61.2443 65.538 61.502 65.7954C 62.3609 66.5674 63.0481 67.5968 63.5635 68.7978C 63.8212 69.3983 63.993 69.9988 64.0789 70.685C 64.1648 71.3713 64.2507 72.0575 64.2507 72.7438C 64.2507 73.6016 64.1648 74.4595 63.993 75.3173C 63.8212 76.1751 63.5635 76.9472 63.134 77.7192C 62.8763 78.3197 62.4468 78.9202 62.1033 79.5206C 62.0174 79.6922 61.8456 79.8638 61.7597 80.0353C 61.3302 80.6358 60.8148 81.2363 60.2135 81.6652L 66.8276 98.9075Z"/>
<path id="path6_fill" d="M 10.7371 69.1409L 0 64.3371L 0 1.63618e-07L 10.7371 4.80384L 10.7371 69.1409Z"/>
<path id="path7_fill" d="M 10.6512 69.1409L 0 64.3371L 0 0L 10.6512 4.80383L 10.6512 69.1409Z"/>
<path id="path8_fill" d="M 10.6512 28.3941L 1.31068e-06 23.5045L 50.8508 0L 61.502 4.80384L 10.6512 28.3941Z"/>
<path id="path9_fill" d="M 50.8508 -8.18088e-08L -6.55339e-07 23.5903L -6.55339e-07 87.9274L 12.8845 81.9226L 12.8845 36.1146L 38.3099 24.2765L 38.3099 70.1703L 50.8508 64.3371L 50.8508 -8.18088e-08Z"/>
<path id="path10_fill" d="M 50.8508 0L 0 23.5903L 0 87.9274L 12.8845 81.9226L 12.8845 36.1146L 38.3099 24.2765L 38.3099 70.1703L 50.8508 64.3371L 50.8508 0Z"/>
<path id="path11_fill" d="M 23.1921 131.419L 0 120.954L 0 -1.30894e-06L 23.1921 10.4655L 23.1921 131.419Z"/>
</defs>
</svg>
