<svg width="104" height="104" viewBox="0 0 104 104" version="1.1" xmlns="http://www.w3.org/2000/svg" xmlns:xlink="http://www.w3.org/1999/xlink">
<title>Group</title>
<desc>Created using Figma</desc>
<g id="Canvas" transform="translate(13705 -559)">
<g id="Group" opacity="0.15">
<g id="Group">
<g id="Vector">
<use xlink:href="#path0_fill" transform="translate(-13705 559)" fill="#BB6BD9"/>
</g>
<g id="Vector">
<use xlink:href="#path1_fill" transform="translate(-13696.8 574.08)" fill="#BB6BD9"/>
</g>
<g id="Vector">
<use xlink:href="#path2_fill" transform="translate(-13676.9 583.96)" fill="#BB6BD9"/>
</g>
</g>
</g>
</g>
<defs>
<path id="path0_fill" d="M 101.4 0L 2.6 0C 1.144 0 0 1.144 0 2.6L 0 95.16C 0 96.616 1.144 97.76 2.6 97.76L 19.24 97.76L 19.24 101.4C 19.24 102.856 20.384 104 21.84 104C 23.296 104 24.44 102.856 24.44 101.4L 24.44 97.76L 79.56 97.76L 79.56 101.4C 79.56 102.856 80.704 104 82.16 104C 83.616 104 84.76 102.856 84.76 101.4L 84.76 97.76L 101.4 97.76C 102.856 97.76 104 96.616 104 95.16L 104 2.6C 104 1.144 102.856 0 101.4 0ZM 98.8 92.56L 5.2 92.56L 5.2 5.2L 98.8 5.2L 98.8 92.56Z"/>
<path id="path1_fill" d="M 2.6 47.632C 1.144 47.632 9.91821e-08 48.776 9.91821e-08 50.232C 9.91821e-08 51.688 1.144 52.832 2.6 52.832L 4.784 52.832L 4.784 65C 4.784 66.456 5.928 67.6 7.384 67.6L 80.184 67.6C 81.64 67.6 82.784 66.456 82.784 65L 82.784 2.6C 82.784 1.144 81.64 0 80.184 0L 7.384 0C 5.928 0 4.784 1.144 4.784 2.6L 4.784 14.872L 2.6 14.872C 1.144 14.872 9.91821e-08 16.016 9.91821e-08 17.472C 9.91821e-08 18.928 1.144 20.072 2.6 20.072L 4.784 20.072L 4.784 47.632L 2.6 47.632ZM 9.984 20.072L 12.168 20.072C 13.624 20.072 14.768 18.928 14.768 17.472C 14.768 16.016 13.624 14.872 12.168 14.872L 9.984 14.872L 9.984 5.2L 77.584 5.2L 77.584 62.4L 9.984 62.4L 9.984 52.728L 12.168 52.728C 13.624 52.728 14.768 51.584 14.768 50.128C 14.768 48.672 13.624 47.528 12.168 47.528L 9.984 47.528L 9.984 20.072Z"/>
<path id="path2_fill" d="M 6.864 40.768L 6.968 40.872L 7.072 40.976C 11.44 45.24 17.368 47.84 23.92 47.84C 30.472 47.84 36.4 45.24 40.768 40.976L 40.872 40.872L 40.976 40.768C 45.24 36.4 47.84 30.472 47.84 23.92C 47.84 17.368 45.24 11.44 40.976 7.072L 40.872 6.968L 40.768 6.864C 36.4 2.6 30.472 0 23.92 0C 17.368 0 11.44 2.6 7.072 6.864L 6.968 6.968L 6.864 7.072C 2.6 11.44 0 17.368 0 23.92C 0 30.472 2.6 36.4 6.864 40.768ZM 8.944 12.688L 12.168 15.912C 11.024 17.472 10.296 19.344 9.88 21.32L 5.304 21.32C 5.824 18.096 7.072 15.184 8.944 12.688ZM 42.432 21.32L 37.856 21.32C 37.44 19.344 36.712 17.472 35.568 15.912L 38.792 12.688C 40.768 15.184 42.016 18.096 42.432 21.32ZM 38.896 35.152L 35.672 31.928C 36.816 30.368 37.544 28.496 37.96 26.52L 42.536 26.52C 42.016 29.744 40.768 32.656 38.896 35.152ZM 23.92 14.872C 26.416 14.872 28.6 15.912 30.264 17.472C 31.824 19.136 32.864 21.32 32.864 23.816C 32.864 28.808 28.808 32.864 23.816 32.864C 18.824 32.864 14.768 28.808 14.768 23.816C 14.768 18.824 18.928 14.872 23.92 14.872ZM 15.912 35.672C 17.472 36.816 19.344 37.544 21.32 37.96L 21.32 42.536C 18.096 42.12 15.184 40.768 12.688 38.896L 15.912 35.672ZM 26.52 37.856C 28.496 37.44 30.368 36.712 31.928 35.568L 35.152 38.792C 32.656 40.664 29.744 41.912 26.52 42.432L 26.52 37.856ZM 31.928 12.168C 30.368 11.024 28.496 10.296 26.52 9.88L 26.52 5.304C 29.744 5.72 32.656 7.072 35.152 8.944L 31.928 12.168ZM 21.32 9.984C 19.344 10.4 17.472 11.128 15.912 12.272L 12.688 9.048C 15.184 7.176 18.096 5.928 21.32 5.408L 21.32 9.984ZM 9.984 26.52C 10.4 28.496 11.128 30.368 12.272 31.928L 9.048 35.152C 7.176 32.656 5.928 29.744 5.408 26.52L 9.984 26.52Z"/>
</defs>
</svg>
