<svg width="1251" height="8" viewBox="0 0 1251 8" version="1.1" xmlns="http://www.w3.org/2000/svg" xmlns:xlink="http://www.w3.org/1999/xlink">
<title>Group 5</title>
<desc>Created using Figma</desc>
<g id="Canvas" transform="translate(13730 -10404)">
<g id="Group 5">
<g id="Group 2">
<g id="Line 2">
<use xlink:href="#path0_stroke" transform="matrix(-4.37114e-08 1 1 4.37114e-08 -13729 10404)" fill="#FFFFFF" fill-opacity="0.05"/>
</g>
<g id="Line 2.15">
<use xlink:href="#path0_stroke" transform="matrix(-4.37114e-08 1 1 4.37114e-08 -13719 10404)" fill="#FFFFFF" fill-opacity="0.05"/>
</g>
<g id="Line 2.16">
<use xlink:href="#path0_stroke" transform="matrix(-4.37114e-08 1 1 4.37114e-08 -13709 10404)" fill="#FFFFFF" fill-opacity="0.05"/>
</g>
<g id="Line 2.17">
<use xlink:href="#path0_stroke" transform="matrix(-4.37114e-08 1 1 4.37114e-08 -13699 10404)" fill="#FFFFFF" fill-opacity="0.05"/>
</g>
<g id="Line 2.18">
<use xlink:href="#path0_stroke" transform="matrix(-4.37114e-08 1 1 4.37114e-08 -13689 10404)" fill="#FFFFFF" fill-opacity="0.05"/>
</g>
<g id="Line 2.19">
<use xlink:href="#path0_stroke" transform="matrix(-4.37114e-08 1 1 4.37114e-08 -13679 10404)" fill="#FFFFFF" fill-opacity="0.05"/>
</g>
<g id="Line 2.20">
<use xlink:href="#path0_stroke" transform="matrix(-4.37114e-08 1 1 4.37114e-08 -13669 10404)" fill="#FFFFFF" fill-opacity="0.05"/>
</g>
<g id="Line 2.21">
<use xlink:href="#path0_stroke" transform="matrix(-4.37114e-08 1 1 4.37114e-08 -13669 10404)" fill="#FFFFFF" fill-opacity="0.05"/>
</g>
</g>
<g id="Group 2.17">
<g id="Line 2">
<use xlink:href="#path0_stroke" transform="matrix(-4.37114e-08 1 1 4.37114e-08 -13659 10404)" fill="#FFFFFF" fill-opacity="0.05"/>
</g>
<g id="Line 2.15">
<use xlink:href="#path0_stroke" transform="matrix(-4.37114e-08 1 1 4.37114e-08 -13649 10404)" fill="#FFFFFF" fill-opacity="0.05"/>
</g>
<g id="Line 2.16">
<use xlink:href="#path0_stroke" transform="matrix(-4.37114e-08 1 1 4.37114e-08 -13639 10404)" fill="#FFFFFF" fill-opacity="0.05"/>
</g>
<g id="Line 2.17">
<use xlink:href="#path0_stroke" transform="matrix(-4.37114e-08 1 1 4.37114e-08 -13629 10404)" fill="#FFFFFF" fill-opacity="0.05"/>
</g>
<g id="Line 2.18">
<use xlink:href="#path0_stroke" transform="matrix(-4.37114e-08 1 1 4.37114e-08 -13619 10404)" fill="#FFFFFF" fill-opacity="0.05"/>
</g>
<g id="Line 2.19">
<use xlink:href="#path0_stroke" transform="matrix(-4.37114e-08 1 1 4.37114e-08 -13609 10404)" fill="#FFFFFF" fill-opacity="0.05"/>
</g>
<g id="Line 2.20">
<use xlink:href="#path0_stroke" transform="matrix(-4.37114e-08 1 1 4.37114e-08 -13599 10404)" fill="#FFFFFF" fill-opacity="0.05"/>
</g>
<g id="Line 2.21">
<use xlink:href="#path0_stroke" transform="matrix(-4.37114e-08 1 1 4.37114e-08 -13599 10404)" fill="#FFFFFF" fill-opacity="0.05"/>
</g>
</g>
<g id="Group 2.18">
<g id="Line 2">
<use xlink:href="#path0_stroke" transform="matrix(-4.37114e-08 1 1 4.37114e-08 -13589 10404)" fill="#FFFFFF" fill-opacity="0.05"/>
</g>
<g id="Line 2.15">
<use xlink:href="#path0_stroke" transform="matrix(-4.37114e-08 1 1 4.37114e-08 -13579 10404)" fill="#FFFFFF" fill-opacity="0.05"/>
</g>
<g id="Line 2.16">
<use xlink:href="#path0_stroke" transform="matrix(-4.37114e-08 1 1 4.37114e-08 -13569 10404)" fill="#FFFFFF" fill-opacity="0.05"/>
</g>
<g id="Line 2.17">
<use xlink:href="#path0_stroke" transform="matrix(-4.37114e-08 1 1 4.37114e-08 -13559 10404)" fill="#FFFFFF" fill-opacity="0.05"/>
</g>
<g id="Line 2.18">
<use xlink:href="#path0_stroke" transform="matrix(-4.37114e-08 1 1 4.37114e-08 -13549 10404)" fill="#FFFFFF" fill-opacity="0.05"/>
</g>
<g id="Line 2.19">
<use xlink:href="#path0_stroke" transform="matrix(-4.37114e-08 1 1 4.37114e-08 -13539 10404)" fill="#FFFFFF" fill-opacity="0.05"/>
</g>
<g id="Line 2.20">
<use xlink:href="#path0_stroke" transform="matrix(-4.37114e-08 1 1 4.37114e-08 -13529 10404)" fill="#FFFFFF" fill-opacity="0.05"/>
</g>
<g id="Line 2.21">
<use xlink:href="#path0_stroke" transform="matrix(-4.37114e-08 1 1 4.37114e-08 -13529 10404)" fill="#FFFFFF" fill-opacity="0.05"/>
</g>
</g>
<g id="Group 2.19">
<g id="Line 2">
<use xlink:href="#path0_stroke" transform="matrix(-4.37114e-08 1 1 4.37114e-08 -13519 10404)" fill="#FFFFFF" fill-opacity="0.05"/>
</g>
<g id="Line 2.15">
<use xlink:href="#path0_stroke" transform="matrix(-4.37114e-08 1 1 4.37114e-08 -13509 10404)" fill="#FFFFFF" fill-opacity="0.05"/>
</g>
<g id="Line 2.16">
<use xlink:href="#path0_stroke" transform="matrix(-4.37114e-08 1 1 4.37114e-08 -13499 10404)" fill="#FFFFFF" fill-opacity="0.05"/>
</g>
<g id="Line 2.17">
<use xlink:href="#path0_stroke" transform="matrix(-4.37114e-08 1 1 4.37114e-08 -13489 10404)" fill="#FFFFFF" fill-opacity="0.05"/>
</g>
<g id="Line 2.18">
<use xlink:href="#path0_stroke" transform="matrix(-4.37114e-08 1 1 4.37114e-08 -13479 10404)" fill="#FFFFFF" fill-opacity="0.05"/>
</g>
<g id="Line 2.19">
<use xlink:href="#path0_stroke" transform="matrix(-4.37114e-08 1 1 4.37114e-08 -13469 10404)" fill="#FFFFFF" fill-opacity="0.05"/>
</g>
<g id="Line 2.20">
<use xlink:href="#path0_stroke" transform="matrix(-4.37114e-08 1 1 4.37114e-08 -13459 10404)" fill="#FFFFFF" fill-opacity="0.05"/>
</g>
<g id="Line 2.21">
<use xlink:href="#path0_stroke" transform="matrix(-4.37114e-08 1 1 4.37114e-08 -13459 10404)" fill="#FFFFFF" fill-opacity="0.05"/>
</g>
</g>
<g id="Group 2.20">
<g id="Line 2">
<use xlink:href="#path0_stroke" transform="matrix(-4.37114e-08 1 1 4.37114e-08 -13449 10404)" fill="#FFFFFF" fill-opacity="0.05"/>
</g>
<g id="Line 2.15">
<use xlink:href="#path0_stroke" transform="matrix(-4.37114e-08 1 1 4.37114e-08 -13439 10404)" fill="#FFFFFF" fill-opacity="0.05"/>
</g>
<g id="Line 2.16">
<use xlink:href="#path0_stroke" transform="matrix(-4.37114e-08 1 1 4.37114e-08 -13429 10404)" fill="#FFFFFF" fill-opacity="0.05"/>
</g>
<g id="Line 2.17">
<use xlink:href="#path0_stroke" transform="matrix(-4.37114e-08 1 1 4.37114e-08 -13419 10404)" fill="#FFFFFF" fill-opacity="0.05"/>
</g>
<g id="Line 2.18">
<use xlink:href="#path0_stroke" transform="matrix(-4.37114e-08 1 1 4.37114e-08 -13409 10404)" fill="#FFFFFF" fill-opacity="0.05"/>
</g>
<g id="Line 2.19">
<use xlink:href="#path0_stroke" transform="matrix(-4.37114e-08 1 1 4.37114e-08 -13399 10404)" fill="#FFFFFF" fill-opacity="0.05"/>
</g>
<g id="Line 2.20">
<use xlink:href="#path0_stroke" transform="matrix(-4.37114e-08 1 1 4.37114e-08 -13389 10404)" fill="#FFFFFF" fill-opacity="0.05"/>
</g>
<g id="Line 2.21">
<use xlink:href="#path0_stroke" transform="matrix(-4.37114e-08 1 1 4.37114e-08 -13389 10404)" fill="#FFFFFF" fill-opacity="0.05"/>
</g>
</g>
<g id="Group 2.21">
<g id="Line 2">
<use xlink:href="#path0_stroke" transform="matrix(-4.37114e-08 1 1 4.37114e-08 -13379 10404)" fill="#FFFFFF" fill-opacity="0.05"/>
</g>
<g id="Line 2.15">
<use xlink:href="#path0_stroke" transform="matrix(-4.37114e-08 1 1 4.37114e-08 -13369 10404)" fill="#FFFFFF" fill-opacity="0.05"/>
</g>
<g id="Line 2.16">
<use xlink:href="#path0_stroke" transform="matrix(-4.37114e-08 1 1 4.37114e-08 -13359 10404)" fill="#FFFFFF" fill-opacity="0.05"/>
</g>
<g id="Line 2.17">
<use xlink:href="#path0_stroke" transform="matrix(-4.37114e-08 1 1 4.37114e-08 -13349 10404)" fill="#FFFFFF" fill-opacity="0.05"/>
</g>
<g id="Line 2.18">
<use xlink:href="#path0_stroke" transform="matrix(-4.37114e-08 1 1 4.37114e-08 -13339 10404)" fill="#FFFFFF" fill-opacity="0.05"/>
</g>
<g id="Line 2.19">
<use xlink:href="#path0_stroke" transform="matrix(-4.37114e-08 1 1 4.37114e-08 -13329 10404)" fill="#FFFFFF" fill-opacity="0.05"/>
</g>
<g id="Line 2.20">
<use xlink:href="#path0_stroke" transform="matrix(-4.37114e-08 1 1 4.37114e-08 -13319 10404)" fill="#FFFFFF" fill-opacity="0.05"/>
</g>
<g id="Line 2.21">
<use xlink:href="#path0_stroke" transform="matrix(-4.37114e-08 1 1 4.37114e-08 -13319 10404)" fill="#FFFFFF" fill-opacity="0.05"/>
</g>
</g>
<g id="Group 2.22">
<g id="Line 2">
<use xlink:href="#path0_stroke" transform="matrix(-4.37114e-08 1 1 4.37114e-08 -13309 10404)" fill="#FFFFFF" fill-opacity="0.05"/>
</g>
<g id="Line 2.15">
<use xlink:href="#path0_stroke" transform="matrix(-4.37114e-08 1 1 4.37114e-08 -13299 10404)" fill="#FFFFFF" fill-opacity="0.05"/>
</g>
<g id="Line 2.16">
<use xlink:href="#path0_stroke" transform="matrix(-4.37114e-08 1 1 4.37114e-08 -13289 10404)" fill="#FFFFFF" fill-opacity="0.05"/>
</g>
<g id="Line 2.17">
<use xlink:href="#path0_stroke" transform="matrix(-4.37114e-08 1 1 4.37114e-08 -13279 10404)" fill="#FFFFFF" fill-opacity="0.05"/>
</g>
<g id="Line 2.18">
<use xlink:href="#path0_stroke" transform="matrix(-4.37114e-08 1 1 4.37114e-08 -13269 10404)" fill="#FFFFFF" fill-opacity="0.05"/>
</g>
<g id="Line 2.19">
<use xlink:href="#path0_stroke" transform="matrix(-4.37114e-08 1 1 4.37114e-08 -13259 10404)" fill="#FFFFFF" fill-opacity="0.05"/>
</g>
<g id="Line 2.20">
<use xlink:href="#path0_stroke" transform="matrix(-4.37114e-08 1 1 4.37114e-08 -13249 10404)" fill="#FFFFFF" fill-opacity="0.05"/>
</g>
<g id="Line 2.21">
<use xlink:href="#path0_stroke" transform="matrix(-4.37114e-08 1 1 4.37114e-08 -13249 10404)" fill="#FFFFFF" fill-opacity="0.05"/>
</g>
</g>
<g id="Group 2.23">
<g id="Line 2">
<use xlink:href="#path0_stroke" transform="matrix(-4.37114e-08 1 1 4.37114e-08 -13239 10404)" fill="#FFFFFF" fill-opacity="0.05"/>
</g>
<g id="Line 2.15">
<use xlink:href="#path0_stroke" transform="matrix(-4.37114e-08 1 1 4.37114e-08 -13229 10404)" fill="#FFFFFF" fill-opacity="0.05"/>
</g>
<g id="Line 2.16">
<use xlink:href="#path0_stroke" transform="matrix(-4.37114e-08 1 1 4.37114e-08 -13219 10404)" fill="#FFFFFF" fill-opacity="0.05"/>
</g>
<g id="Line 2.17">
<use xlink:href="#path0_stroke" transform="matrix(-4.37114e-08 1 1 4.37114e-08 -13209 10404)" fill="#FFFFFF" fill-opacity="0.05"/>
</g>
<g id="Line 2.18">
<use xlink:href="#path0_stroke" transform="matrix(-4.37114e-08 1 1 4.37114e-08 -13199 10404)" fill="#FFFFFF" fill-opacity="0.05"/>
</g>
<g id="Line 2.19">
<use xlink:href="#path0_stroke" transform="matrix(-4.37114e-08 1 1 4.37114e-08 -13189 10404)" fill="#FFFFFF" fill-opacity="0.05"/>
</g>
<g id="Line 2.20">
<use xlink:href="#path0_stroke" transform="matrix(-4.37114e-08 1 1 4.37114e-08 -13179 10404)" fill="#FFFFFF" fill-opacity="0.05"/>
</g>
<g id="Line 2.21">
<use xlink:href="#path0_stroke" transform="matrix(-4.37114e-08 1 1 4.37114e-08 -13179 10404)" fill="#FFFFFF" fill-opacity="0.05"/>
</g>
</g>
<g id="Group 2.24">
<g id="Line 2">
<use xlink:href="#path0_stroke" transform="matrix(-4.37114e-08 1 1 4.37114e-08 -13169 10404)" fill="#FFFFFF" fill-opacity="0.05"/>
</g>
<g id="Line 2.15">
<use xlink:href="#path0_stroke" transform="matrix(-4.37114e-08 1 1 4.37114e-08 -13159 10404)" fill="#FFFFFF" fill-opacity="0.05"/>
</g>
<g id="Line 2.16">
<use xlink:href="#path0_stroke" transform="matrix(-4.37114e-08 1 1 4.37114e-08 -13149 10404)" fill="#FFFFFF" fill-opacity="0.05"/>
</g>
<g id="Line 2.17">
<use xlink:href="#path0_stroke" transform="matrix(-4.37114e-08 1 1 4.37114e-08 -13139 10404)" fill="#FFFFFF" fill-opacity="0.05"/>
</g>
<g id="Line 2.18">
<use xlink:href="#path0_stroke" transform="matrix(-4.37114e-08 1 1 4.37114e-08 -13129 10404)" fill="#FFFFFF" fill-opacity="0.05"/>
</g>
<g id="Line 2.19">
<use xlink:href="#path0_stroke" transform="matrix(-4.37114e-08 1 1 4.37114e-08 -13119 10404)" fill="#FFFFFF" fill-opacity="0.05"/>
</g>
<g id="Line 2.20">
<use xlink:href="#path0_stroke" transform="matrix(-4.37114e-08 1 1 4.37114e-08 -13109 10404)" fill="#FFFFFF" fill-opacity="0.05"/>
</g>
<g id="Line 2.21">
<use xlink:href="#path0_stroke" transform="matrix(-4.37114e-08 1 1 4.37114e-08 -13109 10404)" fill="#FFFFFF" fill-opacity="0.05"/>
</g>
</g>
<g id="Group 2.25">
<g id="Line 2">
<use xlink:href="#path0_stroke" transform="matrix(-4.37114e-08 1 1 4.37114e-08 -13099 10404)" fill="#FFFFFF" fill-opacity="0.05"/>
</g>
<g id="Line 2.15">
<use xlink:href="#path0_stroke" transform="matrix(-4.37114e-08 1 1 4.37114e-08 -13089 10404)" fill="#FFFFFF" fill-opacity="0.05"/>
</g>
<g id="Line 2.16">
<use xlink:href="#path0_stroke" transform="matrix(-4.37114e-08 1 1 4.37114e-08 -13079 10404)" fill="#FFFFFF" fill-opacity="0.05"/>
</g>
<g id="Line 2.17">
<use xlink:href="#path0_stroke" transform="matrix(-4.37114e-08 1 1 4.37114e-08 -13069 10404)" fill="#FFFFFF" fill-opacity="0.05"/>
</g>
<g id="Line 2.18">
<use xlink:href="#path0_stroke" transform="matrix(-4.37114e-08 1 1 4.37114e-08 -13059 10404)" fill="#FFFFFF" fill-opacity="0.05"/>
</g>
<g id="Line 2.19">
<use xlink:href="#path0_stroke" transform="matrix(-4.37114e-08 1 1 4.37114e-08 -13049 10404)" fill="#FFFFFF" fill-opacity="0.05"/>
</g>
<g id="Line 2.20">
<use xlink:href="#path0_stroke" transform="matrix(-4.37114e-08 1 1 4.37114e-08 -13039 10404)" fill="#FFFFFF" fill-opacity="0.05"/>
</g>
<g id="Line 2.21">
<use xlink:href="#path0_stroke" transform="matrix(-4.37114e-08 1 1 4.37114e-08 -13039 10404)" fill="#FFFFFF" fill-opacity="0.05"/>
</g>
</g>
<g id="Group 2.26">
<g id="Line 2">
<use xlink:href="#path0_stroke" transform="matrix(-4.37114e-08 1 1 4.37114e-08 -13029 10404)" fill="#FFFFFF" fill-opacity="0.05"/>
</g>
<g id="Line 2.15">
<use xlink:href="#path0_stroke" transform="matrix(-4.37114e-08 1 1 4.37114e-08 -13019 10404)" fill="#FFFFFF" fill-opacity="0.05"/>
</g>
<g id="Line 2.16">
<use xlink:href="#path0_stroke" transform="matrix(-4.37114e-08 1 1 4.37114e-08 -13009 10404)" fill="#FFFFFF" fill-opacity="0.05"/>
</g>
<g id="Line 2.17">
<use xlink:href="#path0_stroke" transform="matrix(-4.37114e-08 1 1 4.37114e-08 -12999 10404)" fill="#FFFFFF" fill-opacity="0.05"/>
</g>
<g id="Line 2.18">
<use xlink:href="#path0_stroke" transform="matrix(-4.37114e-08 1 1 4.37114e-08 -12989 10404)" fill="#FFFFFF" fill-opacity="0.05"/>
</g>
<g id="Line 2.19">
<use xlink:href="#path0_stroke" transform="matrix(-4.37114e-08 1 1 4.37114e-08 -12979 10404)" fill="#FFFFFF" fill-opacity="0.05"/>
</g>
<g id="Line 2.20">
<use xlink:href="#path0_stroke" transform="matrix(-4.37114e-08 1 1 4.37114e-08 -12969 10404)" fill="#FFFFFF" fill-opacity="0.05"/>
</g>
<g id="Line 2.21">
<use xlink:href="#path0_stroke" transform="matrix(-4.37114e-08 1 1 4.37114e-08 -12969 10404)" fill="#FFFFFF" fill-opacity="0.05"/>
</g>
</g>
<g id="Group 2.27">
<g id="Line 2">
<use xlink:href="#path0_stroke" transform="matrix(-4.37114e-08 1 1 4.37114e-08 -12959 10404)" fill="#FFFFFF" fill-opacity="0.05"/>
</g>
<g id="Line 2.15">
<use xlink:href="#path0_stroke" transform="matrix(-4.37114e-08 1 1 4.37114e-08 -12949 10404)" fill="#FFFFFF" fill-opacity="0.05"/>
</g>
<g id="Line 2.16">
<use xlink:href="#path0_stroke" transform="matrix(-4.37114e-08 1 1 4.37114e-08 -12939 10404)" fill="#FFFFFF" fill-opacity="0.05"/>
</g>
<g id="Line 2.17">
<use xlink:href="#path0_stroke" transform="matrix(-4.37114e-08 1 1 4.37114e-08 -12929 10404)" fill="#FFFFFF" fill-opacity="0.05"/>
</g>
<g id="Line 2.18">
<use xlink:href="#path0_stroke" transform="matrix(-4.37114e-08 1 1 4.37114e-08 -12919 10404)" fill="#FFFFFF" fill-opacity="0.05"/>
</g>
<g id="Line 2.19">
<use xlink:href="#path0_stroke" transform="matrix(-4.37114e-08 1 1 4.37114e-08 -12909 10404)" fill="#FFFFFF" fill-opacity="0.05"/>
</g>
<g id="Line 2.20">
<use xlink:href="#path0_stroke" transform="matrix(-4.37114e-08 1 1 4.37114e-08 -12899 10404)" fill="#FFFFFF" fill-opacity="0.05"/>
</g>
<g id="Line 2.21">
<use xlink:href="#path0_stroke" transform="matrix(-4.37114e-08 1 1 4.37114e-08 -12899 10404)" fill="#FFFFFF" fill-opacity="0.05"/>
</g>
</g>
<g id="Group 2.28">
<g id="Line 2">
<use xlink:href="#path0_stroke" transform="matrix(-4.37114e-08 1 1 4.37114e-08 -12889 10404)" fill="#FFFFFF" fill-opacity="0.05"/>
</g>
<g id="Line 2.15">
<use xlink:href="#path0_stroke" transform="matrix(-4.37114e-08 1 1 4.37114e-08 -12879 10404)" fill="#FFFFFF" fill-opacity="0.05"/>
</g>
<g id="Line 2.16">
<use xlink:href="#path0_stroke" transform="matrix(-4.37114e-08 1 1 4.37114e-08 -12869 10404)" fill="#FFFFFF" fill-opacity="0.05"/>
</g>
<g id="Line 2.17">
<use xlink:href="#path0_stroke" transform="matrix(-4.37114e-08 1 1 4.37114e-08 -12859 10404)" fill="#FFFFFF" fill-opacity="0.05"/>
</g>
<g id="Line 2.18">
<use xlink:href="#path0_stroke" transform="matrix(-4.37114e-08 1 1 4.37114e-08 -12849 10404)" fill="#FFFFFF" fill-opacity="0.05"/>
</g>
<g id="Line 2.19">
<use xlink:href="#path0_stroke" transform="matrix(-4.37114e-08 1 1 4.37114e-08 -12839 10404)" fill="#FFFFFF" fill-opacity="0.05"/>
</g>
<g id="Line 2.20">
<use xlink:href="#path0_stroke" transform="matrix(-4.37114e-08 1 1 4.37114e-08 -12829 10404)" fill="#FFFFFF" fill-opacity="0.05"/>
</g>
<g id="Line 2.21">
<use xlink:href="#path0_stroke" transform="matrix(-4.37114e-08 1 1 4.37114e-08 -12829 10404)" fill="#FFFFFF" fill-opacity="0.05"/>
</g>
</g>
<g id="Group 2.29">
<g id="Line 2">
<use xlink:href="#path0_stroke" transform="matrix(-4.37114e-08 1 1 4.37114e-08 -12819 10404)" fill="#FFFFFF" fill-opacity="0.05"/>
</g>
<g id="Line 2.15">
<use xlink:href="#path0_stroke" transform="matrix(-4.37114e-08 1 1 4.37114e-08 -12809 10404)" fill="#FFFFFF" fill-opacity="0.05"/>
</g>
<g id="Line 2.16">
<use xlink:href="#path0_stroke" transform="matrix(-4.37114e-08 1 1 4.37114e-08 -12799 10404)" fill="#FFFFFF" fill-opacity="0.05"/>
</g>
<g id="Line 2.17">
<use xlink:href="#path0_stroke" transform="matrix(-4.37114e-08 1 1 4.37114e-08 -12789 10404)" fill="#FFFFFF" fill-opacity="0.05"/>
</g>
<g id="Line 2.18">
<use xlink:href="#path0_stroke" transform="matrix(-4.37114e-08 1 1 4.37114e-08 -12779 10404)" fill="#FFFFFF" fill-opacity="0.05"/>
</g>
<g id="Line 2.19">
<use xlink:href="#path0_stroke" transform="matrix(-4.37114e-08 1 1 4.37114e-08 -12769 10404)" fill="#FFFFFF" fill-opacity="0.05"/>
</g>
<g id="Line 2.20">
<use xlink:href="#path0_stroke" transform="matrix(-4.37114e-08 1 1 4.37114e-08 -12759 10404)" fill="#FFFFFF" fill-opacity="0.05"/>
</g>
<g id="Line 2.21">
<use xlink:href="#path0_stroke" transform="matrix(-4.37114e-08 1 1 4.37114e-08 -12759 10404)" fill="#FFFFFF" fill-opacity="0.05"/>
</g>
</g>
<g id="Group 2.30">
<g id="Line 2">
<use xlink:href="#path0_stroke" transform="matrix(-4.37114e-08 1 1 4.37114e-08 -12749 10404)" fill="#FFFFFF" fill-opacity="0.05"/>
</g>
<g id="Line 2.15">
<use xlink:href="#path0_stroke" transform="matrix(-4.37114e-08 1 1 4.37114e-08 -12739 10404)" fill="#FFFFFF" fill-opacity="0.05"/>
</g>
<g id="Line 2.16">
<use xlink:href="#path0_stroke" transform="matrix(-4.37114e-08 1 1 4.37114e-08 -12729 10404)" fill="#FFFFFF" fill-opacity="0.05"/>
</g>
<g id="Line 2.17">
<use xlink:href="#path0_stroke" transform="matrix(-4.37114e-08 1 1 4.37114e-08 -12719 10404)" fill="#FFFFFF" fill-opacity="0.05"/>
</g>
<g id="Line 2.18">
<use xlink:href="#path0_stroke" transform="matrix(-4.37114e-08 1 1 4.37114e-08 -12709 10404)" fill="#FFFFFF" fill-opacity="0.05"/>
</g>
<g id="Line 2.19">
<use xlink:href="#path0_stroke" transform="matrix(-4.37114e-08 1 1 4.37114e-08 -12699 10404)" fill="#FFFFFF" fill-opacity="0.05"/>
</g>
<g id="Line 2.20">
<use xlink:href="#path0_stroke" transform="matrix(-4.37114e-08 1 1 4.37114e-08 -12689 10404)" fill="#FFFFFF" fill-opacity="0.05"/>
</g>
<g id="Line 2.21">
<use xlink:href="#path0_stroke" transform="matrix(-4.37114e-08 1 1 4.37114e-08 -12689 10404)" fill="#FFFFFF" fill-opacity="0.05"/>
</g>
</g>
<g id="Group 2.31">
<g id="Line 2">
<use xlink:href="#path0_stroke" transform="matrix(-4.37114e-08 1 1 4.37114e-08 -12679 10404)" fill="#FFFFFF" fill-opacity="0.05"/>
</g>
<g id="Line 2.15">
<use xlink:href="#path0_stroke" transform="matrix(-4.37114e-08 1 1 4.37114e-08 -12669 10404)" fill="#FFFFFF" fill-opacity="0.05"/>
</g>
<g id="Line 2.16">
<use xlink:href="#path0_stroke" transform="matrix(-4.37114e-08 1 1 4.37114e-08 -12659 10404)" fill="#FFFFFF" fill-opacity="0.05"/>
</g>
<g id="Line 2.17">
<use xlink:href="#path0_stroke" transform="matrix(-4.37114e-08 1 1 4.37114e-08 -12649 10404)" fill="#FFFFFF" fill-opacity="0.05"/>
</g>
<g id="Line 2.18">
<use xlink:href="#path0_stroke" transform="matrix(-4.37114e-08 1 1 4.37114e-08 -12639 10404)" fill="#FFFFFF" fill-opacity="0.05"/>
</g>
<g id="Line 2.19">
<use xlink:href="#path0_stroke" transform="matrix(-4.37114e-08 1 1 4.37114e-08 -12629 10404)" fill="#FFFFFF" fill-opacity="0.05"/>
</g>
<g id="Line 2.20">
<use xlink:href="#path0_stroke" transform="matrix(-4.37114e-08 1 1 4.37114e-08 -12619 10404)" fill="#FFFFFF" fill-opacity="0.05"/>
</g>
<g id="Line 2.21">
<use xlink:href="#path0_stroke" transform="matrix(-4.37114e-08 1 1 4.37114e-08 -12619 10404)" fill="#FFFFFF" fill-opacity="0.05"/>
</g>
</g>
<g id="Group 2.32">
<g id="Line 2">
<use xlink:href="#path0_stroke" transform="matrix(-4.37114e-08 1 1 4.37114e-08 -12609 10404)" fill="#FFFFFF" fill-opacity="0.05"/>
</g>
<g id="Line 2.15">
<use xlink:href="#path0_stroke" transform="matrix(-4.37114e-08 1 1 4.37114e-08 -12599 10404)" fill="#FFFFFF" fill-opacity="0.05"/>
</g>
<g id="Line 2.16">
<use xlink:href="#path0_stroke" transform="matrix(-4.37114e-08 1 1 4.37114e-08 -12589 10404)" fill="#FFFFFF" fill-opacity="0.05"/>
</g>
<g id="Line 2.17">
<use xlink:href="#path0_stroke" transform="matrix(-4.37114e-08 1 1 4.37114e-08 -12579 10404)" fill="#FFFFFF" fill-opacity="0.05"/>
</g>
<g id="Line 2.18">
<use xlink:href="#path0_stroke" transform="matrix(-4.37114e-08 1 1 4.37114e-08 -12569 10404)" fill="#FFFFFF" fill-opacity="0.05"/>
</g>
<g id="Line 2.19">
<use xlink:href="#path0_stroke" transform="matrix(-4.37114e-08 1 1 4.37114e-08 -12559 10404)" fill="#FFFFFF" fill-opacity="0.05"/>
</g>
<g id="Line 2.20">
<use xlink:href="#path0_stroke" transform="matrix(-4.37114e-08 1 1 4.37114e-08 -12549 10404)" fill="#FFFFFF" fill-opacity="0.05"/>
</g>
<g id="Line 2.21">
<use xlink:href="#path0_stroke" transform="matrix(-4.37114e-08 1 1 4.37114e-08 -12549 10404)" fill="#FFFFFF" fill-opacity="0.05"/>
</g>
</g>
<g id="Group 2.33">
<g id="Line 2">
<use xlink:href="#path0_stroke" transform="matrix(-4.37114e-08 1 1 4.37114e-08 -12539 10404)" fill="#FFFFFF" fill-opacity="0.05"/>
</g>
<g id="Line 2.15">
<use xlink:href="#path0_stroke" transform="matrix(-4.37114e-08 1 1 4.37114e-08 -12529 10404)" fill="#FFFFFF" fill-opacity="0.05"/>
</g>
<g id="Line 2.16">
<use xlink:href="#path0_stroke" transform="matrix(-4.37114e-08 1 1 4.37114e-08 -12519 10404)" fill="#FFFFFF" fill-opacity="0.05"/>
</g>
<g id="Line 2.17">
<use xlink:href="#path0_stroke" transform="matrix(-4.37114e-08 1 1 4.37114e-08 -12509 10404)" fill="#FFFFFF" fill-opacity="0.05"/>
</g>
<g id="Line 2.18">
<use xlink:href="#path0_stroke" transform="matrix(-4.37114e-08 1 1 4.37114e-08 -12499 10404)" fill="#FFFFFF" fill-opacity="0.05"/>
</g>
<g id="Line 2.19">
<use xlink:href="#path0_stroke" transform="matrix(-4.37114e-08 1 1 4.37114e-08 -12489 10404)" fill="#FFFFFF" fill-opacity="0.05"/>
</g>
<g id="Line 2.20">
<use xlink:href="#path0_stroke" transform="matrix(-4.37114e-08 1 1 4.37114e-08 -12479 10404)" fill="#FFFFFF" fill-opacity="0.05"/>
</g>
<g id="Line 2.21">
<use xlink:href="#path0_stroke" transform="matrix(-4.37114e-08 1 1 4.37114e-08 -12479 10404)" fill="#FFFFFF" fill-opacity="0.05"/>
</g>
</g>
</g>
</g>
<defs>
<path id="path0_stroke" d="M 0 0L 8 0L 8 -1L 0 -1L 0 0Z"/>
</defs>
</svg>
