<svg width="8" height="460" viewBox="0 0 8 460" version="1.1" xmlns="http://www.w3.org/2000/svg" xmlns:xlink="http://www.w3.org/1999/xlink">
<title>Arrow 2</title>
<desc>Created using Figma</desc>
<g id="Canvas" transform="translate(13734 -9944)">
<g id="Arrow 2">
<use xlink:href="#path0_stroke" transform="matrix(-4.37114e-08 -1 1 -4.37114e-08 -13730 10404)" fill="#FFFFFF"/>
</g>
</g>
<defs>
<path id="path0_stroke" d="M 459.354 0.353553C 459.549 0.158291 459.549 -0.158291 459.354 -0.353553L 456.172 -3.53553C 455.976 -3.7308 455.66 -3.7308 455.464 -3.53553C 455.269 -3.34027 455.269 -3.02369 455.464 -2.82843L 458.293 0L 455.464 2.82843C 455.269 3.02369 455.269 3.34027 455.464 3.53553C 455.66 3.7308 455.976 3.7308 456.172 3.53553L 459.354 0.353553ZM 0 0.5L 459 0.5L 459 -0.5L 0 -0.5L 0 0.5Z"/>
</defs>
</svg>
