<svg width="1350" height="399" viewBox="0 0 1350 399" version="1.1" xmlns="http://www.w3.org/2000/svg" xmlns:xlink="http://www.w3.org/1999/xlink">
<title>Group 5</title>
<desc>Created using Figma</desc>
<g id="Canvas" transform="translate(13732 -10007)">
<g id="Group 5">
<g id="Vector 2">
<use xlink:href="#path0_stroke" transform="translate(-13730 10098)" fill="#DF3162" fill-opacity="0.5"/>
</g>
<g id="Vector 2.1">
<use xlink:href="#path1_stroke" transform="translate(-13731 10008)" fill="#2B99FF" fill-opacity="0.5"/>
</g>
</g>
</g>
<defs>
<path id="path0_stroke" d="M 135 28L 135.113 27.5129L 134.725 27.4229L 134.551 27.7809L 135 28ZM 385 86L 384.887 86.4871L 385.008 86.5151L 385.128 86.4834L 385 86ZM 657 14L 657.103 13.5107L 656.987 13.4863L 656.872 13.5166L 657 14ZM 895 64L 895.103 63.5108L 895.103 63.5107L 895 64ZM 1189 126L 1188.9 126.489L 1189.1 126.533L 1189.28 126.416L 1189 126ZM 0.449462 305.219L 135.449 28.2191L 134.551 27.7809L -0.449462 304.781L 0.449462 305.219ZM 134.887 28.4871L 384.887 86.4871L 385.113 85.5129L 135.113 27.5129L 134.887 28.4871ZM 385.128 86.4834L 657.128 14.4834L 656.872 13.5166L 384.872 85.5166L 385.128 86.4834ZM 656.897 14.4893L 894.897 64.4893L 895.103 63.5107L 657.103 13.5107L 656.897 14.4893ZM 894.897 64.4892L 1188.9 126.489L 1189.1 125.511L 895.103 63.5108L 894.897 64.4892ZM 1189.28 126.416L 1378.28 0.416025L 1377.72 -0.416025L 1188.72 125.584L 1189.28 126.416Z"/>
<path id="path1_stroke" d="M 393 114L 393.156 113.525L 392.914 113.446L 392.708 113.594L 393 114ZM 777 240L 776.844 240.475L 777.007 240.529L 777.169 240.471L 777 240ZM 1129 114L 1129.17 114.471L 1129.19 114.464L 1129.21 114.455L 1129 114ZM 0.29218 397.406L 393.292 114.406L 392.708 113.594L -0.29218 396.594L 0.29218 397.406ZM 392.844 114.475L 776.844 240.475L 777.156 239.525L 393.156 113.525L 392.844 114.475ZM 777.169 240.471L 1129.17 114.471L 1128.83 113.529L 776.831 239.529L 777.169 240.471ZM 1129.21 114.455L 1379.21 0.454934L 1378.79 -0.454934L 1128.79 113.545L 1129.21 114.455Z"/>
</defs>
</svg>
