<svg width="303" height="216" viewBox="0 0 303 216" version="1.1" xmlns="http://www.w3.org/2000/svg" xmlns:xlink="http://www.w3.org/1999/xlink">
<title>Group 5</title>
<desc>Created using Figma</desc>
<g id="Canvas" transform="translate(15652 -8770)">
<g id="Group 5">
<g id="Line 7" opacity="0.3">
<use xlink:href="#path0_stroke" transform="matrix(6.5776e-17 -1 1 5.70025e-17 -15568.2 8938.89)" fill="#FFFFFF" fill-opacity="0.2"/>
</g>
<g id="Line 7.4" opacity="0.3">
<use xlink:href="#path1_stroke" transform="matrix(1 2.66758e-24 -2.67621e-24 1 -15616.2 8920.74)" fill="#BFBFBF" fill-opacity="0.2"/>
</g>
<g id="Line 7.6" opacity="0.3">
<use xlink:href="#path2_stroke" transform="matrix(1 2.59096e-24 -2.75535e-24 1 -15616.2 8901.4)" fill="#FFFFFF" fill-opacity="0.2"/>
</g>
<g id="Line 7.7" opacity="0.3">
<use xlink:href="#path2_stroke" transform="matrix(1 2.59096e-24 -2.75535e-24 1 -15616.2 8853.2)" fill="#FFFFFF" fill-opacity="0.2"/>
</g>
<g id="Line 7.8" opacity="0.3">
<use xlink:href="#path2_stroke" transform="matrix(1 2.59096e-24 -2.75535e-24 1 -15616.2 8810.36)" fill="#FFFFFF" fill-opacity="0.2"/>
</g>
<g id="Line 7.1" opacity="0.3">
<use xlink:href="#path0_stroke" transform="matrix(6.5776e-17 -1 1 5.70025e-17 -15520.3 8938.89)" fill="#FFFFFF" fill-opacity="0.2"/>
</g>
<g id="Line 7.2" opacity="0.3">
<use xlink:href="#path0_stroke" transform="matrix(6.5776e-17 -1 1 5.70025e-17 -15471.1 8938.89)" fill="#FFFFFF" fill-opacity="0.2"/>
</g>
<g id="Line 7.3" opacity="0.3">
<use xlink:href="#path0_stroke" transform="matrix(6.5776e-17 -1 1 5.70025e-17 -15422.5 8938.89)" fill="#FFFFFF" fill-opacity="0.2"/>
</g>
<g id="Line 5.8">
<use xlink:href="#path3_stroke" transform="translate(-15621.3 8921.04)" fill="#56CCF2"/>
</g>
<g id="Line 5.9">
<use xlink:href="#path3_stroke" transform="translate(-15621.3 8902)" fill="#56CCF2"/>
</g>
<g id="Line 5.4">
<use xlink:href="#path4_stroke" transform="matrix(-4.69552e-08 1 -1 -4.06916e-08 -15568.9 8936.51)" fill="#56CCF2"/>
</g>
<g id="Line 5.5">
<use xlink:href="#path4_stroke" transform="matrix(-4.69552e-08 1 -1 -4.06916e-08 -15520.3 8936.51)" fill="#56CCF2"/>
</g>
<g id="Line 5.2">
<use xlink:href="#path3_stroke" transform="translate(-15621.3 8853.8)" fill="#56CCF2"/>
</g>
<g id="Line 5.3">
<use xlink:href="#path3_stroke" transform="translate(-15621.3 8810.36)" fill="#56CCF2"/>
</g>
<g id="Arrow">
<use xlink:href="#path5_stroke" transform="matrix(-6.42786e-08 -1 -1 2.97251e-08 -15618.1 8939.49)" fill="#56CCF2"/>
</g>
<g id="Arrow">
<use xlink:href="#path6_stroke" transform="matrix(1 1.60553e-16 1.61072e-16 -1 -15618.1 8939.49)" fill="#56CCF2"/>
</g>
<g id="Forex">
<use xlink:href="#path7_fill" transform="translate(-15457 8786)" fill="#FFFFFF"/>
</g>
<g id="3&#209;&#130;&#209;&#128;&#208;&#189;">
<use xlink:href="#path8_fill" transform="translate(-15652 8800)" fill="#FFFFFF"/>
</g>
<g id="$">
<use xlink:href="#path9_fill" transform="translate(-15620.6 8766)" fill="#FFFFFF"/>
</g>
<g id="2&#209;&#130;&#209;&#128;&#208;&#189;">
<use xlink:href="#path10_fill" transform="translate(-15652 8844)" fill="#FFFFFF"/>
</g>
<g id="1&#209;&#130;&#209;&#128;&#208;&#189;">
<use xlink:href="#path11_fill" transform="translate(-15652 8893)" fill="#FFFFFF"/>
</g>
<g id="0.5&#209;&#130;&#209;&#128;&#208;&#189;">
<use xlink:href="#path12_fill" transform="translate(-15652 8911)" fill="#FFFFFF"/>
</g>
<g id="1 &#208;&#186;&#208;&#178;. 2019">
<use xlink:href="#path13_fill" transform="translate(-15592 8949)" fill="#FFFFFF"/>
</g>
<g id="1 &#208;&#186;&#208;&#178;. 2020">
<use xlink:href="#path14_fill" transform="translate(-15538 8949)" fill="#FFFFFF"/>
</g>
<g id="1 &#208;&#186;&#208;&#178;. 2021">
<use xlink:href="#path15_fill" transform="translate(-15489 8949)" fill="#FFFFFF"/>
</g>
<g id="1 &#208;&#186;&#208;&#178;. 2022">
<use xlink:href="#path16_fill" transform="translate(-15438 8949)" fill="#FFFFFF"/>
</g>
<g id="Line 6">
<use xlink:href="#path17_stroke" transform="translate(-15618.7 8810.36)" fill="#2B99FF"/>
</g>
<g id="Vector 5">
<use xlink:href="#path18_fill" transform="translate(-15618.7 8901.4)" fill="#56CCF2" fill-opacity="0.22"/>
</g>
<g id="Vector 5.1">
<use xlink:href="#path19_stroke" transform="translate(-15618.1 8901.4)" fill="#56CCF2"/>
</g>
<g id="Vector 5.2">
<use xlink:href="#path20_stroke" transform="translate(-15427 8829.4)" fill="#56CCF2" fill-opacity="0.25"/>
</g>
<g id="Ellipse 7">
<use xlink:href="#path21_fill" transform="translate(-15570.1 8929.96)" fill="#FFFFFF"/>
</g>
<g id="Ellipse 7.4">
<use xlink:href="#path22_fill" transform="translate(-15572.1 8928.18)" fill="#FFFFFF" fill-opacity="0.2"/>
</g>
<g id="Ellipse 7.5">
<use xlink:href="#path23_fill" transform="translate(-15573.3 8926.99)" fill="#FFFFFF" fill-opacity="0.2"/>
</g>
<g id="Ellipse 7.6">
<use xlink:href="#path21_fill" transform="translate(-15522.2 8923.42)" fill="#FFFFFF"/>
</g>
<g id="Ellipse 7.7">
<use xlink:href="#path22_fill" transform="translate(-15524.1 8921.63)" fill="#FFFFFF" fill-opacity="0.2"/>
</g>
<g id="Ellipse 7.8">
<use xlink:href="#path23_fill" transform="translate(-15525.4 8920.44)" fill="#FFFFFF" fill-opacity="0.2"/>
</g>
<g id="Ellipse 7.9">
<use xlink:href="#path21_fill" transform="translate(-15472.3 8913.3)" fill="#FFFFFF"/>
</g>
<g id="Ellipse 7.10">
<use xlink:href="#path22_fill" transform="translate(-15474.3 8911.52)" fill="#FFFFFF" fill-opacity="0.2"/>
</g>
<g id="Ellipse 7.11">
<use xlink:href="#path23_fill" transform="translate(-15475.5 8910.33)" fill="#FFFFFF" fill-opacity="0.2"/>
</g>
<g id="Ellipse 7.12">
<use xlink:href="#path21_fill" transform="translate(-15423.8 8900.21)" fill="#FFFFFF"/>
</g>
<g id="Ellipse 7.13">
<use xlink:href="#path24_fill" transform="translate(-15425.7 8898.43)" fill="#FFFFFF" fill-opacity="0.2"/>
</g>
<g id="Ellipse 7.14">
<use xlink:href="#path23_fill" transform="translate(-15427 8897.24)" fill="#FFFFFF" fill-opacity="0.2"/>
</g>
<g id="Line 5.6">
<use xlink:href="#path4_stroke" transform="matrix(-4.69552e-08 1 -1 -4.06916e-08 -15471.1 8936.51)" fill="#56CCF2"/>
</g>
<g id="Line 5.7">
<use xlink:href="#path4_stroke" transform="matrix(-4.69552e-08 1 -1 -4.06916e-08 -15422.5 8936.51)" fill="#56CCF2"/>
</g>
<g id="&#208;&#160;&#209;&#139;&#208;&#189;&#208;&#190;&#208;&#186; &#208;&#186;&#209;&#128;&#208;&#184;&#208;&#191;&#209;&#130;&#208;&#190;&#208;&#178;&#208;&#176;&#208;&#187;&#209;&#142;&#209;&#130;">
<use xlink:href="#path25_fill" transform="translate(-15457 8850)" fill="#FFFFFF"/>
</g>
</g>
</g>
<defs>
<path id="path0_stroke" d="M 0 0L 149.958 0L 149.958 -1L 0 -1L 0 0Z"/>
<path id="path1_stroke" d="M 0 0.5L 321.532 0.5L 321.532 -0.5L 0 -0.5L 0 0.5Z"/>
<path id="path2_stroke" d="M 0 0.5L 322.172 0.5L 322.172 -0.5L 0 -0.5L 0 0.5Z"/>
<path id="path3_stroke" d="M 0 -5.55112e-17L 6.39229 -5.55112e-17L 6.39229 -1L 0 -1L 0 -5.55112e-17Z"/>
<path id="path4_stroke" d="M 0 0L 5.95069 0L 5.95069 -1L 0 -1L 0 0Z"/>
<path id="path5_stroke" d="M 152.097 0.353553C 152.292 0.158291 152.292 -0.158291 152.097 -0.353553L 148.915 -3.53553C 148.72 -3.7308 148.403 -3.7308 148.208 -3.53553C 148.013 -3.34027 148.013 -3.02369 148.208 -2.82843L 151.036 0L 148.208 2.82843C 148.013 3.02369 148.013 3.34027 148.208 3.53553C 148.403 3.7308 148.72 3.7308 148.915 3.53553L 152.097 0.353553ZM 0 0.5L 151.744 0.5L 151.744 -0.5L 0 -0.5L 0 0.5Z"/>
<path id="path6_stroke" d="M 323.804 0.353553C 323.999 0.158291 323.999 -0.158291 323.804 -0.353553L 320.622 -3.53553C 320.426 -3.7308 320.11 -3.7308 319.915 -3.53553C 319.719 -3.34027 319.719 -3.02369 319.915 -2.82843L 322.743 0L 319.915 2.82843C 319.719 3.02369 319.719 3.34027 319.915 3.53553C 320.11 3.7308 320.426 3.7308 320.622 3.53553L 323.804 0.353553ZM 0 0.5L 323.45 0.5L 323.45 -0.5L 0 -0.5L 0 0.5Z"/>
<path id="path7_fill" d="M 2.53613 15L 1.37402 15L 1.37402 5.00586L 6.94531 5.00586L 6.94531 6.03809L 2.53613 6.03809L 2.53613 9.69531L 6.67871 9.69531L 6.67871 10.7275L 2.53613 10.7275L 2.53613 15ZM 14.9023 11.2471C 14.9023 12.4684 14.5947 13.4232 13.9795 14.1113C 13.3643 14.7949 12.5143 15.1367 11.4297 15.1367C 10.7598 15.1367 10.165 14.9795 9.64551 14.665C 9.12598 14.3506 8.72493 13.8994 8.44238 13.3115C 8.15983 12.7236 8.01855 12.0355 8.01855 11.2471C 8.01855 10.0257 8.32389 9.07552 8.93457 8.39648C 9.54525 7.71289 10.3929 7.37109 11.4775 7.37109C 12.5257 7.37109 13.3574 7.71973 13.9727 8.41699C 14.5924 9.11426 14.9023 10.0576 14.9023 11.2471ZM 9.19434 11.2471C 9.19434 12.2041 9.38574 12.9333 9.76855 13.4346C 10.1514 13.9359 10.7142 14.1865 11.457 14.1865C 12.1999 14.1865 12.7627 13.9382 13.1455 13.4414C 13.5329 12.9401 13.7266 12.2087 13.7266 11.2471C 13.7266 10.2946 13.5329 9.57227 13.1455 9.08008C 12.7627 8.58333 12.1953 8.33496 11.4434 8.33496C 10.7005 8.33496 10.14 8.57878 9.76172 9.06641C 9.38346 9.55404 9.19434 10.2809 9.19434 11.2471ZM 20.3164 7.37109C 20.6491 7.37109 20.9476 7.39844 21.2119 7.45312L 21.0547 8.50586C 20.7448 8.4375 20.4714 8.40332 20.2344 8.40332C 19.6283 8.40332 19.1087 8.64941 18.6758 9.1416C 18.2474 9.63379 18.0332 10.2467 18.0332 10.9805L 18.0332 15L 16.8984 15L 16.8984 7.50781L 17.835 7.50781L 17.9648 8.89551L 18.0195 8.89551C 18.2975 8.40788 18.6325 8.0319 19.0244 7.76758C 19.4163 7.50326 19.847 7.37109 20.3164 7.37109ZM 25.7783 15.1367C 24.6709 15.1367 23.7959 14.7995 23.1533 14.125C 22.5153 13.4505 22.1963 12.514 22.1963 11.3154C 22.1963 10.1077 22.4925 9.14844 23.085 8.4375C 23.682 7.72656 24.4818 7.37109 25.4844 7.37109C 26.4232 7.37109 27.166 7.68099 27.7129 8.30078C 28.2598 8.91602 28.5332 9.72949 28.5332 10.7412L 28.5332 11.459L 23.3721 11.459C 23.3949 12.3385 23.6159 13.0062 24.0352 13.4619C 24.459 13.9176 25.0537 14.1455 25.8193 14.1455C 26.626 14.1455 27.4235 13.9769 28.2119 13.6396L 28.2119 14.6514C 27.8109 14.8245 27.4303 14.9476 27.0703 15.0205C 26.7148 15.098 26.2842 15.1367 25.7783 15.1367ZM 25.4707 8.32129C 24.8691 8.32129 24.3883 8.51725 24.0283 8.90918C 23.6729 9.30111 23.4632 9.84342 23.3994 10.5361L 27.3164 10.5361C 27.3164 9.82064 27.1569 9.27376 26.8379 8.89551C 26.5189 8.5127 26.0632 8.32129 25.4707 8.32129ZM 32.2793 11.165L 29.6748 7.50781L 30.9668 7.50781L 32.9424 10.3789L 34.9111 7.50781L 36.1895 7.50781L 33.585 11.165L 36.3262 15L 35.041 15L 32.9424 11.9648L 30.8232 15L 29.5381 15L 32.2793 11.165Z"/>
<path id="path8_fill" d="M 6.38574 6.90332C 6.38574 7.49577 6.21859 7.98031 5.88428 8.35693C 5.5542 8.73356 5.08447 8.98535 4.4751 9.1123L 4.4751 9.16309C 5.21989 9.25619 5.77214 9.49316 6.13184 9.87402C 6.49154 10.2549 6.67139 10.7542 6.67139 11.3721C 6.67139 12.2565 6.36458 12.9378 5.75098 13.416C 5.13737 13.89 4.26562 14.127 3.13574 14.127C 2.64486 14.127 2.19417 14.0889 1.78369 14.0127C 1.37744 13.9408 0.981771 13.8117 0.59668 13.6255L 0.59668 12.6226C 0.998698 12.8215 1.42611 12.9738 1.87891 13.0796C 2.33594 13.1812 2.76758 13.2319 3.17383 13.2319C 4.77767 13.2319 5.57959 12.6035 5.57959 11.3467C 5.57959 10.221 4.69515 9.6582 2.92627 9.6582L 2.01221 9.6582L 2.01221 8.75049L 2.93896 8.75049C 3.6626 8.75049 4.236 8.5918 4.65918 8.27441C 5.08236 7.9528 5.29395 7.50846 5.29395 6.94141C 5.29395 6.48861 5.13737 6.13314 4.82422 5.875C 4.5153 5.61686 4.09424 5.48779 3.56104 5.48779C 3.15479 5.48779 2.77181 5.54281 2.41211 5.65283C 2.05241 5.76286 1.64193 5.96598 1.18066 6.26221L 0.647461 5.55127C 1.02832 5.25081 1.46631 5.01595 1.96143 4.84668C 2.46077 4.67318 2.98551 4.58643 3.53564 4.58643C 4.43701 4.58643 5.13737 4.79378 5.63672 5.2085C 6.13607 5.61898 6.38574 6.18392 6.38574 6.90332ZM 13.2476 7.94434L 10.9878 7.94434L 10.9878 14L 9.93408 14L 9.93408 7.94434L 7.69971 7.94434L 7.69971 7.04297L 13.2476 7.04297L 13.2476 7.94434ZM 17.8623 14.127C 17.4095 14.127 16.9948 14.0444 16.6182 13.8794C 16.2458 13.7101 15.9326 13.452 15.6787 13.105L 15.6025 13.105C 15.6533 13.5112 15.6787 13.8963 15.6787 14.2603L 15.6787 17.123L 14.625 17.123L 14.625 7.04297L 15.4819 7.04297L 15.6279 7.99512L 15.6787 7.99512C 15.9495 7.61426 16.2648 7.33919 16.6245 7.16992C 16.9842 7.00065 17.3968 6.91602 17.8623 6.91602C 18.7848 6.91602 19.4958 7.23128 19.9951 7.86182C 20.4987 8.49235 20.7505 9.37679 20.7505 10.5151C 20.7505 11.6577 20.4945 12.5464 19.9824 13.1812C 19.4746 13.8117 18.7679 14.127 17.8623 14.127ZM 17.71 7.81104C 16.999 7.81104 16.4849 8.00781 16.1675 8.40137C 15.8501 8.79492 15.6872 9.42122 15.6787 10.2803L 15.6787 10.5151C 15.6787 11.4927 15.8416 12.193 16.1675 12.6162C 16.4933 13.0352 17.016 13.2446 17.7354 13.2446C 18.3363 13.2446 18.806 13.0013 19.1445 12.5146C 19.4873 12.028 19.6587 11.3573 19.6587 10.5024C 19.6587 9.63493 19.4873 8.97054 19.1445 8.50928C 18.806 8.04378 18.3278 7.81104 17.71 7.81104ZM 23.6514 7.04297L 23.6514 9.95654L 27.5488 9.95654L 27.5488 7.04297L 28.6025 7.04297L 28.6025 14L 27.5488 14L 27.5488 10.8643L 23.6514 10.8643L 23.6514 14L 22.5977 14L 22.5977 7.04297L 23.6514 7.04297Z"/>
<path id="path9_fill" d="M 8.09375 13.4922C 8.09375 14.2005 7.82812 14.7865 7.29688 15.25C 6.76562 15.7083 6.02344 15.9974 5.07031 16.1172L 5.07031 17.9297L 4.0625 17.9297L 4.0625 16.1875C 3.47917 16.1875 2.91406 16.1432 2.36719 16.0547C 1.82031 15.9609 1.3724 15.8333 1.02344 15.6719L 1.02344 14.4531C 1.45573 14.6458 1.95312 14.8047 2.51562 14.9297C 3.08333 15.0495 3.59896 15.1094 4.0625 15.1094L 4.0625 11.6719C 2.99479 11.3333 2.24479 10.9401 1.8125 10.4922C 1.38542 10.0443 1.17188 9.46615 1.17188 8.75781C 1.17188 8.07552 1.4349 7.51562 1.96094 7.07812C 2.49219 6.64062 3.19271 6.375 4.0625 6.28125L 4.0625 4.85938L 5.07031 4.85938L 5.07031 6.26562C 6.02865 6.29167 6.95312 6.48438 7.84375 6.84375L 7.4375 7.86719C 6.66146 7.5599 5.8724 7.3776 5.07031 7.32031L 5.07031 10.7109C 5.88802 10.9714 6.5 11.2266 6.90625 11.4766C 7.3125 11.7214 7.61198 12.0052 7.80469 12.3281C 7.9974 12.6458 8.09375 13.0339 8.09375 13.4922ZM 6.76562 13.5938C 6.76562 13.2188 6.64844 12.9167 6.41406 12.6875C 6.1849 12.4531 5.73698 12.2214 5.07031 11.9922L 5.07031 15.0312C 6.20052 14.875 6.76562 14.3958 6.76562 13.5938ZM 2.49219 8.74219C 2.49219 9.13802 2.60938 9.45573 2.84375 9.69531C 3.07812 9.9349 3.48438 10.1615 4.0625 10.375L 4.0625 7.35156C 3.54688 7.4349 3.15625 7.59896 2.89062 7.84375C 2.625 8.08333 2.49219 8.38281 2.49219 8.74219Z"/>
<path id="path10_fill" d="M 6.73486 14L 0.634766 14L 0.634766 13.0923L 3.07861 10.6357C 3.8234 9.88249 4.31429 9.34505 4.55127 9.02344C 4.78825 8.70182 4.96598 8.38867 5.08447 8.08398C 5.20296 7.7793 5.26221 7.45133 5.26221 7.1001C 5.26221 6.60498 5.11198 6.21354 4.81152 5.92578C 4.51107 5.63379 4.09424 5.48779 3.56104 5.48779C 3.17594 5.48779 2.8099 5.55127 2.46289 5.67822C 2.12012 5.80518 1.73714 6.03581 1.31396 6.37012L 0.755371 5.65283C 1.61019 4.94189 2.54118 4.58643 3.54834 4.58643C 4.42008 4.58643 5.10352 4.81071 5.59863 5.25928C 6.09375 5.70361 6.34131 6.30241 6.34131 7.05566C 6.34131 7.64388 6.17627 8.22575 5.84619 8.80127C 5.51611 9.37679 4.89827 10.1047 3.99268 10.9849L 1.96143 12.9717L 1.96143 13.0225L 6.73486 13.0225L 6.73486 14ZM 13.2476 7.94434L 10.9878 7.94434L 10.9878 14L 9.93408 14L 9.93408 7.94434L 7.69971 7.94434L 7.69971 7.04297L 13.2476 7.04297L 13.2476 7.94434ZM 17.8623 14.127C 17.4095 14.127 16.9948 14.0444 16.6182 13.8794C 16.2458 13.7101 15.9326 13.452 15.6787 13.105L 15.6025 13.105C 15.6533 13.5112 15.6787 13.8963 15.6787 14.2603L 15.6787 17.123L 14.625 17.123L 14.625 7.04297L 15.4819 7.04297L 15.6279 7.99512L 15.6787 7.99512C 15.9495 7.61426 16.2648 7.33919 16.6245 7.16992C 16.9842 7.00065 17.3968 6.91602 17.8623 6.91602C 18.7848 6.91602 19.4958 7.23128 19.9951 7.86182C 20.4987 8.49235 20.7505 9.37679 20.7505 10.5151C 20.7505 11.6577 20.4945 12.5464 19.9824 13.1812C 19.4746 13.8117 18.7679 14.127 17.8623 14.127ZM 17.71 7.81104C 16.999 7.81104 16.4849 8.00781 16.1675 8.40137C 15.8501 8.79492 15.6872 9.42122 15.6787 10.2803L 15.6787 10.5151C 15.6787 11.4927 15.8416 12.193 16.1675 12.6162C 16.4933 13.0352 17.016 13.2446 17.7354 13.2446C 18.3363 13.2446 18.806 13.0013 19.1445 12.5146C 19.4873 12.028 19.6587 11.3573 19.6587 10.5024C 19.6587 9.63493 19.4873 8.97054 19.1445 8.50928C 18.806 8.04378 18.3278 7.81104 17.71 7.81104ZM 23.6514 7.04297L 23.6514 9.95654L 27.5488 9.95654L 27.5488 7.04297L 28.6025 7.04297L 28.6025 14L 27.5488 14L 27.5488 10.8643L 23.6514 10.8643L 23.6514 14L 22.5977 14L 22.5977 7.04297L 23.6514 7.04297Z"/>
<path id="path11_fill" d="M 4.53857 14L 3.51025 14L 3.51025 7.38574C 3.51025 6.83561 3.52718 6.3151 3.56104 5.82422C 3.47217 5.91309 3.37272 6.00618 3.2627 6.10352C 3.15267 6.20085 2.64909 6.61344 1.75195 7.34131L 1.19336 6.61768L 3.6499 4.71973L 4.53857 4.71973L 4.53857 14ZM 13.2476 7.94434L 10.9878 7.94434L 10.9878 14L 9.93408 14L 9.93408 7.94434L 7.69971 7.94434L 7.69971 7.04297L 13.2476 7.04297L 13.2476 7.94434ZM 17.8623 14.127C 17.4095 14.127 16.9948 14.0444 16.6182 13.8794C 16.2458 13.7101 15.9326 13.452 15.6787 13.105L 15.6025 13.105C 15.6533 13.5112 15.6787 13.8963 15.6787 14.2603L 15.6787 17.123L 14.625 17.123L 14.625 7.04297L 15.4819 7.04297L 15.6279 7.99512L 15.6787 7.99512C 15.9495 7.61426 16.2648 7.33919 16.6245 7.16992C 16.9842 7.00065 17.3968 6.91602 17.8623 6.91602C 18.7848 6.91602 19.4958 7.23128 19.9951 7.86182C 20.4987 8.49235 20.7505 9.37679 20.7505 10.5151C 20.7505 11.6577 20.4945 12.5464 19.9824 13.1812C 19.4746 13.8117 18.7679 14.127 17.8623 14.127ZM 17.71 7.81104C 16.999 7.81104 16.4849 8.00781 16.1675 8.40137C 15.8501 8.79492 15.6872 9.42122 15.6787 10.2803L 15.6787 10.5151C 15.6787 11.4927 15.8416 12.193 16.1675 12.6162C 16.4933 13.0352 17.016 13.2446 17.7354 13.2446C 18.3363 13.2446 18.806 13.0013 19.1445 12.5146C 19.4873 12.028 19.6587 11.3573 19.6587 10.5024C 19.6587 9.63493 19.4873 8.97054 19.1445 8.50928C 18.806 8.04378 18.3278 7.81104 17.71 7.81104ZM 23.6514 7.04297L 23.6514 9.95654L 27.5488 9.95654L 27.5488 7.04297L 28.6025 7.04297L 28.6025 14L 27.5488 14L 27.5488 10.8643L 23.6514 10.8643L 23.6514 14L 22.5977 14L 22.5977 7.04297L 23.6514 7.04297Z"/>
<path id="path12_fill" d="M 6.78564 9.34717C 6.78564 10.951 6.53174 12.1486 6.02393 12.9399C 5.52035 13.7313 4.74805 14.127 3.70703 14.127C 2.70833 14.127 1.94873 13.7228 1.42822 12.9146C 0.907715 12.1021 0.647461 10.9129 0.647461 9.34717C 0.647461 7.73063 0.899251 6.53092 1.40283 5.74805C 1.90641 4.96517 2.67448 4.57373 3.70703 4.57373C 4.71419 4.57373 5.47803 4.9821 5.99854 5.79883C 6.52327 6.61556 6.78564 7.79834 6.78564 9.34717ZM 1.71387 9.34717C 1.71387 10.6971 1.87256 11.681 2.18994 12.2988C 2.50732 12.9124 3.01302 13.2192 3.70703 13.2192C 4.40951 13.2192 4.91732 12.9082 5.23047 12.2861C 5.54785 11.6598 5.70654 10.6802 5.70654 9.34717C 5.70654 8.01416 5.54785 7.03874 5.23047 6.4209C 4.91732 5.79883 4.40951 5.48779 3.70703 5.48779C 3.01302 5.48779 2.50732 5.7946 2.18994 6.4082C 1.87256 7.01758 1.71387 7.99723 1.71387 9.34717ZM 8.4043 13.3271C 8.4043 13.0436 8.46777 12.8299 8.59473 12.686C 8.72591 12.5379 8.91211 12.4639 9.15332 12.4639C 9.39876 12.4639 9.58919 12.5379 9.72461 12.686C 9.86426 12.8299 9.93408 13.0436 9.93408 13.3271C 9.93408 13.6022 9.86426 13.8138 9.72461 13.9619C 9.58496 14.11 9.39453 14.1841 9.15332 14.1841C 8.9375 14.1841 8.75765 14.1185 8.61377 13.9873C 8.47412 13.8519 8.4043 13.6318 8.4043 13.3271ZM 14.4409 8.33154C 15.4185 8.33154 16.1865 8.57487 16.7451 9.06152C 17.3079 9.54395 17.5894 10.2062 17.5894 11.0483C 17.5894 12.009 17.2826 12.7622 16.6689 13.3081C 16.0596 13.854 15.2174 14.127 14.1426 14.127C 13.0973 14.127 12.2996 13.9598 11.7495 13.6255L 11.7495 12.6099C 12.0457 12.8003 12.4139 12.9505 12.854 13.0605C 13.2941 13.1663 13.7279 13.2192 14.1553 13.2192C 14.9001 13.2192 15.4777 13.0436 15.8882 12.6924C 16.3029 12.3411 16.5103 11.8333 16.5103 11.1689C 16.5103 9.87402 15.7168 9.22656 14.1299 9.22656C 13.7279 9.22656 13.1904 9.28792 12.5176 9.41064L 11.9717 9.06152L 12.3208 4.71973L 16.9355 4.71973L 16.9355 5.69092L 13.2222 5.69092L 12.9873 8.47754C 13.474 8.38021 13.9585 8.33154 14.4409 8.33154ZM 24.1528 7.94434L 21.8931 7.94434L 21.8931 14L 20.8394 14L 20.8394 7.94434L 18.605 7.94434L 18.605 7.04297L 24.1528 7.04297L 24.1528 7.94434ZM 28.7676 14.127C 28.3148 14.127 27.9001 14.0444 27.5234 13.8794C 27.151 13.7101 26.8379 13.452 26.584 13.105L 26.5078 13.105C 26.5586 13.5112 26.584 13.8963 26.584 14.2603L 26.584 17.123L 25.5303 17.123L 25.5303 7.04297L 26.3872 7.04297L 26.5332 7.99512L 26.584 7.99512C 26.8548 7.61426 27.1701 7.33919 27.5298 7.16992C 27.8895 7.00065 28.3021 6.91602 28.7676 6.91602C 29.6901 6.91602 30.401 7.23128 30.9004 7.86182C 31.404 8.49235 31.6558 9.37679 31.6558 10.5151C 31.6558 11.6577 31.3997 12.5464 30.8877 13.1812C 30.3799 13.8117 29.6732 14.127 28.7676 14.127ZM 28.6152 7.81104C 27.9043 7.81104 27.3901 8.00781 27.0728 8.40137C 26.7554 8.79492 26.5924 9.42122 26.584 10.2803L 26.584 10.5151C 26.584 11.4927 26.7469 12.193 27.0728 12.6162C 27.3986 13.0352 27.9212 13.2446 28.6406 13.2446C 29.2415 13.2446 29.7113 13.0013 30.0498 12.5146C 30.3926 12.028 30.564 11.3573 30.564 10.5024C 30.564 9.63493 30.3926 8.97054 30.0498 8.50928C 29.7113 8.04378 29.2331 7.81104 28.6152 7.81104ZM 34.5566 7.04297L 34.5566 9.95654L 38.4541 9.95654L 38.4541 7.04297L 39.5078 7.04297L 39.5078 14L 38.4541 14L 38.4541 10.8643L 34.5566 10.8643L 34.5566 14L 33.5029 14L 33.5029 7.04297L 34.5566 7.04297Z"/>
<path id="path13_fill" d="M 13.0752 15L 11.9678 15L 11.9678 7.87695C 11.9678 7.28451 11.986 6.72396 12.0225 6.19531C 11.9268 6.29102 11.8197 6.39128 11.7012 6.49609C 11.5827 6.60091 11.0404 7.04525 10.0742 7.8291L 9.47266 7.0498L 12.1182 5.00586L 13.0752 5.00586L 13.0752 15ZM 25.4072 7.50781L 26.6514 7.50781L 23.418 11.124L 26.918 15L 25.5918 15L 22.1738 11.2061L 22.1738 15L 21.0391 15L 21.0391 7.50781L 22.1738 7.50781L 22.1738 11.1514L 25.4072 7.50781ZM 34.3896 9.3877C 34.3896 9.87533 34.2484 10.2467 33.9658 10.502C 33.6878 10.7526 33.2959 10.9212 32.79 11.0078L 32.79 11.0693C 33.4281 11.1559 33.8929 11.3428 34.1846 11.6299C 34.4808 11.917 34.6289 12.3135 34.6289 12.8193C 34.6289 13.5166 34.3714 14.0544 33.8564 14.4326C 33.346 14.8109 32.5986 15 31.6143 15L 28.3125 15L 28.3125 7.50781L 31.6006 7.50781C 33.46 7.50781 34.3896 8.13444 34.3896 9.3877ZM 33.4941 12.7441C 33.4941 12.3385 33.3392 12.0446 33.0293 11.8623C 32.724 11.6755 32.2158 11.582 31.5049 11.582L 29.4473 11.582L 29.4473 14.0498L 31.5322 14.0498C 32.8402 14.0498 33.4941 13.6146 33.4941 12.7441ZM 33.2822 9.49707C 33.2822 9.13249 33.141 8.875 32.8584 8.72461C 32.5804 8.56966 32.1566 8.49219 31.5869 8.49219L 29.4473 8.49219L 29.4473 10.6045L 31.3682 10.6045C 32.07 10.6045 32.5645 10.5179 32.8516 10.3447C 33.1387 10.1715 33.2822 9.889 33.2822 9.49707ZM 36.1191 14.2754C 36.1191 13.9701 36.1875 13.7399 36.3242 13.585C 36.4655 13.4255 36.666 13.3457 36.9258 13.3457C 37.1901 13.3457 37.3952 13.4255 37.541 13.585C 37.6914 13.7399 37.7666 13.9701 37.7666 14.2754C 37.7666 14.5716 37.6914 14.7995 37.541 14.959C 37.3906 15.1185 37.1855 15.1982 36.9258 15.1982C 36.6934 15.1982 36.4997 15.1276 36.3447 14.9863C 36.1943 14.8405 36.1191 14.6035 36.1191 14.2754ZM 14.7295 36L 8.16016 36L 8.16016 35.0225L 10.792 32.377C 11.5941 31.5658 12.1227 30.987 12.3779 30.6406C 12.6331 30.2943 12.8245 29.957 12.9521 29.6289C 13.0798 29.3008 13.1436 28.9476 13.1436 28.5693C 13.1436 28.0361 12.9818 27.6146 12.6582 27.3047C 12.3346 26.9902 11.8857 26.833 11.3115 26.833C 10.8968 26.833 10.5026 26.9014 10.1289 27.0381C 9.75977 27.1748 9.34733 27.4232 8.8916 27.7832L 8.29004 27.0107C 9.21061 26.2451 10.2132 25.8623 11.2979 25.8623C 12.2367 25.8623 12.9727 26.1038 13.5059 26.5869C 14.0391 27.0654 14.3057 27.7103 14.3057 28.5215C 14.3057 29.1549 14.1279 29.7816 13.7725 30.4014C 13.417 31.0212 12.7516 31.805 11.7764 32.7529L 9.58887 34.8926L 9.58887 34.9473L 14.7295 34.9473L 14.7295 36ZM 22.7959 30.9893C 22.7959 32.7165 22.5225 34.0062 21.9756 34.8584C 21.4333 35.7106 20.6016 36.1367 19.4805 36.1367C 18.4049 36.1367 17.5869 35.7015 17.0264 34.8311C 16.4658 33.9561 16.1855 32.6755 16.1855 30.9893C 16.1855 29.2484 16.4567 27.9564 16.999 27.1133C 17.5413 26.2702 18.3685 25.8486 19.4805 25.8486C 20.5651 25.8486 21.3877 26.2884 21.9482 27.168C 22.5133 28.0475 22.7959 29.3213 22.7959 30.9893ZM 17.334 30.9893C 17.334 32.443 17.5049 33.5026 17.8467 34.168C 18.1885 34.8288 18.7331 35.1592 19.4805 35.1592C 20.237 35.1592 20.7839 34.8242 21.1211 34.1543C 21.4629 33.4798 21.6338 32.4248 21.6338 30.9893C 21.6338 29.5537 21.4629 28.5033 21.1211 27.8379C 20.7839 27.168 20.237 26.833 19.4805 26.833C 18.7331 26.833 18.1885 27.1634 17.8467 27.8242C 17.5049 28.4805 17.334 29.5355 17.334 30.9893ZM 28.3877 36L 27.2803 36L 27.2803 28.877C 27.2803 28.2845 27.2985 27.724 27.335 27.1953C 27.2393 27.291 27.1322 27.3913 27.0137 27.4961C 26.8952 27.6009 26.3529 28.0452 25.3867 28.8291L 24.7852 28.0498L 27.4307 26.0059L 28.3877 26.0059L 28.3877 36ZM 38.7646 30.2715C 38.7646 34.1816 37.2516 36.1367 34.2256 36.1367C 33.6969 36.1367 33.2777 36.0911 32.9678 36L 32.9678 35.0225C 33.3324 35.141 33.7471 35.2002 34.2119 35.2002C 35.3057 35.2002 36.1305 34.863 36.6865 34.1885C 37.2471 33.5094 37.5524 32.4704 37.6025 31.0713L 37.5205 31.0713C 37.2699 31.4495 36.9372 31.7389 36.5225 31.9395C 36.1077 32.1354 35.6406 32.2334 35.1211 32.2334C 34.237 32.2334 33.5352 31.9691 33.0156 31.4404C 32.4961 30.9118 32.2363 30.1735 32.2363 29.2256C 32.2363 28.1865 32.5257 27.3662 33.1045 26.7646C 33.6878 26.1631 34.4535 25.8623 35.4014 25.8623C 36.0804 25.8623 36.6729 26.0378 37.1787 26.3887C 37.6891 26.735 38.0811 27.2432 38.3545 27.9131C 38.6279 28.5785 38.7646 29.3646 38.7646 30.2715ZM 35.4014 26.833C 34.7497 26.833 34.2461 27.0426 33.8906 27.4619C 33.5352 27.8812 33.3574 28.4645 33.3574 29.2119C 33.3574 29.8682 33.5215 30.3854 33.8496 30.7637C 34.1777 31.1374 34.6768 31.3242 35.3467 31.3242C 35.7614 31.3242 36.1419 31.2399 36.4883 31.0713C 36.8392 30.9027 37.1149 30.6725 37.3154 30.3809C 37.516 30.0892 37.6162 29.7839 37.6162 29.4648C 37.6162 28.9863 37.5228 28.5443 37.3359 28.1387C 37.1491 27.7331 36.887 27.4141 36.5498 27.1816C 36.2171 26.9492 35.8343 26.833 35.4014 26.833Z"/>
<path id="path14_fill" d="M 7.5752 15L 6.46777 15L 6.46777 7.87695C 6.46777 7.28451 6.486 6.72396 6.52246 6.19531C 6.42676 6.29102 6.31966 6.39128 6.20117 6.49609C 6.08268 6.60091 5.54036 7.04525 4.57422 7.8291L 3.97266 7.0498L 6.61816 5.00586L 7.5752 5.00586L 7.5752 15ZM 19.9072 7.50781L 21.1514 7.50781L 17.918 11.124L 21.418 15L 20.0918 15L 16.6738 11.2061L 16.6738 15L 15.5391 15L 15.5391 7.50781L 16.6738 7.50781L 16.6738 11.1514L 19.9072 7.50781ZM 28.8896 9.3877C 28.8896 9.87533 28.7484 10.2467 28.4658 10.502C 28.1878 10.7526 27.7959 10.9212 27.29 11.0078L 27.29 11.0693C 27.9281 11.1559 28.3929 11.3428 28.6846 11.6299C 28.9808 11.917 29.1289 12.3135 29.1289 12.8193C 29.1289 13.5166 28.8714 14.0544 28.3564 14.4326C 27.846 14.8109 27.0986 15 26.1143 15L 22.8125 15L 22.8125 7.50781L 26.1006 7.50781C 27.96 7.50781 28.8896 8.13444 28.8896 9.3877ZM 27.9941 12.7441C 27.9941 12.3385 27.8392 12.0446 27.5293 11.8623C 27.224 11.6755 26.7158 11.582 26.0049 11.582L 23.9473 11.582L 23.9473 14.0498L 26.0322 14.0498C 27.3402 14.0498 27.9941 13.6146 27.9941 12.7441ZM 27.7822 9.49707C 27.7822 9.13249 27.641 8.875 27.3584 8.72461C 27.0804 8.56966 26.6566 8.49219 26.0869 8.49219L 23.9473 8.49219L 23.9473 10.6045L 25.8682 10.6045C 26.57 10.6045 27.0645 10.5179 27.3516 10.3447C 27.6387 10.1715 27.7822 9.889 27.7822 9.49707ZM 30.6191 14.2754C 30.6191 13.9701 30.6875 13.7399 30.8242 13.585C 30.9655 13.4255 31.166 13.3457 31.4258 13.3457C 31.6901 13.3457 31.8952 13.4255 32.041 13.585C 32.1914 13.7399 32.2666 13.9701 32.2666 14.2754C 32.2666 14.5716 32.1914 14.7995 32.041 14.959C 31.8906 15.1185 31.6855 15.1982 31.4258 15.1982C 31.1934 15.1982 30.9997 15.1276 30.8447 14.9863C 30.6943 14.8405 30.6191 14.6035 30.6191 14.2754ZM 9.22949 36L 2.66016 36L 2.66016 35.0225L 5.29199 32.377C 6.09408 31.5658 6.62272 30.987 6.87793 30.6406C 7.13314 30.2943 7.32454 29.957 7.45215 29.6289C 7.57975 29.3008 7.64355 28.9476 7.64355 28.5693C 7.64355 28.0361 7.48177 27.6146 7.1582 27.3047C 6.83464 26.9902 6.38574 26.833 5.81152 26.833C 5.39681 26.833 5.0026 26.9014 4.62891 27.0381C 4.25977 27.1748 3.84733 27.4232 3.3916 27.7832L 2.79004 27.0107C 3.71061 26.2451 4.71322 25.8623 5.79785 25.8623C 6.73665 25.8623 7.47266 26.1038 8.00586 26.5869C 8.53906 27.0654 8.80566 27.7103 8.80566 28.5215C 8.80566 29.1549 8.62793 29.7816 8.27246 30.4014C 7.91699 31.0212 7.25163 31.805 6.27637 32.7529L 4.08887 34.8926L 4.08887 34.9473L 9.22949 34.9473L 9.22949 36ZM 17.2959 30.9893C 17.2959 32.7165 17.0225 34.0062 16.4756 34.8584C 15.9333 35.7106 15.1016 36.1367 13.9805 36.1367C 12.9049 36.1367 12.0869 35.7015 11.5264 34.8311C 10.9658 33.9561 10.6855 32.6755 10.6855 30.9893C 10.6855 29.2484 10.9567 27.9564 11.499 27.1133C 12.0413 26.2702 12.8685 25.8486 13.9805 25.8486C 15.0651 25.8486 15.8877 26.2884 16.4482 27.168C 17.0133 28.0475 17.2959 29.3213 17.2959 30.9893ZM 11.834 30.9893C 11.834 32.443 12.0049 33.5026 12.3467 34.168C 12.6885 34.8288 13.2331 35.1592 13.9805 35.1592C 14.737 35.1592 15.2839 34.8242 15.6211 34.1543C 15.9629 33.4798 16.1338 32.4248 16.1338 30.9893C 16.1338 29.5537 15.9629 28.5033 15.6211 27.8379C 15.2839 27.168 14.737 26.833 13.9805 26.833C 13.2331 26.833 12.6885 27.1634 12.3467 27.8242C 12.0049 28.4805 11.834 29.5355 11.834 30.9893ZM 25.2529 36L 18.6836 36L 18.6836 35.0225L 21.3154 32.377C 22.1175 31.5658 22.6462 30.987 22.9014 30.6406C 23.1566 30.2943 23.348 29.957 23.4756 29.6289C 23.6032 29.3008 23.667 28.9476 23.667 28.5693C 23.667 28.0361 23.5052 27.6146 23.1816 27.3047C 22.8581 26.9902 22.4092 26.833 21.835 26.833C 21.4202 26.833 21.026 26.9014 20.6523 27.0381C 20.2832 27.1748 19.8708 27.4232 19.415 27.7832L 18.8135 27.0107C 19.734 26.2451 20.7367 25.8623 21.8213 25.8623C 22.7601 25.8623 23.4961 26.1038 24.0293 26.5869C 24.5625 27.0654 24.8291 27.7103 24.8291 28.5215C 24.8291 29.1549 24.6514 29.7816 24.2959 30.4014C 23.9404 31.0212 23.2751 31.805 22.2998 32.7529L 20.1123 34.8926L 20.1123 34.9473L 25.2529 34.9473L 25.2529 36ZM 33.3193 30.9893C 33.3193 32.7165 33.0459 34.0062 32.499 34.8584C 31.9567 35.7106 31.125 36.1367 30.0039 36.1367C 28.9284 36.1367 28.1104 35.7015 27.5498 34.8311C 26.9893 33.9561 26.709 32.6755 26.709 30.9893C 26.709 29.2484 26.9801 27.9564 27.5225 27.1133C 28.0648 26.2702 28.8919 25.8486 30.0039 25.8486C 31.0885 25.8486 31.9111 26.2884 32.4717 27.168C 33.0368 28.0475 33.3193 29.3213 33.3193 30.9893ZM 27.8574 30.9893C 27.8574 32.443 28.0283 33.5026 28.3701 34.168C 28.7119 34.8288 29.2565 35.1592 30.0039 35.1592C 30.7604 35.1592 31.3073 34.8242 31.6445 34.1543C 31.9863 33.4798 32.1572 32.4248 32.1572 30.9893C 32.1572 29.5537 31.9863 28.5033 31.6445 27.8379C 31.3073 27.168 30.7604 26.833 30.0039 26.833C 29.2565 26.833 28.7119 27.1634 28.3701 27.8242C 28.0283 28.4805 27.8574 29.5355 27.8574 30.9893Z"/>
<path id="path15_fill" d="M 7.0752 15L 5.96777 15L 5.96777 7.87695C 5.96777 7.28451 5.986 6.72396 6.02246 6.19531C 5.92676 6.29102 5.81966 6.39128 5.70117 6.49609C 5.58268 6.60091 5.04036 7.04525 4.07422 7.8291L 3.47266 7.0498L 6.11816 5.00586L 7.0752 5.00586L 7.0752 15ZM 19.4072 7.50781L 20.6514 7.50781L 17.418 11.124L 20.918 15L 19.5918 15L 16.1738 11.2061L 16.1738 15L 15.0391 15L 15.0391 7.50781L 16.1738 7.50781L 16.1738 11.1514L 19.4072 7.50781ZM 28.3896 9.3877C 28.3896 9.87533 28.2484 10.2467 27.9658 10.502C 27.6878 10.7526 27.2959 10.9212 26.79 11.0078L 26.79 11.0693C 27.4281 11.1559 27.8929 11.3428 28.1846 11.6299C 28.4808 11.917 28.6289 12.3135 28.6289 12.8193C 28.6289 13.5166 28.3714 14.0544 27.8564 14.4326C 27.346 14.8109 26.5986 15 25.6143 15L 22.3125 15L 22.3125 7.50781L 25.6006 7.50781C 27.46 7.50781 28.3896 8.13444 28.3896 9.3877ZM 27.4941 12.7441C 27.4941 12.3385 27.3392 12.0446 27.0293 11.8623C 26.724 11.6755 26.2158 11.582 25.5049 11.582L 23.4473 11.582L 23.4473 14.0498L 25.5322 14.0498C 26.8402 14.0498 27.4941 13.6146 27.4941 12.7441ZM 27.2822 9.49707C 27.2822 9.13249 27.141 8.875 26.8584 8.72461C 26.5804 8.56966 26.1566 8.49219 25.5869 8.49219L 23.4473 8.49219L 23.4473 10.6045L 25.3682 10.6045C 26.07 10.6045 26.5645 10.5179 26.8516 10.3447C 27.1387 10.1715 27.2822 9.889 27.2822 9.49707ZM 30.1191 14.2754C 30.1191 13.9701 30.1875 13.7399 30.3242 13.585C 30.4655 13.4255 30.666 13.3457 30.9258 13.3457C 31.1901 13.3457 31.3952 13.4255 31.541 13.585C 31.6914 13.7399 31.7666 13.9701 31.7666 14.2754C 31.7666 14.5716 31.6914 14.7995 31.541 14.959C 31.3906 15.1185 31.1855 15.1982 30.9258 15.1982C 30.6934 15.1982 30.4997 15.1276 30.3447 14.9863C 30.1943 14.8405 30.1191 14.6035 30.1191 14.2754ZM 8.72949 36L 2.16016 36L 2.16016 35.0225L 4.79199 32.377C 5.59408 31.5658 6.12272 30.987 6.37793 30.6406C 6.63314 30.2943 6.82454 29.957 6.95215 29.6289C 7.07975 29.3008 7.14355 28.9476 7.14355 28.5693C 7.14355 28.0361 6.98177 27.6146 6.6582 27.3047C 6.33464 26.9902 5.88574 26.833 5.31152 26.833C 4.89681 26.833 4.5026 26.9014 4.12891 27.0381C 3.75977 27.1748 3.34733 27.4232 2.8916 27.7832L 2.29004 27.0107C 3.21061 26.2451 4.21322 25.8623 5.29785 25.8623C 6.23665 25.8623 6.97266 26.1038 7.50586 26.5869C 8.03906 27.0654 8.30566 27.7103 8.30566 28.5215C 8.30566 29.1549 8.12793 29.7816 7.77246 30.4014C 7.41699 31.0212 6.75163 31.805 5.77637 32.7529L 3.58887 34.8926L 3.58887 34.9473L 8.72949 34.9473L 8.72949 36ZM 16.7959 30.9893C 16.7959 32.7165 16.5225 34.0062 15.9756 34.8584C 15.4333 35.7106 14.6016 36.1367 13.4805 36.1367C 12.4049 36.1367 11.5869 35.7015 11.0264 34.8311C 10.4658 33.9561 10.1855 32.6755 10.1855 30.9893C 10.1855 29.2484 10.4567 27.9564 10.999 27.1133C 11.5413 26.2702 12.3685 25.8486 13.4805 25.8486C 14.5651 25.8486 15.3877 26.2884 15.9482 27.168C 16.5133 28.0475 16.7959 29.3213 16.7959 30.9893ZM 11.334 30.9893C 11.334 32.443 11.5049 33.5026 11.8467 34.168C 12.1885 34.8288 12.7331 35.1592 13.4805 35.1592C 14.237 35.1592 14.7839 34.8242 15.1211 34.1543C 15.4629 33.4798 15.6338 32.4248 15.6338 30.9893C 15.6338 29.5537 15.4629 28.5033 15.1211 27.8379C 14.7839 27.168 14.237 26.833 13.4805 26.833C 12.7331 26.833 12.1885 27.1634 11.8467 27.8242C 11.5049 28.4805 11.334 29.5355 11.334 30.9893ZM 24.7529 36L 18.1836 36L 18.1836 35.0225L 20.8154 32.377C 21.6175 31.5658 22.1462 30.987 22.4014 30.6406C 22.6566 30.2943 22.848 29.957 22.9756 29.6289C 23.1032 29.3008 23.167 28.9476 23.167 28.5693C 23.167 28.0361 23.0052 27.6146 22.6816 27.3047C 22.3581 26.9902 21.9092 26.833 21.335 26.833C 20.9202 26.833 20.526 26.9014 20.1523 27.0381C 19.7832 27.1748 19.3708 27.4232 18.915 27.7832L 18.3135 27.0107C 19.234 26.2451 20.2367 25.8623 21.3213 25.8623C 22.2601 25.8623 22.9961 26.1038 23.5293 26.5869C 24.0625 27.0654 24.3291 27.7103 24.3291 28.5215C 24.3291 29.1549 24.1514 29.7816 23.7959 30.4014C 23.4404 31.0212 22.7751 31.805 21.7998 32.7529L 19.6123 34.8926L 19.6123 34.9473L 24.7529 34.9473L 24.7529 36ZM 30.3994 36L 29.292 36L 29.292 28.877C 29.292 28.2845 29.3102 27.724 29.3467 27.1953C 29.251 27.291 29.1439 27.3913 29.0254 27.4961C 28.9069 27.6009 28.3646 28.0452 27.3984 28.8291L 26.7969 28.0498L 29.4424 26.0059L 30.3994 26.0059L 30.3994 36Z"/>
<path id="path16_fill" d="M 6.5752 15L 5.46777 15L 5.46777 7.87695C 5.46777 7.28451 5.486 6.72396 5.52246 6.19531C 5.42676 6.29102 5.31966 6.39128 5.20117 6.49609C 5.08268 6.60091 4.54036 7.04525 3.57422 7.8291L 2.97266 7.0498L 5.61816 5.00586L 6.5752 5.00586L 6.5752 15ZM 18.9072 7.50781L 20.1514 7.50781L 16.918 11.124L 20.418 15L 19.0918 15L 15.6738 11.2061L 15.6738 15L 14.5391 15L 14.5391 7.50781L 15.6738 7.50781L 15.6738 11.1514L 18.9072 7.50781ZM 27.8896 9.3877C 27.8896 9.87533 27.7484 10.2467 27.4658 10.502C 27.1878 10.7526 26.7959 10.9212 26.29 11.0078L 26.29 11.0693C 26.9281 11.1559 27.3929 11.3428 27.6846 11.6299C 27.9808 11.917 28.1289 12.3135 28.1289 12.8193C 28.1289 13.5166 27.8714 14.0544 27.3564 14.4326C 26.846 14.8109 26.0986 15 25.1143 15L 21.8125 15L 21.8125 7.50781L 25.1006 7.50781C 26.96 7.50781 27.8896 8.13444 27.8896 9.3877ZM 26.9941 12.7441C 26.9941 12.3385 26.8392 12.0446 26.5293 11.8623C 26.224 11.6755 25.7158 11.582 25.0049 11.582L 22.9473 11.582L 22.9473 14.0498L 25.0322 14.0498C 26.3402 14.0498 26.9941 13.6146 26.9941 12.7441ZM 26.7822 9.49707C 26.7822 9.13249 26.641 8.875 26.3584 8.72461C 26.0804 8.56966 25.6566 8.49219 25.0869 8.49219L 22.9473 8.49219L 22.9473 10.6045L 24.8682 10.6045C 25.57 10.6045 26.0645 10.5179 26.3516 10.3447C 26.6387 10.1715 26.7822 9.889 26.7822 9.49707ZM 29.6191 14.2754C 29.6191 13.9701 29.6875 13.7399 29.8242 13.585C 29.9655 13.4255 30.166 13.3457 30.4258 13.3457C 30.6901 13.3457 30.8952 13.4255 31.041 13.585C 31.1914 13.7399 31.2666 13.9701 31.2666 14.2754C 31.2666 14.5716 31.1914 14.7995 31.041 14.959C 30.8906 15.1185 30.6855 15.1982 30.4258 15.1982C 30.1934 15.1982 29.9997 15.1276 29.8447 14.9863C 29.6943 14.8405 29.6191 14.6035 29.6191 14.2754ZM 8.22949 36L 1.66016 36L 1.66016 35.0225L 4.29199 32.377C 5.09408 31.5658 5.62272 30.987 5.87793 30.6406C 6.13314 30.2943 6.32454 29.957 6.45215 29.6289C 6.57975 29.3008 6.64355 28.9476 6.64355 28.5693C 6.64355 28.0361 6.48177 27.6146 6.1582 27.3047C 5.83464 26.9902 5.38574 26.833 4.81152 26.833C 4.39681 26.833 4.0026 26.9014 3.62891 27.0381C 3.25977 27.1748 2.84733 27.4232 2.3916 27.7832L 1.79004 27.0107C 2.71061 26.2451 3.71322 25.8623 4.79785 25.8623C 5.73665 25.8623 6.47266 26.1038 7.00586 26.5869C 7.53906 27.0654 7.80566 27.7103 7.80566 28.5215C 7.80566 29.1549 7.62793 29.7816 7.27246 30.4014C 6.91699 31.0212 6.25163 31.805 5.27637 32.7529L 3.08887 34.8926L 3.08887 34.9473L 8.22949 34.9473L 8.22949 36ZM 16.2959 30.9893C 16.2959 32.7165 16.0225 34.0062 15.4756 34.8584C 14.9333 35.7106 14.1016 36.1367 12.9805 36.1367C 11.9049 36.1367 11.0869 35.7015 10.5264 34.8311C 9.96582 33.9561 9.68555 32.6755 9.68555 30.9893C 9.68555 29.2484 9.95671 27.9564 10.499 27.1133C 11.0413 26.2702 11.8685 25.8486 12.9805 25.8486C 14.0651 25.8486 14.8877 26.2884 15.4482 27.168C 16.0133 28.0475 16.2959 29.3213 16.2959 30.9893ZM 10.834 30.9893C 10.834 32.443 11.0049 33.5026 11.3467 34.168C 11.6885 34.8288 12.2331 35.1592 12.9805 35.1592C 13.737 35.1592 14.2839 34.8242 14.6211 34.1543C 14.9629 33.4798 15.1338 32.4248 15.1338 30.9893C 15.1338 29.5537 14.9629 28.5033 14.6211 27.8379C 14.2839 27.168 13.737 26.833 12.9805 26.833C 12.2331 26.833 11.6885 27.1634 11.3467 27.8242C 11.0049 28.4805 10.834 29.5355 10.834 30.9893ZM 24.2529 36L 17.6836 36L 17.6836 35.0225L 20.3154 32.377C 21.1175 31.5658 21.6462 30.987 21.9014 30.6406C 22.1566 30.2943 22.348 29.957 22.4756 29.6289C 22.6032 29.3008 22.667 28.9476 22.667 28.5693C 22.667 28.0361 22.5052 27.6146 22.1816 27.3047C 21.8581 26.9902 21.4092 26.833 20.835 26.833C 20.4202 26.833 20.026 26.9014 19.6523 27.0381C 19.2832 27.1748 18.8708 27.4232 18.415 27.7832L 17.8135 27.0107C 18.734 26.2451 19.7367 25.8623 20.8213 25.8623C 21.7601 25.8623 22.4961 26.1038 23.0293 26.5869C 23.5625 27.0654 23.8291 27.7103 23.8291 28.5215C 23.8291 29.1549 23.6514 29.7816 23.2959 30.4014C 22.9404 31.0212 22.2751 31.805 21.2998 32.7529L 19.1123 34.8926L 19.1123 34.9473L 24.2529 34.9473L 24.2529 36ZM 32.2646 36L 25.6953 36L 25.6953 35.0225L 28.3271 32.377C 29.1292 31.5658 29.6579 30.987 29.9131 30.6406C 30.1683 30.2943 30.3597 29.957 30.4873 29.6289C 30.6149 29.3008 30.6787 28.9476 30.6787 28.5693C 30.6787 28.0361 30.5169 27.6146 30.1934 27.3047C 29.8698 26.9902 29.4209 26.833 28.8467 26.833C 28.432 26.833 28.0378 26.9014 27.6641 27.0381C 27.2949 27.1748 26.8825 27.4232 26.4268 27.7832L 25.8252 27.0107C 26.7458 26.2451 27.7484 25.8623 28.833 25.8623C 29.7718 25.8623 30.5078 26.1038 31.041 26.5869C 31.5742 27.0654 31.8408 27.7103 31.8408 28.5215C 31.8408 29.1549 31.6631 29.7816 31.3076 30.4014C 30.9521 31.0212 30.2868 31.805 29.3115 32.7529L 27.124 34.8926L 27.124 34.9473L 32.2646 34.9473L 32.2646 36Z"/>
<path id="path17_stroke" d="M 0 0.5L 1.96243 0.5L 1.96243 -0.5L 0 -0.5L 0 0.5ZM 5.8873 0.5L 9.81217 0.5L 9.81217 -0.5L 5.8873 -0.5L 5.8873 0.5ZM 13.737 0.5L 17.6619 0.5L 17.6619 -0.5L 13.737 -0.5L 13.737 0.5ZM 21.5868 0.5L 25.5116 0.5L 25.5116 -0.5L 21.5868 -0.5L 21.5868 0.5ZM 29.4365 0.5L 33.3614 0.5L 33.3614 -0.5L 29.4365 -0.5L 29.4365 0.5ZM 37.2863 0.5L 41.2111 0.5L 41.2111 -0.5L 37.2863 -0.5L 37.2863 0.5ZM 45.136 0.5L 49.0609 0.5L 49.0609 -0.5L 45.136 -0.5L 45.136 0.5ZM 52.9857 0.5L 56.9106 0.5L 56.9106 -0.5L 52.9857 -0.5L 52.9857 0.5ZM 60.8355 0.5L 64.7603 0.5L 64.7603 -0.5L 60.8355 -0.5L 60.8355 0.5ZM 68.6852 0.5L 72.6101 0.5L 72.6101 -0.5L 68.6852 -0.5L 68.6852 0.5ZM 76.5349 0.5L 80.4598 0.5L 80.4598 -0.5L 76.5349 -0.5L 76.5349 0.5ZM 84.3847 0.5L 88.3095 0.5L 88.3095 -0.5L 84.3847 -0.5L 84.3847 0.5ZM 92.2344 0.5L 96.1593 0.5L 96.1593 -0.5L 92.2344 -0.5L 92.2344 0.5ZM 100.084 0.5L 104.009 0.5L 104.009 -0.5L 100.084 -0.5L 100.084 0.5ZM 107.934 0.5L 111.859 0.5L 111.859 -0.5L 107.934 -0.5L 107.934 0.5ZM 115.784 0.5L 119.708 0.5L 119.708 -0.5L 115.784 -0.5L 115.784 0.5ZM 123.633 0.5L 127.558 0.5L 127.558 -0.5L 123.633 -0.5L 123.633 0.5ZM 131.483 0.5L 135.408 0.5L 135.408 -0.5L 131.483 -0.5L 131.483 0.5ZM 139.333 0.5L 143.258 0.5L 143.258 -0.5L 139.333 -0.5L 139.333 0.5ZM 147.183 0.5L 151.107 0.5L 151.107 -0.5L 147.183 -0.5L 147.183 0.5ZM 155.032 0.5L 158.957 0.5L 158.957 -0.5L 155.032 -0.5L 155.032 0.5ZM 162.882 0.5L 166.807 0.5L 166.807 -0.5L 162.882 -0.5L 162.882 0.5ZM 170.732 0.5L 174.657 0.5L 174.657 -0.5L 170.732 -0.5L 170.732 0.5ZM 178.581 0.5L 182.506 0.5L 182.506 -0.5L 178.581 -0.5L 178.581 0.5ZM 186.431 0.5L 190.356 0.5L 190.356 -0.5L 186.431 -0.5L 186.431 0.5ZM 194.281 0.5L 196.243 0.5L 196.243 -0.5L 194.281 -0.5L 194.281 0.5Z"/>
<path id="path18_fill" d="M 60.0876 28.5636C 44.7565 30.6276 7.35114 37.7873 0 37.7873L 196.883 37.7873L 196.883 0C 175.788 2.3803 163.962 14.5794 60.0876 28.5636Z"/>
<path id="path19_stroke" d="M 59.4483 28.5636L 59.3149 27.5725L 59.4483 28.5636ZM 0 38.4897C 1.92286 38.4897 5.67388 38.0481 10.3758 37.3752C 15.1068 36.698 20.8795 35.7743 26.8936 34.7875C 38.9373 32.8111 51.9352 30.5841 59.5818 29.5547L 59.3149 27.5725C 51.6303 28.6071 38.5796 30.8431 26.5697 32.8139C 20.5571 33.8005 14.8017 34.7213 10.0924 35.3954C 5.35412 36.0735 1.75271 36.4897 0 36.4897L 0 38.4897ZM 59.5818 29.5547C 111.554 22.5579 140.524 16.0042 159.153 10.8947C 168.454 8.34363 175.193 6.14748 180.863 4.45912C 186.543 2.7675 191.171 1.57877 196.356 0.993694L 196.131 -0.993694C 190.769 -0.388623 186.008 0.840147 180.292 2.54231C 174.565 4.24774 167.9 6.42167 158.624 8.96593C 140.098 14.0471 111.218 20.585 59.3149 27.5725L 59.5818 29.5547Z"/>
<path id="path20_stroke" d="M 51.1384 55.9369L 50.712 55.0324L 51.1384 55.9369ZM 0 73.599C 1.15633 73.599 2.75343 73.3739 4.63556 72.995L 4.24077 71.0343C 2.3877 71.4074 0.950031 71.599 0 71.599L 0 73.599ZM 13.4342 70.7732C 16.1356 69.9974 19.0559 69.0966 22.0657 68.1167L 21.4466 66.215C 18.455 67.1889 15.5573 68.0827 12.8822 68.8509L 13.4342 70.7732ZM 30.6047 65.2105C 33.4851 64.1889 36.3411 63.1345 39.0663 62.0851L 38.3476 60.2187C 35.6401 61.2613 32.8008 62.3095 29.9362 63.3255L 30.6047 65.2105ZM 47.4353 58.6938C 48.9217 58.0547 50.3078 57.4339 51.5647 56.8415L 50.712 55.0324C 49.4799 55.6131 48.1151 56.2245 46.6453 56.8564L 47.4353 58.6938ZM 51.5647 56.8415C 53.0902 56.1225 54.5889 55.4072 56.0615 54.6957L 55.1914 52.8949C 53.7247 53.6035 52.2317 54.316 50.712 55.0324L 51.5647 56.8415ZM 64.9839 50.2715C 68.054 48.7081 70.9967 47.1649 73.8175 45.643L 72.8678 43.8828C 70.0613 45.3971 67.1327 46.9328 64.0763 48.4893L 64.9839 50.2715ZM 82.5324 40.79C 85.5397 39.06 88.3876 37.3605 91.0853 35.6928L 90.0337 33.9916C 87.3545 35.6478 84.5247 37.3366 81.5351 39.0564L 82.5324 40.79ZM 99.4792 30.2908C 102.407 28.3258 105.122 26.4117 107.64 24.5512L 106.452 22.9425C 103.958 24.7844 101.268 26.6813 98.3647 28.6301L 99.4792 30.2908ZM 115.527 18.3911C 118.323 16.0732 120.804 13.8566 123.008 11.748L 121.626 10.3028C 119.457 12.3773 117.012 14.5624 114.251 16.8513L 115.527 18.3911ZM 129.936 4.50049C 131.116 3.13794 132.169 1.83977 133.114 0.608742L 131.527 -0.608742C 130.607 0.590961 129.578 1.85862 128.424 3.1915L 129.936 4.50049Z"/>
<path id="path21_fill" d="M 2.55692 1.19023C 2.55692 1.84758 1.98453 2.38046 1.27846 2.38046C 0.572385 2.38046 0 1.84758 0 1.19023C 0 0.532885 0.572385 0 1.27846 0C 1.98453 0 2.55692 0.532885 2.55692 1.19023Z"/>
<path id="path22_fill" d="M 6.39229 2.97535C 6.39229 4.61858 4.96133 5.95069 3.19615 5.95069C 1.43096 5.95069 0 4.61858 0 2.97535C 0 1.33211 1.43096 0 3.19615 0C 4.96133 0 6.39229 1.33211 6.39229 2.97535Z"/>
<path id="path23_fill" d="M 8.94921 4.16558C 8.94921 6.46616 6.94586 8.33115 4.47461 8.33115C 2.00335 8.33115 0 6.46616 0 4.16558C 0 1.86499 2.00335 0 4.47461 0C 6.94586 0 8.94921 1.86499 8.94921 4.16558Z"/>
<path id="path24_fill" d="M 6.39229 2.9755C 6.39229 4.61883 4.96133 5.951 3.19615 5.951C 1.43096 5.951 0 4.61883 0 2.9755C 0 1.33218 1.43096 0 3.19615 0C 4.96133 0 6.39229 1.33218 6.39229 2.9755Z"/>
<path id="path25_fill" d="M 7.71094 7.91797C 7.71094 8.92969 7.36458 9.70898 6.67188 10.2559C 5.98372 10.7982 4.99707 11.0693 3.71191 11.0693L 2.53613 11.0693L 2.53613 15L 1.37402 15L 1.37402 5.00586L 3.96484 5.00586C 6.46224 5.00586 7.71094 5.97656 7.71094 7.91797ZM 2.53613 10.0713L 3.58203 10.0713C 4.61198 10.0713 5.3571 9.90495 5.81738 9.57227C 6.27767 9.23958 6.50781 8.70638 6.50781 7.97266C 6.50781 7.31185 6.29134 6.81966 5.8584 6.49609C 5.42546 6.17253 4.75098 6.01074 3.83496 6.01074L 2.53613 6.01074L 2.53613 10.0713ZM 10.7734 10.6045L 12.8174 10.6045C 13.7699 10.6045 14.474 10.7822 14.9297 11.1377C 15.39 11.4886 15.6201 12.015 15.6201 12.7168C 15.6201 13.4688 15.3763 14.0384 14.8887 14.4258C 14.4056 14.8086 13.6924 15 12.749 15L 9.63867 15L 9.63867 7.50781L 10.7734 7.50781L 10.7734 10.6045ZM 18.0127 15L 16.8779 15L 16.8779 7.50781L 18.0127 7.50781L 18.0127 15ZM 10.7734 11.582L 10.7734 14.0498L 12.6943 14.0498C 13.8975 14.0498 14.499 13.6283 14.499 12.7852C 14.499 12.3659 14.36 12.0605 14.082 11.8691C 13.804 11.6777 13.3301 11.582 12.6602 11.582L 10.7734 11.582ZM 21.5605 7.50781L 21.5605 10.6455L 25.7578 10.6455L 25.7578 7.50781L 26.8926 7.50781L 26.8926 15L 25.7578 15L 25.7578 11.623L 21.5605 11.623L 21.5605 15L 20.4258 15L 20.4258 7.50781L 21.5605 7.50781ZM 35.7656 11.2471C 35.7656 12.4684 35.458 13.4232 34.8428 14.1113C 34.2275 14.7949 33.3776 15.1367 32.293 15.1367C 31.623 15.1367 31.0283 14.9795 30.5088 14.665C 29.9893 14.3506 29.5882 13.8994 29.3057 13.3115C 29.0231 12.7236 28.8818 12.0355 28.8818 11.2471C 28.8818 10.0257 29.1872 9.07552 29.7979 8.39648C 30.4085 7.71289 31.2562 7.37109 32.3408 7.37109C 33.389 7.37109 34.2207 7.71973 34.8359 8.41699C 35.4557 9.11426 35.7656 10.0576 35.7656 11.2471ZM 30.0576 11.2471C 30.0576 12.2041 30.249 12.9333 30.6318 13.4346C 31.0146 13.9359 31.5775 14.1865 32.3203 14.1865C 33.0632 14.1865 33.626 13.9382 34.0088 13.4414C 34.3962 12.9401 34.5898 12.2087 34.5898 11.2471C 34.5898 10.2946 34.3962 9.57227 34.0088 9.08008C 33.626 8.58333 33.0586 8.33496 32.3066 8.33496C 31.5638 8.33496 31.0033 8.57878 30.625 9.06641C 30.2467 9.55404 30.0576 10.2809 30.0576 11.2471ZM 42.1299 7.50781L 43.374 7.50781L 40.1406 11.124L 43.6406 15L 42.3145 15L 38.8965 11.2061L 38.8965 15L 37.7617 15L 37.7617 7.50781L 38.8965 7.50781L 38.8965 11.1514L 42.1299 7.50781ZM 5.57129 26.5078L 6.81543 26.5078L 3.58203 30.124L 7.08203 34L 5.75586 34L 2.33789 30.2061L 2.33789 34L 1.20312 34L 1.20312 26.5078L 2.33789 26.5078L 2.33789 30.1514L 5.57129 26.5078ZM 11.9629 34.1367C 11.4753 34.1367 11.0286 34.0479 10.623 33.8701C 10.222 33.6878 9.88477 33.4098 9.61133 33.0361L 9.5293 33.0361C 9.58398 33.4736 9.61133 33.8883 9.61133 34.2803L 9.61133 37.3633L 8.47656 37.3633L 8.47656 26.5078L 9.39941 26.5078L 9.55664 27.5332L 9.61133 27.5332C 9.90299 27.123 10.2425 26.8268 10.6299 26.6445C 11.0173 26.4622 11.4616 26.3711 11.9629 26.3711C 12.9564 26.3711 13.722 26.7106 14.2598 27.3896C 14.8021 28.0687 15.0732 29.0212 15.0732 30.2471C 15.0732 31.4775 14.7975 32.4346 14.2461 33.1182C 13.6992 33.7972 12.9382 34.1367 11.9629 34.1367ZM 11.7988 27.335C 11.0332 27.335 10.4795 27.5469 10.1377 27.9707C 9.7959 28.3945 9.62044 29.069 9.61133 29.9941L 9.61133 30.2471C 9.61133 31.2998 9.78678 32.054 10.1377 32.5098C 10.4886 32.9609 11.0514 33.1865 11.8262 33.1865C 12.4733 33.1865 12.9792 32.9245 13.3438 32.4004C 13.7129 31.8763 13.8975 31.154 13.8975 30.2334C 13.8975 29.2992 13.7129 28.5837 13.3438 28.0869C 12.9792 27.5856 12.4642 27.335 11.7988 27.335ZM 18.1289 26.5078L 18.1289 31.2588L 18.0811 32.5029L 18.0605 32.8926L 22.1143 26.5078L 23.5293 26.5078L 23.5293 34L 22.4697 34L 22.4697 29.4199L 22.4902 28.5176L 22.5244 27.6289L 18.4775 34L 17.0625 34L 17.0625 26.5078L 18.1289 26.5078ZM 27.0703 34L 25.9355 34L 25.9355 26.5078L 32.2246 26.5078L 32.2246 34L 31.0762 34L 31.0762 27.4922L 27.0703 27.4922L 27.0703 34ZM 39.6826 27.4785L 37.249 27.4785L 37.249 34L 36.1143 34L 36.1143 27.4785L 33.708 27.4785L 33.708 26.5078L 39.6826 26.5078L 39.6826 27.4785ZM 47.6328 30.2471C 47.6328 31.4684 47.3252 32.4232 46.71 33.1113C 46.0947 33.7949 45.2448 34.1367 44.1602 34.1367C 43.4902 34.1367 42.8955 33.9795 42.376 33.665C 41.8564 33.3506 41.4554 32.8994 41.1729 32.3115C 40.8903 31.7236 40.749 31.0355 40.749 30.2471C 40.749 29.0257 41.0544 28.0755 41.665 27.3965C 42.2757 26.7129 43.1234 26.3711 44.208 26.3711C 45.2562 26.3711 46.0879 26.7197 46.7031 27.417C 47.3229 28.1143 47.6328 29.0576 47.6328 30.2471ZM 41.9248 30.2471C 41.9248 31.2041 42.1162 31.9333 42.499 32.4346C 42.8818 32.9359 43.4447 33.1865 44.1875 33.1865C 44.9303 33.1865 45.4932 32.9382 45.876 32.4414C 46.2633 31.9401 46.457 31.2087 46.457 30.2471C 46.457 29.2946 46.2633 28.5723 45.876 28.0801C 45.4932 27.5833 44.9258 27.335 44.1738 27.335C 43.431 27.335 42.8704 27.5788 42.4922 28.0664C 42.1139 28.554 41.9248 29.2809 41.9248 30.2471ZM 55.7061 28.3877C 55.7061 28.8753 55.5648 29.2467 55.2822 29.502C 55.0042 29.7526 54.6123 29.9212 54.1064 30.0078L 54.1064 30.0693C 54.7445 30.1559 55.2093 30.3428 55.501 30.6299C 55.7972 30.917 55.9453 31.3135 55.9453 31.8193C 55.9453 32.5166 55.6878 33.0544 55.1729 33.4326C 54.6624 33.8109 53.915 34 52.9307 34L 49.6289 34L 49.6289 26.5078L 52.917 26.5078C 54.7764 26.5078 55.7061 27.1344 55.7061 28.3877ZM 54.8105 31.7441C 54.8105 31.3385 54.6556 31.0446 54.3457 30.8623C 54.0404 30.6755 53.5322 30.582 52.8213 30.582L 50.7637 30.582L 50.7637 33.0498L 52.8486 33.0498C 54.1566 33.0498 54.8105 32.6146 54.8105 31.7441ZM 54.5986 28.4971C 54.5986 28.1325 54.4574 27.875 54.1748 27.7246C 53.8968 27.5697 53.473 27.4922 52.9033 27.4922L 50.7637 27.4922L 50.7637 29.6045L 52.6846 29.6045C 53.3864 29.6045 53.8809 29.5179 54.168 29.3447C 54.4551 29.1715 54.5986 28.889 54.5986 28.4971ZM 62.207 34L 61.9814 32.9336L 61.9268 32.9336C 61.5531 33.403 61.1794 33.722 60.8057 33.8906C 60.4365 34.0547 59.974 34.1367 59.418 34.1367C 58.6751 34.1367 58.0918 33.9453 57.668 33.5625C 57.2487 33.1797 57.0391 32.6351 57.0391 31.9287C 57.0391 30.4157 58.249 29.6227 60.6689 29.5498L 61.9404 29.5088L 61.9404 29.0439C 61.9404 28.4561 61.8128 28.0231 61.5576 27.7451C 61.307 27.4626 60.9036 27.3213 60.3477 27.3213C 59.7233 27.3213 59.0169 27.5127 58.2285 27.8955L 57.8799 27.0273C 58.249 26.8268 58.6523 26.6696 59.0898 26.5557C 59.5319 26.4417 59.974 26.3848 60.416 26.3848C 61.3092 26.3848 61.9701 26.583 62.3984 26.9795C 62.8314 27.376 63.0479 28.0117 63.0479 28.8867L 63.0479 34L 62.207 34ZM 59.6436 33.2002C 60.3499 33.2002 60.9036 33.0065 61.3047 32.6191C 61.7103 32.2318 61.9131 31.6895 61.9131 30.9922L 61.9131 30.3154L 60.7783 30.3633C 59.876 30.3952 59.2243 30.5365 58.8232 30.7871C 58.4268 31.0332 58.2285 31.4183 58.2285 31.9424C 58.2285 32.3525 58.3516 32.6647 58.5977 32.8789C 58.8483 33.0931 59.1969 33.2002 59.6436 33.2002ZM 70.9775 34L 69.8291 34L 69.8291 27.4785L 67.5801 27.4785C 67.457 29.1009 67.2861 30.3883 67.0674 31.3408C 66.8486 32.2933 66.5638 32.9906 66.2129 33.4326C 65.8665 33.8747 65.4245 34.0957 64.8867 34.0957C 64.6406 34.0957 64.4447 34.0684 64.2988 34.0137L 64.2988 33.1729C 64.3991 33.2002 64.513 33.2139 64.6406 33.2139C 65.1647 33.2139 65.5817 32.6602 65.8916 31.5527C 66.2015 30.4453 66.4362 28.7637 66.5957 26.5078L 70.9775 26.5078L 70.9775 34ZM 83.0361 30.2471C 83.0361 31.473 82.7422 32.4277 82.1543 33.1113C 81.571 33.7949 80.7689 34.1367 79.748 34.1367C 78.7773 34.1367 78.0072 33.8337 77.4375 33.2275C 76.8678 32.6169 76.5511 31.7487 76.4873 30.623L 74.5254 30.623L 74.5254 34L 73.3906 34L 73.3906 26.5078L 74.5254 26.5078L 74.5254 29.6455L 76.501 29.6455C 76.5921 28.6064 76.9248 27.8021 77.499 27.2324C 78.0732 26.6582 78.832 26.3711 79.7754 26.3711C 80.778 26.3711 81.571 26.7197 82.1543 27.417C 82.7422 28.1097 83.0361 29.0531 83.0361 30.2471ZM 77.6631 30.2471C 77.6631 31.2087 77.8294 31.9401 78.1621 32.4414C 78.4948 32.9382 79.028 33.1865 79.7617 33.1865C 80.4818 33.1865 81.0104 32.945 81.3477 32.4619C 81.6895 31.9743 81.8604 31.236 81.8604 30.2471C 81.8604 29.29 81.694 28.5654 81.3613 28.0732C 81.0286 27.5811 80.4954 27.335 79.7617 27.335C 79.028 27.335 78.4948 27.5811 78.1621 28.0732C 77.8294 28.5654 77.6631 29.29 77.6631 30.2471ZM 90.0771 27.4785L 87.6436 27.4785L 87.6436 34L 86.5088 34L 86.5088 27.4785L 84.1025 27.4785L 84.1025 26.5078L 90.0771 26.5078L 90.0771 27.4785Z"/>
</defs>
</svg>
