<svg width="571" height="335" viewBox="0 0 571 335" version="1.1" xmlns="http://www.w3.org/2000/svg" xmlns:xlink="http://www.w3.org/1999/xlink">
<title>Group 5</title>
<desc>Created using Figma</desc>
<g id="Canvas" transform="translate(13079 -4024)">
<g id="Group 5">
<g id="Line 7" opacity="0.3">
<use xlink:href="#path0_stroke" transform="matrix(6.12323e-17 -1 1 6.12323e-17 -12937 4305.5)" fill="#FFFFFF" fill-opacity="0.2"/>
</g>
<g id="Line 7.4" opacity="0.3">
<use xlink:href="#path1_stroke" transform="matrix(1 2.67189e-24 -2.67189e-24 1 -13012 4275)" fill="#BFBFBF" fill-opacity="0.2"/>
</g>
<g id="Line 7.6" opacity="0.3">
<use xlink:href="#path2_stroke" transform="matrix(1 2.59515e-24 -2.7509e-24 1 -13012 4242.5)" fill="#FFFFFF" fill-opacity="0.2"/>
</g>
<g id="Line 7.7" opacity="0.3">
<use xlink:href="#path2_stroke" transform="matrix(1 2.59515e-24 -2.7509e-24 1 -13012 4161.5)" fill="#FFFFFF" fill-opacity="0.2"/>
</g>
<g id="Line 7.8" opacity="0.3">
<use xlink:href="#path2_stroke" transform="matrix(1 2.59515e-24 -2.7509e-24 1 -13012 4089.5)" fill="#FFFFFF" fill-opacity="0.2"/>
</g>
<g id="Line 7.1" opacity="0.3">
<use xlink:href="#path0_stroke" transform="matrix(6.12323e-17 -1 1 6.12323e-17 -12862 4305.5)" fill="#FFFFFF" fill-opacity="0.2"/>
</g>
<g id="Line 7.2" opacity="0.3">
<use xlink:href="#path0_stroke" transform="matrix(6.12323e-17 -1 1 6.12323e-17 -12785 4305.5)" fill="#FFFFFF" fill-opacity="0.2"/>
</g>
<g id="Line 7.3" opacity="0.3">
<use xlink:href="#path0_stroke" transform="matrix(6.12323e-17 -1 1 6.12323e-17 -12709 4305.5)" fill="#FFFFFF" fill-opacity="0.2"/>
</g>
<g id="Line 5.8">
<use xlink:href="#path3_stroke" transform="translate(-13020 4275.5)" fill="#56CCF2"/>
</g>
<g id="Line 5.9">
<use xlink:href="#path3_stroke" transform="translate(-13020 4243.5)" fill="#56CCF2"/>
</g>
<g id="Line 5.4">
<use xlink:href="#path3_stroke" transform="matrix(-4.37114e-08 1 -1 -4.37114e-08 -12938 4301.5)" fill="#56CCF2"/>
</g>
<g id="Line 5.5">
<use xlink:href="#path3_stroke" transform="matrix(-4.37114e-08 1 -1 -4.37114e-08 -12862 4301.5)" fill="#56CCF2"/>
</g>
<g id="Line 5.2">
<use xlink:href="#path3_stroke" transform="translate(-13020 4162.5)" fill="#56CCF2"/>
</g>
<g id="Line 5.3">
<use xlink:href="#path3_stroke" transform="translate(-13020 4089.5)" fill="#56CCF2"/>
</g>
<g id="Arrow">
<use xlink:href="#path4_stroke" transform="matrix(-4.37114e-08 -1 -1 4.37114e-08 -13015 4306.5)" fill="#56CCF2"/>
</g>
<g id="Arrow">
<use xlink:href="#path5_stroke" transform="matrix(1 1.60812e-16 1.60812e-16 -1 -13015 4306.5)" fill="#56CCF2"/>
</g>
<g id="Forex">
<use xlink:href="#path6_fill" transform="translate(-12694 4068.5)" fill="#FFFFFF"/>
</g>
<g id="3&#209;&#130;&#209;&#128;&#208;&#189;">
<use xlink:href="#path7_fill" transform="translate(-13067 4072.5)" fill="#FFFFFF"/>
</g>
<g id="$">
<use xlink:href="#path8_fill" transform="translate(-13019 4020)" fill="#FFFFFF"/>
</g>
<g id="2&#209;&#130;&#209;&#128;&#208;&#189;">
<use xlink:href="#path9_fill" transform="translate(-13066 4145.5)" fill="#FFFFFF"/>
</g>
<g id="1&#209;&#130;&#209;&#128;&#208;&#189;">
<use xlink:href="#path10_fill" transform="translate(-13067 4228.5)" fill="#FFFFFF"/>
</g>
<g id="0.5&#209;&#130;&#209;&#128;&#208;&#189;">
<use xlink:href="#path11_fill" transform="translate(-13079 4258.5)" fill="#FFFFFF"/>
</g>
<g id="1 &#208;&#186;&#208;&#178;. 2019">
<use xlink:href="#path12_fill" transform="translate(-12955 4322.5)" fill="#FFFFFF"/>
</g>
<g id="1 &#208;&#186;&#208;&#178;. 2020">
<use xlink:href="#path13_fill" transform="translate(-12878 4322.5)" fill="#FFFFFF"/>
</g>
<g id="1 &#208;&#186;&#208;&#178;. 2021">
<use xlink:href="#path14_fill" transform="translate(-12801 4322.5)" fill="#FFFFFF"/>
</g>
<g id="1 &#208;&#186;&#208;&#178;. 2022">
<use xlink:href="#path15_fill" transform="translate(-12725 4322.5)" fill="#FFFFFF"/>
</g>
<g id="Line 6">
<use xlink:href="#path16_stroke" transform="translate(-13016 4089.5)" fill="#2B99FF"/>
</g>
<g id="Vector 5">
<use xlink:href="#path17_fill" transform="translate(-13016 4242.5)" fill="#56CCF2" fill-opacity="0.22"/>
</g>
<g id="Vector 5.1">
<use xlink:href="#path18_stroke" transform="translate(-13015 4242.5)" fill="#56CCF2"/>
</g>
<g id="Vector 5.2">
<use xlink:href="#path19_stroke" transform="translate(-12716 4121.5)" fill="#56CCF2" fill-opacity="0.25"/>
</g>
<g id="Ellipse 7">
<use xlink:href="#path20_fill" transform="translate(-12940 4290.5)" fill="#FFFFFF"/>
</g>
<g id="Ellipse 7.4">
<use xlink:href="#path21_fill" transform="translate(-12943 4287.5)" fill="#FFFFFF" fill-opacity="0.2"/>
</g>
<g id="Ellipse 7.5">
<use xlink:href="#path22_fill" transform="translate(-12945 4285.5)" fill="#FFFFFF" fill-opacity="0.2"/>
</g>
<g id="Ellipse 7.6">
<use xlink:href="#path20_fill" transform="translate(-12865 4279.5)" fill="#FFFFFF"/>
</g>
<g id="Ellipse 7.7">
<use xlink:href="#path21_fill" transform="translate(-12868 4276.5)" fill="#FFFFFF" fill-opacity="0.2"/>
</g>
<g id="Ellipse 7.8">
<use xlink:href="#path22_fill" transform="translate(-12870 4274.5)" fill="#FFFFFF" fill-opacity="0.2"/>
</g>
<g id="Ellipse 7.9">
<use xlink:href="#path20_fill" transform="translate(-12787 4262.5)" fill="#FFFFFF"/>
</g>
<g id="Ellipse 7.10">
<use xlink:href="#path21_fill" transform="translate(-12790 4259.5)" fill="#FFFFFF" fill-opacity="0.2"/>
</g>
<g id="Ellipse 7.11">
<use xlink:href="#path22_fill" transform="translate(-12792 4257.5)" fill="#FFFFFF" fill-opacity="0.2"/>
</g>
<g id="Ellipse 7.12">
<use xlink:href="#path20_fill" transform="translate(-12711 4240.5)" fill="#FFFFFF"/>
</g>
<g id="Ellipse 7.13">
<use xlink:href="#path21_fill" transform="translate(-12714 4237.5)" fill="#FFFFFF" fill-opacity="0.2"/>
</g>
<g id="Ellipse 7.14">
<use xlink:href="#path22_fill" transform="translate(-12716 4235.5)" fill="#FFFFFF" fill-opacity="0.2"/>
</g>
<g id="Line 5.6">
<use xlink:href="#path3_stroke" transform="matrix(-4.37114e-08 1 -1 -4.37114e-08 -12785 4301.5)" fill="#56CCF2"/>
</g>
<g id="Line 5.7">
<use xlink:href="#path3_stroke" transform="matrix(-4.37114e-08 1 -1 -4.37114e-08 -12709 4301.5)" fill="#56CCF2"/>
</g>
<g id="&#208;&#160;&#209;&#139;&#208;&#189;&#208;&#190;&#208;&#186; &#208;&#186;&#209;&#128;&#208;&#184;&#208;&#191;&#209;&#130;&#208;&#190;&#208;&#178;&#208;&#176;&#208;&#187;&#209;&#142;&#209;&#130;">
<use xlink:href="#path23_fill" transform="translate(-12694 4194.5)" fill="#FFFFFF"/>
</g>
</g>
</g>
<defs>
<path id="path0_stroke" d="M 0 0L 252 0L 252 -1L 0 -1L 0 0Z"/>
<path id="path1_stroke" d="M 0 0.5L 503 0.5L 503 -0.5L 0 -0.5L 0 0.5Z"/>
<path id="path2_stroke" d="M 0 0.5L 504 0.5L 504 -0.5L 0 -0.5L 0 0.5Z"/>
<path id="path3_stroke" d="M 0 0L 10 0L 10 -1L 0 -1L 0 0Z"/>
<path id="path4_stroke" d="M 255.354 0.353553C 255.549 0.158291 255.549 -0.158291 255.354 -0.353553L 252.172 -3.53553C 251.976 -3.7308 251.66 -3.7308 251.464 -3.53553C 251.269 -3.34027 251.269 -3.02369 251.464 -2.82843L 254.293 0L 251.464 2.82843C 251.269 3.02369 251.269 3.34027 251.464 3.53553C 251.66 3.7308 251.976 3.7308 252.172 3.53553L 255.354 0.353553ZM 0 0.5L 255 0.5L 255 -0.5L 0 -0.5L 0 0.5Z"/>
<path id="path5_stroke" d="M 506.354 0.353553C 506.549 0.158291 506.549 -0.158291 506.354 -0.353553L 503.172 -3.53553C 502.976 -3.7308 502.66 -3.7308 502.464 -3.53553C 502.269 -3.34027 502.269 -3.02369 502.464 -2.82843L 505.293 0L 502.464 2.82843C 502.269 3.02369 502.269 3.34027 502.464 3.53553C 502.66 3.7308 502.976 3.7308 503.172 3.53553L 506.354 0.353553ZM 0 0.5L 506 0.5L 506 -0.5L 0 -0.5L 0 0.5Z"/>
<path id="path6_fill" d="M 2.53613 15L 1.37402 15L 1.37402 5.00586L 6.94531 5.00586L 6.94531 6.03809L 2.53613 6.03809L 2.53613 9.69531L 6.67871 9.69531L 6.67871 10.7275L 2.53613 10.7275L 2.53613 15ZM 14.9023 11.2471C 14.9023 12.4684 14.5947 13.4232 13.9795 14.1113C 13.3643 14.7949 12.5143 15.1367 11.4297 15.1367C 10.7598 15.1367 10.165 14.9795 9.64551 14.665C 9.12598 14.3506 8.72493 13.8994 8.44238 13.3115C 8.15983 12.7236 8.01855 12.0355 8.01855 11.2471C 8.01855 10.0257 8.32389 9.07552 8.93457 8.39648C 9.54525 7.71289 10.3929 7.37109 11.4775 7.37109C 12.5257 7.37109 13.3574 7.71973 13.9727 8.41699C 14.5924 9.11426 14.9023 10.0576 14.9023 11.2471ZM 9.19434 11.2471C 9.19434 12.2041 9.38574 12.9333 9.76855 13.4346C 10.1514 13.9359 10.7142 14.1865 11.457 14.1865C 12.1999 14.1865 12.7627 13.9382 13.1455 13.4414C 13.5329 12.9401 13.7266 12.2087 13.7266 11.2471C 13.7266 10.2946 13.5329 9.57227 13.1455 9.08008C 12.7627 8.58333 12.1953 8.33496 11.4434 8.33496C 10.7005 8.33496 10.14 8.57878 9.76172 9.06641C 9.38346 9.55404 9.19434 10.2809 9.19434 11.2471ZM 20.3164 7.37109C 20.6491 7.37109 20.9476 7.39844 21.2119 7.45312L 21.0547 8.50586C 20.7448 8.4375 20.4714 8.40332 20.2344 8.40332C 19.6283 8.40332 19.1087 8.64941 18.6758 9.1416C 18.2474 9.63379 18.0332 10.2467 18.0332 10.9805L 18.0332 15L 16.8984 15L 16.8984 7.50781L 17.835 7.50781L 17.9648 8.89551L 18.0195 8.89551C 18.2975 8.40788 18.6325 8.0319 19.0244 7.76758C 19.4163 7.50326 19.847 7.37109 20.3164 7.37109ZM 25.7783 15.1367C 24.6709 15.1367 23.7959 14.7995 23.1533 14.125C 22.5153 13.4505 22.1963 12.514 22.1963 11.3154C 22.1963 10.1077 22.4925 9.14844 23.085 8.4375C 23.682 7.72656 24.4818 7.37109 25.4844 7.37109C 26.4232 7.37109 27.166 7.68099 27.7129 8.30078C 28.2598 8.91602 28.5332 9.72949 28.5332 10.7412L 28.5332 11.459L 23.3721 11.459C 23.3949 12.3385 23.6159 13.0062 24.0352 13.4619C 24.459 13.9176 25.0537 14.1455 25.8193 14.1455C 26.626 14.1455 27.4235 13.9769 28.2119 13.6396L 28.2119 14.6514C 27.8109 14.8245 27.4303 14.9476 27.0703 15.0205C 26.7148 15.098 26.2842 15.1367 25.7783 15.1367ZM 25.4707 8.32129C 24.8691 8.32129 24.3883 8.51725 24.0283 8.90918C 23.6729 9.30111 23.4632 9.84342 23.3994 10.5361L 27.3164 10.5361C 27.3164 9.82064 27.1569 9.27376 26.8379 8.89551C 26.5189 8.5127 26.0632 8.32129 25.4707 8.32129ZM 32.2793 11.165L 29.6748 7.50781L 30.9668 7.50781L 32.9424 10.3789L 34.9111 7.50781L 36.1895 7.50781L 33.585 11.165L 36.3262 15L 35.041 15L 32.9424 11.9648L 30.8232 15L 29.5381 15L 32.2793 11.165Z"/>
<path id="path7_fill" d="M 6.87695 7.35742C 6.87695 7.99544 6.69694 8.51725 6.33691 8.92285C 5.98145 9.32845 5.47559 9.59961 4.81934 9.73633L 4.81934 9.79102C 5.62142 9.89128 6.21615 10.1465 6.60352 10.5566C 6.99089 10.9668 7.18457 11.5046 7.18457 12.1699C 7.18457 13.1224 6.85417 13.8561 6.19336 14.3711C 5.53255 14.8815 4.59375 15.1367 3.37695 15.1367C 2.84831 15.1367 2.36296 15.0957 1.9209 15.0137C 1.4834 14.9362 1.05729 14.7972 0.642578 14.5967L 0.642578 13.5166C 1.07552 13.7308 1.53581 13.8949 2.02344 14.0088C 2.51562 14.1182 2.98047 14.1729 3.41797 14.1729C 5.14518 14.1729 6.00879 13.4961 6.00879 12.1426C 6.00879 10.9303 5.05632 10.3242 3.15137 10.3242L 2.16699 10.3242L 2.16699 9.34668L 3.16504 9.34668C 3.94434 9.34668 4.56185 9.17578 5.01758 8.83398C 5.47331 8.48763 5.70117 8.00911 5.70117 7.39844C 5.70117 6.91081 5.53255 6.52799 5.19531 6.25C 4.86263 5.97201 4.40918 5.83301 3.83496 5.83301C 3.39746 5.83301 2.98503 5.89225 2.59766 6.01074C 2.21029 6.12923 1.76823 6.34798 1.27148 6.66699L 0.697266 5.90137C 1.10742 5.5778 1.5791 5.32487 2.1123 5.14258C 2.65007 4.95573 3.21517 4.8623 3.80762 4.8623C 4.77832 4.8623 5.53255 5.08561 6.07031 5.53223C 6.60807 5.97428 6.87695 6.58268 6.87695 7.35742ZM 14.2666 8.47852L 11.833 8.47852L 11.833 15L 10.6982 15L 10.6982 8.47852L 8.29199 8.47852L 8.29199 7.50781L 14.2666 7.50781L 14.2666 8.47852ZM 19.2363 15.1367C 18.7487 15.1367 18.3021 15.0479 17.8965 14.8701C 17.4954 14.6878 17.1582 14.4098 16.8848 14.0361L 16.8027 14.0361C 16.8574 14.4736 16.8848 14.8883 16.8848 15.2803L 16.8848 18.3633L 15.75 18.3633L 15.75 7.50781L 16.6729 7.50781L 16.8301 8.5332L 16.8848 8.5332C 17.1764 8.12305 17.516 7.82682 17.9033 7.64453C 18.2907 7.46224 18.735 7.37109 19.2363 7.37109C 20.2298 7.37109 20.9954 7.71061 21.5332 8.38965C 22.0755 9.06868 22.3467 10.0212 22.3467 11.2471C 22.3467 12.4775 22.071 13.4346 21.5195 14.1182C 20.9727 14.7972 20.2116 15.1367 19.2363 15.1367ZM 19.0723 8.33496C 18.3066 8.33496 17.7529 8.54688 17.4111 8.9707C 17.0693 9.39453 16.8939 10.069 16.8848 10.9941L 16.8848 11.2471C 16.8848 12.2998 17.0602 13.054 17.4111 13.5098C 17.762 13.9609 18.3249 14.1865 19.0996 14.1865C 19.7467 14.1865 20.2526 13.9245 20.6172 13.4004C 20.9863 12.8763 21.1709 12.154 21.1709 11.2334C 21.1709 10.2992 20.9863 9.58366 20.6172 9.08691C 20.2526 8.58561 19.7376 8.33496 19.0723 8.33496ZM 25.4707 7.50781L 25.4707 10.6455L 29.668 10.6455L 29.668 7.50781L 30.8027 7.50781L 30.8027 15L 29.668 15L 29.668 11.623L 25.4707 11.623L 25.4707 15L 24.3359 15L 24.3359 7.50781L 25.4707 7.50781Z"/>
<path id="path8_fill" d="M 8.09375 13.4922C 8.09375 14.2005 7.82812 14.7865 7.29688 15.25C 6.76562 15.7083 6.02344 15.9974 5.07031 16.1172L 5.07031 17.9297L 4.0625 17.9297L 4.0625 16.1875C 3.47917 16.1875 2.91406 16.1432 2.36719 16.0547C 1.82031 15.9609 1.3724 15.8333 1.02344 15.6719L 1.02344 14.4531C 1.45573 14.6458 1.95312 14.8047 2.51562 14.9297C 3.08333 15.0495 3.59896 15.1094 4.0625 15.1094L 4.0625 11.6719C 2.99479 11.3333 2.24479 10.9401 1.8125 10.4922C 1.38542 10.0443 1.17188 9.46615 1.17188 8.75781C 1.17188 8.07552 1.4349 7.51562 1.96094 7.07812C 2.49219 6.64062 3.19271 6.375 4.0625 6.28125L 4.0625 4.85938L 5.07031 4.85938L 5.07031 6.26562C 6.02865 6.29167 6.95312 6.48438 7.84375 6.84375L 7.4375 7.86719C 6.66146 7.5599 5.8724 7.3776 5.07031 7.32031L 5.07031 10.7109C 5.88802 10.9714 6.5 11.2266 6.90625 11.4766C 7.3125 11.7214 7.61198 12.0052 7.80469 12.3281C 7.9974 12.6458 8.09375 13.0339 8.09375 13.4922ZM 6.76562 13.5938C 6.76562 13.2188 6.64844 12.9167 6.41406 12.6875C 6.1849 12.4531 5.73698 12.2214 5.07031 11.9922L 5.07031 15.0312C 6.20052 14.875 6.76562 14.3958 6.76562 13.5938ZM 2.49219 8.74219C 2.49219 9.13802 2.60938 9.45573 2.84375 9.69531C 3.07812 9.9349 3.48438 10.1615 4.0625 10.375L 4.0625 7.35156C 3.54688 7.4349 3.15625 7.59896 2.89062 7.84375C 2.625 8.08333 2.49219 8.38281 2.49219 8.74219Z"/>
<path id="path9_fill" d="M 7.25293 15L 0.683594 15L 0.683594 14.0225L 3.31543 11.377C 4.11751 10.5658 4.64616 9.98698 4.90137 9.64062C 5.15658 9.29427 5.34798 8.95703 5.47559 8.62891C 5.60319 8.30078 5.66699 7.94759 5.66699 7.56934C 5.66699 7.03613 5.50521 6.61458 5.18164 6.30469C 4.85807 5.99023 4.40918 5.83301 3.83496 5.83301C 3.42025 5.83301 3.02604 5.90137 2.65234 6.03809C 2.2832 6.1748 1.87077 6.42318 1.41504 6.7832L 0.813477 6.01074C 1.73405 5.24512 2.73665 4.8623 3.82129 4.8623C 4.76009 4.8623 5.49609 5.10384 6.0293 5.58691C 6.5625 6.06543 6.8291 6.71029 6.8291 7.52148C 6.8291 8.15495 6.65137 8.78158 6.2959 9.40137C 5.94043 10.0212 5.27507 10.805 4.2998 11.7529L 2.1123 13.8926L 2.1123 13.9473L 7.25293 13.9473L 7.25293 15ZM 14.2666 8.47852L 11.833 8.47852L 11.833 15L 10.6982 15L 10.6982 8.47852L 8.29199 8.47852L 8.29199 7.50781L 14.2666 7.50781L 14.2666 8.47852ZM 19.2363 15.1367C 18.7487 15.1367 18.3021 15.0479 17.8965 14.8701C 17.4954 14.6878 17.1582 14.4098 16.8848 14.0361L 16.8027 14.0361C 16.8574 14.4736 16.8848 14.8883 16.8848 15.2803L 16.8848 18.3633L 15.75 18.3633L 15.75 7.50781L 16.6729 7.50781L 16.8301 8.5332L 16.8848 8.5332C 17.1764 8.12305 17.516 7.82682 17.9033 7.64453C 18.2907 7.46224 18.735 7.37109 19.2363 7.37109C 20.2298 7.37109 20.9954 7.71061 21.5332 8.38965C 22.0755 9.06868 22.3467 10.0212 22.3467 11.2471C 22.3467 12.4775 22.071 13.4346 21.5195 14.1182C 20.9727 14.7972 20.2116 15.1367 19.2363 15.1367ZM 19.0723 8.33496C 18.3066 8.33496 17.7529 8.54688 17.4111 8.9707C 17.0693 9.39453 16.8939 10.069 16.8848 10.9941L 16.8848 11.2471C 16.8848 12.2998 17.0602 13.054 17.4111 13.5098C 17.762 13.9609 18.3249 14.1865 19.0996 14.1865C 19.7467 14.1865 20.2526 13.9245 20.6172 13.4004C 20.9863 12.8763 21.1709 12.154 21.1709 11.2334C 21.1709 10.2992 20.9863 9.58366 20.6172 9.08691C 20.2526 8.58561 19.7376 8.33496 19.0723 8.33496ZM 25.4707 7.50781L 25.4707 10.6455L 29.668 10.6455L 29.668 7.50781L 30.8027 7.50781L 30.8027 15L 29.668 15L 29.668 11.623L 25.4707 11.623L 25.4707 15L 24.3359 15L 24.3359 7.50781L 25.4707 7.50781Z"/>
<path id="path10_fill" d="M 4.8877 15L 3.78027 15L 3.78027 7.87695C 3.78027 7.28451 3.7985 6.72396 3.83496 6.19531C 3.73926 6.29102 3.63216 6.39128 3.51367 6.49609C 3.39518 6.60091 2.85286 7.04525 1.88672 7.8291L 1.28516 7.0498L 3.93066 5.00586L 4.8877 5.00586L 4.8877 15ZM 14.2666 8.47852L 11.833 8.47852L 11.833 15L 10.6982 15L 10.6982 8.47852L 8.29199 8.47852L 8.29199 7.50781L 14.2666 7.50781L 14.2666 8.47852ZM 19.2363 15.1367C 18.7487 15.1367 18.3021 15.0479 17.8965 14.8701C 17.4954 14.6878 17.1582 14.4098 16.8848 14.0361L 16.8027 14.0361C 16.8574 14.4736 16.8848 14.8883 16.8848 15.2803L 16.8848 18.3633L 15.75 18.3633L 15.75 7.50781L 16.6729 7.50781L 16.8301 8.5332L 16.8848 8.5332C 17.1764 8.12305 17.516 7.82682 17.9033 7.64453C 18.2907 7.46224 18.735 7.37109 19.2363 7.37109C 20.2298 7.37109 20.9954 7.71061 21.5332 8.38965C 22.0755 9.06868 22.3467 10.0212 22.3467 11.2471C 22.3467 12.4775 22.071 13.4346 21.5195 14.1182C 20.9727 14.7972 20.2116 15.1367 19.2363 15.1367ZM 19.0723 8.33496C 18.3066 8.33496 17.7529 8.54688 17.4111 8.9707C 17.0693 9.39453 16.8939 10.069 16.8848 10.9941L 16.8848 11.2471C 16.8848 12.2998 17.0602 13.054 17.4111 13.5098C 17.762 13.9609 18.3249 14.1865 19.0996 14.1865C 19.7467 14.1865 20.2526 13.9245 20.6172 13.4004C 20.9863 12.8763 21.1709 12.154 21.1709 11.2334C 21.1709 10.2992 20.9863 9.58366 20.6172 9.08691C 20.2526 8.58561 19.7376 8.33496 19.0723 8.33496ZM 25.4707 7.50781L 25.4707 10.6455L 29.668 10.6455L 29.668 7.50781L 30.8027 7.50781L 30.8027 15L 29.668 15L 29.668 11.623L 25.4707 11.623L 25.4707 15L 24.3359 15L 24.3359 7.50781L 25.4707 7.50781Z"/>
<path id="path11_fill" d="M 7.30762 9.98926C 7.30762 11.7165 7.03418 13.0062 6.4873 13.8584C 5.94499 14.7106 5.11328 15.1367 3.99219 15.1367C 2.91667 15.1367 2.09863 14.7015 1.53809 13.8311C 0.977539 12.9561 0.697266 11.6755 0.697266 9.98926C 0.697266 8.24837 0.968425 6.95638 1.51074 6.11328C 2.05306 5.27018 2.88021 4.84863 3.99219 4.84863C 5.07682 4.84863 5.89941 5.28841 6.45996 6.16797C 7.02506 7.04753 7.30762 8.32129 7.30762 9.98926ZM 1.8457 9.98926C 1.8457 11.443 2.0166 12.5026 2.3584 13.168C 2.7002 13.8288 3.24479 14.1592 3.99219 14.1592C 4.7487 14.1592 5.29557 13.8242 5.63281 13.1543C 5.97461 12.4798 6.14551 11.4248 6.14551 9.98926C 6.14551 8.55371 5.97461 7.50326 5.63281 6.83789C 5.29557 6.16797 4.7487 5.83301 3.99219 5.83301C 3.24479 5.83301 2.7002 6.16341 2.3584 6.82422C 2.0166 7.48047 1.8457 8.53548 1.8457 9.98926ZM 9.05078 14.2754C 9.05078 13.9701 9.11914 13.7399 9.25586 13.585C 9.39714 13.4255 9.59766 13.3457 9.85742 13.3457C 10.1217 13.3457 10.3268 13.4255 10.4727 13.585C 10.623 13.7399 10.6982 13.9701 10.6982 14.2754C 10.6982 14.5716 10.623 14.7995 10.4727 14.959C 10.3223 15.1185 10.1172 15.1982 9.85742 15.1982C 9.625 15.1982 9.43132 15.1276 9.27637 14.9863C 9.12598 14.8405 9.05078 14.6035 9.05078 14.2754ZM 15.5518 8.89551C 16.6045 8.89551 17.4316 9.15755 18.0332 9.68164C 18.6393 10.2012 18.9424 10.9144 18.9424 11.8213C 18.9424 12.8558 18.612 13.667 17.9512 14.2549C 17.2949 14.8428 16.388 15.1367 15.2305 15.1367C 14.1048 15.1367 13.2458 14.9567 12.6533 14.5967L 12.6533 13.5029C 12.9723 13.708 13.3688 13.8698 13.8428 13.9883C 14.3167 14.1022 14.7839 14.1592 15.2441 14.1592C 16.0462 14.1592 16.6683 13.9701 17.1104 13.5918C 17.557 13.2135 17.7803 12.6667 17.7803 11.9512C 17.7803 10.5566 16.9258 9.85938 15.2168 9.85938C 14.7839 9.85938 14.2051 9.92546 13.4805 10.0576L 12.8926 9.68164L 13.2686 5.00586L 18.2383 5.00586L 18.2383 6.05176L 14.2393 6.05176L 13.9863 9.05273C 14.5104 8.94792 15.0322 8.89551 15.5518 8.89551ZM 26.0107 8.47852L 23.5771 8.47852L 23.5771 15L 22.4424 15L 22.4424 8.47852L 20.0361 8.47852L 20.0361 7.50781L 26.0107 7.50781L 26.0107 8.47852ZM 30.9805 15.1367C 30.4928 15.1367 30.0462 15.0479 29.6406 14.8701C 29.2396 14.6878 28.9023 14.4098 28.6289 14.0361L 28.5469 14.0361C 28.6016 14.4736 28.6289 14.8883 28.6289 15.2803L 28.6289 18.3633L 27.4941 18.3633L 27.4941 7.50781L 28.417 7.50781L 28.5742 8.5332L 28.6289 8.5332C 28.9206 8.12305 29.2601 7.82682 29.6475 7.64453C 30.0348 7.46224 30.4792 7.37109 30.9805 7.37109C 31.974 7.37109 32.7396 7.71061 33.2773 8.38965C 33.8197 9.06868 34.0908 10.0212 34.0908 11.2471C 34.0908 12.4775 33.8151 13.4346 33.2637 14.1182C 32.7168 14.7972 31.9557 15.1367 30.9805 15.1367ZM 30.8164 8.33496C 30.0508 8.33496 29.4971 8.54688 29.1553 8.9707C 28.8135 9.39453 28.638 10.069 28.6289 10.9941L 28.6289 11.2471C 28.6289 12.2998 28.8044 13.054 29.1553 13.5098C 29.5062 13.9609 30.069 14.1865 30.8438 14.1865C 31.4909 14.1865 31.9967 13.9245 32.3613 13.4004C 32.7305 12.8763 32.915 12.154 32.915 11.2334C 32.915 10.2992 32.7305 9.58366 32.3613 9.08691C 31.9967 8.58561 31.4818 8.33496 30.8164 8.33496ZM 37.2148 7.50781L 37.2148 10.6455L 41.4121 10.6455L 41.4121 7.50781L 42.5469 7.50781L 42.5469 15L 41.4121 15L 41.4121 11.623L 37.2148 11.623L 37.2148 15L 36.0801 15L 36.0801 7.50781L 37.2148 7.50781Z"/>
<path id="path12_fill" d="M 6.0752 15L 4.96777 15L 4.96777 7.87695C 4.96777 7.28451 4.986 6.72396 5.02246 6.19531C 4.92676 6.29102 4.81966 6.39128 4.70117 6.49609C 4.58268 6.60091 4.04036 7.04525 3.07422 7.8291L 2.47266 7.0498L 5.11816 5.00586L 6.0752 5.00586L 6.0752 15ZM 18.4072 7.50781L 19.6514 7.50781L 16.418 11.124L 19.918 15L 18.5918 15L 15.1738 11.2061L 15.1738 15L 14.0391 15L 14.0391 7.50781L 15.1738 7.50781L 15.1738 11.1514L 18.4072 7.50781ZM 27.3896 9.3877C 27.3896 9.87533 27.2484 10.2467 26.9658 10.502C 26.6878 10.7526 26.2959 10.9212 25.79 11.0078L 25.79 11.0693C 26.4281 11.1559 26.8929 11.3428 27.1846 11.6299C 27.4808 11.917 27.6289 12.3135 27.6289 12.8193C 27.6289 13.5166 27.3714 14.0544 26.8564 14.4326C 26.346 14.8109 25.5986 15 24.6143 15L 21.3125 15L 21.3125 7.50781L 24.6006 7.50781C 26.46 7.50781 27.3896 8.13444 27.3896 9.3877ZM 26.4941 12.7441C 26.4941 12.3385 26.3392 12.0446 26.0293 11.8623C 25.724 11.6755 25.2158 11.582 24.5049 11.582L 22.4473 11.582L 22.4473 14.0498L 24.5322 14.0498C 25.8402 14.0498 26.4941 13.6146 26.4941 12.7441ZM 26.2822 9.49707C 26.2822 9.13249 26.141 8.875 25.8584 8.72461C 25.5804 8.56966 25.1566 8.49219 24.5869 8.49219L 22.4473 8.49219L 22.4473 10.6045L 24.3682 10.6045C 25.07 10.6045 25.5645 10.5179 25.8516 10.3447C 26.1387 10.1715 26.2822 9.889 26.2822 9.49707ZM 29.1191 14.2754C 29.1191 13.9701 29.1875 13.7399 29.3242 13.585C 29.4655 13.4255 29.666 13.3457 29.9258 13.3457C 30.1901 13.3457 30.3952 13.4255 30.541 13.585C 30.6914 13.7399 30.7666 13.9701 30.7666 14.2754C 30.7666 14.5716 30.6914 14.7995 30.541 14.959C 30.3906 15.1185 30.1855 15.1982 29.9258 15.1982C 29.6934 15.1982 29.4997 15.1276 29.3447 14.9863C 29.1943 14.8405 29.1191 14.6035 29.1191 14.2754ZM 7.72949 36L 1.16016 36L 1.16016 35.0225L 3.79199 32.377C 4.59408 31.5658 5.12272 30.987 5.37793 30.6406C 5.63314 30.2943 5.82454 29.957 5.95215 29.6289C 6.07975 29.3008 6.14355 28.9476 6.14355 28.5693C 6.14355 28.0361 5.98177 27.6146 5.6582 27.3047C 5.33464 26.9902 4.88574 26.833 4.31152 26.833C 3.89681 26.833 3.5026 26.9014 3.12891 27.0381C 2.75977 27.1748 2.34733 27.4232 1.8916 27.7832L 1.29004 27.0107C 2.21061 26.2451 3.21322 25.8623 4.29785 25.8623C 5.23665 25.8623 5.97266 26.1038 6.50586 26.5869C 7.03906 27.0654 7.30566 27.7103 7.30566 28.5215C 7.30566 29.1549 7.12793 29.7816 6.77246 30.4014C 6.41699 31.0212 5.75163 31.805 4.77637 32.7529L 2.58887 34.8926L 2.58887 34.9473L 7.72949 34.9473L 7.72949 36ZM 15.7959 30.9893C 15.7959 32.7165 15.5225 34.0062 14.9756 34.8584C 14.4333 35.7106 13.6016 36.1367 12.4805 36.1367C 11.4049 36.1367 10.5869 35.7015 10.0264 34.8311C 9.46582 33.9561 9.18555 32.6755 9.18555 30.9893C 9.18555 29.2484 9.45671 27.9564 9.99902 27.1133C 10.5413 26.2702 11.3685 25.8486 12.4805 25.8486C 13.5651 25.8486 14.3877 26.2884 14.9482 27.168C 15.5133 28.0475 15.7959 29.3213 15.7959 30.9893ZM 10.334 30.9893C 10.334 32.443 10.5049 33.5026 10.8467 34.168C 11.1885 34.8288 11.7331 35.1592 12.4805 35.1592C 13.237 35.1592 13.7839 34.8242 14.1211 34.1543C 14.4629 33.4798 14.6338 32.4248 14.6338 30.9893C 14.6338 29.5537 14.4629 28.5033 14.1211 27.8379C 13.7839 27.168 13.237 26.833 12.4805 26.833C 11.7331 26.833 11.1885 27.1634 10.8467 27.8242C 10.5049 28.4805 10.334 29.5355 10.334 30.9893ZM 21.3877 36L 20.2803 36L 20.2803 28.877C 20.2803 28.2845 20.2985 27.724 20.335 27.1953C 20.2393 27.291 20.1322 27.3913 20.0137 27.4961C 19.8952 27.6009 19.3529 28.0452 18.3867 28.8291L 17.7852 28.0498L 20.4307 26.0059L 21.3877 26.0059L 21.3877 36ZM 31.7646 30.2715C 31.7646 34.1816 30.2516 36.1367 27.2256 36.1367C 26.6969 36.1367 26.2777 36.0911 25.9678 36L 25.9678 35.0225C 26.3324 35.141 26.7471 35.2002 27.2119 35.2002C 28.3057 35.2002 29.1305 34.863 29.6865 34.1885C 30.2471 33.5094 30.5524 32.4704 30.6025 31.0713L 30.5205 31.0713C 30.2699 31.4495 29.9372 31.7389 29.5225 31.9395C 29.1077 32.1354 28.6406 32.2334 28.1211 32.2334C 27.237 32.2334 26.5352 31.9691 26.0156 31.4404C 25.4961 30.9118 25.2363 30.1735 25.2363 29.2256C 25.2363 28.1865 25.5257 27.3662 26.1045 26.7646C 26.6878 26.1631 27.4535 25.8623 28.4014 25.8623C 29.0804 25.8623 29.6729 26.0378 30.1787 26.3887C 30.6891 26.735 31.0811 27.2432 31.3545 27.9131C 31.6279 28.5785 31.7646 29.3646 31.7646 30.2715ZM 28.4014 26.833C 27.7497 26.833 27.2461 27.0426 26.8906 27.4619C 26.5352 27.8812 26.3574 28.4645 26.3574 29.2119C 26.3574 29.8682 26.5215 30.3854 26.8496 30.7637C 27.1777 31.1374 27.6768 31.3242 28.3467 31.3242C 28.7614 31.3242 29.1419 31.2399 29.4883 31.0713C 29.8392 30.9027 30.1149 30.6725 30.3154 30.3809C 30.516 30.0892 30.6162 29.7839 30.6162 29.4648C 30.6162 28.9863 30.5228 28.5443 30.3359 28.1387C 30.1491 27.7331 29.887 27.4141 29.5498 27.1816C 29.2171 26.9492 28.8343 26.833 28.4014 26.833Z"/>
<path id="path13_fill" d="M 6.0752 15L 4.96777 15L 4.96777 7.87695C 4.96777 7.28451 4.986 6.72396 5.02246 6.19531C 4.92676 6.29102 4.81966 6.39128 4.70117 6.49609C 4.58268 6.60091 4.04036 7.04525 3.07422 7.8291L 2.47266 7.0498L 5.11816 5.00586L 6.0752 5.00586L 6.0752 15ZM 18.4072 7.50781L 19.6514 7.50781L 16.418 11.124L 19.918 15L 18.5918 15L 15.1738 11.2061L 15.1738 15L 14.0391 15L 14.0391 7.50781L 15.1738 7.50781L 15.1738 11.1514L 18.4072 7.50781ZM 27.3896 9.3877C 27.3896 9.87533 27.2484 10.2467 26.9658 10.502C 26.6878 10.7526 26.2959 10.9212 25.79 11.0078L 25.79 11.0693C 26.4281 11.1559 26.8929 11.3428 27.1846 11.6299C 27.4808 11.917 27.6289 12.3135 27.6289 12.8193C 27.6289 13.5166 27.3714 14.0544 26.8564 14.4326C 26.346 14.8109 25.5986 15 24.6143 15L 21.3125 15L 21.3125 7.50781L 24.6006 7.50781C 26.46 7.50781 27.3896 8.13444 27.3896 9.3877ZM 26.4941 12.7441C 26.4941 12.3385 26.3392 12.0446 26.0293 11.8623C 25.724 11.6755 25.2158 11.582 24.5049 11.582L 22.4473 11.582L 22.4473 14.0498L 24.5322 14.0498C 25.8402 14.0498 26.4941 13.6146 26.4941 12.7441ZM 26.2822 9.49707C 26.2822 9.13249 26.141 8.875 25.8584 8.72461C 25.5804 8.56966 25.1566 8.49219 24.5869 8.49219L 22.4473 8.49219L 22.4473 10.6045L 24.3682 10.6045C 25.07 10.6045 25.5645 10.5179 25.8516 10.3447C 26.1387 10.1715 26.2822 9.889 26.2822 9.49707ZM 29.1191 14.2754C 29.1191 13.9701 29.1875 13.7399 29.3242 13.585C 29.4655 13.4255 29.666 13.3457 29.9258 13.3457C 30.1901 13.3457 30.3952 13.4255 30.541 13.585C 30.6914 13.7399 30.7666 13.9701 30.7666 14.2754C 30.7666 14.5716 30.6914 14.7995 30.541 14.959C 30.3906 15.1185 30.1855 15.1982 29.9258 15.1982C 29.6934 15.1982 29.4997 15.1276 29.3447 14.9863C 29.1943 14.8405 29.1191 14.6035 29.1191 14.2754ZM 7.72949 36L 1.16016 36L 1.16016 35.0225L 3.79199 32.377C 4.59408 31.5658 5.12272 30.987 5.37793 30.6406C 5.63314 30.2943 5.82454 29.957 5.95215 29.6289C 6.07975 29.3008 6.14355 28.9476 6.14355 28.5693C 6.14355 28.0361 5.98177 27.6146 5.6582 27.3047C 5.33464 26.9902 4.88574 26.833 4.31152 26.833C 3.89681 26.833 3.5026 26.9014 3.12891 27.0381C 2.75977 27.1748 2.34733 27.4232 1.8916 27.7832L 1.29004 27.0107C 2.21061 26.2451 3.21322 25.8623 4.29785 25.8623C 5.23665 25.8623 5.97266 26.1038 6.50586 26.5869C 7.03906 27.0654 7.30566 27.7103 7.30566 28.5215C 7.30566 29.1549 7.12793 29.7816 6.77246 30.4014C 6.41699 31.0212 5.75163 31.805 4.77637 32.7529L 2.58887 34.8926L 2.58887 34.9473L 7.72949 34.9473L 7.72949 36ZM 15.7959 30.9893C 15.7959 32.7165 15.5225 34.0062 14.9756 34.8584C 14.4333 35.7106 13.6016 36.1367 12.4805 36.1367C 11.4049 36.1367 10.5869 35.7015 10.0264 34.8311C 9.46582 33.9561 9.18555 32.6755 9.18555 30.9893C 9.18555 29.2484 9.45671 27.9564 9.99902 27.1133C 10.5413 26.2702 11.3685 25.8486 12.4805 25.8486C 13.5651 25.8486 14.3877 26.2884 14.9482 27.168C 15.5133 28.0475 15.7959 29.3213 15.7959 30.9893ZM 10.334 30.9893C 10.334 32.443 10.5049 33.5026 10.8467 34.168C 11.1885 34.8288 11.7331 35.1592 12.4805 35.1592C 13.237 35.1592 13.7839 34.8242 14.1211 34.1543C 14.4629 33.4798 14.6338 32.4248 14.6338 30.9893C 14.6338 29.5537 14.4629 28.5033 14.1211 27.8379C 13.7839 27.168 13.237 26.833 12.4805 26.833C 11.7331 26.833 11.1885 27.1634 10.8467 27.8242C 10.5049 28.4805 10.334 29.5355 10.334 30.9893ZM 23.7529 36L 17.1836 36L 17.1836 35.0225L 19.8154 32.377C 20.6175 31.5658 21.1462 30.987 21.4014 30.6406C 21.6566 30.2943 21.848 29.957 21.9756 29.6289C 22.1032 29.3008 22.167 28.9476 22.167 28.5693C 22.167 28.0361 22.0052 27.6146 21.6816 27.3047C 21.3581 26.9902 20.9092 26.833 20.335 26.833C 19.9202 26.833 19.526 26.9014 19.1523 27.0381C 18.7832 27.1748 18.3708 27.4232 17.915 27.7832L 17.3135 27.0107C 18.234 26.2451 19.2367 25.8623 20.3213 25.8623C 21.2601 25.8623 21.9961 26.1038 22.5293 26.5869C 23.0625 27.0654 23.3291 27.7103 23.3291 28.5215C 23.3291 29.1549 23.1514 29.7816 22.7959 30.4014C 22.4404 31.0212 21.7751 31.805 20.7998 32.7529L 18.6123 34.8926L 18.6123 34.9473L 23.7529 34.9473L 23.7529 36ZM 31.8193 30.9893C 31.8193 32.7165 31.5459 34.0062 30.999 34.8584C 30.4567 35.7106 29.625 36.1367 28.5039 36.1367C 27.4284 36.1367 26.6104 35.7015 26.0498 34.8311C 25.4893 33.9561 25.209 32.6755 25.209 30.9893C 25.209 29.2484 25.4801 27.9564 26.0225 27.1133C 26.5648 26.2702 27.3919 25.8486 28.5039 25.8486C 29.5885 25.8486 30.4111 26.2884 30.9717 27.168C 31.5368 28.0475 31.8193 29.3213 31.8193 30.9893ZM 26.3574 30.9893C 26.3574 32.443 26.5283 33.5026 26.8701 34.168C 27.2119 34.8288 27.7565 35.1592 28.5039 35.1592C 29.2604 35.1592 29.8073 34.8242 30.1445 34.1543C 30.4863 33.4798 30.6572 32.4248 30.6572 30.9893C 30.6572 29.5537 30.4863 28.5033 30.1445 27.8379C 29.8073 27.168 29.2604 26.833 28.5039 26.833C 27.7565 26.833 27.2119 27.1634 26.8701 27.8242C 26.5283 28.4805 26.3574 29.5355 26.3574 30.9893Z"/>
<path id="path14_fill" d="M 6.0752 15L 4.96777 15L 4.96777 7.87695C 4.96777 7.28451 4.986 6.72396 5.02246 6.19531C 4.92676 6.29102 4.81966 6.39128 4.70117 6.49609C 4.58268 6.60091 4.04036 7.04525 3.07422 7.8291L 2.47266 7.0498L 5.11816 5.00586L 6.0752 5.00586L 6.0752 15ZM 18.4072 7.50781L 19.6514 7.50781L 16.418 11.124L 19.918 15L 18.5918 15L 15.1738 11.2061L 15.1738 15L 14.0391 15L 14.0391 7.50781L 15.1738 7.50781L 15.1738 11.1514L 18.4072 7.50781ZM 27.3896 9.3877C 27.3896 9.87533 27.2484 10.2467 26.9658 10.502C 26.6878 10.7526 26.2959 10.9212 25.79 11.0078L 25.79 11.0693C 26.4281 11.1559 26.8929 11.3428 27.1846 11.6299C 27.4808 11.917 27.6289 12.3135 27.6289 12.8193C 27.6289 13.5166 27.3714 14.0544 26.8564 14.4326C 26.346 14.8109 25.5986 15 24.6143 15L 21.3125 15L 21.3125 7.50781L 24.6006 7.50781C 26.46 7.50781 27.3896 8.13444 27.3896 9.3877ZM 26.4941 12.7441C 26.4941 12.3385 26.3392 12.0446 26.0293 11.8623C 25.724 11.6755 25.2158 11.582 24.5049 11.582L 22.4473 11.582L 22.4473 14.0498L 24.5322 14.0498C 25.8402 14.0498 26.4941 13.6146 26.4941 12.7441ZM 26.2822 9.49707C 26.2822 9.13249 26.141 8.875 25.8584 8.72461C 25.5804 8.56966 25.1566 8.49219 24.5869 8.49219L 22.4473 8.49219L 22.4473 10.6045L 24.3682 10.6045C 25.07 10.6045 25.5645 10.5179 25.8516 10.3447C 26.1387 10.1715 26.2822 9.889 26.2822 9.49707ZM 29.1191 14.2754C 29.1191 13.9701 29.1875 13.7399 29.3242 13.585C 29.4655 13.4255 29.666 13.3457 29.9258 13.3457C 30.1901 13.3457 30.3952 13.4255 30.541 13.585C 30.6914 13.7399 30.7666 13.9701 30.7666 14.2754C 30.7666 14.5716 30.6914 14.7995 30.541 14.959C 30.3906 15.1185 30.1855 15.1982 29.9258 15.1982C 29.6934 15.1982 29.4997 15.1276 29.3447 14.9863C 29.1943 14.8405 29.1191 14.6035 29.1191 14.2754ZM 7.72949 36L 1.16016 36L 1.16016 35.0225L 3.79199 32.377C 4.59408 31.5658 5.12272 30.987 5.37793 30.6406C 5.63314 30.2943 5.82454 29.957 5.95215 29.6289C 6.07975 29.3008 6.14355 28.9476 6.14355 28.5693C 6.14355 28.0361 5.98177 27.6146 5.6582 27.3047C 5.33464 26.9902 4.88574 26.833 4.31152 26.833C 3.89681 26.833 3.5026 26.9014 3.12891 27.0381C 2.75977 27.1748 2.34733 27.4232 1.8916 27.7832L 1.29004 27.0107C 2.21061 26.2451 3.21322 25.8623 4.29785 25.8623C 5.23665 25.8623 5.97266 26.1038 6.50586 26.5869C 7.03906 27.0654 7.30566 27.7103 7.30566 28.5215C 7.30566 29.1549 7.12793 29.7816 6.77246 30.4014C 6.41699 31.0212 5.75163 31.805 4.77637 32.7529L 2.58887 34.8926L 2.58887 34.9473L 7.72949 34.9473L 7.72949 36ZM 15.7959 30.9893C 15.7959 32.7165 15.5225 34.0062 14.9756 34.8584C 14.4333 35.7106 13.6016 36.1367 12.4805 36.1367C 11.4049 36.1367 10.5869 35.7015 10.0264 34.8311C 9.46582 33.9561 9.18555 32.6755 9.18555 30.9893C 9.18555 29.2484 9.45671 27.9564 9.99902 27.1133C 10.5413 26.2702 11.3685 25.8486 12.4805 25.8486C 13.5651 25.8486 14.3877 26.2884 14.9482 27.168C 15.5133 28.0475 15.7959 29.3213 15.7959 30.9893ZM 10.334 30.9893C 10.334 32.443 10.5049 33.5026 10.8467 34.168C 11.1885 34.8288 11.7331 35.1592 12.4805 35.1592C 13.237 35.1592 13.7839 34.8242 14.1211 34.1543C 14.4629 33.4798 14.6338 32.4248 14.6338 30.9893C 14.6338 29.5537 14.4629 28.5033 14.1211 27.8379C 13.7839 27.168 13.237 26.833 12.4805 26.833C 11.7331 26.833 11.1885 27.1634 10.8467 27.8242C 10.5049 28.4805 10.334 29.5355 10.334 30.9893ZM 23.7529 36L 17.1836 36L 17.1836 35.0225L 19.8154 32.377C 20.6175 31.5658 21.1462 30.987 21.4014 30.6406C 21.6566 30.2943 21.848 29.957 21.9756 29.6289C 22.1032 29.3008 22.167 28.9476 22.167 28.5693C 22.167 28.0361 22.0052 27.6146 21.6816 27.3047C 21.3581 26.9902 20.9092 26.833 20.335 26.833C 19.9202 26.833 19.526 26.9014 19.1523 27.0381C 18.7832 27.1748 18.3708 27.4232 17.915 27.7832L 17.3135 27.0107C 18.234 26.2451 19.2367 25.8623 20.3213 25.8623C 21.2601 25.8623 21.9961 26.1038 22.5293 26.5869C 23.0625 27.0654 23.3291 27.7103 23.3291 28.5215C 23.3291 29.1549 23.1514 29.7816 22.7959 30.4014C 22.4404 31.0212 21.7751 31.805 20.7998 32.7529L 18.6123 34.8926L 18.6123 34.9473L 23.7529 34.9473L 23.7529 36ZM 29.3994 36L 28.292 36L 28.292 28.877C 28.292 28.2845 28.3102 27.724 28.3467 27.1953C 28.251 27.291 28.1439 27.3913 28.0254 27.4961C 27.9069 27.6009 27.3646 28.0452 26.3984 28.8291L 25.7969 28.0498L 28.4424 26.0059L 29.3994 26.0059L 29.3994 36Z"/>
<path id="path15_fill" d="M 6.0752 15L 4.96777 15L 4.96777 7.87695C 4.96777 7.28451 4.986 6.72396 5.02246 6.19531C 4.92676 6.29102 4.81966 6.39128 4.70117 6.49609C 4.58268 6.60091 4.04036 7.04525 3.07422 7.8291L 2.47266 7.0498L 5.11816 5.00586L 6.0752 5.00586L 6.0752 15ZM 18.4072 7.50781L 19.6514 7.50781L 16.418 11.124L 19.918 15L 18.5918 15L 15.1738 11.2061L 15.1738 15L 14.0391 15L 14.0391 7.50781L 15.1738 7.50781L 15.1738 11.1514L 18.4072 7.50781ZM 27.3896 9.3877C 27.3896 9.87533 27.2484 10.2467 26.9658 10.502C 26.6878 10.7526 26.2959 10.9212 25.79 11.0078L 25.79 11.0693C 26.4281 11.1559 26.8929 11.3428 27.1846 11.6299C 27.4808 11.917 27.6289 12.3135 27.6289 12.8193C 27.6289 13.5166 27.3714 14.0544 26.8564 14.4326C 26.346 14.8109 25.5986 15 24.6143 15L 21.3125 15L 21.3125 7.50781L 24.6006 7.50781C 26.46 7.50781 27.3896 8.13444 27.3896 9.3877ZM 26.4941 12.7441C 26.4941 12.3385 26.3392 12.0446 26.0293 11.8623C 25.724 11.6755 25.2158 11.582 24.5049 11.582L 22.4473 11.582L 22.4473 14.0498L 24.5322 14.0498C 25.8402 14.0498 26.4941 13.6146 26.4941 12.7441ZM 26.2822 9.49707C 26.2822 9.13249 26.141 8.875 25.8584 8.72461C 25.5804 8.56966 25.1566 8.49219 24.5869 8.49219L 22.4473 8.49219L 22.4473 10.6045L 24.3682 10.6045C 25.07 10.6045 25.5645 10.5179 25.8516 10.3447C 26.1387 10.1715 26.2822 9.889 26.2822 9.49707ZM 29.1191 14.2754C 29.1191 13.9701 29.1875 13.7399 29.3242 13.585C 29.4655 13.4255 29.666 13.3457 29.9258 13.3457C 30.1901 13.3457 30.3952 13.4255 30.541 13.585C 30.6914 13.7399 30.7666 13.9701 30.7666 14.2754C 30.7666 14.5716 30.6914 14.7995 30.541 14.959C 30.3906 15.1185 30.1855 15.1982 29.9258 15.1982C 29.6934 15.1982 29.4997 15.1276 29.3447 14.9863C 29.1943 14.8405 29.1191 14.6035 29.1191 14.2754ZM 7.72949 36L 1.16016 36L 1.16016 35.0225L 3.79199 32.377C 4.59408 31.5658 5.12272 30.987 5.37793 30.6406C 5.63314 30.2943 5.82454 29.957 5.95215 29.6289C 6.07975 29.3008 6.14355 28.9476 6.14355 28.5693C 6.14355 28.0361 5.98177 27.6146 5.6582 27.3047C 5.33464 26.9902 4.88574 26.833 4.31152 26.833C 3.89681 26.833 3.5026 26.9014 3.12891 27.0381C 2.75977 27.1748 2.34733 27.4232 1.8916 27.7832L 1.29004 27.0107C 2.21061 26.2451 3.21322 25.8623 4.29785 25.8623C 5.23665 25.8623 5.97266 26.1038 6.50586 26.5869C 7.03906 27.0654 7.30566 27.7103 7.30566 28.5215C 7.30566 29.1549 7.12793 29.7816 6.77246 30.4014C 6.41699 31.0212 5.75163 31.805 4.77637 32.7529L 2.58887 34.8926L 2.58887 34.9473L 7.72949 34.9473L 7.72949 36ZM 15.7959 30.9893C 15.7959 32.7165 15.5225 34.0062 14.9756 34.8584C 14.4333 35.7106 13.6016 36.1367 12.4805 36.1367C 11.4049 36.1367 10.5869 35.7015 10.0264 34.8311C 9.46582 33.9561 9.18555 32.6755 9.18555 30.9893C 9.18555 29.2484 9.45671 27.9564 9.99902 27.1133C 10.5413 26.2702 11.3685 25.8486 12.4805 25.8486C 13.5651 25.8486 14.3877 26.2884 14.9482 27.168C 15.5133 28.0475 15.7959 29.3213 15.7959 30.9893ZM 10.334 30.9893C 10.334 32.443 10.5049 33.5026 10.8467 34.168C 11.1885 34.8288 11.7331 35.1592 12.4805 35.1592C 13.237 35.1592 13.7839 34.8242 14.1211 34.1543C 14.4629 33.4798 14.6338 32.4248 14.6338 30.9893C 14.6338 29.5537 14.4629 28.5033 14.1211 27.8379C 13.7839 27.168 13.237 26.833 12.4805 26.833C 11.7331 26.833 11.1885 27.1634 10.8467 27.8242C 10.5049 28.4805 10.334 29.5355 10.334 30.9893ZM 23.7529 36L 17.1836 36L 17.1836 35.0225L 19.8154 32.377C 20.6175 31.5658 21.1462 30.987 21.4014 30.6406C 21.6566 30.2943 21.848 29.957 21.9756 29.6289C 22.1032 29.3008 22.167 28.9476 22.167 28.5693C 22.167 28.0361 22.0052 27.6146 21.6816 27.3047C 21.3581 26.9902 20.9092 26.833 20.335 26.833C 19.9202 26.833 19.526 26.9014 19.1523 27.0381C 18.7832 27.1748 18.3708 27.4232 17.915 27.7832L 17.3135 27.0107C 18.234 26.2451 19.2367 25.8623 20.3213 25.8623C 21.2601 25.8623 21.9961 26.1038 22.5293 26.5869C 23.0625 27.0654 23.3291 27.7103 23.3291 28.5215C 23.3291 29.1549 23.1514 29.7816 22.7959 30.4014C 22.4404 31.0212 21.7751 31.805 20.7998 32.7529L 18.6123 34.8926L 18.6123 34.9473L 23.7529 34.9473L 23.7529 36ZM 31.7646 36L 25.1953 36L 25.1953 35.0225L 27.8271 32.377C 28.6292 31.5658 29.1579 30.987 29.4131 30.6406C 29.6683 30.2943 29.8597 29.957 29.9873 29.6289C 30.1149 29.3008 30.1787 28.9476 30.1787 28.5693C 30.1787 28.0361 30.0169 27.6146 29.6934 27.3047C 29.3698 26.9902 28.9209 26.833 28.3467 26.833C 27.932 26.833 27.5378 26.9014 27.1641 27.0381C 26.7949 27.1748 26.3825 27.4232 25.9268 27.7832L 25.3252 27.0107C 26.2458 26.2451 27.2484 25.8623 28.333 25.8623C 29.2718 25.8623 30.0078 26.1038 30.541 26.5869C 31.0742 27.0654 31.3408 27.7103 31.3408 28.5215C 31.3408 29.1549 31.1631 29.7816 30.8076 30.4014C 30.4521 31.0212 29.7868 31.805 28.8115 32.7529L 26.624 34.8926L 26.624 34.9473L 31.7646 34.9473L 31.7646 36Z"/>
<path id="path16_stroke" d="M 0 0.5L 2.01974 0.5L 2.01974 -0.5L 0 -0.5L 0 0.5ZM 6.05921 0.5L 10.0987 0.5L 10.0987 -0.5L 6.05921 -0.5L 6.05921 0.5ZM 14.1382 0.5L 18.1776 0.5L 18.1776 -0.5L 14.1382 -0.5L 14.1382 0.5ZM 22.2171 0.5L 26.2566 0.5L 26.2566 -0.5L 22.2171 -0.5L 22.2171 0.5ZM 30.2961 0.5L 34.3355 0.5L 34.3355 -0.5L 30.2961 -0.5L 30.2961 0.5ZM 38.375 0.5L 42.4145 0.5L 42.4145 -0.5L 38.375 -0.5L 38.375 0.5ZM 46.454 0.5L 50.4934 0.5L 50.4934 -0.5L 46.454 -0.5L 46.454 0.5ZM 54.5329 0.5L 58.5724 0.5L 58.5724 -0.5L 54.5329 -0.5L 54.5329 0.5ZM 62.6119 0.5L 66.6513 0.5L 66.6513 -0.5L 62.6119 -0.5L 62.6119 0.5ZM 70.6908 0.5L 74.7303 0.5L 74.7303 -0.5L 70.6908 -0.5L 70.6908 0.5ZM 78.7697 0.5L 82.8092 0.5L 82.8092 -0.5L 78.7697 -0.5L 78.7697 0.5ZM 86.8487 0.5L 90.8882 0.5L 90.8882 -0.5L 86.8487 -0.5L 86.8487 0.5ZM 94.9276 0.5L 98.9671 0.5L 98.9671 -0.5L 94.9276 -0.5L 94.9276 0.5ZM 103.007 0.5L 107.046 0.5L 107.046 -0.5L 103.007 -0.5L 103.007 0.5ZM 111.086 0.5L 115.125 0.5L 115.125 -0.5L 111.086 -0.5L 111.086 0.5ZM 119.164 0.5L 123.204 0.5L 123.204 -0.5L 119.164 -0.5L 119.164 0.5ZM 127.243 0.5L 131.283 0.5L 131.283 -0.5L 127.243 -0.5L 127.243 0.5ZM 135.322 0.5L 139.362 0.5L 139.362 -0.5L 135.322 -0.5L 135.322 0.5ZM 143.401 0.5L 147.441 0.5L 147.441 -0.5L 143.401 -0.5L 143.401 0.5ZM 151.48 0.5L 155.52 0.5L 155.52 -0.5L 151.48 -0.5L 151.48 0.5ZM 159.559 0.5L 163.599 0.5L 163.599 -0.5L 159.559 -0.5L 159.559 0.5ZM 167.638 0.5L 171.678 0.5L 171.678 -0.5L 167.638 -0.5L 167.638 0.5ZM 175.717 0.5L 179.757 0.5L 179.757 -0.5L 175.717 -0.5L 175.717 0.5ZM 183.796 0.5L 187.836 0.5L 187.836 -0.5L 183.796 -0.5L 183.796 0.5ZM 191.875 0.5L 195.915 0.5L 195.915 -0.5L 191.875 -0.5L 191.875 0.5ZM 199.954 0.5L 203.993 0.5L 203.993 -0.5L 199.954 -0.5L 199.954 0.5ZM 208.033 0.5L 212.072 0.5L 212.072 -0.5L 208.033 -0.5L 208.033 0.5ZM 216.112 0.5L 220.151 0.5L 220.151 -0.5L 216.112 -0.5L 216.112 0.5ZM 224.191 0.5L 228.23 0.5L 228.23 -0.5L 224.191 -0.5L 224.191 0.5ZM 232.27 0.5L 236.309 0.5L 236.309 -0.5L 232.27 -0.5L 232.27 0.5ZM 240.349 0.5L 244.388 0.5L 244.388 -0.5L 240.349 -0.5L 240.349 0.5ZM 248.428 0.5L 252.467 0.5L 252.467 -0.5L 248.428 -0.5L 248.428 0.5ZM 256.507 0.5L 260.546 0.5L 260.546 -0.5L 256.507 -0.5L 256.507 0.5ZM 264.586 0.5L 268.625 0.5L 268.625 -0.5L 264.586 -0.5L 264.586 0.5ZM 272.664 0.5L 276.704 0.5L 276.704 -0.5L 272.664 -0.5L 272.664 0.5ZM 280.743 0.5L 284.783 0.5L 284.783 -0.5L 280.743 -0.5L 280.743 0.5ZM 288.822 0.5L 292.862 0.5L 292.862 -0.5L 288.822 -0.5L 288.822 0.5ZM 296.901 0.5L 300.941 0.5L 300.941 -0.5L 296.901 -0.5L 296.901 0.5ZM 304.98 0.5L 307 0.5L 307 -0.5L 304.98 -0.5L 304.98 0.5Z"/>
<path id="path17_fill" d="M 94 48C 70.0163 51.4684 11.5 63.5 0 63.5L 308 63.5L 308 0C 275 4 256.5 24.5 94 48Z"/>
<path id="path18_stroke" d="M 93 48L 92.8569 47.0103L 93 48ZM 0 64C 2.96634 64 8.79759 63.2646 16.1621 62.1324C 23.5578 60.9953 32.5841 59.4438 41.9922 57.7855C 60.8248 54.4658 81.1716 50.721 93.1431 48.9897L 92.8569 47.0103C 80.8447 48.7474 60.4415 52.5026 41.645 55.8158C 32.2385 57.4739 23.2306 59.0221 15.8581 60.1556C 8.45444 61.2939 2.78366 62 0 62L 0 64ZM 93.1431 48.9897C 174.43 37.2344 219.728 26.2254 248.845 17.6467C 263.389 13.3616 273.913 9.67716 282.797 6.83527C 291.693 3.98958 298.965 1.98126 307.12 0.992734L 306.88 -0.992734C 298.535 0.0187449 291.12 2.07292 282.188 4.93036C 273.243 7.79159 262.798 11.4509 248.28 15.7283C 219.272 24.2746 174.07 35.2656 92.8569 47.0103L 93.1431 48.9897Z"/>
<path id="path19_stroke" d="M 80 94L 79.5483 93.1078L 80 94ZM 0 123C 1.41083 123 3.26383 122.763 5.43844 122.346L 5.06228 120.382C 2.93042 120.79 1.22251 121 0 121L 0 123ZM 15.8455 119.77C 19.0036 118.868 22.4398 117.808 26.0467 116.63L 25.4259 114.729C 21.8376 115.9 18.4257 116.953 15.2961 117.847L 15.8455 119.77ZM 36.1387 113.19C 39.4392 112.021 42.7969 110.792 46.1437 109.529L 45.4375 107.658C 42.1031 108.916 38.7582 110.14 35.4711 111.304L 36.1387 113.19ZM 56.0745 105.666C 59.4648 104.307 62.7705 102.939 65.9144 101.591L 65.1263 99.753C 61.9983 101.094 58.7074 102.456 55.3304 103.81L 56.0745 105.666ZM 75.656 97.2286C 77.3584 96.427 78.9635 95.6457 80.4517 94.8922L 79.5483 93.1078C 78.0797 93.8514 76.4919 94.6243 74.8039 95.4192L 75.656 97.2286ZM 80.4517 94.8922C 81.9579 94.1295 83.4474 93.3694 84.9204 92.6119L 84.0058 90.8333C 82.5365 91.5889 81.0507 92.3471 79.5483 93.1078L 80.4517 94.8922ZM 93.7465 88C 96.7443 86.408 99.6691 84.8279 102.523 83.2601L 101.56 81.5073C 98.7145 83.0704 95.798 84.646 92.8084 86.2336L 93.7465 88ZM 111.241 78.3839C 114.192 76.7028 117.061 75.0368 119.85 73.3862L 118.832 71.665C 116.052 73.3099 113.193 74.9704 110.251 76.646L 111.241 78.3839ZM 128.408 68.2179C 131.309 66.4294 134.115 64.6603 136.83 62.9112L 135.747 61.2299C 133.043 62.9717 130.248 64.7338 127.358 66.5155L 128.408 68.2179ZM 145.181 57.403C 148.026 55.4805 150.76 53.5842 153.387 51.7149L 152.227 50.0854C 149.614 51.9451 146.893 53.8322 144.061 55.7458L 145.181 57.403ZM 161.443 45.82C 164.205 43.7401 166.832 41.697 169.333 39.692L 168.082 38.1317C 165.597 40.1237 162.986 42.1544 160.24 44.2224L 161.443 45.82ZM 177.024 33.3079C 179.668 31.0334 182.145 28.8141 184.466 26.6521L 183.103 25.1887C 180.802 27.3323 178.345 29.534 175.72 31.7917L 177.024 33.3079ZM 191.641 19.6616C 194.128 17.122 196.391 14.6757 198.455 12.3267L 196.953 11.0066C 194.913 13.328 192.674 15.748 190.212 18.2624L 191.641 19.6616ZM 204.824 4.60662C 205.893 3.22061 206.887 1.87843 207.814 0.581238L 206.186 -0.581238C 205.274 0.696156 204.294 2.01875 203.24 3.38539L 204.824 4.60662Z"/>
<path id="path20_fill" d="M 4 2C 4 3.10457 3.10457 4 2 4C 0.895431 4 0 3.10457 0 2C 0 0.895431 0.895431 0 2 0C 3.10457 0 4 0.895431 4 2Z"/>
<path id="path21_fill" d="M 10 5C 10 7.76142 7.76142 10 5 10C 2.23858 10 0 7.76142 0 5C 0 2.23858 2.23858 0 5 0C 7.76142 0 10 2.23858 10 5Z"/>
<path id="path22_fill" d="M 14 7C 14 10.866 10.866 14 7 14C 3.13401 14 0 10.866 0 7C 0 3.13401 3.13401 0 7 0C 10.866 0 14 3.13401 14 7Z"/>
<path id="path23_fill" d="M 7.71094 7.91797C 7.71094 8.92969 7.36458 9.70898 6.67188 10.2559C 5.98372 10.7982 4.99707 11.0693 3.71191 11.0693L 2.53613 11.0693L 2.53613 15L 1.37402 15L 1.37402 5.00586L 3.96484 5.00586C 6.46224 5.00586 7.71094 5.97656 7.71094 7.91797ZM 2.53613 10.0713L 3.58203 10.0713C 4.61198 10.0713 5.3571 9.90495 5.81738 9.57227C 6.27767 9.23958 6.50781 8.70638 6.50781 7.97266C 6.50781 7.31185 6.29134 6.81966 5.8584 6.49609C 5.42546 6.17253 4.75098 6.01074 3.83496 6.01074L 2.53613 6.01074L 2.53613 10.0713ZM 10.7734 10.6045L 12.8174 10.6045C 13.7699 10.6045 14.474 10.7822 14.9297 11.1377C 15.39 11.4886 15.6201 12.015 15.6201 12.7168C 15.6201 13.4688 15.3763 14.0384 14.8887 14.4258C 14.4056 14.8086 13.6924 15 12.749 15L 9.63867 15L 9.63867 7.50781L 10.7734 7.50781L 10.7734 10.6045ZM 18.0127 15L 16.8779 15L 16.8779 7.50781L 18.0127 7.50781L 18.0127 15ZM 10.7734 11.582L 10.7734 14.0498L 12.6943 14.0498C 13.8975 14.0498 14.499 13.6283 14.499 12.7852C 14.499 12.3659 14.36 12.0605 14.082 11.8691C 13.804 11.6777 13.3301 11.582 12.6602 11.582L 10.7734 11.582ZM 21.5605 7.50781L 21.5605 10.6455L 25.7578 10.6455L 25.7578 7.50781L 26.8926 7.50781L 26.8926 15L 25.7578 15L 25.7578 11.623L 21.5605 11.623L 21.5605 15L 20.4258 15L 20.4258 7.50781L 21.5605 7.50781ZM 35.7656 11.2471C 35.7656 12.4684 35.458 13.4232 34.8428 14.1113C 34.2275 14.7949 33.3776 15.1367 32.293 15.1367C 31.623 15.1367 31.0283 14.9795 30.5088 14.665C 29.9893 14.3506 29.5882 13.8994 29.3057 13.3115C 29.0231 12.7236 28.8818 12.0355 28.8818 11.2471C 28.8818 10.0257 29.1872 9.07552 29.7979 8.39648C 30.4085 7.71289 31.2562 7.37109 32.3408 7.37109C 33.389 7.37109 34.2207 7.71973 34.8359 8.41699C 35.4557 9.11426 35.7656 10.0576 35.7656 11.2471ZM 30.0576 11.2471C 30.0576 12.2041 30.249 12.9333 30.6318 13.4346C 31.0146 13.9359 31.5775 14.1865 32.3203 14.1865C 33.0632 14.1865 33.626 13.9382 34.0088 13.4414C 34.3962 12.9401 34.5898 12.2087 34.5898 11.2471C 34.5898 10.2946 34.3962 9.57227 34.0088 9.08008C 33.626 8.58333 33.0586 8.33496 32.3066 8.33496C 31.5638 8.33496 31.0033 8.57878 30.625 9.06641C 30.2467 9.55404 30.0576 10.2809 30.0576 11.2471ZM 42.1299 7.50781L 43.374 7.50781L 40.1406 11.124L 43.6406 15L 42.3145 15L 38.8965 11.2061L 38.8965 15L 37.7617 15L 37.7617 7.50781L 38.8965 7.50781L 38.8965 11.1514L 42.1299 7.50781ZM 5.57129 26.5078L 6.81543 26.5078L 3.58203 30.124L 7.08203 34L 5.75586 34L 2.33789 30.2061L 2.33789 34L 1.20312 34L 1.20312 26.5078L 2.33789 26.5078L 2.33789 30.1514L 5.57129 26.5078ZM 11.9629 34.1367C 11.4753 34.1367 11.0286 34.0479 10.623 33.8701C 10.222 33.6878 9.88477 33.4098 9.61133 33.0361L 9.5293 33.0361C 9.58398 33.4736 9.61133 33.8883 9.61133 34.2803L 9.61133 37.3633L 8.47656 37.3633L 8.47656 26.5078L 9.39941 26.5078L 9.55664 27.5332L 9.61133 27.5332C 9.90299 27.123 10.2425 26.8268 10.6299 26.6445C 11.0173 26.4622 11.4616 26.3711 11.9629 26.3711C 12.9564 26.3711 13.722 26.7106 14.2598 27.3896C 14.8021 28.0687 15.0732 29.0212 15.0732 30.2471C 15.0732 31.4775 14.7975 32.4346 14.2461 33.1182C 13.6992 33.7972 12.9382 34.1367 11.9629 34.1367ZM 11.7988 27.335C 11.0332 27.335 10.4795 27.5469 10.1377 27.9707C 9.7959 28.3945 9.62044 29.069 9.61133 29.9941L 9.61133 30.2471C 9.61133 31.2998 9.78678 32.054 10.1377 32.5098C 10.4886 32.9609 11.0514 33.1865 11.8262 33.1865C 12.4733 33.1865 12.9792 32.9245 13.3438 32.4004C 13.7129 31.8763 13.8975 31.154 13.8975 30.2334C 13.8975 29.2992 13.7129 28.5837 13.3438 28.0869C 12.9792 27.5856 12.4642 27.335 11.7988 27.335ZM 18.1289 26.5078L 18.1289 31.2588L 18.0811 32.5029L 18.0605 32.8926L 22.1143 26.5078L 23.5293 26.5078L 23.5293 34L 22.4697 34L 22.4697 29.4199L 22.4902 28.5176L 22.5244 27.6289L 18.4775 34L 17.0625 34L 17.0625 26.5078L 18.1289 26.5078ZM 27.0703 34L 25.9355 34L 25.9355 26.5078L 32.2246 26.5078L 32.2246 34L 31.0762 34L 31.0762 27.4922L 27.0703 27.4922L 27.0703 34ZM 39.6826 27.4785L 37.249 27.4785L 37.249 34L 36.1143 34L 36.1143 27.4785L 33.708 27.4785L 33.708 26.5078L 39.6826 26.5078L 39.6826 27.4785ZM 47.6328 30.2471C 47.6328 31.4684 47.3252 32.4232 46.71 33.1113C 46.0947 33.7949 45.2448 34.1367 44.1602 34.1367C 43.4902 34.1367 42.8955 33.9795 42.376 33.665C 41.8564 33.3506 41.4554 32.8994 41.1729 32.3115C 40.8903 31.7236 40.749 31.0355 40.749 30.2471C 40.749 29.0257 41.0544 28.0755 41.665 27.3965C 42.2757 26.7129 43.1234 26.3711 44.208 26.3711C 45.2562 26.3711 46.0879 26.7197 46.7031 27.417C 47.3229 28.1143 47.6328 29.0576 47.6328 30.2471ZM 41.9248 30.2471C 41.9248 31.2041 42.1162 31.9333 42.499 32.4346C 42.8818 32.9359 43.4447 33.1865 44.1875 33.1865C 44.9303 33.1865 45.4932 32.9382 45.876 32.4414C 46.2633 31.9401 46.457 31.2087 46.457 30.2471C 46.457 29.2946 46.2633 28.5723 45.876 28.0801C 45.4932 27.5833 44.9258 27.335 44.1738 27.335C 43.431 27.335 42.8704 27.5788 42.4922 28.0664C 42.1139 28.554 41.9248 29.2809 41.9248 30.2471ZM 55.7061 28.3877C 55.7061 28.8753 55.5648 29.2467 55.2822 29.502C 55.0042 29.7526 54.6123 29.9212 54.1064 30.0078L 54.1064 30.0693C 54.7445 30.1559 55.2093 30.3428 55.501 30.6299C 55.7972 30.917 55.9453 31.3135 55.9453 31.8193C 55.9453 32.5166 55.6878 33.0544 55.1729 33.4326C 54.6624 33.8109 53.915 34 52.9307 34L 49.6289 34L 49.6289 26.5078L 52.917 26.5078C 54.7764 26.5078 55.7061 27.1344 55.7061 28.3877ZM 54.8105 31.7441C 54.8105 31.3385 54.6556 31.0446 54.3457 30.8623C 54.0404 30.6755 53.5322 30.582 52.8213 30.582L 50.7637 30.582L 50.7637 33.0498L 52.8486 33.0498C 54.1566 33.0498 54.8105 32.6146 54.8105 31.7441ZM 54.5986 28.4971C 54.5986 28.1325 54.4574 27.875 54.1748 27.7246C 53.8968 27.5697 53.473 27.4922 52.9033 27.4922L 50.7637 27.4922L 50.7637 29.6045L 52.6846 29.6045C 53.3864 29.6045 53.8809 29.5179 54.168 29.3447C 54.4551 29.1715 54.5986 28.889 54.5986 28.4971ZM 62.207 34L 61.9814 32.9336L 61.9268 32.9336C 61.5531 33.403 61.1794 33.722 60.8057 33.8906C 60.4365 34.0547 59.974 34.1367 59.418 34.1367C 58.6751 34.1367 58.0918 33.9453 57.668 33.5625C 57.2487 33.1797 57.0391 32.6351 57.0391 31.9287C 57.0391 30.4157 58.249 29.6227 60.6689 29.5498L 61.9404 29.5088L 61.9404 29.0439C 61.9404 28.4561 61.8128 28.0231 61.5576 27.7451C 61.307 27.4626 60.9036 27.3213 60.3477 27.3213C 59.7233 27.3213 59.0169 27.5127 58.2285 27.8955L 57.8799 27.0273C 58.249 26.8268 58.6523 26.6696 59.0898 26.5557C 59.5319 26.4417 59.974 26.3848 60.416 26.3848C 61.3092 26.3848 61.9701 26.583 62.3984 26.9795C 62.8314 27.376 63.0479 28.0117 63.0479 28.8867L 63.0479 34L 62.207 34ZM 59.6436 33.2002C 60.3499 33.2002 60.9036 33.0065 61.3047 32.6191C 61.7103 32.2318 61.9131 31.6895 61.9131 30.9922L 61.9131 30.3154L 60.7783 30.3633C 59.876 30.3952 59.2243 30.5365 58.8232 30.7871C 58.4268 31.0332 58.2285 31.4183 58.2285 31.9424C 58.2285 32.3525 58.3516 32.6647 58.5977 32.8789C 58.8483 33.0931 59.1969 33.2002 59.6436 33.2002ZM 70.9775 34L 69.8291 34L 69.8291 27.4785L 67.5801 27.4785C 67.457 29.1009 67.2861 30.3883 67.0674 31.3408C 66.8486 32.2933 66.5638 32.9906 66.2129 33.4326C 65.8665 33.8747 65.4245 34.0957 64.8867 34.0957C 64.6406 34.0957 64.4447 34.0684 64.2988 34.0137L 64.2988 33.1729C 64.3991 33.2002 64.513 33.2139 64.6406 33.2139C 65.1647 33.2139 65.5817 32.6602 65.8916 31.5527C 66.2015 30.4453 66.4362 28.7637 66.5957 26.5078L 70.9775 26.5078L 70.9775 34ZM 83.0361 30.2471C 83.0361 31.473 82.7422 32.4277 82.1543 33.1113C 81.571 33.7949 80.7689 34.1367 79.748 34.1367C 78.7773 34.1367 78.0072 33.8337 77.4375 33.2275C 76.8678 32.6169 76.5511 31.7487 76.4873 30.623L 74.5254 30.623L 74.5254 34L 73.3906 34L 73.3906 26.5078L 74.5254 26.5078L 74.5254 29.6455L 76.501 29.6455C 76.5921 28.6064 76.9248 27.8021 77.499 27.2324C 78.0732 26.6582 78.832 26.3711 79.7754 26.3711C 80.778 26.3711 81.571 26.7197 82.1543 27.417C 82.7422 28.1097 83.0361 29.0531 83.0361 30.2471ZM 77.6631 30.2471C 77.6631 31.2087 77.8294 31.9401 78.1621 32.4414C 78.4948 32.9382 79.028 33.1865 79.7617 33.1865C 80.4818 33.1865 81.0104 32.945 81.3477 32.4619C 81.6895 31.9743 81.8604 31.236 81.8604 30.2471C 81.8604 29.29 81.694 28.5654 81.3613 28.0732C 81.0286 27.5811 80.4954 27.335 79.7617 27.335C 79.028 27.335 78.4948 27.5811 78.1621 28.0732C 77.8294 28.5654 77.6631 29.29 77.6631 30.2471ZM 90.0771 27.4785L 87.6436 27.4785L 87.6436 34L 86.5088 34L 86.5088 27.4785L 84.1025 27.4785L 84.1025 26.5078L 90.0771 26.5078L 90.0771 27.4785Z"/>
</defs>
</svg>
