<?xml version="1.0" standalone="no"?>
<!DOCTYPE svg PUBLIC "-//W3C//DTD SVG 20010904//EN"
 "http://www.w3.org/TR/2001/REC-SVG-20010904/DTD/svg10.dtd">
<svg version="1.0" xmlns="http://www.w3.org/2000/svg"
 width="512.000000pt" height="512.000000pt" viewBox="0 0 512.000000 512.000000"
 preserveAspectRatio="xMidYMid meet">
<metadata>
Created by potrace 1.11, written by Peter Selinger 2001-2013
</metadata>
<g transform="translate(0.000000,512.000000) scale(0.100000,-0.100000)"
fill="#000000" stroke="none">
<path d="M1360 5091 c-59 -12 -111 -43 -141 -83 -28 -39 -43 -80 -118 -323
-22 -71 -111 -357 -197 -635 -86 -278 -165 -532 -175 -565 -9 -33 -47 -154
-83 -270 -35 -115 -105 -340 -155 -500 -49 -159 -131 -423 -181 -585 -140
-451 -148 -478 -143 -528 8 -87 66 -161 147 -188 44 -15 105 -17 449 -18 l399
-1 0 -454 c0 -291 -4 -456 -10 -460 -6 -3 -221 -6 -479 -5 -502 1 -523 -1
-588 -50 -18 -14 -45 -50 -60 -80 -22 -45 -26 -64 -21 -109 8 -92 56 -159 136
-192 43 -17 135 -18 2395 -20 1293 -1 2373 2 2400 7 70 12 124 52 158 118 25
48 28 63 24 119 -4 49 -11 73 -34 105 -34 48 -81 82 -132 95 -20 5 -247 10
-506 10 -258 0 -482 0 -497 0 l-28 1 0 329 0 330 328 3 329 3 48 30 c91 56
127 169 91 285 -8 25 -73 234 -144 465 -259 836 -353 1139 -507 1635 -86 278
-163 516 -172 529 -79 121 -240 141 -346 42 -42 -38 -50 -57 -122 -292 -37
-118 -95 -306 -130 -419 -35 -113 -113 -365 -173 -560 -169 -543 -281 -904
-319 -1025 -19 -60 -40 -130 -47 -155 -8 -25 -30 -98 -50 -163 -20 -65 -36
-136 -36 -158 0 -50 31 -117 73 -156 60 -58 95 -63 427 -63 l300 0 0 -330 0
-330 -32 0 c-18 -1 -436 -2 -928 -3 l-895 -2 0 460 0 460 415 0 c398 1 417 2
460 22 60 27 99 71 120 134 22 63 20 93 -13 201 -52 166 -121 391 -232 748
-62 201 -152 489 -198 640 -435 1408 -562 1810 -578 1842 -23 44 -86 94 -132
103 -18 4 -39 8 -47 9 -8 2 -31 0 -50 -3z"/>
</g>
</svg>
