<svg width="61" height="61" viewBox="0 0 61 61" version="1.1" xmlns="http://www.w3.org/2000/svg" xmlns:xlink="http://www.w3.org/1999/xlink">
<title>Group</title>
<desc>Created using Figma</desc>
<g id="Canvas" transform="translate(13822 1481)">
<g id="Group">
<g id="Vector">
<use xlink:href="#path0_fill" transform="translate(-13822 -1481)" fill="#231F20"/>
</g>
<g id="Group">
<g id="Vector">
<use xlink:href="#path1_fill" transform="translate(-13808.8 -1470.1)" fill="#FFFFFF"/>
</g>
</g>
</g>
</g>
<defs>
<path id="path0_fill" d="M 60.7 0L 0 0L 0 60.7L 60.7 60.7L 60.7 0Z"/>
<path id="path1_fill" d="M 32 35.3C 30.8 36.9 28.9 38.3 26.4 39.5C 23.9 40.7 20.7 41.4 16.8 41.4C 11.9 41.4 7.8 39.9 4.7 36.8C 1.6 33.7 -1.90735e-07 29.8 -1.90735e-07 24.9L -1.90735e-07 16.5C -1.90735e-07 11.6 1.5 7.7 4.5 4.6C 7.5 1.5 11.4 -3.8147e-07 16.1 -3.8147e-07C 21 -3.8147e-07 24.8 1.2 27.4 3.6C 30 6 31.3 9.1 31.4 13L 31.4 13.1L 23.8 13.1C 23.7 11 23 9.3 21.8 8C 20.6 6.8 18.8 6.1 16.5 6.1C 14 6.1 12 7.1 10.5 9C 9 10.9 8.2 13.4 8.2 16.4L 8.2 24.9C 8.2 28 9 30.4 10.6 32.4C 12.2 34.3 14.3 35.3 16.9 35.3C 18.8 35.3 20.3 35.1 21.4 34.7C 22.5 34.3 23.4 33.8 24 33.3L 24 25.8L 16.8 25.8L 16.8 20.1L 32 20.1L 32 35.3Z"/>
</defs>
</svg>
