<?xml version="1.0" standalone="no"?>
<!DOCTYPE svg PUBLIC "-//W3C//DTD SVG 20010904//EN"
 "http://www.w3.org/TR/2001/REC-SVG-20010904/DTD/svg10.dtd">
<svg version="1.0" xmlns="http://www.w3.org/2000/svg"
 width="700.000000pt" height="700.000000pt" viewBox="0 0 700.000000 700.000000"
 preserveAspectRatio="xMidYMid meet">
<metadata>
Created by potrace 1.11, written by Peter Selinger 2001-2013
</metadata>
<g transform="translate(0.000000,700.000000) scale(0.100000,-0.100000)"
fill="#000000" stroke="none">
<path d="M0 3515 l0 -3485 3483 2 3482 3 3 3483 2 3482 -3485 0 -3485 0 0
-3485z m3580 2225 c621 -47 1042 -267 1313 -686 127 -196 199 -436 222 -732
l5 -72 -437 2 -438 3 -7 69 c-21 213 -118 415 -260 540 -61 54 -206 129 -293
151 -116 30 -255 40 -372 27 -127 -14 -207 -37 -304 -86 -284 -144 -489 -475
-539 -868 -6 -49 -10 -341 -10 -718 0 -661 4 -740 46 -888 73 -261 213 -476
398 -611 75 -56 204 -116 303 -142 161 -43 477 -35 678 16 103 26 273 102 343
154 l42 31 0 430 0 430 -415 0 -415 0 0 325 0 325 875 0 875 0 0 -869 0 -869
-45 -56 c-108 -132 -315 -284 -549 -401 -240 -121 -456 -184 -776 -227 -129
-17 -567 -17 -690 0 -457 65 -811 238 -1101 539 -279 290 -430 607 -496 1043
-15 100 -17 198 -18 765 0 488 3 676 13 755 60 462 211 791 505 1096 384 400
894 573 1547 524z"/>
</g>
</svg>
