<svg xmlns="http://www.w3.org/2000/svg" fill="#7f888f" width="25px" height="25px" viewBox="0 0 31.665 31.665"><path d="M16.88.4c-.86-.55-1.97-.54-2.8.05L1.47 9.2C.8 9.7.4 10.46.4 11.28v9.44c0 .85.43 1.63 1.14 2.1l12.8 8.45c.82.55 1.9.55 2.74 0l13.05-8.62c.7-.46 1.12-1.24 1.12-2.08v-9.28c0-.84-.42-1.62-1.12-2.1L16.88.42zm9.74 10.25l-4.82 3.23-4.52-3.3-.03-6.45 9.37 6.5zM13.98 4.13v6.33L9.35 13.7l-4.63-3.1 9.26-6.47zm-10.52 9.6l3 2-3 2.1v-4.1zm10.6 13.48l-9.33-6.24L9.4 17.7l4.66 3.13v6.4zM12.3 15.7l3-2.1 3.53 2.3-3.12 2.1-3.4-2.3zm5.05 11.54v-6.37l4.47-3 4.8 3.17-9.27 6.2zm10.6-9.27l-3.16-2.08 3.15-2.13v4.2z"/></svg>