<?xml version="1.0" encoding="UTF-8" standalone="no"?>
<svg
   xmlns:dc="http://purl.org/dc/elements/1.1/"
   xmlns:cc="http://creativecommons.org/ns#"
   xmlns:rdf="http://www.w3.org/1999/02/22-rdf-syntax-ns#"
   xmlns:svg="http://www.w3.org/2000/svg"
   xmlns="http://www.w3.org/2000/svg"
   viewBox="0 0 536.35468 405.99066"
   height="405.99066"
   width="536.35468"
   xml:space="preserve"
   id="svg2"
   version="1.1"><metadata
     id="metadata8"><rdf:RDF><cc:Work
         rdf:about=""><dc:format>image/svg+xml</dc:format><dc:type
           rdf:resource="http://purl.org/dc/dcmitype/StillImage" /></cc:Work></rdf:RDF></metadata><defs
     id="defs6"><clipPath
       id="clipPath18"
       clipPathUnits="userSpaceOnUse"><path
         id="path16"
         d="M 0,304.493 H 402.266 V 0 H 0 Z" /></clipPath><clipPath
       id="clipPath54"
       clipPathUnits="userSpaceOnUse"><path
         id="path52"
         d="M 0,304.493 H 402.266 V 0 H 0 Z" /></clipPath><clipPath
       id="clipPath116"
       clipPathUnits="userSpaceOnUse"><path
         id="path114"
         d="M 0,304.493 H 402.266 V 0 H 0 Z" /></clipPath><clipPath
       id="clipPath136"
       clipPathUnits="userSpaceOnUse"><path
         id="path134"
         d="M 0,304.493 H 402.266 V 0 H 0 Z" /></clipPath><clipPath
       id="clipPath156"
       clipPathUnits="userSpaceOnUse"><path
         id="path154"
         d="M 0,304.493 H 402.266 V 0 H 0 Z" /></clipPath><clipPath
       id="clipPath176"
       clipPathUnits="userSpaceOnUse"><path
         id="path174"
         d="M 0,304.493 H 402.266 V 0 H 0 Z" /></clipPath></defs><g
     transform="matrix(1.3333333,0,0,-1.3333333,0,405.99067)"
     id="g10"><g
       id="g12"><g
         clip-path="url(#clipPath18)"
         id="g14"><g
           transform="translate(319.6221,156.2891)"
           id="g20"><path
             id="path22"
             style="fill:none;stroke:#384d71;stroke-width:1.50999999;stroke-linecap:round;stroke-linejoin:round;stroke-miterlimit:10;stroke-dasharray:none;stroke-opacity:1"
             d="m 0,0 c 0,-0.041 -0.032,-0.075 -0.073,-0.075 -0.043,0 -0.077,0.034 -0.077,0.075 0,0.043 0.034,0.075 0.077,0.075 C -0.032,0.075 0,0.043 0,0 Z m 30.084,0 c 0,-0.041 -0.032,-0.075 -0.074,-0.075 -0.043,0 -0.076,0.034 -0.076,0.075 0,0.043 0.033,0.075 0.076,0.075 0.042,0 0.074,-0.032 0.074,-0.075 z M 0,23.194 c 0,-0.041 -0.032,-0.075 -0.073,-0.075 -0.043,0 -0.077,0.034 -0.077,0.075 0,0.042 0.034,0.076 0.077,0.076 C -0.032,23.27 0,23.236 0,23.194 Z M 45.593,-4.077 h -63.242 v 31.35 h 63.242 z m -2.332,3.806 c 0,0.562 -0.455,1.019 -1.019,1.019 -0.563,0 -1.02,-0.457 -1.02,-1.019 0,-0.563 0.457,-1.02 1.02,-1.02 0.564,0 1.019,0.457 1.019,1.02 z m 0,23.739 c 0,-0.564 -0.455,-1.021 -1.019,-1.021 -0.563,0 -1.02,0.457 -1.02,1.021 0,0.561 0.457,1.018 1.02,1.018 0.564,0 1.019,-0.457 1.019,-1.018 z M 30.084,23.194 c 0,-0.041 -0.032,-0.075 -0.074,-0.075 -0.043,0 -0.076,0.034 -0.076,0.075 0,0.042 0.033,0.076 0.076,0.076 0.042,0 0.074,-0.034 0.074,-0.076 z M 32.055,0 c 0,1.13 -0.917,2.046 -2.045,2.046 -1.129,0 -2.046,-0.916 -2.046,-2.046 0,-1.129 0.917,-2.045 2.046,-2.045 1.128,0 2.045,0.916 2.045,2.045 z m 0,23.194 c 0,-1.129 -0.917,-2.045 -2.045,-2.045 -1.129,0 -2.046,0.916 -2.046,2.045 0,1.13 0.917,2.046 2.046,2.046 1.128,0 2.045,-0.916 2.045,-2.046 z M 33.46,11.596 c 0,-0.096 0.078,-0.172 0.173,-0.172 0.096,0 0.174,0.076 0.174,0.172 0,0.096 -0.078,0.175 -0.174,0.175 -0.095,0 -0.173,-0.079 -0.173,-0.175 z m 1.68,0 c 0,-0.831 -0.675,-1.505 -1.507,-1.505 -0.832,0 -1.506,0.674 -1.506,1.505 0,0.832 0.674,1.508 1.506,1.508 0.832,0 1.507,-0.676 1.507,-1.508 z M -9.22,-2.265 16.21,-2.108 h 13.708 c 7.568,0 13.706,6.137 13.706,13.706 0,7.568 -6.138,13.706 -13.706,13.706 H 16.21 L -9.22,25.46 c -5.831,0 -6.618,-6.967 -6.618,-13.862 0,-6.895 0.787,-13.863 6.618,-13.863 z M 1.971,0 c 0,1.13 -0.914,2.046 -2.044,2.046 -1.13,0 -2.047,-0.916 -2.047,-2.046 0,-1.129 0.917,-2.045 2.047,-2.045 1.13,0 2.044,0.916 2.044,2.045 z m 0,23.194 c 0,-1.129 -0.914,-2.045 -2.044,-2.045 -1.13,0 -2.047,0.916 -2.047,2.045 0,1.13 0.917,2.046 2.047,2.046 1.13,0 2.044,-0.916 2.044,-2.046 z M -0.793,4.38 15.1,4.462 h 12.904 c 3.941,0 7.136,3.195 7.136,7.136 0,3.94 -3.195,7.135 -7.136,7.135 H 15.1 l -15.893,0.081 c -3.035,0 -3.445,-3.627 -3.445,-7.216 0,-3.59 0.41,-7.218 3.445,-7.218 z" /></g><g
           transform="translate(356.7881,210.7842)"
           id="g24"><path
             id="path26"
             style="fill:none;stroke:#384d71;stroke-width:1.50999999;stroke-linecap:round;stroke-linejoin:round;stroke-miterlimit:10;stroke-dasharray:none;stroke-opacity:1"
             d="m 0,0 c -4.354,0 -6.996,-1.088 -9.954,-1.088 -4.625,0 -11.521,3.119 -11.521,8.699 0,5.58 6.896,8.7 11.521,8.7 2.958,0 5.6,-1.088 9.954,-1.088 M -17.723,4.088 c 3.029,1.301 3.029,5.746 0,7.047 M -0.271,3.807 C -7.366,-0.215 -19.3,1.199 -19.3,7.611 c 0,6.412 11.934,7.827 19.029,3.805 M 3.038,7.611 c 0,0.574 0.466,1.038 1.038,1.038 0.575,0 1.041,-0.464 1.041,-1.038 0,-0.573 -0.466,-1.038 -1.041,-1.038 -0.572,0 -1.038,0.465 -1.038,1.038 z M -0.271,1.223 V 14 c 0,1.195 0.977,2.175 2.173,2.175 h 4.351 c 1.194,0 2.174,-0.98 2.174,-2.175 V 1.223 c 0,-1.196 -0.98,-2.175 -2.174,-2.175 H 1.902 c -1.196,0 -2.173,0.979 -2.173,2.175 z" /></g><g
           transform="translate(363.0352,196.5137)"
           id="g28"><path
             id="path30"
             style="fill:none;stroke:#384d71;stroke-width:1.50999999;stroke-linecap:round;stroke-linejoin:round;stroke-miterlimit:10;stroke-dasharray:none;stroke-opacity:1"
             d="m 0,0 v -1.758 m -0.878,0.879 h 1.757 m -6.233,0.002 c 0,0.356 0.29,0.648 0.648,0.648 0.358,0 0.647,-0.292 0.647,-0.648 0,-0.358 -0.289,-0.647 -0.647,-0.647 -0.358,0 -0.648,0.289 -0.648,0.647 z m 3.003,-6.379 V 5.498 h -2.667 c -3.47,0 -4.433,-3.497 -4.433,-6.377 0,-2.88 0.963,-6.377 4.433,-6.377 z m -9.241,6.377 c 0,-6.67 3.818,-8.517 6.574,-8.517 H 2.18 V 7.638 h -7.198 c -2.756,0 -6.574,-1.848 -6.574,-8.517 z" /></g><g
           transform="translate(311.9922,145.0107)"
           id="g32"><path
             id="path34"
             style="fill:none;stroke:#384d71;stroke-width:1.50999999;stroke-linecap:round;stroke-linejoin:round;stroke-miterlimit:10;stroke-dasharray:none;stroke-opacity:1"
             d="m 0,0 h -25.551 v -12.386 c 0,-7.268 5.896,-13.165 13.166,-13.165 H 0 m 25.823,0 H 0 V 0 h 25.823 m 23.922,-90.152 v 20.476 m -7.43,-4.557 c 0,1.152 0.935,2.087 2.088,2.087 1.154,0 2.089,-0.935 2.089,-2.087 0,-1.154 -0.935,-2.089 -2.089,-2.089 -1.153,0 -2.088,0.935 -2.088,2.089 z m 0,-11.361 c 0,1.153 0.935,2.087 2.088,2.087 1.154,0 2.089,-0.934 2.089,-2.087 0,-1.153 -0.935,-2.088 -2.089,-2.088 -1.153,0 -2.088,0.935 -2.088,2.088 z m -10.422,11.361 c 0,1.152 0.934,2.087 2.087,2.087 1.154,0 2.087,-0.935 2.087,-2.087 0,-1.154 -0.933,-2.089 -2.087,-2.089 -1.153,0 -2.087,0.935 -2.087,2.089 z m 0,-11.361 c 0,1.153 0.934,2.087 2.087,2.087 1.154,0 2.087,-0.934 2.087,-2.087 0,-1.153 -0.933,-2.088 -2.087,-2.088 -1.153,0 -2.087,0.935 -2.087,2.088 z m -3.532,15.918 H 52.824 V -90.153 H 28.361 Z m 20.84,55.905 v 10.146 m -17.94,-10.146 v 10.146 m 2.563,-10.146 v 10.148 m 2.563,-10.148 v 10.148 m 2.563,-10.148 v 10.148 m 2.563,-10.148 v 10.148 m 2.563,-10.148 v 10.148 m 2.564,-10.148 v 10.148 m -0.338,-24.382 v 2.537 m -1.992,-1.268 h 6.777 m -23.451,-7.248 v 14.496 c 0,1.451 1.189,2.636 2.636,2.636 h 18.18 c 1.449,0 2.637,-1.186 2.637,-2.636 v -14.496 c 0,-1.451 -1.188,-2.637 -2.637,-2.637 h -18.18 c -1.447,0 -2.636,1.185 -2.636,2.637 z m -1.813,-58.704 v -35.892 h 29.54 m -29.54,61.441 h 29.54 m -29.54,27.816 h 29.54 m 0,-53.365 H 25.823 V 0 h 29.54" /></g><g
           transform="translate(282.7812,173.5479)"
           id="g36"><path
             id="path38"
             style="fill:none;stroke:#384d71;stroke-width:1.50999999;stroke-linecap:round;stroke-linejoin:round;stroke-miterlimit:10;stroke-dasharray:none;stroke-opacity:1"
             d="m 0,0 c 9.429,0 17.121,7.692 17.121,17.123 0,9.431 -7.692,17.121 -17.121,17.121 -9.433,0 -17.124,-7.69 -17.124,-17.121 C -17.124,7.692 -9.433,0 0,0 Z" /></g></g></g><text
       id="text42"
       style="font-variant:normal;font-weight:bold;font-stretch:normal;font-size:23.47400093px;font-family:Roboto;-inkscape-font-specification:Roboto-Bold;writing-mode:lr-tb;fill:#000000;fill-opacity:1;fill-rule:nonzero;stroke:none"
       transform="matrix(1,0,0,-1,276.5127,182.2061)"><tspan
         id="tspan40"
         y="0"
         x="0">7</tspan></text>
<text
       id="text46"
       style="font-variant:normal;font-weight:normal;font-stretch:normal;font-size:16.06299973px;font-family:Roboto;-inkscape-font-specification:Roboto-Regular;writing-mode:lr-tb;fill:#000000;fill-opacity:1;fill-rule:nonzero;stroke:none"
       transform="matrix(1,0,0,-1,267.417,155.0078)"><tspan
         id="tspan44"
         y="0"
         x="0 9.0434694 13.348353 22.391823">4.10</tspan></text>
<g
       id="g48"><g
         clip-path="url(#clipPath54)"
         id="g50"><g
           transform="translate(64.5474,68.708)"
           id="g56"><path
             id="path58"
             style="fill:#384c71;fill-opacity:1;fill-rule:evenodd;stroke:none"
             d="M 0,0 V 141.345 H -12.319 V 0 -12.32 H 0 56.902 V 0 Z m 142.449,179.943 h 5.06 v 42.766 h 155.299 v -8.697 h 12.32 v 8.697 3.622 8.698 H 0 -6.71 -12.319 V 205.495 H 0 v 17.214 h 142.449 z m 5.06,-103.64 h 4.168 v 5.059 h -4.168 v 42.951 h -5.06 V 0 h -7.26 -7.794 v -12.32 h 7.794 v -43.312 -12.32 h 12.32 23.377 v 12.32 H 147.509 V -12.32 -5.06 0 Z M 315.128,-64.949 v 9.317 226.877 h -6.999 v 0.001 h -67.75 -7.155 -10e-4 v -0.001 l -13.738,-13.738 3.577,-3.578 12.258,12.258 h 67.488 V 81.362 H 195.699 v 45.203 l 6.128,6.128 -3.578,3.578 -7.61,-7.61 V 81.362 76.303 h 5.06 107.109 V -55.632 h -67.592 v -12.32 h 79.912 z" /></g><g
           transform="translate(64.5474,68.708)"
           id="g60"><path
             id="path62"
             style="fill:none;stroke:#384c71;stroke-width:1.51100004;stroke-linecap:round;stroke-linejoin:round;stroke-miterlimit:22.9260006;stroke-dasharray:none;stroke-opacity:1"
             d="M 0,0 V 141.345 H -12.319 V 0 -12.32 H 0 56.902 V 0 Z m 142.449,179.943 h 5.06 v 42.766 h 155.299 v -8.697 h 12.32 v 8.697 3.622 8.698 H 0 -6.71 -12.319 V 205.495 H 0 v 17.214 h 142.449 z m 5.06,-103.64 h 4.168 v 5.059 h -4.168 v 42.951 h -5.06 V 0 h -7.26 -7.794 v -12.32 h 7.794 v -43.312 -12.32 h 12.32 23.377 v 12.32 H 147.509 V -12.32 -5.06 0 Z M 315.128,-64.949 v 9.317 226.877 h -6.999 v 0.001 h -67.75 -7.155 -10e-4 v -0.001 l -13.738,-13.738 3.577,-3.578 12.258,12.258 h 67.488 V 81.362 H 195.699 v 45.203 l 6.128,6.128 -3.578,3.578 -7.61,-7.61 V 81.362 76.303 h 5.06 107.109 V -55.632 h -67.592 v -12.32 h 79.912 z" /></g><g
           transform="translate(52.2285,56.3877)"
           id="g64"><path
             id="path66"
             style="fill:none;stroke:#927f7a;stroke-width:0.85600001;stroke-linecap:round;stroke-linejoin:round;stroke-miterlimit:22.9260006;stroke-dasharray:none;stroke-opacity:1"
             d="m 0,0 h 5.06 v -26.544 c 7.954,-8.01 15.909,-16.019 23.864,-24.028 h 118.584 v -5.06 H 26.818 c -8.939,9 -17.879,18.001 -26.818,27.001 z" /></g><path
           id="path68"
           style="fill:#ffffff;fill-opacity:1;fill-rule:nonzero;stroke:#384c71;stroke-width:1.51100004;stroke-linecap:round;stroke-linejoin:round;stroke-miterlimit:22.9260006;stroke-dasharray:none;stroke-opacity:1"
           d="m 121.449,65.079 h 38.418 v -5.061 h -38.418 z" /><path
           id="path70"
           style="fill:#ffffff;fill-opacity:1;fill-rule:nonzero;stroke:#384c71;stroke-width:1.51100004;stroke-linecap:round;stroke-linejoin:round;stroke-miterlimit:22.9260006;stroke-dasharray:none;stroke-opacity:1"
           d="m 235.434,9.445 h 64.33 v -5.06 h -64.33 z" /><path
           id="path72"
           style="fill:#ffffff;fill-opacity:1;fill-rule:nonzero;stroke:#384c71;stroke-width:1.51100004;stroke-linecap:round;stroke-linejoin:round;stroke-miterlimit:22.9260006;stroke-dasharray:none;stroke-opacity:1"
           d="m 60.917,210.053 h -5.06 v 64.15 h 5.06 z" /><g
           transform="translate(191.9424,68.708)"
           id="g74"><path
             id="path76"
             style="fill:none;stroke:#384c71;stroke-width:3.02200007;stroke-linecap:round;stroke-linejoin:round;stroke-miterlimit:22.9260006;stroke-dasharray:none;stroke-opacity:1"
             d="M 0,0 -27.727,16.127" /></g><g
           transform="translate(216.2246,145.0107)"
           id="g78"><path
             id="path80"
             style="fill:none;stroke:#384c71;stroke-width:3.02200007;stroke-linecap:round;stroke-linejoin:round;stroke-miterlimit:22.9260006;stroke-dasharray:none;stroke-opacity:1"
             d="M 0,0 33.344,-19.208" /></g><g
           transform="translate(206.9966,193.0205)"
           id="g82"><path
             id="path84"
             style="fill:none;stroke:#384c71;stroke-width:3.02200007;stroke-linecap:round;stroke-linejoin:round;stroke-miterlimit:22.9260006;stroke-dasharray:none;stroke-opacity:1"
             d="M 0,0 -12.142,16.671" /></g><g
           transform="translate(206.9966,248.6509)"
           id="g86"><path
             id="path88"
             style="fill:none;stroke:#384c71;stroke-width:3.02200007;stroke-linecap:round;stroke-linejoin:round;stroke-miterlimit:22.9260006;stroke-dasharray:none;stroke-opacity:1"
             d="M 0,0 -18.301,-31.531" /></g><g
           transform="translate(284.0322,226.2148)"
           id="g90"><path
             id="path92"
             style="fill:none;stroke:#384c71;stroke-width:3.02200007;stroke-linecap:round;stroke-linejoin:round;stroke-miterlimit:22.9260006;stroke-dasharray:none;stroke-opacity:1"
             d="M 0,0 -29.028,-7.825" /></g><g
           transform="translate(379.6758,239.9531)"
           id="g94"><path
             id="path96"
             style="fill:none;stroke:#384c71;stroke-width:3.02200007;stroke-linecap:round;stroke-linejoin:round;stroke-miterlimit:22.9260006;stroke-dasharray:none;stroke-opacity:1"
             d="M 0,0 21.079,37.149" /></g><g
           transform="translate(276.2676,60.0264)"
           id="g98"><path
             id="path100"
             style="fill:none;stroke:#384d71;stroke-width:1.50999999;stroke-linecap:round;stroke-linejoin:round;stroke-miterlimit:10;stroke-dasharray:none;stroke-opacity:1"
             d="m 0,0 c 9.431,0 17.123,7.692 17.123,17.123 0,9.431 -7.692,17.123 -17.123,17.123 -9.431,0 -17.123,-7.692 -17.123,-17.123 C -17.123,7.692 -9.431,0 0,0 Z" /></g></g></g><text
       id="text104"
       style="font-variant:normal;font-weight:bold;font-stretch:normal;font-size:23.47400093px;font-family:Roboto;-inkscape-font-specification:Roboto-Bold;writing-mode:lr-tb;fill:#000000;fill-opacity:1;fill-rule:nonzero;stroke:none"
       transform="matrix(1,0,0,-1,270.001,68.6846)"><tspan
         id="tspan102"
         y="0"
         x="0">4</tspan></text>
<text
       id="text108"
       style="font-variant:normal;font-weight:normal;font-stretch:normal;font-size:16.06299973px;font-family:Roboto;-inkscape-font-specification:Roboto-Regular;writing-mode:lr-tb;fill:#000000;fill-opacity:1;fill-rule:nonzero;stroke:none"
       transform="matrix(1,0,0,-1,256.3818,41.4863)"><tspan
         id="tspan106"
         y="0"
         x="0 9.0434694 18.086939 22.391823 31.435291">10.04</tspan></text>
<g
       id="g110"><g
         clip-path="url(#clipPath116)"
         id="g112"><g
           transform="translate(17.8779,66.9277)"
           id="g118"><path
             id="path120"
             style="fill:none;stroke:#384d71;stroke-width:1.50999999;stroke-linecap:round;stroke-linejoin:round;stroke-miterlimit:10;stroke-dasharray:none;stroke-opacity:1"
             d="m 0,0 c 9.431,0 17.122,7.692 17.122,17.123 0,9.431 -7.691,17.123 -17.122,17.123 -9.431,0 -17.123,-7.692 -17.123,-17.123 C -17.123,7.692 -9.431,0 0,0 Z" /></g></g></g><text
       id="text124"
       style="font-variant:normal;font-weight:bold;font-stretch:normal;font-size:23.47400093px;font-family:Roboto;-inkscape-font-specification:Roboto-Bold;writing-mode:lr-tb;fill:#000000;fill-opacity:1;fill-rule:nonzero;stroke:none"
       transform="matrix(1,0,0,-1,11.6099,75.5859)"><tspan
         id="tspan122"
         y="0"
         x="0">8</tspan></text>
<text
       id="text128"
       style="font-variant:normal;font-weight:normal;font-stretch:normal;font-size:16.06299973px;font-family:Roboto;-inkscape-font-specification:Roboto-Regular;writing-mode:lr-tb;fill:#000000;fill-opacity:1;fill-rule:nonzero;stroke:none"
       transform="matrix(1,0,0,-1,2.5151,48.3877)"><tspan
         id="tspan126"
         y="0"
         x="0 9.0434694 13.348353 22.391823">3.50</tspan></text>
<g
       id="g130"><g
         clip-path="url(#clipPath136)"
         id="g132"><g
           transform="translate(132.0913,179.6885)"
           id="g138"><path
             id="path140"
             style="fill:none;stroke:#384d71;stroke-width:1.50999999;stroke-linecap:round;stroke-linejoin:round;stroke-miterlimit:10;stroke-dasharray:none;stroke-opacity:1"
             d="m 0,0 c 9.43,0 17.123,7.692 17.123,17.123 0,9.43 -7.693,17.121 -17.123,17.121 -9.431,0 -17.123,-7.691 -17.123,-17.121 C -17.123,7.692 -9.431,0 0,0 Z" /></g></g></g><text
       id="text144"
       style="font-variant:normal;font-weight:bold;font-stretch:normal;font-size:23.47400093px;font-family:Roboto;-inkscape-font-specification:Roboto-Bold;writing-mode:lr-tb;fill:#000000;fill-opacity:1;fill-rule:nonzero;stroke:none"
       transform="matrix(1,0,0,-1,125.8228,188.3467)"><tspan
         id="tspan142"
         y="0"
         x="0">2</tspan></text>
<text
       id="text148"
       style="font-variant:normal;font-weight:normal;font-stretch:normal;font-size:16.06299973px;font-family:Roboto;-inkscape-font-specification:Roboto-Regular;writing-mode:lr-tb;fill:#000000;fill-opacity:1;fill-rule:nonzero;stroke:none"
       transform="matrix(1,0,0,-1,112.2056,161.1475)"><tspan
         id="tspan146"
         y="0"
         x="0 9.0434694 18.086939 22.391823 31.435291">17.44</tspan></text>
<g
       id="g150"><g
         clip-path="url(#clipPath156)"
         id="g152"><g
           transform="translate(255.6123,250.9204)"
           id="g158"><path
             id="path160"
             style="fill:none;stroke:#384d71;stroke-width:1.50999999;stroke-linecap:round;stroke-linejoin:round;stroke-miterlimit:10;stroke-dasharray:none;stroke-opacity:1"
             d="M 0,0 C 9.43,0 17.122,7.69 17.122,17.121 17.122,26.552 9.43,34.244 0,34.244 -9.432,34.244 -17.124,26.552 -17.124,17.121 -17.124,7.69 -9.432,0 0,0 Z" /></g></g></g><text
       id="text164"
       style="font-variant:normal;font-weight:bold;font-stretch:normal;font-size:23.47400093px;font-family:Roboto;-inkscape-font-specification:Roboto-Bold;writing-mode:lr-tb;fill:#000000;fill-opacity:1;fill-rule:nonzero;stroke:none"
       transform="matrix(1,0,0,-1,249.3428,259.5767)"><tspan
         id="tspan162"
         y="0"
         x="0">1</tspan></text>
<text
       id="text168"
       style="font-variant:normal;font-weight:normal;font-stretch:normal;font-size:16.06299973px;font-family:Roboto;-inkscape-font-specification:Roboto-Regular;writing-mode:lr-tb;fill:#000000;fill-opacity:1;fill-rule:nonzero;stroke:none"
       transform="matrix(1,0,0,-1,240.2476,232.3789)"><tspan
         id="tspan166"
         y="0"
         x="0 9.0434694 13.348353 22.391823">6.80</tspan></text>
<g
       id="g170"><g
         clip-path="url(#clipPath176)"
         id="g172"><g
           transform="translate(0.7554,41.5625)"
           id="g178"><path
             id="path180"
             style="fill:none;stroke:#000000;stroke-width:1.28400004;stroke-linecap:round;stroke-linejoin:round;stroke-miterlimit:22.9260006;stroke-dasharray:none;stroke-opacity:1"
             d="M 0,0 H 109.802" /></g></g></g></g></svg>