<?xml version="1.0" encoding="UTF-8" standalone="no"?>
<svg
   xmlns:dc="http://purl.org/dc/elements/1.1/"
   xmlns:cc="http://creativecommons.org/ns#"
   xmlns:rdf="http://www.w3.org/1999/02/22-rdf-syntax-ns#"
   xmlns:svg="http://www.w3.org/2000/svg"
   xmlns="http://www.w3.org/2000/svg"
   viewBox="0 0 439.92932 536.27869"
   height="536.27869"
   width="439.92932"
   xml:space="preserve"
   id="svg2"
   version="1.1"><metadata
     id="metadata8"><rdf:RDF><cc:Work
         rdf:about=""><dc:format>image/svg+xml</dc:format><dc:type
           rdf:resource="http://purl.org/dc/dcmitype/StillImage" /></cc:Work></rdf:RDF></metadata><defs
     id="defs6"><clipPath
       id="clipPath18"
       clipPathUnits="userSpaceOnUse"><path
         id="path16"
         d="M 0,402.209 H 329.947 V 0 H 0 Z" /></clipPath><clipPath
       id="clipPath96"
       clipPathUnits="userSpaceOnUse"><path
         id="path94"
         d="M 0,402.209 H 329.947 V 0 H 0 Z" /></clipPath><clipPath
       id="clipPath116"
       clipPathUnits="userSpaceOnUse"><path
         id="path114"
         d="M 0,402.209 H 329.947 V 0 H 0 Z" /></clipPath><clipPath
       id="clipPath136"
       clipPathUnits="userSpaceOnUse"><path
         id="path134"
         d="M 0,402.209 H 329.947 V 0 H 0 Z" /></clipPath><clipPath
       id="clipPath156"
       clipPathUnits="userSpaceOnUse"><path
         id="path154"
         d="M 0,402.209 H 329.947 V 0 H 0 Z" /></clipPath><clipPath
       id="clipPath176"
       clipPathUnits="userSpaceOnUse"><path
         id="path174"
         d="M 0,402.209 H 329.947 V 0 H 0 Z" /></clipPath></defs><g
     transform="matrix(1.3333333,0,0,-1.3333333,0,536.27867)"
     id="g10"><g
       id="g12"><g
         clip-path="url(#clipPath18)"
         id="g14"><g
           transform="translate(298.6191,262.4971)"
           id="g20"><path
             id="path22"
             style="fill:none;stroke:#384d71;stroke-width:1.54999995;stroke-linecap:round;stroke-linejoin:round;stroke-miterlimit:10;stroke-dasharray:none;stroke-opacity:1"
             d="m 0,0 v -2.333 m 0,-5.014 v 2.333 m -3.674,1.341 h 2.333 m 5.016,0 H 1.341 m -3.541,0 c 0,1.215 0.985,2.202 2.2,2.202 1.217,0 2.203,-0.987 2.203,-2.202 0,-1.216 -0.986,-2.202 -2.203,-2.202 -1.215,0 -2.2,0.986 -2.2,2.202 z m 9.292,9.197 h -42.336 c -5.028,0 -9.106,-4.077 -9.106,-9.104 0,-5.027 4.078,-9.105 9.106,-9.105 H 7.092 c 0.959,0 1.743,0.783 1.743,1.742 V 3.782 c 0,0.96 -0.784,1.742 -1.743,1.742 z m 3.571,4.668 H -43.78 c -7.607,0 -13.774,-6.166 -13.774,-13.772 0,-7.607 6.167,-13.773 13.774,-13.773 h 54.443 c 1.449,0 2.635,1.183 2.635,2.636 V 7.556 c 0,1.453 -1.186,2.636 -2.635,2.636 z m -70.449,2.685 h 75.501 v -32.915 h -75.501 z" /></g><g
           transform="translate(305.1299,331.6748)"
           id="g24"><path
             id="path26"
             style="fill:none;stroke:#384d71;stroke-width:1.54999995;stroke-linecap:round;stroke-linejoin:round;stroke-miterlimit:10;stroke-dasharray:none;stroke-opacity:1"
             d="m 0,0 c -4.466,0 -7.18,-1.118 -10.215,-1.118 -4.745,0 -11.822,3.201 -11.822,8.927 0,5.726 7.077,8.927 11.822,8.927 3.035,0 5.749,-1.117 10.215,-1.117 M -18.187,4.193 c 3.108,1.335 3.108,5.896 0,7.231 m 17.909,-7.52 c -7.28,-4.127 -19.526,-2.675 -19.526,3.905 0,6.581 12.246,8.031 19.526,3.904 M 3.117,7.809 c 0,0.588 0.479,1.067 1.067,1.067 0.588,0 1.067,-0.479 1.067,-1.067 C 5.251,7.22 4.772,6.744 4.184,6.744 3.596,6.744 3.117,7.22 3.117,7.809 Z M -0.278,1.253 v 13.112 c 0,1.228 1.005,2.232 2.23,2.232 h 4.464 c 1.226,0 2.23,-1.004 2.23,-2.232 V 1.253 c 0,-1.227 -1.004,-2.232 -2.23,-2.232 H 1.952 c -1.225,0 -2.23,1.005 -2.23,2.232 z" /></g><g
           transform="translate(312.0967,294.8208)"
           id="g28"><path
             id="path30"
             style="fill:none;stroke:#384d71;stroke-width:1.54999995;stroke-linecap:round;stroke-linejoin:round;stroke-miterlimit:10;stroke-dasharray:none;stroke-opacity:1"
             d="m 0,0 v -1.804 m -0.901,0.902 H 0.902 M -5.493,-0.9 c 0,0.366 0.297,0.664 0.663,0.664 0.369,0 0.666,-0.298 0.666,-0.664 0,-0.369 -0.297,-0.665 -0.666,-0.665 -0.366,0 -0.663,0.296 -0.663,0.665 z m 3.081,-6.546 V 5.642 h -2.736 c -3.563,0 -4.55,-3.589 -4.55,-6.544 0,-2.956 0.987,-6.544 4.55,-6.544 z m -9.483,6.544 c 0,-6.845 3.917,-8.74 6.747,-8.74 H 2.237 V 7.837 h -7.385 c -2.83,0 -6.747,-1.894 -6.747,-8.739 z" /></g><g
           transform="translate(286.2158,142.9277)"
           id="g32"><path
             id="path34"
             style="fill:none;stroke:#384d71;stroke-width:1.54999995;stroke-linecap:round;stroke-linejoin:round;stroke-miterlimit:10;stroke-dasharray:none;stroke-opacity:1"
             d="M 0,0 V -18.598 H 30.315 M 24.55,2.603 v 21.012 m -7.625,-4.678 c 0,1.184 0.96,2.143 2.143,2.143 1.184,0 2.143,-0.959 2.143,-2.143 0,-1.183 -0.959,-2.142 -2.143,-2.142 -1.183,0 -2.143,0.959 -2.143,2.142 z m 0,-11.657 c 0,1.182 0.96,2.142 2.143,2.142 1.184,0 2.143,-0.96 2.143,-2.142 0,-1.183 -0.959,-2.142 -2.143,-2.142 -1.183,0 -2.143,0.959 -2.143,2.142 z M 6.229,18.937 c 0,1.184 0.959,2.143 2.141,2.143 1.184,0 2.144,-0.959 2.144,-2.143 0,-1.183 -0.96,-2.142 -2.144,-2.142 -1.182,0 -2.141,0.959 -2.141,2.142 z m 0,-11.657 c 0,1.182 0.959,2.142 2.141,2.142 1.184,0 2.144,-0.96 2.144,-2.142 0,-1.183 -0.96,-2.142 -2.144,-2.142 -1.182,0 -2.141,0.959 -2.141,2.142 z M 2.606,23.615 H 27.709 V 2.602 H 2.606 Z M 23.991,78.101 V 88.515 M 5.581,78.101 V 88.515 M 8.212,78.101 v 10.414 m 2.63,-10.414 v 10.414 m 2.63,-10.414 v 10.414 m 2.63,-10.414 V 88.515 M 18.73,78.101 V 88.515 M 21.361,78.101 V 88.515 M 21.016,63.496 v 2.602 m -2.044,-1.302 h 6.955 M 1.861,57.357 v 14.878 c 0,1.488 1.219,2.706 2.706,2.706 h 18.654 c 1.489,0 2.706,-1.218 2.706,-2.706 V 57.357 c 0,-1.487 -1.217,-2.705 -2.706,-2.705 H 4.567 c -1.487,0 -2.706,1.218 -2.706,2.705 z M 0,26.218 H 30.315 M 0,51.88 H 30.315 M 30.315,0 H 0 v 92.233 h 30.315" /></g><g
           transform="translate(320.2539,11.6396)"
           id="g36"><path
             id="path38"
             style="fill:#ffffff;fill-opacity:1;fill-rule:evenodd;stroke:none"
             d="m 0,0 v 5.192 h -118.448 c -8.936,8.935 -17.87,17.87 -26.805,26.804 v 28.815 h -5.192 V 29.846 C -140.496,19.897 -130.548,9.948 -120.6,0 Z" /></g><g
           transform="translate(320.2539,11.6396)"
           id="g40"><path
             id="path42"
             style="fill:none;stroke:#384c71;stroke-width:1.551;stroke-linecap:round;stroke-linejoin:round;stroke-miterlimit:22.9260006;stroke-dasharray:none;stroke-opacity:1"
             d="m 0,0 v 5.192 h -118.448 c -8.936,8.935 -17.87,17.87 -26.805,26.804 v 28.815 h -5.192 V 29.846 C -140.496,19.897 -130.548,9.948 -120.6,0 Z" /></g><path
           id="path44"
           style="fill:#384c71;fill-opacity:1;fill-rule:evenodd;stroke:none"
           d="M 144.985,85.092 H 115.511 V 72.45 h 29.474 z m 0,293.626 V 366.076 H 13.418 v -57.091 h 102.055 l 10.293,-10.292 -3.673,-3.671 -8.77,8.771 H 13.418 V 85.092 h 23.06 V 72.45 H 13.418 1.892 0.775 v 293.626 8.927 3.715 z m 0,0 h 29.474 v -12.642 h -29.474 z m 0,-306.268 v 12.642 h 25.954 v 161.084 l -8.446,8.448 3.672,3.671 9.968,-9.968 v -7.973 h 7.436 v -5.192 h -7.436 V 85.092 h 14.132 V 72.45 Z M 320.254,11.64 h 5.193 v 52.81 h 3.725 v 301.626 12.642 h -12.641 -98.185 v -12.642 h 10.599 v -42.027 h 5.191 v 42.027 h 82.395 V 240.354 h -82.395 v 52.826 h -5.191 v -52.826 h -5.393 v -5.192 h 92.979 V 85.092 H 262.604 V 72.45 h 53.927 v -8 h 3.723 z" /><g
           transform="translate(113.3228,303.793)"
           id="g46"><path
             id="path48"
             style="fill:none;stroke:#384c71;stroke-width:1.551;stroke-linecap:round;stroke-linejoin:round;stroke-miterlimit:22.9260006;stroke-dasharray:none;stroke-opacity:1"
             d="M 0,0 8.771,-8.771 12.443,-5.1 2.15,5.192 H -99.905 V 62.283 H 61.136 V 74.925 H -112.547 V 71.21 62.283 -231.343 h 1.116 11.526 23.06 v 12.642 h -23.06 V 0 Z m 62.81,-68.631 h 7.437 v 5.192 H 62.81 v 7.973 l -9.968,9.968 -3.672,-3.671 8.447,-8.448 V -218.701 H 2.188 v -12.642 h 74.754 v 12.642 H 62.81 Z m 144.121,-223.522 h 5.194 v 52.81 h 3.724 V 62.283 74.925 H 203.208 105.023 V 62.283 h 10.6 V 20.256 h 5.19 v 42.027 h 82.395 V -63.439 h -82.395 v 52.826 h -5.19 v -52.826 h -5.394 v -5.192 h 92.979 v -150.07 h -53.927 v -12.642 h 53.927 v -8 h 3.723 z" /></g><path
           id="path50"
           style="fill:#ffffff;fill-opacity:1;fill-rule:nonzero;stroke:#384c71;stroke-width:1.551;stroke-linecap:round;stroke-linejoin:round;stroke-miterlimit:22.9260006;stroke-dasharray:none;stroke-opacity:1"
           d="m 36.478,81.366 h 79.033 V 76.174 H 36.478 Z" /><path
           id="path52"
           style="fill:#ffffff;fill-opacity:1;fill-rule:nonzero;stroke:#384c71;stroke-width:1.551;stroke-linecap:round;stroke-linejoin:round;stroke-miterlimit:22.9260006;stroke-dasharray:none;stroke-opacity:1"
           d="m 223.18,81.366 h 39.424 V 76.174 H 223.18 Z" /><g
           transform="translate(213.5098,319.7725)"
           id="g54"><path
             id="path56"
             style="fill:none;stroke:#384c71;stroke-width:3.10100007;stroke-linecap:round;stroke-linejoin:round;stroke-miterlimit:22.9260006;stroke-dasharray:none;stroke-opacity:1"
             d="M 0,0 15.436,-26.592" /></g><g
           transform="translate(122.0933,295.022)"
           id="g58"><path
             id="path60"
             style="fill:none;stroke:#384c71;stroke-width:3.10100007;stroke-linecap:round;stroke-linejoin:round;stroke-miterlimit:22.9260006;stroke-dasharray:none;stroke-opacity:1"
             d="M 0,0 3.535,-20.641" /></g><g
           transform="translate(162.4932,254.6235)"
           id="g62"><path
             id="path64"
             style="fill:none;stroke:#384c71;stroke-width:3.10100007;stroke-linecap:round;stroke-linejoin:round;stroke-miterlimit:22.9260006;stroke-dasharray:none;stroke-opacity:1"
             d="M 0,0 -36.076,9.668" /></g><g
           transform="translate(174.459,378.7183)"
           id="g66"><path
             id="path68"
             style="fill:none;stroke:#384c71;stroke-width:3.10100007;stroke-linecap:round;stroke-linejoin:round;stroke-miterlimit:22.9260006;stroke-dasharray:none;stroke-opacity:1"
             d="M 0,0 37.934,21.94" /></g><g
           transform="translate(183.5693,235.1621)"
           id="g70"><path
             id="path72"
             style="fill:none;stroke:#384c71;stroke-width:3.10100007;stroke-linecap:round;stroke-linejoin:round;stroke-miterlimit:22.9260006;stroke-dasharray:none;stroke-opacity:1"
             d="M 0,0 34.589,-19.897" /></g><g
           transform="translate(190.2646,85.0918)"
           id="g74"><path
             id="path76"
             style="fill:none;stroke:#384c71;stroke-width:3.10100007;stroke-linecap:round;stroke-linejoin:round;stroke-miterlimit:22.9260006;stroke-dasharray:none;stroke-opacity:1"
             d="M 0,0 28.45,16.364" /></g><g
           transform="translate(122.0781,27.2266)"
           id="g78"><path
             id="path80"
             style="fill:none;stroke:#384d71;stroke-width:1.54999995;stroke-linecap:round;stroke-linejoin:round;stroke-miterlimit:10;stroke-dasharray:none;stroke-opacity:1"
             d="M 0,0 C 9.678,0 17.571,7.893 17.571,17.57 17.571,27.248 9.678,35.142 0,35.142 -9.678,35.142 -17.57,27.248 -17.57,17.57 -17.57,7.893 -9.678,0 0,0 Z" /></g></g></g><text
       id="text84"
       style="font-variant:normal;font-weight:bold;font-stretch:normal;font-size:24.08880043px;font-family:Roboto;-inkscape-font-specification:Roboto-Bold;writing-mode:lr-tb;fill:#000000;fill-opacity:1;fill-rule:nonzero;stroke:none"
       transform="matrix(1,0,0,-1,115.6445,36.1113)"><tspan
         id="tspan82"
         y="0"
         x="0">9</tspan></text>
<text
       id="text88"
       style="font-variant:normal;font-weight:normal;font-stretch:normal;font-size:16.4836998px;font-family:Roboto;-inkscape-font-specification:Roboto-Regular;writing-mode:lr-tb;fill:#000000;fill-opacity:1;fill-rule:nonzero;stroke:none"
       transform="matrix(1,0,0,-1,106.3115,8.2012)"><tspan
         id="tspan86"
         y="0"
         x="0 9.280323 13.697955 22.978277">3.45</tspan></text>
<g
       id="g90"><g
         clip-path="url(#clipPath96)"
         id="g92"><g
           transform="translate(235.5166,150.2227)"
           id="g98"><path
             id="path100"
             style="fill:none;stroke:#384d71;stroke-width:1.54999995;stroke-linecap:round;stroke-linejoin:round;stroke-miterlimit:10;stroke-dasharray:none;stroke-opacity:1"
             d="M 0,0 C 9.678,0 17.571,7.894 17.571,17.57 17.571,27.248 9.678,35.142 0,35.142 -9.677,35.142 -17.57,27.248 -17.57,17.57 -17.57,7.894 -9.677,0 0,0 Z" /></g></g></g><text
       id="text104"
       style="font-variant:normal;font-weight:bold;font-stretch:normal;font-size:24.08880043px;font-family:Roboto;-inkscape-font-specification:Roboto-Bold;writing-mode:lr-tb;fill:#000000;fill-opacity:1;fill-rule:nonzero;stroke:none"
       transform="matrix(1,0,0,-1,229.083,159.1064)"><tspan
         id="tspan102"
         y="0"
         x="0">4</tspan></text>
<text
       id="text108"
       style="font-variant:normal;font-weight:normal;font-stretch:normal;font-size:16.4836998px;font-family:Roboto;-inkscape-font-specification:Roboto-Regular;writing-mode:lr-tb;fill:#000000;fill-opacity:1;fill-rule:nonzero;stroke:none"
       transform="matrix(1,0,0,-1,219.748,131.1973)"><tspan
         id="tspan106"
         y="0"
         x="0 9.280323 13.689713 22.970036">9.42</tspan></text>
<g
       id="g110"><g
         clip-path="url(#clipPath116)"
         id="g112"><g
           transform="translate(82.5576,187.418)"
           id="g118"><path
             id="path120"
             style="fill:none;stroke:#384d71;stroke-width:1.54999995;stroke-linecap:round;stroke-linejoin:round;stroke-miterlimit:10;stroke-dasharray:none;stroke-opacity:1"
             d="m 0,0 c 9.678,0 17.57,7.894 17.57,17.571 0,9.678 -7.892,17.572 -17.57,17.572 -9.678,0 -17.571,-7.894 -17.571,-17.572 C -17.571,7.894 -9.678,0 0,0 Z" /></g></g></g><text
       id="text124"
       style="font-variant:normal;font-weight:bold;font-stretch:normal;font-size:24.08880043px;font-family:Roboto;-inkscape-font-specification:Roboto-Bold;writing-mode:lr-tb;fill:#000000;fill-opacity:1;fill-rule:nonzero;stroke:none"
       transform="matrix(1,0,0,-1,76.124,196.3027)"><tspan
         id="tspan122"
         y="0"
         x="0">2</tspan></text>
<text
       id="text128"
       style="font-variant:normal;font-weight:normal;font-stretch:normal;font-size:16.4836998px;font-family:Roboto;-inkscape-font-specification:Roboto-Regular;writing-mode:lr-tb;fill:#000000;fill-opacity:1;fill-rule:nonzero;stroke:none"
       transform="matrix(1,0,0,-1,62.1494,168.3936)"><tspan
         id="tspan126"
         y="0"
         x="0 9.280323 18.560646 22.970036 32.250359">17.11</tspan></text>
<g
       id="g130"><g
         clip-path="url(#clipPath136)"
         id="g132"><g
           transform="translate(259.1367,311.4868)"
           id="g138"><path
             id="path140"
             style="fill:none;stroke:#384d71;stroke-width:1.54999995;stroke-linecap:round;stroke-linejoin:round;stroke-miterlimit:10;stroke-dasharray:none;stroke-opacity:1"
             d="M 0,0 C 9.676,0 17.569,7.894 17.569,17.571 17.569,27.25 9.676,35.143 0,35.143 -9.68,35.143 -17.573,27.25 -17.573,17.571 -17.573,7.894 -9.68,0 0,0 Z" /></g></g></g><text
       id="text144"
       style="font-variant:normal;font-weight:bold;font-stretch:normal;font-size:24.08880043px;font-family:Roboto;-inkscape-font-specification:Roboto-Bold;writing-mode:lr-tb;fill:#000000;fill-opacity:1;fill-rule:nonzero;stroke:none"
       transform="matrix(1,0,0,-1,252.7021,320.373)"><tspan
         id="tspan142"
         y="0"
         x="0">7</tspan></text>
<text
       id="text148"
       style="font-variant:normal;font-weight:normal;font-stretch:normal;font-size:16.4836998px;font-family:Roboto;-inkscape-font-specification:Roboto-Regular;writing-mode:lr-tb;fill:#000000;fill-opacity:1;fill-rule:nonzero;stroke:none"
       transform="matrix(1,0,0,-1,243.3682,292.4629)"><tspan
         id="tspan146"
         y="0"
         x="0 9.280323 13.689713 22.970036">5.11</tspan></text>
<g
       id="g150"><g
         clip-path="url(#clipPath156)"
         id="g152"><g
           transform="translate(172.9502,313.7314)"
           id="g158"><path
             id="path160"
             style="fill:none;stroke:#384d71;stroke-width:1.54999995;stroke-linecap:round;stroke-linejoin:round;stroke-miterlimit:10;stroke-dasharray:none;stroke-opacity:1"
             d="M 0,0 C 9.678,0 17.571,7.892 17.571,17.57 17.571,27.248 9.678,35.141 0,35.141 -9.678,35.141 -17.57,27.248 -17.57,17.57 -17.57,7.892 -9.678,0 0,0 Z" /></g></g></g><text
       id="text164"
       style="font-variant:normal;font-weight:bold;font-stretch:normal;font-size:24.08880043px;font-family:Roboto;-inkscape-font-specification:Roboto-Bold;writing-mode:lr-tb;fill:#000000;fill-opacity:1;fill-rule:nonzero;stroke:none"
       transform="matrix(1,0,0,-1,166.5166,322.6157)"><tspan
         id="tspan162"
         y="0"
         x="0">1</tspan></text>
<text
       id="text168"
       style="font-variant:normal;font-weight:normal;font-stretch:normal;font-size:16.4836998px;font-family:Roboto;-inkscape-font-specification:Roboto-Regular;writing-mode:lr-tb;fill:#000000;fill-opacity:1;fill-rule:nonzero;stroke:none"
       transform="matrix(1,0,0,-1,157.1831,294.7056)"><tspan
         id="tspan166"
         y="0"
         x="0 9.280323 13.697955 22.978277">8.70</tspan></text>
<g
       id="g170"><g
         clip-path="url(#clipPath176)"
         id="g172"><g
           transform="translate(91.2153,0.6592)"
           id="g178"><path
             id="path180"
             style="fill:none;stroke:#000000;stroke-width:1.31799996;stroke-linecap:round;stroke-linejoin:round;stroke-miterlimit:22.9260006;stroke-dasharray:none;stroke-opacity:1"
             d="m 0,0 h 54.257 l 86.297,49.821" /></g></g></g></g></svg>