<?xml version="1.0" encoding="UTF-8" standalone="no"?>
<svg
   xmlns:dc="http://purl.org/dc/elements/1.1/"
   xmlns:cc="http://creativecommons.org/ns#"
   xmlns:rdf="http://www.w3.org/1999/02/22-rdf-syntax-ns#"
   xmlns:svg="http://www.w3.org/2000/svg"
   xmlns="http://www.w3.org/2000/svg"
   viewBox="0 0 534.71069 354.69601"
   height="354.69601"
   width="534.71069"
   xml:space="preserve"
   id="svg2"
   version="1.1"><metadata
     id="metadata8"><rdf:RDF><cc:Work
         rdf:about=""><dc:format>image/svg+xml</dc:format><dc:type
           rdf:resource="http://purl.org/dc/dcmitype/StillImage" /></cc:Work></rdf:RDF></metadata><defs
     id="defs6"><clipPath
       id="clipPath18"
       clipPathUnits="userSpaceOnUse"><path
         id="path16"
         d="M 0,266.022 H 401.033 V 0 H 0 Z" /></clipPath><clipPath
       id="clipPath116"
       clipPathUnits="userSpaceOnUse"><path
         id="path114"
         d="M 0,266.022 H 401.033 V 0 H 0 Z" /></clipPath><clipPath
       id="clipPath136"
       clipPathUnits="userSpaceOnUse"><path
         id="path134"
         d="M 0,266.022 H 401.033 V 0 H 0 Z" /></clipPath><clipPath
       id="clipPath156"
       clipPathUnits="userSpaceOnUse"><path
         id="path154"
         d="M 0,266.022 H 401.033 V 0 H 0 Z" /></clipPath><clipPath
       id="clipPath176"
       clipPathUnits="userSpaceOnUse"><path
         id="path174"
         d="M 0,266.022 H 401.033 V 0 H 0 Z" /></clipPath><clipPath
       id="clipPath196"
       clipPathUnits="userSpaceOnUse"><path
         id="path194"
         d="M 0,266.022 H 401.033 V 0 H 0 Z" /></clipPath><clipPath
       id="clipPath216"
       clipPathUnits="userSpaceOnUse"><path
         id="path214"
         d="M 0,266.022 H 401.033 V 0 H 0 Z" /></clipPath><clipPath
       id="clipPath236"
       clipPathUnits="userSpaceOnUse"><path
         id="path234"
         d="M 0,266.022 H 401.033 V 0 H 0 Z" /></clipPath></defs><g
     transform="matrix(1.3333333,0,0,-1.3333333,0,354.696)"
     id="g10"><g
       id="g12"><g
         clip-path="url(#clipPath18)"
         id="g14"><g
           transform="translate(333.709,88.7041)"
           id="g20"><path
             id="path22"
             style="fill:none;stroke:#384d71;stroke-width:1.11699998;stroke-linecap:round;stroke-linejoin:round;stroke-miterlimit:10;stroke-dasharray:none;stroke-opacity:1"
             d="m 0,0 v -1.681 m 0,-3.613 v 1.682 m -2.646,0.966 h 1.68 m 3.613,0 H 0.966 m -2.553,0 c 0,0.875 0.711,1.584 1.587,1.584 0.876,0 1.586,-0.709 1.586,-1.584 0,-0.877 -0.71,-1.587 -1.586,-1.587 -0.876,0 -1.587,0.71 -1.587,1.587 z m 6.696,6.625 h -30.502 c -3.622,0 -6.558,-2.937 -6.558,-6.559 0,-3.622 2.936,-6.56 6.558,-6.56 H 5.109 c 0.692,0 1.255,0.565 1.255,1.256 V 2.725 c 0,0.691 -0.563,1.254 -1.255,1.254 z m 2.572,3.364 h -39.224 c -5.478,0 -9.923,-4.445 -9.923,-9.923 0,-5.48 4.445,-9.923 9.923,-9.923 H 7.681 c 1.046,0 1.898,0.853 1.898,1.899 V 5.443 c 0,1.047 -0.852,1.9 -1.898,1.9 z m -50.753,1.934 h 54.393 v -23.714 h -54.393 z" /></g><g
           transform="translate(338.7988,18.4414)"
           id="g24"><path
             id="path26"
             style="fill:none;stroke:#384d71;stroke-width:1.11699998;stroke-linecap:round;stroke-linejoin:round;stroke-miterlimit:10;stroke-dasharray:none;stroke-opacity:1"
             d="m 0,0 c -3.217,0 -5.173,-0.806 -7.359,-0.806 -3.417,0 -8.516,2.308 -8.516,6.433 0,4.126 5.099,6.431 8.516,6.431 2.186,0 4.142,-0.805 7.359,-0.805 M -13.104,3.021 c 2.241,0.962 2.241,4.249 0,5.21 M -0.201,2.814 c -5.244,-2.974 -14.067,-1.928 -14.067,2.813 0,4.741 8.823,5.785 14.067,2.813 M 2.248,5.627 c 0,0.423 0.343,0.768 0.768,0.768 0.422,0 0.767,-0.345 0.767,-0.768 0,-0.425 -0.345,-0.769 -0.767,-0.769 -0.425,0 -0.768,0.344 -0.768,0.769 z M -0.201,0.904 v 9.447 c 0,0.883 0.724,1.606 1.608,1.606 h 3.216 c 0.885,0 1.607,-0.723 1.607,-1.606 V 0.904 C 6.23,0.019 5.508,-0.704 4.623,-0.704 H 1.407 c -0.884,0 -1.608,0.723 -1.608,1.608 z" /></g><g
           transform="translate(343.4189,61.4873)"
           id="g28"><path
             id="path30"
             style="fill:none;stroke:#384d71;stroke-width:1.11699998;stroke-linecap:round;stroke-linejoin:round;stroke-miterlimit:10;stroke-dasharray:none;stroke-opacity:1"
             d="M 0,0 V -1.299 M -0.649,-0.65 H 0.65 m -4.608,0.001 c 0,0.265 0.214,0.479 0.479,0.479 0.263,0 0.477,-0.214 0.477,-0.479 0,-0.264 -0.214,-0.479 -0.477,-0.479 -0.265,0 -0.479,0.215 -0.479,0.479 z m 2.221,-4.715 V 4.064 H -3.71 c -2.567,0 -3.278,-2.584 -3.278,-4.714 0,-2.128 0.711,-4.714 3.278,-4.714 z m -6.834,4.714 c 0,-4.93 2.821,-6.296 4.861,-6.296 H 1.61 V 5.647 h -5.32 c -2.04,0 -4.861,-1.366 -4.861,-6.297 z" /></g><g
           transform="translate(324.7734,183.2983)"
           id="g32"><path
             id="path34"
             style="fill:none;stroke:#384d71;stroke-width:1.11699998;stroke-linecap:round;stroke-linejoin:round;stroke-miterlimit:10;stroke-dasharray:none;stroke-opacity:1"
             d="M 0,0 V 17.817 M 0,-66.45 v -13.545 m 17.686,78.12 v -15.139 m -5.493,3.37 c 0,-0.852 0.692,-1.543 1.543,-1.543 0.852,0 1.543,0.691 1.543,1.543 0,0.852 -0.691,1.543 -1.543,1.543 -0.851,0 -1.543,-0.691 -1.543,-1.543 z m 0,8.399 c 0,-0.852 0.692,-1.544 1.543,-1.544 0.852,0 1.543,0.692 1.543,1.544 0,0.853 -0.691,1.543 -1.543,1.543 -0.851,0 -1.543,-0.69 -1.543,-1.543 z m -7.708,-8.399 c 0,-0.852 0.692,-1.543 1.544,-1.543 0.853,0 1.544,0.691 1.544,1.543 0,0.852 -0.691,1.543 -1.544,1.543 -0.852,0 -1.544,-0.691 -1.544,-1.543 z m 0,8.399 c 0,-0.852 0.692,-1.544 1.544,-1.544 0.853,0 1.544,0.692 1.544,1.544 0,0.853 -0.691,1.543 -1.544,1.543 -0.852,0 -1.544,-0.69 -1.544,-1.543 z M 1.876,-17.014 h 18.087 v 15.14 H 1.876 Z m 15.407,-39.254 v -7.502 m -13.262,7.502 v -7.502 m 1.894,7.501 v -7.502 m 1.895,7.502 v -7.502 m 1.893,7.502 v -7.502 m 1.896,7.502 v -7.502 m 1.894,7.502 v -7.502 m 1.895,7.502 v -7.502 m -0.248,18.025 v -1.875 m -1.472,0.938 h 5.011 m -17.338,5.359 v -10.718 c 0,-1.073 0.877,-1.95 1.949,-1.95 h 13.439 c 1.072,0 1.95,0.877 1.95,1.95 v 10.718 c 0,1.073 -0.878,1.949 -1.95,1.949 H 3.29 c -1.072,0 -1.949,-0.876 -1.949,-1.949 z M 0,-18.889 H 21.838 M 0,-37.377 H 21.838 M 21.838,0 H 0 v -66.45 h 21.838" /></g><g
           transform="translate(9.6665,159.9868)"
           id="g36"><path
             id="path38"
             style="fill:#384d71;fill-opacity:1;fill-rule:evenodd;stroke:none"
             d="M 0,0 H 42.069 V 9.108 H -9.108 V 4.8 0 -90.165 H 0 Z m 188.268,-150.32 v -9.108 H 0 -4.354 -9.108 v 21.702 H 0 v -12.594 h 105.316 v 10.987 h 3.741 v -10.987 z m 0,208.23 -2.31,-2.312 2.31,-2.311 z m -86.424,-7.673 h 7.212 20.276 l 11.801,11.802 6.441,-6.441 -14.47,-14.469 H 109.056 V 9.108 2.417 0 -107.056 h 73.879 l 5,5 0.333,-0.334 v -4.622 l -3.784,-3.785 h -75.428 -2.412 -1.329 V 0 h -5.367 -5.762 v 9.108 h 5.762 v 41.129 z m 195.982,-9.108 h 39.119 v -97.812 h -82.528 v -3.739 h 20.231 v -27.33 h 3.74 v 27.33 h 58.557 v -53.601 h -58.557 v 4.165 h -3.74 v -12.059 h 3.74 v 4.154 h 58.557 v -32.557 h -58.557 v 6.297 h -3.74 v -6.297 h -12.057 v -9.108 h 74.354 7.905 1.203 V 50.237 h -1.203 -7.905 -39.119 z M 188.268,53.287 v 4.623 l 4.13,4.129 11.801,-11.802 H 250.4 v -9.108 h -24.786 v -105.505 -5.291 l -5.929,-5.928 -0.973,0.97 -1.671,1.675 4.833,4.833 V 41.129 h -21.448 z m 0,-203.607 h 42.704 v -9.108 h -42.704 z m 0,47.93 2.312,-2.312 -2.312,-2.31 z" /></g><g
           transform="translate(9.6665,159.9868)"
           id="g40"><path
             id="path42"
             style="fill:none;stroke:#384d71;stroke-width:1.11699998;stroke-linecap:round;stroke-linejoin:round;stroke-miterlimit:10;stroke-dasharray:none;stroke-opacity:1"
             d="M 0,0 H 42.069 V 9.108 H -9.108 V 4.8 0 -90.165 H 0 Z m 219.685,-75.595 5.929,5.928 v 5.291 105.505 H 250.4 v 9.108 h -46.201 l -11.801,11.802 -6.44,-6.441 14.468,-14.469 h 21.448 V -68.117 l -4.833,-4.833 1.671,-1.675 z m 78.141,116.724 h 39.119 v -97.812 h -82.528 v -3.739 h 20.231 v -27.33 h 3.74 v 27.33 h 58.557 v -53.601 h -58.557 v 4.165 h -3.74 v -12.059 h 3.74 v 4.154 h 58.557 v -32.557 h -58.557 v 6.297 h -3.74 v -6.297 h -12.057 v -9.108 h 74.354 7.905 1.203 V 50.237 h -1.203 -7.905 -39.119 z M 109.057,-150.32 v 10.987 h -3.741 V -150.32 H 0 v 12.594 h -9.108 v -21.702 H -4.354 0 230.972 v 9.108 z m -7.213,200.557 h 7.212 20.276 l 11.801,11.802 6.441,-6.441 -14.47,-14.469 H 109.056 V 9.108 2.417 0 -107.056 h 73.879 l 5,5 2.645,-2.646 -6.096,-6.095 h -75.428 -2.412 -1.329 V 0 h -5.367 -5.762 v 9.108 h 5.762 v 41.129 z" /></g><g
           transform="translate(152.6978,220.1274)"
           id="g44"><path
             id="path46"
             style="fill:#ffffff;fill-opacity:1;fill-rule:evenodd;stroke:none"
             d="M 0,0 6.227,6.227 H 41.242 L 47.469,0 44.824,-2.645 39.693,2.486 H 7.776 L 2.645,-2.645 Z" /></g><g
           transform="translate(152.6978,220.1274)"
           id="g48"><path
             id="path50"
             style="fill:none;stroke:#384d71;stroke-width:1.11699998;stroke-linecap:round;stroke-linejoin:round;stroke-miterlimit:10;stroke-dasharray:none;stroke-opacity:1"
             d="M 0,0 6.227,6.227 H 41.242 L 47.469,0 44.824,-2.645 39.693,2.486 H 7.776 L 2.645,-2.645 Z" /></g><path
           id="path52"
           style="fill:#ffffff;fill-opacity:1;fill-rule:nonzero;stroke:#384c71;stroke-width:1.11699998;stroke-linecap:round;stroke-linejoin:round;stroke-miterlimit:22.9260006;stroke-dasharray:none;stroke-opacity:1"
           d="M 6.983,22.261 H 3.242 v 47.562 h 3.741 z" /><path
           id="path54"
           style="fill:#ffffff;fill-opacity:1;fill-rule:nonzero;stroke:#384c71;stroke-width:1.11699998;stroke-linecap:round;stroke-linejoin:round;stroke-miterlimit:22.9260006;stroke-dasharray:none;stroke-opacity:1"
           d="m 260.066,207.54 h 47.426 v -3.741 h -47.426 z" /><path
           id="path56"
           style="fill:#ffffff;fill-opacity:1;fill-rule:nonzero;stroke:#384c71;stroke-width:1.11699998;stroke-linecap:round;stroke-linejoin:round;stroke-miterlimit:22.9260006;stroke-dasharray:none;stroke-opacity:1"
           d="m 51.735,166.412 h 28.403 v -3.741 H 51.735 Z" /><g
           transform="translate(109.6143,210.2241)"
           id="g58"><path
             id="path60"
             style="fill:#ffffff;fill-opacity:1;fill-rule:evenodd;stroke:none"
             d="m 0,0 v -3.741 h -85.273 c -6.682,-6.64 -13.362,-13.28 -20.041,-19.92 v -17.468 h -3.742 v 19.025 c 7.413,7.368 14.826,14.736 22.24,22.104 z" /></g><g
           transform="translate(109.6143,210.2241)"
           id="g62"><path
             id="path64"
             style="fill:none;stroke:#384c71;stroke-width:1.11699998;stroke-linecap:round;stroke-linejoin:round;stroke-miterlimit:22.9260006;stroke-dasharray:none;stroke-opacity:1"
             d="m 0,0 v -3.741 h -85.273 c -6.682,-6.64 -13.362,-13.28 -20.041,-19.92 v -17.468 h -3.742 v 19.025 c 7.413,7.368 14.826,14.736 22.24,22.104 z" /></g><g
           transform="translate(103.8521,159.9868)"
           id="g66"><path
             id="path68"
             style="fill:none;stroke:#384c71;stroke-width:2.23399997;stroke-linecap:round;stroke-linejoin:round;stroke-miterlimit:22.9260006;stroke-dasharray:none;stroke-opacity:1"
             d="M 0,0 -20.499,-11.924" /></g><g
           transform="translate(133.0576,45.4385)"
           id="g70"><path
             id="path72"
             style="fill:none;stroke:#384c71;stroke-width:2.23399997;stroke-linecap:round;stroke-linejoin:round;stroke-miterlimit:22.9260006;stroke-dasharray:none;stroke-opacity:1"
             d="M 0,0 -14.334,-24.784" /></g><g
           transform="translate(240.6387,9.667)"
           id="g74"><path
             id="path76"
             style="fill:none;stroke:#384c71;stroke-width:2.23399997;stroke-linecap:round;stroke-linejoin:round;stroke-miterlimit:22.9260006;stroke-dasharray:none;stroke-opacity:1"
             d="M 0,0 27.33,15.81" /></g><g
           transform="translate(288.0664,15.9639)"
           id="g78"><path
             id="path80"
             style="fill:none;stroke:#384c71;stroke-width:2.23399997;stroke-linecap:round;stroke-linejoin:round;stroke-miterlimit:22.9260006;stroke-dasharray:none;stroke-opacity:1"
             d="M 0,0 11.12,19.158" /></g><g
           transform="translate(205.4033,83.0859)"
           id="g82"><path
             id="path84"
             style="fill:none;stroke:#384c71;stroke-width:2.23399997;stroke-linecap:round;stroke-linejoin:round;stroke-miterlimit:22.9260006;stroke-dasharray:none;stroke-opacity:1"
             d="M 0,0 -6.966,-25.991" /></g><g
           transform="translate(212.5039,83.7559)"
           id="g86"><path
             id="path88"
             style="fill:none;stroke:#384c71;stroke-width:2.23399997;stroke-linecap:round;stroke-linejoin:round;stroke-miterlimit:22.9260006;stroke-dasharray:none;stroke-opacity:1"
             d="M 0,0 14.948,2.535" /></g><g
           transform="translate(260.2002,117.6387)"
           id="g90"><path
             id="path92"
             style="fill:none;stroke:#384c71;stroke-width:2.23399997;stroke-linecap:round;stroke-linejoin:round;stroke-miterlimit:22.9260006;stroke-dasharray:none;stroke-opacity:1"
             d="M 0,0 -24.92,-14.335" /></g><g
           transform="translate(284.3145,72.2344)"
           id="g94"><path
             id="path96"
             style="fill:none;stroke:#384c71;stroke-width:2.23399997;stroke-linecap:round;stroke-linejoin:round;stroke-miterlimit:22.9260006;stroke-dasharray:none;stroke-opacity:1"
             d="M 0,0 -11.12,-19.16" /></g><g
           transform="translate(384.7344,31.9131)"
           id="g98"><path
             id="path100"
             style="fill:none;stroke:#384d71;stroke-width:1.11699998;stroke-linecap:round;stroke-linejoin:round;stroke-miterlimit:10;stroke-dasharray:none;stroke-opacity:1"
             d="m 0,0 c 6.974,0 12.659,5.686 12.659,12.659 0,6.972 -5.685,12.658 -12.659,12.658 -6.972,0 -12.658,-5.686 -12.658,-12.658 C -12.658,5.686 -6.972,0 0,0 Z" /></g></g></g><text
       id="text104"
       style="font-variant:normal;font-weight:bold;font-stretch:normal;font-size:17.35479927px;font-family:Roboto;-inkscape-font-specification:Roboto-Bold;writing-mode:lr-tb;fill:#000000;fill-opacity:1;fill-rule:nonzero;stroke:none"
       transform="matrix(1,0,0,-1,380.1006,38.3135)"><tspan
         id="tspan102"
         y="0"
         x="0">6</tspan></text>
<text
       id="text108"
       style="font-variant:normal;font-weight:normal;font-stretch:normal;font-size:11.8757px;font-family:Roboto;-inkscape-font-specification:Roboto-Regular;writing-mode:lr-tb;fill:#000000;fill-opacity:1;fill-rule:nonzero;stroke:none"
       transform="matrix(1,0,0,-1,373.376,18.2051)"><tspan
         id="tspan106"
         y="0"
         x="0 6.6860189 9.8687067 16.554726">1.68</tspan></text>
<g
       id="g110"><g
         clip-path="url(#clipPath116)"
         id="g112"><g
           transform="translate(384.7344,88.0537)"
           id="g118"><path
             id="path120"
             style="fill:none;stroke:#384d71;stroke-width:1.11699998;stroke-linecap:round;stroke-linejoin:round;stroke-miterlimit:10;stroke-dasharray:none;stroke-opacity:1"
             d="m 0,0 c 6.974,0 12.659,5.687 12.659,12.659 0,6.973 -5.685,12.658 -12.659,12.658 -6.972,0 -12.658,-5.685 -12.658,-12.658 C -12.658,5.687 -6.972,0 0,0 Z" /></g></g></g><text
       id="text124"
       style="font-variant:normal;font-weight:bold;font-stretch:normal;font-size:17.35479927px;font-family:Roboto;-inkscape-font-specification:Roboto-Bold;writing-mode:lr-tb;fill:#000000;fill-opacity:1;fill-rule:nonzero;stroke:none"
       transform="matrix(1,0,0,-1,380.1006,94.4551)"><tspan
         id="tspan122"
         y="0"
         x="0">5</tspan></text>
<text
       id="text128"
       style="font-variant:normal;font-weight:normal;font-stretch:normal;font-size:11.8757px;font-family:Roboto;-inkscape-font-specification:Roboto-Regular;writing-mode:lr-tb;fill:#000000;fill-opacity:1;fill-rule:nonzero;stroke:none"
       transform="matrix(1,0,0,-1,373.376,74.3467)"><tspan
         id="tspan126"
         y="0"
         x="0 6.6860189 9.8687067 16.554726">3.10</tspan></text>
<g
       id="g130"><g
         clip-path="url(#clipPath136)"
         id="g132"><g
           transform="translate(226.5332,40.2285)"
           id="g138"><path
             id="path140"
             style="fill:none;stroke:#384d71;stroke-width:1.11699998;stroke-linecap:round;stroke-linejoin:round;stroke-miterlimit:10;stroke-dasharray:none;stroke-opacity:1"
             d="m 0,0 c 6.973,0 12.659,5.687 12.659,12.658 0,6.974 -5.686,12.66 -12.659,12.66 -6.972,0 -12.659,-5.686 -12.659,-12.66 C -12.659,5.687 -6.972,0 0,0 Z" /></g></g></g><text
       id="text144"
       style="font-variant:normal;font-weight:bold;font-stretch:normal;font-size:17.35479927px;font-family:Roboto;-inkscape-font-specification:Roboto-Bold;writing-mode:lr-tb;fill:#000000;fill-opacity:1;fill-rule:nonzero;stroke:none"
       transform="matrix(1,0,0,-1,221.8994,46.6289)"><tspan
         id="tspan142"
         y="0"
         x="0">1</tspan></text>
<text
       id="text148"
       style="font-variant:normal;font-weight:normal;font-stretch:normal;font-size:11.8757px;font-family:Roboto;-inkscape-font-specification:Roboto-Regular;writing-mode:lr-tb;fill:#000000;fill-opacity:1;fill-rule:nonzero;stroke:none"
       transform="matrix(1,0,0,-1,215.1748,26.5215)"><tspan
         id="tspan146"
         y="0"
         x="0 6.6860189 9.8687067 16.554726">9.76</tspan></text>
<g
       id="g150"><g
         clip-path="url(#clipPath156)"
         id="g152"><g
           transform="translate(277.1758,147.4194)"
           id="g158"><path
             id="path160"
             style="fill:none;stroke:#384d71;stroke-width:1.11699998;stroke-linecap:round;stroke-linejoin:round;stroke-miterlimit:10;stroke-dasharray:none;stroke-opacity:1"
             d="m 0,0 c 6.972,0 12.658,5.687 12.658,12.659 0,6.972 -5.686,12.659 -12.658,12.659 -6.974,0 -12.659,-5.687 -12.659,-12.659 C -12.659,5.687 -6.974,0 0,0 Z" /></g></g></g><text
       id="text164"
       style="font-variant:normal;font-weight:bold;font-stretch:normal;font-size:17.35479927px;font-family:Roboto;-inkscape-font-specification:Roboto-Bold;writing-mode:lr-tb;fill:#000000;fill-opacity:1;fill-rule:nonzero;stroke:none"
       transform="matrix(1,0,0,-1,272.54,153.8208)"><tspan
         id="tspan162"
         y="0"
         x="0">4</tspan></text>
<text
       id="text168"
       style="font-variant:normal;font-weight:normal;font-stretch:normal;font-size:11.8757px;font-family:Roboto;-inkscape-font-specification:Roboto-Regular;writing-mode:lr-tb;fill:#000000;fill-opacity:1;fill-rule:nonzero;stroke:none"
       transform="matrix(1,0,0,-1,265.8154,133.7124)"><tspan
         id="tspan166"
         y="0"
         x="0 6.6860189 9.8687067 16.554726">9.60</tspan></text>
<g
       id="g170"><g
         clip-path="url(#clipPath176)"
         id="g172"><g
           transform="translate(59.2153,82.4463)"
           id="g178"><path
             id="path180"
             style="fill:none;stroke:#384d71;stroke-width:1.11699998;stroke-linecap:round;stroke-linejoin:round;stroke-miterlimit:10;stroke-dasharray:none;stroke-opacity:1"
             d="m 0,0 c 6.973,0 12.659,5.687 12.659,12.661 0,6.971 -5.686,12.658 -12.659,12.658 -6.972,0 -12.659,-5.687 -12.659,-12.658 C -12.659,5.687 -6.972,0 0,0 Z" /></g></g></g><text
       id="text184"
       style="font-variant:normal;font-weight:bold;font-stretch:normal;font-size:17.35479927px;font-family:Roboto;-inkscape-font-specification:Roboto-Bold;writing-mode:lr-tb;fill:#000000;fill-opacity:1;fill-rule:nonzero;stroke:none"
       transform="matrix(1,0,0,-1,54.5806,88.8486)"><tspan
         id="tspan182"
         y="0"
         x="0">3</tspan></text>
<text
       id="text188"
       style="font-variant:normal;font-weight:normal;font-stretch:normal;font-size:11.8757px;font-family:Roboto;-inkscape-font-specification:Roboto-Regular;writing-mode:lr-tb;fill:#000000;fill-opacity:1;fill-rule:nonzero;stroke:none"
       transform="matrix(1,0,0,-1,44.5132,68.7393)"><tspan
         id="tspan186"
         y="0"
         x="0 6.6860189 13.372038 16.554726 23.240746">15.73</tspan></text>
<g
       id="g190"><g
         clip-path="url(#clipPath196)"
         id="g192"><g
           transform="translate(172.252,127.3223)"
           id="g198"><path
             id="path200"
             style="fill:none;stroke:#384d71;stroke-width:1.11699998;stroke-linecap:round;stroke-linejoin:round;stroke-miterlimit:10;stroke-dasharray:none;stroke-opacity:1"
             d="m 0,0 c 6.972,0 12.659,5.687 12.659,12.659 0,6.972 -5.687,12.659 -12.659,12.659 -6.972,0 -12.659,-5.687 -12.659,-12.659 C -12.659,5.687 -6.972,0 0,0 Z" /></g></g></g><text
       id="text204"
       style="font-variant:normal;font-weight:bold;font-stretch:normal;font-size:17.35479927px;font-family:Roboto;-inkscape-font-specification:Roboto-Bold;writing-mode:lr-tb;fill:#000000;fill-opacity:1;fill-rule:nonzero;stroke:none"
       transform="matrix(1,0,0,-1,167.6167,133.7231)"><tspan
         id="tspan202"
         y="0"
         x="0">2</tspan></text>
<text
       id="text208"
       style="font-variant:normal;font-weight:normal;font-stretch:normal;font-size:11.8757px;font-family:Roboto;-inkscape-font-specification:Roboto-Regular;writing-mode:lr-tb;fill:#000000;fill-opacity:1;fill-rule:nonzero;stroke:none"
       transform="matrix(1,0,0,-1,157.5503,113.6152)"><tspan
         id="tspan206"
         y="0"
         x="0 6.6860189 13.372038 16.554726 23.240746">16.80</tspan></text>
<g
       id="g210"><g
         clip-path="url(#clipPath216)"
         id="g212"><g
           transform="translate(44.5342,240.1455)"
           id="g218"><path
             id="path220"
             style="fill:none;stroke:#384d71;stroke-width:1.11699998;stroke-linecap:round;stroke-linejoin:round;stroke-miterlimit:10;stroke-dasharray:none;stroke-opacity:1"
             d="m 0,0 c 6.973,0 12.659,5.687 12.659,12.659 0,6.972 -5.686,12.659 -12.659,12.659 -6.972,0 -12.659,-5.687 -12.659,-12.659 C -12.659,5.687 -6.972,0 0,0 Z" /></g></g></g><text
       id="text224"
       style="font-variant:normal;font-weight:bold;font-stretch:normal;font-size:17.35479927px;font-family:Roboto;-inkscape-font-specification:Roboto-Bold;writing-mode:lr-tb;fill:#000000;fill-opacity:1;fill-rule:nonzero;stroke:none"
       transform="matrix(1,0,0,-1,39.8999,246.5474)"><tspan
         id="tspan222"
         y="0"
         x="0">8</tspan></text>
<text
       id="text228"
       style="font-variant:normal;font-weight:normal;font-stretch:normal;font-size:11.8757px;font-family:Roboto;-inkscape-font-specification:Roboto-Regular;writing-mode:lr-tb;fill:#000000;fill-opacity:1;fill-rule:nonzero;stroke:none"
       transform="matrix(1,0,0,-1,33.1753,226.4385)"><tspan
         id="tspan226"
         y="0"
         x="0 6.6860189 9.8687067 16.554726">3.50</tspan></text>
<g
       id="g230"><g
         clip-path="url(#clipPath236)"
         id="g232"><g
           transform="translate(26.6494,221.062)"
           id="g238"><path
             id="path240"
             style="fill:none;stroke:#000000;stroke-width:0.949;stroke-linecap:round;stroke-linejoin:round;stroke-miterlimit:22.9260006;stroke-dasharray:none;stroke-opacity:1"
             d="M 0,0 H 36.333 V -38.352" /></g><g
           transform="translate(324.6729,13.8926)"
           id="g242"><path
             id="path244"
             style="fill:none;stroke:#000000;stroke-width:0.949;stroke-linecap:round;stroke-linejoin:round;stroke-miterlimit:22.9260006;stroke-dasharray:none;stroke-opacity:1"
             d="M 0,0 H 75.886" /></g><g
           transform="translate(324.6729,71.002)"
           id="g246"><path
             id="path248"
             style="fill:none;stroke:#000000;stroke-width:0.949;stroke-linecap:round;stroke-linejoin:round;stroke-miterlimit:22.9260006;stroke-dasharray:none;stroke-opacity:1"
             d="M 0,0 H 75.886" /></g></g></g></g></svg>