<?xml version="1.0" encoding="UTF-8" standalone="no"?>
<svg
   xmlns:dc="http://purl.org/dc/elements/1.1/"
   xmlns:cc="http://creativecommons.org/ns#"
   xmlns:rdf="http://www.w3.org/1999/02/22-rdf-syntax-ns#"
   xmlns:svg="http://www.w3.org/2000/svg"
   xmlns="http://www.w3.org/2000/svg"
   viewBox="0 0 534.83331 388.20932"
   height="388.20932"
   width="534.83331"
   xml:space="preserve"
   id="svg2"
   version="1.1"><metadata
     id="metadata8"><rdf:RDF><cc:Work
         rdf:about=""><dc:format>image/svg+xml</dc:format><dc:type
           rdf:resource="http://purl.org/dc/dcmitype/StillImage" /></cc:Work></rdf:RDF></metadata><defs
     id="defs6"><clipPath
       id="clipPath18"
       clipPathUnits="userSpaceOnUse"><path
         id="path16"
         d="M 0,291.157 H 401.125 V 0 H 0 Z" /></clipPath><clipPath
       id="clipPath104"
       clipPathUnits="userSpaceOnUse"><path
         id="path102"
         d="M 0,291.157 H 401.125 V 0 H 0 Z" /></clipPath><clipPath
       id="clipPath124"
       clipPathUnits="userSpaceOnUse"><path
         id="path122"
         d="M 0,291.157 H 401.125 V 0 H 0 Z" /></clipPath><clipPath
       id="clipPath144"
       clipPathUnits="userSpaceOnUse"><path
         id="path142"
         d="M 0,291.157 H 401.125 V 0 H 0 Z" /></clipPath><clipPath
       id="clipPath164"
       clipPathUnits="userSpaceOnUse"><path
         id="path162"
         d="M 0,291.157 H 401.125 V 0 H 0 Z" /></clipPath><clipPath
       id="clipPath184"
       clipPathUnits="userSpaceOnUse"><path
         id="path182"
         d="M 0,291.157 H 401.125 V 0 H 0 Z" /></clipPath><clipPath
       id="clipPath204"
       clipPathUnits="userSpaceOnUse"><path
         id="path202"
         d="M 0,291.157 H 401.125 V 0 H 0 Z" /></clipPath><clipPath
       id="clipPath224"
       clipPathUnits="userSpaceOnUse"><path
         id="path222"
         d="M 0,291.157 H 401.125 V 0 H 0 Z" /></clipPath></defs><g
     transform="matrix(1.3333333,0,0,-1.3333333,0,388.20933)"
     id="g10"><g
       id="g12"><g
         clip-path="url(#clipPath18)"
         id="g14"><g
           transform="translate(63.6489,202.3262)"
           id="g20"><path
             id="path22"
             style="fill:none;stroke:#384d71;stroke-width:1.12399995;stroke-linecap:round;stroke-linejoin:round;stroke-miterlimit:10;stroke-dasharray:none;stroke-opacity:1"
             d="M 0,0 V 1.692 M 0,5.329 V 3.637 M 2.664,2.665 H 0.972 m -3.636,0 h 1.692 m 2.568,0 C 1.596,1.783 0.881,1.069 0,1.069 c -0.882,0 -1.597,0.714 -1.597,1.596 0,0.882 0.715,1.596 1.597,1.596 0.881,0 1.596,-0.714 1.596,-1.596 z m -6.739,-6.669 h 30.699 c 3.645,0 6.601,2.956 6.601,6.602 0,3.645 -2.956,6.601 -6.601,6.601 H -5.143 c -0.695,0 -1.262,-0.568 -1.262,-1.263 V -2.741 c 0,-0.696 0.567,-1.263 1.262,-1.263 z M -7.73,-7.389 h 39.476 c 5.514,0 9.985,4.472 9.985,9.987 0,5.513 -4.471,9.986 -9.985,9.986 H -7.73 c -1.053,0 -1.912,-0.858 -1.912,-1.912 v -16.15 c 0,-1.053 0.859,-1.911 1.912,-1.911 z M 43.35,-9.336 H -11.394 V 14.531 H 43.35 Z" /></g><g
           transform="translate(58.1201,247.4478)"
           id="g24"><path
             id="path26"
             style="fill:none;stroke:#384d71;stroke-width:1.12399995;stroke-linecap:round;stroke-linejoin:round;stroke-miterlimit:10;stroke-dasharray:none;stroke-opacity:1"
             d="m 0,0 c 3.239,0 5.206,0.81 7.407,0.81 3.441,0 8.572,-2.321 8.572,-6.474 0,-4.151 -5.131,-6.472 -8.572,-6.472 -2.201,0 -4.168,0.809 -7.407,0.809 m 13.188,8.286 c -2.254,-0.969 -2.254,-4.276 0,-5.244 M 0.203,-2.833 c 5.278,2.993 14.157,1.942 14.157,-2.831 0,-4.771 -8.879,-5.823 -14.157,-2.831 m -2.464,2.831 c 0,-0.426 -0.346,-0.772 -0.773,-0.772 -0.426,0 -0.773,0.346 -0.773,0.772 0,0.428 0.347,0.774 0.773,0.774 0.427,0 0.773,-0.346 0.773,-0.774 z m 2.464,4.754 v -9.507 c 0,-0.89 -0.728,-1.619 -1.619,-1.619 h -3.236 c -0.89,0 -1.618,0.729 -1.618,1.619 v 9.507 c 0,0.89 0.728,1.618 1.618,1.618 h 3.236 c 0.891,0 1.619,-0.728 1.619,-1.618 z" /></g><g
           transform="translate(53.876,180.9331)"
           id="g28"><path
             id="path30"
             style="fill:none;stroke:#384d71;stroke-width:1.12399995;stroke-linecap:round;stroke-linejoin:round;stroke-miterlimit:10;stroke-dasharray:none;stroke-opacity:1"
             d="M 0,0 V 1.307 M 0.654,0.654 H -0.654 M 3.984,0.653 c 0,-0.267 -0.215,-0.482 -0.482,-0.482 -0.266,0 -0.481,0.215 -0.481,0.482 0,0.266 0.215,0.482 0.481,0.482 0.267,0 0.482,-0.216 0.482,-0.482 z M 1.75,5.399 v -9.49 h 1.984 c 2.583,0 3.3,2.602 3.3,4.745 0,2.143 -0.717,4.745 -3.3,4.745 z M 8.625,0.654 c 0,4.962 -2.839,6.337 -4.891,6.337 H -1.621 V -5.684 h 5.355 c 2.052,0 4.891,1.375 4.891,6.338 z" /></g><g
           transform="translate(54.0327,84.1621)"
           id="g32"><path
             id="path34"
             style="fill:none;stroke:#384d71;stroke-width:1.12399995;stroke-linecap:round;stroke-linejoin:round;stroke-miterlimit:10;stroke-dasharray:none;stroke-opacity:1"
             d="m 0,0 v 15.237 m 5.528,-3.393 c 0,0.858 -0.696,1.553 -1.553,1.553 -0.859,0 -1.554,-0.695 -1.554,-1.553 0,-0.858 0.695,-1.553 1.554,-1.553 0.857,0 1.553,0.695 1.553,1.553 z m 0,-8.452 c 0,0.856 -0.696,1.552 -1.553,1.552 -0.859,0 -1.554,-0.696 -1.554,-1.552 0,-0.859 0.695,-1.554 1.554,-1.554 0.857,0 1.553,0.695 1.553,1.554 z m 7.756,8.452 c 0,0.858 -0.696,1.553 -1.553,1.553 -0.858,0 -1.553,-0.695 -1.553,-1.553 0,-0.858 0.695,-1.553 1.553,-1.553 0.857,0 1.553,0.695 1.553,1.553 z m 0,-8.452 c 0,0.856 -0.696,1.552 -1.553,1.552 -0.858,0 -1.553,-0.696 -1.553,-1.552 0,-0.859 0.695,-1.554 1.553,-1.554 0.857,0 1.553,0.695 1.553,1.554 z m 2.627,11.845 H -2.292 V 0 H 15.911 Z M 0.405,67.025 v 7.551 m 13.348,-7.551 v 7.551 m -1.906,-7.55 v 7.55 m -1.908,-7.55 v 7.55 m -1.907,-7.55 v 7.55 m -1.907,-7.55 v 7.55 m -1.906,-7.55 v 7.55 m -1.907,-7.55 v 7.55 m 0.25,-18.14 v 1.885 M 4.044,57.379 H -0.999 M 16.45,51.984 v 10.788 c 0,1.079 -0.883,1.962 -1.962,1.962 H 0.962 C -0.116,64.734 -1,63.851 -1,62.772 V 51.984 c 0,-1.078 0.884,-1.962 1.962,-1.962 h 13.526 c 1.079,0 1.962,0.884 1.962,1.962 z M 17.799,17.123 H -4.18 M 17.799,48.014 H -4.18 m 0,-49.902 H 17.799 V 77.273 H -4.18" /></g><g
           transform="translate(192.1069,53.8232)"
           id="g36"><path
             id="path38"
             style="fill:#384c71;fill-opacity:1;fill-rule:evenodd;stroke:none"
             d="M 0,0 V -9.167 H -50.7 V 0 h 10.249 v 107.612 h -5.394 v 3.765 h 5.394 v 10.587 5.324 l 7.685,7.684 2.662,-2.662 -6.583,-6.581 V 0 Z m 0,167.739 v -5.324 l -0.845,-0.845 -2.662,2.662 z m 0,36 h -31.553 v 9.167 H 0 Z M -151.421,-9.167 h 2.701 v -44.094 h 3.764 v 44.094 h 2.702 38.969 V 0 h -38.969 v 107.612 h 67.419 v 3.765 h -3.91 v 1.617 h -3.765 v -1.617 h -59.744 v 54.213 h 59.744 v -30.347 h 3.765 v 30.347 3.765 h -3.765 -59.744 v 34.384 h 59.744 v -12.134 h 3.765 v 12.134 h 15.371 v 9.167 h -78.88 -9.167 V 203.739 0 Z M 0,203.739 v 9.167 h 23.598 v 23.866 h 2.829 6.338 166.523 9.167 V 227.605 60.408 51.241 h -9.167 -23.864 v 9.167 h 23.864 V 227.605 H 80.486 v -26.968 h -3.765 v 26.968 H 32.765 v -14.699 -9.167 h -9.167 z m 0,-41.324 5.739,5.739 H 76.721 V 60.408 56.644 51.241 0 H 60.676 v -9.167 h 16.045 9.167 V 0 51.241 h 41.802 v 9.167 H 85.888 80.486 v 107.746 3.764 H 76.721 9.504 4.18 L 0,167.739 Z M 0,0 H 3.506 V -9.167 H 0 Z" /></g><g
           transform="translate(268.8276,254.4604)"
           id="g40"><path
             id="path42"
             style="fill:none;stroke:#384c71;stroke-width:1.12399995;stroke-linecap:round;stroke-linejoin:round;stroke-miterlimit:22.9260006;stroke-dasharray:none;stroke-opacity:1"
             d="M 0,0 H 3.766 V 26.968 H 122.567 V -140.229 H 98.703 v -9.167 h 23.864 9.167 v 9.167 167.197 9.167 h -9.167 -166.523 -6.338 -2.829 V 12.269 h -55.151 V 3.102 h 55.151 9.167 v 9.167 14.699 l 43.956,0 z m -113.407,-74.909 6.582,6.582 -2.662,2.662 -7.685,-7.685 v -5.323 -10.587 h -5.394 v -3.765 h 5.394 v -107.612 h -10.249 v -9.167 h 54.207 v 9.167 h -40.193 z m 35.842,35.842 6.584,6.584 H 0 v -107.746 -3.765 -5.402 -51.241 h -16.045 v -9.167 H 0 9.167 v 9.167 51.241 H 50.97 v 9.167 H 9.167 3.766 v 107.746 3.764 H 0 -67.217 -72.541 l -7.687,-7.686 z m -150.577,-170.737 h 2.701 v -44.094 h 3.765 v 44.094 h 2.701 38.969 v 9.167 h -38.969 v 107.612 h 67.419 v 3.765 h -3.91 v 1.617 h -3.764 v -1.617 h -59.745 v 54.213 h 59.745 v -30.347 h 3.764 v 30.347 3.765 h -3.764 -59.745 V 3.102 h 59.745 V -9.032 h 3.764 V 3.102 h 15.371 v 9.167 h -78.88 -9.167 V 3.102 -200.637 Z" /></g><path
           id="path44"
           style="fill:#ffffff;fill-opacity:1;fill-rule:nonzero;stroke:#384c71;stroke-width:1.12399995;stroke-linecap:round;stroke-linejoin:round;stroke-miterlimit:22.9260006;stroke-dasharray:none;stroke-opacity:1"
           d="m 319.797,111.529 h 47.733 v -3.765 h -47.733 z" /><path
           id="path46"
           style="fill:#ffffff;fill-opacity:1;fill-rule:nonzero;stroke:#384c71;stroke-width:1.12399995;stroke-linecap:round;stroke-linejoin:round;stroke-miterlimit:22.9260006;stroke-dasharray:none;stroke-opacity:1"
           d="m 195.613,51.122 h 57.169 v -3.765 h -57.169 z" /><path
           id="path48"
           style="fill:#ffffff;fill-opacity:1;fill-rule:nonzero;stroke:#384c71;stroke-width:1.12399995;stroke-linecap:round;stroke-linejoin:round;stroke-miterlimit:22.9260006;stroke-dasharray:none;stroke-opacity:1"
           d="m 117.542,47.357 h -28.72 v 3.765 h 28.72 z" /><g
           transform="translate(160.5537,264.0356)"
           id="g50"><path
             id="path52"
             style="fill:none;stroke:#384c71;stroke-width:2.24900007;stroke-linecap:round;stroke-linejoin:round;stroke-miterlimit:22.9260006;stroke-dasharray:none;stroke-opacity:1"
             d="M 0,0 -27.641,15.91" /></g><g
           transform="translate(109.5972,223.1782)"
           id="g54"><path
             id="path56"
             style="fill:none;stroke:#384c71;stroke-width:2.24900007;stroke-linecap:round;stroke-linejoin:round;stroke-miterlimit:22.9260006;stroke-dasharray:none;stroke-opacity:1"
             d="M 0,0 -11.203,19.283" /></g><g
           transform="translate(268.8276,225.7417)"
           id="g58"><path
             id="path60"
             style="fill:none;stroke:#384c71;stroke-width:2.24900007;stroke-linecap:round;stroke-linejoin:round;stroke-miterlimit:22.9260006;stroke-dasharray:none;stroke-opacity:1"
             d="M 0,0 -14.291,24.809" /></g><g
           transform="translate(190.3545,216.3027)"
           id="g62"><path
             id="path64"
             style="fill:none;stroke:#384c71;stroke-width:2.24900007;stroke-linecap:round;stroke-linejoin:round;stroke-miterlimit:22.9260006;stroke-dasharray:none;stroke-opacity:1"
             d="M 0,0 -2.563,-15.101" /></g><g
           transform="translate(187.2524,194.0547)"
           id="g66"><path
             id="path68"
             style="fill:none;stroke:#384c71;stroke-width:2.24900007;stroke-linecap:round;stroke-linejoin:round;stroke-miterlimit:22.9260006;stroke-dasharray:none;stroke-opacity:1"
             d="M 0,0 -26.158,-7.012" /></g><g
           transform="translate(109.5972,166.0088)"
           id="g70"><path
             id="path72"
             style="fill:none;stroke:#384c71;stroke-width:2.24900007;stroke-linecap:round;stroke-linejoin:round;stroke-miterlimit:22.9260006;stroke-dasharray:none;stroke-opacity:1"
             d="M 0,0 -11.203,20.091" /></g><g
           transform="translate(109.5859,223.1782)"
           id="g74"><path
             id="path76"
             style="fill:none;stroke:#384c71;stroke-width:2.24900007;stroke-linecap:round;stroke-linejoin:round;stroke-miterlimit:22.9260006;stroke-dasharray:none;stroke-opacity:1"
             d="M 0,0 -11.191,19.283" /></g><g
           transform="translate(146.2617,162.6377)"
           id="g78"><path
             id="path80"
             style="fill:none;stroke:#384c71;stroke-width:2.24900007;stroke-linecap:round;stroke-linejoin:round;stroke-miterlimit:22.9260006;stroke-dasharray:none;stroke-opacity:1"
             d="M 0,0 -25.215,-14.427" /></g><g
           transform="translate(141.4067,53.8232)"
           id="g82"><path
             id="path84"
             style="fill:none;stroke:#384c71;stroke-width:2.24900007;stroke-linecap:round;stroke-linejoin:round;stroke-miterlimit:22.9260006;stroke-dasharray:none;stroke-opacity:1"
             d="M 0,0 -19.77,11.372" /></g><g
           transform="translate(124.4629,20.3887)"
           id="g86"><path
             id="path88"
             style="fill:none;stroke:#384d71;stroke-width:1.12399995;stroke-linecap:round;stroke-linejoin:round;stroke-miterlimit:10;stroke-dasharray:none;stroke-opacity:1"
             d="M 0,0 C 7.017,0 12.74,5.723 12.74,12.739 12.74,19.757 7.017,25.48 0,25.48 -7.018,25.48 -12.74,19.757 -12.74,12.739 -12.74,5.723 -7.018,0 0,0 Z" /></g></g></g><text
       id="text92"
       style="font-variant:normal;font-weight:bold;font-stretch:normal;font-size:17.46660042px;font-family:Roboto;-inkscape-font-specification:Roboto-Bold;writing-mode:lr-tb;fill:#000000;fill-opacity:1;fill-rule:nonzero;stroke:none"
       transform="matrix(1,0,0,-1,119.7998,26.8301)"><tspan
         id="tspan90"
         y="0"
         x="0">9</tspan></text>
<text
       id="text96"
       style="font-variant:normal;font-weight:normal;font-stretch:normal;font-size:11.95219994px;font-family:Roboto;-inkscape-font-specification:Roboto-Regular;writing-mode:lr-tb;fill:#000000;fill-opacity:1;fill-rule:nonzero;stroke:none"
       transform="matrix(1,0,0,-1,113.0322,6.5928)"><tspan
         id="tspan94"
         y="0"
         x="0 6.7290888 9.9322786 16.661367">3.45</tspan></text>
<g
       id="g98"><g
         clip-path="url(#clipPath104)"
         id="g100"><g
           transform="translate(210.7104,136.9648)"
           id="g106"><path
             id="path108"
             style="fill:none;stroke:#384d71;stroke-width:1.12399995;stroke-linecap:round;stroke-linejoin:round;stroke-miterlimit:10;stroke-dasharray:none;stroke-opacity:1"
             d="m 0,0 c 7.016,0 12.739,5.724 12.739,12.741 0,7.018 -5.723,12.741 -12.739,12.741 -7.019,0 -12.742,-5.723 -12.742,-12.741 C -12.742,5.724 -7.019,0 0,0 Z" /></g></g></g><text
       id="text112"
       style="font-variant:normal;font-weight:bold;font-stretch:normal;font-size:17.46660042px;font-family:Roboto;-inkscape-font-specification:Roboto-Bold;writing-mode:lr-tb;fill:#000000;fill-opacity:1;fill-rule:nonzero;stroke:none"
       transform="matrix(1,0,0,-1,206.0464,143.4082)"><tspan
         id="tspan110"
         y="0"
         x="0">2</tspan></text>
<text
       id="text116"
       style="font-variant:normal;font-weight:normal;font-stretch:normal;font-size:11.95219994px;font-family:Roboto;-inkscape-font-specification:Roboto-Regular;writing-mode:lr-tb;fill:#000000;fill-opacity:1;fill-rule:nonzero;stroke:none"
       transform="matrix(1,0,0,-1,195.9141,123.1709)"><tspan
         id="tspan114"
         y="0"
         x="0 6.7290888 13.458178 16.661367 23.390455">18.06</tspan></text>
<g
       id="g118"><g
         clip-path="url(#clipPath124)"
         id="g120"><g
           transform="translate(334.7476,193.9453)"
           id="g126"><path
             id="path128"
             style="fill:none;stroke:#384d71;stroke-width:1.12399995;stroke-linecap:round;stroke-linejoin:round;stroke-miterlimit:10;stroke-dasharray:none;stroke-opacity:1"
             d="m 0,0 c 7.016,0 12.739,5.723 12.739,12.741 0,7.017 -5.723,12.74 -12.739,12.74 -7.019,0 -12.741,-5.723 -12.741,-12.74 C -12.741,5.723 -7.019,0 0,0 Z" /></g></g></g><text
       id="text132"
       style="font-variant:normal;font-weight:bold;font-stretch:normal;font-size:17.46660042px;font-family:Roboto;-inkscape-font-specification:Roboto-Bold;writing-mode:lr-tb;fill:#000000;fill-opacity:1;fill-rule:nonzero;stroke:none"
       transform="matrix(1,0,0,-1,330.0835,200.3877)"><tspan
         id="tspan130"
         y="0"
         x="0">3</tspan></text>
<text
       id="text136"
       style="font-variant:normal;font-weight:normal;font-stretch:normal;font-size:11.95219994px;font-family:Roboto;-inkscape-font-specification:Roboto-Regular;writing-mode:lr-tb;fill:#000000;fill-opacity:1;fill-rule:nonzero;stroke:none"
       transform="matrix(1,0,0,-1,319.9507,180.1504)"><tspan
         id="tspan134"
         y="0"
         x="0 6.7290888 13.458178 16.661367 23.390455">19.54</tspan></text>
<g
       id="g138"><g
         clip-path="url(#clipPath144)"
         id="g140"><g
           transform="translate(151.106,219.542)"
           id="g146"><path
             id="path148"
             style="fill:none;stroke:#384d71;stroke-width:1.12399995;stroke-linecap:round;stroke-linejoin:round;stroke-miterlimit:10;stroke-dasharray:none;stroke-opacity:1"
             d="M 0,0 C 7.017,0 12.741,5.724 12.741,12.741 12.741,19.757 7.017,25.48 0,25.48 -7.017,25.48 -12.74,19.757 -12.74,12.741 -12.74,5.724 -7.017,0 0,0 Z" /></g></g></g><text
       id="text152"
       style="font-variant:normal;font-weight:bold;font-stretch:normal;font-size:17.46660042px;font-family:Roboto;-inkscape-font-specification:Roboto-Bold;writing-mode:lr-tb;fill:#000000;fill-opacity:1;fill-rule:nonzero;stroke:none"
       transform="matrix(1,0,0,-1,146.4434,225.9854)"><tspan
         id="tspan150"
         y="0"
         x="0">1</tspan></text>
<text
       id="text156"
       style="font-variant:normal;font-weight:normal;font-stretch:normal;font-size:11.95219994px;font-family:Roboto;-inkscape-font-specification:Roboto-Regular;writing-mode:lr-tb;fill:#000000;fill-opacity:1;fill-rule:nonzero;stroke:none"
       transform="matrix(1,0,0,-1,139.6748,205.7466)"><tspan
         id="tspan154"
         y="0"
         x="0 6.7290888 9.9322786 16.661367">9.00</tspan></text>
<g
       id="g158"><g
         clip-path="url(#clipPath164)"
         id="g160"><g
           transform="translate(106.6133,102.0576)"
           id="g166"><path
             id="path168"
             style="fill:none;stroke:#384d71;stroke-width:1.12399995;stroke-linecap:round;stroke-linejoin:round;stroke-miterlimit:10;stroke-dasharray:none;stroke-opacity:1"
             d="M 0,0 C 7.018,0 12.741,5.724 12.741,12.741 12.741,19.758 7.018,25.48 0,25.48 -7.017,25.48 -12.74,19.758 -12.74,12.741 -12.74,5.724 -7.017,0 0,0 Z" /></g></g></g><text
       id="text172"
       style="font-variant:normal;font-weight:bold;font-stretch:normal;font-size:17.46660042px;font-family:Roboto;-inkscape-font-specification:Roboto-Bold;writing-mode:lr-tb;fill:#000000;fill-opacity:1;fill-rule:nonzero;stroke:none"
       transform="matrix(1,0,0,-1,101.9502,108.501)"><tspan
         id="tspan170"
         y="0"
         x="0">4</tspan></text>
<text
       id="text176"
       style="font-variant:normal;font-weight:normal;font-stretch:normal;font-size:11.95219994px;font-family:Roboto;-inkscape-font-specification:Roboto-Regular;writing-mode:lr-tb;fill:#000000;fill-opacity:1;fill-rule:nonzero;stroke:none"
       transform="matrix(1,0,0,-1,95.1826,88.2627)"><tspan
         id="tspan174"
         y="0"
         x="0 6.7290888 9.9322786 16.661367">9.42</tspan></text>
<g
       id="g178"><g
         clip-path="url(#clipPath184)"
         id="g180"><g
           transform="translate(13.3022,190.02)"
           id="g186"><path
             id="path188"
             style="fill:none;stroke:#384d71;stroke-width:1.12399995;stroke-linecap:round;stroke-linejoin:round;stroke-miterlimit:10;stroke-dasharray:none;stroke-opacity:1"
             d="M 0,0 C 7.017,0 12.74,5.723 12.74,12.74 12.74,19.757 7.017,25.48 0,25.48 -7.017,25.48 -12.74,19.757 -12.74,12.74 -12.74,5.723 -7.017,0 0,0 Z" /></g></g></g><text
       id="text192"
       style="font-variant:normal;font-weight:bold;font-stretch:normal;font-size:17.46660042px;font-family:Roboto;-inkscape-font-specification:Roboto-Bold;writing-mode:lr-tb;fill:#000000;fill-opacity:1;fill-rule:nonzero;stroke:none"
       transform="matrix(1,0,0,-1,8.6387,196.4619)"><tspan
         id="tspan190"
         y="0"
         x="0">5</tspan></text>
<text
       id="text196"
       style="font-variant:normal;font-weight:normal;font-stretch:normal;font-size:11.95219994px;font-family:Roboto;-inkscape-font-specification:Roboto-Regular;writing-mode:lr-tb;fill:#000000;fill-opacity:1;fill-rule:nonzero;stroke:none"
       transform="matrix(1,0,0,-1,1.8711,176.2241)"><tspan
         id="tspan194"
         y="0"
         x="0 6.7290888 9.9322786 16.661367">3.11</tspan></text>
<g
       id="g198"><g
         clip-path="url(#clipPath204)"
         id="g200"><g
           transform="translate(13.3022,250.6978)"
           id="g206"><path
             id="path208"
             style="fill:none;stroke:#384d71;stroke-width:1.12399995;stroke-linecap:round;stroke-linejoin:round;stroke-miterlimit:10;stroke-dasharray:none;stroke-opacity:1"
             d="M 0,0 C 7.017,0 12.74,5.724 12.74,12.74 12.74,19.757 7.017,25.48 0,25.48 -7.017,25.48 -12.74,19.757 -12.74,12.74 -12.74,5.724 -7.017,0 0,0 Z" /></g></g></g><text
       id="text212"
       style="font-variant:normal;font-weight:bold;font-stretch:normal;font-size:17.46660042px;font-family:Roboto;-inkscape-font-specification:Roboto-Bold;writing-mode:lr-tb;fill:#000000;fill-opacity:1;fill-rule:nonzero;stroke:none"
       transform="matrix(1,0,0,-1,8.6387,257.1401)"><tspan
         id="tspan210"
         y="0"
         x="0">6</tspan></text>
<text
       id="text216"
       style="font-variant:normal;font-weight:normal;font-stretch:normal;font-size:11.95219994px;font-family:Roboto;-inkscape-font-specification:Roboto-Regular;writing-mode:lr-tb;fill:#000000;fill-opacity:1;fill-rule:nonzero;stroke:none"
       transform="matrix(1,0,0,-1,1.8711,236.9023)"><tspan
         id="tspan214"
         y="0"
         x="0 6.7290888 9.9322786 16.661367">1.73</tspan></text>
<g
       id="g218"><g
         clip-path="url(#clipPath224)"
         id="g220"><g
           transform="translate(79.2461,170.3003)"
           id="g226"><path
             id="path228"
             style="fill:none;stroke:#000000;stroke-width:0.95599997;stroke-linecap:round;stroke-linejoin:round;stroke-miterlimit:22.9260006;stroke-dasharray:none;stroke-opacity:1"
             d="M 0,0 H -78.685" /></g><g
           transform="translate(79.2461,230.6719)"
           id="g230"><path
             id="path232"
             style="fill:none;stroke:#000000;stroke-width:0.95599997;stroke-linecap:round;stroke-linejoin:round;stroke-miterlimit:22.9260006;stroke-dasharray:none;stroke-opacity:1"
             d="M 0,0 H -78.685" /></g><g
           transform="translate(47.1514,0.5625)"
           id="g234"><path
             id="path236"
             style="fill:#ffffff;fill-opacity:1;fill-rule:evenodd;stroke:none"
             d="m 0,0 v 3.765 h 85.887 c 6.479,6.478 12.957,12.957 19.436,19.436 v 20.893 h 3.765 V 21.641 C 101.874,14.428 94.66,7.214 87.447,0 Z" /></g><g
           transform="translate(47.1514,0.5625)"
           id="g238"><path
             id="path240"
             style="fill:none;stroke:#384c71;stroke-width:1.12399995;stroke-linecap:round;stroke-linejoin:round;stroke-miterlimit:22.9260006;stroke-dasharray:none;stroke-opacity:1"
             d="m 0,0 v 3.765 h 85.887 c 6.479,6.478 12.957,12.957 19.436,19.436 v 20.893 h 3.765 V 21.641 C 101.874,14.428 94.66,7.214 87.447,0 Z" /></g></g></g></g></svg>