<?xml version="1.0" encoding="UTF-8" standalone="no"?>
<svg
   xmlns:dc="http://purl.org/dc/elements/1.1/"
   xmlns:cc="http://creativecommons.org/ns#"
   xmlns:rdf="http://www.w3.org/1999/02/22-rdf-syntax-ns#"
   xmlns:svg="http://www.w3.org/2000/svg"
   xmlns="http://www.w3.org/2000/svg"
   viewBox="0 0 534.83197 388.21066"
   height="388.21066"
   width="534.83197"
   xml:space="preserve"
   id="svg2"
   version="1.1"><metadata
     id="metadata8"><rdf:RDF><cc:Work
         rdf:about=""><dc:format>image/svg+xml</dc:format><dc:type
           rdf:resource="http://purl.org/dc/dcmitype/StillImage" /></cc:Work></rdf:RDF></metadata><defs
     id="defs6"><clipPath
       id="clipPath18"
       clipPathUnits="userSpaceOnUse"><path
         id="path16"
         d="M 0,291.158 H 401.124 V 0 H 0 Z" /></clipPath><clipPath
       id="clipPath54"
       clipPathUnits="userSpaceOnUse"><path
         id="path52"
         d="M 0,291.158 H 401.124 V 0 H 0 Z" /></clipPath><clipPath
       id="clipPath74"
       clipPathUnits="userSpaceOnUse"><path
         id="path72"
         d="M 0,291.158 H 401.124 V 0 H 0 Z" /></clipPath><clipPath
       id="clipPath94"
       clipPathUnits="userSpaceOnUse"><path
         id="path92"
         d="M 0,291.158 H 401.124 V 0 H 0 Z" /></clipPath><clipPath
       id="clipPath114"
       clipPathUnits="userSpaceOnUse"><path
         id="path112"
         d="M 0,291.158 H 401.124 V 0 H 0 Z" /></clipPath><clipPath
       id="clipPath134"
       clipPathUnits="userSpaceOnUse"><path
         id="path132"
         d="M 0,291.158 H 401.124 V 0 H 0 Z" /></clipPath><clipPath
       id="clipPath154"
       clipPathUnits="userSpaceOnUse"><path
         id="path152"
         d="M 0,291.158 H 401.124 V 0 H 0 Z" /></clipPath><clipPath
       id="clipPath174"
       clipPathUnits="userSpaceOnUse"><path
         id="path172"
         d="M 0,291.158 H 401.124 V 0 H 0 Z" /></clipPath></defs><g
     transform="matrix(1.3333333,0,0,-1.3333333,0,388.21067)"
     id="g10"><g
       id="g12"><g
         clip-path="url(#clipPath18)"
         id="g14"><g
           transform="translate(337.4751,202.3262)"
           id="g20"><path
             id="path22"
             style="fill:none;stroke:#384d71;stroke-width:1.12399995;stroke-linecap:round;stroke-linejoin:round;stroke-miterlimit:10;stroke-dasharray:none;stroke-opacity:1"
             d="M 0,0 V 1.692 M 0,5.329 V 3.637 M -2.664,2.665 h 1.692 m 3.636,0 H 0.973 m -2.569,0 c 0,-0.882 0.714,-1.596 1.596,-1.596 0.883,0 1.596,0.714 1.596,1.596 0,0.882 -0.713,1.596 -1.596,1.596 -0.882,0 -1.596,-0.714 -1.596,-1.596 z m 6.739,-6.669 h -30.699 c -3.645,0 -6.601,2.956 -6.601,6.602 0,3.645 2.956,6.601 6.601,6.601 H 5.143 c 0.695,0 1.263,-0.567 1.263,-1.263 V -2.741 c 0,-0.696 -0.568,-1.263 -1.263,-1.263 z m 2.586,-3.385 h -39.474 c -5.515,0 -9.987,4.472 -9.987,9.987 0,5.513 4.472,9.986 9.987,9.986 H 7.729 c 1.054,0 1.913,-0.858 1.913,-1.911 V -5.478 c 0,-1.053 -0.859,-1.911 -1.913,-1.911 z M -43.35,-9.335 H 11.394 V 14.531 H -43.35 Z" /></g><g
           transform="translate(343.0034,247.4478)"
           id="g24"><path
             id="path26"
             style="fill:none;stroke:#384d71;stroke-width:1.12399995;stroke-linecap:round;stroke-linejoin:round;stroke-miterlimit:10;stroke-dasharray:none;stroke-opacity:1"
             d="m 0,0 c -3.239,0 -5.205,0.81 -7.406,0.81 -3.442,0 -8.573,-2.321 -8.573,-6.473 0,-4.152 5.131,-6.473 8.573,-6.473 2.201,0 4.167,0.809 7.406,0.809 m -13.188,8.286 c 2.254,-0.969 2.254,-4.276 0,-5.244 m 12.986,5.453 c -5.277,2.992 -14.157,1.941 -14.157,-2.831 0,-4.772 8.88,-5.824 14.157,-2.831 m 2.463,2.831 c 0,-0.427 0.346,-0.773 0.772,-0.773 0.428,0 0.775,0.346 0.775,0.773 0,0.427 -0.347,0.773 -0.775,0.773 -0.426,0 -0.772,-0.346 -0.772,-0.773 z m -2.463,4.753 v -9.507 c 0,-0.89 0.729,-1.618 1.618,-1.618 h 3.236 c 0.89,0 1.619,0.728 1.619,1.618 v 9.507 c 0,0.89 -0.729,1.619 -1.619,1.619 H 1.416 c -0.889,0 -1.618,-0.729 -1.618,-1.619 z" /></g><g
           transform="translate(347.2476,180.9331)"
           id="g28"><path
             id="path30"
             style="fill:none;stroke:#384d71;stroke-width:1.12399995;stroke-linecap:round;stroke-linejoin:round;stroke-miterlimit:10;stroke-dasharray:none;stroke-opacity:1"
             d="M 0,0 V 1.307 M -0.653,0.654 H 0.654 M -3.982,0.653 c 0,-0.267 0.214,-0.482 0.48,-0.482 0.266,0 0.482,0.215 0.482,0.482 0,0.267 -0.216,0.482 -0.482,0.482 -0.266,0 -0.48,-0.215 -0.48,-0.482 z m 2.233,4.746 V -4.09 h -1.983 c -2.583,0 -3.301,2.601 -3.301,4.744 0,2.143 0.718,4.745 3.301,4.745 z M -8.627,0.654 c 0,4.962 2.843,6.337 4.895,6.337 H 1.622 V -5.684 h -5.354 c -2.052,0 -4.895,1.375 -4.895,6.338 z" /></g><g
           transform="translate(347.0923,84.1621)"
           id="g32"><path
             id="path34"
             style="fill:none;stroke:#384d71;stroke-width:1.12399995;stroke-linecap:round;stroke-linejoin:round;stroke-miterlimit:10;stroke-dasharray:none;stroke-opacity:1"
             d="m 0,0 v 15.237 m -5.528,-3.393 c 0,0.858 0.695,1.553 1.553,1.553 0.856,0 1.552,-0.695 1.552,-1.553 0,-0.859 -0.696,-1.553 -1.552,-1.553 -0.858,0 -1.553,0.694 -1.553,1.553 z m 0,-8.452 c 0,0.856 0.695,1.552 1.553,1.552 0.856,0 1.552,-0.696 1.552,-1.552 0,-0.859 -0.696,-1.554 -1.552,-1.554 -0.858,0 -1.553,0.695 -1.553,1.554 z m -7.756,8.452 c 0,0.858 0.693,1.553 1.552,1.553 0.858,0 1.553,-0.695 1.553,-1.553 0,-0.859 -0.695,-1.553 -1.553,-1.553 -0.859,0 -1.552,0.694 -1.552,1.553 z m 0,-8.452 c 0,0.856 0.693,1.552 1.552,1.552 0.858,0 1.553,-0.696 1.553,-1.552 0,-0.859 -0.695,-1.554 -1.553,-1.554 -0.859,0 -1.552,0.695 -1.552,1.554 z m -2.627,11.845 H 2.291 V 0 h -18.202 z m 15.505,51.788 v 7.551 m -13.348,-7.551 v 7.551 m 1.907,-7.55 v 7.55 m 1.908,-7.55 v 7.55 m 1.907,-7.55 v 7.55 m 1.904,-7.55 v 7.55 m 1.907,-7.55 v 7.55 m 1.908,-7.55 v 7.55 m -0.25,-18.14 v 1.885 m -1.482,-0.942 h 5.043 m -17.449,-5.395 v 10.788 c 0,1.079 0.883,1.962 1.962,1.962 h 13.525 c 1.08,0 1.962,-0.883 1.962,-1.962 V 51.984 c 0,-1.078 -0.882,-1.962 -1.962,-1.962 h -13.525 c -1.079,0 -1.962,0.884 -1.962,1.962 z m -1.35,-34.861 h 21.98 m -21.98,30.891 h 21.98 m 0,-49.902 h -21.98 v 79.161 h 21.98" /></g><g
           transform="translate(276.6606,20.3887)"
           id="g36"><path
             id="path38"
             style="fill:none;stroke:#384d71;stroke-width:1.12399995;stroke-linecap:round;stroke-linejoin:round;stroke-miterlimit:10;stroke-dasharray:none;stroke-opacity:1"
             d="M 0,0 C 7.019,0 12.741,5.722 12.741,12.739 12.741,19.757 7.019,25.48 0,25.48 -7.017,25.48 -12.74,19.757 -12.74,12.739 -12.74,5.722 -7.017,0 0,0 Z" /></g></g></g><text
       id="text42"
       style="font-variant:normal;font-weight:bold;font-stretch:normal;font-size:17.46660042px;font-family:Roboto;-inkscape-font-specification:Roboto-Bold;writing-mode:lr-tb;fill:#000000;fill-opacity:1;fill-rule:nonzero;stroke:none"
       transform="matrix(1,0,0,-1,271.9976,26.8291)"><tspan
         id="tspan40"
         y="0"
         x="0">9</tspan></text>
<text
       id="text46"
       style="font-variant:normal;font-weight:normal;font-stretch:normal;font-size:11.95219994px;font-family:Roboto;-inkscape-font-specification:Roboto-Regular;writing-mode:lr-tb;fill:#000000;fill-opacity:1;fill-rule:nonzero;stroke:none"
       transform="matrix(1,0,0,-1,265.23,6.5918)"><tspan
         id="tspan44"
         y="0"
         x="0 6.7290888 9.926302 16.65539">3.45</tspan></text>
<g
       id="g48"><g
         clip-path="url(#clipPath54)"
         id="g50"><g
           transform="translate(190.4146,136.9648)"
           id="g56"><path
             id="path58"
             style="fill:none;stroke:#384d71;stroke-width:1.12399995;stroke-linecap:round;stroke-linejoin:round;stroke-miterlimit:10;stroke-dasharray:none;stroke-opacity:1"
             d="m 0,0 c 7.018,0 12.741,5.724 12.741,12.741 0,7.018 -5.723,12.741 -12.741,12.741 -7.017,0 -12.741,-5.723 -12.741,-12.741 C -12.741,5.724 -7.017,0 0,0 Z" /></g></g></g><text
       id="text62"
       style="font-variant:normal;font-weight:bold;font-stretch:normal;font-size:17.46660042px;font-family:Roboto;-inkscape-font-specification:Roboto-Bold;writing-mode:lr-tb;fill:#000000;fill-opacity:1;fill-rule:nonzero;stroke:none"
       transform="matrix(1,0,0,-1,185.751,143.4072)"><tspan
         id="tspan60"
         y="0"
         x="0">2</tspan></text>
<text
       id="text66"
       style="font-variant:normal;font-weight:normal;font-stretch:normal;font-size:11.95219994px;font-family:Roboto;-inkscape-font-specification:Roboto-Regular;writing-mode:lr-tb;fill:#000000;fill-opacity:1;fill-rule:nonzero;stroke:none"
       transform="matrix(1,0,0,-1,175.6182,123.1699)"><tspan
         id="tspan64"
         y="0"
         x="0 6.7290888 13.458178 16.661367 23.390455">18.06</tspan></text>
<g
       id="g68"><g
         clip-path="url(#clipPath74)"
         id="g70"><g
           transform="translate(66.2017,193.9453)"
           id="g76"><path
             id="path78"
             style="fill:none;stroke:#384d71;stroke-width:1.12399995;stroke-linecap:round;stroke-linejoin:round;stroke-miterlimit:10;stroke-dasharray:none;stroke-opacity:1"
             d="m 0,0 c 7.017,0 12.741,5.724 12.741,12.741 0,7.017 -5.724,12.74 -12.741,12.74 -7.018,0 -12.741,-5.723 -12.741,-12.74 C -12.741,5.724 -7.018,0 0,0 Z" /></g></g></g><text
       id="text82"
       style="font-variant:normal;font-weight:bold;font-stretch:normal;font-size:17.46660042px;font-family:Roboto;-inkscape-font-specification:Roboto-Bold;writing-mode:lr-tb;fill:#000000;fill-opacity:1;fill-rule:nonzero;stroke:none"
       transform="matrix(1,0,0,-1,61.5381,200.3867)"><tspan
         id="tspan80"
         y="0"
         x="0">3</tspan></text>
<text
       id="text86"
       style="font-variant:normal;font-weight:normal;font-stretch:normal;font-size:11.95219994px;font-family:Roboto;-inkscape-font-specification:Roboto-Regular;writing-mode:lr-tb;fill:#000000;fill-opacity:1;fill-rule:nonzero;stroke:none"
       transform="matrix(1,0,0,-1,51.4053,180.1489)"><tspan
         id="tspan84"
         y="0"
         x="0 6.7290888 13.458178 16.661367 23.390455">19.54</tspan></text>
<g
       id="g88"><g
         clip-path="url(#clipPath94)"
         id="g90"><g
           transform="translate(250.0181,219.542)"
           id="g96"><path
             id="path98"
             style="fill:none;stroke:#384d71;stroke-width:1.12399995;stroke-linecap:round;stroke-linejoin:round;stroke-miterlimit:10;stroke-dasharray:none;stroke-opacity:1"
             d="M 0,0 C 7.018,0 12.739,5.724 12.739,12.741 12.739,19.757 7.018,25.48 0,25.48 -7.017,25.48 -12.74,19.757 -12.74,12.741 -12.74,5.724 -7.017,0 0,0 Z" /></g></g></g><text
       id="text102"
       style="font-variant:normal;font-weight:bold;font-stretch:normal;font-size:17.46660042px;font-family:Roboto;-inkscape-font-specification:Roboto-Bold;writing-mode:lr-tb;fill:#000000;fill-opacity:1;fill-rule:nonzero;stroke:none"
       transform="matrix(1,0,0,-1,245.355,225.9844)"><tspan
         id="tspan100"
         y="0"
         x="0">1</tspan></text>
<text
       id="text106"
       style="font-variant:normal;font-weight:normal;font-stretch:normal;font-size:11.95219994px;font-family:Roboto;-inkscape-font-specification:Roboto-Regular;writing-mode:lr-tb;fill:#000000;fill-opacity:1;fill-rule:nonzero;stroke:none"
       transform="matrix(1,0,0,-1,238.5874,205.7456)"><tspan
         id="tspan104"
         y="0"
         x="0 6.7290888 9.926302 16.65539">9.00</tspan></text>
<g
       id="g108"><g
         clip-path="url(#clipPath114)"
         id="g110"><g
           transform="translate(294.5112,102.0576)"
           id="g116"><path
             id="path118"
             style="fill:none;stroke:#384d71;stroke-width:1.12399995;stroke-linecap:round;stroke-linejoin:round;stroke-miterlimit:10;stroke-dasharray:none;stroke-opacity:1"
             d="M 0,0 C 7.017,0 12.74,5.724 12.74,12.741 12.74,19.758 7.017,25.48 0,25.48 -7.019,25.48 -12.742,19.758 -12.742,12.741 -12.742,5.724 -7.019,0 0,0 Z" /></g></g></g><text
       id="text122"
       style="font-variant:normal;font-weight:bold;font-stretch:normal;font-size:17.46660042px;font-family:Roboto;-inkscape-font-specification:Roboto-Bold;writing-mode:lr-tb;fill:#000000;fill-opacity:1;fill-rule:nonzero;stroke:none"
       transform="matrix(1,0,0,-1,289.8472,108.5)"><tspan
         id="tspan120"
         y="0"
         x="0">4</tspan></text>
<text
       id="text126"
       style="font-variant:normal;font-weight:normal;font-stretch:normal;font-size:11.95219994px;font-family:Roboto;-inkscape-font-specification:Roboto-Regular;writing-mode:lr-tb;fill:#000000;fill-opacity:1;fill-rule:nonzero;stroke:none"
       transform="matrix(1,0,0,-1,283.0776,88.2617)"><tspan
         id="tspan124"
         y="0"
         x="0 6.7290888 9.926302 16.65539">9.42</tspan></text>
<g
       id="g128"><g
         clip-path="url(#clipPath134)"
         id="g130"><g
           transform="translate(387.8218,190.02)"
           id="g136"><path
             id="path138"
             style="fill:none;stroke:#384d71;stroke-width:1.12399995;stroke-linecap:round;stroke-linejoin:round;stroke-miterlimit:10;stroke-dasharray:none;stroke-opacity:1"
             d="M 0,0 C 7.017,0 12.74,5.723 12.74,12.74 12.74,19.757 7.017,25.48 0,25.48 -7.016,25.48 -12.739,19.757 -12.739,12.74 -12.739,5.723 -7.016,0 0,0 Z" /></g></g></g><text
       id="text142"
       style="font-variant:normal;font-weight:bold;font-stretch:normal;font-size:17.46660042px;font-family:Roboto;-inkscape-font-specification:Roboto-Bold;writing-mode:lr-tb;fill:#000000;fill-opacity:1;fill-rule:nonzero;stroke:none"
       transform="matrix(1,0,0,-1,383.1577,196.4614)"><tspan
         id="tspan140"
         y="0"
         x="0">5</tspan></text>
<text
       id="text146"
       style="font-variant:normal;font-weight:normal;font-stretch:normal;font-size:11.95219994px;font-family:Roboto;-inkscape-font-specification:Roboto-Regular;writing-mode:lr-tb;fill:#000000;fill-opacity:1;fill-rule:nonzero;stroke:none"
       transform="matrix(1,0,0,-1,376.3901,176.2236)"><tspan
         id="tspan144"
         y="0"
         x="0 6.7290888 9.926302 16.65539">3.11</tspan></text>
<g
       id="g148"><g
         clip-path="url(#clipPath154)"
         id="g150"><g
           transform="translate(387.8218,250.6978)"
           id="g156"><path
             id="path158"
             style="fill:none;stroke:#384d71;stroke-width:1.12399995;stroke-linecap:round;stroke-linejoin:round;stroke-miterlimit:10;stroke-dasharray:none;stroke-opacity:1"
             d="M 0,0 C 7.017,0 12.74,5.724 12.74,12.74 12.74,19.757 7.017,25.481 0,25.481 -7.016,25.481 -12.739,19.757 -12.739,12.74 -12.739,5.724 -7.016,0 0,0 Z" /></g></g></g><text
       id="text162"
       style="font-variant:normal;font-weight:bold;font-stretch:normal;font-size:17.46660042px;font-family:Roboto;-inkscape-font-specification:Roboto-Bold;writing-mode:lr-tb;fill:#000000;fill-opacity:1;fill-rule:nonzero;stroke:none"
       transform="matrix(1,0,0,-1,383.1577,257.1387)"><tspan
         id="tspan160"
         y="0"
         x="0">6</tspan></text>
<text
       id="text166"
       style="font-variant:normal;font-weight:normal;font-stretch:normal;font-size:11.95219994px;font-family:Roboto;-inkscape-font-specification:Roboto-Regular;writing-mode:lr-tb;fill:#000000;fill-opacity:1;fill-rule:nonzero;stroke:none"
       transform="matrix(1,0,0,-1,376.3901,236.9014)"><tspan
         id="tspan164"
         y="0"
         x="0 6.7290888 9.926302 16.65539">1.73</tspan></text>
<g
       id="g168"><g
         clip-path="url(#clipPath174)"
         id="g170"><path
           id="path176"
           style="fill:#384c71;fill-opacity:1;fill-rule:evenodd;stroke:none"
           d="m 209.018,44.656 h -3.507 v 9.167 h 3.507 z m 0,176.906 -4.181,4.18 h -5.325 -67.216 -3.766 v -3.765 -107.746 h -5.401 -41.803 v -9.167 h 41.803 V 53.823 44.656 h 9.167 16.045 v 9.167 h -16.045 v 51.241 5.403 3.764 107.746 h 70.981 l 5.741,-5.739 z m 0,45.167 v -9.167 h -23.6 -9.166 v 9.167 14.7 H 132.296 V 254.46 h -3.766 v 26.969 H 9.729 V 114.231 h 23.864 v -9.167 H 9.729 0.562 v 9.167 167.198 9.167 h 9.167 166.523 6.338 2.828 v -23.867 z m 0,0 h 31.552 v -9.167 h -31.552 z m 0,-50.491 v 5.324 l 3.505,-3.507 -2.662,-2.662 z m 0,-171.582 v 9.167 h 36.685 v 125.729 l -6.581,6.581 2.662,2.662 7.685,-7.684 V 175.787 165.2 h 5.392 v -3.765 h -5.392 V 53.823 h 10.249 v -9.167 z m 151.42,0 h -2.7 V 0.562 h -3.766 v 44.094 h -2.701 -38.968 v 9.167 h 38.968 v 107.612 h -67.419 v 3.765 h 3.911 v 1.617 h 3.764 V 165.2 h 59.744 v 54.214 h -59.744 v -30.348 h -3.764 v 30.348 3.765 h 3.764 59.744 v 34.383 h -59.744 v -12.133 h -3.764 v 12.133 h -15.371 v 9.167 h 78.879 9.167 V 257.562 53.823 Z" /><g
           transform="translate(132.2959,254.4604)"
           id="g178"><path
             id="path180"
             style="fill:none;stroke:#384c71;stroke-width:1.12399995;stroke-linecap:round;stroke-linejoin:round;stroke-miterlimit:22.9260006;stroke-dasharray:none;stroke-opacity:1"
             d="m 0,0 h -3.766 v 26.969 h -118.801 v -167.198 h 23.864 v -9.167 h -23.864 -9.167 v 9.167 167.198 9.166 h 9.167 166.523 6.338 2.829 V 12.269 h 55.151 V 3.102 H 53.123 43.956 v 9.167 14.7 L 0,26.969 Z m 113.407,-74.909 -6.581,6.582 2.662,2.662 7.685,-7.685 v -5.323 -10.587 h 5.392 v -3.765 h -5.392 v -107.612 h 10.249 v -9.167 H 73.215 v 9.167 h 40.192 z m -35.842,35.842 -6.584,6.584 H 0 v -107.746 -3.765 -5.402 -51.241 h 16.045 v -9.167 H 0 -9.167 v 9.167 51.241 H -50.97 v 9.167 h 41.803 5.401 v 107.746 3.764 H 0 67.216 72.542 l 7.685,-7.686 z m 150.577,-170.737 h -2.7 v -44.094 h -3.766 v 44.094 h -2.701 -38.968 v 9.167 h 38.968 v 107.612 h -67.419 v 3.765 h 3.911 v 1.617 h 3.764 v -1.617 h 59.744 v 54.213 h -59.744 v -30.347 h -3.764 v 30.347 3.765 h 3.764 59.744 V 3.102 H 159.231 V -9.032 h -3.764 V 3.102 h -15.371 v 9.167 h 78.879 9.167 V 3.102 -200.637 Z" /></g><path
           id="path182"
           style="fill:#ffffff;fill-opacity:1;fill-rule:nonzero;stroke:#384c71;stroke-width:1.12399995;stroke-linecap:round;stroke-linejoin:round;stroke-miterlimit:22.9260006;stroke-dasharray:none;stroke-opacity:1"
           d="M 81.326,111.529 H 33.593 v -3.765 h 47.733 z" /><path
           id="path184"
           style="fill:#ffffff;fill-opacity:1;fill-rule:nonzero;stroke:#384c71;stroke-width:1.12399995;stroke-linecap:round;stroke-linejoin:round;stroke-miterlimit:22.9260006;stroke-dasharray:none;stroke-opacity:1"
           d="m 205.511,51.122 h -57.17 v -3.766 h 57.17 z" /><path
           id="path186"
           style="fill:#ffffff;fill-opacity:1;fill-rule:nonzero;stroke:#384c71;stroke-width:1.12399995;stroke-linecap:round;stroke-linejoin:round;stroke-miterlimit:22.9260006;stroke-dasharray:none;stroke-opacity:1"
           d="m 283.583,47.356 h 28.721 v 3.766 h -28.721 z" /><g
           transform="translate(240.5698,266.7295)"
           id="g188"><path
             id="path190"
             style="fill:none;stroke:#384c71;stroke-width:2.24900007;stroke-linecap:round;stroke-linejoin:round;stroke-miterlimit:22.9260006;stroke-dasharray:none;stroke-opacity:1"
             d="M 0,0 27.642,15.909" /></g><g
           transform="translate(291.5269,223.1787)"
           id="g192"><path
             id="path194"
             style="fill:none;stroke:#384c71;stroke-width:2.24900007;stroke-linecap:round;stroke-linejoin:round;stroke-miterlimit:22.9260006;stroke-dasharray:none;stroke-opacity:1"
             d="M 0,0 11.203,19.283" /></g><g
           transform="translate(132.2959,225.7417)"
           id="g196"><path
             id="path198"
             style="fill:none;stroke:#384c71;stroke-width:2.24900007;stroke-linecap:round;stroke-linejoin:round;stroke-miterlimit:22.9260006;stroke-dasharray:none;stroke-opacity:1"
             d="M 0,0 14.292,24.809" /></g><g
           transform="translate(210.769,216.3027)"
           id="g200"><path
             id="path202"
             style="fill:none;stroke:#384c71;stroke-width:2.24900007;stroke-linecap:round;stroke-linejoin:round;stroke-miterlimit:22.9260006;stroke-dasharray:none;stroke-opacity:1"
             d="M 0,0 2.563,-15.101" /></g><g
           transform="translate(213.8726,194.0547)"
           id="g204"><path
             id="path206"
             style="fill:none;stroke:#384c71;stroke-width:2.24900007;stroke-linecap:round;stroke-linejoin:round;stroke-miterlimit:22.9260006;stroke-dasharray:none;stroke-opacity:1"
             d="M 0,0 26.157,-7.012" /></g><g
           transform="translate(291.5269,166.0088)"
           id="g208"><path
             id="path210"
             style="fill:none;stroke:#384c71;stroke-width:2.24900007;stroke-linecap:round;stroke-linejoin:round;stroke-miterlimit:22.9260006;stroke-dasharray:none;stroke-opacity:1"
             d="M 0,0 11.203,20.091" /></g><g
           transform="translate(291.5376,223.1787)"
           id="g212"><path
             id="path214"
             style="fill:none;stroke:#384c71;stroke-width:2.24900007;stroke-linecap:round;stroke-linejoin:round;stroke-miterlimit:22.9260006;stroke-dasharray:none;stroke-opacity:1"
             d="M 0,0 11.192,19.283" /></g><g
           transform="translate(254.8608,162.6377)"
           id="g216"><path
             id="path218"
             style="fill:none;stroke:#384c71;stroke-width:2.24900007;stroke-linecap:round;stroke-linejoin:round;stroke-miterlimit:22.9260006;stroke-dasharray:none;stroke-opacity:1"
             d="M 0,0 25.217,-14.427" /></g><g
           transform="translate(259.7183,53.8232)"
           id="g220"><path
             id="path222"
             style="fill:none;stroke:#384c71;stroke-width:2.24900007;stroke-linecap:round;stroke-linejoin:round;stroke-miterlimit:22.9260006;stroke-dasharray:none;stroke-opacity:1"
             d="M 0,0 19.769,11.371" /></g><g
           transform="translate(321.8784,170.3003)"
           id="g224"><path
             id="path226"
             style="fill:none;stroke:#000000;stroke-width:0.95599997;stroke-linecap:round;stroke-linejoin:round;stroke-miterlimit:22.9260006;stroke-dasharray:none;stroke-opacity:1"
             d="M 0,0 H 78.684" /></g><g
           transform="translate(321.8784,230.6719)"
           id="g228"><path
             id="path230"
             style="fill:none;stroke:#000000;stroke-width:0.95599997;stroke-linecap:round;stroke-linejoin:round;stroke-miterlimit:22.9260006;stroke-dasharray:none;stroke-opacity:1"
             d="M 0,0 H 78.684" /></g><g
           transform="translate(353.9722,0.5625)"
           id="g232"><path
             id="path234"
             style="fill:#ffffff;fill-opacity:1;fill-rule:evenodd;stroke:none"
             d="m 0,0 v 3.765 h -85.886 c -6.478,6.478 -12.957,12.957 -19.435,19.436 v 20.893 h -3.767 V 21.641 C -101.874,14.427 -94.66,7.214 -87.446,0 Z" /></g><g
           transform="translate(353.9722,0.5625)"
           id="g236"><path
             id="path238"
             style="fill:none;stroke:#384c71;stroke-width:1.12399995;stroke-linecap:round;stroke-linejoin:round;stroke-miterlimit:22.9260006;stroke-dasharray:none;stroke-opacity:1"
             d="m 0,0 v 3.765 h -85.886 c -6.478,6.478 -12.957,12.957 -19.435,19.436 v 20.893 h -3.767 V 21.641 C -101.874,14.427 -94.66,7.214 -87.446,0 Z" /></g></g></g></g></svg>