<?xml version="1.0" encoding="UTF-8" standalone="no"?>
<svg
   xmlns:dc="http://purl.org/dc/elements/1.1/"
   xmlns:cc="http://creativecommons.org/ns#"
   xmlns:rdf="http://www.w3.org/1999/02/22-rdf-syntax-ns#"
   xmlns:svg="http://www.w3.org/2000/svg"
   xmlns="http://www.w3.org/2000/svg"
   viewBox="0 0 501.41251 356.11249"
   height="356.11249"
   width="501.41251"
   xml:space="preserve"
   id="svg2"
   version="1.1"><metadata
     id="metadata8"><rdf:RDF><cc:Work
         rdf:about=""><dc:format>image/svg+xml</dc:format><dc:type
           rdf:resource="http://purl.org/dc/dcmitype/StillImage" /></cc:Work></rdf:RDF></metadata><defs
     id="defs6" /><g
     transform="matrix(1.25,0,0,-1.25,0,356.1125)"
     id="g10"><g
       transform="scale(0.1)"
       id="g12"><path
         id="path14"
         style="fill:none;stroke:#384d71;stroke-width:11.27999973;stroke-linecap:round;stroke-linejoin:round;stroke-miterlimit:10;stroke-dasharray:none;stroke-opacity:1"
         d="m 623.18,2031.27 v 16.98 m 0,36.52 v -17 m 26.75,-9.75 h -16.992 m -36.508,0 h 16.988 m 25.793,0 c 0,-8.86 -7.191,-16.02 -16.031,-16.02 -8.86,0 -16.032,7.16 -16.032,16.02 0,8.86 7.172,16.02 16.032,16.02 8.84,0 16.031,-7.16 16.031,-16.02 z m -67.66,-66.95 H 879.75 c 36.598,0 66.277,29.68 66.277,66.27 0,36.59 -29.679,66.27 -66.277,66.27 H 571.551 c -6.981,0 -12.692,-5.68 -12.692,-12.68 v -107.18 c 0,-6.98 5.711,-12.68 12.692,-12.68 z m -25.981,-33.98 h 396.321 c 55.359,0 100.259,44.89 100.259,100.25 0,55.36 -44.9,100.27 -100.259,100.27 H 545.57 c -10.57,0 -19.179,-8.63 -19.179,-19.2 v -162.14 c 0,-10.57 8.609,-19.18 19.179,-19.18 z m 512.82,-19.55 H 508.777 v 239.6 h 549.613 z" /><path
         id="path16"
         style="fill:none;stroke:#384d71;stroke-width:11.27999973;stroke-linecap:round;stroke-linejoin:round;stroke-miterlimit:10;stroke-dasharray:none;stroke-opacity:1"
         d="m 567.676,2484.26 c 32.512,0 52.262,8.13 74.359,8.13 34.539,0 86.051,-23.3 86.051,-64.99 0,-41.68 -51.512,-64.98 -86.051,-64.98 -22.097,0 -41.847,8.13 -74.359,8.13 m 132.398,83.18 c -22.629,-9.72 -22.629,-42.93 0,-52.64 m -130.367,54.74 c 53,30.04 142.141,19.48 142.141,-28.43 0,-47.9 -89.141,-58.46 -142.141,-28.42 m -24.742,28.42 c 0,-4.28 -3.469,-7.75 -7.75,-7.75 -4.289,0 -7.77,3.47 -7.77,7.75 0,4.29 3.481,7.77 7.77,7.77 4.281,0 7.75,-3.48 7.75,-7.77 z m 24.742,47.72 v -95.44 c 0,-8.94 -7.312,-16.25 -16.242,-16.25 h -32.5 c -8.93,0 -16.238,7.31 -16.238,16.25 v 95.44 c 0,8.94 7.308,16.25 16.238,16.25 h 32.5 c 8.93,0 16.242,-7.31 16.242,-16.25 z" /><path
         id="path18"
         style="fill:none;stroke:#384d71;stroke-width:11.27999973;stroke-linecap:round;stroke-linejoin:round;stroke-miterlimit:10;stroke-dasharray:none;stroke-opacity:1"
         d="m 525.063,1816.49 v 13.12 m 6.57,-6.56 h -13.141 m 46.563,-0.01 c 0,-2.67 -2.16,-4.84 -4.821,-4.84 -2.679,0 -4.839,2.17 -4.839,4.84 0,2.68 2.16,4.84 4.839,4.84 2.661,0 4.821,-2.16 4.821,-4.84 z m -22.434,47.65 v -95.27 h 19.922 c 25.941,0 33.141,26.12 33.141,47.63 0,21.52 -7.2,47.64 -33.141,47.64 z m 69.043,-47.64 c 0,49.82 -28.512,63.63 -49.121,63.63 h -53.762 v -127.26 h 53.762 c 20.609,0 49.121,13.81 49.121,63.63 z" /><path
         id="path20"
         style="fill:none;stroke:#384d71;stroke-width:11.27999973;stroke-linecap:round;stroke-linejoin:round;stroke-miterlimit:10;stroke-dasharray:none;stroke-opacity:1"
         d="m 526.641,844.941 v 152.981 m 55.492,-34.063 c 0,8.614 -6.981,15.59 -15.594,15.59 -8.617,0 -15.598,-6.976 -15.598,-15.59 0,-8.617 6.981,-15.589 15.598,-15.589 8.613,0 15.594,6.972 15.594,15.589 z m 0,-84.867 c 0,8.61 -6.981,15.59 -15.594,15.59 -8.617,0 -15.598,-6.98 -15.598,-15.59 0,-8.609 6.981,-15.59 15.598,-15.59 8.613,0 15.594,6.981 15.594,15.59 z M 660,963.859 c 0,8.614 -6.98,15.59 -15.598,15.59 -8.601,0 -15.582,-6.976 -15.582,-15.59 0,-8.617 6.981,-15.589 15.582,-15.589 8.618,0 15.598,6.972 15.598,15.589 z m 0,-84.867 c 0,8.61 -6.98,15.59 -15.598,15.59 -8.601,0 -15.582,-6.98 -15.582,-15.59 0,-8.609 6.981,-15.59 15.582,-15.59 8.618,0 15.598,6.981 15.598,15.59 z m 26.383,118.93 H 503.633 V 844.941 h 182.75 z M 530.699,1517.85 v 75.81 m 134.012,-75.81 v 75.81 m -19.148,-75.8 v 75.8 m -19.133,-75.8 v 75.8 m -19.149,-75.8 v 75.8 m -19.148,-75.8 v 75.8 m -19.141,-75.8 v 75.8 m -19.14,-75.8 v 75.8 m 2.507,-182.13 v 18.94 m 14.883,-9.47 h -50.64 m 175.187,-54.16 v 108.31 c 0,10.83 -8.859,19.7 -19.699,19.7 H 536.301 c -10.84,0 -19.699,-8.87 -19.699,-19.7 v -108.31 c 0,-10.83 8.859,-19.69 19.699,-19.69 H 672.09 c 10.84,0 19.699,8.86 19.699,19.69 z M 705.34,1016.85 H 484.672 M 705.34,1326.98 H 484.672 m 0,-500.988 H 705.34 V 1620.74 H 484.672" /><path
         id="path22"
         style="fill:#384c71;fill-opacity:1;fill-rule:evenodd;stroke:none"
         d="m 1912.84,540.359 v -92.027 h -509.01 v 92.027 h 102.9 V 1620.74 h -54.15 v 37.79 h 54.15 v 63.61 l 77.15,77.15 26.72,-26.73 -66.08,-66.07 V 540.359 Z m 0,1587.891 v -53.45 l -8.48,-8.48 -26.73,26.73 z m 0,457.56 h -389.91 v 92.03 h 389.91 z M 392.633,448.332 H 419.75 V 5.64063 h 37.801 V 448.332 h 418.34 v 92.027 H 484.672 V 1620.74 h 676.858 v 37.79 h -39.25 v 16.24 h -37.8 v -16.24 H 484.672 v 544.28 h 599.808 v -304.67 h 37.8 v 342.47 H 484.672 v 345.2 h 599.808 v -121.82 h 37.8 v 121.82 h 81.2 v 92.03 H 392.633 V 540.359 Z M 1912.84,2585.81 v 92.03 h 2092.8 V 1054.79 h -265.39 v 92.03 h 173.36 V 2585.81 H 2720.89 v -63.61 h -37.8 v 63.61 z m 0,-511.01 57.62,57.62 h 712.63 V 540.359 h -161.08 v -92.027 h 253.11 v 606.458 h 485.91 v 92.03 h -540.14 v 1087.03 h -37.8 v -63.64 H 1954.8 l -41.96,-41.96 z m 0,-1534.441 h 35.2 v -92.027 h -35.2" /><path
         id="path24"
         style="fill:none;stroke:#384c71;stroke-width:11.28999996;stroke-linecap:round;stroke-linejoin:round;stroke-miterlimit:22.9260006;stroke-dasharray:none;stroke-opacity:1"
         d="m 2683.09,2522.2 h 37.8 v 63.61 H 3913.61 V 1146.82 h -173.36 v -92.03 h 265.39 V 2677.84 H 1522.93 v -92.03 h 1160.16 z m -1138.56,-815.71 66.07,66.07 -26.72,26.73 -77.15,-77.15 v -63.61 h -54.15 v -37.79 h 54.15 V 540.363 h -102.9 v -92.031 h 544.21 v 92.031 h -403.51 z m 359.83,359.83 66.1,66.09 h 712.63 V 540.363 h -161.08 v -92.031 h 253.11 v 606.458 h 485.91 v 92.03 h -540.14 v 1087.03 h -37.8 v -63.64 H 1954.8 l -77.17,-77.17 z M 392.641,448.332 h 27.121 V 5.64063 h 37.789 V 448.332 h 418.34 v 92.031 H 484.672 V 1620.74 h 676.858 v 37.79 h -39.25 v 16.24 h -37.8 v -16.24 H 484.672 v 544.28 h 599.808 v -304.67 h 37.8 v 342.47 H 484.672 v 345.2 h 599.808 v -121.82 h 37.8 v 121.82 h 81.2 v 92.03 H 392.641 Z" /><path
         id="path26"
         style="fill:#ffffff;fill-opacity:1;fill-rule:nonzero;stroke:none"
         d="m 3261.03,1081.91 h 479.219 v 37.8008 H 3261.03 Z" /><path
         id="path28"
         style="fill:none;stroke:#384c71;stroke-width:11.28999996;stroke-linecap:round;stroke-linejoin:round;stroke-miterlimit:22.9260006;stroke-dasharray:none;stroke-opacity:1"
         d="m 3261.03,1081.91 h 479.219 v 37.8008 H 3261.03 Z" /><path
         id="path30"
         style="fill:#ffffff;fill-opacity:1;fill-rule:nonzero;stroke:none"
         d="m 1948.04,475.441 h 573.961 v 37.7969 H 1948.04 Z" /><path
         id="path32"
         style="fill:none;stroke:#384c71;stroke-width:11.28999996;stroke-linecap:round;stroke-linejoin:round;stroke-miterlimit:22.9260006;stroke-dasharray:none;stroke-opacity:1"
         d="m 1948.04,475.441 h 573.961 v 37.7969 H 1948.04 Z" /><path
         id="path34"
         style="fill:#ffffff;fill-opacity:1;fill-rule:nonzero;stroke:none"
         d="m 875.898,475.441 h 288.34 v 37.7969 h -288.34 z" /><path
         id="path36"
         style="fill:none;stroke:#384c71;stroke-width:11.28999996;stroke-linecap:round;stroke-linejoin:round;stroke-miterlimit:22.9260006;stroke-dasharray:none;stroke-opacity:1"
         d="m 875.898,475.441 h 288.34 v 37.7969 h -288.34 z" /><path
         id="path38"
         style="fill:none;stroke:#384c71;stroke-width:22.57999992;stroke-linecap:round;stroke-linejoin:round;stroke-miterlimit:22.9260006;stroke-dasharray:none;stroke-opacity:1"
         d="m 1522.93,2677.84 -277.48,159.72" /><path
         id="path40"
         style="fill:none;stroke:#384c71;stroke-width:22.57999992;stroke-linecap:round;stroke-linejoin:round;stroke-miterlimit:22.9260006;stroke-dasharray:none;stroke-opacity:1"
         d="M 1084.48,2240.61 972.012,2434.2" /><path
         id="path42"
         style="fill:none;stroke:#384c71;stroke-width:22.57999992;stroke-linecap:round;stroke-linejoin:round;stroke-miterlimit:22.9260006;stroke-dasharray:none;stroke-opacity:1"
         d="M 2683.09,2522.2 2539.58,2273.13" /><path
         id="path44"
         style="fill:none;stroke:#384c71;stroke-width:22.57999992;stroke-linecap:round;stroke-linejoin:round;stroke-miterlimit:22.9260006;stroke-dasharray:none;stroke-opacity:1"
         d="m 1904.37,2066.32 -25.73,-151.61" /><path
         id="path46"
         style="fill:none;stroke:#384c71;stroke-width:22.57999992;stroke-linecap:round;stroke-linejoin:round;stroke-miterlimit:22.9260006;stroke-dasharray:none;stroke-opacity:1"
         d="m 1873.23,1842.96 -262.62,-70.4" /><path
         id="path48"
         style="fill:none;stroke:#384c71;stroke-width:22.57999992;stroke-linecap:round;stroke-linejoin:round;stroke-miterlimit:22.9260006;stroke-dasharray:none;stroke-opacity:1"
         d="m 1084.48,1666.65 -112.468,201.7" /><path
         id="path50"
         style="fill:none;stroke:#384c71;stroke-width:22.57999992;stroke-linecap:round;stroke-linejoin:round;stroke-miterlimit:22.9260006;stroke-dasharray:none;stroke-opacity:1"
         d="M 1452.58,1632.81 1199.43,1487.97" /><path
         id="path52"
         style="fill:none;stroke:#384c71;stroke-width:22.57999992;stroke-linecap:round;stroke-linejoin:round;stroke-miterlimit:22.9260006;stroke-dasharray:none;stroke-opacity:1"
         d="M 1403.83,540.359 1205.35,654.52" /><path
         id="path54"
         style="fill:#ffffff;fill-opacity:1;fill-rule:evenodd;stroke:none"
         d="M 457.555,5.64453 V 43.4336 h 862.255 c 65.05,65.0434 130.08,130.0894 195.12,195.1404 v 209.762 h 37.82 V 222.914 C 1480.32,150.484 1407.9,78.0664 1335.47,5.64453" /><path
         id="path56"
         style="fill:none;stroke:#384c71;stroke-width:11.28999996;stroke-linecap:round;stroke-linejoin:round;stroke-miterlimit:22.9260006;stroke-dasharray:none;stroke-opacity:1"
         d="M 457.555,5.64453 V 43.4336 h 862.255 c 65.05,65.0434 130.08,130.0894 195.12,195.1404 v 209.762 h 37.82 V 222.914 C 1480.32,150.484 1407.9,78.0664 1335.47,5.64453 Z" /><path
         id="path58"
         style="fill:none;stroke:#384d71;stroke-width:11.27999973;stroke-linecap:round;stroke-linejoin:round;stroke-miterlimit:10;stroke-dasharray:none;stroke-opacity:1"
         d="m 1249.55,202.551 c 70.46,0 127.92,57.457 127.92,127.91 0,70.457 -57.46,127.918 -127.92,127.918 -70.44,0 -127.9,-57.461 -127.9,-127.918 0,-70.453 57.46,-127.91 127.9,-127.91 z" /><g
         transform="scale(10)"
         id="g60"><text
           id="text64"
           style="font-variant:normal;font-weight:bold;font-size:17.53569984px;font-family:Roboto;-inkscape-font-specification:Roboto-Bold;writing-mode:lr-tb;fill:#000000;fill-opacity:1;fill-rule:nonzero;stroke:none"
           transform="matrix(1,0,0,-1,120.273,26.7234)"><tspan
             id="tspan62"
             y="0"
             x="0">9</tspan></text>
<text
           id="text68"
           style="font-variant:normal;font-weight:normal;font-size:11.99950027px;font-family:Roboto;-inkscape-font-specification:Roboto-Regular;writing-mode:lr-tb;fill:#000000;fill-opacity:1;fill-rule:nonzero;stroke:none"
           transform="matrix(1,0,0,-1,113.47925,6.4054)"><tspan
             id="tspan66"
             y="0"
             x="0 6.7557187 9.9715843 16.727303">3.45</tspan></text>
</g><path
         id="path70"
         style="fill:none;stroke:#384d71;stroke-width:11.27999973;stroke-linecap:round;stroke-linejoin:round;stroke-miterlimit:10;stroke-dasharray:none;stroke-opacity:1"
         d="m 2115.43,1372.94 c 70.46,0 127.93,57.47 127.93,127.92 0,70.44 -57.47,127.91 -127.93,127.91 -70.43,0 -127.91,-57.47 -127.91,-127.91 0,-70.45 57.48,-127.92 127.91,-127.92 z" /><g
         transform="scale(10)"
         id="g72"><text
           id="text76"
           style="font-variant:normal;font-weight:bold;font-size:17.53569984px;font-family:Roboto;-inkscape-font-specification:Roboto-Bold;writing-mode:lr-tb;fill:#000000;fill-opacity:1;fill-rule:nonzero;stroke:none"
           transform="matrix(1,0,0,-1,206.863,143.761)"><tspan
             id="tspan74"
             y="0"
             x="0">2</tspan></text>
<text
           id="text80"
           style="font-variant:normal;font-weight:normal;font-size:11.99950027px;font-family:Roboto;-inkscape-font-specification:Roboto-Regular;writing-mode:lr-tb;fill:#000000;fill-opacity:1;fill-rule:nonzero;stroke:none"
           transform="matrix(1,0,0,-1,196.6896,123.4438)"><tspan
             id="tspan78"
             y="0"
             x="0 6.7557187 13.511437 16.727303 23.483021">17.11</tspan></text>
</g><path
         id="path82"
         style="fill:none;stroke:#384d71;stroke-width:11.27999973;stroke-linecap:round;stroke-linejoin:round;stroke-miterlimit:10;stroke-dasharray:none;stroke-opacity:1"
         d="m 3360.71,1945 c 70.46,0 127.93,57.45 127.93,127.91 0,70.45 -57.47,127.89 -127.93,127.89 -70.44,0 -127.9,-57.44 -127.9,-127.89 0,-70.46 57.46,-127.91 127.9,-127.91 z" /><g
         transform="scale(10)"
         id="g84"><text
           id="text88"
           style="font-variant:normal;font-weight:bold;font-size:17.53569984px;font-family:Roboto;-inkscape-font-specification:Roboto-Bold;writing-mode:lr-tb;fill:#000000;fill-opacity:1;fill-rule:nonzero;stroke:none"
           transform="matrix(1,0,0,-1,331.39,200.968)"><tspan
             id="tspan86"
             y="0"
             x="0">3</tspan></text>
<text
           id="text92"
           style="font-variant:normal;font-weight:normal;font-size:11.99950027px;font-family:Roboto;-inkscape-font-specification:Roboto-Regular;writing-mode:lr-tb;fill:#000000;fill-opacity:1;fill-rule:nonzero;stroke:none"
           transform="matrix(1,0,0,-1,321.2181,180.6496)"><tspan
             id="tspan90"
             y="0"
             x="0 6.7557187 13.511437 16.721493 23.477211">16.74</tspan></text>
</g><path
         id="path94"
         style="fill:none;stroke:#384d71;stroke-width:11.27999973;stroke-linecap:round;stroke-linejoin:round;stroke-miterlimit:10;stroke-dasharray:none;stroke-opacity:1"
         d="m 1517.04,2201.98 c 70.45,0 127.92,57.46 127.92,127.9 0,70.45 -57.47,127.91 -127.92,127.91 -70.45,0 -127.91,-57.46 -127.91,-127.91 0,-70.44 57.46,-127.9 127.91,-127.9 z" /><g
         transform="scale(10)"
         id="g96"><text
           id="text100"
           style="font-variant:normal;font-weight:bold;font-size:17.53569984px;font-family:Roboto;-inkscape-font-specification:Roboto-Bold;writing-mode:lr-tb;fill:#000000;fill-opacity:1;fill-rule:nonzero;stroke:none"
           transform="matrix(1,0,0,-1,147.023,226.664)"><tspan
             id="tspan98"
             y="0"
             x="0">1</tspan></text>
<text
           id="text104"
           style="font-variant:normal;font-weight:normal;font-size:11.99950027px;font-family:Roboto;-inkscape-font-specification:Roboto-Regular;writing-mode:lr-tb;fill:#000000;fill-opacity:1;fill-rule:nonzero;stroke:none"
           transform="matrix(1,0,0,-1,140.22769,206.3476)"><tspan
             id="tspan102"
             y="0"
             x="0 6.7557187 9.9715843 16.727303">9.00</tspan></text>
</g><path
         id="path106"
         style="fill:none;stroke:#384d71;stroke-width:11.27999973;stroke-linecap:round;stroke-linejoin:round;stroke-miterlimit:10;stroke-dasharray:none;stroke-opacity:1"
         d="m 1070.36,1022.48 c 70.44,0 127.92,57.47 127.92,127.92 0,70.45 -57.48,127.9 -127.92,127.9 -70.454,0 -127.903,-57.45 -127.903,-127.9 0,-70.45 57.449,-127.92 127.903,-127.92 z" /><g
         transform="scale(10)"
         id="g108"><text
           id="text112"
           style="font-variant:normal;font-weight:bold;font-size:17.53569984px;font-family:Roboto;-inkscape-font-specification:Roboto-Bold;writing-mode:lr-tb;fill:#000000;fill-opacity:1;fill-rule:nonzero;stroke:none"
           transform="matrix(1,0,0,-1,102.354,108.717)"><tspan
             id="tspan110"
             y="0"
             x="0">4</tspan></text>
<text
           id="text116"
           style="font-variant:normal;font-weight:normal;font-size:11.99950027px;font-family:Roboto;-inkscape-font-specification:Roboto-Regular;writing-mode:lr-tb;fill:#000000;fill-opacity:1;fill-rule:nonzero;stroke:none"
           transform="matrix(1,0,0,-1,95.55908,88.3986)"><tspan
             id="tspan114"
             y="0"
             x="0 6.7557187 9.9715843 16.727303">9.42</tspan></text>
</g><path
         id="path118"
         style="fill:none;stroke:#384d71;stroke-width:11.27999973;stroke-linecap:round;stroke-linejoin:round;stroke-miterlimit:10;stroke-dasharray:none;stroke-opacity:1"
         d="m 133.551,1905.59 c 70.449,0 127.91,57.45 127.91,127.91 0,70.44 -57.461,127.91 -127.91,127.91 -70.4494,0 -127.91037,-57.47 -127.91037,-127.91 0,-70.46 57.46097,-127.91 127.91037,-127.91 z" /><g
         transform="scale(10)"
         id="g120"><text
           id="text124"
           style="font-variant:normal;font-weight:bold;font-size:17.53569984px;font-family:Roboto;-inkscape-font-specification:Roboto-Bold;writing-mode:lr-tb;fill:#000000;fill-opacity:1;fill-rule:nonzero;stroke:none"
           transform="matrix(1,0,0,-1,8.67305,197.025)"><tspan
             id="tspan122"
             y="0"
             x="0">5</tspan></text>
<text
           id="text128"
           style="font-variant:normal;font-weight:normal;font-size:11.99950027px;font-family:Roboto;-inkscape-font-specification:Roboto-Regular;writing-mode:lr-tb;fill:#000000;fill-opacity:1;fill-rule:nonzero;stroke:none"
           transform="matrix(1,0,0,-1,1.87774,176.7078)"><tspan
             id="tspan126"
             y="0"
             x="0 6.7557187 9.9715843 16.727303">3.11</tspan></text>
</g><path
         id="path130"
         style="fill:none;stroke:#384d71;stroke-width:11.27999973;stroke-linecap:round;stroke-linejoin:round;stroke-miterlimit:10;stroke-dasharray:none;stroke-opacity:1"
         d="m 133.551,2514.77 c 70.449,0 127.91,57.44 127.91,127.92 0,70.43 -57.461,127.9 -127.91,127.9 -70.4494,0 -127.91037,-57.47 -127.91037,-127.9 0,-70.48 57.46097,-127.92 127.91037,-127.92 z" /><g
         transform="scale(10)"
         id="g132"><text
           id="text136"
           style="font-variant:normal;font-weight:bold;font-size:17.53569984px;font-family:Roboto;-inkscape-font-specification:Roboto-Bold;writing-mode:lr-tb;fill:#000000;fill-opacity:1;fill-rule:nonzero;stroke:none"
           transform="matrix(1,0,0,-1,8.67305,257.944)"><tspan
             id="tspan134"
             y="0"
             x="0">6</tspan></text>
<text
           id="text140"
           style="font-variant:normal;font-weight:normal;font-size:11.99950027px;font-family:Roboto;-inkscape-font-specification:Roboto-Regular;writing-mode:lr-tb;fill:#000000;fill-opacity:1;fill-rule:nonzero;stroke:none"
           transform="matrix(1,0,0,-1,1.87774,237.6264)"><tspan
             id="tspan138"
             y="0"
             x="0 6.7557187 9.9715843 16.727303">1.73</tspan></text>
</g><path
         id="path142"
         style="fill:none;stroke:#000000;stroke-width:9.59000015;stroke-linecap:round;stroke-linejoin:round;stroke-miterlimit:22.9260006;stroke-dasharray:none;stroke-opacity:1"
         d="M 795.605,1707.6 H 5.63672" /><path
         id="path144"
         style="fill:none;stroke:#000000;stroke-width:9.59000015;stroke-linecap:round;stroke-linejoin:round;stroke-miterlimit:22.9260006;stroke-dasharray:none;stroke-opacity:1"
         d="M 795.605,2313.71 H 5.63672" /></g></g></svg>