<?xml version="1.0" encoding="UTF-8" standalone="no"?>
<svg
   xmlns:dc="http://purl.org/dc/elements/1.1/"
   xmlns:cc="http://creativecommons.org/ns#"
   xmlns:rdf="http://www.w3.org/1999/02/22-rdf-syntax-ns#"
   xmlns:svg="http://www.w3.org/2000/svg"
   xmlns="http://www.w3.org/2000/svg"
   viewBox="0 0 465.79999 501.27499"
   height="501.27499"
   width="465.79999"
   xml:space="preserve"
   id="svg2"
   version="1.1"><metadata
     id="metadata8"><rdf:RDF><cc:Work
         rdf:about=""><dc:format>image/svg+xml</dc:format><dc:type
           rdf:resource="http://purl.org/dc/dcmitype/StillImage" /></cc:Work></rdf:RDF></metadata><defs
     id="defs6" /><g
     transform="matrix(1.25,0,0,-1.25,0,501.275)"
     id="g10"><g
       transform="scale(0.1)"
       id="g12"><path
         id="path14"
         style="fill:none;stroke:#384d71;stroke-width:10.15999985;stroke-linecap:round;stroke-linejoin:round;stroke-miterlimit:10;stroke-dasharray:none;stroke-opacity:1"
         d="m 3070.2,2102.07 v -15.3 m 0,-32.89 v 15.3 m -24.09,8.79 h 15.31 m 32.87,0 h -15.3 m -23.21,0 c 0,7.98 6.46,14.44 14.42,14.44 7.98,0 14.45,-6.46 14.45,-14.44 0,-7.97 -6.47,-14.44 -14.45,-14.44 -7.96,0 -14.42,6.47 -14.42,14.44 z m 60.92,60.32 h -277.6 c -32.97,0 -59.7,-26.74 -59.7,-59.71 0,-32.96 26.73,-59.7 59.7,-59.7 h 277.6 c 6.29,0 11.43,5.14 11.43,11.43 v 96.55 c 0,6.29 -5.14,11.43 -11.43,11.43 z m 23.42,30.6 h -357 c -49.87,0 -90.3,-40.43 -90.3,-90.31 0,-49.86 40.43,-90.31 90.3,-90.31 h 357 c 9.51,0 17.29,7.76 17.29,17.29 v 146.05 c 0,9.52 -7.78,17.28 -17.29,17.28 z m -461.95,17.61 h 495.08 v -215.84 h -495.08 z" /><path
         id="path16"
         style="fill:none;stroke:#384d71;stroke-width:10.15999985;stroke-linecap:round;stroke-linejoin:round;stroke-miterlimit:10;stroke-dasharray:none;stroke-opacity:1"
         d="m 3110.45,1390.63 c -29.3,0 -47.07,-7.33 -66.98,-7.33 -31.13,0 -77.52,20.97 -77.52,58.54 0,37.55 46.39,58.54 77.52,58.54 19.91,0 37.68,-7.33 66.98,-7.33 m -119.25,-74.92 c 20.37,8.76 20.37,38.66 0,47.42 m 117.43,-49.3 c -47.75,-27.07 -128.04,-17.57 -128.04,25.59 0,43.16 80.29,52.66 128.04,25.61 m 22.26,-25.61 c 0,3.86 3.13,6.98 6.99,6.98 3.87,0 7,-3.12 7,-6.98 0,-3.86 -3.13,-7 -7,-7 -3.86,0 -6.99,3.14 -6.99,7 z m -22.26,-43 v 85.98 c 0,8.07 6.57,14.63 14.61,14.63 h 29.28 c 8.04,0 14.63,-6.56 14.63,-14.63 v -85.98 c 0,-8.04 -6.59,-14.63 -14.63,-14.63 h -29.28 c -8.04,0 -14.61,6.59 -14.61,14.63 z" /><path
         id="path18"
         style="fill:none;stroke:#384d71;stroke-width:10.15999985;stroke-linecap:round;stroke-linejoin:round;stroke-miterlimit:10;stroke-dasharray:none;stroke-opacity:1"
         d="m 3158.58,1842.41 v -11.81 m -5.91,5.91 h 11.83 m -41.95,0.01 c 0,2.4 1.95,4.36 4.35,4.36 2.42,0 4.38,-1.96 4.38,-4.36 0,-2.41 -1.96,-4.35 -4.38,-4.35 -2.4,0 -4.35,1.94 -4.35,4.35 z m 20.21,-42.92 v 85.82 h -17.94 c -23.36,0 -29.84,-23.53 -29.84,-42.91 0,-19.38 6.48,-42.91 29.84,-42.91 z m -62.18,42.91 c 0,-44.88 25.69,-57.31 44.24,-57.31 h 48.43 v 114.62 h -48.43 c -18.55,0 -44.24,-12.43 -44.24,-57.31 z" /><path
         id="path20"
         style="fill:none;stroke:#384d71;stroke-width:10.15999985;stroke-linecap:round;stroke-linejoin:round;stroke-miterlimit:10;stroke-dasharray:none;stroke-opacity:1"
         d="m 125.781,3246.15 v -137.79 m 49.989,30.67 c 0,-7.75 -6.29,-14.04 -14.047,-14.04 -7.762,0 -14.051,6.29 -14.051,14.04 0,7.76 6.289,14.05 14.051,14.05 7.757,0 14.047,-6.29 14.047,-14.05 z m 0,76.45 c 0,-7.76 -6.29,-14.05 -14.047,-14.05 -7.762,0 -14.051,6.29 -14.051,14.05 0,7.75 6.289,14.04 14.051,14.04 7.757,0 14.047,-6.29 14.047,-14.04 z m 70.152,-76.45 c 0,-7.75 -6.301,-14.04 -14.063,-14.04 -7.75,0 -14.039,6.29 -14.039,14.04 0,7.76 6.289,14.05 14.039,14.05 7.762,0 14.063,-6.29 14.063,-14.05 z m 0,76.45 c 0,-7.76 -6.301,-14.05 -14.063,-14.05 -7.75,0 -14.039,6.29 -14.039,14.05 0,7.75 6.289,14.04 14.039,14.04 7.762,0 14.063,-6.29 14.063,-14.04 z m 23.75,-107.12 H 105.063 v 137.79 H 269.672 Z M 129.441,2751.08 v -68.27 m 120.719,68.27 v -68.27 m -17.25,68.27 v -68.28 m -17.238,68.28 v -68.28 m -17.25,68.28 v -68.28 m -17.242,68.28 v -68.28 m -17.25,68.28 v -68.28 m -17.239,68.28 v -68.28 m 2.258,164.06 v -17.07 m 13.403,8.54 h -45.61 m 157.801,48.77 v -97.55 c 0,-9.76 -7.98,-17.75 -17.742,-17.75 H 134.492 c -9.762,0 -17.75,7.99 -17.75,17.75 v 97.55 c 0,9.76 7.988,17.74 17.75,17.74 h 122.309 c 9.762,0 17.742,-7.98 17.742,-17.74 z m 12.199,204.19 H 87.9805 M 286.742,2923.02 H 87.9805 m 0,514.58 H 286.742 V 2658.42 H 87.9805" /><path
         id="path22"
         style="fill:#384d71;fill-opacity:1;fill-rule:evenodd;stroke:none"
         d="m 2208.5,1231.76 h 99.99 v 34.04 h -99.99 v 392.72 H 644.02 v 14.64 h -82.887 v -97.53 H 2125.6 V 5.07813 h 370.67 V 87.9688 H 2208.5 Z M 1124.36,2460.35 1348.3,2236.43 h 78.56 v -34.05 h -92.67 c -81.29,81.29 -162.58,162.58 -243.87,243.87 V 3775.36 H 864.742 v 82.9 H 1283.4 l 107.41,107.42 58.62,-58.62 -131.69,-131.7 H 1124.36 Z M 87.9805,2473.08 H 828.16 v 34.05 H 87.9805 V 3775.36 H 431.859 v 82.9 H 5.08203 V 1960.93 H 644.02 v 82.9 H 87.9805 Z M 2603.09,1265.8 v 75.69 h -34.05 v -75.69 h -0.82 v -34.04 h 619.43 V 87.9688 H 2927.94 V 5.07813 h 342.61 V 3536.38 h -24.43 v 321.88 h -34.05 v -321.88 h -24.42 v -52.46 h -407.27 v -82.89 h 407.27 v -1164.6 h -619.43 v -304.76 h 34.04 v 270.71 h 585.39 v -529.22 h -585.39 v 57.32 h -34.04 v -187.79 h 34.04 v 96.41 h 585.39 v -373.3 z m -388.11,2592.46 h -250.16 l -107.42,107.42 -58.62,-58.62 131.69,-131.7 h 219.49 V 2236.43 h -348.74 v -34.05 h 507.27 v 34.05 h -124.48 v 1164.6 h 120.82 v 82.89 h -71.97 v 374.34" /><path
         id="path24"
         style="fill:none;stroke:#384d71;stroke-width:10.15999985;stroke-linecap:round;stroke-linejoin:round;stroke-miterlimit:10;stroke-dasharray:none;stroke-opacity:1"
         d="m 2208.5,1231.76 h 99.99 v 34.04 h -99.99 v 392.72 H 644.02 v 14.64 h -82.887 v -97.53 H 2125.6 V 5.07813 h 370.67 V 87.9688 H 2208.5 Z M 1124.36,2460.35 1348.3,2236.43 h 78.56 v -34.05 h -92.67 c -81.29,81.29 -162.58,162.58 -243.87,243.87 V 3775.36 H 864.742 v 82.9 H 1283.4 l 107.41,107.42 58.62,-58.62 -131.69,-131.7 H 1124.36 Z M 87.9805,2473.08 H 828.16 v 34.05 H 87.9805 V 3775.36 H 431.859 v 82.9 H 5.08203 V 1960.93 H 644.02 v 82.9 H 87.9805 Z M 2603.09,1265.8 v 75.69 h -34.05 v -75.69 h -0.82 v -34.04 h 619.43 V 87.9688 H 2927.94 V 5.07813 h 342.61 V 3536.38 h -24.43 v 321.88 h -34.05 v -321.88 h -24.42 v -52.46 h -407.27 v -82.89 h 407.27 v -1164.6 h -619.43 v -304.76 h 34.04 v 270.71 h 585.39 v -529.22 h -585.39 v 57.32 h -34.04 v -187.79 h 34.04 v 96.41 h 585.39 v -373.3 z m -388.11,2592.46 h -250.16 l -107.42,107.42 -58.62,-58.62 131.69,-131.7 h 219.49 V 2236.43 h -348.74 v -34.05 h 507.27 v 34.05 h -124.48 v 1164.6 h 120.82 v 82.89 h -71.97 v 374.34 z" /><path
         id="path26"
         style="fill:#ffffff;fill-opacity:1;fill-rule:evenodd;stroke:none"
         d="m 1840.13,3948.4 -56.67,56.67 h -318.71 l -56.67,-56.67 24.08,-24.08 46.7,46.7 h 290.49 l 46.7,-46.7" /><path
         id="path28"
         style="fill:none;stroke:#384d71;stroke-width:10.15999985;stroke-linecap:round;stroke-linejoin:round;stroke-miterlimit:10;stroke-dasharray:none;stroke-opacity:1"
         d="m 1840.13,3948.4 -56.67,56.67 h -318.71 l -56.67,-56.67 24.08,-24.08 46.7,46.7 h 290.49 l 46.7,-46.7 z" /><path
         id="path30"
         style="fill:#ffffff;fill-opacity:1;fill-rule:nonzero;stroke:none"
         d="m 2496.27,29.4883 h 431.672 V 63.5391 H 2496.27 Z" /><path
         id="path32"
         style="fill:none;stroke:#384c71;stroke-width:10.17000008;stroke-linecap:round;stroke-linejoin:round;stroke-miterlimit:22.9260006;stroke-dasharray:none;stroke-opacity:1"
         d="m 2496.27,29.4883 h 431.672 V 63.5391 H 2496.27 Z" /><path
         id="path34"
         style="fill:#ffffff;fill-opacity:1;fill-rule:nonzero;stroke:none"
         d="m 431.871,3799.79 h 432.867 v 34.0508 H 431.871 Z" /><path
         id="path36"
         style="fill:none;stroke:#384c71;stroke-width:10.17000008;stroke-linecap:round;stroke-linejoin:round;stroke-miterlimit:22.9260006;stroke-dasharray:none;stroke-opacity:1"
         d="m 431.871,3799.79 h 432.867 v 34.0508 H 431.871 Z" /><path
         id="path38"
         style="fill:#ffffff;fill-opacity:1;fill-rule:nonzero;stroke:none"
         d="m 2520.66,3425.45 h 259.719 v 34.0391 H 2520.66 Z" /><path
         id="path40"
         style="fill:none;stroke:#384c71;stroke-width:10.17000008;stroke-linecap:round;stroke-linejoin:round;stroke-miterlimit:22.9260006;stroke-dasharray:none;stroke-opacity:1"
         d="m 2520.66,3425.45 h 259.719 v 34.0391 H 2520.66 Z" /><path
         id="path42"
         style="fill:#ffffff;fill-opacity:1;fill-rule:nonzero;stroke:none"
         d="m 2232.86,3824.21 h 979.223 v 34.0508 H 2232.86 Z" /><path
         id="path44"
         style="fill:none;stroke:#384c71;stroke-width:10.17000008;stroke-linecap:round;stroke-linejoin:round;stroke-miterlimit:22.9260006;stroke-dasharray:none;stroke-opacity:1"
         d="m 2232.86,3824.21 h 979.223 v 34.0508 H 2232.86 Z" /><path
         id="path46"
         style="fill:none;stroke:#384c71;stroke-width:20.34000015;stroke-linecap:round;stroke-linejoin:round;stroke-miterlimit:22.9260006;stroke-dasharray:none;stroke-opacity:1"
         d="M 2304.83,3401.02 2491.39,3292.5" /><path
         id="path48"
         style="fill:none;stroke:#384c71;stroke-width:20.34000015;stroke-linecap:round;stroke-linejoin:round;stroke-miterlimit:22.9260006;stroke-dasharray:none;stroke-opacity:1"
         d="M 2568.22,2202.38 2343.85,2073.13" /><path
         id="path50"
         style="fill:none;stroke:#384c71;stroke-width:20.34000015;stroke-linecap:round;stroke-linejoin:round;stroke-miterlimit:22.9260006;stroke-dasharray:none;stroke-opacity:1"
         d="M 2568.22,1931.67 2467.01,1757.3" /><path
         id="path52"
         style="fill:none;stroke:#384c71;stroke-width:20.34000015;stroke-linecap:round;stroke-linejoin:round;stroke-miterlimit:22.9260006;stroke-dasharray:none;stroke-opacity:1"
         d="M 2703.58,1515.87 2602.36,1341.49" /><path
         id="path54"
         style="fill:none;stroke:#384c71;stroke-width:20.34000015;stroke-linecap:round;stroke-linejoin:round;stroke-miterlimit:22.9260006;stroke-dasharray:none;stroke-opacity:1"
         d="m 2308.49,1231.76 224.37,-129.27" /><path
         id="path56"
         style="fill:none;stroke:#384c71;stroke-width:20.34000015;stroke-linecap:round;stroke-linejoin:round;stroke-miterlimit:22.9260006;stroke-dasharray:none;stroke-opacity:1"
         d="M 561.129,1673.15 417.246,1921.91" /><path
         id="path58"
         style="fill:none;stroke:#384c71;stroke-width:20.34000015;stroke-linecap:round;stroke-linejoin:round;stroke-miterlimit:22.9260006;stroke-dasharray:none;stroke-opacity:1"
         d="M 1090.32,2507.13 863.523,2638.81" /><path
         id="path60"
         style="fill:none;stroke:#384c71;stroke-width:20.34000015;stroke-linecap:round;stroke-linejoin:round;stroke-miterlimit:22.9260006;stroke-dasharray:none;stroke-opacity:1"
         d="m 1426.86,2202.38 112.21,-80.48" /><path
         id="path62"
         style="fill:none;stroke:#384c71;stroke-width:20.34000015;stroke-linecap:round;stroke-linejoin:round;stroke-miterlimit:22.9260006;stroke-dasharray:none;stroke-opacity:1"
         d="M 1801.22,2202.38 1589.05,2080.43" /><path
         id="path64"
         style="fill:none;stroke:#384d71;stroke-width:10.15999985;stroke-linecap:round;stroke-linejoin:round;stroke-miterlimit:10;stroke-dasharray:none;stroke-opacity:1"
         d="m 2676.23,573.152 c 63.47,0 115.23,51.762 115.23,115.211 0,63.473 -51.76,115.231 -115.23,115.231 -63.45,0 -115.21,-51.758 -115.21,-115.231 0,-63.449 51.76,-115.211 115.21,-115.211 z" /><g
         transform="scale(10)"
         id="g66"><text
           id="text70"
           style="font-variant:normal;font-weight:bold;font-size:15.79559994px;font-family:Roboto;-inkscape-font-specification:Roboto-Bold;writing-mode:lr-tb;fill:#000000;fill-opacity:1;fill-rule:nonzero;stroke:none"
           transform="matrix(1,0,0,-1,263.406,63.1406)"><tspan
             id="tspan68"
             y="0"
             x="0">3</tspan></text>
<text
           id="text74"
           style="font-variant:normal;font-weight:normal;font-size:10.80879974px;font-family:Roboto;-inkscape-font-specification:Roboto-Regular;writing-mode:lr-tb;fill:#000000;fill-opacity:1;fill-rule:nonzero;stroke:none"
           transform="matrix(1,0,0,-1,254.24194,44.8398)"><tspan
             id="tspan72"
             y="0"
             x="0 6.0853543 12.170709 15.067467 21.152822">13.28</tspan></text>
</g><path
         id="path76"
         style="fill:none;stroke:#384d71;stroke-width:10.15999985;stroke-linecap:round;stroke-linejoin:round;stroke-miterlimit:10;stroke-dasharray:none;stroke-opacity:1"
         d="m 3606.06,1869.15 c 63.45,0 115.21,51.76 115.21,115.21 0,63.47 -51.76,115.22 -115.21,115.22 -63.47,0 -115.22,-51.75 -115.22,-115.22 0,-63.45 51.75,-115.21 115.22,-115.21 z" /><g
         transform="scale(10)"
         id="g78"><text
           id="text82"
           style="font-variant:normal;font-weight:bold;font-size:15.79559994px;font-family:Roboto;-inkscape-font-specification:Roboto-Bold;writing-mode:lr-tb;fill:#000000;fill-opacity:1;fill-rule:nonzero;stroke:none"
           transform="matrix(1,0,0,-1,356.388,192.741)"><tspan
             id="tspan80"
             y="0"
             x="0">5</tspan></text>
<text
           id="text86"
           style="font-variant:normal;font-weight:normal;font-size:10.80879974px;font-family:Roboto;-inkscape-font-specification:Roboto-Regular;writing-mode:lr-tb;fill:#000000;fill-opacity:1;fill-rule:nonzero;stroke:none"
           transform="matrix(1,0,0,-1,350.26691,174.4394)"><tspan
             id="tspan84"
             y="0"
             x="0 6.0853543 8.9821129 15.067467">3.69</tspan></text>
</g><path
         id="path88"
         style="fill:none;stroke:#384d71;stroke-width:10.15999985;stroke-linecap:round;stroke-linejoin:round;stroke-miterlimit:10;stroke-dasharray:none;stroke-opacity:1"
         d="m 1186.05,1916.62 c 63.45,0 115.22,51.76 115.22,115.21 0,63.47 -51.77,115.22 -115.22,115.22 -63.46,0 -115.21,-51.75 -115.21,-115.22 0,-63.45 51.75,-115.21 115.21,-115.21 z" /><g
         transform="scale(10)"
         id="g90"><text
           id="text94"
           style="font-variant:normal;font-weight:bold;font-size:15.79559994px;font-family:Roboto;-inkscape-font-specification:Roboto-Bold;writing-mode:lr-tb;fill:#000000;fill-opacity:1;fill-rule:nonzero;stroke:none"
           transform="matrix(1,0,0,-1,114.387,197.488)"><tspan
             id="tspan92"
             y="0"
             x="0">1</tspan></text>
<text
           id="text98"
           style="font-variant:normal;font-weight:normal;font-size:10.80879974px;font-family:Roboto;-inkscape-font-specification:Roboto-Regular;writing-mode:lr-tb;fill:#000000;fill-opacity:1;fill-rule:nonzero;stroke:none"
           transform="matrix(1,0,0,-1,105.22411,179.186)"><tspan
             id="tspan96"
             y="0"
             x="0 6.0853543 12.170709 15.067467 21.152822">18.36</tspan></text>
</g><path
         id="path100"
         style="fill:none;stroke:#384d71;stroke-width:10.15999985;stroke-linecap:round;stroke-linejoin:round;stroke-miterlimit:10;stroke-dasharray:none;stroke-opacity:1"
         d="m 2690.16,2858.43 c 63.45,0 115.21,51.76 115.21,115.21 0,63.47 -51.76,115.22 -115.21,115.22 -63.48,0 -115.22,-51.75 -115.22,-115.22 0,-63.45 51.74,-115.21 115.22,-115.21 z" /><g
         transform="scale(10)"
         id="g102"><text
           id="text106"
           style="font-variant:normal;font-weight:bold;font-size:15.79559994px;font-family:Roboto;-inkscape-font-specification:Roboto-Bold;writing-mode:lr-tb;fill:#000000;fill-opacity:1;fill-rule:nonzero;stroke:none"
           transform="matrix(1,0,0,-1,264.797,291.668)"><tspan
             id="tspan104"
             y="0"
             x="0">3</tspan></text>
<text
           id="text110"
           style="font-variant:normal;font-weight:normal;font-size:10.80879974px;font-family:Roboto;-inkscape-font-specification:Roboto-Regular;writing-mode:lr-tb;fill:#000000;fill-opacity:1;fill-rule:nonzero;stroke:none"
           transform="matrix(1,0,0,-1,255.63411,273.3668)"><tspan
             id="tspan108"
             y="0"
             x="0 6.0853543 12.170709 15.067467 21.152822">14.12</tspan></text>
</g><path
         id="path112"
         style="fill:none;stroke:#384d71;stroke-width:10.15999985;stroke-linecap:round;stroke-linejoin:round;stroke-miterlimit:10;stroke-dasharray:none;stroke-opacity:1"
         d="m 1624.77,3144.08 c 63.46,0 115.21,51.76 115.21,115.22 0,63.45 -51.75,115.21 -115.21,115.21 -63.47,0 -115.22,-51.76 -115.22,-115.21 0,-63.46 51.75,-115.22 115.22,-115.22 z" /><g
         transform="scale(10)"
         id="g114"><text
           id="text118"
           style="font-variant:normal;font-weight:bold;font-size:15.79559994px;font-family:Roboto;-inkscape-font-specification:Roboto-Bold;writing-mode:lr-tb;fill:#000000;fill-opacity:1;fill-rule:nonzero;stroke:none"
           transform="matrix(1,0,0,-1,158.259,320.234)"><tspan
             id="tspan116"
             y="0"
             x="0">2</tspan></text>
<text
           id="text122"
           style="font-variant:normal;font-weight:normal;font-size:10.80879974px;font-family:Roboto;-inkscape-font-specification:Roboto-Regular;writing-mode:lr-tb;fill:#000000;fill-opacity:1;fill-rule:nonzero;stroke:none"
           transform="matrix(1,0,0,-1,149.09494,301.9328)"><tspan
             id="tspan120"
             y="0"
             x="0 6.0853543 12.170709 15.067467 21.152822">19.63</tspan></text>
</g><path
         id="path124"
         style="fill:none;stroke:#384d71;stroke-width:10.15999985;stroke-linecap:round;stroke-linejoin:round;stroke-miterlimit:10;stroke-dasharray:none;stroke-opacity:1"
         d="m 594.773,3212.22 c 63.461,0 115.223,51.75 115.223,115.21 0,63.46 -51.762,115.22 -115.223,115.22 -63.457,0 -115.218,-51.76 -115.218,-115.22 0,-63.46 51.761,-115.21 115.218,-115.21 z" /><g
         transform="scale(10)"
         id="g126"><text
           id="text130"
           style="font-variant:normal;font-weight:bold;font-size:15.79559994px;font-family:Roboto;-inkscape-font-specification:Roboto-Bold;writing-mode:lr-tb;fill:#000000;fill-opacity:1;fill-rule:nonzero;stroke:none"
           transform="matrix(1,0,0,-1,55.2598,327.046)"><tspan
             id="tspan128"
             y="0"
             x="0">4</tspan></text>
<text
           id="text134"
           style="font-variant:normal;font-weight:normal;font-size:10.80879974px;font-family:Roboto;-inkscape-font-specification:Roboto-Regular;writing-mode:lr-tb;fill:#000000;fill-opacity:1;fill-rule:nonzero;stroke:none"
           transform="matrix(1,0,0,-1,46.09691,308.7456)"><tspan
             id="tspan132"
             y="0"
             x="0 6.0853543 12.170709 15.067467 21.152822">14.13</tspan></text>
</g><path
         id="path136"
         style="fill:none;stroke:#384d71;stroke-width:10.15999985;stroke-linecap:round;stroke-linejoin:round;stroke-miterlimit:10;stroke-dasharray:none;stroke-opacity:1"
         d="m 2408.85,3565.96 c 63.45,0 115.21,51.76 115.21,115.22 0,63.46 -51.76,115.21 -115.21,115.21 -63.47,0 -115.23,-51.75 -115.23,-115.21 0,-63.46 51.76,-115.22 115.23,-115.22 z" /><g
         transform="scale(10)"
         id="g138"><text
           id="text142"
           style="font-variant:normal;font-weight:bold;font-size:15.79559994px;font-family:Roboto;-inkscape-font-specification:Roboto-Bold;writing-mode:lr-tb;fill:#000000;fill-opacity:1;fill-rule:nonzero;stroke:none"
           transform="matrix(1,0,0,-1,236.666,362.421)"><tspan
             id="tspan140"
             y="0"
             x="0">8</tspan></text>
<text
           id="text146"
           style="font-variant:normal;font-weight:normal;font-size:10.80879974px;font-family:Roboto;-inkscape-font-specification:Roboto-Regular;writing-mode:lr-tb;fill:#000000;fill-opacity:1;fill-rule:nonzero;stroke:none"
           transform="matrix(1,0,0,-1,233.58787,344.1194)"><tspan
             id="tspan144"
             y="0"
             x="0 6.0853543 8.9821129">3.6</tspan></text>
</g><path
         id="path148"
         style="fill:none;stroke:#000000;stroke-width:8.64000034;stroke-linecap:round;stroke-linejoin:round;stroke-miterlimit:22.9260006;stroke-dasharray:none;stroke-opacity:1"
         d="m 2851.14,1734.84 h 870.14" /><path
         id="path150"
         style="fill:none;stroke:#000000;stroke-width:8.64000034;stroke-linecap:round;stroke-linejoin:round;stroke-miterlimit:22.9260006;stroke-dasharray:none;stroke-opacity:1"
         d="m 2851.14,1303.92 h 870.14" /><path
         id="path152"
         style="fill:none;stroke:#384d71;stroke-width:10.15999985;stroke-linecap:round;stroke-linejoin:round;stroke-miterlimit:10;stroke-dasharray:none;stroke-opacity:1"
         d="m 3606.06,1452.64 c 63.45,0 115.21,51.76 115.21,115.22 0,63.45 -51.76,115.21 -115.21,115.21 -63.47,0 -115.22,-51.76 -115.22,-115.21 0,-63.46 51.75,-115.22 115.22,-115.22 z" /><g
         transform="scale(10)"
         id="g154"><text
           id="text158"
           style="font-variant:normal;font-weight:bold;font-size:15.79559994px;font-family:Roboto;-inkscape-font-specification:Roboto-Bold;writing-mode:lr-tb;fill:#000000;fill-opacity:1;fill-rule:nonzero;stroke:none"
           transform="matrix(1,0,0,-1,356.388,151.09)"><tspan
             id="tspan156"
             y="0"
             x="0">6</tspan></text>
<text
           id="text162"
           style="font-variant:normal;font-weight:normal;font-size:10.80879974px;font-family:Roboto;-inkscape-font-specification:Roboto-Regular;writing-mode:lr-tb;fill:#000000;fill-opacity:1;fill-rule:nonzero;stroke:none"
           transform="matrix(1,0,0,-1,350.26691,132.7884)"><tspan
             id="tspan160"
             y="0"
             x="0 6.0853543 8.9821129 15.067467">1.95</tspan></text>
</g></g></g></svg>