<?xml version="1.0" encoding="UTF-8" standalone="no"?>
<svg
   xmlns:dc="http://purl.org/dc/elements/1.1/"
   xmlns:cc="http://creativecommons.org/ns#"
   xmlns:rdf="http://www.w3.org/1999/02/22-rdf-syntax-ns#"
   xmlns:svg="http://www.w3.org/2000/svg"
   xmlns="http://www.w3.org/2000/svg"
   viewBox="0 0 465.79999 501.27499"
   height="501.27499"
   width="465.79999"
   xml:space="preserve"
   id="svg2"
   version="1.1"><metadata
     id="metadata8"><rdf:RDF><cc:Work
         rdf:about=""><dc:format>image/svg+xml</dc:format><dc:type
           rdf:resource="http://purl.org/dc/dcmitype/StillImage" /></cc:Work></rdf:RDF></metadata><defs
     id="defs6" /><g
     transform="matrix(1.25,0,0,-1.25,0,501.275)"
     id="g10"><g
       transform="scale(0.1)"
       id="g12"><path
         id="path14"
         style="fill:none;stroke:#384d71;stroke-width:10.15999985;stroke-linecap:round;stroke-linejoin:round;stroke-miterlimit:10;stroke-dasharray:none;stroke-opacity:1"
         d="m 656.137,2102.07 v -15.3 m 0,-32.89 v 15.3 m 24.09,8.79 H 664.93 m -32.891,0 h 15.32 m 23.219,0 c 0,7.98 -6.461,14.44 -14.441,14.44 -7.969,0 -14.43,-6.46 -14.43,-14.44 0,-7.97 6.461,-14.44 14.43,-14.44 7.98,0 14.441,6.47 14.441,14.44 z m -60.941,60.32 h 277.609 c 32.973,0 59.703,-26.74 59.703,-59.71 0,-32.96 -26.73,-59.7 -59.703,-59.7 H 609.637 c -6.289,0 -11.418,5.14 -11.418,11.43 v 96.55 c 0,6.29 5.129,11.43 11.418,11.43 z m -23.399,30.6 h 356.989 c 49.863,0 90.313,-40.43 90.313,-90.31 0,-49.86 -40.45,-90.31 -90.313,-90.31 H 586.238 c -9.531,0 -17.289,7.76 -17.289,17.29 v 146.05 c 0,9.52 7.758,17.28 17.289,17.28 z m 461.942,17.61 H 553.098 v -215.84 h 495.082 z" /><path
         id="path16"
         style="fill:none;stroke:#384d71;stroke-width:10.15999985;stroke-linecap:round;stroke-linejoin:round;stroke-miterlimit:10;stroke-dasharray:none;stroke-opacity:1"
         d="m 615.906,1390.63 c 29.282,0 47.071,-7.33 66.981,-7.33 31.101,0 77.511,20.97 77.511,58.54 0,37.55 -46.41,58.54 -77.511,58.54 -19.91,0 -37.699,-7.33 -66.981,-7.33 m 119.262,-74.92 c -20.379,8.76 -20.379,38.66 0,47.42 m -117.43,-49.3 c 47.731,-27.07 128.02,-17.57 128.02,25.59 0,43.16 -80.289,52.66 -128.02,25.61 m -22.281,-25.61 c 0,3.86 -3.129,6.98 -7,6.98 -3.859,0 -6.98,-3.12 -6.98,-6.98 0,-3.86 3.121,-7 6.98,-7 3.871,0 7,3.14 7,7 z m 22.281,-43 v 85.98 c 0,8.07 -6.601,14.63 -14.64,14.63 h -29.27 c -8.051,0 -14.629,-6.56 -14.629,-14.63 v -85.98 c 0,-8.04 6.578,-14.63 14.629,-14.63 h 29.27 c 8.039,0 14.64,6.59 14.64,14.63 z" /><path
         id="path18"
         style="fill:none;stroke:#384d71;stroke-width:10.15999985;stroke-linecap:round;stroke-linejoin:round;stroke-miterlimit:10;stroke-dasharray:none;stroke-opacity:1"
         d="m 567.758,1842.41 v -11.81 m 5.91,5.91 h -11.809 m 41.93,0.01 c 0,2.4 -1.941,4.36 -4.359,4.36 -2.403,0 -4.352,-1.96 -4.352,-4.36 0,-2.41 1.949,-4.35 4.352,-4.35 2.418,0 4.359,1.94 4.359,4.35 z m -20.211,-42.92 v 85.82 h 17.949 c 23.364,0 29.84,-23.53 29.84,-42.91 0,-19.38 -6.476,-42.91 -29.84,-42.91 z m 62.199,42.91 c 0,-44.88 -25.687,-57.31 -44.25,-57.31 h -48.429 v 114.62 h 48.429 c 18.563,0 44.25,-12.43 44.25,-57.31 z" /><path
         id="path20"
         style="fill:none;stroke:#384d71;stroke-width:10.15999985;stroke-linecap:round;stroke-linejoin:round;stroke-miterlimit:10;stroke-dasharray:none;stroke-opacity:1"
         d="m 3600.57,3246.15 v -137.79 m -50,30.67 c 0,-7.75 6.3,-14.04 14.06,-14.04 7.76,0 14.06,6.29 14.06,14.04 0,7.76 -6.3,14.05 -14.06,14.05 -7.76,0 -14.06,-6.29 -14.06,-14.05 z m 0,76.45 c 0,-7.76 6.3,-14.05 14.06,-14.05 7.76,0 14.06,6.29 14.06,14.05 0,7.75 -6.3,14.04 -14.06,14.04 -7.76,0 -14.06,-6.29 -14.06,-14.04 z m -70.13,-76.45 c 0,-7.75 6.29,-14.04 14.06,-14.04 7.75,0 14.04,6.29 14.04,14.04 0,7.76 -6.29,14.05 -14.04,14.05 -7.77,0 -14.06,-6.29 -14.06,-14.05 z m 0,76.45 c 0,-7.76 6.29,-14.05 14.06,-14.05 7.75,0 14.04,6.29 14.04,14.05 0,7.75 -6.29,14.04 -14.04,14.04 -7.77,0 -14.06,-6.29 -14.06,-14.04 z m -23.76,-107.12 h 164.61 v 137.79 h -164.61 z m 140.24,-357.28 v -68.27 m -120.73,68.27 v -68.27 m 17.25,68.27 v -68.28 m 17.25,68.28 v -68.28 m 17.24,68.28 v -68.28 m 17.25,68.28 v -68.28 m 17.25,68.28 v -68.28 m 17.24,68.28 v -68.28 m -2.26,164.06 v -17.07 m -13.41,8.54 h 45.6 m -157.8,48.77 v -97.55 c 0,-9.76 8,-17.75 17.74,-17.75 h 122.32 c 9.76,0 17.76,7.99 17.76,17.75 v 97.55 c 0,9.76 -8,17.74 -17.76,17.74 h -122.32 c -9.74,0 -17.74,-7.98 -17.74,-17.74 z m -12.19,204.19 h 198.77 m -198.77,-168.27 h 198.77 m 0,514.58 h -198.77 v -779.18 h 198.77" /><path
         id="path22"
         style="fill:#384d71;fill-opacity:1;fill-rule:evenodd;stroke:none"
         d="m 1517.86,1231.76 h -99.99 v 34.04 h 99.99 v 392.72 h 1564.48 v 14.64 h 82.89 v -97.53 H 1600.76 V 5.07813 H 1230.09 V 87.9688 h 287.77 z m 1084.12,1228.59 -223.93,-223.92 h -78.57 v -34.05 h 92.66 c 81.3,81.29 162.61,162.58 243.91,243.87 v 1329.11 h 225.57 v 82.9 h -418.67 l -107.4,107.42 -58.64,-58.62 131.72,-131.7 h 193.35 z m 1036.4,12.73 H 2898.2 v 34.05 h 740.18 V 3775.36 H 3294.5 v 82.9 h 426.78 V 1960.93 h -638.94 v 82.9 h 556.04 z M 1123.27,1265.8 v 75.69 h 34.05 v -75.69 h 0.82 v -34.04 H 538.695 V 87.9688 H 798.414 V 5.07813 H 455.805 V 3536.38 h 24.422 v 321.88 h 34.05 v -321.88 h 24.418 v -52.46 h 407.27 v -82.89 h -407.27 v -1164.6 h 619.445 v -304.76 h -34.05 v 270.71 H 538.695 v -529.22 h 585.395 v 57.32 h 34.05 v -187.79 h -34.05 v 96.41 H 538.695 v -373.3 z m 388.08,2592.46 h 250.19 l 107.41,107.42 58.62,-58.62 -131.7,-131.7 H 1576.39 V 2236.43 h 348.75 v -34.05 h -507.27 v 34.05 h 124.48 v 1164.6 h -120.82 v 82.89 h 71.97 v 374.34" /><path
         id="path24"
         style="fill:none;stroke:#384d71;stroke-width:10.15999985;stroke-linecap:round;stroke-linejoin:round;stroke-miterlimit:10;stroke-dasharray:none;stroke-opacity:1"
         d="m 1517.86,1231.76 h -99.99 v 34.04 h 99.99 v 392.72 h 1564.48 v 14.64 h 82.89 v -97.53 H 1600.76 V 5.07813 H 1230.09 V 87.9688 h 287.77 z m 1084.12,1228.59 -223.93,-223.92 h -78.57 v -34.05 h 92.66 c 81.3,81.29 162.61,162.58 243.91,243.87 v 1329.11 h 225.57 v 82.9 h -418.67 l -107.4,107.42 -58.64,-58.62 131.72,-131.7 h 193.35 z m 1036.4,12.73 H 2898.2 v 34.05 h 740.18 V 3775.36 H 3294.5 v 82.9 h 426.78 V 1960.93 h -638.94 v 82.9 h 556.04 z M 1123.27,1265.8 v 75.69 h 34.05 v -75.69 h 0.82 v -34.04 H 538.695 V 87.9688 H 798.414 V 5.07813 H 455.805 V 3536.38 h 24.422 v 321.88 h 34.05 v -321.88 h 24.418 v -52.46 h 407.27 v -82.89 h -407.27 v -1164.6 h 619.445 v -304.76 h -34.05 v 270.71 H 538.695 v -529.22 h 585.395 v 57.32 h 34.05 v -187.79 h -34.05 v 96.41 H 538.695 v -373.3 z m 388.08,2592.46 h 250.19 l 107.41,107.42 58.62,-58.62 -131.7,-131.7 H 1576.39 V 2236.43 h 348.75 v -34.05 h -507.27 v 34.05 h 124.48 v 1164.6 h -120.82 v 82.89 h 71.97 v 374.34 z" /><path
         id="path26"
         style="fill:#ffffff;fill-opacity:1;fill-rule:evenodd;stroke:none"
         d="m 1886.21,3948.4 56.69,56.67 h 318.69 l 56.69,-56.67 -24.08,-24.08 -46.72,46.7 h -290.49 l -46.7,-46.7" /><path
         id="path28"
         style="fill:none;stroke:#384d71;stroke-width:10.15999985;stroke-linecap:round;stroke-linejoin:round;stroke-miterlimit:10;stroke-dasharray:none;stroke-opacity:1"
         d="m 1886.21,3948.4 56.69,56.67 h 318.69 l 56.69,-56.67 -24.08,-24.08 -46.72,46.7 h -290.49 l -46.7,-46.7 z" /><path
         id="path30"
         style="fill:#ffffff;fill-opacity:1;fill-rule:nonzero;stroke:none"
         d="m 798.41,29.4883 h 431.672 V 63.5391 H 798.41 Z" /><path
         id="path32"
         style="fill:none;stroke:#384c71;stroke-width:10.17000008;stroke-linecap:round;stroke-linejoin:round;stroke-miterlimit:22.9260006;stroke-dasharray:none;stroke-opacity:1"
         d="m 798.41,29.4883 h 431.672 V 63.5391 H 798.41 Z" /><path
         id="path34"
         style="fill:#ffffff;fill-opacity:1;fill-rule:nonzero;stroke:none"
         d="m 2861.62,3799.79 h 432.867 v 34.0508 H 2861.62 Z" /><path
         id="path36"
         style="fill:none;stroke:#384c71;stroke-width:10.17000008;stroke-linecap:round;stroke-linejoin:round;stroke-miterlimit:22.9260006;stroke-dasharray:none;stroke-opacity:1"
         d="m 2861.62,3799.79 h 432.867 v 34.0508 H 2861.62 Z" /><path
         id="path38"
         style="fill:#ffffff;fill-opacity:1;fill-rule:nonzero;stroke:none"
         d="m 945.969,3425.45 h 259.723 v 34.0391 H 945.969 Z" /><path
         id="path40"
         style="fill:none;stroke:#384c71;stroke-width:10.17000008;stroke-linecap:round;stroke-linejoin:round;stroke-miterlimit:22.9260006;stroke-dasharray:none;stroke-opacity:1"
         d="m 945.969,3425.45 h 259.723 v 34.0391 H 945.969 Z" /><path
         id="path42"
         style="fill:#ffffff;fill-opacity:1;fill-rule:nonzero;stroke:none"
         d="m 514.27,3824.21 h 979.219 v 34.0508 H 514.27 Z" /><path
         id="path44"
         style="fill:none;stroke:#384c71;stroke-width:10.17000008;stroke-linecap:round;stroke-linejoin:round;stroke-miterlimit:22.9260006;stroke-dasharray:none;stroke-opacity:1"
         d="m 514.27,3824.21 h 979.219 v 34.0508 H 514.27 Z" /><path
         id="path46"
         style="fill:none;stroke:#384c71;stroke-width:20.34000015;stroke-linecap:round;stroke-linejoin:round;stroke-miterlimit:22.9260006;stroke-dasharray:none;stroke-opacity:1"
         d="M 1421.52,3401.02 1234.96,3292.5" /><path
         id="path48"
         style="fill:none;stroke:#384c71;stroke-width:20.34000015;stroke-linecap:round;stroke-linejoin:round;stroke-miterlimit:22.9260006;stroke-dasharray:none;stroke-opacity:1"
         d="M 1158.14,2202.38 1382.5,2073.13" /><path
         id="path50"
         style="fill:none;stroke:#384c71;stroke-width:20.34000015;stroke-linecap:round;stroke-linejoin:round;stroke-miterlimit:22.9260006;stroke-dasharray:none;stroke-opacity:1"
         d="m 1158.14,1931.67 101.2,-174.37" /><path
         id="path52"
         style="fill:none;stroke:#384c71;stroke-width:20.34000015;stroke-linecap:round;stroke-linejoin:round;stroke-miterlimit:22.9260006;stroke-dasharray:none;stroke-opacity:1"
         d="m 1022.78,1515.87 101.21,-174.38" /><path
         id="path54"
         style="fill:none;stroke:#384c71;stroke-width:20.34000015;stroke-linecap:round;stroke-linejoin:round;stroke-miterlimit:22.9260006;stroke-dasharray:none;stroke-opacity:1"
         d="M 1417.87,1231.76 1193.5,1102.49" /><path
         id="path56"
         style="fill:none;stroke:#384c71;stroke-width:20.34000015;stroke-linecap:round;stroke-linejoin:round;stroke-miterlimit:22.9260006;stroke-dasharray:none;stroke-opacity:1"
         d="m 3165.23,1673.15 143.88,248.76" /><path
         id="path58"
         style="fill:none;stroke:#384c71;stroke-width:20.34000015;stroke-linecap:round;stroke-linejoin:round;stroke-miterlimit:22.9260006;stroke-dasharray:none;stroke-opacity:1"
         d="m 2636.05,2507.13 226.79,131.68" /><path
         id="path60"
         style="fill:none;stroke:#384c71;stroke-width:20.34000015;stroke-linecap:round;stroke-linejoin:round;stroke-miterlimit:22.9260006;stroke-dasharray:none;stroke-opacity:1"
         d="m 2299.48,2202.38 -112.2,-80.48" /><path
         id="path62"
         style="fill:none;stroke:#384c71;stroke-width:20.34000015;stroke-linecap:round;stroke-linejoin:round;stroke-miterlimit:22.9260006;stroke-dasharray:none;stroke-opacity:1"
         d="M 1925.14,2202.38 2137.3,2080.43" /><path
         id="path64"
         style="fill:none;stroke:#384d71;stroke-width:10.15999985;stroke-linecap:round;stroke-linejoin:round;stroke-miterlimit:10;stroke-dasharray:none;stroke-opacity:1"
         d="m 1050.86,573.152 c 63.45,0 115.21,51.762 115.21,115.211 0,63.473 -51.76,115.231 -115.21,115.231 -63.465,0 -115.215,-51.758 -115.215,-115.231 0,-63.449 51.75,-115.211 115.215,-115.211 z" /><g
         transform="scale(10)"
         id="g66"><text
           id="text70"
           style="font-variant:normal;font-weight:bold;font-size:15.79559994px;font-family:Roboto;-inkscape-font-specification:Roboto-Bold;writing-mode:lr-tb;fill:#000000;fill-opacity:1;fill-rule:nonzero;stroke:none"
           transform="matrix(1,0,0,-1,100.869,63.1406)"><tspan
             id="tspan68"
             y="0"
             x="0">3</tspan></text>
<text
           id="text74"
           style="font-variant:normal;font-weight:normal;font-size:10.80879974px;font-family:Roboto;-inkscape-font-specification:Roboto-Regular;writing-mode:lr-tb;fill:#000000;fill-opacity:1;fill-rule:nonzero;stroke:none"
           transform="matrix(1,0,0,-1,91.70572,44.8398)"><tspan
             id="tspan72"
             y="0"
             x="0 6.0853543 12.170709 15.067467 21.152822">13.28</tspan></text>
</g><path
         id="path76"
         style="fill:none;stroke:#384d71;stroke-width:10.15999985;stroke-linecap:round;stroke-linejoin:round;stroke-miterlimit:10;stroke-dasharray:none;stroke-opacity:1"
         d="m 120.297,1869.15 c 63.461,0 115.223,51.76 115.223,115.21 0,63.47 -51.762,115.22 -115.223,115.22 -63.4572,0 -115.20716,-51.75 -115.20716,-115.22 0,-63.45 51.74996,-115.21 115.20716,-115.21 z" /><g
         transform="scale(10)"
         id="g78"><text
           id="text82"
           style="font-variant:normal;font-weight:bold;font-size:15.79559994px;font-family:Roboto;-inkscape-font-specification:Roboto-Bold;writing-mode:lr-tb;fill:#000000;fill-opacity:1;fill-rule:nonzero;stroke:none"
           transform="matrix(1,0,0,-1,7.8125,192.742)"><tspan
             id="tspan80"
             y="0"
             x="0">5</tspan></text>
<text
           id="text86"
           style="font-variant:normal;font-weight:normal;font-size:10.80879974px;font-family:Roboto;-inkscape-font-specification:Roboto-Regular;writing-mode:lr-tb;fill:#000000;fill-opacity:1;fill-rule:nonzero;stroke:none"
           transform="matrix(1,0,0,-1,1.6918,174.4393)"><tspan
             id="tspan84"
             y="0"
             x="0 6.0853543 8.9821129 15.067467">3.69</tspan></text>
</g><path
         id="path88"
         style="fill:none;stroke:#384d71;stroke-width:10.15999985;stroke-linecap:round;stroke-linejoin:round;stroke-miterlimit:10;stroke-dasharray:none;stroke-opacity:1"
         d="m 2540.3,1916.62 c 63.47,0 115.22,51.76 115.22,115.21 0,63.47 -51.75,115.22 -115.22,115.22 -63.45,0 -115.21,-51.75 -115.21,-115.22 0,-63.45 51.76,-115.21 115.21,-115.21 z" /><g
         transform="scale(10)"
         id="g90"><text
           id="text94"
           style="font-variant:normal;font-weight:bold;font-size:15.79559994px;font-family:Roboto;-inkscape-font-specification:Roboto-Bold;writing-mode:lr-tb;fill:#000000;fill-opacity:1;fill-rule:nonzero;stroke:none"
           transform="matrix(1,0,0,-1,249.814,197.488)"><tspan
             id="tspan92"
             y="0"
             x="0">1</tspan></text>
<text
           id="text98"
           style="font-variant:normal;font-weight:normal;font-size:10.80879974px;font-family:Roboto;-inkscape-font-specification:Roboto-Regular;writing-mode:lr-tb;fill:#000000;fill-opacity:1;fill-rule:nonzero;stroke:none"
           transform="matrix(1,0,0,-1,240.65189,179.1853)"><tspan
             id="tspan96"
             y="0"
             x="0 6.0853543 12.170709 15.067467 21.152822">18.96</tspan></text>
</g><path
         id="path100"
         style="fill:none;stroke:#384d71;stroke-width:10.15999985;stroke-linecap:round;stroke-linejoin:round;stroke-miterlimit:10;stroke-dasharray:none;stroke-opacity:1"
         d="m 1036.72,2858.43 c 63.46,0 115.21,51.76 115.21,115.21 0,63.47 -51.75,115.22 -115.21,115.22 -63.454,0 -115.216,-51.75 -115.216,-115.22 0,-63.45 51.762,-115.21 115.216,-115.21 z" /><g
         transform="scale(10)"
         id="g102"><text
           id="text106"
           style="font-variant:normal;font-weight:bold;font-size:15.79559994px;font-family:Roboto;-inkscape-font-specification:Roboto-Bold;writing-mode:lr-tb;fill:#000000;fill-opacity:1;fill-rule:nonzero;stroke:none"
           transform="matrix(1,0,0,-1,99.4555,291.669)"><tspan
             id="tspan104"
             y="0"
             x="0">3</tspan></text>
<text
           id="text110"
           style="font-variant:normal;font-weight:normal;font-size:10.80879974px;font-family:Roboto;-inkscape-font-specification:Roboto-Regular;writing-mode:lr-tb;fill:#000000;fill-opacity:1;fill-rule:nonzero;stroke:none"
           transform="matrix(1,0,0,-1,90.29261,273.3686)"><tspan
             id="tspan108"
             y="0"
             x="0 6.0853543 12.170709 15.067467 21.152822">14.12</tspan></text>
</g><path
         id="path112"
         style="fill:none;stroke:#384d71;stroke-width:10.15999985;stroke-linecap:round;stroke-linejoin:round;stroke-miterlimit:10;stroke-dasharray:none;stroke-opacity:1"
         d="m 2102.9,3144.08 c 63.45,0 115.21,51.76 115.21,115.22 0,63.45 -51.76,115.21 -115.21,115.21 -63.45,0 -115.21,-51.76 -115.21,-115.21 0,-63.46 51.76,-115.22 115.21,-115.22 z" /><g
         transform="scale(10)"
         id="g114"><text
           id="text118"
           style="font-variant:normal;font-weight:bold;font-size:15.79559994px;font-family:Roboto;-inkscape-font-specification:Roboto-Bold;writing-mode:lr-tb;fill:#000000;fill-opacity:1;fill-rule:nonzero;stroke:none"
           transform="matrix(1,0,0,-1,206.071,320.234)"><tspan
             id="tspan116"
             y="0"
             x="0">2</tspan></text>
<text
           id="text122"
           style="font-variant:normal;font-weight:normal;font-size:10.80879974px;font-family:Roboto;-inkscape-font-specification:Roboto-Regular;writing-mode:lr-tb;fill:#000000;fill-opacity:1;fill-rule:nonzero;stroke:none"
           transform="matrix(1,0,0,-1,196.91045,301.932)"><tspan
             id="tspan120"
             y="0"
             x="0 6.0853543 12.170709 15.067467 21.152822">19.63</tspan></text>
</g><path
         id="path124"
         style="fill:none;stroke:#384d71;stroke-width:10.15999985;stroke-linecap:round;stroke-linejoin:round;stroke-miterlimit:10;stroke-dasharray:none;stroke-opacity:1"
         d="m 3132.9,3212.22 c 63.45,0 115.21,51.75 115.21,115.21 0,63.46 -51.76,115.22 -115.21,115.22 -63.47,0 -115.22,-51.76 -115.22,-115.22 0,-63.46 51.75,-115.21 115.22,-115.21 z" /><g
         transform="scale(10)"
         id="g126"><text
           id="text130"
           style="font-variant:normal;font-weight:bold;font-size:15.79559994px;font-family:Roboto;-inkscape-font-specification:Roboto-Bold;writing-mode:lr-tb;fill:#000000;fill-opacity:1;fill-rule:nonzero;stroke:none"
           transform="matrix(1,0,0,-1,309.071,327.047)"><tspan
             id="tspan128"
             y="0"
             x="0">4</tspan></text>
<text
           id="text134"
           style="font-variant:normal;font-weight:normal;font-size:10.80879974px;font-family:Roboto;-inkscape-font-specification:Roboto-Regular;writing-mode:lr-tb;fill:#000000;fill-opacity:1;fill-rule:nonzero;stroke:none"
           transform="matrix(1,0,0,-1,299.90889,308.7458)"><tspan
             id="tspan132"
             y="0"
             x="0 6.0853543 12.170709 15.067467 21.152822">14.13</tspan></text>
</g><path
         id="path136"
         style="fill:none;stroke:#384d71;stroke-width:10.15999985;stroke-linecap:round;stroke-linejoin:round;stroke-miterlimit:10;stroke-dasharray:none;stroke-opacity:1"
         d="m 1317.5,3565.96 c 63.46,0 115.23,51.76 115.23,115.22 0,63.46 -51.77,115.21 -115.23,115.21 -63.45,0 -115.2,-51.75 -115.2,-115.21 0,-63.46 51.75,-115.22 115.2,-115.22 z" /><g
         transform="scale(10)"
         id="g138"><text
           id="text142"
           style="font-variant:normal;font-weight:bold;font-size:15.79559994px;font-family:Roboto;-inkscape-font-specification:Roboto-Bold;writing-mode:lr-tb;fill:#000000;fill-opacity:1;fill-rule:nonzero;stroke:none"
           transform="matrix(1,0,0,-1,127.534,362.421)"><tspan
             id="tspan140"
             y="0"
             x="0">8</tspan></text>
<text
           id="text146"
           style="font-variant:normal;font-weight:normal;font-size:10.80879974px;font-family:Roboto;-inkscape-font-specification:Roboto-Regular;writing-mode:lr-tb;fill:#000000;fill-opacity:1;fill-rule:nonzero;stroke:none"
           transform="matrix(1,0,0,-1,124.45705,344.119)"><tspan
             id="tspan144"
             y="0"
             x="0 6.0853543 8.9821129">3.6</tspan></text>
</g><path
         id="path148"
         style="fill:none;stroke:#000000;stroke-width:8.64000034;stroke-linecap:round;stroke-linejoin:round;stroke-miterlimit:22.9260006;stroke-dasharray:none;stroke-opacity:1"
         d="M 875.215,1734.84 H 5.08594" /><path
         id="path150"
         style="fill:none;stroke:#000000;stroke-width:8.64000034;stroke-linecap:round;stroke-linejoin:round;stroke-miterlimit:22.9260006;stroke-dasharray:none;stroke-opacity:1"
         d="M 875.215,1303.92 H 5.08594" /><path
         id="path152"
         style="fill:none;stroke:#384d71;stroke-width:10.15999985;stroke-linecap:round;stroke-linejoin:round;stroke-miterlimit:10;stroke-dasharray:none;stroke-opacity:1"
         d="m 120.297,1452.64 c 63.461,0 115.223,51.76 115.223,115.22 0,63.45 -51.762,115.21 -115.223,115.21 -63.4572,0 -115.20716,-51.76 -115.20716,-115.21 0,-63.46 51.74996,-115.22 115.20716,-115.22 z" /><g
         transform="scale(10)"
         id="g154"><text
           id="text158"
           style="font-variant:normal;font-weight:bold;font-size:15.79559994px;font-family:Roboto;-inkscape-font-specification:Roboto-Bold;writing-mode:lr-tb;fill:#000000;fill-opacity:1;fill-rule:nonzero;stroke:none"
           transform="matrix(1,0,0,-1,7.8125,151.09)"><tspan
             id="tspan156"
             y="0"
             x="0">6</tspan></text>
<text
           id="text162"
           style="font-variant:normal;font-weight:normal;font-size:10.80879974px;font-family:Roboto;-inkscape-font-specification:Roboto-Regular;writing-mode:lr-tb;fill:#000000;fill-opacity:1;fill-rule:nonzero;stroke:none"
           transform="matrix(1,0,0,-1,1.6918,132.7873)"><tspan
             id="tspan160"
             y="0"
             x="0 6.0853543 8.9821129 15.067467">1.95</tspan></text>
</g></g></g></svg>