<?xml version="1.0" encoding="UTF-8" standalone="no"?>
<svg
   xmlns:dc="http://purl.org/dc/elements/1.1/"
   xmlns:cc="http://creativecommons.org/ns#"
   xmlns:rdf="http://www.w3.org/1999/02/22-rdf-syntax-ns#"
   xmlns:svg="http://www.w3.org/2000/svg"
   xmlns="http://www.w3.org/2000/svg"
   viewBox="0 0 438.77499 501.17499"
   height="501.17499"
   width="438.77499"
   xml:space="preserve"
   id="svg2"
   version="1.1"><metadata
     id="metadata8"><rdf:RDF><cc:Work
         rdf:about=""><dc:format>image/svg+xml</dc:format><dc:type
           rdf:resource="http://purl.org/dc/dcmitype/StillImage" /></cc:Work></rdf:RDF></metadata><defs
     id="defs6" /><g
     transform="matrix(1.25,0,0,-1.25,0,501.175)"
     id="g10"><g
       transform="scale(0.1)"
       id="g12"><path
         id="path14"
         style="fill:none;stroke:#384d71;stroke-width:9.42000008;stroke-linecap:round;stroke-linejoin:round;stroke-miterlimit:10;stroke-dasharray:none;stroke-opacity:1"
         d="m 543.813,2508.75 v 14.2 m 0,30.5 v -14.2 m 22.339,-8.16 h -14.187 m -30.492,0 h 14.191 m 21.527,0 c 0,-7.38 -5.988,-13.38 -13.378,-13.38 -7.399,0 -13.391,6 -13.391,13.38 0,7.41 5.992,13.39 13.391,13.39 7.39,0 13.378,-5.98 13.378,-13.39 z m -56.5,-55.91 h 257.442 c 30.582,0 55.359,24.78 55.359,55.36 0,30.57 -24.777,55.35 -55.359,55.35 H 500.691 c -5.839,0 -10.597,-4.75 -10.597,-10.59 v -89.53 c 0,-5.84 4.758,-10.59 10.597,-10.59 z m -21.707,-28.39 h 331.059 c 46.25,0 83.75,37.5 83.75,83.75 0,46.25 -37.5,83.75 -83.75,83.75 H 478.984 c -8.832,0 -16.019,-7.2 -16.019,-16.04 v -135.43 c 0,-8.84 7.187,-16.03 16.019,-16.03 z m 428.379,-16.33 H 448.254 v 200.15 h 459.109 z" /><path
         id="path16"
         style="fill:none;stroke:#384d71;stroke-width:9.42000008;stroke-linecap:round;stroke-linejoin:round;stroke-miterlimit:10;stroke-dasharray:none;stroke-opacity:1"
         d="m 500.852,2075.21 c 27.148,0 43.66,6.79 62.109,6.79 28.859,0 71.879,-19.45 71.879,-54.27 0,-34.82 -43.02,-54.3 -71.879,-54.3 -18.449,0 -34.961,6.8 -62.109,6.8 m 110.597,69.48 c -18.918,-8.12 -18.918,-35.85 0,-43.96 m -108.91,45.71 c 44.27,25.11 118.742,16.27 118.742,-23.73 0,-40.02 -74.472,-48.84 -118.742,-23.75 m -20.648,23.75 c 0,-3.59 -2.922,-6.48 -6.481,-6.48 -3.582,0 -6.488,2.89 -6.488,6.48 0,3.57 2.906,6.48 6.488,6.48 3.559,0 6.481,-2.91 6.481,-6.48 z m 20.648,39.86 v -79.73 c 0,-7.47 -6.098,-13.56 -13.57,-13.56 h -27.141 c -7.457,0 -13.566,6.09 -13.566,13.56 v 79.73 c 0,7.46 6.109,13.57 13.566,13.57 h 27.141 c 7.472,0 13.57,-6.11 13.57,-13.57 z" /><path
         id="path18"
         style="fill:none;stroke:#384d71;stroke-width:9.42000008;stroke-linecap:round;stroke-linejoin:round;stroke-miterlimit:10;stroke-dasharray:none;stroke-opacity:1"
         d="m 461.855,2305.33 v 10.96 m 5.481,-5.48 h -10.961 m 38.891,-0.01 c 0,-2.23 -1.813,-4.04 -4.032,-4.04 -2.238,0 -4.039,1.81 -4.039,4.04 0,2.23 1.801,4.04 4.039,4.04 2.219,0 4.032,-1.81 4.032,-4.04 z m -18.743,39.8 v -79.58 h 16.641 c 21.66,0 27.672,21.82 27.672,39.79 0,17.97 -6.012,39.79 -27.672,39.79 z m 57.672,-39.79 c 0,41.62 -23.82,53.15 -41.031,53.15 h -44.91 v -106.3 h 44.91 c 17.211,0 41.031,11.53 41.031,53.15 z" /><path
         id="path20"
         style="fill:none;stroke:#384d71;stroke-width:9.42000008;stroke-linecap:round;stroke-linejoin:round;stroke-miterlimit:10;stroke-dasharray:none;stroke-opacity:1"
         d="m 619.238,3357.49 v 143.62 M 469.957,3341.66 v -127.78 m 46.359,28.45 c 0,-7.2 -5.828,-13.03 -13.027,-13.03 -7.191,0 -13.019,5.83 -13.019,13.03 0,7.19 5.828,13.02 13.019,13.02 7.199,0 13.027,-5.83 13.027,-13.02 z m 0,70.89 c 0,-7.19 -5.828,-13.03 -13.027,-13.03 -7.191,0 -13.019,5.84 -13.019,13.03 0,7.19 5.828,13.02 13.019,13.02 7.199,0 13.027,-5.83 13.027,-13.02 z m 65.051,-70.89 c 0,-7.2 -5.828,-13.03 -13.027,-13.03 -7.192,0 -13.024,5.83 -13.024,13.03 0,7.19 5.832,13.02 13.024,13.02 7.199,0 13.027,-5.83 13.027,-13.02 z m 0,70.89 c 0,-7.19 -5.828,-13.03 -13.027,-13.03 -7.192,0 -13.024,5.84 -13.024,13.03 0,7.19 5.832,13.02 13.024,13.02 7.199,0 13.027,-5.83 13.027,-13.02 z m 22.031,-99.34 h -152.66 v 127.78 h 152.66 z M 473.359,2761.47 v -63.32 m 111.938,63.32 v -63.32 m -15.981,63.32 v -63.32 m -16,63.32 v -63.32 m -15.988,63.32 v -63.32 m -16,63.32 v -63.32 m -15.988,63.32 v -63.32 m -15.981,63.32 v -63.32 m 2.098,152.14 v -15.82 m 12.422,7.91 h -42.301 m 146.34,45.23 v -90.46 c 0,-9.05 -7.41,-16.45 -16.449,-16.45 h -113.43 c -9.051,0 -16.461,7.41 -16.461,16.45 v 90.46 c 0,9.05 7.399,16.46 16.461,16.46 h 113.43 c 9.039,0 16.449,-7.41 16.449,-16.46 z m 11.32,310.45 h -184.34 m 184.34,-277.14 h -184.34 m 0,436.57 h 184.34 v -681.95 h -184.34" /><path
         id="path22"
         style="fill:#ffffff;fill-opacity:1;fill-rule:evenodd;stroke:none"
         d="m 2084.08,3661.57 -52.57,52.55 h -295.55 l -52.55,-52.55 22.34,-22.32 43.3,43.3 h 269.4 l 43.31,-43.3" /><path
         id="path24"
         style="fill:none;stroke:#384d71;stroke-width:9.42000008;stroke-linecap:round;stroke-linejoin:round;stroke-miterlimit:10;stroke-dasharray:none;stroke-opacity:1"
         d="m 2084.08,3661.57 -52.57,52.55 h -295.55 l -52.55,-52.55 22.34,-22.32 43.3,43.3 h 269.4 l 43.31,-43.3 z" /><path
         id="path26"
         style="fill:#ffffff;fill-opacity:1;fill-rule:evenodd;stroke:none"
         d="m 3452.88,2305.41 52.57,52.54 v 295.55 l -52.57,52.57 -22.32,-22.34 43.31,-43.3 v -269.39 l -43.31,-43.31" /><path
         id="path28"
         style="fill:none;stroke:#384d71;stroke-width:9.42000008;stroke-linecap:round;stroke-linejoin:round;stroke-miterlimit:10;stroke-dasharray:none;stroke-opacity:1"
         d="m 3452.88,2305.41 52.57,52.54 v 295.55 l -52.57,52.57 -22.32,-22.34 43.31,-43.3 v -269.39 l -43.31,-43.31 z" /><path
         id="path30"
         style="fill:#ffffff;fill-opacity:1;fill-rule:evenodd;stroke:none"
         d="m 3452.88,877.207 52.57,52.57 v 295.553 l -52.57,52.54 -22.32,-22.32 43.31,-43.3 V 942.848 l -43.31,-43.321" /><path
         id="path32"
         style="fill:none;stroke:#384d71;stroke-width:9.42000008;stroke-linecap:round;stroke-linejoin:round;stroke-miterlimit:10;stroke-dasharray:none;stroke-opacity:1"
         d="m 3452.88,877.207 52.57,52.57 v 295.553 l -52.57,52.54 -22.32,-22.32 43.31,-43.3 V 942.848 l -43.31,-43.321 z" /><path
         id="path34"
         style="fill:#384c71;fill-opacity:1;fill-rule:evenodd;stroke:none"
         d="m 1480.33,1360.5 v -76.87 h -161.18 v 213.72 h 76.88 V 1360.5 Z m 0,534.86 H 973.102 v 42.99 h -31.571 v -42.99 H 434.902 v 264.72 h 506.629 v -35.14 h 31.571 v 101.77 h -31.571 v -35.05 H 434.902 v 452.31 H 941.531 V 2413.3 h 31.571 v 230.67 h 171.878 v 31.57 H 434.902 v 825.57 h 342.602 v 76.88 H 358.031 V 1895.36 h -1.558 v -76.87 h 962.677 v -54.28 h 76.88 v 99.58 h 84.3 z m 0,1682.63 v -76.88 h -60.6 V 2250.37 h 60.6 v -31.57 h -92.16 v 425.17 h -17.84 v 31.57 h 17.84 v 825.57 h -210.29 v 76.88 z m 0,-76.88 v 76.88 h 87.45 l 99.62,99.6 54.36,-54.36 -122.13,-122.12 z m 0,-1250.74 h 302.46 v -31.57 h -302.46 z m 0,-355.01 h 369.16 v -31.57 H 1480.33 Z M 2475.38,428.75 V 351.879 H 2447.7 V 4.71875 h -76.87 V 1283.63 h -890.5 v 76.87 h 890.44 v 83.7 h 31.58 v -83.7 h 45.35 V 428.75 Z m 0,2802.09 v -76.87 h -73.03 V 2218.8 h -272.41 v 31.57 h 240.83 v 1250.74 h -202.91 l -122.14,122.12 54.38,54.36 99.6,-99.6 h 247.94 V 3230.84 Z M 2370.77,1685.05 h 31.58 v 133.44 h 73.03 v 31.57 h -73.03 v 127.88 h -31.58 z m 627.59,1468.92 h 294.05 v -364.12 l 122.14,-122.13 54.34,54.36 -99.6,99.61 v 409.15 h -370.93 z m 0,-2802.091 h 347.15 v 0.008 h 23.78 v 409.691 l 99.6,99.621 -54.34,54.36 L 3292.41,793.43 V 428.75 H 2998.36 Z M 2475.38,3230.84 h 104.64 v -76.87 h -104.64 z m 0,-2802.09 h 104.64 v -76.871 h -104.64 z m 0,1389.74 h 817.03 v -456.84 l 122.14,-122.12 54.34,54.36 -99.6,99.62 v 796.27 l 99.6,99.61 -54.34,54.36 -122.14,-122.13 v -371.56 h -817.03" /><path
         id="path36"
         style="fill:none;stroke:#384c71;stroke-width:9.43000031;stroke-linecap:round;stroke-linejoin:round;stroke-miterlimit:22.9260006;stroke-dasharray:none;stroke-opacity:1"
         d="m 434.902,2160.08 h 506.629 v -35.15 h 31.571 v 101.78 h -31.571 v -35.06 H 434.902 v 452.31 h 506.629 v -230.67 h 31.571 v 230.67 h 171.878 v 31.58 H 434.902 v 825.57 h 342.602 v 76.87 H 358.031 V 1895.36 h -1.558 v -76.88 h 962.677 v -54.27 h 76.88 v 99.58 h 453.46 v 31.57 H 973.102 v 42.99 h -31.571 v -42.99 H 434.902 Z m 742.978,1341.03 v 76.87 h 389.9 l 99.62,99.61 54.36,-54.36 -122.13,-122.12 h -179.9 V 2250.36 h 363.06 v -31.57 h -394.62 v 425.17 h -17.84 v 31.58 h 17.84 v 825.57 z m 1192.89,76.87 h -171.08 l -99.59,99.61 -54.38,-54.36 122.14,-122.12 h 202.91 V 2250.36 h -240.83 v -31.57 h 272.41 v 935.17 h 177.67 v 76.87 h -132.38 v 347.15 z m 627.59,-424.02 h 294.05 v -364.11 l 122.14,-122.13 54.34,54.36 -99.61,99.61 v 409.14 h -370.92 z m 0,-2802.085 h 347.15 v 0.008 h 23.77 v 409.699 l 99.61,99.621 -54.34,54.352 -122.14,-122.133 V 428.754 H 2998.36 Z M 2402.35,1360.5 v 83.7 h -31.58 v -83.7 h -974.74 v 136.84 h -76.88 V 1283.62 H 2370.83 V 4.71484 h 76.87 V 351.875 h 132.32 v 76.879 H 2447.7 V 1360.5 Z m -31.58,324.55 h 31.58 v 133.43 h 890.06 v -456.83 l 122.14,-122.12 54.34,54.35 -99.61,99.62 v 796.27 l 99.61,99.61 -54.34,54.37 -122.14,-122.13 v -371.56 h -890.06 v 127.88 h -31.58 z" /><path
         id="path38"
         style="fill:#ffffff;fill-opacity:1;fill-rule:nonzero;stroke:none"
         d="m 777.5,3523.76 h 400.379 v 31.5664 H 777.5 Z" /><path
         id="path40"
         style="fill:none;stroke:#384c71;stroke-width:9.43000031;stroke-linecap:round;stroke-linejoin:round;stroke-miterlimit:22.9260006;stroke-dasharray:none;stroke-opacity:1"
         d="m 777.5,3523.76 h 400.379 v 31.5664 H 777.5 Z" /><path
         id="path42"
         style="fill:#ffffff;fill-opacity:1;fill-rule:nonzero;stroke:none"
         d="m 2780.21,374.531 h 218.148 v 31.5703 H 2780.21 Z" /><path
         id="path44"
         style="fill:none;stroke:#384c71;stroke-width:9.43000031;stroke-linecap:round;stroke-linejoin:round;stroke-miterlimit:22.9260006;stroke-dasharray:none;stroke-opacity:1"
         d="m 2780.21,374.531 h 218.148 v 31.5703 H 2780.21 Z" /><path
         id="path46"
         style="fill:#ffffff;fill-opacity:1;fill-rule:evenodd;stroke:none"
         d="M 2447.7,4.71875 V 36.2969 h 721.94 c 56.04,56.0195 112.06,112.0391 168.09,168.0701 v 147.52 h 31.56 V 191.285 C 3307.09,129.098 3244.93,66.918 3182.73,4.71875" /><path
         id="path48"
         style="fill:none;stroke:#384c71;stroke-width:9.43000031;stroke-linecap:round;stroke-linejoin:round;stroke-miterlimit:22.9260006;stroke-dasharray:none;stroke-opacity:1"
         d="M 2447.7,4.71875 V 36.2969 h 721.94 c 56.04,56.0195 112.06,112.0391 168.09,168.0701 v 147.52 h 31.56 V 191.285 C 3307.09,129.098 3244.93,66.918 3182.73,4.71875 Z" /><path
         id="path50"
         style="fill:#ffffff;fill-opacity:1;fill-rule:evenodd;stroke:none"
         d="m 2447.7,3578 v -31.57 h 721.94 l 168.09,-168.08 v -147.51 h 31.56 v 160.59 c -62.2,62.19 -124.36,124.38 -186.56,186.57" /><path
         id="path52"
         style="fill:none;stroke:#384c71;stroke-width:9.43000031;stroke-linecap:round;stroke-linejoin:round;stroke-miterlimit:22.9260006;stroke-dasharray:none;stroke-opacity:1"
         d="m 2447.7,3578 v -31.57 h 721.94 l 168.09,-168.08 v -147.51 h 31.56 v 160.59 c -62.2,62.19 -124.36,124.38 -186.56,186.57 z" /><path
         id="path54"
         style="fill:#ffffff;fill-opacity:1;fill-rule:nonzero;stroke:none"
         d="m 2780.21,3176.62 h 218.148 v 31.5703 H 2780.21 Z" /><path
         id="path56"
         style="fill:none;stroke:#384c71;stroke-width:9.43000031;stroke-linecap:round;stroke-linejoin:round;stroke-miterlimit:22.9260006;stroke-dasharray:none;stroke-opacity:1"
         d="m 2780.21,3176.62 h 218.148 v 31.5703 H 2780.21 Z" /><path
         id="path58"
         style="fill:none;stroke:#384c71;stroke-width:18.86000061;stroke-linecap:round;stroke-linejoin:round;stroke-miterlimit:22.9260006;stroke-dasharray:none;stroke-opacity:1"
         d="m 1370.34,2675.54 -193.64,110.9" /><path
         id="path60"
         style="fill:none;stroke:#384c71;stroke-width:18.86000061;stroke-linecap:round;stroke-linejoin:round;stroke-miterlimit:22.9260006;stroke-dasharray:none;stroke-opacity:1"
         d="m 973.105,2413.3 93.875,-161.71" /><path
         id="path62"
         style="fill:none;stroke:#384c71;stroke-width:18.86000061;stroke-linecap:round;stroke-linejoin:round;stroke-miterlimit:22.9260006;stroke-dasharray:none;stroke-opacity:1"
         d="m 941.531,1938.35 -93.886,161.7" /><path
         id="path64"
         style="fill:none;stroke:#384c71;stroke-width:18.86000061;stroke-linecap:round;stroke-linejoin:round;stroke-miterlimit:22.9260006;stroke-dasharray:none;stroke-opacity:1"
         d="m 1208.3,1729.16 133.45,-231.82" /><path
         id="path66"
         style="fill:none;stroke:#384c71;stroke-width:18.86000061;stroke-linecap:round;stroke-linejoin:round;stroke-miterlimit:22.9260006;stroke-dasharray:none;stroke-opacity:1"
         d="M 2250.94,1652.27 2370.77,1444.2" /><path
         id="path68"
         style="fill:none;stroke:#384c71;stroke-width:18.86000061;stroke-linecap:round;stroke-linejoin:round;stroke-miterlimit:22.9260006;stroke-dasharray:none;stroke-opacity:1"
         d="M 2370.77,2218.79 2250.94,2010.72" /><path
         id="path70"
         style="fill:none;stroke:#384c71;stroke-width:18.86000061;stroke-linecap:round;stroke-linejoin:round;stroke-miterlimit:22.9260006;stroke-dasharray:none;stroke-opacity:1"
         d="m 2129.94,2240.28 -103.96,75.77" /><path
         id="path72"
         style="fill:none;stroke:#384c71;stroke-width:18.86000061;stroke-linecap:round;stroke-linejoin:round;stroke-miterlimit:22.9260006;stroke-dasharray:none;stroke-opacity:1"
         d="m 1782.79,2240.28 196.77,113.08" /><path
         id="path74"
         style="fill:none;stroke:#384c71;stroke-width:18.86000061;stroke-linecap:round;stroke-linejoin:round;stroke-miterlimit:22.9260006;stroke-dasharray:none;stroke-opacity:1"
         d="m 2580.02,3153.96 174.09,-100.64" /><path
         id="path76"
         style="fill:none;stroke:#384c71;stroke-width:18.86000061;stroke-linecap:round;stroke-linejoin:round;stroke-miterlimit:22.9260006;stroke-dasharray:none;stroke-opacity:1"
         d="m 2580.02,428.75 174.09,100.629" /><path
         id="path78"
         style="fill:none;stroke:#384d71;stroke-width:9.42000008;stroke-linecap:round;stroke-linejoin:round;stroke-miterlimit:10;stroke-dasharray:none;stroke-opacity:1"
         d="m 2011.37,357.645 c 58.86,0 106.86,48 106.86,106.851 0,58.84 -48,106.84 -106.86,106.84 -58.85,0 -106.85,-48 -106.85,-106.84 0,-58.851 48,-106.851 106.85,-106.851 z" /><g
         transform="scale(10)"
         id="g80"><text
           id="text84"
           style="font-variant:normal;font-weight:bold;font-size:14.6480999px;font-family:Roboto;-inkscape-font-specification:Roboto-Bold;writing-mode:lr-tb;fill:#000000;fill-opacity:1;fill-rule:nonzero;stroke:none"
           transform="matrix(1,0,0,-1,197.226,41.1672)"><tspan
             id="tspan82"
             y="0"
             x="0">8</tspan></text>
<text
           id="text88"
           style="font-variant:normal;font-weight:normal;font-size:10.02350044px;font-family:Roboto;-inkscape-font-specification:Roboto-Regular;writing-mode:lr-tb;fill:#000000;fill-opacity:1;fill-rule:nonzero;stroke:none"
           transform="matrix(1,0,0,-1,194.37131,24.1942)"><tspan
             id="tspan86"
             y="0"
             x="0 5.6432304 8.3295288">3.5</tspan></text>
</g><path
         id="path90"
         style="fill:none;stroke:#384d71;stroke-width:9.42000008;stroke-linecap:round;stroke-linejoin:round;stroke-miterlimit:10;stroke-dasharray:none;stroke-opacity:1"
         d="m 2880.36,1107.62 c 58.86,0 106.87,48.01 106.87,106.85 0,58.84 -48.01,106.84 -106.87,106.84 -58.84,0 -106.84,-48 -106.84,-106.84 0,-58.84 48,-106.85 106.84,-106.85 z" /><g
         transform="scale(10)"
         id="g92"><text
           id="text96"
           style="font-variant:normal;font-weight:bold;font-size:14.6480999px;font-family:Roboto;-inkscape-font-specification:Roboto-Bold;writing-mode:lr-tb;fill:#000000;fill-opacity:1;fill-rule:nonzero;stroke:none"
           transform="matrix(1,0,0,-1,284.127,116.163)"><tspan
             id="tspan94"
             y="0"
             x="0">3</tspan></text>
<text
           id="text100"
           style="font-variant:normal;font-weight:normal;font-size:10.02350044px;font-family:Roboto;-inkscape-font-specification:Roboto-Regular;writing-mode:lr-tb;fill:#000000;fill-opacity:1;fill-rule:nonzero;stroke:none"
           transform="matrix(1,0,0,-1,275.62778,99.1931)"><tspan
             id="tspan98"
             y="0"
             x="0 5.6432304 11.286461 13.972759 19.61599">17.71</tspan></text>
</g><path
         id="path102"
         style="fill:none;stroke:#384d71;stroke-width:9.42000008;stroke-linecap:round;stroke-linejoin:round;stroke-miterlimit:10;stroke-dasharray:none;stroke-opacity:1"
         d="m 2890.98,2217.7 c 58.84,0 106.84,48 106.84,106.85 0,58.84 -48,106.84 -106.84,106.84 -58.84,0 -106.84,-48 -106.84,-106.84 0,-58.85 48,-106.85 106.84,-106.85 z" /><g
         transform="scale(10)"
         id="g104"><text
           id="text108"
           style="font-variant:normal;font-weight:bold;font-size:14.6480999px;font-family:Roboto;-inkscape-font-specification:Roboto-Bold;writing-mode:lr-tb;fill:#000000;fill-opacity:1;fill-rule:nonzero;stroke:none"
           transform="matrix(1,0,0,-1,285.186,227.173)"><tspan
             id="tspan106"
             y="0"
             x="0">3</tspan></text>
<text
           id="text112"
           style="font-variant:normal;font-weight:normal;font-size:10.02350044px;font-family:Roboto;-inkscape-font-specification:Roboto-Regular;writing-mode:lr-tb;fill:#000000;fill-opacity:1;fill-rule:nonzero;stroke:none"
           transform="matrix(1,0,0,-1,276.68991,210.2007)"><tspan
             id="tspan110"
             y="0"
             x="0 5.6432304 11.286461 13.972759 19.61599">16.90</tspan></text>
</g><path
         id="path114"
         style="fill:none;stroke:#384d71;stroke-width:9.42000008;stroke-linecap:round;stroke-linejoin:round;stroke-miterlimit:10;stroke-dasharray:none;stroke-opacity:1"
         d="m 2567.17,3791.03 c 58.86,0 106.86,47.99 106.86,106.84 0,58.85 -48,106.85 -106.86,106.85 -58.84,0 -106.84,-48 -106.84,-106.85 0,-58.85 48,-106.84 106.84,-106.84 z" /><g
         transform="scale(10)"
         id="g116"><text
           id="text120"
           style="font-variant:normal;font-weight:bold;font-size:14.6480999px;font-family:Roboto;-inkscape-font-specification:Roboto-Bold;writing-mode:lr-tb;fill:#000000;fill-opacity:1;fill-rule:nonzero;stroke:none"
           transform="matrix(1,0,0,-1,252.807,384.506)"><tspan
             id="tspan118"
             y="0"
             x="0">8</tspan></text>
<text
           id="text124"
           style="font-variant:normal;font-weight:normal;font-size:10.02350044px;font-family:Roboto;-inkscape-font-specification:Roboto-Regular;writing-mode:lr-tb;fill:#000000;fill-opacity:1;fill-rule:nonzero;stroke:none"
           transform="matrix(1,0,0,-1,247.13044,367.5345)"><tspan
             id="tspan122"
             y="0"
             x="0 5.6432304 8.3295288 13.972759">3.50</tspan></text>
</g><path
         id="path126"
         style="fill:none;stroke:#384d71;stroke-width:9.42000008;stroke-linecap:round;stroke-linejoin:round;stroke-miterlimit:10;stroke-dasharray:none;stroke-opacity:1"
         d="m 1868.19,2931.37 c 58.84,0 106.84,48 106.84,106.85 0,58.85 -48,106.84 -106.84,106.84 -58.86,0 -106.85,-47.99 -106.85,-106.84 0,-58.85 47.99,-106.85 106.85,-106.85 z" /><g
         transform="scale(10)"
         id="g128"><text
           id="text132"
           style="font-variant:normal;font-weight:bold;font-size:14.6480999px;font-family:Roboto;-inkscape-font-specification:Roboto-Bold;writing-mode:lr-tb;fill:#000000;fill-opacity:1;fill-rule:nonzero;stroke:none"
           transform="matrix(1,0,0,-1,182.906,298.541)"><tspan
             id="tspan130"
             y="0"
             x="0">2</tspan></text>
<text
           id="text136"
           style="font-variant:normal;font-weight:normal;font-size:10.02350044px;font-family:Roboto;-inkscape-font-specification:Roboto-Regular;writing-mode:lr-tb;fill:#000000;fill-opacity:1;fill-rule:nonzero;stroke:none"
           transform="matrix(1,0,0,-1,174.40952,281.5687)"><tspan
             id="tspan134"
             y="0"
             x="0 5.6432304 11.286461 13.972759 19.61599">17.59</tspan></text>
</g><path
         id="path138"
         style="fill:none;stroke:#384d71;stroke-width:9.42000008;stroke-linecap:round;stroke-linejoin:round;stroke-miterlimit:10;stroke-dasharray:none;stroke-opacity:1"
         d="m 1878.45,1559.6 c 58.84,0 106.84,48 106.84,106.85 0,58.84 -48,106.84 -106.84,106.84 -58.86,0 -106.87,-48 -106.87,-106.84 0,-58.85 48.01,-106.85 106.87,-106.85 z" /><g
         transform="scale(10)"
         id="g140"><text
           id="text144"
           style="font-variant:normal;font-weight:bold;font-size:14.6480999px;font-family:Roboto;-inkscape-font-specification:Roboto-Bold;writing-mode:lr-tb;fill:#000000;fill-opacity:1;fill-rule:nonzero;stroke:none"
           transform="matrix(1,0,0,-1,183.931,161.363)"><tspan
             id="tspan142"
             y="0"
             x="0">1</tspan></text>
<text
           id="text148"
           style="font-variant:normal;font-weight:normal;font-size:10.02350044px;font-family:Roboto;-inkscape-font-specification:Roboto-Regular;writing-mode:lr-tb;fill:#000000;fill-opacity:1;fill-rule:nonzero;stroke:none"
           transform="matrix(1,0,0,-1,175.43413,144.3892)"><tspan
             id="tspan146"
             y="0"
             x="0 5.6432304 11.286461 13.972759 19.61599">15.89</tspan></text>
</g><path
         id="path150"
         style="fill:none;stroke:#384d71;stroke-width:9.42000008;stroke-linecap:round;stroke-linejoin:round;stroke-miterlimit:10;stroke-dasharray:none;stroke-opacity:1"
         d="m 163.074,2098.18 c 58.852,0 106.852,48 106.852,106.86 0,58.84 -48,106.84 -106.852,106.84 -58.847,0 -106.8396,-48 -106.8396,-106.84 0,-58.86 47.9926,-106.86 106.8396,-106.86 z" /><g
         transform="scale(10)"
         id="g152"><text
           id="text156"
           style="font-variant:normal;font-weight:bold;font-size:14.6480999px;font-family:Roboto;-inkscape-font-specification:Roboto-Bold;writing-mode:lr-tb;fill:#000000;fill-opacity:1;fill-rule:nonzero;stroke:none"
           transform="matrix(1,0,0,-1,12.3961,215.222)"><tspan
             id="tspan154"
             y="0"
             x="0">6</tspan></text>
<text
           id="text160"
           style="font-variant:normal;font-weight:normal;font-size:10.02350044px;font-family:Roboto;-inkscape-font-specification:Roboto-Regular;writing-mode:lr-tb;fill:#000000;fill-opacity:1;fill-rule:nonzero;stroke:none"
           transform="matrix(1,0,0,-1,6.72071,198.2501)"><tspan
             id="tspan158"
             y="0"
             x="0 5.6432304 8.3295288 13.972759">1.64</tspan></text>
</g><path
         id="path162"
         style="fill:none;stroke:#384d71;stroke-width:9.42000008;stroke-linecap:round;stroke-linejoin:round;stroke-miterlimit:10;stroke-dasharray:none;stroke-opacity:1"
         d="m 163.074,2550.11 c 58.852,0 106.852,47.99 106.852,106.85 0,58.84 -48,106.84 -106.852,106.84 -58.847,0 -106.8396,-48 -106.8396,-106.84 0,-58.86 47.9926,-106.85 106.8396,-106.85 z" /><g
         transform="scale(10)"
         id="g164"><text
           id="text168"
           style="font-variant:normal;font-weight:bold;font-size:14.6480999px;font-family:Roboto;-inkscape-font-specification:Roboto-Bold;writing-mode:lr-tb;fill:#000000;fill-opacity:1;fill-rule:nonzero;stroke:none"
           transform="matrix(1,0,0,-1,12.3961,260.414)"><tspan
             id="tspan166"
             y="0"
             x="0">5</tspan></text>
<text
           id="text172"
           style="font-variant:normal;font-weight:normal;font-size:10.02350044px;font-family:Roboto;-inkscape-font-specification:Roboto-Regular;writing-mode:lr-tb;fill:#000000;fill-opacity:1;fill-rule:nonzero;stroke:none"
           transform="matrix(1,0,0,-1,6.72071,243.4421)"><tspan
             id="tspan170"
             y="0"
             x="0 5.6432304 8.3295288 13.972759">3.10</tspan></text>
</g><path
         id="path174"
         style="fill:none;stroke:#384d71;stroke-width:9.42000008;stroke-linecap:round;stroke-linejoin:round;stroke-miterlimit:10;stroke-dasharray:none;stroke-opacity:1"
         d="m 949.16,3102.27 c 58.85,0 106.85,47.99 106.85,106.85 0,58.84 -48,106.84 -106.85,106.84 -58.84,0 -106.84,-48 -106.84,-106.84 0,-58.86 48,-106.85 106.84,-106.85 z" /><g
         transform="scale(10)"
         id="g176"><text
           id="text180"
           style="font-variant:normal;font-weight:bold;font-size:14.6480999px;font-family:Roboto;-inkscape-font-specification:Roboto-Bold;writing-mode:lr-tb;fill:#000000;fill-opacity:1;fill-rule:nonzero;stroke:none"
           transform="matrix(1,0,0,-1,91.0043,315.63)"><tspan
             id="tspan178"
             y="0"
             x="0">4</tspan></text>
<text
           id="text184"
           style="font-variant:normal;font-weight:normal;font-size:10.02350044px;font-family:Roboto;-inkscape-font-specification:Roboto-Regular;writing-mode:lr-tb;fill:#000000;fill-opacity:1;fill-rule:nonzero;stroke:none"
           transform="matrix(1,0,0,-1,85.32969,298.6581)"><tspan
             id="tspan182"
             y="0"
             x="0 5.6432304 8.3295288 13.972759">9.50</tspan></text>
</g><path
         id="path186"
         style="fill:none;stroke:#000000;stroke-width:8.01000023;stroke-linecap:round;stroke-linejoin:round;stroke-miterlimit:22.9260006;stroke-dasharray:none;stroke-opacity:1"
         d="M 682.965,1937.02 H 4.00391" /><path
         id="path188"
         style="fill:none;stroke:#000000;stroke-width:8.01000023;stroke-linecap:round;stroke-linejoin:round;stroke-miterlimit:22.9260006;stroke-dasharray:none;stroke-opacity:1"
         d="M 682.965,2398.42 H 4.00391" /><path
         id="path190"
         style="fill:none;stroke:#000000;stroke-width:8.01000023;stroke-linecap:round;stroke-linejoin:round;stroke-miterlimit:22.9260006;stroke-dasharray:none;stroke-opacity:1"
         d="m 2410.88,3642.45 h 410.44 v -318.06" /><path
         id="path192"
         style="fill:none;stroke:#000000;stroke-width:8.01000023;stroke-linecap:round;stroke-linejoin:round;stroke-miterlimit:22.9260006;stroke-dasharray:none;stroke-opacity:1"
         d="M 2870.81,198.684 H 1860" /></g></g></svg>