<?xml version="1.0" encoding="UTF-8" standalone="no"?>
<svg
   xmlns:dc="http://purl.org/dc/elements/1.1/"
   xmlns:cc="http://creativecommons.org/ns#"
   xmlns:rdf="http://www.w3.org/1999/02/22-rdf-syntax-ns#"
   xmlns:svg="http://www.w3.org/2000/svg"
   xmlns="http://www.w3.org/2000/svg"
   viewBox="0 0 501.76251 355.4375"
   height="355.4375"
   width="501.76251"
   xml:space="preserve"
   id="svg2"
   version="1.1"><metadata
     id="metadata8"><rdf:RDF><cc:Work
         rdf:about=""><dc:format>image/svg+xml</dc:format><dc:type
           rdf:resource="http://purl.org/dc/dcmitype/StillImage" /></cc:Work></rdf:RDF></metadata><defs
     id="defs6" /><g
     transform="matrix(1.25,0,0,-1.25,0,355.4375)"
     id="g10"><g
       transform="scale(0.1)"
       id="g12"><path
         id="path14"
         style="fill:none;stroke:#384d71;stroke-width:14.10999966;stroke-linecap:round;stroke-linejoin:round;stroke-miterlimit:10;stroke-dasharray:none;stroke-opacity:1"
         d="m 2987.61,1463.05 c 0,-0.39 -0.31,-0.7 -0.7,-0.7 -0.38,0 -0.71,0.31 -0.71,0.7 0,0.4 0.33,0.7 0.71,0.7 0.39,0 0.7,-0.3 0.7,-0.7 z m 280.99,0 c 0,-0.39 -0.31,-0.7 -0.69,-0.7 -0.4,0 -0.72,0.31 -0.72,0.7 0,0.4 0.32,0.7 0.72,0.7 0.38,0 0.69,-0.3 0.69,-0.7 z m -280.99,216.65 c 0,-0.39 -0.31,-0.71 -0.7,-0.71 -0.38,0 -0.71,0.32 -0.71,0.71 0,0.4 0.33,0.7 0.71,0.7 0.39,0 0.7,-0.3 0.7,-0.7 z m 425.84,-254.74 h -590.7 v 292.83 h 590.7 z m -21.76,35.56 c 0,5.24 -4.28,9.51 -9.53,9.51 -5.26,0 -9.53,-4.27 -9.53,-9.51 0,-5.27 4.27,-9.54 9.53,-9.54 5.25,0 9.53,4.27 9.53,9.54 z m 0,221.72 c 0,-5.26 -4.28,-9.53 -9.53,-9.53 -5.26,0 -9.53,4.27 -9.53,9.53 0,5.27 4.27,9.52 9.53,9.52 5.25,0 9.53,-4.25 9.53,-9.52 z m -123.09,-2.54 c 0,-0.39 -0.31,-0.71 -0.69,-0.71 -0.4,0 -0.72,0.32 -0.72,0.71 0,0.4 0.32,0.7 0.72,0.7 0.38,0 0.69,-0.3 0.69,-0.7 z m 18.4,-216.65 c 0,10.55 -8.55,19.11 -19.09,19.11 -10.55,0 -19.12,-8.56 -19.12,-19.11 0,-10.54 8.57,-19.11 19.12,-19.11 10.54,0 19.09,8.57 19.09,19.11 z m 0,216.65 c 0,-10.56 -8.55,-19.11 -19.09,-19.11 -10.55,0 -19.12,8.55 -19.12,19.11 0,10.55 8.57,19.1 19.12,19.1 10.54,0 19.09,-8.55 19.09,-19.1 z m 13.14,-108.34 c 0,-0.9 0.72,-1.61 1.6,-1.61 0.91,0 1.63,0.71 1.63,1.61 0,0.91 -0.72,1.63 -1.63,1.63 -0.88,0 -1.6,-0.72 -1.6,-1.63 z m 15.68,0 c 0,-7.77 -6.31,-14.07 -14.08,-14.07 -7.76,0 -14.05,6.3 -14.05,14.07 0,7.77 6.29,14.08 14.05,14.08 7.77,0 14.08,-6.31 14.08,-14.08 z m 97.63,-146.4 h -590.7 v 292.83 h 590.7 z m -511.95,16.95 237.54,1.44 h 128.01 c 70.7,0 128.03,57.33 128.03,128.02 0,70.69 -57.33,128.02 -128.03,128.02 h -128.01 l -237.54,1.46 c -54.49,0 -61.84,-65.07 -61.84,-129.48 0,-64.39 7.35,-129.46 61.84,-129.46 z m 104.52,21.14 c 0,10.55 -8.56,19.11 -19.11,19.11 -10.55,0 -19.1,-8.56 -19.1,-19.11 0,-10.54 8.55,-19.11 19.1,-19.11 10.55,0 19.11,8.57 19.11,19.11 z m 0,216.65 c 0,-10.56 -8.56,-19.11 -19.11,-19.11 -10.55,0 -19.1,8.55 -19.1,19.11 0,10.55 8.55,19.1 19.1,19.1 10.55,0 19.11,-8.55 19.11,-19.1 z m -25.82,-175.74 148.45,0.76 h 120.52 c 36.81,0 66.65,29.85 66.65,66.65 0,36.81 -29.84,66.66 -66.65,66.66 h -120.52 l -148.45,0.76 c -28.36,0 -32.19,-33.89 -32.19,-67.42 0,-33.53 3.83,-67.41 32.19,-67.41 z" /><path
         id="path16"
         style="fill:none;stroke:#384d71;stroke-width:14.10999966;stroke-linecap:round;stroke-linejoin:round;stroke-miterlimit:10;stroke-dasharray:none;stroke-opacity:1"
         d="m 3334.02,1959.43 c -40.66,0 -65.36,-10.17 -93,-10.17 -43.16,0 -107.59,29.13 -107.59,81.26 0,52.12 64.43,81.24 107.59,81.24 27.64,0 52.34,-10.16 93,-10.16 m -165.57,-104 c 28.32,12.15 28.32,53.67 0,65.83 m 163.01,-68.46 c -66.26,-37.55 -177.72,-24.35 -177.72,35.55 0,59.89 111.46,73.09 177.72,35.54 m 30.94,-35.54 c 0,5.35 4.33,9.7 9.71,9.7 5.35,0 9.68,-4.35 9.68,-9.7 0,-5.37 -4.33,-9.71 -9.68,-9.71 -5.38,0 -9.71,4.34 -9.71,9.71 z m -30.94,-59.68 v 119.35 c 0,11.17 9.15,20.3 20.33,20.3 h 40.62 c 11.17,0 20.32,-9.13 20.32,-20.3 v -119.35 c 0,-11.18 -9.15,-20.31 -20.32,-20.31 h -40.62 c -11.18,0 -20.33,9.13 -20.33,20.31 z" /><path
         id="path18"
         style="fill:none;stroke:#384d71;stroke-width:14.10999966;stroke-linecap:round;stroke-linejoin:round;stroke-miterlimit:10;stroke-dasharray:none;stroke-opacity:1"
         d="m 3392.38,1838.18 v -16.41 m -8.21,8.22 h 16.41 m -58.2,0 c 0,3.35 2.7,6.05 6.03,6.05 3.34,0 6.04,-2.7 6.04,-6.05 0,-3.34 -2.7,-6.04 -6.04,-6.04 -3.33,0 -6.03,2.7 -6.03,6.04 z m 28.04,-59.58 v 119.14 h -24.91 c -32.44,0 -41.43,-32.67 -41.43,-59.56 0,-26.9 8.99,-59.58 41.43,-59.58 z m -86.33,59.58 c 0,-62.31 35.65,-79.56 61.42,-79.56 h 67.22 v 159.11 h -67.22 c -25.77,0 -61.42,-17.27 -61.42,-79.55 z" /><path
         id="path20"
         style="fill:none;stroke:#384d71;stroke-width:14.10999966;stroke-linecap:round;stroke-linejoin:round;stroke-miterlimit:10;stroke-dasharray:none;stroke-opacity:1"
         d="m 2919.6,1354.49 h -238.65 v -115.71 c 0,-67.89 55.07,-122.95 122.97,-122.95 h 115.68 m 241.2,0 h -241.2 v 238.66 h 241.2 m 223.45,-842.088 v 191.282 m -69.4,-42.582 c 0,10.761 8.73,19.492 19.51,19.492 10.77,0 19.5,-8.731 19.5,-19.492 0,-10.77 -8.73,-19.5 -19.5,-19.5 -10.78,0 -19.51,8.73 -19.51,19.5 z m 0,-106.122 c 0,10.774 8.73,19.512 19.51,19.512 10.77,0 19.5,-8.738 19.5,-19.512 0,-10.75 -8.73,-19.488 -19.5,-19.488 -10.78,0 -19.51,8.738 -19.51,19.488 z m -97.36,106.122 c 0,10.761 8.74,19.492 19.49,19.492 10.76,0 19.5,-8.731 19.5,-19.492 0,-10.77 -8.74,-19.5 -19.5,-19.5 -10.75,0 -19.49,8.73 -19.49,19.5 z m 0,-106.122 c 0,10.774 8.74,19.512 19.49,19.512 10.76,0 19.5,-8.738 19.5,-19.512 0,-10.75 -8.74,-19.488 -19.5,-19.488 -10.75,0 -19.49,8.738 -19.49,19.488 z m -32.97,148.704 h 228.49 V 512.402 h -228.49 z m 194.63,522.166 v 94.78 m -167.55,-94.78 v 94.78 m 23.94,-94.77 v 94.77 m 23.94,-94.77 v 94.77 m 23.94,-94.77 v 94.77 m 23.94,-94.77 v 94.77 m 23.93,-94.77 v 94.77 m 23.94,-94.77 v 94.77 m -3.16,-227.72 v 23.69 m -18.59,-11.85 h 63.31 m -219.05,-67.71 v 135.42 c 0,13.53 11.09,24.63 24.63,24.63 h 169.79 c 13.55,0 24.63,-11.1 24.63,-24.63 v -135.42 c 0,-13.55 -11.08,-24.63 -24.63,-24.63 h -169.79 c -13.55,0 -24.63,11.08 -24.63,24.63 z M 3160.8,488.73 V 122.133 h 275.92 M 3160.8,727.371 h 275.92 m -275.92,259.82 h 275.92 m 0,-498.461 H 3160.8 v 865.76 h 275.92" /><path
         id="path22"
         style="fill:#384d71;fill-opacity:1;fill-rule:evenodd;stroke:none"
         d="M 1940.02,601.98 V 7.0625 H 1873.5 V 486.902 H 1674.39 V 601.98 h 199.11 z m 0,2234.45 V 2721.35 H 608.977 v -745.49 l -182.801,-182.81 -81.371,81.37 149.109,149.11 v 812.9 H 608.977 Z M 608.977,486.902 H 493.914 v 590.738 l -149.109,149.12 81.371,81.36 182.801,-182.8 V 601.98 H 1374.46 V 486.902 Z M 1940.02,7.0625 V 601.98 h 1.28 v 1196.79 h 47.27 V 122.133 h 217.09 V 7.0625 h -217.09 z m 1011.55,0 H 2805.48 V 122.133 h 146.09 z m 0,1394.6875 v -47.26 h -600.25 v 47.26 h 37.13 v 439.86 l 69.98,69.97 33.41,-33.41 -56.13,-56.13 v -420.29 z m 0,839.75 v -47.26 h -143.64 l -116.13,-116.12 -33.42,33.42 129.96,129.96 z m 0,594.93 v -115.08 h -963 v -399.87 h -47.27 v 399.87 h -1.28 v 115.08 z m 0,-115.08 v 115.08 h 600.22 v -192.2 h -115.08 v 77.12 z m 0,-2714.2875 V 122.133 h 485.14 V 1354.49 h -485.14 v 47.26 h 485.14 v 792.49 h -485.14 v 47.26 h 600.22 V 7.0625 h -115.08" /><path
         id="path24"
         style="fill:none;stroke:#384d71;stroke-width:14.10999966;stroke-linecap:round;stroke-linejoin:round;stroke-miterlimit:10;stroke-dasharray:none;stroke-opacity:1"
         d="m 1988.57,601.98 v 1196.79 h -47.26 V 601.98 H 1674.38 V 486.902 H 1873.5 V 7.0625 h 332.15 V 122.133 h -217.08 z m -47.26,1719.5 h 47.26 v 399.87 h 1448.15 v -77.12 h 115.07 v 192.2 H 493.91 v -812.9 l -149.101,-149.11 81.359,-81.37 182.812,182.81 v 745.49 h 1332.33 z m 494.4,-499.44 56.14,56.13 -33.42,33.41 -69.97,-69.97 v -439.86 h -37.14 v -47.26 h 1085.4 V 122.133 H 2805.47 V 7.0625 h 746.32 V 2241.5 h -763.46 l -129.95,-129.96 33.42,-33.42 116.12,116.12 h 628.8 V 1401.75 H 2435.71 Z M 608.98,486.902 H 493.91 v 590.738 l -149.101,149.12 81.359,81.36 182.812,-182.8 V 601.98 h 765.48 V 486.902 Z" /><path
         id="path26"
         style="fill:#ffffff;fill-opacity:1;fill-rule:evenodd;stroke:none"
         d="m 368.789,1250.74 -78.672,78.65 v 442.4 l 78.672,78.67 33.422,-33.42 -64.844,-64.83 v -403.24 l 64.844,-64.82" /><path
         id="path28"
         style="fill:none;stroke:#384d71;stroke-width:14.10999966;stroke-linecap:round;stroke-linejoin:round;stroke-miterlimit:10;stroke-dasharray:none;stroke-opacity:1"
         d="m 368.789,1250.74 -78.672,78.65 v 442.4 l 78.672,78.67 33.422,-33.42 -64.844,-64.83 v -403.24 l 64.844,-64.82 z" /><path
         id="path30"
         style="fill:#ffffff;fill-opacity:1;fill-rule:evenodd;stroke:none"
         d="m 493.91,486.902 h 47.262 V 306.543 c 84.07,-84.078 168.16,-168.16 252.23,-252.2305 H 1873.49 V 7.0625 H 773.832 C 680.52,100.355 587.223,193.664 493.91,286.973" /><path
         id="path32"
         style="fill:none;stroke:#384c71;stroke-width:14.10999966;stroke-linecap:round;stroke-linejoin:round;stroke-miterlimit:22.9260006;stroke-dasharray:none;stroke-opacity:1"
         d="m 493.91,486.902 h 47.262 V 306.543 c 84.07,-84.078 168.16,-168.16 252.23,-252.2305 H 1873.49 V 7.0625 H 773.832 C 680.52,100.355 587.223,193.664 493.91,286.973 Z" /><path
         id="path34"
         style="fill:#ffffff;fill-opacity:1;fill-rule:nonzero;stroke:none"
         d="m 2205.65,40.9492 h 599.813 V 88.2109 H 2205.65 Z" /><path
         id="path36"
         style="fill:none;stroke:#384c71;stroke-width:14.10999966;stroke-linecap:round;stroke-linejoin:round;stroke-miterlimit:22.9260006;stroke-dasharray:none;stroke-opacity:1"
         d="m 2205.65,40.9492 h 599.813 V 88.2109 H 2205.65 Z" /><path
         id="path38"
         style="fill:none;stroke:#384c71;stroke-width:28.22999954;stroke-linecap:round;stroke-linejoin:round;stroke-miterlimit:22.9260006;stroke-dasharray:none;stroke-opacity:1"
         d="M 1674.38,601.98 1414.46,753.371" /><path
         id="path40"
         style="fill:none;stroke:#384c71;stroke-width:28.22999954;stroke-linecap:round;stroke-linejoin:round;stroke-miterlimit:22.9260006;stroke-dasharray:none;stroke-opacity:1"
         d="m 1988.57,1370.33 314.19,-182.8" /><path
         id="path42"
         style="fill:none;stroke:#384c71;stroke-width:28.22999954;stroke-linecap:round;stroke-linejoin:round;stroke-miterlimit:22.9260006;stroke-dasharray:none;stroke-opacity:1"
         d="M 2659.8,2110.11 2385.59,2038.7" /><path
         id="path44"
         style="fill:none;stroke:#384c71;stroke-width:28.22999954;stroke-linecap:round;stroke-linejoin:round;stroke-miterlimit:22.9260006;stroke-dasharray:none;stroke-opacity:1"
         d="M 1941.31,1798.77 1845.76,1953" /><path
         id="path46"
         style="fill:none;stroke:#384c71;stroke-width:28.22999954;stroke-linecap:round;stroke-linejoin:round;stroke-miterlimit:22.9260006;stroke-dasharray:none;stroke-opacity:1"
         d="M 1941.31,2321.48 1785.78,2024.43" /><path
         id="path48"
         style="fill:none;stroke:#384c71;stroke-width:28.22999954;stroke-linecap:round;stroke-linejoin:round;stroke-miterlimit:22.9260006;stroke-dasharray:none;stroke-opacity:1"
         d="M 3762.03,2589.98 3551.79,2241.5" /><path
         id="path50"
         style="fill:none;stroke:#384d71;stroke-width:14.10999966;stroke-linecap:round;stroke-linejoin:round;stroke-miterlimit:10;stroke-dasharray:none;stroke-opacity:1"
         d="m 2543.83,592.227 c 88.1,0 159.94,71.859 159.94,159.941 0,88.09 -71.84,159.93 -159.94,159.93 -88.07,0 -159.92,-71.84 -159.92,-159.93 0,-88.082 71.85,-159.941 159.92,-159.941 z" /><g
         transform="scale(10)"
         id="g52"><text
           id="text56"
           style="font-variant:normal;font-weight:bold;font-size:21.9260006px;font-family:Roboto;-inkscape-font-specification:Roboto-Bold;writing-mode:lr-tb;fill:#000000;fill-opacity:1;fill-rule:nonzero;stroke:none"
           transform="matrix(1,0,0,-1,248.527,67.3098)"><tspan
             id="tspan54"
             y="0"
             x="0">4</tspan></text>
<text
           id="text60"
           style="font-variant:normal;font-weight:normal;font-size:15.00370026px;font-family:Roboto;-inkscape-font-specification:Roboto-Regular;writing-mode:lr-tb;fill:#000000;fill-opacity:1;fill-rule:nonzero;stroke:none"
           transform="matrix(1,0,0,-1,235.8102,41.9055)"><tspan
             id="tspan58"
             y="0"
             x="0 8.4470835 16.894167 20.907785 29.354868">10.10</tspan></text>
</g><path
         id="path62"
         style="fill:none;stroke:#384d71;stroke-width:14.10999966;stroke-linecap:round;stroke-linejoin:round;stroke-miterlimit:10;stroke-dasharray:none;stroke-opacity:1"
         d="m 3847.1,2039.17 c 88.11,0 159.95,71.85 159.95,159.92 0,88.09 -71.84,159.94 -159.95,159.94 -88.07,0 -159.92,-71.85 -159.92,-159.94 0,-88.07 71.85,-159.92 159.92,-159.92 z" /><g
         transform="scale(10)"
         id="g64"><text
           id="text68"
           style="font-variant:normal;font-weight:bold;font-size:21.9260006px;font-family:Roboto;-inkscape-font-specification:Roboto-Bold;writing-mode:lr-tb;fill:#000000;fill-opacity:1;fill-rule:nonzero;stroke:none"
           transform="matrix(1,0,0,-1,378.855,212.002)"><tspan
             id="tspan66"
             y="0"
             x="0">7</tspan></text>
<text
           id="text72"
           style="font-variant:normal;font-weight:normal;font-size:15.00370026px;font-family:Roboto;-inkscape-font-specification:Roboto-Regular;writing-mode:lr-tb;fill:#000000;fill-opacity:1;fill-rule:nonzero;stroke:none"
           transform="matrix(1,0,0,-1,370.36086,186.5973)"><tspan
             id="tspan70"
             y="0"
             x="0 8.4470835 12.468075 20.915157">4.10</tspan></text>
</g><path
         id="path74"
         style="fill:none;stroke:#384d71;stroke-width:14.10999966;stroke-linecap:round;stroke-linejoin:round;stroke-miterlimit:10;stroke-dasharray:none;stroke-opacity:1"
         d="m 2285.64,2324.36 c 88.09,0 159.93,71.85 159.93,159.94 0,88.08 -71.84,159.92 -159.93,159.92 -88.1,0 -159.94,-71.84 -159.94,-159.92 0,-88.09 71.84,-159.94 159.94,-159.94 z" /><g
         transform="scale(10)"
         id="g76"><text
           id="text80"
           style="font-variant:normal;font-weight:bold;font-size:21.9260006px;font-family:Roboto;-inkscape-font-specification:Roboto-Bold;writing-mode:lr-tb;fill:#000000;fill-opacity:1;fill-rule:nonzero;stroke:none"
           transform="matrix(1,0,0,-1,222.708,240.521)"><tspan
             id="tspan78"
             y="0"
             x="0">1</tspan></text>
<text
           id="text84"
           style="font-variant:normal;font-weight:normal;font-size:15.00370026px;font-family:Roboto;-inkscape-font-specification:Roboto-Regular;writing-mode:lr-tb;fill:#000000;fill-opacity:1;fill-rule:nonzero;stroke:none"
           transform="matrix(1,0,0,-1,214.21191,215.1171)"><tspan
             id="tspan82"
             y="0"
             x="0 8.4470835 12.468075 20.915157">6.90</tspan></text>
</g><path
         id="path86"
         style="fill:none;stroke:#384d71;stroke-width:14.10999966;stroke-linecap:round;stroke-linejoin:round;stroke-miterlimit:10;stroke-dasharray:none;stroke-opacity:1"
         d="m 1210.25,1363.72 c 88.09,0 159.93,71.85 159.93,159.93 0,88.09 -71.84,159.94 -159.93,159.94 -88.09,0 -159.94,-71.85 -159.94,-159.94 0,-88.08 71.85,-159.93 159.94,-159.93 z" /><g
         transform="scale(10)"
         id="g88"><text
           id="text92"
           style="font-variant:normal;font-weight:bold;font-size:21.9260006px;font-family:Roboto;-inkscape-font-specification:Roboto-Bold;writing-mode:lr-tb;fill:#000000;fill-opacity:1;fill-rule:nonzero;stroke:none"
           transform="matrix(1,0,0,-1,115.168,144.459)"><tspan
             id="tspan90"
             y="0"
             x="0">2</tspan></text>
<text
           id="text96"
           style="font-variant:normal;font-weight:normal;font-size:15.00370026px;font-family:Roboto;-inkscape-font-specification:Roboto-Regular;writing-mode:lr-tb;fill:#000000;fill-opacity:1;fill-rule:nonzero;stroke:none"
           transform="matrix(1,0,0,-1,102.4492,119.0547)"><tspan
             id="tspan94"
             y="0"
             x="0 8.4470835 16.894167 20.907808 29.354893">18.40</tspan></text>
</g><path
         id="path98"
         style="fill:none;stroke:#384d71;stroke-width:14.10999966;stroke-linecap:round;stroke-linejoin:round;stroke-miterlimit:10;stroke-dasharray:none;stroke-opacity:1"
         d="m 166.992,491.145 c 88.09,0 159.93,71.847 159.93,159.929 0,88.09 -71.84,159.918 -159.93,159.918 -88.0897,0 -159.94122,-71.828 -159.94122,-159.918 0,-88.082 71.85152,-159.929 159.94122,-159.929 z" /><g
         transform="scale(10)"
         id="g100"><text
           id="text104"
           style="font-variant:normal;font-weight:bold;font-size:21.9260006px;font-family:Roboto;-inkscape-font-specification:Roboto-Bold;writing-mode:lr-tb;fill:#000000;fill-opacity:1;fill-rule:nonzero;stroke:none"
           transform="matrix(1,0,0,-1,10.8434,57.2012)"><tspan
             id="tspan102"
             y="0"
             x="0">8</tspan></text>
<text
           id="text108"
           style="font-variant:normal;font-weight:normal;font-size:15.00370026px;font-family:Roboto;-inkscape-font-specification:Roboto-Regular;writing-mode:lr-tb;fill:#000000;fill-opacity:1;fill-rule:nonzero;stroke:none"
           transform="matrix(1,0,0,-1,2.34809,31.7961)"><tspan
             id="tspan106"
             y="0"
             x="0 8.4470835 12.468075 20.915157">3.10</tspan></text>
</g><path
         id="path110"
         style="fill:none;stroke:#000000;stroke-width:12;stroke-linecap:round;stroke-linejoin:round;stroke-miterlimit:22.9260006;stroke-dasharray:none;stroke-opacity:1"
         d="M 7.05469,260.398 H 1205.46" /><path
         id="path112"
         style="fill:none;stroke:#000000;stroke-width:12;stroke-linecap:round;stroke-linejoin:round;stroke-miterlimit:22.9260006;stroke-dasharray:none;stroke-opacity:1"
         d="M 4007.04,1808.46 H 2743.59" /></g></g></svg>