<?xml version="1.0" encoding="UTF-8" standalone="no"?>
<svg
   xmlns:dc="http://purl.org/dc/elements/1.1/"
   xmlns:cc="http://creativecommons.org/ns#"
   xmlns:rdf="http://www.w3.org/1999/02/22-rdf-syntax-ns#"
   xmlns:svg="http://www.w3.org/2000/svg"
   xmlns="http://www.w3.org/2000/svg"
   viewBox="0 0 501.76251 355.4375"
   height="355.4375"
   width="501.76251"
   xml:space="preserve"
   id="svg2"
   version="1.1"><metadata
     id="metadata8"><rdf:RDF><cc:Work
         rdf:about=""><dc:format>image/svg+xml</dc:format><dc:type
           rdf:resource="http://purl.org/dc/dcmitype/StillImage" /></cc:Work></rdf:RDF></metadata><defs
     id="defs6" /><g
     transform="matrix(1.25,0,0,-1.25,0,355.4375)"
     id="g10"><g
       transform="scale(0.1)"
       id="g12"><path
         id="path14"
         style="fill:none;stroke:#384d71;stroke-width:14.10999966;stroke-linecap:round;stroke-linejoin:round;stroke-miterlimit:10;stroke-dasharray:none;stroke-opacity:1"
         d="m 2987.62,1463.06 c 0,-0.39 -0.32,-0.7 -0.72,-0.7 -0.38,0 -0.69,0.31 -0.69,0.7 0,0.4 0.31,0.7 0.69,0.7 0.4,0 0.72,-0.3 0.72,-0.7 z m 280.99,0 c 0,-0.39 -0.32,-0.7 -0.71,-0.7 -0.38,0 -0.7,0.31 -0.7,0.7 0,0.4 0.32,0.7 0.7,0.7 0.39,0 0.71,-0.3 0.71,-0.7 z m -280.99,216.65 c 0,-0.39 -0.32,-0.7 -0.72,-0.7 -0.38,0 -0.69,0.31 -0.69,0.7 0,0.4 0.31,0.7 0.69,0.7 0.4,0 0.72,-0.3 0.72,-0.7 z m 425.85,-254.74 h -590.72 v 292.83 h 590.72 z m -21.79,35.56 c 0,5.24 -4.27,9.51 -9.53,9.51 -5.25,0 -9.5,-4.27 -9.5,-9.51 0,-5.27 4.25,-9.54 9.5,-9.54 5.26,0 9.53,4.27 9.53,9.54 z m 0,221.72 c 0,-5.25 -4.27,-9.53 -9.53,-9.53 -5.25,0 -9.5,4.28 -9.5,9.53 0,5.27 4.25,9.53 9.5,9.53 5.26,0 9.53,-4.26 9.53,-9.53 z m -123.07,-2.54 c 0,-0.39 -0.32,-0.7 -0.71,-0.7 -0.38,0 -0.7,0.31 -0.7,0.7 0,0.4 0.32,0.7 0.7,0.7 0.39,0 0.71,-0.3 0.71,-0.7 z M 3287,1463.06 c 0,10.55 -8.54,19.11 -19.1,19.11 -10.54,0 -19.09,-8.56 -19.09,-19.11 0,-10.54 8.55,-19.11 19.09,-19.11 10.56,0 19.1,8.57 19.1,19.11 z m 0,216.65 c 0,-10.56 -8.54,-19.11 -19.1,-19.11 -10.54,0 -19.09,8.55 -19.09,19.11 0,10.55 8.55,19.1 19.09,19.1 10.56,0 19.1,-8.55 19.1,-19.1 z m 13.14,-108.34 c 0,-0.9 0.71,-1.61 1.62,-1.61 0.88,0 1.61,0.71 1.61,1.61 0,0.91 -0.73,1.63 -1.61,1.63 -0.91,0 -1.62,-0.72 -1.62,-1.63 z m 15.68,0 c 0,-7.77 -6.29,-14.06 -14.06,-14.06 -7.76,0 -14.07,6.29 -14.07,14.06 0,7.77 6.31,14.08 14.07,14.08 7.77,0 14.06,-6.31 14.06,-14.08 z m 97.65,-146.4 h -590.72 v 292.83 h 590.72 z m -511.97,16.95 237.53,1.44 h 128.02 c 70.69,0 128.02,57.33 128.02,128.03 0,70.68 -57.33,128.01 -128.02,128.01 h -128.02 l -237.53,1.46 c -54.49,0 -61.85,-65.07 -61.85,-129.47 0,-64.4 7.36,-129.47 61.85,-129.47 z m 104.52,21.14 c 0,10.55 -8.57,19.11 -19.12,19.11 -10.54,0 -19.09,-8.56 -19.09,-19.11 0,-10.54 8.55,-19.11 19.09,-19.11 10.55,0 19.12,8.57 19.12,19.11 z m 0,216.65 c 0,-10.56 -8.57,-19.11 -19.12,-19.11 -10.55,0 -19.09,8.55 -19.09,19.11 0,10.55 8.54,19.1 19.09,19.1 10.55,0 19.12,-8.55 19.12,-19.1 z m -25.81,-175.74 148.44,0.76 h 120.52 c 36.81,0 66.67,29.85 66.67,66.66 0,36.8 -29.86,66.65 -66.67,66.65 h -120.52 l -148.44,0.76 c -28.38,0 -32.21,-33.89 -32.21,-67.41 0,-33.54 3.83,-67.42 32.21,-67.42 z" /><path
         id="path16"
         style="fill:none;stroke:#384d71;stroke-width:14.10999966;stroke-linecap:round;stroke-linejoin:round;stroke-miterlimit:10;stroke-dasharray:none;stroke-opacity:1"
         d="m 3334.02,1959.44 c -40.66,0 -65.35,-10.17 -92.99,-10.17 -43.19,0 -107.6,29.13 -107.6,81.26 0,52.13 64.41,81.24 107.6,81.24 27.64,0 52.33,-10.16 92.99,-10.16 m -165.57,-104 c 28.31,12.15 28.31,53.67 0,65.83 m 163.03,-68.46 c -66.27,-37.55 -177.73,-24.35 -177.73,35.55 0,59.9 111.46,73.09 177.73,35.54 m 30.91,-35.54 c 0,5.35 4.35,9.7 9.72,9.7 5.35,0 9.7,-4.35 9.7,-9.7 0,-5.37 -4.35,-9.71 -9.7,-9.71 -5.37,0 -9.72,4.34 -9.72,9.71 z m -30.91,-59.68 v 119.35 c 0,11.17 9.13,20.31 20.3,20.31 h 40.64 c 11.16,0 20.3,-9.14 20.3,-20.31 v -119.35 c 0,-11.18 -9.14,-20.31 -20.3,-20.31 h -40.64 c -11.17,0 -20.3,9.13 -20.3,20.31 z" /><path
         id="path18"
         style="fill:none;stroke:#384d71;stroke-width:14.10999966;stroke-linecap:round;stroke-linejoin:round;stroke-miterlimit:10;stroke-dasharray:none;stroke-opacity:1"
         d="m 3392.38,1838.19 v -16.41 m -8.21,8.22 h 16.4 m -58.21,0 c 0,3.34 2.71,6.04 6.05,6.04 3.34,0 6.05,-2.7 6.05,-6.04 0,-3.34 -2.71,-6.04 -6.05,-6.04 -3.34,0 -6.05,2.7 -6.05,6.04 z m 28.05,-59.58 v 119.14 h -24.91 c -32.42,0 -41.42,-32.68 -41.42,-59.56 0,-26.91 9,-59.58 41.42,-59.58 z M 3284.1,1830 c 0,-62.31 35.64,-79.57 61.4,-79.57 h 67.22 v 159.11 h -67.22 c -25.76,0 -61.4,-17.25 -61.4,-79.54 z" /><path
         id="path20"
         style="fill:none;stroke:#384d71;stroke-width:14.10999966;stroke-linecap:round;stroke-linejoin:round;stroke-miterlimit:10;stroke-dasharray:none;stroke-opacity:1"
         d="m 2919.61,1354.5 h -238.66 v -115.71 c 0,-67.89 55.06,-122.95 122.97,-122.95 h 115.69 m 241.21,0 h -241.21 v 238.66 h 241.21 m 223.42,-842.09 v 191.281 m -69.4,-42.578 c 0,10.75 8.73,19.489 19.51,19.489 10.77,0 19.51,-8.739 19.51,-19.489 0,-10.769 -8.74,-19.511 -19.51,-19.511 -10.78,0 -19.51,8.742 -19.51,19.511 z m 0,-106.121 c 0,10.77 8.73,19.5 19.51,19.5 10.77,0 19.51,-8.73 19.51,-19.5 0,-10.762 -8.74,-19.488 -19.51,-19.488 -10.78,0 -19.51,8.726 -19.51,19.488 z m -97.36,106.121 c 0,10.75 8.74,19.489 19.51,19.489 10.77,0 19.5,-8.739 19.5,-19.489 0,-10.769 -8.73,-19.511 -19.5,-19.511 -10.77,0 -19.51,8.742 -19.51,19.511 z m 0,-106.121 c 0,10.77 8.74,19.5 19.51,19.5 10.77,0 19.5,-8.73 19.5,-19.5 0,-10.762 -8.73,-19.488 -19.5,-19.488 -10.77,0 -19.51,8.726 -19.51,19.488 z m -32.97,148.699 h 228.51 V 512.41 h -228.51 z m 194.66,522.169 v 94.78 m -167.58,-94.78 v 94.78 m 23.94,-94.77 v 94.77 m 23.94,-94.77 v 94.77 m 23.94,-94.77 v 94.77 m 23.94,-94.77 v 94.77 m 23.94,-94.77 v 94.77 m 23.95,-94.77 v 94.77 m -3.15,-227.72 v 23.69 m -18.62,-11.85 h 63.32 m -219.05,-67.71 v 135.42 c 0,13.53 11.1,24.63 24.63,24.63 h 169.79 c 13.54,0 24.65,-11.1 24.65,-24.63 v -135.42 c 0,-13.55 -11.11,-24.63 -24.65,-24.63 h -169.79 c -13.53,0 -24.63,11.08 -24.63,24.63 z M 3160.82,488.73 V 122.141 h 275.9 m -275.9,605.242 h 275.9 m -275.9,259.82 h 275.9 m 0,-498.473 h -275.9 v 865.77 h 275.9" /><path
         id="path22"
         style="fill:#384d71;fill-opacity:1;fill-rule:evenodd;stroke:none"
         d="M 1940.02,601.992 H 1674.38 V 486.91 H 1873.5 V 7.0625 h 66.52 z m -1331.04,0 h 765.48 V 486.91 H 608.98 V 7.0625 H 493.898 V 2836.44 H 1940.02 V 2721.37 H 608.98 Z M 1940.02,7.0625 V 601.992 h 1.29 V 1798.78 h 47.26 V 122.141 h 217.08 V 7.0625 h -217.08 z m 1011.53,0 H 2805.47 V 122.141 h 146.08 z m 0,1394.6975 v -47.26 h -600.21 v 47.26 h 37.11 v 439.86 l 69.99,69.98 33.42,-33.42 -56.14,-56.13 v -420.29 z m 0,839.76 v -47.26 h -143.64 l -116.12,-116.13 -33.42,33.42 129.97,129.97 z m -1011.53,594.92 h 1011.53 v -115.07 h -962.98 v -399.88 h -47.26 v 399.88 h -1.29 z M 2951.55,7.0625 V 122.141 h 485.17 V 1354.5 h -485.17 v 47.26 h 485.17 v 792.5 h -485.17 v 47.26 H 3551.8 V 7.0625 h -115.08 z m 0,2829.3775 h 600.25 v -192.19 h -115.08 v 77.12 h -485.17" /><path
         id="path24"
         style="fill:none;stroke:#384d71;stroke-width:14.10999966;stroke-linecap:round;stroke-linejoin:round;stroke-miterlimit:10;stroke-dasharray:none;stroke-opacity:1"
         d="M 1988.57,601.992 V 1798.78 h -47.26 V 601.992 H 1674.38 V 486.91 H 1873.5 V 7.0625 h 332.15 V 122.141 h -217.08 z m 447.15,1220.058 56.14,56.13 -33.43,33.42 -69.98,-69.98 v -439.86 h -37.11 V 1354.5 H 3436.71 V 122.141 H 2805.46 V 7.0625 h 746.33 V 2241.52 h -763.45 l -129.98,-129.97 33.43,-33.42 116.12,116.13 h 628.8 v -792.5 H 2435.72 Z M 608.973,601.992 H 1374.46 V 486.91 H 608.973 V 7.0625 H 493.902 V 2836.44 H 3551.79 v -192.19 h -115.08 v 77.12 H 1988.57 v -399.88 h -47.26 v 399.88 H 608.973 Z" /><path
         id="path26"
         style="fill:#ffffff;fill-opacity:1;fill-rule:evenodd;stroke:none"
         d="m 608.969,7.05859 h 1264.53 v 47.2695 H 608.969 Z" /><path
         id="path28"
         style="fill:none;stroke:#384c71;stroke-width:14.10999966;stroke-linecap:round;stroke-linejoin:round;stroke-miterlimit:22.9260006;stroke-dasharray:none;stroke-opacity:1"
         d="m 608.969,7.05859 h 1264.53 v 47.2695 H 608.969 Z" /><path
         id="path30"
         style="fill:#ffffff;fill-opacity:1;fill-rule:nonzero;stroke:none"
         d="m 2205.65,40.9492 h 599.813 V 88.2187 H 2205.65 Z" /><path
         id="path32"
         style="fill:none;stroke:#384c71;stroke-width:14.10999966;stroke-linecap:round;stroke-linejoin:round;stroke-miterlimit:22.9260006;stroke-dasharray:none;stroke-opacity:1"
         d="m 2205.65,40.9492 h 599.813 V 88.2187 H 2205.65 Z" /><path
         id="path34"
         style="fill:none;stroke:#384c71;stroke-width:28.22999954;stroke-linecap:round;stroke-linejoin:round;stroke-miterlimit:22.9260006;stroke-dasharray:none;stroke-opacity:1"
         d="M 1674.38,601.992 1414.45,753.371" /><path
         id="path36"
         style="fill:none;stroke:#384c71;stroke-width:28.22999954;stroke-linecap:round;stroke-linejoin:round;stroke-miterlimit:22.9260006;stroke-dasharray:none;stroke-opacity:1"
         d="m 1988.57,1370.34 314.2,-182.8" /><path
         id="path38"
         style="fill:none;stroke:#384c71;stroke-width:28.22999954;stroke-linecap:round;stroke-linejoin:round;stroke-miterlimit:22.9260006;stroke-dasharray:none;stroke-opacity:1"
         d="m 2659.8,2110.12 -274.19,-71.41" /><path
         id="path40"
         style="fill:none;stroke:#384c71;stroke-width:28.22999954;stroke-linecap:round;stroke-linejoin:round;stroke-miterlimit:22.9260006;stroke-dasharray:none;stroke-opacity:1"
         d="m 1941.31,1798.79 -95.56,154.23" /><path
         id="path42"
         style="fill:none;stroke:#384c71;stroke-width:28.22999954;stroke-linecap:round;stroke-linejoin:round;stroke-miterlimit:22.9260006;stroke-dasharray:none;stroke-opacity:1"
         d="M 1941.31,2321.49 1785.77,2024.45" /><path
         id="path44"
         style="fill:none;stroke:#384c71;stroke-width:28.22999954;stroke-linecap:round;stroke-linejoin:round;stroke-miterlimit:22.9260006;stroke-dasharray:none;stroke-opacity:1"
         d="M 3762.02,2589.99 3551.8,2241.52" /><path
         id="path46"
         style="fill:none;stroke:#384d71;stroke-width:14.10999966;stroke-linecap:round;stroke-linejoin:round;stroke-miterlimit:10;stroke-dasharray:none;stroke-opacity:1"
         d="m 2543.84,592.234 c 88.09,0 159.93,71.852 159.93,159.942 0,88.09 -71.84,159.929 -159.93,159.929 -88.09,0 -159.94,-71.839 -159.94,-159.929 0,-88.09 71.85,-159.942 159.94,-159.942 z" /><g
         transform="scale(10)"
         id="g48"><text
           id="text52"
           style="font-variant:normal;font-weight:bold;font-size:21.9260006px;font-family:Roboto;-inkscape-font-specification:Roboto-Bold;writing-mode:lr-tb;fill:#000000;fill-opacity:1;fill-rule:nonzero;stroke:none"
           transform="matrix(1,0,0,-1,248.53,67.3098)"><tspan
             id="tspan50"
             y="0"
             x="0">4</tspan></text>
<text
           id="text56"
           style="font-variant:normal;font-weight:normal;font-size:15.00370026px;font-family:Roboto;-inkscape-font-specification:Roboto-Regular;writing-mode:lr-tb;fill:#000000;fill-opacity:1;fill-rule:nonzero;stroke:none"
           transform="matrix(1,0,0,-1,235.8101,41.9055)"><tspan
             id="tspan54"
             y="0"
             x="0 8.4470835 16.894167 20.907785 29.354868">10.01</tspan></text>
</g><path
         id="path58"
         style="fill:none;stroke:#384d71;stroke-width:14.10999966;stroke-linecap:round;stroke-linejoin:round;stroke-miterlimit:10;stroke-dasharray:none;stroke-opacity:1"
         d="m 3847.13,2039.18 c 88.07,0 159.92,71.85 159.92,159.93 0,88.08 -71.85,159.93 -159.92,159.93 -88.11,0 -159.95,-71.85 -159.95,-159.93 0,-88.08 71.84,-159.93 159.95,-159.93 z" /><g
         transform="scale(10)"
         id="g60"><text
           id="text64"
           style="font-variant:normal;font-weight:bold;font-size:21.9260006px;font-family:Roboto;-inkscape-font-specification:Roboto-Bold;writing-mode:lr-tb;fill:#000000;fill-opacity:1;fill-rule:nonzero;stroke:none"
           transform="matrix(1,0,0,-1,378.857,212.003)"><tspan
             id="tspan62"
             y="0"
             x="0">7</tspan></text>
<text
           id="text68"
           style="font-variant:normal;font-weight:normal;font-size:15.00370026px;font-family:Roboto;-inkscape-font-specification:Roboto-Regular;writing-mode:lr-tb;fill:#000000;fill-opacity:1;fill-rule:nonzero;stroke:none"
           transform="matrix(1,0,0,-1,370.36091,186.5995)"><tspan
             id="tspan66"
             y="0"
             x="0 8.4470835 12.468075 20.915157">4.00</tspan></text>
</g><path
         id="path70"
         style="fill:none;stroke:#384d71;stroke-width:14.10999966;stroke-linecap:round;stroke-linejoin:round;stroke-miterlimit:10;stroke-dasharray:none;stroke-opacity:1"
         d="m 2285.64,2324.37 c 88.09,0 159.91,71.85 159.91,159.94 0,88.09 -71.82,159.92 -159.91,159.92 -88.1,0 -159.94,-71.83 -159.94,-159.92 0,-88.09 71.84,-159.94 159.94,-159.94 z" /><g
         transform="scale(10)"
         id="g72"><text
           id="text76"
           style="font-variant:normal;font-weight:bold;font-size:21.9260006px;font-family:Roboto;-inkscape-font-specification:Roboto-Bold;writing-mode:lr-tb;fill:#000000;fill-opacity:1;fill-rule:nonzero;stroke:none"
           transform="matrix(1,0,0,-1,222.71,240.522)"><tspan
             id="tspan74"
             y="0"
             x="0">1</tspan></text>
<text
           id="text80"
           style="font-variant:normal;font-weight:normal;font-size:15.00370026px;font-family:Roboto;-inkscape-font-specification:Roboto-Regular;writing-mode:lr-tb;fill:#000000;fill-opacity:1;fill-rule:nonzero;stroke:none"
           transform="matrix(1,0,0,-1,214.21391,215.1189)"><tspan
             id="tspan78"
             y="0"
             x="0 8.4470835 12.468075 20.915157">6.60</tspan></text>
</g><path
         id="path82"
         style="fill:none;stroke:#384d71;stroke-width:14.10999966;stroke-linecap:round;stroke-linejoin:round;stroke-miterlimit:10;stroke-dasharray:none;stroke-opacity:1"
         d="m 1210.24,1363.73 c 88.08,0 159.94,71.85 159.94,159.93 0,88.09 -71.86,159.94 -159.94,159.94 -88.09,0 -159.94,-71.85 -159.94,-159.94 0,-88.08 71.85,-159.93 159.94,-159.93 z" /><g
         transform="scale(10)"
         id="g84"><text
           id="text88"
           style="font-variant:normal;font-weight:bold;font-size:21.9260006px;font-family:Roboto;-inkscape-font-specification:Roboto-Bold;writing-mode:lr-tb;fill:#000000;fill-opacity:1;fill-rule:nonzero;stroke:none"
           transform="matrix(1,0,0,-1,115.171,144.459)"><tspan
             id="tspan86"
             y="0"
             x="0">2</tspan></text>
<text
           id="text92"
           style="font-variant:normal;font-weight:normal;font-size:15.00370026px;font-family:Roboto;-inkscape-font-specification:Roboto-Regular;writing-mode:lr-tb;fill:#000000;fill-opacity:1;fill-rule:nonzero;stroke:none"
           transform="matrix(1,0,0,-1,102.4511,119.0547)"><tspan
             id="tspan90"
             y="0"
             x="0 8.4470835 16.894167 20.915157 29.362242">17.20</tspan></text>
</g><path
         id="path94"
         style="fill:none;stroke:#384d71;stroke-width:14.10999966;stroke-linecap:round;stroke-linejoin:round;stroke-miterlimit:10;stroke-dasharray:none;stroke-opacity:1"
         d="m 166.977,491.145 c 88.089,0 159.941,71.847 159.941,159.937 0,88.09 -71.852,159.922 -159.941,159.922 -88.0786,0 -159.93012,-71.832 -159.93012,-159.922 0,-88.09 71.85152,-159.937 159.93012,-159.937 z" /><g
         transform="scale(10)"
         id="g96"><text
           id="text100"
           style="font-variant:normal;font-weight:bold;font-size:21.9260006px;font-family:Roboto;-inkscape-font-specification:Roboto-Bold;writing-mode:lr-tb;fill:#000000;fill-opacity:1;fill-rule:nonzero;stroke:none"
           transform="matrix(1,0,0,-1,10.8438,57.2012)"><tspan
             id="tspan98"
             y="0"
             x="0">8</tspan></text>
<text
           id="text104"
           style="font-variant:normal;font-weight:normal;font-size:15.00370026px;font-family:Roboto;-inkscape-font-specification:Roboto-Regular;writing-mode:lr-tb;fill:#000000;fill-opacity:1;fill-rule:nonzero;stroke:none"
           transform="matrix(1,0,0,-1,2.34927,31.7961)"><tspan
             id="tspan102"
             y="0"
             x="0 8.4470835 12.468075 20.915157">3.10</tspan></text>
</g><path
         id="path106"
         style="fill:none;stroke:#000000;stroke-width:12;stroke-linecap:round;stroke-linejoin:round;stroke-miterlimit:22.9260006;stroke-dasharray:none;stroke-opacity:1"
         d="M 7.05078,260.41 H 1205.46" /><path
         id="path108"
         style="fill:none;stroke:#000000;stroke-width:12;stroke-linecap:round;stroke-linejoin:round;stroke-miterlimit:22.9260006;stroke-dasharray:none;stroke-opacity:1"
         d="M 4007.05,1808.47 H 2743.58" /></g></g></svg>