<?xml version="1.0" encoding="UTF-8" standalone="no"?>
<svg
   xmlns:dc="http://purl.org/dc/elements/1.1/"
   xmlns:cc="http://creativecommons.org/ns#"
   xmlns:rdf="http://www.w3.org/1999/02/22-rdf-syntax-ns#"
   xmlns:svg="http://www.w3.org/2000/svg"
   xmlns="http://www.w3.org/2000/svg"
   viewBox="0 0 374.78751 501.95001"
   height="501.95001"
   width="374.78751"
   xml:space="preserve"
   id="svg2"
   version="1.1"><metadata
     id="metadata8"><rdf:RDF><cc:Work
         rdf:about=""><dc:format>image/svg+xml</dc:format><dc:type
           rdf:resource="http://purl.org/dc/dcmitype/StillImage" /></cc:Work></rdf:RDF></metadata><defs
     id="defs6" /><g
     transform="matrix(1.25,0,0,-1.25,0,501.95)"
     id="g10"><g
       transform="scale(0.1)"
       id="g12"><path
         id="path14"
         style="fill:none;stroke:#384d71;stroke-width:15.56999969;stroke-linecap:round;stroke-linejoin:round;stroke-miterlimit:10;stroke-dasharray:none;stroke-opacity:1"
         d="m 2683.7,2932.3 v -23.44 m 0,-50.38 v 23.43 m -36.9,13.48 h 23.43 m 50.34,0 h -23.43 m -35.57,0 c 0,12.22 9.91,22.11 22.13,22.11 12.19,0 22.1,-9.89 22.1,-22.11 0,-12.21 -9.91,-22.12 -22.1,-22.12 -12.22,0 -22.13,9.91 -22.13,22.12 z m 93.36,92.38 h -425.26 c -50.5,0 -91.46,-40.95 -91.46,-91.45 0,-50.48 40.96,-91.46 91.46,-91.46 h 425.26 c 9.64,0 17.48,7.87 17.48,17.52 v 147.91 c 0,9.62 -7.84,17.48 -17.48,17.48 z m 35.85,46.89 h -546.87 c -76.41,0 -138.34,-61.95 -138.34,-138.34 0,-76.39 61.93,-138.36 138.34,-138.36 h 546.87 c 14.59,0 26.47,11.92 26.47,26.49 v 223.75 c 0,14.57 -11.88,26.46 -26.47,26.46 z m -707.62,26.97 h 758.35 V 2731 h -758.35 z" /><path
         id="path16"
         style="fill:none;stroke:#384d71;stroke-width:15.56999969;stroke-linecap:round;stroke-linejoin:round;stroke-miterlimit:10;stroke-dasharray:none;stroke-opacity:1"
         d="m 2754.65,3588.07 c -44.87,0 -72.11,-11.22 -102.61,-11.22 -47.66,0 -118.75,32.15 -118.75,89.67 0,57.53 71.09,89.67 118.75,89.67 30.5,0 57.74,-11.23 102.61,-11.23 m -182.69,-114.75 c 31.23,13.41 31.23,59.22 0,72.63 m 179.9,-75.54 c -73.12,-41.45 -196.13,-26.89 -196.13,39.22 0,66.11 123.01,80.68 196.13,39.21 m 34.11,-39.21 c 0,5.92 4.8,10.71 10.73,10.71 5.9,0 10.69,-4.79 10.69,-10.71 0,-5.91 -4.79,-10.72 -10.69,-10.72 -5.93,0 -10.73,4.81 -10.73,10.72 z m -34.11,-65.85 v 131.71 c 0,12.32 10.08,22.42 22.4,22.42 h 44.84 c 12.35,0 22.41,-10.1 22.41,-22.42 v -131.71 c 0,-12.33 -10.06,-22.42 -22.41,-22.42 h -44.84 c -12.32,0 -22.4,10.09 -22.4,22.42 z" /><path
         id="path18"
         style="fill:none;stroke:#384d71;stroke-width:15.56999969;stroke-linecap:round;stroke-linejoin:round;stroke-miterlimit:10;stroke-dasharray:none;stroke-opacity:1"
         d="m 2819.08,3315.09 v -18.12 m -9.06,9.06 h 18.08 m -64.23,0.02 c 0,3.69 2.98,6.67 6.68,6.67 3.69,0 6.66,-2.98 6.66,-6.67 0,-3.7 -2.97,-6.68 -6.66,-6.68 -3.7,0 -6.68,2.98 -6.68,6.68 z m 30.95,-65.75 v 131.46 h -27.49 c -35.78,0 -45.69,-36.04 -45.69,-65.73 0,-29.69 9.91,-65.73 45.69,-65.73 z m -95.25,65.73 c 0,-68.74 39.33,-87.79 67.76,-87.79 h 74.18 v 175.59 h -74.18 c -28.43,0 -67.76,-19.05 -67.76,-87.8 z" /><path
         id="path20"
         style="fill:none;stroke:#384d71;stroke-width:15.56999969;stroke-linecap:round;stroke-linejoin:round;stroke-miterlimit:10;stroke-dasharray:none;stroke-opacity:1"
         d="m 2559.11,1725.91 v -260.2 h 304.48 m -57.93,286.35 v 211.08 m -76.57,-47.01 c 0,11.9 9.64,21.53 21.52,21.53 11.89,0 21.53,-9.63 21.53,-21.53 0,-11.86 -9.64,-21.5 -21.53,-21.5 -11.88,0 -21.52,9.64 -21.52,21.5 z m 0,-117.09 c 0,11.89 9.64,21.53 21.52,21.53 11.89,0 21.53,-9.64 21.53,-21.53 0,-11.88 -9.64,-21.52 -21.53,-21.52 -11.88,0 -21.52,9.64 -21.52,21.52 z m -107.45,117.09 c 0,11.9 9.65,21.53 21.52,21.53 11.89,0 21.54,-9.63 21.54,-21.53 0,-11.86 -9.65,-21.5 -21.54,-21.5 -11.87,0 -21.52,9.64 -21.52,21.5 z m 0,-117.09 c 0,11.89 9.65,21.53 21.52,21.53 11.89,0 21.54,-9.64 21.54,-21.53 0,-11.88 -9.65,-21.52 -21.54,-21.52 -11.87,0 -21.52,9.64 -21.52,21.52 z m -36.39,164.1 h 252.19 v -211.07 h -252.19 z m 214.82,547.28 v 104.6 m -184.93,-104.6 v 104.6 m 26.41,-104.58 v 104.58 m 26.43,-104.58 v 104.58 m 26.41,-104.58 v 104.58 m 26.43,-104.58 v 104.58 m 26.41,-104.58 v 104.58 m 26.43,-104.58 v 104.58 m -3.47,-251.3 v 26.15 m -20.55,-13.08 h 69.9 m -241.76,-74.73 v 149.45 c 0,14.94 12.25,27.17 27.2,27.17 h 187.37 c 14.93,0 27.19,-12.23 27.19,-27.17 v -149.45 c 0,-14.94 -12.26,-27.18 -27.19,-27.18 h -187.37 c -14.95,0 -27.2,12.24 -27.2,27.18 z m -18.67,-312.79 h 304.48 m -304.48,257.78 h 304.48 m 0,-521.14 h -304.48 v 926.47 h 304.48" /><path
         id="path22"
         style="fill:none;stroke:#384d71;stroke-width:15.56999969;stroke-linecap:round;stroke-linejoin:round;stroke-miterlimit:10;stroke-dasharray:none;stroke-opacity:1"
         d="m 1822.01,312.805 c 97.23,0 176.51,79.277 176.51,176.476 0,97.223 -79.28,176.512 -176.51,176.512 -97.19,0 -176.48,-79.289 -176.48,-176.512 0,-97.199 79.29,-176.476 176.48,-176.476 z" /><g
         transform="scale(10)"
         id="g24"><text
           id="text28"
           style="font-variant:normal;font-weight:bold;font-size:24.19650078px;font-family:Roboto;-inkscape-font-specification:Roboto-Bold;writing-mode:lr-tb;fill:#000000;fill-opacity:1;fill-rule:nonzero;stroke:none"
           transform="matrix(1,0,0,-1,175.742,40.2043)"><tspan
             id="tspan26"
             y="0"
             x="0">9</tspan></text>
<text
           id="text32"
           style="font-variant:normal;font-weight:normal;font-size:16.55739975px;font-family:Roboto;-inkscape-font-specification:Roboto-Regular;writing-mode:lr-tb;fill:#000000;fill-opacity:1;fill-rule:nonzero;stroke:none"
           transform="matrix(1,0,0,-1,166.367,12.1688)"><tspan
             id="tspan30"
             y="0"
             x="0 9.3218164 13.759199 23.081017">3.30</tspan></text>
</g><path
         id="path34"
         style="fill:none;stroke:#384d71;stroke-width:15.56999969;stroke-linecap:round;stroke-linejoin:round;stroke-miterlimit:10;stroke-dasharray:none;stroke-opacity:1"
         d="m 2111.17,1528.14 c 97.23,0 176.51,79.29 176.51,176.5 0,97.22 -79.28,176.5 -176.51,176.5 -97.2,0 -176.48,-79.28 -176.48,-176.5 0,-97.21 79.28,-176.5 176.48,-176.5 z" /><g
         transform="scale(10)"
         id="g36"><text
           id="text40"
           style="font-variant:normal;font-weight:bold;font-size:24.19650078px;font-family:Roboto;-inkscape-font-specification:Roboto-Bold;writing-mode:lr-tb;fill:#000000;fill-opacity:1;fill-rule:nonzero;stroke:none"
           transform="matrix(1,0,0,-1,204.658,161.739)"><tspan
             id="tspan38"
             y="0"
             x="0">4</tspan></text>
<text
           id="text44"
           style="font-variant:normal;font-weight:normal;font-size:16.55739975px;font-family:Roboto;-inkscape-font-specification:Roboto-Regular;writing-mode:lr-tb;fill:#000000;fill-opacity:1;fill-rule:nonzero;stroke:none"
           transform="matrix(1,0,0,-1,190.6209,133.7038)"><tspan
             id="tspan42"
             y="0"
             x="0 9.3218164 18.643633 23.072666 32.394482">12.67</tspan></text>
</g><path
         id="path46"
         style="fill:none;stroke:#384d71;stroke-width:15.56999969;stroke-linecap:round;stroke-linejoin:round;stroke-miterlimit:10;stroke-dasharray:none;stroke-opacity:1"
         d="m 757.094,1784.52 c 97.211,0 176.5,79.3 176.5,176.5 0,97.22 -79.289,176.5 -176.5,176.5 -97.207,0 -176.5,-79.28 -176.5,-176.5 0,-97.2 79.293,-176.5 176.5,-176.5 z" /><g
         transform="scale(10)"
         id="g48"><text
           id="text52"
           style="font-variant:normal;font-weight:bold;font-size:24.19650078px;font-family:Roboto;-inkscape-font-specification:Roboto-Bold;writing-mode:lr-tb;fill:#000000;fill-opacity:1;fill-rule:nonzero;stroke:none"
           transform="matrix(1,0,0,-1,69.2488,187.378)"><tspan
             id="tspan50"
             y="0"
             x="0">2</tspan></text>
<text
           id="text56"
           style="font-variant:normal;font-weight:normal;font-size:16.55739975px;font-family:Roboto;-inkscape-font-specification:Roboto-Regular;writing-mode:lr-tb;fill:#000000;fill-opacity:1;fill-rule:nonzero;stroke:none"
           transform="matrix(1,0,0,-1,55.2117,159.3421)"><tspan
             id="tspan54"
             y="0"
             x="0 9.3218164 18.643633 23.081017 32.402832">16.47</tspan></text>
</g><path
         id="path58"
         style="fill:none;stroke:#384d71;stroke-width:15.56999969;stroke-linecap:round;stroke-linejoin:round;stroke-miterlimit:10;stroke-dasharray:none;stroke-opacity:1"
         d="m 2375.57,3317.77 c 97.2,0 176.48,79.28 176.48,176.47 0,97.21 -79.28,176.5 -176.48,176.5 -97.23,0 -176.48,-79.29 -176.48,-176.5 0,-97.19 79.25,-176.47 176.48,-176.47 z" /><g
         transform="scale(10)"
         id="g60"><text
           id="text64"
           style="font-variant:normal;font-weight:bold;font-size:24.19650078px;font-family:Roboto;-inkscape-font-specification:Roboto-Bold;writing-mode:lr-tb;fill:#000000;fill-opacity:1;fill-rule:nonzero;stroke:none"
           transform="matrix(1,0,0,-1,231.095,340.7)"><tspan
             id="tspan62"
             y="0"
             x="0">7</tspan></text>
<text
           id="text68"
           style="font-variant:normal;font-weight:normal;font-size:16.55739975px;font-family:Roboto;-inkscape-font-specification:Roboto-Regular;writing-mode:lr-tb;fill:#000000;fill-opacity:1;fill-rule:nonzero;stroke:none"
           transform="matrix(1,0,0,-1,221.71805,312.6645)"><tspan
             id="tspan66"
             y="0"
             x="0 9.3218164 13.759199 23.081017">4.24</tspan></text>
</g><path
         id="path70"
         style="fill:none;stroke:#384d71;stroke-width:15.56999969;stroke-linecap:round;stroke-linejoin:round;stroke-miterlimit:10;stroke-dasharray:none;stroke-opacity:1"
         d="m 1466.62,3205.86 c 97.22,0 176.5,79.28 176.5,176.5 0,97.2 -79.28,176.5 -176.5,176.5 -97.21,0 -176.5,-79.3 -176.5,-176.5 0,-97.22 79.29,-176.5 176.5,-176.5 z" /><g
         transform="scale(10)"
         id="g72"><text
           id="text76"
           style="font-variant:normal;font-weight:bold;font-size:24.19650078px;font-family:Roboto;-inkscape-font-specification:Roboto-Bold;writing-mode:lr-tb;fill:#000000;fill-opacity:1;fill-rule:nonzero;stroke:none"
           transform="matrix(1,0,0,-1,140.201,329.509)"><tspan
             id="tspan74"
             y="0"
             x="0">1</tspan></text>
<text
           id="text80"
           style="font-variant:normal;font-weight:normal;font-size:16.55739975px;font-family:Roboto;-inkscape-font-specification:Roboto-Regular;writing-mode:lr-tb;fill:#000000;fill-opacity:1;fill-rule:nonzero;stroke:none"
           transform="matrix(1,0,0,-1,130.82522,301.4742)"><tspan
             id="tspan78"
             y="0"
             x="0 9.3218164 13.759199 23.081017">7.87</tspan></text>
</g><path
         id="path82"
         style="fill:#384c71;fill-opacity:1;fill-rule:evenodd;stroke:none"
         d="M 1143.44,4007.78 V 3880.79 H 134.781 v -645.27 h 888.889 l 59.88,-59.89 -36.88,-36.88 -44.61,44.62 H 134.781 V 1006.99 H 7.79297 V 4007.78 H 134.781 Z M 796.723,615.234 H 1143.44 V 742.215 H 796.723 Z M 2013.42,3490.84 h 52.17 v 389.95 h 798 V 2704.53 h -798 v 474.25 h -52.17 v -526.4 h 850.17 V 742.215 H 2363.31 V 615.234 h 500.28 V 7.78125 h 126.98 V 4007.78 H 1925.16 v -126.99 h 88.26 z m -869.98,516.94 h 346.74 v -126.99 h -346.74 z m 0,-3392.546 h 491.72 v 126.981 h -80.24 V 2705.96 h -1.69 l -59.91,59.9 -12.6,-12.61 -24.27,-24.27 46.33,-46.34 V 742.215 h -359.34" /><path
         id="path84"
         style="fill:none;stroke:#384c71;stroke-width:15.57999992;stroke-linecap:round;stroke-linejoin:round;stroke-miterlimit:22.9260006;stroke-dasharray:none;stroke-opacity:1"
         d="m 2013.42,3490.84 h 52.17 v 389.96 h 798 V 2704.54 h -798 v 474.24 h -52.17 v -526.4 h 850.17 V 742.219 H 2363.31 V 615.23 h 500.28 V 7.78125 h 126.98 V 4007.78 H 1925.16 V 3880.8 h 88.26 z m -929.87,-315.21 -59.88,59.9 H 134.781 V 3880.8 H 1490.18 v 126.98 H 7.79297 V 1006.99 H 134.781 v 2176.38 h 867.279 l 44.61,-44.61 z M 796.723,615.23 h 838.437 v 126.989 h -80.24 V 2705.97 h -1.7 l -59.9,59.89 -12.6,-12.6 -24.27,-24.28 46.33,-46.33 V 742.219 H 796.723 Z" /><path
         id="path86"
         style="fill:#ffffff;fill-opacity:1;fill-rule:evenodd;stroke:none"
         d="M 2863.59,7.78125 V 59.9414 H 1707.06 c -92.73,91.7816 -185.48,183.5626 -278.2,275.3516 v 279.941 h -52.15 V 313.531 C 1479.67,211.613 1582.62,109.703 1685.6,7.78125" /><path
         id="path88"
         style="fill:none;stroke:#384c71;stroke-width:15.57999992;stroke-linecap:round;stroke-linejoin:round;stroke-miterlimit:22.9260006;stroke-dasharray:none;stroke-opacity:1"
         d="M 2863.59,7.78125 V 59.9414 H 1707.06 c -92.73,91.7816 -185.48,183.5626 -278.2,275.3516 v 279.941 h -52.15 V 313.531 C 1479.67,211.613 1582.62,109.703 1685.6,7.78125 Z" /><path
         id="path90"
         style="fill:#ffffff;fill-opacity:1;fill-rule:nonzero;stroke:none"
         d="M 97.3555,1006.99 V 704.793 H 796.723 V 652.641 H 45.2148 v 354.349" /><path
         id="path92"
         style="fill:none;stroke:#384c71;stroke-width:15.57999992;stroke-linecap:round;stroke-linejoin:round;stroke-miterlimit:22.9260006;stroke-dasharray:none;stroke-opacity:1"
         d="M 97.3555,1006.99 V 704.793 H 796.723 V 652.641 H 45.2148 v 354.349 z" /><path
         id="path94"
         style="fill:#ffffff;fill-opacity:1;fill-rule:nonzero;stroke:none"
         d="m 1966.15,652.641 h 397.172 v 52.1484 H 1966.15 Z" /><path
         id="path96"
         style="fill:none;stroke:#384c71;stroke-width:15.57999992;stroke-linecap:round;stroke-linejoin:round;stroke-miterlimit:22.9260006;stroke-dasharray:none;stroke-opacity:1"
         d="m 1966.15,652.641 h 397.172 v 52.1484 H 1966.15 Z" /><path
         id="path98"
         style="fill:none;stroke:#384c71;stroke-width:31.14999962;stroke-linecap:round;stroke-linejoin:round;stroke-miterlimit:22.9260006;stroke-dasharray:none;stroke-opacity:1"
         d="m 2065.59,3490.84 143.98,-245.21" /><path
         id="path100"
         style="fill:none;stroke:#384c71;stroke-width:31.14999962;stroke-linecap:round;stroke-linejoin:round;stroke-miterlimit:22.9260006;stroke-dasharray:none;stroke-opacity:1"
         d="m 1490.18,3880.8 387.71,-223.82" /><path
         id="path102"
         style="fill:none;stroke:#384c71;stroke-width:31.14999962;stroke-linecap:round;stroke-linejoin:round;stroke-miterlimit:22.9260006;stroke-dasharray:none;stroke-opacity:1"
         d="m 1038.69,3146.74 54.33,-204.37" /><path
         id="path104"
         style="fill:none;stroke:#384c71;stroke-width:31.14999962;stroke-linecap:round;stroke-linejoin:round;stroke-miterlimit:22.9260006;stroke-dasharray:none;stroke-opacity:1"
         d="m 1456.45,2728.98 -353.97,109.38" /><path
         id="path106"
         style="fill:none;stroke:#384c71;stroke-width:31.14999962;stroke-linecap:round;stroke-linejoin:round;stroke-miterlimit:22.9260006;stroke-dasharray:none;stroke-opacity:1"
         d="m 1901.66,2505.66 -346.73,198.58" /><path
         id="path108"
         style="fill:none;stroke:#384c71;stroke-width:31.14999962;stroke-linecap:round;stroke-linejoin:round;stroke-miterlimit:22.9260006;stroke-dasharray:none;stroke-opacity:1"
         d="m 1635.16,742.219 286.85,167.058" /></g></g></svg>