<?xml version="1.0" encoding="UTF-8" standalone="no"?>
<svg
   xmlns:dc="http://purl.org/dc/elements/1.1/"
   xmlns:cc="http://creativecommons.org/ns#"
   xmlns:rdf="http://www.w3.org/1999/02/22-rdf-syntax-ns#"
   xmlns:svg="http://www.w3.org/2000/svg"
   xmlns="http://www.w3.org/2000/svg"
   viewBox="0 0 501.48749 309.08749"
   height="309.08749"
   width="501.48749"
   xml:space="preserve"
   id="svg2"
   version="1.1"><metadata
     id="metadata8"><rdf:RDF><cc:Work
         rdf:about=""><dc:format>image/svg+xml</dc:format><dc:type
           rdf:resource="http://purl.org/dc/dcmitype/StillImage" /></cc:Work></rdf:RDF></metadata><defs
     id="defs6" /><g
     transform="matrix(1.25,0,0,-1.25,0,309.0875)"
     id="g10"><g
       transform="scale(0.1)"
       id="g12"><path
         id="path14"
         style="fill:#384c71;fill-opacity:1;fill-rule:nonzero;stroke:none"
         d="m 3539.84,2292.36 h -1017.8 v -96.93 h 920.87 v -411.45 h 96.93 v 411.45 h 466.11 v 96.93 z m -2587.156,0 v -775.43 h 348.886 v 39.8 H 992.496 v 638.7 h 821.554 v -638.7 h -271.89 v -39.8 h 442.7 v 39.8 h -131 v 638.7 h 668.18 v 96.93 z m -848.637,0 L 74.4766,2262.79 5.94531,2194.25 449.875,1750.3 162.766,1463.2 94.2344,1394.64 162.766,1326.11 415.363,1073.54 H 683.215 V 5.94531 H 2522.04 V 102.883 H 1464.09 v 586.711 l 55.68,55.711 -28.14,28.16 -67.38,-67.371 V 102.883 H 780.137 V 1170.46 H 455.516 l -224.2,224.18 287.11,287.13 68.551,68.53 -445.133,445.13 h 469.179 v 96.93 z M 3442.91,1228.2 v -74.59 h -920.87 v -39.82 h 920.87 V 588.203 h 96.93 V 1228.2 Z m -1561.64,-74.59 h -9.48 l -68.54,-68.54 28.16,-28.14 56.86,56.86 h 633.77 v 39.82 z M 2522.04,5.94531 h 718.78 V 102.875 h -718.78" /><path
         id="path16"
         style="fill:none;stroke:#384c71;stroke-width:11.89000034;stroke-linecap:round;stroke-linejoin:round;stroke-miterlimit:22.9260006;stroke-dasharray:none;stroke-opacity:1"
         d="m 1853.85,1556.74 v 638.68 H 3442.9 v -411.43 h 96.94 v 411.43 h 466.1 v 96.94 H 952.684 v -775.43 h 348.876 v 39.81 H 992.492 v 638.68 h 821.548 v -638.68 h -271.88 v -39.81 h 442.71 v 39.81 z m -22.45,-499.8 56.87,56.86 H 3442.9 V 588.199 h 96.94 V 1228.2 h -96.94 v -74.59 H 1871.78 l -68.53,-68.53 z M 415.363,1073.53 H 683.215 V 5.94922 H 3240.8 V 102.879 H 1464.08 v 586.719 l 55.69,55.711 -28.14,28.148 -67.37,-67.359 V 102.879 H 780.133 V 1170.46 H 455.512 l -224.188,224.2 287.11,287.1 68.539,68.54 -445.129,445.12 h 469.187 v 96.94 H 104.043 L 74.4844,2262.79 5.94141,2194.25 449.883,1750.3 162.773,1463.2 94.2344,1394.66 162.773,1326.12 Z" /><path
         id="path18"
         style="fill:#ffffff;fill-opacity:1;fill-rule:nonzero;stroke:none"
         d="m 3240.8,74.3086 h 230.68 V 588.207 h 39.82 V 34.5078 h -270.5" /><path
         id="path20"
         style="fill:none;stroke:#384c71;stroke-width:11.89000034;stroke-linecap:round;stroke-linejoin:round;stroke-miterlimit:22.9260006;stroke-dasharray:none;stroke-opacity:1"
         d="m 3240.8,74.3086 h 230.68 V 588.207 h 39.82 V 34.5078 h -270.5 z" /><path
         id="path22"
         style="fill:#ffffff;fill-opacity:1;fill-rule:evenodd;stroke:none"
         d="m 3539.84,1030.91 v 39.81 h 213.8 c 70.83,70.82 141.65,141.65 212.48,212.47 v 912.23 h 39.82 V 1266.7 c -78.6,-78.6 -157.19,-157.19 -235.8,-235.79" /><path
         id="path24"
         style="fill:none;stroke:#384c71;stroke-width:11.89000034;stroke-linecap:round;stroke-linejoin:round;stroke-miterlimit:22.9260006;stroke-dasharray:none;stroke-opacity:1"
         d="m 3539.84,1030.91 v 39.81 h 213.8 c 70.83,70.82 141.65,141.65 212.48,212.47 v 912.23 h 39.82 V 1266.7 c -78.6,-78.6 -157.19,-157.19 -235.8,-235.79 z" /><path
         id="path26"
         style="fill:none;stroke:#384d71;stroke-width:11.88000011;stroke-linecap:round;stroke-linejoin:round;stroke-miterlimit:10;stroke-dasharray:none;stroke-opacity:1"
         d="m 1635.53,2058.11 h 17.89 m 38.44,0 h -17.88 m -10.28,-28.18 v 17.89 m 0,38.45 v -17.88 m 0,-27.16 c -9.33,0 -16.88,7.54 -16.88,16.88 0,9.32 7.55,16.87 16.88,16.87 9.32,0 16.87,-7.55 16.87,-16.87 0,-9.34 -7.55,-16.88 -16.87,-16.88 z m -70.52,71.25 v -324.6 c 0,-38.56 31.26,-69.81 69.8,-69.81 38.55,0 69.81,31.25 69.81,69.81 v 324.6 c 0,7.36 -6.01,13.36 -13.36,13.36 h -112.9 c -7.35,0 -13.35,-6 -13.35,-13.36 z m -35.8,27.36 v -417.41 c 0,-58.32 47.3,-105.61 105.6,-105.61 58.32,0 105.6,47.29 105.6,105.61 v 417.41 c 0,11.14 -9.07,20.21 -20.2,20.21 H 1577.6 c -11.13,0 -20.22,-9.07 -20.22,-20.21 z m 231.78,-540.13 H 1536.8 v 578.88 h 252.36 z" /><path
         id="path28"
         style="fill:none;stroke:#384d71;stroke-width:11.88000011;stroke-linecap:round;stroke-linejoin:round;stroke-miterlimit:10;stroke-dasharray:none;stroke-opacity:1"
         d="m 1307,2112.28 c 0,-34.25 8.56,-55.05 8.56,-78.33 0,-36.37 -24.54,-90.63 -68.44,-90.63 -43.91,0 -68.45,54.26 -68.45,90.63 0,23.28 8.56,44.08 8.56,78.33 m 87.61,-139.45 c -10.24,23.83 -45.21,23.83 -55.44,0 m 57.65,137.31 c 31.64,-55.81 20.53,-149.71 -29.93,-149.71 -50.46,0 -61.58,93.9 -29.94,149.71 m 29.94,26.05 c -4.51,0 -8.18,3.66 -8.18,8.17 0,4.52 3.67,8.17 8.18,8.17 4.51,0 8.18,-3.65 8.18,-8.17 0,-4.51 -3.67,-8.17 -8.18,-8.17 z m 50.26,-26.05 h -100.54 c -9.4,0 -17.1,7.7 -17.1,17.11 v 34.22 c 0,9.42 7.7,17.11 17.1,17.11 h 100.54 c 9.41,0 17.12,-7.69 17.12,-17.11 v -34.22 c 0,-9.41 -7.71,-17.11 -17.12,-17.11 z" /><path
         id="path30"
         style="fill:none;stroke:#384d71;stroke-width:11.88000011;stroke-linecap:round;stroke-linejoin:round;stroke-miterlimit:10;stroke-dasharray:none;stroke-opacity:1"
         d="m 1414.81,2161.44 h 13.83 m -6.91,-6.91 v 13.82 m -0.02,-49.03 c -2.81,0 -5.08,2.27 -5.08,5.08 0,2.82 2.27,5.1 5.08,5.1 2.83,0 5.1,-2.28 5.1,-5.1 0,-2.81 -2.27,-5.08 -5.1,-5.08 z m 50.19,23.62 h -100.35 v -20.98 c 0,-27.32 27.52,-34.89 50.18,-34.89 22.66,0 50.17,7.57 50.17,34.89 z m -50.17,-72.71 c 52.47,0 67.02,30.02 67.02,51.73 v 56.62 h -134.04 v -56.62 c 0,-21.71 14.53,-51.73 67.02,-51.73 z" /><path
         id="path32"
         style="fill:none;stroke:#384d71;stroke-width:11.88000011;stroke-linecap:round;stroke-linejoin:round;stroke-miterlimit:10;stroke-dasharray:none;stroke-opacity:1"
         d="m 2713.42,1963.01 h 183.33 v 232.41 m -203.26,-44.19 h -161.12 m 35.84,-58.46 c -9.07,0 -16.4,7.36 -16.4,16.43 0,9.07 7.33,16.42 16.4,16.42 9.08,0 16.44,-7.35 16.44,-16.42 0,-9.07 -7.36,-16.43 -16.44,-16.43 z m 89.4,0 c -9.07,0 -16.44,7.36 -16.44,16.43 0,9.07 7.37,16.42 16.44,16.42 9.07,0 16.43,-7.35 16.43,-16.42 0,-9.07 -7.36,-16.43 -16.43,-16.43 z m -89.4,-82.01 c -9.07,0 -16.4,7.35 -16.4,16.42 0,9.07 7.33,16.43 16.4,16.43 9.08,0 16.44,-7.36 16.44,-16.43 0,-9.07 -7.36,-16.42 -16.44,-16.42 z m 89.4,0 c -9.07,0 -16.44,7.35 -16.44,16.42 0,9.07 7.37,16.43 16.44,16.43 9.07,0 16.43,-7.36 16.43,-16.43 0,-9.07 -7.36,-16.42 -16.43,-16.42 z m 35.88,-27.78 h -161.12 v 192.48 h 161.12 z m -731.29,163.97 h -79.82 m 79.82,-141.16 h -79.82 m 79.82,20.17 h -79.84 m 79.84,20.16 h -79.84 m 79.84,20.17 h -79.84 m 79.84,20.16 h -79.84 m 79.84,20.16 h -79.84 m 79.84,20.17 h -79.84 m 191.84,-2.65 h -19.96 m 9.98,-15.67 v 53.33 m 57.04,-184.52 h -114.07 c -11.41,0 -20.75,9.34 -20.75,20.75 v 143.03 c 0,11.41 9.34,20.74 20.75,20.74 h 114.07 c 11.4,0 20.72,-9.33 20.72,-20.74 v -143.03 c 0,-11.41 -9.32,-20.75 -20.72,-20.75 z m 391.14,-14.26 v 232.41 m -349.16,-232.41 v 232.41 m 550.18,0 v -232.41 h -859.57 v 232.41" /><path
         id="path34"
         style="fill:none;stroke:#384c71;stroke-width:23.78000069;stroke-linecap:round;stroke-linejoin:round;stroke-miterlimit:22.9260006;stroke-dasharray:none;stroke-opacity:1"
         d="m 1519.77,745.313 149.91,35.371" /><path
         id="path36"
         style="fill:none;stroke:#384c71;stroke-width:23.78000069;stroke-linecap:round;stroke-linejoin:round;stroke-miterlimit:22.9260006;stroke-dasharray:none;stroke-opacity:1"
         d="M 1831.4,1056.93 1749.08,785.484" /><path
         id="path38"
         style="fill:none;stroke:#384c71;stroke-width:23.78000069;stroke-linecap:round;stroke-linejoin:round;stroke-miterlimit:22.9260006;stroke-dasharray:none;stroke-opacity:1"
         d="M 1542.16,1516.93 1332.84,1411.06" /><path
         id="path40"
         style="fill:none;stroke:#384c71;stroke-width:23.78000069;stroke-linecap:round;stroke-linejoin:round;stroke-miterlimit:22.9260006;stroke-dasharray:none;stroke-opacity:1"
         d="M 2138.85,1418.28 1984.87,1153.62" /><path
         id="path42"
         style="fill:none;stroke:#384c71;stroke-width:23.78000069;stroke-linecap:round;stroke-linejoin:round;stroke-miterlimit:22.9260006;stroke-dasharray:none;stroke-opacity:1"
         d="m 656.738,2460.78 295.95,-168.43" /><path
         id="path44"
         style="fill:none;stroke:#384c71;stroke-width:23.78000069;stroke-linecap:round;stroke-linejoin:round;stroke-miterlimit:22.9260006;stroke-dasharray:none;stroke-opacity:1"
         d="m 3317.81,1447.15 125.1,-218.96" /><path
         id="path46"
         style="fill:none;stroke:#384d71;stroke-width:11.88000011;stroke-linecap:round;stroke-linejoin:round;stroke-miterlimit:10;stroke-dasharray:none;stroke-opacity:1"
         d="m 721.426,1835.93 c 74.199,0 134.719,60.52 134.719,134.72 0,74.2 -60.52,134.72 -134.719,134.72 -74.199,0 -134.731,-60.52 -134.731,-134.72 0,-74.2 60.532,-134.72 134.731,-134.72 z" /><g
         transform="scale(10)"
         id="g48"><text
           id="text52"
           style="font-variant:normal;font-weight:bold;font-size:18.46949959px;font-family:Roboto;-inkscape-font-specification:Roboto-Bold;writing-mode:lr-tb;fill:#000000;fill-opacity:1;fill-rule:nonzero;stroke:none"
           transform="matrix(1,0,0,-1,67.2109,190.405)"><tspan
             id="tspan50"
             y="0"
             x="0">7</tspan></text>
<text
           id="text56"
           style="font-variant:normal;font-weight:normal;font-size:12.63850021px;font-family:Roboto;-inkscape-font-specification:Roboto-Regular;writing-mode:lr-tb;fill:#000000;fill-opacity:1;fill-rule:nonzero;stroke:none"
           transform="matrix(1,0,0,-1,60.05465,169.0038)"><tspan
             id="tspan54"
             y="0"
             x="0 7.1154757 10.502593 17.618069">4.20</tspan></text>
</g><path
         id="path58"
         style="fill:none;stroke:#384d71;stroke-width:11.88000011;stroke-linecap:round;stroke-linejoin:round;stroke-miterlimit:10;stroke-dasharray:none;stroke-opacity:1"
         d="m 1141.05,881.23 c 74.2,0 134.73,60.52 134.73,134.72 0,74.21 -60.53,134.72 -134.73,134.72 -74.2,0 -134.71,-60.51 -134.71,-134.72 0,-74.2 60.51,-134.72 134.71,-134.72 z" /><g
         transform="scale(10)"
         id="g60"><text
           id="text64"
           style="font-variant:normal;font-weight:bold;font-size:18.46949959px;font-family:Roboto;-inkscape-font-specification:Roboto-Bold;writing-mode:lr-tb;fill:#000000;fill-opacity:1;fill-rule:nonzero;stroke:none"
           transform="matrix(1,0,0,-1,109.174,94.9348)"><tspan
             id="tspan62"
             y="0"
             x="0">1</tspan></text>
<text
           id="text68"
           style="font-variant:normal;font-weight:normal;font-size:12.63850021px;font-family:Roboto;-inkscape-font-specification:Roboto-Regular;writing-mode:lr-tb;fill:#000000;fill-opacity:1;fill-rule:nonzero;stroke:none"
           transform="matrix(1,0,0,-1,98.4603,73.5352)"><tspan
             id="tspan66"
             y="0"
             x="0 7.1154757 14.230951 17.618069 24.733545">14.78</tspan></text>
</g><path
         id="path70"
         style="fill:none;stroke:#384d71;stroke-width:11.88000011;stroke-linecap:round;stroke-linejoin:round;stroke-miterlimit:10;stroke-dasharray:none;stroke-opacity:1"
         d="m 2420.26,466.063 c 74.19,0 134.71,60.531 134.71,134.73 0,74.199 -60.52,134.711 -134.71,134.711 -74.22,0 -134.74,-60.512 -134.74,-134.711 0,-74.199 60.52,-134.73 134.74,-134.73 z" /><g
         transform="scale(10)"
         id="g72"><text
           id="text76"
           style="font-variant:normal;font-weight:bold;font-size:18.46949959px;font-family:Roboto;-inkscape-font-specification:Roboto-Bold;writing-mode:lr-tb;fill:#000000;fill-opacity:1;fill-rule:nonzero;stroke:none"
           transform="matrix(1,0,0,-1,237.093,53.4188)"><tspan
             id="tspan74"
             y="0"
             x="0">2</tspan></text>
<text
           id="text80"
           style="font-variant:normal;font-weight:normal;font-size:12.63850021px;font-family:Roboto;-inkscape-font-specification:Roboto-Regular;writing-mode:lr-tb;fill:#000000;fill-opacity:1;fill-rule:nonzero;stroke:none"
           transform="matrix(1,0,0,-1,226.3782,32.0196)"><tspan
             id="tspan78"
             y="0"
             x="0 7.1154757 14.230951 17.618069 24.733545">18.10</tspan></text>
</g><path
         id="path82"
         style="fill:none;stroke:#384d71;stroke-width:11.88000011;stroke-linecap:round;stroke-linejoin:round;stroke-miterlimit:10;stroke-dasharray:none;stroke-opacity:1"
         d="m 3739.54,1595.4 c 74.19,0 134.71,60.52 134.71,134.72 0,74.21 -60.52,134.72 -134.71,134.72 -74.22,0 -134.74,-60.51 -134.74,-134.72 0,-74.2 60.52,-134.72 134.74,-134.72 z" /><g
         transform="scale(10)"
         id="g84"><text
           id="text88"
           style="font-variant:normal;font-weight:bold;font-size:18.46949959px;font-family:Roboto;-inkscape-font-specification:Roboto-Bold;writing-mode:lr-tb;fill:#000000;fill-opacity:1;fill-rule:nonzero;stroke:none"
           transform="matrix(1,0,0,-1,369.021,166.352)"><tspan
             id="tspan86"
             y="0"
             x="0">9</tspan></text>
<text
           id="text92"
           style="font-variant:normal;font-weight:normal;font-size:12.63850021px;font-family:Roboto;-inkscape-font-specification:Roboto-Regular;writing-mode:lr-tb;fill:#000000;fill-opacity:1;fill-rule:nonzero;stroke:none"
           transform="matrix(1,0,0,-1,365.42139,144.9516)"><tspan
             id="tspan90"
             y="0"
             x="0 7.1154757 10.502593">3.3</tspan></text>
</g><path
         id="path94"
         style="fill:none;stroke:#384d71;stroke-width:11.88000011;stroke-linecap:round;stroke-linejoin:round;stroke-miterlimit:10;stroke-dasharray:none;stroke-opacity:1"
         d="m 2648.98,1556 c 74.19,0 134.71,60.52 134.71,134.71 0,74.2 -60.52,134.72 -134.71,134.72 -74.22,0 -134.72,-60.52 -134.72,-134.72 0,-74.19 60.5,-134.71 134.72,-134.71 z" /><g
         transform="scale(10)"
         id="g96"><text
           id="text100"
           style="font-variant:normal;font-weight:bold;font-size:18.46949959px;font-family:Roboto;-inkscape-font-specification:Roboto-Bold;writing-mode:lr-tb;fill:#000000;fill-opacity:1;fill-rule:nonzero;stroke:none"
           transform="matrix(1,0,0,-1,259.966,162.412)"><tspan
             id="tspan98"
             y="0"
             x="0">4</tspan></text>
<text
           id="text104"
           style="font-variant:normal;font-weight:normal;font-size:12.63850021px;font-family:Roboto;-inkscape-font-specification:Roboto-Regular;writing-mode:lr-tb;fill:#000000;fill-opacity:1;fill-rule:nonzero;stroke:none"
           transform="matrix(1,0,0,-1,249.2512,141.0116)"><tspan
             id="tspan102"
             y="0"
             x="0 7.1154757 14.230951 17.618069 24.733545">12.28</tspan></text>
</g><path
         id="path106"
         style="fill:none;stroke:#000000;stroke-width:10.10000038;stroke-linecap:round;stroke-linejoin:round;stroke-miterlimit:22.9260006;stroke-dasharray:none;stroke-opacity:1"
         d="M 600.531,1639.53 H 1338.77" /><path
         id="path108"
         style="fill:#ffffff;fill-opacity:1;fill-rule:nonzero;stroke:none"
         d="m 3471.48,1480.83 h 39.8203 v 303.16 H 3471.48 Z" /><path
         id="path110"
         style="fill:none;stroke:#384c71;stroke-width:11.89000034;stroke-linecap:round;stroke-linejoin:round;stroke-miterlimit:22.9260006;stroke-dasharray:none;stroke-opacity:1"
         d="m 3471.48,1480.83 h 39.8203 v 303.16 H 3471.48 Z" /></g></g></svg>