<?xml version="1.0" encoding="UTF-8" standalone="no"?>
<svg
   xmlns:dc="http://purl.org/dc/elements/1.1/"
   xmlns:cc="http://creativecommons.org/ns#"
   xmlns:rdf="http://www.w3.org/1999/02/22-rdf-syntax-ns#"
   xmlns:svg="http://www.w3.org/2000/svg"
   xmlns="http://www.w3.org/2000/svg"
   viewBox="0 0 501.95001 376.375"
   height="376.375"
   width="501.95001"
   xml:space="preserve"
   id="svg2"
   version="1.1"><metadata
     id="metadata8"><rdf:RDF><cc:Work
         rdf:about=""><dc:format>image/svg+xml</dc:format><dc:type
           rdf:resource="http://purl.org/dc/dcmitype/StillImage" /></cc:Work></rdf:RDF></metadata><defs
     id="defs6" /><g
     transform="matrix(1.25,0,0,-1.25,0,376.375)"
     id="g10"><g
       transform="scale(0.1)"
       id="g12"><path
         id="path14"
         style="fill:none;stroke:#384c71;stroke-width:31.14999962;stroke-linecap:round;stroke-linejoin:round;stroke-miterlimit:22.9260006;stroke-dasharray:none;stroke-opacity:1"
         d="M 134.773,1495.57 355.414,1111.02" /><path
         id="path16"
         style="fill:none;stroke:#384d71;stroke-width:15.56999969;stroke-linecap:round;stroke-linejoin:round;stroke-miterlimit:10;stroke-dasharray:none;stroke-opacity:1"
         d="m 980.238,313.777 h -23.437 m -50.371,0 h 23.429 m 13.469,36.891 V 327.25 m 0,-50.371 v 23.43 m 0,35.57 c 12.211,0 22.121,-9.891 22.121,-22.102 0,-12.218 -9.91,-22.129 -22.121,-22.129 -12.199,0 -22.109,9.911 -22.109,22.129 0,12.211 9.91,22.102 22.109,22.102 z m 92.382,-93.352 v 425.262 c 0,50.5 -40.952,91.461 -91.452,91.461 -50.5,0 -91.449,-40.961 -91.449,-91.461 V 242.527 c 0,-9.617 7.859,-17.488 17.511,-17.488 h 147.89 c 9.66,0 17.5,7.871 17.5,17.488 z m 46.89,-35.859 v 546.883 c 0,76.387 -61.94,138.347 -138.342,138.347 -76.379,0 -138.328,-61.96 -138.328,-138.347 V 206.668 c 0,-14.559 11.89,-26.457 26.468,-26.457 h 223.742 c 14.58,0 26.46,11.898 26.46,26.457 z M 778.949,914.309 H 1109.58 V 155.938 H 778.949 Z" /><path
         id="path18"
         style="fill:none;stroke:#384d71;stroke-width:15.56999969;stroke-linecap:round;stroke-linejoin:round;stroke-miterlimit:10;stroke-dasharray:none;stroke-opacity:1"
         d="m 290.434,243.699 c 0,44.871 -11.219,72.121 -11.219,102.614 0,47.667 32.148,118.75 89.672,118.75 57.519,0 89.668,-71.083 89.668,-118.75 0,-30.493 -11.219,-57.743 -11.219,-102.614 M 332.555,426.41 c 13.422,-31.25 59.242,-31.25 72.648,0 M 329.664,246.5 c -41.449,73.133 -26.891,196.141 39.223,196.141 66.109,0 80.668,-123.008 39.218,-196.141 m -39.218,-34.109 c 5.918,0 10.718,-4.801 10.718,-10.719 0,-5.91 -4.8,-10.711 -10.718,-10.711 -5.91,0 -10.723,4.801 -10.723,10.711 0,5.918 4.813,10.719 10.723,10.719 z M 303.035,246.5 h 131.699 c 12.332,0 22.422,-10.078 22.422,-22.41 v -44.84 c 0,-12.328 -10.09,-22.41 -22.422,-22.41 H 303.035 c -12.332,0 -22.422,10.082 -22.422,22.41 v 44.84 c 0,12.332 10.09,22.41 22.422,22.41 z" /><path
         id="path20"
         style="fill:none;stroke:#384d71;stroke-width:15.56999969;stroke-linecap:round;stroke-linejoin:round;stroke-miterlimit:10;stroke-dasharray:none;stroke-opacity:1"
         d="m 619.473,179.316 h -18.102 m 9.043,9.039 v -18.097 m 0.02,64.238 c 3.687,0 6.668,-2.98 6.668,-6.672 0,-3.707 -2.981,-6.679 -6.668,-6.679 -3.7,0 -6.68,2.972 -6.68,6.679 0,3.692 2.98,6.672 6.68,6.672 z m -65.75,-30.949 h 131.461 v 27.48 c 0,35.778 -36.043,45.707 -65.731,45.707 -29.691,0 -65.73,-9.929 -65.73,-45.707 z m 65.73,95.238 c -68.742,0 -87.793,-39.328 -87.793,-67.758 v -74.179 h 175.602 v 74.179 c 0,28.43 -19.051,67.758 -87.809,67.758 z" /><path
         id="path22"
         style="fill:none;stroke:#384d71;stroke-width:15.56999969;stroke-linecap:round;stroke-linejoin:round;stroke-miterlimit:10;stroke-dasharray:none;stroke-opacity:1"
         d="m 2306.58,439.27 h 254.13 V 134.777 m -280.27,57.911 h -211.09 m 47.01,76.582 c -11.89,0 -21.53,-9.633 -21.53,-21.524 0,-11.887 9.64,-21.527 21.53,-21.527 11.89,0 21.52,9.64 21.52,21.527 0,11.891 -9.63,21.524 -21.52,21.524 z m 117.1,0 c -11.88,0 -21.52,-9.633 -21.52,-21.524 0,-11.887 9.64,-21.527 21.52,-21.527 11.86,0 21.5,9.64 21.5,21.527 0,11.891 -9.64,21.524 -21.5,21.524 z m -117.1,107.437 c -11.89,0 -21.53,-9.629 -21.53,-21.519 0,-11.891 9.64,-21.508 21.53,-21.508 11.89,0 21.52,9.617 21.52,21.508 0,11.89 -9.63,21.519 -21.52,21.519 z m 117.1,0 c -11.88,0 -21.52,-9.629 -21.52,-21.519 0,-11.891 9.64,-21.508 21.52,-21.508 11.86,0 21.5,9.617 21.5,21.508 0,11.89 -9.64,21.519 -21.5,21.519 z m 46.98,36.402 h -211.08 v -252.16 h 211.08 z M 1330.33,198.297 h -104.58 m 104.58,184.93 h -104.58 m 104.58,-26.43 h -104.58 m 104.58,-26.418 h -104.58 m 104.58,-26.41 h -104.58 m 104.58,-26.43 h -104.58 m 104.58,-26.41 h -104.58 m 104.58,-26.422 h -104.58 m 251.31,3.481 h -26.15 m 13.07,20.531 v -69.86 m 74.73,241.731 h -149.44 c -14.94,0 -27.18,-12.242 -27.18,-27.203 v -187.36 c 0,-14.949 12.24,-27.187 27.18,-27.187 h 149.44 c 14.95,0 27.18,12.238 27.18,27.187 v 187.36 c 0,14.961 -12.23,27.203 -27.18,27.203 z m 504.5,18.68 V 134.777 M 1593.72,439.27 V 134.777 m 712.86,0 V 439.27 H 1188.39 V 134.777" /><path
         id="path24"
         style="fill:#384c71;fill-opacity:1;fill-rule:evenodd;stroke:none"
         d="M 2113.38,134.773 V 7.78516 H 7.78516 V 1051.13 H 134.773 V 984.934 H 464.836 V 932.785 H 134.773 V 134.773 H 1136.23 V 932.785 H 780.043 v 52.149 H 1360.02 V 932.785 H 1188.38 V 134.773 Z m 0,1378.277 h -797.95 l -57.21,57.22 -36.88,-36.88 72.5,-72.5 h 819.54 z M 7.78516,1604.57 V 3003.18 H 2113.38 v -127 H 810.125 v -857.84 l 41.469,-41.45 -36.879,-36.87 -56.731,56.73 v 879.43 H 134.773 V 1495.57 H 7.78516 Z M 2113.38,1460.89 v 52.16 h 1156.8 v 688.59 h 126.98 v -799.73 h -126.98 v 58.98 z m 0,-1453.10484 V 134.773 h 1156.8 v 500.262 h 126.98 V 134.773 h 610.63 V 7.78516 h -737.61 z m 0,2995.39484 h 892.02 v -127 h -892.02" /><path
         id="path26"
         style="fill:none;stroke:#384c71;stroke-width:15.57999992;stroke-linecap:round;stroke-linejoin:round;stroke-miterlimit:22.9260006;stroke-dasharray:none;stroke-opacity:1"
         d="m 1258.22,1570.27 57.21,-57.23 h 1954.74 v 688.6 h 126.99 v -799.73 h -126.99 v 58.98 H 1293.84 l -72.5,72.5 z M 134.773,134.773 v 798.008 h 330.059 v 52.153 H 134.773 v 66.186 H 7.79297 V 7.78125 H 4007.79 V 134.773 h -610.63 v 500.27 H 3270.17 V 134.773 H 1188.39 v 798.008 h 171.63 v 52.153 H 780.043 V 932.781 H 1136.23 V 134.773 Z M 7.79297,1604.56 V 3003.17 H 3005.4 V 2876.18 H 810.121 v -857.84 l 41.473,-41.45 -36.879,-36.88 -56.731,56.73 v 879.44 H 134.773 V 1495.56 H 7.79297 Z" /><path
         id="path28"
         style="fill:#ffffff;fill-opacity:1;fill-rule:nonzero;stroke:none"
         d="m 3005.41,2913.6 h 302.18 v -711.96 h 52.18 v 764.12 h -354.36" /><path
         id="path30"
         style="fill:none;stroke:#384c71;stroke-width:15.57999992;stroke-linecap:round;stroke-linejoin:round;stroke-miterlimit:22.9260006;stroke-dasharray:none;stroke-opacity:1"
         d="m 3005.41,2913.6 h 302.18 v -711.96 h 52.18 v 764.12 h -354.36 z" /><path
         id="path32"
         style="fill:#ffffff;fill-opacity:1;fill-rule:evenodd;stroke:none"
         d="m 3397.16,1621.19 v -52.15 h 280.09 c 92.79,-92.78 185.57,-185.58 278.38,-278.35 V 134.777 h 52.16 V 1312.28 c -102.97,102.97 -205.95,205.94 -308.91,308.91" /><path
         id="path34"
         style="fill:none;stroke:#384c71;stroke-width:15.57999992;stroke-linecap:round;stroke-linejoin:round;stroke-miterlimit:22.9260006;stroke-dasharray:none;stroke-opacity:1"
         d="m 3397.16,1621.19 v -52.15 h 280.09 c 92.79,-92.78 185.57,-185.58 278.38,-278.35 V 134.777 h 52.16 V 1312.28 c -102.97,102.97 -205.95,205.94 -308.91,308.91 z" /><path
         id="path36"
         style="fill:none;stroke:#384c71;stroke-width:31.14999962;stroke-linecap:round;stroke-linejoin:round;stroke-miterlimit:22.9260006;stroke-dasharray:none;stroke-opacity:1"
         d="m 851.594,1976.89 196.366,-46.32" /><path
         id="path38"
         style="fill:none;stroke:#384c71;stroke-width:31.14999962;stroke-linecap:round;stroke-linejoin:round;stroke-miterlimit:22.9260006;stroke-dasharray:none;stroke-opacity:1"
         d="M 1259.85,1568.65 1152,1924.26" /><path
         id="path40"
         style="fill:none;stroke:#384c71;stroke-width:31.14999962;stroke-linecap:round;stroke-linejoin:round;stroke-miterlimit:22.9260006;stroke-dasharray:none;stroke-opacity:1"
         d="M 780.043,984.934 505.813,1123.63" /><path
         id="path42"
         style="fill:none;stroke:#384c71;stroke-width:31.14999962;stroke-linecap:round;stroke-linejoin:round;stroke-miterlimit:22.9260006;stroke-dasharray:none;stroke-opacity:1"
         d="M 1507.97,1114.17 1306.25,1460.9" /><path
         id="path44"
         style="fill:none;stroke:#384c71;stroke-width:31.14999962;stroke-linecap:round;stroke-linejoin:round;stroke-miterlimit:22.9260006;stroke-dasharray:none;stroke-opacity:1"
         d="m 3106.27,1115.09 163.91,286.83" /><path
         id="path46"
         style="fill:#ffffff;fill-opacity:1;fill-rule:nonzero;stroke:none"
         d="m 3307.59,635.039 h 52.1797 v 397.172 H 3307.59 Z" /><path
         id="path48"
         style="fill:none;stroke:#384c71;stroke-width:15.57999992;stroke-linecap:round;stroke-linejoin:round;stroke-miterlimit:22.9260006;stroke-dasharray:none;stroke-opacity:1"
         d="m 3307.59,635.039 h 52.1797 v 397.172 H 3307.59 Z" /><path
         id="path50"
         style="fill:none;stroke:#384d71;stroke-width:15.56999969;stroke-linecap:round;stroke-linejoin:round;stroke-miterlimit:10;stroke-dasharray:none;stroke-opacity:1"
         d="m 770.996,1485.63 c 97.231,0 176.5,79.28 176.5,176.48 0,97.21 -79.269,176.5 -176.5,176.5 -97.191,0 -176.48,-79.29 -176.48,-176.5 0,-97.2 79.289,-176.48 176.48,-176.48 z" /><g
         transform="scale(10)"
         id="g52"><text
           id="text56"
           style="font-variant:normal;font-weight:bold;font-size:24.19650078px;font-family:Roboto;-inkscape-font-specification:Roboto-Bold;writing-mode:lr-tb;fill:#000000;fill-opacity:1;fill-rule:nonzero;stroke:none"
           transform="matrix(1,0,0,-1,70.6391,157.486)"><tspan
             id="tspan54"
             y="0"
             x="0">7</tspan></text>
<text
           id="text60"
           style="font-variant:normal;font-weight:normal;font-size:16.55739975px;font-family:Roboto;-inkscape-font-specification:Roboto-Regular;writing-mode:lr-tb;fill:#000000;fill-opacity:1;fill-rule:nonzero;stroke:none"
           transform="matrix(1,0,0,-1,61.2641,129.4516)"><tspan
             id="tspan58"
             y="0"
             x="0 9.3218164 13.759199 23.081017">4.20</tspan></text>
</g><path
         id="path62"
         style="fill:none;stroke:#384d71;stroke-width:15.56999969;stroke-linecap:round;stroke-linejoin:round;stroke-miterlimit:10;stroke-dasharray:none;stroke-opacity:1"
         d="m 2740.47,1008.45 c 97.21,0 176.48,79.3 176.48,176.5 0,97.2 -79.27,176.49 -176.48,176.49 -97.18,0 -176.47,-79.29 -176.47,-176.49 0,-97.2 79.29,-176.5 176.47,-176.5 z" /><g
         transform="scale(10)"
         id="g64"><text
           id="text68"
           style="font-variant:normal;font-weight:bold;font-size:24.19650078px;font-family:Roboto;-inkscape-font-specification:Roboto-Bold;writing-mode:lr-tb;fill:#000000;fill-opacity:1;fill-rule:nonzero;stroke:none"
           transform="matrix(1,0,0,-1,267.584,109.77)"><tspan
             id="tspan66"
             y="0"
             x="0">4</tspan></text>
<text
           id="text72"
           style="font-variant:normal;font-weight:normal;font-size:16.55739975px;font-family:Roboto;-inkscape-font-specification:Roboto-Regular;writing-mode:lr-tb;fill:#000000;fill-opacity:1;fill-rule:nonzero;stroke:none"
           transform="matrix(1,0,0,-1,253.5508,81.7352)"><tspan
             id="tspan70"
             y="0"
             x="0 9.3218164 18.643633 23.072641 32.394459">12.28</tspan></text>
</g><path
         id="path74"
         style="fill:none;stroke:#384d71;stroke-width:15.56999969;stroke-linecap:round;stroke-linejoin:round;stroke-miterlimit:10;stroke-dasharray:none;stroke-opacity:1"
         d="m 3711.27,700.344 c 97.2,0 176.48,79.289 176.48,176.476 0,97.211 -79.28,176.5 -176.48,176.5 -97.23,0 -176.5,-79.289 -176.5,-176.5 0,-97.187 79.27,-176.476 176.5,-176.476 z" /><g
         transform="scale(10)"
         id="g76"><text
           id="text80"
           style="font-variant:normal;font-weight:bold;font-size:24.19650078px;font-family:Roboto;-inkscape-font-specification:Roboto-Bold;writing-mode:lr-tb;fill:#000000;fill-opacity:1;fill-rule:nonzero;stroke:none"
           transform="matrix(1,0,0,-1,364.664,78.9578)"><tspan
             id="tspan78"
             y="0"
             x="0">9</tspan></text>
<text
           id="text84"
           style="font-variant:normal;font-weight:normal;font-size:16.55739975px;font-family:Roboto;-inkscape-font-specification:Roboto-Regular;writing-mode:lr-tb;fill:#000000;fill-opacity:1;fill-rule:nonzero;stroke:none"
           transform="matrix(1,0,0,-1,355.29017,50.9238)"><tspan
             id="tspan82"
             y="0"
             x="0 9.3218164 13.759199 23.081017">3.30</tspan></text>
</g><path
         id="path86"
         style="fill:none;stroke:#384d71;stroke-width:15.56999969;stroke-linecap:round;stroke-linejoin:round;stroke-miterlimit:10;stroke-dasharray:none;stroke-opacity:1"
         d="m 419.918,2427.59 c 97.211,0 176.48,79.29 176.48,176.5 0,97.2 -79.269,176.49 -176.48,176.49 -97.211,0 -176.5,-79.29 -176.5,-176.49 0,-97.21 79.289,-176.5 176.5,-176.5 z" /><g
         transform="scale(10)"
         id="g88"><text
           id="text92"
           style="font-variant:normal;font-weight:bold;font-size:24.19650078px;font-family:Roboto;-inkscape-font-specification:Roboto-Bold;writing-mode:lr-tb;fill:#000000;fill-opacity:1;fill-rule:nonzero;stroke:none"
           transform="matrix(1,0,0,-1,35.5309,251.685)"><tspan
             id="tspan90"
             y="0"
             x="0">1</tspan></text>
<text
           id="text96"
           style="font-variant:normal;font-weight:normal;font-size:16.55739975px;font-family:Roboto;-inkscape-font-specification:Roboto-Regular;writing-mode:lr-tb;fill:#000000;fill-opacity:1;fill-rule:nonzero;stroke:none"
           transform="matrix(1,0,0,-1,26.15473,223.6487)"><tspan
             id="tspan94"
             y="0"
             x="0 9.3218164 13.759199 23.081017">8.10</tspan></text>
</g><path
         id="path98"
         style="fill:none;stroke:#384d71;stroke-width:15.56999969;stroke-linecap:round;stroke-linejoin:round;stroke-miterlimit:10;stroke-dasharray:none;stroke-opacity:1"
         d="m 2040.14,2166.51 c 97.19,0 176.47,79.29 176.47,176.5 0,97.21 -79.28,176.49 -176.47,176.49 -97.21,0 -176.49,-79.28 -176.49,-176.49 0,-97.21 79.28,-176.5 176.49,-176.5 z" /><g
         transform="scale(10)"
         id="g100"><text
           id="text104"
           style="font-variant:normal;font-weight:bold;font-size:24.19650078px;font-family:Roboto;-inkscape-font-specification:Roboto-Bold;writing-mode:lr-tb;fill:#000000;fill-opacity:1;fill-rule:nonzero;stroke:none"
           transform="matrix(1,0,0,-1,197.552,225.576)"><tspan
             id="tspan102"
             y="0"
             x="0">2</tspan></text>
<text
           id="text108"
           style="font-variant:normal;font-weight:normal;font-size:16.55739975px;font-family:Roboto;-inkscape-font-specification:Roboto-Regular;writing-mode:lr-tb;fill:#000000;fill-opacity:1;fill-rule:nonzero;stroke:none"
           transform="matrix(1,0,0,-1,183.5149,197.5412)"><tspan
             id="tspan106"
             y="0"
             x="0 9.3218164 18.643633 23.072666 32.394482">16.57</tspan></text>
</g><path
         id="path110"
         style="fill:none;stroke:#000000;stroke-width:13.23999977;stroke-linecap:round;stroke-linejoin:round;stroke-miterlimit:22.9260006;stroke-dasharray:none;stroke-opacity:1"
         d="M 1002.3,1236.27 H 424.234 V 605.648" /></g></g></svg>