<?xml version="1.0" encoding="UTF-8" standalone="no"?>
<svg
   xmlns:dc="http://purl.org/dc/elements/1.1/"
   xmlns:cc="http://creativecommons.org/ns#"
   xmlns:rdf="http://www.w3.org/1999/02/22-rdf-syntax-ns#"
   xmlns:svg="http://www.w3.org/2000/svg"
   xmlns="http://www.w3.org/2000/svg"
   viewBox="0 0 501.3125 266.98749"
   height="266.98749"
   width="501.3125"
   xml:space="preserve"
   id="svg2"
   version="1.1"><metadata
     id="metadata8"><rdf:RDF><cc:Work
         rdf:about=""><dc:format>image/svg+xml</dc:format><dc:type
           rdf:resource="http://purl.org/dc/dcmitype/StillImage" /></cc:Work></rdf:RDF></metadata><defs
     id="defs6" /><g
     transform="matrix(1.25,0,0,-1.25,0,266.9875)"
     id="g10"><g
       transform="scale(0.1)"
       id="g12"><path
         id="path14"
         style="fill:none;stroke:#384d71;stroke-width:10.52000046;stroke-linecap:round;stroke-linejoin:round;stroke-miterlimit:10;stroke-dasharray:none;stroke-opacity:1"
         d="m 3296.93,834.172 v -15.844 m 0,-34.039 v 15.84 m -24.94,9.101 h 15.84 m 34.03,0 h -15.82 m -24.06,0 c 0,8.25 6.7,14.942 14.95,14.942 8.25,0 14.93,-6.692 14.93,-14.942 0,-8.261 -6.68,-14.941 -14.93,-14.941 -8.25,0 -14.95,6.68 -14.95,14.941 z m 63.07,62.418 h -287.33 c -34.11,0 -61.79,-27.668 -61.79,-61.796 0,-34.122 27.68,-61.782 61.79,-61.782 h 287.33 c 6.52,0 11.83,5.309 11.83,11.828 v 99.922 c 0,6.52 -5.31,11.828 -11.83,11.828 z m 24.22,31.68 h -369.48 c -51.61,0 -93.49,-41.859 -93.49,-93.476 0,-51.614 41.88,-93.473 93.49,-93.473 h 369.48 c 9.87,0 17.89,8.043 17.89,17.891 v 151.179 c 0,9.852 -8.02,17.879 -17.89,17.879 z m -478.09,18.223 h 512.39 V 698.16 h -512.39 z" /><path
         id="path16"
         style="fill:none;stroke:#384d71;stroke-width:10.52000046;stroke-linecap:round;stroke-linejoin:round;stroke-miterlimit:10;stroke-dasharray:none;stroke-opacity:1"
         d="m 3344.88,191.887 c -30.3,0 -48.73,-7.59 -69.34,-7.59 -32.18,0 -80.21,21.726 -80.21,60.598 0,38.859 48.03,60.582 80.21,60.582 20.61,0 39.04,-7.571 69.34,-7.571 m -123.44,-77.562 c 21.1,9.07 21.1,40.031 0,49.082 m 121.55,-51.039 c -49.41,-28 -132.52,-18.153 -132.52,26.508 0,44.652 83.11,54.5 132.52,26.492 m 23.06,-26.492 c 0,3.992 3.22,7.218 7.23,7.218 3.98,0 7.23,-3.226 7.23,-7.218 0,-4.008 -3.25,-7.239 -7.23,-7.239 -4.01,0 -7.23,3.231 -7.23,7.239 z m -23.06,-44.5 v 88.992 c 0,8.328 6.81,15.148 15.14,15.148 h 30.29 c 8.34,0 15.15,-6.82 15.15,-15.148 v -88.992 c 0,-8.329 -6.81,-15.149 -15.15,-15.149 h -30.29 c -8.33,0 -15.14,6.82 -15.14,15.149 z" /><path
         id="path18"
         style="fill:none;stroke:#384d71;stroke-width:10.52000046;stroke-linecap:round;stroke-linejoin:round;stroke-miterlimit:10;stroke-dasharray:none;stroke-opacity:1"
         d="m 3388.41,584.473 v -12.239 m -6.12,6.129 h 12.23 m -43.4,0 c 0,2.5 2.02,4.508 4.5,4.508 2.49,0 4.5,-2.008 4.5,-4.508 0,-2.48 -2.01,-4.5 -4.5,-4.5 -2.48,0 -4.5,2.02 -4.5,4.5 z m 20.91,-44.41 v 88.82 h -18.56 c -24.19,0 -30.9,-24.359 -30.9,-44.41 0,-20.058 6.71,-44.41 30.9,-44.41 z m -64.37,44.41 c 0,-46.461 26.58,-59.332 45.81,-59.332 h 50.11 v 118.641 h -50.11 c -19.23,0 -45.81,-12.867 -45.81,-59.309 z" /><path
         id="path20"
         style="fill:#384d71;fill-opacity:1;fill-rule:evenodd;stroke:none"
         d="m 243.012,1447.71 h 570.781 v 85.81 H 157.215 V 1095.16 L 46.043,983.996 106.715,923.324 243.012,1059.63 Z M 2015.8,91.0664 H 1271.68 V 191.164 h -35.24 V 91.0664 H 243.012 V 425.426 L 106.715,561.727 46.043,501.066 157.215,389.895 V 5.26563 H 2015.8 Z m 0,448.5386 v -40.929 l -34.9,-34.91 h -744.46 v 983.944 h -199.03 v 85.81 h 148.47 v 445.12 h 276.02 l 111.17,111.16 60.68,-60.66 -136.31,-136.3 H 1271.68 V 499.016 h 694.62 l 45.05,45.039 z m 0,1510.005 -20.47,-20.47 20.47,-20.46 z M 2865.91,398.715 h 552.56 V 91.0664 h -552.56 v 59.6286 h -35.24 V 91.0664 H 2719.92 V 5.26563 h 784.35 V 1978.64 h -454.24 v -85.8 h 368.44 V 971.816 h -779.48 v -35.242 h 191.68 V 687.395 h 35.24 v 249.179 h 552.56 V 433.953 h -552.56 v 40.473 h -35.24 V 361.547 h 35.24 z m -850.11,99.961 v 40.929 l 20.47,-20.46 z m 0,-407.6096 h 403.82 V 5.26563 H 2015.8 Z M 2602.79,1892.84 v 85.8 H 2167.18 L 2056,2089.8 l -40.2,-40.19 v -40.93 l 115.84,-115.84 h 201.63 V 865.984 l -46.01,-45.988 24.93,-24.922 56.32,56.301 V 1892.84" /><path
         id="path22"
         style="fill:none;stroke:#384d71;stroke-width:10.52000046;stroke-linecap:round;stroke-linejoin:round;stroke-miterlimit:10;stroke-dasharray:none;stroke-opacity:1"
         d="m 243.012,1447.71 h 570.781 v 85.81 H 157.215 V 1095.16 L 46.043,983.996 106.715,923.324 243.012,1059.63 Z M 1271.68,91.0664 V 191.164 h -35.24 V 91.0664 H 243.012 V 425.426 L 106.715,561.727 46.043,501.066 157.215,389.895 V 5.26563 H 2419.62 V 91.0664 Z m 709.22,372.6996 55.37,55.379 -24.92,24.91 -45.05,-45.039 H 1271.68 V 1892.84 h 225.76 l 136.31,136.3 -60.68,60.66 -111.17,-111.16 h -276.02 v -445.12 h -148.47 v -85.81 h 199.03 V 463.766 Z m 885.01,-65.051 h 552.56 V 91.0664 h -552.56 v 59.6286 h -35.24 V 91.0664 H 2719.92 V 5.26563 h 784.35 V 1978.64 h -454.24 v -85.8 h 368.44 V 971.816 h -779.48 v -35.242 h 191.68 V 687.395 h 35.24 v 249.179 h 552.56 V 433.953 h -552.56 v 40.473 h -35.24 V 361.547 h 35.24 z M 2602.79,1892.84 v 85.8 H 2167.18 L 2056,2089.8 l -60.67,-60.66 136.31,-136.3 h 201.63 V 865.984 l -46.01,-45.988 24.93,-24.922 56.32,56.301 V 1892.84 Z" /><path
         id="path24"
         style="fill:#ffffff;fill-opacity:1;fill-rule:evenodd;stroke:none"
         d="m 2038.13,2071.93 -58.67,58.66 h -329.85 l -58.66,-58.66 24.91,-24.91 48.34,48.34 h 300.68 l 48.32,-48.34" /><path
         id="path26"
         style="fill:none;stroke:#384d71;stroke-width:10.52000046;stroke-linecap:round;stroke-linejoin:round;stroke-miterlimit:10;stroke-dasharray:none;stroke-opacity:1"
         d="m 2038.13,2071.93 -58.67,58.66 h -329.85 l -58.66,-58.66 24.91,-24.91 48.34,48.34 h 300.68 l 48.32,-48.34 z" /><path
         id="path28"
         style="fill:#ffffff;fill-opacity:1;fill-rule:evenodd;stroke:none"
         d="M 63.9219,518.945 5.26172,577.594 V 907.465 L 63.9219,966.113 88.8398,941.203 40.5,892.863 V 592.195 l 48.3398,-48.34" /><path
         id="path30"
         style="fill:none;stroke:#384d71;stroke-width:10.52000046;stroke-linecap:round;stroke-linejoin:round;stroke-miterlimit:10;stroke-dasharray:none;stroke-opacity:1"
         d="M 63.9219,518.945 5.26172,577.594 V 907.465 L 63.9219,966.113 88.8398,941.203 40.5,892.863 V 592.195 l 48.3398,-48.34 z" /><path
         id="path32"
         style="fill:#ffffff;fill-opacity:1;fill-rule:evenodd;stroke:none"
         d="m 1185.88,1978.63 v -35.24 c -268.446,0 -536.896,0 -805.357,0.01 -62.687,-62.69 -125.378,-125.39 -188.07,-188.08 v -221.81 h -35.238 v 236.41 c 69.57,69.57 139.14,139.14 208.719,208.71 273.308,0 546.629,0 819.946,0" /><path
         id="path34"
         style="fill:none;stroke:#384c71;stroke-width:10.52000046;stroke-linecap:round;stroke-linejoin:round;stroke-miterlimit:22.9260006;stroke-dasharray:none;stroke-opacity:1"
         d="m 1185.88,1978.63 v -35.24 c -268.446,0 -536.896,0 -805.357,0.01 -62.687,-62.69 -125.378,-125.39 -188.07,-188.08 v -221.81 h -35.238 v 236.41 c 69.57,69.57 139.14,139.14 208.719,208.71 273.308,0 546.629,0 819.946,0 z" /><path
         id="path36"
         style="fill:none;stroke:#384c71;stroke-width:21.04999924;stroke-linecap:round;stroke-linejoin:round;stroke-miterlimit:22.9260006;stroke-dasharray:none;stroke-opacity:1"
         d="M 1037.41,1447.71 843.613,1334.84" /><path
         id="path38"
         style="fill:none;stroke:#384c71;stroke-width:21.04999924;stroke-linecap:round;stroke-linejoin:round;stroke-miterlimit:22.9260006;stroke-dasharray:none;stroke-opacity:1"
         d="m 1271.68,463.77 136.3,-236.411" /><path
         id="path40"
         style="fill:none;stroke:#384c71;stroke-width:21.04999924;stroke-linecap:round;stroke-linejoin:round;stroke-miterlimit:22.9260006;stroke-dasharray:none;stroke-opacity:1"
         d="m 2011.35,544.055 73.9,239.179" /><path
         id="path42"
         style="fill:none;stroke:#384c71;stroke-width:21.04999924;stroke-linecap:round;stroke-linejoin:round;stroke-miterlimit:22.9260006;stroke-dasharray:none;stroke-opacity:1"
         d="m 2153.4,789.617 133.87,30.371" /><path
         id="path44"
         style="fill:none;stroke:#384c71;stroke-width:21.04999924;stroke-linecap:round;stroke-linejoin:round;stroke-miterlimit:22.9260006;stroke-dasharray:none;stroke-opacity:1"
         d="M 2419.62,91.0625 2679.45,240.145" /><path
         id="path46"
         style="fill:none;stroke:#384c71;stroke-width:21.04999924;stroke-linecap:round;stroke-linejoin:round;stroke-miterlimit:22.9260006;stroke-dasharray:none;stroke-opacity:1"
         d="m 2866.88,150.691 104.35,183.161" /><path
         id="path48"
         style="fill:none;stroke:#384c71;stroke-width:21.04999924;stroke-linecap:round;stroke-linejoin:round;stroke-miterlimit:22.9260006;stroke-dasharray:none;stroke-opacity:1"
         d="M 2830.68,687.395 2724.2,504.242" /><path
         id="path50"
         style="fill:none;stroke:#384c71;stroke-width:21.04999924;stroke-linecap:round;stroke-linejoin:round;stroke-miterlimit:22.9260006;stroke-dasharray:none;stroke-opacity:1"
         d="M 2602.79,1096.3 2368.51,960" /><path
         id="path52"
         style="fill:#ffffff;fill-opacity:1;fill-rule:nonzero;stroke:none"
         d="m 2602.79,1918.11 h 447.242 v 35.2422 H 2602.79 Z" /><path
         id="path54"
         style="fill:none;stroke:#384c71;stroke-width:10.52000046;stroke-linecap:round;stroke-linejoin:round;stroke-miterlimit:22.9260006;stroke-dasharray:none;stroke-opacity:1"
         d="m 2602.79,1918.11 h 447.242 v 35.2422 H 2602.79 Z" /><path
         id="path56"
         style="fill:none;stroke:#384d71;stroke-width:10.52000046;stroke-linecap:round;stroke-linejoin:round;stroke-miterlimit:10;stroke-dasharray:none;stroke-opacity:1"
         d="m 3886.01,839.863 c 65.68,0 119.25,53.571 119.25,119.258 0,65.679 -53.57,119.239 -119.25,119.239 -65.67,0 -119.25,-53.56 -119.25,-119.239 0,-65.687 53.58,-119.258 119.25,-119.258 z" /><g
         transform="scale(10)"
         id="g58"><text
           id="text62"
           style="font-variant:normal;font-weight:bold;font-size:16.34869957px;font-family:Roboto;-inkscape-font-specification:Roboto-Bold;writing-mode:lr-tb;fill:#000000;fill-opacity:1;fill-rule:nonzero;stroke:none"
           transform="matrix(1,0,0,-1,384.234,90.0176)"><tspan
             id="tspan60"
             y="0"
             x="0">5</tspan></text>
<text
           id="text66"
           style="font-variant:normal;font-weight:normal;font-size:11.18729973px;font-family:Roboto;-inkscape-font-specification:Roboto-Regular;writing-mode:lr-tb;fill:#000000;fill-opacity:1;fill-rule:nonzero;stroke:none"
           transform="matrix(1,0,0,-1,377.90002,71.0742)"><tspan
             id="tspan64"
             y="0"
             x="0 6.29845 9.2966461 15.595097">3.10</tspan></text>
</g><path
         id="path68"
         style="fill:none;stroke:#384d71;stroke-width:10.52000046;stroke-linecap:round;stroke-linejoin:round;stroke-miterlimit:10;stroke-dasharray:none;stroke-opacity:1"
         d="m 3880.76,278.289 c 65.68,0 119.25,53.57 119.25,119.242 0,65.68 -53.57,119.258 -119.25,119.258 -65.67,0 -119.24,-53.578 -119.24,-119.258 0,-65.672 53.57,-119.242 119.24,-119.242 z" /><g
         transform="scale(10)"
         id="g70"><text
           id="text74"
           style="font-variant:normal;font-weight:bold;font-size:16.34869957px;font-family:Roboto;-inkscape-font-specification:Roboto-Bold;writing-mode:lr-tb;fill:#000000;fill-opacity:1;fill-rule:nonzero;stroke:none"
           transform="matrix(1,0,0,-1,383.711,33.8586)"><tspan
             id="tspan72"
             y="0"
             x="0">6</tspan></text>
<text
           id="text78"
           style="font-variant:normal;font-weight:normal;font-size:11.18729973px;font-family:Roboto;-inkscape-font-specification:Roboto-Regular;writing-mode:lr-tb;fill:#000000;fill-opacity:1;fill-rule:nonzero;stroke:none"
           transform="matrix(1,0,0,-1,377.37506,14.9172)"><tspan
             id="tspan76"
             y="0"
             x="0 6.29845 9.2966461 15.595097">1.60</tspan></text>
</g><path
         id="path80"
         style="fill:none;stroke:#384d71;stroke-width:10.52000046;stroke-linecap:round;stroke-linejoin:round;stroke-miterlimit:10;stroke-dasharray:none;stroke-opacity:1"
         d="m 2910.77,1397.67 c 65.67,0 119.24,53.57 119.24,119.25 0,65.68 -53.57,119.25 -119.24,119.25 -65.68,0 -119.26,-53.57 -119.26,-119.25 0,-65.68 53.58,-119.25 119.26,-119.25 z" /><g
         transform="scale(10)"
         id="g82"><text
           id="text86"
           style="font-variant:normal;font-weight:bold;font-size:16.34869957px;font-family:Roboto;-inkscape-font-specification:Roboto-Bold;writing-mode:lr-tb;fill:#000000;fill-opacity:1;fill-rule:nonzero;stroke:none"
           transform="matrix(1,0,0,-1,286.711,145.798)"><tspan
             id="tspan84"
             y="0"
             x="0">4</tspan></text>
<text
           id="text90"
           style="font-variant:normal;font-weight:normal;font-size:11.18729973px;font-family:Roboto;-inkscape-font-specification:Roboto-Regular;writing-mode:lr-tb;fill:#000000;fill-opacity:1;fill-rule:nonzero;stroke:none"
           transform="matrix(1,0,0,-1,280.37506,126.8554)"><tspan
             id="tspan88"
             y="0"
             x="0 6.29845 9.2966461 15.595097">9.60</tspan></text>
</g><path
         id="path92"
         style="fill:none;stroke:#384d71;stroke-width:10.52000046;stroke-linecap:round;stroke-linejoin:round;stroke-miterlimit:10;stroke-dasharray:none;stroke-opacity:1"
         d="m 2358.83,409.98 c 65.68,0 119.26,53.571 119.26,119.258 0,65.684 -53.58,119.25 -119.26,119.25 -65.68,0 -119.26,-53.566 -119.26,-119.25 0,-65.687 53.58,-119.258 119.26,-119.258 z" /><g
         transform="scale(10)"
         id="g94"><text
           id="text98"
           style="font-variant:normal;font-weight:bold;font-size:16.34869957px;font-family:Roboto;-inkscape-font-specification:Roboto-Bold;writing-mode:lr-tb;fill:#000000;fill-opacity:1;fill-rule:nonzero;stroke:none"
           transform="matrix(1,0,0,-1,231.518,47.0281)"><tspan
             id="tspan96"
             y="0"
             x="0">1</tspan></text>
<text
           id="text102"
           style="font-variant:normal;font-weight:normal;font-size:11.18729973px;font-family:Roboto;-inkscape-font-specification:Roboto-Regular;writing-mode:lr-tb;fill:#000000;fill-opacity:1;fill-rule:nonzero;stroke:none"
           transform="matrix(1,0,0,-1,225.18206,28.0859)"><tspan
             id="tspan100"
             y="0"
             x="0 6.29845 9.2966461 15.595097">9.86</tspan></text>
</g><path
         id="path104"
         style="fill:none;stroke:#384d71;stroke-width:10.52000046;stroke-linecap:round;stroke-linejoin:round;stroke-miterlimit:10;stroke-dasharray:none;stroke-opacity:1"
         d="m 1823.48,1464.08 c 65.68,0 119.25,53.56 119.25,119.25 0,65.68 -53.57,119.25 -119.25,119.25 -65.68,0 -119.25,-53.57 -119.25,-119.25 0,-65.69 53.57,-119.25 119.25,-119.25 z" /><g
         transform="scale(10)"
         id="g106"><text
           id="text110"
           style="font-variant:normal;font-weight:bold;font-size:16.34869957px;font-family:Roboto;-inkscape-font-specification:Roboto-Bold;writing-mode:lr-tb;fill:#000000;fill-opacity:1;fill-rule:nonzero;stroke:none"
           transform="matrix(1,0,0,-1,177.982,152.438)"><tspan
             id="tspan108"
             y="0"
             x="0">2</tspan></text>
<text
           id="text114"
           style="font-variant:normal;font-weight:normal;font-size:11.18729973px;font-family:Roboto;-inkscape-font-specification:Roboto-Regular;writing-mode:lr-tb;fill:#000000;fill-opacity:1;fill-rule:nonzero;stroke:none"
           transform="matrix(1,0,0,-1,168.49841,133.4958)"><tspan
             id="tspan112"
             y="0"
             x="0 6.29845 12.5969 15.589457 21.887907">16.80</tspan></text>
</g><path
         id="path116"
         style="fill:none;stroke:#384d71;stroke-width:10.52000046;stroke-linecap:round;stroke-linejoin:round;stroke-miterlimit:10;stroke-dasharray:none;stroke-opacity:1"
         d="m 669.469,649.59 c 65.679,0 119.25,53.558 119.25,119.25 0,65.672 -53.571,119.25 -119.25,119.25 -65.68,0 -119.25,-53.578 -119.25,-119.25 0,-65.692 53.57,-119.25 119.25,-119.25 z" /><g
         transform="scale(10)"
         id="g118"><text
           id="text122"
           style="font-variant:normal;font-weight:bold;font-size:16.34869957px;font-family:Roboto;-inkscape-font-specification:Roboto-Bold;writing-mode:lr-tb;fill:#000000;fill-opacity:1;fill-rule:nonzero;stroke:none"
           transform="matrix(1,0,0,-1,62.5816,70.9883)"><tspan
             id="tspan120"
             y="0"
             x="0">3</tspan></text>
<text
           id="text126"
           style="font-variant:normal;font-weight:normal;font-size:11.18729973px;font-family:Roboto;-inkscape-font-specification:Roboto-Regular;writing-mode:lr-tb;fill:#000000;fill-opacity:1;fill-rule:nonzero;stroke:none"
           transform="matrix(1,0,0,-1,53.09722,52.0461)"><tspan
             id="tspan124"
             y="0"
             x="0 6.29845 12.5969 15.589457 21.887907">16.15</tspan></text>
</g><path
         id="path128"
         style="fill:none;stroke:#384d71;stroke-width:10.52000046;stroke-linecap:round;stroke-linejoin:round;stroke-miterlimit:10;stroke-dasharray:none;stroke-opacity:1"
         d="m 719.121,1684.75 c 65.68,0 119.25,53.57 119.25,119.25 0,65.68 -53.57,119.25 -119.25,119.25 -65.68,0 -119.25,-53.57 -119.25,-119.25 0,-65.68 53.57,-119.25 119.25,-119.25 z" /><g
         transform="scale(10)"
         id="g130"><text
           id="text134"
           style="font-variant:normal;font-weight:bold;font-size:16.34869957px;font-family:Roboto;-inkscape-font-specification:Roboto-Bold;writing-mode:lr-tb;fill:#000000;fill-opacity:1;fill-rule:nonzero;stroke:none"
           transform="matrix(1,0,0,-1,67.5465,174.505)"><tspan
             id="tspan132"
             y="0"
             x="0">8</tspan></text>
<text
           id="text138"
           style="font-variant:normal;font-weight:normal;font-size:11.18729973px;font-family:Roboto;-inkscape-font-specification:Roboto-Regular;writing-mode:lr-tb;fill:#000000;fill-opacity:1;fill-rule:nonzero;stroke:none"
           transform="matrix(1,0,0,-1,61.21134,155.562)"><tspan
             id="tspan136"
             y="0"
             x="0 6.29845 9.2966461 15.595097">4.10</tspan></text>
</g><path
         id="path140"
         style="fill:none;stroke:#000000;stroke-width:8.93999958;stroke-linecap:round;stroke-linejoin:round;stroke-miterlimit:22.9260006;stroke-dasharray:none;stroke-opacity:1"
         d="m 3121.26,119.492 h 878.75" /><path
         id="path142"
         style="fill:none;stroke:#000000;stroke-width:8.93999958;stroke-linecap:round;stroke-linejoin:round;stroke-miterlimit:22.9260006;stroke-dasharray:none;stroke-opacity:1"
         d="m 3121.26,667.676 h 878.75" /><path
         id="path144"
         style="fill:none;stroke:#384d71;stroke-width:10.52000046;stroke-linecap:round;stroke-linejoin:round;stroke-miterlimit:10;stroke-dasharray:none;stroke-opacity:1"
         d="m 3212.75,1597.79 v 295.04 m 166.61,-312.7 v -142.62 m -51.75,31.75 c 0,-8.03 6.52,-14.54 14.54,-14.54 8.03,0 14.55,6.51 14.55,14.54 0,8.03 -6.52,14.54 -14.55,14.54 -8.02,0 -14.54,-6.51 -14.54,-14.54 z m 0,79.12 c 0,-8.03 6.52,-14.54 14.54,-14.54 8.03,0 14.55,6.51 14.55,14.54 0,8.03 -6.52,14.54 -14.55,14.54 -8.02,0 -14.54,-6.51 -14.54,-14.54 z m -72.59,-79.12 c 0,-8.03 6.5,-14.54 14.53,-14.54 8.02,0 14.54,6.51 14.54,14.54 0,8.03 -6.52,14.54 -14.54,14.54 -8.03,0 -14.53,-6.51 -14.53,-14.54 z m 0,79.12 c 0,-8.03 6.5,-14.54 14.53,-14.54 8.02,0 14.54,6.51 14.54,14.54 0,8.03 -6.52,14.54 -14.54,14.54 -8.03,0 -14.53,-6.51 -14.53,-14.54 z m -24.59,-110.87 h 170.38 v 142.62 h -170.38 z m 145.13,-369.79 v -70.665 m -124.93,70.665 v -70.665 m 17.84,70.665 v -70.665 m 17.84,70.665 v -70.665 m 17.85,70.665 v -70.665 m 17.86,70.665 v -70.665 m 17.84,70.665 v -70.665 m 17.85,70.665 v -70.665 m -2.33,169.805 v -17.67 m -13.88,8.83 h 47.21 m -163.32,50.48 v -100.96 c 0,-10.11 8.25,-18.36 18.36,-18.36 h 126.61 c 10.1,0 18.35,8.25 18.35,18.36 v 100.96 c 0,10.1 -8.25,18.37 -18.35,18.37 h -126.61 c -10.11,0 -18.36,-8.27 -18.36,-18.37 z m -12.64,211.35 h 205.72 m -205.72,-174.16 h 205.72 m 0,352.1 H 3212.75 V 971.813 h 205.72" /></g></g></svg>