<?xml version="1.0" encoding="UTF-8" standalone="no"?>
<svg
   xmlns:dc="http://purl.org/dc/elements/1.1/"
   xmlns:cc="http://creativecommons.org/ns#"
   xmlns:rdf="http://www.w3.org/1999/02/22-rdf-syntax-ns#"
   xmlns:svg="http://www.w3.org/2000/svg"
   xmlns="http://www.w3.org/2000/svg"
   viewBox="0 0 501.26251 354.29999"
   height="354.29999"
   width="501.26251"
   xml:space="preserve"
   id="svg2"
   version="1.1"><metadata
     id="metadata8"><rdf:RDF><cc:Work
         rdf:about=""><dc:format>image/svg+xml</dc:format><dc:type
           rdf:resource="http://purl.org/dc/dcmitype/StillImage" /></cc:Work></rdf:RDF></metadata><defs
     id="defs6" /><g
     transform="matrix(1.25,0,0,-1.25,0,354.3)"
     id="g10"><g
       transform="scale(0.1)"
       id="g12"><path
         id="path14"
         style="fill:none;stroke:#384d71;stroke-width:10.93999958;stroke-linecap:round;stroke-linejoin:round;stroke-miterlimit:10;stroke-dasharray:none;stroke-opacity:1"
         d="m 716.109,1996.63 v 16.47 m 0,35.41 v -16.47 m 25.95,-9.47 h -16.481 m -35.41,0 h 16.48 m 25.008,0 c 0,-8.59 -6.957,-15.54 -15.547,-15.54 -8.582,0 -15.543,6.95 -15.543,15.54 0,8.57 6.961,15.55 15.543,15.55 8.59,0 15.547,-6.98 15.547,-15.55 z m -65.617,-64.94 h 298.93 c 35.501,0 64.281,28.78 64.281,64.28 0,35.5 -28.78,64.29 -64.281,64.29 h -298.93 c -6.769,0 -12.301,-5.54 -12.301,-12.31 v -103.96 c 0,-6.77 5.532,-12.3 12.301,-12.3 z m -25.199,-32.97 h 384.41 c 53.69,0 97.24,43.55 97.24,97.25 0,53.7 -43.55,97.23 -97.24,97.23 H 640.84 c -10.25,0 -18.613,-8.34 -18.613,-18.59 v -157.27 c 0,-10.25 8.363,-18.62 18.613,-18.62 z m 497.4,-18.95 H 605.168 v 232.4 h 533.072 z" /><path
         id="path16"
         style="fill:none;stroke:#384d71;stroke-width:10.93999958;stroke-linecap:round;stroke-linejoin:round;stroke-miterlimit:10;stroke-dasharray:none;stroke-opacity:1"
         d="m 666.223,2379.1 c 31.539,0 50.687,7.89 72.129,7.89 33.5,0 83.461,-22.61 83.461,-63.04 0,-40.43 -49.961,-63.03 -83.461,-63.03 -21.442,0 -40.59,7.89 -72.129,7.89 m 128.429,80.67 c -21.961,-9.42 -21.961,-41.63 0,-51.05 m -126.461,53.09 c 51.399,29.14 137.872,18.89 137.872,-27.57 0,-46.47 -86.473,-56.71 -137.872,-27.56 m -23.98,27.56 c 0,-4.16 -3.379,-7.53 -7.539,-7.53 -4.152,0 -7.52,3.37 -7.52,7.53 0,4.16 3.368,7.52 7.52,7.52 4.16,0 7.539,-3.36 7.539,-7.52 z m 23.98,46.29 v -92.59 c 0,-8.65 -7.089,-15.75 -15.75,-15.75 h -31.519 c -8.672,0 -15.75,7.1 -15.75,15.75 v 92.59 c 0,8.66 7.078,15.76 15.75,15.76 h 31.519 c 8.661,0 15.75,-7.1 15.75,-15.76 z" /><path
         id="path18"
         style="fill:none;stroke:#384d71;stroke-width:10.93999958;stroke-linecap:round;stroke-linejoin:round;stroke-miterlimit:10;stroke-dasharray:none;stroke-opacity:1"
         d="m 620.945,1824.29 v 12.73 m 6.371,-6.37 h -12.73 m 45.16,-0.01 c 0,-2.59 -2.098,-4.69 -4.687,-4.69 -2.602,0 -4.692,2.1 -4.692,4.69 0,2.6 2.09,4.69 4.692,4.69 2.589,0 4.687,-2.09 4.687,-4.69 z m -21.758,46.21 v -92.4 h 19.321 c 25.148,0 32.129,25.33 32.129,46.2 0,20.87 -6.981,46.2 -32.129,46.2 z m 66.957,-46.2 c 0,48.33 -27.66,61.72 -47.636,61.72 h -52.141 v -123.43 h 52.141 c 19.976,0 47.636,13.39 47.636,61.71 z" /><path
         id="path20"
         style="fill:none;stroke:#384d71;stroke-width:10.93999958;stroke-linecap:round;stroke-linejoin:round;stroke-miterlimit:10;stroke-dasharray:none;stroke-opacity:1"
         d="m 630.359,832.578 v 148.379 m 53.832,-33.027 c 0,8.347 -6.781,15.117 -15.128,15.117 -8.352,0 -15.133,-6.77 -15.133,-15.117 0,-8.364 6.781,-15.141 15.133,-15.141 8.347,0 15.128,6.777 15.128,15.141 z m 0,-82.321 c 0,8.36 -6.781,15.129 -15.128,15.129 -8.352,0 -15.133,-6.769 -15.133,-15.129 0,-8.339 6.781,-15.121 15.133,-15.121 8.347,0 15.128,6.782 15.128,15.121 z m 75.532,82.321 c 0,8.347 -6.782,15.117 -15.133,15.117 -8.348,0 -15.117,-6.77 -15.117,-15.117 0,-8.364 6.769,-15.141 15.117,-15.141 8.351,0 15.133,6.777 15.133,15.141 z m 0,-82.321 c 0,8.36 -6.782,15.129 -15.133,15.129 -8.348,0 -15.117,-6.769 -15.117,-15.129 0,-8.339 6.769,-15.121 15.117,-15.121 8.351,0 15.133,6.782 15.133,15.121 z m 25.578,115.348 H 608.051 V 832.578 h 177.25 z M 634.313,1483.27 v 73.52 m 129.976,-73.52 v 73.52 m -18.566,-73.51 v 73.51 m -18.571,-73.51 v 73.51 m -18.57,-73.51 v 73.51 m -18.57,-73.51 v 73.51 m -18.571,-73.51 v 73.51 m -18.57,-73.51 v 73.51 m 2.442,-176.64 v 18.36 m 14.429,-9.17 h -49.109 m 169.918,-52.53 v 105.04 c 0,10.51 -8.602,19.1 -19.11,19.1 H 639.73 c -10.507,0 -19.097,-8.59 -19.097,-19.1 v -105.04 c 0,-10.51 8.59,-19.11 19.097,-19.11 h 131.711 c 10.508,0 19.11,8.6 19.11,19.11 z m 13.14,-337.47 H 589.66 m 214.031,298.79 H 589.66 m 0,-483.923 H 803.691 V 1583.05 H 589.66" /><path
         id="path22"
         style="fill:#384c71;fill-opacity:1;fill-rule:evenodd;stroke:none"
         d="m 1171.17,2391.77 h 36.66 v 115.21 h 159.53 v 89.26 H 500.391 V 5.48047 H 589.66 V 432.473 h 378.883 v 89.269 H 589.66 V 1583.05 h 655.84 v 36.66 H 589.66 v 516.04 h 581.51 v -293.48 h 36.66 v 330.14 H 589.66 v 334.57 h 581.51 z M 1967.81,521.742 v -89.269 h -487.46 v 89.269 h 99.72 V 1583.05 h -53.18 v 36.66 h 53.18 v 142.8 l 73.11,73.12 25.92,-25.93 -62.37,-62.37 V 521.742 Z m 0,1628.518 v -51.85 l -0.67,-0.66 -25.92,25.92 z m 0,445.98 h -288.04 v -89.26 h 288.04 z m 0,-2074.498 h 288.04 v -89.269 h -288.04 z m 611.52,1675.038 v -36.66 h -549.81 l -61.71,-61.71 v 51.85 l 46.53,46.52 h 51.84 z m 0,632.11 h -375.08 v -232.65 h -236.44 v -89.26 h 325.71 v 232.65 h 285.81 z m 0,-668.77 v 36.66 H 2757.8 V 1111.1 h 459.65 v -89.26 H 2810.41 V 707.852 h -89.26 V 2160.12 Z M 4004.65,1111.11 V 2828.89 H 2579.33 v -89.26 h 141.82 v -261.45 h 36.65 v 261.45 H 3915.38 V 1111.11 l -232.63,-0.01 v -89.26 h 321.9" /><path
         id="path24"
         style="fill:none;stroke:#384c71;stroke-width:10.94999981;stroke-linecap:round;stroke-linejoin:round;stroke-miterlimit:22.9260006;stroke-dasharray:none;stroke-opacity:1"
         d="m 1171.17,2391.77 h 36.66 v 115.21 h 159.53 v 89.26 H 500.391 V 5.48047 H 589.66 V 432.473 h 378.883 v 89.269 H 589.66 V 1583.05 h 655.84 v 36.66 H 589.66 v 516.04 h 581.51 v -293.48 h 36.66 v 330.14 H 589.66 v 334.57 h 581.51 z m 445.56,-644.44 62.37,62.37 -25.92,25.93 -73.11,-73.12 v -142.8 h -53.18 v -36.66 h 53.18 V 521.742 h -99.72 v -89.269 h 775.5 v 89.269 h -639.12 z m 350.41,350.42 62.38,62.37 h 691.63 V 707.852 h 89.26 v 313.988 h 407.04 v 89.26 H 2757.8 v 1085.68 h -743.46 l -73.12,-73.11 z m 2037.51,-986.64 v 1717.78 h -1800.4 v -232.65 h -524.48 v -89.26 h 613.75 v 232.65 h 427.63 v -261.45 h 36.65 v 261.45 H 3915.38 V 1111.11 l -232.63,-0.01 v -89.26 h 321.9 z" /><path
         id="path26"
         style="fill:#ffffff;fill-opacity:1;fill-rule:evenodd;stroke:none"
         d="m 2255.86,458.77 v 36.66 h 491.59 v 212.422 h 36.66 V 458.77" /><path
         id="path28"
         style="fill:none;stroke:#384c71;stroke-width:10.94999981;stroke-linecap:round;stroke-linejoin:round;stroke-miterlimit:22.9260006;stroke-dasharray:none;stroke-opacity:1"
         d="m 2255.86,458.77 v 36.66 h 491.59 v 212.422 h 36.66 V 458.77 Z" /><path
         id="path30"
         style="fill:none;stroke:#927f7a;stroke-width:6.19999981;stroke-linecap:round;stroke-linejoin:round;stroke-miterlimit:22.9260006;stroke-dasharray:none;stroke-opacity:1"
         d="m 1624.39,432.473 h 36.66 V 221.93 l -10.75,-10.731 c -65,-65 -129.98,-129.9881 -194.98,-194.9763 L 1444.59,5.48047 H 589.656 V 42.1406 h 839.734 c 65,65.0004 130,129.9924 195,194.9924 z" /><path
         id="path32"
         style="fill:#ffffff;fill-opacity:1;fill-rule:nonzero;stroke:none"
         d="m 968.539,458.77 h 279.172 v 36.6602 H 968.539 Z" /><path
         id="path34"
         style="fill:none;stroke:#384c71;stroke-width:10.94999981;stroke-linecap:round;stroke-linejoin:round;stroke-miterlimit:22.9260006;stroke-dasharray:none;stroke-opacity:1"
         d="m 968.539,458.77 h 279.172 v 36.6602 H 968.539 Z" /><path
         id="path36"
         style="fill:none;stroke:#384c71;stroke-width:21.89999962;stroke-linecap:round;stroke-linejoin:round;stroke-miterlimit:22.9260006;stroke-dasharray:none;stroke-opacity:1"
         d="m 2581.56,2440.52 139.59,-243.73" /><path
         id="path38"
         style="fill:none;stroke:#384c71;stroke-width:21.89999962;stroke-linecap:round;stroke-linejoin:round;stroke-miterlimit:22.9260006;stroke-dasharray:none;stroke-opacity:1"
         d="m 1967.14,2097.75 -32.57,-138.04" /><path
         id="path40"
         style="fill:none;stroke:#384c71;stroke-width:21.89999962;stroke-linecap:round;stroke-linejoin:round;stroke-miterlimit:22.9260006;stroke-dasharray:none;stroke-opacity:1"
         d="M 1930.14,1886.6 1679.1,1809.71" /><path
         id="path42"
         style="fill:none;stroke:#384c71;stroke-width:21.89999962;stroke-linecap:round;stroke-linejoin:round;stroke-miterlimit:22.9260006;stroke-dasharray:none;stroke-opacity:1"
         d="m 1679.77,2596.25 -270.31,157.32" /><path
         id="path44"
         style="fill:none;stroke:#384c71;stroke-width:21.89999962;stroke-linecap:round;stroke-linejoin:round;stroke-miterlimit:22.9260006;stroke-dasharray:none;stroke-opacity:1"
         d="M 1170.17,2172.42 1061.6,2362.97" /><path
         id="path46"
         style="fill:none;stroke:#384c71;stroke-width:21.89999962;stroke-linecap:round;stroke-linejoin:round;stroke-miterlimit:22.9260006;stroke-dasharray:none;stroke-opacity:1"
         d="M 1176.81,1622.93 1061.6,1813.48" /><path
         id="path48"
         style="fill:none;stroke:#384c71;stroke-width:21.89999962;stroke-linecap:round;stroke-linejoin:round;stroke-miterlimit:22.9260006;stroke-dasharray:none;stroke-opacity:1"
         d="m 1283.17,1441.24 243.72,141.8" /><path
         id="path50"
         style="fill:none;stroke:#384c71;stroke-width:21.89999962;stroke-linecap:round;stroke-linejoin:round;stroke-miterlimit:22.9260006;stroke-dasharray:none;stroke-opacity:1"
         d="M 1278.73,639.172 1480.36,521.738" /><path
         id="path52"
         style="fill:none;stroke:#384d71;stroke-width:10.93999958;stroke-linecap:round;stroke-linejoin:round;stroke-miterlimit:10;stroke-dasharray:none;stroke-opacity:1"
         d="m 1344.38,220.574 c 68.32,0 124.05,55.731 124.05,124.063 0,68.328 -55.73,124.07 -124.05,124.07 -68.33,0 -124.06,-55.742 -124.06,-124.07 0,-68.332 55.73,-124.063 124.06,-124.063 z" /><g
         transform="scale(10)"
         id="g54"><text
           id="text58"
           style="font-variant:normal;font-weight:bold;font-size:17.00830078px;font-family:Roboto;-inkscape-font-specification:Roboto-Bold;writing-mode:lr-tb;fill:#000000;fill-opacity:1;fill-rule:nonzero;stroke:none"
           transform="matrix(1,0,0,-1,129.895,28.3313)"><tspan
             id="tspan56"
             y="0"
             x="0">9</tspan></text>
<text
           id="text62"
           style="font-variant:normal;font-weight:normal;font-size:11.63860035px;font-family:Roboto;-inkscape-font-specification:Roboto-Regular;writing-mode:lr-tb;fill:#000000;fill-opacity:1;fill-rule:nonzero;stroke:none"
           transform="matrix(1,0,0,-1,123.30555,8.6239)"><tspan
             id="tspan60"
             y="0"
             x="0 6.5525317 9.6716766 16.224209">3.30</tspan></text>
</g><path
         id="path64"
         style="fill:none;stroke:#384d71;stroke-width:10.93999958;stroke-linecap:round;stroke-linejoin:round;stroke-miterlimit:10;stroke-dasharray:none;stroke-opacity:1"
         d="m 1150.05,967.844 c 68.33,0 124.06,55.726 124.06,124.046 0,68.34 -55.73,124.07 -124.06,124.07 -68.33,0 -124.07,-55.73 -124.07,-124.07 0,-68.32 55.74,-124.046 124.07,-124.046 z" /><g
         transform="scale(10)"
         id="g66"><text
           id="text70"
           style="font-variant:normal;font-weight:bold;font-size:17.00830078px;font-family:Roboto;-inkscape-font-specification:Roboto-Bold;writing-mode:lr-tb;fill:#000000;fill-opacity:1;fill-rule:nonzero;stroke:none"
           transform="matrix(1,0,0,-1,110.462,103.057)"><tspan
             id="tspan68"
             y="0"
             x="0">4</tspan></text>
<text
           id="text74"
           style="font-variant:normal;font-weight:normal;font-size:11.63860035px;font-family:Roboto;-inkscape-font-specification:Roboto-Regular;writing-mode:lr-tb;fill:#000000;fill-opacity:1;fill-rule:nonzero;stroke:none"
           transform="matrix(1,0,0,-1,103.87255,83.35)"><tspan
             id="tspan72"
             y="0"
             x="0 6.5525317 9.6716766 16.224209">9.50</tspan></text>
</g><path
         id="path76"
         style="fill:none;stroke:#384d71;stroke-width:10.93999958;stroke-linecap:round;stroke-linejoin:round;stroke-miterlimit:10;stroke-dasharray:none;stroke-opacity:1"
         d="m 135.039,1885.38 c 68.328,0 124.059,55.73 124.059,124.07 0,68.33 -55.731,124.06 -124.059,124.06 -68.3281,0 -124.0702,-55.73 -124.0702,-124.06 0,-68.34 55.7421,-124.07 124.0702,-124.07 z" /><g
         transform="scale(10)"
         id="g78"><text
           id="text82"
           style="font-variant:normal;font-weight:bold;font-size:17.00830078px;font-family:Roboto;-inkscape-font-specification:Roboto-Bold;writing-mode:lr-tb;fill:#000000;fill-opacity:1;fill-rule:nonzero;stroke:none"
           transform="matrix(1,0,0,-1,8.96172,194.811)"><tspan
             id="tspan80"
             y="0"
             x="0">5</tspan></text>
<text
           id="text86"
           style="font-variant:normal;font-weight:normal;font-size:11.63860035px;font-family:Roboto;-inkscape-font-specification:Roboto-Regular;writing-mode:lr-tb;fill:#000000;fill-opacity:1;fill-rule:nonzero;stroke:none"
           transform="matrix(1,0,0,-1,2.37109,175.104)"><tspan
             id="tspan84"
             y="0"
             x="0 6.5525317 9.6716766 16.224209">3.00</tspan></text>
</g><path
         id="path88"
         style="fill:none;stroke:#384d71;stroke-width:10.93999958;stroke-linecap:round;stroke-linejoin:round;stroke-miterlimit:10;stroke-dasharray:none;stroke-opacity:1"
         d="m 135.039,2420.82 c 68.328,0 124.059,55.73 124.059,124.07 0,68.34 -55.731,124.06 -124.059,124.06 -68.3281,0 -124.0702,-55.72 -124.0702,-124.06 0,-68.34 55.7421,-124.07 124.0702,-124.07 z" /><g
         transform="scale(10)"
         id="g90"><text
           id="text94"
           style="font-variant:normal;font-weight:bold;font-size:17.00830078px;font-family:Roboto;-inkscape-font-specification:Roboto-Bold;writing-mode:lr-tb;fill:#000000;fill-opacity:1;fill-rule:nonzero;stroke:none"
           transform="matrix(1,0,0,-1,8.96172,248.355)"><tspan
             id="tspan92"
             y="0"
             x="0">6</tspan></text>
<text
           id="text98"
           style="font-variant:normal;font-weight:normal;font-size:11.63860035px;font-family:Roboto;-inkscape-font-specification:Roboto-Regular;writing-mode:lr-tb;fill:#000000;fill-opacity:1;fill-rule:nonzero;stroke:none"
           transform="matrix(1,0,0,-1,2.37109,228.6491)"><tspan
             id="tspan96"
             y="0"
             x="0 6.5525317 9.6716766 16.224209">1.60</tspan></text>
</g><path
         id="path100"
         style="fill:none;stroke:#384d71;stroke-width:10.93999958;stroke-linecap:round;stroke-linejoin:round;stroke-miterlimit:10;stroke-dasharray:none;stroke-opacity:1"
         d="m 1590.12,2088.96 c 68.33,0 124.07,55.74 124.07,124.08 0,68.32 -55.74,124.05 -124.07,124.05 -68.33,0 -124.06,-55.73 -124.06,-124.05 0,-68.34 55.73,-124.08 124.06,-124.08 z" /><g
         transform="scale(10)"
         id="g102"><text
           id="text106"
           style="font-variant:normal;font-weight:bold;font-size:17.00830078px;font-family:Roboto;-inkscape-font-specification:Roboto-Bold;writing-mode:lr-tb;fill:#000000;fill-opacity:1;fill-rule:nonzero;stroke:none"
           transform="matrix(1,0,0,-1,154.47,215.17)"><tspan
             id="tspan104"
             y="0"
             x="0">1</tspan></text>
<text
           id="text110"
           style="font-variant:normal;font-weight:normal;font-size:11.63860035px;font-family:Roboto;-inkscape-font-specification:Roboto-Regular;writing-mode:lr-tb;fill:#000000;fill-opacity:1;fill-rule:nonzero;stroke:none"
           transform="matrix(1,0,0,-1,147.88055,195.4634)"><tspan
             id="tspan108"
             y="0"
             x="0 6.5525317 9.6716766 16.224209">9.00</tspan></text>
</g><path
         id="path112"
         style="fill:none;stroke:#384d71;stroke-width:10.93999958;stroke-linecap:round;stroke-linejoin:round;stroke-miterlimit:10;stroke-dasharray:none;stroke-opacity:1"
         d="m 2175.86,1342.56 c 68.32,0 124.05,55.72 124.05,124.06 0,68.33 -55.73,124.06 -124.05,124.06 -68.34,0 -124.07,-55.73 -124.07,-124.06 0,-68.34 55.73,-124.06 124.07,-124.06 z" /><g
         transform="scale(10)"
         id="g114"><text
           id="text118"
           style="font-variant:normal;font-weight:bold;font-size:17.00830078px;font-family:Roboto;-inkscape-font-specification:Roboto-Bold;writing-mode:lr-tb;fill:#000000;fill-opacity:1;fill-rule:nonzero;stroke:none"
           transform="matrix(1,0,0,-1,213.045,140.528)"><tspan
             id="tspan116"
             y="0"
             x="0">2</tspan></text>
<text
           id="text122"
           style="font-variant:normal;font-weight:normal;font-size:11.63860035px;font-family:Roboto;-inkscape-font-specification:Roboto-Regular;writing-mode:lr-tb;fill:#000000;fill-opacity:1;fill-rule:nonzero;stroke:none"
           transform="matrix(1,0,0,-1,203.17781,120.8214)"><tspan
             id="tspan120"
             y="0"
             x="0 6.5525317 13.105063 16.218349 22.770882">18.60</tspan></text>
</g><path
         id="path124"
         style="fill:none;stroke:#384d71;stroke-width:10.93999958;stroke-linecap:round;stroke-linejoin:round;stroke-miterlimit:10;stroke-dasharray:none;stroke-opacity:1"
         d="m 3361.43,1951.21 c 68.32,0 124.05,55.72 124.05,124.06 0,68.33 -55.73,124.06 -124.05,124.06 -68.35,0 -124.08,-55.73 -124.08,-124.06 0,-68.34 55.73,-124.06 124.08,-124.06 z" /><g
         transform="scale(10)"
         id="g126"><text
           id="text130"
           style="font-variant:normal;font-weight:bold;font-size:17.00830078px;font-family:Roboto;-inkscape-font-specification:Roboto-Bold;writing-mode:lr-tb;fill:#000000;fill-opacity:1;fill-rule:nonzero;stroke:none"
           transform="matrix(1,0,0,-1,331.601,201.394)"><tspan
             id="tspan128"
             y="0"
             x="0">3</tspan></text>
<text
           id="text134"
           style="font-variant:normal;font-weight:normal;font-size:11.63860035px;font-family:Roboto;-inkscape-font-specification:Roboto-Regular;writing-mode:lr-tb;fill:#000000;fill-opacity:1;fill-rule:nonzero;stroke:none"
           transform="matrix(1,0,0,-1,321.73381,181.6866)"><tspan
             id="tspan132"
             y="0"
             x="0 6.5525317 13.105063 16.218349 22.770882">19.49</tspan></text>
</g><path
         id="path136"
         style="fill:none;stroke:#000000;stroke-width:9.30000019;stroke-linecap:round;stroke-linejoin:round;stroke-miterlimit:22.9260006;stroke-dasharray:none;stroke-opacity:1"
         d="M 4.65234,2224.13 H 951.563" /><path
         id="path138"
         style="fill:none;stroke:#000000;stroke-width:9.30000019;stroke-linecap:round;stroke-linejoin:round;stroke-miterlimit:22.9260006;stroke-dasharray:none;stroke-opacity:1"
         d="M 4.65234,1698.77 H 951.563" /></g></g></svg>