<?xml version="1.0" encoding="UTF-8" standalone="no"?>
<svg
   xmlns:dc="http://purl.org/dc/elements/1.1/"
   xmlns:cc="http://creativecommons.org/ns#"
   xmlns:rdf="http://www.w3.org/1999/02/22-rdf-syntax-ns#"
   xmlns:svg="http://www.w3.org/2000/svg"
   xmlns="http://www.w3.org/2000/svg"
   viewBox="0 0 501.36249 277.52499"
   height="277.52499"
   width="501.36249"
   xml:space="preserve"
   id="svg2"
   version="1.1"><metadata
     id="metadata8"><rdf:RDF><cc:Work
         rdf:about=""><dc:format>image/svg+xml</dc:format><dc:type
           rdf:resource="http://purl.org/dc/dcmitype/StillImage" /></cc:Work></rdf:RDF></metadata><defs
     id="defs6" /><g
     transform="matrix(1.25,0,0,-1.25,0,277.525)"
     id="g10"><g
       transform="scale(0.1)"
       id="g12"><path
         id="path14"
         style="fill:none;stroke:#384d71;stroke-width:10.93000031;stroke-linecap:round;stroke-linejoin:round;stroke-miterlimit:10;stroke-dasharray:none;stroke-opacity:1"
         d="m 3181.68,1660.9 v 306.68 m 173.17,-325.04 v -148.25 m -53.79,33.01 c 0,-8.35 6.77,-15.12 15.12,-15.12 8.35,0 15.12,6.77 15.12,15.12 0,8.34 -6.77,15.11 -15.12,15.11 -8.35,0 -15.12,-6.77 -15.12,-15.11 z m 0,82.24 c 0,-8.35 6.77,-15.11 15.12,-15.11 8.35,0 15.12,6.76 15.12,15.11 0,8.35 -6.77,15.11 -15.12,15.11 -8.35,0 -15.12,-6.76 -15.12,-15.11 z m -75.45,-82.24 c 0,-8.35 6.76,-15.12 15.11,-15.12 8.35,0 15.12,6.77 15.12,15.12 0,8.34 -6.77,15.11 -15.12,15.11 -8.35,0 -15.11,-6.77 -15.11,-15.11 z m 0,82.24 c 0,-8.35 6.76,-15.11 15.11,-15.11 8.35,0 15.12,6.76 15.12,15.11 0,8.35 -6.77,15.11 -15.12,15.11 -8.35,0 -15.11,-6.76 -15.11,-15.11 z m -25.57,-115.25 h 177.1 v 148.25 h -177.1 z m 150.88,-384.4 v -73.44 m -129.88,73.44 v -73.44 m 18.55,73.44 v -73.46 m 18.55,73.46 v -73.46 m 18.56,73.46 v -73.46 m 18.55,73.46 v -73.46 m 18.56,73.46 v -73.46 m 18.55,73.46 v -73.46 m -2.43,176.52 v -18.37 m -14.42,9.18 h 49.07 m -169.78,52.48 v -104.95 c 0,-10.5 8.6,-19.09 19.09,-19.09 h 131.61 c 10.49,0 19.09,8.59 19.09,19.09 v 104.95 c 0,10.5 -8.6,19.1 -19.09,19.1 h -131.61 c -10.49,0 -19.09,-8.6 -19.09,-19.1 z m -13.12,219.69 h 213.85 m -213.85,-181.05 h 213.85 m 0,366.02 h -213.85 v -650.7 h 213.85" /><path
         id="path16"
         style="fill:none;stroke:#384d71;stroke-width:10.93000031;stroke-linecap:round;stroke-linejoin:round;stroke-miterlimit:10;stroke-dasharray:none;stroke-opacity:1"
         d="m 3269.17,867.109 v -16.461 m 0,-35.39 v 16.472 m -25.91,9.458 h 16.47 m 35.37,0 h -16.47 m -24.99,0 c 0,8.582 6.96,15.542 15.53,15.542 8.57,0 15.54,-6.96 15.54,-15.542 0,-8.579 -6.97,-15.54 -15.54,-15.54 -8.57,0 -15.53,6.961 -15.53,15.54 z m 65.57,64.89 h -298.68 c -35.47,0 -64.23,-28.758 -64.23,-64.23 0,-35.469 28.76,-64.239 64.23,-64.239 h 298.68 c 6.78,0 12.28,5.532 12.28,12.301 v 103.867 c 0,6.774 -5.5,12.301 -12.28,12.301 z M 3344.38,939 h -384.09 c -53.64,0 -97.16,-43.5 -97.16,-97.152 0,-53.66 43.52,-97.168 97.16,-97.168 h 384.09 c 10.26,0 18.61,8.359 18.61,18.59 v 157.148 c 0,10.23 -8.35,18.582 -18.61,18.582 z m -496.99,18.949 h 532.64 V 725.73 h -532.64 z" /><path
         id="path18"
         style="fill:none;stroke:#384d71;stroke-width:10.93000031;stroke-linecap:round;stroke-linejoin:round;stroke-miterlimit:10;stroke-dasharray:none;stroke-opacity:1"
         d="m 3319.02,199.465 c -31.52,0 -50.64,-7.883 -72.07,-7.883 -33.46,0 -83.41,22.582 -83.41,62.981 0,40.402 49.95,62.98 83.41,62.98 21.43,0 40.55,-7.871 72.07,-7.871 m -128.31,-80.629 c 21.92,9.43 21.92,41.609 0,51.031 m 126.35,-53.051 c -51.36,-29.121 -137.76,-18.878 -137.76,27.54 0,46.421 86.4,56.66 137.76,27.55 m 23.95,-27.55 c 0,4.16 3.37,7.519 7.54,7.519 4.14,0 7.51,-3.359 7.51,-7.519 0,-4.149 -3.37,-7.508 -7.51,-7.508 -4.17,0 -7.54,3.359 -7.54,7.508 z m -23.95,-46.25 v 92.5 c 0,8.66 7.08,15.75 15.73,15.75 h 31.49 c 8.67,0 15.75,-7.09 15.75,-15.75 v -92.5 c 0,-8.649 -7.08,-15.739 -15.75,-15.739 h -31.49 c -8.65,0 -15.73,7.09 -15.73,15.739 z" /><path
         id="path20"
         style="fill:none;stroke:#384d71;stroke-width:10.93000031;stroke-linecap:round;stroke-linejoin:round;stroke-miterlimit:10;stroke-dasharray:none;stroke-opacity:1"
         d="m 3364.27,607.559 v -12.711 m -6.37,6.351 h 12.72 m -45.13,0 c 0,2.602 2.1,4.692 4.7,4.692 2.59,0 4.68,-2.09 4.68,-4.692 0,-2.582 -2.09,-4.672 -4.68,-4.672 -2.6,0 -4.7,2.09 -4.7,4.672 z m 21.75,-46.16 v 92.328 h -19.32 c -25.12,0 -32.09,-25.316 -32.09,-46.168 0,-20.851 6.97,-46.16 32.09,-46.16 z m -66.91,46.16 c 0,-48.281 27.63,-61.66 47.59,-61.66 h 52.11 v 123.32 h -52.11 c -19.96,0 -47.59,-13.379 -47.59,-61.66 z" /><path
         id="path22"
         style="fill:#384d71;fill-opacity:1;fill-rule:evenodd;stroke:none"
         d="m 1937.46,94.668 h -773.5 v 104.039 h -36.64 V 94.668 H 94.6563 V 1504.89 H 687.977 v 89.19 H 94.6563 v 462.7 H 5.46484 V 5.46875 H 1937.46 Z m 0,466.262 v -42.563 l -36.28,-36.277 h -773.86 v 1022.8 H 920.426 v 89.19 h 154.334 v 462.7 h 286.92 l 115.57,115.57 63.07,-63.08 -141.69,-141.68 H 1163.96 V 518.719 H 1886 l 46.84,46.828 z m 0,1569.62 -21.28,-21.28 21.28,-21.27 z m 0,-1612.183 v 42.563 l 21.27,-21.282 z M 2136.7,5.46875 H 1937.46 V 94.668 h 199.24 z m 0,2051.31125 h -41.9 l -115.55,115.57 -41.79,-41.8 V 2088 l 120.41,-120.41 h 78.83 z M 2821.14,414.457 h 574.39 V 94.668 h -574.39 v 61.98 H 2784.5 V 94.668 H 2669.39 V 5.46875 h 815.32 V 2056.78 h -472.19 v -89.19 h 383.01 V 1010.2 H 2585.26 V 973.566 H 2784.5 V 714.547 h 36.64 v 259.019 h 574.39 V 451.098 h -574.39 v 42.07 h -36.64 v -117.34 h 36.64 z M 2136.7,94.668 h 220.53 V 5.46875 H 2136.7 Z m 410.92,1872.922 v 89.19 H 2136.7 v -89.19 h 130.76 V 900.188 l -47.82,-47.809 25.91,-25.902 58.56,58.531 V 1967.59" /><path
         id="path24"
         style="fill:none;stroke:#384d71;stroke-width:10.93000031;stroke-linecap:round;stroke-linejoin:round;stroke-miterlimit:10;stroke-dasharray:none;stroke-opacity:1"
         d="m 1901.17,482.09 57.56,57.558 -25.9,25.903 -46.84,-46.832 H 1163.95 V 1967.58 h 234.68 l 141.68,141.69 -63.07,63.07 -115.57,-115.56 h -286.91 v -462.7 H 920.434 v -89.19 H 1127.32 V 482.09 Z m 919.96,-67.629 h 574.4 V 94.6719 h -574.4 v 61.9761 h -36.64 V 94.6719 H 2669.38 V 5.46875 h 815.33 V 2056.78 h -472.19 v -89.2 h 383.01 V 1010.2 h -810.28 v -36.641 h 199.24 V 714.551 h 36.64 v 259.008 h 574.4 V 451.09 h -574.4 v 42.07 h -36.64 V 375.828 h 36.64 z M 94.6602,1594.08 v 462.7 H 5.47266 V 5.46875 H 2357.22 V 94.6719 H 1163.95 V 198.711 h -36.63 V 94.6719 H 94.6602 V 1504.89 H 687.973 v 89.19 z m 2452.9598,373.5 v 89.2 H 2094.8 l -115.56,115.56 -63.07,-63.07 141.69,-141.69 h 209.6 V 900.191 l -47.81,-47.812 25.9,-25.91 58.55,58.543 V 1967.58 Z" /><path
         id="path26"
         style="fill:none;stroke:#384d71;stroke-width:10.93000031;stroke-linecap:round;stroke-linejoin:round;stroke-miterlimit:10;stroke-dasharray:none;stroke-opacity:1"
         d="m 3881.52,873.035 c 68.27,0 123.95,55.692 123.95,123.961 0,68.284 -55.68,123.964 -123.95,123.964 -68.29,0 -123.97,-55.68 -123.97,-123.964 0,-68.269 55.68,-123.961 123.97,-123.961 z" /><g
         transform="scale(10)"
         id="g28"><text
           id="text32"
           style="font-variant:normal;font-weight:bold;font-size:16.99440002px;font-family:Roboto;-inkscape-font-specification:Roboto-Bold;writing-mode:lr-tb;fill:#000000;fill-opacity:1;fill-rule:nonzero;stroke:none"
           transform="matrix(1,0,0,-1,383.613,93.5723)"><tspan
             id="tspan30"
             y="0"
             x="0">5</tspan></text>
<text
           id="text36"
           style="font-variant:normal;font-weight:normal;font-size:11.62909985px;font-family:Roboto;-inkscape-font-specification:Roboto-Regular;writing-mode:lr-tb;fill:#000000;fill-opacity:1;fill-rule:nonzero;stroke:none"
           transform="matrix(1,0,0,-1,377.02863,73.8809)"><tspan
             id="tspan34"
             y="0"
             x="0 6.5471835 9.6637821 16.210966">3.10</tspan></text>
</g><path
         id="path38"
         style="fill:none;stroke:#384d71;stroke-width:10.93000031;stroke-linecap:round;stroke-linejoin:round;stroke-miterlimit:10;stroke-dasharray:none;stroke-opacity:1"
         d="m 3876.07,289.285 c 68.26,0 123.97,55.684 123.97,123.953 0,68.278 -55.71,123.957 -123.97,123.957 -68.28,0 -123.96,-55.679 -123.96,-123.957 0,-68.269 55.68,-123.953 123.96,-123.953 z" /><g
         transform="scale(10)"
         id="g40"><text
           id="text44"
           style="font-variant:normal;font-weight:bold;font-size:16.99440002px;font-family:Roboto;-inkscape-font-specification:Roboto-Bold;writing-mode:lr-tb;fill:#000000;fill-opacity:1;fill-rule:nonzero;stroke:none"
           transform="matrix(1,0,0,-1,383.069,35.1953)"><tspan
             id="tspan42"
             y="0"
             x="0">6</tspan></text>
<text
           id="text48"
           style="font-variant:normal;font-weight:normal;font-size:11.62909985px;font-family:Roboto;-inkscape-font-specification:Roboto-Regular;writing-mode:lr-tb;fill:#000000;fill-opacity:1;fill-rule:nonzero;stroke:none"
           transform="matrix(1,0,0,-1,376.48345,15.5058)"><tspan
             id="tspan46"
             y="0"
             x="0 6.5471835 9.6637821 16.210966">1.60</tspan></text>
</g><path
         id="path50"
         style="fill:none;stroke:#384d71;stroke-width:10.93000031;stroke-linecap:round;stroke-linejoin:round;stroke-miterlimit:10;stroke-dasharray:none;stroke-opacity:1"
         d="m 2867.77,1452.87 c 68.26,0 123.96,55.68 123.96,123.96 0,68.27 -55.7,123.96 -123.96,123.96 -68.29,0 -123.97,-55.69 -123.97,-123.96 0,-68.28 55.68,-123.96 123.97,-123.96 z" /><g
         transform="scale(10)"
         id="g52"><text
           id="text56"
           style="font-variant:normal;font-weight:bold;font-size:16.99440002px;font-family:Roboto;-inkscape-font-specification:Roboto-Bold;writing-mode:lr-tb;fill:#000000;fill-opacity:1;fill-rule:nonzero;stroke:none"
           transform="matrix(1,0,0,-1,282.238,151.554)"><tspan
             id="tspan54"
             y="0"
             x="0">4</tspan></text>
<text
           id="text60"
           style="font-variant:normal;font-weight:normal;font-size:11.62909985px;font-family:Roboto;-inkscape-font-specification:Roboto-Regular;writing-mode:lr-tb;fill:#000000;fill-opacity:1;fill-rule:nonzero;stroke:none"
           transform="matrix(1,0,0,-1,275.65363,131.8649)"><tspan
             id="tspan58"
             y="0"
             x="0 6.5471835 9.6578007 16.204985">9.60</tspan></text>
</g><path
         id="path62"
         style="fill:none;stroke:#384d71;stroke-width:10.93000031;stroke-linecap:round;stroke-linejoin:round;stroke-miterlimit:10;stroke-dasharray:none;stroke-opacity:1"
         d="m 2294.02,426.172 c 68.27,0 123.96,55.691 123.96,123.961 0,68.289 -55.69,123.969 -123.96,123.969 -68.27,0 -123.96,-55.68 -123.96,-123.969 0,-68.27 55.69,-123.961 123.96,-123.961 z" /><g
         transform="scale(10)"
         id="g64"><text
           id="text68"
           style="font-variant:normal;font-weight:bold;font-size:16.99440002px;font-family:Roboto;-inkscape-font-specification:Roboto-Bold;writing-mode:lr-tb;fill:#000000;fill-opacity:1;fill-rule:nonzero;stroke:none"
           transform="matrix(1,0,0,-1,224.863,48.8855)"><tspan
             id="tspan66"
             y="0"
             x="0">1</tspan></text>
<text
           id="text72"
           style="font-variant:normal;font-weight:normal;font-size:11.62909985px;font-family:Roboto;-inkscape-font-specification:Roboto-Regular;writing-mode:lr-tb;fill:#000000;fill-opacity:1;fill-rule:nonzero;stroke:none"
           transform="matrix(1,0,0,-1,218.28097,29.1953)"><tspan
             id="tspan70"
             y="0"
             x="0 6.5471835 9.6578007 16.204985">9.86</tspan></text>
</g><path
         id="path74"
         style="fill:none;stroke:#384d71;stroke-width:10.93000031;stroke-linecap:round;stroke-linejoin:round;stroke-miterlimit:10;stroke-dasharray:none;stroke-opacity:1"
         d="m 1737.54,1521.9 c 68.27,0 123.96,55.68 123.96,123.96 0,68.27 -55.69,123.96 -123.96,123.96 -68.28,0 -123.96,-55.69 -123.96,-123.96 0,-68.28 55.68,-123.96 123.96,-123.96 z" /><g
         transform="scale(10)"
         id="g76"><text
           id="text80"
           style="font-variant:normal;font-weight:bold;font-size:16.99440002px;font-family:Roboto;-inkscape-font-specification:Roboto-Bold;writing-mode:lr-tb;fill:#000000;fill-opacity:1;fill-rule:nonzero;stroke:none"
           transform="matrix(1,0,0,-1,169.215,158.457)"><tspan
             id="tspan78"
             y="0"
             x="0">2</tspan></text>
<text
           id="text84"
           style="font-variant:normal;font-weight:normal;font-size:11.62909985px;font-family:Roboto;-inkscape-font-specification:Roboto-Regular;writing-mode:lr-tb;fill:#000000;fill-opacity:1;fill-rule:nonzero;stroke:none"
           transform="matrix(1,0,0,-1,159.3568,138.7672)"><tspan
             id="tspan82"
             y="0"
             x="0 6.5471835 13.094367 16.205082 22.752264">16.80</tspan></text>
</g><path
         id="path86"
         style="fill:none;stroke:#384d71;stroke-width:10.93000031;stroke-linecap:round;stroke-linejoin:round;stroke-miterlimit:10;stroke-dasharray:none;stroke-opacity:1"
         d="m 537.961,675.242 c 68.269,0 123.957,55.684 123.957,123.961 0,68.281 -55.688,123.961 -123.957,123.961 C 469.68,923.164 414,867.484 414,799.203 414,730.926 469.68,675.242 537.961,675.242 Z" /><g
         transform="scale(10)"
         id="g88"><text
           id="text92"
           style="font-variant:normal;font-weight:bold;font-size:16.99440002px;font-family:Roboto;-inkscape-font-specification:Roboto-Bold;writing-mode:lr-tb;fill:#000000;fill-opacity:1;fill-rule:nonzero;stroke:none"
           transform="matrix(1,0,0,-1,49.2574,73.7922)"><tspan
             id="tspan90"
             y="0"
             x="0">3</tspan></text>
<text
           id="text96"
           style="font-variant:normal;font-weight:normal;font-size:11.62909985px;font-family:Roboto;-inkscape-font-specification:Roboto-Regular;writing-mode:lr-tb;fill:#000000;fill-opacity:1;fill-rule:nonzero;stroke:none"
           transform="matrix(1,0,0,-1,39.39881,54.1016)"><tspan
             id="tspan94"
             y="0"
             x="0 6.5471835 13.094367 16.205076 22.752258">15.20</tspan></text>
</g><path
         id="path98"
         style="fill:none;stroke:#384d71;stroke-width:10.93000031;stroke-linecap:round;stroke-linejoin:round;stroke-miterlimit:10;stroke-dasharray:none;stroke-opacity:1"
         d="m 589.566,1751.28 c 68.278,0 123.957,55.69 123.957,123.96 0,68.28 -55.679,123.96 -123.957,123.96 -68.281,0 -123.961,-55.68 -123.961,-123.96 0,-68.27 55.68,-123.96 123.961,-123.96 z" /><g
         transform="scale(10)"
         id="g100"><text
           id="text104"
           style="font-variant:normal;font-weight:bold;font-size:16.99440002px;font-family:Roboto;-inkscape-font-specification:Roboto-Bold;writing-mode:lr-tb;fill:#000000;fill-opacity:1;fill-rule:nonzero;stroke:none"
           transform="matrix(1,0,0,-1,54.4176,181.396)"><tspan
             id="tspan102"
             y="0"
             x="0">8</tspan></text>
<text
           id="text108"
           style="font-variant:normal;font-weight:normal;font-size:11.62909985px;font-family:Roboto;-inkscape-font-specification:Roboto-Regular;writing-mode:lr-tb;fill:#000000;fill-opacity:1;fill-rule:nonzero;stroke:none"
           transform="matrix(1,0,0,-1,47.83362,161.705)"><tspan
             id="tspan106"
             y="0"
             x="0 6.5471835 9.6637821 16.210966">3.96</tspan></text>
</g><path
         id="path110"
         style="fill:#ffffff;fill-opacity:1;fill-rule:evenodd;stroke:none"
         d="m 1960.66,2153.76 -60.97,60.97 H 1556.8 l -60.97,-60.97 25.89,-25.9 50.25,50.24 h 312.54 l 50.25,-50.24" /><path
         id="path112"
         style="fill:none;stroke:#384d71;stroke-width:10.93000031;stroke-linecap:round;stroke-linejoin:round;stroke-miterlimit:10;stroke-dasharray:none;stroke-opacity:1"
         d="m 1960.66,2153.76 -60.97,60.97 H 1556.8 l -60.97,-60.97 25.89,-25.9 50.25,50.24 h 312.54 l 50.25,-50.24 z" /><path
         id="path114"
         style="fill:none;stroke:#384c71;stroke-width:21.87999916;stroke-linecap:round;stroke-linejoin:round;stroke-miterlimit:22.9260006;stroke-dasharray:none;stroke-opacity:1"
         d="M 920.43,1504.89 718.969,1387.56" /><path
         id="path116"
         style="fill:none;stroke:#384c71;stroke-width:21.87999916;stroke-linecap:round;stroke-linejoin:round;stroke-miterlimit:22.9260006;stroke-dasharray:none;stroke-opacity:1"
         d="M 1163.95,482.09 1305.64,236.352" /><path
         id="path118"
         style="fill:none;stroke:#384c71;stroke-width:21.87999916;stroke-linecap:round;stroke-linejoin:round;stroke-miterlimit:22.9260006;stroke-dasharray:none;stroke-opacity:1"
         d="m 1932.83,565.547 76.82,248.621" /><path
         id="path120"
         style="fill:none;stroke:#384c71;stroke-width:21.87999916;stroke-linecap:round;stroke-linejoin:round;stroke-miterlimit:22.9260006;stroke-dasharray:none;stroke-opacity:1"
         d="m 2080.49,820.813 139.16,31.57" /><path
         id="path122"
         style="fill:none;stroke:#384c71;stroke-width:21.87999916;stroke-linecap:round;stroke-linejoin:round;stroke-miterlimit:22.9260006;stroke-dasharray:none;stroke-opacity:1"
         d="m 2357.23,94.668 270.09,154.961" /><path
         id="path124"
         style="fill:none;stroke:#384c71;stroke-width:21.87999916;stroke-linecap:round;stroke-linejoin:round;stroke-miterlimit:22.9260006;stroke-dasharray:none;stroke-opacity:1"
         d="M 2822.14,375.828 2930.62,185.43" /><path
         id="path126"
         style="fill:none;stroke:#384c71;stroke-width:21.87999916;stroke-linecap:round;stroke-linejoin:round;stroke-miterlimit:22.9260006;stroke-dasharray:none;stroke-opacity:1"
         d="M 2784.49,714.551 2673.8,524.152" /><path
         id="path128"
         style="fill:none;stroke:#384c71;stroke-width:21.87999916;stroke-linecap:round;stroke-linejoin:round;stroke-miterlimit:22.9260006;stroke-dasharray:none;stroke-opacity:1"
         d="M 2547.62,1139.59 2304.1,997.926" /><path
         id="path130"
         style="fill:#ffffff;fill-opacity:1;fill-rule:nonzero;stroke:none"
         d="m 2547.62,1993.86 h 464.898 v 36.6406 H 2547.62 Z" /><path
         id="path132"
         style="fill:none;stroke:#384c71;stroke-width:10.93999958;stroke-linecap:round;stroke-linejoin:round;stroke-miterlimit:22.9260006;stroke-dasharray:none;stroke-opacity:1"
         d="m 2547.62,1993.86 h 464.898 v 36.6406 H 2547.62 Z" /><path
         id="path134"
         style="fill:none;stroke:#000000;stroke-width:9.30000019;stroke-linecap:round;stroke-linejoin:round;stroke-miterlimit:22.9260006;stroke-dasharray:none;stroke-opacity:1"
         d="m 3086.57,124.219 h 913.46" /><path
         id="path136"
         style="fill:none;stroke:#000000;stroke-width:9.30000019;stroke-linecap:round;stroke-linejoin:round;stroke-miterlimit:22.9260006;stroke-dasharray:none;stroke-opacity:1"
         d="m 3086.57,694.043 h 913.46" /><path
         id="path138"
         style="fill:#ffffff;fill-opacity:1;fill-rule:evenodd;stroke:none"
         d="m 94.6602,2020.15 h 980.102 v 36.6328 H 94.6602 Z" /><path
         id="path140"
         style="fill:none;stroke:#384c71;stroke-width:10.93999958;stroke-linecap:round;stroke-linejoin:round;stroke-miterlimit:22.9260006;stroke-dasharray:none;stroke-opacity:1"
         d="m 94.6602,2020.15 h 980.102 v 36.6328 H 94.6602 Z" /></g></g></svg>