<?xml version="1.0" encoding="UTF-8" standalone="no"?>
<svg
   xmlns:dc="http://purl.org/dc/elements/1.1/"
   xmlns:cc="http://creativecommons.org/ns#"
   xmlns:rdf="http://www.w3.org/1999/02/22-rdf-syntax-ns#"
   xmlns:svg="http://www.w3.org/2000/svg"
   xmlns="http://www.w3.org/2000/svg"
   viewBox="0 0 263.20001 501.20001"
   height="501.20001"
   width="263.20001"
   xml:space="preserve"
   id="svg2"
   version="1.1"><metadata
     id="metadata8"><rdf:RDF><cc:Work
         rdf:about=""><dc:format>image/svg+xml</dc:format><dc:type
           rdf:resource="http://purl.org/dc/dcmitype/StillImage" /></cc:Work></rdf:RDF></metadata><defs
     id="defs6" /><g
     transform="matrix(1.25,0,0,-1.25,0,501.2)"
     id="g10"><g
       transform="scale(0.1)"
       id="g12"><path
         id="path14"
         style="fill:none;stroke:#384d71;stroke-width:9.64000034;stroke-linecap:round;stroke-linejoin:round;stroke-miterlimit:10;stroke-dasharray:none;stroke-opacity:1"
         d="m 200.66,1954.65 v 14.51 m 0,31.18 v -14.51 m 22.848,-8.34 H 209 m -31.191,0 h 14.519 m 22.031,0 c 0,-7.56 -6.129,-13.69 -13.699,-13.69 -7.551,0 -13.68,6.13 -13.68,13.69 0,7.56 6.129,13.7 13.68,13.7 7.57,0 13.699,-6.14 13.699,-13.7 z m -57.8,-57.2 H 419.84 c 31.258,0 56.621,25.36 56.621,56.63 0,31.27 -25.363,56.62 -56.621,56.62 H 156.559 c -5.961,0 -10.829,-4.88 -10.829,-10.84 v -91.58 c 0,-5.96 4.868,-10.83 10.829,-10.83 z m -22.192,-29.02 H 472.93 c 47.289,0 85.648,38.35 85.648,85.65 0,47.29 -38.359,85.64 -85.648,85.64 H 134.367 c -9.027,0 -16.387,-7.36 -16.387,-16.38 v -138.52 c 0,-9.03 7.36,-16.39 16.387,-16.39 z m 438.082,-16.7 h -469.5 v 204.68 h 469.5 z" /><path
         id="path16"
         style="fill:none;stroke:#384d71;stroke-width:9.64000034;stroke-linecap:round;stroke-linejoin:round;stroke-miterlimit:10;stroke-dasharray:none;stroke-opacity:1"
         d="m 150.879,1421.89 c 27.762,0 44.629,6.95 63.519,6.95 29.493,0 73.512,-19.89 73.512,-55.5 0,-35.63 -44.019,-55.52 -73.512,-55.52 -18.89,0 -35.757,6.95 -63.519,6.95 m 113.101,71.05 c -19.332,-8.3 -19.332,-36.66 0,-44.98 m -111.371,46.77 c 45.27,25.68 121.418,16.64 121.418,-24.27 0,-40.93 -76.148,-49.95 -121.418,-24.29 m -21.129,24.29 c 0,-3.66 -2.972,-6.64 -6.64,-6.64 -3.652,0 -6.621,2.98 -6.621,6.64 0,3.66 2.969,6.62 6.621,6.62 3.668,0 6.64,-2.96 6.64,-6.62 z m 21.129,40.77 v -81.56 c 0,-7.62 -6.25,-13.85 -13.879,-13.85 h -27.761 c -7.629,0 -13.8713,6.23 -13.8713,13.85 v 81.56 c 0,7.62 6.2423,13.87 13.8713,13.87 h 27.761 c 7.629,0 13.879,-6.25 13.879,-13.87 z" /><path
         id="path18"
         style="fill:none;stroke:#384d71;stroke-width:9.64000034;stroke-linecap:round;stroke-linejoin:round;stroke-miterlimit:10;stroke-dasharray:none;stroke-opacity:1"
         d="m 116.848,1755.27 v 11.2 m 5.609,-5.59 h -11.211 m 39.77,0 c 0,-2.3 -1.84,-4.15 -4.129,-4.15 -2.282,0 -4.129,1.85 -4.129,4.15 0,2.27 1.847,4.12 4.129,4.12 2.289,0 4.129,-1.85 4.129,-4.12 z m -19.168,40.69 v -81.39 h 17.027 c 22.152,0 28.301,22.32 28.301,40.7 0,18.37 -6.149,40.69 -28.301,40.69 z m 58.988,-40.69 c 0,42.55 -24.371,54.34 -41.961,54.34 h -45.93 v -108.7 h 45.93 c 17.59,0 41.961,11.79 41.961,54.36 z" /><path
         id="path20"
         style="fill:none;stroke:#384d71;stroke-width:9.64000034;stroke-linecap:round;stroke-linejoin:round;stroke-miterlimit:10;stroke-dasharray:none;stroke-opacity:1"
         d="m 1687.5,2705.12 v 161.06 h 191.25 m -38.58,-177.25 v -130.67 m -47.42,29.09 c 0,-7.36 5.97,-13.32 13.33,-13.32 7.36,0 13.32,5.96 13.32,13.32 0,7.35 -5.96,13.32 -13.32,13.32 -7.36,0 -13.33,-5.97 -13.33,-13.32 z m 0,72.5 c 0,-7.35 5.97,-13.32 13.33,-13.32 7.36,0 13.32,5.97 13.32,13.32 0,7.35 -5.96,13.32 -13.32,13.32 -7.36,0 -13.33,-5.97 -13.33,-13.32 z m -66.51,-72.5 c 0,-7.36 5.97,-13.32 13.33,-13.32 7.35,0 13.32,5.96 13.32,13.32 0,7.35 -5.97,13.32 -13.32,13.32 -7.36,0 -13.33,-5.97 -13.33,-13.32 z m 0,72.5 c 0,-7.35 5.97,-13.32 13.33,-13.32 7.35,0 13.32,5.97 13.32,13.32 0,7.35 -5.97,13.32 -13.32,13.32 -7.36,0 -13.33,-5.97 -13.33,-13.32 z m -22.53,-101.59 h 156.1 v 130.67 h -156.1 z m 133,-338.82 v -64.76 m -114.49,64.76 v -64.76 m 16.34,64.76 v -64.76 m 16.36,64.76 v -64.76 m 16.36,64.76 v -64.76 m 16.36,64.76 v -64.76 m 16.35,64.76 v -64.76 m 16.36,64.76 v -64.76 m -2.15,155.58 v -16.18 m -12.72,8.1 h 43.25 m -149.65,46.25 v -92.52 c 0,-9.25 7.59,-16.83 16.83,-16.83 h 115.99 c 9.26,0 16.83,7.58 16.83,16.83 v 92.52 c 0,9.25 -7.57,16.83 -16.83,16.83 h -115.99 c -9.24,0 -16.83,-7.58 -16.83,-16.83 z m -11.58,193.65 h 188.53 M 1687.5,2382.49 h 188.53 m 0,322.63 H 1687.5 v -573.57 h 188.53" /><path
         id="path22"
         style="fill:#384c71;fill-opacity:1;fill-rule:evenodd;stroke:none"
         d="m 1053.29,2099.26 h 10.83 V 3170.6 h 78.95 v 78.62 h -32.62 v 407.85 H 797.211 v -78.62 h 234.619 v -1446.9 h -44.881 v -32.29 h 44.881 z M 83.4414,1511.84 H 595.59 v -54.6 h 32.293 v 259.54 H 595.59 V 1544.13 H 83.4414 v 555.13 H 595.59 v -189.28 h 32.293 v 221.57 H 83.4414 v 1446.9 H 311.75 v 78.62 H 4.82031 V 4.82422 H 342.973 V 83.4336 H 83.4414 V 1160.62 H 707.891 v 32.29 h -80.008 v 71.14 H 595.59 v -71.14 H 83.4414 Z M 1303.08,2099.26 h 575.67 v -136.59 h 78.62 V 3519.3 l -485.51,485.52 -55.59,-55.59 462.48,-462.49 v -237.52 h -366.88 v -78.62 h 366.88 V 2131.55 H 1303.08 Z M 1118.26,28.8047 V 1507.42 h 839.11 v 180.1 h -78.62 v -101.48 h -839.11 v -393.13 h -81.96 v -32.29 h 81.96 V 83.4336 H 752.781 V 4.82422 h 365.479" /><path
         id="path24"
         style="fill:none;stroke:#384c71;stroke-width:9.64000034;stroke-linecap:round;stroke-linejoin:round;stroke-miterlimit:22.9260006;stroke-dasharray:none;stroke-opacity:1"
         d="m 1053.29,2099.26 h 10.83 V 3170.6 h 78.95 v 78.62 h -32.62 v 407.85 H 797.211 v -78.62 h 234.619 v -1446.9 h -44.881 v -32.29 z M 83.4414,1511.84 H 595.59 v -54.6 h 32.293 v 259.54 H 595.59 V 1544.13 H 83.4414 v 555.13 H 595.59 v -189.28 h 32.293 v 221.57 H 83.4414 v 1446.9 H 311.75 v 78.62 H 4.82031 V 4.82422 H 342.973 V 83.4336 H 83.4414 V 1160.62 H 707.891 v 32.29 h -80.008 v 71.14 H 595.59 v -71.14 H 83.4414 Z M 1303.08,2099.26 h 575.67 v -136.59 h 78.62 V 3519.3 l -485.51,485.52 -55.59,-55.59 462.48,-462.49 v -237.52 h -366.88 v -78.62 h 366.88 V 2131.55 H 1303.08 Z M 1118.26,28.8047 V 1507.42 h 839.11 v 180.1 h -78.62 v -101.48 h -839.11 v -393.13 h -81.96 v -32.29 h 81.96 V 83.4336 H 752.781 V 4.82422 h 365.479 z" /><path
         id="path26"
         style="fill:#ffffff;fill-opacity:1;fill-rule:nonzero;stroke:none"
         d="m 342.969,27.9688 h 409.813 v 32.293 H 342.969 Z" /><path
         id="path28"
         style="fill:none;stroke:#384c71;stroke-width:9.64000034;stroke-linecap:round;stroke-linejoin:round;stroke-miterlimit:22.9260006;stroke-dasharray:none;stroke-opacity:1"
         d="m 342.969,27.9688 h 409.813 v 32.293 H 342.969 Z" /><path
         id="path30"
         style="fill:#ffffff;fill-opacity:1;fill-rule:nonzero;stroke:none"
         d="m 311.75,3601.62 h 485.461 v 32.2891 H 311.75 Z" /><path
         id="path32"
         style="fill:none;stroke:#384c71;stroke-width:9.64000034;stroke-linecap:round;stroke-linejoin:round;stroke-miterlimit:22.9260006;stroke-dasharray:none;stroke-opacity:1"
         d="m 311.75,3601.62 h 485.461 v 32.2891 H 311.75 Z" /><path
         id="path34"
         style="fill:#ffffff;fill-opacity:1;fill-rule:nonzero;stroke:none"
         d="m 1347.95,3193.77 h 163.922 v 32.2891 H 1347.95 Z" /><path
         id="path36"
         style="fill:none;stroke:#384c71;stroke-width:9.64000034;stroke-linecap:round;stroke-linejoin:round;stroke-miterlimit:22.9260006;stroke-dasharray:none;stroke-opacity:1"
         d="m 1347.95,3193.77 h 163.922 v 32.2891 H 1347.95 Z" /><path
         id="path38"
         style="fill:#ffffff;fill-opacity:1;fill-rule:evenodd;stroke:none"
         d="m 1416.27,3949.23 33.5,-32.29 H 310.34 C 216.109,3822.71 144.711,3751.31 50.4805,3657.07 H 4.82031 C 102.199,3754.46 199.59,3851.85 296.969,3949.23" /><path
         id="path40"
         style="fill:none;stroke:#384c71;stroke-width:9.64000034;stroke-linecap:round;stroke-linejoin:round;stroke-miterlimit:22.9260006;stroke-dasharray:none;stroke-opacity:1"
         d="m 1416.27,3949.23 33.5,-32.29 H 310.34 C 216.109,3822.71 144.711,3751.31 50.4805,3657.07 H 4.82031 C 102.199,3754.46 199.59,3851.85 296.969,3949.23 Z" /><path
         id="path42"
         style="fill:none;stroke:#384c71;stroke-width:19.29000092;stroke-linecap:round;stroke-linejoin:round;stroke-miterlimit:22.9260006;stroke-dasharray:none;stroke-opacity:1"
         d="m 1143.07,3170.61 177.59,-103.43" /><path
         id="path44"
         style="fill:none;stroke:#384c71;stroke-width:19.29000092;stroke-linecap:round;stroke-linejoin:round;stroke-miterlimit:22.9260006;stroke-dasharray:none;stroke-opacity:1"
         d="m 627.887,2131.55 107.328,76.11" /><path
         id="path46"
         style="fill:none;stroke:#384c71;stroke-width:19.29000092;stroke-linecap:round;stroke-linejoin:round;stroke-miterlimit:22.9260006;stroke-dasharray:none;stroke-opacity:1"
         d="m 986.949,2131.55 -204.89,117.09" /><path
         id="path48"
         style="fill:none;stroke:#384c71;stroke-width:19.29000092;stroke-linecap:round;stroke-linejoin:round;stroke-miterlimit:22.9260006;stroke-dasharray:none;stroke-opacity:1"
         d="m 1064.12,2131.55 208.79,121.24" /><path
         id="path50"
         style="fill:none;stroke:#384c71;stroke-width:19.29000092;stroke-linecap:round;stroke-linejoin:round;stroke-miterlimit:22.9260006;stroke-dasharray:none;stroke-opacity:1"
         d="m 725.461,1884.61 -97.57,-167.82" /><path
         id="path52"
         style="fill:none;stroke:#384c71;stroke-width:19.29000092;stroke-linecap:round;stroke-linejoin:round;stroke-miterlimit:22.9260006;stroke-dasharray:none;stroke-opacity:1"
         d="m 725.461,1431.88 -97.57,-167.83" /><path
         id="path54"
         style="fill:none;stroke:#384c71;stroke-width:19.29000092;stroke-linecap:round;stroke-linejoin:round;stroke-miterlimit:22.9260006;stroke-dasharray:none;stroke-opacity:1"
         d="M 957.68,1160.63 741.07,1035.73" /><path
         id="path56"
         style="fill:none;stroke:#384c71;stroke-width:19.29000092;stroke-linecap:round;stroke-linejoin:round;stroke-miterlimit:22.9260006;stroke-dasharray:none;stroke-opacity:1"
         d="M 1957.38,1962.68 2095.91,1724.6" /><path
         id="path58"
         style="fill:none;stroke:#384d71;stroke-width:9.64000034;stroke-linecap:round;stroke-linejoin:round;stroke-miterlimit:10;stroke-dasharray:none;stroke-opacity:1"
         d="m 545.051,342.645 c 60.187,0 109.269,49.089 109.269,109.269 0,60.172 -49.082,109.274 -109.269,109.274 -60.184,0 -109.274,-49.102 -109.274,-109.274 0,-60.18 49.09,-109.269 109.274,-109.269 z" /><g
         transform="scale(10)"
         id="g60"><text
           id="text64"
           style="font-variant:normal;font-weight:bold;font-size:14.97959995px;font-family:Roboto;-inkscape-font-specification:Roboto-Bold;writing-mode:lr-tb;fill:#000000;fill-opacity:1;fill-rule:nonzero;stroke:none"
           transform="matrix(1,0,0,-1,50.5055,39.7898)"><tspan
             id="tspan62"
             y="0"
             x="0">3</tspan></text>
<text
           id="text68"
           style="font-variant:normal;font-weight:normal;font-size:10.25030041px;font-family:Roboto;-inkscape-font-specification:Roboto-Regular;writing-mode:lr-tb;fill:#000000;fill-opacity:1;fill-rule:nonzero;stroke:none"
           transform="matrix(1,0,0,-1,41.81527,22.4336)"><tspan
             id="tspan66"
             y="0"
             x="0 5.7709188 11.541838 14.28398 20.054899">13.30</tspan></text>
</g><path
         id="path70"
         style="fill:none;stroke:#384d71;stroke-width:9.64000034;stroke-linecap:round;stroke-linejoin:round;stroke-miterlimit:10;stroke-dasharray:none;stroke-opacity:1"
         d="m 271.492,874.824 c 60.192,0 109.274,49.09 109.274,109.27 0,60.176 -49.082,109.266 -109.274,109.266 -60.179,0 -109.269,-49.09 -109.269,-109.266 0,-60.18 49.09,-109.27 109.269,-109.27 z" /><g
         transform="scale(10)"
         id="g72"><text
           id="text76"
           style="font-variant:normal;font-weight:bold;font-size:14.97990036px;font-family:Roboto;-inkscape-font-specification:Roboto-Bold;writing-mode:lr-tb;fill:#000000;fill-opacity:1;fill-rule:nonzero;stroke:none"
           transform="matrix(1,0,0,-1,23.15,93.0078)"><tspan
             id="tspan74"
             y="0"
             x="0">6</tspan></text>
<text
           id="text80"
           style="font-variant:normal;font-weight:normal;font-size:10.25059986px;font-family:Roboto;-inkscape-font-specification:Roboto-Regular;writing-mode:lr-tb;fill:#000000;fill-opacity:1;fill-rule:nonzero;stroke:none"
           transform="matrix(1,0,0,-1,20.23047,75.6516)"><tspan
             id="tspan78"
             y="0"
             x="0 5.7710876 8.5182486">1.8</tspan></text>
</g><path
         id="path82"
         style="fill:none;stroke:#384d71;stroke-width:9.64000034;stroke-linecap:round;stroke-linejoin:round;stroke-miterlimit:10;stroke-dasharray:none;stroke-opacity:1"
         d="m 909.043,1785.94 c 60.191,0 109.267,49.08 109.267,109.27 0,60.18 -49.076,109.27 -109.267,109.27 -60.172,0 -109.262,-49.09 -109.262,-109.27 0,-60.19 49.09,-109.27 109.262,-109.27 z" /><g
         transform="scale(10)"
         id="g84"><text
           id="text88"
           style="font-variant:normal;font-weight:bold;font-size:14.97990036px;font-family:Roboto;-inkscape-font-specification:Roboto-Bold;writing-mode:lr-tb;fill:#000000;fill-opacity:1;fill-rule:nonzero;stroke:none"
           transform="matrix(1,0,0,-1,86.9047,184.119)"><tspan
             id="tspan86"
             y="0"
             x="0">5</tspan></text>
<text
           id="text92"
           style="font-variant:normal;font-weight:normal;font-size:10.25059986px;font-family:Roboto;-inkscape-font-specification:Roboto-Regular;writing-mode:lr-tb;fill:#000000;fill-opacity:1;fill-rule:nonzero;stroke:none"
           transform="matrix(1,0,0,-1,81.10001,166.7616)"><tspan
             id="tspan90"
             y="0"
             x="0 5.7710876 8.5182486 14.289336">3.60</tspan></text>
</g><path
         id="path94"
         style="fill:none;stroke:#384d71;stroke-width:9.64000034;stroke-linecap:round;stroke-linejoin:round;stroke-miterlimit:10;stroke-dasharray:none;stroke-opacity:1"
         d="m 1492.06,1742.82 c 60.18,0 109.26,49.09 109.26,109.28 0,60.16 -49.08,109.26 -109.26,109.26 -60.2,0 -109.28,-49.1 -109.28,-109.26 0,-60.19 49.08,-109.28 109.28,-109.28 z" /><g
         transform="scale(10)"
         id="g96"><text
           id="text100"
           style="font-variant:normal;font-weight:bold;font-size:14.97990036px;font-family:Roboto;-inkscape-font-specification:Roboto-Bold;writing-mode:lr-tb;fill:#000000;fill-opacity:1;fill-rule:nonzero;stroke:none"
           transform="matrix(1,0,0,-1,145.205,179.807)"><tspan
             id="tspan98"
             y="0"
             x="0">1</tspan></text>
<text
           id="text104"
           style="font-variant:normal;font-weight:normal;font-size:10.25059986px;font-family:Roboto;-inkscape-font-specification:Roboto-Regular;writing-mode:lr-tb;fill:#000000;fill-opacity:1;fill-rule:nonzero;stroke:none"
           transform="matrix(1,0,0,-1,139.40031,162.45)"><tspan
             id="tspan102"
             y="0"
             x="0 5.7710876 8.5182486 14.289336">9.76</tspan></text>
</g><path
         id="path106"
         style="fill:none;stroke:#384d71;stroke-width:9.64000034;stroke-linecap:round;stroke-linejoin:round;stroke-miterlimit:10;stroke-dasharray:none;stroke-opacity:1"
         d="m 1399.51,2646.07 c 60.18,0 109.26,49.09 109.26,109.27 0,60.18 -49.08,109.27 -109.26,109.27 -60.19,0 -109.28,-49.09 -109.28,-109.27 0,-60.18 49.09,-109.27 109.28,-109.27 z" /><g
         transform="scale(10)"
         id="g108"><text
           id="text112"
           style="font-variant:normal;font-weight:bold;font-size:14.97990036px;font-family:Roboto;-inkscape-font-specification:Roboto-Bold;writing-mode:lr-tb;fill:#000000;fill-opacity:1;fill-rule:nonzero;stroke:none"
           transform="matrix(1,0,0,-1,135.951,270.132)"><tspan
             id="tspan110"
             y="0"
             x="0">4</tspan></text>
<text
           id="text116"
           style="font-variant:normal;font-weight:normal;font-size:10.25059986px;font-family:Roboto;-inkscape-font-specification:Roboto-Regular;writing-mode:lr-tb;fill:#000000;fill-opacity:1;fill-rule:nonzero;stroke:none"
           transform="matrix(1,0,0,-1,127.26037,252.7754)"><tspan
             id="tspan114"
             y="0"
             x="0 5.7710876 11.542175 14.289336 20.060425">10.90</tspan></text>
</g><path
         id="path118"
         style="fill:none;stroke:#384d71;stroke-width:9.64000034;stroke-linecap:round;stroke-linejoin:round;stroke-miterlimit:10;stroke-dasharray:none;stroke-opacity:1"
         d="m 579.238,2838.23 c 60.2,0 109.27,49.09 109.27,109.27 0,60.18 -49.07,109.26 -109.27,109.26 -60.172,0 -109.261,-49.08 -109.261,-109.26 0,-60.18 49.089,-109.27 109.261,-109.27 z" /><g
         transform="scale(10)"
         id="g120"><text
           id="text124"
           style="font-variant:normal;font-weight:bold;font-size:14.97990036px;font-family:Roboto;-inkscape-font-specification:Roboto-Bold;writing-mode:lr-tb;fill:#000000;fill-opacity:1;fill-rule:nonzero;stroke:none"
           transform="matrix(1,0,0,-1,53.9242,289.348)"><tspan
             id="tspan122"
             y="0"
             x="0">2</tspan></text>
<text
           id="text128"
           style="font-variant:normal;font-weight:normal;font-size:10.25059986px;font-family:Roboto;-inkscape-font-specification:Roboto-Regular;writing-mode:lr-tb;fill:#000000;fill-opacity:1;fill-rule:nonzero;stroke:none"
           transform="matrix(1,0,0,-1,45.23553,271.9918)"><tspan
             id="tspan126"
             y="0"
             x="0 5.7710876 11.542175 14.289336 20.060425">18.10</tspan></text>
</g><path
         id="path130"
         style="fill:none;stroke:#384d71;stroke-width:9.64000034;stroke-linecap:round;stroke-linejoin:round;stroke-miterlimit:10;stroke-dasharray:none;stroke-opacity:1"
         d="m 1419.77,3499.25 c 60.18,0 109.26,49.08 109.26,109.27 0,60.18 -49.08,109.26 -109.26,109.26 -60.18,0 -109.26,-49.08 -109.26,-109.26 0,-60.19 49.08,-109.27 109.26,-109.27 z" /><g
         transform="scale(10)"
         id="g132"><text
           id="text136"
           style="font-variant:normal;font-weight:bold;font-size:14.97990036px;font-family:Roboto;-inkscape-font-specification:Roboto-Bold;writing-mode:lr-tb;fill:#000000;fill-opacity:1;fill-rule:nonzero;stroke:none"
           transform="matrix(1,0,0,-1,137.977,355.45)"><tspan
             id="tspan134"
             y="0"
             x="0">8</tspan></text>
<text
           id="text140"
           style="font-variant:normal;font-weight:normal;font-size:10.25059986px;font-family:Roboto;-inkscape-font-specification:Roboto-Regular;writing-mode:lr-tb;fill:#000000;fill-opacity:1;fill-rule:nonzero;stroke:none"
           transform="matrix(1,0,0,-1,132.17427,338.0934)"><tspan
             id="tspan138"
             y="0"
             x="0 5.7710876 8.5182486 14.289336">7.30</tspan></text>
</g><path
         id="path142"
         style="fill:none;stroke:#000000;stroke-width:8.19999981;stroke-linecap:round;stroke-linejoin:round;stroke-miterlimit:22.9260006;stroke-dasharray:none;stroke-opacity:1"
         d="M 305.684,1648.09 H 1011.55" /><path
         id="path144"
         style="fill:none;stroke:#000000;stroke-width:8.19999981;stroke-linecap:round;stroke-linejoin:round;stroke-miterlimit:22.9260006;stroke-dasharray:none;stroke-opacity:1"
         d="M 134.707,715.496 H 436.246 V 1349.66" /></g></g></svg>