<?xml version="1.0" encoding="UTF-8" standalone="no"?>
<svg
   xmlns:dc="http://purl.org/dc/elements/1.1/"
   xmlns:cc="http://creativecommons.org/ns#"
   xmlns:rdf="http://www.w3.org/1999/02/22-rdf-syntax-ns#"
   xmlns:svg="http://www.w3.org/2000/svg"
   xmlns="http://www.w3.org/2000/svg"
   viewBox="0 0 501.20001 242.39999"
   height="242.39999"
   width="501.20001"
   xml:space="preserve"
   id="svg2"
   version="1.1"><metadata
     id="metadata8"><rdf:RDF><cc:Work
         rdf:about=""><dc:format>image/svg+xml</dc:format><dc:type
           rdf:resource="http://purl.org/dc/dcmitype/StillImage" /></cc:Work></rdf:RDF></metadata><defs
     id="defs6" /><g
     transform="matrix(1.25,0,0,-1.25,0,242.4)"
     id="g10"><g
       transform="scale(0.1)"
       id="g12"><path
         id="path14"
         style="fill:none;stroke:#384d71;stroke-width:9.64000034;stroke-linecap:round;stroke-linejoin:round;stroke-miterlimit:10;stroke-dasharray:none;stroke-opacity:1"
         d="m 1994.43,1744.25 h 14.52 m 31.19,0 h -14.51 m -8.34,-22.86 v 14.52 m 0,31.2 v -14.52 m 0,-22.04 c -7.57,0 -13.71,6.14 -13.71,13.7 0,7.56 6.14,13.7 13.71,13.7 7.57,0 13.69,-6.14 13.69,-13.7 0,-7.56 -6.12,-13.7 -13.69,-13.7 z m -57.24,57.82 v -263.4 c 0,-31.28 25.38,-56.64 56.65,-56.64 31.29,0 56.66,25.36 56.66,56.64 v 263.4 c 0,5.97 -4.88,10.84 -10.84,10.84 h -91.63 c -5.96,0 -10.84,-4.87 -10.84,-10.84 z m -29.03,22.21 v -338.72 c 0,-47.32 38.37,-85.69 85.68,-85.69 47.32,0 85.69,38.37 85.69,85.69 v 338.72 c 0,9.03 -7.35,16.4 -16.4,16.4 h -138.58 c -9.03,0 -16.39,-7.37 -16.39,-16.4 z m 188.09,-438.3 h -204.8 v 469.73 h 204.8 z" /><path
         id="path16"
         style="fill:none;stroke:#384d71;stroke-width:9.64000034;stroke-linecap:round;stroke-linejoin:round;stroke-miterlimit:10;stroke-dasharray:none;stroke-opacity:1"
         d="m 2723.46,1784.31 c 0,-27.78 6.95,-44.67 6.95,-63.55 0,-29.52 -19.91,-73.55 -55.53,-73.55 -35.63,0 -55.55,44.03 -55.55,73.55 0,18.88 6.96,35.77 6.96,63.55 m 71.09,-113.15 c -8.32,19.34 -36.68,19.34 -45,0 m 46.79,111.42 c 25.67,-45.3 16.64,-121.48 -24.29,-121.48 -40.94,0 -49.98,76.18 -24.29,121.48 m 24.29,21.13 c -3.68,0 -6.63,2.98 -6.63,6.64 0,3.66 2.95,6.63 6.63,6.63 3.65,0 6.63,-2.97 6.63,-6.63 0,-3.66 -2.98,-6.64 -6.63,-6.64 z m 40.79,-21.13 h -81.59 c -7.64,0 -13.87,6.25 -13.87,13.88 v 27.77 c 0,7.64 6.23,13.88 13.87,13.88 h 81.59 c 7.62,0 13.87,-6.24 13.87,-13.88 v -27.77 c 0,-7.63 -6.25,-13.88 -13.87,-13.88 z" /><path
         id="path18"
         style="fill:none;stroke:#384d71;stroke-width:9.64000034;stroke-linecap:round;stroke-linejoin:round;stroke-miterlimit:10;stroke-dasharray:none;stroke-opacity:1"
         d="m 2212.54,1828.11 h 11.2 m -5.58,-5.61 v 11.21 m -0.02,-39.78 c -2.29,0 -4.14,1.84 -4.14,4.12 0,2.29 1.85,4.13 4.14,4.13 2.27,0 4.14,-1.84 4.14,-4.13 0,-2.28 -1.87,-4.12 -4.14,-4.12 z m 40.72,19.18 h -81.44 v -17.04 c 0,-22.16 22.34,-28.32 40.74,-28.32 18.37,0 40.7,6.16 40.7,28.32 z m -40.7,-59.02 c 42.56,0 54.35,24.37 54.35,41.98 v 45.95 h -108.74 v -45.95 c 0,-17.61 11.79,-41.98 54.39,-41.98 z" /><path
         id="path20"
         style="fill:none;stroke:#384d71;stroke-width:9.64000034;stroke-linecap:round;stroke-linejoin:round;stroke-miterlimit:10;stroke-dasharray:none;stroke-opacity:1"
         d="M 1322.72,272.078 H 1159.25 V 83.4883 m 179.66,35.8637 h 130.74 m -29.11,47.429 c 7.37,0 13.34,-5.98 13.34,-13.34 0,-7.363 -5.97,-13.32 -13.34,-13.32 -7.36,0 -13.33,5.957 -13.33,13.32 0,7.36 5.97,13.34 13.33,13.34 z m -72.53,0 c 7.36,0 13.33,-5.98 13.33,-13.34 0,-7.363 -5.97,-13.32 -13.33,-13.32 -7.36,0 -13.33,5.957 -13.33,13.32 0,7.36 5.97,13.34 13.33,13.34 z m 72.53,66.547 c 7.37,0 13.34,-5.969 13.34,-13.316 0,-7.364 -5.97,-13.332 -13.34,-13.332 -7.36,0 -13.33,5.968 -13.33,13.332 0,7.347 5.97,13.316 13.33,13.316 z m -72.53,0 c 7.36,0 13.33,-5.969 13.33,-13.316 0,-7.364 -5.97,-13.332 -13.33,-13.332 -7.36,0 -13.33,5.968 -13.33,13.332 0,7.347 5.97,13.316 13.33,13.316 z m -29.1,22.543 h 130.74 V 99.6797 H 1338.91 Z M 1808.64,122.82 h 64.79 m -64.79,114.539 h 64.79 M 1808.64,221 h 64.79 m -64.79,-16.371 h 64.79 m -64.79,-16.359 h 64.79 m -64.79,-16.36 h 64.79 m -64.79,-16.359 h 64.79 m -64.79,-16.36 h 64.79 m -155.66,2.137 h 16.19 m -8.1,12.711 V 110.77 m -46.28,149.73 h 92.55 c 9.27,0 16.84,-7.57 16.84,-16.84 V 127.609 c 0,-9.269 -7.57,-16.839 -16.84,-16.839 h -92.55 c -9.26,0 -16.83,7.57 -16.83,16.839 V 243.66 c 0,9.27 7.57,16.84 16.83,16.84 z m -193.74,11.578 V 83.4805 M 1645.5,272.078 V 83.4805 m -322.78,0 V 272.078 h 573.84 V 83.4805" /><path
         id="path22"
         style="fill:none;stroke:#384d71;stroke-width:9.64000034;stroke-linecap:round;stroke-linejoin:round;stroke-miterlimit:10;stroke-dasharray:none;stroke-opacity:1"
         d="m 2190.13,692.188 c 60.22,0 109.34,49.101 109.34,109.32 0,60.211 -49.12,109.32 -109.34,109.32 -60.2,0 -109.31,-49.109 -109.31,-109.32 0,-60.219 49.11,-109.32 109.31,-109.32 z" /><g
         transform="scale(10)"
         id="g24"><text
           id="text28"
           style="font-variant:normal;font-weight:bold;font-size:14.98719978px;font-family:Roboto;-inkscape-font-specification:Roboto-Bold;writing-mode:lr-tb;fill:#000000;fill-opacity:1;fill-rule:nonzero;stroke:none"
           transform="matrix(1,0,0,-1,215.014,74.7449)"><tspan
             id="tspan26"
             y="0"
             x="0">1</tspan></text>
<text
           id="text32"
           style="font-variant:normal;font-weight:normal;font-size:10.25559998px;font-family:Roboto;-inkscape-font-specification:Roboto-Regular;writing-mode:lr-tb;fill:#000000;fill-opacity:1;fill-rule:nonzero;stroke:none"
           transform="matrix(1,0,0,-1,209.20658,57.3808)"><tspan
             id="tspan30"
             y="0"
             x="0 5.7739029 8.5171785 14.291081">9.58</tspan></text>
</g><path
         id="path34"
         style="fill:none;stroke:#384d71;stroke-width:9.64000034;stroke-linecap:round;stroke-linejoin:round;stroke-miterlimit:10;stroke-dasharray:none;stroke-opacity:1"
         d="m 3536.89,1133.56 c 60.22,0 109.34,49.12 109.34,109.32 0,60.21 -49.12,109.32 -109.34,109.32 -60.21,0 -109.32,-49.11 -109.32,-109.32 0,-60.2 49.11,-109.32 109.32,-109.32 z" /><g
         transform="scale(10)"
         id="g36"><text
           id="text40"
           style="font-variant:normal;font-weight:bold;font-size:14.98719978px;font-family:Roboto;-inkscape-font-specification:Roboto-Bold;writing-mode:lr-tb;fill:#000000;fill-opacity:1;fill-rule:nonzero;stroke:none"
           transform="matrix(1,0,0,-1,349.688,118.884)"><tspan
             id="tspan38"
             y="0"
             x="0">3</tspan></text>
<text
           id="text44"
           style="font-variant:normal;font-weight:normal;font-size:10.25559998px;font-family:Roboto;-inkscape-font-specification:Roboto-Regular;writing-mode:lr-tb;fill:#000000;fill-opacity:1;fill-rule:nonzero;stroke:none"
           transform="matrix(1,0,0,-1,340.99659,101.5192)"><tspan
             id="tspan42"
             y="0"
             x="0 5.7739029 11.547806 14.296307 20.07021">13.24</tspan></text>
</g><path
         id="path46"
         style="fill:none;stroke:#384d71;stroke-width:9.64000034;stroke-linecap:round;stroke-linejoin:round;stroke-miterlimit:10;stroke-dasharray:none;stroke-opacity:1"
         d="m 3244.21,1587.26 c 60.21,0 109.31,49.11 109.31,109.32 0,60.22 -49.1,109.32 -109.31,109.32 -60.21,0 -109.32,-49.1 -109.32,-109.32 0,-60.21 49.11,-109.32 109.32,-109.32 z" /><g
         transform="scale(10)"
         id="g48"><text
           id="text52"
           style="font-variant:normal;font-weight:bold;font-size:14.98719978px;font-family:Roboto;-inkscape-font-specification:Roboto-Bold;writing-mode:lr-tb;fill:#000000;fill-opacity:1;fill-rule:nonzero;stroke:none"
           transform="matrix(1,0,0,-1,320.421,164.253)"><tspan
             id="tspan50"
             y="0"
             x="0">6</tspan></text>
<text
           id="text56"
           style="font-variant:normal;font-weight:normal;font-size:10.25559998px;font-family:Roboto;-inkscape-font-specification:Roboto-Regular;writing-mode:lr-tb;fill:#000000;fill-opacity:1;fill-rule:nonzero;stroke:none"
           transform="matrix(1,0,0,-1,314.61319,146.8885)"><tspan
             id="tspan54"
             y="0"
             x="0 5.7739029 8.5171785 14.291081">1.68</tspan></text>
</g><path
         id="path58"
         style="fill:none;stroke:#384d71;stroke-width:9.64000034;stroke-linecap:round;stroke-linejoin:round;stroke-miterlimit:10;stroke-dasharray:none;stroke-opacity:1"
         d="m 2305.83,1483.27 c 60.21,0 109.33,49.11 109.33,109.32 0,60.21 -49.12,109.32 -109.33,109.32 -60.21,0 -109.32,-49.11 -109.32,-109.32 0,-60.21 49.11,-109.32 109.32,-109.32 z" /><g
         transform="scale(10)"
         id="g60"><text
           id="text64"
           style="font-variant:normal;font-weight:bold;font-size:14.98719978px;font-family:Roboto;-inkscape-font-specification:Roboto-Bold;writing-mode:lr-tb;fill:#000000;fill-opacity:1;fill-rule:nonzero;stroke:none"
           transform="matrix(1,0,0,-1,226.583,153.854)"><tspan
             id="tspan62"
             y="0"
             x="0">5</tspan></text>
<text
           id="text68"
           style="font-variant:normal;font-weight:normal;font-size:10.25559998px;font-family:Roboto;-inkscape-font-specification:Roboto-Regular;writing-mode:lr-tb;fill:#000000;fill-opacity:1;fill-rule:nonzero;stroke:none"
           transform="matrix(1,0,0,-1,220.77558,136.4888)"><tspan
             id="tspan66"
             y="0"
             x="0 5.7739029 8.5171785 14.291081">3.88</tspan></text>
</g><path
         id="path70"
         style="fill:none;stroke:#384d71;stroke-width:9.64000034;stroke-linecap:round;stroke-linejoin:round;stroke-miterlimit:10;stroke-dasharray:none;stroke-opacity:1"
         d="m 1422.8,540.73 c 60.21,0 109.32,49.114 109.32,109.321 0,60.211 -49.11,109.32 -109.32,109.32 -60.22,0 -109.32,-49.109 -109.32,-109.32 0,-60.207 49.1,-109.321 109.32,-109.321 z" /><g
         transform="scale(10)"
         id="g72"><text
           id="text76"
           style="font-variant:normal;font-weight:bold;font-size:14.98719978px;font-family:Roboto;-inkscape-font-specification:Roboto-Bold;writing-mode:lr-tb;fill:#000000;fill-opacity:1;fill-rule:nonzero;stroke:none"
           transform="matrix(1,0,0,-1,138.279,59.5996)"><tspan
             id="tspan74"
             y="0"
             x="0">4</tspan></text>
<text
           id="text80"
           style="font-variant:normal;font-weight:normal;font-size:10.25559998px;font-family:Roboto;-inkscape-font-specification:Roboto-Regular;writing-mode:lr-tb;fill:#000000;fill-opacity:1;fill-rule:nonzero;stroke:none"
           transform="matrix(1,0,0,-1,129.58525,42.2344)"><tspan
             id="tspan78"
             y="0"
             x="0 5.7739029 11.547806 14.29102 20.064924">11.39</tspan></text>
</g><path
         id="path82"
         style="fill:none;stroke:#384d71;stroke-width:9.64000034;stroke-linecap:round;stroke-linejoin:round;stroke-miterlimit:10;stroke-dasharray:none;stroke-opacity:1"
         d="m 440.797,494.07 c 60.211,0 109.308,49.114 109.308,109.332 0,60.2 -49.097,109.309 -109.308,109.309 -60.211,0 -109.332,-49.109 -109.332,-109.309 0,-60.218 49.121,-109.332 109.332,-109.332 z" /><g
         transform="scale(10)"
         id="g84"><text
           id="text88"
           style="font-variant:normal;font-weight:bold;font-size:14.98719978px;font-family:Roboto;-inkscape-font-specification:Roboto-Bold;writing-mode:lr-tb;fill:#000000;fill-opacity:1;fill-rule:nonzero;stroke:none"
           transform="matrix(1,0,0,-1,40.0781,54.9355)"><tspan
             id="tspan86"
             y="0"
             x="0">8</tspan></text>
<text
           id="text92"
           style="font-variant:normal;font-weight:normal;font-size:10.25559998px;font-family:Roboto;-inkscape-font-specification:Roboto-Regular;writing-mode:lr-tb;fill:#000000;fill-opacity:1;fill-rule:nonzero;stroke:none"
           transform="matrix(1,0,0,-1,34.27146,37.5691)"><tspan
             id="tspan90"
             y="0"
             x="0 5.7739029 8.5224037 14.296307">7.30</tspan></text>
</g><path
         id="path94"
         style="fill:none;stroke:#384d71;stroke-width:9.64000034;stroke-linecap:round;stroke-linejoin:round;stroke-miterlimit:10;stroke-dasharray:none;stroke-opacity:1"
         d="m 1121.68,1323.86 c 60.21,0 109.32,49.11 109.32,109.32 0,60.21 -49.11,109.32 -109.32,109.32 -60.2,0 -109.31,-49.11 -109.31,-109.32 0,-60.21 49.11,-109.32 109.31,-109.32 z" /><g
         transform="scale(10)"
         id="g96"><text
           id="text100"
           style="font-variant:normal;font-weight:bold;font-size:14.98719978px;font-family:Roboto;-inkscape-font-specification:Roboto-Bold;writing-mode:lr-tb;fill:#000000;fill-opacity:1;fill-rule:nonzero;stroke:none"
           transform="matrix(1,0,0,-1,108.168,137.914)"><tspan
             id="tspan98"
             y="0"
             x="0">2</tspan></text>
<text
           id="text104"
           style="font-variant:normal;font-weight:normal;font-size:10.25559998px;font-family:Roboto;-inkscape-font-specification:Roboto-Regular;writing-mode:lr-tb;fill:#000000;fill-opacity:1;fill-rule:nonzero;stroke:none"
           transform="matrix(1,0,0,-1,99.47464,120.5484)"><tspan
             id="tspan102"
             y="0"
             x="0 5.7739029 11.547806 14.29102 20.064924">18.21</tspan></text>
</g><path
         id="path106"
         style="fill:#384c71;fill-opacity:1;fill-rule:evenodd;stroke:none"
         d="M 1928.87,83.4766 V 643.258 h -32.3 V 83.4766 H 839.445 V 436.297 H 760.789 V 83.4766 H 506.977 L 60.4375,530.008 4.82813,474.398 474.387,4.82813 H 2063.59 V 83.4766 Z m 0,829.2114 v 46.839 h -32.3 V 912.688 H 429.438 V 1113.78 H 350.777 V 834.027 h 410.012 v -32.629 h 78.656 v 78.981 H 1928.87 Z m 908.74,404.142 h -71.16 v 32.3 h 71.16 v 506.56 h -317.73 v -506.56 h 57.19 v -32.3 h -257.72 v 32.3 h 168.21 v 506.56 h -586.91 v -506.56 h 225.42 v -32.3 h -257.72 v 538.86 H 429.438 v -249.91 h -78.661 v 328.56 H 4004.83 v -320.75 h -78.67 v 242.1 H 2869.92 v -646.24 h -32.31 z M 2424.79,83.4766 V 930.816 h 412.82 v 30.68 h 32.31 v -30.68 H 3926.16 V 1203.6 h 78.67 V 852.156 H 2503.44 V 4.82813 H 2338.88 V 83.4766" /><path
         id="path108"
         style="fill:none;stroke:#384c71;stroke-width:9.64999962;stroke-linecap:round;stroke-linejoin:round;stroke-miterlimit:22.9260006;stroke-dasharray:none;stroke-opacity:1"
         d="M 1928.87,83.4766 V 643.258 h -32.3 V 83.4766 H 839.445 V 436.297 H 760.789 V 83.4766 H 506.977 L 60.4375,530.008 4.82813,474.398 474.387,4.82813 H 2063.59 V 83.4766 Z m 0,829.2114 v 46.839 h -32.3 V 912.688 H 429.438 V 1113.78 H 350.777 V 834.027 h 410.012 v -32.629 h 78.656 v 78.981 H 1928.87 Z m 908.74,404.142 h -71.16 v 32.3 h 71.16 v 506.56 h -317.73 v -506.56 h 57.19 v -32.3 h -257.72 v 32.3 h 168.21 v 506.56 h -586.91 v -506.56 h 225.42 v -32.3 h -257.72 v 538.86 H 429.438 v -249.91 h -78.661 v 328.56 H 4004.83 v -320.75 h -78.67 v 242.1 H 2869.92 v -646.24 h -32.31 z M 2424.79,83.4766 V 930.816 h 412.82 v 30.68 h 32.31 v -30.68 H 3926.16 V 1203.6 h 78.67 V 852.156 H 2503.44 V 4.82813 H 2338.88 V 83.4766 Z" /><path
         id="path110"
         style="fill:#ffffff;fill-opacity:1;fill-rule:nonzero;stroke:none"
         d="m 3949.33,1203.59 h 32.3086 v 409.988 H 3949.33 Z" /><path
         id="path112"
         style="fill:none;stroke:#384c71;stroke-width:9.64999962;stroke-linecap:round;stroke-linejoin:round;stroke-miterlimit:22.9260006;stroke-dasharray:none;stroke-opacity:1"
         d="m 3949.33,1203.59 h 32.3086 v 409.988 H 3949.33 Z" /><path
         id="path114"
         style="fill:#ffffff;fill-opacity:1;fill-rule:nonzero;stroke:none"
         d="m 373.969,1113.78 h 32.293 v 492 h -32.293 z" /><path
         id="path116"
         style="fill:none;stroke:#384c71;stroke-width:9.64999962;stroke-linecap:round;stroke-linejoin:round;stroke-miterlimit:22.9260006;stroke-dasharray:none;stroke-opacity:1"
         d="m 373.969,1113.78 h 32.293 v 492 h -32.293 z" /><path
         id="path118"
         style="fill:#ffffff;fill-opacity:1;fill-rule:evenodd;stroke:none"
         d="m 350.781,1934.34 v -45.86 L 92.7422,1628.45 V 497.699 L 60.4414,530.012 V 1641.76" /><path
         id="path120"
         style="fill:none;stroke:#384c71;stroke-width:9.64999962;stroke-linecap:round;stroke-linejoin:round;stroke-miterlimit:22.9260006;stroke-dasharray:none;stroke-opacity:1"
         d="m 350.781,1934.34 v -45.86 L 92.7422,1628.45 V 497.699 L 60.4414,530.012 V 1641.76 Z" /><path
         id="path122"
         style="fill:#ffffff;fill-opacity:1;fill-rule:nonzero;stroke:none"
         d="m 783.961,436.301 h 32.3008 V 600.289 H 783.961 Z" /><path
         id="path124"
         style="fill:none;stroke:#384c71;stroke-width:9.64999962;stroke-linecap:round;stroke-linejoin:round;stroke-miterlimit:22.9260006;stroke-dasharray:none;stroke-opacity:1"
         d="m 783.961,436.301 h 32.3008 V 600.289 H 783.961 Z" /><path
         id="path126"
         style="fill:none;stroke:#384c71;stroke-width:19.29999924;stroke-linecap:round;stroke-linejoin:round;stroke-miterlimit:22.9260006;stroke-dasharray:none;stroke-opacity:1"
         d="M 839.441,801.395 940.965,627.637" /><path
         id="path128"
         style="fill:none;stroke:#384c71;stroke-width:19.29999924;stroke-linecap:round;stroke-linejoin:round;stroke-miterlimit:22.9260006;stroke-dasharray:none;stroke-opacity:1"
         d="M 1901.09,880.383 1782.44,676.441" /><path
         id="path130"
         style="fill:none;stroke:#384c71;stroke-width:19.29999924;stroke-linecap:round;stroke-linejoin:round;stroke-miterlimit:22.9260006;stroke-dasharray:none;stroke-opacity:1"
         d="M 1896.56,959.531 1774.09,1162.59" /><path
         id="path132"
         style="fill:none;stroke:#384c71;stroke-width:19.29999924;stroke-linecap:round;stroke-linejoin:round;stroke-miterlimit:22.9260006;stroke-dasharray:none;stroke-opacity:1"
         d="m 1868.34,1316.82 -66.68,-92.31" /><path
         id="path134"
         style="fill:none;stroke:#384c71;stroke-width:19.29999924;stroke-linecap:round;stroke-linejoin:round;stroke-miterlimit:22.9260006;stroke-dasharray:none;stroke-opacity:1"
         d="m 2319.35,1316.82 -167.89,-97.61" /><path
         id="path136"
         style="fill:none;stroke:#384c71;stroke-width:19.29999924;stroke-linecap:round;stroke-linejoin:round;stroke-miterlimit:22.9260006;stroke-dasharray:none;stroke-opacity:1"
         d="m 2766.45,1316.82 -169.86,-97.61" /><path
         id="path138"
         style="fill:none;stroke:#384c71;stroke-width:19.29999924;stroke-linecap:round;stroke-linejoin:round;stroke-miterlimit:22.9260006;stroke-dasharray:none;stroke-opacity:1"
         d="M 2707.34,1176.25 2837.61,961.496" /><path
         id="path140"
         style="fill:none;stroke:#384c71;stroke-width:19.29999924;stroke-linecap:round;stroke-linejoin:round;stroke-miterlimit:22.9260006;stroke-dasharray:none;stroke-opacity:1"
         d="M 2338.88,83.4766 2100.69,229.629" /><path
         id="path142"
         style="fill:none;stroke:#000000;stroke-width:8.19999981;stroke-linecap:round;stroke-linejoin:round;stroke-miterlimit:22.9260006;stroke-dasharray:none;stroke-opacity:1"
         d="m 2650.64,1431.49 h 702.88" /></g></g></svg>