<?xml version="1.0" encoding="UTF-8" standalone="no"?>
<svg
   xmlns:dc="http://purl.org/dc/elements/1.1/"
   xmlns:cc="http://creativecommons.org/ns#"
   xmlns:rdf="http://www.w3.org/1999/02/22-rdf-syntax-ns#"
   xmlns:svg="http://www.w3.org/2000/svg"
   xmlns="http://www.w3.org/2000/svg"
   viewBox="0 0 411.11249 501.27499"
   height="501.27499"
   width="411.11249"
   xml:space="preserve"
   id="svg2"
   version="1.1"><metadata
     id="metadata8"><rdf:RDF><cc:Work
         rdf:about=""><dc:format>image/svg+xml</dc:format><dc:type
           rdf:resource="http://purl.org/dc/dcmitype/StillImage" /></cc:Work></rdf:RDF></metadata><defs
     id="defs6" /><g
     transform="matrix(1.25,0,0,-1.25,0,501.275)"
     id="g10"><g
       transform="scale(0.1)"
       id="g12"><path
         id="path14"
         style="fill:none;stroke:#384d71;stroke-width:10.17000008;stroke-linecap:round;stroke-linejoin:round;stroke-miterlimit:10;stroke-dasharray:none;stroke-opacity:1"
         d="m 3080.89,2100.49 v -15.31 m 0,-32.89 v 15.3 m -24.1,8.79 h 15.3 m 32.9,0 h -15.29 m -23.24,0 c 0,7.99 6.44,14.45 14.43,14.45 7.99,0 14.44,-6.46 14.44,-14.45 0,-7.97 -6.45,-14.44 -14.44,-14.44 -7.99,0 -14.43,6.47 -14.43,14.44 z m 60.95,60.35 h -277.75 c -32.99,0 -59.74,-26.75 -59.74,-59.73 0,-32.98 26.75,-59.74 59.74,-59.74 h 277.75 c 6.29,0 11.45,5.14 11.45,11.44 v 96.6 c 0,6.3 -5.16,11.43 -11.45,11.43 z m 23.42,30.63 h -357.17 c -49.89,0 -90.37,-40.47 -90.37,-90.36 0,-49.9 40.48,-90.36 90.37,-90.36 h 357.17 c 9.53,0 17.3,7.77 17.3,17.29 v 146.14 c 0,9.52 -7.77,17.29 -17.3,17.29 z m -462.18,17.61 h 495.33 v -215.95 h -495.33 z" /><path
         id="path16"
         style="fill:none;stroke:#384d71;stroke-width:10.17000008;stroke-linecap:round;stroke-linejoin:round;stroke-miterlimit:10;stroke-dasharray:none;stroke-opacity:1"
         d="m 3123.54,1398.66 c -29.31,0 -47.1,-7.32 -67.01,-7.32 -31.12,0 -77.56,20.98 -77.56,58.55 0,37.57 46.44,58.56 77.56,58.56 19.91,0 37.7,-7.32 67.01,-7.32 m -119.32,-74.96 c 20.39,8.76 20.39,38.68 0,47.44 m 117.49,-49.33 c -47.76,-27.08 -128.1,-17.56 -128.1,25.61 0,43.17 80.34,52.69 128.1,25.62 m 22.29,-25.62 c 0,3.86 3.13,7 6.99,7 3.87,0 7,-3.14 7,-7 0,-3.87 -3.13,-6.99 -7,-6.99 -3.86,0 -6.99,3.12 -6.99,6.99 z m -22.29,-43.01 v 86.02 c 0,8.06 6.59,14.65 14.64,14.65 h 29.29 c 8.05,0 14.64,-6.59 14.64,-14.65 v -86.02 c 0,-8.05 -6.59,-14.65 -14.64,-14.65 h -29.29 c -8.05,0 -14.64,6.6 -14.64,14.65 z" /><path
         id="path18"
         style="fill:none;stroke:#384d71;stroke-width:10.17000008;stroke-linecap:round;stroke-linejoin:round;stroke-miterlimit:10;stroke-dasharray:none;stroke-opacity:1"
         d="m 3171.78,1791.46 v -11.82 m -5.91,5.91 h 11.82 m -41.95,0.02 c 0,2.39 1.94,4.36 4.36,4.36 2.4,0 4.35,-1.97 4.35,-4.36 0,-2.41 -1.95,-4.36 -4.35,-4.36 -2.42,0 -4.36,1.95 -4.36,4.36 z m 20.21,-42.96 v 85.89 H 3138 c -23.38,0 -29.84,-23.55 -29.84,-42.95 0,-19.37 6.46,-42.94 29.84,-42.94 z m -62.22,42.94 c 0,-44.89 25.7,-57.34 44.27,-57.34 h 48.45 v 114.7 H 3138 c -18.57,0 -44.27,-12.46 -44.27,-57.36 z" /><path
         id="path20"
         style="fill:none;stroke:#384d71;stroke-width:10.17000008;stroke-linecap:round;stroke-linejoin:round;stroke-miterlimit:10;stroke-dasharray:none;stroke-opacity:1"
         d="m 286.898,3264.53 v 173.09 H 92.1406 m 33.7184,-190.17 v -137.86 m 50,30.7 c 0,-7.77 -6.289,-14.06 -14.05,-14.06 -7.758,0 -14.059,6.29 -14.059,14.06 0,7.75 6.301,14.03 14.059,14.03 7.761,0 14.05,-6.28 14.05,-14.03 z m 0,76.48 c 0,-7.76 -6.289,-14.06 -14.05,-14.06 -7.758,0 -14.059,6.3 -14.059,14.06 0,7.76 6.301,14.05 14.059,14.05 7.761,0 14.05,-6.29 14.05,-14.05 z m 70.192,-76.48 c 0,-7.77 -6.301,-14.06 -14.063,-14.06 -7.758,0 -14.05,6.29 -14.05,14.06 0,7.75 6.292,14.03 14.05,14.03 7.762,0 14.063,-6.28 14.063,-14.03 z m 0,76.48 c 0,-7.76 -6.301,-14.06 -14.063,-14.06 -7.758,0 -14.05,6.3 -14.05,14.06 0,7.76 6.292,14.05 14.05,14.05 7.762,0 14.063,-6.29 14.063,-14.05 z M 269.82,3109.59 H 105.117 v 137.87 H 269.82 Z M 129.508,2752.14 v -68.32 m 120.781,68.32 v -68.32 m -17.262,68.31 v -68.31 m -17.238,68.31 v -68.31 m -17.262,68.31 v -68.31 m -17.257,68.31 v -68.31 m -17.25,68.31 v -68.31 m -17.25,68.31 v -68.31 m 2.257,164.13 v -17.07 m 13.411,8.54 h -45.629 m 157.879,48.81 v -97.61 c 0,-9.76 -7.989,-17.76 -17.75,-17.76 H 134.559 c -9.758,0 -17.75,8 -17.75,17.76 v 97.61 c 0,9.75 7.992,17.75 17.75,17.75 h 122.379 c 9.761,0 17.75,-8 17.75,-17.75 z m 12.21,204.29 H 88.0195 M 286.898,2924.14 H 88.0195 m 0,340.39 H 286.898 V 2659.41 H 88.0195" /><path
         id="path22"
         style="fill:#384d71;fill-opacity:1;fill-rule:evenodd;stroke:none"
         d="M 88.0234,2474.13 H 841.531 v 34.06 H 88.0234 V 3775.26 H 444.184 v 82.94 H 5.08203 V 1961.5 H 656.242 v 82.94 H 88.0234 Z M 2220.89,1232.7 h 92.65 v 34.06 h -92.65 v 402.38 H 573.301 v -82.93 H 2137.95 V 5.08594 h 371.16 V 88.0273 h -288.22 z m -23.57,1004.67 v 1107.61 h 192.39 v 82.93 h -143.53 v 430.29 h -267.26 l -107.47,107.47 -58.64,-58.65 131.75,-131.76 h 218.68 V 2237.37 h -349.98 v -34.07 h 500.28 v 34.07 z m 411.75,-970.61 v 75.04 h -34.08 v -109.1 h 625.87 V 88.0273 h -259.4 V 5.08594 H 3283.8 V 3858.2 h -82.94 v -430.29 h -335.57 v -82.93 h 335.57 V 2237.37 h -625.87 v -302.64 h 34.08 v 268.57 h 591.79 v -568.02 h -591.79 v 95.64 h -34.08 v -185.29 h 34.08 v 55.58 h 591.79 V 1266.76 Z M 876.531,3775.26 v 82.94 h 420.629 l 107.47,107.47 58.64,-58.65 -131.76,-131.76 H 1137.05 V 2461.51 l 225.01,-224.14 h 74.45 v -34.07 h -88.53 c -81.66,81.36 -163.32,162.71 -244.99,244.06 v 1327.9" /><path
         id="path24"
         style="fill:none;stroke:#384d71;stroke-width:10.17000008;stroke-linecap:round;stroke-linejoin:round;stroke-miterlimit:10;stroke-dasharray:none;stroke-opacity:1"
         d="M 88.0234,2474.13 H 841.531 v 34.06 H 88.0234 V 3775.26 H 444.184 v 82.94 H 5.08203 V 1961.5 H 656.242 v 82.94 H 88.0234 Z M 2220.89,1232.7 h 92.65 v 34.06 h -92.65 v 402.38 H 573.301 v -82.93 H 2137.95 V 5.08594 h 371.16 V 88.0273 h -288.22 z m -23.57,1004.67 v 1107.61 h 192.39 v 82.93 h -143.53 v 430.29 h -267.26 l -107.47,107.47 -58.64,-58.65 131.75,-131.76 h 218.68 V 2237.37 h -349.98 v -34.07 h 500.28 v 34.07 z m 411.75,-970.61 v 75.04 h -34.08 v -109.1 h 625.87 V 88.0273 h -259.4 V 5.08594 H 3283.8 V 3858.2 h -82.94 v -430.29 h -335.57 v -82.93 h 335.57 V 2237.37 h -625.87 v -302.64 h 34.08 v 268.57 h 591.79 v -568.02 h -591.79 v 95.64 h -34.08 v -185.29 h 34.08 v 55.58 h 591.79 V 1266.76 Z M 876.531,3775.26 v 82.94 h 420.629 l 107.47,107.47 58.64,-58.65 -131.76,-131.76 H 1137.05 V 2461.51 l 225.01,-224.14 h 74.45 v -34.07 h -88.53 c -81.66,81.36 -163.32,162.71 -244.99,244.06 v 1327.9 z" /><path
         id="path26"
         style="fill:#ffffff;fill-opacity:1;fill-rule:evenodd;stroke:none"
         d="m 1421.91,3948.39 56.7,56.7 h 318.87 l 56.7,-56.7 -24.09,-24.09 -46.72,46.73 H 1492.72 L 1446,3924.3" /><path
         id="path28"
         style="fill:none;stroke:#384d71;stroke-width:10.17000008;stroke-linecap:round;stroke-linejoin:round;stroke-miterlimit:10;stroke-dasharray:none;stroke-opacity:1"
         d="m 1421.91,3948.39 56.7,56.7 h 318.87 l 56.7,-56.7 -24.09,-24.09 -46.72,46.73 H 1492.72 L 1446,3924.3 Z" /><path
         id="path30"
         style="fill:#ffffff;fill-opacity:1;fill-rule:nonzero;stroke:none"
         d="m 444.18,3799.69 h 432.34 v 34.0703 H 444.18 Z" /><path
         id="path32"
         style="fill:none;stroke:#384c71;stroke-width:10.17000008;stroke-linecap:round;stroke-linejoin:round;stroke-miterlimit:22.9260006;stroke-dasharray:none;stroke-opacity:1"
         d="m 444.18,3799.69 h 432.34 v 34.0703 H 444.18 Z" /><path
         id="path34"
         style="fill:#ffffff;fill-opacity:1;fill-rule:nonzero;stroke:none"
         d="m 2605.89,3369.41 h 259.398 v 34.0703 H 2605.89 Z" /><path
         id="path36"
         style="fill:none;stroke:#384c71;stroke-width:10.17000008;stroke-linecap:round;stroke-linejoin:round;stroke-miterlimit:22.9260006;stroke-dasharray:none;stroke-opacity:1"
         d="m 2605.89,3369.41 h 259.398 v 34.0703 H 2605.89 Z" /><path
         id="path38"
         style="fill:#ffffff;fill-opacity:1;fill-rule:nonzero;stroke:none"
         d="m 2246.19,3824.13 h 954.68 v 34.0703 h -954.68 z" /><path
         id="path40"
         style="fill:none;stroke:#384c71;stroke-width:10.17000008;stroke-linecap:round;stroke-linejoin:round;stroke-miterlimit:22.9260006;stroke-dasharray:none;stroke-opacity:1"
         d="m 2246.19,3824.13 h 954.68 v 34.0703 h -954.68 z" /><path
         id="path42"
         style="fill:#ffffff;fill-opacity:1;fill-rule:nonzero;stroke:none"
         d="m 2509.12,29.5195 h 432.34 v 34.0586 h -432.34 z" /><path
         id="path44"
         style="fill:none;stroke:#384c71;stroke-width:10.17000008;stroke-linecap:round;stroke-linejoin:round;stroke-miterlimit:22.9260006;stroke-dasharray:none;stroke-opacity:1"
         d="m 2509.12,29.5195 h 432.34 v 34.0586 h -432.34 z" /><path
         id="path46"
         style="fill:none;stroke:#384c71;stroke-width:20.35000038;stroke-linecap:round;stroke-linejoin:round;stroke-miterlimit:22.9260006;stroke-dasharray:none;stroke-opacity:1"
         d="m 2313.54,1232.7 226.47,-131.77" /><path
         id="path48"
         style="fill:none;stroke:#384c71;stroke-width:20.35000038;stroke-linecap:round;stroke-linejoin:round;stroke-miterlimit:22.9260006;stroke-dasharray:none;stroke-opacity:1"
         d="m 2609.08,1341.81 103.87,177.06" /><path
         id="path50"
         style="fill:none;stroke:#384c71;stroke-width:20.35000038;stroke-linecap:round;stroke-linejoin:round;stroke-miterlimit:22.9260006;stroke-dasharray:none;stroke-opacity:1"
         d="M 2575,1934.73 2472.07,1757.69" /><path
         id="path52"
         style="fill:none;stroke:#384c71;stroke-width:20.35000038;stroke-linecap:round;stroke-linejoin:round;stroke-miterlimit:22.9260006;stroke-dasharray:none;stroke-opacity:1"
         d="M 2575,2202.36 2348.54,2072.67" /><path
         id="path54"
         style="fill:none;stroke:#384c71;stroke-width:20.35000038;stroke-linecap:round;stroke-linejoin:round;stroke-miterlimit:22.9260006;stroke-dasharray:none;stroke-opacity:1"
         d="M 427.129,1922.38 573.301,1669.15" /><path
         id="path56"
         style="fill:none;stroke:#384c71;stroke-width:20.35000038;stroke-linecap:round;stroke-linejoin:round;stroke-miterlimit:22.9260006;stroke-dasharray:none;stroke-opacity:1"
         d="M 876.527,2628.54 1102.99,2496.77" /><path
         id="path58"
         style="fill:none;stroke:#384c71;stroke-width:20.35000038;stroke-linecap:round;stroke-linejoin:round;stroke-miterlimit:22.9260006;stroke-dasharray:none;stroke-opacity:1"
         d="m 1436.52,2202.36 113.22,-80.29" /><path
         id="path60"
         style="fill:none;stroke:#384c71;stroke-width:20.35000038;stroke-linecap:round;stroke-linejoin:round;stroke-miterlimit:22.9260006;stroke-dasharray:none;stroke-opacity:1"
         d="m 1599.16,2078.84 214.11,123.53" /><path
         id="path62"
         style="fill:none;stroke:#384c71;stroke-width:20.35000038;stroke-linecap:round;stroke-linejoin:round;stroke-miterlimit:22.9260006;stroke-dasharray:none;stroke-opacity:1"
         d="m 2389.71,3344.98 187.35,-109.11" /><path
         id="path64"
         style="fill:none;stroke:#384d71;stroke-width:10.17000008;stroke-linecap:round;stroke-linejoin:round;stroke-miterlimit:10;stroke-dasharray:none;stroke-opacity:1"
         d="m 2728.16,377.82 c 63.48,0 115.26,51.793 115.26,115.262 0,63.512 -51.78,115.289 -115.26,115.289 -63.51,0 -115.29,-51.777 -115.29,-115.289 0,-63.469 51.78,-115.262 115.29,-115.262 z" /><g
         transform="scale(10)"
         id="g66"><text
           id="text70"
           style="font-variant:normal;font-weight:bold;font-size:15.80370045px;font-family:Roboto;-inkscape-font-specification:Roboto-Bold;writing-mode:lr-tb;fill:#000000;fill-opacity:1;fill-rule:nonzero;stroke:none"
           transform="matrix(1,0,0,-1,268.595,43.6105)"><tspan
             id="tspan68"
             y="0"
             x="0">3</tspan></text>
<text
           id="text74"
           style="font-variant:normal;font-weight:normal;font-size:10.81429958px;font-family:Roboto;-inkscape-font-specification:Roboto-Regular;writing-mode:lr-tb;fill:#000000;fill-opacity:1;fill-rule:nonzero;stroke:none"
           transform="matrix(1,0,0,-1,259.42703,25.2996)"><tspan
             id="tspan72"
             y="0"
             x="0 6.0884509 12.176902 15.075134 21.163586">13.40</tspan></text>
</g><path
         id="path76"
         style="fill:none;stroke:#384d71;stroke-width:10.17000008;stroke-linecap:round;stroke-linejoin:round;stroke-miterlimit:10;stroke-dasharray:none;stroke-opacity:1"
         d="m 2957.88,956.926 c 63.51,0 115.28,51.784 115.28,115.274 0,63.5 -51.77,115.27 -115.28,115.27 -63.49,0 -115.26,-51.77 -115.26,-115.27 0,-63.49 51.77,-115.274 115.26,-115.274 z" /><g
         transform="scale(10)"
         id="g78"><text
           id="text82"
           style="font-variant:normal;font-weight:bold;font-size:15.80370045px;font-family:Roboto;-inkscape-font-specification:Roboto-Bold;writing-mode:lr-tb;fill:#000000;fill-opacity:1;fill-rule:nonzero;stroke:none"
           transform="matrix(1,0,0,-1,291.569,101.521)"><tspan
             id="tspan80"
             y="0"
             x="0">6</tspan></text>
<text
           id="text86"
           style="font-variant:normal;font-weight:normal;font-size:10.81429958px;font-family:Roboto;-inkscape-font-specification:Roboto-Regular;writing-mode:lr-tb;fill:#000000;fill-opacity:1;fill-rule:nonzero;stroke:none"
           transform="matrix(1,0,0,-1,285.44595,83.2105)"><tspan
             id="tspan84"
             y="0"
             x="0 6.0884509 8.9866829 15.075134">1.97</tspan></text>
</g><path
         id="path88"
         style="fill:none;stroke:#384d71;stroke-width:10.17000008;stroke-linecap:round;stroke-linejoin:round;stroke-miterlimit:10;stroke-dasharray:none;stroke-opacity:1"
         d="m 2895.33,2488.39 c 63.49,0 115.27,51.79 115.27,115.29 0,63.47 -51.78,115.27 -115.27,115.27 -63.49,0 -115.27,-51.8 -115.27,-115.27 0,-63.5 51.78,-115.29 115.27,-115.29 z" /><g
         transform="scale(10)"
         id="g90"><text
           id="text94"
           style="font-variant:normal;font-weight:bold;font-size:15.80370045px;font-family:Roboto;-inkscape-font-specification:Roboto-Bold;writing-mode:lr-tb;fill:#000000;fill-opacity:1;fill-rule:nonzero;stroke:none"
           transform="matrix(1,0,0,-1,285.313,254.668)"><tspan
             id="tspan92"
             y="0"
             x="0">5</tspan></text>
<text
           id="text98"
           style="font-variant:normal;font-weight:normal;font-size:10.81429958px;font-family:Roboto;-inkscape-font-specification:Roboto-Regular;writing-mode:lr-tb;fill:#000000;fill-opacity:1;fill-rule:nonzero;stroke:none"
           transform="matrix(1,0,0,-1,279.18917,236.3559)"><tspan
             id="tspan96"
             y="0"
             x="0 6.0884509 8.9866829 15.075134">3.79</tspan></text>
</g><path
         id="path100"
         style="fill:none;stroke:#384d71;stroke-width:10.17000008;stroke-linecap:round;stroke-linejoin:round;stroke-miterlimit:10;stroke-dasharray:none;stroke-opacity:1"
         d="m 993.668,1994 c 63.492,0 115.282,51.79 115.282,115.29 0,63.48 -51.79,115.27 -115.282,115.27 -63.5,0 -115.27,-51.79 -115.27,-115.27 0,-63.5 51.77,-115.29 115.27,-115.29 z" /><g
         transform="scale(10)"
         id="g102"><text
           id="text106"
           style="font-variant:normal;font-weight:bold;font-size:15.80370045px;font-family:Roboto;-inkscape-font-specification:Roboto-Bold;writing-mode:lr-tb;fill:#000000;fill-opacity:1;fill-rule:nonzero;stroke:none"
           transform="matrix(1,0,0,-1,95.1469,205.23)"><tspan
             id="tspan104"
             y="0"
             x="0">1</tspan></text>
<text
           id="text110"
           style="font-variant:normal;font-weight:normal;font-size:10.81429958px;font-family:Roboto;-inkscape-font-specification:Roboto-Regular;writing-mode:lr-tb;fill:#000000;fill-opacity:1;fill-rule:nonzero;stroke:none"
           transform="matrix(1,0,0,-1,85.97893,186.9187)"><tspan
             id="tspan108"
             y="0"
             x="0 6.0884509 12.176902 15.075134 21.163586">18.90</tspan></text>
</g><path
         id="path112"
         style="fill:none;stroke:#384d71;stroke-width:10.17000008;stroke-linecap:round;stroke-linejoin:round;stroke-miterlimit:10;stroke-dasharray:none;stroke-opacity:1"
         d="m 2715,2974.35 c 63.5,0 115.27,51.79 115.27,115.28 0,63.48 -51.77,115.27 -115.27,115.27 -63.5,0 -115.27,-51.79 -115.27,-115.27 0,-63.49 51.77,-115.28 115.27,-115.28 z" /><g
         transform="scale(10)"
         id="g114"><text
           id="text118"
           style="font-variant:normal;font-weight:bold;font-size:15.80370045px;font-family:Roboto;-inkscape-font-specification:Roboto-Bold;writing-mode:lr-tb;fill:#000000;fill-opacity:1;fill-rule:nonzero;stroke:none"
           transform="matrix(1,0,0,-1,267.281,303.264)"><tspan
             id="tspan116"
             y="0"
             x="0">3</tspan></text>
<text
           id="text122"
           style="font-variant:normal;font-weight:normal;font-size:10.81429958px;font-family:Roboto;-inkscape-font-specification:Roboto-Regular;writing-mode:lr-tb;fill:#000000;fill-opacity:1;fill-rule:nonzero;stroke:none"
           transform="matrix(1,0,0,-1,258.11303,284.9538)"><tspan
             id="tspan120"
             y="0"
             x="0 6.0884509 12.176902 15.075134 21.163586">13.50</tspan></text>
</g><path
         id="path124"
         style="fill:none;stroke:#384d71;stroke-width:10.17000008;stroke-linecap:round;stroke-linejoin:round;stroke-miterlimit:10;stroke-dasharray:none;stroke-opacity:1"
         d="m 2680,3548.83 c 63.5,0 115.27,51.79 115.27,115.27 0,63.49 -51.77,115.28 -115.27,115.28 -63.5,0 -115.27,-51.79 -115.27,-115.28 0,-63.48 51.77,-115.27 115.27,-115.27 z" /><g
         transform="scale(10)"
         id="g126"><text
           id="text130"
           style="font-variant:normal;font-weight:bold;font-size:15.80370045px;font-family:Roboto;-inkscape-font-specification:Roboto-Bold;writing-mode:lr-tb;fill:#000000;fill-opacity:1;fill-rule:nonzero;stroke:none"
           transform="matrix(1,0,0,-1,263.78,360.712)"><tspan
             id="tspan128"
             y="0"
             x="0">8</tspan></text>
<text
           id="text134"
           style="font-variant:normal;font-weight:normal;font-size:10.81429958px;font-family:Roboto;-inkscape-font-specification:Roboto-Regular;writing-mode:lr-tb;fill:#000000;fill-opacity:1;fill-rule:nonzero;stroke:none"
           transform="matrix(1,0,0,-1,257.65617,342.4003)"><tspan
             id="tspan132"
             y="0"
             x="0 6.0884509 8.9866829 15.075134">4.30</tspan></text>
</g><path
         id="path136"
         style="fill:none;stroke:#384d71;stroke-width:10.17000008;stroke-linecap:round;stroke-linejoin:round;stroke-miterlimit:10;stroke-dasharray:none;stroke-opacity:1"
         d="m 1625.14,2997.68 c 63.49,0 115.27,51.78 115.27,115.27 0,63.49 -51.78,115.27 -115.27,115.27 -63.48,0 -115.27,-51.78 -115.27,-115.27 0,-63.49 51.79,-115.27 115.27,-115.27 z" /><g
         transform="scale(10)"
         id="g138"><text
           id="text142"
           style="font-variant:normal;font-weight:bold;font-size:15.80370045px;font-family:Roboto;-inkscape-font-specification:Roboto-Bold;writing-mode:lr-tb;fill:#000000;fill-opacity:1;fill-rule:nonzero;stroke:none"
           transform="matrix(1,0,0,-1,158.295,305.597)"><tspan
             id="tspan140"
             y="0"
             x="0">2</tspan></text>
<text
           id="text146"
           style="font-variant:normal;font-weight:normal;font-size:10.81429958px;font-family:Roboto;-inkscape-font-specification:Roboto-Regular;writing-mode:lr-tb;fill:#000000;fill-opacity:1;fill-rule:nonzero;stroke:none"
           transform="matrix(1,0,0,-1,149.12703,287.2849)"><tspan
             id="tspan144"
             y="0"
             x="0 6.0884509 12.176902 15.075134 21.163586">19.80</tspan></text>
</g><path
         id="path148"
         style="fill:none;stroke:#384d71;stroke-width:10.17000008;stroke-linecap:round;stroke-linejoin:round;stroke-miterlimit:10;stroke-dasharray:none;stroke-opacity:1"
         d="m 669.254,3088.36 c 63.5,0 115.277,51.79 115.277,115.28 0,63.49 -51.777,115.28 -115.277,115.28 -63.492,0 -115.27,-51.79 -115.27,-115.28 0,-63.49 51.778,-115.28 115.27,-115.28 z" /><g
         transform="scale(10)"
         id="g150"><text
           id="text154"
           style="font-variant:normal;font-weight:bold;font-size:15.80370045px;font-family:Roboto;-inkscape-font-specification:Roboto-Bold;writing-mode:lr-tb;fill:#000000;fill-opacity:1;fill-rule:nonzero;stroke:none"
           transform="matrix(1,0,0,-1,62.7066,314.666)"><tspan
             id="tspan152"
             y="0"
             x="0">4</tspan></text>
<text
           id="text158"
           style="font-variant:normal;font-weight:normal;font-size:10.81429958px;font-family:Roboto;-inkscape-font-specification:Roboto-Regular;writing-mode:lr-tb;fill:#000000;fill-opacity:1;fill-rule:nonzero;stroke:none"
           transform="matrix(1,0,0,-1,53.53863,296.3539)"><tspan
             id="tspan156"
             y="0"
             x="0 6.0884509 12.176902 15.075134 21.163586">14.20</tspan></text>
</g><path
         id="path160"
         style="fill:none;stroke:#000000;stroke-width:8.64999962;stroke-linecap:round;stroke-linejoin:round;stroke-miterlimit:22.9260006;stroke-dasharray:none;stroke-opacity:1"
         d="M 3074.42,2326.77 H 2648.04 V 1830.73" /><path
         id="path162"
         style="fill:none;stroke:#000000;stroke-width:8.64999962;stroke-linecap:round;stroke-linejoin:round;stroke-miterlimit:22.9260006;stroke-dasharray:none;stroke-opacity:1"
         d="m 3079.71,798.059 h -275.9 v 565.711" /></g></g></svg>