<?xml version="1.0" encoding="UTF-8" standalone="no"?>
<svg
   xmlns:dc="http://purl.org/dc/elements/1.1/"
   xmlns:cc="http://creativecommons.org/ns#"
   xmlns:rdf="http://www.w3.org/1999/02/22-rdf-syntax-ns#"
   xmlns:svg="http://www.w3.org/2000/svg"
   xmlns="http://www.w3.org/2000/svg"
   viewBox="0 0 501.21249 481.64999"
   height="481.64999"
   width="501.21249"
   xml:space="preserve"
   id="svg2"
   version="1.1"><metadata
     id="metadata8"><rdf:RDF><cc:Work
         rdf:about=""><dc:format>image/svg+xml</dc:format><dc:type
           rdf:resource="http://purl.org/dc/dcmitype/StillImage" /></cc:Work></rdf:RDF></metadata><defs
     id="defs6" /><g
     transform="matrix(1.25,0,0,-1.25,0,481.65)"
     id="g10"><g
       transform="scale(0.1)"
       id="g12"><path
         id="path14"
         style="fill:none;stroke:#384d71;stroke-width:9.71000004;stroke-linecap:round;stroke-linejoin:round;stroke-miterlimit:10;stroke-dasharray:none;stroke-opacity:1"
         d="m 1670.95,3414.25 h 14.62 m 31.42,0 h -14.61 m -8.41,-23.02 v 14.62 m 0,31.42 v -14.62 m 0,-22.19 c -7.61,0 -13.79,6.17 -13.79,13.79 0,7.62 6.18,13.79 13.79,13.79 7.63,0 13.8,-6.17 13.8,-13.79 0,-7.62 -6.17,-13.79 -13.8,-13.79 z m -57.62,58.22 v -265.27 c 0,-31.5 25.53,-57.05 57.05,-57.05 31.5,0 57.04,25.55 57.04,57.05 v 265.27 c 0,6.01 -4.9,10.93 -10.91,10.93 h -92.27 c -6.01,0 -10.91,-4.92 -10.91,-10.93 z m -29.26,22.37 v -341.13 c 0,-47.66 38.65,-86.3 86.31,-86.3 47.64,0 86.3,38.64 86.3,86.3 v 341.13 c 0,9.09 -7.42,16.52 -16.52,16.52 h -139.57 c -9.1,0 -16.52,-7.43 -16.52,-16.52 z m 189.43,-441.42 h -206.25 v 473.08 h 206.25 z" /><path
         id="path16"
         style="fill:none;stroke:#384d71;stroke-width:9.71000004;stroke-linecap:round;stroke-linejoin:round;stroke-miterlimit:10;stroke-dasharray:none;stroke-opacity:1"
         d="m 159.887,2316 c 27.98,0 44.992,7 64.019,7 29.723,0 74.071,-20.05 74.071,-55.93 0,-35.89 -44.348,-55.94 -74.071,-55.94 -19.027,0 -36.039,7 -64.019,7 m 113.972,71.59 c -19.48,-8.36 -19.48,-36.94 0,-45.32 m -112.211,47.13 c 45.61,25.86 122.34,16.77 122.34,-24.46 0,-41.24 -76.73,-50.32 -122.34,-24.47 m -21.289,24.47 c 0,-3.69 -3,-6.69 -6.691,-6.69 -3.691,0 -6.672,3 -6.672,6.69 0,3.69 2.981,6.67 6.672,6.67 3.691,0 6.691,-2.98 6.691,-6.67 z m 21.289,41.08 v -82.17 c 0,-7.69 -6.3,-13.97 -13.992,-13.97 h -27.968 c -7.7,0 -13.981,6.28 -13.981,13.97 v 82.17 c 0,7.69 6.281,13.97 13.981,13.97 h 27.968 c 7.692,0 13.992,-6.28 13.992,-13.97 z" /><path
         id="path18"
         style="fill:none;stroke:#384d71;stroke-width:9.71000004;stroke-linecap:round;stroke-linejoin:round;stroke-miterlimit:10;stroke-dasharray:none;stroke-opacity:1"
         d="m 173.949,2040.98 c 0,-3.91 -3.16,-7.07 -7.07,-7.07 -3.91,0 -7.078,3.16 -7.078,7.07 0,3.91 3.168,7.08 7.078,7.08 3.91,0 7.07,-3.17 7.07,-7.08 z m 48.59,0 c -0.129,12.11 -15.25,23.79 -34.687,23.79 -18.262,0 -40.204,-8.74 -40.204,-8.74 v -30.1 c 0,0 21.942,-8.73 40.204,-8.73 19.437,0 34.558,11.67 34.687,23.78 z m -91.398,-8.66 v 17.32 m 8.648,-8.66 H 122.48 m 114.309,0 c 0,18.55 -24.5,36.93 -57.258,37.72 l -73.82,1.81 v -79.04 l 73.82,1.79 c 32.758,0.8 57.258,19.18 57.258,37.72 z" /><path
         id="path20"
         style="fill:none;stroke:#384d71;stroke-width:9.71000004;stroke-linecap:round;stroke-linejoin:round;stroke-miterlimit:10;stroke-dasharray:none;stroke-opacity:1"
         d="m 119.711,1889.1 v 11.29 m 5.652,-5.65 H 114.07 m 40.071,-0.01 c 0,-2.3 -1.86,-4.16 -4.161,-4.16 -2.308,0 -4.16,1.86 -4.16,4.16 0,2.3 1.852,4.17 4.16,4.17 2.301,0 4.161,-1.87 4.161,-4.17 z m -19.309,41.02 v -82.01 h 17.148 c 22.321,0 28.512,22.49 28.512,41 0,18.53 -6.191,41.01 -28.512,41.01 z m 59.422,-41.01 c 0,42.89 -24.543,54.77 -42.274,54.77 h -46.269 v -109.53 h 46.269 c 17.731,0 42.274,11.87 42.274,54.76 z" /><path
         id="path22"
         style="fill:none;stroke:#384d71;stroke-width:9.71000004;stroke-linecap:round;stroke-linejoin:round;stroke-miterlimit:10;stroke-dasharray:none;stroke-opacity:1"
         d="M 274.023,1074.67 V 907.379 H 84.0742 m 36.1288,183.591 v 131.67 m 47.781,-29.31 c 0,7.4 -6.019,13.42 -13.429,13.42 -7.422,0 -13.434,-6.02 -13.434,-13.42 0,-7.41 6.012,-13.43 13.434,-13.43 7.41,0 13.429,6.02 13.429,13.43 z m 0,-73.04 c 0,7.41 -6.019,13.41 -13.429,13.41 -7.422,0 -13.434,-6 -13.434,-13.41 0,-7.42 6.012,-13.43 13.434,-13.43 7.41,0 13.429,6.01 13.429,13.43 z m 67.02,73.04 c 0,7.4 -6.012,13.42 -13.43,13.42 -7.402,0 -13.422,-6.02 -13.422,-13.42 0,-7.41 6.02,-13.43 13.422,-13.43 7.418,0 13.43,6.02 13.43,13.43 z m 0,-73.04 c 0,7.41 -6.012,13.41 -13.43,13.41 -7.402,0 -13.422,-6 -13.422,-13.41 0,-7.42 6.02,-13.43 13.422,-13.43 7.418,0 13.43,6.01 13.43,13.43 z m 22.699,102.35 H 100.414 v -131.67 h 157.289 z m -134,341.41 v 65.25 m 115.352,-65.25 v 65.25 m -16.481,-65.25 v 65.25 m -16.472,-65.25 v 65.25 m -16.481,-65.25 v 65.25 m -16.488,-65.25 v 65.25 m -16.481,-65.25 v 65.25 m -16.468,-65.25 v 65.25 m 2.168,-156.78 v 16.31 m 12.8,-8.15 h -43.578 m 150.789,-46.61 v 93.22 c 0,9.32 -7.629,16.95 -16.949,16.95 H 128.523 c -9.32,0 -16.96,-7.63 -16.96,-16.95 v -93.22 c 0,-9.33 7.64,-16.95 16.96,-16.95 h 116.891 c 9.32,0 16.949,7.62 16.949,16.95 z m 11.66,-195.11 H 84.0742 M 274.023,1399.75 H 84.0742 m 0,-325.08 H 274.023 V 1652.6 H 84.0742" /><path
         id="path24"
         style="fill:none;stroke:#384d71;stroke-width:9.71000004;stroke-linecap:round;stroke-linejoin:round;stroke-miterlimit:10;stroke-dasharray:none;stroke-opacity:1"
         d="m 1371.68,3543.29 c -5.52,-5.52 -14.43,-5.52 -19.95,0 -5.5,5.51 -5.5,14.42 0,19.94 5.52,5.5 14.43,5.5 19.95,0 5.5,-5.52 5.5,-14.43 0,-19.94 z m -66,64.05 -7.98,7.98 m 0,-7.98 7.98,7.98 m -34.25,-72.38 9.55,-9.53 c 27.22,-27.24 71.4,-27.24 98.63,0 27.25,27.23 27.25,71.39 0,98.64 l -9.52,9.54 c -5.36,5.36 -14.11,5.36 -19.46,0 l -79.2,-79.18 c -5.36,-5.37 -5.36,-14.11 0,-19.47 z m -37.54,18.08 37.34,-37.34 c 32.61,-32.61 85.5,-32.61 118.11,0 32.62,32.6 32.62,85.5 0,118.11 l -37.34,37.35 z" /><path
         id="path26"
         style="fill:none;stroke:#384d71;stroke-width:9.71000004;stroke-linecap:round;stroke-linejoin:round;stroke-miterlimit:10;stroke-dasharray:none;stroke-opacity:1"
         d="m 3453.21,969.617 c 60.62,0 110.09,49.463 110.09,110.103 0,60.64 -49.47,110.1 -110.09,110.1 -60.65,0 -110.12,-49.46 -110.12,-110.1 0,-60.64 49.47,-110.103 110.12,-110.103 z" /><g
         transform="scale(10)"
         id="g28"><text
           id="text32"
           style="font-variant:normal;font-weight:bold;font-size:15.09389973px;font-family:Roboto;-inkscape-font-specification:Roboto-Bold;writing-mode:lr-tb;fill:#000000;fill-opacity:1;fill-rule:nonzero;stroke:none"
           transform="matrix(1,0,0,-1,341.29,102.528)"><tspan
             id="tspan30"
             y="0"
             x="0">9</tspan></text>
<text
           id="text36"
           style="font-variant:normal;font-weight:normal;font-size:10.32859993px;font-family:Roboto;-inkscape-font-specification:Roboto-Regular;writing-mode:lr-tb;fill:#000000;fill-opacity:1;fill-rule:nonzero;stroke:none"
           transform="matrix(1,0,0,-1,338.34859,85.0397)"><tspan
             id="tspan34"
             y="0"
             x="0 5.815002 8.5777445">6.4</tspan></text>
</g><path
         id="path38"
         style="fill:none;stroke:#384d71;stroke-width:9.71000004;stroke-linecap:round;stroke-linejoin:round;stroke-miterlimit:10;stroke-dasharray:none;stroke-opacity:1"
         d="m 766.133,199.238 c 60.64,0 110.101,49.442 110.101,110.09 0,60.641 -49.461,110.102 -110.101,110.102 -60.629,0 -110.09,-49.461 -110.09,-110.102 0,-60.648 49.461,-110.09 110.09,-110.09 z" /><g
         transform="scale(10)"
         id="g40"><text
           id="text44"
           style="font-variant:normal;font-weight:bold;font-size:15.09389973px;font-family:Roboto;-inkscape-font-specification:Roboto-Bold;writing-mode:lr-tb;fill:#000000;fill-opacity:1;fill-rule:nonzero;stroke:none"
           transform="matrix(1,0,0,-1,72.584,25.4895)"><tspan
             id="tspan42"
             y="0"
             x="0">9</tspan></text>
<text
           id="text48"
           style="font-variant:normal;font-weight:normal;font-size:10.32859993px;font-family:Roboto;-inkscape-font-specification:Roboto-Regular;writing-mode:lr-tb;fill:#000000;fill-opacity:1;fill-rule:nonzero;stroke:none"
           transform="matrix(1,0,0,-1,69.64377,8)"><tspan
             id="tspan46"
             y="0"
             x="0 5.815002 8.5830669">3.3</tspan></text>
</g><path
         id="path50"
         style="fill:none;stroke:#384d71;stroke-width:9.71000004;stroke-linecap:round;stroke-linejoin:round;stroke-miterlimit:10;stroke-dasharray:none;stroke-opacity:1"
         d="m 590.328,981.602 c 60.641,0 110.09,49.458 110.09,110.108 0,60.63 -49.449,110.09 -110.09,110.09 -60.64,0 -110.101,-49.46 -110.101,-110.09 0,-60.65 49.461,-110.108 110.101,-110.108 z" /><g
         transform="scale(10)"
         id="g52"><text
           id="text56"
           style="font-variant:normal;font-weight:bold;font-size:15.09389973px;font-family:Roboto;-inkscape-font-specification:Roboto-Bold;writing-mode:lr-tb;fill:#000000;fill-opacity:1;fill-rule:nonzero;stroke:none"
           transform="matrix(1,0,0,-1,55.0035,103.727)"><tspan
             id="tspan54"
             y="0"
             x="0">4</tspan></text>
<text
           id="text60"
           style="font-variant:normal;font-weight:normal;font-size:10.32859993px;font-family:Roboto;-inkscape-font-specification:Roboto-Regular;writing-mode:lr-tb;fill:#000000;fill-opacity:1;fill-rule:nonzero;stroke:none"
           transform="matrix(1,0,0,-1,46.24764,86.2387)"><tspan
             id="tspan58"
             y="0"
             x="0 5.815002 11.630004 14.398068 20.21307">12.67</tspan></text>
</g><path
         id="path62"
         style="fill:none;stroke:#384d71;stroke-width:9.71000004;stroke-linecap:round;stroke-linejoin:round;stroke-miterlimit:10;stroke-dasharray:none;stroke-opacity:1"
         d="m 2575.14,1445.23 c 60.64,0 110.11,49.47 110.11,110.11 0,60.63 -49.47,110.09 -110.11,110.09 -60.63,0 -110.1,-49.46 -110.1,-110.09 0,-60.64 49.47,-110.11 110.1,-110.11 z" /><g
         transform="scale(10)"
         id="g64"><text
           id="text68"
           style="font-variant:normal;font-weight:bold;font-size:15.09389973px;font-family:Roboto;-inkscape-font-specification:Roboto-Bold;writing-mode:lr-tb;fill:#000000;fill-opacity:1;fill-rule:nonzero;stroke:none"
           transform="matrix(1,0,0,-1,253.484,150.091)"><tspan
             id="tspan66"
             y="0"
             x="0">2</tspan></text>
<text
           id="text72"
           style="font-variant:normal;font-weight:normal;font-size:10.32859993px;font-family:Roboto;-inkscape-font-specification:Roboto-Regular;writing-mode:lr-tb;fill:#000000;fill-opacity:1;fill-rule:nonzero;stroke:none"
           transform="matrix(1,0,0,-1,244.72814,132.6027)"><tspan
             id="tspan70"
             y="0"
             x="0 5.815002 11.630004 14.398068 20.21307">20.70</tspan></text>
</g><path
         id="path74"
         style="fill:none;stroke:#384d71;stroke-width:9.71000004;stroke-linecap:round;stroke-linejoin:round;stroke-miterlimit:10;stroke-dasharray:none;stroke-opacity:1"
         d="m 1384.88,1195.79 c 60.63,0 110.09,49.45 110.09,110.1 0,60.63 -49.46,110.1 -110.09,110.1 -60.65,0 -110.11,-49.47 -110.11,-110.1 0,-60.65 49.46,-110.1 110.11,-110.1 z" /><g
         transform="scale(10)"
         id="g76"><text
           id="text80"
           style="font-variant:normal;font-weight:bold;font-size:15.09389973px;font-family:Roboto;-inkscape-font-specification:Roboto-Bold;writing-mode:lr-tb;fill:#000000;fill-opacity:1;fill-rule:nonzero;stroke:none"
           transform="matrix(1,0,0,-1,134.458,125.145)"><tspan
             id="tspan78"
             y="0"
             x="0">3</tspan></text>
<text
           id="text84"
           style="font-variant:normal;font-weight:normal;font-size:10.32859993px;font-family:Roboto;-inkscape-font-specification:Roboto-Regular;writing-mode:lr-tb;fill:#000000;fill-opacity:1;fill-rule:nonzero;stroke:none"
           transform="matrix(1,0,0,-1,125.70214,107.6559)"><tspan
             id="tspan82"
             y="0"
             x="0 5.815002 11.630004 14.398068 20.21307">17.70</tspan></text>
</g><path
         id="path86"
         style="fill:none;stroke:#384d71;stroke-width:9.71000004;stroke-linecap:round;stroke-linejoin:round;stroke-miterlimit:10;stroke-dasharray:none;stroke-opacity:1"
         d="m 404.527,1971.95 c 60.637,0 110.098,49.46 110.098,110.1 0,60.64 -49.461,110.1 -110.098,110.1 -60.64,0 -110.101,-49.46 -110.101,-110.1 0,-60.64 49.461,-110.1 110.101,-110.1 z" /><g
         transform="scale(10)"
         id="g88"><text
           id="text92"
           style="font-variant:normal;font-weight:bold;font-size:15.09389973px;font-family:Roboto;-inkscape-font-specification:Roboto-Bold;writing-mode:lr-tb;fill:#000000;fill-opacity:1;fill-rule:nonzero;stroke:none"
           transform="matrix(1,0,0,-1,36.4234,202.761)"><tspan
             id="tspan90"
             y="0"
             x="0">6</tspan></text>
<text
           id="text96"
           style="font-variant:normal;font-weight:normal;font-size:10.32859993px;font-family:Roboto;-inkscape-font-specification:Roboto-Regular;writing-mode:lr-tb;fill:#000000;fill-opacity:1;fill-rule:nonzero;stroke:none"
           transform="matrix(1,0,0,-1,30.57457,185.2723)"><tspan
             id="tspan94"
             y="0"
             x="0 5.815002 8.5830669 14.398068">4.24</tspan></text>
</g><path
         id="path98"
         style="fill:none;stroke:#384d71;stroke-width:9.71000004;stroke-linecap:round;stroke-linejoin:round;stroke-miterlimit:10;stroke-dasharray:none;stroke-opacity:1"
         d="m 1052.56,2361.71 c 60.65,0 110.11,49.47 110.11,110.1 0,60.64 -49.46,110.1 -110.11,110.1 -60.626,0 -110.087,-49.46 -110.087,-110.1 0,-60.63 49.461,-110.1 110.087,-110.1 z" /><g
         transform="scale(10)"
         id="g100"><text
           id="text104"
           style="font-variant:normal;font-weight:bold;font-size:15.09389973px;font-family:Roboto;-inkscape-font-specification:Roboto-Bold;writing-mode:lr-tb;fill:#000000;fill-opacity:1;fill-rule:nonzero;stroke:none"
           transform="matrix(1,0,0,-1,101.227,241.738)"><tspan
             id="tspan102"
             y="0"
             x="0">1</tspan></text>
<text
           id="text108"
           style="font-variant:normal;font-weight:normal;font-size:10.32859993px;font-family:Roboto;-inkscape-font-specification:Roboto-Regular;writing-mode:lr-tb;fill:#000000;fill-opacity:1;fill-rule:nonzero;stroke:none"
           transform="matrix(1,0,0,-1,95.37895,224.2497)"><tspan
             id="tspan106"
             y="0"
             x="0 5.815002 11.630004 14.398068">18.6</tspan></text>
</g><path
         id="path110"
         style="fill:none;stroke:#384d71;stroke-width:9.71000004;stroke-linecap:round;stroke-linejoin:round;stroke-miterlimit:10;stroke-dasharray:none;stroke-opacity:1"
         d="m 2882.75,2274.01 c 60.63,0 110.11,49.46 110.11,110.1 0,60.63 -49.48,110.1 -110.11,110.1 -60.64,0 -110.11,-49.47 -110.11,-110.1 0,-60.64 49.47,-110.1 110.11,-110.1 z" /><g
         transform="scale(10)"
         id="g112"><text
           id="text116"
           style="font-variant:normal;font-weight:bold;font-size:15.09389973px;font-family:Roboto;-inkscape-font-specification:Roboto-Bold;writing-mode:lr-tb;fill:#000000;fill-opacity:1;fill-rule:nonzero;stroke:none"
           transform="matrix(1,0,0,-1,284.246,232.968)"><tspan
             id="tspan114"
             y="0"
             x="0">3</tspan></text>
<text
           id="text120"
           style="font-variant:normal;font-weight:normal;font-size:10.32859993px;font-family:Roboto;-inkscape-font-specification:Roboto-Regular;writing-mode:lr-tb;fill:#000000;fill-opacity:1;fill-rule:nonzero;stroke:none"
           transform="matrix(1,0,0,-1,275.48936,215.4789)"><tspan
             id="tspan118"
             y="0"
             x="0 5.815002 11.630004 14.398068 20.21307">11.36</tspan></text>
</g><path
         id="path122"
         style="fill:none;stroke:#384d71;stroke-width:9.71000004;stroke-linecap:round;stroke-linejoin:round;stroke-miterlimit:10;stroke-dasharray:none;stroke-opacity:1"
         d="m 1308.46,3121.66 c 60.63,0 110.09,49.46 110.09,110.1 0,60.64 -49.46,110.1 -110.09,110.1 -60.65,0 -110.1,-49.46 -110.1,-110.1 0,-60.64 49.45,-110.1 110.1,-110.1 z" /><g
         transform="scale(10)"
         id="g124"><text
           id="text128"
           style="font-variant:normal;font-weight:bold;font-size:15.09389973px;font-family:Roboto;-inkscape-font-specification:Roboto-Bold;writing-mode:lr-tb;fill:#000000;fill-opacity:1;fill-rule:nonzero;stroke:none"
           transform="matrix(1,0,0,-1,126.815,317.732)"><tspan
             id="tspan126"
             y="0"
             x="0">5</tspan></text>
<text
           id="text132"
           style="font-variant:normal;font-weight:normal;font-size:10.32859993px;font-family:Roboto;-inkscape-font-specification:Roboto-Regular;writing-mode:lr-tb;fill:#000000;fill-opacity:1;fill-rule:nonzero;stroke:none"
           transform="matrix(1,0,0,-1,120.96617,300.2437)"><tspan
             id="tspan130"
             y="0"
             x="0 5.815002 8.5830669 14.398068">7.67</tspan></text>
</g><path
         id="path134"
         style="fill:#384c71;fill-opacity:1;fill-rule:evenodd;stroke:none"
         d="m 487.871,2477.55 v -32.53 H 84.082 v -757.91 h 403.789 v -32.54 H 84.082 V 462.992 H 422.281 V 383.785 H 84.082 V 4.85547 H 4.85938 V 2524.22 H 337.16 v 58.43 h 79.223 v -105.1 z M 337.16,2861.86 h 79.223 v 212.36 h 71.488 v 79.23 H 337.16 v -79.23 z m 150.711,-416.84 v 32.53 H 638.57 v -237.03 h -32.539 v 204.5 z m 0,-790.45 v 32.54 h 118.16 v 358.75 H 638.57 V 1654.57 H 606.031 Z M 1284.49,462.992 V 383.785 H 876.492 v 79.207 h 60.949 V 1815.81 l 55.059,55.05 23,-23 -45.52,-45.54 V 462.992 Z m 0,1637.908 v -32.52 h -48.46 l -43.56,-43.56 -7.27,7.27 -15.73,15.73 53.08,53.08 h 46.02 z m -796.619,973.32 h 146.77 c 48.5,18.35 96.992,36.71 145.511,55.07 l 97.321,97.32 311.647,-311.65 23.01,23 -311.65,311.65 384.01,384.02 v 112.03 L 736.172,3197.34 620.16,3153.45 H 487.871 Z M 3104.29,906.813 h 32.83 l 170.66,170.677 -56,56.01 -147.49,-147.477 v 0.012 h -544.65 v -79.222 h 478.18 z M 2273.62,1949.52 v 334.27 h -32.52 v -366.82 h 1303.65 v -490.5 l -146.98,-146.97 29,-29.01 27.01,-27.01 170.18,170.18 v 579.45 h -79.21 v -23.59 z m -989.13,118.86 v 32.52 h 560.48 V 986.035 h 219.17 V 906.813 H 1891.65 V 628.164 h -79.2 V 2068.38 Z m 0,-1605.388 h 115.03 v -79.219 h -115.03 z m 0,3170.638 102.63,102.64 206.43,-206.43 h 218.9 v -839.93 h -352.26 l -110.41,110.4 -23,-23 119.93,-119.93 H 2241.1 V 2533.5 h 32.52 v 123.88 h 1271.13 v -188.77 h 79.21 v 267.98 H 1891.65 v 872.46 h -265.28 l -183.23,183.24 -56.02,56.01 -56.01,-56.01 -46.62,-46.63" /><path
         id="path136"
         style="fill:none;stroke:#384c71;stroke-width:9.72000027;stroke-linecap:round;stroke-linejoin:round;stroke-miterlimit:22.9260006;stroke-dasharray:none;stroke-opacity:1"
         d="m 3104.29,906.816 h 32.83 l 170.67,170.664 -56.01,56.03 -147.49,-147.483 v 0.008 H 2559.64 V 906.816 Z M 606.027,2240.52 h 32.551 v 237.03 H 416.379 v 105.11 h -79.211 v -58.43 H 4.85547 V 4.85547 H 84.0781 V 383.777 H 422.277 v 79.219 H 84.0781 V 1654.57 H 638.578 v 391.3 H 606.027 V 1687.1 H 84.0781 v 757.92 H 606.027 Z m 586.453,-215.7 43.55,43.57 h 576.42 V 628.168 h 79.21 v 278.648 h 172.48 v 79.219 H 1844.98 V 2100.91 h -622.42 l -53.08,-53.09 15.72,-15.72 z m -222.503,-222.5 45.533,45.54 -23.014,23 -55.058,-55.06 V 462.996 h -60.95 v -79.219 h 523.042 v 79.219 H 969.977 Z m 1303.653,147.2 v 334.26 h -32.52 v -366.8 h 1303.65 v -490.5 l -146.98,-146.97 28.99,-29.01 27.01,-27.02 170.19,170.19 v 579.44 h -79.21 v -23.59 z M 337.168,2861.87 h 79.211 v 212.36 h 218.258 c 48.511,18.34 97,36.71 145.511,55.06 l 97.329,97.32 311.653,-311.65 23.01,23 -311.652,311.66 486.642,486.65 206.43,-206.42 h 218.89 V 2689.92 H 1460.2 l -110.42,110.4 -23,-23 119.93,-119.94 h 794.4 V 2533.5 h 32.52 v 123.88 h 1271.13 v -188.77 h 79.21 V 2736.6 H 1891.66 v 872.45 h -265.29 l -183.22,183.23 -56.02,56.02 -56.02,-56.02 -594.942,-594.94 -116.012,-43.89 H 337.168 Z" /><path
         id="path138"
         style="fill:#ffffff;fill-opacity:1;fill-rule:nonzero;stroke:none"
         d="m 3568.07,1973.11 h 32.5508 v 495.5 H 3568.07 Z" /><path
         id="path140"
         style="fill:none;stroke:#384c71;stroke-width:9.72000027;stroke-linecap:round;stroke-linejoin:round;stroke-miterlimit:22.9260006;stroke-dasharray:none;stroke-opacity:1"
         d="m 3568.07,1973.11 h 32.5508 v 495.5 H 3568.07 Z" /><path
         id="path142"
         style="fill:#ffffff;fill-opacity:1;fill-rule:nonzero;stroke:none"
         d="m 2064.14,930.16 h 495.5 v 32.5313 h -495.5 z" /><path
         id="path144"
         style="fill:none;stroke:#384c71;stroke-width:9.72000027;stroke-linecap:round;stroke-linejoin:round;stroke-miterlimit:22.9260006;stroke-dasharray:none;stroke-opacity:1"
         d="m 2064.14,930.16 h 495.5 v 32.5313 h -495.5 z" /><path
         id="path146"
         style="fill:#ffffff;fill-opacity:1;fill-rule:nonzero;stroke:none"
         d="M 1868.32,628.164 V 407.125 h -468.79 v 32.52 h 436.26 v 188.519" /><path
         id="path148"
         style="fill:none;stroke:#384c71;stroke-width:9.72000027;stroke-linecap:round;stroke-linejoin:round;stroke-miterlimit:22.9260006;stroke-dasharray:none;stroke-opacity:1"
         d="M 1868.32,628.164 V 407.125 h -468.79 v 32.52 h 436.26 v 188.519 z" /><path
         id="path150"
         style="fill:#ffffff;fill-opacity:1;fill-rule:nonzero;stroke:none"
         d="m 418.762,407.121 h 251.27 v 32.5273 h -251.27 z" /><path
         id="path152"
         style="fill:none;stroke:#384c71;stroke-width:9.72000027;stroke-linecap:round;stroke-linejoin:round;stroke-miterlimit:22.9260006;stroke-dasharray:none;stroke-opacity:1"
         d="m 418.762,407.121 h 251.27 v 32.5273 h -251.27 z" /><path
         id="path154"
         style="fill:#ffffff;fill-opacity:1;fill-rule:evenodd;stroke:none"
         d="M 84.0781,4.85547 V 37.3828 H 831.656 C 889.496,94.6445 947.348,151.895 1005.2,209.152 v 174.633 h 32.53 V 195.586 C 973.496,132.004 909.266,68.4258 845.027,4.85547" /><path
         id="path156"
         style="fill:none;stroke:#384c71;stroke-width:9.72000027;stroke-linecap:round;stroke-linejoin:round;stroke-miterlimit:22.9260006;stroke-dasharray:none;stroke-opacity:1"
         d="M 84.0781,4.85547 V 37.3828 H 831.656 C 889.496,94.6445 947.348,151.895 1005.2,209.152 v 174.633 h 32.53 V 195.586 C 973.496,132.004 909.266,68.4258 845.027,4.85547 Z" /><path
         id="path158"
         style="fill:none;stroke:#384c71;stroke-width:19.43000031;stroke-linecap:round;stroke-linejoin:round;stroke-miterlimit:22.9260006;stroke-dasharray:none;stroke-opacity:1"
         d="M 876.488,462.996 697.559,567.207" /><path
         id="path160"
         style="fill:none;stroke:#384c71;stroke-width:19.43000031;stroke-linecap:round;stroke-linejoin:round;stroke-miterlimit:22.9260006;stroke-dasharray:none;stroke-opacity:1"
         d="m 719.184,1528.72 218.261,125.85" /><path
         id="path162"
         style="fill:none;stroke:#384c71;stroke-width:19.43000031;stroke-linecap:round;stroke-linejoin:round;stroke-miterlimit:22.9260006;stroke-dasharray:none;stroke-opacity:1"
         d="M 1257.36,1912.73 1015.5,1847.86" /><path
         id="path164"
         style="fill:none;stroke:#384c71;stroke-width:19.43000031;stroke-linecap:round;stroke-linejoin:round;stroke-miterlimit:22.9260006;stroke-dasharray:none;stroke-opacity:1"
         d="m 634.641,2240.52 98.32,-169.1" /><path
         id="path166"
         style="fill:none;stroke:#384c71;stroke-width:19.43000031;stroke-linecap:round;stroke-linejoin:round;stroke-miterlimit:22.9260006;stroke-dasharray:none;stroke-opacity:1"
         d="M 197.555,2824.51 337.164,2582.66" /><path
         id="path168"
         style="fill:none;stroke:#384c71;stroke-width:19.43000031;stroke-linecap:round;stroke-linejoin:round;stroke-miterlimit:22.9260006;stroke-dasharray:none;stroke-opacity:1"
         d="m 1189.13,2914.96 49.16,-188.77" /><path
         id="path170"
         style="fill:none;stroke:#384c71;stroke-width:19.43000031;stroke-linecap:round;stroke-linejoin:round;stroke-miterlimit:22.9260006;stroke-dasharray:none;stroke-opacity:1"
         d="m 2241.11,2087.15 -204.5,117.98" /><path
         id="path172"
         style="fill:none;stroke:#384c71;stroke-width:19.43000031;stroke-linecap:round;stroke-linejoin:round;stroke-miterlimit:22.9260006;stroke-dasharray:none;stroke-opacity:1"
         d="m 1958.23,2163.83 -106.18,-76.68" /><path
         id="path174"
         style="fill:none;stroke:#384c71;stroke-width:19.43000031;stroke-linecap:round;stroke-linejoin:round;stroke-miterlimit:22.9260006;stroke-dasharray:none;stroke-opacity:1"
         d="M 2241.11,2533.5 2115.24,2317.2" /><path
         id="path176"
         style="fill:none;stroke:#384c71;stroke-width:19.43000031;stroke-linecap:round;stroke-linejoin:round;stroke-miterlimit:22.9260006;stroke-dasharray:none;stroke-opacity:1"
         d="m 3251.78,1133.51 53.09,198.59" /><path
         id="path178"
         style="fill:#ffffff;fill-opacity:1;fill-rule:evenodd;stroke:none"
         d="m 2781.82,906.816 h 32.54 V 558.445 h 447.53 c 236.82,236.821 473.63,473.625 710.43,710.445 v 449.5 h -348.36 v 32.53 h 380.91 V 1255.41 C 3761.69,1012.25 3518.53,769.086 3275.36,525.918 h -493.54" /><path
         id="path180"
         style="fill:none;stroke:#384c71;stroke-width:9.72000027;stroke-linecap:round;stroke-linejoin:round;stroke-miterlimit:22.9260006;stroke-dasharray:none;stroke-opacity:1"
         d="m 2781.82,906.816 h 32.54 V 558.445 h 447.53 c 236.82,236.821 473.63,473.625 710.43,710.445 v 449.5 h -348.36 v 32.53 h 380.91 V 1255.41 C 3761.69,1012.25 3518.53,769.086 3275.36,525.918 h -493.54 z" /></g></g></svg>