<svg id="SvgjsSvg1009" xmlns="http://www.w3.org/2000/svg" version="1.1" xmlns:xlink="http://www.w3.org/1999/xlink" xmlns:svgjs="http://svgjs.com/svgjs" width="66" height="66" viewBox="0 0 66 66"><title>Shape 1</title><desc>Created with Avocode.</desc><defs id="SvgjsDefs1010"></defs><path id="SvgjsPath1011" d="M1158.19 2042.44C1156.75 2039.63 1153.8300000000002 2037.81 1150.66 2037.81C1148.91 2037.81 1147.24 2038.36 1145.8500000000001 2039.33C1144.5900000000001 2037.3 1142.3500000000001 2036 1139.93 2036C1137.3700000000001 2036 1135.02 2037.44 1133.8100000000002 2039.66C1130.6100000000001 2039.8500000000001 1128.0700000000002 2042.5400000000002 1128.0700000000002 2045.8200000000002C1128.0700000000002 2046.5600000000002 1128.66 2047.15 1129.4 2047.15H1136.5C1136.16 2048 1135.98 2048.9300000000003 1135.98 2049.9100000000003C1135.98 2050.6400000000003 1136.58 2051.2300000000005 1137.31 2051.2300000000005H1164C1164.74 2051.2300000000005 1165.34 2050.6400000000003 1165.34 2049.9100000000003C1165.34 2045.8600000000004 1162.1499999999999 2042.5600000000004 1158.1899999999998 2042.4400000000003ZM1130.99 2044.5C1131.5 2043.21 1132.73 2042.31 1134.17 2042.31C1134.28 2042.31 1134.4 2042.31 1134.52 2042.33C1135.12 2042.3899999999999 1135.69 2042.04 1135.91 2041.47C1136.5400000000002 2039.79 1138.16 2038.66 1139.93 2038.66C1141.6200000000001 2038.66 1143.17 2039.69 1143.8600000000001 2041.26C1143.5800000000002 2041.6299999999999 1143.3400000000001 2042.02 1143.1200000000001 2042.44C1141.2500000000002 2042.5 1139.5500000000002 2043.27 1138.2700000000002 2044.5ZM1138.83 2048.58C1139.03 2047.87 1139.3799999999999 2047.22 1139.85 2046.6899999999998C1139.86 2046.6799999999998 1139.87 2046.6699999999998 1139.87 2046.6699999999998C1140.7399999999998 2045.6999999999998 1141.9799999999998 2045.09 1143.35 2045.09C1143.51 2045.09 1143.6699999999998 2045.1 1143.84 2045.12C1144.4399999999998 2045.1799999999998 1145.01 2044.83 1145.22 2044.26C1146.08 2041.99 1148.26 2040.46 1150.66 2040.46C1153.0500000000002 2040.46 1155.23 2041.99 1156.0900000000001 2044.26C1156.3000000000002 2044.83 1156.8700000000001 2045.18 1157.4700000000003 2045.12C1157.6400000000003 2045.1 1157.8000000000002 2045.09 1157.9600000000003 2045.09C1160.1100000000004 2045.09 1161.9200000000003 2046.57 1162.4900000000002 2048.58ZM1164.79 2085.65H1158.1599999999999C1157.4199999999998 2085.65 1156.82 2086.25 1156.82 2086.98C1156.82 2087.72 1157.4199999999998 2088.31 1158.1599999999999 2088.31H1164.79C1165.52 2088.31 1166.12 2087.72 1166.12 2086.98C1166.12 2086.25 1165.52 2085.65 1164.79 2085.65ZM1153.63 2085.65H1128.48C1127.75 2085.65 1127.15 2086.25 1127.15 2086.98C1127.15 2087.72 1127.75 2088.31 1128.48 2088.31H1153.63C1154.3600000000001 2088.31 1154.96 2087.72 1154.96 2086.98C1154.96 2086.25 1154.3600000000001 2085.65 1153.63 2085.65ZM1164.79 2092.03H1162.8C1162.07 2092.03 1161.47 2092.6200000000003 1161.47 2093.36C1161.47 2094.09 1162.07 2094.6800000000003 1162.8 2094.6800000000003H1164.79C1165.52 2094.6800000000003 1166.12 2094.09 1166.12 2093.36C1166.12 2092.6200000000003 1165.52 2092.03 1164.79 2092.03ZM1139.25 2092.03H1136.13C1135.39 2092.03 1134.8000000000002 2092.6200000000003 1134.8000000000002 2093.36C1134.8000000000002 2094.09 1135.39 2094.6800000000003 1136.13 2094.6800000000003H1139.25C1139.98 2094.6800000000003 1140.58 2094.09 1140.58 2093.36C1140.58 2092.6200000000003 1139.98 2092.03 1139.25 2092.03ZM1131.6 2092.03H1128.62C1127.8799999999999 2092.03 1127.28 2092.6200000000003 1127.28 2093.36C1127.28 2094.09 1127.8799999999999 2094.6800000000003 1128.62 2094.6800000000003H1131.6C1132.34 2094.6800000000003 1132.9299999999998 2094.09 1132.9299999999998 2093.36C1132.9299999999998 2092.6200000000003 1132.34 2092.03 1131.6 2092.03ZM1158.27 2092.03H1143.78C1143.04 2092.03 1142.44 2092.6200000000003 1142.44 2093.36C1142.44 2094.09 1143.04 2094.6800000000003 1143.78 2094.6800000000003H1158.27C1159.01 2094.6800000000003 1159.6 2094.09 1159.6 2093.36C1159.6 2092.6200000000003 1159.01 2092.03 1158.27 2092.03ZM1170.69 2088.31H1174.8200000000002C1177.3200000000002 2088.31 1179.3500000000001 2086.29 1179.3500000000001 2083.7999999999997C1179.3500000000001 2081.31 1177.3200000000002 2079.2799999999997 1174.8200000000002 2079.2799999999997H1169.2300000000002V2060.9999999999995C1171.8000000000002 2061.5999999999995 1173.7200000000003 2063.8999999999996 1173.7200000000003 2066.6399999999994C1173.7200000000003 2067.379999999999 1174.3200000000002 2067.9699999999993 1175.0500000000002 2067.9699999999993C1175.7900000000002 2067.9699999999993 1176.38 2067.379999999999 1176.38 2066.6399999999994C1176.38 2063.2399999999993 1174.3500000000001 2060.2999999999993 1171.44 2058.9599999999996C1173.38 2058.4399999999996 1175.55 2058.9399999999996 1177.0700000000002 2060.4599999999996C1177.3300000000002 2060.72 1177.67 2060.8499999999995 1178.0200000000002 2060.8499999999995C1178.3600000000001 2060.8499999999995 1178.7000000000003 2060.7199999999993 1178.9600000000003 2060.4599999999996C1179.4800000000002 2059.9399999999996 1179.4800000000002 2059.0999999999995 1178.9600000000003 2058.5799999999995C1176.2100000000003 2055.8399999999997 1172.0300000000002 2055.3799999999997 1168.8000000000002 2057.1899999999996C1168.7400000000002 2054.7799999999997 1170.2100000000003 2052.49 1172.6000000000001 2051.6099999999997C1173.2900000000002 2051.3599999999997 1173.65 2050.5899999999997 1173.39 2049.91C1173.14 2049.22 1172.3700000000001 2048.87 1171.68 2049.12C1168.3500000000001 2050.3399999999997 1166.25 2053.44 1166.14 2056.77C1163.0500000000002 2055.48 1159.3500000000001 2056.08 1156.8400000000001 2058.58C1156.3200000000002 2059.1 1156.3200000000002 2059.94 1156.8400000000001 2060.46C1157.3600000000001 2060.9700000000003 1158.2 2060.9700000000003 1158.7200000000003 2060.46C1160.2500000000002 2058.94 1162.4200000000003 2058.44 1164.3600000000004 2058.96C1161.4400000000003 2060.3 1159.4100000000003 2063.2400000000002 1159.4100000000003 2066.64C1159.4100000000003 2067.3799999999997 1160.0100000000002 2067.97 1160.7500000000002 2067.97C1161.4800000000002 2067.97 1162.0800000000002 2067.3799999999997 1162.0800000000002 2066.64C1162.0800000000002 2063.9 1164.0000000000002 2061.6 1166.5700000000002 2061V2079.28H1148.0300000000002V2069.44C1150.6000000000001 2070.05 1152.5200000000002 2072.35 1152.5200000000002 2075.09C1152.5200000000002 2075.82 1153.1200000000001 2076.4100000000003 1153.8500000000001 2076.4100000000003C1154.5900000000001 2076.4100000000003 1155.19 2075.82 1155.19 2075.09C1155.19 2071.6800000000003 1153.16 2068.7400000000002 1150.24 2067.4100000000003C1152.18 2066.88 1154.35 2067.38 1155.88 2068.9C1156.14 2069.1600000000003 1156.48 2069.29 1156.8200000000002 2069.29C1157.16 2069.29 1157.5000000000002 2069.16 1157.7600000000002 2068.9C1158.2800000000002 2068.38 1158.2800000000002 2067.54 1157.7600000000002 2067.02C1155.0100000000002 2064.28 1150.8300000000002 2063.82 1147.6000000000001 2065.63C1147.5400000000002 2063.2200000000003 1149.0100000000002 2060.9300000000003 1151.4 2060.05C1152.0900000000001 2059.8 1152.45 2059.04 1152.19 2058.3500000000004C1151.94 2057.6600000000003 1151.17 2057.3100000000004 1150.48 2057.5600000000004C1147.15 2058.78 1145.06 2061.8800000000006 1144.94 2065.2100000000005C1141.8500000000001 2063.9200000000005 1138.15 2064.5200000000004 1135.64 2067.0200000000004C1135.1200000000001 2067.5400000000004 1135.1200000000001 2068.3800000000006 1135.64 2068.9000000000005C1136.16 2069.4200000000005 1137.01 2069.4200000000005 1137.5300000000002 2068.9000000000005C1139.0500000000002 2067.3800000000006 1141.2200000000003 2066.8800000000006 1143.1600000000003 2067.4000000000005C1140.2500000000002 2068.7400000000007 1138.2200000000003 2071.6800000000007 1138.2200000000003 2075.0900000000006C1138.2200000000003 2075.8200000000006 1138.8100000000002 2076.4100000000008 1139.5500000000002 2076.4100000000008C1140.2800000000002 2076.4100000000008 1140.88 2075.8200000000006 1140.88 2075.0900000000006C1140.88 2072.350000000001 1142.8000000000002 2070.0400000000004 1145.3700000000001 2069.4400000000005V2079.2800000000007H1126.8300000000002V2061.0000000000005C1129.4 2061.6000000000004 1131.3200000000002 2063.9000000000005 1131.3200000000002 2066.6400000000003C1131.3200000000002 2067.38 1131.92 2067.9700000000003 1132.65 2067.9700000000003C1133.39 2067.9700000000003 1133.99 2067.38 1133.99 2066.6400000000003C1133.99 2063.2400000000002 1131.96 2060.3 1129.04 2058.9600000000005C1130.98 2058.4400000000005 1133.1499999999999 2058.9400000000005 1134.67 2060.4600000000005C1134.93 2060.7200000000007 1135.28 2060.8500000000004 1135.6200000000001 2060.8500000000004C1135.96 2060.8500000000004 1136.3000000000002 2060.7200000000003 1136.5600000000002 2060.4600000000005C1137.0800000000002 2059.9400000000005 1137.0800000000002 2059.1000000000004 1136.5600000000002 2058.5800000000004C1133.8100000000002 2055.8400000000006 1129.63 2055.3800000000006 1126.4 2057.1900000000005C1126.3400000000001 2054.7800000000007 1127.8100000000002 2052.4900000000007 1130.2 2051.6100000000006C1130.89 2051.3600000000006 1131.25 2050.5900000000006 1130.99 2049.9100000000008C1130.74 2049.2200000000007 1129.97 2048.870000000001 1129.28 2049.120000000001C1125.95 2050.3400000000006 1123.85 2053.440000000001 1123.74 2056.770000000001C1120.65 2055.480000000001 1116.95 2056.080000000001 1114.44 2058.580000000001C1113.92 2059.100000000001 1113.92 2059.940000000001 1114.44 2060.460000000001C1114.96 2060.970000000001 1115.81 2060.970000000001 1116.3300000000002 2060.460000000001C1117.8500000000001 2058.940000000001 1120.0200000000002 2058.440000000001 1121.9600000000003 2058.960000000001C1119.0500000000002 2060.300000000001 1117.0100000000002 2063.240000000001 1117.0100000000002 2066.640000000001C1117.0100000000002 2067.3800000000006 1117.6100000000001 2067.9700000000007 1118.3500000000001 2067.9700000000007C1119.0800000000002 2067.9700000000007 1119.68 2067.3800000000006 1119.68 2066.640000000001C1119.68 2063.900000000001 1121.6000000000001 2061.600000000001 1124.17 2061.000000000001V2079.280000000001H1118.5800000000002C1116.0800000000002 2079.280000000001 1114.0500000000002 2081.3100000000013 1114.0500000000002 2083.800000000001C1114.0500000000002 2086.290000000001 1116.0800000000002 2088.3100000000013 1118.5800000000002 2088.3100000000013H1121.7900000000002C1122.8200000000002 2088.3100000000013 1123.65 2089.1400000000012 1123.65 2090.1700000000014C1123.65 2091.1900000000014 1122.8200000000002 2092.0300000000016 1121.7900000000002 2092.0300000000016H1121.65C1119.15 2092.0300000000016 1117.1200000000001 2094.0500000000015 1117.1200000000001 2096.540000000002C1117.1200000000001 2099.0300000000016 1119.15 2101.0600000000018 1121.65 2101.0600000000018H1171.75C1174.25 2101.0600000000018 1176.29 2099.0300000000016 1176.29 2096.540000000002C1176.29 2094.050000000002 1174.25 2092.0300000000016 1171.75 2092.0300000000016H1170.69C1169.66 2092.0300000000016 1168.8200000000002 2091.1900000000014 1168.8200000000002 2090.1700000000014C1168.8200000000002 2089.1400000000012 1169.66 2088.3100000000013 1170.69 2088.3100000000013ZM1170.69 2094.68H1171.75C1172.78 2094.68 1173.62 2095.52 1173.62 2096.54C1173.62 2097.57 1172.78 2098.4 1171.75 2098.4H1121.65C1120.6200000000001 2098.4 1119.7800000000002 2097.57 1119.7800000000002 2096.54C1119.7800000000002 2095.52 1120.6200000000001 2094.68 1121.65 2094.68H1121.7900000000002C1124.2900000000002 2094.68 1126.3200000000002 2092.66 1126.3200000000002 2090.1699999999996C1126.3200000000002 2087.68 1124.2900000000002 2085.6499999999996 1121.7900000000002 2085.6499999999996H1118.5800000000002C1117.5500000000002 2085.6499999999996 1116.7200000000003 2084.8199999999997 1116.7200000000003 2083.7999999999997C1116.7200000000003 2082.7699999999995 1117.5500000000002 2081.9399999999996 1118.5800000000002 2081.9399999999996H1174.8200000000002C1175.8500000000001 2081.9399999999996 1176.69 2082.7699999999995 1176.69 2083.7999999999997C1176.69 2084.8199999999997 1175.8500000000001 2085.6499999999996 1174.8200000000002 2085.6499999999996H1170.69C1168.19 2085.6499999999996 1166.16 2087.68 1166.16 2090.1699999999996C1166.16 2092.6599999999994 1168.19 2094.68 1170.69 2094.68Z " fill="#000000" fill-opacity="1" transform="matrix(1,0,0,1,-1114,-2036)"></path><path id="SvgjsPath1012" d="M1158.19 2042.44C1156.75 2039.63 1153.8300000000002 2037.81 1150.66 2037.81C1148.91 2037.81 1147.24 2038.36 1145.8500000000001 2039.33C1144.5900000000001 2037.3 1142.3500000000001 2036 1139.93 2036C1137.3700000000001 2036 1135.02 2037.44 1133.8100000000002 2039.66C1130.6100000000001 2039.8500000000001 1128.0700000000002 2042.5400000000002 1128.0700000000002 2045.8200000000002C1128.0700000000002 2046.5600000000002 1128.66 2047.15 1129.4 2047.15H1136.5C1136.16 2048 1135.98 2048.9300000000003 1135.98 2049.9100000000003C1135.98 2050.6400000000003 1136.58 2051.2300000000005 1137.31 2051.2300000000005H1164C1164.74 2051.2300000000005 1165.34 2050.6400000000003 1165.34 2049.9100000000003C1165.34 2045.8600000000004 1162.1499999999999 2042.5600000000004 1158.1899999999998 2042.4400000000003ZM1130.99 2044.5C1131.5 2043.21 1132.73 2042.31 1134.17 2042.31C1134.28 2042.31 1134.4 2042.31 1134.52 2042.33C1135.12 2042.3899999999999 1135.69 2042.04 1135.91 2041.47C1136.5400000000002 2039.79 1138.16 2038.66 1139.93 2038.66C1141.6200000000001 2038.66 1143.17 2039.69 1143.8600000000001 2041.26C1143.5800000000002 2041.6299999999999 1143.3400000000001 2042.02 1143.1200000000001 2042.44C1141.2500000000002 2042.5 1139.5500000000002 2043.27 1138.2700000000002 2044.5ZM1138.83 2048.58C1139.03 2047.87 1139.3799999999999 2047.22 1139.85 2046.6899999999998C1139.86 2046.6799999999998 1139.87 2046.6699999999998 1139.87 2046.6699999999998C1140.7399999999998 2045.6999999999998 1141.9799999999998 2045.09 1143.35 2045.09C1143.51 2045.09 1143.6699999999998 2045.1 1143.84 2045.12C1144.4399999999998 2045.1799999999998 1145.01 2044.83 1145.22 2044.26C1146.08 2041.99 1148.26 2040.46 1150.66 2040.46C1153.0500000000002 2040.46 1155.23 2041.99 1156.0900000000001 2044.26C1156.3000000000002 2044.83 1156.8700000000001 2045.18 1157.4700000000003 2045.12C1157.6400000000003 2045.1 1157.8000000000002 2045.09 1157.9600000000003 2045.09C1160.1100000000004 2045.09 1161.9200000000003 2046.57 1162.4900000000002 2048.58ZM1164.79 2085.65H1158.1599999999999C1157.4199999999998 2085.65 1156.82 2086.25 1156.82 2086.98C1156.82 2087.72 1157.4199999999998 2088.31 1158.1599999999999 2088.31H1164.79C1165.52 2088.31 1166.12 2087.72 1166.12 2086.98C1166.12 2086.25 1165.52 2085.65 1164.79 2085.65ZM1153.63 2085.65H1128.48C1127.75 2085.65 1127.15 2086.25 1127.15 2086.98C1127.15 2087.72 1127.75 2088.31 1128.48 2088.31H1153.63C1154.3600000000001 2088.31 1154.96 2087.72 1154.96 2086.98C1154.96 2086.25 1154.3600000000001 2085.65 1153.63 2085.65ZM1164.79 2092.03H1162.8C1162.07 2092.03 1161.47 2092.6200000000003 1161.47 2093.36C1161.47 2094.09 1162.07 2094.6800000000003 1162.8 2094.6800000000003H1164.79C1165.52 2094.6800000000003 1166.12 2094.09 1166.12 2093.36C1166.12 2092.6200000000003 1165.52 2092.03 1164.79 2092.03ZM1139.25 2092.03H1136.13C1135.39 2092.03 1134.8000000000002 2092.6200000000003 1134.8000000000002 2093.36C1134.8000000000002 2094.09 1135.39 2094.6800000000003 1136.13 2094.6800000000003H1139.25C1139.98 2094.6800000000003 1140.58 2094.09 1140.58 2093.36C1140.58 2092.6200000000003 1139.98 2092.03 1139.25 2092.03ZM1131.6 2092.03H1128.62C1127.8799999999999 2092.03 1127.28 2092.6200000000003 1127.28 2093.36C1127.28 2094.09 1127.8799999999999 2094.6800000000003 1128.62 2094.6800000000003H1131.6C1132.34 2094.6800000000003 1132.9299999999998 2094.09 1132.9299999999998 2093.36C1132.9299999999998 2092.6200000000003 1132.34 2092.03 1131.6 2092.03ZM1158.27 2092.03H1143.78C1143.04 2092.03 1142.44 2092.6200000000003 1142.44 2093.36C1142.44 2094.09 1143.04 2094.6800000000003 1143.78 2094.6800000000003H1158.27C1159.01 2094.6800000000003 1159.6 2094.09 1159.6 2093.36C1159.6 2092.6200000000003 1159.01 2092.03 1158.27 2092.03ZM1170.69 2088.31H1174.8200000000002C1177.3200000000002 2088.31 1179.3500000000001 2086.29 1179.3500000000001 2083.7999999999997C1179.3500000000001 2081.31 1177.3200000000002 2079.2799999999997 1174.8200000000002 2079.2799999999997H1169.2300000000002V2060.9999999999995C1171.8000000000002 2061.5999999999995 1173.7200000000003 2063.8999999999996 1173.7200000000003 2066.6399999999994C1173.7200000000003 2067.379999999999 1174.3200000000002 2067.9699999999993 1175.0500000000002 2067.9699999999993C1175.7900000000002 2067.9699999999993 1176.38 2067.379999999999 1176.38 2066.6399999999994C1176.38 2063.2399999999993 1174.3500000000001 2060.2999999999993 1171.44 2058.9599999999996C1173.38 2058.4399999999996 1175.55 2058.9399999999996 1177.0700000000002 2060.4599999999996C1177.3300000000002 2060.72 1177.67 2060.8499999999995 1178.0200000000002 2060.8499999999995C1178.3600000000001 2060.8499999999995 1178.7000000000003 2060.7199999999993 1178.9600000000003 2060.4599999999996C1179.4800000000002 2059.9399999999996 1179.4800000000002 2059.0999999999995 1178.9600000000003 2058.5799999999995C1176.2100000000003 2055.8399999999997 1172.0300000000002 2055.3799999999997 1168.8000000000002 2057.1899999999996C1168.7400000000002 2054.7799999999997 1170.2100000000003 2052.49 1172.6000000000001 2051.6099999999997C1173.2900000000002 2051.3599999999997 1173.65 2050.5899999999997 1173.39 2049.91C1173.14 2049.22 1172.3700000000001 2048.87 1171.68 2049.12C1168.3500000000001 2050.3399999999997 1166.25 2053.44 1166.14 2056.77C1163.0500000000002 2055.48 1159.3500000000001 2056.08 1156.8400000000001 2058.58C1156.3200000000002 2059.1 1156.3200000000002 2059.94 1156.8400000000001 2060.46C1157.3600000000001 2060.9700000000003 1158.2 2060.9700000000003 1158.7200000000003 2060.46C1160.2500000000002 2058.94 1162.4200000000003 2058.44 1164.3600000000004 2058.96C1161.4400000000003 2060.3 1159.4100000000003 2063.2400000000002 1159.4100000000003 2066.64C1159.4100000000003 2067.3799999999997 1160.0100000000002 2067.97 1160.7500000000002 2067.97C1161.4800000000002 2067.97 1162.0800000000002 2067.3799999999997 1162.0800000000002 2066.64C1162.0800000000002 2063.9 1164.0000000000002 2061.6 1166.5700000000002 2061V2079.28H1148.0300000000002V2069.44C1150.6000000000001 2070.05 1152.5200000000002 2072.35 1152.5200000000002 2075.09C1152.5200000000002 2075.82 1153.1200000000001 2076.4100000000003 1153.8500000000001 2076.4100000000003C1154.5900000000001 2076.4100000000003 1155.19 2075.82 1155.19 2075.09C1155.19 2071.6800000000003 1153.16 2068.7400000000002 1150.24 2067.4100000000003C1152.18 2066.88 1154.35 2067.38 1155.88 2068.9C1156.14 2069.1600000000003 1156.48 2069.29 1156.8200000000002 2069.29C1157.16 2069.29 1157.5000000000002 2069.16 1157.7600000000002 2068.9C1158.2800000000002 2068.38 1158.2800000000002 2067.54 1157.7600000000002 2067.02C1155.0100000000002 2064.28 1150.8300000000002 2063.82 1147.6000000000001 2065.63C1147.5400000000002 2063.2200000000003 1149.0100000000002 2060.9300000000003 1151.4 2060.05C1152.0900000000001 2059.8 1152.45 2059.04 1152.19 2058.3500000000004C1151.94 2057.6600000000003 1151.17 2057.3100000000004 1150.48 2057.5600000000004C1147.15 2058.78 1145.06 2061.8800000000006 1144.94 2065.2100000000005C1141.8500000000001 2063.9200000000005 1138.15 2064.5200000000004 1135.64 2067.0200000000004C1135.1200000000001 2067.5400000000004 1135.1200000000001 2068.3800000000006 1135.64 2068.9000000000005C1136.16 2069.4200000000005 1137.01 2069.4200000000005 1137.5300000000002 2068.9000000000005C1139.0500000000002 2067.3800000000006 1141.2200000000003 2066.8800000000006 1143.1600000000003 2067.4000000000005C1140.2500000000002 2068.7400000000007 1138.2200000000003 2071.6800000000007 1138.2200000000003 2075.0900000000006C1138.2200000000003 2075.8200000000006 1138.8100000000002 2076.4100000000008 1139.5500000000002 2076.4100000000008C1140.2800000000002 2076.4100000000008 1140.88 2075.8200000000006 1140.88 2075.0900000000006C1140.88 2072.350000000001 1142.8000000000002 2070.0400000000004 1145.3700000000001 2069.4400000000005V2079.2800000000007H1126.8300000000002V2061.0000000000005C1129.4 2061.6000000000004 1131.3200000000002 2063.9000000000005 1131.3200000000002 2066.6400000000003C1131.3200000000002 2067.38 1131.92 2067.9700000000003 1132.65 2067.9700000000003C1133.39 2067.9700000000003 1133.99 2067.38 1133.99 2066.6400000000003C1133.99 2063.2400000000002 1131.96 2060.3 1129.04 2058.9600000000005C1130.98 2058.4400000000005 1133.1499999999999 2058.9400000000005 1134.67 2060.4600000000005C1134.93 2060.7200000000007 1135.28 2060.8500000000004 1135.6200000000001 2060.8500000000004C1135.96 2060.8500000000004 1136.3000000000002 2060.7200000000003 1136.5600000000002 2060.4600000000005C1137.0800000000002 2059.9400000000005 1137.0800000000002 2059.1000000000004 1136.5600000000002 2058.5800000000004C1133.8100000000002 2055.8400000000006 1129.63 2055.3800000000006 1126.4 2057.1900000000005C1126.3400000000001 2054.7800000000007 1127.8100000000002 2052.4900000000007 1130.2 2051.6100000000006C1130.89 2051.3600000000006 1131.25 2050.5900000000006 1130.99 2049.9100000000008C1130.74 2049.2200000000007 1129.97 2048.870000000001 1129.28 2049.120000000001C1125.95 2050.3400000000006 1123.85 2053.440000000001 1123.74 2056.770000000001C1120.65 2055.480000000001 1116.95 2056.080000000001 1114.44 2058.580000000001C1113.92 2059.100000000001 1113.92 2059.940000000001 1114.44 2060.460000000001C1114.96 2060.970000000001 1115.81 2060.970000000001 1116.3300000000002 2060.460000000001C1117.8500000000001 2058.940000000001 1120.0200000000002 2058.440000000001 1121.9600000000003 2058.960000000001C1119.0500000000002 2060.300000000001 1117.0100000000002 2063.240000000001 1117.0100000000002 2066.640000000001C1117.0100000000002 2067.3800000000006 1117.6100000000001 2067.9700000000007 1118.3500000000001 2067.9700000000007C1119.0800000000002 2067.9700000000007 1119.68 2067.3800000000006 1119.68 2066.640000000001C1119.68 2063.900000000001 1121.6000000000001 2061.600000000001 1124.17 2061.000000000001V2079.280000000001H1118.5800000000002C1116.0800000000002 2079.280000000001 1114.0500000000002 2081.3100000000013 1114.0500000000002 2083.800000000001C1114.0500000000002 2086.290000000001 1116.0800000000002 2088.3100000000013 1118.5800000000002 2088.3100000000013H1121.7900000000002C1122.8200000000002 2088.3100000000013 1123.65 2089.1400000000012 1123.65 2090.1700000000014C1123.65 2091.1900000000014 1122.8200000000002 2092.0300000000016 1121.7900000000002 2092.0300000000016H1121.65C1119.15 2092.0300000000016 1117.1200000000001 2094.0500000000015 1117.1200000000001 2096.540000000002C1117.1200000000001 2099.0300000000016 1119.15 2101.0600000000018 1121.65 2101.0600000000018H1171.75C1174.25 2101.0600000000018 1176.29 2099.0300000000016 1176.29 2096.540000000002C1176.29 2094.050000000002 1174.25 2092.0300000000016 1171.75 2092.0300000000016H1170.69C1169.66 2092.0300000000016 1168.8200000000002 2091.1900000000014 1168.8200000000002 2090.1700000000014C1168.8200000000002 2089.1400000000012 1169.66 2088.3100000000013 1170.69 2088.3100000000013ZM1170.69 2094.68H1171.75C1172.78 2094.68 1173.62 2095.52 1173.62 2096.54C1173.62 2097.57 1172.78 2098.4 1171.75 2098.4H1121.65C1120.6200000000001 2098.4 1119.7800000000002 2097.57 1119.7800000000002 2096.54C1119.7800000000002 2095.52 1120.6200000000001 2094.68 1121.65 2094.68H1121.7900000000002C1124.2900000000002 2094.68 1126.3200000000002 2092.66 1126.3200000000002 2090.1699999999996C1126.3200000000002 2087.68 1124.2900000000002 2085.6499999999996 1121.7900000000002 2085.6499999999996H1118.5800000000002C1117.5500000000002 2085.6499999999996 1116.7200000000003 2084.8199999999997 1116.7200000000003 2083.7999999999997C1116.7200000000003 2082.7699999999995 1117.5500000000002 2081.9399999999996 1118.5800000000002 2081.9399999999996H1174.8200000000002C1175.8500000000001 2081.9399999999996 1176.69 2082.7699999999995 1176.69 2083.7999999999997C1176.69 2084.8199999999997 1175.8500000000001 2085.6499999999996 1174.8200000000002 2085.6499999999996H1170.69C1168.19 2085.6499999999996 1166.16 2087.68 1166.16 2090.1699999999996C1166.16 2092.6599999999994 1168.19 2094.68 1170.69 2094.68Z " fill="#ffffff" fill-opacity="1" transform="matrix(1,0,0,1,-1114,-2036)"></path></svg>