<svg id="SvgjsSvg1000" xmlns="http://www.w3.org/2000/svg" version="1.1" xmlns:xlink="http://www.w3.org/1999/xlink" xmlns:svgjs="http://svgjs.com/svgjs" width="42" height="61" viewBox="0 0 42 61"><title>Forma 1 копия 2</title><desc>Created with Avocode.</desc><defs id="SvgjsDefs1001"></defs><path id="SvgjsPath1007" d="M926.995 296.261C923.123 292.226 917.975 290.004 912.5 290.004C907.023 290.004 901.876 292.226 898.004 296.261C890.839 303.726 889.948 317.771 896.076 326.281L912.5 350.995L928.899 326.315C935.051 317.771 934.16 303.726 926.995 296.261ZM912.689 318.964C908.564 318.964 905.206 315.466 905.206 311.167C905.206 306.86899999999997 908.564 303.36999999999995 912.689 303.36999999999995C916.814 303.36999999999995 920.1719999999999 306.86899999999997 920.1719999999999 311.167C920.1719999999999 315.46599999999995 916.814 318.964 912.689 318.964Z " fill="#374c70" fill-opacity="1" transform="matrix(1,0,0,1,-891,-290)"></path></svg>