<svg id="SvgjsSvg1011" xmlns="http://www.w3.org/2000/svg" version="1.1" xmlns:xlink="http://www.w3.org/1999/xlink" xmlns:svgjs="http://svgjs.com/svgjs" width="102" height="72" viewBox="0 0 102 72"><title>Forma 1</title><desc>Created with Avocode.</desc><defs id="SvgjsDefs1012"></defs><path id="SvgjsPath1013" d="M1188.65 1563.9V1563.74L1187.8000000000002 1563.73L1187.7800000000002 1570.48C1185.7600000000002 1568.8 1183.4600000000003 1567.41 1181.2500000000002 1566.3C1175.5600000000002 1563.45 1169.3500000000001 1561.71 1163.0800000000002 1560.6399999999999L1163.0900000000001 1557.4299999999998C1166.16 1554.7499999999998 1168.92 1558.6599999999999 1170.9700000000003 1554.7999999999997C1166.1700000000003 1554.8599999999997 1167.2200000000003 1551.9099999999996 1163.1000000000004 1552.1599999999996V1551.9999999999995H1162.2500000000005L1162.2300000000005 1560.4999999999995C1160.6900000000005 1560.2499999999995 1159.1600000000005 1560.0399999999995 1157.6200000000006 1559.8699999999994C1149.0700000000006 1558.9099999999994 1140.3400000000006 1558.9799999999993 1131.8100000000006 1560.1699999999994C1131.0200000000007 1560.2799999999993 1130.2300000000007 1560.3999999999994 1129.4400000000007 1560.5299999999993L1129.4200000000008 1551.9999999999993H1128.5700000000008V1552.1599999999994C1124.450000000001 1551.9099999999994 1125.500000000001 1554.8599999999994 1120.700000000001 1554.7999999999995C1122.740000000001 1558.6599999999994 1125.510000000001 1554.7499999999995 1128.580000000001 1557.4299999999996L1128.590000000001 1560.6699999999996C1121.5100000000011 1561.8799999999997 1114.410000000001 1563.9199999999996 1108.200000000001 1567.5699999999997C1106.770000000001 1568.4099999999996 1105.2800000000009 1569.4199999999996 1103.890000000001 1570.5899999999997L1103.870000000001 1563.7299999999998L1103.0200000000011 1563.7399999999998V1563.8999999999999C1098.9000000000012 1563.6399999999999 1099.9500000000012 1566.6 1095.1500000000012 1566.54C1097.2000000000012 1570.3999999999999 1099.9600000000012 1566.49 1103.0300000000013 1569.17L1103.0400000000013 1571.3300000000002C1100.0400000000013 1574.0900000000001 1097.7100000000014 1577.6200000000001 1097.9000000000012 1581.7600000000002C1098.1200000000013 1586.5500000000002 1100.9000000000012 1590.2800000000002 1104.4600000000012 1593.13V1599.97C1103.1300000000012 1598.83 1102.1100000000013 1597.65 1101.4400000000012 1596.54C1101.060000000001 1595.93 1100.780000000001 1595.35 1100.5700000000013 1594.82C1100.3700000000013 1594.3 1100.2300000000014 1593.83 1100.1400000000012 1593.45C1100.0600000000013 1593.06 1100.0000000000011 1592.76 1099.9800000000012 1592.56C1099.9500000000012 1592.35 1099.9400000000012 1592.25 1099.9400000000012 1592.25C1099.9400000000012 1592.25 1099.9300000000012 1592.35 1099.9200000000012 1592.56C1099.9000000000012 1592.77 1099.8800000000012 1593.08 1099.9000000000012 1593.48C1099.9400000000012 1594.28 1100.0800000000013 1595.5 1100.6800000000012 1596.93C1100.9800000000012 1597.64 1101.3700000000013 1598.4 1101.8800000000012 1599.18C1102.3900000000012 1599.97 1103.0200000000013 1600.75 1103.7500000000011 1601.54C1103.9800000000012 1601.78 1104.2200000000012 1602.02 1104.4600000000012 1602.26V1608.48C1103.1300000000012 1607.34 1102.1100000000013 1606.16 1101.4400000000012 1605.05C1101.060000000001 1604.44 1100.780000000001 1603.86 1100.5700000000013 1603.33C1100.3700000000013 1602.81 1100.2300000000014 1602.34 1100.1400000000012 1601.96C1100.0600000000013 1601.57 1100.0000000000011 1601.27 1099.9800000000012 1601.07C1099.9500000000012 1600.86 1099.9400000000012 1600.76 1099.9400000000012 1600.76C1099.9400000000012 1600.76 1099.9300000000012 1600.86 1099.9200000000012 1601.07C1099.9000000000012 1601.28 1099.8800000000012 1601.59 1099.9000000000012 1601.99C1099.9400000000012 1602.79 1100.0800000000013 1604.01 1100.6800000000012 1605.44C1100.9800000000012 1606.15 1101.3700000000013 1606.91 1101.8800000000012 1607.69C1102.3900000000012 1608.48 1103.0200000000013 1609.26 1103.7500000000011 1610.05C1103.9800000000012 1610.29 1104.2200000000012 1610.53 1104.4600000000012 1610.77L1104.6400000000012 1610.94C1105.9600000000012 1612.19 1107.5400000000013 1613.41 1109.3400000000013 1614.53C1110.4500000000012 1615.23 1111.6400000000012 1615.8799999999999 1112.9000000000012 1616.51C1114.1600000000012 1617.14 1115.4900000000011 1617.71 1116.8700000000013 1618.27C1119.6400000000012 1619.35 1122.6400000000012 1620.29 1125.7900000000013 1621.03C1127.3600000000013 1621.3999999999999 1128.9700000000014 1621.72 1130.6100000000013 1622C1130.6900000000012 1622.02 1130.7700000000013 1622.03 1130.8500000000013 1622.04L1131.3200000000013 1623.62L1133.3000000000013 1623.02L1129.7900000000013 1611.24C1140.5700000000013 1608.48 1151.0900000000013 1608.48 1161.8800000000012 1611.24L1158.3700000000013 1623.02L1160.3500000000013 1623.62L1160.8200000000013 1622.04C1160.9000000000012 1622.03 1160.9800000000014 1622.02 1161.0600000000013 1622C1162.7000000000014 1621.72 1164.3100000000013 1621.4 1165.8800000000012 1621.03C1169.0300000000013 1620.29 1172.0300000000013 1619.35 1174.8000000000013 1618.27C1176.1800000000014 1617.72 1177.5100000000014 1617.1399999999999 1178.7700000000013 1616.51C1180.0300000000013 1615.8799999999999 1181.2200000000014 1615.23 1182.3300000000013 1614.53C1184.1300000000012 1613.41 1185.7100000000014 1612.19 1187.0300000000013 1610.94L1187.2100000000014 1610.77C1187.4500000000014 1610.53 1187.6900000000014 1610.29 1187.9100000000014 1610.05C1189.3800000000015 1608.48 1190.4100000000014 1606.87 1190.9900000000014 1605.44C1191.5900000000013 1604.01 1191.7400000000014 1602.8 1191.7700000000013 1601.99C1191.7800000000013 1601.58 1191.7700000000013 1601.27 1191.7500000000014 1601.07C1191.7400000000014 1600.86 1191.7300000000014 1600.76 1191.7300000000014 1600.76C1191.7300000000014 1600.76 1191.7200000000014 1600.86 1191.6900000000014 1601.07C1191.6600000000014 1601.27 1191.6100000000015 1601.57 1191.5200000000013 1601.96C1191.4400000000014 1602.3400000000001 1191.2900000000013 1602.81 1191.0900000000013 1603.33C1190.8900000000012 1603.86 1190.6000000000013 1604.4399999999998 1190.2300000000014 1605.05C1189.8500000000013 1605.6499999999999 1189.3800000000015 1606.29 1188.8100000000013 1606.93C1188.3400000000013 1607.45 1187.8100000000013 1607.97 1187.2100000000014 1608.48V1602.26C1187.4500000000014 1602.02 1187.6900000000014 1601.78 1187.9100000000014 1601.54C1189.3800000000015 1599.97 1190.4100000000014 1598.36 1190.9900000000014 1596.93C1191.5900000000013 1595.5 1191.7400000000014 1594.29 1191.7700000000013 1593.48C1191.7800000000013 1593.08 1191.7700000000013 1592.76 1191.7500000000014 1592.56C1191.7400000000014 1592.35 1191.7300000000014 1592.25 1191.7300000000014 1592.25C1191.7300000000014 1592.25 1191.7100000000014 1592.35 1191.6900000000014 1592.56C1191.6600000000014 1592.77 1191.6100000000015 1593.06 1191.5200000000013 1593.45C1191.4400000000014 1593.8300000000002 1191.2900000000013 1594.3 1191.0900000000013 1594.82C1190.8900000000012 1595.35 1190.6000000000013 1595.9299999999998 1190.2300000000014 1596.54C1189.8500000000013 1597.1399999999999 1189.3800000000015 1597.78 1188.8100000000013 1598.42C1188.3400000000013 1598.94 1187.8000000000013 1599.46 1187.2100000000014 1599.97V1593.22C1190.8100000000013 1590.3500000000001 1193.5800000000013 1586.59 1193.8600000000015 1581.73C1193.8500000000015 1577.47 1191.6400000000015 1573.99 1188.6300000000015 1571.23V1569.17C1191.7100000000014 1566.49 1194.4700000000014 1570.4 1196.5100000000016 1566.54C1191.7200000000016 1566.6 1192.7700000000016 1563.6399999999999 1188.6500000000017 1563.8999999999999ZM1163.46 1564.89C1167.52 1565.66 1171.5 1566.75 1175.33 1568.26C1178.75 1569.6 1182.9399999999998 1571.54 1185.8999999999999 1574.3799999999999L1169.6399999999999 1584.56C1166.4199999999998 1582.05 1161.2599999999998 1580.11 1155.06 1579.1299999999999ZM1151.24 1563.44C1154.47 1563.6200000000001 1157.71 1563.94 1160.92 1564.45L1152.46 1578.78C1150.3400000000001 1578.55 1148.1200000000001 1578.42 1145.83 1578.42C1143.55 1578.42 1141.33 1578.5500000000002 1139.21 1578.78L1130.75 1564.44C1137.51 1563.3600000000001 1144.41 1563.06 1151.24 1563.44ZM1108.73 1572.06C1114.51 1568.21 1121.43 1566.1599999999999 1128.2 1564.8899999999999L1136.6100000000001 1579.1299999999999C1130.41 1580.11 1125.2500000000002 1582.05 1122.0300000000002 1584.56L1105.7600000000002 1574.37C1106.6800000000003 1573.51 1107.7000000000003 1572.75 1108.7300000000002 1572.06ZM1110.53 1612.35C1109.43 1611.82 1108.3999999999999 1611.25 1107.45 1610.6599999999999C1107.26 1610.54 1107.06 1610.4199999999998 1106.8700000000001 1610.29V1604.32C1107.64 1604.9099999999999 1108.46 1605.48 1109.3400000000001 1606.02C1110.45 1606.72 1111.64 1607.3799999999999 1112.9 1608C1113.8700000000001 1608.48 1114.88 1608.94 1115.92 1609.37V1614.56C1113.99 1613.8899999999999 1112.18 1613.1599999999999 1110.53 1612.35ZM1115.92 1606.05C1113.99 1605.3899999999999 1112.18 1604.6499999999999 1110.53 1603.84C1109.42 1603.31 1108.3999999999999 1602.74 1107.45 1602.1499999999999C1107.25 1602.03 1107.06 1601.9099999999999 1106.8700000000001 1601.78V1594.87C1107.72 1595.4199999999998 1108.5800000000002 1595.9199999999998 1109.44 1596.3899999999999C1111.53 1597.52 1113.7 1598.4899999999998 1115.92 1599.31ZM1113.8 1593.9C1110.43 1592.3500000000001 1107.03 1590.42 1104.56 1587.5800000000002C1103.36 1586.2100000000003 1101.6299999999999 1583.64 1101.99 1581.63C1102.16 1580.65 1102.43 1578.99 1103.05 1577.75C1103.35 1577.2 1103.7 1576.68 1104.08 1576.18L1120.1999999999998 1586.28C1119.0599999999997 1587.61 1118.4299999999998 1589.06 1118.4299999999998 1590.58C1118.4299999999998 1592.96 1119.9799999999998 1595.1799999999998 1122.6399999999999 1597.05C1119.61 1596.24 1116.6299999999999 1595.21 1113.8 1593.8999999999999ZM1126.56 1617.29C1123.6799999999998 1616.76 1120.9199999999998 1616.11 1118.34 1615.33V1610.31C1120.6899999999998 1611.1599999999999 1123.1899999999998 1611.9099999999999 1125.79 1612.52C1126.57 1612.71 1127.37 1612.8799999999999 1128.17 1613.04L1129.5900000000001 1617.79C1128.5700000000002 1617.6399999999999 1127.5600000000002 1617.47 1126.5600000000002 1617.29ZM1165.11 1617.29C1164.11 1617.47 1163.1 1617.6399999999999 1162.08 1617.79L1163.5 1613.04C1164.3 1612.8799999999999 1165.1 1612.71 1165.88 1612.52C1168.48 1611.91 1170.98 1611.16 1173.3300000000002 1610.31V1615.33C1170.7500000000002 1616.11 1167.9900000000002 1616.76 1165.1100000000001 1617.29ZM1173.33 1606.83C1170.75 1607.6 1167.99 1608.25 1165.11 1608.78C1164.2199999999998 1608.94 1163.32 1609.09 1162.4199999999998 1609.23C1151.2699999999998 1606.3700000000001 1140.3999999999999 1606.3700000000001 1129.2499999999998 1609.23C1128.3399999999997 1609.09 1127.4499999999998 1608.94 1126.5599999999997 1608.78C1123.6799999999996 1608.25 1120.9199999999996 1607.6 1118.3399999999997 1606.83V1600.1499999999999C1123.2299999999998 1601.7399999999998 1128.3499999999997 1602.7199999999998 1133.3899999999996 1603.34C1141.7599999999995 1604.37 1150.2799999999997 1604.36 1158.6399999999996 1603.31C1163.5799999999997 1602.7 1168.5599999999997 1601.73 1173.3299999999997 1600.19ZM1184.21 1610.66C1183.27 1611.25 1182.24 1611.8200000000002 1181.14 1612.3500000000001C1179.49 1613.16 1177.68 1613.89 1175.74 1614.5600000000002V1609.3700000000001C1176.79 1608.94 1177.8 1608.48 1178.77 1608.0000000000002C1180.03 1607.3800000000003 1181.22 1606.7200000000003 1182.33 1606.0200000000002C1183.21 1605.4800000000002 1184.03 1604.9100000000003 1184.8 1604.3200000000002V1610.2900000000002C1184.61 1610.4200000000003 1184.4099999999999 1610.5400000000002 1184.21 1610.66ZM1184.8 1601.78C1184.61 1601.91 1184.4099999999999 1602.03 1184.21 1602.1499999999999C1183.27 1602.7399999999998 1182.24 1603.31 1181.14 1603.84C1179.49 1604.6499999999999 1177.68 1605.3899999999999 1175.74 1606.05V1599.35C1177.78 1598.6 1179.78 1597.73 1181.71 1596.73C1182.75 1596.19 1183.79 1595.6 1184.8 1594.95ZM1189.59 1581.61C1189.56 1585.31 1186.27 1588.81 1183.05 1590.9799999999998C1178.86 1593.8099999999997 1174.05 1595.6899999999998 1169.11 1596.9899999999998C1171.7199999999998 1595.1299999999999 1173.2299999999998 1592.9299999999998 1173.2299999999998 1590.5799999999997C1173.2299999999998 1589.0599999999997 1172.61 1587.6099999999997 1171.4699999999998 1586.2799999999997L1187.5299999999997 1576.2199999999998C1188.6899999999998 1577.7799999999997 1189.4499999999998 1579.5599999999997 1189.5899999999997 1581.61Z " fill="#000000" fill-opacity="1" transform="matrix(1,0,0,1,-1095,-1552)"></path><path id="SvgjsPath1014" d="M1188.65 1563.9V1563.74L1187.8000000000002 1563.73L1187.7800000000002 1570.48C1185.7600000000002 1568.8 1183.4600000000003 1567.41 1181.2500000000002 1566.3C1175.5600000000002 1563.45 1169.3500000000001 1561.71 1163.0800000000002 1560.6399999999999L1163.0900000000001 1557.4299999999998C1166.16 1554.7499999999998 1168.92 1558.6599999999999 1170.9700000000003 1554.7999999999997C1166.1700000000003 1554.8599999999997 1167.2200000000003 1551.9099999999996 1163.1000000000004 1552.1599999999996V1551.9999999999995H1162.2500000000005L1162.2300000000005 1560.4999999999995C1160.6900000000005 1560.2499999999995 1159.1600000000005 1560.0399999999995 1157.6200000000006 1559.8699999999994C1149.0700000000006 1558.9099999999994 1140.3400000000006 1558.9799999999993 1131.8100000000006 1560.1699999999994C1131.0200000000007 1560.2799999999993 1130.2300000000007 1560.3999999999994 1129.4400000000007 1560.5299999999993L1129.4200000000008 1551.9999999999993H1128.5700000000008V1552.1599999999994C1124.450000000001 1551.9099999999994 1125.500000000001 1554.8599999999994 1120.700000000001 1554.7999999999995C1122.740000000001 1558.6599999999994 1125.510000000001 1554.7499999999995 1128.580000000001 1557.4299999999996L1128.590000000001 1560.6699999999996C1121.5100000000011 1561.8799999999997 1114.410000000001 1563.9199999999996 1108.200000000001 1567.5699999999997C1106.770000000001 1568.4099999999996 1105.2800000000009 1569.4199999999996 1103.890000000001 1570.5899999999997L1103.870000000001 1563.7299999999998L1103.0200000000011 1563.7399999999998V1563.8999999999999C1098.9000000000012 1563.6399999999999 1099.9500000000012 1566.6 1095.1500000000012 1566.54C1097.2000000000012 1570.3999999999999 1099.9600000000012 1566.49 1103.0300000000013 1569.17L1103.0400000000013 1571.3300000000002C1100.0400000000013 1574.0900000000001 1097.7100000000014 1577.6200000000001 1097.9000000000012 1581.7600000000002C1098.1200000000013 1586.5500000000002 1100.9000000000012 1590.2800000000002 1104.4600000000012 1593.13V1599.97C1103.1300000000012 1598.83 1102.1100000000013 1597.65 1101.4400000000012 1596.54C1101.060000000001 1595.93 1100.780000000001 1595.35 1100.5700000000013 1594.82C1100.3700000000013 1594.3 1100.2300000000014 1593.83 1100.1400000000012 1593.45C1100.0600000000013 1593.06 1100.0000000000011 1592.76 1099.9800000000012 1592.56C1099.9500000000012 1592.35 1099.9400000000012 1592.25 1099.9400000000012 1592.25C1099.9400000000012 1592.25 1099.9300000000012 1592.35 1099.9200000000012 1592.56C1099.9000000000012 1592.77 1099.8800000000012 1593.08 1099.9000000000012 1593.48C1099.9400000000012 1594.28 1100.0800000000013 1595.5 1100.6800000000012 1596.93C1100.9800000000012 1597.64 1101.3700000000013 1598.4 1101.8800000000012 1599.18C1102.3900000000012 1599.97 1103.0200000000013 1600.75 1103.7500000000011 1601.54C1103.9800000000012 1601.78 1104.2200000000012 1602.02 1104.4600000000012 1602.26V1608.48C1103.1300000000012 1607.34 1102.1100000000013 1606.16 1101.4400000000012 1605.05C1101.060000000001 1604.44 1100.780000000001 1603.86 1100.5700000000013 1603.33C1100.3700000000013 1602.81 1100.2300000000014 1602.34 1100.1400000000012 1601.96C1100.0600000000013 1601.57 1100.0000000000011 1601.27 1099.9800000000012 1601.07C1099.9500000000012 1600.86 1099.9400000000012 1600.76 1099.9400000000012 1600.76C1099.9400000000012 1600.76 1099.9300000000012 1600.86 1099.9200000000012 1601.07C1099.9000000000012 1601.28 1099.8800000000012 1601.59 1099.9000000000012 1601.99C1099.9400000000012 1602.79 1100.0800000000013 1604.01 1100.6800000000012 1605.44C1100.9800000000012 1606.15 1101.3700000000013 1606.91 1101.8800000000012 1607.69C1102.3900000000012 1608.48 1103.0200000000013 1609.26 1103.7500000000011 1610.05C1103.9800000000012 1610.29 1104.2200000000012 1610.53 1104.4600000000012 1610.77L1104.6400000000012 1610.94C1105.9600000000012 1612.19 1107.5400000000013 1613.41 1109.3400000000013 1614.53C1110.4500000000012 1615.23 1111.6400000000012 1615.8799999999999 1112.9000000000012 1616.51C1114.1600000000012 1617.14 1115.4900000000011 1617.71 1116.8700000000013 1618.27C1119.6400000000012 1619.35 1122.6400000000012 1620.29 1125.7900000000013 1621.03C1127.3600000000013 1621.3999999999999 1128.9700000000014 1621.72 1130.6100000000013 1622C1130.6900000000012 1622.02 1130.7700000000013 1622.03 1130.8500000000013 1622.04L1131.3200000000013 1623.62L1133.3000000000013 1623.02L1129.7900000000013 1611.24C1140.5700000000013 1608.48 1151.0900000000013 1608.48 1161.8800000000012 1611.24L1158.3700000000013 1623.02L1160.3500000000013 1623.62L1160.8200000000013 1622.04C1160.9000000000012 1622.03 1160.9800000000014 1622.02 1161.0600000000013 1622C1162.7000000000014 1621.72 1164.3100000000013 1621.4 1165.8800000000012 1621.03C1169.0300000000013 1620.29 1172.0300000000013 1619.35 1174.8000000000013 1618.27C1176.1800000000014 1617.72 1177.5100000000014 1617.1399999999999 1178.7700000000013 1616.51C1180.0300000000013 1615.8799999999999 1181.2200000000014 1615.23 1182.3300000000013 1614.53C1184.1300000000012 1613.41 1185.7100000000014 1612.19 1187.0300000000013 1610.94L1187.2100000000014 1610.77C1187.4500000000014 1610.53 1187.6900000000014 1610.29 1187.9100000000014 1610.05C1189.3800000000015 1608.48 1190.4100000000014 1606.87 1190.9900000000014 1605.44C1191.5900000000013 1604.01 1191.7400000000014 1602.8 1191.7700000000013 1601.99C1191.7800000000013 1601.58 1191.7700000000013 1601.27 1191.7500000000014 1601.07C1191.7400000000014 1600.86 1191.7300000000014 1600.76 1191.7300000000014 1600.76C1191.7300000000014 1600.76 1191.7200000000014 1600.86 1191.6900000000014 1601.07C1191.6600000000014 1601.27 1191.6100000000015 1601.57 1191.5200000000013 1601.96C1191.4400000000014 1602.3400000000001 1191.2900000000013 1602.81 1191.0900000000013 1603.33C1190.8900000000012 1603.86 1190.6000000000013 1604.4399999999998 1190.2300000000014 1605.05C1189.8500000000013 1605.6499999999999 1189.3800000000015 1606.29 1188.8100000000013 1606.93C1188.3400000000013 1607.45 1187.8100000000013 1607.97 1187.2100000000014 1608.48V1602.26C1187.4500000000014 1602.02 1187.6900000000014 1601.78 1187.9100000000014 1601.54C1189.3800000000015 1599.97 1190.4100000000014 1598.36 1190.9900000000014 1596.93C1191.5900000000013 1595.5 1191.7400000000014 1594.29 1191.7700000000013 1593.48C1191.7800000000013 1593.08 1191.7700000000013 1592.76 1191.7500000000014 1592.56C1191.7400000000014 1592.35 1191.7300000000014 1592.25 1191.7300000000014 1592.25C1191.7300000000014 1592.25 1191.7100000000014 1592.35 1191.6900000000014 1592.56C1191.6600000000014 1592.77 1191.6100000000015 1593.06 1191.5200000000013 1593.45C1191.4400000000014 1593.8300000000002 1191.2900000000013 1594.3 1191.0900000000013 1594.82C1190.8900000000012 1595.35 1190.6000000000013 1595.9299999999998 1190.2300000000014 1596.54C1189.8500000000013 1597.1399999999999 1189.3800000000015 1597.78 1188.8100000000013 1598.42C1188.3400000000013 1598.94 1187.8000000000013 1599.46 1187.2100000000014 1599.97V1593.22C1190.8100000000013 1590.3500000000001 1193.5800000000013 1586.59 1193.8600000000015 1581.73C1193.8500000000015 1577.47 1191.6400000000015 1573.99 1188.6300000000015 1571.23V1569.17C1191.7100000000014 1566.49 1194.4700000000014 1570.4 1196.5100000000016 1566.54C1191.7200000000016 1566.6 1192.7700000000016 1563.6399999999999 1188.6500000000017 1563.8999999999999ZM1163.46 1564.89C1167.52 1565.66 1171.5 1566.75 1175.33 1568.26C1178.75 1569.6 1182.9399999999998 1571.54 1185.8999999999999 1574.3799999999999L1169.6399999999999 1584.56C1166.4199999999998 1582.05 1161.2599999999998 1580.11 1155.06 1579.1299999999999ZM1151.24 1563.44C1154.47 1563.6200000000001 1157.71 1563.94 1160.92 1564.45L1152.46 1578.78C1150.3400000000001 1578.55 1148.1200000000001 1578.42 1145.83 1578.42C1143.55 1578.42 1141.33 1578.5500000000002 1139.21 1578.78L1130.75 1564.44C1137.51 1563.3600000000001 1144.41 1563.06 1151.24 1563.44ZM1108.73 1572.06C1114.51 1568.21 1121.43 1566.1599999999999 1128.2 1564.8899999999999L1136.6100000000001 1579.1299999999999C1130.41 1580.11 1125.2500000000002 1582.05 1122.0300000000002 1584.56L1105.7600000000002 1574.37C1106.6800000000003 1573.51 1107.7000000000003 1572.75 1108.7300000000002 1572.06ZM1110.53 1612.35C1109.43 1611.82 1108.3999999999999 1611.25 1107.45 1610.6599999999999C1107.26 1610.54 1107.06 1610.4199999999998 1106.8700000000001 1610.29V1604.32C1107.64 1604.9099999999999 1108.46 1605.48 1109.3400000000001 1606.02C1110.45 1606.72 1111.64 1607.3799999999999 1112.9 1608C1113.8700000000001 1608.48 1114.88 1608.94 1115.92 1609.37V1614.56C1113.99 1613.8899999999999 1112.18 1613.1599999999999 1110.53 1612.35ZM1115.92 1606.05C1113.99 1605.3899999999999 1112.18 1604.6499999999999 1110.53 1603.84C1109.42 1603.31 1108.3999999999999 1602.74 1107.45 1602.1499999999999C1107.25 1602.03 1107.06 1601.9099999999999 1106.8700000000001 1601.78V1594.87C1107.72 1595.4199999999998 1108.5800000000002 1595.9199999999998 1109.44 1596.3899999999999C1111.53 1597.52 1113.7 1598.4899999999998 1115.92 1599.31ZM1113.8 1593.9C1110.43 1592.3500000000001 1107.03 1590.42 1104.56 1587.5800000000002C1103.36 1586.2100000000003 1101.6299999999999 1583.64 1101.99 1581.63C1102.16 1580.65 1102.43 1578.99 1103.05 1577.75C1103.35 1577.2 1103.7 1576.68 1104.08 1576.18L1120.1999999999998 1586.28C1119.0599999999997 1587.61 1118.4299999999998 1589.06 1118.4299999999998 1590.58C1118.4299999999998 1592.96 1119.9799999999998 1595.1799999999998 1122.6399999999999 1597.05C1119.61 1596.24 1116.6299999999999 1595.21 1113.8 1593.8999999999999ZM1126.56 1617.29C1123.6799999999998 1616.76 1120.9199999999998 1616.11 1118.34 1615.33V1610.31C1120.6899999999998 1611.1599999999999 1123.1899999999998 1611.9099999999999 1125.79 1612.52C1126.57 1612.71 1127.37 1612.8799999999999 1128.17 1613.04L1129.5900000000001 1617.79C1128.5700000000002 1617.6399999999999 1127.5600000000002 1617.47 1126.5600000000002 1617.29ZM1165.11 1617.29C1164.11 1617.47 1163.1 1617.6399999999999 1162.08 1617.79L1163.5 1613.04C1164.3 1612.8799999999999 1165.1 1612.71 1165.88 1612.52C1168.48 1611.91 1170.98 1611.16 1173.3300000000002 1610.31V1615.33C1170.7500000000002 1616.11 1167.9900000000002 1616.76 1165.1100000000001 1617.29ZM1173.33 1606.83C1170.75 1607.6 1167.99 1608.25 1165.11 1608.78C1164.2199999999998 1608.94 1163.32 1609.09 1162.4199999999998 1609.23C1151.2699999999998 1606.3700000000001 1140.3999999999999 1606.3700000000001 1129.2499999999998 1609.23C1128.3399999999997 1609.09 1127.4499999999998 1608.94 1126.5599999999997 1608.78C1123.6799999999996 1608.25 1120.9199999999996 1607.6 1118.3399999999997 1606.83V1600.1499999999999C1123.2299999999998 1601.7399999999998 1128.3499999999997 1602.7199999999998 1133.3899999999996 1603.34C1141.7599999999995 1604.37 1150.2799999999997 1604.36 1158.6399999999996 1603.31C1163.5799999999997 1602.7 1168.5599999999997 1601.73 1173.3299999999997 1600.19ZM1184.21 1610.66C1183.27 1611.25 1182.24 1611.8200000000002 1181.14 1612.3500000000001C1179.49 1613.16 1177.68 1613.89 1175.74 1614.5600000000002V1609.3700000000001C1176.79 1608.94 1177.8 1608.48 1178.77 1608.0000000000002C1180.03 1607.3800000000003 1181.22 1606.7200000000003 1182.33 1606.0200000000002C1183.21 1605.4800000000002 1184.03 1604.9100000000003 1184.8 1604.3200000000002V1610.2900000000002C1184.61 1610.4200000000003 1184.4099999999999 1610.5400000000002 1184.21 1610.66ZM1184.8 1601.78C1184.61 1601.91 1184.4099999999999 1602.03 1184.21 1602.1499999999999C1183.27 1602.7399999999998 1182.24 1603.31 1181.14 1603.84C1179.49 1604.6499999999999 1177.68 1605.3899999999999 1175.74 1606.05V1599.35C1177.78 1598.6 1179.78 1597.73 1181.71 1596.73C1182.75 1596.19 1183.79 1595.6 1184.8 1594.95ZM1189.59 1581.61C1189.56 1585.31 1186.27 1588.81 1183.05 1590.9799999999998C1178.86 1593.8099999999997 1174.05 1595.6899999999998 1169.11 1596.9899999999998C1171.7199999999998 1595.1299999999999 1173.2299999999998 1592.9299999999998 1173.2299999999998 1590.5799999999997C1173.2299999999998 1589.0599999999997 1172.61 1587.6099999999997 1171.4699999999998 1586.2799999999997L1187.5299999999997 1576.2199999999998C1188.6899999999998 1577.7799999999997 1189.4499999999998 1579.5599999999997 1189.5899999999997 1581.61Z " fill="#ffffff" fill-opacity="1" transform="matrix(1,0,0,1,-1095,-1552)"></path></svg>