<svg id="SvgjsSvg1000" xmlns="http://www.w3.org/2000/svg" version="1.1" xmlns:xlink="http://www.w3.org/1999/xlink" xmlns:svgjs="http://svgjs.com/svgjs" width="72" height="72" viewBox="0 0 72 72"><title>Shape 1</title><desc>Created with Avocode.</desc><defs id="SvgjsDefs1001"></defs><path id="SvgjsPath1007" d="M1135.6 1839.32H1140.37C1141.03 1839.32 1141.56 1838.79 1141.56 1838.1299999999999V1830.9699999999998C1141.56 1830.3099999999997 1141.03 1829.7799999999997 1140.37 1829.7799999999997H1135.6C1134.9399999999998 1829.7799999999997 1134.4099999999999 1830.3099999999997 1134.4099999999999 1830.9699999999998V1838.1299999999999C1134.4099999999999 1838.79 1134.9399999999998 1839.32 1135.6 1839.32ZM1136.79 1832.17H1139.18V1836.94H1136.79ZM1135.6 1825.01H1140.37C1141.03 1825.01 1141.56 1824.48 1141.56 1823.82V1816.6599999999999C1141.56 1815.9999999999998 1141.03 1815.4699999999998 1140.37 1815.4699999999998H1135.6C1134.9399999999998 1815.4699999999998 1134.4099999999999 1815.9999999999998 1134.4099999999999 1816.6599999999999V1823.82C1134.4099999999999 1824.48 1134.9399999999998 1825.01 1135.6 1825.01ZM1136.79 1817.85H1139.18V1822.62H1136.79ZM1126.68 1816.49L1143.95 1806.1200000000001L1161.21 1816.49C1161.41 1816.61 1161.6200000000001 1816.66 1161.83 1816.66C1162.23 1816.66 1162.6299999999999 1816.45 1162.85 1816.0800000000002C1163.1899999999998 1815.5200000000002 1163.01 1814.7800000000002 1162.4399999999998 1814.45L1145.1399999999999 1804.06V1796.3899999999999H1151.1V1798.77H1147.52C1146.87 1798.77 1146.33 1799.31 1146.33 1799.96C1146.33 1800.6200000000001 1146.87 1801.16 1147.52 1801.16H1152.29C1152.95 1801.16 1153.48 1800.6200000000001 1153.48 1799.96V1795.19C1153.48 1794.53 1152.95 1794 1152.29 1794H1143.95C1143.29 1794 1142.76 1794.53 1142.76 1795.19V1804.06L1125.45 1814.45C1124.89 1814.78 1124.71 1815.52 1125.04 1816.0800000000002C1125.3799999999999 1816.65 1126.12 1816.8300000000002 1126.68 1816.4900000000002ZM1121.3 1839.32C1121.96 1839.32 1122.49 1838.79 1122.49 1838.1299999999999V1830.9699999999998C1122.49 1830.3099999999997 1121.96 1829.7799999999997 1121.3 1829.7799999999997H1116.53C1115.87 1829.7799999999997 1115.34 1830.3099999999997 1115.34 1830.9699999999998V1833.36C1115.34 1834.02 1115.87 1834.55 1116.53 1834.55C1117.19 1834.55 1117.72 1834.02 1117.72 1833.36V1832.1699999999998H1120.1100000000001V1838.1299999999999C1120.1100000000001 1838.79 1120.64 1839.32 1121.3000000000002 1839.32ZM1129.64 1854.83V1820.24C1129.64 1819.58 1129.1100000000001 1819.05 1128.45 1819.05C1127.79 1819.05 1127.26 1819.58 1127.26 1820.24V1854.83C1127.26 1855.49 1127.79 1856.02 1128.45 1856.02C1129.1100000000001 1856.02 1129.64 1855.49 1129.64 1854.83ZM1123.68 1860.79H1164.21C1164.8700000000001 1860.79 1165.4 1860.26 1165.4 1859.6C1165.4 1858.9399999999998 1164.8700000000001 1858.4099999999999 1164.21 1858.4099999999999H1153.48V1846.4799999999998H1154.68C1155.3300000000002 1846.4799999999998 1155.8700000000001 1845.9399999999998 1155.8700000000001 1845.2899999999997C1155.8700000000001 1844.6299999999997 1155.3300000000002 1844.0899999999997 1154.68 1844.0899999999997H1133.22C1132.56 1844.0899999999997 1132.03 1844.6299999999997 1132.03 1845.2899999999997C1132.03 1845.9399999999998 1132.56 1846.4799999999998 1133.22 1846.4799999999998H1134.41V1858.3999999999999H1123.68C1123.02 1858.3999999999999 1122.49 1858.9399999999998 1122.49 1859.6C1122.49 1860.26 1123.02 1860.79 1123.68 1860.79ZM1146.33 1852.44C1146.33 1851.78 1145.8 1851.25 1145.1399999999999 1851.25V1846.48H1151.1V1858.4H1145.1399999999999V1853.63C1145.8 1853.63 1146.33 1853.1000000000001 1146.33 1852.44ZM1136.79 1846.48H1142.76V1851.25C1142.1 1851.25 1141.56 1851.78 1141.56 1852.44C1141.56 1853.1000000000001 1142.1 1853.63 1142.76 1853.63V1858.4H1136.79ZM1171.36 1845.29H1166.6C1165.9399999999998 1845.29 1165.3999999999999 1845.82 1165.3999999999999 1846.48V1853.63C1165.3999999999999 1854.2900000000002 1165.9399999999998 1854.8300000000002 1166.6 1854.8300000000002H1171.36C1172.02 1854.8300000000002 1172.56 1854.2900000000002 1172.56 1853.63V1846.48C1172.56 1845.82 1172.02 1845.29 1171.36 1845.29ZM1170.17 1852.44H1167.79V1847.67H1170.17ZM1171.36 1830.97H1166.6C1165.9399999999998 1830.97 1165.3999999999999 1831.51 1165.3999999999999 1832.17V1839.3200000000002C1165.3999999999999 1839.9800000000002 1165.9399999999998 1840.5100000000002 1166.6 1840.5100000000002H1171.36C1172.02 1840.5100000000002 1172.56 1839.9800000000002 1172.56 1839.3200000000002V1832.17C1172.56 1831.51 1172.02 1830.97 1171.36 1830.97ZM1170.17 1838.13H1167.79V1833.3600000000001H1170.17ZM1168.98 1863.18H1118.91C1118.26 1863.18 1117.72 1863.71 1117.72 1864.3700000000001C1117.72 1865.0300000000002 1118.26 1865.5600000000002 1118.91 1865.5600000000002H1168.98C1169.64 1865.5600000000002 1170.17 1865.0300000000002 1170.17 1864.3700000000001C1170.17 1863.71 1169.64 1863.18 1168.98 1863.18ZM1178.52 1820.24C1177.86 1820.24 1177.32 1820.77 1177.32 1821.43V1822.6200000000001H1164.21C1163.55 1822.6200000000001 1163.02 1823.16 1163.02 1823.8200000000002C1163.02 1824.4800000000002 1163.55 1825.0100000000002 1164.21 1825.0100000000002H1177.32V1864.3700000000001C1177.32 1865.0300000000002 1177.86 1865.5600000000002 1178.52 1865.5600000000002C1179.17 1865.5600000000002 1179.71 1865.0300000000002 1179.71 1864.3700000000001V1821.43C1179.71 1820.77 1179.17 1820.24 1178.52 1820.24ZM1147.52 1839.32H1152.29C1152.95 1839.32 1153.48 1838.79 1153.48 1838.1299999999999V1830.9699999999998C1153.48 1830.3099999999997 1152.95 1829.7799999999997 1152.29 1829.7799999999997H1147.52C1146.87 1829.7799999999997 1146.33 1830.3099999999997 1146.33 1830.9699999999998V1838.1299999999999C1146.33 1838.79 1146.87 1839.32 1147.52 1839.32ZM1151.1 1832.17V1836.94H1148.7199999999998V1832.17ZM1120.11 1852.44C1120.11 1852.29 1120.04 1836.94 1114.1499999999999 1836.94C1108.2499999999998 1836.94 1108.1899999999998 1852.29 1108.1899999999998 1852.44C1108.1899999999998 1855.3200000000002 1110.2399999999998 1857.73 1112.9499999999998 1858.28V1864.37C1112.9499999999998 1865.03 1113.4899999999998 1865.56 1114.1499999999999 1865.56C1114.8 1865.56 1115.34 1865.03 1115.34 1864.37V1858.28C1118.05 1857.73 1120.11 1855.32 1120.11 1852.44ZM1114.15 1856.02C1112.17 1856.02 1110.5700000000002 1854.41 1110.5700000000002 1852.44C1110.5700000000002 1846.5 1112.16 1839.3200000000002 1114.15 1839.3200000000002C1116.13 1839.3200000000002 1117.72 1846.5000000000002 1117.72 1852.44C1117.72 1854.41 1116.1200000000001 1856.02 1114.15 1856.02ZM1160.64 1854.83V1819.05C1160.64 1818.3899999999999 1160.1000000000001 1817.85 1159.44 1817.85C1158.79 1817.85 1158.25 1818.3899999999999 1158.25 1819.05V1854.83C1158.25 1855.49 1158.79 1856.02 1159.44 1856.02C1160.1000000000001 1856.02 1160.64 1855.49 1160.64 1854.83ZM1147.52 1825.01H1152.29C1152.95 1825.01 1153.48 1824.48 1153.48 1823.82V1816.6599999999999C1153.48 1815.9999999999998 1152.95 1815.4699999999998 1152.29 1815.4699999999998H1147.52C1146.87 1815.4699999999998 1146.33 1815.9999999999998 1146.33 1816.6599999999999V1823.82C1146.33 1824.48 1146.87 1825.01 1147.52 1825.01ZM1151.1 1817.85V1822.62H1148.7199999999998V1817.85ZM1109.38 1835.74C1110.0400000000002 1835.74 1110.5700000000002 1835.21 1110.5700000000002 1834.55V1825.01H1123.68C1124.3400000000001 1825.01 1124.8700000000001 1824.48 1124.8700000000001 1823.82C1124.8700000000001 1823.1599999999999 1124.3400000000001 1822.62 1123.68 1822.62H1110.5700000000002V1821.4299999999998C1110.5700000000002 1820.7699999999998 1110.0400000000002 1820.2399999999998 1109.38 1820.2399999999998C1108.72 1820.2399999999998 1108.19 1820.7699999999998 1108.19 1821.4299999999998V1834.5499999999997C1108.19 1835.2099999999998 1108.72 1835.7399999999998 1109.38 1835.7399999999998Z " fill="#000000" fill-opacity="1" transform="matrix(1,0,0,1,-1108,-1794)"></path><path id="SvgjsPath1008" d="M1135.6 1839.32H1140.37C1141.03 1839.32 1141.56 1838.79 1141.56 1838.1299999999999V1830.9699999999998C1141.56 1830.3099999999997 1141.03 1829.7799999999997 1140.37 1829.7799999999997H1135.6C1134.9399999999998 1829.7799999999997 1134.4099999999999 1830.3099999999997 1134.4099999999999 1830.9699999999998V1838.1299999999999C1134.4099999999999 1838.79 1134.9399999999998 1839.32 1135.6 1839.32ZM1136.79 1832.17H1139.18V1836.94H1136.79ZM1135.6 1825.01H1140.37C1141.03 1825.01 1141.56 1824.48 1141.56 1823.82V1816.6599999999999C1141.56 1815.9999999999998 1141.03 1815.4699999999998 1140.37 1815.4699999999998H1135.6C1134.9399999999998 1815.4699999999998 1134.4099999999999 1815.9999999999998 1134.4099999999999 1816.6599999999999V1823.82C1134.4099999999999 1824.48 1134.9399999999998 1825.01 1135.6 1825.01ZM1136.79 1817.85H1139.18V1822.62H1136.79ZM1126.68 1816.49L1143.95 1806.1200000000001L1161.21 1816.49C1161.41 1816.61 1161.6200000000001 1816.66 1161.83 1816.66C1162.23 1816.66 1162.6299999999999 1816.45 1162.85 1816.0800000000002C1163.1899999999998 1815.5200000000002 1163.01 1814.7800000000002 1162.4399999999998 1814.45L1145.1399999999999 1804.06V1796.3899999999999H1151.1V1798.77H1147.52C1146.87 1798.77 1146.33 1799.31 1146.33 1799.96C1146.33 1800.6200000000001 1146.87 1801.16 1147.52 1801.16H1152.29C1152.95 1801.16 1153.48 1800.6200000000001 1153.48 1799.96V1795.19C1153.48 1794.53 1152.95 1794 1152.29 1794H1143.95C1143.29 1794 1142.76 1794.53 1142.76 1795.19V1804.06L1125.45 1814.45C1124.89 1814.78 1124.71 1815.52 1125.04 1816.0800000000002C1125.3799999999999 1816.65 1126.12 1816.8300000000002 1126.68 1816.4900000000002ZM1121.3 1839.32C1121.96 1839.32 1122.49 1838.79 1122.49 1838.1299999999999V1830.9699999999998C1122.49 1830.3099999999997 1121.96 1829.7799999999997 1121.3 1829.7799999999997H1116.53C1115.87 1829.7799999999997 1115.34 1830.3099999999997 1115.34 1830.9699999999998V1833.36C1115.34 1834.02 1115.87 1834.55 1116.53 1834.55C1117.19 1834.55 1117.72 1834.02 1117.72 1833.36V1832.1699999999998H1120.1100000000001V1838.1299999999999C1120.1100000000001 1838.79 1120.64 1839.32 1121.3000000000002 1839.32ZM1129.64 1854.83V1820.24C1129.64 1819.58 1129.1100000000001 1819.05 1128.45 1819.05C1127.79 1819.05 1127.26 1819.58 1127.26 1820.24V1854.83C1127.26 1855.49 1127.79 1856.02 1128.45 1856.02C1129.1100000000001 1856.02 1129.64 1855.49 1129.64 1854.83ZM1123.68 1860.79H1164.21C1164.8700000000001 1860.79 1165.4 1860.26 1165.4 1859.6C1165.4 1858.9399999999998 1164.8700000000001 1858.4099999999999 1164.21 1858.4099999999999H1153.48V1846.4799999999998H1154.68C1155.3300000000002 1846.4799999999998 1155.8700000000001 1845.9399999999998 1155.8700000000001 1845.2899999999997C1155.8700000000001 1844.6299999999997 1155.3300000000002 1844.0899999999997 1154.68 1844.0899999999997H1133.22C1132.56 1844.0899999999997 1132.03 1844.6299999999997 1132.03 1845.2899999999997C1132.03 1845.9399999999998 1132.56 1846.4799999999998 1133.22 1846.4799999999998H1134.41V1858.3999999999999H1123.68C1123.02 1858.3999999999999 1122.49 1858.9399999999998 1122.49 1859.6C1122.49 1860.26 1123.02 1860.79 1123.68 1860.79ZM1146.33 1852.44C1146.33 1851.78 1145.8 1851.25 1145.1399999999999 1851.25V1846.48H1151.1V1858.4H1145.1399999999999V1853.63C1145.8 1853.63 1146.33 1853.1000000000001 1146.33 1852.44ZM1136.79 1846.48H1142.76V1851.25C1142.1 1851.25 1141.56 1851.78 1141.56 1852.44C1141.56 1853.1000000000001 1142.1 1853.63 1142.76 1853.63V1858.4H1136.79ZM1171.36 1845.29H1166.6C1165.9399999999998 1845.29 1165.3999999999999 1845.82 1165.3999999999999 1846.48V1853.63C1165.3999999999999 1854.2900000000002 1165.9399999999998 1854.8300000000002 1166.6 1854.8300000000002H1171.36C1172.02 1854.8300000000002 1172.56 1854.2900000000002 1172.56 1853.63V1846.48C1172.56 1845.82 1172.02 1845.29 1171.36 1845.29ZM1170.17 1852.44H1167.79V1847.67H1170.17ZM1171.36 1830.97H1166.6C1165.9399999999998 1830.97 1165.3999999999999 1831.51 1165.3999999999999 1832.17V1839.3200000000002C1165.3999999999999 1839.9800000000002 1165.9399999999998 1840.5100000000002 1166.6 1840.5100000000002H1171.36C1172.02 1840.5100000000002 1172.56 1839.9800000000002 1172.56 1839.3200000000002V1832.17C1172.56 1831.51 1172.02 1830.97 1171.36 1830.97ZM1170.17 1838.13H1167.79V1833.3600000000001H1170.17ZM1168.98 1863.18H1118.91C1118.26 1863.18 1117.72 1863.71 1117.72 1864.3700000000001C1117.72 1865.0300000000002 1118.26 1865.5600000000002 1118.91 1865.5600000000002H1168.98C1169.64 1865.5600000000002 1170.17 1865.0300000000002 1170.17 1864.3700000000001C1170.17 1863.71 1169.64 1863.18 1168.98 1863.18ZM1178.52 1820.24C1177.86 1820.24 1177.32 1820.77 1177.32 1821.43V1822.6200000000001H1164.21C1163.55 1822.6200000000001 1163.02 1823.16 1163.02 1823.8200000000002C1163.02 1824.4800000000002 1163.55 1825.0100000000002 1164.21 1825.0100000000002H1177.32V1864.3700000000001C1177.32 1865.0300000000002 1177.86 1865.5600000000002 1178.52 1865.5600000000002C1179.17 1865.5600000000002 1179.71 1865.0300000000002 1179.71 1864.3700000000001V1821.43C1179.71 1820.77 1179.17 1820.24 1178.52 1820.24ZM1147.52 1839.32H1152.29C1152.95 1839.32 1153.48 1838.79 1153.48 1838.1299999999999V1830.9699999999998C1153.48 1830.3099999999997 1152.95 1829.7799999999997 1152.29 1829.7799999999997H1147.52C1146.87 1829.7799999999997 1146.33 1830.3099999999997 1146.33 1830.9699999999998V1838.1299999999999C1146.33 1838.79 1146.87 1839.32 1147.52 1839.32ZM1151.1 1832.17V1836.94H1148.7199999999998V1832.17ZM1120.11 1852.44C1120.11 1852.29 1120.04 1836.94 1114.1499999999999 1836.94C1108.2499999999998 1836.94 1108.1899999999998 1852.29 1108.1899999999998 1852.44C1108.1899999999998 1855.3200000000002 1110.2399999999998 1857.73 1112.9499999999998 1858.28V1864.37C1112.9499999999998 1865.03 1113.4899999999998 1865.56 1114.1499999999999 1865.56C1114.8 1865.56 1115.34 1865.03 1115.34 1864.37V1858.28C1118.05 1857.73 1120.11 1855.32 1120.11 1852.44ZM1114.15 1856.02C1112.17 1856.02 1110.5700000000002 1854.41 1110.5700000000002 1852.44C1110.5700000000002 1846.5 1112.16 1839.3200000000002 1114.15 1839.3200000000002C1116.13 1839.3200000000002 1117.72 1846.5000000000002 1117.72 1852.44C1117.72 1854.41 1116.1200000000001 1856.02 1114.15 1856.02ZM1160.64 1854.83V1819.05C1160.64 1818.3899999999999 1160.1000000000001 1817.85 1159.44 1817.85C1158.79 1817.85 1158.25 1818.3899999999999 1158.25 1819.05V1854.83C1158.25 1855.49 1158.79 1856.02 1159.44 1856.02C1160.1000000000001 1856.02 1160.64 1855.49 1160.64 1854.83ZM1147.52 1825.01H1152.29C1152.95 1825.01 1153.48 1824.48 1153.48 1823.82V1816.6599999999999C1153.48 1815.9999999999998 1152.95 1815.4699999999998 1152.29 1815.4699999999998H1147.52C1146.87 1815.4699999999998 1146.33 1815.9999999999998 1146.33 1816.6599999999999V1823.82C1146.33 1824.48 1146.87 1825.01 1147.52 1825.01ZM1151.1 1817.85V1822.62H1148.7199999999998V1817.85ZM1109.38 1835.74C1110.0400000000002 1835.74 1110.5700000000002 1835.21 1110.5700000000002 1834.55V1825.01H1123.68C1124.3400000000001 1825.01 1124.8700000000001 1824.48 1124.8700000000001 1823.82C1124.8700000000001 1823.1599999999999 1124.3400000000001 1822.62 1123.68 1822.62H1110.5700000000002V1821.4299999999998C1110.5700000000002 1820.7699999999998 1110.0400000000002 1820.2399999999998 1109.38 1820.2399999999998C1108.72 1820.2399999999998 1108.19 1820.7699999999998 1108.19 1821.4299999999998V1834.5499999999997C1108.19 1835.2099999999998 1108.72 1835.7399999999998 1109.38 1835.7399999999998Z " fill="#ffffff" fill-opacity="1" transform="matrix(1,0,0,1,-1108,-1794)"></path></svg>