<?xml version="1.0" encoding="UTF-8" standalone="no"?>
<svg
   xmlns:dc="http://purl.org/dc/elements/1.1/"
   xmlns:cc="http://creativecommons.org/ns#"
   xmlns:rdf="http://www.w3.org/1999/02/22-rdf-syntax-ns#"
   xmlns:svg="http://www.w3.org/2000/svg"
   xmlns="http://www.w3.org/2000/svg"
   viewBox="0 0 501.39624 454.07376"
   height="454.07376"
   width="501.39624"
   xml:space="preserve"
   version="1.1"
   id="svg2"><metadata
     id="metadata8"><rdf:RDF><cc:Work
         rdf:about=""><dc:format>image/svg+xml</dc:format><dc:type
           rdf:resource="http://purl.org/dc/dcmitype/StillImage" /></cc:Work></rdf:RDF></metadata><defs
     id="defs6"><clipPath
       id="clipPath16"
       clipPathUnits="userSpaceOnUse"><path
         id="path18"
         d="m 0,363.259 401.117,0 L 401.117,0 0,0 0,363.259 Z" /></clipPath><clipPath
       id="clipPath126"
       clipPathUnits="userSpaceOnUse"><path
         id="path128"
         d="m 0,363.259 401.117,0 L 401.117,0 0,0 0,363.259 Z" /></clipPath><clipPath
       id="clipPath150"
       clipPathUnits="userSpaceOnUse"><path
         id="path152"
         d="m 0,363.259 401.117,0 L 401.117,0 0,0 0,363.259 Z" /></clipPath><clipPath
       id="clipPath170"
       clipPathUnits="userSpaceOnUse"><path
         id="path172"
         d="m 0,363.259 401.117,0 L 401.117,0 0,0 0,363.259 Z" /></clipPath><clipPath
       id="clipPath190"
       clipPathUnits="userSpaceOnUse"><path
         id="path192"
         d="m 0,363.259 401.117,0 L 401.117,0 0,0 0,363.259 Z" /></clipPath><clipPath
       id="clipPath210"
       clipPathUnits="userSpaceOnUse"><path
         id="path212"
         d="m 0,363.259 401.117,0 L 401.117,0 0,0 0,363.259 Z" /></clipPath><clipPath
       id="clipPath230"
       clipPathUnits="userSpaceOnUse"><path
         id="path232"
         d="m 0,363.259 401.117,0 L 401.117,0 0,0 0,363.259 Z" /></clipPath><clipPath
       id="clipPath250"
       clipPathUnits="userSpaceOnUse"><path
         id="path252"
         d="m 0,363.259 401.117,0 L 401.117,0 0,0 0,363.259 Z" /></clipPath></defs><g
     transform="matrix(1.25,0,0,-1.25,0,454.07375)"
     id="g10"><g
       id="g12"><g
         clip-path="url(#clipPath16)"
         id="g14"><g
           transform="translate(137.9614,281.2593)"
           id="g20"><path
             id="path22"
             style="fill:none;stroke:#384d71;stroke-width:1.11699998;stroke-linecap:round;stroke-linejoin:round;stroke-miterlimit:10;stroke-dasharray:none;stroke-opacity:1"
             d="M 0,0 1.189,1.189 M 3.745,3.745 2.556,2.556 M 3.745,0 2.556,1.189 M 0,3.745 1.189,2.556 M 2.995,0.75 c -0.62,-0.619 -1.624,-0.619 -2.245,0 -0.619,0.62 -0.619,1.625 0,2.244 0.621,0.62 1.625,0.62 2.245,0 0.62,-0.619 0.62,-1.624 0,-2.244 z M -6.43,0.799 15.149,-20.78 c 2.562,-2.563 6.719,-2.563 9.281,0 2.562,2.563 2.563,6.719 0,9.281 L 2.852,10.08 c -0.489,0.489 -1.288,0.489 -1.777,0 L -6.43,2.575 c -0.489,-0.489 -0.489,-1.287 0,-1.776 z m -4.198,-0.56 27.749,-27.749 c 3.877,-3.876 10.164,-3.876 14.04,0 3.876,3.876 3.876,10.163 0,14.04 L 3.412,14.279 c -0.741,0.74 -1.947,0.74 -2.687,0 L -10.628,2.925 c -0.74,-0.739 -0.74,-1.946 0,-2.686 z M 40.686,-20.259 23.91,-37.036 -14.572,1.446 2.205,18.222 40.686,-20.259 Z" /></g><g
           transform="translate(383.6289,217.6572)"
           id="g24"><path
             id="path26"
             style="fill:none;stroke:#384d71;stroke-width:1.11699998;stroke-linecap:round;stroke-linejoin:round;stroke-miterlimit:10;stroke-dasharray:none;stroke-opacity:1"
             d="m 0,0 c -3.221,0 -5.175,-0.806 -7.363,-0.806 -3.421,0 -8.522,2.307 -8.522,6.435 0,4.128 5.101,6.435 8.522,6.435 2.188,0 4.142,-0.805 7.363,-0.805 M -13.111,3.022 c 2.242,0.963 2.242,4.251 0,5.213 m 12.91,-5.42 C -5.45,-0.16 -14.277,0.886 -14.277,5.629 c 0,4.744 8.827,5.789 14.076,2.814 M 2.247,5.629 c 0,0.425 0.345,0.768 0.768,0.768 0.425,0 0.77,-0.343 0.77,-0.768 0,-0.424 -0.345,-0.768 -0.77,-0.768 -0.423,0 -0.768,0.344 -0.768,0.768 z m -2.448,-4.725 0,9.45 c 0,0.885 0.722,1.61 1.608,1.61 l 3.218,0 c 0.884,0 1.608,-0.725 1.608,-1.61 l 0,-9.45 c 0,-0.885 -0.724,-1.61 -1.608,-1.61 l -3.218,0 c -0.886,0 -1.608,0.725 -1.608,1.61 z" /></g><g
           transform="translate(161.1255,318.2412)"
           id="g28"><path
             id="path30"
             style="fill:none;stroke:#384d71;stroke-width:1.11699998;stroke-linecap:round;stroke-linejoin:round;stroke-miterlimit:10;stroke-dasharray:none;stroke-opacity:1"
             d="M 0,0 0.919,0.918 M 0.919,0 0,0.918 m 3.259,-3.26 c -0.187,-0.187 -0.489,-0.187 -0.677,0 -0.187,0.187 -0.187,0.49 0,0.677 0.188,0.187 0.49,0.187 0.677,0 0.187,-0.187 0.187,-0.49 0,-0.677 z M 5.024,2.565 -1.647,-4.106 -0.251,-5.5 c 1.815,-1.816 4.148,-0.491 5.654,1.015 1.506,1.506 2.832,3.839 1.016,5.655 L 5.024,2.565 Z m 1.499,-8.169 c 3.489,3.488 2.458,6.451 1.016,7.894 l -3.764,3.764 -8.91,-8.91 3.764,-3.764 c 1.443,-1.443 4.405,-2.473 7.894,1.016 z" /></g><g
           transform="translate(350.4932,203.5996)"
           id="g32"><path
             id="path34"
             style="fill:none;stroke:#384d71;stroke-width:1.11699998;stroke-linecap:round;stroke-linejoin:round;stroke-miterlimit:10;stroke-dasharray:none;stroke-opacity:1"
             d="m 0,0 -18.899,0 0,-9.163 c 0,-5.377 4.361,-9.737 9.737,-9.737 l 9.162,0 m 19.101,0 L 0,-18.9 0,0 19.101,0 m 17.696,-66.686 0,15.148 m -5.496,-3.373 c 0,0.852 0.691,1.544 1.545,1.544 0.852,0 1.544,-0.692 1.544,-1.544 0,-0.854 -0.692,-1.545 -1.544,-1.545 -0.854,0 -1.545,0.691 -1.545,1.545 z m 0,-8.404 c 0,0.853 0.691,1.544 1.545,1.544 0.852,0 1.544,-0.691 1.544,-1.544 0,-0.852 -0.692,-1.543 -1.544,-1.543 -0.854,0 -1.545,0.691 -1.545,1.543 z m -7.71,8.404 c 0,0.852 0.691,1.544 1.545,1.544 0.85,0 1.542,-0.692 1.542,-1.544 0,-0.854 -0.692,-1.545 -1.542,-1.545 -0.854,0 -1.545,0.691 -1.545,1.545 z m 0,-8.404 c 0,0.853 0.691,1.544 1.545,1.544 0.85,0 1.542,-0.691 1.542,-1.544 0,-0.852 -0.692,-1.543 -1.542,-1.543 -0.854,0 -1.545,0.691 -1.545,1.543 z m -2.612,11.777 18.095,0 0,-15.147 -18.095,0 0,15.147 z m 15.414,41.351 0,7.505 m -13.269,-7.505 0,7.505 m 1.896,-7.505 0,7.506 m 1.896,-7.506 0,7.506 m 1.896,-7.506 0,7.506 m 1.895,-7.506 0,7.506 m 1.897,-7.506 0,7.506 m 1.895,-7.506 0,7.506 m -0.249,-18.034 0,1.876 m -1.475,-0.939 5.014,0 m -17.347,-5.361 0,10.723 c 0,1.073 0.88,1.951 1.951,1.951 l 13.446,0 c 1.073,0 1.95,-0.878 1.95,-1.951 l 0,-10.723 c 0,-1.072 -0.877,-1.951 -1.95,-1.951 l -13.446,0 c -1.074,0 -1.951,0.879 -1.951,1.951 z m -1.341,-43.424 0,-7.64 21.851,0 m -21.851,26.54 21.851,0 m -21.851,20.575 21.851,0 m 0,-39.475 -21.851,0 0,68.563 21.851,0" /></g><g
           transform="translate(131.9727,131.7187)"
           id="g36"><path
             id="path38"
             style="fill:#384c71;fill-opacity:1;fill-rule:evenodd;stroke:none"
             d="M 0,0 0,-5.292 -12.434,-17.726 0,-30.159 l 0,-12.887 -21.423,21.423 -22.276,-22.276 -2.647,-2.647 -2.646,2.647 -46.613,46.614 2.646,2.645 46.613,-46.613 22.277,22.276 -6.804,6.803 6.443,6.445 9.349,-9.35 L 0,0 Z m 0,174.04 -102.1,-102.1 -6.443,-6.443 6.443,-6.444 27.596,-27.595 6.443,6.442 -27.595,27.597 82.843,82.842 L 0,135.567 0,140.852 -10.167,150.986 0,161.152 0,174.04 Z M 0,-43.046 0,-30.159 7.338,-37.498 0.895,-43.942 0,-43.046 Z m 91.785,-36.941 -3.82,0 0,9.112 3.82,0 0,-9.112 z m 0,162.725 0,-3.743 -7.498,0 L 0,-5.292 0,0 l 82.737,82.738 9.048,0 z m 0,68.025 -8.679,-8.679 2.648,-2.646 6.031,6.032 0,5.293 z M 0,135.567 47.752,87.966 l 2.647,2.646 -6.745,6.723 26.45,26.387 -2.647,2.647 L 41.003,99.978 0,140.852 0,135.567 Z m 91.785,60.571 -28.4,28.4 -6.443,6.443 -6.444,-6.443 L 0,174.04 l 0,-12.888 56.942,56.942 34.843,-34.844 0,12.888 z m 0,-113.4 3.819,0 0,-3.743 -3.819,0 0,3.743 z m 25.333,-162.725 -25.333,0 0,9.112 25.333,0 0,-9.112 z m -19.722,257.627 19.722,0 0,9.112 -15.947,0 -9.386,9.386 0,-12.888 0.48,-0.479 0,-31.528 -0.48,-0.48 0,-5.293 4.223,4.222 0,29.336 1.388,-1.388 z m 164.76,-308.633 1.872,0 1.872,0 0,51.006 2.686,0 0,9.112 0,195.901 -2.679,0 -6.434,0 -62.869,0 0,61.726 -2.88,0 -6.233,0 -9.449,0 0,-9.112 9.449,0 0,-52.614 0,-5.37 0,-3.742 0,-12.064 3.743,0 0,12.064 5.37,0 62.869,0 0,-40.29 -68.239,0 0,5.908 -3.743,0 0,-5.908 0,-3.743 0,-3.016 3.743,0 0,3.016 68.239,0 0,-142.756 -33.377,0 0,-9.112 34.653,0 1.407,0 0,-51.006 z m -145.038,51.006 0,9.112 38.079,0 0,149.87 -18.374,0 0,3.743 18.374,0 3.744,0 0,-3.743 0,-6.388 3.216,0 0,-3.742 -3.216,0 0,-139.74 14.878,0 0,-9.112 -56.701,0 z m 0,257.627 29.155,0 0,9.112 -29.155,0 0,-9.112 z" /></g><g
           transform="translate(290.9141,200.5835)"
           id="g40"><path
             id="path42"
             style="fill:none;stroke:#384c71;stroke-width:1.11800003;stroke-linecap:round;stroke-linejoin:round;stroke-miterlimit:22.9260006;stroke-dasharray:none;stroke-opacity:1"
             d="m 0,0 3.216,0 0,3.743 -3.216,0 0,6.387 0,3.743 -3.744,0 -18.374,0 0,-3.743 18.374,0 0,-149.87 -67.233,0 0,-9.112 85.855,0 0,9.112 L 0,-139.74 0,0 Z m -251.9,-63.504 -2.647,-2.646 46.613,-46.614 2.647,-2.647 2.646,2.647 22.277,22.276 22.317,-22.319 6.444,6.444 -19.772,19.773 96.721,96.72 11.317,0 0,3.743 -12.867,0 -97.818,-97.817 -9.349,9.35 -6.443,-6.445 6.803,-6.802 -22.276,-22.277 -46.613,46.614 z m 355.115,-136.354 1.872,0 1.872,0 0,51.006 2.686,0 0,9.112 0,195.902 -2.679,0 -6.435,0 -62.869,0 0,61.726 -2.88,0 -6.232,0 -9.449,0 0,-9.113 9.449,0 0,-52.613 0,-5.37 0,-3.743 0,-12.064 3.743,0 0,12.064 5.369,0 62.869,0 0,-40.29 -68.238,0 0,5.908 -3.743,0 0,-5.908 0,-3.743 0,-3.016 3.743,0 0,3.016 68.238,0 0,-142.756 -33.377,0 0,-9.112 34.654,0 1.407,0 0,-51.006 z m -164.76,308.633 48.877,0 0,9.113 -45.103,0 -37.785,37.785 -6.444,6.444 -6.443,-6.444 -152.598,-152.598 -6.443,-6.443 6.443,-6.444 27.595,-27.595 6.444,6.443 -27.595,27.596 82.843,82.843 60.565,-60.374 2.647,2.647 -6.745,6.722 26.449,26.387 -2.647,2.647 -26.453,-26.391 -51.17,51.009 67.108,67.107 35.323,-35.323 0,-31.528 -9.158,-9.158 2.647,-2.647 10.254,10.254 0,29.337 1.389,-1.389 z" /></g><g
           transform="translate(36.3672,134.4404)"
           id="g44"><path
             id="path46"
             style="fill:#ffffff;fill-opacity:1;fill-rule:nonzero;stroke:none"
             d="m 0,0 -34.5,34.668 -1.309,1.315 1.309,1.317 23.46,23.569 2.647,-2.632 L -30.543,35.983 2.646,2.633 0,0 Z" /></g><g
           transform="translate(36.3672,134.4404)"
           id="g48"><path
             id="path50"
             style="fill:none;stroke:#384c71;stroke-width:1.11800003;stroke-linecap:round;stroke-linejoin:round;stroke-miterlimit:22.9260006;stroke-dasharray:none;stroke-opacity:1"
             d="m 0,0 -34.5,34.668 -1.309,1.315 1.309,1.317 23.46,23.569 2.647,-2.632 L -30.543,35.983 2.646,2.633 0,0 Z" /></g><g
           transform="translate(37.6543,211.4399)"
           id="g52"><path
             id="path54"
             style="fill:none;stroke:#e2000b;stroke-width:0.317;stroke-linecap:round;stroke-linejoin:round;stroke-miterlimit:22.9260006;stroke-dasharray:none;stroke-opacity:1"
             d="M 0,0 6.443,-6.444" /></g><g
           transform="translate(250.3389,51.7314)"
           id="g56"><path
             id="path58"
             style="fill:#ffffff;fill-opacity:1;fill-rule:nonzero;stroke:none"
             d="m 0,0 0,-21.569 c 22.857,-8.353 46.57,-14.669 70.087,-18.947 24.726,-4.497 50.556,-6.746 73.703,-6.746 l 0,-3.744 c -23.315,0 -49.366,2.276 -74.362,6.82 -24.184,4.4 -48.539,10.919 -71.944,19.558 l -1.226,0.453 0,1.302 L -3.742,0 0,0 Z" /></g><g
           transform="translate(250.3389,51.7314)"
           id="g60"><path
             id="path62"
             style="fill:none;stroke:#384c71;stroke-width:1.11800003;stroke-linecap:round;stroke-linejoin:round;stroke-miterlimit:22.9260006;stroke-dasharray:none;stroke-opacity:1"
             d="m 0,0 0,-21.569 c 22.857,-8.353 46.57,-14.669 70.087,-18.947 24.726,-4.497 50.556,-6.746 73.703,-6.746 l 0,-3.744 c -23.315,0 -49.366,2.276 -74.362,6.82 -24.184,4.4 -48.539,10.919 -71.944,19.558 l -1.226,0.453 0,1.302 L -3.742,0 0,0 Z" /></g><g
           transform="translate(219.9375,53.8057)"
           id="g64"><path
             id="path66"
             style="fill:#ffffff;fill-opacity:1;fill-rule:nonzero;stroke:none"
             d="m 0,0 -48.527,0 -0.775,0 -0.548,0.548 -35.321,35.322 2.646,2.647 L -47.751,3.743 0,3.743 0,0 Z" /></g><g
           transform="translate(219.9375,53.8057)"
           id="g68"><path
             id="path70"
             style="fill:none;stroke:#384c71;stroke-width:1.11800003;stroke-linecap:round;stroke-linejoin:round;stroke-miterlimit:22.9260006;stroke-dasharray:none;stroke-opacity:1"
             d="m 0,0 -48.527,0 -0.775,0 -0.548,0.548 -35.321,35.322 2.646,2.647 L -47.751,3.743 0,3.743 0,0 Z" /></g><path
           id="path72"
           style="fill:#ffffff;fill-opacity:1;fill-rule:nonzero;stroke:#384c71;stroke-width:1.11800003;stroke-linecap:round;stroke-linejoin:round;stroke-miterlimit:22.9260006;stroke-dasharray:none;stroke-opacity:1"
           d="m 358.068,54.417 -28.552,0 0,3.742 28.552,0 0,-3.742 z" /><g
           transform="translate(62.0137,167.7207)"
           id="g74"><path
             id="path76"
             style="fill:#ffffff;fill-opacity:1;fill-rule:nonzero;stroke:none"
             d="M 0,0 26.778,-26.777 24.132,-29.424 -2.646,-2.646 0,0 Z" /></g><g
           transform="translate(62.0137,167.7207)"
           id="g78"><path
             id="path80"
             style="fill:none;stroke:#384c71;stroke-width:1.11800003;stroke-linecap:round;stroke-linejoin:round;stroke-miterlimit:22.9260006;stroke-dasharray:none;stroke-opacity:1"
             d="M 0,0 26.778,-26.777 24.132,-29.424 -2.646,-2.646 0,0 Z" /></g><g
           transform="translate(278.2461,318.4736)"
           id="g82"><path
             id="path84"
             style="fill:none;stroke:#384c71;stroke-width:2.2349999;stroke-linecap:round;stroke-linejoin:round;stroke-miterlimit:22.9260006;stroke-dasharray:none;stroke-opacity:1"
             d="M 0,0 17.563,10.127" /></g><g
           transform="translate(199.4292,258.0874)"
           id="g86"><path
             id="path88"
             style="fill:none;stroke:#384c71;stroke-width:2.2349999;stroke-linecap:round;stroke-linejoin:round;stroke-miterlimit:22.9260006;stroke-dasharray:none;stroke-opacity:1"
             d="M 0,0 6.234,22.72" /></g><g
           transform="translate(200.2334,199.98)"
           id="g90"><path
             id="path92"
             style="fill:none;stroke:#384c71;stroke-width:2.2349999;stroke-linecap:round;stroke-linejoin:round;stroke-miterlimit:22.9260006;stroke-dasharray:none;stroke-opacity:1"
             d="M 0,0 -27.546,7.238" /></g><g
           transform="translate(227.5791,210.7139)"
           id="g94"><path
             id="path96"
             style="fill:none;stroke:#384c71;stroke-width:2.2349999;stroke-linecap:round;stroke-linejoin:round;stroke-miterlimit:22.9260006;stroke-dasharray:none;stroke-opacity:1"
             d="M 0,0 23.323,-12.868" /></g><g
           transform="translate(268.7959,210.7139)"
           id="g98"><path
             id="path100"
             style="fill:none;stroke:#384c71;stroke-width:2.2349999;stroke-linecap:round;stroke-linejoin:round;stroke-miterlimit:22.9260006;stroke-dasharray:none;stroke-opacity:1"
             d="M 0,0 -12.466,-8.244" /></g><g
           transform="translate(319.4639,235.5684)"
           id="g102"><path
             id="path104"
             style="fill:none;stroke:#384c71;stroke-width:2.2349999;stroke-linecap:round;stroke-linejoin:round;stroke-miterlimit:22.9260006;stroke-dasharray:none;stroke-opacity:1"
             d="M 0,0 -11.26,-19.302" /></g><g
           transform="translate(294.1299,200.5835)"
           id="g106"><path
             id="path108"
             style="fill:none;stroke:#384c71;stroke-width:2.2349999;stroke-linecap:round;stroke-linejoin:round;stroke-miterlimit:22.9260006;stroke-dasharray:none;stroke-opacity:1"
             d="M 0,0 21.917,-12.667" /></g><g
           transform="translate(107.5435,125.9893)"
           id="g110"><path
             id="path112"
             style="fill:none;stroke:#384c71;stroke-width:2.2349999;stroke-linecap:round;stroke-linejoin:round;stroke-miterlimit:22.9260006;stroke-dasharray:none;stroke-opacity:1"
             d="M 0,0 -6.233,22.922" /></g><g
           transform="translate(208.4668,17.7939)"
           id="g114"><path
             id="path116"
             style="fill:none;stroke:#384d71;stroke-width:1.11699998;stroke-linecap:round;stroke-linejoin:round;stroke-miterlimit:10;stroke-dasharray:none;stroke-opacity:1"
             d="m 0,0 c 6.977,0 12.666,5.689 12.666,12.666 0,6.976 -5.689,12.665 -12.666,12.665 -6.975,0 -12.665,-5.689 -12.665,-12.665 C -12.665,5.689 -6.975,0 0,0 Z" /></g></g></g><text
       id="text118"
       style="font-variant:normal;font-weight:bold;font-stretch:normal;font-size:17.36359978px;font-family:Roboto;-inkscape-font-specification:Roboto-Bold;writing-mode:lr-tb;fill:#000000;fill-opacity:1;fill-rule:nonzero;stroke:none"
       transform="matrix(1,0,0,-1,203.8311,24.1982)"><tspan
         id="tspan120"
         y="0"
         x="0">7</tspan></text>
<g
       id="g122"><g
         clip-path="url(#clipPath126)"
         id="g124"><text
           id="text130"
           style="font-variant:normal;font-weight:normal;font-stretch:normal;font-size:11.88169956px;font-family:Roboto;-inkscape-font-specification:Roboto-Regular;writing-mode:lr-tb;fill:#000000;fill-opacity:1;fill-rule:nonzero;stroke:none"
           transform="matrix(1,0,0,-1,200.4487,4.0801)"><tspan
             id="tspan132"
             y="0"
             x="0 6.6893973 9.8677521">1.5</tspan></text>
<g
           transform="translate(369.3652,287.2212)"
           id="g134"><path
             id="path136"
             style="fill:none;stroke:#384d71;stroke-width:1.11699998;stroke-linecap:round;stroke-linejoin:round;stroke-miterlimit:10;stroke-dasharray:none;stroke-opacity:1"
             d="m 0,0 c 6.975,0 12.664,5.689 12.664,12.665 0,6.976 -5.689,12.666 -12.664,12.666 -6.976,0 -12.665,-5.69 -12.665,-12.666 C -12.665,5.689 -6.976,0 0,0 Z" /></g></g></g><text
       id="text138"
       style="font-variant:normal;font-weight:bold;font-stretch:normal;font-size:17.36359978px;font-family:Roboto;-inkscape-font-specification:Roboto-Bold;writing-mode:lr-tb;fill:#000000;fill-opacity:1;fill-rule:nonzero;stroke:none"
       transform="matrix(1,0,0,-1,364.7275,293.624)"><tspan
         id="tspan140"
         y="0"
         x="0">5</tspan></text>
<text
       id="text142"
       style="font-variant:normal;font-weight:normal;font-stretch:normal;font-size:11.88169956px;font-family:Roboto;-inkscape-font-specification:Roboto-Regular;writing-mode:lr-tb;fill:#000000;fill-opacity:1;fill-rule:nonzero;stroke:none"
       transform="matrix(1,0,0,-1,358.001,273.5054)"><tspan
         id="tspan144"
         y="0"
         x="0 6.6893973 9.8677521 16.55715">2.12</tspan></text>
<g
       id="g146"><g
         clip-path="url(#clipPath150)"
         id="g148"><g
           transform="translate(327.5029,125.6904)"
           id="g154"><path
             id="path156"
             style="fill:none;stroke:#384d71;stroke-width:1.11699998;stroke-linecap:round;stroke-linejoin:round;stroke-miterlimit:10;stroke-dasharray:none;stroke-opacity:1"
             d="M 0,0 C 6.976,0 12.664,5.689 12.664,12.665 12.664,19.641 6.976,25.33 0,25.33 -6.975,25.33 -12.665,19.641 -12.665,12.665 -12.665,5.689 -6.975,0 0,0 Z" /></g></g></g><text
       id="text158"
       style="font-variant:normal;font-weight:bold;font-stretch:normal;font-size:17.36359978px;font-family:Roboto;-inkscape-font-specification:Roboto-Bold;writing-mode:lr-tb;fill:#000000;fill-opacity:1;fill-rule:nonzero;stroke:none"
       transform="matrix(1,0,0,-1,322.8662,132.0937)"><tspan
         id="tspan160"
         y="0"
         x="0">4</tspan></text>
<text
       id="text162"
       style="font-variant:normal;font-weight:normal;font-stretch:normal;font-size:11.88169956px;font-family:Roboto;-inkscape-font-specification:Roboto-Regular;writing-mode:lr-tb;fill:#000000;fill-opacity:1;fill-rule:nonzero;stroke:none"
       transform="matrix(1,0,0,-1,312.7939,111.9756)"><tspan
         id="tspan164"
         y="0"
         x="0 6.6893973 13.378795 16.55715 23.246546">12.40</tspan></text>
<g
       id="g166"><g
         clip-path="url(#clipPath170)"
         id="g168"><g
           transform="translate(221.4004,127.4121)"
           id="g174"><path
             id="path176"
             style="fill:none;stroke:#384d71;stroke-width:1.11699998;stroke-linecap:round;stroke-linejoin:round;stroke-miterlimit:10;stroke-dasharray:none;stroke-opacity:1"
             d="m 0,0 c 6.976,0 12.665,5.69 12.665,12.666 0,6.976 -5.689,12.666 -12.665,12.666 -6.977,0 -12.666,-5.69 -12.666,-12.666 C -12.666,5.69 -6.977,0 0,0 Z" /></g></g></g><text
       id="text178"
       style="font-variant:normal;font-weight:bold;font-stretch:normal;font-size:17.36359978px;font-family:Roboto;-inkscape-font-specification:Roboto-Bold;writing-mode:lr-tb;fill:#000000;fill-opacity:1;fill-rule:nonzero;stroke:none"
       transform="matrix(1,0,0,-1,216.7646,133.8174)"><tspan
         id="tspan180"
         y="0"
         x="0">2</tspan></text>
<text
       id="text182"
       style="font-variant:normal;font-weight:normal;font-stretch:normal;font-size:11.88169956px;font-family:Roboto;-inkscape-font-specification:Roboto-Regular;writing-mode:lr-tb;fill:#000000;fill-opacity:1;fill-rule:nonzero;stroke:none"
       transform="matrix(1,0,0,-1,206.6924,113.6982)"><tspan
         id="tspan184"
         y="0"
         x="0 6.6893973 13.378795 16.55715 23.246546">18.83</tspan></text>
<g
       id="g186"><g
         clip-path="url(#clipPath190)"
         id="g188"><g
           transform="translate(113.3325,192.6714)"
           id="g194"><path
             id="path196"
             style="fill:none;stroke:#384d71;stroke-width:1.11699998;stroke-linecap:round;stroke-linejoin:round;stroke-miterlimit:10;stroke-dasharray:none;stroke-opacity:1"
             d="m 0,0 c 6.975,0 12.665,5.689 12.665,12.665 0,6.976 -5.69,12.666 -12.665,12.666 -6.976,0 -12.666,-5.69 -12.666,-12.666 C -12.666,5.689 -6.976,0 0,0 Z" /></g></g></g><text
       id="text198"
       style="font-variant:normal;font-weight:bold;font-stretch:normal;font-size:17.36359978px;font-family:Roboto;-inkscape-font-specification:Roboto-Bold;writing-mode:lr-tb;fill:#000000;fill-opacity:1;fill-rule:nonzero;stroke:none"
       transform="matrix(1,0,0,-1,108.6958,199.0747)"><tspan
         id="tspan200"
         y="0"
         x="0">3</tspan></text>
<text
       id="text202"
       style="font-variant:normal;font-weight:normal;font-stretch:normal;font-size:11.88169956px;font-family:Roboto;-inkscape-font-specification:Roboto-Regular;writing-mode:lr-tb;fill:#000000;fill-opacity:1;fill-rule:nonzero;stroke:none"
       transform="matrix(1,0,0,-1,98.6235,178.9561)"><tspan
         id="tspan204"
         y="0"
         x="0 6.6893973 13.378795 16.55715 23.246546">13.12</tspan></text>
<g
       id="g206"><g
         clip-path="url(#clipPath210)"
         id="g208"><g
           transform="translate(268.9678,255.9707)"
           id="g214"><path
             id="path216"
             style="fill:none;stroke:#384d71;stroke-width:1.11699998;stroke-linecap:round;stroke-linejoin:round;stroke-miterlimit:10;stroke-dasharray:none;stroke-opacity:1"
             d="m 0,0 c 6.976,0 12.665,5.689 12.665,12.665 0,6.976 -5.689,12.666 -12.665,12.666 -6.977,0 -12.666,-5.69 -12.666,-12.666 C -12.666,5.689 -6.977,0 0,0 Z" /></g></g></g><text
       id="text218"
       style="font-variant:normal;font-weight:bold;font-stretch:normal;font-size:17.36359978px;font-family:Roboto;-inkscape-font-specification:Roboto-Bold;writing-mode:lr-tb;fill:#000000;fill-opacity:1;fill-rule:nonzero;stroke:none"
       transform="matrix(1,0,0,-1,264.3311,262.375)"><tspan
         id="tspan220"
         y="0"
         x="0">1</tspan></text>
<text
       id="text222"
       style="font-variant:normal;font-weight:normal;font-stretch:normal;font-size:11.88169956px;font-family:Roboto;-inkscape-font-specification:Roboto-Regular;writing-mode:lr-tb;fill:#000000;fill-opacity:1;fill-rule:nonzero;stroke:none"
       transform="matrix(1,0,0,-1,254.2588,242.2554)"><tspan
         id="tspan224"
         y="0"
         x="0 6.6893973 13.378795 16.55715 23.246546">11.00</tspan></text>
<g
       id="g226"><g
         clip-path="url(#clipPath230)"
         id="g228"><g
           transform="translate(187.6538,291.4434)"
           id="g234"><path
             id="path236"
             style="fill:none;stroke:#384d71;stroke-width:1.11699998;stroke-linecap:round;stroke-linejoin:round;stroke-miterlimit:10;stroke-dasharray:none;stroke-opacity:1"
             d="m 0,0 c 6.976,0 12.666,5.689 12.666,12.665 0,6.977 -5.69,12.666 -12.666,12.666 -6.975,0 -12.665,-5.689 -12.665,-12.666 C -12.665,5.689 -6.975,0 0,0 Z" /></g></g></g><text
       id="text238"
       style="font-variant:normal;font-weight:bold;font-stretch:normal;font-size:17.36359978px;font-family:Roboto;-inkscape-font-specification:Roboto-Bold;writing-mode:lr-tb;fill:#000000;fill-opacity:1;fill-rule:nonzero;stroke:none"
       transform="matrix(1,0,0,-1,183.0181,297.8467)"><tspan
         id="tspan240"
         y="0"
         x="0">6</tspan></text>
<text
       id="text242"
       style="font-variant:normal;font-weight:normal;font-stretch:normal;font-size:11.88169956px;font-family:Roboto;-inkscape-font-specification:Roboto-Regular;writing-mode:lr-tb;fill:#000000;fill-opacity:1;fill-rule:nonzero;stroke:none"
       transform="matrix(1,0,0,-1,176.2905,277.7285)"><tspan
         id="tspan244"
         y="0"
         x="0 6.6893973 9.8736925 16.563089">6.33</tspan></text>
<g
       id="g246"><g
         clip-path="url(#clipPath250)"
         id="g248"><g
           transform="translate(188.019,0.4746)"
           id="g254"><path
             id="path256"
             style="fill:none;stroke:#000000;stroke-width:0.94999999;stroke-linecap:round;stroke-linejoin:round;stroke-miterlimit:22.9260006;stroke-dasharray:none;stroke-opacity:1"
             d="M 0,0 50.989,0 151.071,34.862" /></g><g
           transform="translate(388.9561,267.8657)"
           id="g258"><path
             id="path260"
             style="fill:none;stroke:#000000;stroke-width:0.94999999;stroke-linecap:round;stroke-linejoin:round;stroke-miterlimit:22.9260006;stroke-dasharray:none;stroke-opacity:1"
             d="m 0,0 -40.855,0 0,-42.934" /></g></g></g></g></svg>