<?xml version="1.0" encoding="UTF-8" standalone="no"?>
<svg
   xmlns:dc="http://purl.org/dc/elements/1.1/"
   xmlns:cc="http://creativecommons.org/ns#"
   xmlns:rdf="http://www.w3.org/1999/02/22-rdf-syntax-ns#"
   xmlns:svg="http://www.w3.org/2000/svg"
   xmlns="http://www.w3.org/2000/svg"
   viewBox="0 0 501.39749 454.07626"
   height="454.07626"
   width="501.39749"
   xml:space="preserve"
   version="1.1"
   id="svg2"><metadata
     id="metadata8"><rdf:RDF><cc:Work
         rdf:about=""><dc:format>image/svg+xml</dc:format><dc:type
           rdf:resource="http://purl.org/dc/dcmitype/StillImage" /></cc:Work></rdf:RDF></metadata><defs
     id="defs6"><clipPath
       id="clipPath16"
       clipPathUnits="userSpaceOnUse"><path
         id="path18"
         d="m 0,363.261 401.118,0 L 401.118,0 0,0 0,363.261 Z" /></clipPath><clipPath
       id="clipPath126"
       clipPathUnits="userSpaceOnUse"><path
         id="path128"
         d="m 0,363.261 401.118,0 L 401.118,0 0,0 0,363.261 Z" /></clipPath><clipPath
       id="clipPath150"
       clipPathUnits="userSpaceOnUse"><path
         id="path152"
         d="m 0,363.261 401.118,0 L 401.118,0 0,0 0,363.261 Z" /></clipPath><clipPath
       id="clipPath170"
       clipPathUnits="userSpaceOnUse"><path
         id="path172"
         d="m 0,363.261 401.118,0 L 401.118,0 0,0 0,363.261 Z" /></clipPath><clipPath
       id="clipPath190"
       clipPathUnits="userSpaceOnUse"><path
         id="path192"
         d="m 0,363.261 401.118,0 L 401.118,0 0,0 0,363.261 Z" /></clipPath><clipPath
       id="clipPath210"
       clipPathUnits="userSpaceOnUse"><path
         id="path212"
         d="m 0,363.261 401.118,0 L 401.118,0 0,0 0,363.261 Z" /></clipPath><clipPath
       id="clipPath230"
       clipPathUnits="userSpaceOnUse"><path
         id="path232"
         d="m 0,363.261 401.118,0 L 401.118,0 0,0 0,363.261 Z" /></clipPath><clipPath
       id="clipPath250"
       clipPathUnits="userSpaceOnUse"><path
         id="path252"
         d="m 0,363.261 401.118,0 L 401.118,0 0,0 0,363.261 Z" /></clipPath></defs><g
     transform="matrix(1.25,0,0,-1.25,0,454.07625)"
     id="g10"><g
       id="g12"><g
         clip-path="url(#clipPath16)"
         id="g14"><g
           transform="translate(263.1562,281.2598)"
           id="g20"><path
             id="path22"
             style="fill:none;stroke:#384d71;stroke-width:1.11699998;stroke-linecap:round;stroke-linejoin:round;stroke-miterlimit:10;stroke-dasharray:none;stroke-opacity:1"
             d="M 0,0 -1.189,1.189 M -3.746,3.746 -2.557,2.557 M -3.746,0 -2.557,1.189 M 0,3.746 -1.189,2.557 M -2.995,0.75 c 0.619,-0.619 1.625,-0.619 2.245,0 0.619,0.621 0.619,1.625 0,2.245 -0.62,0.62 -1.626,0.62 -2.245,0 -0.62,-0.62 -0.62,-1.624 0,-2.245 z M 6.43,0.799 -15.149,-20.779 c -2.563,-2.563 -6.72,-2.563 -9.282,0 -2.561,2.562 -2.563,6.718 0,9.281 l 21.579,21.579 c 0.49,0.489 1.288,0.489 1.777,-10e-4 L 6.43,2.576 c 0.488,-0.49 0.488,-1.287 0,-1.777 z m 4.197,-0.56 -27.748,-27.749 c -3.876,-3.876 -10.163,-3.876 -14.04,0 -3.876,3.876 -3.876,10.163 0,14.04 l 27.749,27.749 c 0.741,0.741 1.947,0.741 2.688,0 L 10.627,2.926 c 0.742,-0.74 0.742,-1.947 0,-2.687 z M -40.686,-20.259 -23.91,-37.036 14.571,1.446 -2.205,18.223 -40.686,-20.259 Z" /></g><g
           transform="translate(17.4883,217.6577)"
           id="g24"><path
             id="path26"
             style="fill:none;stroke:#384d71;stroke-width:1.11699998;stroke-linecap:round;stroke-linejoin:round;stroke-miterlimit:10;stroke-dasharray:none;stroke-opacity:1"
             d="m 0,0 c 3.22,0 5.175,-0.805 7.364,-0.805 3.42,0 8.52,2.306 8.52,6.434 0,4.128 -5.1,6.436 -8.52,6.436 C 5.175,12.065 3.22,11.259 0,11.259 M 13.111,3.023 c -2.241,0.963 -2.241,4.25 0,5.213 M 0.201,2.815 c 5.248,-2.974 14.075,-1.929 14.075,2.814 0,4.745 -8.827,5.79 -14.075,2.815 M -2.247,5.629 c 0,0.425 -0.345,0.769 -0.769,0.769 -0.424,0 -0.768,-0.344 -0.768,-0.769 0,-0.423 0.344,-0.768 0.768,-0.768 0.424,0 0.769,0.345 0.769,0.768 z m 2.448,-4.725 0,9.451 c 0,0.885 -0.723,1.609 -1.608,1.609 l -3.218,0 c -0.884,0 -1.608,-0.724 -1.608,-1.609 l 0,-9.451 c 0,-0.885 0.724,-1.609 1.608,-1.609 l 3.218,0 c 0.885,0 1.608,0.724 1.608,1.609 z" /></g><g
           transform="translate(239.9912,318.2422)"
           id="g28"><path
             id="path30"
             style="fill:none;stroke:#384d71;stroke-width:1.11699998;stroke-linecap:round;stroke-linejoin:round;stroke-miterlimit:10;stroke-dasharray:none;stroke-opacity:1"
             d="M 0,0 -0.918,0.919 M -0.918,0 0,0.919 m -3.258,-3.261 c 0.187,-0.187 0.489,-0.187 0.677,0 0.186,0.188 0.186,0.49 0,0.677 -0.188,0.187 -0.49,0.187 -0.677,0 -0.186,-0.187 -0.186,-0.489 0,-0.677 z M -5.024,2.565 1.647,-4.106 0.252,-5.5 c -1.816,-1.816 -4.148,-0.491 -5.653,1.016 -1.508,1.505 -2.832,3.838 -1.017,5.654 l 1.394,1.395 z m -1.499,-8.169 c -3.488,3.488 -2.457,6.451 -1.014,7.894 l 3.763,3.764 8.91,-8.91 -3.764,-3.764 c -1.444,-1.443 -4.405,-2.473 -7.895,1.016 z" /></g><g
           transform="translate(50.6235,203.6001)"
           id="g32"><path
             id="path34"
             style="fill:none;stroke:#384d71;stroke-width:1.11699998;stroke-linecap:round;stroke-linejoin:round;stroke-miterlimit:10;stroke-dasharray:none;stroke-opacity:1"
             d="m 0,0 18.9,0 0,-9.163 C 18.9,-14.54 14.539,-18.9 9.162,-18.9 L 0,-18.9 m -19.102,0 L 0,-18.9 0,0 -19.102,0 m -17.694,-66.685 0,15.145 m 5.495,-3.371 c 0,0.853 -0.692,1.544 -1.544,1.544 -0.853,0 -1.544,-0.691 -1.544,-1.544 0,-0.853 0.691,-1.545 1.544,-1.545 0.852,0 1.544,0.692 1.544,1.545 z m 0,-8.404 c 0,0.854 -0.692,1.545 -1.544,1.545 -0.853,0 -1.544,-0.691 -1.544,-1.545 0,-0.852 0.691,-1.543 1.544,-1.543 0.852,0 1.544,0.691 1.544,1.543 z m 7.711,8.404 c 0,0.853 -0.692,1.544 -1.544,1.544 -0.853,0 -1.544,-0.691 -1.544,-1.544 0,-0.853 0.691,-1.545 1.544,-1.545 0.852,0 1.544,0.692 1.544,1.545 z m 0,-8.404 c 0,0.854 -0.692,1.545 -1.544,1.545 -0.853,0 -1.544,-0.691 -1.544,-1.545 0,-0.852 0.691,-1.543 1.544,-1.543 0.852,0 1.544,0.691 1.544,1.543 z m 2.611,11.775 -18.095,0 0,-15.146 18.095,0 0,15.146 z m -15.415,41.353 0,7.506 m 13.27,-7.506 0,7.506 m -1.895,-7.506 0,7.506 m -1.896,-7.506 0,7.506 m -1.896,-7.506 0,7.506 m -1.896,-7.506 0,7.506 m -1.895,-7.506 0,7.506 m -1.896,-7.506 0,7.506 m 0.249,-18.034 0,1.876 m 1.473,-0.938 -5.013,0 m 17.346,-5.363 0,10.724 c 0,1.073 -0.878,1.951 -1.95,1.951 l -13.446,0 c -1.073,0 -1.951,-0.878 -1.951,-1.951 l 0,-10.724 c 0,-1.07 0.878,-1.95 1.951,-1.95 l 13.446,0 c 1.073,0 1.95,0.878 1.95,1.95 z m 1.341,-43.422 0,-7.641 -21.85,0 m 21.85,26.54 -21.85,0 m 21.85,20.576 -21.85,0 m 0,-39.475 21.85,0 0,68.562 -21.85,0" /></g><g
           transform="translate(6.9868,0.7266)"
           id="g36"><path
             id="path38"
             style="fill:#384c71;fill-opacity:1;fill-rule:evenodd;stroke:none"
             d="m 0,0 -1.871,0 -1.872,0 0,51.005 -2.685,0 0,9.113 0,195.902 2.679,0 6.434,0 62.868,0 0,61.726 2.88,0 6.233,0 9.45,0 0,-9.113 -9.45,0 0,-52.613 0,-5.371 0,-3.743 0,-12.063 -3.743,0 0,12.063 -5.37,0 -62.868,0 0,-40.29 68.238,0 0,5.908 3.743,0 0,-5.908 0,-3.742 0,-3.017 -3.743,0 0,3.017 -68.238,0 0,-142.756 33.377,0 0,-9.113 -34.655,0 L 0,51.005 0,0 Z m 145.039,60.118 0,-9.113 -56.7,0 0,9.113 14.878,0 0,139.739 -3.217,0 0,3.743 3.217,0 0,6.388 0,3.743 3.743,0 18.374,0 0,-3.743 -18.374,0 0,-149.87 38.079,0 z m 0,248.515 -29.154,0 0,9.113 29.154,0 0,-9.113 z m 25.334,-257.628 -25.334,0 0,9.113 25.334,0 0,-9.113 z m 0,158.983 -3.82,0 0,3.743 3.82,0 0,-3.743 z m -5.611,98.645 -19.723,0 0,9.113 15.949,0 9.385,9.385 0,-12.887 -0.48,-0.48 0,-31.529 0.48,-0.48 0,-5.292 -4.222,4.223 0,29.335 -1.389,-1.388 z m 5.611,-248.515 3.82,0 0,-9.113 -3.82,0 0,9.113 z m 91.786,40.715 0,-12.887 -0.895,-0.895 -6.445,6.444 7.34,7.338 z m 0,30.16 0,-5.293 -84.289,84.288 -7.497,0 0,3.743 9.048,0 82.738,-82.738 z m -91.786,150.762 8.678,-8.677 -2.646,-2.647 -6.032,6.032 0,5.292 z m 91.786,-15.195 -47.753,-47.602 -2.647,2.647 6.743,6.723 -26.447,26.388 2.646,2.646 26.454,-26.391 41.004,40.874 0,-5.285 z m -91.786,60.571 28.4,28.4 6.443,6.444 6.443,-6.444 50.5,-50.498 0,-12.887 -56.943,56.942 -34.843,-34.844 0,12.887 z m 91.786,-239.185 0,12.887 12.433,12.434 -12.433,12.433 0,5.293 15.079,-15.079 9.35,9.35 6.444,-6.445 -6.804,-6.803 22.276,-22.276 46.614,46.614 2.646,-2.647 -46.613,-46.613 -2.647,-2.647 -2.646,2.647 -22.276,22.276 -21.423,-21.424 z m 0,217.087 102.099,-102.099 6.444,-6.445 -6.444,-6.443 -27.595,-27.595 -6.445,6.443 27.597,27.595 -82.844,82.844 -12.812,-12.773 0,5.285 10.166,10.134 -10.166,10.167 0,12.887 z" /></g><g
           transform="translate(110.2041,200.584)"
           id="g40"><path
             id="path42"
             style="fill:none;stroke:#384c71;stroke-width:1.11800003;stroke-linecap:round;stroke-linejoin:round;stroke-miterlimit:22.9260006;stroke-dasharray:none;stroke-opacity:1"
             d="m 0,0 -3.217,0 0,3.743 3.217,0 0,6.388 0,3.743 3.743,0 18.374,0 0,-3.743 -18.374,0 0,-149.87 67.233,0 0,-9.114 -85.854,0 0,9.114 14.878,0 L 0,0 Z m 251.9,-63.504 2.647,-2.646 -46.613,-46.614 -2.647,-2.646 -2.646,2.646 -22.277,22.277 -22.317,-22.32 -6.445,6.445 19.773,19.771 -96.722,96.722 -11.318,0 0,3.743 12.869,0 97.817,-97.817 9.35,9.349 6.443,-6.444 -6.803,-6.804 22.276,-22.275 46.613,46.613 z m -355.117,-136.353 -1.871,0 -1.872,0 0,51.004 -2.685,0 0,9.114 0,195.901 2.679,0 6.434,0 62.868,0 0,61.727 2.88,0 6.233,0 9.45,0 0,-9.113 -9.45,0 0,-52.614 0,-5.37 0,-3.743 0,-12.064 -3.743,0 0,12.064 -5.37,0 -62.868,0 0,-40.29 68.238,0 0,5.908 3.743,0 0,-5.908 0,-3.743 0,-3.016 -3.743,0 0,3.016 -68.238,0 0,-142.755 33.377,0 0,-9.114 -34.655,0 -1.407,0 0,-51.004 z m 164.762,308.633 -48.878,0 0,9.113 45.104,0 37.785,37.785 6.443,6.444 6.442,-6.444 152.6,-152.598 6.443,-6.444 -6.443,-6.444 -27.596,-27.594 -6.444,6.442 27.597,27.596 -82.844,82.844 -60.566,-60.375 -2.646,2.647 6.743,6.723 -26.448,26.387 2.647,2.647 26.454,-26.392 51.169,51.009 -67.108,67.108 -35.324,-35.323 0,-31.529 9.158,-9.157 -2.645,-2.647 -10.254,10.254 0,29.336 -1.389,-1.388 z" /></g><g
           transform="translate(364.751,134.4414)"
           id="g44"><path
             id="path46"
             style="fill:#ffffff;fill-opacity:1;fill-rule:nonzero;stroke:none"
             d="m 0,0 34.499,34.667 1.31,1.315 L 34.499,37.3 11.039,60.868 8.393,58.237 30.544,35.982 -2.646,2.632 0,0 Z" /></g><g
           transform="translate(364.751,134.4414)"
           id="g48"><path
             id="path50"
             style="fill:none;stroke:#384c71;stroke-width:1.11800003;stroke-linecap:round;stroke-linejoin:round;stroke-miterlimit:22.9260006;stroke-dasharray:none;stroke-opacity:1"
             d="m 0,0 34.499,34.667 1.31,1.315 L 34.499,37.3 11.039,60.868 8.393,58.237 30.544,35.982 -2.646,2.632 0,0 Z" /></g><g
           transform="translate(363.4639,211.4409)"
           id="g52"><path
             id="path54"
             style="fill:none;stroke:#e2000b;stroke-width:0.317;stroke-linecap:round;stroke-linejoin:round;stroke-miterlimit:22.9260006;stroke-dasharray:none;stroke-opacity:1"
             d="M 0,0 -6.443,-6.444" /></g><g
           transform="translate(150.7778,51.7314)"
           id="g56"><path
             id="path58"
             style="fill:#ffffff;fill-opacity:1;fill-rule:nonzero;stroke:none"
             d="m 0,0 0,-21.57 c -22.857,-8.352 -46.57,-14.668 -70.086,-18.946 -24.728,-4.496 -50.557,-6.747 -73.705,-6.747 l 0,-3.742 c 23.317,0 49.368,2.275 74.363,6.819 24.184,4.399 48.54,10.92 71.943,19.558 l 1.228,0.453 0,1.302 L 3.743,0 0,0 Z" /></g><g
           transform="translate(150.7778,51.7314)"
           id="g60"><path
             id="path62"
             style="fill:none;stroke:#384c71;stroke-width:1.11800003;stroke-linecap:round;stroke-linejoin:round;stroke-miterlimit:22.9260006;stroke-dasharray:none;stroke-opacity:1"
             d="m 0,0 0,-21.57 c -22.857,-8.352 -46.57,-14.668 -70.086,-18.946 -24.728,-4.496 -50.557,-6.747 -73.705,-6.747 l 0,-3.742 c 23.317,0 49.368,2.275 74.363,6.819 24.184,4.399 48.54,10.92 71.943,19.558 l 1.228,0.453 0,1.302 L 3.743,0 0,0 Z" /></g><g
           transform="translate(181.1797,53.8066)"
           id="g64"><path
             id="path66"
             style="fill:#ffffff;fill-opacity:1;fill-rule:nonzero;stroke:none"
             d="M 0,0 48.527,0 49.302,0 49.85,0.548 85.172,35.869 82.525,38.516 47.753,3.742 0,3.742 0,0 Z" /></g><g
           transform="translate(181.1797,53.8066)"
           id="g68"><path
             id="path70"
             style="fill:none;stroke:#384c71;stroke-width:1.11800003;stroke-linecap:round;stroke-linejoin:round;stroke-miterlimit:22.9260006;stroke-dasharray:none;stroke-opacity:1"
             d="M 0,0 48.527,0 49.302,0 49.85,0.548 85.172,35.869 82.525,38.516 47.753,3.742 0,3.742 0,0 Z" /></g><path
           id="path72"
           style="fill:#ffffff;fill-opacity:1;fill-rule:nonzero;stroke:#384c71;stroke-width:1.11800003;stroke-linecap:round;stroke-linejoin:round;stroke-miterlimit:22.9260006;stroke-dasharray:none;stroke-opacity:1"
           d="m 43.049,54.417 28.551,0 0,3.742 -28.551,0 0,-3.742 z" /><g
           transform="translate(339.1035,167.7217)"
           id="g74"><path
             id="path76"
             style="fill:#ffffff;fill-opacity:1;fill-rule:nonzero;stroke:none"
             d="m 0,0 -26.778,-26.777 2.646,-2.647 L 2.647,-2.646 0,0 Z" /></g><g
           transform="translate(339.1035,167.7217)"
           id="g78"><path
             id="path80"
             style="fill:none;stroke:#384c71;stroke-width:1.11800003;stroke-linecap:round;stroke-linejoin:round;stroke-miterlimit:22.9260006;stroke-dasharray:none;stroke-opacity:1"
             d="m 0,0 -26.778,-26.777 2.646,-2.647 L 2.647,-2.646 0,0 Z" /></g><g
           transform="translate(122.8716,318.4746)"
           id="g82"><path
             id="path84"
             style="fill:none;stroke:#384c71;stroke-width:2.23600006;stroke-linecap:round;stroke-linejoin:round;stroke-miterlimit:22.9260006;stroke-dasharray:none;stroke-opacity:1"
             d="M 0,0 -17.564,10.127" /></g><g
           transform="translate(201.688,258.0889)"
           id="g86"><path
             id="path88"
             style="fill:none;stroke:#384c71;stroke-width:2.23600006;stroke-linecap:round;stroke-linejoin:round;stroke-miterlimit:22.9260006;stroke-dasharray:none;stroke-opacity:1"
             d="M 0,0 -6.232,22.72" /></g><g
           transform="translate(200.8843,199.9805)"
           id="g90"><path
             id="path92"
             style="fill:none;stroke:#384c71;stroke-width:2.23600006;stroke-linecap:round;stroke-linejoin:round;stroke-miterlimit:22.9260006;stroke-dasharray:none;stroke-opacity:1"
             d="M 0,0 27.546,7.239" /></g><g
           transform="translate(173.5386,210.7148)"
           id="g94"><path
             id="path96"
             style="fill:none;stroke:#384c71;stroke-width:2.23600006;stroke-linecap:round;stroke-linejoin:round;stroke-miterlimit:22.9260006;stroke-dasharray:none;stroke-opacity:1"
             d="M 0,0 -23.324,-12.868" /></g><g
           transform="translate(132.3213,210.7148)"
           id="g98"><path
             id="path100"
             style="fill:none;stroke:#384c71;stroke-width:2.23600006;stroke-linecap:round;stroke-linejoin:round;stroke-miterlimit:22.9260006;stroke-dasharray:none;stroke-opacity:1"
             d="M 0,0 12.466,-8.244" /></g><g
           transform="translate(81.6528,235.5693)"
           id="g102"><path
             id="path104"
             style="fill:none;stroke:#384c71;stroke-width:2.23600006;stroke-linecap:round;stroke-linejoin:round;stroke-miterlimit:22.9260006;stroke-dasharray:none;stroke-opacity:1"
             d="M 0,0 11.26,-19.302" /></g><g
           transform="translate(106.9873,200.584)"
           id="g106"><path
             id="path108"
             style="fill:none;stroke:#384c71;stroke-width:2.23600006;stroke-linecap:round;stroke-linejoin:round;stroke-miterlimit:22.9260006;stroke-dasharray:none;stroke-opacity:1"
             d="M 0,0 -21.917,-12.667" /></g><g
           transform="translate(293.5752,125.9883)"
           id="g110"><path
             id="path112"
             style="fill:none;stroke:#384c71;stroke-width:2.23600006;stroke-linecap:round;stroke-linejoin:round;stroke-miterlimit:22.9260006;stroke-dasharray:none;stroke-opacity:1"
             d="M 0,0 6.232,22.922" /></g><g
           transform="translate(192.6504,17.7949)"
           id="g114"><path
             id="path116"
             style="fill:none;stroke:#384d71;stroke-width:1.11699998;stroke-linecap:round;stroke-linejoin:round;stroke-miterlimit:10;stroke-dasharray:none;stroke-opacity:1"
             d="M 0,0 C 6.976,0 12.665,5.689 12.665,12.665 12.665,19.642 6.976,25.33 0,25.33 -6.976,25.33 -12.665,19.642 -12.665,12.665 -12.665,5.689 -6.976,0 0,0 Z" /></g></g></g><text
       id="text118"
       style="font-variant:normal;font-weight:bold;font-stretch:normal;font-size:17.36370087px;font-family:Roboto;-inkscape-font-specification:Roboto-Bold;writing-mode:lr-tb;fill:#000000;fill-opacity:1;fill-rule:nonzero;stroke:none"
       transform="matrix(1,0,0,-1,188.0146,24.1992)"><tspan
         id="tspan120"
         y="0"
         x="0">7</tspan></text>
<g
       id="g122"><g
         clip-path="url(#clipPath126)"
         id="g124"><text
           id="text130"
           style="font-variant:normal;font-weight:normal;font-stretch:normal;font-size:11.8817997px;font-family:Roboto;-inkscape-font-specification:Roboto-Regular;writing-mode:lr-tb;fill:#000000;fill-opacity:1;fill-rule:nonzero;stroke:none"
           transform="matrix(1,0,0,-1,184.6313,4.0801)"><tspan
             id="tspan132"
             y="0"
             x="0 6.6894536 9.8737755">1.5</tspan></text>
<g
           transform="translate(31.7524,287.2217)"
           id="g134"><path
             id="path136"
             style="fill:none;stroke:#384d71;stroke-width:1.11699998;stroke-linecap:round;stroke-linejoin:round;stroke-miterlimit:10;stroke-dasharray:none;stroke-opacity:1"
             d="m 0,0 c 6.976,0 12.666,5.69 12.666,12.666 0,6.976 -5.69,12.665 -12.666,12.665 -6.976,0 -12.666,-5.689 -12.666,-12.665 C -12.666,5.69 -6.976,0 0,0 Z" /></g></g></g><text
       id="text138"
       style="font-variant:normal;font-weight:bold;font-stretch:normal;font-size:17.36370087px;font-family:Roboto;-inkscape-font-specification:Roboto-Bold;writing-mode:lr-tb;fill:#000000;fill-opacity:1;fill-rule:nonzero;stroke:none"
       transform="matrix(1,0,0,-1,27.1167,293.6245)"><tspan
         id="tspan140"
         y="0"
         x="0">5</tspan></text>
<text
       id="text142"
       style="font-variant:normal;font-weight:normal;font-stretch:normal;font-size:11.8817997px;font-family:Roboto;-inkscape-font-specification:Roboto-Regular;writing-mode:lr-tb;fill:#000000;fill-opacity:1;fill-rule:nonzero;stroke:none"
       transform="matrix(1,0,0,-1,20.3887,273.5068)"><tspan
         id="tspan144"
         y="0"
         x="0 6.6894536 9.8737755 16.563229">2.12</tspan></text>
<g
       id="g146"><g
         clip-path="url(#clipPath150)"
         id="g148"><g
           transform="translate(73.7539,125.6904)"
           id="g154"><path
             id="path156"
             style="fill:none;stroke:#384d71;stroke-width:1.11699998;stroke-linecap:round;stroke-linejoin:round;stroke-miterlimit:10;stroke-dasharray:none;stroke-opacity:1"
             d="m 0,0 c 6.976,0 12.666,5.689 12.666,12.666 0,6.975 -5.69,12.665 -12.666,12.665 -6.976,0 -12.666,-5.69 -12.666,-12.665 C -12.666,5.689 -6.976,0 0,0 Z" /></g></g></g><text
       id="text158"
       style="font-variant:normal;font-weight:bold;font-stretch:normal;font-size:17.36370087px;font-family:Roboto;-inkscape-font-specification:Roboto-Bold;writing-mode:lr-tb;fill:#000000;fill-opacity:1;fill-rule:nonzero;stroke:none"
       transform="matrix(1,0,0,-1,69.1177,132.0947)"><tspan
         id="tspan160"
         y="0"
         x="0">4</tspan></text>
<text
       id="text162"
       style="font-variant:normal;font-weight:normal;font-stretch:normal;font-size:11.8817997px;font-family:Roboto;-inkscape-font-specification:Roboto-Regular;writing-mode:lr-tb;fill:#000000;fill-opacity:1;fill-rule:nonzero;stroke:none"
       transform="matrix(1,0,0,-1,59.0454,111.9756)"><tspan
         id="tspan164"
         y="0"
         x="0 6.6894536 13.378907 16.563229 23.252682">12.40</tspan></text>
<g
       id="g166"><g
         clip-path="url(#clipPath170)"
         id="g168"><g
           transform="translate(179.8623,127.4131)"
           id="g174"><path
             id="path176"
             style="fill:none;stroke:#384d71;stroke-width:1.11699998;stroke-linecap:round;stroke-linejoin:round;stroke-miterlimit:10;stroke-dasharray:none;stroke-opacity:1"
             d="m 0,0 c 6.976,0 12.666,5.69 12.666,12.666 0,6.976 -5.69,12.666 -12.666,12.666 -6.975,0 -12.665,-5.69 -12.665,-12.666 C -12.665,5.69 -6.975,0 0,0 Z" /></g></g></g><text
       id="text178"
       style="font-variant:normal;font-weight:bold;font-stretch:normal;font-size:17.36370087px;font-family:Roboto;-inkscape-font-specification:Roboto-Bold;writing-mode:lr-tb;fill:#000000;fill-opacity:1;fill-rule:nonzero;stroke:none"
       transform="matrix(1,0,0,-1,175.2271,133.8164)"><tspan
         id="tspan180"
         y="0"
         x="0">2</tspan></text>
<text
       id="text182"
       style="font-variant:normal;font-weight:normal;font-stretch:normal;font-size:11.8817997px;font-family:Roboto;-inkscape-font-specification:Roboto-Regular;writing-mode:lr-tb;fill:#000000;fill-opacity:1;fill-rule:nonzero;stroke:none"
       transform="matrix(1,0,0,-1,165.1543,113.6982)"><tspan
         id="tspan184"
         y="0"
         x="0 6.6894536 13.378907 16.563229 23.252682">18.83</tspan></text>
<g
       id="g186"><g
         clip-path="url(#clipPath190)"
         id="g188"><g
           transform="translate(287.8447,192.6719)"
           id="g194"><path
             id="path196"
             style="fill:none;stroke:#384d71;stroke-width:1.11699998;stroke-linecap:round;stroke-linejoin:round;stroke-miterlimit:10;stroke-dasharray:none;stroke-opacity:1"
             d="m 0,0 c 6.975,0 12.664,5.69 12.664,12.666 0,6.975 -5.689,12.665 -12.664,12.665 -6.978,0 -12.667,-5.69 -12.667,-12.665 C -12.667,5.69 -6.978,0 0,0 Z" /></g></g></g><text
       id="text198"
       style="font-variant:normal;font-weight:bold;font-stretch:normal;font-size:17.36370087px;font-family:Roboto;-inkscape-font-specification:Roboto-Bold;writing-mode:lr-tb;fill:#000000;fill-opacity:1;fill-rule:nonzero;stroke:none"
       transform="matrix(1,0,0,-1,283.209,199.0752)"><tspan
         id="tspan200"
         y="0"
         x="0">3</tspan></text>
<text
       id="text202"
       style="font-variant:normal;font-weight:normal;font-stretch:normal;font-size:11.8817997px;font-family:Roboto;-inkscape-font-specification:Roboto-Regular;writing-mode:lr-tb;fill:#000000;fill-opacity:1;fill-rule:nonzero;stroke:none"
       transform="matrix(1,0,0,-1,273.1348,178.957)"><tspan
         id="tspan204"
         y="0"
         x="0 6.6894536 13.378907 16.557289 23.246742">13.12</tspan></text>
<g
       id="g206"><g
         clip-path="url(#clipPath210)"
         id="g208"><g
           transform="translate(132.29,255.9712)"
           id="g214"><path
             id="path216"
             style="fill:none;stroke:#384d71;stroke-width:1.11699998;stroke-linecap:round;stroke-linejoin:round;stroke-miterlimit:10;stroke-dasharray:none;stroke-opacity:1"
             d="m 0,0 c 6.976,0 12.666,5.69 12.666,12.666 0,6.975 -5.69,12.665 -12.666,12.665 -6.976,0 -12.666,-5.69 -12.666,-12.665 C -12.666,5.69 -6.976,0 0,0 Z" /></g></g></g><text
       id="text218"
       style="font-variant:normal;font-weight:bold;font-stretch:normal;font-size:17.36330032px;font-family:Roboto;-inkscape-font-specification:Roboto-Bold;writing-mode:lr-tb;fill:#000000;fill-opacity:1;fill-rule:nonzero;stroke:none"
       transform="matrix(1,0,0,-1,127.6538,262.3735)"><tspan
         id="tspan220"
         y="0"
         x="0">1</tspan></text>
<text
       id="text222"
       style="font-variant:normal;font-weight:normal;font-stretch:normal;font-size:11.88140011px;font-family:Roboto;-inkscape-font-specification:Roboto-Regular;writing-mode:lr-tb;fill:#000000;fill-opacity:1;fill-rule:nonzero;stroke:none"
       transform="matrix(1,0,0,-1,117.5811,242.2559)"><tspan
         id="tspan224"
         y="0"
         x="0 6.6892281 13.378456 16.562672 23.2519">10.78</tspan></text>
<g
       id="g226"><g
         clip-path="url(#clipPath230)"
         id="g228"><g
           transform="translate(213.4639,291.4443)"
           id="g234"><path
             id="path236"
             style="fill:none;stroke:#384d71;stroke-width:1.11699998;stroke-linecap:round;stroke-linejoin:round;stroke-miterlimit:10;stroke-dasharray:none;stroke-opacity:1"
             d="m 0,0 c 6.976,0 12.665,5.69 12.665,12.666 0,6.975 -5.689,12.665 -12.665,12.665 -6.977,0 -12.666,-5.69 -12.666,-12.665 C -12.666,5.69 -6.977,0 0,0 Z" /></g></g></g><text
       id="text238"
       style="font-variant:normal;font-weight:bold;font-stretch:normal;font-size:17.36370087px;font-family:Roboto;-inkscape-font-specification:Roboto-Bold;writing-mode:lr-tb;fill:#000000;fill-opacity:1;fill-rule:nonzero;stroke:none"
       transform="matrix(1,0,0,-1,208.8271,297.8472)"><tspan
         id="tspan240"
         y="0"
         x="0">6</tspan></text>
<text
       id="text242"
       style="font-variant:normal;font-weight:normal;font-stretch:normal;font-size:11.8817997px;font-family:Roboto;-inkscape-font-specification:Roboto-Regular;writing-mode:lr-tb;fill:#000000;fill-opacity:1;fill-rule:nonzero;stroke:none"
       transform="matrix(1,0,0,-1,202.0996,277.728)"><tspan
         id="tspan244"
         y="0"
         x="0 6.6894536 9.867835 16.557289">6.45</tspan></text>
<g
       id="g246"><g
         clip-path="url(#clipPath250)"
         id="g248"><g
           transform="translate(213.0977,0.4746)"
           id="g254"><path
             id="path256"
             style="fill:none;stroke:#000000;stroke-width:0.94999999;stroke-linecap:round;stroke-linejoin:round;stroke-miterlimit:22.9260006;stroke-dasharray:none;stroke-opacity:1"
             d="M 0,0 -50.989,0 -151.07,34.863" /></g><g
           transform="translate(12.1606,267.8662)"
           id="g258"><path
             id="path260"
             style="fill:none;stroke:#000000;stroke-width:0.94999999;stroke-linecap:round;stroke-linejoin:round;stroke-miterlimit:22.9260006;stroke-dasharray:none;stroke-opacity:1"
             d="m 0,0 40.856,0 0,-42.934" /></g></g></g></g></svg>