<?xml version="1.0" encoding="UTF-8" standalone="no"?>
<svg
   xmlns:dc="http://purl.org/dc/elements/1.1/"
   xmlns:cc="http://creativecommons.org/ns#"
   xmlns:rdf="http://www.w3.org/1999/02/22-rdf-syntax-ns#"
   xmlns:svg="http://www.w3.org/2000/svg"
   xmlns="http://www.w3.org/2000/svg"
   viewBox="0 0 468.9375 501.07501"
   height="501.07501"
   width="468.9375"
   xml:space="preserve"
   id="svg2"
   version="1.1"><metadata
     id="metadata8"><rdf:RDF><cc:Work
         rdf:about=""><dc:format>image/svg+xml</dc:format><dc:type
           rdf:resource="http://purl.org/dc/dcmitype/StillImage" /></cc:Work></rdf:RDF></metadata><defs
     id="defs6" /><g
     transform="matrix(1.25,0,0,-1.25,0,501.075)"
     id="g10"><g
       transform="scale(0.1)"
       id="g12"><path
         id="path14"
         style="fill:none;stroke:#384d70;stroke-width:8.56999969;stroke-linecap:butt;stroke-linejoin:round;stroke-miterlimit:22.9260006;stroke-dasharray:none;stroke-opacity:1"
         d="M 526.133,1013.59 C 403.395,1136.34 298.715,1272.36 215.734,1399.04 103.484,1570.43 30.7617,1725.27 6.68359,1807.3 l -2.41015,8.19 5.98826,5.98 139.1213,139.12 20.281,-20.28 -133.0624,-133.06 c 25.7304,-81.79 96.0504,-229.09 203.1134,-392.54 81.988,-125.16 185.398,-259.53 306.699,-380.83 z" /><path
         id="path16"
         style="fill:none;stroke:#384d70;stroke-width:8.56999969;stroke-linecap:butt;stroke-linejoin:round;stroke-miterlimit:22.9260006;stroke-dasharray:none;stroke-opacity:1"
         d="M 876.223,685.527 1185.17,376.566 1164.89,356.277 855.93,665.246 Z" /><path
         id="path18"
         style="fill:none;stroke:#384d70;stroke-width:8.56999969;stroke-linecap:butt;stroke-linejoin:round;stroke-miterlimit:22.9260006;stroke-dasharray:none;stroke-opacity:1"
         d="m 231.094,2198 360.82,360.83 20.281,-20.28 -360.82,-360.83 z" /><path
         id="path20"
         style="fill:none;stroke:#384d70;stroke-width:8.56999969;stroke-linecap:butt;stroke-linejoin:round;stroke-miterlimit:22.9260006;stroke-dasharray:none;stroke-opacity:1"
         d="m 1027.18,3206.38 v 459.15 h 474.56 v -28.69 h -445.87 v -430.46 z" /><path
         id="path22"
         style="fill:none;stroke:#384d70;stroke-width:8.56999969;stroke-linecap:butt;stroke-linejoin:round;stroke-miterlimit:22.9260006;stroke-dasharray:none;stroke-opacity:1"
         d="m 3050.36,3310.17 h 291.23 v 28.6797 h -291.23 z" /><path
         id="path24"
         style="fill:none;stroke:#384d70;stroke-width:8.56999969;stroke-linecap:butt;stroke-linejoin:round;stroke-miterlimit:22.9260006;stroke-dasharray:none;stroke-opacity:1"
         d="m 3575.81,3624.56 h -304.59 l -3.48,2.08 c -120.93,72.36 -278.74,159.61 -488.89,228.75 -208.98,68.73 -469.89,119.59 -798.17,120.19 L 1691.85,3686.1 h -40.41 l 313.22,313.92 4.25,4.26 h 5.88 c 334.41,0 600.15,-51.69 812.89,-121.67 210.8,-69.33 369.41,-156.59 491.27,-229.37 h 296.86 z" /><path
         id="path26"
         style="fill:none;stroke:#384d70;stroke-width:17.12999916;stroke-linecap:round;stroke-linejoin:round;stroke-miterlimit:22.9260006;stroke-dasharray:none;stroke-opacity:1"
         d="m 2868.54,3289.59 157.16,-92.45 m 280.96,-1691.93 118.64,-211.12 m -288.64,570.15 -84.75,146.39 m -345.77,215.13 163.93,94.75 m -506.96,-94.75 -85.84,62.3 m -230.04,-62.3 178.73,103.24 m -615.07,-290.39 -207.78,-58.81 m 169.25,-471.5 165.14,43.14 m -449.95,21.56 57.02,-211.11 M 756.746,1452 708.977,1627.67" /><path
         id="path28"
         style="fill:none;stroke:#384d70;stroke-width:8.56999969;stroke-linecap:round;stroke-linejoin:round;stroke-miterlimit:10;stroke-dasharray:none;stroke-opacity:1"
         d="m 1853.42,1071.97 126.22,126.22 289.51,-289.518 -126.22,-126.219 z M 2239.47,917.742 2030.7,1126.51 c -29.16,29.16 -76.45,29.18 -105.61,0.02 -29.18,-29.18 -29.18,-76.47 0,-105.63 l 208.75,-208.787 c 5.58,-5.57 14.65,-5.57 20.22,0 l 85.43,85.43 c 5.57,5.559 5.55,14.641 -0.02,20.199 z m -31.57,-4.211 -162.35,162.359 c -19.27,19.27 -50.56,19.27 -69.84,0 -19.28,-19.28 -19.28,-50.56 0,-69.85 l 162.35,-162.337 c 3.69,-3.68 9.68,-3.672 13.38,0.012 l 56.46,56.457 c 3.68,3.68 3.68,9.68 0,13.359 z m -70.91,0.371 c 4.67,4.661 12.21,4.661 16.87,0 4.67,-4.66 4.67,-12.218 0.02,-16.879 -4.66,-4.671 -12.24,-4.671 -16.89,0 -4.66,4.661 -4.66,12.219 0,16.879 m 22.53,-22.539 -8.95,8.95 m -19.23,19.242 8.95,-8.961 m -8.95,-19.231 8.95,8.95 m 19.23,19.242 -8.95,-8.961" /><path
         id="path30"
         style="fill:none;stroke:#384d70;stroke-width:8.56999969;stroke-linecap:round;stroke-linejoin:round;stroke-miterlimit:10;stroke-dasharray:none;stroke-opacity:1"
         d="m 3564.57,2027.16 v -71.11 c 0,-6.65 5.45,-12.09 12.11,-12.09 h 24.21 c 6.65,0 12.1,5.44 12.1,12.09 v 71.11 c 0,6.66 -5.45,12.1 -12.1,12.1 h -24.21 c -6.66,0 -12.11,-5.44 -12.11,-12.1 z M 3583,1991.6 c 0,3.19 2.59,5.78 5.78,5.78 3.19,0 5.79,-2.59 5.79,-5.78 0,-3.19 -2.6,-5.78 -5.79,-5.78 -3.19,0 -5.78,2.59 -5.78,5.78 z m -18.43,-21.18 c -39.47,-22.37 -105.89,-14.5 -105.89,21.18 0,35.7 66.42,43.55 105.89,21.18 m -97.13,-40.79 c 16.88,7.24 16.88,31.98 0,39.23 m 98.65,-61.97 c -24.23,0 -38.94,-6.06 -55.39,-6.06 -25.73,0 -64.11,17.35 -64.11,48.41 0,31.06 38.38,48.41 64.11,48.41 16.45,0 31.16,-6.05 55.39,-6.05" /><path
         id="path32"
         style="fill:none;stroke:#384d70;stroke-width:8.56999969;stroke-linecap:round;stroke-linejoin:round;stroke-miterlimit:10;stroke-dasharray:none;stroke-opacity:1"
         d="m 3572.93,1824.96 c -15.35,0 -36.58,10.28 -36.58,47.4 0,37.11 21.23,47.39 36.58,47.39 h 40.06 v -94.79 z m 14.85,11.91 v 70.98 h -14.85 c -19.31,0 -24.66,-19.45 -24.66,-35.49 0,-16.02 5.35,-35.49 24.66,-35.49 z m -16.71,35.5 c 0,1.99 1.62,3.6 3.6,3.6 1.99,0 3.59,-1.61 3.59,-3.6 0,-2 -1.6,-3.61 -3.59,-3.61 -1.98,0 -3.6,1.61 -3.6,3.61 z m 24.9,-0.01 h 9.78 m -4.88,4.89 v -9.78" /><path
         id="path34"
         style="fill:none;stroke:#384d70;stroke-width:8.56999969;stroke-linecap:round;stroke-linejoin:round;stroke-miterlimit:10;stroke-dasharray:none;stroke-opacity:1"
         d="m 3625.12,2741.6 h -164.39 v -515.84 h 164.39 m -164.39,218.85 h 164.39 m -164.39,154.8 h 164.39 m -164.39,142.19 v 298.59 h 164.39 m -38.46,-610.61 h -101.17 c -8.08,0 -14.67,-6.61 -14.67,-14.67 v -80.69 c 0,-8.07 6.6,-14.67 14.67,-14.67 h 101.17 c 8.06,0 14.68,6.6 14.68,14.67 v 80.69 c 0,8.06 -6.6,14.67 -14.68,14.67 z m -23.05,-55.02 h 37.73 m -26.65,7.05 v -14.11 m 1.88,-65.09 v -56.48 m -14.25,56.48 v -56.48 m -14.28,56.48 v -56.48 m -14.27,56.48 v -56.48 m -14.26,56.48 v -56.48 m -14.24,56.48 v -56.48 m -14.28,56.48 v -56.48 m 99.83,56.48 v -56.48 m -115.96,367.59 h 136.13 v 113.96 h -136.13 z m 19.64,88.59 c 0,-6.41 5.2,-11.62 11.63,-11.62 6.41,0 11.61,5.21 11.61,11.62 0,6.42 -5.2,11.62 -11.61,11.62 -6.43,0 -11.63,-5.2 -11.63,-11.62 z m 0,-63.22 c 0,-6.42 5.2,-11.62 11.63,-11.62 6.41,0 11.61,5.2 11.61,11.62 0,6.42 -5.2,11.62 -11.61,11.62 -6.43,0 -11.63,-5.2 -11.63,-11.62 z m 58.02,63.22 c 0,-6.41 5.2,-11.62 11.62,-11.62 6.4,0 11.62,5.21 11.62,11.62 0,6.42 -5.22,11.62 -11.62,11.62 -6.42,0 -11.62,-5.2 -11.62,-11.62 z m 0,-63.22 c 0,-6.42 5.2,-11.62 11.62,-11.62 6.4,0 11.62,5.2 11.62,11.62 0,6.42 -5.22,11.62 -11.62,11.62 -6.42,0 -11.62,-5.2 -11.62,-11.62 z m 41.35,88.6 v -113.97" /><path
         id="path36"
         style="fill:none;stroke:#384d70;stroke-width:8.56999969;stroke-linecap:round;stroke-linejoin:round;stroke-miterlimit:10;stroke-dasharray:none;stroke-opacity:1"
         d="m 2374.02,1070.18 c -10.86,10.85 -18.59,33.14 7.64,59.39 26.25,26.23 48.53,18.5 59.38,7.64 l 28.33,-28.32 -67.03,-67.02 z m 18.93,-2.07 50.19,50.19 -10.51,10.49 c -13.66,13.67 -31.21,3.69 -42.55,-7.63 -11.31,-11.34 -21.29,-28.88 -7.64,-42.55 z m 13.27,36.91 c 1.4,1.42 3.68,1.41 5.09,-0.01 1.41,-1.39 1.41,-3.67 0,-5.07 -1.41,-1.42 -3.69,-1.43 -5.09,-0.01 -1.42,1.41 -1.41,3.69 0,5.09 z m 17.6,-17.6 6.93,-6.94 m -0.02,6.94 -6.91,-6.94" /><path
         id="path38"
         style="fill:#384d70;fill-opacity:1;fill-rule:evenodd;stroke:none"
         d="m 3101.46,913.113 v 69.84 h 135.34 v 278.797 h 69.86 V 913.113 Z m 0,1283.957 v 28.7 h 523.65 v 1063.82 h -283.52 v 69.84 h 234.23 v 293.82 h 69.82 v -168.34 h 101.59 v -69.84 h -52.27 V 1694.73 h 49.2 v -69.82 h -437.5 V 1505.2 h -69.86 v 160.85 h -100.14 v 198.18 h 28.68 v -169.5 h 459.77 v 502.34 h -459.77 v -163.32 h -28.68 v 163.32 z m -1326.98,1419.2 h 576.31 l 326.67,-326.68 V 2225.77 h -314.35 v -28.7 h 343.03 v 1092.52 h 162.4 v 69.84 h -162.16 l -326.67,326.66 h -605.23 z m 1326.98,-1390.5 v -28.7 h -205.19 v 28.7 z m 0,-1242.817 v -69.84 h -84.75 L 2706.66,1223.14 1774.48,290.965 v 98.762 l 348.16,348.179 -348.16,348.164 v 40.59 l 368.45,-368.465 514.34,514.325 -441.39,441.41 20.71,20.7 h -437.91 l -24.2,-24.22 v 40.57 l 12.34,12.34 h 478.43 l 441.41,-441.41 49.38,-49.39 289.6,-289.567 z M 1774.48,2161.64 v 40.56 l 4.9,4.89 -4.9,4.89 v 40.57 l 26.79,-26.78 h 245.96 v -28.7 h -237.32 z m -272.73,1454.63 h 272.73 v 69.82 h -272.73 z m 272.73,-1363.72 v -40.57 l -461.09,461.09 v 40.57 z m 0,-50.35 v -40.56 l -143.32,-143.32 -20.27,20.29 z m 0,-451.22 v -40.57 l -81.96,-81.96 -20.13,20.44 z m 0,-624.32 v -40.59 l -332.84,332.84 20.29,20.27 0.37,-0.38 89.93,89.93 20.13,-20.43 -89.77,-89.78 z m 0,-736.933 V 290.965 L 1487.8,4.28516 1438.41,53.6563 1313.39,178.676 v 98.769 L 1487.8,103.035 Z M 1313.39,1702.07 v 40.57 l 142.79,142.77 20.28,-20.27 z m 0,1011.57 v -40.57 L 1044.61,2941.86 626.734,2524 l -24.039,24.05 v 50.68 l 403.925,403.9 v 203.75 h 69.83 v -232.67 l -11.56,-11.57 z m 0,-971 v -40.57 l -57.18,-57.18 51.63,-51.6 -20.29,-20.29 -51.62,51.61 -353.715,-353.7 -279.52,-279.515 v 98.765 l 208.559,208.57 -103.887,103.88 49.379,49.39 103.891,-103.89 21.73,-21.72 7.379,-7.39 z m 0,-1465.195 v -98.769 l -163.05,163.07 49.37,49.367 z M 602.695,889.363 v 98.782 L 890.766,700.066 841.387,650.695 Z m 0,666.017 v 0 l 25.34,25.33 -25.34,25.33 z m 0,1043.35 v -50.68 l -25.34,25.33 z m 0,-992.69 v -50.66 l -24.039,-24.06 -13.492,13.48 v 98.77 z m 0,-515.88 v -98.765 l -1.621,-1.622 1.621,-1.628 v -98.782 l -37.531,37.551 v 125.716 z m -37.531,553.41 V 1544.8 L 56.9766,2053 l 32.1172,32.11 v 0 l 17.2692,17.28 110.172,110.16 49.379,-49.37 L 155.746,2053 Z m 0,-590.94 V 926.914 l -13.48,13.481 -49.387,49.371 0.008,0.007 49.379,49.387" /><path
         id="path40"
         style="fill:none;stroke:#384d70;stroke-width:8.56999969;stroke-linecap:round;stroke-linejoin:round;stroke-miterlimit:22.9260006;stroke-dasharray:none;stroke-opacity:1"
         d="m 3101.46,913.113 v 69.84 h 135.34 v 278.797 h 69.86 V 913.113 Z m 0,1283.957 v 28.7 h 523.65 v 1063.82 h -283.52 v 69.84 h 234.23 v 293.82 h 69.82 v -168.34 h 101.59 v -69.84 h -52.27 V 1694.73 h 49.2 v -69.82 h -437.5 V 1505.2 h -69.86 v 160.85 h -100.14 v 198.18 h 28.68 v -169.5 h 459.77 v 502.34 h -459.77 v -163.32 h -28.68 v 163.32 z m -1326.98,1419.2 h 576.31 l 326.67,-326.68 V 2225.77 h -314.35 v -28.7 h 343.03 v 1092.52 h 162.4 v 69.84 h -162.16 l -326.67,326.66 h -605.23 z m 1326.98,-1390.5 v -28.7 h -205.19 v 28.7 z m 0,-1242.817 v -69.84 h -84.75 L 2706.66,1223.14 1774.48,290.965 v 98.762 l 348.16,348.179 -348.16,348.164 v 40.59 l 368.45,-368.465 514.34,514.325 -441.39,441.41 20.71,20.7 h -437.91 l -24.2,-24.22 v 40.57 l 12.34,12.34 h 478.43 l 441.41,-441.41 49.38,-49.39 289.6,-289.567 z M 1774.48,2161.64 v 40.56 l 4.9,4.89 -4.9,4.89 v 40.57 l 26.79,-26.78 h 245.96 v -28.7 h -237.32 z m -272.73,1454.63 h 272.73 v 69.82 h -272.73 z m 272.73,-1363.72 v -40.57 l -461.09,461.09 v 40.57 z m 0,-50.35 v -40.56 l -143.32,-143.32 -20.27,20.29 z m 0,-451.22 v -40.57 l -81.96,-81.96 -20.13,20.44 z m 0,-624.32 v -40.59 l -332.84,332.84 20.29,20.27 0.37,-0.38 89.93,89.93 20.13,-20.43 -89.77,-89.78 z m 0,-736.933 V 290.965 L 1487.8,4.28516 1438.41,53.6563 1313.39,178.676 v 98.769 L 1487.8,103.035 Z M 1313.39,1702.07 v 40.57 l 142.79,142.77 20.28,-20.27 z m 0,1011.57 v -40.57 L 1044.61,2941.86 626.734,2524 l -24.039,24.05 v 50.68 l 403.925,403.9 v 203.75 h 69.83 v -232.67 l -11.56,-11.57 z m 0,-971 v -40.57 l -57.18,-57.18 51.63,-51.6 -20.29,-20.29 -51.62,51.61 -353.715,-353.7 -279.52,-279.515 v 98.765 l 208.559,208.57 -103.887,103.88 49.379,49.39 103.891,-103.89 21.73,-21.72 7.379,-7.39 z m 0,-1465.195 v -98.769 l -163.05,163.07 49.37,49.367 z M 602.695,889.363 v 98.782 L 890.766,700.066 841.387,650.695 Z m 0,666.017 v 0 l 25.34,25.33 -25.34,25.33 z m 0,1043.35 v -50.68 l -25.34,25.33 z m 0,-992.69 v -50.66 l -24.039,-24.06 -13.492,13.48 v 98.77 z m 0,-515.88 v -98.765 l -1.621,-1.622 1.621,-1.628 v -98.782 l -37.531,37.551 v 125.716 z m -37.531,553.41 V 1544.8 L 56.9766,2053 l 32.1172,32.11 v 0 l 17.2692,17.28 110.172,110.16 49.379,-49.37 L 155.746,2053 Z m 0,-590.94 V 926.914 l -13.48,13.481 -49.387,49.371 0.008,0.007 49.379,49.387 z" /><path
         id="path42"
         style="fill:none;stroke:#384d70;stroke-width:8.56999969;stroke-linecap:round;stroke-linejoin:round;stroke-miterlimit:10;stroke-dasharray:none;stroke-opacity:1"
         d="m 535.395,1306.82 c 52.5,0 95.312,42.81 95.312,95.29 0,52.49 -42.812,95.3 -95.312,95.3 -52.481,0 -95.278,-42.81 -95.278,-95.3 0,-52.48 42.797,-95.29 95.278,-95.29" /><g
         transform="scale(10)"
         id="g44"><text
           id="text48"
           style="font-variant:normal;font-weight:normal;font-size:13.06359959px;font-family:Roboto;-inkscape-font-specification:'Roboto-Regular Bold';writing-mode:lr-tb;fill:#000000;fill-opacity:1;fill-rule:nonzero;stroke:none"
           transform="matrix(1,0,0,-1,50.0523,135.929)"><tspan
             id="tspan46"
             y="0"
             x="0">8</tspan></text>
<text
           id="text52"
           style="font-variant:normal;font-weight:normal;font-size:8.93910027px;font-family:Roboto;-inkscape-font-specification:Roboto-Regular;writing-mode:lr-tb;fill:#000000;fill-opacity:1;fill-rule:nonzero;stroke:none"
           transform="matrix(1,0,0,-1,45.41871,120.7935)"><tspan
             id="tspan50"
             y="0"
             x="0 5.0327134 7.4283919 12.461105">2.00</tspan></text>
</g><path
         id="path54"
         style="fill:none;stroke:#384d70;stroke-width:8.56999969;stroke-linecap:round;stroke-linejoin:round;stroke-miterlimit:10;stroke-dasharray:none;stroke-opacity:1"
         d="m 1315.68,833.684 c 52.48,0 95.29,42.796 95.29,95.277 0,52.492 -42.81,95.299 -95.29,95.299 -52.48,0 -95.29,-42.807 -95.29,-95.299 0,-52.481 42.81,-95.277 95.29,-95.277" /><g
         transform="scale(10)"
         id="g56"><text
           id="text60"
           style="font-variant:normal;font-weight:normal;font-size:13.06359959px;font-family:Roboto;-inkscape-font-specification:'Roboto-Regular Bold';writing-mode:lr-tb;fill:#000000;fill-opacity:1;fill-rule:nonzero;stroke:none"
           transform="matrix(1,0,0,-1,128.079,88.6145)"><tspan
             id="tspan58"
             y="0"
             x="0">3</tspan></text>
<text
           id="text64"
           style="font-variant:normal;font-weight:normal;font-size:8.93910027px;font-family:Roboto;-inkscape-font-specification:Roboto-Regular;writing-mode:lr-tb;fill:#000000;fill-opacity:1;fill-rule:nonzero;stroke:none"
           transform="matrix(1,0,0,-1,120.92939,73.4786)"><tspan
             id="tspan62"
             y="0"
             x="0 5.0327134 10.065427 12.461105 17.493818">19.08</tspan></text>
</g><path
         id="path66"
         style="fill:none;stroke:#384d70;stroke-width:8.56999969;stroke-linecap:round;stroke-linejoin:round;stroke-miterlimit:10;stroke-dasharray:none;stroke-opacity:1"
         d="m 2019.25,1388.32 c 52.49,0 95.31,42.82 95.31,95.28 0,52.49 -42.82,95.31 -95.31,95.31 -52.48,0 -95.28,-42.82 -95.28,-95.31 0,-52.46 42.8,-95.28 95.28,-95.28" /><g
         transform="scale(10)"
         id="g68"><text
           id="text72"
           style="font-variant:normal;font-weight:normal;font-size:13.06359959px;font-family:Roboto;-inkscape-font-specification:'Roboto-Regular Bold';writing-mode:lr-tb;fill:#000000;fill-opacity:1;fill-rule:nonzero;stroke:none"
           transform="matrix(1,0,0,-1,198.438,144.079)"><tspan
             id="tspan70"
             y="0"
             x="0">6</tspan></text>
<text
           id="text76"
           style="font-variant:normal;font-weight:normal;font-size:8.93910027px;font-family:Roboto;-inkscape-font-specification:Roboto-Regular;writing-mode:lr-tb;fill:#000000;fill-opacity:1;fill-rule:nonzero;stroke:none"
           transform="matrix(1,0,0,-1,191.28878,128.9431)"><tspan
             id="tspan74"
             y="0"
             x="0 5.0327134 10.065427 12.461105 17.493818">10.63</tspan></text>
</g><path
         id="path78"
         style="fill:none;stroke:#384d70;stroke-width:8.56999969;stroke-linecap:round;stroke-linejoin:round;stroke-miterlimit:10;stroke-dasharray:none;stroke-opacity:1"
         d="m 3283.64,1880.86 c 52.5,0 95.3,42.81 95.3,95.28 0,52.49 -42.8,95.3 -95.3,95.3 -52.47,0 -95.27,-42.81 -95.27,-95.3 0,-52.47 42.8,-95.28 95.27,-95.28" /><g
         transform="scale(10)"
         id="g80"><text
           id="text84"
           style="font-variant:normal;font-weight:normal;font-size:13.06359959px;font-family:Roboto;-inkscape-font-specification:'Roboto-Regular Bold';writing-mode:lr-tb;fill:#000000;fill-opacity:1;fill-rule:nonzero;stroke:none"
           transform="matrix(1,0,0,-1,324.876,193.333)"><tspan
             id="tspan82"
             y="0"
             x="0">5</tspan></text>
<text
           id="text88"
           style="font-variant:normal;font-weight:normal;font-size:8.93910027px;font-family:Roboto;-inkscape-font-specification:Roboto-Regular;writing-mode:lr-tb;fill:#000000;fill-opacity:1;fill-rule:nonzero;stroke:none"
           transform="matrix(1,0,0,-1,320.24397,178.1967)"><tspan
             id="tspan86"
             y="0"
             x="0 5.0327134 7.4283919 12.461105">3.07</tspan></text>
</g><path
         id="path90"
         style="fill:none;stroke:#384d70;stroke-width:8.56999969;stroke-linecap:round;stroke-linejoin:round;stroke-miterlimit:10;stroke-dasharray:none;stroke-opacity:1"
         d="m 2688.27,1783.21 c 52.48,0 95.3,42.81 95.3,95.29 0,52.48 -42.82,95.3 -95.3,95.3 -52.48,0 -95.28,-42.82 -95.28,-95.3 0,-52.48 42.8,-95.29 95.28,-95.29" /><g
         transform="scale(10)"
         id="g92"><text
           id="text96"
           style="font-variant:normal;font-weight:normal;font-size:13.06359959px;font-family:Roboto;-inkscape-font-specification:'Roboto-Regular Bold';writing-mode:lr-tb;fill:#000000;fill-opacity:1;fill-rule:nonzero;stroke:none"
           transform="matrix(1,0,0,-1,265.339,183.568)"><tspan
             id="tspan94"
             y="0"
             x="0">1</tspan></text>
<text
           id="text100"
           style="font-variant:normal;font-weight:normal;font-size:8.93910027px;font-family:Roboto;-inkscape-font-specification:Roboto-Regular;writing-mode:lr-tb;fill:#000000;fill-opacity:1;fill-rule:nonzero;stroke:none"
           transform="matrix(1,0,0,-1,258.19017,168.4313)"><tspan
             id="tspan98"
             y="0"
             x="0 5.0327134 10.065427 12.461105 17.493818">20.00</tspan></text>
</g><path
         id="path102"
         style="fill:none;stroke:#384d70;stroke-width:8.56999969;stroke-linecap:round;stroke-linejoin:round;stroke-miterlimit:10;stroke-dasharray:none;stroke-opacity:1"
         d="m 948.734,2103.4 c 52.496,0 95.306,42.81 95.306,95.29 0,52.48 -42.81,95.29 -95.306,95.29 -52.48,0 -95.281,-42.81 -95.281,-95.29 0,-52.48 42.801,-95.29 95.281,-95.29" /><g
         transform="scale(10)"
         id="g104"><text
           id="text108"
           style="font-variant:normal;font-weight:normal;font-size:13.06359959px;font-family:Roboto;-inkscape-font-specification:'Roboto-Regular Bold';writing-mode:lr-tb;fill:#000000;fill-opacity:1;fill-rule:nonzero;stroke:none"
           transform="matrix(1,0,0,-1,91.3852,215.587)"><tspan
             id="tspan106"
             y="0"
             x="0">3</tspan></text>
<text
           id="text112"
           style="font-variant:normal;font-weight:normal;font-size:8.93910027px;font-family:Roboto;-inkscape-font-specification:Roboto-Regular;writing-mode:lr-tb;fill:#000000;fill-opacity:1;fill-rule:nonzero;stroke:none"
           transform="matrix(1,0,0,-1,84.23637,200.4515)"><tspan
             id="tspan110"
             y="0"
             x="0 5.0327134 10.065427 12.461105 17.493818">22.00</tspan></text>
</g><path
         id="path114"
         style="fill:none;stroke:#384d70;stroke-width:8.56999969;stroke-linecap:round;stroke-linejoin:round;stroke-miterlimit:10;stroke-dasharray:none;stroke-opacity:1"
         d="m 1981.68,2910.76 c 52.49,0 95.3,42.8 95.3,95.29 0,52.48 -42.81,95.29 -95.3,95.29 -52.48,0 -95.28,-42.81 -95.28,-95.29 0,-52.49 42.8,-95.29 95.28,-95.29" /><g
         transform="scale(10)"
         id="g116"><text
           id="text120"
           style="font-variant:normal;font-weight:normal;font-size:13.06359959px;font-family:Roboto;-inkscape-font-specification:'Roboto-Regular Bold';writing-mode:lr-tb;fill:#000000;fill-opacity:1;fill-rule:nonzero;stroke:none"
           transform="matrix(1,0,0,-1,194.68,296.322)"><tspan
             id="tspan118"
             y="0"
             x="0">2</tspan></text>
<text
           id="text124"
           style="font-variant:normal;font-weight:normal;font-size:8.93910027px;font-family:Roboto;-inkscape-font-specification:Roboto-Regular;writing-mode:lr-tb;fill:#000000;fill-opacity:1;fill-rule:nonzero;stroke:none"
           transform="matrix(1,0,0,-1,187.53078,281.1861)"><tspan
             id="tspan122"
             y="0"
             x="0 5.0327134 10.065427 12.461105 17.493818">34.42</tspan></text>
</g><path
         id="path126"
         style="fill:none;stroke:#384d70;stroke-width:8.56999969;stroke-linecap:round;stroke-linejoin:round;stroke-miterlimit:10;stroke-dasharray:none;stroke-opacity:1"
         d="m 3129.41,2733.32 c 52.48,0 95.3,42.79 95.3,95.27 0,52.5 -42.82,95.3 -95.3,95.3 -52.48,0 -95.28,-42.8 -95.28,-95.3 0,-52.48 42.8,-95.27 95.28,-95.27" /><g
         transform="scale(10)"
         id="g128"><text
           id="text132"
           style="font-variant:normal;font-weight:normal;font-size:13.06359959px;font-family:Roboto;-inkscape-font-specification:'Roboto-Regular Bold';writing-mode:lr-tb;fill:#000000;fill-opacity:1;fill-rule:nonzero;stroke:none"
           transform="matrix(1,0,0,-1,309.454,278.578)"><tspan
             id="tspan130"
             y="0"
             x="0">4</tspan></text>
<text
           id="text136"
           style="font-variant:normal;font-weight:normal;font-size:8.93910027px;font-family:Roboto;-inkscape-font-specification:Roboto-Regular;writing-mode:lr-tb;fill:#000000;fill-opacity:1;fill-rule:nonzero;stroke:none"
           transform="matrix(1,0,0,-1,302.30439,263.4413)"><tspan
             id="tspan134"
             y="0"
             x="0 5.0327134 10.065427 12.461105 17.493818">16.00</tspan></text>
</g><path
         id="path138"
         style="fill:none;stroke:#384d70;stroke-width:8.56999969;stroke-linecap:round;stroke-linejoin:round;stroke-miterlimit:10;stroke-dasharray:none;stroke-opacity:1"
         d="m 2790.61,3550 c 52.48,0 95.3,42.8 95.3,95.29 0,52.48 -42.82,95.28 -95.3,95.28 -52.47,0 -95.27,-42.8 -95.27,-95.28 0,-52.49 42.8,-95.29 95.27,-95.29" /><g
         transform="scale(10)"
         id="g140"><text
           id="text144"
           style="font-variant:normal;font-weight:normal;font-size:13.06359959px;font-family:Roboto;-inkscape-font-specification:'Roboto-Regular Bold';writing-mode:lr-tb;fill:#000000;fill-opacity:1;fill-rule:nonzero;stroke:none"
           transform="matrix(1,0,0,-1,275.574,360.247)"><tspan
             id="tspan142"
             y="0"
             x="0">8</tspan></text>
<text
           id="text148"
           style="font-variant:normal;font-weight:normal;font-size:8.93910027px;font-family:Roboto;-inkscape-font-specification:Roboto-Regular;writing-mode:lr-tb;fill:#000000;fill-opacity:1;fill-rule:nonzero;stroke:none"
           transform="matrix(1,0,0,-1,270.94002,345.1103)"><tspan
             id="tspan146"
             y="0"
             x="0 5.0327134 7.4283919 12.461105">4.60</tspan></text>
</g></g></g></svg>