<?xml version="1.0" encoding="UTF-8" standalone="no"?>
<svg
   xmlns:dc="http://purl.org/dc/elements/1.1/"
   xmlns:cc="http://creativecommons.org/ns#"
   xmlns:rdf="http://www.w3.org/1999/02/22-rdf-syntax-ns#"
   xmlns:svg="http://www.w3.org/2000/svg"
   xmlns="http://www.w3.org/2000/svg"
   viewBox="0 0 547.78748 585.3125"
   height="585.3125"
   width="547.78748"
   xml:space="preserve"
   id="svg2"
   version="1.1"><metadata
     id="metadata8"><rdf:RDF><cc:Work
         rdf:about=""><dc:format>image/svg+xml</dc:format><dc:type
           rdf:resource="http://purl.org/dc/dcmitype/StillImage" /></cc:Work></rdf:RDF></metadata><defs
     id="defs6" /><g
     transform="matrix(1.25,0,0,-1.25,0,585.3125)"
     id="g10"><g
       transform="scale(0.1)"
       id="g12"><path
         id="path14"
         style="fill:none;stroke:#384d70;stroke-width:10.01000023;stroke-linecap:butt;stroke-linejoin:round;stroke-miterlimit:22.9260006;stroke-dasharray:none;stroke-opacity:1"
         d="m 3767.7,1184.02 c 143.38,143.38 265.64,302.25 362.58,450.23 131.13,200.2 216.07,381.08 244.2,476.92 l 2.81,9.57 -6.99,6.99 -162.5,162.51 -23.69,-23.69 155.43,-155.44 c -30.06,-95.55 -112.21,-267.6 -237.27,-458.54 -95.76,-146.21 -216.58,-303.17 -358.26,-444.86 z" /><path
         id="path16"
         style="fill:none;stroke:#384d70;stroke-width:10.01000023;stroke-linecap:butt;stroke-linejoin:round;stroke-miterlimit:22.9260006;stroke-dasharray:none;stroke-opacity:1"
         d="m 3358.75,800.793 -360.89,-360.902 23.68,-23.7 360.91,360.911 z" /><path
         id="path18"
         style="fill:none;stroke:#384d70;stroke-width:10.01000023;stroke-linecap:butt;stroke-linejoin:round;stroke-miterlimit:22.9260006;stroke-dasharray:none;stroke-opacity:1"
         d="m 4112.35,2567.57 -421.48,421.48 -23.7,-23.69 421.49,-421.48 z" /><path
         id="path20"
         style="fill:none;stroke:#384d70;stroke-width:10.01000023;stroke-linecap:butt;stroke-linejoin:round;stroke-miterlimit:22.9260006;stroke-dasharray:none;stroke-opacity:1"
         d="m 3182.41,3745.48 v 536.35 h -554.36 v -33.51 h 520.84 v -502.84 z" /><path
         id="path22"
         style="fill:none;stroke:#384d70;stroke-width:10.01000023;stroke-linecap:butt;stroke-linejoin:round;stroke-miterlimit:22.9260006;stroke-dasharray:none;stroke-opacity:1"
         d="m 478.859,3866.72 h 340.199 v 33.5117 H 478.859 Z" /><path
         id="path24"
         style="fill:none;stroke:#384d70;stroke-width:10.01000023;stroke-linecap:butt;stroke-linejoin:round;stroke-miterlimit:22.9260006;stroke-dasharray:none;stroke-opacity:1"
         d="M 205.258,4233.98 H 561.07 l 4.047,2.41 c 141.274,84.52 325.613,186.47 571.113,267.22 244.09,80.28 548.88,139.71 932.36,140.39 l 337.39,-338.14 h 47.19 l -365.87,366.69 -4.97,4.97 h -6.87 c -390.63,0 -701.05,-60.36 -949.57,-142.11 -246.23,-81 -431.499,-182.91 -573.863,-267.93 H 205.258 Z" /><path
         id="path26"
         style="fill:none;stroke:#384d70;stroke-width:20.01000023;stroke-linecap:round;stroke-linejoin:round;stroke-miterlimit:22.9260006;stroke-dasharray:none;stroke-opacity:1"
         d="m 1031.46,3842.68 -183.601,-108 M 519.672,1758.29 381.082,1511.68 m 337.18,666 98.988,171.01 m 403.9,251.29 -191.5,110.69 m 592.21,-110.69 100.26,72.79 m 268.73,-72.79 -208.79,120.61 m 718.49,-339.21 242.71,-68.7 m -197.71,-550.79 -192.9,50.4 m 525.61,25.19 -66.59,-246.6 m 686.64,105.26 55.8,205.18" /><path
         id="path28"
         style="fill:none;stroke:#384d70;stroke-width:10.01000023;stroke-linecap:round;stroke-linejoin:round;stroke-miterlimit:10;stroke-dasharray:none;stroke-opacity:1"
         d="m 2217.25,1252.21 -147.45,147.44 -338.19,-338.19 147.44,-147.452 z m -450.98,-180.16 243.88,243.88 c 34.06,34.06 89.32,34.07 123.38,0.01 34.07,-34.07 34.07,-89.34 0.01,-123.4 L 1889.65,948.668 c -6.5,-6.512 -17.11,-6.512 -23.61,0 l -99.78,99.772 c -6.5,6.5 -6.49,17.11 0.01,23.61 z m 36.89,-4.92 189.66,189.65 c 22.52,22.53 59.04,22.52 81.56,0 22.52,-22.52 22.53,-59.04 0.01,-81.57 L 1884.73,985.566 c -4.3,-4.308 -11.31,-4.3 -15.61,0 l -65.96,65.964 c -4.29,4.29 -4.3,11.31 0,15.6 z m 82.84,0.43 c -5.45,5.45 -14.28,5.45 -19.73,0 -5.45,-5.45 -5.45,-14.28 0,-19.72 5.44,-5.44 14.28,-5.44 19.73,0 5.45,5.44 5.44,14.28 0,19.72 m -26.32,-26.32 10.45,10.45 m 22.46,22.47 -10.45,-10.46 m 10.45,-22.47 -10.45,10.46 m -22.47,22.47 10.46,-10.46" /><path
         id="path30"
         style="fill:none;stroke:#384d70;stroke-width:10.01000023;stroke-linecap:round;stroke-linejoin:round;stroke-miterlimit:10;stroke-dasharray:none;stroke-opacity:1"
         d="m 218.383,2368 v -83.08 c 0,-7.77 -6.36,-14.13 -14.129,-14.13 h -28.289 c -7.77,0 -14.129,6.36 -14.129,14.13 V 2368 c 0,7.77 6.359,14.13 14.129,14.13 h 28.289 c 7.769,0 14.129,-6.36 14.129,-14.13 z m -21.508,-41.53 c 0,3.71 -3.031,6.74 -6.762,6.74 -3.73,0 -6.758,-3.03 -6.758,-6.74 0,-3.74 3.028,-6.76 6.758,-6.76 3.731,0 6.762,3.02 6.762,6.76 z m 21.508,-24.75 c 46.121,-26.13 123.703,-16.95 123.703,24.75 0,41.68 -77.582,50.86 -123.703,24.73 m 113.461,-47.65 c -19.699,8.45 -19.699,37.35 0,45.82 m -115.231,-72.39 c 28.289,0 45.492,-7.08 64.723,-7.08 30.047,0 74.879,20.28 74.879,56.57 0,36.28 -44.832,56.54 -74.879,56.54 -19.231,0 -36.434,-7.08 -64.723,-7.08" /><path
         id="path32"
         style="fill:none;stroke:#384d70;stroke-width:10.01000023;stroke-linecap:round;stroke-linejoin:round;stroke-miterlimit:10;stroke-dasharray:none;stroke-opacity:1"
         d="m 208.617,2131.8 c 17.93,0 42.742,12.01 42.742,55.37 0,43.36 -24.812,55.37 -42.742,55.37 H 161.828 V 2131.8 Z m -17.34,13.93 v 82.9 h 17.34 c 22.571,0 28.832,-22.73 28.832,-41.46 0,-18.71 -6.261,-41.44 -28.832,-41.44 z m 19.532,41.45 c 0,2.33 -1.891,4.2 -4.211,4.2 -2.34,0 -4.211,-1.87 -4.211,-4.2 0,-2.32 1.871,-4.22 4.211,-4.22 2.32,0 4.211,1.9 4.211,4.22 z m -29.102,-0.01 h -11.418 m 5.707,5.71 v -11.42" /><path
         id="path34"
         style="fill:none;stroke:#384d70;stroke-width:10.01000023;stroke-linecap:round;stroke-linejoin:round;stroke-miterlimit:10;stroke-dasharray:none;stroke-opacity:1"
         d="M 147.66,3202.55 H 339.691 V 2599.99 H 147.66 m 192.031,255.64 H 147.66 m 192.031,180.84 H 147.66 m 192.031,166.08 v 348.8 H 147.66 m 44.93,-713.28 h 118.18 c 9.429,0 17.132,-7.71 17.132,-17.14 v -94.25 c 0,-9.42 -7.711,-17.14 -17.132,-17.14 H 192.59 c -9.418,0 -17.141,7.72 -17.141,17.14 v 94.25 c 0,9.42 7.723,17.14 17.141,17.14 z m 26.93,-64.27 h -44.071 m 31.121,8.24 v -16.48 m -2.187,-76.05 v -65.95 m 16.656,65.95 v -65.95 m 16.66,65.95 v -65.95 m 16.66,65.95 v -65.95 m 16.672,65.95 v -65.95 m 16.649,65.95 v -65.95 m 16.66,65.96 v -65.96 m -116.61,65.96 v -65.96 m 135.469,429.38 H 164.172 v 133.13 h 159.027 z m -22.949,103.5 c 0,-7.5 -6.09,-13.59 -13.578,-13.59 -7.492,0 -13.563,6.09 -13.563,13.59 0,7.49 6.071,13.56 13.563,13.56 7.488,0 13.578,-6.07 13.578,-13.56 z m 0,-73.86 c 0,-7.49 -6.09,-13.57 -13.578,-13.57 -7.492,0 -13.563,6.08 -13.563,13.57 0,7.5 6.071,13.57 13.563,13.57 7.488,0 13.578,-6.07 13.578,-13.57 z m -67.777,73.86 c 0,-7.5 -6.071,-13.59 -13.563,-13.59 -7.5,0 -13.57,6.09 -13.57,13.59 0,7.49 6.07,13.56 13.57,13.56 7.492,0 13.563,-6.07 13.563,-13.56 z m 0,-73.86 c 0,-7.49 -6.071,-13.57 -13.563,-13.57 -7.5,0 -13.57,6.08 -13.57,13.57 0,7.5 6.07,13.57 13.57,13.57 7.492,0 13.563,-6.07 13.563,-13.57 z m -48.293,103.49 v -133.13" /><path
         id="path36"
         style="fill:none;stroke:#384d70;stroke-width:10.01000023;stroke-linecap:round;stroke-linejoin:round;stroke-miterlimit:10;stroke-dasharray:none;stroke-opacity:1"
         d="m 1609.11,1250.12 c 12.69,12.68 21.74,38.71 -8.93,69.37 -30.65,30.66 -56.7,21.61 -69.38,8.93 l -33.07,-33.09 78.3,-78.3 z m -22.1,-2.42 -58.62,58.61 12.25,12.27 c 15.97,15.95 36.46,4.31 49.7,-8.93 13.23,-13.24 24.89,-33.73 8.93,-49.69 z m -15.51,43.12 c -1.65,1.64 -4.3,1.64 -5.95,-0.01 -1.66,-1.65 -1.66,-4.3 0,-5.94 1.65,-1.64 4.31,-1.65 5.96,0 1.63,1.64 1.63,4.3 -0.01,5.95 z m -20.56,-20.58 -8.08,-8.08 m 0,8.08 8.08,-8.08" /><path
         id="path38"
         style="fill:#384d70;fill-opacity:1;fill-rule:evenodd;stroke:none"
         d="m 759.371,1066.64 v 81.58 H 601.25 v 325.67 h -81.578 v -407.25 z m 0,1499.84 v 33.51 H 147.66 v 1242.69 h 331.199 v 81.58 H 205.262 v 343.22 H 123.68 V 4070.83 H 5 v -81.58 H 66.0781 V 1979.68 H 8.60938 V 1898.1 H 519.672 v -139.82 h 81.578 v 187.89 h 117.012 v 231.51 H 684.75 V 1979.69 H 147.66 v 586.79 h 537.09 v -190.8 h 33.512 v 190.8 z m 1550.089,1657.8 h -673.21 l -381.6,-381.6 V 2599.99 h 367.21 v -33.51 h -400.71 v 1276.2 h -189.69 v 81.58 h 189.4 l 381.61,381.6 h 706.99 z M 759.371,2599.99 v -33.51 h 239.688 v 33.51 z m 0,-1451.77 v -81.58 h 99 l 362.169,362.16 v -0.01 L 2309.46,339.883 v 115.379 l -406.72,406.711 406.72,406.707 v 47.39 l -430.41,-430.41 -600.82,600.82 515.61,515.61 -24.18,24.18 h 511.52 l 28.28,-28.28 v 47.38 l -14.41,14.41 h -558.89 l -515.62,-515.62 -57.68,-57.68 -338.282,-338.26 z M 2309.46,2525.08 v 47.38 l -5.72,5.71 5.72,5.73 v 47.38 l -31.3,-31.29 h -287.31 v -33.51 h 277.2 z m 318.59,1699.2 h -318.59 v 81.58 h 318.59 z m -318.59,-1593 v -47.38 l 538.6,538.6 v 47.39 z m 0,-58.82 v -47.38 l 167.4,-167.4 23.69,23.7 z m 0,-527.09 v -47.38 l 95.73,-95.72 23.52,23.86 z m 0,-729.3 v -47.39 l 388.8,388.8 -23.69,23.69 -0.45,-0.45 -105.05,105.05 -23.52,-23.88 104.87,-104.86 z m 0,-860.808 V 339.883 L 2644.34,5 l 57.7,57.6797 146.02,146.0433 V 324.09 L 2644.34,120.371 Z m 538.6,1532.988 v 47.39 l -166.79,166.78 -23.69,-23.69 z m 0,1181.64 v -47.39 l 314,313.98 488.12,-488.11 28.09,28.08 v 59.2 l -471.82,471.82 v 238.01 h -81.58 v -271.81 l 13.49,-13.49 z m 0,-1134.25 v -47.39 l 66.8,-66.79 -60.29,-60.29 23.69,-23.69 60.29,60.29 413.19,-413.18 326.53,-326.5 v 115.37 l -243.64,243.62 121.37,121.36 -57.69,57.69 -121.35,-121.36 -25.39,-25.38 -8.62,-8.63 z m 0,-1711.55 V 208.723 l 190.48,190.476 -57.69,57.684 z m 830.21,714.82 v 115.38 l -336.51,-336.509 57.68,-57.679 z m 0,777.96 v 0 l -29.61,29.61 29.61,29.59 z m 0,1218.78 v -59.2 l 29.59,29.6 z m 0,-1159.58 v -59.2 l 28.08,-28.08 15.74,15.74 v 115.38 z m 0,-602.61 v -115.37 l 1.89,-1.9 -1.89,-1.9 v -115.38 l 43.82,43.84 v 146.87 z m 43.82,646.45 v -115.38 l 593.64,593.64 -37.52,37.52 -20.18,20.18 -128.69,128.69 -57.68,-57.68 128.7,-128.7 z m 0,-690.29 v -146.87 l 15.75,15.75 57.69,57.68 v 0.01 l -57.69,57.68" /><path
         id="path40"
         style="fill:none;stroke:#384d70;stroke-width:10.01000023;stroke-linecap:round;stroke-linejoin:round;stroke-miterlimit:22.9260006;stroke-dasharray:none;stroke-opacity:1"
         d="m 759.371,1066.64 v 81.58 H 601.25 v 325.67 h -81.578 v -407.25 z m 0,1499.84 v 33.51 H 147.66 v 1242.69 h 331.199 v 81.58 H 205.262 v 343.22 H 123.68 V 4070.83 H 5 v -81.58 H 66.0781 V 1979.68 H 8.60938 V 1898.1 H 519.672 v -139.82 h 81.578 v 187.89 h 117.012 v 231.51 H 684.75 V 1979.69 H 147.66 v 586.79 h 537.09 v -190.8 h 33.512 v 190.8 z m 1550.089,1657.8 h -673.21 l -381.6,-381.6 V 2599.99 h 367.21 v -33.51 h -400.71 v 1276.2 h -189.69 v 81.58 h 189.4 l 381.61,381.6 h 706.99 z M 759.371,2599.99 v -33.51 h 239.688 v 33.51 z m 0,-1451.77 v -81.58 h 99 l 362.169,362.16 v -0.01 L 2309.46,339.883 v 115.379 l -406.72,406.711 406.72,406.707 v 47.39 l -430.41,-430.41 -600.82,600.82 515.61,515.61 -24.18,24.18 h 511.52 l 28.28,-28.28 v 47.38 l -14.41,14.41 h -558.89 l -515.62,-515.62 -57.68,-57.68 -338.282,-338.26 z M 2309.46,2525.08 v 47.38 l -5.72,5.71 5.72,5.73 v 47.38 l -31.3,-31.29 h -287.31 v -33.51 h 277.2 z m 318.59,1699.2 h -318.59 v 81.58 h 318.59 z m -318.59,-1593 v -47.38 l 538.6,538.6 v 47.39 z m 0,-58.82 v -47.38 l 167.4,-167.4 23.69,23.7 z m 0,-527.09 v -47.38 l 95.73,-95.72 23.52,23.86 z m 0,-729.3 v -47.39 l 388.8,388.8 -23.69,23.69 -0.45,-0.45 -105.05,105.05 -23.52,-23.88 104.87,-104.86 z m 0,-860.808 V 339.883 L 2644.34,5 l 57.7,57.6797 146.02,146.0433 V 324.09 L 2644.34,120.371 Z m 538.6,1532.988 v 47.39 l -166.79,166.78 -23.69,-23.69 z m 0,1181.64 v -47.39 l 314,313.98 488.12,-488.11 28.09,28.08 v 59.2 l -471.82,471.82 v 238.01 h -81.58 v -271.81 l 13.49,-13.49 z m 0,-1134.25 v -47.39 l 66.8,-66.79 -60.29,-60.29 23.69,-23.69 60.29,60.29 413.19,-413.18 326.53,-326.5 v 115.37 l -243.64,243.62 121.37,121.36 -57.69,57.69 -121.35,-121.36 -25.39,-25.38 -8.62,-8.63 z m 0,-1711.55 V 208.723 l 190.48,190.476 -57.69,57.684 z m 830.21,714.82 v 115.38 l -336.51,-336.509 57.68,-57.679 z m 0,777.96 v 0 l -29.61,29.61 29.61,29.59 z m 0,1218.78 v -59.2 l 29.59,29.6 z m 0,-1159.58 v -59.2 l 28.08,-28.08 15.74,15.74 v 115.38 z m 0,-602.61 v -115.37 l 1.89,-1.9 -1.89,-1.9 v -115.38 l 43.82,43.84 v 146.87 z m 43.82,646.45 v -115.38 l 593.64,593.64 -37.52,37.52 -20.18,20.18 -128.69,128.69 -57.68,-57.68 128.7,-128.7 z m 0,-690.29 v -146.87 l 15.75,15.75 57.69,57.68 v 0.01 l -57.69,57.68 z" /><path
         id="path42"
         style="fill:none;stroke:#384d70;stroke-width:10.01000023;stroke-linecap:round;stroke-linejoin:round;stroke-miterlimit:10;stroke-dasharray:none;stroke-opacity:1"
         d="m 3756.84,1526.54 c 61.33,0 111.33,50 111.33,111.31 0,61.31 -50,111.31 -111.33,111.31 -61.29,0 -111.29,-50 -111.29,-111.31 0,-61.31 50,-111.31 111.29,-111.31" /><g
         transform="scale(10)"
         id="g44"><text
           id="text48"
           style="font-variant:normal;font-weight:normal;font-size:15.26000023px;font-family:Roboto;-inkscape-font-specification:'Roboto-Regular Bold';writing-mode:lr-tb;fill:#000000;fill-opacity:1;fill-rule:nonzero;stroke:none"
           transform="matrix(1,0,0,-1,371.611,158.783)"><tspan
             id="tspan46"
             y="0"
             x="0">8</tspan></text>
<text
           id="text52"
           style="font-variant:normal;font-weight:normal;font-size:10.44200039px;font-family:Roboto;-inkscape-font-specification:Roboto-Regular;writing-mode:lr-tb;fill:#000000;fill-opacity:1;fill-rule:nonzero;stroke:none"
           transform="matrix(1,0,0,-1,366.20006,141.1018)"><tspan
             id="tspan50"
             y="0"
             x="0 5.8788462 8.6773024 14.556148">2.00</tspan></text>
</g><path
         id="path54"
         style="fill:none;stroke:#384d70;stroke-width:10.01000023;stroke-linecap:round;stroke-linejoin:round;stroke-miterlimit:10;stroke-dasharray:none;stroke-opacity:1"
         d="m 2836.08,973.848 c 61.32,0 111.33,50.012 111.33,111.312 0,61.31 -50.01,111.32 -111.33,111.32 -61.3,0 -111.3,-50.01 -111.3,-111.32 0,-61.3 50,-111.312 111.3,-111.312" /><g
         transform="scale(10)"
         id="g56"><text
           id="text60"
           style="font-variant:normal;font-weight:normal;font-size:15.26000023px;font-family:Roboto;-inkscape-font-specification:'Roboto-Regular Bold';writing-mode:lr-tb;fill:#000000;fill-opacity:1;fill-rule:nonzero;stroke:none"
           transform="matrix(1,0,0,-1,279.535,103.514)"><tspan
             id="tspan58"
             y="0"
             x="0">3</tspan></text>
<text
           id="text64"
           style="font-variant:normal;font-weight:normal;font-size:10.44200039px;font-family:Roboto;-inkscape-font-specification:Roboto-Regular;writing-mode:lr-tb;fill:#000000;fill-opacity:1;fill-rule:nonzero;stroke:none"
           transform="matrix(1,0,0,-1,271.18461,85.8331)"><tspan
             id="tspan62"
             y="0"
             x="0 5.8788462 11.757692 14.556148 20.434994">19.08</tspan></text>
</g><path
         id="path66"
         style="fill:none;stroke:#384d70;stroke-width:10.01000023;stroke-linecap:round;stroke-linejoin:round;stroke-miterlimit:10;stroke-dasharray:none;stroke-opacity:1"
         d="m 2014.75,1621.75 c 61.32,0 111.33,50.01 111.33,111.31 0,61.31 -50.01,111.32 -111.33,111.32 -61.3,0 -111.3,-50.01 -111.3,-111.32 0,-61.3 50,-111.31 111.3,-111.31" /><g
         transform="scale(10)"
         id="g68"><text
           id="text72"
           style="font-variant:normal;font-weight:normal;font-size:15.26000023px;font-family:Roboto;-inkscape-font-specification:'Roboto-Regular Bold';writing-mode:lr-tb;fill:#000000;fill-opacity:1;fill-rule:nonzero;stroke:none"
           transform="matrix(1,0,0,-1,197.402,168.304)"><tspan
             id="tspan70"
             y="0"
             x="0">6</tspan></text>
<text
           id="text76"
           style="font-variant:normal;font-weight:normal;font-size:10.44200039px;font-family:Roboto;-inkscape-font-specification:Roboto-Regular;writing-mode:lr-tb;fill:#000000;fill-opacity:1;fill-rule:nonzero;stroke:none"
           transform="matrix(1,0,0,-1,189.05044,150.6231)"><tspan
             id="tspan74"
             y="0"
             x="0 5.8788462 11.757692 14.556148 20.434994">10.63</tspan></text>
</g><path
         id="path78"
         style="fill:none;stroke:#384d70;stroke-width:10.01000023;stroke-linecap:round;stroke-linejoin:round;stroke-miterlimit:10;stroke-dasharray:none;stroke-opacity:1"
         d="m 546.527,2197.09 c 61.321,0 111.332,50.01 111.332,111.31 0,61.32 -50.011,111.32 -111.332,111.32 -61.3,0 -111.3,-50 -111.3,-111.32 0,-61.3 50,-111.31 111.3,-111.31" /><g
         transform="scale(10)"
         id="g80"><text
           id="text84"
           style="font-variant:normal;font-weight:normal;font-size:15.26000023px;font-family:Roboto;-inkscape-font-specification:'Roboto-Regular Bold';writing-mode:lr-tb;fill:#000000;fill-opacity:1;fill-rule:nonzero;stroke:none"
           transform="matrix(1,0,0,-1,50.5793,225.838)"><tspan
             id="tspan82"
             y="0"
             x="0">5</tspan></text>
<text
           id="text88"
           style="font-variant:normal;font-weight:normal;font-size:10.44200039px;font-family:Roboto;-inkscape-font-specification:Roboto-Regular;writing-mode:lr-tb;fill:#000000;fill-opacity:1;fill-rule:nonzero;stroke:none"
           transform="matrix(1,0,0,-1,45.16797,208.1568)"><tspan
             id="tspan86"
             y="0"
             x="0 5.8788462 8.6773024 14.556148">3.07</tspan></text>
</g><path
         id="path90"
         style="fill:none;stroke:#384d70;stroke-width:10.01000023;stroke-linecap:round;stroke-linejoin:round;stroke-miterlimit:10;stroke-dasharray:none;stroke-opacity:1"
         d="m 1233.21,2083.03 c 61.32,0 111.33,50.01 111.33,111.32 0,61.31 -50.01,111.31 -111.33,111.31 -61.3,0 -111.3,-50 -111.3,-111.31 0,-61.31 50,-111.32 111.3,-111.32" /><g
         transform="scale(10)"
         id="g92"><text
           id="text96"
           style="font-variant:normal;font-weight:normal;font-size:15.26000023px;font-family:Roboto;-inkscape-font-specification:'Roboto-Regular Bold';writing-mode:lr-tb;fill:#000000;fill-opacity:1;fill-rule:nonzero;stroke:none"
           transform="matrix(1,0,0,-1,119.247,214.432)"><tspan
             id="tspan94"
             y="0"
             x="0">1</tspan></text>
<text
           id="text100"
           style="font-variant:normal;font-weight:normal;font-size:10.44200039px;font-family:Roboto;-inkscape-font-specification:Roboto-Regular;writing-mode:lr-tb;fill:#000000;fill-opacity:1;fill-rule:nonzero;stroke:none"
           transform="matrix(1,0,0,-1,110.89622,196.7511)"><tspan
             id="tspan98"
             y="0"
             x="0 5.8788462 11.757692 14.556148 20.434994">19.90</tspan></text>
</g><path
         id="path102"
         style="fill:none;stroke:#384d70;stroke-width:10.01000023;stroke-linecap:round;stroke-linejoin:round;stroke-miterlimit:10;stroke-dasharray:none;stroke-opacity:1"
         d="m 3265.22,2457.06 c 61.31,0 111.33,50 111.33,111.31 0,61.31 -50.02,111.31 -111.33,111.31 -61.31,0 -111.31,-50 -111.31,-111.31 0,-61.31 50,-111.31 111.31,-111.31" /><g
         transform="scale(10)"
         id="g104"><text
           id="text108"
           style="font-variant:normal;font-weight:normal;font-size:15.26000023px;font-family:Roboto;-inkscape-font-specification:'Roboto-Regular Bold';writing-mode:lr-tb;fill:#000000;fill-opacity:1;fill-rule:nonzero;stroke:none"
           transform="matrix(1,0,0,-1,322.449,251.834)"><tspan
             id="tspan106"
             y="0"
             x="0">3</tspan></text>
<text
           id="text112"
           style="font-variant:normal;font-weight:normal;font-size:10.44200039px;font-family:Roboto;-inkscape-font-specification:Roboto-Regular;writing-mode:lr-tb;fill:#000000;fill-opacity:1;fill-rule:nonzero;stroke:none"
           transform="matrix(1,0,0,-1,314.09744,234.1528)"><tspan
             id="tspan110"
             y="0"
             x="0 5.8788462 11.757692 14.556148 20.434994">22.00</tspan></text>
</g><path
         id="path114"
         style="fill:none;stroke:#384d70;stroke-width:10.01000023;stroke-linecap:round;stroke-linejoin:round;stroke-miterlimit:10;stroke-dasharray:none;stroke-opacity:1"
         d="m 2057.89,3400.14 c 61.32,0 111.32,50.02 111.32,111.32 0,61.31 -50,111.32 -111.32,111.32 -61.3,0 -111.3,-50.01 -111.3,-111.32 0,-61.3 50,-111.32 111.3,-111.32" /><g
         transform="scale(10)"
         id="g116"><text
           id="text120"
           style="font-variant:normal;font-weight:normal;font-size:15.26000023px;font-family:Roboto;-inkscape-font-specification:'Roboto-Regular Bold';writing-mode:lr-tb;fill:#000000;fill-opacity:1;fill-rule:nonzero;stroke:none"
           transform="matrix(1,0,0,-1,201.716,346.144)"><tspan
             id="tspan118"
             y="0"
             x="0">2</tspan></text>
<text
           id="text124"
           style="font-variant:normal;font-weight:normal;font-size:10.44200039px;font-family:Roboto;-inkscape-font-specification:Roboto-Regular;writing-mode:lr-tb;fill:#000000;fill-opacity:1;fill-rule:nonzero;stroke:none"
           transform="matrix(1,0,0,-1,193.36483,328.4631)"><tspan
             id="tspan122"
             y="0"
             x="0 5.8788462 11.757692 14.556148 20.434994">34.42</tspan></text>
</g><path
         id="path126"
         style="fill:none;stroke:#384d70;stroke-width:10.01000023;stroke-linecap:round;stroke-linejoin:round;stroke-miterlimit:10;stroke-dasharray:none;stroke-opacity:1"
         d="m 717.887,3192.87 c 61.32,0 111.328,50.01 111.328,111.31 0,61.31 -50.008,111.31 -111.328,111.31 -61.301,0 -111.301,-50 -111.301,-111.31 0,-61.3 50,-111.31 111.301,-111.31" /><g
         transform="scale(10)"
         id="g128"><text
           id="text132"
           style="font-variant:normal;font-weight:normal;font-size:15.26000023px;font-family:Roboto;-inkscape-font-specification:'Roboto-Regular Bold';writing-mode:lr-tb;fill:#000000;fill-opacity:1;fill-rule:nonzero;stroke:none"
           transform="matrix(1,0,0,-1,67.7156,325.416)"><tspan
             id="tspan130"
             y="0"
             x="0">4</tspan></text>
<text
           id="text136"
           style="font-variant:normal;font-weight:normal;font-size:10.44200039px;font-family:Roboto;-inkscape-font-specification:Roboto-Regular;writing-mode:lr-tb;fill:#000000;fill-opacity:1;fill-rule:nonzero;stroke:none"
           transform="matrix(1,0,0,-1,59.36443,307.7348)"><tspan
             id="tspan134"
             y="0"
             x="0 5.8788462 11.757692 14.556148 20.434994">16.00</tspan></text>
</g><path
         id="path138"
         style="fill:none;stroke:#384d70;stroke-width:10.01000023;stroke-linecap:round;stroke-linejoin:round;stroke-miterlimit:10;stroke-dasharray:none;stroke-opacity:1"
         d="m 1122.45,4146.86 c 61.32,0 111.33,50.02 111.33,111.32 0,61.3 -50.01,111.32 -111.33,111.32 -61.31,0 -111.31,-50.02 -111.31,-111.32 0,-61.3 50,-111.32 111.31,-111.32" /><g
         transform="scale(10)"
         id="g140"><text
           id="text144"
           style="font-variant:normal;font-weight:normal;font-size:15.26000023px;font-family:Roboto;-inkscape-font-specification:'Roboto-Regular Bold';writing-mode:lr-tb;fill:#000000;fill-opacity:1;fill-rule:nonzero;stroke:none"
           transform="matrix(1,0,0,-1,108.172,420.816)"><tspan
             id="tspan142"
             y="0"
             x="0">8</tspan></text>
<text
           id="text148"
           style="font-variant:normal;font-weight:normal;font-size:10.44200039px;font-family:Roboto;-inkscape-font-specification:Roboto-Regular;writing-mode:lr-tb;fill:#000000;fill-opacity:1;fill-rule:nonzero;stroke:none"
           transform="matrix(1,0,0,-1,102.75989,403.1348)"><tspan
             id="tspan146"
             y="0"
             x="0 5.8788462 8.6773024 14.556148">4.60</tspan></text>
</g></g></g></svg>