<?xml version="1.0" encoding="UTF-8" standalone="no"?>
<svg
   xmlns:dc="http://purl.org/dc/elements/1.1/"
   xmlns:cc="http://creativecommons.org/ns#"
   xmlns:rdf="http://www.w3.org/1999/02/22-rdf-syntax-ns#"
   xmlns:svg="http://www.w3.org/2000/svg"
   xmlns="http://www.w3.org/2000/svg"
   viewBox="0 0 462.40625 501.07001"
   height="501.07001"
   width="462.40625"
   xml:space="preserve"
   version="1.1"
   id="svg2"><metadata
     id="metadata8"><rdf:RDF><cc:Work
         rdf:about=""><dc:format>image/svg+xml</dc:format><dc:type
           rdf:resource="http://purl.org/dc/dcmitype/StillImage" /></cc:Work></rdf:RDF></metadata><defs
     id="defs6"><clipPath
       id="clipPath16"
       clipPathUnits="userSpaceOnUse"><path
         id="path18"
         d="m 0,400.856 369.925,0 L 369.925,0 0,0 0,400.856 Z" /></clipPath><clipPath
       id="clipPath52"
       clipPathUnits="userSpaceOnUse"><path
         id="path54"
         d="m 0,400.856 369.925,0 L 369.925,0 0,0 0,400.856 Z" /></clipPath><clipPath
       id="clipPath72"
       clipPathUnits="userSpaceOnUse"><path
         id="path74"
         d="m 0,400.856 369.925,0 L 369.925,0 0,0 0,400.856 Z" /></clipPath><clipPath
       id="clipPath92"
       clipPathUnits="userSpaceOnUse"><path
         id="path94"
         d="m 0,400.856 369.925,0 L 369.925,0 0,0 0,400.856 Z" /></clipPath><clipPath
       id="clipPath112"
       clipPathUnits="userSpaceOnUse"><path
         id="path114"
         d="m 0,400.856 369.925,0 L 369.925,0 0,0 0,400.856 Z" /></clipPath><clipPath
       id="clipPath132"
       clipPathUnits="userSpaceOnUse"><path
         id="path134"
         d="m 0,400.856 369.925,0 L 369.925,0 0,0 0,400.856 Z" /></clipPath><clipPath
       id="clipPath152"
       clipPathUnits="userSpaceOnUse"><path
         id="path154"
         d="m 0,400.856 369.925,0 L 369.925,0 0,0 0,400.856 Z" /></clipPath><clipPath
       id="clipPath172"
       clipPathUnits="userSpaceOnUse"><path
         id="path174"
         d="m 0,400.856 369.925,0 L 369.925,0 0,0 0,400.856 Z" /></clipPath><clipPath
       id="clipPath192"
       clipPathUnits="userSpaceOnUse"><path
         id="path194"
         d="m 0,400.856 369.925,0 L 369.925,0 0,0 0,400.856 Z" /></clipPath><clipPath
       id="clipPath212"
       clipPathUnits="userSpaceOnUse"><path
         id="path214"
         d="m 0,400.856 369.925,0 L 369.925,0 0,0 0,400.856 Z" /></clipPath></defs><g
     transform="matrix(1.25,0,0,-1.25,0,501.07)"
     id="g10"><g
       id="g12"><g
         clip-path="url(#clipPath16)"
         id="g14"><g
           transform="translate(215.9824,91.7256)"
           id="g20"><path
             id="path22"
             style="fill:none;stroke:#384d71;stroke-width:0.85600001;stroke-linecap:round;stroke-linejoin:round;stroke-miterlimit:10;stroke-dasharray:none;stroke-opacity:1"
             d="M 0,0 -0.911,-0.911 M -2.87,-2.87 -1.958,-1.959 M -2.87,0 -1.958,-0.911 M 0,-2.87 -0.911,-1.959 m -1.383,1.384 c 0.475,0.474 1.244,0.474 1.719,0 0.475,-0.475 0.475,-1.245 0,-1.72 -0.475,-0.476 -1.244,-0.476 -1.719,0 -0.475,0.475 -0.475,1.245 0,1.72 z m 7.223,-0.037 -16.537,16.537 c -1.965,1.964 -5.15,1.964 -7.114,0 -1.964,-1.964 -1.964,-5.149 0,-7.112 L -2.185,-7.726 C -1.81,-8.1 -1.198,-8.1 -0.823,-7.725 l 5.752,5.751 c 0.375,0.375 0.375,0.987 0,1.362 z m 3.217,0.429 -21.266,21.266 c -2.971,2.972 -7.79,2.972 -10.76,0 -2.971,-2.971 -2.971,-7.789 0,-10.759 l 21.267,-21.267 c 0.567,-0.567 1.491,-0.567 2.058,0 l 8.701,8.701 c 0.567,0.566 0.567,1.491 0,2.059 z M -31.181,15.526 -18.323,28.384 11.169,-1.108 -1.688,-13.966 -31.181,15.526 Z" /></g><g
           transform="translate(356.5215,195.1846)"
           id="g24"><path
             id="path26"
             style="fill:none;stroke:#384d71;stroke-width:0.85600001;stroke-linecap:round;stroke-linejoin:round;stroke-miterlimit:10;stroke-dasharray:none;stroke-opacity:1"
             d="m 0,0 c -2.466,0 -3.966,-0.617 -5.643,-0.617 -2.62,0 -6.529,1.767 -6.529,4.931 0,3.164 3.909,4.931 6.529,4.931 1.677,0 3.177,-0.617 5.643,-0.617 M -10.047,2.316 c 1.717,0.739 1.717,3.258 0,3.996 m 9.894,-4.156 c -4.022,-2.278 -10.786,-1.477 -10.786,2.158 0,3.635 6.764,4.437 10.786,2.157 M 1.724,4.314 c 0,0.326 0.262,0.589 0.589,0.589 0.324,0 0.588,-0.263 0.588,-0.589 0,-0.325 -0.264,-0.589 -0.588,-0.589 -0.327,0 -0.589,0.264 -0.589,0.589 z m -1.877,-3.622 0,7.244 c 0,0.678 0.554,1.233 1.231,1.233 l 2.467,0 c 0.679,0 1.233,-0.555 1.233,-1.233 l 0,-7.244 C 4.778,0.014 4.224,-0.54 3.545,-0.54 l -2.467,0 c -0.677,0 -1.231,0.554 -1.231,1.232 z" /></g><g
           transform="translate(360.0645,187.1367)"
           id="g28"><path
             id="path30"
             style="fill:none;stroke:#384d71;stroke-width:0.85600001;stroke-linecap:round;stroke-linejoin:round;stroke-miterlimit:10;stroke-dasharray:none;stroke-opacity:1"
             d="m 0,0 0,-0.995 m -0.498,0.498 0.996,0 m -3.532,0.001 c 0,0.202 0.163,0.366 0.365,0.366 0.203,0 0.367,-0.164 0.367,-0.366 0,-0.203 -0.164,-0.367 -0.367,-0.367 -0.202,0 -0.365,0.164 -0.365,0.367 z m 1.701,-3.616 0,7.23 -1.511,0 c -1.969,0 -2.514,-1.982 -2.514,-3.615 0,-1.633 0.545,-3.615 2.514,-3.615 l 1.511,0 z m -5.239,3.615 c 0,-3.781 2.163,-4.829 3.728,-4.829 l 4.079,0 0,9.657 -4.079,0 c -1.565,0 -3.728,-1.047 -3.728,-4.828 z" /></g><g
           transform="translate(359.1045,272.0918)"
           id="g32"><path
             id="path34"
             style="fill:none;stroke:#384d71;stroke-width:0.85600001;stroke-linecap:round;stroke-linejoin:round;stroke-miterlimit:10;stroke-dasharray:none;stroke-opacity:1"
             d="m 0,0 0,-11.609 m -4.211,2.584 c 0,-0.653 0.529,-1.183 1.184,-1.183 0.651,0 1.181,0.53 1.181,1.183 0,0.654 -0.53,1.184 -1.181,1.184 -0.655,0 -1.184,-0.53 -1.184,-1.184 z m 0,6.441 c 0,-0.654 0.529,-1.184 1.184,-1.184 0.651,0 1.181,0.53 1.181,1.184 0,0.653 -0.53,1.183 -1.181,1.183 -0.655,0 -1.184,-0.53 -1.184,-1.183 z m -5.911,-6.441 c 0,-0.653 0.53,-1.183 1.184,-1.183 0.654,0 1.183,0.53 1.183,1.183 0,0.654 -0.529,1.184 -1.183,1.184 -0.654,0 -1.184,-0.53 -1.184,-1.184 z m 0,6.441 c 0,-0.654 0.53,-1.184 1.184,-1.184 0.654,0 1.183,0.53 1.183,1.184 0,0.653 -0.529,1.183 -1.183,1.183 -0.654,0 -1.184,-0.53 -1.184,-1.183 z m -2,-9.025 13.868,0 0,11.609 -13.868,0 0,-11.609 z m 11.813,-30.099 0,-5.752 m -10.17,5.752 0,-5.752 m 1.454,5.752 0,-5.753 m 1.453,5.753 0,-5.753 m 1.453,5.753 0,-5.753 m 1.451,5.753 0,-5.753 m 1.453,5.753 0,-5.753 m 1.453,5.753 0,-5.753 m -0.191,13.821 0,-1.437 m -1.128,0.719 3.842,0 m -13.294,4.109 0,-8.219 c 0,-0.822 0.672,-1.494 1.495,-1.494 l 10.305,0 c 0.822,0 1.494,0.672 1.494,1.494 l 0,8.219 c 0,0.822 -0.672,1.495 -1.494,1.495 l -10.305,0 c -0.823,0 -1.495,-0.673 -1.495,-1.495 z m -1.029,17.202 16.746,0 m -16.746,-14.176 16.746,0 m 0,42.948 -16.746,0 0,-65.24 16.746,0" /></g><g
           transform="translate(135.3662,75.1855)"
           id="g36"><path
             id="path38"
             style="fill:none;stroke:#384d71;stroke-width:0.85600001;stroke-linecap:round;stroke-linejoin:round;stroke-miterlimit:10;stroke-dasharray:none;stroke-opacity:1"
             d="m 0,0 c 5.346,0 9.706,4.36 9.706,9.707 0,5.345 -4.36,9.706 -9.706,9.706 -5.346,0 -9.707,-4.361 -9.707,-9.706 C -9.707,4.36 -5.346,0 0,0 Z" /></g></g></g><text
       id="text40"
       style="font-variant:normal;font-weight:bold;font-stretch:normal;font-size:13.30720043px;font-family:Roboto;-inkscape-font-specification:Roboto-Bold;writing-mode:lr-tb;fill:#000000;fill-opacity:1;fill-rule:nonzero;stroke:none"
       transform="matrix(1,0,0,-1,131.8125,80.0938)"><tspan
         id="tspan42"
         y="0"
         x="0">3</tspan></text>
<text
       id="text44"
       style="font-variant:normal;font-weight:normal;font-stretch:normal;font-size:9.10599995px;font-family:Roboto;-inkscape-font-specification:Roboto-Regular;writing-mode:lr-tb;fill:#000000;fill-opacity:1;fill-rule:nonzero;stroke:none"
       transform="matrix(1,0,0,-1,124.0933,64.6748)"><tspan
         id="tspan46"
         y="0"
         x="0 5.126678 10.253356 12.689211 17.815889">19.08</tspan></text>
<g
       id="g48"><g
         clip-path="url(#clipPath52)"
         id="g50"><g
           transform="translate(54.3203,128.8232)"
           id="g56"><path
             id="path58"
             style="fill:none;stroke:#384d71;stroke-width:0.85600001;stroke-linecap:round;stroke-linejoin:round;stroke-miterlimit:10;stroke-dasharray:none;stroke-opacity:1"
             d="m 0,0 c 5.346,0 9.707,4.36 9.707,9.707 0,5.346 -4.361,9.706 -9.707,9.706 -5.346,0 -9.707,-4.36 -9.707,-9.706 C -9.707,4.36 -5.346,0 0,0 Z" /></g></g></g><text
       id="text60"
       style="font-variant:normal;font-weight:bold;font-stretch:normal;font-size:13.30720043px;font-family:Roboto;-inkscape-font-specification:Roboto-Bold;writing-mode:lr-tb;fill:#000000;fill-opacity:1;fill-rule:nonzero;stroke:none"
       transform="matrix(1,0,0,-1,50.7671,133.7314)"><tspan
         id="tspan62"
         y="0"
         x="0">8</tspan></text>
<text
       id="text64"
       style="font-variant:normal;font-weight:normal;font-stretch:normal;font-size:9.10599995px;font-family:Roboto;-inkscape-font-specification:Roboto-Regular;writing-mode:lr-tb;fill:#000000;fill-opacity:1;fill-rule:nonzero;stroke:none"
       transform="matrix(1,0,0,-1,48.1743,118.3135)"><tspan
         id="tspan66"
         y="0"
         x="0 5.126678 7.5670862">2.0</tspan></text>
<g
       id="g68"><g
         clip-path="url(#clipPath72)"
         id="g70"><g
           transform="translate(92.5962,202.0703)"
           id="g76"><path
             id="path78"
             style="fill:none;stroke:#384d71;stroke-width:0.85600001;stroke-linecap:round;stroke-linejoin:round;stroke-miterlimit:10;stroke-dasharray:none;stroke-opacity:1"
             d="m 0,0 c 5.346,0 9.707,4.361 9.707,9.707 0,5.346 -4.361,9.706 -9.707,9.706 -5.347,0 -9.707,-4.36 -9.707,-9.706 C -9.707,4.361 -5.347,0 0,0 Z" /></g></g></g><text
       id="text80"
       style="font-variant:normal;font-weight:bold;font-stretch:normal;font-size:13.30720043px;font-family:Roboto;-inkscape-font-specification:Roboto-Bold;writing-mode:lr-tb;fill:#000000;fill-opacity:1;fill-rule:nonzero;stroke:none"
       transform="matrix(1,0,0,-1,89.0425,206.9785)"><tspan
         id="tspan82"
         y="0"
         x="0">3</tspan></text>
<text
       id="text84"
       style="font-variant:normal;font-weight:normal;font-stretch:normal;font-size:9.10599995px;font-family:Roboto;-inkscape-font-specification:Roboto-Regular;writing-mode:lr-tb;fill:#000000;fill-opacity:1;fill-rule:nonzero;stroke:none"
       transform="matrix(1,0,0,-1,81.3228,191.5605)"><tspan
         id="tspan86"
         y="0"
         x="0 5.126678 10.253356 12.689211 17.815889">22.00</tspan></text>
<g
       id="g88"><g
         clip-path="url(#clipPath92)"
         id="g90"><g
           transform="translate(201.7559,137.9893)"
           id="g96"><path
             id="path98"
             style="fill:none;stroke:#384d71;stroke-width:0.85600001;stroke-linecap:round;stroke-linejoin:round;stroke-miterlimit:10;stroke-dasharray:none;stroke-opacity:1"
             d="m 0,0 c 5.345,0 9.706,4.36 9.706,9.707 0,5.345 -4.361,9.706 -9.706,9.706 -5.347,0 -9.707,-4.361 -9.707,-9.706 C -9.707,4.36 -5.347,0 0,0 Z" /></g></g></g><text
       id="text100"
       style="font-variant:normal;font-weight:bold;font-stretch:normal;font-size:13.30720043px;font-family:Roboto;-inkscape-font-specification:Roboto-Bold;writing-mode:lr-tb;fill:#000000;fill-opacity:1;fill-rule:nonzero;stroke:none"
       transform="matrix(1,0,0,-1,198.2021,142.8975)"><tspan
         id="tspan102"
         y="0"
         x="0">6</tspan></text>
<text
       id="text104"
       style="font-variant:normal;font-weight:normal;font-stretch:normal;font-size:9.10599995px;font-family:Roboto;-inkscape-font-specification:Roboto-Regular;writing-mode:lr-tb;fill:#000000;fill-opacity:1;fill-rule:nonzero;stroke:none"
       transform="matrix(1,0,0,-1,190.4814,127.4785)"><tspan
         id="tspan106"
         y="0"
         x="0 5.126678 10.253356 12.689211 17.815889">10.63</tspan></text>
<g
       id="g108"><g
         clip-path="url(#clipPath112)"
         id="g110"><g
           transform="translate(329.9932,184.5215)"
           id="g116"><path
             id="path118"
             style="fill:none;stroke:#384d71;stroke-width:0.85600001;stroke-linecap:round;stroke-linejoin:round;stroke-miterlimit:10;stroke-dasharray:none;stroke-opacity:1"
             d="m 0,0 c 5.346,0 9.706,4.36 9.706,9.706 0,5.346 -4.36,9.707 -9.706,9.707 -5.345,0 -9.706,-4.361 -9.706,-9.707 C -9.706,4.36 -5.345,0 0,0 Z" /></g></g></g><text
       id="text120"
       style="font-variant:normal;font-weight:bold;font-stretch:normal;font-size:13.30720043px;font-family:Roboto;-inkscape-font-specification:Roboto-Bold;writing-mode:lr-tb;fill:#000000;fill-opacity:1;fill-rule:nonzero;stroke:none"
       transform="matrix(1,0,0,-1,326.4395,189.4297)"><tspan
         id="tspan122"
         y="0"
         x="0">5</tspan></text>
<text
       id="text124"
       style="font-variant:normal;font-weight:normal;font-stretch:normal;font-size:9.10599995px;font-family:Roboto;-inkscape-font-specification:Roboto-Regular;writing-mode:lr-tb;fill:#000000;fill-opacity:1;fill-rule:nonzero;stroke:none"
       transform="matrix(1,0,0,-1,321.2842,174.0107)"><tspan
         id="tspan126"
         y="0"
         x="0 5.126678 7.5670862 12.693764">3.07</tspan></text>
<g
       id="g128"><g
         clip-path="url(#clipPath132)"
         id="g130"><g
           transform="translate(251.5732,185.6064)"
           id="g136"><path
             id="path138"
             style="fill:none;stroke:#384d71;stroke-width:0.85600001;stroke-linecap:round;stroke-linejoin:round;stroke-miterlimit:10;stroke-dasharray:none;stroke-opacity:1"
             d="m 0,0 c 5.347,0 9.707,4.36 9.707,9.707 0,5.346 -4.36,9.706 -9.707,9.706 -5.346,0 -9.706,-4.36 -9.706,-9.706 C -9.706,4.36 -5.346,0 0,0 Z" /></g></g></g><text
       id="text140"
       style="font-variant:normal;font-weight:bold;font-stretch:normal;font-size:13.30720043px;font-family:Roboto;-inkscape-font-specification:Roboto-Bold;writing-mode:lr-tb;fill:#000000;fill-opacity:1;fill-rule:nonzero;stroke:none"
       transform="matrix(1,0,0,-1,248.0205,190.5146)"><tspan
         id="tspan142"
         y="0"
         x="0">1</tspan></text>
<text
       id="text144"
       style="font-variant:normal;font-weight:normal;font-stretch:normal;font-size:9.10599995px;font-family:Roboto;-inkscape-font-specification:Roboto-Regular;writing-mode:lr-tb;fill:#000000;fill-opacity:1;fill-rule:nonzero;stroke:none"
       transform="matrix(1,0,0,-1,240.3018,175.0967)"><tspan
         id="tspan146"
         y="0"
         x="0 5.126678 10.253356 12.689211 17.815889">20.00</tspan></text>
<g
       id="g148"><g
         clip-path="url(#clipPath152)"
         id="g150"><g
           transform="translate(309.3857,271.8691)"
           id="g156"><path
             id="path158"
             style="fill:none;stroke:#384d71;stroke-width:0.85600001;stroke-linecap:round;stroke-linejoin:round;stroke-miterlimit:10;stroke-dasharray:none;stroke-opacity:1"
             d="m 0,0 c 5.347,0 9.706,4.361 9.706,9.707 0,5.346 -4.359,9.707 -9.706,9.707 -5.345,0 -9.706,-4.361 -9.706,-9.707 C -9.706,4.361 -5.345,0 0,0 Z" /></g></g></g><text
       id="text160"
       style="font-variant:normal;font-weight:bold;font-stretch:normal;font-size:13.30720043px;font-family:Roboto;-inkscape-font-specification:Roboto-Bold;writing-mode:lr-tb;fill:#000000;fill-opacity:1;fill-rule:nonzero;stroke:none"
       transform="matrix(1,0,0,-1,305.832,276.7773)"><tspan
         id="tspan162"
         y="0"
         x="0">4</tspan></text>
<text
       id="text164"
       style="font-variant:normal;font-weight:normal;font-stretch:normal;font-size:9.10599995px;font-family:Roboto;-inkscape-font-specification:Roboto-Regular;writing-mode:lr-tb;fill:#000000;fill-opacity:1;fill-rule:nonzero;stroke:none"
       transform="matrix(1,0,0,-1,298.1133,261.3589)"><tspan
         id="tspan166"
         y="0"
         x="0 5.126678 10.253356 12.689211 17.815889">16.00</tspan></text>
<g
       id="g168"><g
         clip-path="url(#clipPath172)"
         id="g170"><g
           transform="translate(190.7402,294.9902)"
           id="g176"><path
             id="path178"
             style="fill:none;stroke:#384d71;stroke-width:0.85600001;stroke-linecap:round;stroke-linejoin:round;stroke-miterlimit:10;stroke-dasharray:none;stroke-opacity:1"
             d="m 0,0 c 5.347,0 9.707,4.36 9.707,9.707 0,5.346 -4.36,9.706 -9.707,9.706 -5.346,0 -9.706,-4.36 -9.706,-9.706 C -9.706,4.36 -5.346,0 0,0 Z" /></g></g></g><text
       id="text180"
       style="font-variant:normal;font-weight:bold;font-stretch:normal;font-size:13.30720043px;font-family:Roboto;-inkscape-font-specification:Roboto-Bold;writing-mode:lr-tb;fill:#000000;fill-opacity:1;fill-rule:nonzero;stroke:none"
       transform="matrix(1,0,0,-1,187.1865,299.8984)"><tspan
         id="tspan182"
         y="0"
         x="0">2</tspan></text>
<text
       id="text184"
       style="font-variant:normal;font-weight:normal;font-stretch:normal;font-size:9.10599995px;font-family:Roboto;-inkscape-font-specification:Roboto-Regular;writing-mode:lr-tb;fill:#000000;fill-opacity:1;fill-rule:nonzero;stroke:none"
       transform="matrix(1,0,0,-1,179.4673,284.48)"><tspan
         id="tspan186"
         y="0"
         x="0 5.126678 10.253356 12.689211 17.815889">32.42</tspan></text>
<g
       id="g188"><g
         clip-path="url(#clipPath192)"
         id="g190"><g
           transform="translate(279.7217,353.7568)"
           id="g196"><path
             id="path198"
             style="fill:none;stroke:#384d71;stroke-width:0.85600001;stroke-linecap:round;stroke-linejoin:round;stroke-miterlimit:10;stroke-dasharray:none;stroke-opacity:1"
             d="m 0,0 c 5.345,0 9.705,4.36 9.705,9.706 0,5.347 -4.36,9.707 -9.705,9.707 -5.348,0 -9.707,-4.36 -9.707,-9.707 C -9.707,4.36 -5.348,0 0,0 Z" /></g></g></g><text
       id="text200"
       style="font-variant:normal;font-weight:bold;font-stretch:normal;font-size:13.30720043px;font-family:Roboto;-inkscape-font-specification:Roboto-Bold;writing-mode:lr-tb;fill:#000000;fill-opacity:1;fill-rule:nonzero;stroke:none"
       transform="matrix(1,0,0,-1,276.167,358.6655)"><tspan
         id="tspan202"
         y="0"
         x="0">8</tspan></text>
<text
       id="text204"
       style="font-variant:normal;font-weight:normal;font-stretch:normal;font-size:9.10599995px;font-family:Roboto;-inkscape-font-specification:Roboto-Regular;writing-mode:lr-tb;fill:#000000;fill-opacity:1;fill-rule:nonzero;stroke:none"
       transform="matrix(1,0,0,-1,273.5752,343.2471)"><tspan
         id="tspan206"
         y="0"
         x="0 5.126678 7.5670862">4.6</tspan></text>
<g
       id="g208"><g
         clip-path="url(#clipPath212)"
         id="g210"><g
           transform="translate(56.5171,105.2637)"
           id="g216"><path
             id="path218"
             style="fill:#384c71;fill-opacity:1;fill-rule:evenodd;stroke:none"
             d="m 0,0 0,-12.572 -1.348,1.347 -4.939,4.939 4.939,4.938 L 0,0 Z m 0,59.095 0,-9.877 -50.819,50.818 3.212,3.212 1.726,1.727 11.018,11.018 4.938,-4.938 L -40.942,100.037 0,59.095 Z m 3.753,-55.342 0,-9.877 -0.162,-0.162 0.162,-0.162 0,-9.877 L 0,-12.572 0,0 3.753,3.753 Z m 0,51.589 0,-5.068 L 1.349,47.87 0,49.218 0,59.095 3.753,55.342 Z m 0,99.267 0,-5.068 -2.534,2.534 2.534,2.534 z m 0,-104.335 2.534,2.534 -2.534,2.534 0,-5.068 z m 0,-66.599 0,9.877 28.807,-28.808 -4.939,-4.938 -23.868,23.869 z m 71.07,-61.194 0,-9.877 -16.306,16.307 4.938,4.938 11.368,-11.368 z m 0,146.52 0,-4.057 -5.718,-5.717 5.162,-5.162 -2.029,-2.028 -5.161,5.161 L 31.704,21.827 3.753,-6.124 l 0,9.877 20.856,20.855 -10.39,10.391 4.939,4.939 10.389,-10.391 2.173,-2.172 -10e-4,0 0.739,-0.738 42.365,42.364 z m 0,97.1 0,-4.057 -26.879,26.879 -41.787,-41.786 -2.404,2.404 0,5.068 40.391,40.391 0,20.375 6.983,0 0,-13.392 0,-9.876 -1.155,-1.156 24.851,-24.85 z m 0,-101.157 0,4.057 14.278,14.277 2.028,-2.027 -16.306,-16.307 z m 46.108,-131.234 0,-9.877 -28.668,-28.668 -4.939,4.938 -12.501,12.501 0,9.877 17.44,-17.44 28.668,28.669 z m 0,73.69 0,-4.056 -33.284,33.284 2.029,2.028 0.038,-0.038 8.993,8.992 2.013,-2.043 L 91.742,36.59 120.931,7.4 Z m 0,62.435 0,-4.057 -8.196,-8.195 -2.012,2.043 10.208,10.209 z m 0,45.122 0,-4.057 -14.33,-14.33 -2.029,2.029 16.359,16.358 z m 0,5.035 0,-4.056 -46.108,46.108 0,4.057 46.108,-46.109 z m -27.274,136.372 27.274,0 0,6.984 -27.274,0 0,-6.984 z m 27.274,-145.464 0,4.057 0.49,0.489 -0.49,0.49 0,4.056 2.679,-2.679 24.596,0 0,-2.868 -23.73,0 -3.545,-3.545 z m 132.698,-117.869 0,-6.983 -8.476,0 -31.003,31.004 -93.219,-93.219 0,9.877 34.818,34.817 -34.818,34.817 0,4.056 36.846,-36.844 51.434,51.433 -44.139,44.141 2.07,2.069 -43.79,0 -2.421,-2.421 0,4.057 1.233,1.233 47.845,0 44.141,-44.14 4.937,-4.939 28.958,-28.958 5.584,0 z m 0,121.414 -20.519,0 0,2.868 20.519,0 0,-2.868 z m -132.698,141.919 57.631,0 32.667,-32.668 0,-106.383 -31.436,0 0,-2.868 31.436,0 2.868,0 0,2.868 0,106.383 16.24,0 0,6.984 -16.215,0 -32.667,32.668 -60.524,0 0,-6.984 z m 132.698,-141.919 0,2.868 52.367,0 0,106.383 -28.353,0 0,6.984 23.421,0 0,29.382 6.984,0 0,-15.872 4.931,0 0,-179.979 0,-4.932 0,-2.051 -38.83,0 0,-11.971 -6.984,0 0,11.971 0,4.115 -7.148,0 -2.869,0 0,2.868 0,16.95 2.869,0 0,-16.95 45.979,0 0,50.234 -45.979,0 0,-16.334 -2.869,0 0,16.334 -3.519,0 z m 0,-128.397 0,6.983 13.536,0 0,27.88 6.984,0 0,-27.88 0,-4.611 0,-2.372 -20.52,0 z" /></g><g
           transform="translate(15.5747,205.3008)"
           id="g220"><path
             id="path222"
             style="fill:none;stroke:#384c71;stroke-width:0.85699999;stroke-linecap:round;stroke-linejoin:round;stroke-miterlimit:22.9260006;stroke-dasharray:none;stroke-opacity:1"
             d="M 0,0 11.018,11.018 6.08,15.956 -4.938,4.938 -6.665,3.211 -9.876,-0.001 42.291,-52.167 47.229,-47.229 0,0 Z m 298.09,-1.926 2.869,0 0,16.334 45.979,0 0,-50.234 -45.979,0 0,16.95 -2.869,0 0,-16.95 0,-2.868 2.869,0 7.148,0 0,-4.116 0,-11.97 6.984,0 0,11.97 38.83,0 0,2.052 0,4.932 0,179.979 -4.93,0 0,15.871 -6.985,0 0,-29.381 -23.421,0 0,-6.984 28.353,0 0,-106.383 -72.885,0 0,-2.868 24.037,0 0,-16.334 z m -150.547,-1.541 -2.028,2.029 c 5.616,5.615 11.233,11.231 16.848,16.847 L 88.886,88.886 47.1,47.1 l -4.939,4.938 42.925,42.924 0,20.376 6.984,0 0,-13.392 0,-9.876 -1.156,-1.156 73.638,-73.638 24.596,0 0,-2.868 -23.73,0 -17.875,-17.875 z m -39.524,-39.372 5.162,-5.161 2.028,2.028 -5.162,5.161 22.024,22.025 -2.028,2.027 L 73.4,-73.4 l -0.738,0.738 0,0 -2.173,2.172 -10.389,10.39 -4.938,-4.938 10.389,-10.391 -25.957,-25.956 -4.938,-4.938 4.938,-4.939 28.969,-28.969 4.939,4.938 -28.969,28.97 28.113,28.113 35.373,35.371 z m 56.275,11.001 -10.616,-10.616 -2.013,2.043 11.441,11.442 47.846,0 44.14,-44.14 4.938,-4.939 28.958,-28.958 19.119,0 0,27.88 6.984,0 0,-27.88 0,-4.611 0,-2.372 -28.996,0 -31.003,31.004 -121.887,-121.887 -4.939,4.937 -28.807,28.809 4.938,4.938 28.808,-28.808 63.486,63.486 -68.101,68.101 2.028,2.028 0.038,-0.038 8.993,8.992 2.014,-2.043 -8.978,-8.977 66.034,-66.034 51.435,51.433 -44.14,44.141 2.07,2.069 -43.79,0 z m -29.694,188.165 84.904,0 32.667,-32.668 0,-106.383 -31.435,0 0,-2.868 31.435,0 2.869,0 0,2.868 0,106.383 16.24,0 0,6.984 -16.216,0 -32.667,32.668 -87.797,0 0,-6.984 z" /></g><g
           transform="translate(52.6138,101.3604)"
           id="g224"><path
             id="path226"
             style="fill:#ffffff;fill-opacity:1;fill-rule:nonzero;stroke:none"
             d="m 0,0 c -12.274,12.275 -22.742,25.875 -31.04,38.543 -11.225,17.14 -18.498,32.624 -20.905,40.828 l -0.241,0.818 0.599,0.599 13.912,13.912 2.028,-2.028 -13.306,-13.306 c 2.573,-8.18 9.605,-22.909 20.311,-39.255 8.198,-12.515 18.54,-25.953 30.67,-38.083 L 0,0 Z" /></g><g
           transform="translate(52.6138,101.3604)"
           id="g228"><path
             id="path230"
             style="fill:none;stroke:#384c71;stroke-width:0.85699999;stroke-linecap:round;stroke-linejoin:round;stroke-miterlimit:22.9260006;stroke-dasharray:none;stroke-opacity:1"
             d="m 0,0 c -12.274,12.275 -22.742,25.875 -31.04,38.543 -11.225,17.14 -18.498,32.624 -20.905,40.828 l -0.241,0.818 0.599,0.599 13.912,13.912 2.028,-2.028 -13.306,-13.306 c 2.573,-8.18 9.605,-22.909 20.311,-39.255 8.198,-12.515 18.54,-25.953 30.67,-38.083 L 0,0 Z" /></g><g
           transform="translate(87.6216,68.5537)"
           id="g232"><path
             id="path234"
             style="fill:#ffffff;fill-opacity:1;fill-rule:nonzero;stroke:none"
             d="M 0,0 30.895,-30.896 28.867,-32.924 -2.028,-2.028 0,0 Z" /></g><g
           transform="translate(87.6216,68.5537)"
           id="g236"><path
             id="path238"
             style="fill:none;stroke:#384c71;stroke-width:0.85699999;stroke-linecap:round;stroke-linejoin:round;stroke-miterlimit:22.9260006;stroke-dasharray:none;stroke-opacity:1"
             d="M 0,0 30.895,-30.896 28.867,-32.924 -2.028,-2.028 0,0 Z" /></g><g
           transform="translate(23.1089,219.8018)"
           id="g240"><path
             id="path242"
             style="fill:#ffffff;fill-opacity:1;fill-rule:nonzero;stroke:none"
             d="M 0,0 36.082,36.082 38.111,34.053 2.028,-2.028 0,0 Z" /></g><g
           transform="translate(23.1089,219.8018)"
           id="g244"><path
             id="path246"
             style="fill:none;stroke:#384c71;stroke-width:0.85699999;stroke-linecap:round;stroke-linejoin:round;stroke-miterlimit:22.9260006;stroke-dasharray:none;stroke-opacity:1"
             d="M 0,0 36.082,36.082 38.111,34.053 2.028,-2.028 0,0 Z" /></g><g
           transform="translate(102.7183,320.6387)"
           id="g248"><path
             id="path250"
             style="fill:#ffffff;fill-opacity:1;fill-rule:nonzero;stroke:none"
             d="m 0,0 0,44.48 0,1.435 1.435,0 46.021,0 0,-2.869 -44.587,0 L 2.869,0 0,0 Z" /></g><g
           transform="translate(102.7183,320.6387)"
           id="g252"><path
             id="path254"
             style="fill:none;stroke:#384c71;stroke-width:0.85699999;stroke-linecap:round;stroke-linejoin:round;stroke-miterlimit:22.9260006;stroke-dasharray:none;stroke-opacity:1"
             d="m 0,0 0,44.48 0,1.435 1.435,0 46.021,0 0,-2.869 -44.587,0 L 2.869,0 0,0 Z" /></g><path
           id="path256"
           style="fill:#ffffff;fill-opacity:1;fill-rule:nonzero;stroke:#384c71;stroke-width:0.85699999;stroke-linecap:round;stroke-linejoin:round;stroke-miterlimit:22.9260006;stroke-dasharray:none;stroke-opacity:1"
           d="m 334.16,331.018 -29.123,0 0,2.868 29.123,0 0,-2.868 z" /><g
           transform="translate(357.5811,362.457)"
           id="g258"><path
             id="path260"
             style="fill:#ffffff;fill-opacity:1;fill-rule:nonzero;stroke:none"
             d="m 0,0 -30.072,0 -0.386,0 -0.349,0.207 c -12.092,7.236 -27.873,15.962 -48.89,22.876 -20.896,6.873 -46.987,11.959 -79.816,12.019 l -28.883,-28.948 -4.04,0 31.322,31.392 0.425,0.425 0.588,0 c 33.441,0 60.013,-5.168 81.289,-12.166 21.08,-6.933 36.941,-15.659 49.127,-22.937 L 0,2.868 0,0 Z" /></g><g
           transform="translate(357.5811,362.457)"
           id="g262"><path
             id="path264"
             style="fill:none;stroke:#384c71;stroke-width:0.85699999;stroke-linecap:round;stroke-linejoin:round;stroke-miterlimit:22.9260006;stroke-dasharray:none;stroke-opacity:1"
             d="m 0,0 -30.072,0 -0.386,0 -0.349,0.207 c -12.092,7.236 -27.873,15.962 -48.89,22.876 -20.896,6.873 -46.987,11.959 -79.816,12.019 l -28.883,-28.948 -4.04,0 31.322,31.392 0.425,0.425 0.588,0 c 33.441,0 60.013,-5.168 81.289,-12.166 21.08,-6.933 36.941,-15.659 49.127,-22.937 L 0,2.868 0,0 Z" /></g><g
           transform="translate(286.8545,328.9595)"
           id="g266"><path
             id="path268"
             style="fill:none;stroke:#384c71;stroke-width:1.71300006;stroke-linecap:round;stroke-linejoin:round;stroke-miterlimit:22.9260006;stroke-dasharray:none;stroke-opacity:1"
             d="M 0,0 15.717,-9.245" /></g><g
           transform="translate(270.6143,222.5767)"
           id="g270"><path
             id="path272"
             style="fill:none;stroke:#384c71;stroke-width:1.71300006;stroke-linecap:round;stroke-linejoin:round;stroke-miterlimit:22.9260006;stroke-dasharray:none;stroke-opacity:1"
             d="M 0,0 16.394,9.475" /></g><g
           transform="translate(313.665,186.4248)"
           id="g274"><path
             id="path276"
             style="fill:none;stroke:#384c71;stroke-width:1.71300006;stroke-linecap:round;stroke-linejoin:round;stroke-miterlimit:22.9260006;stroke-dasharray:none;stroke-opacity:1"
             d="M 0,0 -8.475,14.638" /></g><g
           transform="translate(330.666,150.5205)"
           id="g278"><path
             id="path280"
             style="fill:none;stroke:#384c71;stroke-width:1.71300006;stroke-linecap:round;stroke-linejoin:round;stroke-miterlimit:22.9260006;stroke-dasharray:none;stroke-opacity:1"
             d="M 0,0 11.864,-21.11" /></g><g
           transform="translate(157.2373,150.8311)"
           id="g282"><path
             id="path284"
             style="fill:none;stroke:#384c71;stroke-width:1.71300006;stroke-linecap:round;stroke-linejoin:round;stroke-miterlimit:22.9260006;stroke-dasharray:none;stroke-opacity:1"
             d="M 0,0 16.513,4.312" /></g><g
           transform="translate(128.7554,157.3008)"
           id="g286"><path
             id="path288"
             style="fill:none;stroke:#384c71;stroke-width:1.71300006;stroke-linecap:round;stroke-linejoin:round;stroke-miterlimit:22.9260006;stroke-dasharray:none;stroke-opacity:1"
             d="M 0,0 5.702,-21.11" /></g><g
           transform="translate(75.6748,145.2012)"
           id="g290"><path
             id="path292"
             style="fill:none;stroke:#384c71;stroke-width:1.71300006;stroke-linecap:round;stroke-linejoin:round;stroke-miterlimit:22.9260006;stroke-dasharray:none;stroke-opacity:1"
             d="M 0,0 -4.777,17.566" /></g><g
           transform="translate(161.0894,203.8623)"
           id="g294"><path
             id="path296"
             style="fill:none;stroke:#384c71;stroke-width:1.71300006;stroke-linecap:round;stroke-linejoin:round;stroke-miterlimit:22.9260006;stroke-dasharray:none;stroke-opacity:1"
             d="M 0,0 -20.777,-5.881" /></g><g
           transform="translate(204.7227,222.5767)"
           id="g298"><path
             id="path300"
             style="fill:none;stroke:#384c71;stroke-width:1.71300006;stroke-linecap:round;stroke-linejoin:round;stroke-miterlimit:22.9260006;stroke-dasharray:none;stroke-opacity:1"
             d="M 0,0 17.874,10.324" /></g><g
           transform="translate(236.3105,222.5767)"
           id="g302"><path
             id="path304"
             style="fill:none;stroke:#384c71;stroke-width:1.71300006;stroke-linecap:round;stroke-linejoin:round;stroke-miterlimit:22.9260006;stroke-dasharray:none;stroke-opacity:1"
             d="M 0,0 -8.583,6.23" /></g><g
           transform="translate(241.7471,106.9609)"
           id="g306"><path
             id="path308"
             style="fill:none;stroke:#384d71;stroke-width:0.85600001;stroke-linecap:round;stroke-linejoin:round;stroke-miterlimit:10;stroke-dasharray:none;stroke-opacity:1"
             d="M 0,0 -0.704,-0.705 M -0.704,0 0,-0.705 m -2.498,2.499 c 0.144,0.143 0.376,0.143 0.519,0 0.144,-0.143 0.144,-0.375 0,-0.519 -0.143,-0.143 -0.375,-0.143 -0.519,0 -0.143,0.144 -0.143,0.376 0,0.519 z M -3.851,-1.966 1.262,3.146 0.193,4.215 C -1.199,5.607 -2.986,4.592 -4.141,3.437 -5.296,2.282 -6.311,0.495 -4.92,-0.897 l 1.069,-1.069 z M -4.999,4.295 C -7.672,1.621 -6.883,-0.649 -5.777,-1.756 L -2.893,-4.64 3.936,2.188 1.051,5.073 c -1.106,1.106 -3.376,1.895 -6.05,-0.778 z" /></g></g></g></g></svg>