<?xml version="1.0" encoding="UTF-8" standalone="no"?>
<svg
   xmlns:dc="http://purl.org/dc/elements/1.1/"
   xmlns:cc="http://creativecommons.org/ns#"
   xmlns:rdf="http://www.w3.org/1999/02/22-rdf-syntax-ns#"
   xmlns:svg="http://www.w3.org/2000/svg"
   xmlns="http://www.w3.org/2000/svg"
   viewBox="0 0 462.40625 501.07126"
   height="501.07126"
   width="462.40625"
   xml:space="preserve"
   version="1.1"
   id="svg2"><metadata
     id="metadata8"><rdf:RDF><cc:Work
         rdf:about=""><dc:format>image/svg+xml</dc:format><dc:type
           rdf:resource="http://purl.org/dc/dcmitype/StillImage" /></cc:Work></rdf:RDF></metadata><defs
     id="defs6"><clipPath
       id="clipPath16"
       clipPathUnits="userSpaceOnUse"><path
         id="path18"
         d="m 0,400.857 369.925,0 L 369.925,0 0,0 0,400.857 Z" /></clipPath><clipPath
       id="clipPath52"
       clipPathUnits="userSpaceOnUse"><path
         id="path54"
         d="m 0,400.857 369.925,0 L 369.925,0 0,0 0,400.857 Z" /></clipPath><clipPath
       id="clipPath72"
       clipPathUnits="userSpaceOnUse"><path
         id="path74"
         d="m 0,400.857 369.925,0 L 369.925,0 0,0 0,400.857 Z" /></clipPath><clipPath
       id="clipPath92"
       clipPathUnits="userSpaceOnUse"><path
         id="path94"
         d="m 0,400.857 369.925,0 L 369.925,0 0,0 0,400.857 Z" /></clipPath><clipPath
       id="clipPath112"
       clipPathUnits="userSpaceOnUse"><path
         id="path114"
         d="m 0,400.857 369.925,0 L 369.925,0 0,0 0,400.857 Z" /></clipPath><clipPath
       id="clipPath132"
       clipPathUnits="userSpaceOnUse"><path
         id="path134"
         d="m 0,400.857 369.925,0 L 369.925,0 0,0 0,400.857 Z" /></clipPath><clipPath
       id="clipPath152"
       clipPathUnits="userSpaceOnUse"><path
         id="path154"
         d="m 0,400.857 369.925,0 L 369.925,0 0,0 0,400.857 Z" /></clipPath><clipPath
       id="clipPath172"
       clipPathUnits="userSpaceOnUse"><path
         id="path174"
         d="m 0,400.857 369.925,0 L 369.925,0 0,0 0,400.857 Z" /></clipPath><clipPath
       id="clipPath192"
       clipPathUnits="userSpaceOnUse"><path
         id="path194"
         d="m 0,400.857 369.925,0 L 369.925,0 0,0 0,400.857 Z" /></clipPath><clipPath
       id="clipPath212"
       clipPathUnits="userSpaceOnUse"><path
         id="path214"
         d="m 0,400.857 369.925,0 L 369.925,0 0,0 0,400.857 Z" /></clipPath></defs><g
     transform="matrix(1.25,0,0,-1.25,0,501.07125)"
     id="g10"><g
       id="g12"><g
         clip-path="url(#clipPath16)"
         id="g14"><g
           transform="translate(153.9414,91.7256)"
           id="g20"><path
             id="path22"
             style="fill:none;stroke:#384d71;stroke-width:0.85600001;stroke-linecap:round;stroke-linejoin:round;stroke-miterlimit:10;stroke-dasharray:none;stroke-opacity:1"
             d="M 0,0 0.912,-0.911 M 2.87,-2.869 1.958,-1.958 M 2.87,0 1.958,-0.911 M 0,-2.869 0.912,-1.958 m 1.383,1.383 C 1.82,-0.1 1.05,-0.1 0.575,-0.575 0.1,-1.05 0.1,-1.819 0.575,-2.295 c 0.475,-0.475 1.245,-0.475 1.72,0 0.475,0.476 0.475,1.245 0,1.72 z M -4.928,-0.611 11.61,15.926 c 1.964,1.964 5.149,1.964 7.113,0 1.964,-1.964 1.964,-5.15 0,-7.113 L 2.185,-7.725 C 1.81,-8.1 1.199,-8.1 0.824,-7.725 l -5.752,5.752 c -0.375,0.375 -0.375,0.986 0,1.362 z m -3.218,0.428 21.267,21.267 c 2.971,2.971 7.789,2.971 10.76,0 2.971,-2.971 2.971,-7.789 0,-10.76 L 2.614,-10.942 c -0.567,-0.568 -1.492,-0.568 -2.059,0 l -8.701,8.7 c -0.566,0.567 -0.566,1.492 0,2.059 z M 31.181,15.526 18.324,28.385 -11.168,-1.107 1.689,-13.965 31.181,15.526 Z" /></g><g
           transform="translate(13.4028,195.1846)"
           id="g24"><path
             id="path26"
             style="fill:none;stroke:#384d71;stroke-width:0.85600001;stroke-linecap:round;stroke-linejoin:round;stroke-miterlimit:10;stroke-dasharray:none;stroke-opacity:1"
             d="m 0,0 c 2.467,0 3.966,-0.617 5.643,-0.617 2.621,0 6.53,1.768 6.53,4.931 0,3.164 -3.909,4.932 -6.53,4.932 C 3.966,9.246 2.467,8.629 0,8.629 M 10.047,2.317 c -1.717,0.738 -1.717,3.257 0,3.995 M 0.154,2.157 C 4.175,-0.122 10.94,0.68 10.94,4.314 10.94,7.95 4.175,8.751 0.154,6.471 M -1.723,4.314 c 0,0.326 -0.263,0.589 -0.589,0.589 -0.325,0 -0.589,-0.263 -0.589,-0.589 0,-0.325 0.264,-0.588 0.589,-0.588 0.326,0 0.589,0.263 0.589,0.588 z m 1.877,-3.621 0,7.243 c 0,0.678 -0.555,1.233 -1.233,1.233 l -2.465,0 c -0.678,0 -1.233,-0.555 -1.233,-1.233 l 0,-7.243 c 0,-0.678 0.555,-1.233 1.233,-1.233 l 2.465,0 c 0.678,0 1.233,0.555 1.233,1.233 z" /></g><g
           transform="translate(9.8604,187.1377)"
           id="g28"><path
             id="path30"
             style="fill:none;stroke:#384d71;stroke-width:0.85600001;stroke-linecap:round;stroke-linejoin:round;stroke-miterlimit:10;stroke-dasharray:none;stroke-opacity:1"
             d="m 0,0 0,-0.995 m 0.498,0.497 -0.996,0 m 3.533,0.001 c 0,0.203 -0.163,0.367 -0.366,0.367 -0.203,0 -0.367,-0.164 -0.367,-0.367 0,-0.203 0.164,-0.367 0.367,-0.367 0.203,0 0.366,0.164 0.366,0.367 z m -1.702,-3.616 0,7.23 1.512,0 c 1.968,0 2.514,-1.982 2.514,-3.615 0,-1.633 -0.546,-3.615 -2.514,-3.615 l -1.512,0 z m 5.239,3.615 c 0,-3.781 -2.163,-4.828 -3.727,-4.828 l -4.08,0 0,9.657 4.08,0 c 1.564,0 3.727,-1.048 3.727,-4.829 z" /></g><g
           transform="translate(10.8208,272.0918)"
           id="g32"><path
             id="path34"
             style="fill:none;stroke:#384d71;stroke-width:0.85600001;stroke-linecap:round;stroke-linejoin:round;stroke-miterlimit:10;stroke-dasharray:none;stroke-opacity:1"
             d="m 0,0 0,-11.609 m 4.212,2.585 c 0,-0.654 -0.53,-1.184 -1.184,-1.184 -0.653,0 -1.183,0.53 -1.183,1.184 0,0.653 0.53,1.183 1.183,1.183 0.654,0 1.184,-0.53 1.184,-1.183 z m 0,6.44 c 0,-0.654 -0.53,-1.184 -1.184,-1.184 -0.653,0 -1.183,0.53 -1.183,1.184 0,0.653 0.53,1.183 1.183,1.183 0.654,0 1.184,-0.53 1.184,-1.183 z m 5.909,-6.44 c 0,-0.654 -0.53,-1.184 -1.184,-1.184 -0.653,0 -1.183,0.53 -1.183,1.184 0,0.653 0.53,1.183 1.183,1.183 0.654,0 1.184,-0.53 1.184,-1.183 z m 0,6.44 c 0,-0.654 -0.53,-1.184 -1.184,-1.184 -0.653,0 -1.183,0.53 -1.183,1.184 0,0.653 0.53,1.183 1.183,1.183 0.654,0 1.184,-0.53 1.184,-1.183 z m 2.002,-9.025 -13.868,0 0,11.609 13.868,0 0,-11.609 z m -11.814,-30.099 0,-5.752 m 10.17,5.752 0,-5.752 m -1.454,5.752 0,-5.752 m -1.452,5.752 0,-5.752 m -1.453,5.752 0,-5.752 m -1.453,5.752 0,-5.752 m -1.453,5.752 0,-5.752 m -1.453,5.752 0,-5.752 m 0.191,13.821 0,-1.438 m 1.129,0.719 -3.842,0 m 13.294,4.109 0,-8.218 c 0,-0.822 -0.673,-1.495 -1.495,-1.495 l -10.305,0 c -0.822,0 -1.494,0.673 -1.494,1.495 l 0,8.218 c 0,0.822 0.672,1.495 1.494,1.495 l 10.305,0 c 0.822,0 1.495,-0.673 1.495,-1.495 z m 1.028,17.203 -16.746,0 m 16.746,-14.177 -16.746,0 m 0,42.949 16.746,0 0,-65.241 -16.746,0" /></g><g
           transform="translate(234.6211,75.1855)"
           id="g36"><path
             id="path38"
             style="fill:none;stroke:#384d71;stroke-width:0.85600001;stroke-linecap:round;stroke-linejoin:round;stroke-miterlimit:10;stroke-dasharray:none;stroke-opacity:1"
             d="m 0,0 c 5.347,0 9.707,4.36 9.707,9.707 0,5.346 -4.36,9.707 -9.707,9.707 -5.346,0 -9.707,-4.361 -9.707,-9.707 C -9.707,4.36 -5.346,0 0,0 Z" /></g></g></g><text
       id="text40"
       style="font-variant:normal;font-weight:bold;font-stretch:normal;font-size:13.30720043px;font-family:Roboto;-inkscape-font-specification:Roboto-Bold;writing-mode:lr-tb;fill:#000000;fill-opacity:1;fill-rule:nonzero;stroke:none"
       transform="matrix(1,0,0,-1,231.0693,80.0938)"><tspan
         id="tspan42"
         y="0"
         x="0">3</tspan></text>
<text
       id="text44"
       style="font-variant:normal;font-weight:normal;font-stretch:normal;font-size:9.10599995px;font-family:Roboto;-inkscape-font-specification:Roboto-Regular;writing-mode:lr-tb;fill:#000000;fill-opacity:1;fill-rule:nonzero;stroke:none"
       transform="matrix(1,0,0,-1,223.3486,64.6748)"><tspan
         id="tspan46"
         y="0"
         x="0 5.126678 10.253356 12.689211 17.815889">19.08</tspan></text>
<g
       id="g48"><g
         clip-path="url(#clipPath52)"
         id="g50"><g
           transform="translate(315.6035,128.8232)"
           id="g56"><path
             id="path58"
             style="fill:none;stroke:#384d71;stroke-width:0.85600001;stroke-linecap:round;stroke-linejoin:round;stroke-miterlimit:10;stroke-dasharray:none;stroke-opacity:1"
             d="m 0,0 c 5.348,0 9.706,4.361 9.706,9.707 0,5.347 -4.358,9.707 -9.706,9.707 -5.345,0 -9.706,-4.36 -9.706,-9.707 C -9.706,4.361 -5.345,0 0,0 Z" /></g></g></g><text
       id="text60"
       style="font-variant:normal;font-weight:bold;font-stretch:normal;font-size:13.30720043px;font-family:Roboto;-inkscape-font-specification:Roboto-Bold;writing-mode:lr-tb;fill:#000000;fill-opacity:1;fill-rule:nonzero;stroke:none"
       transform="matrix(1,0,0,-1,312.0518,133.7314)"><tspan
         id="tspan62"
         y="0"
         x="0">8</tspan></text>
<text
       id="text64"
       style="font-variant:normal;font-weight:normal;font-stretch:normal;font-size:9.10599995px;font-family:Roboto;-inkscape-font-specification:Roboto-Regular;writing-mode:lr-tb;fill:#000000;fill-opacity:1;fill-rule:nonzero;stroke:none"
       transform="matrix(1,0,0,-1,309.459,118.3135)"><tspan
         id="tspan66"
         y="0"
         x="0 5.126678 7.5670862">2.0</tspan></text>
<g
       id="g68"><g
         clip-path="url(#clipPath72)"
         id="g70"><g
           transform="translate(277.4355,202.0713)"
           id="g76"><path
             id="path78"
             style="fill:none;stroke:#384d71;stroke-width:0.85600001;stroke-linecap:round;stroke-linejoin:round;stroke-miterlimit:10;stroke-dasharray:none;stroke-opacity:1"
             d="m 0,0 c 5.346,0 9.707,4.361 9.707,9.706 0,5.346 -4.361,9.707 -9.707,9.707 -5.346,0 -9.706,-4.361 -9.706,-9.707 C -9.706,4.361 -5.346,0 0,0 Z" /></g></g></g><text
       id="text80"
       style="font-variant:normal;font-weight:bold;font-stretch:normal;font-size:13.30720043px;font-family:Roboto;-inkscape-font-specification:Roboto-Bold;writing-mode:lr-tb;fill:#000000;fill-opacity:1;fill-rule:nonzero;stroke:none"
       transform="matrix(1,0,0,-1,273.8818,206.9785)"><tspan
         id="tspan82"
         y="0"
         x="0">3</tspan></text>
<text
       id="text84"
       style="font-variant:normal;font-weight:normal;font-stretch:normal;font-size:9.10599995px;font-family:Roboto;-inkscape-font-specification:Roboto-Regular;writing-mode:lr-tb;fill:#000000;fill-opacity:1;fill-rule:nonzero;stroke:none"
       transform="matrix(1,0,0,-1,266.1631,191.5605)"><tspan
         id="tspan86"
         y="0"
         x="0 5.126678 10.253356 12.689211 17.815889">22.00</tspan></text>
<g
       id="g88"><g
         clip-path="url(#clipPath92)"
         id="g90"><g
           transform="translate(168.2808,137.9893)"
           id="g96"><path
             id="path98"
             style="fill:none;stroke:#384d71;stroke-width:0.85600001;stroke-linecap:round;stroke-linejoin:round;stroke-miterlimit:10;stroke-dasharray:none;stroke-opacity:1"
             d="m 0,0 c 5.346,0 9.707,4.36 9.707,9.707 0,5.346 -4.361,9.706 -9.707,9.706 -5.346,0 -9.707,-4.36 -9.707,-9.706 C -9.707,4.36 -5.346,0 0,0 Z" /></g></g></g><text
       id="text100"
       style="font-variant:normal;font-weight:bold;font-stretch:normal;font-size:13.30720043px;font-family:Roboto;-inkscape-font-specification:Roboto-Bold;writing-mode:lr-tb;fill:#000000;fill-opacity:1;fill-rule:nonzero;stroke:none"
       transform="matrix(1,0,0,-1,164.7275,142.8975)"><tspan
         id="tspan102"
         y="0"
         x="0">6</tspan></text>
<text
       id="text104"
       style="font-variant:normal;font-weight:normal;font-stretch:normal;font-size:9.10599995px;font-family:Roboto;-inkscape-font-specification:Roboto-Regular;writing-mode:lr-tb;fill:#000000;fill-opacity:1;fill-rule:nonzero;stroke:none"
       transform="matrix(1,0,0,-1,157.0083,127.4795)"><tspan
         id="tspan106"
         y="0"
         x="0 5.126678 10.253356 12.689211 17.815889">10.63</tspan></text>
<g
       id="g108"><g
         clip-path="url(#clipPath112)"
         id="g110"><g
           transform="translate(39.9316,184.5215)"
           id="g116"><path
             id="path118"
             style="fill:none;stroke:#384d71;stroke-width:0.85600001;stroke-linecap:round;stroke-linejoin:round;stroke-miterlimit:10;stroke-dasharray:none;stroke-opacity:1"
             d="m 0,0 c 5.346,0 9.707,4.36 9.707,9.707 0,5.346 -4.361,9.706 -9.707,9.706 -5.346,0 -9.707,-4.36 -9.707,-9.706 C -9.707,4.36 -5.346,0 0,0 Z" /></g></g></g><text
       id="text120"
       style="font-variant:normal;font-weight:bold;font-stretch:normal;font-size:13.30720043px;font-family:Roboto;-inkscape-font-specification:Roboto-Bold;writing-mode:lr-tb;fill:#000000;fill-opacity:1;fill-rule:nonzero;stroke:none"
       transform="matrix(1,0,0,-1,36.3784,189.4287)"><tspan
         id="tspan122"
         y="0"
         x="0">5</tspan></text>
<text
       id="text124"
       style="font-variant:normal;font-weight:normal;font-stretch:normal;font-size:9.10599995px;font-family:Roboto;-inkscape-font-specification:Roboto-Regular;writing-mode:lr-tb;fill:#000000;fill-opacity:1;fill-rule:nonzero;stroke:none"
       transform="matrix(1,0,0,-1,31.2227,174.0107)"><tspan
         id="tspan126"
         y="0"
         x="0 5.126678 7.5670862 12.693764">3.07</tspan></text>
<g
       id="g128"><g
         clip-path="url(#clipPath132)"
         id="g130"><g
           transform="translate(118.4585,185.6074)"
           id="g136"><path
             id="path138"
             style="fill:none;stroke:#384d71;stroke-width:0.85600001;stroke-linecap:round;stroke-linejoin:round;stroke-miterlimit:10;stroke-dasharray:none;stroke-opacity:1"
             d="m 0,0 c 5.346,0 9.707,4.359 9.707,9.706 0,5.346 -4.361,9.707 -9.707,9.707 -5.346,0 -9.707,-4.361 -9.707,-9.707 C -9.707,4.359 -5.346,0 0,0 Z" /></g></g></g><text
       id="text140"
       style="font-variant:normal;font-weight:bold;font-stretch:normal;font-size:13.30720043px;font-family:Roboto;-inkscape-font-specification:Roboto-Bold;writing-mode:lr-tb;fill:#000000;fill-opacity:1;fill-rule:nonzero;stroke:none"
       transform="matrix(1,0,0,-1,114.9048,190.5146)"><tspan
         id="tspan142"
         y="0"
         x="0">1</tspan></text>
<text
       id="text144"
       style="font-variant:normal;font-weight:normal;font-stretch:normal;font-size:9.10599995px;font-family:Roboto;-inkscape-font-specification:Roboto-Regular;writing-mode:lr-tb;fill:#000000;fill-opacity:1;fill-rule:nonzero;stroke:none"
       transform="matrix(1,0,0,-1,107.1855,175.0967)"><tspan
         id="tspan146"
         y="0"
         x="0 5.126678 10.253356 12.689211 17.815889">19.90</tspan></text>
<g
       id="g148"><g
         clip-path="url(#clipPath152)"
         id="g150"><g
           transform="translate(60.646,271.8696)"
           id="g156"><path
             id="path158"
             style="fill:none;stroke:#384d71;stroke-width:0.85600001;stroke-linecap:round;stroke-linejoin:round;stroke-miterlimit:10;stroke-dasharray:none;stroke-opacity:1"
             d="m 0,0 c 5.346,0 9.707,4.36 9.707,9.707 0,5.346 -4.361,9.706 -9.707,9.706 -5.346,0 -9.707,-4.36 -9.707,-9.706 C -9.707,4.36 -5.346,0 0,0 Z" /></g></g></g><text
       id="text160"
       style="font-variant:normal;font-weight:bold;font-stretch:normal;font-size:13.30720043px;font-family:Roboto;-inkscape-font-specification:Roboto-Bold;writing-mode:lr-tb;fill:#000000;fill-opacity:1;fill-rule:nonzero;stroke:none"
       transform="matrix(1,0,0,-1,57.0928,276.7778)"><tspan
         id="tspan162"
         y="0"
         x="0">4</tspan></text>
<text
       id="text164"
       style="font-variant:normal;font-weight:normal;font-stretch:normal;font-size:9.10599995px;font-family:Roboto;-inkscape-font-specification:Roboto-Regular;writing-mode:lr-tb;fill:#000000;fill-opacity:1;fill-rule:nonzero;stroke:none"
       transform="matrix(1,0,0,-1,49.3735,261.3594)"><tspan
         id="tspan166"
         y="0"
         x="0 5.126678 10.253356 12.689211 17.815889">16.00</tspan></text>
<g
       id="g168"><g
         clip-path="url(#clipPath172)"
         id="g170"><g
           transform="translate(179.2285,294.9907)"
           id="g176"><path
             id="path178"
             style="fill:none;stroke:#384d71;stroke-width:0.85600001;stroke-linecap:round;stroke-linejoin:round;stroke-miterlimit:10;stroke-dasharray:none;stroke-opacity:1"
             d="m 0,0 c 5.346,0 9.706,4.36 9.706,9.706 0,5.346 -4.36,9.707 -9.706,9.707 -5.346,0 -9.706,-4.361 -9.706,-9.707 C -9.706,4.36 -5.346,0 0,0 Z" /></g></g></g><text
       id="text180"
       style="font-variant:normal;font-weight:bold;font-stretch:normal;font-size:13.30720043px;font-family:Roboto;-inkscape-font-specification:Roboto-Bold;writing-mode:lr-tb;fill:#000000;fill-opacity:1;fill-rule:nonzero;stroke:none"
       transform="matrix(1,0,0,-1,175.6758,299.8989)"><tspan
         id="tspan182"
         y="0"
         x="0">2</tspan></text>
<text
       id="text184"
       style="font-variant:normal;font-weight:normal;font-stretch:normal;font-size:9.10599995px;font-family:Roboto;-inkscape-font-specification:Roboto-Regular;writing-mode:lr-tb;fill:#000000;fill-opacity:1;fill-rule:nonzero;stroke:none"
       transform="matrix(1,0,0,-1,167.9565,284.481)"><tspan
         id="tspan186"
         y="0"
         x="0 5.126678 10.253356 12.689211 17.815889">32.42</tspan></text>
<g
       id="g188"><g
         clip-path="url(#clipPath192)"
         id="g190"><g
           transform="translate(90.2041,353.7563)"
           id="g196"><path
             id="path198"
             style="fill:none;stroke:#384d71;stroke-width:0.85600001;stroke-linecap:round;stroke-linejoin:round;stroke-miterlimit:10;stroke-dasharray:none;stroke-opacity:1"
             d="m 0,0 c 5.346,0 9.707,4.361 9.707,9.707 0,5.346 -4.361,9.706 -9.707,9.706 -5.346,0 -9.707,-4.36 -9.707,-9.706 C -9.707,4.361 -5.346,0 0,0 Z" /></g></g></g><text
       id="text200"
       style="font-variant:normal;font-weight:bold;font-stretch:normal;font-size:13.30720043px;font-family:Roboto;-inkscape-font-specification:Roboto-Bold;writing-mode:lr-tb;fill:#000000;fill-opacity:1;fill-rule:nonzero;stroke:none"
       transform="matrix(1,0,0,-1,86.6509,358.665)"><tspan
         id="tspan202"
         y="0"
         x="0">8</tspan></text>
<text
       id="text204"
       style="font-variant:normal;font-weight:normal;font-stretch:normal;font-size:9.10599995px;font-family:Roboto;-inkscape-font-specification:Roboto-Regular;writing-mode:lr-tb;fill:#000000;fill-opacity:1;fill-rule:nonzero;stroke:none"
       transform="matrix(1,0,0,-1,84.0581,343.2466)"><tspan
         id="tspan206"
         y="0"
         x="0 5.126678 7.5670862">4.6</tspan></text>
<g
       id="g208"><g
         clip-path="url(#clipPath212)"
         id="g210"><g
           transform="translate(59.7788,98.2959)"
           id="g216"><path
             id="path218"
             style="fill:#384c71;fill-opacity:1;fill-rule:evenodd;stroke:none"
             d="m 0,0 0,-6.983 -20.52,0 0,2.372 0,4.611 0,27.879 6.984,0 L -13.536,0 0,0 Z m 0,124.281 0,-2.868 -3.52,0 0,-16.334 -2.868,0 0,16.334 -45.979,0 0,-50.234 45.979,0 0,16.95 2.868,0 0,-16.95 0,-2.868 -2.868,0 -7.148,0 0,-4.116 0,-11.969 -6.984,0 0,11.969 -38.831,0 0,2.052 0,4.932 0,179.979 4.931,0 0,15.871 6.984,0 0,-29.381 23.422,0 0,-6.984 -28.353,0 0,-106.383 52.367,0 z m 0,0 20.519,0 0,-2.869 -20.519,0 0,2.869 z m 132.697,-47.477 0,-4.058 -2.421,2.422 -43.788,0 2.07,-2.07 -44.141,-44.14 51.435,-51.435 36.845,36.846 0,-4.056 -34.817,-34.818 34.817,-34.816 0,-9.877 L 39.479,24.02 8.476,-6.983 0,-6.983 0,0 l 5.583,0 28.958,28.958 4.938,4.938 44.14,44.14 47.845,0 1.233,-1.232 z m 0,50.156 -2.678,-2.679 -24.596,0 0,-2.868 23.73,0 3.544,-3.545 0,4.057 -0.489,0.489 0.489,0.489 0,4.057 z m 0,136.372 -57.63,0 -32.667,-32.668 0,-106.383 31.434,0 0,-2.868 -31.434,0 -2.869,0 0,2.868 0,106.383 -16.239,0 0,6.984 16.214,0 32.668,32.667 60.523,0 0,-6.983 z m 0,-145.464 0,4.057 16.359,-16.359 -2.028,-2.028 -14.331,14.33 z m 0,-45.122 0,4.058 10.21,-10.208 -2.014,-2.045 -8.196,8.195 z m 0,-62.433 0,4.056 29.189,29.19 -8.977,8.976 2.012,2.044 8.994,-8.992 0.039,0.038 2.028,-2.028 -33.285,-33.284 z m 46.109,-80.864 0,-9.877 -12.502,-12.501 -4.938,-4.938 -28.669,28.669 0,9.877 28.669,-28.669 17.44,17.439 z m 0,146.521 0,-4.057 -16.307,16.306 2.028,2.028 14.279,-14.277 z m 0,97.098 0,-4.056 -46.109,-46.109 0,4.057 46.109,46.108 z m -18.834,90.264 -27.275,0 0,6.983 27.275,0 0,-6.983 z m 18.834,-343.76 0,9.877 11.368,11.368 4.938,-4.938 -16.306,-16.307 z m 71.07,80.949 0,-9.878 -23.869,-23.868 -4.938,4.938 28.807,28.808 z m 0,10.201 -20.857,20.856 10.391,10.39 -4.94,4.937 -10.388,-10.389 -2.173,-2.172 0.001,0 -0.739,-0.74 -42.365,42.366 0,-4.057 5.718,-5.718 -5.161,-5.161 2.028,-2.028 5.161,5.162 35.371,-35.373 0,10e-4 27.953,-27.951 0,9.877 z m 0,51.588 0,-5.068 -2.535,2.534 2.535,2.534 z m 0,99.267 0,-5.068 -2.404,-2.404 -41.787,41.786 -26.879,-26.879 0,4.056 24.851,24.851 -1.156,1.156 0,9.876 0,13.392 6.984,0 0,-20.376 40.391,-40.39 z m 0,-5.068 0,5.068 2.534,-2.534 -2.534,-2.534 z m 3.752,-149.54 0,-12.573 -3.752,-3.753 0,9.878 0.163,0.162 -0.163,0.162 0,9.877 3.752,-3.753 z m 0,59.094 0,-9.876 -1.347,-1.349 -2.405,2.404 0,5.068 3.752,3.753 z m 0,-9.876 0,9.876 40.943,40.942 -11.018,11.017 4.938,4.939 11.018,-11.018 1.726,-1.726 0,-0.001 3.212,-3.211 -50.819,-50.818 z m 0,-61.791 0,12.573 1.348,-1.348 4.939,-4.938 -4.939,-4.94 0,10e-4 -1.348,-1.348 z" /></g><g
           transform="translate(354.3496,205.3008)"
           id="g220"><path
             id="path222"
             style="fill:none;stroke:#384c71;stroke-width:0.85699999;stroke-linecap:round;stroke-linejoin:round;stroke-miterlimit:22.9260006;stroke-dasharray:none;stroke-opacity:1"
             d="M 0,0 -11.018,11.018 -6.08,15.956 4.938,4.938 6.664,3.212 6.664,3.211 9.876,0 -42.29,-52.167 -47.229,-47.229 0,0 Z m -298.09,-1.926 -2.869,0 0,16.334 -45.978,0 0,-50.234 45.978,0 0,16.95 2.869,0 0,-16.95 0,-2.868 -2.869,0 -7.147,0 0,-4.116 0,-11.969 -6.984,0 0,11.969 -38.831,0 0,2.052 0,4.932 0,179.979 4.93,0 0,15.871 6.985,0 0,-29.381 23.422,0 0,-6.984 -28.353,0 0,-106.383 72.885,0 0,-2.868 -24.038,0 0,-16.334 z m 150.547,-1.541 2.028,2.029 c -5.616,5.616 -11.232,11.231 -16.847,16.847 l 73.476,73.477 41.787,-41.786 4.938,4.938 -42.925,42.924 0,20.376 -6.983,0 0,-13.392 0,-9.876 1.155,-1.155 -73.638,-73.639 -24.596,0 0,-2.868 23.73,0 17.875,-17.875 z m 39.524,-39.37 -5.161,-5.162 -2.028,2.028 5.161,5.161 -22.025,22.024 2.028,2.028 56.645,-56.642 0.738,0.739 -0.001,0 2.173,2.172 10.388,10.389 4.94,-4.937 -10.391,-10.39 25.957,-25.957 4.939,-4.938 -4.939,-4.94 0,0.001 -28.968,-28.968 -4.939,4.937 28.97,28.97 -28.115,28.113 0,-10e-4 -35.372,35.373 z m -56.276,11 10.617,-10.617 2.014,2.045 -11.442,11.44 -47.846,0 -44.14,-44.14 -4.938,-4.938 -28.958,-28.958 -19.118,0 0,27.879 -6.984,0 0,-27.879 0,-4.611 0,-2.372 28.995,0 31.003,31.003 121.887,-121.887 4.938,4.938 28.808,28.808 -4.937,4.939 -28.809,-28.808 -63.485,63.485 68.101,68.102 -2.028,2.028 -0.039,-0.038 -8.993,8.992 -2.013,-2.044 8.977,-8.976 -66.034,-66.035 -51.434,51.434 44.14,44.14 -2.07,2.07 43.788,0 z m 29.696,188.164 -84.905,0 -32.667,-32.668 0,-106.383 31.435,0 0,-2.868 -31.435,0 -2.869,0 0,2.868 0,106.383 -16.239,0 0,6.984 16.215,0 32.667,32.667 87.798,0 0,-6.983 z" /></g><g
           transform="translate(317.3115,101.3613)"
           id="g224"><path
             id="path226"
             style="fill:#ffffff;fill-opacity:1;fill-rule:nonzero;stroke:none"
             d="M 0,0 C 12.273,12.274 22.74,25.875 31.039,38.543 42.265,55.682 49.536,71.166 51.943,79.37 l 0.242,0.819 -0.599,0.599 L 37.675,94.699 35.646,92.671 48.952,79.365 C 46.379,71.186 39.347,56.457 28.641,40.111 20.443,27.595 10.1,14.158 -2.028,2.028 L 0,0 Z" /></g><g
           transform="translate(317.3115,101.3613)"
           id="g228"><path
             id="path230"
             style="fill:none;stroke:#384c71;stroke-width:0.85699999;stroke-linecap:round;stroke-linejoin:round;stroke-miterlimit:22.9260006;stroke-dasharray:none;stroke-opacity:1"
             d="M 0,0 C 12.273,12.274 22.74,25.875 31.039,38.543 42.265,55.682 49.536,71.166 51.943,79.37 l 0.242,0.819 -0.599,0.599 L 37.675,94.699 35.646,92.671 48.952,79.365 C 46.379,71.186 39.347,56.457 28.641,40.111 20.443,27.595 10.1,14.158 -2.028,2.028 L 0,0 Z" /></g><g
           transform="translate(282.3027,68.5537)"
           id="g232"><path
             id="path234"
             style="fill:#ffffff;fill-opacity:1;fill-rule:nonzero;stroke:none"
             d="m 0,0 -30.896,-30.896 2.029,-2.028 L 2.028,-2.028 0,0 Z" /></g><g
           transform="translate(282.3027,68.5537)"
           id="g236"><path
             id="path238"
             style="fill:none;stroke:#384c71;stroke-width:0.85699999;stroke-linecap:round;stroke-linejoin:round;stroke-miterlimit:22.9260006;stroke-dasharray:none;stroke-opacity:1"
             d="m 0,0 -30.896,-30.896 2.029,-2.028 L 2.028,-2.028 0,0 Z" /></g><g
           transform="translate(346.8154,219.8018)"
           id="g240"><path
             id="path242"
             style="fill:#ffffff;fill-opacity:1;fill-rule:nonzero;stroke:none"
             d="M 0,0 -36.082,36.083 -38.11,34.054 -2.028,-2.028 0,0 Z" /></g><g
           transform="translate(346.8154,219.8018)"
           id="g244"><path
             id="path246"
             style="fill:none;stroke:#384c71;stroke-width:0.85699999;stroke-linecap:round;stroke-linejoin:round;stroke-miterlimit:22.9260006;stroke-dasharray:none;stroke-opacity:1"
             d="M 0,0 -36.082,36.083 -38.11,34.054 -2.028,-2.028 0,0 Z" /></g><g
           transform="translate(267.2061,320.6387)"
           id="g248"><path
             id="path250"
             style="fill:#ffffff;fill-opacity:1;fill-rule:nonzero;stroke:none"
             d="m 0,0 0,44.48 0,1.435 -1.435,0 -46.02,0 0,-2.869 44.586,0 L -2.869,0 0,0 Z" /></g><g
           transform="translate(267.2061,320.6387)"
           id="g252"><path
             id="path254"
             style="fill:none;stroke:#384c71;stroke-width:0.85699999;stroke-linecap:round;stroke-linejoin:round;stroke-miterlimit:22.9260006;stroke-dasharray:none;stroke-opacity:1"
             d="m 0,0 0,44.48 0,1.435 -1.435,0 -46.02,0 0,-2.869 44.586,0 L -2.869,0 0,0 Z" /></g><path
           id="path256"
           style="fill:#ffffff;fill-opacity:1;fill-rule:nonzero;stroke:#384c71;stroke-width:0.85699999;stroke-linecap:round;stroke-linejoin:round;stroke-miterlimit:22.9260006;stroke-dasharray:none;stroke-opacity:1"
           d="m 35.765,331.018 29.123,0 0,2.868 -29.123,0 0,-2.868 z" /><g
           transform="translate(12.3433,362.457)"
           id="g258"><path
             id="path260"
             style="fill:#ffffff;fill-opacity:1;fill-rule:nonzero;stroke:none"
             d="m 0,0 30.072,0 0.388,0 0.346,0.208 C 42.9,7.443 58.68,16.169 79.697,23.083 c 20.896,6.873 46.988,11.959 79.816,12.019 l 28.883,-28.948 4.039,0 -31.32,31.391 -0.425,0.427 -0.589,0 c -33.44,0 -60.014,-5.168 -81.289,-12.167 C 57.733,18.872 41.872,10.146 29.686,2.868 L 0,2.868 0,0 Z" /></g><g
           transform="translate(12.3433,362.457)"
           id="g262"><path
             id="path264"
             style="fill:none;stroke:#384c71;stroke-width:0.85699999;stroke-linecap:round;stroke-linejoin:round;stroke-miterlimit:22.9260006;stroke-dasharray:none;stroke-opacity:1"
             d="m 0,0 30.072,0 0.388,0 0.346,0.208 C 42.9,7.443 58.68,16.169 79.697,23.083 c 20.896,6.873 46.988,11.959 79.816,12.019 l 28.883,-28.948 4.039,0 -31.32,31.391 -0.425,0.427 -0.589,0 c -33.44,0 -60.014,-5.168 -81.289,-12.167 C 57.733,18.872 41.872,10.146 29.686,2.868 L 0,2.868 0,0 Z" /></g><g
           transform="translate(83.0708,328.96)"
           id="g266"><path
             id="path268"
             style="fill:none;stroke:#384c71;stroke-width:1.71300006;stroke-linecap:round;stroke-linejoin:round;stroke-miterlimit:22.9260006;stroke-dasharray:none;stroke-opacity:1"
             d="M 0,0 -15.717,-9.246" /></g><g
           transform="translate(99.3101,222.5771)"
           id="g270"><path
             id="path272"
             style="fill:none;stroke:#384c71;stroke-width:1.71300006;stroke-linecap:round;stroke-linejoin:round;stroke-miterlimit:22.9260006;stroke-dasharray:none;stroke-opacity:1"
             d="M 0,0 -16.393,9.475" /></g><g
           transform="translate(56.2593,186.4248)"
           id="g274"><path
             id="path276"
             style="fill:none;stroke:#384c71;stroke-width:1.71300006;stroke-linecap:round;stroke-linejoin:round;stroke-miterlimit:22.9260006;stroke-dasharray:none;stroke-opacity:1"
             d="M 0,0 8.475,14.639" /></g><g
           transform="translate(39.2593,150.5215)"
           id="g278"><path
             id="path280"
             style="fill:none;stroke:#384c71;stroke-width:1.71300006;stroke-linecap:round;stroke-linejoin:round;stroke-miterlimit:22.9260006;stroke-dasharray:none;stroke-opacity:1"
             d="M 0,0 -11.865,-21.11" /></g><g
           transform="translate(212.6875,150.8311)"
           id="g282"><path
             id="path284"
             style="fill:none;stroke:#384c71;stroke-width:1.71300006;stroke-linecap:round;stroke-linejoin:round;stroke-miterlimit:22.9260006;stroke-dasharray:none;stroke-opacity:1"
             d="M 0,0 -16.513,4.313" /></g><g
           transform="translate(241.1699,157.3018)"
           id="g286"><path
             id="path288"
             style="fill:none;stroke:#384c71;stroke-width:1.71300006;stroke-linecap:round;stroke-linejoin:round;stroke-miterlimit:22.9260006;stroke-dasharray:none;stroke-opacity:1"
             d="M 0,0 -5.702,-21.11" /></g><g
           transform="translate(294.249,145.2012)"
           id="g290"><path
             id="path292"
             style="fill:none;stroke:#384c71;stroke-width:1.71300006;stroke-linecap:round;stroke-linejoin:round;stroke-miterlimit:22.9260006;stroke-dasharray:none;stroke-opacity:1"
             d="M 0,0 4.777,17.566" /></g><g
           transform="translate(208.835,203.8623)"
           id="g294"><path
             id="path296"
             style="fill:none;stroke:#384c71;stroke-width:1.71300006;stroke-linecap:round;stroke-linejoin:round;stroke-miterlimit:22.9260006;stroke-dasharray:none;stroke-opacity:1"
             d="M 0,0 20.777,-5.881" /></g><g
           transform="translate(165.2017,222.5771)"
           id="g298"><path
             id="path300"
             style="fill:none;stroke:#384c71;stroke-width:1.71300006;stroke-linecap:round;stroke-linejoin:round;stroke-miterlimit:22.9260006;stroke-dasharray:none;stroke-opacity:1"
             d="M 0,0 -17.875,10.324" /></g><g
           transform="translate(133.6133,222.5771)"
           id="g302"><path
             id="path304"
             style="fill:none;stroke:#384c71;stroke-width:1.71300006;stroke-linecap:round;stroke-linejoin:round;stroke-miterlimit:22.9260006;stroke-dasharray:none;stroke-opacity:1"
             d="M 0,0 8.583,6.23" /></g><g
           transform="translate(128.1768,106.9609)"
           id="g306"><path
             id="path308"
             style="fill:none;stroke:#384d71;stroke-width:0.85600001;stroke-linecap:round;stroke-linejoin:round;stroke-miterlimit:10;stroke-dasharray:none;stroke-opacity:1"
             d="M 0,0 0.705,-0.704 M 0.705,0 0,-0.704 m 2.498,2.499 c -0.143,0.143 -0.375,0.143 -0.519,0 -0.143,-0.144 -0.143,-0.375 0,-0.519 0.144,-0.144 0.376,-0.144 0.519,0 0.144,0.144 0.144,0.375 0,0.519 z m 1.353,-3.761 -5.112,5.113 1.069,1.069 C 1.199,5.607 2.987,4.592 4.142,3.438 5.296,2.282 6.312,0.495 4.92,-0.896 L 3.851,-1.966 Z M 5,4.296 C 7.673,1.621 6.884,-0.648 5.778,-1.755 L 2.893,-4.64 -3.935,2.188 -1.05,5.074 C 0.055,6.179 2.326,6.969 5,4.296 Z" /></g></g></g></g></svg>