<?xml version="1.0" encoding="utf-8"?><svg id="Anim_krug2" image-rendering="optimizeQuality" baseProfile="basic" version="1.1" x="0px" y="0px" width="967" height="546" xmlns="http://www.w3.org/2000/svg" xmlns:xlink="http://www.w3.org/1999/xlink"><g id=".__D0.__9C.__D0.__BE.__D0.__BD.__D1.__82.__D0.__B0.__D0.__B6.__D0.__BD.__D1.__8B.__D0.__B9-.__D0.__BA.__D0.__B0.__D0.__B4.__D1.__80-1r1" overflow="visible"><g id=".__D0.__90.__D0.__BD.__D0.__B8.__D0.__BC.__D0.__B0.__D1.__86.__D0.__B8.__D1.__8F-27" transform="matrix(.505 0 0 .505 485.15 272.6)"><animateTransform attributeName="transform" additive="replace" type="translate" dur="1.198s" repeatCount="indefinite" keyTimes="0;.183;.47;1" values="485.251,272.676;485.248,272.698;485.251,272.676;485.251,272.676" keySplines=".429 0 .689 1;.232 .821 .465 1;0 0 1 1" calcMode="spline" fill="freeze"/><animateTransform attributeName="transform" additive="sum" type="scale" dur="1.198s" repeatCount="indefinite" keyTimes="0;.183;.47;1" values=".505,.505;.65,.65;.505,.505;.505,.505" keySplines=".429 0 .689 1;.232 .821 .465 1;0 0 1 1" calcMode="spline" fill="freeze"/><animateTransform attributeName="transform" additive="sum" type="translate" dur="1.198s" repeatCount="indefinite" keyTimes="0;.183;.47;1" values="-.2,-.15;-.15,-.15;-.2,-.15;-.2,-.15" keySplines=".429 0 .689 1;.232 .821 .465 1;0 0 1 1" calcMode="spline" fill="freeze"/><path fill="#151515" stroke="none" d="M51.2 -121.3Q26.75 -131.65 .05 -131.65 -26.7 -131.65 -51.15 -121.3 -74.75 -111.3 -93 -93.05 -111.25 -74.8 -121.25 -51.2 -131.6 -26.75 -131.6 0 -131.6 26.75 -121.25 51.2 -111.25 74.8 -93 93.05 -74.75 111.3 -51.15 121.3 -26.7 131.65 .05 131.65 26.8 131.65 51.2 121.3 74.85 111.3 93.05 93.05 111.3 74.8 121.3 51.2 131.65 26.75 131.65 0 131.65 -26.75 121.3 -51.2 111.3 -74.8 93.05 -93.05 74.85 -111.3 51.2 -121.3M.05 -129.65Q26.35 -129.65 50.45 -119.45 73.7 -109.6 91.65 -91.65 109.6 -73.7 119.45 -50.4 129.65 -26.35 129.65 0 129.65 26.35 119.45 50.4 109.6 73.7 91.65 91.65 73.7 109.6 50.45 119.45 26.35 129.65 .05 129.65 -26.3 129.65 -50.35 119.45 -73.65 109.6 -91.6 91.65 -109.55 73.7 -119.4 50.4 -129.6 26.35 -129.6 0 -129.6 -26.35 -119.4 -50.4 -109.55 -73.7 -91.6 -91.65 -73.65 -109.6 -50.35 -119.45 -26.3 -129.65 .05 -129.65Z" test="Анимация 53"/></g><g id=".__D0.__90.__D0.__BD.__D0.__B8.__D0.__BC.__D0.__B0.__D1.__86.__D0.__B8.__D1.__8F-26" transform="matrix(.505 0 0 .505 485.15 272.6)"><animateTransform attributeName="transform" additive="replace" type="translate" dur="1.198s" repeatCount="indefinite" keyTimes="0;.009;.191;.478;1" values="485.251,272.676;485.251,272.676;485.243,272.724;485.251,272.676;485.251,272.676" keySplines=".436 0 .282 1;.429 0 .689 1;.232 .821 .465 1;0 0 1 1" calcMode="spline" fill="freeze"/><animateTransform attributeName="transform" additive="sum" type="scale" dur="1.198s" repeatCount="indefinite" keyTimes="0;.009;.191;.478;1" values=".505,.505;.505,.505;.618,.618;.505,.505;.505,.505" keySplines=".436 0 .282 1;.429 0 .689 1;.232 .821 .465 1;0 0 1 1" calcMode="spline" fill="freeze"/><animateTransform attributeName="transform" additive="sum" type="translate" dur="1.198s" repeatCount="indefinite" keyTimes="0;.009;.191;.478;1" values="-.2,-.15;-.2,-.15;-.15,-.2;-.2,-.15;-.2,-.15" keySplines=".436 0 .282 1;.429 0 .689 1;.232 .821 .465 1;0 0 1 1" calcMode="spline" fill="freeze"/><path fill="#151515" stroke="none" d="M65.85 -156Q34.4 -169.35 0 -169.35 -34.4 -169.35 -65.85 -156 -96.25 -143.15 -119.7 -119.7 -143.15 -96.25 -156 -65.85 -169.35 -34.4 -169.35 0 -169.35 34.4 -156 65.85 -143.15 96.25 -119.7 119.7 -96.25 143.15 -65.85 156 -34.4 169.35 0 169.35 34.4 169.35 65.85 156 96.25 143.15 119.7 119.7 143.15 96.25 156 65.85 169.35 34.4 169.35 0 169.35 -34.4 156 -65.85 143.15 -96.25 119.7 -119.7 96.25 -143.15 65.85 -156M0 -167.35Q34 -167.35 65.05 -154.15 95.1 -141.45 118.25 -118.25 141.45 -95.1 154.15 -65.05 167.35 -33.95 167.35 0 167.35 34 154.15 65.1 141.45 95.1 118.25 118.3 95.1 141.45 65.05 154.2 34 167.35 0 167.35 -34 167.35 -65.1 154.2 -95.1 141.45 -118.3 118.3 -141.45 95.1 -154.2 65.1 -167.35 34 -167.35 0 -167.35 -33.95 -154.2 -65.05 -141.45 -95.1 -118.3 -118.25 -95.1 -141.45 -65.1 -154.15 -34 -167.35 0 -167.35Z" test="Анимация 51"/></g><g id=".__D0.__90.__D0.__BD.__D0.__B8.__D0.__BC.__D0.__B0.__D1.__86.__D0.__B8.__D1.__8F-25" transform="matrix(.505 0 0 .505 485.15 272.6)"><animateTransform attributeName="transform" additive="replace" type="translate" dur="1.198s" repeatCount="indefinite" keyTimes="0;.017;.2;.487;1" values="485.251,272.676;485.251,272.676;485.27,272.69;485.251,272.676;485.251,272.676" keySplines=".436 0 .282 1;.429 0 .689 1;.232 .821 .465 1;0 0 1 1" calcMode="spline" fill="freeze"/><animateTransform attributeName="transform" additive="sum" type="scale" dur="1.198s" repeatCount="indefinite" keyTimes="0;.017;.2;.487;1" values=".505,.505;.505,.505;.598,.598;.505,.505;.505,.505" keySplines=".436 0 .282 1;.429 0 .689 1;.232 .821 .465 1;0 0 1 1" calcMode="spline" fill="freeze"/><animateTransform attributeName="transform" additive="sum" type="translate" dur="1.198s" repeatCount="indefinite" keyTimes="0;1" values="-.2,-.15;-.2,-.15" keySplines=".436 0 .282 1" calcMode="spline" fill="freeze"/><path fill="#151515" stroke="none" d="M146.4 -146.35Q117.7 -175 80.55 -190.75 42.1 -207.05 .05 -207.05 -42 -207.05 -80.5 -190.75 -117.65 -175 -146.3 -146.35 -175 -117.65 -190.75 -80.5 -207.05 -42.05 -207.05 0 -207.05 42.05 -190.75 80.55 -175 117.7 -146.3 146.35 -117.65 175.05 -80.5 190.75 -42 207.05 .05 207.05 42.1 207.05 80.55 190.75 117.7 175 146.4 146.35 175.05 117.7 190.8 80.55 207.1 42.05 207.1 0 207.1 -42.05 190.8 -80.5 175.05 -117.65 146.4 -146.35M79.8 -188.9Q116.55 -173.3 144.95 -144.9 173.35 -116.5 188.95 -79.75 205.1 -41.65 205.1 0 205.1 41.65 188.95 79.75 173.35 116.55 144.95 144.95 116.55 173.35 79.8 188.9 41.7 205.05 .05 205.05 -41.6 205.05 -79.7 188.9 -116.5 173.35 -144.9 144.95 -173.3 116.55 -188.9 79.75 -205.05 41.65 -205.05 0 -205.05 -41.65 -188.9 -79.75 -173.3 -116.5 -144.9 -144.9 -116.5 -173.3 -79.7 -188.9 -41.6 -205.05 .05 -205.05 41.7 -205.05 79.8 -188.9Z" test="Анимация 49"/></g><g id=".__D0.__90.__D0.__BD.__D0.__B8.__D0.__BC.__D0.__B0.__D1.__86.__D0.__B8.__D1.__8F-24" transform="matrix(.505 0 0 .505 485.15 272.6)"><animateTransform attributeName="transform" additive="replace" type="translate" dur="1.198s" repeatCount="indefinite" keyTimes="0;.026;.209;.496;1" values="485.251,272.676;485.251,272.676;485.354,272.717;485.251,272.676;485.251,272.676" keySplines=".436 0 .282 1;.429 0 .689 1;.232 .821 .465 1;0 0 1 1" calcMode="spline" fill="freeze"/><animateTransform attributeName="transform" additive="sum" type="scale" dur="1.198s" repeatCount="indefinite" keyTimes="0;.026;.209;.496;1" values=".505,.505;.505,.505;.583,.583;.505,.505;.505,.505" keySplines=".436 0 .282 1;.429 0 .689 1;.232 .821 .465 1;0 0 1 1" calcMode="spline" fill="freeze"/><animateTransform attributeName="transform" additive="sum" type="translate" dur="1.198s" repeatCount="indefinite" keyTimes="0;.026;.209;.496;1" values="-.2,-.15;-.2,-.15;-.35,-.2;-.2,-.15;-.2,-.15" keySplines=".436 0 .282 1;.429 0 .689 1;.232 .821 .465 1;0 0 1 1" calcMode="spline" fill="freeze"/><path fill="#151515" stroke="none" d="M93.75 -226.25Q49.05 -244.8 .05 -244.8 -49 -244.8 -93.7 -226.25 -138.35 -207.75 -173.05 -173.1 -207.75 -138.4 -226.25 -93.75 -244.75 -49.05 -244.75 0 -244.75 49.05 -226.25 93.75 -207.75 138.4 -173.05 173.1 -138.35 207.75 -93.7 226.3 -49 244.8 .05 244.8 49.05 244.8 93.75 226.3 138.45 207.75 173.1 173.1 207.8 138.4 226.3 93.75 244.8 49.05 244.8 0 244.8 -49.05 226.3 -93.75 207.8 -138.4 173.1 -173.1 138.45 -207.75 93.75 -226.25M.05 -242.8Q48.7 -242.8 93 -224.4 137.3 -206.05 171.7 -171.65 206.1 -137.25 224.45 -92.95 242.8 -48.65 242.8 0 242.8 48.65 224.45 92.95 206.1 137.25 171.7 171.65 137.3 206.05 93 224.45 48.7 242.8 .05 242.8 -48.6 242.8 -92.9 224.45 -137.25 206.05 -171.65 171.65 -206.05 137.25 -224.4 92.95 -242.75 48.65 -242.75 0 -242.75 -48.65 -224.4 -92.95 -206.05 -137.25 -171.65 -171.65 -137.25 -206.05 -92.9 -224.4 -48.55 -242.8 .05 -242.8Z" test="Анимация 47"/></g><g id=".__D0.__90.__D0.__BD.__D0.__B8.__D0.__BC.__D0.__B0.__D1.__86.__D0.__B8.__D1.__8F-23" transform="matrix(.505 0 0 .505 485.15 272.6)"><animateTransform attributeName="transform" additive="replace" type="translate" dur="1.198s" repeatCount="indefinite" keyTimes="0;.035;.217;.504;1" values="485.251,272.676;485.251,272.676;485.265,272.715;485.251,272.676;485.251,272.676" keySplines=".436 0 .282 1;.429 0 .689 1;.232 .821 .465 1;0 0 1 1" calcMode="spline" fill="freeze"/><animateTransform attributeName="transform" additive="sum" type="scale" dur="1.198s" repeatCount="indefinite" keyTimes="0;.035;.217;.504;1" values=".505,.505;.505,.505;.573,.573;.505,.505;.505,.505" keySplines=".436 0 .282 1;.429 0 .689 1;.232 .821 .465 1;0 0 1 1" calcMode="spline" fill="freeze"/><animateTransform attributeName="transform" additive="sum" type="translate" dur="1.198s" repeatCount="indefinite" keyTimes="0;.035;.217;.504;1" values="-.2,-.15;-.2,-.15;-.2,-.2;-.2,-.15;-.2,-.15" keySplines=".436 0 .282 1;.429 0 .689 1;.232 .821 .465 1;0 0 1 1" calcMode="spline" fill="freeze"/><path fill="#151515" stroke="none" d="M108.15 -261.15Q56.6 -282.5 0 -282.5 -56.6 -282.5 -108.15 -261.15 -159.75 -239.75 -199.75 -199.75 -239.75 -159.75 -261.15 -108.15 -282.5 -56.6 -282.5 0 -282.5 56.6 -261.15 108.15 -239.75 159.75 -199.75 199.75 -159.75 239.75 -108.15 261.15 -56.6 282.5 0 282.5 56.6 282.5 108.15 261.15 159.75 239.75 199.75 199.75 239.75 159.75 261.15 108.15 282.5 56.6 282.5 0 282.5 -56.6 261.15 -108.15 239.75 -159.75 199.75 -199.75 159.75 -239.75 108.15 -261.15M0 -280.5Q56.15 -280.5 107.4 -259.3 158.6 -238.05 198.35 -198.35 238.05 -158.6 259.3 -107.4 280.5 -56.15 280.5 0 280.5 56.2 259.3 107.4 238.1 158.6 198.35 198.35 158.6 238.05 107.4 259.3 56.15 280.5 0 280.5 -56.2 280.5 -107.4 259.3 -158.6 238.1 -198.35 198.35 -238.1 158.6 -259.3 107.4 -280.5 56.2 -280.5 0 -280.5 -56.2 -259.3 -107.4 -238.1 -158.6 -198.35 -198.35 -158.6 -238.1 -107.4 -259.3 -56.2 -280.5 0 -280.5Z" test="Анимация 45"/></g><g id=".__D0.__90.__D0.__BD.__D0.__B8.__D0.__BC.__D0.__B0.__D1.__86.__D0.__B8.__D1.__8F-22" transform="matrix(.505 0 0 .505 485.15 272.6)"><animateTransform attributeName="transform" additive="replace" type="translate" dur="1.198s" repeatCount="indefinite" keyTimes="0;.043;.226;.513;1" values="485.251,272.676;485.251,272.676;485.263,272.713;485.251,272.676;485.251,272.676" keySplines=".436 0 .282 1;.429 0 .689 1;.232 .821 .465 1;0 0 1 1" calcMode="spline" fill="freeze"/><animateTransform attributeName="transform" additive="sum" type="scale" dur="1.198s" repeatCount="indefinite" keyTimes="0;.043;.226;.513;1" values=".505,.505;.505,.505;.565,.565;.505,.505;.505,.505" keySplines=".436 0 .282 1;.429 0 .689 1;.232 .821 .465 1;0 0 1 1" calcMode="spline" fill="freeze"/><animateTransform attributeName="transform" additive="sum" type="translate" dur="1.198s" repeatCount="indefinite" keyTimes="0;.043;.226;.513;1" values="-.2,-.15;-.2,-.15;-.2,-.2;-.2,-.15;-.2,-.15" keySplines=".436 0 .282 1;.429 0 .689 1;.232 .821 .465 1;0 0 1 1" calcMode="spline" fill="freeze"/><path fill="#151515" stroke="none" d="M122.6 -296Q64.15 -320.2 0 -320.2 -64.15 -320.2 -122.6 -296 -181.05 -271.75 -226.45 -226.4 -271.8 -181.05 -296 -122.6 -320.2 -64.15 -320.2 0 -320.2 64.15 -296 122.6 -271.8 181.05 -226.45 226.4 -181.05 271.8 -122.6 296 -64.15 320.2 0 320.2 64.15 320.2 122.6 296 181.1 271.75 226.4 226.4 271.75 181.05 296 122.6 320.2 64.15 320.2 0 320.2 -64.15 296 -122.6 271.75 -181.05 226.4 -226.4 181.1 -271.75 122.6 -296M0 -318.2Q63.75 -318.2 121.85 -294.15 179.95 -270.05 225 -225 270.1 -179.9 294.15 -121.85 318.2 -63.75 318.2 0 318.2 63.75 294.15 121.85 270.1 179.9 225 225 179.95 270.05 121.85 294.15 63.75 318.2 0 318.2 -63.75 318.2 -121.85 294.15 -179.9 270.1 -225 225 -270.05 179.95 -294.15 121.85 -318.2 63.75 -318.2 0 -318.2 -63.75 -294.15 -121.85 -270.05 -179.95 -225 -225 -179.9 -270.1 -121.85 -294.15 -63.75 -318.2 0 -318.2Z" test="Анимация 43"/></g><g id=".__D0.__90.__D0.__BD.__D0.__B8.__D0.__BC.__D0.__B0.__D1.__86.__D0.__B8.__D1.__8F-21" transform="matrix(.505 0 0 .505 485.15 272.6)"><animateTransform attributeName="transform" additive="replace" type="translate" dur="1.198s" repeatCount="indefinite" keyTimes="0;.052;.235;.522;1" values="485.251,272.676;485.251,272.676;485.346,272.712;485.251,272.676;485.251,272.676" keySplines=".436 0 .282 1;.429 0 .689 1;.232 .821 .465 1;0 0 1 1" calcMode="spline" fill="freeze"/><animateTransform attributeName="transform" additive="sum" type="scale" dur="1.198s" repeatCount="indefinite" keyTimes="0;.052;.235;.522;1" values=".505,.505;.505,.505;.559,.559;.505,.505;.505,.505" keySplines=".436 0 .282 1;.429 0 .689 1;.232 .821 .465 1;0 0 1 1" calcMode="spline" fill="freeze"/><animateTransform attributeName="transform" additive="sum" type="translate" dur="1.198s" repeatCount="indefinite" keyTimes="0;.052;.235;.522;1" values="-.2,-.15;-.2,-.15;-.35,-.2;-.2,-.15;-.2,-.15" keySplines=".436 0 .282 1;.429 0 .689 1;.232 .821 .465 1;0 0 1 1" calcMode="spline" fill="freeze"/><path fill="#141414" stroke="none" d="M139.35 -329.8Q72.9 -357.9 .05 -357.9 -72.75 -357.9 -139.3 -329.8 -203.6 -302.55 -253.05 -253.1 -302.7 -203.35 -329.75 -139.3 -357.9 -72.75 -357.9 0 -357.9 72.75 -329.75 139.3 -302.7 203.35 -253.05 253.1 -203.6 302.55 -139.3 329.8 -72.65 357.95 .05 357.95 72.8 357.95 139.35 329.8 203.55 302.65 253.15 253.1 302.7 203.5 329.85 139.3 357.95 72.85 357.95 0 357.95 -72.85 329.85 -139.3 302.7 -203.5 253.15 -253.1 203.55 -302.65 139.35 -329.8M.05 -355.9Q71.35 -355.9 136.3 -329 201.3 -302.05 251.7 -251.65 302.15 -201.25 329.05 -136.25 355.95 -71.3 355.95 0 355.95 71.3 329.05 136.3 302.15 201.25 251.7 251.7 201.3 302.1 136.3 329.05 71.35 355.95 .05 355.95 -71.25 355.95 -136.25 329.05 -201.2 302.1 -251.65 251.7 -302.05 201.25 -328.95 136.3 -355.9 71.3 -355.9 0 -355.9 -71.3 -328.95 -136.25 -302.05 -201.25 -251.65 -251.65 -201.2 -302.1 -136.25 -329 -71.25 -355.9 .05 -355.9Z" test="Анимация 41"/></g><g id=".__D0.__90.__D0.__BD.__D0.__B8.__D0.__BC.__D0.__B0.__D1.__86.__D0.__B8.__D1.__8F-20" transform="matrix(.505 0 0 .505 485.15 272.6)"><animateTransform attributeName="transform" additive="replace" type="translate" dur="1.198s" repeatCount="indefinite" keyTimes="0;.061;.243;.53;1" values="485.251,272.676;485.251,272.676;485.344,272.683;485.251,272.676;485.251,272.676" keySplines=".436 0 .282 1;.429 0 .689 1;.232 .821 .465 1;0 0 1 1" calcMode="spline" fill="freeze"/><animateTransform attributeName="transform" additive="sum" type="scale" dur="1.198s" repeatCount="indefinite" keyTimes="0;.061;.243;.53;1" values=".505,.505;.505,.505;.554,.554;.505,.505;.505,.505" keySplines=".436 0 .282 1;.429 0 .689 1;.232 .821 .465 1;0 0 1 1" calcMode="spline" fill="freeze"/><animateTransform attributeName="transform" additive="sum" type="translate" dur="1.198s" repeatCount="indefinite" keyTimes="0;.061;.243;.53;1" values="-.2,-.15;-.2,-.15;-.35,-.15;-.2,-.15;-.2,-.15" keySplines=".436 0 .282 1;.429 0 .689 1;.232 .821 .465 1;0 0 1 1" calcMode="spline" fill="freeze"/><path fill="#141414" stroke="none" d="M154.05 -364.55Q80.4 -395.65 .05 -395.65 -80.35 -395.65 -153.95 -364.55 -225.1 -334.4 -279.7 -279.75 -334.55 -224.9 -364.5 -154 -395.6 -80.5 -395.6 0 -395.6 80.6 -364.5 154 -334.5 225.05 -279.7 279.75 -225.1 334.4 -153.95 364.55 -80.55 395.65 .05 395.65 80.55 395.65 154.05 364.55 225.1 334.45 279.8 279.75 334.45 225.15 364.6 154 395.65 80.5 395.65 0 395.65 -80.45 364.6 -154 334.5 -225.05 279.8 -279.75 225.1 -334.45 154.05 -364.55M.05 -393.65Q80.2 -393.65 153.25 -362.7 224 -332.75 278.4 -278.35 332.8 -223.95 362.75 -153.2 393.65 -80.1 393.65 0 393.65 80.1 362.75 153.2 332.8 223.95 278.4 278.35 223.85 332.9 153.25 362.7 80.2 393.65 .05 393.65 -80.1 393.65 -153.2 362.7 -223.75 332.9 -278.3 278.35 -332.85 223.8 -362.65 153.2 -393.6 80.15 -393.6 0 -393.6 -80.15 -362.65 -153.2 -332.85 -223.8 -278.3 -278.35 -223.9 -332.75 -153.2 -362.7 -80.1 -393.65 .05 -393.65Z" test="Анимация 39"/></g><g id=".__D0.__90.__D0.__BD.__D0.__B8.__D0.__BC.__D0.__B0.__D1.__86.__D0.__B8.__D1.__8F-19" transform="matrix(.505 0 0 .505 485.15 272.6)"><animateTransform attributeName="transform" additive="replace" type="translate" dur="1.198s" repeatCount="indefinite" keyTimes="0;.07;.252;.539;1" values="485.251,272.676;485.251,272.676;485.26,272.71;485.251,272.676;485.251,272.676" keySplines=".436 0 .282 1;.429 0 .689 1;.232 .821 .465 1;0 0 1 1" calcMode="spline" fill="freeze"/><animateTransform attributeName="transform" additive="sum" type="scale" dur="1.198s" repeatCount="indefinite" keyTimes="0;.07;.252;.539;1" values=".505,.505;.505,.505;.549,.549;.505,.505;.505,.505" keySplines=".436 0 .282 1;.429 0 .689 1;.232 .821 .465 1;0 0 1 1" calcMode="spline" fill="freeze"/><animateTransform attributeName="transform" additive="sum" type="translate" dur="1.198s" repeatCount="indefinite" keyTimes="0;.07;.252;.539;1" values="-.2,-.15;-.2,-.15;-.2,-.2;-.2,-.15;-.2,-.15" keySplines=".436 0 .282 1;.429 0 .689 1;.232 .821 .465 1;0 0 1 1" calcMode="spline" fill="freeze"/><path fill="#141414" stroke="none" d="M168.65 -399.3Q88.2 -433.35 0 -433.35 -88.15 -433.35 -168.7 -399.3 -246.5 -366.35 -306.45 -306.4 -366.5 -246.35 -399.3 -168.7 -433.35 -88.15 -433.35 0 -433.35 88.2 -399.3 168.7 -366.45 246.45 -306.45 306.45 -246.55 366.35 -168.7 399.3 -88.15 433.35 0 433.35 88.2 433.35 168.65 399.3 246.55 366.3 306.4 306.45 366.35 246.5 399.3 168.7 433.35 88.2 433.35 0 433.35 -88.15 399.3 -168.7 366.4 -246.4 306.4 -306.4 246.45 -366.35 168.65 -399.3M0 -431.35Q87.75 -431.35 167.9 -397.45 245.25 -364.75 305 -305 364.65 -245.35 397.45 -167.9 431.35 -87.75 431.35 0 431.35 87.8 397.45 167.9 364.65 245.35 305 305 245.35 364.7 167.9 397.45 87.75 431.35 0 431.35 -87.8 431.35 -167.9 397.45 -245.3 364.75 -305 305 -364.7 245.35 -397.45 167.9 -431.35 87.8 -431.35 0 -431.35 -87.75 -397.45 -167.9 -364.7 -245.35 -305 -305 -245.15 -364.85 -167.9 -397.45 -87.8 -431.35 0 -431.35Z" test="Анимация 37"/></g><g id=".__D0.__90.__D0.__BD.__D0.__B8.__D0.__BC.__D0.__B0.__D1.__86.__D0.__B8.__D1.__8F-18" transform="matrix(.505 0 0 .505 485.15 272.6)"><animateTransform attributeName="transform" additive="replace" type="translate" dur="1.198s" repeatCount="indefinite" keyTimes="0;.078;.261;.548;1" values="485.251,272.676;485.251,272.676;485.259,272.709;485.251,272.676;485.251,272.676" keySplines=".436 0 .282 1;.429 0 .689 1;.232 .821 .465 1;0 0 1 1" calcMode="spline" fill="freeze"/><animateTransform attributeName="transform" additive="sum" type="scale" dur="1.198s" repeatCount="indefinite" keyTimes="0;.078;.261;.548;1" values=".505,.505;.505,.505;.545,.545;.505,.505;.505,.505" keySplines=".436 0 .282 1;.429 0 .689 1;.232 .821 .465 1;0 0 1 1" calcMode="spline" fill="freeze"/><animateTransform attributeName="transform" additive="sum" type="translate" dur="1.198s" repeatCount="indefinite" keyTimes="0;.078;.261;.548;1" values="-.2,-.15;-.2,-.15;-.2,-.2;-.2,-.15;-.2,-.15" keySplines=".436 0 .282 1;.429 0 .689 1;.232 .821 .465 1;0 0 1 1" calcMode="spline" fill="freeze"/><path fill="#141414" stroke="none" d="M183.4 -434.05Q95.85 -471.05 .05 -471.05 -95.8 -471.05 -183.3 -434.05 -267.9 -398.2 -333.05 -333.1 -398.3 -267.85 -434 -183.35 -471.05 -95.75 -471.05 0 -471.05 95.75 -434 183.35 -398.3 267.85 -333.05 333.1 -267.9 398.25 -183.3 434.05 -95.8 471.05 .05 471.05 95.85 471.05 183.4 434.05 267.9 398.3 333.15 333.1 398.3 268 434.1 183.35 471.1 95.85 471.1 0 471.1 -95.85 434.1 -183.35 398.3 -267.95 333.15 -333.1 267.9 -398.25 183.4 -434.05M.05 -469.05Q95.5 -469.05 182.6 -432.2 266.7 -396.7 331.7 -331.7 396.6 -266.8 432.25 -182.6 469.1 -95.4 469.1 0 469.1 95.4 432.25 182.6 396.6 266.8 331.7 331.7 266.7 396.7 182.6 432.2 95.5 469.05 .05 469.05 -95.35 469.05 -182.55 432.2 -266.6 396.7 -331.65 331.7 -396.65 266.65 -432.15 182.6 -469.05 95.5 -469.05 0 -469.05 -95.45 -432.15 -182.6 -396.65 -266.65 -331.65 -331.7 -266.6 -396.7 -182.55 -432.2 -95.35 -469.05 .05 -469.05Z" test="Анимация 35"/></g><g id=".__D0.__90.__D0.__BD.__D0.__B8.__D0.__BC.__D0.__B0.__D1.__86.__D0.__B8.__D1.__8F-17" transform="matrix(.505 0 0 .505 485.2 272.85)"><animateTransform attributeName="transform" additive="replace" type="translate" dur="1.198s" repeatCount="indefinite" keyTimes="0;.087;.27;.556;1" values="485.352,273.002;485.352,273.002;485.363,272.986;485.352,273.002;485.352,273.002" keySplines=".436 0 .282 1;.429 0 .689 1;.232 .821 .465 1;0 0 1 1" calcMode="spline" fill="freeze"/><animateTransform attributeName="transform" additive="sum" type="scale" dur="1.198s" repeatCount="indefinite" keyTimes="0;.087;.27;.556;1" values=".505,.505;.505,.505;.543,.543;.505,.505;.505,.505" keySplines=".436 0 .282 1;.429 0 .689 1;.232 .821 .465 1;0 0 1 1" calcMode="spline" fill="freeze"/><animateTransform attributeName="transform" additive="sum" type="translate" dur="1.198s" repeatCount="indefinite" keyTimes="0;.087;.27;.556;1" values="-.3,-.3;-.3,-.3;-.3,-.25;-.3,-.3;-.3,-.3" keySplines=".436 0 .282 1;.429 0 .689 1;.232 .821 .465 1;0 0 1 1" calcMode="spline" fill="freeze"/><path fill="#141414" stroke="none" d="M198.1 -468.8Q103.4 -508.8 .05 -508.8 -103.35 -508.8 -198 -468.8 -289.4 -430.1 -359.7 -359.75 -394.75 -324.75 -422.15 -284.1 -449.55 -243.5 -468.75 -198.05 -508.75 -103.5 -508.75 0 -508.75 103.5 -468.75 198.05 -430.2 289.35 -359.7 359.75 -289.4 430.1 -198 468.8 -103.55 508.8 .05 508.8 103.55 508.8 198.1 468.8 289.45 430.1 359.8 359.75 430.15 289.45 468.85 198.05 508.8 103.45 508.8 0 508.8 -103.45 468.85 -198.05 430.1 -289.5 359.8 -359.75 289.45 -430.1 198.1 -468.8M.05 -506.8Q103.15 -506.8 197.3 -466.95 288.2 -428.55 358.4 -358.35 428.45 -288.3 467 -197.25 486.8 -150.4 496.8 -100.85 506.8 -51.3 506.8 0 506.8 51.3 496.8 100.85 486.8 150.4 467 197.25 428.45 288.3 358.4 358.35 288.2 428.55 197.3 466.95 103.15 506.8 .05 506.8 -103.1 506.8 -197.2 466.95 -288.1 428.55 -358.3 358.35 -428.5 288.15 -466.9 197.25 -486.75 150.45 -496.75 100.85 -506.75 51.3 -506.75 0 -506.75 -51.3 -496.75 -100.85 -486.75 -150.4 -466.9 -197.25 -428.5 -288.15 -358.3 -358.35 -288.1 -428.55 -197.2 -466.95 -103.1 -506.8 .05 -506.8Z" test="Анимация 33"/></g><g id=".__D0.__90.__D0.__BD.__D0.__B8.__D0.__BC.__D0.__B0.__D1.__86.__D0.__B8.__D1.__8F-16" transform="matrix(.505 0 0 .505 485.2 272.85)"><animateTransform attributeName="transform" additive="replace" type="translate" dur="1.198s" repeatCount="indefinite" keyTimes="0;.096;.278;.565;1" values="485.352,273.002;485.352,273.002;485.362,273.012;485.352,273.002;485.352,273.002" keySplines=".436 0 .282 1;.429 0 .689 1;.232 .821 .465 1;0 0 1 1" calcMode="spline" fill="freeze"/><animateTransform attributeName="transform" additive="sum" type="scale" dur="1.198s" repeatCount="indefinite" keyTimes="0;.096;.278;.565;1" values=".505,.505;.505,.505;.54,.54;.505,.505;.505,.505" keySplines=".436 0 .282 1;.429 0 .689 1;.232 .821 .465 1;0 0 1 1" calcMode="spline" fill="freeze"/><animateTransform attributeName="transform" additive="sum" type="translate" dur="1.198s" repeatCount="indefinite" keyTimes="0;1" values="-.3,-.3;-.3,-.3" keySplines=".436 0 .282 1" calcMode="spline" fill="freeze"/><path fill="#141414" stroke="none" d="M305.15 -453.45Q261.55 -482.9 212.7 -503.55 111.2 -546.5 0 -546.5 -111.15 -546.5 -212.75 -503.55 -261.55 -482.9 -305.15 -453.45 -348.8 -424.05 -386.45 -386.45 -462.1 -310.8 -503.55 -212.7 -524.9 -162.2 -535.7 -108.75 -546.5 -55.3 -546.5 0 -546.5 55.35 -535.7 108.75 -524.9 162.2 -503.55 212.7 -462.1 310.8 -386.45 386.45 -348.75 424.1 -305.15 453.5 -261.5 482.95 -212.75 503.55 -111.15 546.5 0 546.5 111.2 546.5 212.7 503.55 261.5 482.95 305.15 453.5 348.75 424.1 386.4 386.45 462.05 310.8 503.55 212.7 546.5 111.2 546.5 0 546.5 -55.3 535.7 -108.75 524.9 -162.2 503.55 -212.7 482.9 -261.55 453.45 -305.15 424.05 -348.8 386.4 -386.45 348.8 -424.05 305.15 -453.45M211.95 -501.7Q260.55 -481.15 304.05 -451.8 347.5 -422.5 385 -385 460.35 -309.65 501.7 -211.95 523 -161.6 533.75 -108.35 544.5 -55.1 544.5 0 544.5 110.75 501.7 211.95 460.35 309.65 385 385 347.5 422.5 304.05 451.85 260.55 481.15 211.95 501.7 110.75 544.5 0 544.5 -55.15 544.5 -108.35 533.75 -161.65 523 -211.95 501.7 -309.5 460.5 -385.05 385 -460.45 309.6 -501.7 211.95 -523 161.6 -533.75 108.35 -544.5 55.15 -544.5 0 -544.5 -55.1 -533.75 -108.35 -523 -161.6 -501.7 -211.95 -481.15 -260.55 -451.85 -304.05 -422.55 -347.5 -385.05 -385 -309.5 -460.5 -211.95 -501.7 -110.8 -544.5 0 -544.5 110.75 -544.5 211.95 -501.7Z" test="Анимация 31"/></g><g id=".__D0.__90.__D0.__BD.__D0.__B8.__D0.__BC.__D0.__B0.__D1.__86.__D0.__B8.__D1.__8F-15" transform="matrix(.505 0 0 .505 485.2 272.85)"><animateTransform attributeName="transform" additive="replace" type="translate" dur="1.198s" repeatCount="indefinite" keyTimes="0;.104;.287;.574;1" values="485.352,273.002;485.352,273.002;485.361,272.985;485.352,273.002;485.352,273.002" keySplines=".436 0 .282 1;.429 0 .689 1;.232 .821 .465 1;0 0 1 1" calcMode="spline" fill="freeze"/><animateTransform attributeName="transform" additive="sum" type="scale" dur="1.198s" repeatCount="indefinite" keyTimes="0;.104;.287;.574;1" values=".505,.505;.505,.505;.538,.538;.505,.505;.505,.505" keySplines=".436 0 .282 1;.429 0 .689 1;.232 .821 .465 1;0 0 1 1" calcMode="spline" fill="freeze"/><animateTransform attributeName="transform" additive="sum" type="translate" dur="1.198s" repeatCount="indefinite" keyTimes="0;.104;.287;.574;1" values="-.3,-.3;-.3,-.3;-.3,-.25;-.3,-.3;-.3,-.3" keySplines=".436 0 .282 1;.429 0 .689 1;.232 .821 .465 1;0 0 1 1" calcMode="spline" fill="freeze"/><path fill="#141414" stroke="none" d="M413.1 -413.1Q372.9 -453.3 326.2 -484.75 279.6 -516.2 227.4 -538.3 173.35 -561.15 116.25 -572.65 59.15 -584.2 0 -584.2 -118.85 -584.2 -227.4 -538.3 -332.25 -493.9 -413.1 -413.1 -453.35 -372.85 -484.8 -326.2 -516.25 -279.55 -538.3 -227.4 -561.15 -173.35 -572.65 -116.25 -584.2 -59.15 -584.2 0 -584.2 59.15 -572.65 116.25 -561.15 173.4 -538.3 227.4 -516.25 279.55 -484.8 326.2 -453.35 372.85 -413.1 413.1 -372.85 453.35 -326.25 484.8 -279.55 516.25 -227.4 538.3 -173.4 561.15 -116.3 572.65 -59.15 584.2 0 584.2 118.8 584.2 227.4 538.3 279.55 516.25 326.2 484.8 372.85 453.35 413.1 413.1 453.3 372.9 484.8 326.2 516.2 279.6 538.3 227.4 561.15 173.4 572.65 116.25 584.2 59.15 584.2 0 584.2 -59.15 572.65 -116.25 561.15 -173.35 538.3 -227.4 493.85 -332.3 413.1 -413.1M325.1 -483.15Q371.55 -451.8 411.65 -411.7 451.75 -371.6 483.1 -325.1 514.45 -278.6 536.45 -226.6 559.2 -172.8 570.7 -115.85 582.2 -58.95 582.2 0 582.2 58.95 570.7 115.85 559.2 172.8 536.45 226.6 492.2 331.15 411.65 411.7 371.55 451.8 325.1 483.15 278.6 514.5 226.6 536.45 118.45 582.2 0 582.2 -58.95 582.2 -115.85 570.7 -172.8 559.2 -226.65 536.45 -278.6 514.5 -325.1 483.15 -371.6 451.8 -411.7 411.7 -451.8 371.55 -483.15 325.1 -514.5 278.6 -536.45 226.6 -559.25 172.85 -570.7 115.85 -582.2 59 -582.2 0 -582.2 -59 -570.7 -115.85 -559.25 -172.8 -536.45 -226.6 -514.5 -278.6 -483.15 -325.1 -451.8 -371.55 -411.7 -411.7 -371.6 -451.8 -325.1 -483.15 -278.6 -514.45 -226.65 -536.45 -172.8 -559.2 -115.85 -570.7 -58.95 -582.2 0 -582.2 58.95 -582.2 115.85 -570.7 172.8 -559.2 226.6 -536.45 278.6 -514.5 325.1 -483.15Z" test="Анимация 29"/></g><g id=".__D0.__90.__D0.__BD.__D0.__B8.__D0.__BC.__D0.__B0.__D1.__86.__D0.__B8.__D1.__8F-14" transform="matrix(.505 0 0 .505 485.2 272.85)"><animateTransform attributeName="transform" additive="replace" type="translate" dur="1.198s" repeatCount="indefinite" keyTimes="0;.113;.296;.583;1" values="485.352,273.002;485.352,273.002;485.361,273.011;485.352,273.002;485.352,273.002" keySplines=".436 0 .282 1;.429 0 .689 1;.232 .821 .465 1;0 0 1 1" calcMode="spline" fill="freeze"/><animateTransform attributeName="transform" additive="sum" type="scale" dur="1.198s" repeatCount="indefinite" keyTimes="0;.113;.296;.583;1" values=".505,.505;.505,.505;.536,.536;.505,.505;.505,.505" keySplines=".436 0 .282 1;.429 0 .689 1;.232 .821 .465 1;0 0 1 1" calcMode="spline" fill="freeze"/><animateTransform attributeName="transform" additive="sum" type="translate" dur="1.198s" repeatCount="indefinite" keyTimes="0;1" values="-.3,-.3;-.3,-.3" keySplines=".436 0 .282 1" calcMode="spline" fill="freeze"/><path fill="#141414" stroke="none" d="M439.8 -439.75Q397 -482.6 347.35 -516.05 297.7 -549.5 242.1 -573.05 184.65 -597.35 123.8 -609.65 63.05 -621.9 .05 -621.9 -126.55 -621.9 -242.05 -573.05 -297.6 -549.5 -347.25 -516.05 -396.9 -482.6 -439.75 -439.75 -482.6 -396.9 -516.05 -347.3 -549.55 -297.65 -573 -242.1 -597.35 -184.55 -609.6 -123.75 -621.9 -62.95 -621.9 0 -621.9 62.95 -609.6 123.75 -597.35 184.6 -573 242.1 -549.55 297.65 -516.05 347.3 -482.6 396.9 -439.75 439.75 -396.9 482.6 -347.25 516.1 -297.55 549.6 -242.05 573.05 -184.5 597.4 -123.7 609.65 -62.9 621.95 .05 621.95 63 621.95 123.8 609.65 184.6 597.4 242.1 573.05 297.65 549.6 347.35 516.1 396.95 482.6 439.8 439.75 482.65 396.9 516.1 347.3 549.6 297.65 573.1 242.1 597.4 184.55 609.7 123.75 621.95 62.95 621.95 0 621.95 -62.95 609.7 -123.75 597.4 -184.55 573.1 -242.1 549.6 -297.65 516.1 -347.3 482.65 -396.9 439.8 -439.75M346.2 -514.45Q395.7 -481.05 438.4 -438.35 481.1 -395.65 514.45 -346.15 547.8 -296.65 571.25 -241.3 595.5 -183.95 607.7 -123.35 619.95 -62.75 619.95 0 619.95 62.75 607.7 123.4 595.5 184 571.25 241.3 547.8 296.65 514.45 346.15 481.1 395.65 438.4 438.35 395.7 481.05 346.2 514.45 296.7 547.8 241.35 571.2 184 595.45 123.4 607.7 62.8 619.95 .05 619.95 -62.75 619.95 -123.35 607.7 -183.95 595.45 -241.25 571.2 -296.65 547.8 -346.15 514.45 -395.6 481.05 -438.3 438.35 -481 395.65 -514.4 346.15 -547.75 296.65 -571.15 241.3 -595.4 184 -607.65 123.4 -619.9 62.8 -619.9 0 -619.9 -62.75 -607.65 -123.35 -595.4 -183.95 -571.15 -241.3 -547.75 -296.65 -514.4 -346.15 -481 -395.65 -438.3 -438.35 -395.6 -481.05 -346.15 -514.45 -296.65 -547.8 -241.25 -571.2 -183.95 -595.45 -123.35 -607.7 -62.75 -619.9 .05 -619.9 126.25 -619.9 241.35 -571.2 296.7 -547.8 346.2 -514.45Z" test="Анимация 27"/></g><g id=".__D0.__90.__D0.__BD.__D0.__B8.__D0.__BC.__D0.__B0.__D1.__86.__D0.__B8.__D1.__8F-13" transform="matrix(.505 0 0 .505 485.2 272.85)"><animateTransform attributeName="transform" additive="replace" type="translate" dur="1.198s" repeatCount="indefinite" keyTimes="0;.122;.304;.591;1" values="485.352,273.002;485.352,273.002;485.36,273.01;485.352,273.002;485.352,273.002" keySplines=".436 0 .282 1;.429 0 .689 1;.232 .821 .465 1;0 0 1 1" calcMode="spline" fill="freeze"/><animateTransform attributeName="transform" additive="sum" type="scale" dur="1.198s" repeatCount="indefinite" keyTimes="0;.122;.304;.591;1" values=".505,.505;.505,.505;.534,.534;.505,.505;.505,.505" keySplines=".436 0 .282 1;.429 0 .689 1;.232 .821 .465 1;0 0 1 1" calcMode="spline" fill="freeze"/><animateTransform attributeName="transform" additive="sum" type="translate" dur="1.198s" repeatCount="indefinite" keyTimes="0;1" values="-.3,-.3;-.3,-.3" keySplines=".436 0 .282 1" calcMode="spline" fill="freeze"/><path fill="#141414" stroke="none" d="M466.45 -466.45Q421.05 -511.85 368.4 -547.35 315.75 -582.85 256.8 -607.8 195.85 -633.6 131.35 -646.6 66.85 -659.65 .05 -659.65 -66.75 -659.65 -131.25 -646.6 -195.7 -633.6 -256.7 -607.8 -315.6 -582.85 -368.3 -547.35 -420.95 -511.85 -466.4 -466.45 -511.85 -421 -547.35 -368.35 -582.85 -315.65 -607.75 -256.75 -633.55 -195.75 -646.55 -131.3 -659.6 -66.8 -659.6 0 -659.6 66.8 -646.55 131.3 -633.55 195.8 -607.75 256.75 -582.85 315.65 -547.35 368.35 -511.85 421 -466.4 466.45 -420.9 511.9 -368.3 547.4 -315.55 582.9 -256.7 607.8 -195.7 633.6 -131.25 646.65 -66.75 659.65 .05 659.65 66.85 659.65 131.35 646.65 195.85 633.6 256.8 607.8 315.7 582.9 368.4 547.4 421 511.9 466.45 466.45 511.9 421 547.4 368.35 582.9 315.7 607.85 256.75 633.65 195.8 646.65 131.3 659.65 66.8 659.65 0 659.65 -66.8 646.65 -131.3 633.65 -195.8 607.85 -256.75 582.9 -315.7 547.4 -368.35 511.9 -421 466.45 -466.45M367.25 -545.7Q419.75 -510.3 465.05 -465 510.35 -419.7 545.75 -367.2 581.15 -314.75 606 -256 631.7 -195.2 644.7 -130.9 657.65 -66.6 657.65 0 657.65 66.6 644.7 130.9 631.7 195.2 606 256 581.15 314.75 545.75 367.25 510.35 419.75 465.05 465 419.75 510.35 367.25 545.7 314.75 581.15 256 605.95 195.2 631.7 130.9 644.65 66.6 657.65 .05 657.65 -66.55 657.65 -130.85 644.65 -195.1 631.7 -255.95 605.95 -314.65 581.15 -367.2 545.7 -419.7 510.3 -465 465 -510.3 419.75 -545.7 367.25 -581.05 314.75 -605.9 256 -631.65 195.15 -644.6 130.9 -657.6 66.6 -657.6 0 -657.6 -66.6 -644.6 -130.9 -631.65 -195.15 -605.9 -256 -581.05 -314.7 -545.7 -367.2 -510.3 -419.7 -465 -465 -419.7 -510.3 -367.2 -545.7 -314.65 -581.15 -255.95 -605.95 -195.1 -631.7 -130.85 -644.65 -66.55 -657.65 .05 -657.65 66.6 -657.65 130.9 -644.65 195.2 -631.65 256 -605.95 314.75 -581.15 367.25 -545.7Z" test="Анимация 25"/></g><g id=".__D0.__90.__D0.__BD.__D0.__B8.__D0.__BC.__D0.__B0.__D1.__86.__D0.__B8.__D1.__8F-12" transform="matrix(.505 0 0 .505 485.2 272.85)"><animateTransform attributeName="transform" additive="replace" type="translate" dur="1.198s" repeatCount="indefinite" keyTimes="0;.13;.313;.6;1" values="485.352,273.002;485.352,273.002;485.36,272.983;485.352,273.002;485.352,273.002" keySplines=".436 0 .282 1;.429 0 .689 1;.232 .821 .465 1;0 0 1 1" calcMode="spline" fill="freeze"/><animateTransform attributeName="transform" additive="sum" type="scale" dur="1.198s" repeatCount="indefinite" keyTimes="0;.13;.313;.6;1" values=".505,.505;.505,.505;.533,.533;.505,.505;.505,.505" keySplines=".436 0 .282 1;.429 0 .689 1;.232 .821 .465 1;0 0 1 1" calcMode="spline" fill="freeze"/><animateTransform attributeName="transform" additive="sum" type="translate" dur="1.198s" repeatCount="indefinite" keyTimes="0;.13;.313;.6;1" values="-.3,-.3;-.3,-.3;-.3,-.25;-.3,-.3;-.3,-.3" keySplines=".436 0 .282 1;.429 0 .689 1;.232 .821 .465 1;0 0 1 1" calcMode="spline" fill="freeze"/><path fill="#141414" stroke="none" d="M-138.8 -683.6Q-206.95 -669.8 -271.45 -642.55 -333.75 -616.2 -389.4 -578.65 -445.05 -541.15 -493.1 -493.1 -541.15 -445.05 -578.7 -389.4 -616.25 -333.7 -642.55 -271.45 -669.8 -206.95 -683.6 -138.8 -697.35 -70.6 -697.35 0 -697.35 70.6 -683.6 138.8 -669.8 206.95 -642.55 271.45 -616.25 333.7 -578.7 389.4 -541.15 445.05 -493.1 493.1 -445.05 541.15 -389.4 578.7 -333.7 616.25 -271.45 642.55 -206.95 669.8 -138.8 683.6 -70.6 697.35 0 697.35 70.6 697.35 138.8 683.6 206.95 669.8 271.45 642.55 333.7 616.25 389.4 578.7 445.05 541.15 493.1 493.1 541.15 445.05 578.65 389.4 616.2 333.75 642.55 271.45 669.8 206.95 683.6 138.8 697.35 70.6 697.35 0 697.35 -70.6 683.6 -138.8 669.8 -206.95 642.55 -271.45 616.2 -333.75 578.65 -389.4 541.15 -445.05 493.1 -493.1 445.1 -541.1 389.4 -578.65 333.75 -616.15 271.45 -642.55 206.95 -669.8 138.8 -683.6 70.6 -697.35 0 -697.35 -70.6 -697.35 -138.8 -683.6M-270.65 -640.7Q-206.35 -667.9 -138.4 -681.6 -70.4 -695.35 0 -695.35 70.4 -695.35 138.35 -681.6 206.35 -667.9 270.65 -640.7 332.75 -614.45 388.25 -577 443.75 -539.6 491.7 -491.7 539.6 -443.8 577 -388.25 614.4 -332.75 640.7 -270.65 667.9 -206.35 681.6 -138.4 695.35 -70.4 695.35 0 695.35 70.4 681.6 138.4 667.9 206.35 640.7 270.65 614.4 332.8 577 388.3 539.55 443.85 491.7 491.7 443.75 539.6 388.25 577 332.75 614.45 270.65 640.7 206.35 667.9 138.35 681.6 70.4 695.35 0 695.35 -70.4 695.35 -138.4 681.6 -206.35 667.9 -270.65 640.7 -332.75 614.45 -388.3 577 -443.8 539.6 -491.7 491.7 -539.6 443.8 -577 388.3 -614.45 332.75 -640.7 270.65 -667.9 206.4 -681.65 138.4 -695.35 70.45 -695.35 0 -695.35 -70.45 -681.65 -138.4 -667.9 -206.4 -640.7 -270.65 -614.45 -332.7 -577 -388.25 -539.6 -443.75 -491.7 -491.7 -443.8 -539.6 -388.3 -577 -332.75 -614.45 -270.65 -640.7Z" test="Анимация 23"/></g><g id=".__D0.__90.__D0.__BD.__D0.__B8.__D0.__BC.__D0.__B0.__D1.__86.__D0.__B8.__D1.__8F-11" transform="matrix(.505 0 0 .505 485.2 272.85)"><animateTransform attributeName="transform" additive="replace" type="translate" dur="1.198s" repeatCount="indefinite" keyTimes="0;.139;.322;.609;1" values="485.352,273.002;485.352,273.002;485.359,273.009;485.352,273.002;485.352,273.002" keySplines=".436 0 .282 1;.429 0 .689 1;.232 .821 .465 1;0 0 1 1" calcMode="spline" fill="freeze"/><animateTransform attributeName="transform" additive="sum" type="scale" dur="1.198s" repeatCount="indefinite" keyTimes="0;.139;.322;.609;1" values=".505,.505;.505,.505;.531,.531;.505,.505;.505,.505" keySplines=".436 0 .282 1;.429 0 .689 1;.232 .821 .465 1;0 0 1 1" calcMode="spline" fill="freeze"/><animateTransform attributeName="transform" additive="sum" type="translate" dur="1.198s" repeatCount="indefinite" keyTimes="0;1" values="-.3,-.3;-.3,-.3" keySplines=".436 0 .282 1" calcMode="spline" fill="freeze"/><path fill="#141414" stroke="none" d="M720.6 -146.3Q706.1 -218.15 677.35 -286.1 649.55 -351.75 610 -410.45 570.45 -469.1 519.8 -519.75 469.2 -570.35 410.5 -609.95 351.8 -649.5 286.15 -677.3 218.25 -706.05 146.35 -720.55 74.5 -735.05 .05 -735.05 -74.4 -735.05 -146.25 -720.55 -218.15 -706.05 -286.1 -677.3 -351.7 -649.5 -410.4 -609.95 -469.1 -570.4 -519.75 -519.75 -570.4 -469.1 -609.95 -410.45 -649.5 -351.75 -677.25 -286.1 -706 -218.15 -720.55 -146.3 -735.05 -74.45 -735.05 0 -735.05 74.45 -720.55 146.3 -706 218.15 -677.25 286.1 -649.5 351.75 -609.95 410.45 -570.4 469.1 -519.75 519.75 -469.1 570.4 -410.4 610 -351.7 649.55 -286.1 677.3 -218.15 706.05 -146.25 720.55 -74.4 735.05 .05 735.05 74.5 735.05 146.35 720.55 218.25 706.05 286.15 677.3 351.8 649.55 410.5 610 469.2 570.4 519.8 519.75 570.45 469.1 610 410.45 649.55 351.75 677.35 286.1 706.1 218.15 720.6 146.3 735.1 74.45 735.1 0 735.1 -74.4 720.6 -146.3M675.5 -285.35Q704.15 -217.55 718.65 -145.9 733.1 -74.2 733.1 0 733.1 74.2 718.65 145.9 704.15 217.55 675.5 285.35 647.8 350.85 608.35 409.35 568.85 467.9 518.4 518.35 467.9 568.85 409.35 608.3 350.85 647.75 285.4 675.45 217.65 704.15 145.95 718.6 74.3 733.05 .05 733.05 -74.2 733.05 -145.85 718.6 -217.55 704.15 -285.3 675.45 -350.8 647.75 -409.3 608.3 -467.85 568.85 -518.3 518.35 -568.8 467.9 -608.25 409.35 -647.7 350.85 -675.4 285.35 -704.1 217.55 -718.55 145.9 -733.05 74.2 -733.05 0 -733.05 -74.2 -718.55 -145.9 -704.1 -217.55 -675.4 -285.35 -647.7 -350.85 -608.25 -409.35 -568.8 -467.9 -518.3 -518.35 -467.85 -568.85 -409.3 -608.3 -350.8 -647.75 -285.3 -675.45 -217.55 -704.15 -145.85 -718.6 -74.2 -733.05 .05 -733.05 74.3 -733.05 145.95 -718.6 217.65 -704.1 285.4 -675.45 350.85 -647.75 409.35 -608.3 467.9 -568.85 518.4 -518.35 568.85 -467.9 608.35 -409.35 647.8 -350.85 675.5 -285.35Z" test="Анимация 21"/></g><g id=".__D0.__90.__D0.__BD.__D0.__B8.__D0.__BC.__D0.__B0.__D1.__86.__D0.__B8.__D1.__8F-10" transform="matrix(.505 0 0 .505 485.2 272.85)"><animateTransform attributeName="transform" additive="replace" type="translate" dur="1.198s" repeatCount="indefinite" keyTimes="0;.148;.33;.617;1" values="485.352,273.002;485.352,273.002;485.359,273.009;485.352,273.002;485.352,273.002" keySplines=".436 0 .282 1;.429 0 .689 1;.232 .821 .465 1;0 0 1 1" calcMode="spline" fill="freeze"/><animateTransform attributeName="transform" additive="sum" type="scale" dur="1.198s" repeatCount="indefinite" keyTimes="0;.148;.33;.617;1" values=".505,.505;.505,.505;.53,.53;.505,.505;.505,.505" keySplines=".436 0 .282 1;.429 0 .689 1;.232 .821 .465 1;0 0 1 1" calcMode="spline" fill="freeze"/><animateTransform attributeName="transform" additive="sum" type="translate" dur="1.198s" repeatCount="indefinite" keyTimes="0;1" values="-.3,-.3;-.3,-.3" keySplines=".436 0 .282 1" calcMode="spline" fill="freeze"/><path fill="#141414" stroke="none" d="M757.55 -153.8Q742.3 -229.4 712.1 -300.8 682.9 -369.8 641.3 -431.5 599.7 -493.2 546.5 -546.45 493.25 -599.7 431.55 -641.25 369.85 -682.9 300.85 -712.05 229.35 -742.3 153.85 -757.55 78.25 -772.8 .05 -772.8 -78.2 -772.8 -153.75 -757.55 -229.3 -742.3 -300.75 -712.05 -369.75 -682.9 -431.5 -641.25 -493.15 -599.7 -546.4 -546.45 -599.65 -493.2 -641.2 -431.5 -682.85 -369.8 -712 -300.8 -742.2 -229.35 -757.5 -153.8 -772.75 -78.2 -772.75 0 -772.75 78.25 -757.5 153.8 -742.25 229.35 -712 300.8 -682.85 369.8 -641.2 431.5 -599.65 493.15 -546.4 546.45 -493.15 599.7 -431.5 641.25 -369.75 682.9 -300.75 712.05 -229.3 742.3 -153.75 757.55 -78.2 772.8 .05 772.8 78.25 772.8 153.85 757.55 229.35 742.3 300.85 712.05 369.85 682.9 431.55 641.25 493.25 599.7 546.5 546.45 599.75 493.2 641.3 431.5 682.9 369.85 712.1 300.8 742.3 229.4 757.55 153.8 772.8 78.3 772.8 0 772.8 -78.25 757.55 -153.8M710.25 -300Q740.4 -228.75 755.6 -153.4 770.8 -78.05 770.8 0 770.8 78.05 755.6 153.4 740.4 228.8 710.25 300.05 681.15 368.85 639.65 430.4 598.15 491.95 545.05 545.05 491.9 598.15 430.45 639.6 368.85 681.1 300.05 710.2 228.8 740.35 153.45 755.6 78.1 770.8 .05 770.8 -77.95 770.8 -153.35 755.6 -228.7 740.35 -300 710.2 -368.8 681.1 -430.35 639.6 -491.9 598.15 -545 545.05 -598.05 491.95 -639.55 430.4 -681.05 368.85 -710.15 300.05 -740.3 228.75 -755.5 153.4 -770.75 78.05 -770.75 0 -770.75 -78 -755.5 -153.4 -740.3 -228.75 -710.15 -300 -681.05 -368.85 -639.55 -430.4 -598.05 -491.95 -545 -545 -491.9 -598.1 -430.35 -639.6 -368.8 -681.1 -300 -710.2 -228.7 -740.35 -153.35 -755.55 -77.95 -770.8 .05 -770.8 78.1 -770.8 153.45 -755.55 228.8 -740.35 300.05 -710.2 368.85 -681.1 430.45 -639.6 491.95 -598.1 545.05 -545 598.15 -491.95 639.65 -430.4 681.15 -368.85 710.25 -300Z" test="Анимация 19"/></g><g id=".__D0.__90.__D0.__BD.__D0.__B8.__D0.__BC.__D0.__B0.__D1.__86.__D0.__B8.__D1.__8F-9" transform="matrix(.505 0 0 .505 485.2 272.85)"><animateTransform attributeName="transform" additive="replace" type="translate" dur="1.198s" repeatCount="indefinite" keyTimes="0;.157;.339;.626;1" values="485.352,273.002;485.352,273.002;485.359,273.009;485.352,273.002;485.352,273.002" keySplines=".436 0 .282 1;.429 0 .689 1;.232 .821 .465 1;0 0 1 1" calcMode="spline" fill="freeze"/><animateTransform attributeName="transform" additive="sum" type="scale" dur="1.198s" repeatCount="indefinite" keyTimes="0;.157;.339;.626;1" values=".505,.505;.505,.505;.529,.529;.505,.505;.505,.505" keySplines=".436 0 .282 1;.429 0 .689 1;.232 .821 .465 1;0 0 1 1" calcMode="spline" fill="freeze"/><animateTransform attributeName="transform" additive="sum" type="translate" dur="1.198s" repeatCount="indefinite" keyTimes="0;1" values="-.3,-.3;-.3,-.3" keySplines=".436 0 .282 1" calcMode="spline" fill="freeze"/><path fill="#141414" stroke="none" d="M161.3 -794.5Q82.05 -810.5 0 -810.5 -82.05 -810.5 -161.3 -794.5 -240.5 -778.5 -315.5 -746.8 -387.9 -716.2 -452.6 -672.55 -517.3 -628.95 -573.1 -573.1 -628.95 -517.25 -672.55 -452.55 -716.2 -387.85 -746.8 -315.5 -778.5 -240.55 -794.5 -161.3 -810.5 -82.05 -810.5 0 -810.5 82.1 -794.5 161.3 -778.5 240.55 -746.8 315.5 -716.2 387.85 -672.55 452.55 -628.95 517.25 -573.1 573.1 -517.3 628.95 -452.6 672.55 -387.9 716.2 -315.5 746.8 -240.5 778.5 -161.3 794.5 -82.05 810.5 0 810.5 82.05 810.5 161.3 794.5 240.5 778.5 315.45 746.8 387.85 716.2 452.55 672.55 517.25 628.95 573.1 573.1 628.9 517.3 672.55 452.55 716.15 387.9 746.8 315.5 778.5 240.55 794.5 161.3 810.5 82.05 810.5 0 810.5 -82.05 794.5 -161.3 778.5 -240.5 746.8 -315.5 716.15 -387.9 672.55 -452.55 628.9 -517.3 573.1 -573.1 517.25 -628.95 452.55 -672.55 387.85 -716.2 315.45 -746.8 240.5 -778.5 161.3 -794.5M0 -808.5Q81.85 -808.5 160.9 -792.55 239.9 -776.55 314.7 -744.95 386.9 -714.4 451.45 -670.9 516 -627.4 571.7 -571.7 627.4 -516 670.9 -451.45 714.4 -386.9 744.95 -314.7 776.55 -239.9 792.55 -160.9 808.5 -81.85 808.5 0 808.5 81.85 792.55 160.9 776.55 239.95 744.95 314.7 714.45 386.9 670.9 451.45 627.4 516 571.7 571.7 516 627.4 451.45 670.9 386.9 714.4 314.7 744.95 239.9 776.55 160.9 792.55 81.85 808.5 0 808.5 -81.85 808.5 -160.9 792.55 -239.95 776.55 -314.7 744.95 -386.9 714.45 -451.45 670.9 -516 627.4 -571.7 571.7 -627.4 516 -670.9 451.45 -714.45 386.9 -744.95 314.7 -776.6 240 -792.55 160.9 -808.5 81.9 -808.5 0 -808.5 -81.9 -792.55 -160.9 -776.6 -239.95 -744.95 -314.7 -714.4 -386.9 -670.9 -451.45 -627.4 -516 -571.7 -571.7 -516 -627.4 -451.45 -670.9 -386.9 -714.45 -314.7 -744.95 -239.95 -776.55 -160.9 -792.55 -81.85 -808.5 0 -808.5Z" test="Анимация 17"/></g><g id=".__D0.__90.__D0.__BD.__D0.__B8.__D0.__BC.__D0.__B0.__D1.__86.__D0.__B8.__D1.__8F-8" transform="matrix(.505 0 0 .505 485.2 272.85)"><animateTransform attributeName="transform" additive="replace" type="translate" dur="1.198s" repeatCount="indefinite" keyTimes="0;.165;.348;.635;1" values="485.352,273.002;485.352,273.002;485.411,273.061;485.352,273.002;485.352,273.002" keySplines=".436 0 .282 1;.429 0 .689 1;.232 .821 .465 1;0 0 1 1" calcMode="spline" fill="freeze"/><animateTransform attributeName="transform" additive="sum" type="scale" dur="1.198s" repeatCount="indefinite" keyTimes="0;.165;.348;.635;1" values=".505,.505;.505,.505;.528,.528;.505,.505;.505,.505" keySplines=".436 0 .282 1;.429 0 .689 1;.232 .821 .465 1;0 0 1 1" calcMode="spline" fill="freeze"/><animateTransform attributeName="transform" additive="sum" type="translate" dur="1.198s" repeatCount="indefinite" keyTimes="0;.165;.348;.635;1" values="-.3,-.3;-.3,-.3;-.4,-.4;-.3,-.3;-.3,-.3" keySplines=".436 0 .282 1;.429 0 .689 1;.232 .821 .465 1;0 0 1 1" calcMode="spline" fill="freeze"/><path fill="#141414" stroke="none" d="M168.8 -831.45Q85.9 -848.2 0 -848.2 -85.9 -848.2 -168.8 -831.45 -251.75 -814.75 -330.15 -781.55 -405.9 -749.55 -473.65 -703.85 -541.35 -658.2 -599.8 -599.75 -658.2 -541.35 -703.85 -473.6 -749.5 -405.9 -781.55 -330.15 -814.75 -251.75 -831.45 -168.8 -848.2 -85.9 -848.2 0 -848.2 85.9 -831.45 168.8 -814.7 251.75 -781.55 330.15 -749.5 405.9 -703.85 473.65 -658.2 541.4 -599.8 599.8 -541.35 658.25 -473.65 703.85 -405.9 749.55 -330.15 781.55 -251.75 814.75 -168.8 831.45 -85.9 848.2 0 848.2 85.9 848.2 168.8 831.45 251.75 814.75 330.15 781.55 405.85 749.55 473.6 703.85 541.3 658.2 599.75 599.8 658.15 541.4 703.85 473.65 749.5 405.95 781.55 330.15 814.7 251.75 831.45 168.8 848.2 85.85 848.2 0 848.2 -85.85 831.45 -168.8 814.7 -251.7 781.55 -330.15 749.5 -405.9 703.85 -473.6 658.15 -541.35 599.75 -599.75 541.3 -658.2 473.6 -703.85 405.9 -749.55 330.15 -781.55 251.75 -814.7 168.8 -831.45M0 -846.2Q85.7 -846.2 168.4 -829.5 251.15 -812.8 329.35 -779.7 404.95 -747.75 472.5 -702.2 540.05 -656.65 598.35 -598.35 656.65 -540.05 702.2 -472.5 747.75 -404.95 779.7 -329.4 812.8 -251.1 829.5 -168.4 846.2 -85.65 846.2 0 846.2 85.65 829.5 168.4 812.8 251.1 779.7 329.4 747.75 404.95 702.2 472.5 656.65 540.05 598.35 598.35 540.1 656.65 472.5 702.2 404.95 747.75 329.35 779.7 251.15 812.8 168.4 829.5 85.7 846.2 0 846.2 -85.7 846.2 -168.4 829.5 -251.15 812.8 -329.4 779.7 -404.95 747.75 -472.5 702.2 -540.1 656.65 -598.35 598.35 -656.65 540.1 -702.2 472.5 -747.75 405 -779.7 329.4 -812.8 251.15 -829.5 168.4 -846.2 85.7 -846.2 0 -846.2 -85.7 -829.5 -168.4 -812.8 -251.15 -779.7 -329.4 -747.75 -405 -702.2 -472.5 -656.65 -540.1 -598.35 -598.35 -540.05 -656.65 -472.5 -702.2 -404.95 -747.75 -329.4 -779.7 -251.15 -812.8 -168.4 -829.5 -85.7 -846.2 0 -846.2Z" test="Анимация 15"/></g><g id=".__D0.__90.__D0.__BD.__D0.__B8.__D0.__BC.__D0.__B0.__D1.__86.__D0.__B8.__D1.__8F-7" transform="matrix(.505 0 0 .505 485.2 272.85)"><animateTransform attributeName="transform" additive="replace" type="translate" dur="1.198s" repeatCount="indefinite" keyTimes="0;.174;.356;.643;1" values="485.352,273.002;485.352,273.002;485.358,273.008;485.352,273.002;485.352,273.002" keySplines=".436 0 .282 1;.429 0 .689 1;.232 .821 .465 1;0 0 1 1" calcMode="spline" fill="freeze"/><animateTransform attributeName="transform" additive="sum" type="scale" dur="1.198s" repeatCount="indefinite" keyTimes="0;.174;.356;.643;1" values=".505,.505;.505,.505;.527,.527;.505,.505;.505,.505" keySplines=".436 0 .282 1;.429 0 .689 1;.232 .821 .465 1;0 0 1 1" calcMode="spline" fill="freeze"/><animateTransform attributeName="transform" additive="sum" type="translate" dur="1.198s" repeatCount="indefinite" keyTimes="0;1" values="-.3,-.3;-.3,-.3" keySplines=".436 0 .282 1" calcMode="spline" fill="freeze"/><path fill="#141414" stroke="none" d="M-176.25 -868.4Q-262.9 -850.95 -344.8 -816.3 -423.9 -782.85 -494.65 -735.15 -565.35 -687.5 -626.4 -626.45 -687.4 -565.45 -735.1 -494.7 -782.8 -423.95 -816.25 -344.85 -850.9 -262.9 -868.4 -176.3 -885.9 -89.7 -885.9 0 -885.9 89.7 -868.4 176.3 -850.9 262.9 -816.25 344.85 -782.8 423.95 -735.1 494.7 -687.4 565.45 -626.4 626.45 -565.35 687.5 -494.65 735.15 -423.9 782.85 -344.8 816.3 -262.9 850.95 -176.25 868.45 -89.65 885.95 .05 885.95 89.75 885.95 176.35 868.45 262.95 850.95 344.9 816.3 424 782.85 494.7 735.15 565.45 687.45 626.5 626.45 687.5 565.45 735.2 494.7 782.85 424 816.35 344.85 851 262.95 868.5 176.3 885.95 89.7 885.95 0 885.95 -89.7 868.5 -176.3 851 -262.9 816.35 -344.85 782.85 -424 735.2 -494.7 687.5 -565.45 626.5 -626.45 565.45 -687.45 494.7 -735.15 424 -782.85 344.9 -816.3 263 -850.95 176.35 -868.4 89.75 -885.9 .05 -885.9 -89.65 -885.9 -176.25 -868.4M-344 -814.45Q-262.3 -849 -175.85 -866.45 -89.45 -883.9 .05 -883.9 89.55 -883.9 175.95 -866.45 262.4 -849 344.1 -814.45 423.05 -781.05 493.6 -733.5 564.2 -685.9 625.05 -625 685.95 -564.15 733.55 -493.55 781.1 -423 814.5 -344.05 849.05 -262.35 866.5 -175.9 883.95 -89.5 883.95 0 883.95 89.55 866.5 175.95 849.05 262.35 814.5 344.05 781.1 423 733.55 493.55 685.95 564.15 625.05 625.05 564.2 685.9 493.6 733.5 423.05 781.05 344.1 814.45 262.4 849.05 175.95 866.5 89.5 883.95 .05 883.95 -89.45 883.95 -175.85 866.5 -262.25 849.05 -344 814.45 -422.95 781.1 -493.55 733.5 -564.05 685.95 -625 625.05 -685.85 564.15 -733.45 493.55 -781.05 423 -814.4 344.05 -849 262.35 -866.45 175.95 -883.9 89.5 -883.9 0 -883.9 -89.5 -866.45 -175.9 -849 -262.3 -814.4 -344.05 -781 -423 -733.45 -493.55 -685.85 -564.15 -625 -625 -564.1 -685.9 -493.55 -733.5 -422.95 -781.1 -344 -814.45Z" test="Анимация 13"/></g><g id=".__D0.__90.__D0.__BD.__D0.__B8.__D0.__BC.__D0.__B0.__D1.__86.__D0.__B8.__D1.__8F-6" transform="matrix(.505 0 0 .505 485.2 272.85)"><animateTransform attributeName="transform" additive="replace" type="translate" dur="1.198s" repeatCount="indefinite" keyTimes="0;.183;.365;.652;1" values="485.352,273.002;485.352,273.002;485.358,273.008;485.352,273.002;485.352,273.002" keySplines=".436 0 .282 1;.429 0 .689 1;.232 .821 .465 1;0 0 1 1" calcMode="spline" fill="freeze"/><animateTransform attributeName="transform" additive="sum" type="scale" dur="1.198s" repeatCount="indefinite" keyTimes="0;.183;.365;.652;1" values=".505,.505;.505,.505;.527,.527;.505,.505;.505,.505" keySplines=".436 0 .282 1;.429 0 .689 1;.232 .821 .465 1;0 0 1 1" calcMode="spline" fill="freeze"/><animateTransform attributeName="transform" additive="sum" type="translate" dur="1.198s" repeatCount="indefinite" keyTimes="0;1" values="-.3,-.3;-.3,-.3" keySplines=".436 0 .282 1" calcMode="spline" fill="freeze"/><path fill="#141414" stroke="none" d="M-183.75 -905.4Q-274.05 -887.15 -359.5 -851.05 -441.95 -816.15 -515.7 -766.45 -589.45 -716.7 -653.05 -653.1 -716.7 -589.5 -766.4 -515.75 -816.1 -442 -851 -359.5 -887.15 -274.15 -905.35 -183.8 -923.6 -93.55 -923.6 0 -923.6 93.55 -905.35 183.8 -887.15 274.15 -851 359.5 -816.1 442 -766.4 515.75 -716.7 589.5 -653.05 653.1 -589.45 716.75 -515.7 766.45 -441.95 816.15 -359.5 851.05 -274.05 887.15 -183.75 905.4 -93.45 923.65 .05 923.65 93.55 923.65 183.85 905.4 274.15 887.15 359.55 851.05 442.05 816.2 515.8 766.45 589.5 716.75 653.15 653.1 716.75 589.5 766.45 515.75 816.2 442 851.1 359.5 887.2 274.15 905.45 183.8 923.65 93.55 923.65 0 923.65 -93.55 905.45 -183.8 887.2 -274.1 851.1 -359.5 816.2 -442 766.45 -515.75 716.75 -589.5 653.15 -653.1 589.5 -716.75 515.8 -766.45 442.05 -816.2 359.55 -851.05 274.15 -887.15 183.85 -905.4 93.55 -923.65 .05 -923.65 -93.45 -923.65 -183.75 -905.4M-358.7 -849.2Q-273.5 -885.25 -183.4 -903.45 -93.25 -921.65 .05 -921.65 93.35 -921.65 183.45 -903.45 273.55 -885.25 358.8 -849.2 441.1 -814.4 514.7 -764.8 588.25 -715.2 651.75 -651.7 715.25 -588.2 764.85 -514.65 814.45 -441.05 849.25 -358.75 885.3 -273.5 903.45 -183.4 921.65 -93.3 921.65 0 921.65 93.3 903.45 183.4 885.3 273.55 849.25 358.75 814.45 441.05 764.85 514.65 715.25 588.2 651.75 651.7 588.25 715.2 514.7 764.8 441.1 814.4 358.8 849.2 273.55 885.25 183.45 903.45 93.35 921.65 .05 921.65 -93.25 921.65 -183.4 903.45 -273.5 885.25 -358.7 849.2 -441 814.4 -514.6 764.8 -588.15 715.2 -651.65 651.7 -715.15 588.2 -764.75 514.65 -814.35 441.05 -849.15 358.75 -885.2 273.55 -903.4 183.4 -921.6 93.35 -921.6 0 -921.6 -93.3 -903.4 -183.4 -885.2 -273.55 -849.15 -358.75 -814.35 -441.05 -764.75 -514.65 -715.15 -588.2 -651.65 -651.7 -588.15 -715.2 -514.6 -764.8 -441 -814.4 -358.7 -849.2Z" test="Анимация 11"/></g><g id=".__D0.__90.__D0.__BD.__D0.__B8.__D0.__BC.__D0.__B0.__D1.__86.__D0.__B8.__D1.__8F-5" transform="matrix(.505 0 0 .505 485.2 272.85)"><animateTransform attributeName="transform" additive="replace" type="translate" dur="1.198s" repeatCount="indefinite" keyTimes="0;.191;.374;.661;1" values="485.352,273.002;485.352,273.002;485.358,273.034;485.352,273.002;485.352,273.002" keySplines=".436 0 .282 1;.429 0 .689 1;.232 .821 .465 1;0 0 1 1" calcMode="spline" fill="freeze"/><animateTransform attributeName="transform" additive="sum" type="scale" dur="1.198s" repeatCount="indefinite" keyTimes="0;.191;.374;.661;1" values=".505,.505;.505,.505;.526,.526;.505,.505;.505,.505" keySplines=".436 0 .282 1;.429 0 .689 1;.232 .821 .465 1;0 0 1 1" calcMode="spline" fill="freeze"/><animateTransform attributeName="transform" additive="sum" type="translate" dur="1.198s" repeatCount="indefinite" keyTimes="0;.191;.374;.661;1" values="-.3,-.3;-.3,-.3;-.3,-.35;-.3,-.3;-.3,-.3" keySplines=".436 0 .282 1;.429 0 .689 1;.232 .821 .465 1;0 0 1 1" calcMode="spline" fill="freeze"/><path fill="#141414" stroke="none" d="M-374.6 -886.8Q-460.55 -850.45 -537.4 -798.65 -614.25 -746.85 -680.55 -680.55 -746.85 -614.25 -798.65 -537.4 -850.45 -460.6 -886.8 -374.65 -924.45 -285.65 -943.45 -191.55 -962.45 -97.45 -962.45 0 -962.45 97.45 -943.45 191.5 -924.45 285.65 -886.8 374.6 -850.45 460.55 -798.65 537.4 -746.85 614.25 -680.55 680.55 -614.25 746.85 -537.4 798.6 -460.55 850.45 -374.6 886.8 -285.6 924.45 -191.55 943.45 -97.45 962.45 0 962.45 97.45 962.45 191.55 943.45 285.6 924.45 374.65 886.8 460.6 850.45 537.45 798.6 614.25 746.8 680.55 680.55 746.85 614.25 798.65 537.4 850.45 460.55 886.8 374.6 924.45 285.65 943.45 191.5 962.45 97.45 962.45 0 962.45 -97.45 943.45 -191.55 924.45 -285.65 886.8 -374.65 850.45 -460.6 798.65 -537.4 746.85 -614.25 680.55 -680.55 614.25 -746.85 537.45 -798.65 460.6 -850.45 374.65 -886.8 285.6 -924.45 191.55 -943.45 97.45 -962.45 0 -962.45 -97.45 -962.45 -191.55 -943.45 -285.6 -924.45 -374.6 -886.8M-536.3 -797Q-459.6 -848.7 -373.85 -884.95 -285.05 -922.5 -191.15 -941.5 -97.25 -960.45 0 -960.45 97.25 -960.45 191.15 -941.5 285.05 -922.5 373.85 -884.95 459.65 -848.7 536.3 -797 613 -745.3 679.15 -679.15 745.3 -613 797 -536.3 848.7 -459.6 884.95 -373.85 922.5 -285.05 941.5 -191.15 960.45 -97.25 960.45 0 960.45 97.25 941.5 191.15 922.5 285.05 884.95 373.85 848.7 459.6 797 536.3 745.3 612.95 679.15 679.1 613 745.25 536.3 797 459.65 848.7 373.85 884.95 285.05 922.5 191.15 941.5 97.25 960.45 0 960.45 -97.25 960.45 -191.15 941.5 -285.05 922.5 -373.85 884.95 -459.6 848.7 -536.3 797 -612.95 745.3 -679.15 679.1 -745.3 612.95 -797 536.3 -848.7 459.6 -884.95 373.85 -922.5 285.05 -941.5 191.15 -960.45 97.25 -960.45 0 -960.45 -97.25 -941.5 -191.15 -922.5 -285.05 -884.95 -373.85 -848.7 -459.65 -797 -536.3 -745.3 -613 -679.15 -679.15 -612.95 -745.3 -536.3 -797Z" test="Анимация 9"/></g><g id=".__D0.__90.__D0.__BD.__D0.__B8.__D0.__BC.__D0.__B0.__D1.__86.__D0.__B8.__D1.__8F-4" transform="matrix(.505 0 0 .505 485.2 272.85)"><animateTransform attributeName="transform" additive="replace" type="translate" dur="1.198s" repeatCount="indefinite" keyTimes="0;.2;.383;.67;1" values="485.352,273.002;485.352,273.002;485.358,273.008;485.352,273.002;485.352,273.002" keySplines=".436 0 .282 1;.429 0 .689 1;.232 .821 .465 1;0 0 1 1" calcMode="spline" fill="freeze"/><animateTransform attributeName="transform" additive="sum" type="scale" dur="1.198s" repeatCount="indefinite" keyTimes="0;.2;.383;.67;1" values=".505,.505;.505,.505;.525,.525;.505,.505;.505,.505" keySplines=".436 0 .282 1;.429 0 .689 1;.232 .821 .465 1;0 0 1 1" calcMode="spline" fill="freeze"/><animateTransform attributeName="transform" additive="sum" type="translate" dur="1.198s" repeatCount="indefinite" keyTimes="0;1" values="-.3,-.3;-.3,-.3" keySplines=".436 0 .282 1" calcMode="spline" fill="freeze"/><path fill="#141414" stroke="none" d="M-389.7 -922.5Q-479.1 -884.7 -559.05 -830.8 -638.95 -776.95 -707.95 -707.95 -776.9 -639 -830.8 -559.05 -884.7 -479.1 -922.55 -389.7 -961.7 -297.1 -981.45 -199.25 -1001.2 -101.35 -1001.2 .05 -1001.2 101.4 -981.45 199.3 -961.7 297.2 -922.55 389.75 -884.7 479.2 -830.8 559.1 -776.9 639.05 -707.95 708 -638.95 777 -559.05 830.85 -479.1 884.75 -389.7 922.6 -297.1 961.75 -199.25 981.5 -101.35 1001.25 0 1001.25 101.4 1001.25 199.3 981.5 297.2 961.75 389.75 922.6 479.15 884.75 559.1 830.85 639.05 776.95 708 708 777 639 830.85 559.1 884.75 479.15 922.55 389.75 961.75 297.2 981.5 199.3 1001.25 101.45 1001.25 .05 1001.25 -101.35 981.5 -199.25 961.75 -297.1 922.55 -389.7 884.75 -479.1 830.85 -559.05 776.95 -639 708 -707.95 639.05 -776.9 559.1 -830.8 479.15 -884.7 389.75 -922.5 297.2 -961.7 199.3 -981.45 101.45 -1001.2 0 -1001.2 -101.4 -1001.2 -199.25 -981.45 -297.15 -961.7 -389.7 -922.5M-557.95 -829.15Q-478.2 -882.95 -388.95 -920.7 -296.55 -959.75 -198.85 -979.5 -101.2 -999.2 0 -999.2 101.2 -999.2 198.85 -979.5 296.55 -959.75 388.95 -920.7 478.2 -882.95 558 -829.15 637.75 -775.35 706.6 -706.55 775.45 -637.7 829.2 -557.9 883 -478.1 920.7 -388.9 959.8 -296.55 979.55 -198.85 999.25 -101.15 999.25 .05 999.25 101.25 979.55 198.9 959.8 296.6 920.7 389 882.95 478.2 829.2 558 775.4 637.8 706.6 706.6 637.75 775.4 558 829.2 478.2 883 388.95 920.75 296.55 959.8 198.85 979.55 101.2 999.25 0 999.25 -101.2 999.25 -198.85 979.55 -296.55 959.85 -388.95 920.75 -478.2 883 -557.95 829.2 -637.75 775.4 -706.55 706.6 -775.35 637.8 -829.15 558 -882.9 478.25 -920.7 389 -959.75 296.6 -979.5 198.9 -999.2 101.25 -999.2 .05 -999.2 -101.15 -979.5 -198.85 -959.75 -296.55 -920.7 -388.9 -882.95 -478.15 -829.15 -557.9 -775.35 -637.7 -706.55 -706.55 -637.75 -775.35 -557.95 -829.15Z" test="Анимация 7"/></g><g id=".__D0.__90.__D0.__BD.__D0.__B8.__D0.__BC.__D0.__B0.__D1.__86.__D0.__B8.__D1.__8F-3" transform="matrix(.505 0 0 .505 485.2 272.85)"><animateTransform attributeName="transform" additive="replace" type="translate" dur="1.198s" repeatCount="indefinite" keyTimes="0;.209;.391;.678;1" values="485.352,273.002;485.352,273.002;485.331,273.007;485.352,273.002;485.352,273.002" keySplines=".436 0 .282 1;.429 0 .689 1;.232 .821 .465 1;0 0 1 1" calcMode="spline" fill="freeze"/><animateTransform attributeName="transform" additive="sum" type="scale" dur="1.198s" repeatCount="indefinite" keyTimes="0;.209;.391;.678;1" values=".505,.505;.505,.505;.524,.524;.505,.505;.505,.505" keySplines=".436 0 .282 1;.429 0 .689 1;.232 .821 .465 1;0 0 1 1" calcMode="spline" fill="freeze"/><animateTransform attributeName="transform" additive="sum" type="translate" dur="1.198s" repeatCount="indefinite" keyTimes="0;.209;.391;.678;1" values="-.3,-.3;-.3,-.3;-.25,-.3;-.3,-.3;-.3,-.3" keySplines=".436 0 .282 1;.429 0 .689 1;.232 .821 .465 1;0 0 1 1" calcMode="spline" fill="freeze"/><path fill="#141414" stroke="none" d="M-404.8 -958.3Q-497.65 -919 -580.7 -863 -663.7 -807.05 -735.4 -735.4 -807.05 -663.75 -863 -580.75 -919 -497.7 -958.25 -404.8 -998.95 -308.65 -1019.45 -206.95 -1040 -105.3 -1040 0 -1040 105.3 -1019.45 207 -998.95 308.7 -958.25 404.85 -919 497.7 -863 580.75 -807.05 663.75 -735.4 735.45 -663.7 807.1 -580.7 863.05 -497.65 919.05 -404.8 958.3 -308.65 999 -206.95 1019.5 -105.25 1040.05 .05 1040.05 105.35 1040.05 207.05 1019.5 308.7 999 404.85 958.3 497.75 919.05 580.8 863.05 663.8 807.1 735.45 735.45 807.1 663.75 863.05 580.75 919.05 497.75 958.35 404.85 999 308.7 1019.55 207 1040.05 105.3 1040.05 0 1040.05 -105.3 1019.55 -206.95 999 -308.65 958.35 -404.8 919.05 -497.7 863.05 -580.75 807.05 -663.8 735.45 -735.4 663.85 -807 580.8 -863 497.75 -919 404.85 -958.3 308.7 -998.95 207.05 -1019.45 105.35 -1040 .05 -1040 -105.25 -1040 -206.95 -1019.45 -308.65 -998.95 -404.8 -958.3M-579.6 -861.35Q-496.7 -917.25 -404 -956.45 -308 -997.05 -206.55 -1017.5 -105.05 -1038 .05 -1038 105.1 -1038 206.6 -1017.5 308.1 -997.05 404.1 -956.45 496.8 -917.25 579.65 -861.35 662.55 -805.5 734.05 -734 805.55 -662.5 861.4 -579.6 917.3 -496.75 956.5 -404.05 997.1 -308.05 1017.55 -206.55 1038.05 -105.05 1038.05 0 1038.05 105.1 1017.55 206.6 997.1 308.1 956.5 404.05 917.25 496.75 861.4 579.65 805.5 662.55 734.05 734 662.55 805.5 579.65 861.4 496.8 917.25 404.1 956.5 308.1 997.1 206.6 1017.55 105.1 1038.05 .05 1038.05 -105.05 1038.05 -206.55 1017.55 -308 997.1 -404 956.5 -496.75 917.3 -579.6 861.4 -662.45 805.5 -733.95 734 -805.45 662.55 -861.35 579.65 -917.2 496.8 -956.45 404.05 -997.05 308.1 -1017.5 206.6 -1038 105.1 -1038 0 -1038 -105.05 -1017.5 -206.55 -997.05 -308.05 -956.45 -404.05 -917.2 -496.75 -861.35 -579.6 -805.45 -662.5 -733.95 -734 -662.45 -805.5 -579.6 -861.35Z" test="Анимация 5"/></g><g id=".__D0.__90.__D0.__BD.__D0.__B8.__D0.__BC.__D0.__B0.__D1.__86.__D0.__B8.__D1.__8F-2" transform="matrix(.505 0 0 .505 485.2 272.85)"><animateTransform attributeName="transform" additive="replace" type="translate" dur="1.198s" repeatCount="indefinite" keyTimes="0;.217;.4;.687;1" values="485.352,273.002;485.352,273.002;485.357,272.981;485.352,273.002;485.352,273.002" keySplines=".436 0 .282 1;.429 0 .689 1;.232 .821 .465 1;0 0 1 1" calcMode="spline" fill="freeze"/><animateTransform attributeName="transform" additive="sum" type="scale" dur="1.198s" repeatCount="indefinite" keyTimes="0;.217;.4;.687;1" values=".505,.505;.505,.505;.524,.524;.505,.505;.505,.505" keySplines=".436 0 .282 1;.429 0 .689 1;.232 .821 .465 1;0 0 1 1" calcMode="spline" fill="freeze"/><animateTransform attributeName="transform" additive="sum" type="translate" dur="1.198s" repeatCount="indefinite" keyTimes="0;.217;.4;.687;1" values="-.3,-.3;-.3,-.3;-.3,-.25;-.3,-.3;-.3,-.3" keySplines=".436 0 .282 1;.429 0 .689 1;.232 .821 .465 1;0 0 1 1" calcMode="spline" fill="freeze"/><path fill="#141414" stroke="none" d="M-419.9 -994.05Q-516.35 -953.2 -603.15 -894.55 -689.2 -836.45 -762.8 -762.85 -836.5 -689.1 -894.55 -603.2 -953.25 -516.25 -994 -419.9 -1036.2 -320.1 -1057.5 -214.7 -1078.8 -109.2 -1078.8 0 -1078.8 109.25 -1057.5 214.7 -1036.2 320.2 -994 419.95 -953.2 516.3 -894.55 603.2 -836.35 689.3 -762.8 762.85 -689.25 836.4 -603.15 894.6 -516.25 953.25 -419.9 994.05 -320.15 1036.25 -214.65 1057.55 -109.15 1078.85 .05 1078.85 109.3 1078.85 214.75 1057.55 320.2 1036.25 419.95 994.05 516.3 953.3 603.25 894.6 689.15 836.55 762.9 762.85 836.45 689.3 894.65 603.2 953.3 516.3 994.1 419.95 1036.3 320.2 1057.55 214.7 1078.85 109.25 1078.85 0 1078.85 -109.25 1057.55 -214.7 1036.3 -320.15 994.1 -419.9 953.35 -516.25 894.65 -603.2 836.6 -689.05 762.9 -762.85 689.05 -836.6 603.25 -894.55 516.4 -953.25 419.95 -994.05 320.2 -1036.25 214.75 -1057.5 109.3 -1078.8 .05 -1078.8 -109.2 -1078.8 -214.65 -1057.5 -320.15 -1036.25 -419.9 -994.05M-602 -892.9Q-515.35 -951.45 -419.1 -992.2 -319.55 -1034.3 -214.25 -1055.55 -109 -1076.8 .05 -1076.8 109.1 -1076.8 214.35 -1055.55 319.65 -1034.3 419.2 -992.2 515.45 -951.45 602.1 -892.9 687.85 -835.05 761.5 -761.45 835.1 -687.75 892.95 -602.05 951.5 -515.4 992.25 -419.15 1034.35 -319.6 1055.6 -214.3 1076.85 -109 1076.85 0 1076.85 109.05 1055.6 214.3 1034.35 319.6 992.25 419.15 951.5 515.4 892.95 602.05 835.1 687.75 761.5 761.45 687.9 834.95 602.1 892.95 515.05 951.7 419.2 992.2 319.65 1034.3 214.35 1055.6 109.05 1076.85 .05 1076.85 -108.95 1076.85 -214.25 1055.6 -319.5 1034.3 -419.1 992.2 -514.95 951.7 -602 892.95 -687.8 835 -761.4 761.45 -834.9 687.85 -892.9 602.05 -951.65 515 -992.15 419.15 -1034.25 319.55 -1055.55 214.3 -1076.8 109.05 -1076.8 0 -1076.8 -109 -1055.55 -214.3 -1034.25 -319.55 -992.15 -419.15 -951.65 -515 -892.9 -602.05 -834.9 -687.85 -761.4 -761.45 -687.7 -835.05 -602 -892.9Z" test="Анимация 3"/></g><g id=".__D0.__90.__D0.__BD.__D0.__B8.__D0.__BC.__D0.__B0.__D1.__86.__D0.__B8.__D1.__8F-1" transform="matrix(.505 0 0 .505 485.2 272.85)"><animateTransform attributeName="transform" additive="replace" type="translate" dur="1.198s" repeatCount="indefinite" keyTimes="0;.226;.409;.696;1" values="485.352,273.002;485.352,273.002;485.357,273.007;485.352,273.002;485.352,273.002" keySplines=".436 0 .282 1;.429 0 .689 1;.232 .821 .465 1;0 0 1 1" calcMode="spline" fill="freeze"/><animateTransform attributeName="transform" additive="sum" type="scale" dur="1.198s" repeatCount="indefinite" keyTimes="0;.226;.409;.696;1" values=".505,.505;.505,.505;.524,.524;.505,.505;.505,.505" keySplines=".436 0 .282 1;.429 0 .689 1;.232 .821 .465 1;0 0 1 1" calcMode="spline" fill="freeze"/><animateTransform attributeName="transform" additive="sum" type="translate" dur="1.198s" repeatCount="indefinite" keyTimes="0;1" values="-.3,-.3;-.3,-.3" keySplines=".436 0 .282 1" calcMode="spline" fill="freeze"/><path fill="#141414" stroke="none" d="M-435 -1029.75Q-534.55 -987.65 -624.85 -926.7 -713.85 -866.6 -790.25 -790.25 -866.4 -714.1 -926.75 -624.85 -987.65 -534.7 -1029.8 -435 -1073.5 -331.65 -1095.55 -222.4 -1117.6 -113.1 -1117.6 .05 -1117.6 113.2 -1095.55 222.45 -1073.5 331.75 -1029.8 435.1 -987.7 534.65 -926.75 624.9 -866.45 714.15 -790.25 790.35 -714.1 866.5 -624.85 926.8 -534.55 987.75 -435 1029.85 -331.7 1073.55 -222.4 1095.6 -113.15 1117.65 0 1117.65 113.15 1117.65 222.45 1095.6 331.7 1073.55 435.05 1029.85 534.75 987.7 624.9 926.8 714.1 866.5 790.3 790.35 866.75 713.85 926.75 624.9 987.55 534.95 1029.8 435.1 1073.5 331.75 1095.6 222.45 1117.65 113.2 1117.65 .05 1117.65 -113.1 1095.6 -222.4 1073.55 -331.65 1029.8 -435 987.5 -535 926.75 -624.85 866.7 -713.8 790.3 -790.25 713.85 -866.6 624.9 -926.7 534.75 -987.6 435.05 -1029.75 331.7 -1073.45 222.45 -1095.55 113.2 -1117.6 0 -1117.6 -113.15 -1117.6 -222.4 -1095.55 -331.7 -1073.45 -435 -1029.75M-623.75 -925.05Q-533.85 -985.8 -434.25 -1027.9 -331.1 -1071.55 -222 -1093.55 -112.95 -1115.6 0 -1115.6 112.95 -1115.6 222 -1093.55 331.1 -1071.55 434.25 -1027.9 533.85 -985.8 623.75 -925.05 712.8 -864.95 788.85 -788.8 865 -712.75 925.1 -623.7 985.85 -533.8 1027.95 -434.2 1071.6 -331.05 1093.65 -221.95 1115.65 -112.9 1115.65 .05 1115.65 113 1093.65 222.05 1071.6 331.15 1027.95 434.3 985.85 533.9 925.1 623.8 865 712.85 788.85 788.9 712.8 865.05 623.75 925.15 533.85 985.9 434.25 1028 331.1 1071.65 222 1093.65 113 1115.65 0 1115.65 -113 1115.65 -222 1093.65 -331.1 1071.65 -434.25 1028 -533.85 985.9 -623.75 925.15 -712.95 864.9 -788.85 788.9 -865 712.85 -925.1 623.8 -985.85 533.9 -1027.95 434.3 -1071.55 331.15 -1093.6 222.05 -1115.6 113 -1115.6 .05 -1115.6 -112.9 -1093.6 -221.95 -1071.55 -331 -1027.95 -434.2 -985.85 -533.8 -925.1 -623.7 -865 -712.75 -788.85 -788.8 -712.95 -864.8 -623.75 -925.05Z" test="Анимация 1"/></g></g></svg>