<svg xmlns="http://www.w3.org/2000/svg" width="46" height="58" viewBox="0 0 46 58"><path fill="#ff8400" d="M23.13 1c8.36 0 15.14 7.18 15.14 16.04s-6.78 16.04-15.14 16.04C14.78 33.08 8 25.9 8 17.04S14.78 1 23.13 1zm13.64 55.09a14.5 14.5 0 0 1-4.35 1.23s-25.72 3.71-30.4-6.2c-4.67-9.91 8.19-22.3 8.19-22.3s3.51 5.64 11.69 6.2c8.18.55 14.03-6.2 14.03-6.2s2.47 3.65 4.62 8.13a8.5 8.5 0 0 0-.4-.02c-5.16 0-9.35 4.44-9.35 9.92 0 4.2 2.48 7.8 5.97 9.24zM46 46.85a1.2 1.2 0 0 1-1.17 1.24h-3.51v3.71a1.2 1.2 0 0 1-1.17 1.24c-.64 0-1.17-.55-1.17-1.24V48.1h-3.5a1.2 1.2 0 0 1-1.17-1.24c0-.69.52-1.24 1.17-1.24h3.5v-3.72c0-.68.53-1.24 1.17-1.24.65 0 1.17.56 1.17 1.24v3.72h3.51c.65 0 1.17.55 1.17 1.24z"/></svg>