<svg width="52" height="60" viewBox="0 0 52 60" version="1.1" xmlns="http://www.w3.org/2000/svg" xmlns:xlink="http://www.w3.org/1999/xlink">
<title>7</title>
<desc>Created using Figma</desc>
<g id="Canvas" transform="translate(-532 -470)">
<g id="7">
<g id="Polygon Copy 30">
<mask id="mask0_outline_ins">
<use xlink:href="#path0_fill" fill="white" transform="translate(528 470)"/>
</mask>
<g mask="url(#mask0_outline_ins)">
<use xlink:href="#path1_stroke_2x" transform="translate(528 470)" fill="#FFFFFF"/>
</g>
</g>
<g id="noun_1305935_cc">
<g id="Group">
<g id="Oval 2">
<use xlink:href="#path2_stroke" transform="translate(545 488)" fill="#FFFFFF"/>
</g>
<g id="Shape">
<use xlink:href="#path3_fill" transform="translate(554.171 494)" fill="#FFFFFF"/>
</g>
</g>
</g>
</g>
</g>
<defs>
<path id="path0_fill" fill-rule="evenodd" d="M 29.8551 0L 55.7104 15L 55.7104 45L 29.8551 60L 3.99982 45L 3.99982 15L 29.8551 0Z"/>
<path id="path1_stroke_2x" d="M 29.8551 0L 30.8587 -1.72995L 29.8551 -2.31221L 28.8515 -1.72995L 29.8551 0ZM 55.7104 15L 57.7104 15L 57.7104 13.8481L 56.714 13.2701L 55.7104 15ZM 55.7104 45L 56.714 46.7299L 57.7104 46.1519L 57.7104 45L 55.7104 45ZM 29.8551 60L 28.8515 61.7299L 29.8551 62.3122L 30.8587 61.7299L 29.8551 60ZM 3.99982 45L 1.99982 45L 1.99982 46.1519L 2.99619 46.7299L 3.99982 45ZM 3.99982 15L 2.99619 13.2701L 1.99982 13.8481L 1.99982 15L 3.99982 15ZM 28.8515 1.72995L 54.7067 16.7299L 56.714 13.2701L 30.8587 -1.72995L 28.8515 1.72995ZM 53.7104 15L 53.7104 45L 57.7104 45L 57.7104 15L 53.7104 15ZM 54.7067 43.2701L 28.8515 58.2701L 30.8587 61.7299L 56.714 46.7299L 54.7067 43.2701ZM 30.8587 58.2701L 5.00346 43.2701L 2.99619 46.7299L 28.8515 61.7299L 30.8587 58.2701ZM 5.99982 45L 5.99982 15L 1.99982 15L 1.99982 45L 5.99982 45ZM 5.00346 16.7299L 30.8587 1.72995L 28.8515 -1.72995L 2.99619 13.2701L 5.00346 16.7299Z"/>
<path id="path2_stroke" d="M 12.5 25.5C 19.6797 25.5 25.5 19.6797 25.5 12.5L 24.5 12.5C 24.5 19.1274 19.1274 24.5 12.5 24.5L 12.5 25.5ZM 25.5 12.5C 25.5 5.3203 19.6797 -0.5 12.5 -0.5L 12.5 0.5C 19.1274 0.5 24.5 5.87258 24.5 12.5L 25.5 12.5ZM 12.5 -0.5C 5.3203 -0.5 -0.5 5.3203 -0.5 12.5L 0.5 12.5C 0.5 5.87258 5.87258 0.5 12.5 0.5L 12.5 -0.5ZM -0.5 12.5C -0.5 19.6797 5.3203 25.5 12.5 25.5L 12.5 24.5C 5.87258 24.5 0.5 19.1274 0.5 12.5L -0.5 12.5Z"/>
<path id="path3_fill" fill-rule="evenodd" d="M 6.18622 6.25381C 6.73285 5.7572 7.07867 5.043 7.07867 4.24796C 7.07867 2.75226 5.86176 1.53506 4.36554 1.53506L 4.1543 1.53506L 4.1543 0L 2.92407 0L 2.92407 1.53506L 0 1.53506L 0 5.98248L 0 6.96109L 0 11.6602L 2.92438 11.6602L 2.92438 13.1952L 4.1546 13.1952L 4.1546 11.6602L 5.0119 11.6602C 6.50757 11.6602 7.72479 10.4432 7.72479 8.94727L 7.72479 8.69537C 7.72479 7.62076 7.09491 6.69272 6.18622 6.25381ZM 1.23047 2.76556L 4.36578 2.76556C 5.18341 2.76556 5.84869 3.43054 5.84869 4.24823C 5.84869 5.06589 5.18341 5.73114 4.36578 5.73114L 1.23047 5.73114L 1.23047 2.76556ZM 5.01184 10.4302C 5.82953 10.4302 6.49451 9.7652 6.49451 8.94754L 6.49451 8.69565C 6.49451 7.87796 5.82953 7.21298 5.01184 7.21298L 1.23047 7.21298L 1.23047 10.4302L 5.01184 10.4302Z"/>
</defs>
</svg>
