<svg width="52" height="60" viewBox="0 0 52 60" version="1.1" xmlns="http://www.w3.org/2000/svg" xmlns:xlink="http://www.w3.org/1999/xlink">
<title>1</title>
<desc>Created using Figma</desc>
<g id="Canvas" transform="translate(-532 -550)">
<g id="1">
<g id="Polygon Copy 31">
<mask id="mask0_outline_ins">
<use xlink:href="#path0_fill" fill="white" transform="translate(528 550)"/>
</mask>
<g mask="url(#mask0_outline_ins)">
<use xlink:href="#path1_stroke_2x" transform="translate(528 550)" fill="#FFFFFF"/>
</g>
</g>
<g id="Fill 7422">
<g id="Fill 7422">
<use xlink:href="#path2_fill" transform="translate(552 570)" fill="#FFFFFF"/>
</g>
</g>
</g>
</g>
<defs>
<path id="path0_fill" fill-rule="evenodd" d="M 29.8551 0L 55.7104 15L 55.7104 45L 29.8551 60L 3.99982 45L 3.99982 15L 29.8551 0Z"/>
<path id="path1_stroke_2x" d="M 29.8551 0L 30.8587 -1.72995L 29.8551 -2.31221L 28.8515 -1.72995L 29.8551 0ZM 55.7104 15L 57.7104 15L 57.7104 13.8481L 56.714 13.2701L 55.7104 15ZM 55.7104 45L 56.714 46.7299L 57.7104 46.1519L 57.7104 45L 55.7104 45ZM 29.8551 60L 28.8515 61.7299L 29.8551 62.3122L 30.8587 61.7299L 29.8551 60ZM 3.99982 45L 1.99982 45L 1.99982 46.1519L 2.99619 46.7299L 3.99982 45ZM 3.99982 15L 2.99619 13.2701L 1.99982 13.8481L 1.99982 15L 3.99982 15ZM 28.8515 1.72995L 54.7067 16.7299L 56.714 13.2701L 30.8587 -1.72995L 28.8515 1.72995ZM 53.7104 15L 53.7104 45L 57.7104 45L 57.7104 15L 53.7104 15ZM 54.7067 43.2701L 28.8515 58.2701L 30.8587 61.7299L 56.714 46.7299L 54.7067 43.2701ZM 30.8587 58.2701L 5.00346 43.2701L 2.99619 46.7299L 28.8515 61.7299L 30.8587 58.2701ZM 5.99982 45L 5.99982 15L 1.99982 15L 1.99982 45L 5.99982 45ZM 5.00346 16.7299L 30.8587 1.72995L 28.8515 -1.72995L 2.99619 13.2701L 5.00346 16.7299Z"/>
<path id="path2_fill" fill-rule="evenodd" d="M 10.4167 3.33333C 10.6475 3.33333 10.8333 3.15 10.8333 2.91667L 10.8333 0.416667C 10.8333 0.191667 10.6475 0 10.4167 0L 7.9625 0C 5.49667 0 3.33333 1.96667 3.33333 4.20917L 3.33333 7.5L 0.416667 7.5C 0.1875 7.5 0 7.69167 0 7.91667L 0 11.25C 0 11.4842 0.1875 11.6667 0.416667 11.6667L 3.33333 11.6667L 3.33333 19.5833C 3.33333 19.8175 3.52083 20 3.75 20L 6.25 20C 6.48083 20 6.66667 19.8175 6.66667 19.5833L 6.66667 11.6667L 9.3975 11.6667C 9.58333 11.6667 9.74583 11.5417 9.79833 11.3667L 10.755 8.03333C 10.7917 7.90917 10.7667 7.775 10.6883 7.66667C 10.6083 7.5675 10.4867 7.5 10.355 7.5L 6.66667 7.5L 6.66667 4.925C 6.66667 4.175 8.00917 3.33333 8.91917 3.33333L 10.4167 3.33333Z"/>
</defs>
</svg>
