<svg width="52" height="60" viewBox="0 0 52 60" version="1.1" xmlns="http://www.w3.org/2000/svg" xmlns:xlink="http://www.w3.org/1999/xlink">
<title>4</title>
<desc>Created using Figma</desc>
<g id="Canvas" transform="translate(-532 -790)">
<g id="4">
<g id="Group 8">
<g id="bottom + Oval 12 + Oval 13 + Oval 13 + Oval 13 + Oval 13 Mask">
<g id="Mask">
<mask id="mask0_outline_ins">
<use xlink:href="#path0_fill" fill="white" transform="translate(527.988 790)"/>
</mask>
<g mask="url(#mask0_outline_ins)">
<use xlink:href="#path1_stroke_2x" transform="translate(527.988 790)" fill="#FFFFFF"/>
</g>
</g>
<mask id="mask1_outline" mask-type="alpha">
<g id="Mask">
<use xlink:href="#path0_fill" transform="translate(527.988 790)" fill="#FFFFFF"/>
<mask id="mask2_outline_ins">
<use xlink:href="#path0_fill" fill="white" transform="translate(527.988 790)"/>
</mask>
<g mask="url(#mask2_outline_ins)">
<use xlink:href="#path1_stroke_2x" transform="translate(527.988 790)" fill="#FFFFFF"/>
</g>
</g>
</mask>
</g>
</g>
<g id="noun_1346071_cc">
<g id="Group">
<g id="Shape">
<use xlink:href="#path2_fill" transform="translate(548 809.286)" fill="#FFFFFF"/>
</g>
</g>
</g>
</g>
</g>
<defs>
<path id="path0_fill" fill-rule="evenodd" d="M 29.9494 0L 55.8863 15L 55.8863 45L 29.9494 60L 4.01246 45L 4.01246 15L 29.9494 0Z"/>
<path id="path1_stroke_2x" d="M 29.9494 0L 30.9507 -1.73132L 29.9494 -2.31038L 28.9481 -1.73132L 29.9494 0ZM 55.8863 15L 57.8863 15L 57.8863 13.8463L 56.8876 13.2687L 55.8863 15ZM 55.8863 45L 56.8876 46.7313L 57.8863 46.1537L 57.8863 45L 55.8863 45ZM 29.9494 60L 28.9481 61.7313L 29.9494 62.3104L 30.9507 61.7313L 29.9494 60ZM 4.01246 45L 2.01246 45L 2.01246 46.1537L 3.01119 46.7313L 4.01246 45ZM 4.01246 15L 3.01119 13.2687L 2.01246 13.8463L 2.01246 15L 4.01246 15ZM 28.9481 1.73132L 54.885 16.7313L 56.8876 13.2687L 30.9507 -1.73132L 28.9481 1.73132ZM 53.8863 15L 53.8863 45L 57.8863 45L 57.8863 15L 53.8863 15ZM 54.885 43.2687L 28.9481 58.2687L 30.9507 61.7313L 56.8876 46.7313L 54.885 43.2687ZM 30.9507 58.2687L 5.01372 43.2687L 3.01119 46.7313L 28.9481 61.7313L 30.9507 58.2687ZM 6.01246 45L 6.01246 15L 2.01246 15L 2.01246 45L 6.01246 45ZM 5.01372 16.7313L 30.9507 1.73132L 28.9481 -1.73132L 3.01119 13.2687L 5.01372 16.7313Z"/>
<path id="path2_fill" fill-rule="evenodd" d="M 4.85712 0C 2.18109 0 0 2.18109 0 4.85712L 0 15.1429C 0 17.8189 2.18109 20 4.85712 20L 15.1429 20C 17.8189 20 20 17.8189 20 15.1429L 20 4.85712C 20 2.18109 17.8189 0 15.1429 0L 4.85712 0ZM 4.85718 1.71429L 15.1429 1.71429C 16.8989 1.71429 18.2857 3.1012 18.2857 4.85712L 18.2857 15.1429C 18.2857 16.8989 16.8989 18.2857 15.1429 18.2857L 4.85718 18.2857C 3.1012 18.2857 1.71429 16.8989 1.71429 15.1429L 1.71429 4.85712C 1.71429 3.1012 3.1012 1.71429 4.85718 1.71429ZM 14.5714 4.57147C 14.5714 3.94025 15.0831 3.42859 15.7143 3.42859C 16.3455 3.42859 16.8571 3.94025 16.8571 4.57147C 16.8571 5.20264 16.3455 5.71429 15.7143 5.71429C 15.0831 5.71429 14.5714 5.20264 14.5714 4.57147ZM 10 5.14282C 7.32764 5.14282 5.14288 7.32758 5.14288 10C 5.14288 12.6724 7.32764 14.8571 10 14.8571C 12.6724 14.8571 14.8572 12.6724 14.8572 10C 14.8572 7.32758 12.6724 5.14282 10 5.14282ZM 13.1428 10C 13.1428 8.25409 11.7459 6.85712 10 6.85712C 8.25409 6.85712 6.85712 8.25409 6.85712 10C 6.85712 11.7458 8.25409 13.1428 10 13.1428C 11.7459 13.1428 13.1428 11.7458 13.1428 10Z"/>
</defs>
</svg>
