<svg width="52" height="60" viewBox="0 0 52 60" version="1.1" xmlns="http://www.w3.org/2000/svg" xmlns:xlink="http://www.w3.org/1999/xlink">
<title>1</title>
<desc>Created using Figma</desc>
<g id="Canvas" transform="translate(-889 -310)">
<g id="1">
<g id="Polygon Copy 72">
<use xlink:href="#path0_fill" transform="translate(885 310)" fill="#AEAEAE"/>
<mask id="mask0_outline_ins">
<use xlink:href="#path0_fill" fill="white" transform="translate(885 310)"/>
</mask>
<g mask="url(#mask0_outline_ins)">
<use xlink:href="#path1_stroke_2x" transform="translate(885 310)" fill="#AEAEAE"/>
</g>
</g>
<g id="Fill 7427">
<use xlink:href="#path2_fill" transform="translate(905 334)" fill="#FFFFFF"/>
</g>
</g>
</g>
<defs>
<path id="path0_fill" fill-rule="evenodd" d="M 29.8551 0L 55.7104 15L 55.7104 45L 29.8551 60L 3.99982 45L 3.99982 15L 29.8551 0Z"/>
<path id="path1_stroke_2x" d="M 29.8551 0L 30.8587 -1.72995L 29.8551 -2.31221L 28.8515 -1.72995L 29.8551 0ZM 55.7104 15L 57.7104 15L 57.7104 13.8481L 56.714 13.2701L 55.7104 15ZM 55.7104 45L 56.714 46.7299L 57.7104 46.1519L 57.7104 45L 55.7104 45ZM 29.8551 60L 28.8515 61.7299L 29.8551 62.3122L 30.8587 61.7299L 29.8551 60ZM 3.99982 45L 1.99982 45L 1.99982 46.1519L 2.99619 46.7299L 3.99982 45ZM 3.99982 15L 2.99619 13.2701L 1.99982 13.8481L 1.99982 15L 3.99982 15ZM 28.8515 1.72995L 54.7067 16.7299L 56.714 13.2701L 30.8587 -1.72995L 28.8515 1.72995ZM 53.7104 15L 53.7104 45L 57.7104 45L 57.7104 15L 53.7104 15ZM 54.7067 43.2701L 28.8515 58.2701L 30.8587 61.7299L 56.714 46.7299L 54.7067 43.2701ZM 30.8587 58.2701L 5.00346 43.2701L 2.99619 46.7299L 28.8515 61.7299L 30.8587 58.2701ZM 5.99982 45L 5.99982 15L 1.99982 15L 1.99982 45L 5.99982 45ZM 5.00346 16.7299L 30.8587 1.72995L 28.8515 -1.72995L 2.99619 13.2701L 5.00346 16.7299Z"/>
<path id="path2_fill" fill-rule="evenodd" d="M 17.7075 9.86751C 17.9067 9.98418 17.9767 10.2417 17.8617 10.4425C 17.785 10.575 17.645 10.6508 17.5 10.6508C 17.4292 10.6508 17.3583 10.6333 17.2925 10.5917L 11.55 7.29168L 10.2592 8.31668C 10.2492 8.32501 10.2367 8.28418 10.2258 8.29251C 10.1575 8.33335 10.0833 8.33335 10.0025 8.33335L 9.99834 8.33335C 9.9175 8.33335 9.8425 8.33335 9.77334 8.29251C 9.76417 8.28418 9.75084 8.30835 9.74167 8.30001L 8.45084 7.28335L 2.7075 10.5917C 2.6425 10.625 2.57084 10.6508 2.50084 10.6508C 2.35667 10.6508 2.21584 10.575 2.13834 10.4425C 2.025 10.2417 2.09334 9.98418 2.2925 9.86751L 7.74584 6.74251L 2.24167 2.39168C 2.06167 2.25001 2.03084 1.98418 2.1725 1.80918C 2.31667 1.62501 2.57834 1.59168 2.75917 1.73335L 10 7.45835L 17.2417 1.73335C 17.4233 1.59168 17.685 1.62501 17.8275 1.80918C 17.97 1.98418 17.9392 2.25001 17.7592 2.39168L 12.2542 6.74251L 17.7075 9.86751ZM 19.5833 0L 0.416667 0C 0.1875 0 0 0.191667 0 0.416667L 0 12.0833C 0 12.3175 0.1875 12.5 0.416667 12.5L 19.5833 12.5C 19.8142 12.5 20 12.3175 20 12.0833L 20 0.416667C 20 0.191667 19.8142 0 19.5833 0Z"/>
</defs>
</svg>
