<svg width="52" height="60" viewBox="0 0 52 60" version="1.1" xmlns="http://www.w3.org/2000/svg" xmlns:xlink="http://www.w3.org/1999/xlink">
<title>2</title>
<desc>Created using Figma</desc>
<g id="Canvas" transform="translate(-532 -390)">
<g id="2">
<g id="Polygon Copy 72">
<mask id="mask0_outline_ins">
<use xlink:href="#path0_fill" fill="white" transform="translate(528 390)"/>
</mask>
<g mask="url(#mask0_outline_ins)">
<use xlink:href="#path1_stroke_2x" transform="translate(528 390)" fill="#FFFFFF"/>
</g>
</g>
<g id="noun_980709_cc">
<g id="Group">
<g id="Shape">
<use xlink:href="#path2_fill" transform="translate(548 412)" fill="#FFFFFF"/>
</g>
</g>
</g>
</g>
</g>
<defs>
<path id="path0_fill" fill-rule="evenodd" d="M 29.8551 0L 55.7104 15L 55.7104 45L 29.8551 60L 3.99982 45L 3.99982 15L 29.8551 0Z"/>
<path id="path1_stroke_2x" d="M 29.8551 0L 30.8587 -1.72995L 29.8551 -2.31221L 28.8515 -1.72995L 29.8551 0ZM 55.7104 15L 57.7104 15L 57.7104 13.8481L 56.714 13.2701L 55.7104 15ZM 55.7104 45L 56.714 46.7299L 57.7104 46.1519L 57.7104 45L 55.7104 45ZM 29.8551 60L 28.8515 61.7299L 29.8551 62.3122L 30.8587 61.7299L 29.8551 60ZM 3.99982 45L 1.99982 45L 1.99982 46.1519L 2.99619 46.7299L 3.99982 45ZM 3.99982 15L 2.99619 13.2701L 1.99982 13.8481L 1.99982 15L 3.99982 15ZM 28.8515 1.72995L 54.7067 16.7299L 56.714 13.2701L 30.8587 -1.72995L 28.8515 1.72995ZM 53.7104 15L 53.7104 45L 57.7104 45L 57.7104 15L 53.7104 15ZM 54.7067 43.2701L 28.8515 58.2701L 30.8587 61.7299L 56.714 46.7299L 54.7067 43.2701ZM 30.8587 58.2701L 5.00346 43.2701L 2.99619 46.7299L 28.8515 61.7299L 30.8587 58.2701ZM 5.99982 45L 5.99982 15L 1.99982 15L 1.99982 45L 5.99982 45ZM 5.00346 16.7299L 30.8587 1.72995L 28.8515 -1.72995L 2.99619 13.2701L 5.00346 16.7299Z"/>
<path id="path2_fill" fill-rule="evenodd" d="M 18.4879 0.152893C 18.5251 0.13797 18.5649 0.120575 18.6047 0.105652C 19.4648 -0.212555 20.0217 0.187683 19.9993 1.31134C 19.9075 1.74725 19.796 2.28625 19.6773 2.85272C 19.6322 3.06805 19.586 3.28735 19.5394 3.50644C 18.6992 7.479 17.8589 11.454 17.0162 15.4266C 16.969 15.6479 16.9193 15.8666 16.8422 16.0779C 16.5836 16.779 16.0715 16.9878 15.4028 16.6547C 15.0552 16.4827 14.7502 16.2461 14.446 16.0102C 14.3281 15.9187 14.2103 15.8273 14.0902 15.7398C 13.066 14.9966 12.0493 14.2458 11.0449 13.4776C 10.7491 13.2514 10.5552 13.2688 10.2991 13.5348C 9.75354 14.104 9.18774 14.6508 8.62097 15.1985L 8.53162 15.2849C 8.37994 15.4291 8.21838 15.5733 8.03693 15.6752C 7.4751 15.9934 7.02759 15.8045 6.84363 15.1954C 6.33405 13.5124 5.81696 11.8344 5.31476 10.1514C 5.24518 9.92023 5.12085 9.8009 4.89716 9.73376L 4.71112 9.67673C 3.44287 9.28802 2.17291 8.89877 0.909668 8.49826C 0.860657 8.48288 0.809875 8.46838 0.758484 8.4537C 0.410645 8.35443 0.034729 8.24713 0.0022583 7.80963C -0.0355835 7.31213 0.405151 7.13974 0.773682 6.99554L 0.827637 6.97437C 2.57831 6.28387 4.33405 5.60681 6.0907 4.92938C 6.47174 4.78244 6.85284 4.6355 7.23395 4.4884C 10.9852 3.04156 14.7366 1.59723 18.4879 0.152893ZM 7.24634 15.5807C 7.83307 16.2992 7.69629 11.0787 7.69629 11.0787L 16.4096 3.16833C 16.4295 2.49216 15.2984 3.35727 15.2984 3.35727L 5.41669 9.75864C 5.41669 9.75864 5.98102 11.2353 6.61243 13.5C 7.09015 15.2114 7.08978 15.3711 7.164 15.48C 7.18323 15.5083 7.20746 15.5331 7.24634 15.5807Z"/>
</defs>
</svg>
