<svg width="52" height="60" viewBox="0 0 52 60" version="1.1" xmlns="http://www.w3.org/2000/svg" xmlns:xlink="http://www.w3.org/1999/xlink">
<title>3</title>
<desc>Created using Figma</desc>
<g id="Canvas" transform="translate(-889 -710)">
<g id="3">
<g id="Polygon Copy 4">
<use xlink:href="#path0_fill" transform="translate(885 710)" fill="#CA3737"/>
<mask id="mask0_outline_ins">
<use xlink:href="#path0_fill" fill="white" transform="translate(885 710)"/>
</mask>
<g mask="url(#mask0_outline_ins)">
<use xlink:href="#path1_stroke_2x" transform="translate(885 710)" fill="#CA3737"/>
</g>
</g>
<g id="Fill 7268 + Fill 7269">
<g id="Fill 7269">
<use xlink:href="#path2_fill" transform="translate(905 733)" fill="#FFFFFF"/>
</g>
</g>
</g>
</g>
<defs>
<path id="path0_fill" fill-rule="evenodd" d="M 29.8551 0L 55.7104 15L 55.7104 45L 29.8551 60L 3.99982 45L 3.99982 15L 29.8551 0Z"/>
<path id="path1_stroke_2x" d="M 29.8551 0L 30.8587 -1.72995L 29.8551 -2.31221L 28.8515 -1.72995L 29.8551 0ZM 55.7104 15L 57.7104 15L 57.7104 13.8481L 56.714 13.2701L 55.7104 15ZM 55.7104 45L 56.714 46.7299L 57.7104 46.1519L 57.7104 45L 55.7104 45ZM 29.8551 60L 28.8515 61.7299L 29.8551 62.3122L 30.8587 61.7299L 29.8551 60ZM 3.99982 45L 1.99982 45L 1.99982 46.1519L 2.99619 46.7299L 3.99982 45ZM 3.99982 15L 2.99619 13.2701L 1.99982 13.8481L 1.99982 15L 3.99982 15ZM 28.8515 1.72995L 54.7067 16.7299L 56.714 13.2701L 30.8587 -1.72995L 28.8515 1.72995ZM 53.7104 15L 53.7104 45L 57.7104 45L 57.7104 15L 53.7104 15ZM 54.7067 43.2701L 28.8515 58.2701L 30.8587 61.7299L 56.714 46.7299L 54.7067 43.2701ZM 30.8587 58.2701L 5.00346 43.2701L 2.99619 46.7299L 28.8515 61.7299L 30.8587 58.2701ZM 5.99982 45L 5.99982 15L 1.99982 15L 1.99982 45L 5.99982 45ZM 5.00346 16.7299L 30.8587 1.72995L 28.8515 -1.72995L 2.99619 13.2701L 5.00346 16.7299Z"/>
<path id="path2_fill" fill-rule="evenodd" d="M 13.3161 7.12273L 7.99973 9.46219C 7.94407 9.48046 7.88406 9.49698 7.82492 9.49698C 7.74143 9.49698 7.65968 9.47176 7.58749 9.42741C 7.46487 9.35 7.39008 9.20998 7.39008 9.06301L 7.39008 4.39191C 7.39008 4.24406 7.46487 4.10491 7.58749 4.02751C 7.71099 3.94924 7.8658 3.93967 7.99973 3.99186L 13.3161 6.33219C 13.4744 6.40089 13.5762 6.5583 13.5762 6.72268C 13.5762 6.89661 13.4744 7.05316 13.3161 7.12273ZM 19.757 3.15697C 19.6031 1.6785 18.1968 0.348745 16.6844 0.260906C 10.9897 -0.0869688 9.00856 -0.0869688 3.31297 0.260906C 1.80145 0.348745 0.395165 1.6785 0.2421 3.15697C -0.0805548 6.30524 -0.0805548 7.93242 0.24123 11.072C 0.395165 12.5496 1.80145 13.8802 3.31297 13.9759C 6.16207 14.1507 8.09799 14.2203 9.99913 14.2203C 11.9003 14.2203 13.8379 14.1507 16.6844 13.9759C 18.1985 13.8802 19.6066 12.5496 19.7596 11.072C 20.0806 7.93242 20.0806 6.30524 19.757 3.15697Z"/>
</defs>
</svg>
