<svg width="20" height="15" viewBox="0 0 20 15" fill="none" xmlns="http://www.w3.org/2000/svg">
<path fill-rule="evenodd" clip-rule="evenodd" d="M2.88281 10.4583C5.06934 11.8315 7.98975 11.5667 9.89209 9.66357C12.1031 7.45239 12.1031 3.86841 9.89209 1.65747C7.68213 -0.55249 4.09814 -0.55249 1.88708 1.65747C-0.00354004 3.5481 -0.277344 6.44263 1.06531 8.62427L0 11.519L2.88281 10.4583Z" transform="translate(0.000244141 2.9939)" fill="#7174FF"/>
<path fill-rule="evenodd" clip-rule="evenodd" d="M9.267 11.72C8.346 12.229 7.307 12.496 6.246 12.496C4.578 12.496 3.01 11.847 1.83 10.667C0.65 9.488 0 7.918 0 6.249C0 4.579 0.65 3.011 1.83 1.83C3.01 0.65 4.58 0 6.248 0C7.918 0 9.487 0.65 10.667 1.83C12.671 3.834 13.075 6.872 11.694 9.314L13.099 13.13L9.267 11.72Z" transform="translate(5.91003 0.587891)" fill="white"/>
<path fill-rule="evenodd" clip-rule="evenodd" d="M6.8335 0C5.0075 0 3.2905 0.711 1.9995 2.002C-0.6665 4.668 -0.6665 9.005 1.9995 11.671C3.2905 12.962 5.0055 13.673 6.8315 13.673C7.8995 13.673 8.9475 13.424 9.8945 12.95L12.2855 13.83L14.6755 14.709L13.7955 12.32L12.9215 9.945C13.5205 8.771 13.7715 7.428 13.6305 6.106C13.4665 4.561 12.7695 3.104 11.6675 2.002C10.3765 0.711 8.6595 0 6.8335 0ZM6.83347 1.17603C8.28247 1.17603 9.73047 1.72903 10.8365 2.83403C12.7385 4.73603 13.0025 7.65503 11.6305 9.84103L12.6915 12.727L9.79447 11.66C8.88947 12.218 7.86047 12.496 6.83147 12.496C5.38347 12.496 3.93547 11.944 2.83147 10.839C0.620468 8.62903 0.620468 5.04503 2.83147 2.83403C3.93647 1.72903 5.38447 1.17603 6.83347 1.17603Z" transform="translate(5.32495 0.000244141)" fill="#292EF1"/>
<path fill-rule="evenodd" clip-rule="evenodd" d="M1.247 0.623C1.247 0.968 0.968 1.246 0.623 1.246C0.279 1.246 0 0.968 0 0.623C0 0.279 0.279 0 0.623 0C0.968 0 1.247 0.279 1.247 0.623Z" transform="translate(9.19751 6.1936)" fill="#292EF1"/>
<path fill-rule="evenodd" clip-rule="evenodd" d="M1.247 0.623C1.247 0.968 0.968 1.246 0.624 1.246C0.28 1.246 0 0.968 0 0.623C0 0.279 0.28 0 0.624 0C0.968 0 1.247 0.279 1.247 0.623Z" transform="translate(11.4413 6.1936)" fill="#292EF1"/>
<path fill-rule="evenodd" clip-rule="evenodd" d="M1.246 0.623C1.246 0.968 0.967 1.246 0.623 1.246C0.279 1.246 0 0.968 0 0.623C0 0.279 0.279 0 0.623 0C0.967 0 1.246 0.279 1.246 0.623Z" transform="translate(13.6858 6.1936)" fill="#292EF1"/>
</svg>
