<svg width="583" height="327" viewBox="0 0 583 327" fill="none" xmlns="http://www.w3.org/2000/svg">
<path opacity="0.05" d="M0 0L271.5 271.5" transform="translate(142 40)" stroke="white"/>
<path opacity="0.05" d="M0 0L271.5 271.5" transform="translate(412.5 40) scale(-1 1)" stroke="white"/>
<path opacity="0.05" fill-rule="evenodd" clip-rule="evenodd" d="M50 100C77.6142 100 100 77.6142 100 50C100 22.3858 77.6142 0 50 0C22.3858 0 0 22.3858 0 50C0 77.6142 22.3858 100 50 100Z" transform="translate(227 126)" stroke="white"/>
<path opacity="0.05" fill-rule="evenodd" clip-rule="evenodd" d="M100 200C155.228 200 200 155.228 200 100C200 44.7715 155.228 0 100 0C44.7715 0 0 44.7715 0 100C0 155.228 44.7715 200 100 200Z" transform="translate(177 76)" stroke="white"/>
<path opacity="0.05" fill-rule="evenodd" clip-rule="evenodd" d="M150 300C232.843 300 300 232.843 300 150C300 67.1573 232.843 0 150 0C67.1573 0 0 67.1573 0 150C0 232.843 67.1573 300 150 300Z" transform="translate(127 26)" stroke="white"/>
<path fill-rule="evenodd" clip-rule="evenodd" d="M17.3858 0.564897L0.320782 22.0299C-0.151218 22.6229 -0.0952181 23.4699 0.441782 24.0039C19.5448 42.9939 31.6998 68.9779 32.7368 97.7419C32.7638 98.5029 33.3548 99.1229 34.1148 99.1729L61.4548 100.991C62.3218 101.048 63.0608 100.352 63.0478 99.4829C62.4438 60.5529 45.8508 25.4279 19.5798 0.406897C18.9478 -0.195103 17.9298 -0.118103 17.3858 0.564897Z" transform="translate(352.936 73.8635)" fill="#1CC5FF"/>
<path fill-rule="evenodd" clip-rule="evenodd" d="M139.922 249.332C80.98 249.286 32.174 202.019 30.327 143.106C28.49 84.5394 72.804 35.7364 129.576 30.3594C130.34 30.2864 130.926 29.6534 130.926 28.8864V1.49437C130.926 0.629365 130.188 -0.0616347 129.325 0.00436528C57.095 5.47537 0 66.0034 0 139.596C0 216.79 62.814 279.604 140.008 279.604C147.512 279.604 154.886 279.012 162.08 277.853C162.93 277.716 163.483 276.879 163.287 276.04L157.057 249.37C156.882 248.62 156.166 248.137 155.403 248.245C150.341 248.966 145.176 249.336 139.922 249.332Z" transform="translate(136 36)" fill="#292EF1"/>
<path fill-rule="evenodd" clip-rule="evenodd" d="M0 1.4957V28.9337C0 29.6927 0.574 30.3207 1.328 30.4027C18.951 32.3117 35.318 38.4077 49.44 47.6647C50.082 48.0857 50.936 47.9547 51.413 47.3527L68.435 25.9327C68.972 25.2567 68.827 24.2597 68.115 23.7737C48.834 10.6147 26.124 2.1387 1.618 0.00569923C0.749 -0.0703008 0 0.623699 0 1.4957Z" transform="translate(286.602 36.1086)" fill="#F12986"/>
<path fill-rule="evenodd" clip-rule="evenodd" d="M72.0848 1.24322C65.4368 40.6382 37.7318 72.9502 0.986757 86.1862C0.276757 86.4422 -0.132243 87.1822 0.0387566 87.9162L6.26976 114.646C6.46776 115.498 7.35976 116.003 8.18976 115.726C57.4448 99.2672 94.5888 56.1172 102.376 3.52222C102.503 2.66422 101.862 1.87822 100.996 1.82022L73.6408 0.00322346C72.8798 -0.0467765 72.2118 0.490223 72.0848 1.24322Z" transform="translate(312.126 192.68)" fill="#1CC5FF"/>
<path d="M11.88 8.08V5.82H0.26V8.08H4.86V20H7.26V8.08H11.88ZM13.3739 14.06C13.4539 13.02 14.2939 11.9 15.7539 11.9C17.3539 11.9 18.1139 12.92 18.1539 14.06H13.3739ZM18.4139 16.6C18.0939 17.56 17.3739 18.3 15.9739 18.3C14.5339 18.3 13.3739 17.24 13.3139 15.76H20.4339C20.4539 15.72 20.4939 15.4 20.4939 15.02C20.4939 11.94 18.7339 9.96 15.7339 9.96C13.2739 9.96 10.9939 12 10.9939 15.08C10.9939 18.38 13.3339 20.3 15.9739 20.3C18.3139 20.3 19.8539 18.92 20.3739 17.22L18.4139 16.6ZM22.1109 17.36C22.1109 18.9 23.3709 20.3 25.4109 20.3C26.9909 20.3 27.9509 19.5 28.4109 18.76C28.4109 19.54 28.4909 19.94 28.5109 20H30.6709C30.6509 19.9 30.5509 19.32 30.5509 18.44V13.6C30.5509 11.66 29.4109 9.96 26.4109 9.96C24.0109 9.96 22.4909 11.46 22.3109 13.14L24.4309 13.62C24.5309 12.64 25.2109 11.86 26.4309 11.86C27.7109 11.86 28.2709 12.52 28.2709 13.34C28.2709 13.68 28.1109 13.96 27.5509 14.04L25.0509 14.42C23.3909 14.66 22.1109 15.62 22.1109 17.36ZM25.8509 18.48C24.9309 18.48 24.4309 17.88 24.4309 17.22C24.4309 16.42 25.0109 16.02 25.7309 15.9L28.2709 15.52V15.96C28.2709 17.86 27.1509 18.48 25.8509 18.48ZM35.6555 20V14.22C35.6555 12.98 36.4355 12.06 37.6755 12.06C38.9955 12.06 39.5555 12.94 39.5555 14.06V20H41.8355V14.22C41.8355 13.02 42.6355 12.06 43.8555 12.06C45.1555 12.06 45.7355 12.92 45.7355 14.06V20H47.9755V13.68C47.9755 11.1 46.2955 9.98 44.5355 9.98C43.2755 9.98 42.1355 10.42 41.3755 11.7C40.8555 10.56 39.7355 9.98 38.4555 9.98C37.3555 9.98 36.1355 10.5 35.5755 11.5V10.26H33.3555V20H35.6555Z" transform="translate(340)" fill="white"/>
<path d="M8 20.3C11.62 20.3 13.78 18 14.42 15.6L12.22 14.88C11.74 16.48 10.38 18 8 18C5.58 18 3.3 16.24 3.3 12.92C3.3 9.48 5.64 7.78 7.98 7.78C10.36 7.78 11.68 9.16 12.1 10.88L14.36 10.12C13.72 7.64 11.58 5.52 7.98 5.52C4.3 5.52 0.84 8.3 0.84 12.92C0.84 17.54 4.18 20.3 8 20.3ZM22.6056 18.92C22.6056 19.32 22.6456 19.78 22.6856 20H24.9056C24.8656 19.64 24.8056 19.02 24.8056 18.22V10.26H22.4856V16.02C22.4856 17.3 21.7856 18.2 20.4456 18.2C19.0456 18.2 18.4856 17.18 18.4856 15.98V10.26H16.1656V16.4C16.1656 18.56 17.5256 20.28 19.8456 20.28C20.9856 20.28 22.1256 19.8 22.6056 18.92ZM30.1086 20V14.22C30.1086 12.98 30.8886 12.06 32.1286 12.06C33.4486 12.06 34.0086 12.94 34.0086 14.06V20H36.2886V14.22C36.2886 13.02 37.0886 12.06 38.3086 12.06C39.6086 12.06 40.1886 12.92 40.1886 14.06V20H42.4286V13.68C42.4286 11.1 40.7486 9.98 38.9886 9.98C37.7286 9.98 36.5886 10.42 35.8286 11.7C35.3086 10.56 34.1886 9.98 32.9086 9.98C31.8086 9.98 30.5886 10.5 30.0286 11.5V10.26H27.8086V20H30.1086ZM47.5695 20V14.22C47.5695 12.98 48.3495 12.06 49.5895 12.06C50.9095 12.06 51.4695 12.94 51.4695 14.06V20H53.7495V14.22C53.7495 13.02 54.5495 12.06 55.7695 12.06C57.0695 12.06 57.6495 12.92 57.6495 14.06V20H59.8895V13.68C59.8895 11.1 58.2095 9.98 56.4495 9.98C55.1895 9.98 54.0495 10.42 53.2895 11.7C52.7695 10.56 51.6495 9.98 50.3695 9.98C49.2695 9.98 48.0495 10.5 47.4895 11.5V10.26H45.2695V20H47.5695ZM68.9337 18.92C68.9337 19.32 68.9737 19.78 69.0137 20H71.2338C71.1937 19.64 71.1337 19.02 71.1337 18.22V10.26H68.8138V16.02C68.8138 17.3 68.1138 18.2 66.7738 18.2C65.3738 18.2 64.8138 17.18 64.8138 15.98V10.26H62.4938V16.4C62.4938 18.56 63.8537 20.28 66.1738 20.28C67.3137 20.28 68.4538 19.8 68.9337 18.92ZM76.4567 14.38C76.4567 13.1 77.1567 12.08 78.4767 12.08C79.9367 12.08 80.4767 13.04 80.4767 14.24V20H82.7967V13.84C82.7967 11.7 81.6567 9.98 79.2767 9.98C78.1967 9.98 77.0367 10.44 76.3967 11.56V10.26H74.1367V20H76.4567V14.38ZM87.9211 20V10.26H85.6211V20H87.9211ZM85.2611 6.84C85.2611 7.68 85.9411 8.34 86.7611 8.34C87.6011 8.34 88.2811 7.68 88.2811 6.84C88.2811 6 87.6011 5.32 86.7611 5.32C85.9411 5.32 85.2611 6 85.2611 6.84ZM93.8541 7.28H91.7541V8.74C91.7541 9.6 91.2941 10.26 90.2541 10.26H89.7541V12.32H91.5541V17.22C91.5541 19.04 92.6741 20.12 94.4741 20.12C95.3141 20.12 95.7541 19.96 95.8941 19.9V17.98C95.7941 18 95.4141 18.06 95.0941 18.06C94.2341 18.06 93.8541 17.7 93.8541 16.84V12.32H95.8741V10.26H93.8541V7.28ZM101.374 23.94L107.574 10.26H105.114L102.494 16.42L99.6941 10.26H97.0741L101.234 18.84L98.8941 23.94H101.374Z" transform="translate(0 73)" fill="white"/>
<path d="M10.6 20V17.72H4.1V5.82H1.7V20H10.6ZM14.8937 20V10.26H12.5938V20H14.8937ZM12.2338 6.84C12.2338 7.68 12.9137 8.34 13.7337 8.34C14.5737 8.34 15.2538 7.68 15.2538 6.84C15.2538 6 14.5737 5.32 13.7337 5.32C12.9137 5.32 12.2338 6 12.2338 6.84ZM17.1867 20.54C17.4467 22.5 19.2467 24.1 21.8267 24.1C25.4867 24.1 26.8267 21.68 26.8267 19.08V10.26H24.5867V11.5C24.1667 10.7 23.2267 10.08 21.7067 10.08C19.0267 10.08 17.2067 12.22 17.2067 14.82C17.2067 17.56 19.1067 19.56 21.7067 19.56C23.1267 19.56 24.1067 18.9 24.5267 18.14V19.16C24.5267 21.14 23.6067 22.08 21.7667 22.08C20.4267 22.08 19.4867 21.18 19.3267 19.98L17.1867 20.54ZM22.0867 17.58C20.5667 17.58 19.5467 16.52 19.5467 14.82C19.5467 13.16 20.6067 12.08 22.0867 12.08C23.5267 12.08 24.5867 13.16 24.5867 14.82C24.5867 16.5 23.5667 17.58 22.0867 17.58ZM31.9841 14.28C32.0241 13.04 32.7241 12.08 34.0041 12.08C35.4641 12.08 36.0041 13.04 36.0041 14.24V20H38.3241V13.84C38.3241 11.7 37.1641 9.98 34.7641 9.98C33.7441 9.98 32.6441 10.34 31.9841 11.2V5.52H29.6641V20H31.9841V14.28ZM44.0884 7.28H41.9884V8.74C41.9884 9.6 41.5284 10.26 40.4884 10.26H39.9884V12.32H41.7884V17.22C41.7884 19.04 42.9084 20.12 44.7084 20.12C45.5484 20.12 45.9884 19.96 46.1284 19.9V17.98C46.0284 18 45.6484 18.06 45.3284 18.06C44.4684 18.06 44.0884 17.7 44.0884 16.84V12.32H46.1084V10.26H44.0884V7.28ZM52.8141 17.36C52.8141 18.9 54.0741 20.3 56.1141 20.3C57.6941 20.3 58.6541 19.5 59.1141 18.76C59.1141 19.54 59.1941 19.94 59.2141 20H61.3741C61.3541 19.9 61.2541 19.32 61.2541 18.44V13.6C61.2541 11.66 60.1141 9.96 57.1141 9.96C54.7141 9.96 53.1941 11.46 53.0141 13.14L55.1341 13.62C55.2341 12.64 55.9141 11.86 57.1341 11.86C58.4141 11.86 58.9741 12.52 58.9741 13.34C58.9741 13.68 58.8141 13.96 58.2541 14.04L55.7541 14.42C54.0941 14.66 52.8141 15.62 52.8141 17.36ZM56.5541 18.48C55.6341 18.48 55.1341 17.88 55.1341 17.22C55.1341 16.42 55.7141 16.02 56.4341 15.9L58.9741 15.52V15.96C58.9741 17.86 57.8541 18.48 56.5541 18.48ZM66.3786 14.38C66.3786 13.1 67.0786 12.08 68.3986 12.08C69.8586 12.08 70.3986 13.04 70.3986 14.24V20H72.7186V13.84C72.7186 11.7 71.5786 9.98 69.1986 9.98C68.1186 9.98 66.9586 10.44 66.3186 11.56V10.26H64.0586V20H66.3786V14.38ZM77.103 15.1C77.103 13.24 78.223 12.06 79.743 12.06C81.263 12.06 82.303 13.22 82.303 15.08C82.303 16.94 81.243 18.2 79.723 18.2C78.143 18.2 77.103 16.96 77.103 15.1ZM84.543 5.52H82.283V11.4C81.983 10.78 81.123 10 79.423 10C76.683 10 74.783 12.3 74.783 15.1C74.783 18.04 76.663 20.24 79.463 20.24C80.843 20.24 81.863 19.56 82.323 18.74C82.323 19.14 82.383 19.78 82.423 20H84.643C84.623 19.84 84.543 19.1 84.543 18.22V5.52ZM91.6752 17.36C91.7952 18.46 92.8752 20.3 95.6952 20.3C98.1752 20.3 99.3752 18.66 99.3752 17.18C99.3752 15.74 98.4152 14.62 96.5752 14.22L95.0952 13.92C94.4952 13.8 94.1152 13.42 94.1152 12.9C94.1152 12.3 94.6952 11.78 95.5152 11.78C96.8152 11.78 97.2352 12.68 97.3152 13.24L99.2752 12.68C99.1152 11.72 98.2352 9.96 95.5152 9.96C93.4952 9.96 91.9352 11.4 91.9352 13.1C91.9352 14.44 92.8352 15.56 94.5552 15.94L95.9952 16.26C96.7752 16.42 97.1352 16.82 97.1352 17.34C97.1352 17.94 96.6352 18.46 95.6752 18.46C94.4352 18.46 93.7752 17.68 93.6952 16.8L91.6752 17.36ZM105.897 18.22C104.477 18.22 103.177 17.14 103.177 15.12C103.177 13.1 104.477 12.06 105.897 12.06C107.337 12.06 108.617 13.1 108.617 15.12C108.617 17.16 107.337 18.22 105.897 18.22ZM105.897 9.96C102.997 9.96 100.857 12.14 100.857 15.12C100.857 18.12 102.997 20.3 105.897 20.3C108.817 20.3 110.957 18.12 110.957 15.12C110.957 12.14 108.817 9.96 105.897 9.96ZM119.481 18.92C119.481 19.32 119.521 19.78 119.561 20H121.781C121.741 19.64 121.681 19.02 121.681 18.22V10.26H119.361V16.02C119.361 17.3 118.661 18.2 117.321 18.2C115.921 18.2 115.361 17.18 115.361 15.98V10.26H113.041V16.4C113.041 18.56 114.401 20.28 116.721 20.28C117.861 20.28 119.001 19.8 119.481 18.92ZM127.004 14.38C127.004 13.1 127.704 12.08 129.024 12.08C130.484 12.08 131.024 13.04 131.024 14.24V20H133.344V13.84C133.344 11.7 132.204 9.98 129.824 9.98C128.744 9.98 127.584 10.44 126.944 11.56V10.26H124.684V20H127.004V14.38ZM137.728 15.1C137.728 13.24 138.848 12.06 140.368 12.06C141.888 12.06 142.928 13.22 142.928 15.08C142.928 16.94 141.868 18.2 140.348 18.2C138.768 18.2 137.728 16.96 137.728 15.1ZM145.168 5.52H142.908V11.4C142.608 10.78 141.748 10 140.048 10C137.308 10 135.408 12.3 135.408 15.1C135.408 18.04 137.288 20.24 140.088 20.24C141.468 20.24 142.488 19.56 142.948 18.74C142.948 19.14 143.008 19.78 143.048 20H145.268C145.248 19.84 145.168 19.1 145.168 18.22V5.52Z" transform="translate(436 99)" fill="white"/>
<path d="M8.86 20H11.58L8.38 14.16C10.36 13.68 11.58 12.14 11.58 10.12C11.58 7.72 9.88 5.82 7.14 5.82H1.7V20H4.12V14.4H5.88L8.86 20ZM4.12 12.28V7.94H6.7C8.18 7.94 9.14 8.8 9.14 10.12C9.14 11.42 8.18 12.28 6.7 12.28H4.12ZM15.2294 14.06C15.3094 13.02 16.1494 11.9 17.6094 11.9C19.2094 11.9 19.9694 12.92 20.0094 14.06H15.2294ZM20.2694 16.6C19.9494 17.56 19.2294 18.3 17.8294 18.3C16.3894 18.3 15.2294 17.24 15.1694 15.76H22.2894C22.3094 15.72 22.3494 15.4 22.3494 15.02C22.3494 11.94 20.5894 9.96 17.5894 9.96C15.1294 9.96 12.8494 12 12.8494 15.08C12.8494 18.38 15.1894 20.3 17.8294 20.3C20.1694 20.3 21.7094 18.92 22.2294 17.22L20.2694 16.6ZM26.8664 20V10.26H24.5664V20H26.8664ZM24.2064 6.84C24.2064 7.68 24.8864 8.34 25.7064 8.34C26.5464 8.34 27.2264 7.68 27.2264 6.84C27.2264 6 26.5464 5.32 25.7064 5.32C24.8864 5.32 24.2064 6 24.2064 6.84ZM32.1794 14.38C32.1794 13.1 32.8794 12.08 34.1994 12.08C35.6594 12.08 36.1994 13.04 36.1994 14.24V20H38.5194V13.84C38.5194 11.7 37.3794 9.98 34.9994 9.98C33.9194 9.98 32.7594 10.44 32.1194 11.56V10.26H29.8594V20H32.1794V14.38ZM50.0461 10.26H47.6061L45.0861 17.22L42.5061 10.26H39.9461L43.9061 20H46.2261L50.0461 10.26ZM53.0809 14.06C53.1609 13.02 54.0009 11.9 55.4609 11.9C57.0609 11.9 57.8209 12.92 57.8609 14.06H53.0809ZM58.1209 16.6C57.8009 17.56 57.0809 18.3 55.6809 18.3C54.2409 18.3 53.0809 17.24 53.0209 15.76H60.1409C60.1609 15.72 60.2009 15.4 60.2009 15.02C60.2009 11.94 58.4409 9.96 55.4409 9.96C52.9809 9.96 50.7009 12 50.7009 15.08C50.7009 18.38 53.0409 20.3 55.6809 20.3C58.0209 20.3 59.5609 18.92 60.0809 17.22L58.1209 16.6ZM61.558 17.36C61.678 18.46 62.758 20.3 65.578 20.3C68.058 20.3 69.258 18.66 69.258 17.18C69.258 15.74 68.298 14.62 66.458 14.22L64.978 13.92C64.378 13.8 63.998 13.42 63.998 12.9C63.998 12.3 64.578 11.78 65.398 11.78C66.698 11.78 67.118 12.68 67.198 13.24L69.158 12.68C68.998 11.72 68.118 9.96 65.398 9.96C63.378 9.96 61.818 11.4 61.818 13.1C61.818 14.44 62.718 15.56 64.438 15.94L65.878 16.26C66.658 16.42 67.018 16.82 67.018 17.34C67.018 17.94 66.518 18.46 65.558 18.46C64.318 18.46 63.658 17.68 63.578 16.8L61.558 17.36ZM74.4986 7.28H72.3986V8.74C72.3986 9.6 71.9386 10.26 70.8986 10.26H70.3986V12.32H72.1986V17.22C72.1986 19.04 73.3186 20.12 75.1186 20.12C75.9586 20.12 76.3986 19.96 76.5386 19.9V17.98C76.4386 18 76.0586 18.06 75.7386 18.06C74.8786 18.06 74.4986 17.7 74.4986 16.84V12.32H76.5186V10.26H74.4986V7.28Z" transform="translate(446 259)" fill="white"/>
</svg>
