<svg width="150" height="150" viewBox="0 0 150 150" fill="none" xmlns="http://www.w3.org/2000/svg">
<path fill-rule="evenodd" clip-rule="evenodd" d="M75 150C116.421 150 150 116.421 150 75C150 33.5786 116.421 0 75 0C33.5786 0 0 33.5786 0 75C0 116.421 33.5786 150 75 150Z" fill="#0C0E46"/>
<path d="M39.367 0C39.784 0.533 40 1.1 40 1.667C40 5.35 31.05 8.333 20 8.333C8.95 8.333 0 5.35 0 1.667C0 1.1 0.217 0.533 0.634 0" transform="translate(55 70.667)" stroke="#F12986" stroke-linecap="round" stroke-linejoin="round"/>
<path d="M39.367 0C39.784 0.533 40 1.1 40 1.666C40 5.35 31.05 8.333 20 8.333C8.95 8.333 0 5.35 0 1.666C0 1.1 0.217 0.533 0.634 0" transform="translate(55 62.667)" stroke="#F12986" stroke-linecap="round" stroke-linejoin="round"/>
<path d="M39.367 0C39.784 0.533 40 1.1 40 1.666C40 5.35 31.05 8.333 20 8.333C8.95 8.333 0 5.35 0 1.666C0 1.1 0.217 0.533 0.634 0" transform="translate(55 85.667)" stroke="#F12986" stroke-linecap="round" stroke-linejoin="round"/>
<path d="M39.367 0C39.784 0.533 40 1.101 40 1.667C40 5.351 31.05 8.334 20 8.334C8.95 8.334 0 5.351 0 1.667C0 1.101 0.217 0.533 0.634 0" transform="translate(55 78.667)" stroke="#F12986" stroke-linecap="round" stroke-linejoin="round"/>
<path fill-rule="evenodd" clip-rule="evenodd" d="M40 6.667C40 7.233 39.783 7.8 39.367 8.333C37.15 11.217 29.317 13.333 20 13.333C10.683 13.333 2.85 11.217 0.633 8.333C0.217 7.8 0 7.233 0 6.667C0 2.983 8.95 0 20 0C31.05 0 40 2.983 40 6.667Z" transform="translate(55 49.667)" stroke="#F12986" stroke-linecap="round" stroke-linejoin="round"/>
</svg>
