<svg width="163" height="23" viewBox="0 0 163 23" fill="none" xmlns="http://www.w3.org/2000/svg">
<g id="step-03">
<path id="Path 5" opacity="0.3" d="M155 0L0 16" transform="translate(5 4)" stroke="white" stroke-dasharray="1 4"/>
<path id="Oval 20 Copy 10" fill-rule="evenodd" clip-rule="evenodd" d="M3.5 7C5.433 7 7 5.433 7 3.5C7 1.567 5.433 0 3.5 0C1.567 0 0 1.567 0 3.5C0 5.433 1.567 7 3.5 7Z" transform="translate(156)" fill="white"/>
<path id="Oval 20 Copy 11" fill-rule="evenodd" clip-rule="evenodd" d="M3.5 7C5.433 7 7 5.433 7 3.5C7 1.567 5.433 0 3.5 0C1.567 0 0 1.567 0 3.5C0 5.433 1.567 7 3.5 7Z" transform="translate(0 16)" fill="white"/>
</g>
</svg>
