<svg width="174" height="169" viewBox="0 0 174 169" fill="none" xmlns="http://www.w3.org/2000/svg">
<g id="icon-scheme">
<path id="Oval 21" fill-rule="evenodd" clip-rule="evenodd" d="M75 150C116.421 150 150 116.421 150 75C150 33.5786 116.421 0 75 0C33.5786 0 0 33.5786 0 75C0 116.421 33.5786 150 75 150Z" transform="translate(13 11)" stroke="#1C1E53"/>
<path id="Oval 21 Copy 5" fill-rule="evenodd" clip-rule="evenodd" d="M75 150C116.421 150 150 116.421 150 75C150 33.5786 116.421 0 75 0C33.5786 0 0 33.5786 0 75C0 116.421 33.5786 150 75 150Z" transform="translate(23 1)" stroke="#1C1E53"/>
<path id="Oval 21 Copy 6" fill-rule="evenodd" clip-rule="evenodd" d="M75 150C116.421 150 150 116.421 150 75C150 33.5786 116.421 0 75 0C33.5786 0 0 33.5786 0 75C0 116.421 33.5786 150 75 150Z" transform="translate(1 8)" stroke="#1C1E53"/>
<path id="Oval 21 Copy 7" fill-rule="evenodd" clip-rule="evenodd" d="M75 150C116.421 150 150 116.421 150 75C150 33.5786 116.421 0 75 0C33.5786 0 0 33.5786 0 75C0 116.421 33.5786 150 75 150Z" transform="translate(23 18)" stroke="#1C1E53"/>
<g id="Group 17">
<path id="Stroke 1" d="M39.367 0C39.784 0.533 40 1.1 40 1.667C40 5.35 31.05 8.333 20 8.333C8.95 8.333 0 5.35 0 1.667C0 1.1 0.217 0.533 0.634 0" transform="translate(68 81.667)" stroke="#F12986" stroke-linecap="round" stroke-linejoin="round"/>
<path id="Stroke 3" d="M39.367 0C39.784 0.533 40 1.1 40 1.666C40 5.35 31.05 8.333 20 8.333C8.95 8.333 0 5.35 0 1.666C0 1.1 0.217 0.533 0.634 0" transform="translate(68 73.667)" stroke="#F12986" stroke-linecap="round" stroke-linejoin="round"/>
<path id="Stroke 5" d="M39.367 0C39.784 0.533 40 1.1 40 1.666C40 5.35 31.05 8.333 20 8.333C8.95 8.333 0 5.35 0 1.666C0 1.1 0.217 0.533 0.634 0" transform="translate(68 96.667)" stroke="#F12986" stroke-linecap="round" stroke-linejoin="round"/>
<path id="Stroke 7" d="M39.367 0C39.784 0.533 40 1.101 40 1.667C40 5.351 31.05 8.334 20 8.334C8.95 8.334 0 5.351 0 1.667C0 1.101 0.217 0.533 0.634 0" transform="translate(68 89.667)" stroke="#F12986" stroke-linecap="round" stroke-linejoin="round"/>
<path id="Stroke 9" fill-rule="evenodd" clip-rule="evenodd" d="M40 6.667C40 7.233 39.783 7.8 39.367 8.333C37.15 11.217 29.317 13.333 20 13.333C10.683 13.333 2.85 11.217 0.633 8.333C0.217 7.8 0 7.233 0 6.667C0 2.983 8.95 0 20 0C31.05 0 40 2.983 40 6.667Z" transform="translate(68 60.667)" stroke="#F12986" stroke-linecap="round" stroke-linejoin="round"/>
</g>
<path id="Oval 20 Copy 12" fill-rule="evenodd" clip-rule="evenodd" d="M3.5 7C5.433 7 7 5.433 7 3.5C7 1.567 5.433 0 3.5 0C1.567 0 0 1.567 0 3.5C0 5.433 1.567 7 3.5 7Z" transform="translate(145 34)" fill="white"/>
<path id="Oval 20 Copy 16" fill-rule="evenodd" clip-rule="evenodd" d="M3.5 7C5.433 7 7 5.433 7 3.5C7 1.567 5.433 0 3.5 0C1.567 0 0 1.567 0 3.5C0 5.433 1.567 7 3.5 7Z" transform="translate(130 155)" fill="white"/>
<path id="Oval 20 Copy 17" fill-rule="evenodd" clip-rule="evenodd" d="M3.5 7C5.433 7 7 5.433 7 3.5C7 1.567 5.433 0 3.5 0C1.567 0 0 1.567 0 3.5C0 5.433 1.567 7 3.5 7Z" transform="translate(145 98)" fill="white"/>
<path id="Oval 20 Copy 13" fill-rule="evenodd" clip-rule="evenodd" d="M3.5 7C5.433 7 7 5.433 7 3.5C7 1.567 5.433 0 3.5 0C1.567 0 0 1.567 0 3.5C0 5.433 1.567 7 3.5 7Z" transform="translate(54 136)" fill="white"/>
<path id="Oval 20 Copy 14" fill-rule="evenodd" clip-rule="evenodd" d="M3.5 7C5.433 7 7 5.433 7 3.5C7 1.567 5.433 0 3.5 0C1.567 0 0 1.567 0 3.5C0 5.433 1.567 7 3.5 7Z" transform="translate(45 34)" fill="white"/>
<path id="Oval 20 Copy 15" fill-rule="evenodd" clip-rule="evenodd" d="M3.5 7C5.433 7 7 5.433 7 3.5C7 1.567 5.433 0 3.5 0C1.567 0 0 1.567 0 3.5C0 5.433 1.567 7 3.5 7Z" transform="translate(10 38)" fill="white"/>
<path id="Oval 20 Copy 18" fill-rule="evenodd" clip-rule="evenodd" d="M3.5 7C5.433 7 7 5.433 7 3.5C7 1.567 5.433 0 3.5 0C1.567 0 0 1.567 0 3.5C0 5.433 1.567 7 3.5 7Z" transform="translate(0 101)" fill="white"/>
</g>
</svg>
