<svg width="162" height="45" viewBox="0 0 162 45" fill="none" xmlns="http://www.w3.org/2000/svg">
<g id="step-02">
<path id="Path 3" opacity="0.3" d="M0 38L154 0" transform="translate(4 3)" stroke="white" stroke-dasharray="1 4"/>
<path id="Oval 20 Copy 7" fill-rule="evenodd" clip-rule="evenodd" d="M3.5 7C5.433 7 7 5.433 7 3.5C7 1.567 5.433 0 3.5 0C1.567 0 0 1.567 0 3.5C0 5.433 1.567 7 3.5 7Z" transform="translate(155)" fill="white"/>
<path id="Oval 20 Copy 6" fill-rule="evenodd" clip-rule="evenodd" d="M3.5 7C5.433 7 7 5.433 7 3.5C7 1.567 5.433 0 3.5 0C1.567 0 0 1.567 0 3.5C0 5.433 1.567 7 3.5 7Z" transform="translate(0 38)" fill="white"/>
</g>
</svg>
