<svg width="150" height="150" viewBox="0 0 150 150" fill="none" xmlns="http://www.w3.org/2000/svg">
<path fill-rule="evenodd" clip-rule="evenodd" d="M75 150C116.421 150 150 116.421 150 75C150 33.5786 116.421 0 75 0C33.5786 0 0 33.5786 0 75C0 116.421 33.5786 150 75 150Z" fill="#0C0E46"/>
<path fill-rule="evenodd" clip-rule="evenodd" d="M8.772 4.386C8.772 6.809 6.808 8.772 4.386 8.772C1.963 8.772 0 6.809 0 4.386C0 1.964 1.963 0 4.386 0C6.808 0 8.772 1.964 8.772 4.386Z" transform="translate(70.053 50)" stroke="#F12986" stroke-linecap="round" stroke-linejoin="round"/>
<path d="M0 0V5.264" transform="translate(74.4387 58.7718)" stroke="#F12986" stroke-linecap="round" stroke-linejoin="round"/>
<path fill-rule="evenodd" clip-rule="evenodd" d="M7.48775 1.284C9.20075 2.997 9.20075 5.774 7.48775 7.487C5.77575 9.2 2.99775 9.2 1.28475 7.487C-0.42825 5.774 -0.42825 2.997 1.28475 1.284C2.99775 -0.428 5.77575 -0.428 7.48775 1.284Z" transform="translate(55.3477 55.728)" stroke="#F12986" stroke-linecap="round" stroke-linejoin="round"/>
<path d="M0 0L3.722 3.722" transform="translate(62.8352 63.2151)" stroke="#F12986" stroke-linecap="round" stroke-linejoin="round"/>
<path fill-rule="evenodd" clip-rule="evenodd" d="M4.386 0C6.808 0 8.772 1.963 8.772 4.386C8.772 6.808 6.808 8.771 4.386 8.771C1.964 8.771 0 6.808 0 4.386C0 1.963 1.964 0 4.386 0Z" transform="translate(49 70.1761)" stroke="#F12986" stroke-linecap="round" stroke-linejoin="round"/>
<path d="M0 0H5.263" transform="translate(57.7722 74.5618)" stroke="#F12986" stroke-linecap="round" stroke-linejoin="round"/>
<path fill-rule="evenodd" clip-rule="evenodd" d="M1.28475 1.28475C2.99775 -0.42825 5.77475 -0.42825 7.48775 1.28475C9.20075 2.99775 9.20075 5.77375 7.48775 7.48675C5.77475 9.19975 2.99775 9.19975 1.28475 7.48675C-0.42825 5.77375 -0.42825 2.99775 1.28475 1.28475Z" transform="translate(54.7278 84.8806)" stroke="#F12986" stroke-linecap="round" stroke-linejoin="round"/>
<path d="M0 3.722L3.722 0" transform="translate(62.2151 82.4433)" stroke="#F12986" stroke-linecap="round" stroke-linejoin="round"/>
<path fill-rule="evenodd" clip-rule="evenodd" d="M0 4.386C0 1.963 1.964 0 4.386 0C6.809 0 8.772 1.963 8.772 4.386C8.772 6.808 6.809 8.772 4.386 8.772C1.964 8.772 0 6.808 0 4.386Z" transform="translate(69.1755 91.2286)" stroke="#F12986" stroke-linecap="round" stroke-linejoin="round"/>
<path d="M0 5.264V0" transform="translate(73.5618 85.9648)" stroke="#F12986" stroke-linecap="round" stroke-linejoin="round"/>
<path fill-rule="evenodd" clip-rule="evenodd" d="M1.28475 7.48775C-0.42825 5.77475 -0.42825 2.99775 1.28475 1.28475C2.99675 -0.42825 5.77475 -0.42825 7.48775 1.28475C9.20075 2.99775 9.20075 5.77475 7.48775 7.48775C5.77475 9.19975 2.99675 9.19975 1.28475 7.48775Z" transform="translate(83.8806 85.5009)" stroke="#F12986" stroke-linecap="round" stroke-linejoin="round"/>
<path d="M3.722 3.722L0 0" transform="translate(81.4434 83.0635)" stroke="#F12986" stroke-linecap="round" stroke-linejoin="round"/>
<path fill-rule="evenodd" clip-rule="evenodd" d="M4.386 8.771C1.964 8.771 0 6.808 0 4.385C0 1.963 1.964 0 4.386 0C6.808 0 8.772 1.963 8.772 4.385C8.772 6.808 6.808 8.771 4.386 8.771Z" transform="translate(90.2285 71.0535)" stroke="#F12986" stroke-linecap="round" stroke-linejoin="round"/>
<path d="M5.263 0H0" transform="translate(84.9653 75.4388)" stroke="#F12986" stroke-linecap="round" stroke-linejoin="round"/>
<path fill-rule="evenodd" clip-rule="evenodd" d="M7.48775 7.48675C5.77475 9.19975 2.99775 9.19975 1.28475 7.48675C-0.42825 5.77375 -0.42825 2.99775 1.28475 1.28475C2.99775 -0.42825 5.77475 -0.42825 7.48775 1.28475C9.20075 2.99775 9.20075 5.77375 7.48775 7.48675Z" transform="translate(84.5002 56.3485)" stroke="#F12986" stroke-linecap="round" stroke-linejoin="round"/>
<path d="M3.722 0L0 3.722" transform="translate(82.0635 63.8353)" stroke="#F12986" stroke-linecap="round" stroke-linejoin="round"/>
<path fill-rule="evenodd" clip-rule="evenodd" d="M21.93 10.965C21.93 17.021 17.021 21.93 10.965 21.93C4.909 21.93 0 17.021 0 10.965C0 4.909 4.909 0 10.965 0C17.021 0 21.93 4.909 21.93 10.965Z" transform="translate(63.0352 64.0353)" stroke="#F12986" stroke-linecap="round" stroke-linejoin="round"/>
</svg>
