<svg width="570" height="334" viewBox="0 0 570 334" fill="none" xmlns="http://www.w3.org/2000/svg">
<path opacity="0.05" d="M0 0L271.5 271.5" transform="translate(132 47)" stroke="white"/>
<path opacity="0.05" d="M0 0L271.5 271.5" transform="translate(402.5 47) scale(-1 1)" stroke="white"/>
<path opacity="0.05" fill-rule="evenodd" clip-rule="evenodd" d="M50 100C77.6142 100 100 77.6142 100 50C100 22.3858 77.6142 0 50 0C22.3858 0 0 22.3858 0 50C0 77.6142 22.3858 100 50 100Z" transform="translate(217 133)" stroke="white"/>
<path opacity="0.05" fill-rule="evenodd" clip-rule="evenodd" d="M100 200C155.228 200 200 155.228 200 100C200 44.7715 155.228 0 100 0C44.7715 0 0 44.7715 0 100C0 155.228 44.7715 200 100 200Z" transform="translate(167 83)" stroke="white"/>
<path opacity="0.05" fill-rule="evenodd" clip-rule="evenodd" d="M150 300C232.843 300 300 232.843 300 150C300 67.1573 232.843 0 150 0C67.1573 0 0 67.1573 0 150C0 232.843 67.1573 300 150 300Z" transform="translate(117 33)" stroke="white"/>
<path fill-rule="evenodd" clip-rule="evenodd" d="M17.3858 0.564897L0.320782 22.0299C-0.151218 22.6229 -0.0952181 23.4699 0.441782 24.0039C19.5448 42.9939 31.6998 68.9779 32.7368 97.7419C32.7638 98.5029 33.3548 99.1229 34.1148 99.1729L61.4548 100.991C62.3218 101.048 63.0608 100.352 63.0478 99.4829C62.4438 60.5529 45.8508 25.4279 19.5798 0.406897C18.9478 -0.195103 17.9298 -0.118103 17.3858 0.564897Z" transform="translate(342.936 80.8635)" fill="#1CC5FF"/>
<path fill-rule="evenodd" clip-rule="evenodd" d="M139.922 249.332C80.98 249.286 32.174 202.019 30.327 143.106C28.49 84.5394 72.804 35.7364 129.576 30.3594C130.34 30.2864 130.926 29.6534 130.926 28.8864V1.49437C130.926 0.629365 130.188 -0.0616347 129.325 0.00436528C57.095 5.47537 0 66.0034 0 139.596C0 216.79 62.814 279.604 140.008 279.604C147.512 279.604 154.886 279.012 162.08 277.853C162.93 277.716 163.483 276.879 163.287 276.04L157.057 249.37C156.882 248.62 156.166 248.137 155.403 248.245C150.341 248.966 145.176 249.336 139.922 249.332Z" transform="translate(126 43)" fill="#292EF1"/>
<path fill-rule="evenodd" clip-rule="evenodd" d="M0 1.4957V28.9337C0 29.6927 0.574 30.3207 1.328 30.4027C18.951 32.3117 35.318 38.4077 49.44 47.6647C50.082 48.0857 50.936 47.9547 51.413 47.3527L68.435 25.9327C68.972 25.2567 68.827 24.2597 68.115 23.7737C48.834 10.6147 26.124 2.1387 1.618 0.00569923C0.749 -0.0703008 0 0.623699 0 1.4957Z" transform="translate(276.602 43.1086)" fill="#F12986"/>
<path fill-rule="evenodd" clip-rule="evenodd" d="M72.0848 1.24322C65.4368 40.6382 37.7318 72.9502 0.986757 86.1862C0.276757 86.4422 -0.132243 87.1822 0.0387566 87.9162L6.26976 114.646C6.46776 115.498 7.35976 116.003 8.18976 115.726C57.4448 99.2672 94.5888 56.1172 102.376 3.52222C102.503 2.66422 101.862 1.87822 100.996 1.82022L73.6408 0.00322346C72.8798 -0.0467765 72.2118 0.490223 72.0848 1.24322Z" transform="translate(302.126 199.68)" fill="#1CC5FF"/>
<path d="M0.794375 13.184C0.938375 14.816 2.42637 16.256 4.63438 16.256C6.93837 16.256 8.44238 14.672 8.44238 12.72C8.44238 10.576 6.95437 9.28 4.92238 9.28C4.10637 9.28 3.27437 9.536 2.81037 10.048L3.57838 7.072H8.01038V5.632H2.53837L1.19437 10.784C1.72238 10.976 2.18638 11.184 2.73038 11.392C3.17838 10.928 3.88238 10.64 4.61837 10.64C5.81838 10.64 6.85838 11.36 6.85838 12.784C6.85838 14.064 5.86637 14.88 4.63438 14.88C3.33838 14.88 2.39438 14.016 2.29837 12.736L0.794375 13.184ZM9.56 13.184C9.704 14.816 11.192 16.256 13.4 16.256C15.704 16.256 17.208 14.672 17.208 12.72C17.208 10.576 15.72 9.28 13.688 9.28C12.872 9.28 12.04 9.536 11.576 10.048L12.344 7.072H16.776V5.632H11.304L9.96 10.784C10.488 10.976 10.952 11.184 11.496 11.392C11.944 10.928 12.648 10.64 13.384 10.64C14.584 10.64 15.624 11.36 15.624 12.784C15.624 14.064 14.632 14.88 13.4 14.88C12.104 14.88 11.16 14.016 11.064 12.736L9.56 13.184ZM19.8174 8.032C19.8174 7.312 20.3614 6.784 21.0494 6.784C21.7534 6.784 22.2814 7.312 22.2814 8.032C22.2814 8.768 21.7534 9.296 21.0494 9.296C20.3614 9.296 19.8174 8.768 19.8174 8.032ZM18.4894 8.032C18.4894 9.456 19.6734 10.56 21.0494 10.56C22.4254 10.56 23.6254 9.456 23.6254 8.032C23.6254 6.624 22.4254 5.52 21.0494 5.52C19.6734 5.52 18.4894 6.624 18.4894 8.032ZM26.1534 13.6C26.1534 12.88 26.6974 12.352 27.3854 12.352C28.0894 12.352 28.6174 12.88 28.6174 13.6C28.6174 14.336 28.0894 14.864 27.3854 14.864C26.6974 14.864 26.1534 14.336 26.1534 13.6ZM24.8254 13.6C24.8254 15.024 26.0094 16.128 27.3854 16.128C28.7614 16.128 29.9614 15.024 29.9614 13.6C29.9614 12.192 28.7614 11.088 27.3854 11.088C26.0094 11.088 24.8254 12.192 24.8254 13.6ZM21.2414 16L28.6654 5.632H27.2254L19.7694 16H21.2414ZM39.1995 9.456C40.5115 9.456 41.0715 10.336 41.2635 11.088L42.6235 10.512C42.3035 9.344 41.2475 8.064 39.1995 8.064C37.0075 8.064 35.3275 9.744 35.3275 12.144C35.3275 14.48 36.9755 16.24 39.2155 16.24C41.2155 16.24 42.3195 14.944 42.6875 13.84L41.3595 13.264C41.1835 13.872 40.6555 14.848 39.2155 14.848C37.9675 14.848 36.8635 13.904 36.8635 12.144C36.8635 10.352 37.9835 9.456 39.1995 9.456ZM47.6698 14.896C46.3898 14.896 45.2698 13.936 45.2698 12.144C45.2698 10.368 46.3898 9.408 47.6698 9.408C48.9497 9.408 50.0697 10.368 50.0697 12.144C50.0697 13.936 48.9497 14.896 47.6698 14.896ZM47.6698 8.064C45.3658 8.064 43.7337 9.808 43.7337 12.144C43.7337 14.496 45.3658 16.24 47.6698 16.24C49.9738 16.24 51.6058 14.496 51.6058 12.144C51.6058 9.808 49.9738 8.064 47.6698 8.064ZM55.018 16V11.36C55.018 10.208 55.738 9.408 56.81 9.408C57.962 9.408 58.442 10.176 58.442 11.168V16H59.946V11.344C59.946 10.24 60.666 9.408 61.722 9.408C62.858 9.408 63.354 10.16 63.354 11.168V16H64.842V11.008C64.842 8.992 63.53 8.08 62.186 8.08C61.21 8.08 60.218 8.432 59.61 9.536C59.194 8.544 58.266 8.08 57.306 8.08C56.41 8.08 55.45 8.48 54.97 9.328V8.304H53.53V16H55.018ZM68.7367 16V11.36C68.7367 10.208 69.4567 9.408 70.5287 9.408C71.6807 9.408 72.1607 10.176 72.1607 11.168V16H73.6648V11.344C73.6648 10.24 74.3848 9.408 75.4408 9.408C76.5767 9.408 77.0728 10.16 77.0728 11.168V16H78.5608V11.008C78.5608 8.992 77.2487 8.08 75.9047 8.08C74.9288 8.08 73.9367 8.432 73.3288 9.536C72.9127 8.544 71.9847 8.08 71.0248 8.08C70.1287 8.08 69.1688 8.48 68.6888 9.328V8.304H67.2487V16H68.7367ZM85.8833 15.072C85.8833 15.392 85.9152 15.824 85.9472 16H87.3872C87.3552 15.728 87.3073 15.184 87.3073 14.576V8.304H85.8032V12.944C85.8032 14.112 85.1953 14.912 83.9792 14.912C82.7153 14.912 82.2352 13.984 82.2352 12.928V8.304H80.7313V13.152C80.7313 14.896 81.8193 16.24 83.6112 16.24C84.5072 16.24 85.4672 15.872 85.8833 15.072ZM91.3777 11.552C91.3777 10.384 91.9857 9.44 93.1698 9.44C94.5138 9.44 94.9618 10.304 94.9618 11.376V16H96.4658V11.12C96.4658 9.408 95.5538 8.08 93.7137 8.08C92.8177 8.08 91.9058 8.448 91.3458 9.408V8.304H89.8737V16H91.3777V11.552ZM100.346 16V8.304H98.8581V16H100.346ZM98.5221 5.392C98.5221 5.984 99.0021 6.464 99.5941 6.464C100.202 6.464 100.682 5.984 100.682 5.392C100.682 4.784 100.202 4.304 99.5941 4.304C99.0021 4.304 98.5221 4.784 98.5221 5.392ZM104.921 5.872H103.545V7.12C103.545 7.792 103.193 8.304 102.361 8.304H101.945V9.664H103.417V13.888C103.417 15.28 104.249 16.08 105.561 16.08C106.073 16.08 106.457 15.984 106.585 15.936V14.656C106.457 14.688 106.185 14.72 105.993 14.72C105.209 14.72 104.921 14.368 104.921 13.664V9.664H106.585V8.304H104.921V5.872ZM110.591 19.216L115.599 8.304H113.983L111.679 13.616L109.279 8.304H107.551L110.863 15.152L108.943 19.216H110.591Z" transform="translate(0 73.3999)" fill="white"/>
<path d="M4.60425 16V5.632H3.22825C2.98825 6.752 1.99625 7.552 0.55625 7.584V8.688H3.06825V16H4.60425ZM8.227 10.816C8.227 9.232 8.515 8.112 9.139 7.456C9.539 7.04 10.051 6.784 10.787 6.784C11.523 6.784 12.035 7.04 12.435 7.456C13.059 8.112 13.347 9.232 13.347 10.816C13.347 12.4 13.059 13.52 12.435 14.176C12.035 14.592 11.523 14.848 10.787 14.848C10.051 14.848 9.539 14.592 9.139 14.176C8.515 13.52 8.227 12.4 8.227 10.816ZM6.675 10.816C6.675 12.24 6.915 13.552 7.603 14.576C8.275 15.584 9.315 16.24 10.787 16.24C12.259 16.24 13.299 15.584 13.971 14.576C14.659 13.552 14.899 12.24 14.899 10.816C14.899 9.392 14.659 8.08 13.971 7.056C13.299 6.048 12.259 5.392 10.787 5.392C9.315 5.392 8.275 6.048 7.603 7.056C6.915 8.08 6.675 9.392 6.675 10.816ZM17.5986 8.032C17.5986 7.312 18.1426 6.784 18.8306 6.784C19.5346 6.784 20.0626 7.312 20.0626 8.032C20.0626 8.768 19.5346 9.296 18.8306 9.296C18.1426 9.296 17.5986 8.768 17.5986 8.032ZM16.2706 8.032C16.2706 9.456 17.4546 10.56 18.8306 10.56C20.2066 10.56 21.4066 9.456 21.4066 8.032C21.4066 6.624 20.2066 5.52 18.8306 5.52C17.4546 5.52 16.2706 6.624 16.2706 8.032ZM23.9346 13.6C23.9346 12.88 24.4786 12.352 25.1666 12.352C25.8706 12.352 26.3986 12.88 26.3986 13.6C26.3986 14.336 25.8706 14.864 25.1666 14.864C24.4786 14.864 23.9346 14.336 23.9346 13.6ZM22.6066 13.6C22.6066 15.024 23.7906 16.128 25.1666 16.128C26.5426 16.128 27.7426 15.024 27.7426 13.6C27.7426 12.192 26.5426 11.088 25.1666 11.088C23.7906 11.088 22.6066 12.192 22.6066 13.6ZM19.0226 16L26.4466 5.632H25.0066L17.5506 16H19.0226ZM35.7648 5.872H34.3887V7.12C34.3887 7.792 34.0367 8.304 33.2048 8.304H32.7887V9.664H34.2608V13.888C34.2608 15.28 35.0928 16.08 36.4048 16.08C36.9167 16.08 37.3007 15.984 37.4288 15.936V14.656C37.3007 14.688 37.0287 14.72 36.8368 14.72C36.0528 14.72 35.7648 14.368 35.7648 13.664V9.664H37.4288V8.304H35.7648V5.872ZM40.3341 11.36C40.3981 10.368 41.1661 9.392 42.4301 9.392C43.7901 9.392 44.5101 10.256 44.5421 11.36H40.3341ZM44.7661 13.36C44.4781 14.224 43.8541 14.912 42.6061 14.912C41.3101 14.912 40.3181 13.952 40.2861 12.576H46.0781C46.0941 12.48 46.1101 12.288 46.1101 12.096C46.1101 9.696 44.7821 8.064 42.4141 8.064C40.4781 8.064 38.7341 9.712 38.7341 12.128C38.7341 14.736 40.5421 16.24 42.6061 16.24C44.3981 16.24 45.6301 15.168 46.0621 13.808L44.7661 13.36ZM47.55 13.936C47.55 15.152 48.558 16.24 50.126 16.24C51.502 16.24 52.27 15.504 52.606 14.96C52.606 15.52 52.654 15.808 52.686 16H54.158C54.126 15.808 54.062 15.408 54.062 14.736V10.88C54.062 9.376 53.166 8.064 50.862 8.064C49.198 8.064 47.87 9.088 47.71 10.56L49.15 10.896C49.246 10 49.838 9.344 50.894 9.344C52.062 9.344 52.558 9.968 52.558 10.72C52.558 10.992 52.43 11.232 51.966 11.296L49.886 11.6C48.558 11.792 47.55 12.56 47.55 13.936ZM50.334 14.976C49.566 14.976 49.086 14.432 49.086 13.856C49.086 13.168 49.566 12.8 50.206 12.704L52.558 12.352V12.704C52.558 14.384 51.566 14.976 50.334 14.976ZM57.893 16V11.36C57.893 10.208 58.613 9.408 59.685 9.408C60.837 9.408 61.317 10.176 61.317 11.168V16H62.821V11.344C62.821 10.24 63.541 9.408 64.597 9.408C65.733 9.408 66.229 10.16 66.229 11.168V16H67.717V11.008C67.717 8.992 66.405 8.08 65.061 8.08C64.085 8.08 63.093 8.432 62.485 9.536C62.069 8.544 61.141 8.08 60.181 8.08C59.285 8.08 58.325 8.48 57.845 9.328V8.304H56.405V16H57.893Z" transform="translate(322 0.399902)" fill="white"/>
<path d="M4.46362 16V5.632H3.08763C2.84763 6.752 1.85563 7.552 0.415625 7.584V8.688H2.92762V16H4.46362ZM6.21625 13.184C6.36025 14.816 7.84825 16.256 10.0563 16.256C12.3602 16.256 13.8643 14.672 13.8643 12.72C13.8643 10.576 12.3762 9.28 10.3443 9.28C9.52825 9.28 8.69625 9.536 8.23225 10.048L9.00025 7.072H13.4323V5.632H7.96025L6.61625 10.784C7.14425 10.976 7.60825 11.184 8.15225 11.392C8.60025 10.928 9.30425 10.64 10.0402 10.64C11.2403 10.64 12.2803 11.36 12.2803 12.784C12.2803 14.064 11.2882 14.88 10.0563 14.88C8.76025 14.88 7.81625 14.016 7.72025 12.736L6.21625 13.184ZM20.6299 8.032C20.6299 7.312 21.1739 6.784 21.8619 6.784C22.5659 6.784 23.0939 7.312 23.0939 8.032C23.0939 8.768 22.5659 9.296 21.8619 9.296C21.1739 9.296 20.6299 8.768 20.6299 8.032ZM19.3019 8.032C19.3019 9.456 20.4859 10.56 21.8619 10.56C23.2379 10.56 24.4379 9.456 24.4379 8.032C24.4379 6.624 23.2379 5.52 21.8619 5.52C20.4859 5.52 19.3019 6.624 19.3019 8.032ZM26.9659 13.6C26.9659 12.88 27.5099 12.352 28.1979 12.352C28.9019 12.352 29.4299 12.88 29.4299 13.6C29.4299 14.336 28.9019 14.864 28.1979 14.864C27.5099 14.864 26.9659 14.336 26.9659 13.6ZM25.6379 13.6C25.6379 15.024 26.8219 16.128 28.1979 16.128C29.5739 16.128 30.7739 15.024 30.7739 13.6C30.7739 12.192 29.5739 11.088 28.1979 11.088C26.8219 11.088 25.6379 12.192 25.6379 13.6ZM22.0539 16L29.4779 5.632H28.0379L20.5819 16H22.0539ZM38.284 16V4.416H36.78V16H38.284ZM42.3305 16V8.304H40.8425V16H42.3305ZM40.5065 5.392C40.5065 5.984 40.9865 6.464 41.5785 6.464C42.1865 6.464 42.6665 5.984 42.6665 5.392C42.6665 4.784 42.1865 4.304 41.5785 4.304C40.9865 4.304 40.5065 4.784 40.5065 5.392ZM44.3294 16.416C44.5214 18.064 45.9614 19.28 47.8814 19.28C50.7774 19.28 51.7374 17.376 51.7374 15.424V8.304H50.2494V9.376C49.8654 8.608 49.0654 8.16 47.8814 8.16C45.7694 8.16 44.3454 9.824 44.3454 11.904C44.3454 14.08 45.8334 15.632 47.8814 15.632C49.0334 15.632 49.8654 15.072 50.2334 14.368V15.472C50.2334 17.136 49.4974 17.968 47.8814 17.968C46.7134 17.968 45.8974 17.152 45.7854 16.08L44.3294 16.416ZM48.1054 14.368C46.7454 14.368 45.8814 13.408 45.8814 11.904C45.8814 10.416 46.7774 9.44 48.1054 9.44C49.4014 9.44 50.2974 10.416 50.2974 11.904C50.2974 13.392 49.4014 14.368 48.1054 14.368ZM55.6434 11.472C55.6754 10.336 56.2834 9.44 57.4354 9.44C58.7794 9.44 59.2274 10.304 59.2274 11.376V16H60.7314V11.12C60.7314 9.408 59.8194 8.08 57.9794 8.08C57.0994 8.08 56.2034 8.384 55.6434 9.2V4.416H54.1394V16H55.6434V11.472ZM65.1398 5.872H63.7637V7.12C63.7637 7.792 63.4117 8.304 62.5798 8.304H62.1637V9.664H63.6358V13.888C63.6358 15.28 64.4678 16.08 65.7798 16.08C66.2917 16.08 66.6757 15.984 66.8038 15.936V14.656C66.6757 14.688 66.4037 14.72 66.2118 14.72C65.4278 14.72 65.1398 14.368 65.1398 13.664V9.664H66.8038V8.304H65.1398V5.872ZM72.3313 13.936C72.3313 15.152 73.3392 16.24 74.9072 16.24C76.2832 16.24 77.0512 15.504 77.3872 14.96C77.3872 15.52 77.4352 15.808 77.4672 16H78.9392C78.9072 15.808 78.8432 15.408 78.8432 14.736V10.88C78.8432 9.376 77.9472 8.064 75.6432 8.064C73.9792 8.064 72.6513 9.088 72.4912 10.56L73.9313 10.896C74.0273 10 74.6193 9.344 75.6753 9.344C76.8432 9.344 77.3393 9.968 77.3393 10.72C77.3393 10.992 77.2112 11.232 76.7473 11.296L74.6672 11.6C73.3392 11.792 72.3313 12.56 72.3313 13.936ZM75.1153 14.976C74.3472 14.976 73.8672 14.432 73.8672 13.856C73.8672 13.168 74.3472 12.8 74.9873 12.704L77.3393 12.352V12.704C77.3393 14.384 76.3472 14.976 75.1153 14.976ZM82.6902 11.552C82.6902 10.384 83.2982 9.44 84.4823 9.44C85.8263 9.44 86.2743 10.304 86.2743 11.376V16H87.7783V11.12C87.7783 9.408 86.8663 8.08 85.0262 8.08C84.1302 8.08 83.2183 8.448 82.6583 9.408V8.304H81.1862V16H82.6902V11.552ZM91.0666 12.128C91.0666 10.544 91.9626 9.424 93.3386 9.424C94.7146 9.424 95.5466 10.512 95.5466 12.096C95.5466 13.68 94.6986 14.88 93.3226 14.88C91.8826 14.88 91.0666 13.712 91.0666 12.128ZM95.5626 14.96C95.5626 15.424 95.6106 15.824 95.6426 16H97.0986C97.0826 15.872 97.0186 15.312 97.0186 14.576V4.416H95.5306V9.392C95.2746 8.768 94.5386 8.096 93.1786 8.096C91.0026 8.096 89.5306 9.952 89.5306 12.128C89.5306 14.416 90.9226 16.208 93.1786 16.208C94.3786 16.208 95.1946 15.568 95.5626 14.832V14.96ZM102.857 14C102.985 14.88 103.881 16.24 105.993 16.24C107.897 16.24 108.809 14.944 108.809 13.856C108.809 12.72 108.073 11.872 106.681 11.568L105.433 11.296C104.841 11.168 104.553 10.832 104.553 10.368C104.553 9.84 105.065 9.344 105.833 9.344C107.049 9.344 107.369 10.224 107.433 10.624L108.761 10.128C108.601 9.44 107.945 8.064 105.833 8.064C104.329 8.064 103.097 9.184 103.097 10.496C103.097 11.584 103.817 12.4 105.017 12.656L106.329 12.944C106.969 13.088 107.321 13.456 107.321 13.936C107.321 14.48 106.857 14.96 106.009 14.96C104.921 14.96 104.313 14.32 104.217 13.52L102.857 14ZM114.029 14.896C112.749 14.896 111.629 13.936 111.629 12.144C111.629 10.368 112.749 9.408 114.029 9.408C115.309 9.408 116.429 10.368 116.429 12.144C116.429 13.936 115.309 14.896 114.029 14.896ZM114.029 8.064C111.725 8.064 110.093 9.808 110.093 12.144C110.093 14.496 111.725 16.24 114.029 16.24C116.333 16.24 117.965 14.496 117.965 12.144C117.965 9.808 116.333 8.064 114.029 8.064ZM124.883 15.072C124.883 15.392 124.915 15.824 124.947 16H126.387C126.355 15.728 126.307 15.184 126.307 14.576V8.304H124.803V12.944C124.803 14.112 124.195 14.912 122.979 14.912C121.715 14.912 121.235 13.984 121.235 12.928V8.304H119.731V13.152C119.731 14.896 120.819 16.24 122.611 16.24C123.507 16.24 124.467 15.872 124.883 15.072ZM130.378 11.552C130.378 10.384 130.986 9.44 132.17 9.44C133.514 9.44 133.962 10.304 133.962 11.376V16H135.466V11.12C135.466 9.408 134.554 8.08 132.714 8.08C131.818 8.08 130.906 8.448 130.346 9.408V8.304H128.874V16H130.378V11.552ZM138.754 12.128C138.754 10.544 139.65 9.424 141.026 9.424C142.402 9.424 143.234 10.512 143.234 12.096C143.234 13.68 142.386 14.88 141.01 14.88C139.57 14.88 138.754 13.712 138.754 12.128ZM143.25 14.96C143.25 15.424 143.298 15.824 143.33 16H144.786C144.77 15.872 144.706 15.312 144.706 14.576V4.416H143.218V9.392C142.962 8.768 142.226 8.096 140.866 8.096C138.69 8.096 137.218 9.952 137.218 12.128C137.218 14.416 138.61 16.208 140.866 16.208C142.066 16.208 142.882 15.568 143.25 14.832V14.96Z" transform="translate(424 105.4)" fill="white"/>
<path d="M2.27944 9.36C2.26344 9.2 2.24744 9.04 2.24744 8.896C2.24744 7.712 2.88744 6.768 4.24744 6.768C5.55944 6.768 6.19944 7.648 6.19944 8.592C6.19944 9.392 5.75144 10.128 4.77544 10.752L3.04744 11.872C1.28744 13.008 0.615438 14.304 0.583438 16H7.84744V14.544H2.51944C2.66344 13.904 3.19144 13.472 3.78344 13.088L5.83144 11.776C7.01544 11.024 7.78344 9.936 7.78344 8.576C7.78344 6.848 6.50344 5.392 4.27944 5.392C2.00744 5.392 0.695437 6.976 0.695437 8.752C0.695437 8.88 0.695437 9.024 0.711438 9.168L2.27944 9.36ZM10.8442 10.816C10.8442 9.232 11.1322 8.112 11.7562 7.456C12.1562 7.04 12.6682 6.784 13.4042 6.784C14.1402 6.784 14.6522 7.04 15.0522 7.456C15.6762 8.112 15.9642 9.232 15.9642 10.816C15.9642 12.4 15.6762 13.52 15.0522 14.176C14.6522 14.592 14.1402 14.848 13.4042 14.848C12.6682 14.848 12.1562 14.592 11.7562 14.176C11.1322 13.52 10.8442 12.4 10.8442 10.816ZM9.29219 10.816C9.29219 12.24 9.53219 13.552 10.2202 14.576C10.8922 15.584 11.9322 16.24 13.4042 16.24C14.8762 16.24 15.9162 15.584 16.5882 14.576C17.2762 13.552 17.5162 12.24 17.5162 10.816C17.5162 9.392 17.2762 8.08 16.5882 7.056C15.9162 6.048 14.8762 5.392 13.4042 5.392C11.9322 5.392 10.8922 6.048 10.2202 7.056C9.53219 8.08 9.29219 9.392 9.29219 10.816ZM20.2158 8.032C20.2158 7.312 20.7598 6.784 21.4478 6.784C22.1518 6.784 22.6798 7.312 22.6798 8.032C22.6798 8.768 22.1518 9.296 21.4478 9.296C20.7598 9.296 20.2158 8.768 20.2158 8.032ZM18.8878 8.032C18.8878 9.456 20.0718 10.56 21.4478 10.56C22.8238 10.56 24.0238 9.456 24.0238 8.032C24.0238 6.624 22.8238 5.52 21.4478 5.52C20.0718 5.52 18.8878 6.624 18.8878 8.032ZM26.5518 13.6C26.5518 12.88 27.0958 12.352 27.7838 12.352C28.4878 12.352 29.0158 12.88 29.0158 13.6C29.0158 14.336 28.4878 14.864 27.7838 14.864C27.0958 14.864 26.5518 14.336 26.5518 13.6ZM25.2238 13.6C25.2238 15.024 26.4078 16.128 27.7838 16.128C29.1598 16.128 30.3598 15.024 30.3598 13.6C30.3598 12.192 29.1598 11.088 27.7838 11.088C26.4078 11.088 25.2238 12.192 25.2238 13.6ZM21.6398 16L29.0638 5.632H27.6238L20.1678 16H21.6398ZM40.6379 8.224C40.5579 8.208 40.3499 8.176 40.1419 8.176C39.3579 8.176 38.3979 8.464 37.8379 9.648V8.304H36.3659V16H37.8699V12.144C37.8699 10.448 38.7179 9.776 39.9819 9.776C40.1899 9.776 40.4139 9.792 40.6379 9.824V8.224ZM43.1388 11.36C43.2028 10.368 43.9708 9.392 45.2348 9.392C46.5948 9.392 47.3148 10.256 47.3468 11.36H43.1388ZM47.5708 13.36C47.2828 14.224 46.6588 14.912 45.4108 14.912C44.1148 14.912 43.1228 13.952 43.0908 12.576H48.8828C48.8988 12.48 48.9148 12.288 48.9148 12.096C48.9148 9.696 47.5868 8.064 45.2188 8.064C43.2828 8.064 41.5388 9.712 41.5388 12.128C41.5388 14.736 43.3468 16.24 45.4108 16.24C47.2028 16.24 48.4348 15.168 48.8668 13.808L47.5708 13.36ZM52.3227 16V8.304H50.8347V16H52.3227ZM50.4987 5.392C50.4987 5.984 50.9787 6.464 51.5707 6.464C52.1787 6.464 52.6587 5.984 52.6587 5.392C52.6587 4.784 52.1787 4.304 51.5707 4.304C50.9787 4.304 50.4987 4.784 50.4987 5.392ZM56.3856 11.552C56.3856 10.384 56.9936 9.44 58.1776 9.44C59.5216 9.44 59.9696 10.304 59.9696 11.376V16H61.4736V11.12C61.4736 9.408 60.5616 8.08 58.7216 8.08C57.8256 8.08 56.9136 8.448 56.3536 9.408V8.304H54.8816V16H56.3856V11.552ZM70.4579 8.304H68.8419L66.6339 14.24L64.4419 8.304H62.7459L65.8659 16H67.3859L70.4579 8.304ZM72.6388 11.36C72.7028 10.368 73.4708 9.392 74.7348 9.392C76.0948 9.392 76.8148 10.256 76.8468 11.36H72.6388ZM77.0708 13.36C76.7828 14.224 76.1588 14.912 74.9108 14.912C73.6148 14.912 72.6228 13.952 72.5908 12.576H78.3828C78.3988 12.48 78.4148 12.288 78.4148 12.096C78.4148 9.696 77.0868 8.064 74.7188 8.064C72.7828 8.064 71.0388 9.712 71.0388 12.128C71.0388 14.736 72.8468 16.24 74.9108 16.24C76.7028 16.24 77.9348 15.168 78.3668 13.808L77.0708 13.36ZM79.6147 14C79.7427 14.88 80.6387 16.24 82.7507 16.24C84.6547 16.24 85.5667 14.944 85.5667 13.856C85.5667 12.72 84.8307 11.872 83.4387 11.568L82.1907 11.296C81.5987 11.168 81.3107 10.832 81.3107 10.368C81.3107 9.84 81.8227 9.344 82.5907 9.344C83.8067 9.344 84.1267 10.224 84.1907 10.624L85.5187 10.128C85.3587 9.44 84.7027 8.064 82.5907 8.064C81.0867 8.064 79.8547 9.184 79.8547 10.496C79.8547 11.584 80.5747 12.4 81.7747 12.656L83.0867 12.944C83.7267 13.088 84.0787 13.456 84.0787 13.936C84.0787 14.48 83.6147 14.96 82.7667 14.96C81.6787 14.96 81.0707 14.32 80.9747 13.52L79.6147 14ZM89.5851 5.872H88.2091V7.12C88.2091 7.792 87.8571 8.304 87.0251 8.304H86.6091V9.664H88.0811V13.888C88.0811 15.28 88.9131 16.08 90.2251 16.08C90.7371 16.08 91.1211 15.984 91.2491 15.936V14.656C91.1211 14.688 90.8491 14.72 90.6571 14.72C89.8731 14.72 89.5851 14.368 89.5851 13.664V9.664H91.2491V8.304H89.5851V5.872Z" transform="translate(417 266.4)" fill="white"/>
</svg>
