<svg width="585" height="340" viewBox="0 0 585 340" fill="none" xmlns="http://www.w3.org/2000/svg">
<path opacity="0.1" d="M0 0L234.395 234.395" transform="translate(201.95 92.0867)" stroke="white" stroke-width="0.864"/>
<path opacity="0.1" d="M0 0L234.395 234.395" transform="translate(435.482 92.0867) scale(-1 1)" stroke="white" stroke-width="0.864"/>
<path opacity="0.1" fill-rule="evenodd" clip-rule="evenodd" d="M43.1667 86.3333C67.007 86.3333 86.3333 67.007 86.3333 43.1667C86.3333 19.3264 67.007 0 43.1667 0C19.3264 0 0 19.3264 0 43.1667C0 67.007 19.3264 86.3333 43.1667 86.3333Z" transform="translate(275.333 166.333)" stroke="white" stroke-width="0.864"/>
<path opacity="0.1" fill-rule="evenodd" clip-rule="evenodd" d="M86.3333 172.667C134.014 172.667 172.667 134.014 172.667 86.3333C172.667 38.6528 134.014 0 86.3333 0C38.6528 0 0 38.6528 0 86.3333C0 134.014 38.6528 172.667 86.3333 172.667Z" transform="translate(232.167 123.167)" stroke="white" stroke-width="0.864"/>
<path opacity="0.1" fill-rule="evenodd" clip-rule="evenodd" d="M129.5 259C201.021 259 259 201.021 259 129.5C259 57.9791 201.021 0 129.5 0C57.9791 0 0 57.9791 0 129.5C0 201.021 57.9791 259 129.5 259Z" transform="translate(189 80)" stroke="white" stroke-width="0.864"/>
<path fill-rule="evenodd" clip-rule="evenodd" d="M182.606 16.6327C218.012 37.7106 241.733 76.3666 241.733 120.563C241.733 187.316 187.619 241.43 120.867 241.43C54.1139 241.43 0 187.316 0 120.563C0 56.7131 49.5098 4.42671 112.233 0V25.9836C63.8305 30.3454 25.9 71.0247 25.9 120.563C25.9 173.012 68.418 215.53 120.867 215.53C173.315 215.53 215.833 173.012 215.833 120.563C215.833 86.602 198.007 56.8045 171.2 40.0176L182.606 16.6327Z" transform="translate(196.77 88.9368)" fill="#292EF1"/>
<path fill-rule="evenodd" clip-rule="evenodd" d="M32.1183 7.57331L20.7096 30.9645C14.1146 28.5862 7.18075 26.9172 0 26.0495V0C11.2236 1.06038 22.0004 3.65552 32.1183 7.57331Z" transform="translate(329.148 89.1743)" fill="#F12986"/>
<path d="M61.5347 15.696C62.0788 16.016 63.0227 16.24 63.9508 16.24C67.5188 16.24 69.4867 14.048 69.4867 10.368C69.4867 7.056 67.6467 5.376 65.2787 5.376C62.8468 5.376 61.2147 6.928 61.2147 9.04C61.2147 11.12 62.7987 12.528 64.7987 12.528C65.7267 12.528 66.6227 12.16 67.0547 11.52C66.8948 13.36 65.4868 14.08 63.9028 14.08C63.1667 14.08 62.4147 13.84 62.0788 13.664L61.5347 15.696ZM66.7188 8.96C66.7188 9.808 66.0468 10.432 65.1667 10.432C64.2868 10.432 63.6147 9.824 63.6147 8.96C63.6147 8.096 64.2868 7.488 65.1667 7.488C66.0468 7.488 66.7188 8.096 66.7188 8.96ZM78.2221 5.616H70.1581V7.728H75.2461C75.2461 7.728 71.9661 10.624 71.5341 16H74.1581C74.6061 10.88 77.5021 8.256 78.2221 7.632V5.616ZM80.6489 8.08C80.6489 7.472 81.0649 7.056 81.6249 7.056C82.1849 7.056 82.5849 7.472 82.5849 8.08C82.5849 8.704 82.1849 9.136 81.6249 9.136C81.0649 9.136 80.6489 8.72 80.6489 8.08ZM78.9209 8.08C78.9209 9.568 80.1209 10.736 81.6089 10.736C83.0969 10.736 84.3289 9.616 84.3289 8.08C84.3289 6.592 83.0969 5.424 81.6249 5.424C80.1529 5.424 78.9209 6.592 78.9209 8.08ZM87.9609 13.552C87.9609 12.944 88.3769 12.528 88.9369 12.528C89.4969 12.528 89.8969 12.944 89.8969 13.552C89.8969 14.176 89.4969 14.608 88.9369 14.608C88.3769 14.608 87.9609 14.192 87.9609 13.552ZM86.2329 13.552C86.2329 15.04 87.4329 16.208 88.9209 16.208C90.4089 16.208 91.6409 15.088 91.6409 13.552C91.6409 12.064 90.4089 10.896 88.9369 10.896C87.4649 10.896 86.2329 12.064 86.2329 13.552ZM82.6809 16L89.9609 5.616H87.8969L80.6329 16H82.6809ZM100.171 5.728H97.9955V6.752C97.9955 7.488 97.5955 8.048 96.7635 8.048H96.3635V10.176H97.7715V13.584C97.7715 15.168 98.7795 16.144 100.427 16.144C101.195 16.144 101.595 15.968 101.692 15.92V13.904C101.548 13.936 101.307 13.984 101.051 13.984C100.523 13.984 100.171 13.808 100.171 13.152V10.176H101.723V8.048H100.171V5.728ZM107.001 14C106.089 14 105.209 13.344 105.209 12.016C105.209 10.672 106.089 10.048 107.001 10.048C107.929 10.048 108.793 10.672 108.793 12.016C108.793 13.36 107.929 14 107.001 14ZM107.001 7.808C104.633 7.808 102.777 9.552 102.777 12.016C102.777 14.48 104.633 16.24 107.001 16.24C109.385 16.24 111.225 14.48 111.225 12.016C111.225 9.552 109.385 7.808 107.001 7.808ZM120.791 8.048H117.639L115.223 10.72V4.416H112.791V16H115.223V14.048L116.007 13.2L117.879 16H120.855L117.687 11.392L120.791 8.048ZM123.506 11.072C123.554 10.48 124.066 9.728 125.09 9.728C126.242 9.728 126.658 10.464 126.69 11.072H123.506ZM126.866 13.136C126.642 13.76 126.146 14.176 125.266 14.176C124.322 14.176 123.506 13.536 123.458 12.64H128.994C129.01 12.592 129.042 12.224 129.042 11.888C129.042 9.328 127.522 7.808 125.058 7.808C122.994 7.808 121.09 9.44 121.09 12C121.09 14.672 123.042 16.24 125.234 16.24C127.25 16.24 128.514 15.088 128.898 13.712L126.866 13.136ZM133.035 11.44C133.035 10.64 133.547 10.048 134.347 10.048C135.227 10.048 135.643 10.64 135.643 11.424V16H138.075V11.008C138.075 9.264 137.179 7.84 135.179 7.84C134.363 7.84 133.387 8.208 132.955 8.96V8.048H130.603V16H133.035V11.44ZM139.463 13.744C139.527 14.624 140.327 16.24 142.823 16.24C144.951 16.24 145.991 14.912 145.991 13.552C145.991 12.384 145.191 11.392 143.543 11.056L142.487 10.848C142.135 10.784 141.863 10.592 141.863 10.256C141.863 9.84 142.263 9.568 142.727 9.568C143.463 9.568 143.799 10.016 143.863 10.544L145.879 10.176C145.799 9.248 144.999 7.808 142.695 7.808C140.919 7.808 139.639 8.992 139.639 10.448C139.639 11.568 140.311 12.528 142.007 12.896L142.919 13.104C143.511 13.232 143.703 13.472 143.703 13.76C143.703 14.112 143.399 14.448 142.775 14.448C141.943 14.448 141.559 13.92 141.527 13.376L139.463 13.744ZM20.3733 39.808C20.3733 41.072 21.3813 42.224 23.1253 42.224C24.1813 42.224 24.9493 41.776 25.3653 41.104C25.3653 41.648 25.4292 41.936 25.4453 42H27.6372C27.6213 41.92 27.5413 41.392 27.5413 40.768V36.88C27.5413 35.248 26.5972 33.808 24.0212 33.808C21.6853 33.808 20.6292 35.312 20.5332 36.448L22.6453 36.88C22.6932 36.288 23.1572 35.712 24.0052 35.712C24.7733 35.712 25.1733 36.112 25.1733 36.576C25.1733 36.848 25.0293 37.056 24.5972 37.12L22.7253 37.408C21.4132 37.6 20.3733 38.4 20.3733 39.808ZM23.7173 40.464C23.0452 40.464 22.7733 40.064 22.7733 39.648C22.7733 39.088 23.1572 38.848 23.6693 38.768L25.1733 38.528V38.88C25.1733 40.112 24.4373 40.464 23.7173 40.464ZM37.1929 34.048H34.6329L32.9369 38.992L31.0969 34.048H28.4569L31.7209 42H34.1689L37.1929 34.048ZM37.9358 39.808C37.9358 41.072 38.9438 42.224 40.6878 42.224C41.7438 42.224 42.5118 41.776 42.9278 41.104C42.9278 41.648 42.9917 41.936 43.0078 42H45.1997C45.1838 41.92 45.1038 41.392 45.1038 40.768V36.88C45.1038 35.248 44.1597 33.808 41.5837 33.808C39.2478 33.808 38.1917 35.312 38.0957 36.448L40.2078 36.88C40.2557 36.288 40.7197 35.712 41.5677 35.712C42.3358 35.712 42.7358 36.112 42.7358 36.576C42.7358 36.848 42.5918 37.056 42.1597 37.12L40.2878 37.408C38.9757 37.6 37.9358 38.4 37.9358 39.808ZM41.2798 40.464C40.6077 40.464 40.3358 40.064 40.3358 39.648C40.3358 39.088 40.7197 38.848 41.2318 38.768L42.7358 38.528V38.88C42.7358 40.112 41.9998 40.464 41.2798 40.464ZM49.5821 42V34.048H47.1501V42H49.5821ZM46.9421 31.616C46.9421 32.4 47.5821 33.04 48.3501 33.04C49.1501 33.04 49.7901 32.4 49.7901 31.616C49.7901 30.832 49.1501 30.192 48.3501 30.192C47.5821 30.192 46.9421 30.832 46.9421 31.616ZM54.1446 42V30.416H51.7126V42H54.1446ZM55.7326 39.808C55.7326 41.072 56.7406 42.224 58.4846 42.224C59.5406 42.224 60.3086 41.776 60.7246 41.104C60.7246 41.648 60.7886 41.936 60.8046 42H62.9966C62.9806 41.92 62.9006 41.392 62.9006 40.768V36.88C62.9006 35.248 61.9566 33.808 59.3806 33.808C57.0446 33.808 55.9886 35.312 55.8926 36.448L58.0046 36.88C58.0526 36.288 58.5166 35.712 59.3646 35.712C60.1326 35.712 60.5326 36.112 60.5326 36.576C60.5326 36.848 60.3886 37.056 59.9566 37.12L58.0846 37.408C56.7726 37.6 55.7326 38.4 55.7326 39.808ZM59.0766 40.464C58.4046 40.464 58.1326 40.064 58.1326 39.648C58.1326 39.088 58.5166 38.848 59.0286 38.768L60.5326 38.528V38.88C60.5326 40.112 59.7966 40.464 59.0766 40.464ZM67.299 42V41.104C67.667 41.712 68.483 42.176 69.539 42.176C71.763 42.176 73.331 40.432 73.331 38C73.331 35.616 71.939 33.856 69.635 33.856C68.547 33.856 67.667 34.304 67.331 34.8V30.416H64.947V42H67.299ZM70.899 38.016C70.899 39.344 70.051 40 69.107 40C68.163 40 67.299 39.328 67.299 38.016C67.299 36.672 68.163 36.048 69.107 36.048C70.051 36.048 70.899 36.672 70.899 38.016ZM77.3321 42V30.416H74.9001V42H77.3321ZM81.3182 37.072C81.3663 36.48 81.8782 35.728 82.9022 35.728C84.0542 35.728 84.4703 36.464 84.5023 37.072H81.3182ZM84.6782 39.136C84.4542 39.76 83.9583 40.176 83.0782 40.176C82.1342 40.176 81.3182 39.536 81.2703 38.64H86.8062C86.8223 38.592 86.8542 38.224 86.8542 37.888C86.8542 35.328 85.3342 33.808 82.8703 33.808C80.8063 33.808 78.9022 35.44 78.9022 38C78.9022 40.672 80.8542 42.24 83.0462 42.24C85.0623 42.24 86.3263 41.088 86.7102 39.712L84.6782 39.136ZM96.8812 36.096V34.048H95.1532V33.44C95.1532 32.56 95.7613 32.368 96.1933 32.368C96.5773 32.368 96.7853 32.416 96.9132 32.448V30.464C96.6892 30.352 96.2572 30.288 95.7613 30.288C93.8252 30.288 92.7213 31.536 92.7213 33.36V34.048H91.4572V36.096H92.7213V42H95.1532V36.096H96.8812ZM101.704 40C100.792 40 99.9124 39.344 99.9124 38.016C99.9124 36.672 100.792 36.048 101.704 36.048C102.632 36.048 103.496 36.672 103.496 38.016C103.496 39.36 102.632 40 101.704 40ZM101.704 33.808C99.3364 33.808 97.4804 35.552 97.4804 38.016C97.4804 40.48 99.3364 42.24 101.704 42.24C104.088 42.24 105.928 40.48 105.928 38.016C105.928 35.552 104.088 33.808 101.704 33.808ZM112.55 34.048C112.39 34 112.15 33.968 111.91 33.968C111.27 33.968 110.262 34.224 109.846 35.12V34.048H107.494V42H109.926V38.528C109.926 36.944 110.806 36.368 111.782 36.368C112.022 36.368 112.278 36.384 112.55 36.448V34.048ZM117.229 39.744C117.292 40.624 118.092 42.24 120.589 42.24C122.716 42.24 123.756 40.912 123.756 39.552C123.756 38.384 122.957 37.392 121.308 37.056L120.253 36.848C119.901 36.784 119.628 36.592 119.628 36.256C119.628 35.84 120.029 35.568 120.493 35.568C121.228 35.568 121.564 36.016 121.628 36.544L123.644 36.176C123.564 35.248 122.765 33.808 120.461 33.808C118.684 33.808 117.405 34.992 117.405 36.448C117.405 37.568 118.077 38.528 119.773 38.896L120.684 39.104C121.277 39.232 121.469 39.472 121.469 39.76C121.469 40.112 121.165 40.448 120.54 40.448C119.708 40.448 119.325 39.92 119.293 39.376L117.229 39.744ZM124.842 39.808C124.842 41.072 125.85 42.224 127.594 42.224C128.65 42.224 129.418 41.776 129.834 41.104C129.834 41.648 129.898 41.936 129.914 42H132.106C132.09 41.92 132.01 41.392 132.01 40.768V36.88C132.01 35.248 131.066 33.808 128.49 33.808C126.154 33.808 125.098 35.312 125.002 36.448L127.114 36.88C127.162 36.288 127.626 35.712 128.474 35.712C129.242 35.712 129.642 36.112 129.642 36.576C129.642 36.848 129.498 37.056 129.066 37.12L127.194 37.408C125.882 37.6 124.842 38.4 124.842 39.808ZM128.186 40.464C127.514 40.464 127.242 40.064 127.242 39.648C127.242 39.088 127.626 38.848 128.138 38.768L129.642 38.528V38.88C129.642 40.112 128.906 40.464 128.186 40.464ZM136.488 42V30.416H134.056V42H136.488ZM140.474 37.072C140.523 36.48 141.034 35.728 142.058 35.728C143.21 35.728 143.627 36.464 143.659 37.072H140.474ZM143.834 39.136C143.61 39.76 143.115 40.176 142.234 40.176C141.29 40.176 140.474 39.536 140.427 38.64H145.962C145.979 38.592 146.01 38.224 146.01 37.888C146.01 35.328 144.49 33.808 142.027 33.808C139.963 33.808 138.058 35.44 138.058 38C138.058 40.672 140.01 42.24 142.202 42.24C144.219 42.24 145.483 41.088 145.866 39.712L143.834 39.136Z" transform="translate(0.5 220.4)" fill="white"/>
<path d="M3.344 11.488C3.584 11.36 3.936 11.248 4.272 11.248C5.008 11.248 5.776 11.664 5.776 12.656C5.776 13.424 5.2 14.08 4.224 14.08C3.248 14.08 2.592 13.36 2.56 12.448L0.128 12.896C0.288 14.672 1.824 16.224 4.24 16.224C6.8 16.224 8.32 14.56 8.32 12.72C8.32 10.944 7.008 9.664 5.408 9.552L7.968 7.568V5.616H0.48V7.728H4.816L2.256 9.824L3.344 11.488ZM11.0864 8.08C11.0864 7.472 11.5024 7.056 12.0624 7.056C12.6224 7.056 13.0224 7.472 13.0224 8.08C13.0224 8.704 12.6224 9.136 12.0624 9.136C11.5024 9.136 11.0864 8.72 11.0864 8.08ZM9.35838 8.08C9.35838 9.568 10.5584 10.736 12.0464 10.736C13.5344 10.736 14.7664 9.616 14.7664 8.08C14.7664 6.592 13.5344 5.424 12.0624 5.424C10.5904 5.424 9.35838 6.592 9.35838 8.08ZM18.3984 13.552C18.3984 12.944 18.8144 12.528 19.3744 12.528C19.9344 12.528 20.3344 12.944 20.3344 13.552C20.3344 14.176 19.9344 14.608 19.3744 14.608C18.8144 14.608 18.3984 14.192 18.3984 13.552ZM16.6704 13.552C16.6704 15.04 17.8704 16.208 19.3584 16.208C20.8464 16.208 22.0784 15.088 22.0784 13.552C22.0784 12.064 20.8464 10.896 19.3744 10.896C17.9024 10.896 16.6704 12.064 16.6704 13.552ZM13.1184 16L20.3984 5.616H18.3344L11.0704 16H13.1184ZM30.609 5.728H28.433V6.752C28.433 7.488 28.033 8.048 27.201 8.048H26.801V10.176H28.209V13.584C28.209 15.168 29.217 16.144 30.865 16.144C31.633 16.144 32.033 15.968 32.129 15.92V13.904C31.985 13.936 31.745 13.984 31.489 13.984C30.961 13.984 30.609 13.808 30.609 13.152V10.176H32.161V8.048H30.609V5.728ZM37.4387 14C36.5268 14 35.6467 13.344 35.6467 12.016C35.6467 10.672 36.5268 10.048 37.4387 10.048C38.3667 10.048 39.2308 10.672 39.2308 12.016C39.2308 13.36 38.3667 14 37.4387 14ZM37.4387 7.808C35.0707 7.808 33.2147 9.552 33.2147 12.016C33.2147 14.48 35.0707 16.24 37.4387 16.24C39.8228 16.24 41.6628 14.48 41.6628 12.016C41.6628 9.552 39.8228 7.808 37.4387 7.808ZM51.2282 8.048H48.0763L45.6602 10.72V4.416H43.2283V16H45.6602V14.048L46.4443 13.2L48.3162 16H51.2922L48.1242 11.392L51.2282 8.048ZM53.9432 11.072C53.9913 10.48 54.5032 9.728 55.5272 9.728C56.6792 9.728 57.0953 10.464 57.1273 11.072H53.9432ZM57.3032 13.136C57.0792 13.76 56.5833 14.176 55.7032 14.176C54.7592 14.176 53.9432 13.536 53.8953 12.64H59.4312C59.4473 12.592 59.4792 12.224 59.4792 11.888C59.4792 9.328 57.9592 7.808 55.4953 7.808C53.4313 7.808 51.5272 9.44 51.5272 12C51.5272 14.672 53.4792 16.24 55.6712 16.24C57.6873 16.24 58.9513 15.088 59.3352 13.712L57.3032 13.136ZM63.4727 11.44C63.4727 10.64 63.9847 10.048 64.7847 10.048C65.6648 10.048 66.0807 10.64 66.0807 11.424V16H68.5127V11.008C68.5127 9.264 67.6167 7.84 65.6167 7.84C64.8007 7.84 63.8247 8.208 63.3928 8.96V8.048H61.0408V16H63.4727V11.44ZM69.9004 13.744C69.9644 14.624 70.7644 16.24 73.2604 16.24C75.3884 16.24 76.4284 14.912 76.4284 13.552C76.4284 12.384 75.6284 11.392 73.9804 11.056L72.9244 10.848C72.5724 10.784 72.3004 10.592 72.3004 10.256C72.3004 9.84 72.7004 9.568 73.1644 9.568C73.9004 9.568 74.2364 10.016 74.3004 10.544L76.3164 10.176C76.2364 9.248 75.4364 7.808 73.1324 7.808C71.3564 7.808 70.0764 8.992 70.0764 10.448C70.0764 11.568 70.7484 12.528 72.4444 12.896L73.3564 13.104C73.9484 13.232 74.1404 13.472 74.1404 13.76C74.1404 14.112 73.8364 14.448 73.2124 14.448C72.3804 14.448 71.9964 13.92 71.9644 13.376L69.9004 13.744ZM84.859 5.728H82.683V6.752C82.683 7.488 82.283 8.048 81.451 8.048H81.051V10.176H82.459V13.584C82.459 15.168 83.467 16.144 85.115 16.144C85.883 16.144 86.283 15.968 86.379 15.92V13.904C86.235 13.936 85.995 13.984 85.739 13.984C85.211 13.984 84.859 13.808 84.859 13.152V10.176H86.411V8.048H84.859V5.728ZM91.6887 14C90.7768 14 89.8967 13.344 89.8967 12.016C89.8967 10.672 90.7768 10.048 91.6887 10.048C92.6167 10.048 93.4808 10.672 93.4808 12.016C93.4808 13.36 92.6167 14 91.6887 14ZM91.6887 7.808C89.3207 7.808 87.4647 9.552 87.4647 12.016C87.4647 14.48 89.3207 16.24 91.6887 16.24C94.0728 16.24 95.9128 14.48 95.9128 12.016C95.9128 9.552 94.0728 7.808 91.6887 7.808ZM103.768 16V15.104C104.136 15.712 104.952 16.176 106.008 16.176C108.232 16.176 109.8 14.432 109.8 12C109.8 9.616 108.408 7.856 106.104 7.856C105.016 7.856 104.136 8.304 103.8 8.8V4.416H101.416V16H103.768ZM107.368 12.016C107.368 13.344 106.52 14 105.576 14C104.632 14 103.768 13.328 103.768 12.016C103.768 10.672 104.632 10.048 105.576 10.048C106.52 10.048 107.368 10.672 107.368 12.016ZM115.017 14C114.105 14 113.225 13.344 113.225 12.016C113.225 10.672 114.105 10.048 115.017 10.048C115.945 10.048 116.809 10.672 116.809 12.016C116.809 13.36 115.945 14 115.017 14ZM115.017 7.808C112.649 7.808 110.793 9.552 110.793 12.016C110.793 14.48 112.649 16.24 115.017 16.24C117.401 16.24 119.241 14.48 119.241 12.016C119.241 9.552 117.401 7.808 115.017 7.808ZM125.927 16H128.263C128.247 15.872 128.183 15.296 128.183 14.576V8.048H125.751V12.576C125.751 13.376 125.239 13.936 124.423 13.936C123.559 13.936 123.143 13.328 123.143 12.56V8.048H120.711V13.072C120.711 14.768 121.799 16.176 123.735 16.176C124.535 16.176 125.447 15.888 125.863 15.2C125.863 15.408 125.895 15.856 125.927 16ZM132.754 11.44C132.754 10.64 133.266 10.048 134.066 10.048C134.946 10.048 135.362 10.64 135.362 11.424V16H137.794V11.008C137.794 9.264 136.898 7.84 134.898 7.84C134.082 7.84 133.106 8.208 132.674 8.96V8.048H130.322V16H132.754V11.44ZM142.75 5.728H140.574V6.752C140.574 7.488 140.174 8.048 139.342 8.048H138.942V10.176H140.35V13.584C140.35 15.168 141.358 16.144 143.006 16.144C143.774 16.144 144.174 15.968 144.27 15.92V13.904C144.126 13.936 143.886 13.984 143.63 13.984C143.102 13.984 142.75 13.808 142.75 13.152V10.176H144.302V8.048H142.75V5.728ZM149.364 19.056L154.26 8.048H151.684L149.924 12.304L147.988 8.048H145.268L148.612 14.928L146.804 19.056H149.364ZM3.504 45.04V41.376C3.872 41.824 4.64 42.176 5.664 42.176C7.888 42.176 9.456 40.432 9.456 38C9.456 35.616 8.064 33.856 5.76 33.856C4.624 33.856 3.76 34.352 3.424 34.864V34.048H1.072V45.04H3.504ZM7.072 38.016C7.072 39.344 6.224 40 5.264 40C4.32 40 3.472 39.328 3.472 38.016C3.472 36.688 4.32 36.048 5.264 36.048C6.224 36.048 7.072 36.688 7.072 38.016ZM16.0811 34.048C15.9211 34 15.6811 33.968 15.4411 33.968C14.8011 33.968 13.7931 34.224 13.3771 35.12V34.048H11.0251V42H13.4571V38.528C13.4571 36.944 14.3371 36.368 15.3131 36.368C15.5531 36.368 15.8091 36.384 16.0811 36.448V34.048ZM21.1106 40C20.1986 40 19.3186 39.344 19.3186 38.016C19.3186 36.672 20.1986 36.048 21.1106 36.048C22.0386 36.048 22.9026 36.672 22.9026 38.016C22.9026 39.36 22.0386 40 21.1106 40ZM21.1106 33.808C18.7426 33.808 16.8866 35.552 16.8866 38.016C16.8866 40.48 18.7426 42.24 21.1106 42.24C23.4946 42.24 25.3346 40.48 25.3346 38.016C25.3346 35.552 23.4946 33.808 21.1106 33.808ZM26.3401 42.448C26.5641 43.872 28.0201 45.28 30.3081 45.28C33.2841 45.28 34.5641 43.296 34.5641 41.008V34.048H32.2441V34.896C32.0201 34.48 31.3321 33.904 30.0361 33.904C27.8601 33.904 26.3401 35.696 26.3401 37.792C26.3401 40 27.9241 41.664 30.0361 41.664C31.1881 41.664 31.8761 41.2 32.1641 40.768V41.136C32.1641 42.576 31.4121 43.168 30.1961 43.168C29.2841 43.168 28.6441 42.608 28.4841 41.84L26.3401 42.448ZM30.4841 39.552C29.5081 39.552 28.7721 38.88 28.7721 37.792C28.7721 36.704 29.5721 36.032 30.4841 36.032C31.3961 36.032 32.1801 36.704 32.1801 37.792C32.1801 38.88 31.4761 39.552 30.4841 39.552ZM41.6749 34.048C41.5149 34 41.2749 33.968 41.0349 33.968C40.3949 33.968 39.3869 34.224 38.9709 35.12V34.048H36.6189V42H39.0509V38.528C39.0509 36.944 39.9309 36.368 40.9069 36.368C41.1469 36.368 41.4029 36.384 41.6749 36.448V34.048ZM42.7326 39.808C42.7326 41.072 43.7406 42.224 45.4846 42.224C46.5406 42.224 47.3086 41.776 47.7246 41.104C47.7246 41.648 47.7886 41.936 47.8046 42H49.9966C49.9806 41.92 49.9006 41.392 49.9006 40.768V36.88C49.9006 35.248 48.9566 33.808 46.3806 33.808C44.0446 33.808 42.9886 35.312 42.8926 36.448L45.0046 36.88C45.0526 36.288 45.5166 35.712 46.3646 35.712C47.1326 35.712 47.5326 36.112 47.5326 36.576C47.5326 36.848 47.3886 37.056 46.9566 37.12L45.0846 37.408C43.7726 37.6 42.7326 38.4 42.7326 39.808ZM46.0766 40.464C45.4046 40.464 45.1326 40.064 45.1326 39.648C45.1326 39.088 45.5166 38.848 46.0286 38.768L47.5326 38.528V38.88C47.5326 40.112 46.7966 40.464 46.0766 40.464ZM54.379 42V37.424C54.379 36.704 54.843 36.048 55.691 36.048C56.571 36.048 56.971 36.64 56.971 37.392V42H59.371V37.408C59.371 36.704 59.835 36.048 60.699 36.048C61.563 36.048 61.963 36.64 61.963 37.392V42H64.315V36.848C64.315 34.688 62.875 33.808 61.371 33.808C60.299 33.808 59.531 34.16 58.907 35.056C58.507 34.272 57.691 33.808 56.555 33.808C55.691 33.808 54.667 34.256 54.267 34.96V34.048H51.947V42H54.379ZM72.7384 45.04V41.376C73.1064 41.824 73.8744 42.176 74.8984 42.176C77.1224 42.176 78.6904 40.432 78.6904 38C78.6904 35.616 77.2984 33.856 74.9944 33.856C73.8584 33.856 72.9944 34.352 72.6584 34.864V34.048H70.3064V45.04H72.7384ZM76.3064 38.016C76.3064 39.344 75.4584 40 74.4984 40C73.5544 40 72.7064 39.328 72.7064 38.016C72.7064 36.688 73.5544 36.048 74.4984 36.048C75.4584 36.048 76.3064 36.688 76.3064 38.016ZM79.7795 39.808C79.7795 41.072 80.7875 42.224 82.5315 42.224C83.5875 42.224 84.3555 41.776 84.7715 41.104C84.7715 41.648 84.8355 41.936 84.8515 42H87.0435C87.0275 41.92 86.9475 41.392 86.9475 40.768V36.88C86.9475 35.248 86.0035 33.808 83.4275 33.808C81.0915 33.808 80.0355 35.312 79.9395 36.448L82.0515 36.88C82.0995 36.288 82.5635 35.712 83.4115 35.712C84.1795 35.712 84.5795 36.112 84.5795 36.576C84.5795 36.848 84.4355 37.056 84.0035 37.12L82.1315 37.408C80.8195 37.6 79.7795 38.4 79.7795 39.808ZM83.1235 40.464C82.4515 40.464 82.1795 40.064 82.1795 39.648C82.1795 39.088 82.5635 38.848 83.0755 38.768L84.5795 38.528V38.88C84.5795 40.112 83.8435 40.464 83.1235 40.464ZM94.0499 34.048C93.8899 34 93.6499 33.968 93.4099 33.968C92.7699 33.968 91.7619 34.224 91.3459 35.12V34.048H88.9939V42H91.4259V38.528C91.4259 36.944 92.3059 36.368 93.2819 36.368C93.5219 36.368 93.7779 36.384 94.0499 36.448V34.048ZM98.7027 31.728H96.5267V32.752C96.5267 33.488 96.1267 34.048 95.2947 34.048H94.8947V36.176H96.3027V39.584C96.3027 41.168 97.3108 42.144 98.9587 42.144C99.7267 42.144 100.127 41.968 100.223 41.92V39.904C100.079 39.936 99.8387 39.984 99.5827 39.984C99.0547 39.984 98.7027 39.808 98.7027 39.152V36.176H100.255V34.048H98.7027V31.728ZM104.41 42V34.048H101.978V42H104.41ZM101.77 31.616C101.77 32.4 102.41 33.04 103.178 33.04C103.978 33.04 104.618 32.4 104.618 31.616C104.618 30.832 103.978 30.192 103.178 30.192C102.41 30.192 101.77 30.832 101.77 31.616ZM110.205 36.048C111.149 36.048 111.629 36.624 111.805 37.232L113.981 36.576C113.629 35.152 112.349 33.808 110.157 33.808C107.821 33.808 105.965 35.552 105.965 38.032C105.965 40.496 107.869 42.24 110.237 42.24C112.365 42.24 113.677 40.864 114.029 39.472L111.885 38.816C111.709 39.408 111.181 40 110.237 40C109.229 40 108.381 39.296 108.381 38.032C108.381 36.752 109.197 36.048 110.205 36.048ZM117.941 42V34.048H115.51V42H117.941ZM115.302 31.616C115.302 32.4 115.941 33.04 116.71 33.04C117.51 33.04 118.149 32.4 118.149 31.616C118.149 30.832 117.51 30.192 116.71 30.192C115.941 30.192 115.302 30.832 115.302 31.616ZM122.504 45.04V41.376C122.872 41.824 123.64 42.176 124.664 42.176C126.888 42.176 128.456 40.432 128.456 38C128.456 35.616 127.064 33.856 124.76 33.856C123.624 33.856 122.76 34.352 122.424 34.864V34.048H120.072V45.04H122.504ZM126.072 38.016C126.072 39.344 125.224 40 124.264 40C123.32 40 122.472 39.328 122.472 38.016C122.472 36.688 123.32 36.048 124.264 36.048C125.224 36.048 126.072 36.688 126.072 38.016ZM129.545 39.808C129.545 41.072 130.553 42.224 132.297 42.224C133.353 42.224 134.121 41.776 134.537 41.104C134.537 41.648 134.601 41.936 134.617 42H136.809C136.793 41.92 136.713 41.392 136.713 40.768V36.88C136.713 35.248 135.769 33.808 133.193 33.808C130.857 33.808 129.801 35.312 129.705 36.448L131.817 36.88C131.865 36.288 132.329 35.712 133.177 35.712C133.945 35.712 134.345 36.112 134.345 36.576C134.345 36.848 134.201 37.056 133.769 37.12L131.897 37.408C130.585 37.6 129.545 38.4 129.545 39.808ZM132.889 40.464C132.217 40.464 131.945 40.064 131.945 39.648C131.945 39.088 132.329 38.848 132.841 38.768L134.345 38.528V38.88C134.345 40.112 133.609 40.464 132.889 40.464ZM141.191 37.44C141.191 36.64 141.703 36.048 142.503 36.048C143.384 36.048 143.799 36.64 143.799 37.424V42H146.231V37.008C146.231 35.264 145.335 33.84 143.335 33.84C142.519 33.84 141.543 34.208 141.112 34.96V34.048H138.76V42H141.191V37.44ZM151.187 31.728H149.011V32.752C149.011 33.488 148.611 34.048 147.779 34.048H147.379V36.176H148.787V39.584C148.787 41.168 149.795 42.144 151.443 42.144C152.211 42.144 152.611 41.968 152.707 41.92V39.904C152.563 39.936 152.323 39.984 152.067 39.984C151.539 39.984 151.187 39.808 151.187 39.152V36.176H152.739V34.048H151.187V31.728ZM154.025 39.744C154.089 40.624 154.889 42.24 157.385 42.24C159.513 42.24 160.553 40.912 160.553 39.552C160.553 38.384 159.753 37.392 158.105 37.056L157.049 36.848C156.697 36.784 156.425 36.592 156.425 36.256C156.425 35.84 156.825 35.568 157.289 35.568C158.025 35.568 158.361 36.016 158.425 36.544L160.441 36.176C160.361 35.248 159.561 33.808 157.257 33.808C155.481 33.808 154.201 34.992 154.201 36.448C154.201 37.568 154.873 38.528 156.569 38.896L157.481 39.104C158.073 39.232 158.265 39.472 158.265 39.76C158.265 40.112 157.961 40.448 157.337 40.448C156.505 40.448 156.121 39.92 156.089 39.376L154.025 39.744Z" transform="translate(387 3.3999)" fill="white"/>
</svg>
