<svg width="729" height="345" viewBox="0 0 729 345" fill="none" xmlns="http://www.w3.org/2000/svg">
<path opacity="0.1" d="M0 0L260.64 260.64" transform="translate(250.4 69.4399)" stroke="white" stroke-width="0.96"/>
<path opacity="0.1" d="M0 0L260.64 260.64" transform="translate(510.08 69.4399) scale(-1 1)" stroke="white" stroke-width="0.96"/>
<path opacity="0.1" fill-rule="evenodd" clip-rule="evenodd" d="M48 96C74.5097 96 96 74.5097 96 48C96 21.4903 74.5097 0 48 0C21.4903 0 0 21.4903 0 48C0 74.5097 21.4903 96 48 96Z" transform="translate(332 152)" stroke="white" stroke-width="0.96"/>
<path opacity="0.1" fill-rule="evenodd" clip-rule="evenodd" d="M96 192C149.019 192 192 149.019 192 96C192 42.9807 149.019 0 96 0C42.9807 0 0 42.9807 0 96C0 149.019 42.9807 192 96 192Z" transform="translate(284 104)" stroke="white" stroke-width="0.96"/>
<path opacity="0.1" fill-rule="evenodd" clip-rule="evenodd" d="M144 288C223.529 288 288 223.529 288 144C288 64.471 223.529 0 144 0C64.471 0 0 64.471 0 144C0 223.529 64.471 288 144 288Z" transform="translate(236 56)" stroke="white" stroke-width="0.96"/>
<path fill-rule="evenodd" clip-rule="evenodd" d="M203.052 18.4951C242.422 41.9331 268.8 84.9173 268.8 134.062C268.8 208.289 208.627 268.462 134.4 268.462C60.1729 268.462 0 208.289 0 134.062C0 63.0632 55.0534 4.92237 124.8 0V28.8929C70.9776 33.7431 28.8 78.9772 28.8 134.062C28.8 192.384 76.0787 239.662 134.4 239.662C192.721 239.662 240 192.384 240 134.062C240 96.2987 220.177 63.1648 190.37 44.4983L203.052 18.4951Z" transform="translate(244.64 65.9377)" fill="#292EF1"/>
<path fill-rule="evenodd" clip-rule="evenodd" d="M35.7145 8.42129L23.0284 34.4316C15.695 31.787 7.98477 29.9311 0 28.9663V0C12.4803 1.17911 24.4638 4.06483 35.7145 8.42129Z" transform="translate(391.84 66.2017)" fill="#F12986"/>
<path d="M17.0347 15.696C17.5788 16.016 18.5227 16.24 19.4508 16.24C23.0188 16.24 24.9867 14.048 24.9867 10.368C24.9867 7.056 23.1467 5.376 20.7787 5.376C18.3468 5.376 16.7147 6.928 16.7147 9.04C16.7147 11.12 18.2987 12.528 20.2987 12.528C21.2267 12.528 22.1227 12.16 22.5547 11.52C22.3948 13.36 20.9868 14.08 19.4028 14.08C18.6667 14.08 17.9147 13.84 17.5788 13.664L17.0347 15.696ZM22.2188 8.96C22.2188 9.808 21.5468 10.432 20.6667 10.432C19.7868 10.432 19.1147 9.824 19.1147 8.96C19.1147 8.096 19.7868 7.488 20.6667 7.488C21.5468 7.488 22.2188 8.096 22.2188 8.96ZM33.7221 5.616H25.6581V7.728H30.7461C30.7461 7.728 27.4661 10.624 27.0341 16H29.6581C30.1061 10.88 33.0021 8.256 33.7221 7.632V5.616ZM36.1489 8.08C36.1489 7.472 36.5649 7.056 37.1249 7.056C37.6849 7.056 38.0849 7.472 38.0849 8.08C38.0849 8.704 37.6849 9.136 37.1249 9.136C36.5649 9.136 36.1489 8.72 36.1489 8.08ZM34.4209 8.08C34.4209 9.568 35.6209 10.736 37.1089 10.736C38.5969 10.736 39.8289 9.616 39.8289 8.08C39.8289 6.592 38.5969 5.424 37.1249 5.424C35.6529 5.424 34.4209 6.592 34.4209 8.08ZM43.4609 13.552C43.4609 12.944 43.8769 12.528 44.4369 12.528C44.9969 12.528 45.3969 12.944 45.3969 13.552C45.3969 14.176 44.9969 14.608 44.4369 14.608C43.8769 14.608 43.4609 14.192 43.4609 13.552ZM41.7329 13.552C41.7329 15.04 42.9329 16.208 44.4209 16.208C45.9089 16.208 47.1409 15.088 47.1409 13.552C47.1409 12.064 45.9089 10.896 44.4369 10.896C42.9649 10.896 41.7329 12.064 41.7329 13.552ZM38.1809 16L45.4609 5.616H43.3969L36.1329 16H38.1809ZM55.6715 5.728H53.4955V6.752C53.4955 7.488 53.0955 8.048 52.2635 8.048H51.8635V10.176H53.2715V13.584C53.2715 15.168 54.2795 16.144 55.9275 16.144C56.6955 16.144 57.0955 15.968 57.1915 15.92V13.904C57.0475 13.936 56.8075 13.984 56.5515 13.984C56.0235 13.984 55.6715 13.808 55.6715 13.152V10.176H57.2235V8.048H55.6715V5.728ZM62.5012 14C61.5893 14 60.7092 13.344 60.7092 12.016C60.7092 10.672 61.5893 10.048 62.5012 10.048C63.4292 10.048 64.2933 10.672 64.2933 12.016C64.2933 13.36 63.4292 14 62.5012 14ZM62.5012 7.808C60.1332 7.808 58.2772 9.552 58.2772 12.016C58.2772 14.48 60.1332 16.24 62.5012 16.24C64.8853 16.24 66.7253 14.48 66.7253 12.016C66.7253 9.552 64.8853 7.808 62.5012 7.808ZM76.2907 8.048H73.1388L70.7227 10.72V4.416H68.2908V16H70.7227V14.048L71.5068 13.2L73.3787 16H76.3547L73.1867 11.392L76.2907 8.048ZM79.0057 11.072C79.0538 10.48 79.5657 9.728 80.5897 9.728C81.7417 9.728 82.1578 10.464 82.1898 11.072H79.0057ZM82.3657 13.136C82.1417 13.76 81.6458 14.176 80.7657 14.176C79.8217 14.176 79.0057 13.536 78.9578 12.64H84.4937C84.5098 12.592 84.5417 12.224 84.5417 11.888C84.5417 9.328 83.0217 7.808 80.5578 7.808C78.4938 7.808 76.5897 9.44 76.5897 12C76.5897 14.672 78.5417 16.24 80.7337 16.24C82.7498 16.24 84.0138 15.088 84.3977 13.712L82.3657 13.136ZM88.5352 11.44C88.5352 10.64 89.0472 10.048 89.8472 10.048C90.7273 10.048 91.1432 10.64 91.1432 11.424V16H93.5752V11.008C93.5752 9.264 92.6792 7.84 90.6792 7.84C89.8632 7.84 88.8872 8.208 88.4553 8.96V8.048H86.1033V16H88.5352V11.44ZM94.9629 13.744C95.0269 14.624 95.8269 16.24 98.3229 16.24C100.451 16.24 101.491 14.912 101.491 13.552C101.491 12.384 100.691 11.392 99.0429 11.056L97.9869 10.848C97.6349 10.784 97.3629 10.592 97.3629 10.256C97.3629 9.84 97.7629 9.568 98.2269 9.568C98.9629 9.568 99.2989 10.016 99.3629 10.544L101.379 10.176C101.299 9.248 100.499 7.808 98.1949 7.808C96.4189 7.808 95.1389 8.992 95.1389 10.448C95.1389 11.568 95.8109 12.528 97.5069 12.896L98.4189 13.104C99.0109 13.232 99.2029 13.472 99.2029 13.76C99.2029 14.112 98.8989 14.448 98.2749 14.448C97.4429 14.448 97.0589 13.92 97.0269 13.376L94.9629 13.744ZM106.53 13.808C106.53 15.072 107.538 16.224 109.282 16.224C110.338 16.224 111.106 15.776 111.522 15.104C111.522 15.648 111.585 15.936 111.602 16H113.793C113.778 15.92 113.698 15.392 113.698 14.768V10.88C113.698 9.248 112.753 7.808 110.177 7.808C107.842 7.808 106.785 9.312 106.689 10.448L108.802 10.88C108.849 10.288 109.313 9.712 110.161 9.712C110.93 9.712 111.33 10.112 111.33 10.576C111.33 10.848 111.186 11.056 110.753 11.12L108.882 11.408C107.569 11.6 106.53 12.4 106.53 13.808ZM109.874 14.464C109.201 14.464 108.93 14.064 108.93 13.648C108.93 13.088 109.313 12.848 109.826 12.768L111.33 12.528V12.88C111.33 14.112 110.594 14.464 109.874 14.464ZM123.349 8.048H120.789L119.093 12.992L117.253 8.048H114.613L117.877 16H120.325L123.349 8.048ZM124.092 13.808C124.092 15.072 125.1 16.224 126.844 16.224C127.9 16.224 128.668 15.776 129.084 15.104C129.084 15.648 129.148 15.936 129.164 16H131.356C131.34 15.92 131.26 15.392 131.26 14.768V10.88C131.26 9.248 130.316 7.808 127.74 7.808C125.404 7.808 124.348 9.312 124.252 10.448L126.364 10.88C126.412 10.288 126.876 9.712 127.724 9.712C128.492 9.712 128.892 10.112 128.892 10.576C128.892 10.848 128.748 11.056 128.316 11.12L126.444 11.408C125.132 11.6 124.092 12.4 124.092 13.808ZM127.436 14.464C126.764 14.464 126.492 14.064 126.492 13.648C126.492 13.088 126.876 12.848 127.388 12.768L128.892 12.528V12.88C128.892 14.112 128.156 14.464 127.436 14.464ZM135.738 16V8.048H133.306V16H135.738ZM133.098 5.616C133.098 6.4 133.738 7.04 134.506 7.04C135.306 7.04 135.946 6.4 135.946 5.616C135.946 4.832 135.306 4.192 134.506 4.192C133.738 4.192 133.098 4.832 133.098 5.616ZM140.301 16V4.416H137.869V16H140.301ZM141.889 13.808C141.889 15.072 142.897 16.224 144.641 16.224C145.697 16.224 146.465 15.776 146.881 15.104C146.881 15.648 146.945 15.936 146.961 16H149.153C149.137 15.92 149.057 15.392 149.057 14.768V10.88C149.057 9.248 148.113 7.808 145.537 7.808C143.201 7.808 142.145 9.312 142.049 10.448L144.161 10.88C144.209 10.288 144.673 9.712 145.521 9.712C146.289 9.712 146.689 10.112 146.689 10.576C146.689 10.848 146.545 11.056 146.113 11.12L144.241 11.408C142.929 11.6 141.889 12.4 141.889 13.808ZM145.233 14.464C144.561 14.464 144.289 14.064 144.289 13.648C144.289 13.088 144.673 12.848 145.185 12.768L146.689 12.528V12.88C146.689 14.112 145.953 14.464 145.233 14.464ZM153.455 16V15.104C153.823 15.712 154.639 16.176 155.695 16.176C157.919 16.176 159.487 14.432 159.487 12C159.487 9.616 158.095 7.856 155.791 7.856C154.703 7.856 153.823 8.304 153.487 8.8V4.416H151.103V16H153.455ZM157.055 12.016C157.055 13.344 156.207 14 155.263 14C154.319 14 153.455 13.328 153.455 12.016C153.455 10.672 154.319 10.048 155.263 10.048C156.207 10.048 157.055 10.672 157.055 12.016ZM163.488 16V4.416H161.056V16H163.488ZM167.474 11.072C167.523 10.48 168.034 9.728 169.058 9.728C170.21 9.728 170.627 10.464 170.659 11.072H167.474ZM170.834 13.136C170.61 13.76 170.115 14.176 169.234 14.176C168.29 14.176 167.474 13.536 167.427 12.64H172.962C172.979 12.592 173.01 12.224 173.01 11.888C173.01 9.328 171.49 7.808 169.027 7.808C166.963 7.808 165.058 9.44 165.058 12C165.058 14.672 167.01 16.24 169.202 16.24C171.219 16.24 172.483 15.088 172.866 13.712L170.834 13.136ZM123.881 36.096V34.048H122.153V33.44C122.153 32.56 122.761 32.368 123.193 32.368C123.577 32.368 123.785 32.416 123.913 32.448V30.464C123.689 30.352 123.257 30.288 122.761 30.288C120.825 30.288 119.721 31.536 119.721 33.36V34.048H118.457V36.096H119.721V42H122.153V36.096H123.881ZM128.704 40C127.792 40 126.912 39.344 126.912 38.016C126.912 36.672 127.792 36.048 128.704 36.048C129.632 36.048 130.496 36.672 130.496 38.016C130.496 39.36 129.632 40 128.704 40ZM128.704 33.808C126.336 33.808 124.48 35.552 124.48 38.016C124.48 40.48 126.336 42.24 128.704 42.24C131.088 42.24 132.928 40.48 132.928 38.016C132.928 35.552 131.088 33.808 128.704 33.808ZM139.55 34.048C139.39 34 139.15 33.968 138.91 33.968C138.27 33.968 137.262 34.224 136.846 35.12V34.048H134.494V42H136.926V38.528C136.926 36.944 137.806 36.368 138.782 36.368C139.022 36.368 139.278 36.384 139.55 36.448V34.048ZM144.229 39.744C144.292 40.624 145.092 42.24 147.589 42.24C149.716 42.24 150.756 40.912 150.756 39.552C150.756 38.384 149.957 37.392 148.308 37.056L147.253 36.848C146.901 36.784 146.628 36.592 146.628 36.256C146.628 35.84 147.029 35.568 147.493 35.568C148.228 35.568 148.564 36.016 148.628 36.544L150.644 36.176C150.564 35.248 149.765 33.808 147.461 33.808C145.684 33.808 144.405 34.992 144.405 36.448C144.405 37.568 145.077 38.528 146.773 38.896L147.684 39.104C148.277 39.232 148.469 39.472 148.469 39.76C148.469 40.112 148.165 40.448 147.54 40.448C146.708 40.448 146.325 39.92 146.293 39.376L144.229 39.744ZM151.842 39.808C151.842 41.072 152.85 42.224 154.594 42.224C155.65 42.224 156.418 41.776 156.834 41.104C156.834 41.648 156.898 41.936 156.914 42H159.106C159.09 41.92 159.01 41.392 159.01 40.768V36.88C159.01 35.248 158.066 33.808 155.49 33.808C153.154 33.808 152.098 35.312 152.002 36.448L154.114 36.88C154.162 36.288 154.626 35.712 155.474 35.712C156.242 35.712 156.642 36.112 156.642 36.576C156.642 36.848 156.498 37.056 156.066 37.12L154.194 37.408C152.882 37.6 151.842 38.4 151.842 39.808ZM155.186 40.464C154.514 40.464 154.242 40.064 154.242 39.648C154.242 39.088 154.626 38.848 155.138 38.768L156.642 38.528V38.88C156.642 40.112 155.906 40.464 155.186 40.464ZM163.488 42V30.416H161.056V42H163.488ZM167.474 37.072C167.523 36.48 168.034 35.728 169.058 35.728C170.21 35.728 170.627 36.464 170.659 37.072H167.474ZM170.834 39.136C170.61 39.76 170.115 40.176 169.234 40.176C168.29 40.176 167.474 39.536 167.427 38.64H172.962C172.979 38.592 173.01 38.224 173.01 37.888C173.01 35.328 171.49 33.808 169.027 33.808C166.963 33.808 165.058 35.44 165.058 38C165.058 40.672 167.01 42.24 169.202 42.24C171.219 42.24 172.483 41.088 172.866 39.712L170.834 39.136Z" transform="translate(0.5 170.4)" fill="white"/>
<path d="M3.344 11.488C3.584 11.36 3.936 11.248 4.272 11.248C5.008 11.248 5.776 11.664 5.776 12.656C5.776 13.424 5.2 14.08 4.224 14.08C3.248 14.08 2.592 13.36 2.56 12.448L0.128 12.896C0.288 14.672 1.824 16.224 4.24 16.224C6.8 16.224 8.32 14.56 8.32 12.72C8.32 10.944 7.008 9.664 5.408 9.552L7.968 7.568V5.616H0.48V7.728H4.816L2.256 9.824L3.344 11.488ZM11.0864 8.08C11.0864 7.472 11.5024 7.056 12.0624 7.056C12.6224 7.056 13.0224 7.472 13.0224 8.08C13.0224 8.704 12.6224 9.136 12.0624 9.136C11.5024 9.136 11.0864 8.72 11.0864 8.08ZM9.35838 8.08C9.35838 9.568 10.5584 10.736 12.0464 10.736C13.5344 10.736 14.7664 9.616 14.7664 8.08C14.7664 6.592 13.5344 5.424 12.0624 5.424C10.5904 5.424 9.35838 6.592 9.35838 8.08ZM18.3984 13.552C18.3984 12.944 18.8144 12.528 19.3744 12.528C19.9344 12.528 20.3344 12.944 20.3344 13.552C20.3344 14.176 19.9344 14.608 19.3744 14.608C18.8144 14.608 18.3984 14.192 18.3984 13.552ZM16.6704 13.552C16.6704 15.04 17.8704 16.208 19.3584 16.208C20.8464 16.208 22.0784 15.088 22.0784 13.552C22.0784 12.064 20.8464 10.896 19.3744 10.896C17.9024 10.896 16.6704 12.064 16.6704 13.552ZM13.1184 16L20.3984 5.616H18.3344L11.0704 16H13.1184ZM30.609 5.728H28.433V6.752C28.433 7.488 28.033 8.048 27.201 8.048H26.801V10.176H28.209V13.584C28.209 15.168 29.217 16.144 30.865 16.144C31.633 16.144 32.033 15.968 32.129 15.92V13.904C31.985 13.936 31.745 13.984 31.489 13.984C30.961 13.984 30.609 13.808 30.609 13.152V10.176H32.161V8.048H30.609V5.728ZM37.4387 14C36.5268 14 35.6467 13.344 35.6467 12.016C35.6467 10.672 36.5268 10.048 37.4387 10.048C38.3667 10.048 39.2308 10.672 39.2308 12.016C39.2308 13.36 38.3667 14 37.4387 14ZM37.4387 7.808C35.0707 7.808 33.2147 9.552 33.2147 12.016C33.2147 14.48 35.0707 16.24 37.4387 16.24C39.8228 16.24 41.6628 14.48 41.6628 12.016C41.6628 9.552 39.8228 7.808 37.4387 7.808ZM51.2282 8.048H48.0763L45.6602 10.72V4.416H43.2283V16H45.6602V14.048L46.4443 13.2L48.3162 16H51.2922L48.1242 11.392L51.2282 8.048ZM53.9432 11.072C53.9913 10.48 54.5032 9.728 55.5272 9.728C56.6792 9.728 57.0953 10.464 57.1273 11.072H53.9432ZM57.3032 13.136C57.0792 13.76 56.5833 14.176 55.7032 14.176C54.7592 14.176 53.9432 13.536 53.8953 12.64H59.4312C59.4473 12.592 59.4792 12.224 59.4792 11.888C59.4792 9.328 57.9592 7.808 55.4953 7.808C53.4313 7.808 51.5272 9.44 51.5272 12C51.5272 14.672 53.4792 16.24 55.6712 16.24C57.6873 16.24 58.9513 15.088 59.3352 13.712L57.3032 13.136ZM63.4727 11.44C63.4727 10.64 63.9847 10.048 64.7847 10.048C65.6648 10.048 66.0807 10.64 66.0807 11.424V16H68.5127V11.008C68.5127 9.264 67.6167 7.84 65.6167 7.84C64.8007 7.84 63.8247 8.208 63.3928 8.96V8.048H61.0408V16H63.4727V11.44ZM69.9004 13.744C69.9644 14.624 70.7644 16.24 73.2604 16.24C75.3884 16.24 76.4284 14.912 76.4284 13.552C76.4284 12.384 75.6284 11.392 73.9804 11.056L72.9244 10.848C72.5724 10.784 72.3004 10.592 72.3004 10.256C72.3004 9.84 72.7004 9.568 73.1644 9.568C73.9004 9.568 74.2364 10.016 74.3004 10.544L76.3164 10.176C76.2364 9.248 75.4364 7.808 73.1324 7.808C71.3564 7.808 70.0764 8.992 70.0764 10.448C70.0764 11.568 70.7484 12.528 72.4444 12.896L73.3564 13.104C73.9484 13.232 74.1404 13.472 74.1404 13.76C74.1404 14.112 73.8364 14.448 73.2124 14.448C72.3804 14.448 71.9964 13.92 71.9644 13.376L69.9004 13.744ZM84.859 5.728H82.683V6.752C82.683 7.488 82.283 8.048 81.451 8.048H81.051V10.176H82.459V13.584C82.459 15.168 83.467 16.144 85.115 16.144C85.883 16.144 86.283 15.968 86.379 15.92V13.904C86.235 13.936 85.995 13.984 85.739 13.984C85.211 13.984 84.859 13.808 84.859 13.152V10.176H86.411V8.048H84.859V5.728ZM91.6887 14C90.7768 14 89.8967 13.344 89.8967 12.016C89.8967 10.672 90.7768 10.048 91.6887 10.048C92.6167 10.048 93.4808 10.672 93.4808 12.016C93.4808 13.36 92.6167 14 91.6887 14ZM91.6887 7.808C89.3207 7.808 87.4647 9.552 87.4647 12.016C87.4647 14.48 89.3207 16.24 91.6887 16.24C94.0728 16.24 95.9128 14.48 95.9128 12.016C95.9128 9.552 94.0728 7.808 91.6887 7.808ZM103.768 16V15.104C104.136 15.712 104.952 16.176 106.008 16.176C108.232 16.176 109.8 14.432 109.8 12C109.8 9.616 108.408 7.856 106.104 7.856C105.016 7.856 104.136 8.304 103.8 8.8V4.416H101.416V16H103.768ZM107.368 12.016C107.368 13.344 106.52 14 105.576 14C104.632 14 103.768 13.328 103.768 12.016C103.768 10.672 104.632 10.048 105.576 10.048C106.52 10.048 107.368 10.672 107.368 12.016ZM115.017 14C114.105 14 113.225 13.344 113.225 12.016C113.225 10.672 114.105 10.048 115.017 10.048C115.945 10.048 116.809 10.672 116.809 12.016C116.809 13.36 115.945 14 115.017 14ZM115.017 7.808C112.649 7.808 110.793 9.552 110.793 12.016C110.793 14.48 112.649 16.24 115.017 16.24C117.401 16.24 119.241 14.48 119.241 12.016C119.241 9.552 117.401 7.808 115.017 7.808ZM125.927 16H128.263C128.247 15.872 128.183 15.296 128.183 14.576V8.048H125.751V12.576C125.751 13.376 125.239 13.936 124.423 13.936C123.559 13.936 123.143 13.328 123.143 12.56V8.048H120.711V13.072C120.711 14.768 121.799 16.176 123.735 16.176C124.535 16.176 125.447 15.888 125.863 15.2C125.863 15.408 125.895 15.856 125.927 16ZM132.754 11.44C132.754 10.64 133.266 10.048 134.066 10.048C134.946 10.048 135.362 10.64 135.362 11.424V16H137.794V11.008C137.794 9.264 136.898 7.84 134.898 7.84C134.082 7.84 133.106 8.208 132.674 8.96V8.048H130.322V16H132.754V11.44ZM142.75 5.728H140.574V6.752C140.574 7.488 140.174 8.048 139.342 8.048H138.942V10.176H140.35V13.584C140.35 15.168 141.358 16.144 143.006 16.144C143.774 16.144 144.174 15.968 144.27 15.92V13.904C144.126 13.936 143.886 13.984 143.63 13.984C143.102 13.984 142.75 13.808 142.75 13.152V10.176H144.302V8.048H142.75V5.728ZM149.364 19.056L154.26 8.048H151.684L149.924 12.304L147.988 8.048H145.268L148.612 14.928L146.804 19.056H149.364ZM161.863 19.04V15.376C162.231 15.824 162.999 16.176 164.023 16.176C166.247 16.176 167.815 14.432 167.815 12C167.815 9.616 166.423 7.856 164.119 7.856C162.983 7.856 162.119 8.352 161.783 8.864V8.048H159.431V19.04H161.863ZM165.431 12.016C165.431 13.344 164.583 14 163.623 14C162.679 14 161.831 13.328 161.831 12.016C161.831 10.688 162.679 10.048 163.623 10.048C164.583 10.048 165.431 10.688 165.431 12.016ZM174.44 8.048C174.28 8 174.041 7.968 173.8 7.968C173.161 7.968 172.152 8.224 171.737 9.12V8.048H169.385V16H171.816V12.528C171.816 10.944 172.696 10.368 173.673 10.368C173.912 10.368 174.168 10.384 174.44 10.448V8.048ZM179.47 14C178.558 14 177.678 13.344 177.678 12.016C177.678 10.672 178.558 10.048 179.47 10.048C180.398 10.048 181.262 10.672 181.262 12.016C181.262 13.36 180.398 14 179.47 14ZM179.47 7.808C177.102 7.808 175.246 9.552 175.246 12.016C175.246 14.48 177.102 16.24 179.47 16.24C181.854 16.24 183.694 14.48 183.694 12.016C183.694 9.552 181.854 7.808 179.47 7.808ZM184.7 16.448C184.924 17.872 186.379 19.28 188.668 19.28C191.643 19.28 192.924 17.296 192.924 15.008V8.048H190.603V8.896C190.379 8.48 189.692 7.904 188.396 7.904C186.22 7.904 184.7 9.696 184.7 11.792C184.7 14 186.283 15.664 188.396 15.664C189.548 15.664 190.235 15.2 190.523 14.768V15.136C190.523 16.576 189.772 17.168 188.556 17.168C187.644 17.168 187.003 16.608 186.843 15.84L184.7 16.448ZM188.844 13.552C187.868 13.552 187.132 12.88 187.132 11.792C187.132 10.704 187.931 10.032 188.844 10.032C189.755 10.032 190.54 10.704 190.54 11.792C190.54 12.88 189.835 13.552 188.844 13.552ZM200.034 8.048C199.874 8 199.634 7.968 199.394 7.968C198.754 7.968 197.746 8.224 197.33 9.12V8.048H194.978V16H197.41V12.528C197.41 10.944 198.29 10.368 199.266 10.368C199.506 10.368 199.762 10.384 200.034 10.448V8.048ZM201.092 13.808C201.092 15.072 202.1 16.224 203.844 16.224C204.9 16.224 205.668 15.776 206.084 15.104C206.084 15.648 206.148 15.936 206.164 16H208.356C208.34 15.92 208.26 15.392 208.26 14.768V10.88C208.26 9.248 207.316 7.808 204.74 7.808C202.404 7.808 201.348 9.312 201.252 10.448L203.364 10.88C203.412 10.288 203.876 9.712 204.724 9.712C205.492 9.712 205.892 10.112 205.892 10.576C205.892 10.848 205.748 11.056 205.316 11.12L203.444 11.408C202.132 11.6 201.092 12.4 201.092 13.808ZM204.436 14.464C203.764 14.464 203.492 14.064 203.492 13.648C203.492 13.088 203.876 12.848 204.388 12.768L205.892 12.528V12.88C205.892 14.112 205.156 14.464 204.436 14.464ZM212.738 16V11.424C212.738 10.704 213.202 10.048 214.05 10.048C214.93 10.048 215.33 10.64 215.33 11.392V16H217.73V11.408C217.73 10.704 218.194 10.048 219.058 10.048C219.922 10.048 220.322 10.64 220.322 11.392V16H222.674V10.848C222.674 8.688 221.234 7.808 219.73 7.808C218.658 7.808 217.89 8.16 217.266 9.056C216.866 8.272 216.05 7.808 214.914 7.808C214.05 7.808 213.026 8.256 212.626 8.96V8.048H210.306V16H212.738ZM3.504 45.04V41.376C3.872 41.824 4.64 42.176 5.664 42.176C7.888 42.176 9.456 40.432 9.456 38C9.456 35.616 8.064 33.856 5.76 33.856C4.624 33.856 3.76 34.352 3.424 34.864V34.048H1.072V45.04H3.504ZM7.072 38.016C7.072 39.344 6.224 40 5.264 40C4.32 40 3.472 39.328 3.472 38.016C3.472 36.688 4.32 36.048 5.264 36.048C6.224 36.048 7.072 36.688 7.072 38.016ZM10.5451 39.808C10.5451 41.072 11.5531 42.224 13.2971 42.224C14.3531 42.224 15.1211 41.776 15.5371 41.104C15.5371 41.648 15.6011 41.936 15.6171 42H17.8091C17.7931 41.92 17.7131 41.392 17.7131 40.768V36.88C17.7131 35.248 16.7691 33.808 14.1931 33.808C11.8571 33.808 10.8011 35.312 10.7051 36.448L12.8171 36.88C12.8651 36.288 13.3291 35.712 14.1771 35.712C14.9451 35.712 15.3451 36.112 15.3451 36.576C15.3451 36.848 15.2011 37.056 14.7691 37.12L12.8971 37.408C11.5851 37.6 10.5451 38.4 10.5451 39.808ZM13.8891 40.464C13.2171 40.464 12.9451 40.064 12.9451 39.648C12.9451 39.088 13.3291 38.848 13.8411 38.768L15.3451 38.528V38.88C15.3451 40.112 14.6091 40.464 13.8891 40.464ZM24.8155 34.048C24.6555 34 24.4155 33.968 24.1755 33.968C23.5355 33.968 22.5275 34.224 22.1115 35.12V34.048H19.7595V42H22.1915V38.528C22.1915 36.944 23.0715 36.368 24.0475 36.368C24.2875 36.368 24.5435 36.384 24.8155 36.448V34.048ZM29.4684 31.728H27.2924V32.752C27.2924 33.488 26.8924 34.048 26.0604 34.048H25.6604V36.176H27.0684V39.584C27.0684 41.168 28.0764 42.144 29.7244 42.144C30.4924 42.144 30.8924 41.968 30.9884 41.92V39.904C30.8444 39.936 30.6044 39.984 30.3484 39.984C29.8204 39.984 29.4684 39.808 29.4684 39.152V36.176H31.0204V34.048H29.4684V31.728ZM35.1759 42V34.048H32.7439V42H35.1759ZM32.5359 31.616C32.5359 32.4 33.1759 33.04 33.9439 33.04C34.7439 33.04 35.3839 32.4 35.3839 31.616C35.3839 30.832 34.7439 30.192 33.9439 30.192C33.1759 30.192 32.5359 30.832 32.5359 31.616ZM40.9704 36.048C41.9144 36.048 42.3944 36.624 42.5704 37.232L44.7464 36.576C44.3944 35.152 43.1144 33.808 40.9224 33.808C38.5864 33.808 36.7304 35.552 36.7304 38.032C36.7304 40.496 38.6344 42.24 41.0024 42.24C43.1304 42.24 44.4424 40.864 44.7944 39.472L42.6504 38.816C42.4744 39.408 41.9464 40 41.0024 40C39.9944 40 39.1464 39.296 39.1464 38.032C39.1464 36.752 39.9624 36.048 40.9704 36.048ZM48.7071 42V34.048H46.2751V42H48.7071ZM46.0671 31.616C46.0671 32.4 46.7071 33.04 47.4751 33.04C48.2751 33.04 48.9151 32.4 48.9151 31.616C48.9151 30.832 48.2751 30.192 47.4751 30.192C46.7071 30.192 46.0671 30.832 46.0671 31.616ZM53.2696 45.04V41.376C53.6376 41.824 54.4056 42.176 55.4296 42.176C57.6536 42.176 59.2216 40.432 59.2216 38C59.2216 35.616 57.8296 33.856 55.5256 33.856C54.3896 33.856 53.5256 34.352 53.1896 34.864V34.048H50.8376V45.04H53.2696ZM56.8376 38.016C56.8376 39.344 55.9896 40 55.0296 40C54.0856 40 53.2376 39.328 53.2376 38.016C53.2376 36.688 54.0856 36.048 55.0296 36.048C55.9896 36.048 56.8376 36.688 56.8376 38.016ZM60.3108 39.808C60.3108 41.072 61.3188 42.224 63.0628 42.224C64.1188 42.224 64.8868 41.776 65.3028 41.104C65.3028 41.648 65.3667 41.936 65.3828 42H67.5747C67.5588 41.92 67.4788 41.392 67.4788 40.768V36.88C67.4788 35.248 66.5347 33.808 63.9587 33.808C61.6228 33.808 60.5667 35.312 60.4707 36.448L62.5828 36.88C62.6307 36.288 63.0947 35.712 63.9427 35.712C64.7108 35.712 65.1108 36.112 65.1108 36.576C65.1108 36.848 64.9668 37.056 64.5347 37.12L62.6628 37.408C61.3507 37.6 60.3108 38.4 60.3108 39.808ZM63.6548 40.464C62.9827 40.464 62.7108 40.064 62.7108 39.648C62.7108 39.088 63.0947 38.848 63.6068 38.768L65.1108 38.528V38.88C65.1108 40.112 64.3748 40.464 63.6548 40.464ZM71.9571 37.44C71.9571 36.64 72.4691 36.048 73.2691 36.048C74.1491 36.048 74.5651 36.64 74.5651 37.424V42H76.9971V37.008C76.9971 35.264 76.1011 33.84 74.1011 33.84C73.2851 33.84 72.3091 34.208 71.8771 34.96V34.048H69.5251V42H71.9571V37.44ZM81.9527 31.728H79.7767V32.752C79.7767 33.488 79.3767 34.048 78.5447 34.048H78.1447V36.176H79.5527V39.584C79.5527 41.168 80.5608 42.144 82.2087 42.144C82.9767 42.144 83.3767 41.968 83.4728 41.92V39.904C83.3288 39.936 83.0887 39.984 82.8327 39.984C82.3047 39.984 81.9527 39.808 81.9527 39.152V36.176H83.5047V34.048H81.9527V31.728ZM84.791 39.744C84.855 40.624 85.655 42.24 88.151 42.24C90.279 42.24 91.319 40.912 91.319 39.552C91.319 38.384 90.519 37.392 88.871 37.056L87.815 36.848C87.463 36.784 87.191 36.592 87.191 36.256C87.191 35.84 87.591 35.568 88.055 35.568C88.791 35.568 89.127 36.016 89.191 36.544L91.207 36.176C91.127 35.248 90.327 33.808 88.023 33.808C86.247 33.808 84.967 34.992 84.967 36.448C84.967 37.568 85.639 38.528 87.335 38.896L88.247 39.104C88.839 39.232 89.031 39.472 89.031 39.76C89.031 40.112 88.727 40.448 88.103 40.448C87.271 40.448 86.887 39.92 86.855 39.376L84.791 39.744Z" transform="translate(500 3.3999)" fill="white"/>
</svg>
