<svg width="559" height="327" viewBox="0 0 559 327" fill="none" xmlns="http://www.w3.org/2000/svg">
<path opacity="0.05" d="M0 0L271.5 271.5" transform="translate(120 40)" stroke="white"/>
<path opacity="0.05" d="M0 0L271.5 271.5" transform="translate(390.5 40) scale(-1 1)" stroke="white"/>
<path opacity="0.05" fill-rule="evenodd" clip-rule="evenodd" d="M50 100C77.6142 100 100 77.6142 100 50C100 22.3858 77.6142 0 50 0C22.3858 0 0 22.3858 0 50C0 77.6142 22.3858 100 50 100Z" transform="translate(205 126)" stroke="white"/>
<path opacity="0.05" fill-rule="evenodd" clip-rule="evenodd" d="M100 200C155.228 200 200 155.228 200 100C200 44.7715 155.228 0 100 0C44.7715 0 0 44.7715 0 100C0 155.228 44.7715 200 100 200Z" transform="translate(155 76)" stroke="white"/>
<path opacity="0.05" fill-rule="evenodd" clip-rule="evenodd" d="M150 300C232.843 300 300 232.843 300 150C300 67.1573 232.843 0 150 0C67.1573 0 0 67.1573 0 150C0 232.843 67.1573 300 150 300Z" transform="translate(105 26)" stroke="white"/>
<path fill-rule="evenodd" clip-rule="evenodd" d="M17.3858 0.564897L0.320782 22.0299C-0.151218 22.6229 -0.0952181 23.4699 0.441782 24.0039C19.5448 42.9939 31.6998 68.9779 32.7368 97.7419C32.7638 98.5029 33.3548 99.1229 34.1148 99.1729L61.4548 100.991C62.3218 101.048 63.0608 100.352 63.0478 99.4829C62.4438 60.5529 45.8508 25.4279 19.5798 0.406897C18.9478 -0.195103 17.9298 -0.118103 17.3858 0.564897Z" transform="translate(330.936 73.8635)" fill="#1CC5FF"/>
<path fill-rule="evenodd" clip-rule="evenodd" d="M139.922 249.332C80.98 249.286 32.174 202.019 30.327 143.106C28.49 84.5394 72.804 35.7364 129.576 30.3594C130.34 30.2864 130.926 29.6534 130.926 28.8864V1.49437C130.926 0.629365 130.188 -0.0616347 129.325 0.00436528C57.095 5.47537 0 66.0034 0 139.596C0 216.79 62.814 279.604 140.008 279.604C147.512 279.604 154.886 279.012 162.08 277.853C162.93 277.716 163.483 276.879 163.287 276.04L157.057 249.37C156.882 248.62 156.166 248.137 155.403 248.245C150.341 248.966 145.176 249.336 139.922 249.332Z" transform="translate(114 36)" fill="#292EF1"/>
<path fill-rule="evenodd" clip-rule="evenodd" d="M0 1.4957V28.9337C0 29.6927 0.574 30.3207 1.328 30.4027C18.951 32.3117 35.318 38.4077 49.44 47.6647C50.082 48.0857 50.936 47.9547 51.413 47.3527L68.435 25.9327C68.972 25.2567 68.827 24.2597 68.115 23.7737C48.834 10.6147 26.124 2.1387 1.618 0.00569923C0.749 -0.0703008 0 0.623699 0 1.4957Z" transform="translate(264.602 36.1086)" fill="#F12986"/>
<path fill-rule="evenodd" clip-rule="evenodd" d="M72.0848 1.24322C65.4368 40.6382 37.7318 72.9502 0.986757 86.1862C0.276757 86.4422 -0.132243 87.1822 0.0387566 87.9162L6.26976 114.646C6.46776 115.498 7.35976 116.003 8.18976 115.726C57.4448 99.2672 94.5888 56.1172 102.376 3.52222C102.503 2.66422 101.862 1.87822 100.996 1.82022L73.6408 0.00322346C72.8798 -0.0467765 72.2118 0.490223 72.0848 1.24322Z" transform="translate(290.126 192.68)" fill="#1CC5FF"/>
<path d="M4.44 7.28H2.34V8.74C2.34 9.6 1.88 10.26 0.84 10.26H0.34V12.32H2.14V17.22C2.14 19.04 3.26 20.12 5.06 20.12C5.9 20.12 6.34 19.96 6.48 19.9V17.98C6.38 18 6 18.06 5.68 18.06C4.82 18.06 4.44 17.7 4.44 16.84V12.32H6.46V10.26H4.44V7.28ZM10.3661 14.06C10.4461 13.02 11.2861 11.9 12.7461 11.9C14.3461 11.9 15.1061 12.92 15.1461 14.06H10.3661ZM15.4061 16.6C15.0861 17.56 14.3661 18.3 12.9661 18.3C11.5261 18.3 10.3661 17.24 10.3061 15.76H17.4261C17.4461 15.72 17.4861 15.4 17.4861 15.02C17.4861 11.94 15.7261 9.96 12.7261 9.96C10.2661 9.96 7.98609 12 7.98609 15.08C7.98609 18.38 10.3261 20.3 12.9661 20.3C15.3061 20.3 16.8461 18.92 17.3661 17.22L15.4061 16.6ZM19.1031 17.36C19.1031 18.9 20.3631 20.3 22.4031 20.3C23.9831 20.3 24.9431 19.5 25.4031 18.76C25.4031 19.54 25.4831 19.94 25.5031 20H27.6631C27.6431 19.9 27.5431 19.32 27.5431 18.44V13.6C27.5431 11.66 26.4031 9.96 23.4031 9.96C21.0031 9.96 19.4831 11.46 19.3031 13.14L21.4231 13.62C21.5231 12.64 22.2031 11.86 23.4231 11.86C24.7031 11.86 25.2631 12.52 25.2631 13.34C25.2631 13.68 25.1031 13.96 24.5431 14.04L22.0431 14.42C20.3831 14.66 19.1031 15.62 19.1031 17.36ZM22.8431 18.48C21.9231 18.48 21.4231 17.88 21.4231 17.22C21.4231 16.42 22.0031 16.02 22.7231 15.9L25.2631 15.52V15.96C25.2631 17.86 24.1431 18.48 22.8431 18.48ZM32.6477 20V14.22C32.6477 12.98 33.4277 12.06 34.6677 12.06C35.9877 12.06 36.5477 12.94 36.5477 14.06V20H38.8277V14.22C38.8277 13.02 39.6277 12.06 40.8477 12.06C42.1477 12.06 42.7277 12.92 42.7277 14.06V20H44.9677V13.68C44.9677 11.1 43.2877 9.98 41.5277 9.98C40.2677 9.98 39.1277 10.42 38.3677 11.7C37.8477 10.56 36.7277 9.98 35.4477 9.98C34.3477 9.98 33.1277 10.5 32.5677 11.5V10.26H30.3477V20H32.6477Z" transform="translate(318)" fill="white"/>
<path d="M5.74 12.1C7.22 12.1 7.88 13.06 8.1 13.92L10.18 13.16C9.78 11.6 8.34 9.96 5.72 9.96C2.92 9.96 0.74 12.12 0.74 15.12C0.74 18.08 2.92 20.3 5.78 20.3C8.34 20.3 9.8 18.64 10.26 17.12L8.22 16.38C8 17.12 7.3 18.18 5.78 18.18C4.32 18.18 3.06 17.08 3.06 15.12C3.06 13.16 4.32 12.1 5.74 12.1ZM16.5027 18.22C15.0827 18.22 13.7827 17.14 13.7827 15.12C13.7827 13.1 15.0827 12.06 16.5027 12.06C17.9427 12.06 19.2227 13.1 19.2227 15.12C19.2227 17.16 17.9427 18.22 16.5027 18.22ZM16.5027 9.96C13.6027 9.96 11.4627 12.14 11.4627 15.12C11.4627 18.12 13.6027 20.3 16.5027 20.3C19.4227 20.3 21.5627 18.12 21.5627 15.12C21.5627 12.14 19.4227 9.96 16.5027 9.96ZM26.1047 20V14.22C26.1047 12.98 26.8847 12.06 28.1247 12.06C29.4447 12.06 30.0047 12.94 30.0047 14.06V20H32.2847V14.22C32.2847 13.02 33.0847 12.06 34.3047 12.06C35.6047 12.06 36.1847 12.92 36.1847 14.06V20H38.4247V13.68C38.4247 11.1 36.7447 9.98 34.9847 9.98C33.7247 9.98 32.5847 10.42 31.8247 11.7C31.3047 10.56 30.1847 9.98 28.9047 9.98C27.8047 9.98 26.5847 10.5 26.0247 11.5V10.26H23.8047V20H26.1047ZM43.5656 20V14.22C43.5656 12.98 44.3456 12.06 45.5856 12.06C46.9056 12.06 47.4656 12.94 47.4656 14.06V20H49.7456V14.22C49.7456 13.02 50.5456 12.06 51.7656 12.06C53.0656 12.06 53.6456 12.92 53.6456 14.06V20H55.8856V13.68C55.8856 11.1 54.2056 9.98 52.4456 9.98C51.1856 9.98 50.0456 10.42 49.2856 11.7C48.7656 10.56 47.6456 9.98 46.3656 9.98C45.2656 9.98 44.0456 10.5 43.4856 11.5V10.26H41.2656V20H43.5656ZM64.9298 18.92C64.9298 19.32 64.9698 19.78 65.0098 20H67.2298C67.1898 19.64 67.1298 19.02 67.1298 18.22V10.26H64.8098V16.02C64.8098 17.3 64.1098 18.2 62.7698 18.2C61.3698 18.2 60.8098 17.18 60.8098 15.98V10.26H58.4898V16.4C58.4898 18.56 59.8498 20.28 62.1698 20.28C63.3098 20.28 64.4498 19.8 64.9298 18.92ZM72.4528 14.38C72.4528 13.1 73.1528 12.08 74.4728 12.08C75.9328 12.08 76.4728 13.04 76.4728 14.24V20H78.7928V13.84C78.7928 11.7 77.6528 9.98 75.2728 9.98C74.1928 9.98 73.0328 10.44 72.3928 11.56V10.26H70.1328V20H72.4528V14.38ZM83.9172 20V10.26H81.6172V20H83.9172ZM81.2572 6.84C81.2572 7.68 81.9372 8.34 82.7572 8.34C83.5972 8.34 84.2772 7.68 84.2772 6.84C84.2772 6 83.5972 5.32 82.7572 5.32C81.9372 5.32 81.2572 6 81.2572 6.84ZM89.8502 7.28H87.7502V8.74C87.7502 9.6 87.2902 10.26 86.2502 10.26H85.7502V12.32H87.5502V17.22C87.5502 19.04 88.6702 20.12 90.4702 20.12C91.3102 20.12 91.7502 19.96 91.8902 19.9V17.98C91.7902 18 91.4102 18.06 91.0902 18.06C90.2302 18.06 89.8502 17.7 89.8502 16.84V12.32H91.8702V10.26H89.8502V7.28ZM97.3702 23.94L103.57 10.26H101.11L98.4902 16.42L95.6902 10.26H93.0702L97.2302 18.84L94.8902 23.94H97.3702Z" transform="translate(0 62)" fill="white"/>
<path d="M3.82 20V5.52H1.5V20H3.82ZM9.1125 20V10.26H6.8125V20H9.1125ZM6.4525 6.84C6.4525 7.68 7.1325 8.34 7.9525 8.34C8.7925 8.34 9.4725 7.68 9.4725 6.84C9.4725 6 8.7925 5.32 7.9525 5.32C7.1325 5.32 6.4525 6 6.4525 6.84ZM11.4055 20.54C11.6655 22.5 13.4655 24.1 16.0455 24.1C19.7055 24.1 21.0455 21.68 21.0455 19.08V10.26H18.8055V11.5C18.3855 10.7 17.4455 10.08 15.9255 10.08C13.2455 10.08 11.4255 12.22 11.4255 14.82C11.4255 17.56 13.3255 19.56 15.9255 19.56C17.3455 19.56 18.3255 18.9 18.7455 18.14V19.16C18.7455 21.14 17.8255 22.08 15.9855 22.08C14.6455 22.08 13.7055 21.18 13.5455 19.98L11.4055 20.54ZM16.3055 17.58C14.7855 17.58 13.7655 16.52 13.7655 14.82C13.7655 13.16 14.8255 12.08 16.3055 12.08C17.7455 12.08 18.8055 13.16 18.8055 14.82C18.8055 16.5 17.7855 17.58 16.3055 17.58ZM26.2028 14.28C26.2428 13.04 26.9428 12.08 28.2228 12.08C29.6828 12.08 30.2228 13.04 30.2228 14.24V20H32.5428V13.84C32.5428 11.7 31.3828 9.98 28.9828 9.98C27.9628 9.98 26.8628 10.34 26.2028 11.2V5.52H23.8828V20H26.2028V14.28ZM38.3072 7.28H36.2072V8.74C36.2072 9.6 35.7472 10.26 34.7072 10.26H34.2072V12.32H36.0072V17.22C36.0072 19.04 37.1272 20.12 38.9272 20.12C39.7672 20.12 40.2072 19.96 40.3472 19.9V17.98C40.2472 18 39.8672 18.06 39.5472 18.06C38.6872 18.06 38.3072 17.7 38.3072 16.84V12.32H40.3272V10.26H38.3072V7.28ZM47.0328 17.36C47.0328 18.9 48.2928 20.3 50.3328 20.3C51.9128 20.3 52.8728 19.5 53.3328 18.76C53.3328 19.54 53.4128 19.94 53.4328 20H55.5928C55.5728 19.9 55.4728 19.32 55.4728 18.44V13.6C55.4728 11.66 54.3328 9.96 51.3328 9.96C48.9328 9.96 47.4128 11.46 47.2328 13.14L49.3528 13.62C49.4528 12.64 50.1328 11.86 51.3528 11.86C52.6328 11.86 53.1928 12.52 53.1928 13.34C53.1928 13.68 53.0328 13.96 52.4728 14.04L49.9728 14.42C48.3128 14.66 47.0328 15.62 47.0328 17.36ZM50.7728 18.48C49.8528 18.48 49.3528 17.88 49.3528 17.22C49.3528 16.42 49.9328 16.02 50.6528 15.9L53.1928 15.52V15.96C53.1928 17.86 52.0728 18.48 50.7728 18.48ZM60.5973 14.38C60.5973 13.1 61.2973 12.08 62.6173 12.08C64.0773 12.08 64.6173 13.04 64.6173 14.24V20H66.9373V13.84C66.9373 11.7 65.7973 9.98 63.4173 9.98C62.3373 9.98 61.1773 10.44 60.5373 11.56V10.26H58.2773V20H60.5973V14.38ZM71.3217 15.1C71.3217 13.24 72.4417 12.06 73.9617 12.06C75.4817 12.06 76.5217 13.22 76.5217 15.08C76.5217 16.94 75.4617 18.2 73.9417 18.2C72.3617 18.2 71.3217 16.96 71.3217 15.1ZM78.7617 5.52H76.5017V11.4C76.2017 10.78 75.3417 10 73.6417 10C70.9017 10 69.0017 12.3 69.0017 15.1C69.0017 18.04 70.8817 20.24 73.6817 20.24C75.0617 20.24 76.0817 19.56 76.5417 18.74C76.5417 19.14 76.6017 19.78 76.6417 20H78.8617C78.8417 19.84 78.7617 19.1 78.7617 18.22V5.52ZM85.8939 17.36C86.0139 18.46 87.0939 20.3 89.9139 20.3C92.3939 20.3 93.5939 18.66 93.5939 17.18C93.5939 15.74 92.6339 14.62 90.7939 14.22L89.3139 13.92C88.7139 13.8 88.3339 13.42 88.3339 12.9C88.3339 12.3 88.9139 11.78 89.7339 11.78C91.0339 11.78 91.4539 12.68 91.5339 13.24L93.4939 12.68C93.3339 11.72 92.4539 9.96 89.7339 9.96C87.7139 9.96 86.1539 11.4 86.1539 13.1C86.1539 14.44 87.0539 15.56 88.7739 15.94L90.2139 16.26C90.9939 16.42 91.3539 16.82 91.3539 17.34C91.3539 17.94 90.8539 18.46 89.8939 18.46C88.6539 18.46 87.9939 17.68 87.9139 16.8L85.8939 17.36ZM100.116 18.22C98.6959 18.22 97.3959 17.14 97.3959 15.12C97.3959 13.1 98.6959 12.06 100.116 12.06C101.556 12.06 102.836 13.1 102.836 15.12C102.836 17.16 101.556 18.22 100.116 18.22ZM100.116 9.96C97.2159 9.96 95.0759 12.14 95.0759 15.12C95.0759 18.12 97.2159 20.3 100.116 20.3C103.036 20.3 105.176 18.12 105.176 15.12C105.176 12.14 103.036 9.96 100.116 9.96ZM113.699 18.92C113.699 19.32 113.739 19.78 113.779 20H115.999C115.959 19.64 115.899 19.02 115.899 18.22V10.26H113.579V16.02C113.579 17.3 112.879 18.2 111.539 18.2C110.139 18.2 109.579 17.18 109.579 15.98V10.26H107.259V16.4C107.259 18.56 108.619 20.28 110.939 20.28C112.079 20.28 113.219 19.8 113.699 18.92ZM121.222 14.38C121.222 13.1 121.922 12.08 123.242 12.08C124.702 12.08 125.242 13.04 125.242 14.24V20H127.562V13.84C127.562 11.7 126.422 9.98 124.042 9.98C122.962 9.98 121.802 10.44 121.162 11.56V10.26H118.902V20H121.222V14.38ZM131.947 15.1C131.947 13.24 133.067 12.06 134.587 12.06C136.107 12.06 137.147 13.22 137.147 15.08C137.147 16.94 136.087 18.2 134.567 18.2C132.987 18.2 131.947 16.96 131.947 15.1ZM139.387 5.52H137.127V11.4C136.827 10.78 135.967 10 134.267 10C131.527 10 129.627 12.3 129.627 15.1C129.627 18.04 131.507 20.24 134.307 20.24C135.687 20.24 136.707 19.56 137.167 18.74C137.167 19.14 137.227 19.78 137.267 20H139.487C139.467 19.84 139.387 19.1 139.387 18.22V5.52Z" transform="translate(418 106)" fill="white"/>
<path d="M7.2 10.2C7.1 10.18 6.86 10.14 6.58 10.14C5.3 10.14 4.22 10.76 3.76 11.82V10.26H1.5V20H3.82V15.36C3.82 13.54 4.64 12.5 6.44 12.5C6.68 12.5 6.94 12.52 7.2 12.56V10.2ZM10.6591 14.06C10.7391 13.02 11.5791 11.9 13.0391 11.9C14.6391 11.9 15.3991 12.92 15.4391 14.06H10.6591ZM15.6991 16.6C15.3791 17.56 14.6591 18.3 13.2591 18.3C11.8191 18.3 10.6591 17.24 10.5991 15.76H17.7191C17.7391 15.72 17.7791 15.4 17.7791 15.02C17.7791 11.94 16.0191 9.96 13.0191 9.96C10.5591 9.96 8.27906 12 8.27906 15.08C8.27906 18.38 10.6191 20.3 13.2591 20.3C15.5991 20.3 17.1391 18.92 17.6591 17.22L15.6991 16.6ZM22.2961 20V10.26H19.9961V20H22.2961ZM19.6361 6.84C19.6361 7.68 20.3161 8.34 21.1361 8.34C21.9761 8.34 22.6561 7.68 22.6561 6.84C22.6561 6 21.9761 5.32 21.1361 5.32C20.3161 5.32 19.6361 6 19.6361 6.84ZM27.6091 14.38C27.6091 13.1 28.3091 12.08 29.6291 12.08C31.0891 12.08 31.6291 13.04 31.6291 14.24V20H33.9491V13.84C33.9491 11.7 32.8091 9.98 30.4291 9.98C29.3491 9.98 28.1891 10.44 27.5491 11.56V10.26H25.2891V20H27.6091V14.38ZM45.4758 10.26H43.0358L40.5158 17.22L37.9358 10.26H35.3758L39.3358 20H41.6558L45.4758 10.26ZM48.5106 14.06C48.5906 13.02 49.4306 11.9 50.8906 11.9C52.4906 11.9 53.2506 12.92 53.2906 14.06H48.5106ZM53.5506 16.6C53.2306 17.56 52.5106 18.3 51.1106 18.3C49.6706 18.3 48.5106 17.24 48.4506 15.76H55.5706C55.5906 15.72 55.6306 15.4 55.6306 15.02C55.6306 11.94 53.8706 9.96 50.8706 9.96C48.4106 9.96 46.1306 12 46.1306 15.08C46.1306 18.38 48.4706 20.3 51.1106 20.3C53.4506 20.3 54.9906 18.92 55.5106 17.22L53.5506 16.6ZM56.9877 17.36C57.1077 18.46 58.1877 20.3 61.0077 20.3C63.4877 20.3 64.6877 18.66 64.6877 17.18C64.6877 15.74 63.7277 14.62 61.8877 14.22L60.4077 13.92C59.8077 13.8 59.4277 13.42 59.4277 12.9C59.4277 12.3 60.0077 11.78 60.8277 11.78C62.1277 11.78 62.5477 12.68 62.6277 13.24L64.5877 12.68C64.4277 11.72 63.5477 9.96 60.8277 9.96C58.8077 9.96 57.2477 11.4 57.2477 13.1C57.2477 14.44 58.1477 15.56 59.8677 15.94L61.3077 16.26C62.0877 16.42 62.4477 16.82 62.4477 17.34C62.4477 17.94 61.9477 18.46 60.9877 18.46C59.7477 18.46 59.0877 17.68 59.0077 16.8L56.9877 17.36ZM69.9283 7.28H67.8283V8.74C67.8283 9.6 67.3683 10.26 66.3283 10.26H65.8283V12.32H67.6283V17.22C67.6283 19.04 68.7483 20.12 70.5483 20.12C71.3883 20.12 71.8283 19.96 71.9683 19.9V17.98C71.8683 18 71.4883 18.06 71.1683 18.06C70.3083 18.06 69.9283 17.7 69.9283 16.84V12.32H71.9483V10.26H69.9283V7.28Z" transform="translate(418 260)" fill="white"/>
</svg>
