<svg width="50" height="56" viewBox="0 0 50 56" fill="none" xmlns="http://www.w3.org/2000/svg">
<g id="icon-ex">
<path id="Stroke 21" fill-rule="evenodd" clip-rule="evenodd" d="M33.5475 41.733C22.8522 47.9086 9.17542 44.2435 2.99984 33.5482C-3.17574 22.8517 0.489378 9.17491 11.1859 2.99933C21.8812 -3.17509 35.558 0.488861 41.7324 11.1854C47.908 21.8819 44.2429 35.5575 33.5475 41.733Z" transform="translate(2.58154 5.54053)" stroke="#F12986"/>
<path id="Stroke 3" fill-rule="evenodd" clip-rule="evenodd" d="M10.4651 5.23256C10.4651 8.12209 8.12209 10.4651 5.23256 10.4651C2.34302 10.4651 0 8.12209 0 5.23256C0 2.34302 2.34302 0 5.23256 0C8.12209 0 10.4651 2.34302 10.4651 5.23256Z" transform="translate(19.7153 0.581421)" stroke="#F12986"/>
<path id="Stroke 7" fill-rule="evenodd" clip-rule="evenodd" d="M7.84972 0.701526C10.352 2.14687 11.2102 5.34687 9.76483 7.8492C8.32065 10.3527 5.11948 11.2097 2.61716 9.76548C0.114833 8.32013 -0.743306 5.12013 0.702043 2.61664C2.14739 0.114317 5.34739 -0.74266 7.84972 0.701526Z" transform="translate(0.581299 11.627)" stroke="#F12986"/>
<path id="Stroke 11" fill-rule="evenodd" clip-rule="evenodd" d="M2.61716 0.701526C5.11948 -0.74266 8.32065 0.114317 9.76483 2.61664C11.2102 5.12013 10.352 8.32013 7.84972 9.76548C5.34739 11.2097 2.14739 10.3527 0.702043 7.8492C-0.743306 5.34687 0.114833 2.14687 2.61716 0.701526Z" transform="translate(0.581299 33.72)" stroke="#F12986"/>
<path id="Stroke 15" fill-rule="evenodd" clip-rule="evenodd" d="M0 5.23256C0 2.34302 2.34302 0 5.23256 0C8.12209 0 10.4651 2.34302 10.4651 5.23256C10.4651 8.12209 8.12209 10.4651 5.23256 10.4651C2.34302 10.4651 0 8.12209 0 5.23256Z" transform="translate(19.7153 44.7675)" stroke="#F12986"/>
<path id="Stroke 19" fill-rule="evenodd" clip-rule="evenodd" d="M2.61716 9.76544C0.114833 8.32009 -0.743306 5.12009 0.702043 2.61776C2.14623 0.114275 5.34739 -0.742702 7.84972 0.701484C10.352 2.14683 11.2102 5.34683 9.76483 7.85032C8.31948 10.3526 5.11948 11.2096 2.61716 9.76544Z" transform="translate(38.8477 33.72)" stroke="#F12986"/>
<path id="Stroke 23" fill-rule="evenodd" clip-rule="evenodd" d="M7.84972 9.76544C5.34739 11.2096 2.14623 10.3526 0.702043 7.85032C-0.743306 5.34683 0.114833 2.14683 2.61716 0.701484C5.11948 -0.742702 8.31948 0.114275 9.76483 2.61776C11.2102 5.12009 10.352 8.32009 7.84972 9.76544Z" transform="translate(38.8477 11.627)" stroke="#F12986"/>
</g>
</svg>
