<svg width="58" height="48" viewBox="0 0 58 48" fill="none" xmlns="http://www.w3.org/2000/svg">
<path fill-rule="evenodd" clip-rule="evenodd" d="M35.2862 14.2144H32.3213C32.3727 13.7412 32.4644 13.2791 32.4644 12.7934C32.4644 5.72617 26.7758 0 19.7618 0C13.1849 0 7.83844 5.05093 7.18822 11.5025C3.12356 12.1276 0 15.6306 0 19.8998C0 24.6108 3.79244 28.4287 8.47 28.4287H16.9384H35.2862C39.1844 28.4287 42.3438 25.2468 42.3438 21.3208C42.3438 17.3963 39.1844 14.2144 35.2862 14.2144Z" transform="translate(1 18.0594)" stroke="#F12986" stroke-linecap="round" stroke-linejoin="round"/>
<path d="M0 5.68543C2.27889 2.25757 6.16 0 10.5638 0C17.5793 0 23.2664 5.72773 23.2664 12.7934C23.2664 16.6834 21.5444 20.1661 18.8253 22.5114" transform="translate(22.9001 12.3721)" stroke="#F12986" stroke-linecap="round" stroke-linejoin="round"/>
<path d="M0 5.687V0" transform="translate(34.875 1)" stroke="#F12986" stroke-linecap="round" stroke-linejoin="round"/>
<path d="M3.99156 4.02007L0 0" transform="translate(18.8887 7.38525)" stroke="#F12986" stroke-linecap="round" stroke-linejoin="round"/>
<path d="M0 0H5.64511" transform="translate(51.355 23.9723)" stroke="#F12986" stroke-linecap="round" stroke-linejoin="round"/>
<path d="M0 4.02007L3.99156 0" transform="translate(46.6699 7.8717)" stroke="#F12986" stroke-linecap="round" stroke-linejoin="round"/>
</svg>
