<svg width="87" height="41" viewBox="0 0 87 41" fill="none" xmlns="http://www.w3.org/2000/svg">
<mask id="mask0" mask-type="alpha" maskUnits="userSpaceOnUse" x="0" y="0" width="87" height="40">
<path fill-rule="evenodd" clip-rule="evenodd" d="M0 0H86.0771V39.7441H0V0Z" transform="translate(0 0.161133)" fill="white"/>
</mask>
<g mask="url(#mask0)">
<path fill-rule="evenodd" clip-rule="evenodd" d="M27.2605 0.0177889C27.2605 0 19.8532 0.0177889 19.8532 0.0177889C8.88872 0.0177889 0 8.90651 0 19.871C0 30.8356 8.88872 39.7243 19.8532 39.7243L33.7806 39.7125C37.2796 39.7125 40.1161 36.8981 40.1161 33.3992L40.1234 21.2903L49.7498 36.4737C51.0517 38.4441 53.2867 39.7442 55.825 39.7442C59.8437 39.7442 63.1014 36.4864 63.1014 32.4677L63.0993 21.2903L72.7255 36.4737C74.0276 38.4441 76.2623 39.7442 78.8007 39.7442C82.8196 39.7442 86.0772 36.4864 86.0772 32.4677L86.075 0H81.1219V32.4677C81.1219 33.7495 80.0826 34.7885 78.8007 34.7885C77.9998 34.7885 77.2934 34.3829 76.8762 33.7653L59.7423 6.77645C59.5837 6.54662 59.3187 6.39589 59.0189 6.39589C58.5336 6.39589 58.1404 6.78915 58.1404 7.27422L58.1459 32.4677C58.1459 33.7495 57.1069 34.7885 55.825 34.7885C55.0238 34.7885 54.3175 34.3829 53.9004 33.7653L36.7664 6.77645C36.6081 6.54662 36.3431 6.39589 36.0428 6.39589C35.5577 6.39589 35.1646 6.78915 35.1646 7.27422L35.1607 33.3992C35.1607 34.1615 34.5428 34.7791 33.7806 34.7791L19.8532 34.7687C11.6257 34.7687 4.95547 28.0986 4.95547 19.871C4.95547 11.6433 11.6257 4.97326 19.8532 4.97326L27.2605 4.9677V0.0177889Z" transform="translate(0 0.161133)" fill="#474A97"/>
</g>
<path fill-rule="evenodd" clip-rule="evenodd" d="M21.6607 28.4076C22.0504 28.4076 22.3663 28.0915 22.3663 27.7019L22.3682 7.27644C22.3682 3.25775 25.626 0 29.6445 0C32.1921 0 34.4339 1.30939 35.7337 3.29158L45.3268 18.3402L45.3442 7.27644C45.3442 3.25775 48.6017 0 52.6206 0C55.1681 0 57.4096 1.30939 58.7096 3.29158L68.3026 18.3402V0.00222361H73.2898L73.2809 32.4699C73.2809 32.9552 72.8875 33.3481 72.4026 33.3481C72.1153 33.3481 71.8602 33.2102 71.7001 32.9969L54.5448 5.97881C54.1279 5.36144 53.4216 4.95547 52.6206 4.95547C51.3387 4.95547 50.2996 5.99469 50.2996 7.27644L50.3052 32.4699C50.3052 32.9552 49.9118 33.3481 49.4267 33.3481C49.1394 33.3481 48.8845 33.2102 48.7244 32.9969L31.5691 5.97881C31.152 5.36144 30.4457 4.95547 29.6445 4.95547C28.3628 4.95547 27.3237 5.99469 27.3237 7.27644L27.334 32.6697C27.334 33.0593 27.0181 33.3753 26.6284 33.3753L13.4549 33.3726C6.02407 33.3726 0 27.304 0 19.8732C0 12.4422 6.02407 6.37382 13.4549 6.37382C13.4549 6.37382 20.8622 6.34491 20.8622 6.37382V11.3793L13.4549 11.3736C8.76086 11.3736 4.95547 15.1791 4.95547 19.8732C4.95547 24.5671 8.76086 28.4171 13.4549 28.4171L21.6607 28.4076Z" transform="translate(6.39819 0.158691)" fill="#474A97"/>
</svg>
