<svg width="105" height="46" viewBox="0 0 105 46" fill="none" xmlns="http://www.w3.org/2000/svg">
<path d="M93.8916 0H11.7049C7.78221 0 3.92688 3.14403 3.14403 6.99515L0 22.3954H96.4548L99.5988 6.99515C100.382 3.14403 97.8143 0 93.8916 0Z" transform="translate(3.8335 0.781738)" fill="#474A97"/>
<path fill-rule="evenodd" clip-rule="evenodd" d="M6.2085 7.53809C7.05859 3.38379 11.196 0 15.4343 0H97.6208C99.7253 0 101.552 0.820801 102.764 2.30615C103.976 3.79199 104.414 5.74512 103.993 7.81152L97.9409 37.4673C97.095 41.6255 92.9531 45.0015 88.7107 45.0015H6.52832C4.42383 45.0015 2.59302 44.189 1.38501 42.7031C0.172852 41.2134 -0.264893 39.2603 0.156006 37.1978L6.2085 7.53809ZM97.6208 1.35938H15.4341C11.8062 1.35938 8.26221 4.25098 7.53833 7.81152L4.46875 22.8413H99.5425L102.663 7.53809C103.004 5.87988 102.663 4.32666 101.716 3.16504C100.765 1.99512 99.3127 1.35938 97.6208 1.35938Z" transform="translate(0.104248 0.104004)" fill="#474A97"/>
<path fill-rule="evenodd" clip-rule="evenodd" d="M0 17.0332L3.61792 0H18.9258C22.4065 0 23.6311 1.52783 23.0547 4.24658C22.7346 5.74951 21.7161 7.0625 20.323 7.56348L20.3162 7.60986C22.3828 8.18652 22.6648 10.2363 22.3955 11.5029C22.3325 11.7993 22.2581 12.0864 22.1716 12.3643L30.0623 0H38.3159L41.4761 14.8325L44.6292 0H52.3062L57.1213 9.44434H57.1926L59.2002 0H65.6355L62.0203 17.0288H54.6504L49.5242 7.4917H49.4775L47.4487 17.0288H41.9441H34.7891L34.49 15.0762H27.4822L26.3499 17.0288H19.1948L20.2361 15.3975C18.9851 16.438 17.1633 17.0332 14.5669 17.0332H0ZM63.5229 17.0288L67.1384 0H80.228C86.0024 0 88.5784 2.24316 87.2441 8.51465C85.9731 14.4995 82.4041 17.0288 76.7559 17.0288H63.5229ZM9.31689 4.1499H14.3928C15.7522 4.1499 15.9666 4.60889 15.8362 5.22754C15.6931 5.89258 15.2849 6.34668 13.9255 6.34668H8.84961L9.31689 4.1499ZM76.8145 4.29297H72.9507L71.1577 12.7402H75.0215C78.0981 12.7402 79.6597 11.2124 80.2322 8.51465C80.8047 5.8208 79.8911 4.29297 76.8145 4.29297ZM33.0715 5.15576H33.1179L33.8921 10.9263H29.8391L33.0715 5.15576ZM13.7739 10.2109H8.02881L7.46069 12.8838H13.2058C14.54 12.8838 15.0703 12.3066 15.2302 11.5449C15.3862 10.8086 15.1123 10.2109 13.7739 10.2109Z" transform="translate(9.82007 4.54883)" fill="#1D206E"/>
<path fill-rule="evenodd" clip-rule="evenodd" d="M80.6846 0C77.0818 0.00439453 74.0388 1.11133 73.2014 5.19385C72.7468 7.40332 73.2686 9.1709 75.3142 9.63086L80.0996 10.6875C80.6584 10.8179 80.769 11.2808 80.6721 11.748C80.5205 12.4971 80.0366 13.0273 78.6687 13.0273C77.9868 13.0273 77.5278 12.9185 77.2461 12.6953C76.9834 12.4551 76.9177 12.1016 77.0105 11.5713L71.7283 11.5747C70.7896 16.2085 74.3335 16.8696 77.7048 16.8696C82.6335 16.8652 85.2092 15.0552 86.0005 11.2168C86.5518 8.54004 85.4871 7.0835 83.3743 6.625L78.3657 5.52637C77.948 5.43799 77.8689 5.14795 77.9617 4.70605C78.0962 4.04492 78.6436 3.58105 79.9482 3.57812C80.428 3.57812 80.9077 3.66602 81.2444 3.91016C81.6064 4.1333 81.7874 4.52881 81.657 5.16406H86.7539C87.2842 1.83105 85.626 0 80.6846 0ZM9.11279 0.0419922C5.50586 0.0419922 2.46704 1.14453 1.62524 5.23145C1.17065 7.44092 1.69238 9.20459 3.73804 9.66895L8.52344 10.7251C9.08569 10.8555 9.19263 11.3188 9.09595 11.7861C8.94434 12.5308 8.46045 13.061 7.09253 13.061C6.79346 13.063 6.53735 13.043 6.32031 13.0015C6.04224 12.9478 5.82812 12.8584 5.66992 12.7329C5.41064 12.4888 5.34155 12.1396 5.43433 11.6094L0.151855 11.6123C-0.782471 16.2466 2.76147 16.9028 6.13281 16.9028C11.0574 16.8989 13.6331 15.0889 14.4285 11.2505C14.9797 8.57764 13.9109 7.12158 11.7979 6.6626L6.7937 5.56006C6.37866 5.47168 6.29272 5.18555 6.38525 4.74365C6.52002 4.08301 7.06738 3.61963 8.37207 3.61963C8.62354 3.61963 8.87378 3.64258 9.10327 3.69824C9.21069 3.72412 9.31372 3.75732 9.4104 3.79883C9.43896 3.81104 9.4668 3.82373 9.49438 3.8374L9.54272 3.8623C9.58789 3.88721 9.6311 3.91455 9.67236 3.94385C10.0303 4.1665 10.2156 4.56641 10.0808 5.20215H15.1777C15.708 1.86865 14.0498 0.0385742 9.11279 0.0419922ZM29.6562 8.3125C31.3313 0.496582 36.3105 0.239746 38.9663 0.239746C41.6221 0.236328 46.4917 0.488281 44.8167 8.30811C43.1414 16.1284 38.1624 16.3809 35.5066 16.3809C32.8508 16.3809 27.9812 16.1323 29.6562 8.3125ZM73.4077 0.561523L60.9199 0.568359L60.0991 4.53711H64.1523L61.7239 16.3271L66.1052 16.3237L68.5337 4.53467H72.5911L73.4077 0.561523ZM47.0347 0.575195L56.2646 0.568359C57.5232 0.568359 58.2515 0.719727 58.7732 1.14062C59.4761 1.71729 59.8467 3.23682 59.4888 4.9624C59.1858 6.43945 58.4241 8.03076 57.0393 8.56104L57.0325 8.59863C57.6301 8.86816 58.1604 9.65918 57.9585 11.0273L56.8752 16.3262L52.3464 16.3296L52.8977 13.3496C53.0913 12.1797 53.0874 11.4727 52.2791 11.4727L49.1729 11.4761L48.167 16.333H43.7898L47.0347 0.575195ZM26.3691 0.586914L17.3286 0.59375L14.0793 16.3516L18.4607 16.3481L19.4709 11.4492L24.1638 11.4458C27.27 11.4458 28.8694 9.10596 29.4922 6.07959C30.2163 2.57373 29.4753 0.586914 26.3691 0.586914ZM40.1572 8.30859C40.814 5.24023 39.9385 4.04053 38.1497 4.04492C36.365 4.04492 34.9722 5.24854 34.3154 8.3125C33.6589 11.377 34.5342 12.5806 36.323 12.5806C38.1077 12.5771 39.5007 11.3726 40.1572 8.30859ZM20.9441 4.29395H23.7722C24.875 4.29395 25.1948 4.77783 24.9507 5.96924C24.7151 7.12256 24.1931 7.60645 23.0903 7.60645L20.2622 7.60938L20.9441 4.29395ZM54.6106 6.02393C54.8589 4.83301 54.375 4.54248 53.6426 4.54248L50.5996 4.5459L49.9893 7.50488L53.0952 7.50146C53.9497 7.50146 54.4087 7.02148 54.6106 6.02393Z" transform="translate(6.29102 24.5405)" fill="#1D206E"/>
</svg>
