<svg width="112" height="25" viewBox="0 0 112 25" fill="none" xmlns="http://www.w3.org/2000/svg">
<path d="M13.2199 6.69995C13.2199 10.3962 10.2204 13.3995 6.55443 13.3995C2.99949 13.3995 0 10.3962 0 6.69995C0 3.00305 2.99949 0 6.55443 0C10.2204 0 13.2199 3.00305 13.2199 6.69995Z" transform="translate(0.794434 4.67432)" fill="#474A97"/>
<path d="M0.0834507 0C-0.0278169 0.114673 -0.0278169 0.114673 0.0834507 0.114673C0.30546 0.114673 0.527994 0.114673 0.638894 0.114673V0C0.527627 0 0.194351 0 0.0834507 0Z" transform="translate(3.26587 7.1001)" fill="#37ABC8"/>
<path fill-rule="evenodd" clip-rule="evenodd" d="M5.79321 5.67432C10.6768 5.67432 14.0513 9.18457 14.0513 13.729C14.0513 18.2729 10.6768 21.7378 5.79321 21.7378H0V18.9917C0.408203 18.8022 0.798828 18.5796 1.16309 18.3203C1.50757 18.0747 1.82886 17.7988 2.12573 17.4971C2.33984 17.2793 2.5415 17.0483 2.72998 16.8057V19.1685H5.79321C9.05664 19.1685 11.1875 16.8501 11.1875 13.6836C11.1875 10.5166 9.05664 8.24512 5.79321 8.24512H3.38843C2.81787 7.21094 2.02222 6.33252 1.06836 5.67432H5.79321ZM33.3457 11.6455C33.3457 9.46484 34.7883 7.72168 36.8533 7.72168C38.1189 7.72168 39.0505 8.34082 39.8938 9.23584L41.5151 7.58398C40.3606 6.25293 39.0054 5.31152 36.7202 5.31152C33.2346 5.31152 30.6597 8.13477 30.6597 11.6001C30.6597 15.0664 33.2346 17.9575 36.7422 17.9575C38.9622 17.9575 40.3386 17.1084 41.4268 15.8696L39.7615 14.0103C38.9402 14.9062 38.0737 15.5254 36.7202 15.5254C34.7664 15.5254 33.3457 13.7808 33.3457 11.6455ZM83.1118 15.7002V17.7041H80.4263V5.58008H83.1118V10.1958C83.1118 10.4858 83.1213 10.7637 83.1433 11.0278C83.1702 11.3496 83.2158 11.6509 83.2859 11.9292L83.3105 12.0225C83.3257 12.0767 83.3418 12.1304 83.3589 12.1826C83.3723 12.2246 83.3867 12.2661 83.4016 12.3066C84.2102 14.5122 86.4661 15.1392 87.6328 15.3179L86.7114 17.6353C85.7747 17.4678 84.124 17.0005 83.1118 15.7002ZM97.1465 17.7041L94.1418 8.81689L91.3362 17.7041H88.4712L92.8281 5.66553L92.7932 5.58252C92.7932 5.58252 91.9158 3.12695 91.1213 2.53223C90.8621 2.39502 90.4558 2.32031 90.0322 2.28271C89.4565 2.23193 88.8494 2.24902 88.5371 2.27148V0.00195312L88.8572 0.000976562C89.9136 -0.00390625 91.7795 -0.0126953 92.4241 0.409668C93.323 0.99707 93.5237 1.25049 94.1382 2.53906C94.8076 3.94141 99.9443 17.7041 99.9443 17.7041H97.1465ZM75.7527 12.7812C75.7083 13.2256 75.6118 13.3516 75.4629 13.7422C75.3159 14.1318 75.1145 14.4727 74.8647 14.7627C74.7424 14.9038 74.6089 15.0298 74.4644 15.1401C74.3103 15.2578 74.1438 15.3584 73.9648 15.4419C73.6177 15.6016 73.2209 15.6821 72.7761 15.6821C71.9475 15.6821 71.2627 15.3877 70.7222 14.7974C70.1829 14.2085 69.8521 13.731 69.7336 12.7812H75.7527ZM78.4175 11.4346C78.4175 12.3062 78.2986 13.1372 78.0618 13.9253C77.9546 14.2842 77.8235 14.623 77.6685 14.9419C77.4827 15.3242 77.2625 15.6782 77.0081 16.0039C76.5413 16.6001 75.9561 17.0747 75.2529 17.4272C74.55 17.7783 73.7312 17.9551 72.7993 17.9551C71.9548 17.9551 71.1848 17.7905 70.4893 17.4619C69.793 17.1318 69.1907 16.6816 68.6792 16.106C68.1685 15.5332 67.7725 14.8633 67.4912 14.0981C67.21 13.332 67.0696 12.5132 67.0696 11.6421V11.5952C67.0696 11.0396 67.1248 10.5117 67.2349 10.0127C67.3098 9.67285 67.4104 9.34668 67.5364 9.03369C67.7148 8.58838 67.9319 8.18018 68.187 7.80908C68.2795 7.67432 68.3772 7.54443 68.4797 7.41943C68.5852 7.29053 68.696 7.16699 68.8123 7.04883C69.3535 6.49756 69.99 6.06885 70.7222 5.7627C71.4551 5.45801 72.2434 5.30273 73.0881 5.30273C74.1687 5.30273 75.0974 5.51025 75.8735 5.92334C76.6523 6.33691 77.3215 6.88818 77.8855 7.57666L76.3069 9.02393C76.1421 8.85791 75.9766 8.70654 75.8098 8.56885C75.6973 8.47559 75.5842 8.38916 75.4707 8.30908C75.4014 8.26025 75.332 8.21387 75.2625 8.16943C75.1306 8.08594 74.998 8.01074 74.865 7.94434C74.3762 7.69971 73.7983 7.57666 73.1326 7.57666C72.2588 7.57666 71.5149 7.84082 70.8999 8.37012C70.2859 8.89697 69.9053 9.65918 69.7563 10.6533H78.373C78.3877 10.7915 78.3992 10.9253 78.4077 11.0552C78.4138 11.1851 78.4175 11.312 78.4175 11.4346ZM60.8149 8.79248L57.6614 17.7036H54.7739L59.594 5.4873H62.0139L66.8103 17.7036H63.9893L60.8149 8.79248ZM51.71 13.1328C51.8882 12.6592 51.9766 12.1543 51.9766 11.6182V11.5713C51.9766 11.0522 51.895 10.5581 51.7327 10.0918C51.5684 9.62402 51.3323 9.21533 51.0217 8.86328C50.7112 8.51123 50.3376 8.23193 49.8997 8.02588C49.4631 7.81885 48.9707 7.71484 48.4233 7.71484C47.9048 7.71484 47.4275 7.81885 46.9912 8.02588C46.8362 8.09863 46.6887 8.18115 46.5488 8.27344C46.3635 8.396 46.1912 8.53516 46.032 8.69141C45.9722 8.75 45.9143 8.81104 45.8582 8.87451C45.5391 9.23486 45.2913 9.65039 45.1143 10.126C44.9368 10.6001 44.8477 11.0977 44.8477 11.6182V11.6636C44.8477 12.1997 44.9282 12.7012 45.0923 13.1685C45.1216 13.2524 45.1533 13.3345 45.1873 13.415C45.2231 13.4995 45.262 13.5815 45.3032 13.6616C45.4402 13.9268 45.6067 14.168 45.802 14.3853C46.1138 14.7295 46.4878 15.0049 46.9248 15.2119C47.0808 15.2856 47.2429 15.3462 47.4114 15.394L47.4502 15.4043C47.5808 15.4395 47.7151 15.4668 47.853 15.4858C48.0227 15.5098 48.1978 15.5215 48.3784 15.5215C48.4419 15.5215 48.5046 15.52 48.5669 15.5171C48.6665 15.5127 48.7644 15.5044 48.8606 15.4922C48.9097 15.4858 48.9583 15.4785 49.0063 15.4702C49.1411 15.4473 49.2725 15.4165 49.4001 15.3784C49.5496 15.3335 49.6943 15.2778 49.8337 15.2119C50.085 15.0928 50.3162 14.9497 50.5281 14.7827C50.6848 14.6592 50.8308 14.5225 50.9661 14.373C51.2842 14.0205 51.5325 13.6079 51.71 13.1328ZM54.1973 14.1104C54.5078 13.3516 54.6636 12.5356 54.6636 11.6636V11.6182C54.6636 10.7607 54.5037 9.94971 54.1863 9.18457C53.8672 8.41943 53.4309 7.74951 52.8755 7.17529C52.5601 6.84766 52.2092 6.56006 51.8242 6.31055C51.5322 6.12109 51.2205 5.9541 50.8894 5.80859C50.1187 5.47266 49.2822 5.30273 48.3784 5.30273C47.4905 5.30273 46.665 5.46729 45.9033 5.79736C45.1401 6.12598 44.481 6.57471 43.9263 7.14062C43.3704 7.70703 42.9385 8.37305 42.6267 9.13721C42.3154 9.90332 42.1604 10.7144 42.1604 11.5713V11.6182C42.1604 12.4902 42.3191 13.3101 42.6382 14.0747C42.9561 14.8398 43.3936 15.5098 43.9482 16.0835C44.5037 16.6582 45.1633 17.1138 45.9248 17.4492C46.0095 17.4868 46.095 17.522 46.1814 17.5557C46.2512 17.5825 46.3218 17.6079 46.3928 17.6323C46.6406 17.7163 46.8955 17.7842 47.1572 17.8354C47.3811 17.8794 47.6101 17.9111 47.8442 17.9307C48.0342 17.9468 48.2273 17.9551 48.4236 17.9551C49.3267 17.9551 50.1597 17.7905 50.9216 17.4619C51.6838 17.1318 52.3428 16.6816 52.8982 16.106C53.4529 15.5332 53.8867 14.8672 54.1973 14.1104ZM27.0969 12.2617C27.5271 12.0771 27.9158 11.8506 28.2629 11.584C28.6108 11.3159 28.8962 10.9907 29.1191 10.6074C29.3411 10.2256 29.4517 9.7583 29.4517 9.20654V9.16211C29.4517 8.51904 29.3411 7.95898 29.1191 7.48584C28.8962 7.00977 28.5894 6.6167 28.1965 6.30322C27.9998 6.14502 27.7854 6.00684 27.5535 5.88818C27.3228 5.77002 27.0747 5.67139 26.8093 5.59131C26.2761 5.4292 25.7056 5.3501 25.0991 5.3501C24.2544 5.3501 23.3997 5.50195 22.5344 5.80859C21.6672 6.11475 20.8647 6.56689 20.124 7.16309L21.323 9.04639C21.9595 8.55762 22.6077 8.18604 23.2671 7.93359C23.3687 7.89453 23.4697 7.8584 23.5701 7.82568C23.6931 7.78516 23.8154 7.74902 23.9368 7.71777C24.0244 7.69531 24.1118 7.6748 24.1987 7.65674C24.5278 7.58838 24.8501 7.5542 25.1655 7.5542C25.3638 7.5542 25.5466 7.56787 25.7144 7.5957C25.8838 7.62402 26.0374 7.6665 26.1753 7.72363C26.2988 7.77441 26.4099 7.83643 26.5085 7.91016C26.8271 8.14746 26.9863 8.46436 26.9863 8.86279V8.9082C26.9863 9.13721 26.9155 9.33691 26.7759 9.50586C26.6343 9.67334 26.4426 9.82324 26.198 9.95312C26.0471 10.0337 25.8823 10.1079 25.7034 10.1763C25.5925 10.2188 25.4763 10.2593 25.3547 10.2974C25.0361 10.397 24.7065 10.5 24.3662 10.6074C23.9365 10.7295 23.5034 10.8755 23.0664 11.0439C22.6301 11.2119 22.2378 11.4302 21.8899 11.6992C21.7266 11.8247 21.5769 11.9648 21.4412 12.1191C21.3682 12.2021 21.2993 12.2891 21.2346 12.3804C21.1631 12.4805 21.0967 12.5859 21.0352 12.6963C20.813 13.0957 20.7012 13.5845 20.7012 14.1675V14.2134C20.7012 14.4766 20.7234 14.7266 20.7676 14.9634C20.821 15.249 20.9065 15.5156 21.0242 15.7627C21.2383 16.2148 21.5342 16.6001 21.9119 16.9219C22.2896 17.2432 22.7339 17.4878 23.2446 17.6567C23.7554 17.8252 24.2991 17.9097 24.877 17.9097C25.2844 17.9097 25.6948 17.8721 26.1072 17.7979C26.4434 17.7373 26.7808 17.6519 27.1194 17.542C27.8755 17.2974 28.5637 16.9604 29.1851 16.5317L28.1196 14.5571C27.5564 14.9092 26.9863 15.189 26.4092 15.395C26.2715 15.4443 26.1362 15.4878 26.0037 15.5254C25.8733 15.562 25.7456 15.5933 25.6204 15.6187C25.4648 15.6504 25.313 15.6733 25.165 15.6875C25.1074 15.6929 25.0505 15.6973 24.9941 15.7002C24.9324 15.7036 24.8711 15.7051 24.8103 15.7051C24.2922 15.7051 23.8884 15.5894 23.5999 15.3604C23.3105 15.1313 23.1672 14.8398 23.1672 14.4878V14.4429C23.1672 14.228 23.2402 14.04 23.3892 13.8804C23.5364 13.7188 23.7327 13.5737 23.9775 13.4434C24.2214 13.314 24.5029 13.1943 24.8213 13.0884C25.1399 12.9805 25.4688 12.8657 25.8093 12.7437C26.2388 12.6055 26.6672 12.4443 27.0969 12.2617ZM15.6072 5.58008H18.2947V17.7041H15.6072V5.58008Z" transform="translate(10.8479 23.0596) scale(1 -1)" fill="#474A97"/>
</svg>
