<svg width="56" height="56" viewBox="0 0 56 56" fill="none" xmlns="http://www.w3.org/2000/svg">
<g id="uzbekskaya-huynia-pattern" filter="url(#filter0_d)">
<path fill-rule="evenodd" clip-rule="evenodd" d="M5.24236 5.24202L0.000431584 5.24193L0.000345267 0L5.24228 8.63167e-05L5.24236 5.24202ZM19.6595 5.24184H25.0015L25.0014 -8.63167e-05H19.6594L19.6595 5.24184ZM0.000345267 25.0011L5.24245 25.001L5.24236 19.9621L0.000431584 19.962L0.000345267 25.0011ZM0.000431584 10.0574L0.000517901 14.9444H0.778404L2.56145 12.5003L0.778404 10.0575L0.000431584 10.0574ZM8.99792 14.7939H5.85288L4.17687 12.5009L5.85279 10.208H8.99783L8.99792 14.7939ZM1.23709 15.8516H0L0 18.7535H6.452L6.45209 25.0005H9.14897L9.14906 23.7635L11.811 21.8196L8.998 19.7655L8.99809 16.0025H5.23606L3.18198 13.1906L1.23709 15.8516ZM6.45149 6.45183V0.000863167L9.14845 0.000949484L9.14854 1.23882L11.8105 3.18293L8.99757 5.23589L8.99749 8.99887H5.23546L3.18155 11.8118L1.23649 9.14897L0.000604217 9.1488L0.000517901 6.45183H6.45149ZM14.793 5.85366L12.5009 4.17756L10.208 5.85348V8.99956L14.7931 8.99947L14.793 5.85366ZM14.7924 14.7941L10.2075 14.794L10.2074 10.2081L14.7924 10.208L14.7924 14.7941ZM10.2079 19.1486L12.4999 20.8246L14.793 19.1485V16.0024L10.2079 16.0025V19.1486ZM10.0571 0.77875L10.057 0.000776851L14.944 0.000863167V0.77875L12.501 2.56179L10.0571 0.77875ZM10.057 24.2233L10.0571 25.0013H14.944V24.2234L12.5011 22.4392L10.057 24.2233ZM16.003 10.208H19.148L20.824 12.501L19.1479 14.7941L16.003 14.7939L16.003 10.208ZM15.8512 0.000690534L15.8511 1.23873L13.1902 3.18267L16.0022 5.23571V8.99878L19.7652 8.99869L21.8192 11.8117L23.7642 9.14871H25.0003L25.0002 6.45175L18.4493 6.45166L18.4493 0.000604217L15.8512 0.000690534ZM22.4389 12.5004L24.223 10.0574L25.001 10.0575V14.9444H24.2231L22.4389 12.5004ZM19.7652 16.0029H16.0022V19.7659L13.1902 21.8198L15.8513 23.7638V25.0009L18.4492 25.001L18.4493 18.7528L25.0002 18.7529V15.852L23.7643 15.8518L21.8192 13.19L19.7652 16.0029ZM25.0016 25.0009L19.6594 25.001L19.6595 19.962H25.0015L25.0016 25.0009Z" transform="translate(27.6787 10) rotate(45)" fill="white"/>
</g>
<defs>
<filter id="filter0_d" x="0" y="0" width="55.3574" height="55.3574" filterUnits="userSpaceOnUse" color-interpolation-filters="sRGB">
<feFlood flood-opacity="0" result="BackgroundImageFix"/>
<feColorMatrix in="SourceAlpha" type="matrix" values="0 0 0 0 0 0 0 0 0 0 0 0 0 0 0 0 0 0 255 0"/>
<feOffset/>
<feGaussianBlur stdDeviation="5"/>
<feColorMatrix type="matrix" values="0 0 0 0 0.250739 0 0 0 0 0.267963 0 0 0 0 0.652636 0 0 0 1 0"/>
<feBlend mode="normal" in2="BackgroundImageFix" result="effect1_dropShadow"/>
<feBlend mode="normal" in="SourceGraphic" in2="effect1_dropShadow" result="shape"/>
</filter>
</defs>
</svg>
