<svg width="1024" height="570" viewBox="0 0 1024 570" fill="none" xmlns="http://www.w3.org/2000/svg">
<g id="graph-blue">
<path id="Path 6 Copy 3" opacity="0.2" d="M0 1H1024" transform="translate(0 529)" stroke="white" stroke-dasharray="1 5"/>
<path id="Oval 2" fill-rule="evenodd" clip-rule="evenodd" d="M22.5 45C34.9264 45 45 34.9264 45 22.5C45 10.0736 34.9264 0 22.5 0C10.0736 0 0 10.0736 0 22.5C0 34.9264 10.0736 45 22.5 45Z" transform="translate(50 507)" fill="#0C0E46"/>
<path id="Oval 2 Copy" fill-rule="evenodd" clip-rule="evenodd" d="M22.5 45C34.9264 45 45 34.9264 45 22.5C45 10.0736 34.9264 0 22.5 0C10.0736 0 0 10.0736 0 22.5C0 34.9264 10.0736 45 22.5 45Z" transform="translate(269 507)" fill="#0C0E46"/>
<path id="Oval 2 Copy 2" fill-rule="evenodd" clip-rule="evenodd" d="M22.5 45C34.9264 45 45 34.9264 45 22.5C45 10.0736 34.9264 0 22.5 0C10.0736 0 0 10.0736 0 22.5C0 34.9264 10.0736 45 22.5 45Z" transform="translate(487 507)" fill="#0C0E46"/>
<path id="Oval 2 Copy 3" fill-rule="evenodd" clip-rule="evenodd" d="M22.5 45C34.9264 45 45 34.9264 45 22.5C45 10.0736 34.9264 0 22.5 0C10.0736 0 0 10.0736 0 22.5C0 34.9264 10.0736 45 22.5 45Z" transform="translate(706 507)" fill="#0C0E46"/>
<path id="Oval 2 Copy 7" fill-rule="evenodd" clip-rule="evenodd" d="M22.5 45C34.9264 45 45 34.9264 45 22.5C45 10.0736 34.9264 0 22.5 0C10.0736 0 0 10.0736 0 22.5C0 34.9264 10.0736 45 22.5 45Z" transform="translate(924 507)" fill="#0C0E46"/>
<path id="Page 1" opacity="0.1" fill-rule="evenodd" clip-rule="evenodd" d="M956 551H0L31.2297 519.218L80.9636 505.341L140.937 497.556H155.93L195.912 476.147L211.905 481.337L269.879 441.763L281.873 444.358L315.858 409.325L322.855 410.622L343.845 389.862L370.461 387.487L423.809 382.725L444.8 384.023L475.786 376.887L535.759 334.068L538.758 339.907L595.732 301.63L606.227 304.55L660.703 298.386L708.681 300.333L737.668 291.25V299.035L759.658 291.25L798.641 245.837L814.82 238.801L830.626 225.076L854.616 215.345L870.609 195.233L881.906 140.199L914.956 103.296L942.692 54.8427L956 0V551Z" transform="translate(30 14)" fill="url(#paint0_linear)"/>
<path id="Rectangle 2" fill-rule="evenodd" clip-rule="evenodd" d="M0 0H410V570H0V0Z" transform="translate(576)" fill="url(#paint1_linear)"/>
<path id="Page 1_2" d="M0 551L31.2297 519.218L80.9636 505.341L140.937 497.556H155.93L195.912 476.147L211.905 481.337L269.879 441.763L281.873 444.358L315.858 409.325L322.855 410.622L343.845 389.862L370.461 387.487L423.809 382.725L444.8 384.023L475.786 376.887L535.759 334.068L538.758 339.907L595.732 301.63L606.227 304.55L660.703 298.386L708.681 300.333L737.668 291.25V299.035L759.658 291.25L798.641 245.837L814.82 238.801L830.626 225.076L854.616 215.345L870.609 195.233L881.906 140.199L914.956 103.296L942.692 54.8427L956 0" transform="translate(30 14)" stroke="#1CC2FC"/>
<path id="Oval Copy 2" fill-rule="evenodd" clip-rule="evenodd" d="M3 6C4.65685 6 6 4.65685 6 3C6 1.34315 4.65685 0 3 0C1.34315 0 0 1.34315 0 3C0 4.65685 1.34315 6 3 6Z" transform="translate(70 527)" fill="white"/>
<path id="Oval Copy 10" fill-rule="evenodd" clip-rule="evenodd" d="M3 6C4.65685 6 6 4.65685 6 3C6 1.34315 4.65685 0 3 0C1.34315 0 0 1.34315 0 3C0 4.65685 1.34315 6 3 6Z" transform="translate(288 527)" fill="#1CC2FC"/>
<path id="Oval Copy 11" fill-rule="evenodd" clip-rule="evenodd" d="M3 6C4.65685 6 6 4.65685 6 3C6 1.34315 4.65685 0 3 0C1.34315 0 0 1.34315 0 3C0 4.65685 1.34315 6 3 6Z" transform="translate(506 527)" fill="#1CC2FC"/>
<path id="Oval Copy 12" fill-rule="evenodd" clip-rule="evenodd" d="M3 6C4.65685 6 6 4.65685 6 3C6 1.34315 4.65685 0 3 0C1.34315 0 0 1.34315 0 3C0 4.65685 1.34315 6 3 6Z" transform="translate(725 527)" fill="#1CC2FC"/>
<path id="Oval Copy 13" fill-rule="evenodd" clip-rule="evenodd" d="M3 6C4.65685 6 6 4.65685 6 3C6 1.34315 4.65685 0 3 0C1.34315 0 0 1.34315 0 3C0 4.65685 1.34315 6 3 6Z" transform="translate(943 527)" fill="#1CC2FC"/>
<g id="Oval Copy 6" filter="url(#filter0_d)">
<path fill-rule="evenodd" clip-rule="evenodd" d="M3 6C4.65685 6 6 4.65685 6 3C6 1.34315 4.65685 0 3 0C1.34315 0 0 1.34315 0 3C0 4.65685 1.34315 6 3 6Z" transform="translate(288 459)" fill="white"/>
</g>
<g id="Oval Copy 7" filter="url(#filter1_d)">
<path fill-rule="evenodd" clip-rule="evenodd" d="M3 6C4.65685 6 6 4.65685 6 3C6 1.34315 4.65685 0 3 0C1.34315 0 0 1.34315 0 3C0 4.65685 1.34315 6 3 6Z" transform="translate(506 386)" fill="white"/>
</g>
<g id="Oval Copy 9" filter="url(#filter2_d)">
<path fill-rule="evenodd" clip-rule="evenodd" d="M3 6C4.65685 6 6 4.65685 6 3C6 1.34315 4.65685 0 3 0C1.34315 0 0 1.34315 0 3C0 4.65685 1.34315 6 3 6Z" transform="translate(725 311)" fill="white"/>
</g>
<g id="Oval Copy 8" filter="url(#filter3_d)">
<path fill-rule="evenodd" clip-rule="evenodd" d="M3 6C4.65685 6 6 4.65685 6 3C6 1.34315 4.65685 0 3 0C1.34315 0 0 1.34315 0 3C0 4.65685 1.34315 6 3 6Z" transform="translate(943 112)" fill="white"/>
</g>
</g>
<defs>
<filter id="filter0_d" x="278" y="449" width="26" height="26" filterUnits="userSpaceOnUse" color-interpolation-filters="sRGB">
<feFlood flood-opacity="0" result="BackgroundImageFix"/>
<feColorMatrix in="SourceAlpha" type="matrix" values="0 0 0 0 0 0 0 0 0 0 0 0 0 0 0 0 0 0 255 0"/>
<feOffset/>
<feGaussianBlur stdDeviation="5"/>
<feColorMatrix type="matrix" values="0 0 0 0 1 0 0 0 0 1 0 0 0 0 1 0 0 0 0.3 0"/>
<feBlend mode="normal" in2="BackgroundImageFix" result="effect1_dropShadow"/>
<feBlend mode="normal" in="SourceGraphic" in2="effect1_dropShadow" result="shape"/>
</filter>
<filter id="filter1_d" x="496" y="376" width="26" height="26" filterUnits="userSpaceOnUse" color-interpolation-filters="sRGB">
<feFlood flood-opacity="0" result="BackgroundImageFix"/>
<feColorMatrix in="SourceAlpha" type="matrix" values="0 0 0 0 0 0 0 0 0 0 0 0 0 0 0 0 0 0 255 0"/>
<feOffset/>
<feGaussianBlur stdDeviation="5"/>
<feColorMatrix type="matrix" values="0 0 0 0 1 0 0 0 0 1 0 0 0 0 1 0 0 0 0.3 0"/>
<feBlend mode="normal" in2="BackgroundImageFix" result="effect1_dropShadow"/>
<feBlend mode="normal" in="SourceGraphic" in2="effect1_dropShadow" result="shape"/>
</filter>
<filter id="filter2_d" x="715" y="301" width="26" height="26" filterUnits="userSpaceOnUse" color-interpolation-filters="sRGB">
<feFlood flood-opacity="0" result="BackgroundImageFix"/>
<feColorMatrix in="SourceAlpha" type="matrix" values="0 0 0 0 0 0 0 0 0 0 0 0 0 0 0 0 0 0 255 0"/>
<feOffset/>
<feGaussianBlur stdDeviation="5"/>
<feColorMatrix type="matrix" values="0 0 0 0 1 0 0 0 0 1 0 0 0 0 1 0 0 0 0.3 0"/>
<feBlend mode="normal" in2="BackgroundImageFix" result="effect1_dropShadow"/>
<feBlend mode="normal" in="SourceGraphic" in2="effect1_dropShadow" result="shape"/>
</filter>
<filter id="filter3_d" x="933" y="102" width="26" height="26" filterUnits="userSpaceOnUse" color-interpolation-filters="sRGB">
<feFlood flood-opacity="0" result="BackgroundImageFix"/>
<feColorMatrix in="SourceAlpha" type="matrix" values="0 0 0 0 0 0 0 0 0 0 0 0 0 0 0 0 0 0 255 0"/>
<feOffset/>
<feGaussianBlur stdDeviation="5"/>
<feColorMatrix type="matrix" values="0 0 0 0 1 0 0 0 0 1 0 0 0 0 1 0 0 0 0.3 0"/>
<feBlend mode="normal" in2="BackgroundImageFix" result="effect1_dropShadow"/>
<feBlend mode="normal" in="SourceGraphic" in2="effect1_dropShadow" result="shape"/>
</filter>
<linearGradient id="paint0_linear" x2="1" gradientUnits="userSpaceOnUse" gradientTransform="translate(478) scale(956 551) rotate(90)">
<stop stop-color="#009BFF"/>
<stop offset="1" stop-color="#0C0E46"/>
</linearGradient>
<linearGradient id="paint1_linear" x2="1" gradientUnits="userSpaceOnUse" gradientTransform="translate(0 285) scale(410 570)">
<stop stop-color="#0C0E46" stop-opacity="0.01"/>
<stop offset="1" stop-color="#0C0E46"/>
</linearGradient>
</defs>
</svg>
