<?xml version="1.0" encoding="utf-8"?>
<!-- Generator: Adobe Illustrator 21.1.0, SVG Export Plug-In . SVG Version: 6.00 Build 0)  -->
<svg version="1.1" id="ahmat" xmlns="http://www.w3.org/2000/svg" xmlns:xlink="http://www.w3.org/1999/xlink" x="0px" y="0px"
	 viewBox="0 0 300 300" style="enable-background:new 0 0 300 300;" xml:space="preserve">
<style type="text/css">
	.st0{fill:#FFFFFF;stroke:#231F20;stroke-width:0.216;stroke-miterlimit:22.9256;}
	.st1{fill:#008F4E;}
	.st2{fill:#FFFFFF;}
	.st3{fill-rule:evenodd;clip-rule:evenodd;fill:#FFFFFF;}
</style>
<g>
	<path class="st0" d="M218.7,41.5l-7.9-9.2c0,0-31.1-10.7-60.2-11.1c-29.1,0.3-60.2,11.1-60.2,11.1l-7.9,9.2L45.1,60.2
		c0.9,92.2,16.3,167.6,100.8,215.5c0.5,0.3,4.5,2.6,4.7,2.6c0.2,0,4.3-2.3,4.8-2.6c84.2-47.8,99.7-122.5,100.6-215.4L218.7,41.5
		L218.7,41.5z"/>
	<path class="st1" d="M214.1,48.3l-7.3-8.5c0,0-28.8-9.9-55.7-10.2c-26.9,0.3-55.7,10.2-55.7,10.2L88,48.3L53.4,65.6
		c0,0,0.9,92.6,23.2,129.6c9,15,20.3,30.9,33.7,43.1c18.9,17.3,39.5,28.5,40.8,29.2c0,0,0-0.1,0.1-0.1c0.1,0.1,0.1,0.1,0.1,0.1
		c1.3-0.7,21.8-11.9,40.8-29.2c13.3-12.2,24.6-28.1,33.7-43.1c22.3-36.9,23.2-129.6,23.2-129.6L214.1,48.3L214.1,48.3z"/>
	<path class="st2" d="M150.6,76.3c-38,0-68.8,30.8-68.8,68.8s30.8,68.8,68.8,68.8c38,0,68.8-30.8,68.8-68.8S188.6,76.3,150.6,76.3
		L150.6,76.3z M150.6,211.2L150.6,211.2c-36.5,0-66.1-29.6-66.1-66.1c0-36.5,29.6-66.1,66.1-66.1c36.5,0,66.1,29.6,66.1,66.1
		C216.6,181.6,187.1,211.2,150.6,211.2L150.6,211.2z"/>
	<path class="st3" d="M112.7,192.2c0,0,4.5,3.6,13.3,2.7c8.8-0.9,15.9-6.5,22.4-7.2c6.5-0.7,9.9,0.4,15.2,4.4c5.3,4,6.6,5.3,11,4.9
		c5.9-0.4,13.7-4.7,13.7-4.7s-5.7,6-12.8,7.7c-4.9,1.1-7.7-0.6-10.7-3.1c-3-2.5-8.5-6.7-15-5.5c-6.4,1.2-7.7,1.9-10.5,3.1
		c-2.8,1.3-9.6,3.9-14.3,4c-4.8,0-7.2-1.3-8.4-2.3C115.7,195.1,112.7,192.2,112.7,192.2L112.7,192.2z"/>
	<path class="st3" d="M126.5,203.4l5,2.3c0,0,4.6-1.5,6.3-2.4c1.7-0.9,7.7-3.7,12.2-3.8c4.5-0.1,7.2,0.7,9.8,2.2
		c2.7,1.6,7,5.2,7,5.2l4.3-1.5c0,0-4.8-3.3-7.3-5.2c-2.5-1.9-8-5-13.2-4.5c-5.2,0.5-7,1.1-9.7,2.1c-2.8,1.1-6.1,2.9-8,3.7
		C131.2,202.4,126.5,203.4,126.5,203.4L126.5,203.4z"/>
	<path class="st3" d="M137.2,207.9l5.8,1.2c0,0,5.1-2.3,8.8-2.3c4.9,0,7.9,2.5,7.9,2.5l4.2-1.1c0,0-5.8-4.9-13.3-4.5
		C143.2,204,137.2,207.9,137.2,207.9L137.2,207.9z"/>
	<path class="st3" d="M185.9,223.5c0,0-1.9,1.3-3.4,1.5c-1.5,0.2-6.3-0.3-6.3-0.3s-2.7-1.9-5.6-2c-1.9-0.1-6.4-1.2-11,2
		c-4.7,3.2-0.1,8.9-0.1,8.9l-4-0.1c0,0,0.3-1.6,0.1-3.7c-0.2-2.1-2.5-2.4-2.5-2.4s0.1-0.3-0.1-2c-0.2-1.6-2.4-2.2-2.4-2.2
		s-2.2,0.6-2.4,2.2c-0.2,1.6-0.1,2-0.1,2s-2.3,0.3-2.5,2.4c-0.2,2.1,0.1,3.7,0.1,3.7l-4,0.1c0,0,4.6-5.7,0-8.9
		c-4.7-3.2-9.1-2.1-11-2c-2.9,0.1-5.6,2-5.6,2s-4.8,0.5-6.3,0.3c-1.5-0.2-3.4-1.5-3.4-1.5s-0.1,3.5,2.4,5.3c2.5,1.8,3.8,1.9,3.8,1.9
		s1.1,2.3,1.7,3.2c0.6,0.9,2.2,2,2.2,2s-1-7.2,3.4-8.8c4.4-1.6,10.4,0.5,8.7,6c-0.7,2.2-3.8,2.5-4.9,0.9c-1-1.6,0.1-4.3,0.1-4.3
		s-6.9,1.5-4.3,8.2c2.6,6.7,9.1,3.3,9.8,2.7c0.8-0.6,3.7-1.9,5.3-2.3c1.7-0.4,3.6-0.3,3.6-0.3l-1.3,1.3c0,0-4.3,0-6.3,2.4
		c-4.2,5.1-0.8,7.9-0.8,7.9s1-4.6,5.9-5.2c4.9-0.6,4.5,1.9,4.5,3.1c0,1.2-0.4,4-4.5,3.4c-1.5-0.2-3.2-2.5-3.2-2.5s-1,4.7,1.5,6.8
		c2.5,2.1,4.3,1.8,4.3,1.8s0.5,2,1.2,3.1c0.7,1.1,2.2,2.3,2.2,2.3s1.4-1.3,2.2-2.3c0.7-1.1,1.2-3.1,1.2-3.1s1.8,0.3,4.3-1.8
		c2.5-2.1,1.5-6.8,1.5-6.8s-1.7,2.3-3.2,2.5c-4.2,0.7-4.6-2.2-4.5-3.4c0-1.2-0.4-3.7,4.5-3.1c4.9,0.6,5.9,5.2,5.9,5.2
		s3.4-2.8-0.8-7.9c-2-2.4-6.3-2.4-6.3-2.4L154,238c0,0,1.9-0.1,3.6,0.3c1.7,0.4,4.6,1.7,5.3,2.3c0.8,0.6,7.2,4.1,9.8-2.7
		c2.6-6.7-4.3-8.2-4.3-8.2s1.1,2.8,0.1,4.3c-1,1.6-4.2,1.3-4.9-0.9c-1.7-5.4,4.3-7.5,8.7-6c4.4,1.6,3.4,8.8,3.4,8.8s1.6-1.1,2.2-2
		c0.6-0.9,1.7-3.2,1.7-3.2s1.3-0.1,3.8-1.9C186,227,185.9,223.5,185.9,223.5L185.9,223.5z"/>
	<path class="st2" d="M150.6,105.6c-16.6,0-30.1,13.5-30.1,30.1c0,16.6,13.5,30.1,30.1,30.1c16.6,0,30.1-13.5,30.1-30.1
		C180.7,119.1,167.2,105.6,150.6,105.6L150.6,105.6z M166.6,114.3L166.6,114.3c1.9,1.5,4.3,4.1,4.3,4.1s0.7,2.8,0.7,5.1
		c0,2.3-0.4,4.7-0.4,4.7l-9.4,3c0,0-2.9-2.5-4.8-3.9c-1.9-1.4-5.7-3.7-5.7-3.7l0-10c0,0,2.5-1.2,4.6-1.9c2.1-0.7,4.9-0.9,4.9-0.9
		S164.3,112.5,166.6,114.3L166.6,114.3z M160.1,135.7L160.1,135.7c0,5.2-4.3,9.5-9.5,9.5c-5.2,0-9.5-4.3-9.5-9.5s4.3-9.5,9.5-9.5
		C155.8,126.2,160.1,130.5,160.1,135.7L160.1,135.7z M141.7,108.6L141.7,108.6c0.4-0.5,1.1-1,1.1-1s4.8-1.4,9-1.1
		c4.2,0.3,6.3,1,6.3,1s0.5,0.5,1,0.9c0.4,0.5,0.8,1.3,0.8,1.3s-3.1,0.2-5.3,1.1c-2,0.8-4.2,1.9-4.2,1.9s-3.4-1.6-4.5-2
		c-1.9-0.6-4.9-0.9-4.9-0.9S141.2,109.2,141.7,108.6L141.7,108.6z M130.3,118.3L130.3,118.3c0,0,2.6-2.8,5-4.5
		c2-1.3,5.2-2.8,5.2-2.8s2.9,0.2,5.1,0.9c2.2,0.7,4.3,1.8,4.3,1.8l0,9.9c0,0-3.3,2-5.2,3.3c-1.9,1.4-5.3,4.3-5.3,4.3l-9.5-3.1
		c0,0-0.4-2.7-0.4-5C129.5,121,130.3,118.3,130.3,118.3L130.3,118.3z M122.1,135.8L122.1,135.8c-0.4-0.6-0.6-1.4-0.6-1.4
		s0.1-5,1.8-8.9c1.6-3.9,2.9-5.7,2.9-5.7s0.6-0.4,1.2-0.6c0.6-0.3,1.5-0.3,1.5-0.3s-0.7,3.1-0.6,5.3c0.1,2.2,0.5,4.6,0.5,4.6
		s-2.6,2.7-3.3,3.7c-1.2,1.6-2.4,4.4-2.4,4.4S122.5,136.4,122.1,135.8L122.1,135.8z M124,137.7L124,137.7c0,0,1.1-2.7,2.4-4.6
		c1.4-1.8,3.1-3.6,3.1-3.6l9.4,3.1c0,0,0.9,3.7,1.6,5.9c0.7,2.2,2.5,6.3,2.5,6.3l-5.9,8c0,0-2.7-0.5-4.9-1.2
		c-2.2-0.7-4.5-2.2-4.5-2.2s-1.9-3.3-2.7-6.1C124.4,141.2,124,137.7,124,137.7L124,137.7z M141.9,162.8L141.9,162.8
		c-0.7,0.2-1.5,0.2-1.5,0.2s-4.8-1.7-8-4.4c-3.2-2.7-4.6-4.5-4.6-4.5s-0.2-0.7-0.2-1.3c-0.1-0.6,0.1-1.5,0.1-1.5s2.7,1.6,4.9,2.2
		c2.1,0.6,4.5,0.9,4.5,0.9s1.8,3.3,2.5,4.3c1.1,1.6,3.4,3.6,3.4,3.6S142.6,162.6,141.9,162.8L141.9,162.8z M150.1,162.4L150.1,162.4
		c-2.4-0.1-5.9-0.8-5.9-0.8s-2.3-1.9-3.6-3.7c-1.3-1.9-2.4-4-2.4-4l5.9-8c0,0,3.8,0.3,6.1,0.3c2.3,0,6.8-0.4,6.8-0.4l5.8,8.1
		c0,0-1.3,2.4-2.6,4.3c-1.3,1.9-3.5,3.6-3.5,3.6S153.1,162.5,150.1,162.4L150.1,162.4z M173.7,152.3L173.7,152.3
		c0,0.7-0.3,1.5-0.3,1.5s-3.1,4-6.7,6.2c-3.6,2.2-5.7,2.9-5.7,2.9s-0.7-0.1-1.3-0.2c-0.6-0.1-1.4-0.6-1.4-0.6s2.4-2,3.6-4
		c1.2-1.9,2.3-4,2.3-4s3.7-0.7,4.8-1c1.9-0.6,4.5-2.1,4.5-2.1S173.7,151.6,173.7,152.3L173.7,152.3z M175.8,144.3L175.8,144.3
		c-0.8,2.2-2.6,5.3-2.6,5.3s-2.5,1.6-4.7,2.3c-2.2,0.7-4.6,1.1-4.6,1.1l-5.8-8c0,0,1.5-3.5,2.2-5.7c0.7-2.2,1.7-6.6,1.7-6.6l9.5-3
		c0,0,1.9,2,3.2,3.8c1.4,1.8,2.4,4.4,2.4,4.4S176.8,141.6,175.8,144.3L175.8,144.3z M178.1,136.5L178.1,136.5c0,0-1.2-2.9-2.7-4.7
		c-1.4-1.7-3.1-3.4-3.1-3.4s0.5-3.7,0.5-4.9c0-2-0.6-4.9-0.6-4.9s0.7,0,1.3,0.2c0.6,0.2,1.3,0.7,1.3,0.7s2.9,4.2,3.8,8.3
		c1,4.1,1,6.3,1,6.3s-0.3,0.7-0.6,1.2C178.8,136,178.1,136.5,178.1,136.5L178.1,136.5z"/>
	<path class="st2" d="M142,135.7c0,4.7,3.9,8.6,8.6,8.6c4.7,0,8.6-3.9,8.6-8.6c0-4.7-3.9-8.6-8.6-8.6
		C145.8,127.1,142,130.9,142,135.7L142,135.7z M150.1,143L150.1,143c-0.8,0.6-1.9,0.6-2.7-0.3c-0.8-0.8-1.1-3.4-1.3-4.4
		c-0.2-1-0.6-1.6-1.4-1.6c-0.8,0-0.8,0.6-0.7,0.9c0.1,0.3,0.6,0.4,0.9,0.1c0.3-0.4-0.1-0.5-0.1-0.5s0.7-0.1,0.9,0.5
		c0.2,0.5-0.2,1-0.2,1s0.1,0.2,0.2,0.4c0.1,0.2,0.4,0.6,0.3,1.4c-0.1,0.8-0.5,0.9-0.5,0.9s0-0.5-0.2-1c-0.1-0.4-0.5-0.8-0.7-1
		c-0.1-0.1-0.7-0.4-1.1-0.8c-0.4-0.4-0.6-1.1-0.6-1.4c0.2-1.1,1-1.4,1.5-1.5c-0.5,0-1.3-0.3-1.5-1.4c-0.1-0.3,0.1-1,0.6-1.4
		c0.4-0.4,1-0.7,1.1-0.8c0.2-0.2,0.5-0.6,0.7-1c0.2-0.5,0.2-1,0.2-1s0.4,0.1,0.5,0.9c0.1,0.8-0.2,1.2-0.3,1.4
		c-0.1,0.2-0.2,0.4-0.2,0.4s0.3,0.4,0.2,1c-0.2,0.6-0.9,0.5-0.9,0.5s0.4-0.2,0.1-0.5c-0.3-0.4-0.8-0.2-0.9,0.1
		c-0.1,0.3-0.1,0.9,0.7,0.9c0.8,0,1.2-0.6,1.4-1.6c0.2-1,0.5-3.6,1.3-4.4c0.8-0.8,1.9-0.9,2.7-0.3c0.9,0.7,0.4,1.9,0.2,2.2
		c-0.2,0.3-0.9,0.8-1,0.8c-0.3,0.1-0.6,0.3-1,1c-0.2,0.4-0.4,1.1-0.4,1.1s-0.5-0.3-0.5-1.4c0-0.6,0.6-1.2,0.6-1.2s-0.4-0.6,0-1.2
		c0.3-0.4,0.8-0.3,0.8-0.3s-0.2,0-0.2,0.3c0,0.3,0.4,0.6,0.8,0.4c0.4-0.2,0.4-1-0.2-1.1c-0.6-0.1-0.9,0-1.2,0.4
		c-0.3,0.4-0.5,1.1-0.6,1.7c-0.1,0.6-0.3,2.1-0.6,2.9c-0.3,0.8-0.5,1-0.8,1.3c-0.4,0.3-1,0.4-1,0.4s0,0-0.1,0c0,0,0.1,0,0.1,0
		s0.6,0.1,1,0.4c0.3,0.3,0.5,0.5,0.8,1.3c0.3,0.8,0.5,2.3,0.6,2.9c0.1,0.6,0.3,1.3,0.6,1.7c0.3,0.4,0.6,0.5,1.2,0.4
		c0.6-0.1,0.6-0.9,0.2-1.1c-0.4-0.2-0.8,0.1-0.8,0.4c0,0.3,0.2,0.3,0.2,0.3s-0.5,0.1-0.8-0.3c-0.4-0.6,0-1.2,0-1.2s-0.5-0.7-0.6-1.2
		c-0.1-1.1,0.5-1.4,0.5-1.4s0.1,0.7,0.4,1.1c0.4,0.7,0.7,0.9,1,1c0.1,0.1,0.8,0.6,1,0.8C150.5,141.1,150.9,142.3,150.1,143
		L150.1,143z M147.4,135.7L147.4,135.7c0-1.8,1.4-3.2,3.2-3.2c1.8,0,3.2,1.4,3.2,3.2c0,1.8-1.4,3.2-3.2,3.2
		C148.8,138.9,147.4,137.4,147.4,135.7L147.4,135.7z M151.1,128.4L151.1,128.4c0.8-0.6,1.9-0.6,2.7,0.3c0.8,0.8,1,3.4,1.3,4.4
		c0.2,1,0.6,1.6,1.4,1.6c0.8,0,0.8-0.6,0.7-0.9c-0.1-0.3-0.6-0.4-0.9-0.1c-0.3,0.4,0.1,0.5,0.1,0.5s-0.7,0.1-0.9-0.5
		c-0.2-0.5,0.2-1,0.2-1s-0.1-0.2-0.2-0.4c-0.1-0.2-0.4-0.6-0.3-1.4c0.1-0.8,0.5-0.9,0.5-0.9s0,0.5,0.2,1c0.1,0.4,0.5,0.8,0.7,1
		c0.1,0.1,0.7,0.4,1.1,0.8c0.4,0.4,0.6,1.1,0.6,1.4c-0.2,1.1-1,1.4-1.5,1.4c0.5,0,1.3,0.3,1.5,1.5c0.1,0.3-0.1,1-0.6,1.4
		c-0.4,0.4-1,0.7-1.1,0.8c-0.2,0.2-0.5,0.6-0.7,1c-0.2,0.5-0.2,1-0.2,1s-0.4-0.1-0.5-0.9c-0.1-0.8,0.2-1.2,0.3-1.4
		c0.1-0.2,0.2-0.4,0.2-0.4s-0.3-0.4-0.2-1c0.2-0.6,0.9-0.5,0.9-0.5s-0.4,0.2-0.1,0.5c0.3,0.4,0.8,0.2,0.9-0.1
		c0.1-0.3,0.1-0.9-0.7-0.9c-0.8,0-1.2,0.6-1.4,1.6c-0.2,1-0.5,3.6-1.3,4.4c-0.8,0.8-1.9,0.9-2.7,0.3c-0.9-0.7-0.4-1.9-0.2-2.2
		c0.2-0.3,0.9-0.8,1-0.8c0.3-0.1,0.6-0.3,1-1c0.2-0.4,0.4-1.1,0.4-1.1s0.5,0.3,0.5,1.4c0,0.6-0.6,1.2-0.6,1.2s0.4,0.6,0,1.2
		c-0.3,0.4-0.8,0.3-0.8,0.3s0.2,0,0.2-0.3c0-0.3-0.4-0.6-0.8-0.4c-0.4,0.2-0.4,1,0.2,1.1c0.6,0.1,0.9,0,1.2-0.4
		c0.3-0.4,0.5-1.1,0.6-1.7c0.1-0.6,0.3-2.1,0.6-2.9c0.3-0.8,0.5-1,0.8-1.3c0.4-0.4,1-0.4,1-0.4s0,0,0.1,0c0,0-0.1,0-0.1,0
		s-0.6-0.1-1-0.4c-0.3-0.3-0.5-0.5-0.8-1.3c-0.3-0.8-0.5-2.3-0.6-2.9c-0.1-0.6-0.3-1.3-0.6-1.7c-0.3-0.4-0.6-0.5-1.2-0.4
		c-0.6,0.1-0.6,0.9-0.2,1.1c0.4,0.2,0.7-0.1,0.8-0.4c0-0.3-0.2-0.3-0.2-0.3s0.5-0.1,0.8,0.3c0.4,0.6,0,1.2,0,1.2s0.5,0.7,0.6,1.2
		c0.1,1.1-0.5,1.4-0.5,1.4s-0.1-0.7-0.4-1.1c-0.4-0.7-0.7-0.9-1-1c-0.1-0.1-0.8-0.6-1-0.8C150.7,130.3,150.2,129,151.1,128.4
		L151.1,128.4z"/>
	<path class="st2" d="M141.4,135.7c0,5,4.1,9.1,9.1,9.1s9.1-4.1,9.1-9.1c0-5-4.1-9.1-9.1-9.1S141.4,130.6,141.4,135.7L141.4,135.7z
		 M159.5,135.7L159.5,135.7c0,4.9-4,8.9-8.9,8.9c-4.9,0-8.9-4-8.9-8.9c0-4.9,4-8.9,8.9-8.9C155.5,126.8,159.5,130.8,159.5,135.7
		L159.5,135.7z"/>
	<path class="st2" d="M156.3,135.7c0.1,0,0.2,0,0.4,0C156.5,135.7,156.4,135.7,156.3,135.7L156.3,135.7z"/>
	<path class="st2" d="M144.9,135.7c-0.1,0-0.2,0-0.4,0C144.6,135.7,144.8,135.7,144.9,135.7L144.9,135.7z"/>
	<path class="st2" d="M153.3,136c0,0,0-0.2,0-0.3c0-0.1,0-0.3,0-0.3s-0.4,0.1-0.7,0.1c-0.1,0-0.8-0.1-1-0.2
		c-0.2-0.2-0.4-0.6-0.2-0.8c0.4-0.6,1.2-0.1,1.2-0.1s0.1-0.3-0.2-0.6c-0.5-0.5-1.2-0.3-1.2-0.3l-0.5-0.7l-0.5,0.7c0,0-0.3-0.2-0.8,0
		c-0.7,0.2-0.6,0.9-0.6,0.9s1-0.6,1.2,0.2c0,0.2,0,0.4-0.2,0.6c-0.2,0.2-0.5,0.3-0.8,0.3c-0.5,0.1-1-0.1-1-0.1s0,0.2,0,0.4
		c0,0.2,0,0.3,0,0.3s0.7-0.1,1.4,0c0.4,0.1,0.8,0.7,0.4,1.1c-0.4,0.4-1.1,0-1.1,0s-0.2,0.5,0.5,0.9c0.4,0.2,0.9,0,0.9,0l0.5,0.7
		l0.5-0.7c0,0,0.5,0.1,0.9,0c0.6-0.2,0.5-0.9,0.5-0.9s-0.5,0.3-0.9,0.2c-0.4-0.1-0.5-0.5-0.1-1C151.8,135.7,153.3,136,153.3,136
		L153.3,136z M150.6,136.6L150.6,136.6l-0.7-0.9l0.7-0.9l0.7,0.9L150.6,136.6L150.6,136.6z"/>
	<polygon class="st2" points="150.1,135.7 150.6,136.3 151,135.7 150.6,135.1 150.1,135.7 	"/>
	<path class="st3" d="M128.3,90.3l-0.6,0.3c0,0-0.5,0-0.7,0c-0.2,0-0.4,0-0.4,0s-0.2,0.3-0.3,0.5c-0.1,0.2-0.1,0.4-0.1,0.4l-0.5,0.1
		l-0.3-0.3c0,0,0.1-0.8,0.2-1c0.1-0.2,0.3-0.6,0.3-0.6s0.8-0.1,1.1-0.1c0.3,0,0.8,0.1,0.8,0.1L128.3,90.3L128.3,90.3z"/>
	<path class="st3" d="M150.2,95.3c-27,0-48.9,21.7-48.9,48.6c0,13.3,5.4,25.3,14.1,34.1c0.1,0.1,2.2-0.6,2.2-0.6
		c-8.8-8.5-14.3-20.3-14.3-33.5c0-19.8,12.5-36.8,30.1-43.5c0.3,0.1,1.1,0.4,1.2,1.1c0.1,0.9-0.4,1.7-1.1,1.8
		c-0.7,0.1-0.8-0.7-0.7-1c0.2-0.5,1-0.4,1-0.4s-0.6-1.1-1.7,0c-0.6,0.6-0.3,1.7-0.3,1.7s-1.2,0.4-1.6,1.1c-0.4,0.8-0.5,1.6-0.5,1.6
		s0.6-1,1.6-1.1c1-0.1,2.3-0.5,2.7-0.6c0.7-0.2,1.1-1.1,1.1-1.1l1.2,1.1l0.6-1.6c0,0,0.5,0.5,1.4,0.3c1-0.2,1.9-0.9,2.4-1.1
		c1.1-0.4,2,0,2,0s-0.6-0.8-1.3-1.1c-0.7-0.3-1.7,0.1-1.7,0.1s-0.4-1-1-1.1c-1.5-0.3-1.5,0.9-1.5,0.9s0.9-0.6,1.2,0
		c0.3,0.6-0.2,1.3-0.9,1.2c-0.7-0.1-1.3-0.7-1.2-1.4c0.1-0.6,0.6-1.2,0.7-1.4c1.9-0.6,3.9-1,5.9-1.3c2-0.2,4.9-0.5,4.9-0.5
		s1.2,0.4,1.3,1.3c0.1,0.9-0.7,1.5-1.1,1.6c-0.4,0.1-1.2-0.2-1-1.1c0.1-0.5,1.1-0.2,1.1-0.2s-0.1-1-1.3-0.6c-1.2,0.4-1,1.6-1,1.6
		s-1.2,0-1.7,0.4c-0.5,0.4-1,1.5-1,1.5s0.6-0.7,1.8-0.5c1.3,0.1,2.2,0.2,2.6,0.2c0.7,0,1.3-0.7,1.3-0.7l1,1.3l0.9-1.4
		c0,0,0.5,0.8,1.9,0.8c1.4,0,2.1-0.4,2.9-0.2c0.8,0.2,1,0.5,1,0.5s0-0.7-0.8-1.4c-0.8-0.7-1.7-0.5-1.7-0.5s-0.1-1-0.5-1.3
		c-1.4-1.1-1.8,0.2-1.8,0.2s1.2-0.5,1.2,0.6c0,1-1.2,0.8-1.7,0.3c-0.4-0.5-0.5-1.4,0-2c0.4-0.5,0.9-0.6,0.9-0.6s3.4,0.3,5.6,0.6
		c2.4,0.3,5.1,1.1,5.1,1.1s1.4,0.9,0.5,2.2c-0.6,1-1.6,0.5-1.8,0.2c-0.2-0.3-0.1-0.9,0.3-1.1c0.5-0.1,0.9,0.3,0.9,0.3s0.1-0.9-1-1
		c-1.3-0.1-1.5,1.3-1.5,1.3s-1-0.4-1.8-0.1c-0.7,0.3-1.2,1.1-1.2,1.1s1-0.3,1.5-0.1c0.6,0.2,2.4,1.1,3,1.2c0.6,0.1,1.3-0.3,1.3-0.3
		l0.5,1.6l1.3-1c0,0,0.2,0.8,1.2,1.1c1.1,0.4,2.2,0.5,2.7,0.6c0.9,0.3,1.4,1,1.4,1s-0.1-1.1-0.4-1.6c-0.5-0.7-1.7-1.1-1.7-1.1
		s0.3-0.9-0.1-1.4c-1.1-1.6-1.9-0.3-1.9-0.3s1.4-0.1,1.1,1c-0.2,0.7-1.4,0.6-1.7-0.3c-0.3-0.9,0-1.7,0.4-1.8c0.4-0.2,1-0.3,1-0.3
		s3.3,1.3,6.5,3v0c14.2,8,23.8,23.2,23.8,40.5c0,13.1-5.4,24.9-14.2,33.4l2,0.8c8.8-8.8,14.2-20.8,14.2-34.2
		C199.2,117,177.3,95.3,150.2,95.3L150.2,95.3z"/>
	<path class="st3" d="M192.7,171.3c0,0-1.5,1.2-0.2,2.5c1.1,1.1,1.9,0.3,1.9,0.3s-0.2-0.2-0.2-0.6c0-0.4,0.2-0.5,0.2-0.5
		s0,0.3,0.1,0.5c0.1,0.1,0.2,0.3,0.2,0.3s0.3-0.3,0.4-0.6c0.1-0.3,0.1-0.6,0.1-0.6s-0.7,0.6-0.9-0.1c-0.2-0.6,0.4-1.1,0.7-1.1
		c0.2,0,0.9,0,0.9,1.1c0,0.9-0.8,1.8-0.8,1.8l0.2,0.2c0,0,0.5-0.4,0.6-0.7c0.1-0.3,0.2-0.5,0.4-0.6c0.1-0.1,1.7-0.8,1.7-0.8
		s-0.7,1.5-0.8,1.6c-0.1,0.1-0.4,0.3-0.6,0.4c-0.2,0.1-0.8,0.6-0.8,0.6l0.2,0.2c0,0,1-0.7,1.6-0.7c0.6,0,1.3,0.2,1.2,0.9
		c-0.1,0.7-0.9,0.8-1.2,0.7c-0.6-0.3,0-0.9,0-0.9s-0.3,0-0.8,0.2c-0.5,0.2-0.5,0.3-0.5,0.3s0.2,0.2,0.4,0.3c0.2,0.1,0.3,0.1,0.3,0.1
		s-0.3,0.3-0.6,0.2c-0.2-0.1-0.5-0.3-0.5-0.3s-1.1,1.1,0.6,2.3c1,0.7,2.1-0.4,2.1-0.4s0.3,1.1-0.4,2.2c-0.7,1.1-2.1,1.3-2.9,0.6
		c-0.8-0.6-1.3-1.7-1-3.1c0.2-1.2,1.2-2.1,1.2-2.1l-0.2-0.2c0,0-0.6,0.5-1.1,1.8c-0.5,1.4-0.6,2.1-1.4,2.5c-0.8,0.3-3.8,1.3-3.8,1.3
		s0.9-2.4,1-2.8c0.1-0.4,0.5-1.3,1-1.6c0.6-0.3,1.9-0.7,2.4-0.9c0.6-0.2,1.4-0.9,1.4-0.9l-0.2-0.2c0,0-1.1,1.1-2.4,1.1
		c-1.3,0.1-2.7-0.5-3.1-1.8c-0.4-1.3,0.9-2.2,1.6-2.5C191.8,171,192.7,171.3,192.7,171.3L192.7,171.3z"/>
	<path class="st3" d="M208.7,148.4c0,0,1.4-0.7,1.4-3c0-3.7-2.8-3-2.8-3s1.3,1.2,1.2,2.3c-0.2,1.3-1.6,1.8-2.7,1.9
		c-1.1,0.1-1.6,0-1.9,0c-0.3,0-0.5,0.4-0.7,0.6c-0.1,0.1-0.3,0.4-0.4,0.4c-0.1,0-0.3-1.2,0.3-3c0.5-1.9,2.2-4.5,3-5.8
		c0.8-1.3,2.4-4.7,2.2-7.7c-0.1-3-2.4-4-2.4-4s0.3-0.5,0.4-0.9c0.1-0.4,0.1-0.9,0.1-0.9l-1,0.4c0,0-0.1,0.3-0.1,0.5
		c0,0.1-0.2,0.5-0.2,0.5s-1.5-0.4-3.1,0.3c-1.4,0.6-2.7,2.4-2.5,4.7c0.2,2.2,0.9,2.1,1.1,4c0.2,1.9-0.4,3.8-0.4,3.8s1.6-0.8,1.9-2.9
		c0.2-1.4,0.2-1.7,0.2-1.8c0,0,0,0,0,0s0,0,0,0c0.2,0,1.6,0.1,2.4-1.1c0.9-1.4,0-2.8,0-2.8s-0.3,2.3-2.2,1.3c-1-0.5-0.1-2.3-0.1-2.3
		s1.1-1.8,3.1-0.4c2.1,1.4,0,6.4-1.6,8.8c-1.7,2.4-3.3,6.1-3.1,8c0.3,2.3,0.8,3.3,0.8,3.2c0,0-2.3,2.8-1.2,6.5c1.1,3.7,3,7.5,3,9.7
		c0,1.9-0.2,3.7-2.4,3.8c-2.6,0.2-2.3-2.9-1.5-3.2c0.8-0.4,1.5-0.3,1.9,0.4c0.3,0.4,0.1,1.1,0.1,1.1s1.1-1.1,0.6-2.5
		c-0.6-1.7-2.2-1.6-2.2-1.6s0.2-1,0.1-2.4c-0.1-1.8-1.3-2.5-1.3-2.5s0.1,2.6-0.2,3.9c-0.5,1.5-1.7,2.7-1.8,4.2
		c-0.1,1.5-0.3,3.7,2.3,4.9c2.6,1.2,5.1-0.6,5.9-2.5c0.8-1.9,0.8-4.7,0-7.2c-0.8-2.5-2.4-5.9-2.5-7.7c-0.1-1.8,0.2-2.7,0.2-2.7
		s0.2,0,0.4,0.5c0.1,0.4,0.5,0.7,0.7,0.7c0.2,0,2.4,0.1,3.2,0.9c0.8,0.8,1,1.6,0.3,2.5c-0.6,0.9-1.1,1-1.1,1s1.6,0.5,2.5-0.7
		c1-1.2,1-3.3,0.6-4c-0.3-0.7-0.7-1-0.7-1l1.2-1.4L208.7,148.4L208.7,148.4z M205.6,150.8L205.6,150.8c-1.1,0-2.1-1.2-2.1-1.2
		s1.2-1.1,2.5-1c1.3,0.2,2,1.2,2,1.2S207.1,150.8,205.6,150.8L205.6,150.8z"/>
	<path class="st3" d="M205.8,148.9c-0.9-0.1-1.7,0.8-1.7,0.8s0.8,0.8,1.6,0.9c0.8,0.1,1.7-0.7,1.7-0.7S206.7,149,205.8,148.9
		L205.8,148.9z"/>
	<path class="st3" d="M91.1,149.8l1.2,1.4c0,0-0.3,0.3-0.7,1c-0.3,0.7-0.3,2.8,0.6,4c1,1.2,2.5,0.7,2.5,0.7s-0.5-0.2-1.1-1.1
		c-0.6-0.9-0.5-1.7,0.3-2.5c0.8-0.8,3-0.9,3.2-0.9c0.2,0,0.6-0.3,0.7-0.7c0.1-0.4,0.4-0.5,0.4-0.5s0.3,0.9,0.2,2.7
		c-0.1,1.8-1.7,5.2-2.5,7.7c-0.8,2.5-0.8,5.3,0,7.2c0.8,1.9,3.3,3.6,5.9,2.5c2.6-1.2,2.4-3.4,2.3-4.9c-0.1-1.5-1.4-2.7-1.8-4.2
		c-0.4-1.2-0.2-3.9-0.2-3.9s-1.2,0.7-1.3,2.5c-0.1,1.4,0.1,2.4,0.1,2.4s-1.7-0.1-2.3,1.6c-0.5,1.4,0.6,2.5,0.6,2.5s-0.1-0.6,0.1-1.1
		c0.5-0.7,1.1-0.7,1.9-0.4c0.8,0.4,1.1,3.4-1.5,3.2c-2.2-0.1-2.4-1.9-2.4-3.8c0-2.2,1.9-6,3-9.7c1.1-3.7-1.2-6.5-1.2-6.5
		c0,0.1,0.5-0.9,0.8-3.2c0.2-1.9-1.5-5.5-3.1-8c-1.7-2.4-3.7-7.4-1.6-8.8c2.1-1.4,3.1,0.4,3.1,0.4s0.9,1.8-0.1,2.3
		c-1.9,1-2.2-1.3-2.2-1.3s-0.9,1.4,0,2.8c0.8,1.3,2.2,1.2,2.4,1.1c0,0,0,0,0,0s0,0,0,0c0,0.1,0,0.4,0.2,1.8c0.3,2.1,1.9,2.9,1.9,2.9
		s-0.6-2-0.4-3.8c0.2-1.9,0.9-1.8,1.1-4c0.2-2.3-1.1-4.1-2.5-4.7c-1.5-0.7-3.1-0.3-3.1-0.3s-0.1-0.4-0.2-0.5c0-0.1-0.1-0.5-0.1-0.5
		l-1-0.4c0,0,0,0.5,0.1,0.9c0.1,0.4,0.4,0.9,0.4,0.9s-2.3,1-2.4,4c-0.1,3,1.5,6.3,2.2,7.7c0.8,1.3,2.4,4,3,5.8c0.5,1.9,0.3,3,0.3,3
		c-0.1,0-0.2-0.3-0.4-0.4c-0.1-0.1-0.4-0.6-0.7-0.6c-0.3,0-0.8,0-1.9,0c-1.1-0.1-2.5-0.6-2.7-1.9c-0.2-1,1.2-2.3,1.2-2.3
		s-2.8-0.7-2.8,3c0,2.3,1.4,3,1.4,3L91.1,149.8L91.1,149.8z M92.9,149.7L92.9,149.7c0,0,0.7-1,2-1.2c1.3-0.2,2.5,1,2.5,1
		s-1,1.2-2.1,1.2C93.7,150.6,92.9,149.7,92.9,149.7L92.9,149.7z"/>
	<path class="st3" d="M95.1,148.7c0.9-0.1,1.7,0.8,1.7,0.8s-0.8,0.8-1.6,0.9c-0.8,0.1-1.7-0.7-1.7-0.7S94.2,148.8,95.1,148.7
		L95.1,148.7z"/>
	<path class="st3" d="M194.1,104.1l-1.9-0.3c0,0,0.1-0.4-0.1-1.2c-0.2-0.8-1.5-2.4-3-2.8c-1.5-0.4-2.4,1-2.4,1s0.5-0.2,1.5,0.1
		c1.1,0.3,1.4,1,1.3,2.2c-0.1,1.1-1.8,2.6-2,2.7c-0.2,0.1-0.3,0.6-0.1,1c0.2,0.4,0,0.6,0,0.6s-0.8-0.5-1.8-1.9
		c-1-1.5-1.9-5.1-2.8-7.6c-0.9-2.5-2.6-4.7-4.4-5.7c-1.8-1-4.9-0.8-6.2,1.7c-1.3,2.5,0.3,4.1,1.2,5.3c1,1.1,2.7,1.3,4,2.2
		c1.1,0.7,2.6,2.9,2.6,2.9s0.5-1.3-0.5-2.7c-0.8-1.2-1.5-1.8-1.5-1.8s1.4-0.9,0.8-2.7c-0.5-1.4-2-1.6-2-1.6s0.5,0.4,0.5,0.9
		c0.1,0.8-0.4,1.3-1.3,1.5c-0.9,0.2-3-2-0.8-3.5c1.8-1.2,3.1,0,4.2,1.5c1.3,1.7,2.2,5.9,3.6,9.5c1.4,3.6,5,4.4,5,4.4
		c-0.1-0.1,0.1,1,1.3,3c1,1.6,4.6,3.5,7.4,4.3c2.8,0.9,7.5,3.5,6.7,5.9c-0.8,2.4-2.7,1.6-2.7,1.6s-1.8-0.9-1.3-1.9
		c0.9-2,2.5-0.4,2.5-0.4s-0.2-1.7-1.7-2.2c-1.4-0.5-2.4,0.5-2.6,0.6c0,0,0,0,0,0s0,0,0,0c0-0.1-0.2-0.3-1.2-1.3
		c-1.5-1.4-3.2-1.1-3.2-1.1s1.7,1.2,2.7,2.8c1,1.6,0.4,2,1.6,3.8c1.2,1.9,3.4,2.5,4.9,2.2c1.6-0.4,2.6-1.7,2.6-1.7s0.4,0.2,0.5,0.3
		c0.1,0.1,0.3,0.3,0.3,0.3l1-0.4c0,0-0.1-0.2-0.5-0.4c-0.3-0.2-0.9-0.5-0.9-0.5s1.2-2.2-0.5-4.6c-1.8-2.4-5.1-4.1-6.5-4.7
		c-1.4-0.6-4.4-1.6-5.9-2.8c-1.6-1.1-2.1-2.2-2.1-2.2c0.1,0,0.4,0.1,0.5,0.1c0.2,0,0.7,0.2,0.9,0.1c0.2-0.1,0.6-0.5,1.5-1.1
		c0.9-0.6,2.3-1.1,3.3-0.2c0.8,0.7,0.5,2.5,0.5,2.5s2.6-1.2,0.4-4.1c-1.4-1.8-2.9-1.5-2.9-1.5L194.1,104.1L194.1,104.1z
		 M192.8,105.2L192.8,105.2c0,0,0.1,1.2-0.8,2.2c-0.9,0.9-2.6,0.8-2.6,0.8s0-1.6,0.9-2.3C191.6,105,192.8,105.2,192.8,105.2
		L192.8,105.2z"/>
	<path class="st3" d="M191.7,107.4c-0.6,0.6-1.8,0.4-1.8,0.4s0.1-1.1,0.7-1.7c0.6-0.6,1.8-0.5,1.8-0.5S192.3,106.7,191.7,107.4
		L191.7,107.4z"/>
	<path class="st3" d="M150.2,84.7l-1.5,1.1c0,0-0.2-0.4-1-0.8c-0.7-0.4-2.8-0.6-4,0.2c-1.3,0.8-0.9,2.5-0.9,2.5s0.2-0.5,1.2-1
		c0.9-0.6,1.7-0.3,2.5,0.5c0.7,0.9,0.7,3.1,0.6,3.3c0,0.2,0.2,0.6,0.6,0.8c0.4,0.2,0.4,0.4,0.4,0.4s-0.9,0.2-2.7,0
		c-1.8-0.3-5-2.1-7.4-3.2c-2.4-1-5.2-1.3-7.2-0.7c-2,0.6-3.9,3-3,5.7c0.9,2.7,3.2,2.7,4.7,2.7c1.5,0.1,2.8-1.1,4.3-1.4
		c1.3-0.3,3.9,0.1,3.9,0.1s-0.6-1.2-2.3-1.5c-1.4-0.2-2.4-0.1-2.4-0.1s0.3-1.6-1.4-2.4c-1.4-0.6-2.6,0.4-2.6,0.4s0.6-0.1,1,0.2
		c0.6,0.5,0.6,1.2,0.2,2c-0.4,0.8-3.5,0.8-3.1-1.8c0.3-2.1,2.1-2.2,4-2c2.1,0.2,5.8,2.5,9.4,3.9c3.6,1.4,6.6-0.6,6.6-0.6
		c-0.1,0,0.8,0.6,3.1,1.1c1.8,0.4,5.7-1,8.2-2.4c2.6-1.4,7.7-3,8.9-0.8c1.2,2.2-0.7,3.1-0.7,3.1s-1.8,0.7-2.3-0.3
		c-0.9-2,1.5-2.1,1.5-2.1s-1.4-1-2.8-0.3c-1.3,0.7-1.3,2.1-1.3,2.3c0,0,0,0,0,0s0,0,0,0c-0.1,0-0.4-0.1-1.8,0c-2.1,0.1-3,1.6-3,1.6
		s2-0.4,3.9-0.1c1.9,0.3,1.7,1,3.9,1.4c2.2,0.4,4.2-0.7,4.9-2.1c0.8-1.5,0.6-3,0.6-3s0.4-0.1,0.5-0.2c0.2-0.1,0.4-0.1,0.4-0.1
		s0.1,0.2,0.1,0.5c0,0.3-0.1,0.5-0.1,0.5l0.8-0.4c0,0,0-0.3,0-0.7c-0.1-0.3-0.2-0.8-0.2-0.8s-0.4-0.1-0.8,0c-0.4,0.1-1,0.3-1,0.3
		s-0.8-2.4-3.7-2.8c-3-0.4-6.4,0.9-7.8,1.5c-1.4,0.7-4.2,2-6.1,2.4c-1.9,0.4-3,0.1-3,0c0-0.1,0.3-0.2,0.4-0.3
		c0.2-0.1,0.6-0.3,0.6-0.6c0-0.3,0-0.8,0.2-1.8c0.2-1,0.8-2.4,2.1-2.5c1-0.1,2.2,1.4,2.2,1.4s0.9-2.7-2.7-3.1
		c-2.3-0.2-3.1,1.1-3.1,1.1L150.2,84.7L150.2,84.7z M150.2,86.4L150.2,86.4c0,0,1,0.8,1,2.1c0.1,1.3-1.2,2.4-1.2,2.4s-1.1-1.1-1-2.2
		C149.2,87.2,150.2,86.4,150.2,86.4L150.2,86.4z"/>
	<path class="st3" d="M150.9,88.7c0,0.9-0.9,1.6-0.9,1.6s-0.7-0.8-0.7-1.7c0-0.8,0.9-1.7,0.9-1.7S150.9,87.8,150.9,88.7L150.9,88.7z
		"/>
	<path class="st3" d="M106.5,105.7c0,0-1.5-0.3-2.9,1.5c-2.2,2.9,0.4,4.1,0.4,4.1s-0.3-1.8,0.5-2.5c1-0.9,2.4-0.4,3.3,0.2
		c0.9,0.6,1.3,1,1.5,1.1c0.2,0.1,0.7,0,0.9-0.1c0.2,0,0.5-0.1,0.5-0.1c0.1,0-0.5,1.1-2.1,2.2c-1.6,1.1-4.5,2.2-5.9,2.8
		c-1.4,0.6-4.7,2.2-6.5,4.7c-1.8,2.4-0.5,4.6-0.5,4.6s-0.5,0.3-0.9,0.5c-0.3,0.2-0.5,0.4-0.5,0.4l1,0.4c0,0,0.1-0.2,0.3-0.3
		c0.1-0.1,0.5-0.3,0.5-0.3s1,1.2,2.6,1.7c1.4,0.4,3.6-0.3,4.9-2.2c1.2-1.8,0.6-2.2,1.6-3.8c1-1.6,2.7-2.8,2.7-2.8s-1.7-0.3-3.2,1.1
		c-1,1-1.2,1.3-1.2,1.3c0,0,0,0,0,0s0,0,0,0c-0.1-0.1-1.2-1.1-2.6-0.6c-1.5,0.5-1.7,2.2-1.7,2.2s1.7-1.6,2.5,0.4
		c0.4,1-1.3,1.9-1.3,1.9s-1.9,0.7-2.7-1.6c-0.8-2.4,3.9-5,6.7-5.9c2.8-0.9,6.4-2.8,7.4-4.3c1.2-2,1.4-3.1,1.3-3c0,0,3.6-0.8,5-4.4
		c1.4-3.6,2.3-7.8,3.6-9.5c1.2-1.5,2.5-2.7,4.2-1.5c2.2,1.5,0,3.7-0.8,3.5c-0.9-0.2-1.4-0.6-1.3-1.5c0-0.5,0.5-0.9,0.5-0.9
		s-1.5,0.2-2,1.6c-0.6,1.7,0.8,2.7,0.8,2.7s-0.8,0.6-1.5,1.8c-1,1.5-0.5,2.7-0.5,2.7s1.5-2.1,2.6-2.9c1.3-0.9,3-1,4-2.2
		c1-1.1,2.5-2.8,1.2-5.3c-1.3-2.5-4.4-2.7-6.2-1.7s-3.5,3.2-4.4,5.7c-0.9,2.5-1.8,6.1-2.8,7.6c-1,1.5-1.8,1.9-1.8,1.9
		s-0.2-0.2,0-0.6c0.2-0.4,0-0.9-0.1-1c-0.2-0.1-1.8-1.6-2-2.7c-0.1-1.1,0.2-1.9,1.3-2.2c1.1-0.3,1.5-0.1,1.5-0.1s-0.9-1.4-2.4-1
		c-1.5,0.4-2.8,2-3,2.8c-0.2,0.8-0.1,1.2-0.1,1.2l-1.9,0.3L106.5,105.7L106.5,105.7z M110.4,105.8L110.4,105.8
		c0.9,0.7,0.9,2.3,0.9,2.3s-1.6,0.2-2.6-0.8c-0.9-1-0.8-2.2-0.8-2.2S109.2,104.9,110.4,105.8L110.4,105.8z"/>
	<path class="st3" d="M109.1,107.2c0.6,0.6,1.8,0.4,1.8,0.4s-0.1-1.1-0.7-1.7c-0.6-0.6-1.8-0.5-1.8-0.5S108.5,106.6,109.1,107.2
		L109.1,107.2z"/>
	<path class="st3" d="M192.8,188.4c-0.2-0.3-0.5-0.4-0.8-0.5c-0.6-0.1-1.2,0.2-1.2,0.2s0.4,0.1,0.6,0.3c0.3,0.2,0.5,0.6,0.3,0.9
		c-0.2,0.3-0.8,0.4-1,0.1c-0.2-0.2-0.4-0.8-0.5-1.7c0-0.3,0-0.7,0-1c0.2-1.1,0.3-2.1-0.1-3.5c-0.4-1.4-2.2-2.2-2.2-2.2
		s0.2-0.1,0-1.5c-0.2-1.4-1.6-2.5-2.1-2.7c-0.6-0.2-2-0.9-2.7-1.4c-0.7-0.5-1-1.2-0.6-1.6c0.4-0.3,0.7-0.2,1,0.2
		c0.2,0.3,0,1.1,0,1.1s1.4-0.8,0.9-2c-0.5-1.1-2.2-1.4-3.1-0.2c-0.9,1.2-0.2,2.3-0.2,2.3s-0.3,0.3-0.3,0.5c0,0.2,0.1,0.6,0.1,0.6
		s-0.8,0.3-0.7,1c0.1,0.8,1,0.7,1,0.7s-0.1,0.3,0.2,0.7c0.3,0.3,0.8,0.2,0.8,0.2s0.4,1,1,1.2c0.9,0.3,1.5-0.3,1.5-0.3
		s-0.7-0.1-0.8-0.3c-0.5-0.6-0.3-1,0.2-1.3c0.5-0.3,1.3-0.2,2,0.5c0.3,0.3,0.5,0.8,0.5,1.1c0,0.4-0.1,0.6-0.1,0.6s-0.1,0-0.3-0.1
		c-0.2,0-0.4-0.1-0.6-0.1c-0.5,0-1,0.7-2.1,0.8c-1.1,0.1-1.8-0.6-1.8-0.6s-0.3,1,0.2,1.5c0.7,0.7,1.4,0.9,1.4,0.9l-0.8,1.4l1.6,0
		c0,0-0.3,1,0,1.8c0.4,0.9,1.2,0.9,1.2,0.9s0,0.1,0-0.3c0-0.4,0-0.8,0.4-1.5c0.4-0.6,1.2-1,1.5-1.2c0.3-0.1,0.5-0.5,0.6-0.7
		c0.1-0.2,0.2-0.5,0.2-0.5s1,0.2,1.2,1.2c0.3,1,0,1.5-0.3,1.9c-0.3,0.3-0.9,0.5-1.3,0c-0.4-0.5,0-1.2,0-1.2s-0.2,0-0.3,0.1
		c-0.1,0.1-0.8,0.6-0.7,1.3c0,0.7,0.5,1.2,0.5,1.2s-0.3,0.3-0.2,0.7c0.1,0.5,0.5,0.6,0.5,0.6s-0.5,0.7,0,1.1c0.6,0.6,1.3,0,1.3,0
		s0.1,0.4,0.4,0.4c0.2,0,0.6,0,0.6,0s0.2,0.3,0.7,0.7c0.5,0.3,1.4,0.3,1.9,0.1c0.3-0.1,0.7-0.4,1-1
		C193.2,189.7,193.2,189.1,192.8,188.4L192.8,188.4z M185.8,183.5L185.8,183.5c-0.9,0.6-1.9,0.2-1.9,0.2s0.3-1.1,0.9-1.4
		c0.8-0.4,1.8-0.2,1.8-0.2S186.3,183.1,185.8,183.5L185.8,183.5z"/>
	<path class="st3" d="M184.9,182.5c-0.4,0.2-0.7,1-0.7,1s0.8,0.2,1.3-0.1c0.5-0.3,0.8-1.1,0.8-1.1S185.5,182.2,184.9,182.5
		L184.9,182.5z"/>
	<path class="st3" d="M109.4,171.3c0.7,0.3,2,1.2,1.6,2.5c-0.4,1.3-1.7,1.9-3.1,1.8c-1.3,0-2.4-1.1-2.4-1.1l-0.2,0.2
		c0,0,0.8,0.7,1.4,0.9c0.5,0.2,1.8,0.5,2.4,0.9c0.6,0.3,0.9,1.2,1,1.6c0.1,0.4,1,2.8,1,2.8s-3.1-1-3.8-1.3c-0.8-0.3-0.9-1.1-1.4-2.5
		c-0.5-1.4-1.1-1.8-1.1-1.8l-0.2,0.2c0,0,0.9,0.9,1.2,2.1c0.3,1.4-0.2,2.4-1,3.1c-0.8,0.6-2.2,0.5-2.9-0.6c-0.7-1.1-0.4-2.2-0.4-2.2
		s1.1,1.2,2.1,0.4c1.7-1.2,0.6-2.3,0.6-2.3s-0.2,0.2-0.5,0.3c-0.2,0.1-0.6-0.2-0.6-0.2s0.2,0,0.3-0.1c0.2-0.1,0.4-0.3,0.4-0.3
		s0-0.1-0.5-0.3c-0.5-0.2-0.8-0.2-0.8-0.2s0.5,0.6,0,0.9c-0.2,0.1-1.1,0-1.1-0.7c0-0.7,0.6-0.8,1.2-0.9c0.6,0,1.6,0.7,1.6,0.7
		l0.2-0.2c0,0-0.6-0.5-0.8-0.6c-0.2-0.1-0.5-0.3-0.6-0.4c-0.1-0.1-0.8-1.6-0.8-1.6s1.6,0.7,1.7,0.8c0.1,0.1,0.2,0.3,0.4,0.6
		c0.1,0.3,0.6,0.7,0.6,0.7l0.2-0.2c0,0-0.7-0.9-0.8-1.8c0-1.1,0.6-1.1,0.9-1.1c0.2,0,0.9,0.5,0.7,1.1c-0.2,0.6-0.9,0.1-0.9,0.1
		s0,0.3,0.1,0.6c0.1,0.3,0.4,0.6,0.4,0.6s0.1-0.1,0.2-0.3c0.1-0.2,0.1-0.5,0.1-0.5s0.2,0,0.2,0.5c0,0.4-0.2,0.6-0.2,0.6
		s0.9,0.8,1.9-0.3c1.3-1.3-0.2-2.5-0.2-2.5S108.6,171,109.4,171.3L109.4,171.3z"/>
	<path class="st3" d="M107.4,190.1c0.2,0.6,0.7,0.9,1,1c0.5,0.2,1.4,0.2,1.9-0.1c0.5-0.3,0.7-0.7,0.7-0.7s0.4,0.1,0.6,0
		c0.3-0.1,0.4-0.4,0.4-0.4s0.7,0.6,1.3,0c0.5-0.5,0-1.1,0-1.1s0.4-0.1,0.5-0.6c0.1-0.4-0.2-0.7-0.2-0.7s0.5-0.5,0.5-1.2
		c0-0.7-0.6-1.2-0.7-1.3c-0.1-0.1-0.3-0.1-0.3-0.1s0.4,0.8,0,1.2c-0.4,0.5-1,0.3-1.3,0c-0.3-0.4-0.6-0.8-0.3-1.9
		c0.3-1,1.2-1.2,1.2-1.2s0.1,0.3,0.2,0.5c0.1,0.2,0.3,0.6,0.6,0.7c0.3,0.1,1.1,0.6,1.5,1.2c0.4,0.6,0.4,1.1,0.4,1.5
		c0,0.4,0,0.3,0,0.3s0.7,0,1.1-0.9c0.3-0.7,0.1-1.8,0.1-1.8l1.6,0l-0.8-1.4c0,0,0.8-0.1,1.4-0.9c0.5-0.6,0.2-1.5,0.2-1.5
		s-0.7,0.7-1.8,0.6c-1.1-0.1-1.6-0.8-2.1-0.8c-0.2,0-0.4,0-0.6,0.1c-0.2,0-0.3,0.1-0.3,0.1s-0.1-0.2-0.1-0.6c0-0.3,0.2-0.7,0.5-1.1
		c0.7-0.8,1.5-0.9,2-0.5c0.5,0.3,0.7,0.7,0.2,1.3c-0.2,0.2-0.8,0.3-0.8,0.3s0.6,0.6,1.5,0.3c0.6-0.2,1-1.2,1-1.2s0.5,0.1,0.8-0.2
		c0.3-0.3,0.2-0.7,0.2-0.7s0.8,0.1,1-0.7c0.1-0.7-0.7-1-0.7-1s0.1-0.4,0.1-0.6c0-0.2-0.3-0.5-0.3-0.5s0.6-1.2-0.2-2.3
		c-0.9-1.2-2.6-0.9-3.1,0.2c-0.5,1.2,0.9,2,0.9,2s-0.2-0.8,0.1-1.1c0.2-0.3,0.5-0.5,1-0.2c0.4,0.3,0.1,1.1-0.6,1.6
		c-0.7,0.5-2.1,1.2-2.7,1.4c-0.6,0.2-1.9,1.3-2.1,2.7c-0.2,1.4,0,1.5,0,1.5s-1.9,0.8-2.2,2.2c-0.4,1.4-0.3,2.4-0.1,3.5
		c0,0.3,0,0.7,0,1c0,0.8-0.3,1.5-0.5,1.7c-0.3,0.2-0.9,0.2-1-0.1c-0.2-0.3,0.1-0.7,0.3-0.9c0.3-0.2,0.6-0.3,0.6-0.3
		s-0.6-0.3-1.2-0.2c-0.3,0-0.6,0.2-0.8,0.5C107.2,189.1,107.2,189.7,107.4,190.1L107.4,190.1z M113.8,182.2L113.8,182.2
		c0,0,0.9-0.3,1.8,0.2c0.6,0.3,0.9,1.4,0.9,1.4s-1,0.3-1.9-0.2C114.1,183.1,113.8,182.2,113.8,182.2L113.8,182.2z"/>
	<path class="st3" d="M115.5,182.5c0.4,0.2,0.7,1,0.7,1s-0.8,0.2-1.3-0.1c-0.5-0.3-0.8-1.1-0.8-1.1S114.9,182.2,115.5,182.5
		L115.5,182.5z"/>
	<path class="st3" d="M118.4,174c0,0-4-3.4-8.7-11.9c-2.6-4.7-4.5-12.6-4.3-20.2c0.2-9.1,3.3-16.1,6.7-21.4
		c5.6-8.6,12.4-12.4,12.4-12.4s-16.1,10.3-18,31.7c-1.9,21.9,12.2,33.9,12.2,33.9L118.4,174L118.4,174z"/>
	<path class="st3" d="M181.6,173.7c0,0,14-12,12.2-33.9c-1.8-21.4-18-31.7-18-31.7s6.9,3.9,12.4,12.4c3.4,5.3,6.5,12.2,6.7,21.4
		c0.2,7.6-1.7,15.5-4.3,20.2C186,170.6,182,174,182,174L181.6,173.7L181.6,173.7z"/>
	<path class="st3" d="M108.4,188.6c-11.6-11.1-18.8-26.8-18.8-44.1c0-33.7,27.3-61,61-61c33.7,0,61,27.3,61,61
		c0,17.6-7.5,33.5-19.4,44.6c0.1,0.2,0.3,0.3,0.4,0.5c12.1-11.2,19.6-27.3,19.6-45.1c0-34-27.6-61.6-61.6-61.6
		c-34,0-61.6,27.6-61.6,61.6c0,17.6,7.4,33.5,19.2,44.7C108.2,189.3,108.5,188.7,108.4,188.6L108.4,188.6z"/>
	<path class="st3" d="M107.8,190.2c0.1-0.2,0.3-0.3,0.4-0.5c-12.1-11.3-19.6-27.4-19.6-45.2c0-34.2,27.7-61.9,61.9-61.9
		c34.2,0,61.9,27.7,61.9,61.9c0,17.9-7.6,34-19.7,45.3c0.1,0.1-0.3,0.7-0.2,0.9c0,0.1,0.5-0.4,0.6-0.4
		c12.3-11.4,19.9-27.7,19.9-45.8c0-34.6-28-62.6-62.6-62.6c-34.6,0-62.6,28-62.6,62.6C88,162.5,95.6,178.8,107.8,190.2L107.8,190.2z
		"/>
	<path class="st2" d="M142,172.1h-0.4H142c1.1,0,2,0.2,2.6,0.7c0.7,0.5,1.1,1.2,1.3,2c0.1,0.3,0.1,0.6,0.1,0.9
		c0,0.4-0.1,0.8-0.2,1.2c-0.2,0.5-0.4,0.9-0.8,1.3c-0.4,0.4-0.8,0.6-1.4,0.8c-0.4,0.1-0.9,0.2-1.6,0.2h-0.3h0.3h-0.3
		c-0.7,0-1.2-0.1-1.6-0.2c-0.5-0.2-1-0.4-1.4-0.8c-0.4-0.4-0.7-0.8-0.8-1.3c-0.1-0.4-0.2-0.7-0.2-1.2c0-0.3,0-0.6,0.1-0.9
		c0.2-0.8,0.6-1.5,1.3-2c0.6-0.5,1.5-0.7,2.6-0.7H142L142,172.1z"/>
	<path class="st1" d="M141.8,173.1h0.2c0.9,0,1.5,0.2,1.9,0.5c0.6,0.5,0.9,1.2,0.9,2c0,0.4-0.1,0.8-0.2,1.2
		c-0.2,0.3-0.4,0.6-0.7,0.9c-0.4,0.3-1,0.4-1.9,0.4h-0.3h0.3h-0.3c-0.8,0-1.4-0.2-1.9-0.4c-0.3-0.2-0.6-0.5-0.7-0.9
		c-0.2-0.3-0.2-0.7-0.2-1.2c0-0.8,0.3-1.5,0.9-2c0.4-0.3,1-0.5,1.9-0.5H141.8L141.8,173.1z"/>
	<path class="st2" d="M175.5,178.8l0-6.3l0-0.1c0,0,0,0-0.1-0.1l-0.2-0.1l0,0v-0.1h2.1v0.1l-0.2,0.1c0,0-0.1,0-0.1,0.1l0,6.3l0,0.1
		c0,0,0,0,0.1,0.1l0.2,0.1l0,0v0.1h-2.1V179L175.5,178.8C175.4,178.9,175.5,178.8,175.5,178.8L175.5,178.8z"/>
	<path class="st2" d="M171.8,176.2l0-3.8c0,0,0,0,0.1-0.1l0.2-0.1v-0.1H170v0.1l0,0l0.2,0.1c0,0,0.1,0,0.1,0.1l0,0.1l0,6.3
		c0,0,0,0-0.1,0.1L170,179v0.1h2.1V179l0,0l-0.2-0.1c0,0,0,0-0.1-0.1l0-0.1v-0.8c0.9-0.9,2.1-2.1,2.9-3v0.1h0.3v-2.3L171.8,176.2
		L171.8,176.2z"/>
	<path class="st2" d="M126.5,178.9v0.2h-2v-0.2l0.2-0.2l0-6.1l0-0.1l-0.1-0.1l-0.2-0.1l0,0v-0.2l1.7,0l3.2,0l0.9,1.4l-0.1,0.1l0,0
		l-0.3-0.2c-0.1,0-0.1-0.1-0.1-0.1c0,0-0.1,0-0.1,0l-3.4,0l0,5.4L126.5,178.9L126.5,178.9z"/>
	<path class="st2" d="M153.3,178.8l0-6.3l0-0.1c0,0,0,0,0.1-0.1l0.2-0.1l0,0v-0.1h-1.8v0.1l0.2,0.1c0,0,0,0,0.1,0.1l0,6.2l0,0.1
		c0,0,0,0,0,0.1l-0.2,0.1l0,0v0.1h1.8V179L153.3,178.8C153.4,178.8,153.3,178.8,153.3,178.8L153.3,178.8z"/>
	<path class="st2" d="M157.6,179v0.1h1.8V179l-0.2-0.2l0-6.3l0-0.1l0-0.1l0.2-0.1l0,0v-0.1h-1.8v0.1l0.2,0.1c0.1,0,0.1,0.1,0.1,0.1
		v2.1h-3.7l-0.8,1.3l0.1,0l0,0l0.2-0.2c0.1,0,0.1-0.1,0.1-0.1c0,0,0.1,0,0.1,0h3.9l0,3.1L157.6,179L157.6,179z"/>
	<path class="st2" d="M169.2,178.8l0-6.3l0-0.1c0,0,0,0,0.1-0.1l0.2-0.1l0,0v-0.1h-1.8v0.1l0.2,0.1c0,0,0,0,0.1,0.1l0,6.2l0,0.1
		c0,0,0,0,0,0.1l-0.1,0.1l0,0v0.1h1.8V179L169.2,178.8C169.2,178.8,169.2,178.8,169.2,178.8L169.2,178.8z"/>
	<path class="st3" d="M160.6,178.9l-0.2,0.1v0.1l0.9,0l2.8,0c0.7,0,1.5-0.1,2.1-0.4c0.5-0.2,0.8-0.6,1-1l0,0l0.1-0.2c0,0,0,0,0,0
		l0.1-0.1l0,0c0-0.1,0-0.2,0-0.3c0-0.2-0.1-0.5-0.2-0.7c-0.1-0.3-0.4-0.6-0.7-0.7c-0.3-0.2-0.7-0.4-1.1-0.4
		c-0.3-0.1-0.5-0.1-0.8-0.1l-2,0c0,0,0,0-0.1,0.1c0,0,0,0,0,0.1c0,0.2,0,0.5,0,0.7c0.5,0,1,0,1.6,0c0.4,0,1,0,1.3,0.2
		c0.2,0.1,0.4,0.2,0.5,0.4c0.1,0.2,0.2,0.3,0.2,0.5c0,0.4-0.2,0.7-0.6,0.9c-0.3,0.2-0.9,0.2-1.3,0.2h-1.5l-1.2,0h-0.4l-0.4,0
		L160.6,178.9L160.6,178.9z"/>
	<path class="st2" d="M162.1,172.4l0,5.2l0,0.1c0,0,0,0,0.1,0l0.2,0.1l0,0v0.1h-1.8v-0.1l0.2-0.1c0,0,0,0,0.1-0.1l0-5.1l0-0.1
		c0,0,0,0,0,0l-0.2-0.1l0,0v-0.1h1.8v0.1L162.1,172.4C162.1,172.4,162.1,172.4,162.1,172.4L162.1,172.4z"/>
	<path class="st3" d="M130.8,172.3l-0.2-0.1v-0.1h0.9l2.8,0c0.7,0,1.5,0.1,2.1,0.4c0.5,0.2,0.8,0.6,1,1l0,0l0.1,0.2c0,0,0,0,0,0
		l0,0.1l0,0c0,0.1,0,0.2,0,0.3c0,0.2-0.1,0.5-0.2,0.7c-0.1,0.3-0.4,0.5-0.7,0.7c-0.3,0.2-0.7,0.4-1.1,0.4c-0.3,0-0.5,0.1-0.8,0.1
		l-2,0c0,0,0,0-0.1-0.1c0,0,0,0,0-0.1c0-0.2,0-0.5,0-0.7c0.5,0,1,0,1.6,0c0.4,0,1,0,1.3-0.2c0.2-0.1,0.4-0.2,0.5-0.4
		c0.1-0.2,0.2-0.3,0.2-0.5c0-0.4-0.2-0.7-0.6-0.9c-0.3-0.2-0.9-0.2-1.3-0.2l-1.5,0h-1.2h-0.4l-0.4,0L130.8,172.3L130.8,172.3z"/>
	<path class="st2" d="M132.3,178.8l0-5.1l0-0.1c0,0,0,0,0.1,0l0.2-0.1l0,0v-0.1h-1.8v0.1l0.2,0.1c0,0,0,0,0.1,0.1l0,5.1l0,0.1
		c0,0,0,0,0,0l-0.2,0.1l0,0v0.1h1.8V179L132.3,178.8C132.3,178.8,132.3,178.8,132.3,178.8L132.3,178.8z"/>
	<path class="st3" d="M146.5,172.1l-0.3,0v1.2h0.1l0.1-0.1c0,0,0,0,0.1,0l0.7,0h0.3l1.2,0c0.3,0,0.7,0,1,0.2
		c0.3,0.2,0.4,0.5,0.4,0.8c0,0.2,0,0.3-0.1,0.5c-0.1,0.1-0.2,0.3-0.3,0.3c-0.2,0.1-0.4,0.2-0.7,0.2l-1.2,0c-0.1,0-0.2,0-0.3,0h-0.1
		v0.1c0,0,0,0.1,0,0.1c0,0.2,0,0.3,0,0.4c0,0,0,0.1,0,0.1c0,0,0,0.1,0,0.1v0.1h0.1c0.1,0,0.2,0,0.3,0l1.2,0c0.2,0,0.5,0.1,0.7,0.2
		c0.1,0.1,0.3,0.2,0.3,0.3c0.1,0.1,0.1,0.3,0.1,0.5c0,0.4-0.1,0.6-0.4,0.8c-0.2,0.2-0.7,0.2-1,0.2h-1.2l-1.1,0c0,0,0.1,0,0.1,0
		l-0.4,0l-0.1,0c0,0,0,0-0.1,0l-0.1-0.1l-0.1,0v1.2l0.3,0c0.1,0-0.3,0-0.2,0l0.8,0l2,0c0.6,0,1.2-0.1,1.7-0.4c0.6-0.4,0.9-1,0.9-1.7
		c0-0.2,0-0.5-0.1-0.7c-0.1-0.3-0.3-0.6-0.6-0.8c0.3-0.2,0.5-0.5,0.6-0.8c0.1-0.2,0.1-0.4,0.1-0.7c0-0.7-0.3-1.3-0.9-1.7
		c-0.5-0.3-1.1-0.4-1.7-0.4l-2,0h-0.6C146.2,172.1,146.6,172.1,146.5,172.1L146.5,172.1z"/>
	<polygon class="st2" points="173.9,172.6 174.6,171.9 174.9,171.8 175,171.6 172.9,171.6 172.8,171.8 173.1,171.9 172.5,172.6 
		173.9,172.6 	"/>
	<path class="st2" d="M146.5,65.6l3.6-3.6l6,6l0,0.1c0,0.1-0.1,0.2-0.6,0.2h-0.1v0.3h5.6l-4.8-4.8c-0.1-0.1,0.3,0.3,0.3,0.2
		l-2.8-2.7l-1.4-1.4l6.7-6.7h-5.6v0.3h0.1c0.5,0,0.6,0.1,0.6,0.2L154,54c0,0.1,0,0.1-0.1,0.1l-3.8,3.8l-3.8-3.8c0,0-0.1,0-0.1-0.1
		l-0.1-0.2c0-0.1,0.1-0.2,0.6-0.2h0.1v-0.3h-5.6L148,60l-1.4,1.4l-2,1.8L146.5,65.6L146.5,65.6z M146.1,58.1l-0.3-0.2l-2.5-2.5
		l2.5,2.5L146.1,58.1L146.1,58.1z M156.5,64.1l-2.8-2.7l-1.4-1.4l6.7-6.7h-5.6v0.3h0.1c0.5,0,0.6,0.1,0.6,0.2L154,54
		c0,0.1,0,0.1-0.1,0.1l-3.8,3.8l-3.8-3.8c0,0-0.1,0-0.1-0.1l-0.1-0.2c0-0.1,0.1-0.2,0.6-0.2h0.1v-0.3h-5.6L148,60l-1.4,1.4l-2.2,2.1
		l1.9,2.4l3.9-3.9l6,6l0,0.1c0,0.1-0.1,0.2-0.6,0.2h-0.1v0.3h5.6l-4.8-4.8C156.1,63.7,156.5,64.2,156.5,64.1L156.5,64.1z"/>
	<path class="st2" d="M128.3,68.3c-0.2,0-0.2-0.1-0.3-0.2l7.5-9.8l-1.6-2.1l-9.5,12.4h4.1v-0.3h-0.1
		C128.4,68.3,128.3,68.3,128.3,68.3L128.3,68.3z"/>
	<path class="st2" d="M134.5,55.5l1.9,2.5l2.1,2.6l-3.5,0l-1.7,2.4l0.2,0.1l0,0l0.4-0.3c0.1,0,0.1-0.1,0.1-0.1c0,0,0.2,0,0.5,0h5.5
		l3.9,5.1c0,0,0,0,0.1,0.1l0,0.2c0,0.1-0.1,0.2-0.5,0.2h-0.1v0.3h4.2l-11.6-15.3L134.5,55.5L134.5,55.5z"/>
	<path class="st2" d="M193,56l0.3,0.1l0,0l0.5-0.3c0.2-0.1,0.3-0.2,0.5-0.2h7.2v12.1l0,0.2c0,0-0.1,0.1-0.1,0.1l-0.3,0.3l0,0v0.3
		h3.8v-0.3l-0.4-0.3l-0.1-0.1c0,0,0-0.1,0-0.2V55.6h6.4c0.3,0,0.3,0.1,0.3,0.2v0.3h0.2l1.8-2.8h-18.5L193,56L193,56z"/>
	<path class="st3" d="M166,59.2v0.3h-0.6v-5.1l6,8l6.2-8.4v5h-0.6v-0.3l-5.7,7.5C169.8,64.2,167.9,61.7,166,59.2L166,59.2z"/>
	<path class="st2" d="M164.7,67.9l0-13.7l0-0.2c0,0,0.1-0.1,0.1-0.1l0.3-0.3l0,0v-0.3h-3.8v0.3l0.4,0.3c0.1,0.1,0.1,0.1,0.1,0.1
		l0,13.7l0,0.2c0,0-0.1,0.1-0.1,0.1l-0.3,0.3l0,0v0.3h3.8v-0.3l-0.4-0.3C164.8,68,164.7,67.9,164.7,67.9L164.7,67.9z"/>
	<path class="st2" d="M181,68.3c-0.2,0-0.2-0.1-0.3-0.2l7.5-9.8l-1.6-2.1l-9.5,12.5h4.1v-0.3h-0.1C181.2,68.3,181.1,68.3,181,68.3
		L181,68.3z"/>
	<path class="st2" d="M187.3,55.4l1.9,2.5l2.1,2.6l-3.5,0l-1.7,2.4l0.2,0.1l0,0l0.4-0.3c0.1,0,0.1-0.1,0.1-0.1c0,0,0.2,0,0.5,0h5.5
		l3.9,5.1c0,0,0,0,0.1,0.1l0,0.2c0,0.1-0.1,0.2-0.5,0.2h-0.1v0.3h4.2l-11.6-15.3L187.3,55.4L187.3,55.4z"/>
	<path class="st2" d="M181.1,62.9l0-8.8l0-0.2l0.1-0.1l0.3-0.3l0,0v-0.3h-3.9v0.3l0.4,0.3c0.1,0.1,0.2,0.2,0.2,0.3
		c0,2.3,0,12.6,0,12.6C180.9,63.1,180.5,63.7,181.1,62.9L181.1,62.9z"/>
	<path class="st2" d="M106.7,59l0-5c0,0-0.1-0.1-0.1-0.1l-0.4-0.3v-0.3h3.8v0.3l0,0l-0.3,0.3c-0.1,0-0.1,0.1-0.1,0.1l0,0.2l0,12.9
		c0,0,0-0.1,0-0.1v0.8l0,0.2c0,0,0.1,0.1,0.1,0.1l0.3,0.3l0,0v0.3h-3.9v-0.3l0.4-0.3c0.1-0.1,0.1-0.1,0.1-0.1l0-9.4
		C106.7,58.4,106.7,59.2,106.7,59L106.7,59z"/>
	<polygon class="st3" points="110,59.9 110,59 114.3,54 114.1,54 114.1,53.3 118.1,53.3 111.7,60.8 118.4,68.6 114.5,68.6 
		114.5,67.9 114.7,67.9 110,62.4 110,59.9 110,59.9 	"/>
	<path class="st2" d="M94.7,63l0,4.8c0,0-0.1,0.1-0.1,0.1l-0.4,0.3v0.3h3.9v-0.3l0,0L97.7,68c-0.1,0-0.1-0.1-0.1-0.1l0-0.2l0-9.9
		v-3.3l0-0.2c0,0,0.1-0.1,0.1-0.1l0.3-0.3l0,0v-0.4h-3.9v0.4l0.4,0.4c0.1,0.1,0.1,0.1,0.1,0.2l0,9.4v-2C94.7,61.2,94.7,62.6,94.7,63
		L94.7,63z M99,54.8h-1H99L99,54.8z M94.7,54.8v2V54.8L94.7,54.8z M93.3,54.8l1,0v1.9h-2.1c-0.6,0-1.6,0.1-2.1,0.5
		c-0.6,0.5-1,1.1-1,2c0,0.4,0.1,0.8,0.3,1.2c0.2,0.4,0.5,0.6,0.8,0.9c0.6,0.4,1.5,0.5,2.1,0.5c0.8,0,1.2,0,2,0v1.8
		c-1.3,0-2.8,0.2-4.1-0.1c-0.7-0.2-1.3-0.5-1.8-1c-0.5-0.4-0.9-1-1.1-1.6c-0.2-0.5-0.2-1-0.2-1.5c0-0.3,0-0.5,0.1-0.8l0.1-0.3
		l0.1-0.4c0.3-0.9,0.9-1.7,1.6-2.2c1-0.7,2.2-0.9,3.4-0.9h2.1H93.3L93.3,54.8z M98,56.7h2c0.6,0,1.6,0.1,2.1,0.5c0.6,0.5,1,1.1,1,2
		c0,0.4-0.1,0.8-0.2,1.2c-0.2,0.4-0.5,0.6-0.8,0.9c-0.6,0.4-1.5,0.5-2.1,0.5c-0.8,0-1.1,0-2,0c0,0.5,0,1.1,0,1.5l0,0.3
		c1.4,0,2.7,0.2,4-0.1c0.7-0.2,1.3-0.5,1.8-1c0.5-0.4,0.9-1,1.1-1.6c0.2-0.5,0.2-1,0.2-1.5c0-0.3,0-0.5,0-0.8l-0.1-0.3l-0.1-0.4
		c-0.3-0.9-0.9-1.7-1.6-2.2c-1-0.7-2.3-0.9-3.4-0.9l-2,0V56.7L98,56.7z"/>
	<path class="st2" d="M145.3,181.2v4.7h0.9v-5.1c0-0.1,0-0.2-0.1-0.3c-0.1-0.1-0.2-0.1-0.3-0.1h-0.5V181.2L145.3,181.2z
		 M145.1,180.4h-0.3v0.7h0.3V180.4L145.1,180.4z M149,181.1h0.9v-0.3c0-0.1-0.1-0.2-0.2-0.3c-0.1-0.1-0.2-0.1-0.4-0.1h-2.1
		c-0.2,0-0.3,0-0.4,0.1c-0.1,0.1-0.1,0.2-0.1,0.3v2.2c0,0.2,0,0.3,0.1,0.3c0.1,0.1,0.2,0.1,0.4,0.1h1.7v1.8h-1.1v0.7h1.4
		c0.2,0,0.3,0,0.4-0.1c0.1-0.1,0.2-0.2,0.2-0.3v-4.2H149v1.5h-1.3v-1.7H149C149,181.1,149,181.1,149,181.1L149,181.1z M147.7,185.1
		v-0.9h-0.9v1.3c0,0.1,0.1,0.3,0.1,0.3c0.1,0.1,0.2,0.1,0.3,0.1h0.5V185.1L147.7,185.1z M152.7,185.2v-2.1h-2.2l0.1-1.8h1l-0.1,1.1
		h1.6c0.2,0,0.3,0,0.4,0.1c0.1,0.1,0.2,0.2,0.2,0.3v2.7c0,0.1-0.1,0.3-0.2,0.3c-0.1,0.1-0.2,0.1-0.4,0.1h-0.4v-0.8
		C152.7,185.1,152.7,185.2,152.7,185.2L152.7,185.2z M151.5,181.1h1.7l0.3-0.7h-3l0,0.7H151.5C151.7,181.1,151.5,181.1,151.5,181.1
		L151.5,181.1z M152.5,185.2h-1.1v-1.1h-0.9v1.4c0,0.1,0.1,0.3,0.2,0.3c0.1,0.1,0.2,0.1,0.4,0.1h1.4V185.2L152.5,185.2z
		 M155.1,185.2v-1.9h1.3v1.9h-1.1v0.7h1.5c0.2,0,0.3,0,0.4-0.1c0.1-0.1,0.1-0.2,0.1-0.3V183c0,0,0,0,0-0.1c0,0-0.1-0.1-0.1-0.1
		c0,0-0.1-0.1-0.1-0.1c0-0.1,0.1-0.1,0.1-0.2c0,0,0.1-0.1,0.1-0.1c0,0,0-0.1,0-0.1v-1h-0.9v1.3h-1.2v-1.5h1.2h0.9v-0.3
		c0-0.1,0-0.2-0.1-0.3c-0.1-0.1-0.2-0.1-0.3-0.1h-2.1c-0.2,0-0.3,0-0.4,0.1c-0.1,0.1-0.1,0.2-0.1,0.3v1.5c0,0,0,0.1,0,0.1
		c0,0,0,0.1,0.1,0.1c0,0,0.1,0.1,0.1,0.2c-0.1,0-0.1,0.1-0.2,0.1c0,0-0.1,0.1-0.1,0.1c0,0-0.1,0.1-0.1,0.1v2.5
		c0,0.1,0.1,0.3,0.2,0.3c0.1,0.1,0.2,0.1,0.4,0.1h0.3V185.2C155.1,185.1,155.1,185.2,155.1,185.2L155.1,185.2z"/>
</g>
</svg>
