<?xml version="1.0" encoding="utf-8"?>
<!-- Generator: Adobe Illustrator 21.1.0, SVG Export Plug-In . SVG Version: 6.00 Build 0)  -->
<svg version="1.1" id="amkar" xmlns="http://www.w3.org/2000/svg" xmlns:xlink="http://www.w3.org/1999/xlink" x="0px" y="0px"
	 viewBox="0 0 300 300" style="enable-background:new 0 0 300 300;" xml:space="preserve">
<style type="text/css">
	.st0{fill:#231F20;}
	.st1{fill:#FFFFFF;}
	.st2{fill-rule:evenodd;clip-rule:evenodd;fill:#231F20;}
	.st3{fill-rule:evenodd;clip-rule:evenodd;fill:#FFFFFF;}
	.st4{fill-rule:evenodd;clip-rule:evenodd;fill:#EC1C24;stroke:#EC1C24;stroke-width:0.242;stroke-miterlimit:2.6131;}
	
		.st5{fill-rule:evenodd;clip-rule:evenodd;fill:#FFFFFF;stroke:#231F20;stroke-width:0.1439;stroke-linecap:round;stroke-linejoin:round;stroke-miterlimit:2.6131;}
	
		.st6{fill-rule:evenodd;clip-rule:evenodd;fill:#C5C7C9;stroke:#231F20;stroke-width:3.594300e-02;stroke-linecap:round;stroke-linejoin:round;stroke-miterlimit:2.6131;}
	.st7{fill-rule:evenodd;clip-rule:evenodd;fill:#E6E7E8;}
	
		.st8{fill-rule:evenodd;clip-rule:evenodd;fill:#626366;stroke:#231F20;stroke-width:3.594300e-02;stroke-linecap:round;stroke-linejoin:round;stroke-miterlimit:2.6131;}
	
		.st9{fill-rule:evenodd;clip-rule:evenodd;fill:#231F20;stroke:#231F20;stroke-width:3.528100e-02;stroke-linecap:round;stroke-linejoin:round;stroke-miterlimit:2.6131;}
	
		.st10{fill-rule:evenodd;clip-rule:evenodd;fill:#231F20;stroke:#231F20;stroke-width:3.594300e-02;stroke-linecap:round;stroke-linejoin:round;stroke-miterlimit:2.6131;}
	.st11{fill:none;stroke:#FFFFFF;stroke-width:5.047800e-02;stroke-linejoin:round;stroke-miterlimit:2.6131;}
</style>
<g>
	<polygon class="st0" points="149.5,281.4 132.6,247.5 132.5,247.4 132.5,247.3 132.5,221.4 62.5,141.5 62.4,141.3 62.4,141.1 
		62.4,59 62.4,57.6 63.4,58.5 112.1,105.5 69.9,56.7 69.5,56.3 70,55.9 104,28.7 104.6,28.2 104.9,28.9 121.5,67 108.9,27.3 
		108.7,26.7 109.3,26.5 146.7,17.7 147.4,17.5 147.4,18.2 150,65.8 152.6,18.2 152.6,17.5 153.3,17.7 190.7,26.5 191.3,26.7 
		191.1,27.3 178.5,67 195.1,28.9 195.4,28.2 196,28.7 230,55.9 230.5,56.3 230.1,56.7 187.9,105.5 236.6,58.5 237.6,57.6 237.6,59 
		237.6,141.1 237.6,141.3 237.5,141.5 167.5,221.4 167.5,247.3 167.5,247.4 167.4,247.5 150.5,281.4 150,282.5 149.5,281.4 	"/>
	<polygon class="st1" points="133.7,247.1 150,279.8 166.3,247.1 166.3,221.1 166.3,220.9 166.4,220.7 236.4,140.9 236.4,60.4 
		179.3,115.5 169.8,124.7 178.4,114.7 228.8,56.4 195.9,30.1 175,78.1 170.4,88.7 173.9,77.7 189.8,27.5 153.7,19 150.6,76.9 
		150,87.9 149.4,76.9 146.3,19 110.2,27.5 126.1,77.7 129.6,88.7 125,78.1 104.1,30.1 71.2,56.4 121.6,114.7 130.2,124.7 
		120.7,115.5 63.6,60.4 63.6,140.9 133.6,220.7 133.7,220.9 133.7,221.1 133.7,247.1 	"/>
	<polygon class="st2" points="150,273.1 136.7,246.4 136.7,219.8 66.6,139.8 66.6,67.4 150,148 233.4,67.4 233.4,139.8 163.3,219.8 
		163.3,246.4 150,273.1 	"/>
	<path class="st3" d="M205.7,99l15.4-16l8.7,6.4v39.6l-13.6,13.4v13.3l-10.8,12.3L205.7,99L205.7,99z M215.9,134.2l5.1-4.9V90.7
		l-4.9,4.6L215.9,134.2L215.9,134.2z M175.8,201.9v-53.5l9-25.7l16.2-18.5l0.3,68.7l-7.5,8.5l-0.1-12.8l-6.9,6.5v14.3L175.8,201.9
		L175.8,201.9z M193.7,163.6l-0.2-41.7l-4.4,4.6l-2.3,10.6v33L193.7,163.6L193.7,163.6z M68.6,138.5V95.6L79.1,86l17.6,17.7v66.6
		l-10.8-12.3l0-14.3l-6.2-6V151L68.6,138.5L68.6,138.5z M85.8,137L85.7,100l-2.4-2.8l-3.7,3.3v30.6L85.8,137L85.8,137z M100.5,174.8
		v-66.9l10.1,11l6.4,33l8.7-16.5l11,12.8v67.9l-10.8-12.3v-35.7l-8.7,22.9l-6.9-38.5V186L100.5,174.8L100.5,174.8z M141.2,246v-92.6
		l8.8,9.4l5.2-5.9l0.3,23.4l6.9-32.2l10.8-12.6l-8.7,47.6l9,21.4l-8.8,10l-9-18.5l3.4,49.3l-9.2,18.4L141.2,246L141.2,246z"/>
	<polygon class="st4" points="150,143.1 75.5,56.8 102.9,34.9 150,143.1 	"/>
	<polygon class="st4" points="150,143.1 114,29.7 143.5,22.7 150,143.1 	"/>
	<polygon class="st4" points="150,143.1 224.5,56.8 197.1,34.9 150,143.1 	"/>
	<polygon class="st4" points="150,143.1 186,29.7 156.5,22.7 150,143.1 	"/>
	<path class="st3" d="M149.6,50.8c19.6,0,35.6,15.4,35.6,34.4c0,18.9-16,34.4-35.6,34.4c-19.6,0-35.6-15.4-35.6-34.4
		C114,66.2,130,50.8,149.6,50.8L149.6,50.8z"/>
	<path class="st5" d="M123.4,79.2c1.4-4.4,3.5-8.2,5.8-11.8c-0.2-1.9-0.1-4,0.1-5.9c-7.4,6.7-10.4,14.7-10.8,24.1
		C120.1,83.2,121.8,81.3,123.4,79.2L123.4,79.2z M146.6,105.9c1.4-3.4,2.2-7.1,2.1-10.2c-3-2.2-7-5.2-9.7-9
		c-3.3,0.6-6.7,1.3-9.9,1.9c-1.5,3.7-2.8,7.6-2.8,11.5c2.4,3.8,5.9,6.6,9.6,8.8C139.9,108.5,143.1,107.1,146.6,105.9L146.6,105.9z
		 M148.7,95.6c4.1-1.4,8.2-3.6,11.8-6.1c3,1.8,6.2,3.4,9.5,4.6c-0.1,3.7-0.8,7.7-2.1,11.2c-2.8,2.8-5.9,5-10.3,5.9
		c-4.4-0.6-7.9-2.6-11-5.4C147.9,102.4,148.8,99.4,148.7,95.6L148.7,95.6z M174.3,74.2c1.9,3.4,2.9,7.4,2.9,12.3
		c1.4,1.8,2,4.1,2.7,6.9c2.8-11.2-1.1-21.8-5.6-26C174.9,69.3,174.9,72,174.3,74.2L174.3,74.2z M158.5,76.5c2-1.8,4-3.9,5.7-6.1
		c4.2,0.6,7,1.4,10.1,3.9c1.9,3.6,2.9,7.1,2.9,12.3c-1.7,2.9-3.7,5.7-7.3,7.7c-3.3-1.2-6.4-2.8-9.5-4.6
		C160.1,85.1,159.6,80.5,158.5,76.5L158.5,76.5z M142.2,55.5c2.3,0.7,4.8,1.8,7,3c3.5-0.1,6.8,0.7,9.8,1.6c2.1-0.4,4.3-0.5,6.4-0.2
		C159,55.5,150.4,53.9,142.2,55.5L142.2,55.5z M145,74.5c-1.8-2.7-3.7-6.1-4.6-8.8c2.3-3.4,5.1-6.1,8.9-7.2c3.6,0,6.6,0.8,9.7,1.6
		c2.2,2.6,3.6,6.1,5.2,10.2c-1.8,2.2-3.5,4.1-5.7,6.1C154.2,75.3,149.7,74.6,145,74.5L145,74.5z M139,86.7c1.1-4.9,3.7-8.9,6-12.2
		c-1.7-2.7-3.4-5.5-4.5-8.8c-3.8-0.2-7.4,0.4-11.2,1.6c-2.3,3.6-4.3,7.6-5.8,11.9c1.1,3.8,3.1,7.2,5.7,9.4
		C132.4,88,135.7,87.3,139,86.7L139,86.7z"/>
	<path class="st6" d="M157.6,111.3c4.3-0.8,7.8-3.3,10.3-5.9c1.8,0,3.8,0.1,5.4-0.6c-5,5.4-11.7,8.9-20.3,10.2
		C155,113.9,156.3,112.8,157.6,111.3L157.6,111.3z M126.3,100.1c2.5,4,6.1,6.7,9.6,8.8c0.4,1.3,1,2.9,1.6,4.2
		c-6.9-2.5-14.3-11.2-16.8-16.8C122.4,98,124.1,99.2,126.3,100.1L126.3,100.1z"/>
	<path class="st7" d="M167.9,105.4c-2.8,2.8-5.9,5-10.3,5.9c-4.4-0.6-7.9-2.6-11-5.4C157,110.6,158,108.6,167.9,105.4L167.9,105.4z
		 M158.5,76.5c4.4,8.7,0.2,9.9,11.4,17.7c-3.3-1.2-6.4-2.8-9.5-4.6C160.1,85.1,159.6,80.5,158.5,76.5L158.5,76.5z M145,74.5
		c-1.8-2.7-3.7-6.1-4.6-8.8c3,1.8,3.7,4.3,5.4,6.7c3,1.8,10.1,0.7,12.7,4C154.2,75.3,149.7,74.6,145,74.5L145,74.5z M123.4,79.2
		c-4.2-3.6,2.5-13.1,5.7-17.4c-6.5,5.9-9.8,13.2-10.6,23.5C120.2,82.9,121.8,81.3,123.4,79.2L123.4,79.2z M139,86.7
		c-14.3-1.4-10.1-0.6-15.5-7.5c1.1,3.8,3.1,7.2,5.7,9.4C132.4,88,135.7,87.3,139,86.7L139,86.7z M146.6,105.9
		c-7.4,1.1-10.8-0.8-13.5-3.4c-2.7-2.6-4.7-5.8-3.9-13.8c-1.5,3.7-2.8,7.6-2.8,11.5c2.4,3.8,5.9,6.6,9.6,8.8
		C139.9,108.5,143.1,107.1,146.6,105.9L146.6,105.9z"/>
	<path class="st8" d="M120.8,96.3c1.7,1.9,3.5,2.9,5.5,3.8c0.1-4.3,1.5-8,2.8-11.5c-2.5-2.4-4.5-5.5-5.7-9.4
		c-1.7,2.1-3.3,3.9-4.9,6.4C117.7,89.2,118.8,93.6,120.8,96.3L120.8,96.3z M170,94.2c3.3-1.8,5.3-4.3,7.3-7.7
		c1.4,1.8,2.1,4.6,2.7,6.9c-0.9,4.5-3.1,8.6-6.7,11.4c-1.5,0.7-3.4,0.6-5.5,0.6C169.2,101.7,169.9,97.9,170,94.2L170,94.2z
		 M159,60.2c2.2,2.6,3.7,6.4,5.2,10.2c3.5,0.6,6.6,1.1,10.1,3.8c0.6-2.3,0.6-4.8,0-6.9c-2.3-3.7-5.3-6.2-8.9-7.4
		C163.3,59.7,161.1,59.8,159,60.2L159,60.2z M129.3,67.3c3.6-1.1,7.4-1.7,11.2-1.6c2.4-3.8,5.7-6.3,8.8-7.2c-2.3-1.2-4.5-2.3-7-3.1
		c-4.8,0.5-8.9,2.2-12.8,5.9C129.1,63.4,129,65.4,129.3,67.3L129.3,67.3z M139,86.7c1.2-4.8,3.4-8.6,6-12.2c4.8,0,9.1,0.7,13.5,1.9
		c1.1,4,1.6,8.7,2,13.1c-3.7,2.6-7.8,4.6-11.8,6.1C145.2,93.1,141.5,90.3,139,86.7L139,86.7z"/>
	<path class="st9" d="M146.6,105.9c3.4,3.2,7.4,5,10.9,5.4c-1.2,1.5-2.7,2.6-4.5,3.7c-5.3,1-10.9,0.2-15.5-1.9
		c-0.6-1.2-1.2-2.7-1.6-4.2C139.5,108.6,143.3,107,146.6,105.9L146.6,105.9z"/>
	<path class="st10" d="M120.8,96.3c1.7,1.9,3.5,2.9,5.5,3.8c-4.4-5.3-5.4-2.4-7.8-14.5C117.7,89.2,118.8,93.6,120.8,96.3L120.8,96.3
		z M170,94.2c0.6,11.7-0.9,10.2,3.3,10.6c-1.5,0.7-3.4,0.6-5.5,0.6C169.2,101.7,169.9,97.9,170,94.2L170,94.2z M159,60.2
		c2.2,2.6,3.7,6.4,5.2,10.2c3.5,0.6,6.6,1.1,10.1,3.8c-1.7-4-6.4-3.3-8.9-6C163,65.6,163,62.2,159,60.2L159,60.2z M129.3,67.3
		c3.6-1.1,7.4-1.7,11.2-1.6c-6.2-1.9-10.4,2.8-11.1-4.3C129.1,63.4,129,65.4,129.3,67.3L129.3,67.3z M139,86.7
		c9.4,8,8.2,8.3,21.5,2.8c-3.7,2.6-7.8,4.6-11.8,6.1C145.2,93.1,141.5,90.3,139,86.7L139,86.7z"/>
	<path class="st11" d="M145.1,76l12.4,1.5l1.2,11.4 M142.2,55.9l4,2l-4.7,4.7"/>
</g>
</svg>
