<?xml version="1.0" encoding="utf-8"?>
<!-- Generator: Adobe Illustrator 21.1.0, SVG Export Plug-In . SVG Version: 6.00 Build 0)  -->
<svg version="1.1" id="arsenal" xmlns="http://www.w3.org/2000/svg" xmlns:xlink="http://www.w3.org/1999/xlink" x="0px" y="0px"
	 viewBox="0 0 300 300" style="enable-background:new 0 0 300 300;" xml:space="preserve">
<style type="text/css">
	.st0{fill:#231F20;}
	.st1{fill-rule:evenodd;clip-rule:evenodd;fill:#FFCA05;}
	.st2{fill-rule:evenodd;clip-rule:evenodd;fill:#EF4E23;}
	.st3{fill-rule:evenodd;clip-rule:evenodd;fill:#A6A8AB;}
	.st4{fill-rule:evenodd;clip-rule:evenodd;fill:#FFFFFF;}
	.st5{fill:#EC1C24;}
	.st6{fill:#FFFFFF;}
	.st7{fill-rule:evenodd;clip-rule:evenodd;fill:#231F20;}
	.st8{fill-rule:evenodd;clip-rule:evenodd;fill:#FFFFFF;stroke:#231F20;stroke-width:0.1172;stroke-miterlimit:22.9256;}
	.st9{fill-rule:evenodd;clip-rule:evenodd;fill:#E6E7E8;}
	.st10{fill-rule:evenodd;clip-rule:evenodd;fill:#F1F1F2;}
	.st11{fill-rule:evenodd;clip-rule:evenodd;fill:#D0D2D3;}
	.st12{fill-rule:evenodd;clip-rule:evenodd;fill:#BBBDBF;}
	.st13{fill-rule:evenodd;clip-rule:evenodd;fill:#929497;}
	.st14{fill-rule:evenodd;clip-rule:evenodd;fill:#6D6E70;}
	.st15{fill-rule:evenodd;clip-rule:evenodd;fill:#808184;}
	.st16{fill-rule:evenodd;clip-rule:evenodd;fill:#DBDCDD;}
	.st17{fill-rule:evenodd;clip-rule:evenodd;fill:#58595B;}
	.st18{fill:#FFF100;}
</style>
<g>
	<path class="st0" d="M126.4,253.8c-17.5-3.7-32.6-11.4-44.6-22.6c-11.9-11.1-20.6-25.5-25.3-42.8c-4.2-15.5-4.8-32.1-3.3-48.7
		c1.5-16.4,5.2-32.7,9.7-47.6c0.4-1.4,0.8-1.7,0.7-1.9c-0.1-0.3-0.3,0.3-1.4-0.1c-3.5-1.2-5.7-3.5-7-6.3c-1.3-2.9-1.4-6.3-0.6-9.5
		l4.3-17.8l0-0.2l0.1-0.2c1.1-3.2,3.2-5.6,5.9-7.1c2.6-1.4,5.8-1.9,9.2-1.1l0,0l30.3,6.4l4.1,0.9l-0.3,4.2l-0.2,3l-0.4,5.8l-2.5-0.6
		l0.2,18.5v0l90.4,0l-0.1-18.5l-3.1,0.8l-0.2-6l-0.1-3l-0.1-4l3.9-0.8l30.9-6.6l0,0c3.4-0.8,6.5-0.3,9.2,1.1
		c2.7,1.5,4.8,3.9,5.9,7.1l0.1,0.2l0,0.2l4.3,17.8c0.8,3.2,0.7,6.6-0.6,9.5c-1.3,2.9-3.5,5.1-7,6.3c-1.1,0.4-1.2-0.3-1.4,0.1
		c-0.1,0.2,0.3,0.5,0.7,1.9c4.5,14.9,8.1,31.2,9.7,47.6c1.6,16.6,0.9,33.3-3.3,48.7c-4.7,17.2-13.4,31.7-25.3,42.8
		c-12,11.2-27.2,19-44.6,22.6c-4.7,1-8.9,1.7-12.8,2.2c-3.9,0.5-7.7,0.7-11.6,0.7v0h-0.1v0c-3.9,0-7.6-0.2-11.6-0.7
		C135.3,255.6,131.2,254.8,126.4,253.8z"/>
	<path class="st1" d="M219.8,162.4c1.6,0,2.9,1.3,2.9,2.9c0,1.6-1.3,2.9-2.9,2.9c-1.6,0-2.9-1.3-2.9-2.9
		C216.8,163.7,218.1,162.4,219.8,162.4L219.8,162.4z M127.4,249.1c9.1,1.9,16.2,2.8,23.4,2.8h0.1c7.2,0,14.3-0.9,23.4-2.8
		c33-6.9,57.2-29,66.2-62c8.1-29.8,2.5-64.4-6.4-93.7c-1.5-4.8-1.2-6.2,3.7-7.9c4.4-1.5,5.4-5.8,4.4-10.1l-4.3-17.8
		c-1.4-4-5-6.1-9.4-5l-27.7,5.9l0,2.9c9.3-2.2,18.7-4.1,28.1-5.8c3.5-0.9,5.3,0.5,6.2,3c1.5,6.2,2.9,11.7,4.4,17.9
		c0.8,2.5,0.1,5.1-2.5,6.1c-6.7,2.2-7.6,5.1-5.8,11.4c8.6,29,14.3,63,6.4,92.3c-8.6,31.8-32.1,53.1-63.9,59.8
		c-8.7,1.8-15.7,2.7-22.8,2.7h-0.1c-7,0-14.1-0.9-22.8-2.7c-31.9-6.7-55.3-28-63.9-59.8c-7.9-29.3-2.2-63.3,6.4-92.3
		c1.9-6.3,0.9-9.2-5.8-11.4c-2.6-1-3.3-3.6-2.5-6.1c1.5-6.2,2.9-11.7,4.4-17.9c0.8-2.5,2.7-3.9,6.2-3c9.3,1.7,18.6,3.5,27.8,5.7
		l-0.1-2.9l-27.3-5.8c-4.4-1-8,1.1-9.4,5l-4.3,17.8c-1,4.2,0,8.6,4.4,10.1c5,1.7,5.2,3.1,3.7,7.9c-8.8,29.4-14.5,63.9-6.4,93.7
		C70.2,220,94.4,242.2,127.4,249.1L127.4,249.1z M153.1,246.9c11.8-0.5,26.7-3.2,36.8-7.7c59-26.4,55.5-94,39.3-144.6
		c-2-7.9-2-10.6,7-14.1c1.3-0.5,1.7-1.7,1.1-3.2l-4.2-17.5c-0.6-1.8-1.9-2.3-3.6-1.8c-9.7,1.6-19.3,3.5-28.8,6l0.1,22.2l0,88.5
		c0,38.2-40.3,24.9-49.3,44.6c-0.3,0.4-0.5,1.1-0.8,1.4c-0.2-0.4-0.5-1.1-0.7-1.4c-9-19.6-49.3-6.3-49.3-44.6V86.1l-0.2-22.3
		c-9.4-2.4-18.9-4.3-28.5-5.9c-1.7-0.5-3,0-3.6,1.8l-4.2,17.5c-0.5,1.5-0.1,2.7,1.1,3.2c9,3.6,9,6.2,7,14.1
		c-16.2,50.6-19.7,118.1,39.3,144.6c10.1,4.5,25,7.2,36.8,7.7C149.3,246.9,151.9,246.9,153.1,246.9L153.1,246.9z M219.8,159.2
		c-3.4,0-6.1,2.7-6.1,6.1c0,3.4,2.7,6.1,6.1,6.1c3.4,0,6.1-2.7,6.1-6.1C225.9,161.9,223.1,159.2,219.8,159.2L219.8,159.2z
		 M83.1,67.7c3.4,0,6.1,2.7,6.1,6.1c0,3.4-2.7,6.1-6.1,6.1c-3.4,0-6.1-2.7-6.1-6.1C77,70.4,79.7,67.7,83.1,67.7L83.1,67.7z
		 M217.5,67.9c3.4,0,6.1,2.7,6.1,6.1c0,3.4-2.7,6.1-6.1,6.1c-3.4,0-6.1-2.7-6.1-6.1C211.4,70.6,214.2,67.9,217.5,67.9L217.5,67.9z
		 M81.6,159.2c3.4,0,6.1,2.7,6.1,6.1c0,3.4-2.7,6.1-6.1,6.1c-3.4,0-6.1-2.7-6.1-6.1C75.5,161.9,78.2,159.2,81.6,159.2L81.6,159.2z
		 M98.7,203.9c3.4,0,6.1,2.7,6.1,6.1c0,3.4-2.7,6.1-6.1,6.1c-3.4,0-6.1-2.7-6.1-6.1C92.6,206.6,95.3,203.9,98.7,203.9L98.7,203.9z
		 M202.5,203.9c3.4,0,6.1,2.7,6.1,6.1c0,3.4-2.7,6.1-6.1,6.1c-3.4,0-6.1-2.7-6.1-6.1C196.4,206.6,199.2,203.9,202.5,203.9
		L202.5,203.9z M83.1,70.8c1.6,0,2.9,1.3,2.9,2.9c0,1.6-1.3,2.9-2.9,2.9c-1.6,0-2.9-1.3-2.9-2.9C80.1,72.1,81.5,70.8,83.1,70.8
		L83.1,70.8z M217.5,71c1.6,0,2.9,1.3,2.9,2.9c0,1.6-1.3,3-2.9,3c-1.6,0-2.9-1.3-2.9-3C214.6,72.3,215.9,71,217.5,71L217.5,71z
		 M81.6,162.4c1.6,0,2.9,1.3,2.9,2.9c0,1.6-1.3,2.9-2.9,2.9c-1.6,0-2.9-1.3-2.9-2.9C78.7,163.7,80,162.4,81.6,162.4L81.6,162.4z
		 M98.7,207c1.6,0,2.9,1.3,2.9,2.9c0,1.6-1.3,2.9-2.9,2.9c-1.6,0-2.9-1.3-2.9-2.9C95.7,208.4,97,207,98.7,207L98.7,207z M202.5,207
		c1.6,0,2.9,1.3,2.9,2.9c0,1.6-1.3,2.9-2.9,2.9c-1.6,0-2.9-1.3-2.9-2.9C199.6,208.4,200.9,207,202.5,207z"/>
	<path class="st0" d="M64.1,125.4l24.6-39.3h14.3l0-31.4l-0.4,0l-3.7,0v-3.8v-5.1v-2.4l3.7,0c6.8,0,9.1,1.6,14,7.4
		c4.9-5.8,7-7.4,14-7.4l2.2,0v2.4v5.1v3.4l-1.2,0c-0.3,0-0.4,0-0.6,0v15.1h5.3l0-15.1h-0.4l-1.2,0v-3.4v-5.1v-2.4l2.2,0
		c7.3,0.2,9.1,1.6,14,7.4c4.9-5.8,7-7.6,14-7.4l2.2,0v2.4v5.1v3.4l-1.2,0c-0.3,0-0.4,0-0.6,0v15.1h5l0-15.1h-0.4l-1,0v-3.4v-5.1
		v-2.4l1.9,0c7-0.2,9.1,1.6,14,7.4c4.9-5.8,7.3-7.6,14-7.4l3.7,0v2.4v5.1v3.8l-3.8,0c-0.3,0-0.4,0-0.6,0l0.1,31.4h14.1l24.9,38.9
		l7.2-2.7c0.4-1.9,1.5-3.5,3.1-4.3c3.3-1.6,7.5,0.5,9.5,4.6c2,4.1,1,8.8-2.3,10.3c-1.7,0.8-3.7,0.7-5.5-0.3l-16.7,9.9l2.9,10
		l-1.1,2.3l-4.9,0l-6.9-7.1l-24.3,9.1l0.1,17.2l0,0.1c32.9,14.5,46.6,33.3-1.3,18.5l-3-1.1c-9.8,16-33.2,8.2-43.4,24.8
		c-7.8-15.2-33.4-9.4-43.4-25.2l-4.2,1.6c-48.6,15-33.8-4.5,0.1-19.1l0-16.2l-25.6-9.6l-6.9,7.1l-4.9,0l-1.1-2.3l2.9-10l-16.7-9.9
		c-1.8,1-3.8,1.1-5.5,0.3c-3.3-1.6-4.3-6.2-2.3-10.3c2-4.1,6.3-6.2,9.5-4.6c1.7,0.8,2.7,2.4,3.1,4.3L64.1,125.4z"/>
	<path class="st2" d="M105.5,86.1l0-33.3c-0.1-1.1-0.7-1.9-2.8-1.9v-3.2c7-0.1,11.3,2.3,13.9,7.4c2.6-5.1,7-7.5,13.9-7.4v3.2
		c-2.1,0-2.9,0.8-3,1.9v20.3h12.2l0-20.3c-0.1-1.1-0.7-1.9-2.8-1.9v-3.2c7-0.1,11.3,2.3,13.9,7.4c2.6-5.1,7-7.5,13.9-7.4v3.2
		c-2.1,0-2.9,0.8-3,1.9v20.3h11.8l0-20.3c-0.1-1.1-0.7-1.9-2.8-1.9v-3.2c7-0.1,11.3,2.3,13.9,7.4c2.6-5.1,7-7.5,13.9-7.4v3.2
		c-2.2,0-2.9,0.8-3,1.9l0,33.3h-67.1c-2.7,0-5,0.7-6.4,2.6c-1.5-1.7-3.2-2.4-5-2.6H105.5L105.5,86.1z M106.1,130.2
		c6.6-0.7,13.2-1.3,19.8-1.7c-6.4,6.3-10.3,15.1-10.3,24.8c0,19.4,15.7,35.1,35.1,35.1c19.4,0,35.1-15.7,35.1-35.1
		c0-9.7-3.9-18.4-10.3-24.8c6.6,0.4,13.2,0.9,19.7,1.6v43.2c0.4,13.8-5.2,22.8-18,25.8c-24,5.8-21.5,7.5-26.5,12.6l0,0l0,0
		c-5-5.1-2.5-6.8-26.5-12.6c-12.8-3-18.4-12-18-25.8V130.2z"/>
	<path class="st3" d="M248.2,119.5c-0.9,0.4-1.6,1.2-2,2.2c0,0,0.1-0.1,0.2-0.1c2.2-1.1,5.1,0.3,6.4,3.1c0.9,1.9,0.9,4,0.1,5.5
		c0.1,0,0.3-0.1,0.4-0.2c2.3-1.1,3-4.4,1.6-7.3C253.5,119.9,250.5,118.4,248.2,119.5L248.2,119.5z M51.8,119.5
		c0.9,0.4,1.6,1.2,2,2.2c0,0-0.1-0.1-0.2-0.1c-2.2-1.1-5.1,0.3-6.4,3.1c-0.9,1.9-0.9,4-0.1,5.5c-0.1,0-0.3-0.1-0.4-0.2
		c-2.3-1.1-3-4.4-1.6-7.3C46.5,119.9,49.5,118.4,51.8,119.5L51.8,119.5z M90.6,143.9l12.4,4.7V140l-19-7.2
		C83.5,137.4,86.2,142.4,90.6,143.9L90.6,143.9z M196.6,183.9l28.2,10.6c-4.6-6.8-14.6-12.7-26.8-18.4
		C197.9,178.8,197.6,181.1,196.6,183.9L196.6,183.9z M84.6,123.1l-1.8,7.2l-1.6-0.5L73.4,146l2.6,0.9l-6.3,6.3l-2.4-0.1l2.6-7.2
		l12.2-22.3L84.6,123.1L84.6,123.1z M68,130.5c-2.1,1.4-2.9,3.8-2,5.6c0.2-1.4,1.2-2.8,3-3.7c1.8-0.9,3.8-1.2,5.5-0.8
		c-0.1-0.2-0.2-0.3-0.3-0.5c-0.9-1.3-2.6-1.8-4.3-1.5c0-0.1-0.1-0.1-0.1-0.2c-0.8-1.2-2.5-1.7-4.1-1.3c0-0.1-0.1-0.2-0.1-0.3
		c-0.8-1.2-2.4-1.6-3.9-1.2c0-0.1-0.1-0.2-0.1-0.2c-0.8-1.1-2.2-1.5-3.7-1.1c0-0.1-0.1-0.2-0.1-0.2c-1-1.5-3.2-1.7-5-0.5
		c-1.6,1.1-2.3,3-1.6,4.5c0.1-1.1,1-2.2,2.4-3c1.3-0.7,2.7-0.9,4-0.7c-0.4,0.1-0.7,0.3-1,0.5c-1.6,1.1-2.3,3-1.6,4.5
		c0.1-1.1,1-2.2,2.4-3c1.3-0.7,2.8-0.9,4.1-0.7c-0.4,0.1-0.8,0.3-1.2,0.6c-1.8,1.2-2.5,3.3-1.8,4.9c0.1-1.2,1.1-2.4,2.6-3.2
		c1.4-0.7,3-1,4.4-0.8c-0.4,0.1-0.8,0.3-1.2,0.6c-1.9,1.3-2.6,3.5-1.8,5.1c0.1-1.2,1.1-2.5,2.8-3.4c1.4-0.7,3-1,4.5-0.8
		C69,129.9,68.5,130.1,68,130.5L68,130.5z M209.4,143.9l-11.2,4.2v-8.6l17.8-6.7C216.5,137.4,213.8,142.4,209.4,143.9L209.4,143.9z
		 M104.6,183.5l-29.4,11.1c4.7-7.1,15.4-13.1,28.2-19C103.2,177.9,103.6,181,104.6,183.5L104.6,183.5z M215.4,123.1l1.8,7.2l1.6-0.5
		l7.8,16.1l-2.6,0.9l6.3,6.3l2.4-0.1l-2.6-7.2l-12.2-22.3L215.4,123.1L215.4,123.1z M232,130.5c2,1.4,2.9,3.8,2,5.6
		c-0.2-1.4-1.2-2.8-3-3.7c-1.8-0.9-3.8-1.2-5.5-0.8c0.1-0.2,0.2-0.3,0.3-0.5c0.9-1.3,2.6-1.8,4.3-1.5c0-0.1,0.1-0.1,0.1-0.2
		c0.8-1.2,2.5-1.7,4.1-1.3c0-0.1,0.1-0.2,0.1-0.3c0.8-1.2,2.4-1.6,3.9-1.2c0-0.1,0.1-0.2,0.1-0.2c0.7-1.1,2.2-1.5,3.7-1.1
		c0-0.1,0.1-0.2,0.1-0.2c1-1.5,3.2-1.7,5-0.5c1.6,1.1,2.3,3,1.6,4.5c-0.1-1.1-1-2.2-2.4-3c-1.3-0.7-2.8-0.9-4-0.7
		c0.4,0.1,0.7,0.3,1,0.5c1.6,1.1,2.3,3,1.6,4.5c-0.1-1.1-1-2.2-2.4-3c-1.3-0.7-2.8-0.9-4.1-0.7c0.4,0.1,0.8,0.3,1.2,0.6
		c1.8,1.2,2.5,3.3,1.8,4.9c-0.1-1.2-1.1-2.4-2.6-3.2c-1.4-0.7-3-1-4.4-0.8c0.4,0.1,0.8,0.3,1.2,0.6c1.9,1.3,2.6,3.5,1.8,5.1
		c-0.1-1.2-1.1-2.5-2.8-3.4c-1.4-0.7-3-1-4.5-0.8C231,129.9,231.5,130.1,232,130.5z"/>
	<path class="st4" d="M102.9,141.2L86.5,135c0.5,1.6,1.8,3.7,4.5,4.6l12,4.5V141.2L102.9,141.2z M79.9,191.4
		c3.4-4.3,11.5-9.4,23.4-14.8c0,1.1,0.1,2.2,0.3,3.2C93.9,183.9,89.5,186.1,79.9,191.4L79.9,191.4z M221.2,191.9
		c-3.4-4.3-11.5-9.4-23.3-14.8c-0.1,1.1-0.2,2.2-0.4,3.2C207.2,184.3,211.7,186.6,221.2,191.9L221.2,191.9z M198.3,140.7l16.5-6.2
		c-0.5,1.6-1.8,3.7-4.5,4.6l-12,4.5V140.7z"/>
	<path class="st5" d="M128.2,88h9.9v12.2l-6,0v-3.9l-2.4,0l-1.2,13.6c1.1,0,2.6-0.1,3.6-0.1v-5l6.1-0.1c0,4.5,0,9,0,13.5l-11,0.4
		c-0.4,0-0.8,0-1.2,0c-4.1-0.4-5.9-3.8-5.5-7.7l1.9-18.3C122.7,89.3,125.1,88,128.2,88L128.2,88z M74.4,129.3l4.9-8.1l0.1-0.2l0.2,0
		l8.1-0.6l0.7-0.1l-0.2,0.7l-2.1,7.8l9.1-1.1l0-0.1l0.3,0c11.3-1.1,22.6-1.8,33.8-2.2c-0.4,0.3-0.9,0.7-1.3,1
		c-10.7,0.4-21.4,1.1-32.1,2.1l0,0.1l-0.3,0l-10.2,1.3l-0.7,0.1l0.2-0.7l2.1-7.8l-7.2,0.5l-4.7,7.8L74.4,129.3L74.4,129.3z
		 M171.8,125.4c14.1,0.5,28.2,1.6,42.1,3.5l-8-31.7l2.9,0l17.4,31.7l-1.3,0.5l-16.8-31.4l-0.9,0l8,31.9c-14-1.9-28-3-42.1-3.6
		C172.7,126.1,172.3,125.8,171.8,125.4L171.8,125.4z M233.9,126.2l1.3-0.5l-23.9-37.7l-14.7,0l7.3,34.5c-13.7-1.1-27.5-1.8-41.4-2.1
		c0.9,0.3,1.7,0.7,2.6,1c13.4,0.3,26.7,1,40.1,2.1l-0.1-0.7l-7.2-33.9l12.8,0L233.9,126.2L233.9,126.2z M136.1,121.4
		c0.8-0.4,1.7-0.7,2.6-1c-14.1,0.3-28.2,1-42.5,2.3l7.4-34.7h-14l-23.2,37.5l-0.4,0.7l1,0.4l23.2-37.6l12.2,0L95.1,123l-0.1,0.6
		l0.7-0.1C109.2,122.4,122.7,121.7,136.1,121.4L136.1,121.4z M91.9,97.2l2.1,0.1l-4.1,15.6l-6.7,0.6L91.9,97.2L91.9,97.2z
		 M92.9,98.3L89.2,112l-4.2,0.4l7.4-14.2L92.9,98.3L92.9,98.3z M104.5,96.2l-3.2,15.2l-1.6,0.2l-1.8,9.3c4.5-0.4,9.1-0.9,13.7-1.2
		l1.2-9c-1.2,0.1-2.3,0.1-3.5,0.2l0.2-1.1l4.7-0.5c2.8-0.2,5-0.5,5.5-4.1L121,95c0.3-2.5,0.1-4.2-0.8-5.3c-0.9-1.2-2.5-1.7-4.7-1.7
		h-10.5l-1.8,8.2H104.5L104.5,96.2z M112.8,102.7l-2,0.2l1.1-6.6l1.8,0L112.8,102.7L112.8,102.7z M141,96.2h-1.5V88H158v10.4l-5.6,0
		v-2.2h-4v3.4c1.8,0,3.1,0,4.9,0v6.4h-4.9v3.5c1.1,0,2.9,0,4,0v-2.2l5.9,0v1v9.9c-5.9-0.2-13-0.2-18.9,0.1c0-2.9,0-5.8,0-8.7l1.6,0
		V96.2L141,96.2z M159.9,88l0,30.2c2.6,0,5.2,0.2,7.8,0.3v-11.5l2.6,0c0,3.9,0,7.8,0,11.6c2.6,0.1,5.1,0.3,7.7,0.4l-0.1-31h-7.6v11
		l-2.6,0V88H159.9L159.9,88z M179.3,110.2l0,8.8c2.8,0.1,5.9,0.4,8.7,0.6l0.6-6.9l2.8,0.2l0.8,7.1l0.8,0.1c3,0.2,6.1,0.6,9.1,0.8
		l-1.8-9.3l-1.4-0.1L194.2,88h-12.7l-1.2,8.2l2.2,0c-0.4,4.7-0.8,9.4-1.4,14.1L179.3,110.2L179.3,110.2z M188.9,105l1.6,0l-0.7-6.6
		l-0.6,0L188.9,105z"/>
	<path class="st6" d="M128.2,89c-2.6,0-4.5,1-4.8,3.8l-1.9,18.3c-0.5,4.5,2.1,6.8,5.7,6.6l10-0.4c0-3.8,0-7.7,0-11.5
		c-1.7,0-2.4,0-4.1,0.1c0,1.9,0,3.1,0,4.9c-1.6,0-4.1,0.1-5.7,0.2l1.4-15.6c1.4,0,2.9,0,4.3,0c0,1.4,0,2.5,0,3.9c1.6,0,2.4,0,4.1,0
		c0-3.4,0-6.8,0-10.2C134,89,131.4,89,128.2,89L128.2,89z M91.9,97.2l2.1,0.1l-4.1,15.6l-6.7,0.6L91.9,97.2L91.9,97.2z M129.5,125.3
		c-11.3,0.4-22.5,1.1-33.8,2.2l-0.3,0l0,0.1l-9.1,1.1l2.1-7.8l0.2-0.7l-0.7,0.1l-8.1,0.6l-0.2,0l-0.1,0.2l-4.9,8.1l-7.5-2.8
		l23.2-37.6l12.2,0L95.1,123l-0.1,0.6l0.7-0.1c13.6-1.2,27.1-1.9,40.5-2.3C133.8,122.4,131.6,123.8,129.5,125.3L129.5,125.3z
		 M233.9,126.2l-23.3-37.2l-12.8,0l7.2,33.9l0.1,0.7c-13.3-1.1-26.7-1.8-40.1-2.1c2.4,1.1,4.7,2.5,6.8,4c14.1,0.5,28.2,1.6,42.1,3.5
		l-8-31.7l2.9,0l17.4,31.7L233.9,126.2L233.9,126.2z M104.4,95.2h1.3l-3.6,17.1l-1.6,0.2l-1.4,7.2c5-0.4,7.2-0.7,11.6-1l0.9-7
		c-1.1,0.1-2.9,0.2-3.5,0.2l0.6-3l4.5-0.5c2.8-0.3,5.1-0.1,5.5-3.4l1.2-10.1c0.5-4.4-0.7-5.9-4.6-5.9c-3.3,0-6.3,0-9.7,0L104.4,95.2
		L104.4,95.2z M114.8,95.2l-3.8,0.1l-1.5,8.6l4-0.4L114.8,95.2L114.8,95.2z M140.4,95.2c0.4,0,1.1,0,1.5,0c0,5.3,0,9.9,0,15.3
		l-1.6,0l0,6.7c5.2-0.1,11.7-0.3,16.9-0.1c0-3.1,0-5.8,0-8.9c-1.7,0-2.2,0-3.9,0c0,1,0,1.3,0,2.2c-1.6,0-4.4,0-6,0
		c0-1.7,0-3.7,0-5.5c1.4,0,3.4,0,4.9,0c0-1.7,0-2.7,0-4.4c-1.4,0-3.5,0-4.9,0c0-1.8,0-3.6,0-5.4c1.1,0,4.8,0,6,0c0,1.1,0,1,0,2.2
		c1.6,0,2,0,3.6,0c0-3,0-5.4,0-8.4c-5.1,0-11.5,0-16.6,0C140.4,90.9,140.4,93.3,140.4,95.2L140.4,95.2z M160.9,117.2l0-28.2
		c1.9,0,3.8,0,5.8,0c0,3.7,0,7.3,0,11c1.1,0,3.4,0,4.5,0c0-3.7,0-7.4,0-11h5.7l0,22.1l0,6.8c-1.9-0.1-3.7-0.3-5.7-0.3
		c0-3.8,0-7.8,0-11.6c-1.1,0-3.4,0-4.5,0c0,3.8,0,7.7,0,11.5C164.7,117.3,162.9,117.2,160.9,117.2L160.9,117.2z M180.3,111.2l1.8,0
		c0.6-5.2,1-10.7,1.6-16l-2,0l0.9-6.2l10.9,0l4.7,23.3l1.4,0.1l1.4,7.2c-2.5-0.2-5.3-0.5-7.8-0.7l-0.8-7.1l-4.6-0.3l-0.6,6.9
		c-2.2-0.1-4.7-0.4-6.8-0.5C180.2,116,180.3,113.2,180.3,111.2L180.3,111.2z M191.6,106l-3.7-0.1l0.5-8.5l2.4,0L191.6,106z"/>
	<path class="st7" d="M150.6,188.4c19.3,0,35.1-15.8,35.1-35.1c0-19.3-15.8-35.1-35.1-35.1c-19.3,0-35.1,15.8-35.1,35.1
		C115.5,172.7,131.3,188.4,150.6,188.4z"/>
	<path class="st8" d="M150.6,186.3c18.1,0,32.9-14.8,32.9-32.9c0-18.1-14.8-32.9-32.9-32.9c-18.1,0-32.9,14.8-32.9,32.9
		C117.7,171.5,132.5,186.3,150.6,186.3z"/>
	<path class="st9" d="M126.6,138.3c-3.4,0-7.4,2.8-8.7,9.2c1.2-8.6,7.3-18.3,16.4-23.2c-0.8,1.3-0.8,2.4-0.2,3.6
		C130.5,130.6,127.9,133.9,126.6,138.3z"/>
	<path class="st7" d="M150.5,153.2c-3-3.3-5.8-6.8-8.3-10.5c1.3-3.7,3.9-6.8,7.6-9.4c4.9-0.2,9.1,1.2,12.6,4.1
		c1.9,4.2,1.8,8.1,0.8,11.9C159.1,150.9,154.9,152.2,150.5,153.2z"/>
	<path class="st10" d="M142.1,142.7c-3.8,0.4-7.6,1.1-11.3,3c-1.9-2.2-3.4-4.6-4.3-7.4c3.3-10.2,12.3-14.7,19-11.9
		c1.8,2,3,4.5,4.1,6.9C146.3,135.8,143.6,138.8,142.1,142.7z"/>
	<path class="st7" d="M126.7,158.1c-2.2-0.5-4.2-0.3-6-0.1c-1.5-1.8-3.1-4-3-7.6c0-0.8,0-1.7,0.2-2.5c0.2-1.1,0.5-2.1,0.8-3.1
		c1.7-4.3,4.8-6.4,8-6.5c0.8,2.7,2.2,5.1,4.3,7.4C128.1,149.5,126.6,153.5,126.7,158.1z"/>
	<path class="st10" d="M130.9,145.6c3.3-1.7,7.2-2.6,11.3-3c2.5,3.7,5.3,7.2,8.3,10.5c-1.7,4-2.9,8.1-3.8,12.1
		c-4.6,1.8-8.7,2.2-12.9,2.4c-4.3-3-6.4-6.2-7.1-9.6C126.6,153.7,128.1,149.6,130.9,145.6z"/>
	<path class="st11" d="M120.7,157.9c-2.5-2.9-3.7-6.2-2.9-10.1c-0.3,1.9-0.5,3.8-0.5,5.7c0,6,1.7,11.7,5.1,17.1
		C120.9,166.7,120.1,162.5,120.7,157.9z"/>
	<path class="st9" d="M120.7,157.9c1.8-0.2,3.8-0.2,6,0.1c1.1,4.2,3.5,7.4,7.1,9.6c-0.6,4.4,0,7.5,1.7,9.7c-5,1.7-9.3-0.7-13.1-6.7
		C120.8,166.6,120,162.4,120.7,157.9z"/>
	<path class="st7" d="M133.8,167.6c5-0.2,9.2-0.9,12.9-2.4c2.1,3.5,5,6.6,8.5,9.3c-2.7,4.5-4.9,7-6.6,7.1c-6.1,0.5-9.7-1.7-13.1-4.3
		C133.8,175.1,133.2,171.8,133.8,167.6z"/>
	<path class="st12" d="M130.2,177.5c0.8,3.4,5.2,5.5,10.6,7.3c5.6,1.8,11.6,1.7,12.3,0c-2.1-0.5-3.3-1.7-4.4-3.1
		c-4.2,0.2-8.4-0.6-13.1-4.3C133.7,177.9,131.9,178,130.2,177.5z"/>
	<path class="st7" d="M130.2,177.5c-1.6-0.5-4.1-2-6.4-4.9c1.8,2.8,6.3,6.8,8.9,8.4C131.4,180,130.5,178.9,130.2,177.5z"/>
	<path class="st11" d="M150.4,153.1c4.5-0.9,8.7-2.2,12.8-3.9c3.2,2.4,5.8,5.3,7.8,8.7c0.1,4.5-0.9,8.8-3.9,12.6
		c-3.7,2-7.4,3.7-11.9,4c-3.2-2.5-6.1-5.6-8.5-9.3C147.4,161.4,148.6,157.3,150.4,153.1z"/>
	<path class="st13" d="M148.6,181.6c2.4-0.4,4.5-3.7,6.6-7.1c4.4-0.3,8.3-1.9,11.9-4c1.5,2,3.3,3.2,5.2,4.2
		c-0.5,3.2-1.9,5.8-8.7,8.8C157.5,186.3,151.5,186.1,148.6,181.6z"/>
	<path class="st7" d="M146.7,186c2.8,0.1,5.6,0.1,6.2-1.1c2.9,0.7,5.4,0.5,7.6-0.2c-3.3,1-6.6,1.6-9.9,1.6h0
		C149.3,186.3,148,186.2,146.7,186z"/>
	<path class="st7" d="M170.9,157.9c3.1-0.3,5.7-1.5,7.9-3.2c6.8,6.5-2.3,20.5-6.6,20.1c-2.1-1.1-3.8-2.5-5.2-4.2
		C169.9,166.9,171.2,162.7,170.9,157.9z"/>
	<path class="st14" d="M167.6,181.5c2.6-1.7,3.9-3.4,4.7-6.7c2.7,0.1,7.2-5,8.6-10.8c0.3,0,0.7,0,1,0.1
		C179.6,170.8,175,176.6,167.6,181.5z"/>
	<path class="st12" d="M163.2,149.3c1-3.8,0.8-7.8-0.8-11.9c2-2,4.6-3.1,7.5-3.5c5.7,2.3,8.1,5.3,8.9,8.6c1.4,6.3,1.1,9.7,0.1,12.2
		c-2.3,1.9-4.9,3-7.9,3.2C169.1,154.5,166.4,151.7,163.2,149.3z"/>
	<path class="st15" d="M180.8,164c0.6-3.4,0.6-6.6-2-9.3c1.1-2.3,1-6.5-0.1-12.2c1-0.4,1.8-1.1,2.5-2c3.4,8.7,3.1,16.4,0.6,23.5
		C181.5,164.1,181.2,164,180.8,164z"/>
	<path class="st16" d="M149.7,133.3c-1.1-2.5-2.3-4.9-4.1-6.9c1.8-4.1,6.8-4.9,13.8-2.9c7.7,2.2,11.1,5.8,10.5,10.4
		c-2.9,0.5-5.5,1.5-7.5,3.5C158.8,134.5,154.7,132.9,149.7,133.3z"/>
	<path class="st7" d="M169.9,133.9c0.3-2.5-0.6-4.9-3.5-7.2c1-0.5,2.2-0.6,3.8-0.3c4.8,4,8.8,8.5,11,14.2c-0.8,1-1.6,1.6-2.5,2
		C177.9,138.8,174.9,135.9,169.9,133.9z"/>
	<path class="st3" d="M166.4,126.6c-4.3-2.6-8.8-4.2-13.7-4.2c-0.8-1.2-2.3-1.9-4.1-2.5c7.7-0.4,14.9,1.5,21.5,6.4
		C168.7,126,167.5,126.2,166.4,126.6z"/>
	<path class="st7" d="M134.1,127.9c-0.6-1.2-0.7-2.4,0.2-3.6c4.2-2.6,9-4,14.5-4.3c1.7,0.6,3.2,1.3,4,2.5c-3.6,0-6,1.3-7.1,3.9
		C142.1,125.1,138.4,125.1,134.1,127.9z"/>
	<path class="st4" d="M150.4,153.1c4.5-0.9,8.7-2.2,12.8-3.9l0.1,0c-4.6,3.1-12.4,3.7-12.2,6c0.2,2.2-1.2,6-3,8.9
		c-1.3,2.1,6,8.5,7.1,10.3c-3.2-2.5-6.1-5.6-8.5-9.3C147.4,161.4,148.6,157.3,150.4,153.1z"/>
	<path class="st15" d="M163.1,149.3L163.1,149.3c3.3,2.4,5.8,5.3,7.8,8.7c0.5,3.9-0.9,8.8-3.9,12.6c-3.6,2-7.4,3.7-11.8,4
		C170.2,172.1,174.1,158.6,163.1,149.3z"/>
	<path class="st15" d="M171.3,134.5c4.7,2.2,6.8,4.9,7.5,8c1.4,6.3,1.1,9.7,0.1,12.2c-2.1,1.8-4.6,2.9-7.3,3.2
		c9.3-2.9,7.9-7.5,6.3-14.6C177.3,140.6,174.7,136.7,171.3,134.5z"/>
	<path class="st4" d="M163.2,149.3c1-3.8,0.8-7.8-0.8-11.9c1.4-1.4,3.2-2.3,5.2-3c-1.5,0.6-3.9,2.7-3.9,3.5c0,0.8,1.2,2.9,1.1,4.3
		c-0.1,2-0.2,3.8,0.6,6.1c1.2,3.8,6.3,6.6,5.6,9.7C168.9,154.6,166.4,151.7,163.2,149.3z"/>
	<path class="st12" d="M180.8,164c0.6-3.4,0.6-6.6-2-9.3c1-2.4,1-6.5-0.1-12.2c3.2,6,0.7,10,1.1,11.9
		C179.9,155,183.6,160.3,180.8,164z"/>
	<path class="st12" d="M148.7,181.6c2.3-0.5,4.3-3.8,6.5-7.1c4.4-0.3,8.2-1.9,11.9-4c1.5,2,3.3,3.2,5.2,4.2
		c-1.9-0.3-3.7-1.1-4.8-2.6c-3.6,2.1-7.5,3.6-11.9,4C153.8,179,151.7,181.2,148.7,181.6L148.7,181.6z"/>
	<path class="st14" d="M171.7,176.7c-1,2.6-2.6,4.4-8.1,6.9c-5.1,2.3-10.1,2.5-13.3-0.1c3.4,1.5,8.4,0.8,13.6-1.6
		C168,179.9,170.3,178.3,171.7,176.7z"/>
	<path class="st17" d="M170.9,157.9c2.9-0.3,5.4-1.4,7.5-2.9c-1.4,2.4-5.8,3.4-5.8,4.2c0.2,2.4-0.1,3.7-0.6,5.7
		c-0.6,1.9-1.5,3.6-2.9,5.4c-0.7,0.8,1,2.8,3.1,4.5c-2.3-1.1-3.9-2.6-5.2-4.2C169.8,166.8,171.1,162.6,170.9,157.9z"/>
	<path class="st17" d="M150.5,153.2c-3-3.3-5.8-6.8-8.3-10.5c1.3-3.7,3.9-6.8,7.6-9.4c0.4,0,0.9,0,1.3,0
		c-11.5,7.7-7.5,12.2,0.6,19.6C151.2,153,150.9,153.1,150.5,153.2z"/>
	<path class="st11" d="M130.9,145.6c2.3-1.2,4.9-2,7.7-2.5c-2,0.7-3.9,1.5-5.6,2.5c-2.8,1.7-5.8,8-5.4,12.3c0.5,4.6,3.6,6.9,6.1,9.7
		c-3.7-2.1-6.4-6.2-7.1-9.6C126.6,153.7,128.1,149.6,130.9,145.6z"/>
	<path class="st12" d="M144.4,145.9c0.4,0.4,5.7,6.9,6,7.3c-1.7,4-2.9,8.1-3.8,12.1c-4.6,1.8-8.7,2.2-12.9,2.4
		c7.3-1.5,11.8-2.2,13.9-8.5C149.7,153.2,147.9,151.6,144.4,145.9z"/>
	<path class="st17" d="M133.8,167.6c5-0.2,9.2-0.9,12.9-2.4c1.6,2.7,3.6,5.1,6.1,7.3c-3.6-2.8-5.1-3.8-7.1-4.7
		c-2.6-1.2-9,0.9-9.9,2.2c-1,1.4-1.8,3.3,0.1,7.5c-0.1-0.1-0.2-0.2-0.3-0.2C133.8,175.1,133.2,171.8,133.8,167.6z"/>
	<path class="st9" d="M130.1,144.7c-1.6-1.9-2.7-4.1-3.5-6.5c2.7-8.9,10-13.4,16.2-12.6C132.9,125.8,124.5,136,130.1,144.7z"/>
	<path class="st11" d="M142.1,142.7c-0.3,0-3,0.4-3.3,0.4c2.6-0.4,3.8-3.1,5.6-5.7c3.5-5.2,4.7-3.7,1.6-10.5c1.5,1.9,2.7,4,3.6,6.3
		C146.3,135.8,143.6,138.8,142.1,142.7z"/>
	<path class="st12" d="M133.8,167.8c-0.6,4.3,0.1,7.4,1.7,9.5c-5,1.7-9.3-0.7-13.1-6.7c-0.5-1.2-2.6-6.5-1.7-12.6
		c0.2,4.2,1.1,7.5,2.2,10c2.7,6.3,7,8.2,8.4,7.5C132.7,174.7,131.6,171.7,133.8,167.8z"/>
	<path class="st9" d="M130.2,177.5c0.3,1.3,1.1,2.3,2.2,3.3c-1.3-2.4,1.1-2.8,3.3-1.9c2.9,1.2,7.1,3.1,10.6,2.8
		c-3.1-0.4-6.1-0.7-10.8-4.4C133.7,177.9,131.9,178,130.2,177.5z"/>
	<path class="st14" d="M135.7,182.8c1.5,0.7,3.2,1.4,5.1,2c5.6,1.8,11.6,1.8,12.2,0.1c-2.2-0.7-3.2-1.9-4.4-3.3c-0.5,0-2.2,0-2.8,0
		c2.4,1.2,2.7,2.2,2.2,2.8c-1.1,1.1-5.5,0.8-9.5-0.5C137.5,183.5,136.6,183.2,135.7,182.8z"/>
	<path class="st13" d="M149.7,133.3L149.7,133.3c7.4-1,8.9,3,16.1,0.8c4.4-1.4-1-8.8-8.7-11c-0.6-0.2-1.1-0.3-1.7-0.4
		c1.3,0.2,2.6,0.5,4,0.9c7.7,2.2,11.1,5.8,10.5,10.4c-2.9,0.5-5.5,1.5-7.5,3.5C158.8,134.5,154.7,133.2,149.7,133.3z"/>
	<path class="st4" d="M126.6,138.3c-1.6,0-3.4,0.6-5,2c1.1-1.4,2.5-2,3.9-2.8c2-1.2,2-3.8,3.3-5.5c1.2-1.6,2.7-2.6,4-4.3
		c0.4-0.6,0.4-2,1.1-2.9c-0.6,1.1-0.5,2.1,0,3.2C130.5,130.5,127.9,133.9,126.6,138.3z"/>
	<path class="st4" d="M120.7,157.9c1.8-0.2,3.8-0.2,6,0.1c1.1,4.2,3.5,7.4,7.1,9.6l0,0.1c-3.5-1.6-6.5-4.1-7.9-7.7
		C125.2,158.2,122.7,158.5,120.7,157.9z"/>
	<path class="st5" d="M111.4,212.5c0,3,0,5.9,0,8.9c1.3,0.6,2.7,1.1,4,1.6c0-1.5,0-3,0-4.5c0.7,0.3,1.4,0.5,2.1,0.8
		c0,3.9,0,7.9,0,11.8c-0.9-0.3-1.7-0.6-2.5-0.9c0,1.4,0,2.9,0,4.3c3.6,1.2,7.2,2.2,10.7,3c0-1.4,0-2.8,0-4.1
		c-0.8-0.2-1.7-0.4-2.5-0.6c0-3.9,0-7.7,0-11.6c0.7,0.2,1.4,0.4,2.1,0.6c0,1.5,0,2.9,0,4.4c1.3,0.3,2.7,0.6,4,0.9c0-2.8,0-5.6,0-8.4
		C123.3,217,117.4,215,111.4,212.5L111.4,212.5z M140.6,227.1c-0.7-2.3-1.5-4.7-2.2-7c-2.1-0.3-4.2-0.6-6.4-0.9c0,1.4,0,2.7,0,4.1
		c0.7,0.1,1.3,0.2,2,0.3c1.3,3.4,2.7,6.9,4,10.3c-0.2,0.5-0.4,1-0.6,1.5c-1-0.1-1.9-0.2-2.9-0.3c0,1.4,0,2.7,0,4.1
		c2.4,0.3,4.7,0.5,7.1,0.7c1.8-5,3.6-10,5.5-15c0.6,0,1.3,0,1.9,0c0-1.3,0-2.7,0-4c-2.1,0-4.1-0.1-6.2-0.2
		C142.2,222.7,141.4,224.9,140.6,227.1C140.7,227.1,140.6,227.1,140.6,227.1L140.6,227.1z M152.7,224.7c0-1.3,0-2.7,0-4
		c5.1-0.2,9.6-0.7,14.7-1.4c0,1.4,0,2.7,0,4.1c-0.5,0.1-0.9,0.2-1.4,0.2c0,3.8,0,7.6,0,11.4c0.5-0.1,0.9-0.1,1.4-0.2
		c0,1.4,0,2.7,0,4.1c-2.3,0.3-4.7,0.6-7,0.8c0-5.1,0-10.2,0-15.3c-0.3,0,0,0.1-0.2,0.1c-1.6,5.1-3,10.3-4.6,15.5
		c-3.1,0.2-1.3,0.1-3.8,0.2c-1.3,0-2.5,0-3.8,0c0-1.3,0-2.7,0-4c1.1,0,2.1,0,3.2,0c1.2-3.8,2.3-7.5,3.5-11.3
		C154,224.7,153.4,224.7,152.7,224.7L152.7,224.7z M172.1,233.9c-0.7,0.1-1.4,0.3-2.1,0.4c0,1.4,0,2.7,0,4.1c2.3-0.4,4.7-0.9,7-1.4
		c0.2-1.7,0.5-3.4,0.7-5c1.2-0.3,2.3-0.7,3.5-1c0.2,1.6,0.5,3.1,0.7,4.7c2.3-0.7,4.7-1.5,7-2.4c0-1.4,0-2.9,0-4.3
		c-0.7,0.3-1.4,0.5-2,0.8c-0.7-3.7-1.4-7.4-2.1-11.1c0.5-0.2,1.1-0.4,1.6-0.6c0-1.4,0-2.8,0-4.3c-4.6,1.8-9.1,3.3-13.7,4.6
		c0,1.4,0,2.8,0,4.1c0.5-0.1,1.1-0.3,1.6-0.4C173.5,225.9,172.8,229.9,172.1,233.9L172.1,233.9z M180.8,227.6
		c-0.9,0.3-1.8,0.5-2.6,0.8c0.4-2.9,0.9-5.9,1.3-8.8C179.9,222.2,180.3,224.9,180.8,227.6z"/>
	<path class="st18" d="M186.3,63.2l-2.5,5.7h-0.1v-5.7H179v2.6h1.3v7.4H179v2.7h4.8V71h1.9v4.9h4.8v-2.7h-1.4v-4.5h-1.9l1.3-2.9h1.6
		v-2.6H186.3L186.3,63.2z M111,66h1.3v7.4H111V76h4.8V66h1.8v10h4.8v-2.7H121V66h1.3v-2.6H111V66L111,66z M157.3,64.6
		c0-1.5-1.3-1.9-2.6-1.9h-2.5v-1.2l1.7,0l0-2.7H147l0,2.6l1.8,0v1.2h-2.5c-1.4,0-2.6,0.4-2.6,1.9l-0.1,6.5c0,1.8,1,2.4,2.8,2.4h2.4
		v1.3H147v2.7h6.9v-2.7h-1.7v-1.3h2.4c1.7,0,2.8-0.6,2.8-2.4L157.3,64.6L157.3,64.6z M153.9,70.9h-1.7v-6.1h1.7V70.9L153.9,70.9z
		 M148.8,70.9H147v-6.1h1.7V70.9z"/>
	<g>
		<polygon class="st5" points="91.7,97.3 93.8,97.4 89.8,113 83,113.6 91.7,97.3 		"/>
		<polygon class="st0" points="92.7,98.3 89,112.1 84.8,112.5 92.2,98.3 92.7,98.3 		"/>
	</g>
	<polygon class="st5" points="114.8,95.2 111.1,95.3 109.6,103.9 113.6,103.6 114.8,95.2 	"/>
	<polygon class="st0" points="112.8,102.7 110.8,102.8 111.9,96.3 113.7,96.2 112.8,102.7 	"/>
	<polygon class="st5" points="191.6,106 187.9,105.9 188.4,97.4 190.8,97.5 	"/>
	<polygon class="st0" points="188.9,105 190.5,105 189.9,98.4 189.3,98.4 	"/>
</g>
</svg>
