<?xml version="1.0" encoding="utf-8"?>
<!-- Generator: Adobe Illustrator 21.1.0, SVG Export Plug-In . SVG Version: 6.00 Build 0)  -->
<svg version="1.1" id="ufa" xmlns="http://www.w3.org/2000/svg" xmlns:xlink="http://www.w3.org/1999/xlink" x="0px" y="0px"
	 viewBox="0 0 300 300" style="enable-background:new 0 0 300 300;" xml:space="preserve">
<style type="text/css">
	.st0{fill:#FFFFFF;}
	.st1{fill:#92AE2A;}
	.st2{fill:#B91222;}
	.st3{fill-rule:evenodd;clip-rule:evenodd;fill:#92AE2A;}
	.st4{fill-rule:evenodd;clip-rule:evenodd;fill:none;stroke:#92AE2A;stroke-width:0.6126;stroke-miterlimit:22.9256;}
	.st5{fill-rule:evenodd;clip-rule:evenodd;fill:#B91222;}
	.st6{fill-rule:evenodd;clip-rule:evenodd;fill:#FFFFFF;}
</style>
<g>
	<path class="st0" d="M150.1,275.8c-40.6,0-73.7-32.1-75.6-72.2V24.2h150.9v178.5C225.5,240.4,191.8,275.8,150.1,275.8z"/>
	<path class="st1" d="M226.7,202.7c0,19.5-8.9,38.4-23.2,52.3c-13.8,13.4-32.6,22-53.5,22c-20.6,0-39.2-8.1-53-21.3
		c-13.9-13.3-22.8-31.7-23.8-52.1l0-0.1V24.2V23h1.2h150.9h1.2v1.2V202.7L226.7,202.7z M75.8,203.5c0.9,19.8,9.6,37.5,23,50.4
		c13.3,12.8,31.4,20.6,51.3,20.6c20.2,0,38.4-8.4,51.7-21.3c13.8-13.4,22.4-31.6,22.4-50.5h0V25.5H75.8V203.5L75.8,203.5z"/>
	<path class="st2" d="M220.7,202.7c0,35-31.5,68.3-70.7,68.3c-38,0-69.1-30-70.8-67.6l0-111.9h141.5V202.7L220.7,202.7z M79.3,43.7
		V28.9l141.5,0v14.7H79.3z"/>
	<path class="st0" d="M150,140.3c33,0,59.8,26.8,59.8,59.8c0,33-26.8,59.8-59.8,59.8c-33,0-59.8-26.8-59.8-59.8
		C90.3,167.1,117,140.3,150,140.3z"/>
	<path class="st1" d="M150,144.6c30.6,0,55.4,24.8,55.4,55.5c0,30.6-24.8,55.5-55.4,55.5c-30.6,0-55.4-24.8-55.4-55.5
		C94.6,169.5,119.4,144.6,150,144.6z"/>
	<polygon class="st2" points="196.7,172.7 183.8,190.6 204,199.8 183.9,208.9 196.8,226.9 174.9,224.7 177,246.7 159.2,233.9 
		149.9,254 140.9,233.9 122.9,246.9 125.1,224.9 103,227.1 116,209.2 95.7,200 115.9,191 102.9,173 124.9,175.2 122.7,153.1 
		140.5,166.1 149.7,145.8 158.7,166 176.8,152.9 174.6,174.9 	"/>
	<ellipse class="st0" cx="149.8" cy="199.9" rx="32.4" ry="32.5"/>
	<path class="st3" d="M126.7,199.9c0-12.7,10.3-23.1,23.1-23.1c12.7,0,23.1,10.3,23.1,23.1S162.5,223,149.8,223
		C137,223,126.7,212.7,126.7,199.9L126.7,199.9z M120.6,199.9c0,16.1,13.1,29.2,29.2,29.2c16.1,0,29.2-13.1,29.2-29.2
		c0-16.1-13.1-29.2-29.2-29.2C133.7,170.8,120.6,183.8,120.6,199.9L120.6,199.9z"/>
	<path class="st3" d="M135.8,199.9c0-7.7,6.2-13.9,13.9-13.9c7.7,0,13.9,6.2,13.9,13.9c0,7.7-6.2,13.9-13.9,13.9
		C142.1,213.9,135.8,207.6,135.8,199.9L135.8,199.9z M129.5,199.9c0,11.2,9.1,20.3,20.3,20.3c11.2,0,20.3-9.1,20.3-20.3
		c0-11.2-9.1-20.3-20.3-20.3C138.6,179.6,129.5,188.7,129.5,199.9L129.5,199.9z"/>
	<path class="st3" d="M145,199.9c0-2.7,2.1-4.8,4.8-4.8c2.7,0,4.8,2.2,4.8,4.8c0,2.7-2.1,4.8-4.8,4.8
		C147.1,204.8,145,202.6,145,199.9L145,199.9z M138.8,199.9c0,6.1,4.9,11,11,11c6.1,0,11-4.9,11-11c0-6.1-4.9-11-11-11
		C143.7,189,138.8,193.9,138.8,199.9L138.8,199.9z"/>
	<line class="st4" x1="79.3" y1="110.2" x2="220.7" y2="110.2"/>
	<path class="st5" d="M129.5,74.1v-10c0-9-3.6-11.3-11.5-11.3h-14c-8.7,0-11.8,2.6-11.8,11.3v10c0,7.7,3.2,10.9,11.8,10.9h14
		C126.9,85,129.5,82.1,129.5,74.1L129.5,74.1z M121.9,73.3L121.9,73.3c0,4.3-1.1,5.4-6,5.4h-10.1c-4.6,0-6-1.1-6-5.3v-8.5
		c0-4.6,1.3-5.7,6.1-5.7h9.8c4.5,0,6.1,1.1,6.1,5.7V73.3z"/>
	<path class="st5" d="M168.8,74.1v-10c0-9-3.6-11.3-11.5-11.3h-14c-8.7,0-11.8,2.6-11.8,11.3v10c0,7.7,3.2,10.9,11.8,10.9h14
		C166.2,85,168.8,82.1,168.8,74.1L168.8,74.1z M161.2,73.3L161.2,73.3c0,4.3-1.1,5.4-6,5.4h-10.1c-4.6,0-6-1.1-6-5.3v-8.5
		c0-4.6,1.3-5.7,6.1-5.7h9.8c4.5,0,6.1,1.1,6.1,5.7V73.3z"/>
	<path class="st5" d="M208.1,74.1v-10c0-9-3.6-11.3-11.5-11.3h-14c-8.7,0-11.8,2.6-11.8,11.3v10c0,7.7,3.2,10.9,11.8,10.9h14
		C205.5,85,208.1,82.1,208.1,74.1L208.1,74.1z M200.5,73.3L200.5,73.3c0,4.3-1.1,5.4-6,5.4h-10.1c-4.6,0-6-1.1-6-5.3v-8.5
		c0-4.6,1.3-5.7,6.1-5.7h9.8c4.6,0,6.1,1.1,6.1,5.7V73.3z"/>
	<rect x="97.3" y="66.3" class="st2" width="27.1" height="5.7"/>
	<rect x="175.8" y="66.3" class="st2" width="27.1" height="5.7"/>
	<rect x="147.5" y="55.6" class="st2" width="5.7" height="27.1"/>
	<rect x="79.2" y="43.7" class="st1" width="141.5" height="5.3"/>
	<rect x="79.2" y="108.7" class="st1" width="141.5" height="5.3"/>
	<rect x="79.2" y="88.7" class="st1" width="141.5" height="2.8"/>
	<path class="st6" d="M92.6,100.3v-0.8c0-1.6-0.7-2-2.1-2h-1.8V97h-1.4v0.5h-1.8c-1.4,0-2.1,0.4-2.1,2v0.8c0,1.4,0.5,2,2.1,2h1.8
		v0.5h1.4v-0.5h1.8C92.1,102.2,92.6,101.7,92.6,100.3L92.6,100.3z M91.2,100.1L91.2,100.1c0,0.8-0.2,1-1.1,1h-1.4v-2.5h1.4
		c0.8,0,1.1,0.2,1.1,1V100.1L91.2,100.1z M87.3,101.1L87.3,101.1h-1.4c-0.9,0-1.1-0.2-1.1-1v-0.5c0-0.8,0.3-1,1.1-1h1.4V101.1z"/>
	<path class="st6" d="M99.3,97h-1.6l-1.8,3.3L93.9,97h-1.6l2.7,4.1c0.1,0.1,0.1,0.2,0.1,0.3c0,0.2-0.2,0.4-0.8,0.4H94v1.1h0.5
		c1,0,1.3-0.2,2.1-1.4L99.3,97z"/>
	<polygon class="st6" points="105.7,98.1 105.7,97 99.5,97 99.5,98.1 101.9,98.1 101.9,102.8 103.3,102.8 103.3,98.1 	"/>
	<path class="st6" d="M112.1,101c0-1.5-0.7-1.8-2.1-1.8h-2.5v-1.1h4V97h-5.4v5.8h3.9C111.4,102.8,112.1,102.4,112.1,101L112.1,101z
		 M110.7,100.9L110.7,100.9c0,0.5-0.1,0.7-0.8,0.7h-2.4v-1.3h2.4C110.6,100.3,110.7,100.5,110.7,100.9z"/>
	<path class="st6" d="M119.3,100.8V99c0-1.6-0.7-2-2.1-2h-2.5c-1.6,0-2.1,0.5-2.1,2v1.8c0,1.4,0.6,2,2.1,2h2.5
		C118.8,102.8,119.3,102.2,119.3,100.8L119.3,100.8z M117.9,100.6L117.9,100.6c0,0.8-0.2,1-1.1,1H115c-0.8,0-1.1-0.2-1.1-1v-1.5
		c0-0.8,0.2-1,1.1-1h1.8c0.8,0,1.1,0.2,1.1,1V100.6z"/>
	<path class="st6" d="M126.3,102.8V97h-6v3.5c0,0.8-0.1,1.1-0.8,1.1v1.2h0.6c1,0,1.6-0.6,1.6-2.1v-2.5h3.2v4.6H126.3z"/>
	<path class="st6" d="M132.9,101c0-1.5-0.7-1.8-2.1-1.8h-2.5V97h-1.4v5.8h3.9C132.2,102.8,132.9,102.4,132.9,101L132.9,101z
		 M131.5,100.9L131.5,100.9c0,0.5-0.1,0.7-0.8,0.7h-2.4v-1.3h2.4C131.4,100.3,131.5,100.5,131.5,100.9z"/>
	<polygon class="st6" points="139.6,102.8 139.6,97 138.2,97 138.2,99.2 134.7,99.2 134.7,97 133.3,97 133.3,102.8 134.7,102.8 
		134.7,100.4 138.2,100.4 138.2,102.8 	"/>
	<path class="st6" d="M148.9,97h-1.4v5.8h1.4V97L148.9,97z M146.2,101L146.2,101c0-1.5-0.7-1.8-2.1-1.8h-2.5V97h-1.4v5.8h3.9
		C145.5,102.8,146.2,102.4,146.2,101L146.2,101z M144.8,100.9L144.8,100.9c0,0.5-0.1,0.7-0.8,0.7h-2.4v-1.3h2.4
		C144.7,100.3,144.8,100.5,144.8,100.9z"/>
	<path class="st6" d="M157,102.8V97h-2.3l-3.5,4.6h-0.2V97h-1.4v5.8h2.4l3.5-4.6h0.2v4.6H157L157,102.8z M155,95.3L155,95.3h-1.1
		c0,0.5-0.2,0.6-0.9,0.6c-0.7,0-0.9,0-0.9-0.6h-1.1v0.1c0,0.9,0.3,1.2,2,1.2C154.9,96.6,155,96.1,155,95.3z"/>
	<polygon class="st6" points="166.8,102.8 163.3,99.7 166.7,97 164.6,97 162.1,99.1 161.3,99.1 161.3,97 159.9,97 159.9,102.8 
		161.3,102.8 161.3,100.3 162.1,100.3 164.8,102.8 	"/>
	<path class="st6" d="M173.6,102.8V97h-6v3.5c0,0.8-0.1,1.1-0.8,1.1v1.2h0.6c1,0,1.6-0.6,1.6-2.1v-2.5h3.2v4.6H173.6z"/>
	<path class="st6" d="M180.7,97h-1.6l-1.8,3.3l-1.9-3.3h-1.6l2.7,4.1c0.1,0.1,0.1,0.2,0.1,0.3c0,0.2-0.2,0.4-0.8,0.4h-0.3v1.1h0.5
		c1,0,1.3-0.2,2.1-1.4L180.7,97z"/>
	<path class="st6" d="M187,101c0-1.5-0.7-1.8-2.1-1.8h-2.5v-1.1h4V97H181v5.8h3.9C186.3,102.8,187,102.4,187,101L187,101z
		 M185.6,100.9L185.6,100.9c0,0.5-0.1,0.7-0.8,0.7h-2.4v-1.3h2.4C185.6,100.3,185.6,100.5,185.6,100.9z"/>
	<path class="st6" d="M199.4,97h-1.6l-1.8,3.3L194,97h-1.6l2.7,4.1c0.1,0.1,0.1,0.2,0.1,0.3c0,0.2-0.2,0.4-0.8,0.4h-0.3v1.1h0.5
		c1,0,1.3-0.1,2.1-1.4L199.4,97z"/>
	<path class="st6" d="M207.9,100.2v-0.8c0-1.6-0.7-2-2.1-2H204V97h-1.4v0.5h-1.8c-1.4,0-2.1,0.4-2.1,2.1v0.8c0,1.4,0.5,2,2.1,2h1.8
		v0.5h1.4v-0.5h1.8C207.4,102.2,207.9,101.7,207.9,100.2L207.9,100.2z M206.5,100.1L206.5,100.1c0,0.8-0.2,1-1.1,1H204v-2.5h1.4
		c0.8,0,1.1,0.2,1.1,1V100.1L206.5,100.1z M202.6,101.1L202.6,101.1h-1.4c-0.9,0-1.1-0.2-1.1-1v-0.5c0-0.8,0.3-1,1.1-1h1.4V101.1z"
		/>
	<path class="st6" d="M215.4,102.7l-3-5.8h-2l-3.1,5.8h1.6l0.7-1.5h3.4l0.7,1.5H215.4L215.4,102.7z M212.4,100.2L212.4,100.2h-2.3
		l1.1-2.1h0.1L212.4,100.2z"/>
	<rect x="189.3" y="96.4" class="st1" width="0.9" height="6.9"/>
	<rect x="216.6" y="96.3" class="st1" width="0.9" height="6.9"/>
</g>
</svg>
