<?xml version="1.0" encoding="utf-8"?>
<!-- Generator: Adobe Illustrator 21.1.0, SVG Export Plug-In . SVG Version: 6.00 Build 0)  -->
<svg version="1.1" id="ural" xmlns="http://www.w3.org/2000/svg" xmlns:xlink="http://www.w3.org/1999/xlink" x="0px" y="0px"
	 viewBox="0 0 300 300" style="enable-background:new 0 0 300 300;" xml:space="preserve">
<style type="text/css">
	.st0{fill-rule:evenodd;clip-rule:evenodd;fill:#FFFFFF;}
	.st1{fill-rule:evenodd;clip-rule:evenodd;fill:#F48120;}
	.st2{fill-rule:evenodd;clip-rule:evenodd;fill:#231F20;stroke:#FFFFFF;stroke-width:0.7076;stroke-miterlimit:22.9256;}
	.st3{fill-rule:evenodd;clip-rule:evenodd;fill:#231F20;}
	.st4{fill:#231F20;}
	.st5{fill:#FFFFFF;}
	.st6{fill-rule:evenodd;clip-rule:evenodd;fill:#E6E7E8;}
	.st7{fill-rule:evenodd;clip-rule:evenodd;fill:#231F20;stroke:#F6921E;stroke-width:0.7077;stroke-miterlimit:22.9256;}
	.st8{fill-rule:evenodd;clip-rule:evenodd;fill:none;stroke:#F6921E;stroke-width:0.7077;stroke-miterlimit:22.9256;}
</style>
<g>
	<path class="st0" d="M256.1,187.5c0,7.1-1.8,13.7-5.8,19.6c-5.6,8.3-14.6,13.8-23.5,17.9c-10.1,4.8-20.9,8.3-31.3,12.4
		c-16,6.2-34.2,14.1-43.6,29.4l-2,3.3l-2-3.3c-1.5-2.5-3.3-4.8-5.2-6.9c-9.9-10.9-24.9-17.3-38.3-22.5c-10.4-4-21.2-7.6-31.3-12.4
		c-8.8-4.2-17.8-9.7-23.4-17.9c-4-5.9-5.8-12.5-5.8-19.6c-0.1-10.8,1.8-21,4.7-31.4c2.6-9.2,6-18.1,8.5-27.2
		c2.5-9.2,4-18.1,3.4-27.7c-0.7-11.9-4.6-23.1-9.9-33.7l-0.8-1.6L89.6,30l1.4,0.7c41.4,20.7,77.3,20.5,118.7,0l1.4-0.7l39,35.9
		l-0.8,1.6c-5.4,10.6-9.2,21.8-9.9,33.7c-0.6,9.5,0.9,18.5,3.4,27.7c2.5,9.2,5.9,18.1,8.5,27.2C254.4,166.5,256.2,176.6,256.1,187.5
		z"/>
	<path class="st1" d="M150,265.5c24.6-39.9,103.1-31.3,103.8-78c-0.1-45.3-33.1-68.5-6.5-121.1l-36.5-33.6
		C168.9,53.6,132.2,54,90,32.8L52.7,66.4c26.6,52.5-6.4,75.7-6.5,121.1C47,234.2,125.4,225.6,150,265.5z"/>
	<path class="st2" d="M149.9,256.2c-22.6-35.7-96.8-27.2-97.4-69.4c0.1-43.6,33.4-66.6,7.3-118.3L90.4,40
		c17.5,8.1,42.1,15.2,59.5,15.1v-0.1c17.5,0.1,42.1-6.9,59.6-15l31,28.4c-26.1,51.7,7.1,74.7,7.2,118.3
		c-0.7,42.3-75.1,33.7-97.7,69.4l-0.1,0.1L149.9,256.2z"/>
	<path class="st3" d="M149.9,249c-21.7-34-91.7-23.1-92.4-63.4c0-12.7,3.1-23.7,6.7-34.3c8.1-24.3,18.7-46.5,1.2-80.7l27.4-24.7
		c16.8,7.7,40.4,14.5,57.1,14.4v-0.1c16.8,0.1,40.4-6.6,57.2-14.3l27.4,24.7c-25.1,49.3,7.8,73.5,7.9,115.1
		c-0.7,40.3-70.7,29.3-92.4,63.4H149.9L149.9,249z"/>
	<path class="st0" d="M195.2,79.2v-2.2h1.4c0.3,0,0.6-0.1,0.7-0.2c0.2-0.2,0.3-0.4,0.3-0.8c0-0.4-0.1-0.7-0.3-0.8
		c-0.2-0.2-0.4-0.2-0.7-0.2h-1.4v-2.2h1.4c1.4,0,2.4,0.2,2.8,0.5c0.6,0.4,0.9,1.3,0.9,2.7c0,1.4-0.3,2.3-0.8,2.7
		c-0.5,0.4-1.4,0.5-2.8,0.5H195.2L195.2,79.2z M201.8,70.5h2.7v8.7h-2.7V70.5L201.8,70.5z M206.5,70.5h2.7v6
		c-0.1,0.2-0.1,0.4-0.2,0.7c0,0.1,0,0.2,0,0.2c0,0,0.1-0.1,0.2-0.2c0.1-0.1,0.1-0.2,0.1-0.3l4.6-6.4h4.4v8.7h-2.7v-6
		c0,0,0.1-0.2,0.2-0.7c0-0.1,0-0.2,0-0.2c-0.1,0-0.1,0.1-0.2,0.2c-0.1,0.1-0.1,0.2-0.1,0.3l-4.6,6.4h-4.4V70.5L206.5,70.5z
		 M214.8,68.8l-4.3,0V70h4.3V68.8z M195.2,72.6v2.2h-2.4v2.1h2.4v2.2h-5.1v-8.7h2.7v2.1H195.2L195.2,72.6z M169.5,90.8v-2.1h2.9
		c0.5,0,0.8-0.2,0.8-0.6c0-0.3-0.1-0.5-0.2-0.6c-0.1-0.1-0.3-0.1-0.6-0.1h-2.9v-1.9h3.6c0.9,0,1.6,0.2,2,0.6
		c0.4,0.4,0.7,1.1,0.7,1.9c0,1.1-0.3,1.8-0.8,2.3c-0.4,0.4-1.1,0.6-1.9,0.6H169.5L169.5,90.8z M169.5,84.3v-2.1h5.5v2.1H169.5
		L169.5,84.3z M169.5,79.2v-2.2h1.4c0.3,0,0.6-0.1,0.7-0.2c0.2-0.2,0.3-0.4,0.3-0.8c0-0.4-0.1-0.7-0.3-0.8c-0.2-0.1-0.4-0.2-0.7-0.2
		h-1.4v-2.2h1.4c1.4,0,2.4,0.2,2.8,0.5c0.6,0.4,0.9,1.4,0.9,2.8c0,1.4-0.3,2.3-0.9,2.8c-0.5,0.3-1.4,0.5-2.8,0.5H169.5L169.5,79.2z
		 M176.7,70.5h2.7v3h5.8v-3h2.7v8.7h-2.7v-3.4h-5.8v3.4h-2.7V70.5z M169.5,72.6v2.2h-2.4v2.1h2.4v2.2h-5.1v-8.7h2.7v2.1H169.5
		L169.5,72.6z M169.5,82.2v2.1h-1.7v1.2h1.7v1.9h-1.7v1.4h1.7v2.1h-4.4v-8.7H169.5L169.5,82.2z M142.7,84.4v-2.2h6.8v8.7h-2.7v-6.4
		H142.7L142.7,84.4z M142.7,79.3V77c1.5,0,2.4-0.1,2.7-0.3c0.3-0.2,0.4-0.8,0.4-1.9c0-1.1-0.1-1.8-0.4-1.9c-0.3-0.2-1.1-0.3-2.7-0.3
		l0,0v-2.2c2.8,0,4.4,0.2,5,0.7c0.5,0.4,0.8,1.7,0.8,3.8c0,2.1-0.3,3.4-0.8,3.8C147.1,79.1,145.5,79.3,142.7,79.3L142.7,79.3z
		 M161.7,70.5v8.7H159v-6.4h-4.7c0,2.5-0.2,4.2-0.6,5.2c-0.4,0.8-1.1,1.3-2,1.3h-1.3v-2.2c0.6,0,1-0.3,1.1-0.8
		c0.1-0.5,0.2-2.4,0.2-5.6H161.7L161.7,70.5z M160.6,82.2h3l-3.1,5.5c-0.6,1.1-0.9,1.6-1,1.8c-0.3,0.5-0.7,0.8-1.1,1
		c-0.5,0.2-1.1,0.3-2,0.3h-2.8v-2.2h2.9c0.2,0,0.3,0,0.4,0c0,0,0.1-0.1,0.2-0.2l-5.6-6.2h3.7l3.1,3.6c0,0,0.1,0.2,0.2,0.5
		c0,0.1,0.1,0.2,0.1,0.2c0,0,0.1-0.1,0.1-0.4c0-0.3,0-0.4,0.1-0.5L160.6,82.2z M142.7,70.4v2.2c-1.5,0-2.4,0.1-2.7,0.3
		c-0.3,0.2-0.4,0.8-0.4,1.9c0,1.1,0.1,1.7,0.4,1.9c0.3,0.2,1.2,0.3,2.7,0.3h0v2.2h0c-2,0-3.4-0.1-4-0.2c-0.8-0.2-1.3-0.6-1.5-1.2
		c-0.2-0.5-0.2-1.5-0.2-3c0-2.1,0.3-3.4,0.8-3.8C138.3,70.6,139.9,70.4,142.7,70.4L142.7,70.4L142.7,70.4z M142.7,82.2v2.2h-0.6
		c0,2.5-0.2,4.2-0.6,5.2c-0.4,0.8-1,1.3-2,1.3h-1.3v-2.2c0.6,0,1-0.3,1.1-0.8c0.1-0.5,0.2-2.4,0.2-5.6H142.7L142.7,82.2z
		 M129.3,87.6V85l2.9-2.9h3.7l-4.3,4.1l4.9,4.5h-3.9L129.3,87.6L129.3,87.6z M129.3,79.2v-2.1h1.9c0.5,0,0.8-0.2,0.8-0.6
		c0-0.3-0.1-0.5-0.2-0.6c-0.1-0.1-0.3-0.1-0.6-0.1h-1.9v-1.9h2.7c0.9,0,1.6,0.2,2,0.6c0.4,0.4,0.6,1.1,0.6,1.9
		c0,1.1-0.2,1.8-0.8,2.3c-0.4,0.4-1.1,0.6-1.9,0.6H129.3L129.3,79.2z M129.3,72.6v-2.1h4.6v2.1H129.3z M93.9,71.3
		c0.8,0,1.5,0.3,2,0.8c0.5,0.6,0.8,1.5,0.8,2.7c0,1.2-0.3,2.1-0.8,2.7c-0.5,0.5-1.2,0.8-2,0.8h-1.6v-2.1H93c0.3,0,0.6-0.1,0.7-0.3
		c0.2-0.2,0.3-0.6,0.3-1c0-0.5-0.1-0.8-0.3-1c-0.2-0.2-0.5-0.3-0.8-0.3h-0.7v-2.2H93.9L93.9,71.3z M129.3,70.5v2.1h-2.7v1.2h2.7v1.9
		h-2.7v1.4h2.7v2.1H124v-8.7H129.3L129.3,70.5z M129.3,85v2.6l-0.2-0.2h-1.4v3.4h-2.7v-8.7h2.7v3h1.4L129.3,85L129.3,85z
		 M107.4,70.5h3l-3.1,5.5c-0.6,1.1-0.9,1.7-1,1.8c-0.3,0.5-0.7,0.8-1.1,1c-0.5,0.2-1.1,0.3-2,0.3h-2.8v-2.2h2.9c0.2,0,0.3,0,0.4-0.1
		c0.1,0,0.1-0.1,0.2-0.2l-5.6-6.2h3.7l3.1,3.6c0,0,0.1,0.2,0.2,0.5c0,0.1,0.1,0.2,0.1,0.2c0,0,0-0.1,0-0.4c0-0.3,0.1-0.4,0.1-0.5
		L107.4,70.5L107.4,70.5z M111.6,72.7v-2.2H122v2.2h-3.8v6.4h-2.7v-6.4H111.6z M92.3,78.2h-1.7v0.9h-2.7v-0.9h-1.7v-2.1h1.7v-2.6
		h-1.7v-2.2h1.7v-0.8h2.7v0.8h1.7v2.2h-1.7v2.6h1.7V78.2z M86.2,78.2h-1.6c-0.8,0-1.5-0.3-2-0.8c-0.5-0.6-0.8-1.5-0.8-2.7
		c0-1.2,0.3-2.1,0.8-2.7c0.5-0.5,1.2-0.8,2-0.8h1.6v2.2h-0.7c-0.3,0-0.6,0.1-0.7,0.3c-0.2,0.2-0.3,0.6-0.3,1c0,0.5,0.1,0.8,0.3,1
		c0.2,0.2,0.4,0.3,0.7,0.3h0.7V78.2z"/>
	<path class="st1" d="M149.9,249c-10.3-16.1-31.1-22.3-50.6-28.4c33.8,0,67.6,0,101.4,0c-19.5,6.1-40.4,12.3-50.7,28.4H149.9
		L149.9,249L149.9,249z M93.6,218.8c-5.2-1.7-10.1-3.4-14.7-5.5c47.4,0,94.8,0,142.2,0c-4.5,2-9.5,3.8-14.7,5.5
		C168.8,218.8,131.2,218.8,93.6,218.8L93.6,218.8z M73.9,210.9c-2.7-1.5-5.2-3.1-7.4-4.8c55.6,0,111.3,0,166.9,0
		c-2.2,1.8-4.7,3.4-7.4,4.8C175.4,210.9,124.6,210.9,73.9,210.9L73.9,210.9z M63.3,202.9c-1.2-1.3-2.3-2.7-3.2-4.2
		c59.9,0,119.9,0,179.9,0c-0.9,1.5-2,2.9-3.2,4.2C178.9,202.9,121.1,202.9,63.3,202.9L63.3,202.9z M58.2,195
		c-0.5-1.1-0.8-2.3-1.1-3.6c62,0,123.9,0,185.9,0c-0.3,1.3-0.7,2.5-1.2,3.6C180.6,195,119.4,195,58.2,195L58.2,195z M56.4,187.1
		c-0.1-0.8-0.1-1.5-0.1-2.3c0-0.2,0-0.4,0-0.6c62.5,0,125,0,187.5,0c0,0.2,0,0.4,0,0.6c0,0.8-0.1,1.6-0.1,2.3
		C181.2,187.1,118.8,187.1,56.4,187.1L56.4,187.1z M56.4,179.2c0.1-0.8,0.1-1.6,0.2-2.4c62.2,0,124.5,0,186.7,0
		c0.1,0.8,0.1,1.6,0.2,2.4C181.2,179.2,118.8,179.2,56.4,179.2L56.4,179.2z M57.4,171.3c0.1-0.6,0.2-1.2,0.3-1.7
		c61.5,0,123.1,0,184.6,0c0.1,0.6,0.2,1.1,0.3,1.7C180.9,171.3,119.1,171.3,57.4,171.3L57.4,171.3z M59,163.3
		c0.1-0.4,0.2-0.7,0.3-1.1c60.5,0,121,0,181.4,0c0.1,0.4,0.2,0.7,0.3,1.1C180.3,163.3,119.7,163.3,59,163.3L59,163.3z M61.2,155.4
		c0-0.2,0.1-0.3,0.1-0.5c59.1,0,118.2,0,177.3,0c0,0.2,0.1,0.3,0.1,0.5C179.6,155.4,120.4,155.4,61.2,155.4z"/>
	<path class="st4" d="M150,160.1c6.5,0,12.7,1.9,18.1,5.2c7.5,4.6,13.2,12.1,15.4,21.3c2.2,9.2,0.4,18.5-4.2,26
		c-4.6,7.5-12.1,13.2-21.3,15.4c-2.7,0.6-5.3,0.9-7.9,0.9v-0.5c2.6,0,5.2-0.3,7.8-0.9c9.1-2.1,16.5-7.8,21-15.2
		c4.6-7.4,6.3-16.5,4.2-25.6c-2.1-9.1-7.8-16.5-15.2-21c-5.3-3.3-11.4-5.1-17.8-5.1V160.1z M116.5,202.5c-2.2-9.2-0.4-18.5,4.3-26
		c4.6-7.5,12.1-13.2,21.3-15.4c2.6-0.6,5.3-0.9,7.9-0.9v0.5c-2.6,0-5.2,0.3-7.8,0.9c-9.1,2.2-16.5,7.8-21.1,15.2
		c-4.6,7.4-6.3,16.5-4.2,25.6c2.2,9.1,7.8,16.5,15.2,21c5.3,3.3,11.4,5.1,17.8,5.1v0.5c-6.5,0-12.7-1.9-18.1-5.2
		C124.4,219.1,118.7,211.7,116.5,202.5z"/>
	<path class="st5" d="M121.2,176.7c-4.6,7.4-6.3,16.5-4.2,25.6c2.2,9.1,7.8,16.5,15.2,21c7.4,4.6,16.5,6.3,25.6,4.2
		c9.1-2.1,16.5-7.8,21-15.2c4.6-7.4,6.3-16.5,4.2-25.6c-2.1-9.1-7.8-16.5-15.2-21c-7.4-4.6-16.5-6.3-25.6-4.2
		C133.1,163.7,125.7,169.3,121.2,176.7z"/>
	<path class="st6" d="M179.8,211.1c-3.3,5.9-8.3,10.8-14.5,13.9v-3.9C169.8,220.3,174.8,217.1,179.8,211.1L179.8,211.1z
		 M165.3,197.6V195c2.2,1.5,4.8,2.9,8.2,4.4C170.8,198.8,168.1,198.2,165.3,197.6z M165.3,225.1c-2.3,1.2-4.8,2.1-7.5,2.7
		c-1.4,0.3-2.7,0.5-4,0.7l-3.5-7.4c0.2-0.9,0.3-1.7,0.4-2.5l-3.2,10.1c-0.5,0-1-0.1-1.4-0.1v-9.8c1.5-0.2,3.1-0.5,4.8-1.1
		c0.3-3.5,0.1-6.6-0.1-10.7c1.2,10.2,7.1,15.7,14.6,14.3V225.1L165.3,225.1z M165.3,195v2.6c-1.8-0.5-3.7-0.9-5.5-1.5l-2.6-8.8
		C160.1,190.7,162.4,193,165.3,195L165.3,195z M146.1,185.9v-4.4l0.2,0.1l11.2,0.5L146.1,185.9z M146.1,228.5
		c-13.9-1.6-25.9-11.7-29.3-26.1c-2.6-10.8,0.4-21.7,7-29.7l3,3.7c-5.7,4-6.3,17.1,1.3,25.9c0.8,8.4,6.5,17.6,18.1,16.3V228.5
		L146.1,228.5z M146.1,181.5c-4.5-1.9-8.3-4.9-11.4-7.8c2.9,4.6,6.4,8.5,9.9,12.7l1.5-0.5V181.5z"/>
	<path class="st4" d="M155.1,228.3c-1.4,0.2-2.8,0.3-4.2,0.4v-11.8c0.1-1.5,0.2-3,0.2-4.5c0-1-0.1-2.1-0.2-3.1v-2.2h0
		c0.2,1.7,0.3,3.5,0.4,5.3c0,1.6,0,3.2-0.2,4.8c3.2,1.6,6.3,4.7,11.2,3.8c4.3-2.3,7.5-5.3,10.8-8.5c0.3-0.3,0.6-0.5,0.8-0.8
		c0.5-4.3,0.4-8.5-0.9-12.4c-1.7-0.2-3.6-0.6-5.4-1c-1.7-0.4-3.5-0.9-5-1.5c-1.7,2.6-6.9,6.5-11.8,10.1v-25.6
		c3.2-0.1,5.8,0.1,6.4,0.3c3.2,6.4,4.5,9.8,5.5,14.9c1.5,0.5,3.3,1.1,5,1.5c1.8,0.4,3.7,0.8,5.4,1c2.5-2.5,4.8-5.9,5.5-10.7
		c-0.5-1.9-1.1-3.7-1.8-5.5c-0.6-1.6-1.3-3.2-2.2-4.8c-3.7-2.4-8-3.2-12-3.7c-0.7,0.9-1.4,1.8-2.1,2.7c-1.1,1.5-2.2,3.1-3.1,4.6
		l-0.2-0.1c1-1.5,2-3.1,3.1-4.6c0.7-0.9,1.3-1.8,2.1-2.6c-1.3-3.2-3-6.7-7-9.5c-1.5-0.2-3-0.4-4.5-0.6v-0.3c1.3,0.1,2.7,0.3,4.1,0.5
		c2.5-0.8,4.9-1.6,7.6-1.7c3.7,1.5,7.2,3.6,10.3,6.4c1.2,2.7,1.9,5.8,1.9,8.6c0.9,1.7,1.6,3.4,2.3,5.1c0.7,1.7,1.3,3.5,1.8,5.3
		c2,2.7,4,5,5.4,8.1c-0.2,5-1.6,9.8-3.9,14.2c-2,0.8-4,1.3-6.1,1.5c-0.3,0.3-0.6,0.6-0.9,0.9c-3.4,3.2-6.6,6.2-10.9,8.5
		c-2.1,3-2.9,4-6.2,6.5L155.1,228.3z M150.8,228.7c-2.2,0-4.3-0.1-6.4-0.5c-1.8-1.4-3.4-3.1-4.5-4.9c-0.5-0.2-1-0.3-1.4-0.5v-0.3
		c0.4,0.2,0.8,0.3,1.2,0.4c0,0,0,0,0-0.1c4.3-0.9,7.9-3.2,11.1-5.7c0-0.1,0-0.3,0-0.4V228.7L150.8,228.7z M138.5,163.5
		c1,0.2,2.1,0.4,3.2,0.7c2.2-0.5,4.5-0.5,6.9-0.4c0.7,0,1.5,0.1,2.2,0.2v0.3c-0.8-0.1-1.5-0.1-2.3-0.2c-2.3-0.1-4.6-0.1-6.7,0.4
		c-1.4,1.3-2.5,2.5-3.5,3.9V163.5L138.5,163.5z M150.8,181.3v25.6l-0.1,0.1c-5.1-2-9-4.8-12.2-8.2v-9.3c0.6-2.3,1.5-4.4,3.2-6.5
		c-1-1.1-2-2.3-2.9-3.5c-0.1-0.1-0.2-0.2-0.3-0.4v-0.4c0.2,0.2,0.3,0.4,0.5,0.6c0.9,1.1,1.9,2.3,2.9,3.4c0.1-0.1,0.1-0.1,0.2-0.2
		C145,181.8,148.2,181.4,150.8,181.3L150.8,181.3z M150.8,207.1v2.2c-0.1-0.7-0.1-1.4-0.2-2.2L150.8,207.1z M138.5,222.9
		c-2-0.7-3.8-1.7-5.6-2.9c-0.8-0.5-1.5-1.2-2.2-1.8v-0.4c0.7,0.7,1.5,1.4,2.4,2c1.7,1.2,3.5,2.1,5.4,2.9V222.9L138.5,222.9z
		 M130.7,166.4c1.7-1.2,3.6-2.2,5.5-3.1c0.7,0,1.5,0.1,2.2,0.2v4.8c-1.3,1.9-2.3,3.9-3.2,6.1c0,0,0,0,0,0c1,1.5,2.1,2.9,3.2,4.3v0.4
		c-1.2-1.6-2.4-3.1-3.5-4.7c-1.4,0.2-2.8,0.5-4.2,1.1V166.4L130.7,166.4z M138.5,189.5v9.3c-0.5-0.5-1-1.1-1.5-1.7l-6.3,3.9v-0.3
		l6.2-3.9C137.5,194.3,137.8,191.8,138.5,189.5z M130.7,218.1c-1-0.9-1.9-2-2.7-3.1c-2.1,0.1-4.4-0.5-6.3-1.3c-2.3-3.3-4-7.2-5-11.3
		c-0.4-1.8-0.7-3.6-0.8-5.4c0.7-1.8,1.6-3.2,3.5-5c0.2-2.1,0.6-4.4,1.4-6.7c0.7-2,1.6-4,2.7-5.9c-0.4-1.8-0.7-3.7-0.6-5.7
		c2.2-2.8,4.8-5.3,7.8-7.4v9.2c-2.3,0.9-4.7,2.3-7,4.2c-1.1,1.8-1.9,3.7-2.6,5.6c-0.8,2.2-1.2,4.5-1.4,6.6c1.5,4.1,5.6,7.4,8.5,10.3
		l2.5-1.5v0.3l-2.4,1.5c-0.8,3.4-1.3,7.3-0.3,12.1c0.8,1.2,1.7,2.2,2.7,3.1V218.1z"/>
	<polygon class="st7" points="87.6,171.8 87.1,171.8 86.6,171.8 86.1,171.7 85.6,171.6 85.1,171.6 84.6,171.5 84.2,171.4 
		83.7,171.3 83.2,171.2 82.8,171.1 82.3,170.9 78.4,169.7 78.2,146.3 81,148.4 78,142.6 77.8,142.3 77.7,142.1 77.6,141.8 
		72.7,141.8 72.7,125 107.8,125 107.8,115.3 126.6,115.3 127.8,115.3 128.9,115.3 130.1,115.4 131.2,115.4 132.3,115.5 133.3,115.6 
		134.4,115.8 135.4,116 136.3,116.1 137.3,116.4 138.2,116.6 139.1,116.9 139.9,117.2 140.8,117.6 141.6,118 142.4,118.4 
		143.3,118.9 144.1,119.6 144.9,120.2 145.6,121 146.3,121.8 146.9,122.6 147.2,123.1 148.6,118.8 147.1,118.8 147.1,102 176.3,102 
		179.5,113.4 184.6,114.7 184.7,114.5 184.7,114.1 184.8,113.7 184.9,113.3 184.9,112.8 184.9,112.2 185,111.6 185,111 185,110.4 
		185.1,109.7 185.1,108.9 185.1,108.1 185.1,107.3 185.1,106.5 185.1,106 181,106 181,89.2 223.5,89.2 223.5,106 220.2,106 
		220.2,118.4 223.5,118.4 223.5,135.2 196.6,135.2 196.6,133.2 196.4,133.4 195.8,133.8 195.1,134.2 194.5,134.6 193.8,134.9 
		193.1,135.2 192.4,135.4 191.7,135.6 191,135.8 190.2,135.9 189.5,136 188.8,136.1 188.1,136.1 188.1,148 140.5,148 140.5,146.6 
		140.2,146.7 139.2,147 138.2,147.3 137.1,147.6 136.1,147.8 136.1,161.3 107.8,161.3 107.8,155.3 107.7,155.5 107.2,156.7 
		106.7,157.8 106.3,158.9 105.8,160 105.3,160.9 104.8,161.9 104.3,162.8 103.9,163.7 103.4,164.5 102.9,165.2 102.4,166 
		101.8,166.7 101.2,167.4 100.6,168 100.1,168.5 99.5,169 98.9,169.4 98.3,169.8 97.6,170.2 96.9,170.5 96.2,170.8 95.5,171 
		94.8,171.2 94.1,171.4 93.4,171.6 92.7,171.7 91.9,171.8 91.2,171.9 90.4,171.9 89.7,171.9 89.1,171.9 88.6,171.9 88.1,171.9 	"/>
	<g>
		<path class="st0" d="M163,133.8v-7.2h3.1l-2.9-10.2H163v-9.3h9.5l7.2,26.2c0.2,0.9,0.4,1.5,0.6,1.8c0.4,0.8,1.1,1.2,2.1,1.2h0.8
			v6.6h-17.1v-6.6h1.2c0.5,0,0.8,0,1.1-0.1c0.2-0.1,0.3-0.3,0.3-0.7c0-0.1,0-0.3-0.1-0.5c-0.1-0.5-0.2-0.9-0.3-1.2H163L163,133.8z
			 M218.4,130.1h-16.7v-6.6h0.6c0.7,0,1.1-0.1,1.4-0.3c0.4-0.3,0.7-0.9,0.7-1.8v-19.9h-5.8c0,8.6-0.4,15.2-1.3,19.7
			c-0.6,3.1-1.5,5.4-2.8,6.9c-1.6,1.9-3.7,2.9-6.5,2.9c-0.7,0-1.2,0-1.6-0.1c-1-0.2-2-0.5-3-1v-10.2c0.3,0.1,0.7,0.2,1.4,0.3
			c0.6,0.1,1.1,0.2,1.4,0.2c1.7,0,2.9-1.3,3.5-4c0.4-2,0.7-5.6,0.7-10.5v-1.7c0-1.2-0.1-2-0.3-2.4c-0.2-0.4-0.9-0.6-1.9-0.6h-1.9
			v-6.6h32.2v6.6h-1.2c-1,0-1.6,0.3-1.9,0.8c-0.1,0.2-0.2,0.6-0.2,1.3v18.3c0,1,0.2,1.5,0.5,1.8c0.3,0.2,0.8,0.4,1.6,0.4h1.3V130.1z
			 M163,107.1v9.3l-3.1,10.2h3.1v7.2h-5.4c-0.1,0.3-0.1,0.5-0.2,0.7c-0.1,0.2-0.1,0.4-0.1,0.6c0,0.5,0.1,0.8,0.4,1
			c0.3,0.2,0.6,0.3,1,0.3h0.5v6.6h-13.7v-6.6h0.8c0.9,0,1.6-0.3,2-0.8c0.4-0.6,0.9-1.7,1.4-3.5l4.9-15.9c0.3-0.9,0.4-1.5,0.4-1.7
			c0-0.2-0.1-0.4-0.4-0.5c-0.3-0.1-0.8-0.2-1.8-0.2h-0.9v-6.6H163L163,107.1z M130.1,156.2v-6.6h0.9v6.6H130.1L130.1,156.2z
			 M130.1,143.3v-7.5c0.6-0.2,1.1-0.4,1.4-0.7c0.9-0.7,1.3-1.8,1.3-3.3c0-1.6-0.5-2.7-1.5-3.3c-0.4-0.2-0.8-0.4-1.3-0.6v-7.4
			c4.3,0.3,7.6,1,9.7,2.3c3.1,1.8,4.7,5.1,4.7,9.7c0,3.5-1,6.1-3.1,7.8C139.3,142,135.5,143,130.1,143.3z M112,136.7
			c-1.8,0-2.9,0.4-3.3,1.3c-0.4,1.1-0.7,2-1,2.9l-3.8,10.3c-2.5,6.8-4.7,11.1-6.8,13.2c-1.7,1.6-4.1,2.5-7.4,2.5
			c-2.4,0-4.4-0.3-6.2-0.9l-0.1-9.3c0.8,0.6,1.6,1,2.5,1.3c0.5,0.1,1,0.2,1.4,0.2c0.9,0,1.6-0.1,2.1-0.4c0.6-0.3,1-0.8,1.3-1.7
			l-8.2-15.7c-0.3-0.7-0.7-1.4-1-2.1c-0.6-1-1.5-1.5-2.6-1.5h-1.1v-6.6h17.5v6.6h-0.6c-0.3,0-0.6,0-0.8,0.1
			c-0.2,0.1-0.3,0.3-0.3,0.7c0,0.3,0.1,0.6,0.2,0.9c0.2,0.3,0.3,0.5,0.3,0.6l3.7,7.1l2.4-6.4c0.2-0.6,0.4-1.1,0.5-1.5
			c0.1-0.4,0.2-0.7,0.2-0.8c0-0.3-0.1-0.6-0.3-0.7c-0.2-0.1-0.6-0.2-1.2-0.2h-0.6v-6.6H112V136.7L112,136.7z M130.1,120.5v7.4
			c-0.8-0.2-1.7-0.3-2.8-0.3v8.5c1.1,0,2-0.1,2.8-0.3v7.5c-0.9,0-1.8,0.1-2.8,0.1v4.2c0,0.9,0.1,1.5,0.4,1.7
			c0.3,0.2,0.7,0.3,1.5,0.3h0.9v6.6h-17.2v-6.6h1.9c0.7,0,1.1-0.1,1.3-0.3c0.3-0.3,0.5-0.9,0.5-1.7V129c0-0.7-0.1-1.2-0.3-1.5
			c-0.2-0.3-0.7-0.5-1.5-0.5h-1.9v-6.6h13.7C127.8,120.4,129,120.4,130.1,120.5z"/>
		<path class="st8" d="M112,136.7c-1.8,0-2.9,0.4-3.3,1.3c-0.4,1.1-0.7,2-1,2.9l-3.8,10.3c-2.5,6.8-4.7,11.1-6.8,13.2
			c-1.7,1.6-4.1,2.5-7.4,2.5c-2.4,0-4.4-0.3-6.2-0.9l-0.1-9.3c0.8,0.6,1.6,1,2.5,1.3c0.5,0.1,1,0.2,1.4,0.2c0.9,0,1.6-0.1,2.1-0.4
			c0.6-0.3,1-0.8,1.3-1.7l-8.2-15.7c-0.3-0.7-0.7-1.4-1-2.1c-0.6-1-1.5-1.5-2.6-1.5h-1.1v-6.6h17.5v6.6h-0.6c-0.3,0-0.6,0-0.8,0.1
			c-0.2,0.1-0.3,0.3-0.3,0.7c0,0.3,0.1,0.6,0.2,0.9c0.2,0.3,0.3,0.5,0.3,0.6l3.7,7.1l2.4-6.4c0.2-0.6,0.4-1.1,0.5-1.5
			c0.1-0.4,0.2-0.7,0.2-0.8c0-0.3-0.1-0.6-0.3-0.7c-0.2-0.1-0.6-0.2-1.2-0.2h-0.6v-6.6H112V136.7L112,136.7z M144.5,132.5
			c0,3.5-1,6.1-3.1,7.8c-2.4,2-7.1,3.1-14.1,3.1v4.2c0,0.9,0.1,1.5,0.4,1.7c0.3,0.2,0.7,0.3,1.5,0.3h1.9v6.6h-18.2v-6.6h1.9
			c0.7,0,1.1-0.1,1.3-0.3c0.3-0.3,0.5-0.9,0.5-1.7V129c0-0.7-0.1-1.2-0.3-1.5c-0.2-0.3-0.7-0.5-1.5-0.5h-1.9v-6.6h13.7
			c6.1,0,10.6,0.8,13.2,2.4C142.9,124.6,144.5,127.9,144.5,132.5L144.5,132.5z M132.9,131.8c0-1.6-0.5-2.7-1.5-3.3
			c-1-0.6-2.3-0.9-4.1-0.9v8.5c1.9,0,3.3-0.3,4.2-1C132.4,134.5,132.9,133.4,132.9,131.8L132.9,131.8z M183,142.9h-17.1v-6.6h1.2
			c0.5,0,0.8,0,1.1-0.1c0.2-0.1,0.3-0.3,0.3-0.7c0-0.1,0-0.3-0.1-0.5c-0.1-0.5-0.2-0.9-0.3-1.2h-10.6c-0.1,0.3-0.1,0.5-0.2,0.7
			c-0.1,0.2-0.1,0.4-0.1,0.6c0,0.5,0.1,0.8,0.4,1c0.3,0.2,0.6,0.3,1,0.3h0.5v6.6h-13.7v-6.6h0.8c0.9,0,1.6-0.3,2-0.8
			c0.4-0.6,0.9-1.7,1.4-3.5l4.9-15.9c0.3-0.9,0.4-1.5,0.4-1.7c0-0.2-0.1-0.4-0.4-0.5c-0.3-0.1-0.8-0.2-1.8-0.2h-0.9v-6.6h20.3
			l7.2,26.2c0.2,0.9,0.4,1.5,0.6,1.8c0.4,0.8,1.1,1.2,2.1,1.2h0.8V142.9L183,142.9z M166.1,126.6l-2.9-10.2H163l-3.1,10.2H166.1
			L166.1,126.6z M218.4,130.1h-16.7v-6.6h0.6c0.7,0,1.1-0.1,1.4-0.3c0.4-0.3,0.7-0.9,0.7-1.8v-19.9h-5.8c0,8.6-0.4,15.2-1.3,19.7
			c-0.6,3.1-1.5,5.4-2.8,6.9c-1.6,1.9-3.7,2.9-6.5,2.9c-0.7,0-1.2,0-1.6-0.1c-1-0.2-2-0.5-3-1v-10.2c0.3,0.1,0.7,0.2,1.4,0.3
			c0.6,0.1,1.1,0.2,1.4,0.2c1.7,0,2.9-1.3,3.5-4c0.4-2,0.7-5.6,0.7-10.5v-1.7c0-1.2-0.1-2-0.3-2.4c-0.2-0.4-0.9-0.6-1.9-0.6h-1.9
			v-6.6h32.2v6.6h-1.2c-1,0-1.6,0.3-1.9,0.8c-0.1,0.2-0.2,0.6-0.2,1.3v18.3c0,1,0.2,1.5,0.5,1.8c0.3,0.2,0.8,0.4,1.6,0.4h1.3V130.1z
			"/>
	</g>
</g>
</svg>
