<svg width="150" height="150" viewBox="0 0 150 150" fill="none" xmlns="http://www.w3.org/2000/svg">
<path fill-rule="evenodd" clip-rule="evenodd" d="M75 150C116.421 150 150 116.421 150 75C150 33.5786 116.421 0 75 0C33.5786 0 0 33.5786 0 75C0 116.421 33.5786 150 75 150Z" fill="#0C0E46"/>
<path fill-rule="evenodd" clip-rule="evenodd" d="M50 25C50 38.807 38.807 50 25 50C11.193 50 0 38.807 0 25C0 11.193 11.193 0 25 0C38.807 0 50 11.193 50 25Z" transform="translate(50 50)" stroke="#F12986" stroke-linecap="round" stroke-linejoin="round"/>
<path fill-rule="evenodd" clip-rule="evenodd" d="M10.8111 21.623H4.63306V15.444H10.8111C12.5181 15.444 13.9001 16.827 13.9001 18.534C13.9001 20.24 12.5181 21.623 10.8111 21.623ZM13.9 9.26699C13.9 10.974 12.518 12.355 10.811 12.355V12.356H4.63403V6.17799H10.811C12.518 6.17799 13.9 7.55999 13.9 9.26699ZM14.888 13.9C16.174 12.769 16.989 11.114 16.989 9.267C16.989 6.39 15.019 3.978 12.356 3.292V0H9.267V3.089H6.178V0H3.089V3.089H0V6.179H1.545V13.9V21.623H0V24.712H3.089V27.801H6.178V24.712H9.267V27.801H12.356V24.509C15.019 23.822 16.989 21.411 16.989 18.534C16.989 16.686 16.174 15.032 14.888 13.9Z" transform="translate(66.5054 61.0997)" stroke="#F12986" stroke-linecap="round" stroke-linejoin="round"/>
</svg>
