<svg width="64" height="197" viewBox="0 0 64 197" fill="none" xmlns="http://www.w3.org/2000/svg">
<g id="step-04">
<path id="Path 4" opacity="0.3" d="M57 0L0 189" transform="translate(4 4)" stroke="white" stroke-dasharray="1 4"/>
<path id="Oval 20 Copy 8" fill-rule="evenodd" clip-rule="evenodd" d="M3.5 7C5.433 7 7 5.433 7 3.5C7 1.567 5.433 0 3.5 0C1.567 0 0 1.567 0 3.5C0 5.433 1.567 7 3.5 7Z" transform="translate(57)" fill="white"/>
<path id="Oval 20 Copy 9" fill-rule="evenodd" clip-rule="evenodd" d="M3.5 7C5.433 7 7 5.433 7 3.5C7 1.567 5.433 0 3.5 0C1.567 0 0 1.567 0 3.5C0 5.433 1.567 7 3.5 7Z" transform="translate(0 190)" fill="white"/>
</g>
</svg>
