<svg width="150" height="150" viewBox="0 0 150 150" fill="none" xmlns="http://www.w3.org/2000/svg">
<path fill-rule="evenodd" clip-rule="evenodd" d="M75 150C116.421 150 150 116.421 150 75C150 33.5786 116.421 0 75 0C33.5786 0 0 33.5786 0 75C0 116.421 33.5786 150 75 150Z" fill="#0C0E46"/>
<path fill-rule="evenodd" clip-rule="evenodd" d="M42.683 21.342C42.683 33.128 33.128 42.683 21.341 42.683C9.555 42.683 0 33.128 0 21.342C0 9.555 9.555 0 21.341 0C33.128 0 42.683 9.555 42.683 21.342Z" transform="translate(40 64.3408)" stroke="#F12986" stroke-linecap="round" stroke-linejoin="round"/>
<path fill-rule="evenodd" clip-rule="evenodd" d="M9.22905 18.458H3.95605V13.185H9.22905C10.6861 13.185 11.8661 14.364 11.8661 15.821C11.8661 17.278 10.6861 18.458 9.22905 18.458ZM11.8661 7.91C11.8661 9.36699 10.6861 10.548 9.22905 10.548H3.95605V5.27299H9.22905C10.6871 5.27299 11.8661 6.454 11.8661 7.91ZM12.709 11.866C13.807 10.899 14.503 9.488 14.503 7.911C14.503 5.454 12.821 3.396 10.548 2.81V0H7.911V2.637H5.274V0H2.637V2.637H0V5.274H1.319V11.866V18.458H0V21.095H2.637V23.731H5.274V21.095H7.911V23.731H10.548V20.922C12.821 20.336 14.503 18.277 14.503 15.821C14.503 14.244 13.807 12.832 12.709 11.866Z" transform="translate(54.0896 73.8166)" stroke="#F12986" stroke-linecap="round" stroke-linejoin="round"/>
<path fill-rule="evenodd" clip-rule="evenodd" d="M42.683 21.341C42.683 33.128 33.128 42.683 21.342 42.683C9.555 42.683 0 33.128 0 21.341C0 9.555 9.555 0 21.342 0C33.128 0 42.683 9.555 42.683 21.341Z" transform="translate(67.3169 43)" stroke="#292EF1" stroke-linecap="round" stroke-linejoin="round"/>
<path fill-rule="evenodd" clip-rule="evenodd" d="M5.187 23.713L0 11.857L5.187 0L10.374 11.857L5.187 23.713Z" transform="translate(83.4717 52.4845)" stroke="#292EF1" stroke-linecap="round" stroke-linejoin="round"/>
<path d="M0 0L5.122 2.562L10.244 0" transform="translate(83.5366 64.341)" stroke="#292EF1" stroke-linecap="round" stroke-linejoin="round"/>
</svg>
