<svg width="150" height="150" viewBox="0 0 150 150" fill="none" xmlns="http://www.w3.org/2000/svg">
<path fill-rule="evenodd" clip-rule="evenodd" d="M75 150C116.421 150 150 116.421 150 75C150 33.5786 116.421 0 75 0C33.5786 0 0 33.5786 0 75C0 116.421 33.5786 150 75 150Z" fill="#0C0E46"/>
<path fill-rule="evenodd" clip-rule="evenodd" d="M0 39.968C0 40.5203 0.447715 40.968 1 40.968H29.605C30.1573 40.968 30.605 40.5203 30.605 39.968V1C30.605 0.447715 30.1573 0 29.605 0H1C0.447716 0 0 0.447715 0 1V39.968Z" transform="translate(58.5 53.637)" stroke="#F12986"/>
<path fill-rule="evenodd" clip-rule="evenodd" d="M0 39.968C0 40.5203 0.447715 40.968 1 40.968H29.605C30.1573 40.968 30.605 40.5203 30.605 39.968V1C30.605 0.447715 30.1573 0 29.605 0H1C0.447716 0 0 0.447715 0 1V39.968Z" transform="translate(62.395 57.532)" stroke="#F12986"/>
<path d="M0 0H16" transform="translate(68 62)" stroke="#F12986"/>
<path d="M0 0H16" transform="translate(68 66)" stroke="#F12986"/>
<path d="M0 0H16" transform="translate(68 71)" stroke="#F12986"/>
<path d="M0 0H16" transform="translate(68 75)" stroke="#F12986"/>
<path d="M0 0H16" transform="translate(68 79)" stroke="#F12986"/>
<path d="M0 0H16" transform="translate(68 84)" stroke="#F12986"/>
<path d="M0 0H16" transform="translate(68 88)" stroke="#F12986"/>
</svg>
