<svg width="1024" height="1110" viewBox="0 0 1024 1110" fill="none" xmlns="http://www.w3.org/2000/svg">
<path id="honey-badger" fill-rule="evenodd" clip-rule="evenodd" d="M387.398 108.282L449.926 216.45V216.563H574.98L637.508 108.282L574.98 0H449.926L387.398 108.282ZM255.773 327.563L193.246 219.282L255.773 111H380.828L443.356 219.282L380.828 327.563H255.773ZM255.773 550.922L193.246 442.641L255.773 334.359H380.828L443.356 442.641L380.828 550.922H255.773ZM193.246 666L255.773 774.282H380.828L443.356 666L380.828 557.718H255.773L193.246 666ZM62.5273 439.13L0 330.848L62.5273 222.566H187.582L250.11 330.848L187.582 439.13H62.5273ZM0 554.32L62.5273 662.489V662.602H187.582L250.11 554.32L187.582 446.039H62.5273L0 554.32ZM449.926 1110L387.398 1001.72L449.926 893.437H574.98L637.508 1001.72L574.867 1110H449.926ZM193.246 889.359L255.773 997.641H380.828L443.356 889.359L380.828 781.078H255.773L193.246 889.359ZM62.5273 885.848L0 777.68L62.5273 669.398H187.582L250.11 777.68L187.582 885.961H62.5273V885.848ZM580.758 219.848L643.285 328.13H768.34L830.867 219.848L768.34 111.566H643.285L580.758 219.848ZM643.285 551.602L580.758 443.32L643.285 335.039H768.34L830.867 443.32L768.34 551.602H643.285ZM774.003 555L836.417 663.282H961.472L1024 555L961.586 446.718H836.531L774.003 555ZM836.417 439.922L773.89 331.641L836.417 223.359H961.472L1024 331.641L961.472 439.922H836.417ZM580.758 666.68L643.285 774.961H768.34L830.867 666.68L768.34 558.398H643.285L580.758 666.68ZM449.926 439.922L387.398 331.641L449.926 223.359H574.98L637.508 331.641L574.98 439.922H449.926ZM449.926 663.282L387.398 555L449.926 446.718H574.98L637.508 555L574.98 663.282H449.926ZM387.398 778.359L449.926 886.641H574.98L637.508 778.359L574.98 670.078H449.926L387.398 778.359ZM836.417 886.641L773.89 778.359L836.417 670.078H961.472L1024 778.359L961.472 886.641H836.417ZM580.758 890.039L643.285 998.32H768.34L830.867 890.039L768.34 781.757H643.285L580.758 890.039Z" fill="url(#paint0_linear)"/>
<defs>
<linearGradient id="paint0_linear" x2="1" gradientUnits="userSpaceOnUse" gradientTransform="translate(512 72.75) scale(656.048 711.146) rotate(90)">
<stop stop-color="#1F2277"/>
<stop offset="1" stop-color="#1D206E"/>
</linearGradient>
</defs>
</svg>
