<svg width="50" height="51" viewBox="0 0 50 51" fill="none" xmlns="http://www.w3.org/2000/svg">
<path fill-rule="evenodd" clip-rule="evenodd" d="M48.6486 24.5C48.6486 38.0308 37.7581 49 24.3243 49C10.8905 49 0 38.0308 0 24.5C0 10.9692 10.8905 0 24.3243 0C37.7581 0 48.6486 10.9692 48.6486 24.5Z" transform="translate(0.675781 1)" stroke="#F12986" stroke-linecap="round" stroke-linejoin="round"/>
<path d="M18.9189 38.1111C8.47027 38.1111 0 29.5797 0 19.0556C0 8.53144 8.47027 0 18.9189 0C23.4865 0 27.677 1.63061 30.9459 4.34467" transform="translate(6.08105 6.44446)" stroke="#F12986" stroke-linecap="round" stroke-linejoin="round"/>
<path fill-rule="evenodd" clip-rule="evenodd" d="M9.45946 4.76389C9.45946 7.39492 7.34189 9.52778 4.72973 9.52778C2.11757 9.52778 0 7.39492 0 4.76389C0 2.13286 2.11757 0 4.72973 0C7.34189 0 9.45946 2.13286 9.45946 4.76389Z" transform="translate(20.2703 20.7361)" stroke="#F12986" stroke-linecap="round" stroke-linejoin="round"/>
<path d="M0 23.1389L18.9189 0" transform="translate(25 2.36108)" stroke="#F12986" stroke-linecap="round" stroke-linejoin="round"/>
</svg>
