<svg width="51" height="46" viewBox="0 0 51 46" fill="none" xmlns="http://www.w3.org/2000/svg">
<g id="icon-natural">
<path id="Stroke 1" fill-rule="evenodd" clip-rule="evenodd" d="M22.9181 17.8086C29.1066 29.8694 30.2186 41.6565 25.4031 44.1369C20.5877 46.6158 11.6681 38.8499 5.47966 26.7892C-0.708816 14.7284 -1.82226 2.93982 2.99316 0.460927C7.80859 -2.01796 16.7297 5.74942 22.9181 17.8086Z" transform="translate(11.0623 0.751709)" stroke="#F12986"/>
<path id="Stroke 3" fill-rule="evenodd" clip-rule="evenodd" d="M5.47966 17.8086C-0.708816 29.8694 -1.82226 41.6565 2.99316 44.1369C7.80859 46.6158 16.7297 38.8499 22.9181 26.7892C29.1066 14.7284 30.2186 2.93982 25.4031 0.460927C20.5877 -2.01796 11.6681 5.74942 5.47966 17.8086Z" transform="translate(11.062 0.751709)" stroke="#F12986"/>
<path id="Stroke 5" fill-rule="evenodd" clip-rule="evenodd" d="M24.5108 0C10.9739 0 0 4.39856 0 9.82235C0 15.2476 10.9739 19.6432 24.5108 19.6432C38.0477 19.6432 49.0201 15.2476 49.0201 9.82235C49.0201 4.39856 38.0477 0 24.5108 0Z" transform="translate(0.750244 13.2285)" stroke="#F12986"/>
<path id="Stroke 7" fill-rule="evenodd" clip-rule="evenodd" d="M5.87335 2.9419C5.87335 4.56542 4.55882 5.88379 2.93667 5.88379C1.31453 5.88379 0 4.56542 0 2.9419C0 1.31686 1.31453 0 2.93667 0C4.55882 0 5.87335 1.31686 5.87335 2.9419Z" transform="translate(22.3245 20.1093)" stroke="#F12986"/>
</g>
</svg>
