<svg width="41" height="41" viewBox="0 0 41 41" fill="none" xmlns="http://www.w3.org/2000/svg">
<g id="icon-roi">
<path id="Stroke 1" d="M0 0H5.398L10.552 19.387H34.847L40 0" transform="translate(0 7.72986)" stroke="#F12986"/>
<path id="Stroke 3" fill-rule="evenodd" clip-rule="evenodd" d="M7.361 3.681C7.361 5.714 5.714 7.362 3.68 7.362C1.647 7.362 0 5.714 0 3.681C0 1.648 1.647 0 3.68 0C5.714 0 7.361 1.648 7.361 3.681Z" transform="translate(9.44849 32.3926)" stroke="#F12986"/>
<path id="Stroke 5" fill-rule="evenodd" clip-rule="evenodd" d="M7.361 3.681C7.361 5.714 5.714 7.362 3.68 7.362C1.647 7.362 0 5.714 0 3.681C0 1.648 1.647 0 3.68 0C5.714 0 7.361 1.648 7.361 3.681Z" transform="translate(29.0803 32.3926)" stroke="#F12986"/>
<path id="Stroke 7" d="M0 0L7.729 6.871L15.46 0" transform="translate(15.3379 7.60779)" stroke="#F12986"/>
<path id="Stroke 9" d="M0 14.233V0" transform="translate(23.0674 -0.000244141)" stroke="#F12986"/>
</g>
</svg>
