<svg width="302" height="332" viewBox="0 0 302 332" fill="none" xmlns="http://www.w3.org/2000/svg">
<path fill-rule="evenodd" clip-rule="evenodd" d="M3.5 7C5.433 7 7 5.433 7 3.5C7 1.567 5.433 0 3.5 0C1.567 0 0 1.567 0 3.5C0 5.433 1.567 7 3.5 7Z" transform="translate(288)" fill="#28FBCB"/>
<path opacity="0.05" d="M0 0L271.5 271.5" transform="translate(16 45)" stroke="white"/>
<path opacity="0.05" d="M0 0L271.5 271.5" transform="translate(286.5 45) scale(-1 1)" stroke="white"/>
<path opacity="0.05" fill-rule="evenodd" clip-rule="evenodd" d="M50 100C77.6142 100 100 77.6142 100 50C100 22.3858 77.6142 0 50 0C22.3858 0 0 22.3858 0 50C0 77.6142 22.3858 100 50 100Z" transform="translate(101 131)" stroke="white"/>
<path opacity="0.05" fill-rule="evenodd" clip-rule="evenodd" d="M100 200C155.228 200 200 155.228 200 100C200 44.7715 155.228 0 100 0C44.7715 0 0 44.7715 0 100C0 155.228 44.7715 200 100 200Z" transform="translate(51 81)" stroke="white"/>
<path opacity="0.05" fill-rule="evenodd" clip-rule="evenodd" d="M150 300C232.843 300 300 232.843 300 150C300 67.1573 232.843 0 150 0C67.1573 0 0 67.1573 0 150C0 232.843 67.1573 300 150 300Z" transform="translate(1 31)" stroke="white"/>
<path fill-rule="evenodd" clip-rule="evenodd" d="M50 100C77.6142 100 100 77.6142 100 50C100 22.3858 77.6142 0 50 0C22.3858 0 0 22.3858 0 50C0 77.6142 22.3858 100 50 100Z" transform="translate(101 131)" fill="#1D206E"/>
<path fill-rule="evenodd" clip-rule="evenodd" d="M0.917976 24.5924C14.9273 33.5109 26.6852 45.3058 35.5534 58.9773C36.1865 59.9519 37.4516 60.2875 38.4722 59.7322L58.8365 48.6448C59.9568 48.0361 60.3433 46.6019 59.6629 45.5235C48.2251 27.3761 32.7312 11.7997 14.1151 0.289047C13.1549 -0.304579 11.8887 0.0491777 11.3593 1.04796L0.227523 22.0173C-0.25358 22.9244 0.0523936 24.0411 0.917976 24.5924Z" transform="translate(211 60)" fill="#1FC9FF"/>
<path fill-rule="evenodd" clip-rule="evenodd" d="M35.686 65.9913C36.8734 66.0986 37.8987 65.1986 37.9352 64.0294C37.9767 62.6903 38 61.3473 38 59.9982C38 39.3548 33.3021 19.37 24.7412 1.25569C24.2022 0.114295 22.7798 -0.33372 21.6532 0.267275L1.15766 11.1935C0.130349 11.7418 -0.278954 12.9696 0.198229 14.0167C6.69642 28.2528 10.2495 43.8767 10.2495 59.9982C10.2495 60.6032 10.2424 61.2072 10.2312 61.8102C10.211 62.8602 11.0326 63.7423 12.0984 63.8397L35.686 65.9913Z" transform="translate(255 121)" fill="#292EEF"/>
<path fill-rule="evenodd" clip-rule="evenodd" d="M2.16088 27.6537C14.7842 28.6402 26.9985 31.7097 38.5998 36.8206C39.6018 37.262 40.7697 36.865 41.2827 35.8915L53 13.6771C52.908 13.4 52.861 13.2589 52.769 12.9808C36.8389 5.48667 19.9499 1.14053 2.45786 0.00486576C1.12494 -0.0817951 0 1.00046 0 2.34673V25.324C0 26.5523 0.944947 27.559 2.16088 27.6537Z" transform="translate(158 40)" fill="#28FBCB"/>
<path fill-rule="evenodd" clip-rule="evenodd" d="M255.305 158.278C254.243 158.179 253.297 158.921 253.117 159.972C243.968 213.543 197.204 254.448 141.066 254.448C78.385 254.448 27.391 203.455 27.391 140.774C27.391 113.576 37.147 87.2592 54.861 66.6742C72.393 46.2972 96.577 32.7522 122.957 28.5332C125.664 28.0992 128.425 27.7602 131.164 27.5242C131.511 27.4952 131.859 27.4692 132.208 27.4462C133.34 27.3722 134.218 26.4292 134.218 25.2952V2.16518C134.218 0.924179 133.173 -0.0728206 131.934 0.00417941C130.89 0.0701794 129.85 0.145179 128.814 0.235179C125.417 0.527179 121.991 0.947179 118.631 1.48518C85.868 6.72518 55.847 23.5312 34.097 48.8072C12.11 74.3612 0 107.022 0 140.774C0 218.557 63.283 281.84 141.066 281.84C211.365 281.84 269.808 230.146 280.406 162.777C280.588 161.622 279.742 160.551 278.577 160.443L255.305 158.278Z" transform="translate(9.99976 40.1604)" fill="url(#paint0_angular)"/>
<path fill-rule="evenodd" clip-rule="evenodd" d="M1.32007 3.58602H2.69507C3.53107 3.58602 4.03707 3.12402 4.03707 2.38702C4.03707 1.63902 3.53107 1.16602 2.69507 1.16602H1.32007V3.58602ZM2.893 4.752H1.32V7.799H0V0H2.893C4.389 0 5.379 1.012 5.379 2.376C5.379 3.751 4.389 4.752 2.893 4.752ZM9.64696 2.40898V3.70698C9.50396 3.68498 9.36096 3.67398 9.22896 3.67398C8.23896 3.67398 7.78796 4.24598 7.78796 5.24698V7.79898H6.51196V2.44198H7.75496V3.29998C8.00796 2.71698 8.60196 2.37598 9.30596 2.37598C9.45996 2.37598 9.59196 2.39798 9.64696 2.40898ZM13.046 6.81988C13.838 6.81988 14.542 6.23688 14.542 5.11488C14.542 4.00388 13.838 3.43188 13.046 3.43188C12.265 3.43188 11.55 4.00388 11.55 5.11488C11.55 6.22588 12.265 6.81988 13.046 6.81988ZM13.0459 2.2771C14.6519 2.2771 15.8289 3.4761 15.8289 5.1151C15.8289 6.7651 14.6519 7.9641 13.0459 7.9641C11.4509 7.9641 10.2739 6.7651 10.2739 5.1151C10.2739 3.4761 11.4509 2.2771 13.0459 2.2771ZM19.3931 3.4541C18.6121 3.4541 17.9191 4.0371 17.9191 5.1151C17.9191 6.1931 18.6121 6.7981 19.4151 6.7981C20.2511 6.7981 20.6361 6.2151 20.7571 5.8081L21.8791 6.2151C21.6261 7.0511 20.8231 7.9641 19.4151 7.9641C17.8421 7.9641 16.6431 6.7431 16.6431 5.1151C16.6431 3.4651 17.8421 2.2771 19.3821 2.2771C20.8231 2.2771 21.6151 3.1791 21.8351 4.0371L20.6911 4.4551C20.5701 3.9821 20.2071 3.4541 19.3931 3.4541ZM26.499 7.20489C26.235 7.68889 25.608 7.95289 24.981 7.95289C23.705 7.95289 22.957 7.00689 22.957 5.81889V2.44189H24.233V5.58789C24.233 6.24789 24.541 6.80889 25.311 6.80889C26.048 6.80889 26.433 6.31389 26.433 5.60989V2.44189H27.709V6.81989C27.709 7.25989 27.742 7.60089 27.764 7.79889H26.543C26.521 7.67789 26.499 7.42489 26.499 7.20489ZM32.4939 2.40898V3.70698C32.3509 3.68498 32.2079 3.67398 32.0759 3.67398C31.0859 3.67398 30.6349 4.24598 30.6349 5.24698V7.79898H29.3589V2.44198H30.6019V3.29998C30.8549 2.71698 31.4489 2.37598 32.1529 2.37598C32.3069 2.37598 32.4389 2.39798 32.4939 2.40898ZM34.4299 4.53199H37.0589C37.0369 3.90499 36.6189 3.34399 35.7389 3.34399C34.9359 3.34399 34.4739 3.95999 34.4299 4.53199ZM37.2021 5.9291L38.2801 6.2701C37.9941 7.2051 37.1471 7.9641 35.8601 7.9641C34.4081 7.9641 33.1211 6.9081 33.1211 5.0931C33.1211 3.3991 34.3751 2.2771 35.7281 2.2771C37.3781 2.2771 38.3461 3.3661 38.3461 5.0601C38.3461 5.2691 38.3241 5.4451 38.3131 5.4671H34.3971C34.4301 6.2811 35.0681 6.8641 35.8601 6.8641C36.6301 6.8641 37.0261 6.4571 37.2021 5.9291ZM40.8319 7.79909H39.5669V2.44209H40.7879V3.12409C41.0959 2.57409 41.7669 2.28809 42.3719 2.28809C43.0759 2.28809 43.6919 2.60709 43.9779 3.23409C44.3959 2.53009 45.0229 2.28809 45.7159 2.28809C46.6839 2.28809 47.6079 2.90409 47.6079 4.32309V7.79909H46.3759V4.53209C46.3759 3.90509 46.0569 3.43209 45.3419 3.43209C44.6709 3.43209 44.2309 3.96009 44.2309 4.62009V7.79909H42.9769V4.53209C42.9769 3.91609 42.6689 3.43209 41.9429 3.43209C41.2609 3.43209 40.8319 3.93809 40.8319 4.62009V7.79909ZM50.061 4.53199H52.69C52.668 3.90499 52.25 3.34399 51.37 3.34399C50.567 3.34399 50.105 3.95999 50.061 4.53199ZM52.833 5.9291L53.911 6.2701C53.625 7.2051 52.778 7.9641 51.491 7.9641C50.039 7.9641 48.752 6.9081 48.752 5.0931C48.752 3.3991 50.006 2.2771 51.359 2.2771C53.009 2.2771 53.977 3.3661 53.977 5.0601C53.977 5.2691 53.955 5.4451 53.944 5.4671H50.028C50.061 6.2811 50.699 6.8641 51.491 6.8641C52.261 6.8641 52.657 6.4571 52.833 5.9291ZM56.474 4.70809V7.79909H55.198V2.44209H56.441V3.15709C56.793 2.54109 57.431 2.28809 58.025 2.28809C59.334 2.28809 59.961 3.23409 59.961 4.41109V7.79909H58.685V4.63109C58.685 3.97109 58.388 3.44309 57.585 3.44309C56.859 3.44309 56.474 4.00409 56.474 4.70809ZM63.129 0.802979V2.44198H64.24V3.57498H63.129V6.06098C63.129 6.53398 63.338 6.73198 63.811 6.73198C63.987 6.73198 64.196 6.69898 64.251 6.68798V7.74398C64.174 7.77698 63.932 7.86498 63.47 7.86498C62.48 7.86498 61.864 7.27098 61.864 6.26998V3.57498H60.874V2.44198H61.149C61.721 2.44198 61.974 2.07898 61.974 1.60598V0.802979H63.129Z" transform="translate(118.935 177.201)" fill="white"/>
<path opacity="0.1" d="M0 55.8059L55.8059 0H109.095" transform="translate(182 3)" stroke="white"/>
<defs>
<radialGradient id="paint0_angular" cx="0.5" cy="0.5" r="0.5" gradientUnits="userSpaceOnUse" gradientTransform="scale(280.431 281.84)">
<stop offset="0.0264594" stop-color="#1D206E"/>
<stop offset="0.740722" stop-color="#F02985"/>
</radialGradient>
</defs>
</svg>
