<svg width="456" height="344" viewBox="0 0 456 344" fill="none" xmlns="http://www.w3.org/2000/svg">
<path opacity="0.05" d="M0 0L271.5 271.5" transform="translate(16 57)" stroke="white"/>
<path opacity="0.05" d="M0 0L271.5 271.5" transform="translate(286.5 57) scale(-1 1)" stroke="white"/>
<path opacity="0.05" fill-rule="evenodd" clip-rule="evenodd" d="M50 100C77.6142 100 100 77.6142 100 50C100 22.3858 77.6142 0 50 0C22.3858 0 0 22.3858 0 50C0 77.6142 22.3858 100 50 100Z" transform="translate(101 143)" stroke="white"/>
<path opacity="0.05" fill-rule="evenodd" clip-rule="evenodd" d="M100 200C155.228 200 200 155.228 200 100C200 44.7715 155.228 0 100 0C44.7715 0 0 44.7715 0 100C0 155.228 44.7715 200 100 200Z" transform="translate(51 93)" stroke="white"/>
<path opacity="0.05" fill-rule="evenodd" clip-rule="evenodd" d="M150 300C232.843 300 300 232.843 300 150C300 67.1573 232.843 0 150 0C67.1573 0 0 67.1573 0 150C0 232.843 67.1573 300 150 300Z" transform="translate(1 43)" stroke="white"/>
<path fill-rule="evenodd" clip-rule="evenodd" d="M50 100C77.6142 100 100 77.6142 100 50C100 22.3858 77.6142 0 50 0C22.3858 0 0 22.3858 0 50C0 77.6142 22.3858 100 50 100Z" transform="translate(101 143)" fill="#1D206E"/>
<path fill-rule="evenodd" clip-rule="evenodd" d="M0.917976 24.5924C14.9273 33.5109 26.6852 45.3058 35.5534 58.9773C36.1865 59.9519 37.4516 60.2875 38.4722 59.7322L58.8365 48.6448C59.9568 48.0361 60.3433 46.6019 59.6629 45.5235C48.2251 27.3761 32.7312 11.7997 14.1151 0.289047C13.1549 -0.304579 11.8887 0.0491777 11.3593 1.04796L0.227523 22.0173C-0.25358 22.9244 0.0523936 24.0411 0.917976 24.5924Z" transform="translate(211 72)" fill="#1FC9FF"/>
<path fill-rule="evenodd" clip-rule="evenodd" d="M35.686 65.9913C36.8734 66.0986 37.8987 65.1986 37.9352 64.0294C37.9767 62.6903 38 61.3473 38 59.9982C38 39.3548 33.3021 19.37 24.7412 1.25569C24.2022 0.114295 22.7798 -0.33372 21.6532 0.267275L1.15766 11.1935C0.130349 11.7418 -0.278954 12.9696 0.198229 14.0167C6.69642 28.2528 10.2495 43.8767 10.2495 59.9982C10.2495 60.6032 10.2424 61.2072 10.2312 61.8102C10.211 62.8602 11.0326 63.7423 12.0984 63.8397L35.686 65.9913Z" transform="translate(255 133)" fill="#292EEF"/>
<path fill-rule="evenodd" clip-rule="evenodd" d="M2.16088 27.6537C14.7842 28.6402 26.9985 31.7097 38.5998 36.8206C39.6018 37.262 40.7697 36.865 41.2827 35.8915L53 13.6771C52.908 13.4 52.861 13.2589 52.769 12.9808C36.8389 5.48667 19.9499 1.14053 2.45786 0.00486576C1.12494 -0.0817951 0 1.00046 0 2.34673V25.324C0 26.5523 0.944947 27.559 2.16088 27.6537Z" transform="translate(158 52)" fill="#28FBCB"/>
<path fill-rule="evenodd" clip-rule="evenodd" d="M255.305 158.278C254.243 158.179 253.297 158.921 253.117 159.972C243.968 213.543 197.204 254.448 141.066 254.448C78.385 254.448 27.391 203.455 27.391 140.774C27.391 113.576 37.147 87.2592 54.861 66.6742C72.393 46.2972 96.577 32.7522 122.957 28.5332C125.664 28.0992 128.425 27.7602 131.164 27.5242C131.511 27.4952 131.859 27.4692 132.208 27.4462C133.34 27.3722 134.218 26.4292 134.218 25.2952V2.16518C134.218 0.924179 133.173 -0.0728206 131.934 0.00417941C130.89 0.0701794 129.85 0.145179 128.814 0.235179C125.417 0.527179 121.991 0.947179 118.631 1.48518C85.868 6.72518 55.847 23.5312 34.097 48.8072C12.11 74.3612 0 107.022 0 140.774C0 218.557 63.283 281.84 141.066 281.84C211.365 281.84 269.808 230.146 280.406 162.777C280.588 161.622 279.742 160.551 278.577 160.443L255.305 158.278Z" transform="translate(9.99976 52.1604)" fill="url(#paint0_angular)"/>
<path d="M17.3 20V5.82H14.04L9.5 16.64L4.9 5.82H1.7V20H4.04V9.6L8.42 20H10.5L14.92 9.56V20H17.3ZM19.8453 17.36C19.8453 18.9 21.1053 20.3 23.1453 20.3C24.7253 20.3 25.6853 19.5 26.1453 18.76C26.1453 19.54 26.2253 19.94 26.2453 20H28.4053C28.3853 19.9 28.2853 19.32 28.2853 18.44V13.6C28.2853 11.66 27.1453 9.96 24.1453 9.96C21.7453 9.96 20.2253 11.46 20.0453 13.14L22.1653 13.62C22.2653 12.64 22.9453 11.86 24.1653 11.86C25.4453 11.86 26.0053 12.52 26.0053 13.34C26.0053 13.68 25.8453 13.96 25.2853 14.04L22.7853 14.42C21.1253 14.66 19.8453 15.62 19.8453 17.36ZM23.5853 18.48C22.6653 18.48 22.1653 17.88 22.1653 17.22C22.1653 16.42 22.7453 16.02 23.4653 15.9L26.0053 15.52V15.96C26.0053 17.86 24.8853 18.48 23.5853 18.48ZM36.7898 10.2C36.6898 10.18 36.4498 10.14 36.1698 10.14C34.8898 10.14 33.8098 10.76 33.3498 11.82V10.26H31.0898V20H33.4098V15.36C33.4098 13.54 34.2298 12.5 36.0298 12.5C36.2698 12.5 36.5298 12.52 36.7898 12.56V10.2ZM47.8466 10.26H44.7666L41.0266 14.2V5.52H38.7266V20H41.0266V17.28L42.2266 16.02L45.0866 20H47.9266L43.8466 14.38L47.8466 10.26ZM50.7567 14.06C50.8367 13.02 51.6767 11.9 53.1367 11.9C54.7367 11.9 55.4967 12.92 55.5367 14.06H50.7567ZM55.7967 16.6C55.4767 17.56 54.7567 18.3 53.3567 18.3C51.9167 18.3 50.7567 17.24 50.6967 15.76H57.8167C57.8367 15.72 57.8767 15.4 57.8767 15.02C57.8767 11.94 56.1167 9.96 53.1167 9.96C50.6567 9.96 48.3767 12 48.3767 15.08C48.3767 18.38 50.7167 20.3 53.3567 20.3C55.6967 20.3 57.2367 18.92 57.7567 17.22L55.7967 16.6ZM63.0338 7.28H60.9337V8.74C60.9337 9.6 60.4737 10.26 59.4337 10.26H58.9338V12.32H60.7338V17.22C60.7338 19.04 61.8538 20.12 63.6537 20.12C64.4937 20.12 64.9338 19.96 65.0738 19.9V17.98C64.9738 18 64.5938 18.06 64.2738 18.06C63.4137 18.06 63.0338 17.7 63.0338 16.84V12.32H65.0538V10.26H63.0338V7.28ZM69.7375 20V10.26H67.4375V20H69.7375ZM67.0775 6.84C67.0775 7.68 67.7575 8.34 68.5775 8.34C69.4175 8.34 70.0975 7.68 70.0975 6.84C70.0975 6 69.4175 5.32 68.5775 5.32C67.7575 5.32 67.0775 6 67.0775 6.84ZM75.0505 14.38C75.0505 13.1 75.7505 12.08 77.0705 12.08C78.5305 12.08 79.0705 13.04 79.0705 14.24V20H81.3905V13.84C81.3905 11.7 80.2505 9.98 77.8705 9.98C76.7905 9.98 75.6305 10.44 74.9905 11.56V10.26H72.7305V20H75.0505V14.38ZM83.5148 20.54C83.7748 22.5 85.5748 24.1 88.1548 24.1C91.8148 24.1 93.1548 21.68 93.1548 19.08V10.26H90.9148V11.5C90.4948 10.7 89.5548 10.08 88.0348 10.08C85.3548 10.08 83.5348 12.22 83.5348 14.82C83.5348 17.56 85.4348 19.56 88.0348 19.56C89.4548 19.56 90.4348 18.9 90.8548 18.14V19.16C90.8548 21.14 89.9348 22.08 88.0948 22.08C86.7548 22.08 85.8148 21.18 85.6548 19.98L83.5148 20.54ZM88.4148 17.58C86.8948 17.58 85.8748 16.52 85.8748 14.82C85.8748 13.16 86.9348 12.08 88.4148 12.08C89.8548 12.08 90.9148 13.16 90.9148 14.82C90.9148 16.5 89.8948 17.58 88.4148 17.58Z" transform="translate(315)" fill="white"/>
<path fill-rule="evenodd" clip-rule="evenodd" d="M3.5 7C5.433 7 7 5.433 7 3.5C7 1.567 5.433 0 3.5 0C1.567 0 0 1.567 0 3.5C0 5.433 1.567 7 3.5 7Z" transform="translate(288 12)" fill="#28FBCB"/>
<path opacity="0.1" d="M0 55.8059L55.8059 0H109.095" transform="translate(182 15)" stroke="white"/>
<path d="M1.7 5.82V20H6.94C9.58 20 11.34 18.36 11.34 16.08C11.34 14.4 10.3 13.1 8.8 12.7C10.02 12.26 10.9 11.14 10.9 9.64C10.9 7.42 9.3 5.82 6.58 5.82H1.7ZM4.08 11.82V7.86H6.2C7.66 7.86 8.5 8.64 8.5 9.84C8.5 11.02 7.66 11.82 6.26 11.82H4.08ZM4.08 17.96V13.84H6.6C8.08 13.84 8.9 14.7 8.9 15.92C8.9 17.18 7.96 17.96 6.52 17.96H4.08ZM18.0261 18.22C16.6061 18.22 15.3061 17.14 15.3061 15.12C15.3061 13.1 16.6061 12.06 18.0261 12.06C19.4661 12.06 20.7461 13.1 20.7461 15.12C20.7461 17.16 19.4661 18.22 18.0261 18.22ZM18.0261 9.96C15.1261 9.96 12.9861 12.14 12.9861 15.12C12.9861 18.12 15.1261 20.3 18.0261 20.3C20.9461 20.3 23.0861 18.12 23.0861 15.12C23.0861 12.14 20.9461 9.96 18.0261 9.96ZM31.6095 18.92C31.6095 19.32 31.6495 19.78 31.6895 20H33.9095C33.8695 19.64 33.8095 19.02 33.8095 18.22V10.26H31.4895V16.02C31.4895 17.3 30.7895 18.2 29.4495 18.2C28.0495 18.2 27.4895 17.18 27.4895 15.98V10.26H25.1695V16.4C25.1695 18.56 26.5295 20.28 28.8495 20.28C29.9895 20.28 31.1295 19.8 31.6095 18.92ZM39.1325 14.38C39.1325 13.1 39.8325 12.08 41.1525 12.08C42.6125 12.08 43.1525 13.04 43.1525 14.24V20H45.4725V13.84C45.4725 11.7 44.3325 9.98 41.9525 9.98C40.8725 9.98 39.7125 10.44 39.0725 11.56V10.26H36.8125V20H39.1325V14.38ZM51.2369 7.28H49.1369V8.74C49.1369 9.6 48.6769 10.26 47.6369 10.26H47.1369V12.32H48.9369V17.22C48.9369 19.04 50.0569 20.12 51.8569 20.12C52.6969 20.12 53.1369 19.96 53.2769 19.9V17.98C53.1769 18 52.7969 18.06 52.4769 18.06C51.6169 18.06 51.2369 17.7 51.2369 16.84V12.32H53.2569V10.26H51.2369V7.28ZM58.7569 23.94L64.9569 10.26H62.4969L59.8769 16.42L57.0769 10.26H54.4569L58.6169 18.84L56.2769 23.94H58.7569Z" transform="translate(355 40)" fill="white"/>
<path fill-rule="evenodd" clip-rule="evenodd" d="M3.5 7C5.433 7 7 5.433 7 3.5C7 1.567 5.433 0 3.5 0C1.567 0 0 1.567 0 3.5C0 5.433 1.567 7 3.5 7Z" transform="translate(339 53)" fill="#28FBCB"/>
<path opacity="0.1" d="M0 56L56.2688 0H110" transform="translate(231 56)" stroke="white"/>
<path d="M4.1 12.34V7.94H6.6C8.12 7.94 9.04 8.8 9.04 10.16C9.04 11.5 8.12 12.34 6.6 12.34H4.1ZM6.96 14.46C9.68 14.46 11.48 12.64 11.48 10.14C11.48 7.66 9.68 5.82 6.96 5.82H1.7V20H4.1V14.46H6.96ZM18.9773 10.2C18.8773 10.18 18.6373 10.14 18.3573 10.14C17.0773 10.14 15.9973 10.76 15.5373 11.82V10.26H13.2773V20H15.5973V15.36C15.5973 13.54 16.4173 12.5 18.2173 12.5C18.4573 12.5 18.7173 12.52 18.9773 12.56V10.2ZM25.0964 18.22C23.6764 18.22 22.3764 17.14 22.3764 15.12C22.3764 13.1 23.6764 12.06 25.0964 12.06C26.5364 12.06 27.8164 13.1 27.8164 15.12C27.8164 17.16 26.5364 18.22 25.0964 18.22ZM25.0964 9.96C22.1964 9.96 20.0564 12.14 20.0564 15.12C20.0564 18.12 22.1964 20.3 25.0964 20.3C28.0164 20.3 30.1564 18.12 30.1564 15.12C30.1564 12.14 28.0164 9.96 25.0964 9.96ZM36.6384 12.1C38.1184 12.1 38.7784 13.06 38.9984 13.92L41.0784 13.16C40.6784 11.6 39.2384 9.96 36.6184 9.96C33.8184 9.96 31.6384 12.12 31.6384 15.12C31.6384 18.08 33.8184 20.3 36.6784 20.3C39.2384 20.3 40.6984 18.64 41.1584 17.12L39.1184 16.38C38.8984 17.12 38.1984 18.18 36.6784 18.18C35.2184 18.18 33.9584 17.08 33.9584 15.12C33.9584 13.16 35.2184 12.1 36.6384 12.1ZM49.422 18.92C49.422 19.32 49.462 19.78 49.502 20H51.722C51.682 19.64 51.622 19.02 51.622 18.22V10.26H49.302V16.02C49.302 17.3 48.602 18.2 47.262 18.2C45.862 18.2 45.302 17.18 45.302 15.98V10.26H42.982V16.4C42.982 18.56 44.342 20.28 46.662 20.28C47.802 20.28 48.942 19.8 49.422 18.92ZM60.325 10.2C60.225 10.18 59.985 10.14 59.705 10.14C58.425 10.14 57.345 10.76 56.885 11.82V10.26H54.625V20H56.945V15.36C56.945 13.54 57.765 12.5 59.565 12.5C59.805 12.5 60.065 12.52 60.325 12.56V10.2ZM63.7841 14.06C63.8641 13.02 64.7041 11.9 66.1641 11.9C67.7641 11.9 68.5241 12.92 68.5641 14.06H63.7841ZM68.8241 16.6C68.5041 17.56 67.7841 18.3 66.3841 18.3C64.9441 18.3 63.7841 17.24 63.7241 15.76H70.8441C70.8641 15.72 70.9041 15.4 70.9041 15.02C70.9041 11.94 69.1441 9.96 66.1441 9.96C63.6841 9.96 61.4041 12 61.4041 15.08C61.4041 18.38 63.7441 20.3 66.3841 20.3C68.7241 20.3 70.2641 18.92 70.7841 17.22L68.8241 16.6ZM75.4211 20V14.22C75.4211 12.98 76.2011 12.06 77.4411 12.06C78.7611 12.06 79.3211 12.94 79.3211 14.06V20H81.6011V14.22C81.6011 13.02 82.4011 12.06 83.6211 12.06C84.9211 12.06 85.5011 12.92 85.5011 14.06V20H87.7411V13.68C87.7411 11.1 86.0611 9.98 84.3011 9.98C83.0411 9.98 81.9011 10.42 81.1411 11.7C80.6211 10.56 79.5011 9.98 78.2211 9.98C77.1211 9.98 75.9011 10.5 75.3411 11.5V10.26H73.1211V20H75.4211ZM92.202 14.06C92.282 13.02 93.122 11.9 94.582 11.9C96.182 11.9 96.942 12.92 96.982 14.06H92.202ZM97.242 16.6C96.922 17.56 96.202 18.3 94.802 18.3C93.362 18.3 92.202 17.24 92.142 15.76H99.262C99.282 15.72 99.322 15.4 99.322 15.02C99.322 11.94 97.562 9.96 94.562 9.96C92.102 9.96 89.822 12 89.822 15.08C89.822 18.38 92.162 20.3 94.802 20.3C97.142 20.3 98.682 18.92 99.202 17.22L97.242 16.6ZM103.859 14.38C103.859 13.1 104.559 12.08 105.879 12.08C107.339 12.08 107.879 13.04 107.879 14.24V20H110.199V13.84C110.199 11.7 109.059 9.98 106.679 9.98C105.599 9.98 104.439 10.44 103.799 11.56V10.26H101.539V20H103.859V14.38ZM115.963 7.28H113.863V8.74C113.863 9.6 113.403 10.26 112.363 10.26H111.863V12.32H113.663V17.22C113.663 19.04 114.783 20.12 116.583 20.12C117.423 20.12 117.863 19.96 118.003 19.9V17.98C117.903 18 117.523 18.06 117.203 18.06C116.343 18.06 115.963 17.7 115.963 16.84V12.32H117.983V10.26H115.963V7.28Z" transform="translate(337 314)" fill="white"/>
<path fill-rule="evenodd" clip-rule="evenodd" d="M3.5 7C5.433 7 7 5.433 7 3.5C7 1.567 5.433 0 3.5 0C1.567 0 0 1.567 0 3.5C0 5.433 1.567 7 3.5 7Z" transform="translate(319 328)" fill="#28FBCB"/>
<path opacity="0.1" d="M0 33L33.2498 0H65" transform="translate(258 332) scale(1 -1)" stroke="white"/>
<path d="M11.88 8.08V5.82H0.26V8.08H4.86V20H7.26V8.08H11.88ZM13.3739 14.06C13.4539 13.02 14.2939 11.9 15.7539 11.9C17.3539 11.9 18.1139 12.92 18.1539 14.06H13.3739ZM18.4139 16.6C18.0939 17.56 17.3739 18.3 15.9739 18.3C14.5339 18.3 13.3739 17.24 13.3139 15.76H20.4339C20.4539 15.72 20.4939 15.4 20.4939 15.02C20.4939 11.94 18.7339 9.96 15.7339 9.96C13.2739 9.96 10.9939 12 10.9939 15.08C10.9939 18.38 13.3339 20.3 15.9739 20.3C18.3139 20.3 19.8539 18.92 20.3739 17.22L18.4139 16.6ZM22.1109 17.36C22.1109 18.9 23.3709 20.3 25.4109 20.3C26.9909 20.3 27.9509 19.5 28.4109 18.76C28.4109 19.54 28.4909 19.94 28.5109 20H30.6709C30.6509 19.9 30.5509 19.32 30.5509 18.44V13.6C30.5509 11.66 29.4109 9.96 26.4109 9.96C24.0109 9.96 22.4909 11.46 22.3109 13.14L24.4309 13.62C24.5309 12.64 25.2109 11.86 26.4309 11.86C27.7109 11.86 28.2709 12.52 28.2709 13.34C28.2709 13.68 28.1109 13.96 27.5509 14.04L25.0509 14.42C23.3909 14.66 22.1109 15.62 22.1109 17.36ZM25.8509 18.48C24.9309 18.48 24.4309 17.88 24.4309 17.22C24.4309 16.42 25.0109 16.02 25.7309 15.9L28.2709 15.52V15.96C28.2709 17.86 27.1509 18.48 25.8509 18.48ZM35.6555 20V14.22C35.6555 12.98 36.4355 12.06 37.6755 12.06C38.9955 12.06 39.5555 12.94 39.5555 14.06V20H41.8355V14.22C41.8355 13.02 42.6355 12.06 43.8555 12.06C45.1555 12.06 45.7355 12.92 45.7355 14.06V20H47.9755V13.68C47.9755 11.1 46.2955 9.98 44.5355 9.98C43.2755 9.98 42.1355 10.42 41.3755 11.7C40.8555 10.56 39.7355 9.98 38.4555 9.98C37.3555 9.98 36.1355 10.5 35.5755 11.5V10.26H33.3555V20H35.6555Z" transform="translate(355 122)" fill="white"/>
<path fill-rule="evenodd" clip-rule="evenodd" d="M3.5 7C5.433 7 7 5.433 7 3.5C7 1.567 5.433 0 3.5 0C1.567 0 0 1.567 0 3.5C0 5.433 1.567 7 3.5 7Z" transform="translate(339 136)" fill="#28FBCB"/>
<path opacity="0.1" d="M0 26L26.0883 0H51" transform="translate(291 139)" stroke="white"/>
<defs>
<radialGradient id="paint0_angular" cx="0.5" cy="0.5" r="0.5" gradientUnits="userSpaceOnUse" gradientTransform="scale(280.431 281.84)">
<stop offset="0.0264594" stop-color="#1D206E"/>
<stop offset="0.740722" stop-color="#F02985"/>
</radialGradient>
</defs>
</svg>
