<svg width="680" height="570" viewBox="0 0 680 570" fill="none" xmlns="http://www.w3.org/2000/svg">
<g id="diagram-line">
<path id="Path 6 Copy 3" opacity="0.2" d="M0 1H680" transform="translate(0 534)" stroke="white" stroke-dasharray="1 5"/>
<path id="Page 1 Copy 2" opacity="0.1" fill-rule="evenodd" clip-rule="evenodd" d="M0 385L20 353L53 339L92 331H101L127 310L138 315L175 276L183 278L205 243L210 244L224 224L241 221L276 217L289 218L309 211L348 168L350 174L387 135L394 138L430 132L461 134L480 125V133L494 125L519 80L530 72L540 59L556 49L566 29L611 0V385H0Z" transform="translate(30 185)" fill="url(#paint0_linear)"/>
<g id="Group 50">
<path id="fade" fill-rule="evenodd" clip-rule="evenodd" d="M0 0H410V570H0V0Z" transform="translate(231)" fill="url(#paint1_linear)"/>
<path id="Page 1" d="M0 384.576L20.3189 352.793L52.6772 338.917L91.6973 331.132H101.452L127.466 309.723L137.871 314.913L175.59 275.339L183.395 277.934L205.506 242.901L210.058 244.198L223.715 223.438L241.032 221.062L275.742 216.301L289.399 217.599L309.56 210.463L348.58 167.644L350.531 173.483L387.6 135.206L394.428 138.126L429.872 131.962L461.088 133.909L479.947 124.826V132.611L494.255 124.826L519.618 79.4127L530.145 72.3767L540.429 58.6523L556.037 48.9209L566.442 28.8093L611.333 0" transform="translate(30 185)" stroke="#1CC2FC"/>
<path id="Oval Copy 2" fill-rule="evenodd" clip-rule="evenodd" d="M3 6C4.65685 6 6 4.65685 6 3C6 1.34315 4.65685 0 3 0C1.34315 0 0 1.34315 0 3C0 4.65685 1.34315 6 3 6Z" transform="translate(54 532)" fill="white"/>
</g>
<g id="Oval Copy 6" filter="url(#filter0_d)">
<path fill-rule="evenodd" clip-rule="evenodd" d="M3 6C4.65685 6 6 4.65685 6 3C6 1.34315 4.65685 0 3 0C1.34315 0 0 1.34315 0 3C0 4.65685 1.34315 6 3 6Z" transform="translate(326 396)" fill="white"/>
</g>
<g id="Oval Copy 14" filter="url(#filter1_d)">
<path fill-rule="evenodd" clip-rule="evenodd" d="M3 6C4.65685 6 6 4.65685 6 3C6 1.34315 4.65685 0 3 0C1.34315 0 0 1.34315 0 3C0 4.65685 1.34315 6 3 6Z" transform="translate(198 463)" fill="white"/>
</g>
<g id="Oval Copy 7" filter="url(#filter2_d)">
<path fill-rule="evenodd" clip-rule="evenodd" d="M3 6C4.65685 6 6 4.65685 6 3C6 1.34315 4.65685 0 3 0C1.34315 0 0 1.34315 0 3C0 4.65685 1.34315 6 3 6Z" transform="translate(455 314)" fill="white"/>
</g>
<g id="Group 46">
<path id="Oval 2 Copy" fill-rule="evenodd" clip-rule="evenodd" d="M22.5 45C34.9264 45 45 34.9264 45 22.5C45 10.0736 34.9264 0 22.5 0C10.0736 0 0 10.0736 0 22.5C0 34.9264 10.0736 45 22.5 45Z" transform="translate(179 512)" fill="#0C0E46"/>
<path id="Oval Copy 10" fill-rule="evenodd" clip-rule="evenodd" d="M3 6C4.65685 6 6 4.65685 6 3C6 1.34315 4.65685 0 3 0C1.34315 0 0 1.34315 0 3C0 4.65685 1.34315 6 3 6Z" transform="translate(198 532)" fill="#1CC2FC"/>
</g>
<g id="Group 47">
<path id="Oval 2 Copy 2" fill-rule="evenodd" clip-rule="evenodd" d="M22.5 45C34.9264 45 45 34.9264 45 22.5C45 10.0736 34.9264 0 22.5 0C10.0736 0 0 10.0736 0 22.5C0 34.9264 10.0736 45 22.5 45Z" transform="translate(307 512)" fill="#0C0E46"/>
<path id="Oval Copy 11" fill-rule="evenodd" clip-rule="evenodd" d="M3 6C4.65685 6 6 4.65685 6 3C6 1.34315 4.65685 0 3 0C1.34315 0 0 1.34315 0 3C0 4.65685 1.34315 6 3 6Z" transform="translate(326 532)" fill="#1CC2FC"/>
</g>
<g id="Group 48">
<path id="Oval 2 Copy 3" fill-rule="evenodd" clip-rule="evenodd" d="M22.5 45C34.9264 45 45 34.9264 45 22.5C45 10.0736 34.9264 0 22.5 0C10.0736 0 0 10.0736 0 22.5C0 34.9264 10.0736 45 22.5 45Z" transform="translate(435 512)" fill="#0C0E46"/>
<path id="Oval Copy 12" fill-rule="evenodd" clip-rule="evenodd" d="M3 6C4.65685 6 6 4.65685 6 3C6 1.34315 4.65685 0 3 0C1.34315 0 0 1.34315 0 3C0 4.65685 1.34315 6 3 6Z" transform="translate(455 532)" fill="#1CC2FC"/>
</g>
<g id="Group 49">
<path id="Oval 2 Copy 7" fill-rule="evenodd" clip-rule="evenodd" d="M22.5 45C34.9264 45 45 34.9264 45 22.5C45 10.0736 34.9264 0 22.5 0C10.0736 0 0 10.0736 0 22.5C0 34.9264 10.0736 45 22.5 45Z" transform="translate(563 512)" fill="#0C0E46"/>
<path id="Oval Copy 13" fill-rule="evenodd" clip-rule="evenodd" d="M3 6C4.65685 6 6 4.65685 6 3C6 1.34315 4.65685 0 3 0C1.34315 0 0 1.34315 0 3C0 4.65685 1.34315 6 3 6Z" transform="translate(583 532)" fill="#1CC2FC"/>
</g>
<g id="Oval Copy 8" filter="url(#filter3_d)">
<path fill-rule="evenodd" clip-rule="evenodd" d="M3 6C4.65685 6 6 4.65685 6 3C6 1.34315 4.65685 0 3 0C1.34315 0 0 1.34315 0 3C0 4.65685 1.34315 6 3 6Z" transform="translate(583 230)" fill="white"/>
</g>
</g>
<defs>
<filter id="filter0_d" x="316" y="386" width="26" height="26" filterUnits="userSpaceOnUse" color-interpolation-filters="sRGB">
<feFlood flood-opacity="0" result="BackgroundImageFix"/>
<feColorMatrix in="SourceAlpha" type="matrix" values="0 0 0 0 0 0 0 0 0 0 0 0 0 0 0 0 0 0 255 0"/>
<feOffset/>
<feGaussianBlur stdDeviation="5"/>
<feColorMatrix type="matrix" values="0 0 0 0 1 0 0 0 0 1 0 0 0 0 1 0 0 0 0.3 0"/>
<feBlend mode="normal" in2="BackgroundImageFix" result="effect1_dropShadow"/>
<feBlend mode="normal" in="SourceGraphic" in2="effect1_dropShadow" result="shape"/>
</filter>
<filter id="filter1_d" x="188" y="453" width="26" height="26" filterUnits="userSpaceOnUse" color-interpolation-filters="sRGB">
<feFlood flood-opacity="0" result="BackgroundImageFix"/>
<feColorMatrix in="SourceAlpha" type="matrix" values="0 0 0 0 0 0 0 0 0 0 0 0 0 0 0 0 0 0 255 0"/>
<feOffset/>
<feGaussianBlur stdDeviation="5"/>
<feColorMatrix type="matrix" values="0 0 0 0 1 0 0 0 0 1 0 0 0 0 1 0 0 0 0.3 0"/>
<feBlend mode="normal" in2="BackgroundImageFix" result="effect1_dropShadow"/>
<feBlend mode="normal" in="SourceGraphic" in2="effect1_dropShadow" result="shape"/>
</filter>
<filter id="filter2_d" x="445" y="304" width="26" height="26" filterUnits="userSpaceOnUse" color-interpolation-filters="sRGB">
<feFlood flood-opacity="0" result="BackgroundImageFix"/>
<feColorMatrix in="SourceAlpha" type="matrix" values="0 0 0 0 0 0 0 0 0 0 0 0 0 0 0 0 0 0 255 0"/>
<feOffset/>
<feGaussianBlur stdDeviation="5"/>
<feColorMatrix type="matrix" values="0 0 0 0 1 0 0 0 0 1 0 0 0 0 1 0 0 0 0.3 0"/>
<feBlend mode="normal" in2="BackgroundImageFix" result="effect1_dropShadow"/>
<feBlend mode="normal" in="SourceGraphic" in2="effect1_dropShadow" result="shape"/>
</filter>
<filter id="filter3_d" x="573" y="220" width="26" height="26" filterUnits="userSpaceOnUse" color-interpolation-filters="sRGB">
<feFlood flood-opacity="0" result="BackgroundImageFix"/>
<feColorMatrix in="SourceAlpha" type="matrix" values="0 0 0 0 0 0 0 0 0 0 0 0 0 0 0 0 0 0 255 0"/>
<feOffset/>
<feGaussianBlur stdDeviation="5"/>
<feColorMatrix type="matrix" values="0 0 0 0 1 0 0 0 0 1 0 0 0 0 1 0 0 0 0.3 0"/>
<feBlend mode="normal" in2="BackgroundImageFix" result="effect1_dropShadow"/>
<feBlend mode="normal" in="SourceGraphic" in2="effect1_dropShadow" result="shape"/>
</filter>
<linearGradient id="paint0_linear" x2="1" gradientUnits="userSpaceOnUse" gradientTransform="translate(305.5) scale(611 385) rotate(90)">
<stop stop-color="#009BFF"/>
<stop offset="1" stop-color="#0C0E46"/>
</linearGradient>
<linearGradient id="paint1_linear" x2="1" gradientUnits="userSpaceOnUse" gradientTransform="translate(0 285) scale(410 570)">
<stop stop-color="#0C0E46" stop-opacity="0.01"/>
<stop offset="1" stop-color="#0C0E46"/>
</linearGradient>
</defs>
</svg>
