<svg width="16" height="14" viewBox="0 0 16 14" fill="none" xmlns="http://www.w3.org/2000/svg">
<path id="Shape" d="M15.303 0.662218C14.9165 0.245703 14.3569 0.0238363 13.6402 0.00279725C11.6164 -0.0624533 10.1852 1.01414 9.38634 3.20228C9.34441 3.31719 9.37001 3.4446 9.45306 3.53482C9.53571 3.62454 9.65985 3.66021 9.77718 3.62803C10.0069 3.56484 10.2347 3.53284 10.4544 3.53284C10.7493 3.53284 11.1418 3.58705 11.3372 3.84537C11.4872 4.04362 11.5076 4.34089 11.3979 4.72887C11.3052 5.05619 10.8286 5.9324 10.2387 6.85959C9.52 7.98922 9.12298 8.49563 9.00852 8.49563C8.6293 8.49563 7.259 2.41953 7.22134 2.28627C6.82829 0.893721 6.63099 0.194724 5.3529 0.194724C4.37882 0.194724 2.2062 1.97356 0.422292 3.52328C0.312572 3.61858 0.220177 3.69887 0.148637 3.76C-0.0237954 3.90742 -0.0498 4.1635 0.0895287 4.34295L0.421961 4.77124C0.561988 4.95169 0.8174 4.98935 1.00355 4.85698L1.02183 4.84396C1.59897 4.43336 2.14419 4.04557 2.55577 4.02431C3.00304 4.00236 3.39112 4.7011 3.8538 6.36381C4.73497 9.59334 6.07375 13.4431 7.44769 13.4431C8.8835 13.4431 10.5964 12.226 12.8105 9.34455C14.8145 6.73666 15.8875 4.66832 15.9564 3.16348C16.0082 2.02689 15.7883 1.18536 15.303 0.662218Z" transform="translate(0.0180664)" fill="white"/>
</svg>
