<?xml version="1.0" encoding="utf-8"?>
<!-- Generator: Adobe Illustrator 22.0.1, SVG Export Plug-In . SVG Version: 6.00 Build 0)  -->
<svg version="1.1" id="Слой_1" xmlns="http://www.w3.org/2000/svg" xmlns:xlink="http://www.w3.org/1999/xlink" x="0px" y="0px"
	 viewBox="0 0 1200 1200" style="enable-background:new 0 0 1200 1200;" xml:space="preserve">
<style type="text/css">
	.st0{clip-path:url(#SVGID_2_);}
	.st1{fill:url(#SVGID_3_);}
	.st2{fill:#EA2E3A;}
	.st3{fill:#0072BC;}
	.st4{clip-path:url(#SVGID_5_);fill:#7F8183;}
	.st5{clip-path:url(#SVGID_5_);fill:url(#SVGID_6_);}
	.st6{fill:url(#SVGID_7_);}
	.st7{fill:url(#SVGID_8_);}
	.st8{fill:url(#SVGID_9_);}
	.st9{fill:url(#SVGID_10_);}
	.st10{fill:#EC9434;}
	.st11{fill:url(#SVGID_11_);}
	.st12{fill:#FFFFFF;}
	.st13{fill:url(#SVGID_12_);}
	.st14{fill:url(#SVGID_13_);}
	.st15{fill:url(#SVGID_14_);}
	.st16{fill:url(#SVGID_15_);}
	.st17{fill:url(#SVGID_16_);}
	.st18{fill:url(#SVGID_17_);}
	.st19{fill:url(#SVGID_18_);}
</style>
<defs>
	<path id="SVGID_1_" d="M597.9,8.7C270.2,8.7,4.7,274.3,4.7,601.9c0,327.7,265.5,593.2,593.2,593.2c327.5,0,593.2-265.5,593.2-593.2
		C1191.1,274.3,925.4,8.7,597.9,8.7z"/>
</defs>
<clipPath id="SVGID_2_">
	<use xlink:href="#SVGID_1_"  style="overflow:visible;"/>
</clipPath>
<g class="st0">
	<linearGradient id="SVGID_3_" gradientUnits="userSpaceOnUse" x1="-533.4147" y1="1854.6132" x2="1139.7164" y2="1.2127">
		<stop  offset="0.5662" style="stop-color:#20225D"/>
		<stop  offset="0.7607" style="stop-color:#0365B1"/>
		<stop  offset="0.8128" style="stop-color:#0773BB"/>
		<stop  offset="0.8878" style="stop-color:#0C80C4"/>
		<stop  offset="0.9571" style="stop-color:#0D84C7"/>
	</linearGradient>
	<path class="st1" d="M1151.2,603.6c0,306.6-248.6,555.2-555.3,555.2c-306.8,0-555.2-248.5-555.2-555.2
		C40.8,296.9,289.2,48.3,596,48.3C902.6,48.3,1151.2,296.9,1151.2,603.6"/>
	<path class="st2" d="M1151.2,603.6h-9.1c0,150.9-61.1,287.4-160,386.2c-98.9,98.8-235.4,160-386.2,160
		c-150.9,0-287.4-61.1-386.2-160C110.9,890.9,49.8,754.4,49.8,603.6c0-150.8,61.1-287.3,159.9-386.2c98.9-98.8,235.3-160,386.2-160
		c150.8,0,287.3,61.1,386.2,160c98.9,98.9,160,235.4,160,386.2H1151.2h9C1160.2,292,907.5,39.3,596,39.3
		C284.3,39.3,31.7,292,31.7,603.6c0,311.7,252.5,564.3,564.2,564.3c311.6,0,564.3-252.6,564.3-564.3H1151.2"/>
	<path class="st3" d="M596,15.9C271.3,15.9,8.3,279,8.3,603.6c0,324.6,263,587.7,587.7,587.7c324.5,0,587.7-263,587.7-587.7
		C1183.7,279,920.5,15.9,596,15.9z M596,1181.8c-319.5,0-578.2-258.8-578.2-578.2C17.7,284.2,276.5,25.3,596,25.3
		c319.4,0,578.3,258.9,578.3,578.3C1174.2,923,915.3,1181.8,596,1181.8z"/>
	<g>
		<defs>
			<path id="SVGID_4_" d="M989.7,605.9c0,212.5-171.9,384.8-384.1,384.8c-212.2,0-384.2-172.3-384.2-384.8
				c0-212.6,172-384.9,384.2-384.9C817.8,220.9,989.7,393.3,989.7,605.9"/>
		</defs>
		<clipPath id="SVGID_5_">
			<use xlink:href="#SVGID_4_"  style="overflow:visible;"/>
		</clipPath>
		<path class="st4" d="M989.7,605.9c0,212.5-171.9,384.8-384.1,384.8c-212.2,0-384.2-172.3-384.2-384.8
			c0-212.6,172-384.9,384.2-384.9C817.8,220.9,989.7,393.3,989.7,605.9"/>
		<radialGradient id="SVGID_6_" cx="576.0776" cy="572.7209" r="390.9751" gradientUnits="userSpaceOnUse">
			<stop  offset="0.1879" style="stop-color:#FFFFFF"/>
			<stop  offset="0.3596" style="stop-color:#FCFCFC"/>
			<stop  offset="0.488" style="stop-color:#F2F2F2"/>
			<stop  offset="0.6024" style="stop-color:#E2E2E2"/>
			<stop  offset="0.7086" style="stop-color:#CCCCCC"/>
			<stop  offset="0.8092" style="stop-color:#AEAEAE"/>
			<stop  offset="0.9046" style="stop-color:#8A8A8A"/>
			<stop  offset="0.996" style="stop-color:#606060"/>
			<stop  offset="1" style="stop-color:#5E5E5E"/>
		</radialGradient>
		<path class="st5" d="M989,600.2c0,215.9-175.1,391-391,391c-215.9,0-391-175.1-391-391c0-215.9,175-391,391-391
			C813.9,209.2,989,384.2,989,600.2z"/>
	</g>
	<radialGradient id="SVGID_7_" cx="602.9926" cy="604.0307" r="427.0446" gradientUnits="userSpaceOnUse">
		<stop  offset="0.2316" style="stop-color:#2A4F88"/>
		<stop  offset="0.7333" style="stop-color:#0365B1"/>
		<stop  offset="0.7769" style="stop-color:#07498E"/>
		<stop  offset="0.8242" style="stop-color:#0A3170"/>
		<stop  offset="0.8707" style="stop-color:#0D1F5A"/>
		<stop  offset="0.9154" style="stop-color:#0E154D"/>
		<stop  offset="0.9567" style="stop-color:#0F1149"/>
	</radialGradient>
	<path class="st6" d="M999.5,599.7c0-218.2-177.5-395.1-396.5-395.1c-218.9,0-396.5,176.9-396.5,395.1c0,123.9,57.3,234.6,147,307
		c4.4,4.3,8.6,8.1,12.2,11.3h0.1c5.8,5,13.7,10.1,22.7,15.4c23,13.5,53.4,27.7,70.4,35.4c-0.2,1.3-0.1,2.5,0.3,3.7
		c0.7,2.1,2.2,3.8,4.2,4.7l5.6,2.7l6.7,3.2h0l0.5,0.2c0.4,0.2,0.9,0.4,1.3,0.5l0.6,0.1l0.2,0v0c0.2,0.1,1.6,0.4,3.7,0.9
		c7.4,1.9,25.1,6.2,47,10.1c21.9,3.9,48.2,7.6,73.1,8.2h0.1c1.2,0,2.4,0,3.6,0c29.6-0.1,63.6-6.3,90.7-12.4
		c13.5-3.1,25.3-6.1,33.7-8.4c4.2-1.2,7.6-2.1,9.9-2.9c1.2-0.3,2.1-0.6,2.7-0.8l0.8-0.2l0.2-0.1l0.1,0h0.1l5.2-1.6
		c4-1.2,6.4-5.3,5.5-9.4l-0.3-1.4c3.4-1.8,7.3-4,11.8-6.4C903.7,897.9,999.5,759.9,999.5,599.7z M603,966.5
		c-38.3,0-75.2-5.8-109.9-16.6l3.4-27.2c5.5-1.3,12.9-3,21.2-5c16.9-4,36.9-8.6,48.9-11.4h0c10.9-2.5,21.1-5,29.2-6.9
		c3.9-0.7,7.1-1.3,9.4-1.8c1.1-0.2,2.1-0.4,2.7-0.5l0.8-0.1l0.2-0.1h0.1l2.8-0.5c5.2,1,13.8,2.7,23.6,4.6c16,3.1,34.9,7,46.8,9.6
		c0,0,0.1,0,0.1,0c11.9,2.7,22.2,5.4,29.4,7.4l0,0c1.3,0.4,2.5,0.7,3.6,1l6,28.1C684.1,959.8,644.3,966.5,603,966.5z M904.9,679.6
		L904.9,679.6L904.9,679.6L904.9,679.6z M881.9,663.3L881.9,663.3L881.9,663.3L881.9,663.3z M882.1,663.1L882.1,663.1L882.1,663.1
		L882.1,663.1z M914.5,607L914.5,607c-3.5,7.1-7.1,14.5-10.3,20.7l0,0c-1.5,3-2.9,5.8-4.1,7.9c-1.1,2.1-2.1,3.8-2.4,4.3l0-0.1
		c-2.6,4.1-6.7,10.2-10.1,15l0,0c-1.7,2.4-3.2,4.6-4.3,6.2c-0.6,0.8-1,1.4-1.3,1.8l-0.4,0.5l0,0v0v0l0,0c0,0,0,0.1-0.1,0.1l0,0v0
		l-0.1,0.1l-4.6,6.6c-0.8,0.7-1.4,1.6-1.8,2.6l-18.1,26.2c-2.5,3.7-1.6,8.7,2.1,11.3l9.9,6.8l-9.9,75.9c-3.9,3-9.1,7.5-16.1,14.6
		l0,0c-13.9,13.8-32,28.4-46.6,38.9h0c-14,10.1-29.4,20.4-42.6,29.2c-6.6,4.4-12.6,8.3-17.7,11.7c-3.4,2.2-6.2,4.2-8.6,5.8
		c-2.2-0.6-5.3-1.5-9.2-2.6c-7.6-2-18.1-4.8-30.3-7.6c0,0,0,0,0,0c0,0,0,0,0,0c-18.5-4.1-52-10.7-67.8-13.8l0.3-125.6v-3.3
		c0-2.8-1.4-5.4-3.7-6.9l-2.8-1.8l-59.9-38.1l14.5,3.9c1.6,0.4,3.3,0.4,4.9-0.2l225.4-80.7c2.2-0.8,3.9-2.4,4.7-4.5
		c0.9-2.1,0.9-4.5-0.1-6.6l-36.4-78.5l0-0.1l-39.1-81.3c3.6-4.6,15.7-20.2,28-36.8c7.2-9.9,14.6-20,20.2-28.5l0,0
		c1.3-2,2.5-3.8,3.6-5.6c6.6,3.5,15.1,8,24.1,12.8c19.4,10.4,40.6,21.6,47.9,25.5c10.2,5.6,22.3,12,28.7,15.4
		c0.4,1.1,0.9,2.3,1.5,3.8c3.1,8,8,20.7,12.8,33.8c4.7,13.1,9.5,26.6,12.2,35.9l0,0.1c3.6,12.4,8.6,34.3,12.6,52.6
		c2.7,12.4,4.9,23.2,6.1,29C923.4,588.7,919.2,597.5,914.5,607z M460,877.1c-12.8-8.8-26.4-18.1-34.7-23.6l0,0
		c-4.3-2.7-11.6-8-20.1-14.2c-8.5-6.2-18.1-13.4-27.1-20.2c-9-6.8-17.4-13.3-23.7-18l0,0c-2.2-1.7-4-3.1-5.5-4.2l-13.3-102.3
		l80.8-38l47.1,12.7l129.2,82.2l-0.3,119.8c-0.1,0-0.1,0-0.2,0.1l-0.1,0c-0.6,0.1-1.3,0.3-2,0.5c-14.9,2.8-38.7,7.6-56.3,12h0.1
		c-18.8,4.6-37.7,9.2-47.1,11.6C480.7,891.4,470.7,884.5,460,877.1z M517.6,291.6c4.5-0.4,11.6-1.1,20.2-1.8
		c14.3-1.1,32.4-2.2,46.8-2.2h0l0,0h0.2c2.8,0,5.5,0,8,0.1c15.4,0.6,39.2,0.5,60.4,1c10.5,0.3,20.4,0.7,27.8,1.3l0,0
		c3.6,0.3,6.8,0.7,8.7,1.1l0.1,0c0.3,0,0.5,0.1,0.9,0.2c1.9,1.9,5,5,9.1,9c10.2,10.1,25.4,25.3,38.5,38.5
		c6.5,6.6,12.5,12.7,16.8,17.3v0c0.7,0.8,1.4,1.5,2,2.1c-2.8,4.7-7.2,11.2-12.4,18.5c-5.5,7.8-11.8,16.3-17.7,24.2
		c-5.9,7.9-11.4,15.1-15.5,20.3l0,0c-0.9,1.2-1.8,2.3-2.5,3.2c-4.4,0.1-10.9,0.2-18.6,0.4c-14.7,0.2-33.7,0.5-50.4,0.5
		c-0.5,0-0.9,0-1.4,0c-8,0-15.5-0.1-21.7-0.2c-6.1-0.1-11-0.4-13-0.7h0c-3.1-0.4-7-0.6-11.6-0.7c-4.5-0.2-9.8-0.2-15.6-0.2
		c-26.3,0-62.3,1.1-76.9,1.6l-26.5-30c-1-1.2-2.1-2.5-3.1-3.8c-8.1-9.9-16.2-19.8-22.9-27.4c-0.9-1.1-1.8-2-2.6-3L517.6,291.6z
		 M336.2,423.9c8.2-4.3,25.6-13.6,43.5-23.1c12.3-6.5,24.6-13.1,34.1-18.1c2.7-1.4,5.1-2.7,7.2-3.9l30.6,34.6
		c1.5,1.8,2.9,3.6,4.3,5.4c6.4,7.9,12.2,15.3,16.5,20.7c0.7,0.9,1.3,1.7,1.9,2.5l-6.8,17.5L383.7,640L324.9,665l-44.6-75.6
		L336.2,423.9z M887.3,796.5L901.9,684l2.9-4.2l0,0c0.2-0.3,3-4.3,6.5-9.2c3.4-5,7.5-10.9,10.4-15.6l0-0.1c0,0,0-0.1,0-0.1
		c1-1.6,2.1-3.6,3.4-6c1.2-2.4,2.7-5.2,4.3-8.4l0,0c4.8-9.5,10.7-21.6,15.5-31.5c2.4-4.9,4.4-9.3,5.9-12.4c0.7-1.5,1.4-2.8,1.8-3.7
		c0.1-0.2,0.2-0.4,0.3-0.6l18.2-2c0.1,3.1,0.1,6.3,0.1,9.4c0,78.5-24.7,151.1-66.8,210.8L887.3,796.5z M318.2,401.5L318.2,401.5
		L318.2,401.5L318.2,401.5z M253.9,600.4l52.4,88.7l15.2,116L306,816.6c-44.2-60-70.6-133.8-71.3-213.7
		C240.1,602,247.6,601.1,253.9,600.4z M895.7,404.5c-0.2-0.1-0.3-0.2-0.5-0.3c-1.9-1-4.6-2.5-7.7-4.1c-6.5-3.4-14.7-7.8-21.8-11.7
		l0,0l0,0l-0.1,0l0,0c-12.8-6.8-70.1-37.3-82.6-44c-1.6-1.8-3.8-4.2-6.6-7.1c-2.8-2.9-6.2-6.4-9.9-10.2
		c-16.2-16.6-39.2-39.4-50.7-50.8l17.1-20c49.5,18.6,94,47.5,130.7,84.1c16.4,16.4,31.4,34.3,44.5,53.6L895.7,404.5z M480,253.8
		l13.8,21.5l-78.3,74.4c-0.9,0.5-2.3,1.3-3.9,2.2l0,0c-10.5,5.7-34,18.2-54.7,29.2c-10.4,5.5-20.1,10.7-27.3,14.4
		c-3.5,1.9-6.5,3.4-8.4,4.5c-1,0.5-1.8,0.9-2.3,1.2l-0.7,0.3l-18.5-10c12.7-18.3,27.1-35.5,42.8-51.2C381,302,427.8,272.2,480,253.8
		z M478.2,984.2L478.2,984.2L478.2,984.2L478.2,984.2z"/>
	<linearGradient id="SVGID_8_" gradientUnits="userSpaceOnUse" x1="567.4957" y1="460.4762" x2="614.174" y2="757.02">
		<stop  offset="0" style="stop-color:#F3F4F4"/>
		<stop  offset="0.1576" style="stop-color:#FFFFFF"/>
		<stop  offset="1" style="stop-color:#BCBEC0"/>
	</linearGradient>
	<path class="st7" d="M287,711.7c0,0-21.1-35.4-21.1-47.6c0-12.2-1.2-21-1.2-21s4.5-8.8,7.8-9.8c3.3-1.3,11-3.4,11-3.4
		s5.5-16.6,2.3-26.6c-3.4-10-1.2-21-1.2-21s-4.4-5.5,1.2-16.6c5.5-11,13.2-26.5,13.2-29.9c0-3.3,7.8-11.1,15.4-18.8
		c7.8-7.7,22.2-11,22.2-11l7.7-1.1l22.1-25.4c0,0,5.6-3.3,10-11.1c4.6-7.7,12.1-12.2,12.1-12.2s17.8,5.6,13.4,11.1
		c-4.5,5.5,0,14.3,0,14.3l-1.1,14.5l-10,13.2l-14.4-5.5l-3.2-12.2c0,0-15.4,18.8-12.1,21.1c3.3,2.2,16.5,4.4,16.5,4.4l12.1-3.3
		l10-6.6l10-7.8c0,0,6.8,1.1,6.8,6.7c0,5.5-4.6,11-4.6,11l15.5-2.2l2.3-14.4c0,0,6.6,0,7.6,8.8c1.2,8.8,0,13.2,4.5,16.6
		c4.4,3.3,10.1,3.3,10.1-1.2c0-4.3,5.4-14.3,5.4-14.3s-5.4-5.5-3.2-14.3c2.1-8.8,12.1-19.9,12.1-19.9s1.1,1.1,19.9-4.5
		c18.8-5.6,25.4-7.8,25.4-7.8h16.6c0,0-1,6.6-16.6,11.1c-15.4,4.5-36.4,4.5-40.9,15.5c-4.5,11.1-4.5,18.8-3.4,22.1
		c1.1,3.3,17.7,23.2,17.7,23.2s-1.2,5.6,4.4-3.3c5.5-8.8,11.1-14.3,14.5-17.6c3.2-3.4,8.9-5.5,12.1-8.8c3.3-3.3,6.6-9.9,7.7-6.7
		c1.2,3.4-1.1,13.3-2.2,16.5c-1.1,3.4,8.9-6.6,8.9-6.6l9.9,7.7l10,11.1l2.3-16.7c0,0,3.3-7.7,8.9-4.4c5.4,3.3,16.5,5.5,18.7-3.3
		c2.3-8.8,0-14.4,12.1-18.8c12.2-4.3,16.8-2.2,23.3-8.8c6.7-6.7,4.4-13.4-3.3-23.3c-7.8-10-11.1-12.2-9.9-19.9
		c0.8-7.7,8.7-14.4,13.2-5.6c4.4,8.8,10.9,22,10.9,22l2.4,16.6l8.8,10.1c0,0,8.9-4.5,13.3,4.5c4.4,8.8,14.4,9.9,7.8,17.6
		c-6.8,7.8-16.8,14.4-4.5,13.2c12.3-1.1,23.2-2.2,23.2-2.2l17.7,5.5c0,0-1.1-11.1,4.4-13.2c5.6-2.3,24.3-6.7,27.7,4.4
		c3.2,11,10.9,22.2,15.5,12.2c4.3-10,12-16.5,12-16.5s1.1-7.8-4.3-13.4c-5.7-5.5-6.7-6.7-15.6-12.1c-8.8-5.7-16.5-5.7-12.2-12.3
		c4.6-6.5,13.3-13.2,16.7-13.2c3.3,0,14.2,1.1,14.2,1.1s-8.9,1.1-5.4,13.3c3.2,12.2,11,16.5,11,16.5l8.8,3.3c0,0,6.6-9.9,11-8.8
		c4.5,1.1,12.2,6.6,12.2,6.6s4.4-6.6,7.7-11c3.3-4.4,15.5,0,15.5,0s9.9,9.9,9.9,3.3c0-6.6-5.5-14.4-1-17.6
		c4.3-3.4,7.8-14.6,7.8-14.6l15.4-17.6l21.1-5.5l17.6,10c0,0,0,8.8-3.3,13.2c-3.4,4.5-2.2,4.5-5.6,14.6c-3.1,9.9,11.2,0,14.6,7.7
		c3.2,7.7,7.6,6.6,7.6,26.5c0,19.9-5.4,21.1-6.6,30.9c-1,10-2.1,24.4,5.5,29.9c7.8,5.5,22.3,13.3,22.3,26.6
		c0,13.3,5.6,26.5,5.6,46.5c0,19.9,2.2,44.2-2.3,51.9c-4.2,7.8-8.9,16.5-8.9,22.1c0,5.5-5.5,14.5-5.5,14.5s-6.6,1-5.6-5.6
		c1.1-6.6,14.5-24.3,15.7-33.2c1-8.9,3.2-37.6-2.4-46.5c-5.5-8.9-19.9-18.8-19.9-28.7c0-10-6.5-36.5-7.8-43.2
		c-1-6.6-9.9-22.1-13.3-17.6c-3.1,4.4-8.8,22.1-5.4,26.5c3.3,4.4,0,19.9,0,19.9s-15.4,3.4-18.8,9.9c-3.4,6.8-11,18.9-12.1,28.9
		c-1.2,9.9-4.4,18.8-2.2,28.8c2.2,10,2.2,11,8.8,7.8c6.6-3.4,14.3-10,14.3-10s22.1,10,24.3,16.7c2.3,6.6,1.1,22,1.1,22l6.7,11
		l-2.1,12.3c0,0-6.5-3.4-10-10c-3.4-6.7-15.4-18.8-15.4-18.8s5.5,7.7,6.5,22.2c1.3,14.3,3.4,33.1-1,47.5
		c-4.4,14.5-24.3,28.8-24.3,28.8l-8.8,3.3c0,0-6.7-3.3,2.2-15.5c8.7-12.2,6.6-21,6.6-25.5c0-4.4-3.3-16.6-7.8-7.8
		c-4.5,8.8-11,12.2-11,12.2s-7.7-8.9-11.1-8.9c-3.2,0-4.3,6.7-10.9-1.1c-6.7-7.7,1-14.3-18.9-17.7c-19.9-3.4-20.9,2.2-19.9,5.6
		c1.2,3.3,2.2,7.7,1.2,17.6c-1.2,10-1.2,13.3-11.2,16.6c-9.9,3.3-7.6,8.9-17.7,8.9c-9.9,0,1.3,2.1-19.8,8.8
		c-21.1,6.6-39.8,14.4-45.4,7.6c-5.5-6.4-16.6-4.3-16.6-4.3s-8.8,1.1-17.7-6.7c-8.9-7.7-12.3-13.3-16.5-6.7
		c-4.5,6.7,10,18.8-4.5,19.9c-14.5,1.2-9.9,3.3-26.5-3.3c-16.6-6.6-13.3-12.1-24.4-7.8c-11,4.5-12,13.3-26.5,9.9
		c-14.4-3.2-19.8-2.1-23.3-13.2c-3.2-11.1-14.2-3.3-24.2-16.6c-10-13.3-2.2-41-19.9-44.2c-17.7-3.4-31-2.3-32.2-13.4
		c-1-11-17.6-18.8-34.2-17.6c-16.6,1.1-14.5,1.1-16.6,10c-2.2,8.9-8.6,26.5-16.5,18.8c-7.7-7.7-15.4-11.2-20-21.1
		c-4.4-9.8-12.2-14.3-15.5-22c-3.3-7.7-12-13.3-22.1-10c-9.9,3.3-15.3,0-9.9,12.2c5.5,12.1,11.1,21,3.3,21c-7.6,0-6.8-6.6-9.9,6.7
		c-3.3,13.2-4.5,25.4-4.5,25.4L287,711.7"/>
	<linearGradient id="SVGID_9_" gradientUnits="userSpaceOnUse" x1="726.8983" y1="427.533" x2="770.8317" y2="768.015">
		<stop  offset="0" style="stop-color:#DF3E40"/>
		<stop  offset="8.438972e-03" style="stop-color:#DF4141"/>
		<stop  offset="7.385302e-02" style="stop-color:#E15748"/>
		<stop  offset="0.1367" style="stop-color:#E2654D"/>
		<stop  offset="0.1939" style="stop-color:#E2694E"/>
		<stop  offset="0.697" style="stop-color:#DF3E40"/>
		<stop  offset="1" style="stop-color:#C73739"/>
	</linearGradient>
	<path class="st8" d="M728.2,511.4c0,0,15.5,2.3,20.1-6.6c4.4-8.8,9.8-14.3,1-23.3c-8.9-8.8-25.5-7.7-26.6-14.3
		c-1-6.7,5.5-12.1,12.2-15.5c6.6-3.4,21-3.4,17.8-2.3c-3.4,1.2-5.6,10.1,1,20c6.7,10,8.9,19.9,13.4,13.2c4.3-6.6,9.8-10,16.5-7.7
		c6.7,2.3,9.9,6.6,9.9,6.6s-3.2-7.7,4.5-12.1c7.7-4.4,11.1-2.2,18.8,0c7.7,2.2,4.4-1.1,4.4-8.9c0-7.7,3.3-12.3,8.8-19.9
		c5.5-7.7,13.3-13.3,15.5-17.7c2.1-4.3,11-7.7,17.7-7.7c6.7,0,20.1,8.9,20.9,12.2c1.1,3.3,1.1,3.3-3.2,13.3
		c-4.6,10-13.3,17.7-4.6,21.1c8.9,3.3,10.1-8.9,15.6,7.7c5.5,16.6,8.8,13.2,4.4,27.6c-4.4,14.4-8.8,23.3-6.5,28.8
		c2.1,5.4,3.4,13.3,6.5,18.8c3.2,5.5,18.9,11,23.3,24.3c4.4,13.3,1,13.3,2.2,27.7c1,14.3,4.3,22,4.3,36.5c0,14.2-1,27.6-2.2,37.5
		c-1.2,10-6.6,8.8-10,21c-3.3,12.3-2.1,24.4-6.5,19.9c-4.5-4.4-6.8-12.2,0-19.9c6.5-7.7,12.1-25.5,11.1-35.3
		c-1.2-10.1,5.4-25.5-4.6-36.6c-10-11-18.6-6.6-18.6-22c0-15.6-4.5-26.6-6.8-39.9c-2.1-13.2-2.1-30.9-9.9-21
		c-7.7,9.9-12.1,7.8-10.9,18.8c1.1,11.1,3.2,22.1,3.2,22.1s-8.9,0-14.3,7.7c-5.5,7.8-10,8.8-15.5,25.4c-5.5,16.6-4.3,28.9-4.3,36.5
		c0,7.8-6.7,15.6,3.4,13.4c9.9-2.3,11-14.5,22-10c11.2,4.4,17.8,1.1,21.3,14.3c3.2,13.3,0.9,12.2,4.3,22.1c3.3,10,8.8,13.2,2.2,17.7
		c-6.5,4.5-8.9-3.2-14.5-7.6c-5.4-4.5-12.1-15.6-12.1-15.6s6.7,16.7,6.7,42.1c0,25.4-1.1,33.2-14.4,45.3
		c-13.2,12.1-27.7,23.2-24.3,13.3c3.3-10,11.1-17.7,12.1-27.7c1-10-1.1-26.6-2.3-26.6c-1,0-1,11.1-7.8,13.4
		c-6.6,2.2-18.7-3.4-18.7-3.4s-7.9,0-12.2-4.4c-4.4-4.4-6.6-15.5-12.1-16.6c-5.6-1-23.3-5.5-23.3,0c0,5.6,2.1,19.9-1.2,31
		c-3.3,11.1-4.5,7.8-13.2,14.4c-8.9,6.6-11.2,1.1-24.4,7.8c-13.1,6.6-31.9,10.9-43.1,13.3c-11.1,2.2-34.2,2.2-40.9-5.5
		c-6.6-7.7-11-21-15.4-15.5c-4.5,5.6-4.5,5.6-3.3,13.3c0.9,7.8,0,13.3-8.9,10.9c-8.8-2-18.9-2-18.9-2v2L728.2,511.4"/>
	<linearGradient id="SVGID_10_" gradientUnits="userSpaceOnUse" x1="529.8222" y1="470.7224" x2="584.7393" y2="794.734">
		<stop  offset="0" style="stop-color:#0072BC"/>
		<stop  offset="1.072957e-02" style="stop-color:#0076BF"/>
		<stop  offset="7.532432e-02" style="stop-color:#008CCF"/>
		<stop  offset="0.1375" style="stop-color:#009AD8"/>
		<stop  offset="0.1939" style="stop-color:#009EDB"/>
		<stop  offset="0.697" style="stop-color:#0072BC"/>
		<stop  offset="1" style="stop-color:#0064A6"/>
	</linearGradient>
	<path class="st9" d="M370,701.7l54.1-120.6l45.3-93.9c0,0-7.7,11-4.5,18.8c3.4,7.7,16.7,25.3,16.7,25.3s9.9-7.7,14.3-13.2
		c4.4-5.5,26.5-21.1,26.5-21.1l-1.1,11.1c0,0,6.6-4.4,11.1-1.1c4.5,3.3,13.1,13.3,13.1,13.3s5.7-8.9,5.7-11.1c0-2.2,5.6-3.3,8.8-4.4
		c3.3-1.1,8.8,3.3,13.2-1.1c4.4-4.4,10.1-13.2,12.1-16.5c2.2-3.5,12.1-3.5,19.9-9c7.8-5.5,14.4-11,9-22.1
		c-5.5-11-13.4-24.2-10.1-29.8c3.4-5.6,8.9-9,13.3,2.2c4.5,11,8.7,19.8,10,28.8c1.1,8.7,6.7,13.1,6.7,13.1s9.9-6.6,14.3,4.5
		c4.4,11.1,16.6,14.4,8.9,21.1c-7.9,6.7-7.9,11-7.9,11s13.3,0,21.1,1.1c7.8,1.1,13.3,3.3,16.6,4.4c3.4,1.1,6.6-4.4,6.6-4.4
		s2.4-9.9,5.6-12.1c3.2-2.3,16.6-3.4,16.6-3.4s5.6,3.4,7.7,7.8c2.3,4.4,4.4,4.4,6.6,9.9c2.2,5.5,6.8,10,6.8,10L599.9,786.7
		c0,0-15.5-15.3-40.9-4.3c-25.1,10.9-11,11.1-35.4-3.3c-12.1-7.2-20.9-16.6-26.5-18.8c-5.5-2.2-7.8-14.5-8.8-21
		c-1-6.7-7.7-19.9-9.9-25.3c-2.2-5.6-5.5-5.6-11.1-5.6c-5.5,0-16.5,3.3-22.1-2.2c-5.5-5.7-3.3-15.6-8.9-18.9
		c-5.4-3.3-22-9.9-27.6-7.7c-5.5,2.2-18.9,2.2-22.3,6.6c-3.1,4.4-5.2,9.9-5.2,14.3c0,4.5-8.9,8.9-8.9,8.9L370,701.7"/>
	<path class="st10" d="M285.9,708.3l3.9-2.3c0,0-1.3-2.1-3.3-5.6c-2.9-5.2-7.3-13.3-11-21.1c-1.8-3.9-3.4-7.7-4.5-11
		c-1.1-3.3-1.8-6.1-1.7-7.4c0-12.5-1.1-21.4-1.1-21.6l-4.5,0.6l4,2.1l0.7-1.3c0.6-1.2,1.8-3,2.8-4.5l1.5-1.8l0.4-0.3v0l-0.6-1
		l0.4,1.1l0.3-0.1l-0.6-1l0.4,1.1h0h0c1.4-0.5,4.3-1.4,6.5-2c2.4-0.7,4.3-1.2,4.3-1.2l2.3-0.6l0.8-2.3c0.1-0.2,3.5-10.2,3.5-20.3
		c0-3-0.4-6.1-1.3-9.1l-4.3,1.4l4.3-1.4c-1.2-3.7-1.6-7.9-1.6-11.3c0-2.2,0.1-4.1,0.3-5.5l0.2-1.5l0.1-0.4l0.4-2l-1.3-1.6l-2.1,1.6
		l2.1-1.5l-0.1-0.1l-2.1,1.6l2.1-1.5l-0.1-0.1c-0.2-0.4-0.7-1.5-0.7-3.4c0-1.9,0.5-4.6,2.3-8.4c2.7-5.4,6-12.1,8.7-17.9
		c1.4-2.9,2.5-5.6,3.4-7.8c0.4-1.1,0.8-2.1,1.1-3.1c0.3-1,0.5-1.8,0.6-3.1h-1.7l1.7,0.4l0-0.4h-1.7l1.7,0.4l0-0.1
		c0.2-0.8,2.1-3.4,4.8-6.2c2.6-2.9,6-6.3,9.4-9.7c3.1-3.1,8.1-5.8,12.4-7.4c2.1-0.8,4-1.4,5.4-1.8l1.6-0.4l0.5-0.1l-1-4.4l0.7,4.5
		l7.8-1.1l1.7-0.2l1.1-1.3l22.1-25.4l-3.4-3l2.3,3.8c0.4-0.3,6.5-4.1,11.5-12.7c1.8-3.2,4.5-5.9,6.7-7.8c1.1-0.9,2.1-1.6,2.8-2.1
		l0.8-0.5l0.3-0.1l-2.3-3.9l-1.3,4.3l0.4,0.2c1.2,0.4,4.5,1.5,7.1,3c1.2,0.7,2.4,1.5,3,2l0.4,0.5l1.2-0.7h-1.4l0.2,0.7l1.2-0.7h-1.4
		h1.6l-1.3-1l-0.3,1h1.6l-1.3-1l0,0l0,0.1c-2.3,2.8-2.9,6.2-2.9,9c0,5.6,2.3,9.9,2.4,10.2l4.1-2l-4.5-0.4l-1.1,14.4l4.5,0.4
		l-3.6-2.7l-10,13.3l3.6,2.7l1.6-4.2l-14.3-5.5l-1.6,4.2l4.4-1.2l-3.3-12.2l-2.3-8.4l-5.6,6.8c0,0-3.2,3.9-6.5,8.5
		c-1.6,2.3-3.3,4.7-4.6,7c-0.7,1.2-1.3,2.3-1.7,3.4c-0.4,1.2-0.9,2.3-0.9,3.8l0.5,2.4l2,2.4c1.6,1.1,3.2,1.6,5.1,2.1
		c5.6,1.7,13.1,3,13.2,3l1,0.2l1-0.3l12.2-3.3l0.7-0.2l0.5-0.4l10.2-6.7l0.1-0.1l0.1-0.1l10-7.7l-2.8-3.6l-0.7,4.5l0.3-1.8l-0.3,1.8
		h0l0.3-1.8l-0.3,1.8l1.9,0.8l0.9,1.5c0,1.5-0.7,3.7-1.6,5.4l-1.2,2.1l-0.4,0.5l-0.1,0.1l-7,8.9l11.2-1.6l15.6-2.2l3.3-0.5l0.5-3.3
		l2.1-14.4l-4.5-0.7v4.5V500l-0.2,1.6h0.2V500l-0.2,1.6l1.4,0.6c0.6,0.5,1.4,1.3,1.8,4.3c0.5,4.2,0.5,7.3,1,10.5
		c0.3,3.1,2,6.8,5.2,9.1l2.7-3.7l-2.7,3.6c2.8,2.1,5.8,3.3,9.1,3.4c1.8,0,3.9-0.5,5.6-1.9c1.8-1.5,2.7-3.9,2.6-6.1
		c0-0.2,0.2-1.4,0.6-2.7c0.7-2,1.8-4.5,2.7-6.3l1.2-2.3l0.4-0.9l1.6-3l-2.4-2.4l-1.6,1.6l1.7-1.6l0,0l-1.6,1.6l1.7-1.6
		c0,0-2.5-2.8-2.5-7.1c0-0.9,0.1-2,0.4-3.1c0.8-3.4,3.5-8.2,6.1-11.8c1.3-1.8,2.5-3.4,3.5-4.5l1-1.3l0.4-0.4l-3.4-3l-3.1,3.3
		l2.2,1.2l1.6,0.2c2.5,0,7-0.7,20.5-4.7c18.9-5.6,25.6-7.8,25.6-7.8l-1.4-4.3v4.5h16.6v-4.5l-4.5-0.8l2.3,0.4l-2.2-0.7l-0.1,0.3
		l2.3,0.4l-2.2-0.7l-0.3,0.6c-0.9,1.2-3.7,4.5-13.2,7.3c-7.3,2.1-16.4,3.2-24.5,5.2c-4.1,1-8,2.3-11.4,4.2c-3.4,2-6.4,4.8-8,8.8
		l4.2,1.7l-4.2-1.7c-3.2,7.7-4.3,14.1-4.3,18.9c0,2.5,0.3,4.5,0.9,6.4l4.3-1.5l-4.3,1.4c0.5,1.3,0.9,1.9,1.6,3
		c2.2,3.3,6.3,8.6,10,13.2c3.7,4.6,6.8,8.4,6.8,8.4l3.5-2.9l-4.5-0.8l-0.1,1.6c0,0.5,0,1.1,0.4,2.2l1.3,2c0.8,0.7,2.2,1.3,3.3,1.3
		c1.7-0.1,2.6-0.7,3.3-1.1c1.7-1.4,2.7-2.9,4.7-6.1c5.1-8.4,10.4-13.5,13.8-16.9c2.2-2.4,7.6-4.5,12.1-8.7l0,0v0
		c1.7-1.8,3.1-3.8,4.3-5.2l1.3-1.5l0.1-0.1l-1.9-2.3v2.9c1.6-0.1,1.8-0.6,1.9-0.6l-1.9-2.3v2.9v-3.8l-2.8,2.7
		c0.5,0.6,1.8,1.2,2.8,1.2v-3.8l-2.8,2.7l2-1.9l-2.6,0.9l0.7,1l2-1.9l-2.6,0.9l0.5-0.1l-0.5,0.1v0l0.5-0.2l-0.5,0.1l0.1,1.1
		c0.1,3.3-1.5,10.5-2.3,12.6l4.3,1.4l-4.3-1.5l-0.3,1.9c0,0.7,0.1,2,1.2,3.3c1.1,1.2,2.7,1.6,3.5,1.5c1.1,0,1.6-0.3,2.1-0.5
		c1.5-0.7,2.2-1.3,3.2-2.1c2.9-2.3,6.6-5.9,6.6-5.9l-3.2-3.3l-2.8,3.6l10,7.7l2.8-3.5l-3.3,3l9.9,11l6.5,7.2l1.4-9.6l2.3-16.5
		l-4.4-0.6l4.2,1.8l-1.3-0.6l1.3,0.6v0l-1.3-0.6l1.3,0.6l1.1-1.7l0.8-0.7l0.1-0.1l-0.1-0.2v0.2h0.1l-0.1-0.2v0.2l0.4,0.2l0,0l0,0
		c3.3,2,7.8,3.5,12.4,3.6c2.6,0,5.3-0.5,7.8-2.1c2.5-1.6,4.5-4.3,5.2-7.6l-4.4-1.1l4.4,1.2c1.3-5.1,1.4-8.7,2.2-10.6l1.8-2.4
		c1-0.8,2.7-1.8,5.4-2.8c5.6-2,9.3-2.5,13.2-3.3c3.8-0.9,8-2.6,11.8-6.5c3.2-3.2,5.2-7.2,5.2-11.4c-0.1-6.2-3.5-11.5-8.2-17.8l0,0
		l0,0c-3.5-4.4-6-7.3-7.5-9.4c-1.4-2.2-1.7-3-1.8-4.9l0.2-2.1l-4.4-0.7l4.4,0.7c0.3-1.7,1.1-3.6,2.1-4.7l1.2-1.1l0.4-0.2h0v-0.3
		l-0.1,0.3l0.1,0v-0.3l-0.1,0.3l0.3,0.3l1,1.5l4.1-2l-4.1,2c4.4,8.9,11.1,22.2,11.1,22.2l4-2l-4.5,0.6l2.2,16.6l0.2,1.4l0.9,1
		l8.9,10l2.3,2.6l3.1-1.5l-0.6-1.1l0.6,1.1h0l-0.6-1.1l0.6,1.1c0.1-0.1,1.6-0.6,2.9-0.6l2.1,0.5c0.6,0.4,1.3,1,2.2,2.6
		c2.1,4.3,5.2,7,7.2,8.8c1.1,1,1.8,1.7,2.1,2.2l0.2,0.3l0.5-0.2h-0.6l0,0.2l0.5-0.2h-0.6h0.4l-0.4-0.1v0.1h0.4l-0.4-0.1
		c0,0.1-0.2,0.6-1.1,1.7c-2,2.3-4.5,4.7-6.6,6.9c-1.1,1.1-2,2.1-2.9,3.2c-0.8,1.2-1.7,2.2-1.9,4.8c0,1,0.3,2.3,1,3.3
		c1.1,1.5,2.5,2,3.5,2.3c1.1,0.3,2.1,0.4,3.3,0.4c0.9,0,1.8,0,2.7-0.1c12.2-1.1,23.3-2.2,23.3-2.2l-0.4-4.5l-1.4,4.3l17.6,5.5l6.4,2
		l-0.6-6.7l0-0.3l0-1.1c0-1.3,0.1-3.5,0.6-5l0.7-1.7l0.5-0.4l0,0h-0.1c2.2-0.9,8-2.5,12.9-2.4c2.5,0,4.7,0.4,6.1,1.1
		c1.5,0.7,2.2,1.4,2.6,2.9c1.3,4.4,3.2,8.7,5.6,12.2c1.2,1.8,2.4,3.3,4,4.6c1.6,1.2,3.5,2.4,6,2.4c1.9,0,3.9-0.8,5.2-2
		c1.4-1.3,2.4-2.8,3.1-4.5c1.9-4.4,4.7-8.3,7-10.9c1.1-1.4,2.1-2.4,2.8-3.1l0.8-0.8l0.3-0.2l1.3-1.1l0.2-1.7c0-0.2,0.1-1,0.1-2.4
		c0-3.2-0.7-9.5-5.8-14.7l0,0v0c-5.4-5.3-7.3-7.3-16.2-12.8c-3.9-2.4-7.6-3.8-9.8-4.9c-1.1-0.5-1.8-1-1.9-1.1h0l-1.2,1.1h1.5
		l-0.3-1.1l-1.2,1.1h1.5h-1l1,0.2v-0.2h-1l1,0.2l0.1-0.2l0.4-0.8c1.9-2.8,4.9-5.9,7.7-8.1c1.4-1.1,2.8-2,3.8-2.6l1.2-0.6l0.2-0.1
		l-0.2-1.1v1.1h0.2l-0.2-1.1v1.1c1.3,0,5,0.3,8.2,0.5c3.1,0.2,5.9,0.5,5.9,0.5l0.5-4.5l-0.6-4.5c-0.4,0-2.7,0.3-5.2,2.2
		c-2.6,1.7-5.1,5.6-5.1,10.7c0,1.9,0.3,3.9,0.9,6.2c3.8,13.7,12.6,18.9,13.2,19.2l0.3,0.2l0.3,0.1l9,3.3l3.4,1.3l2-3l0.2-0.3
		c0.5-0.7,2-2.7,3.5-4.3l2.2-1.9l0.7-0.3l0.1,0l-0.1-0.7v0.7h0.1l-0.1-0.7v0.7v-1.4l-0.3,1.4l0.3,0v-1.4l-0.3,1.4l1-4.4l-1.1,4.4
		c1.1,0.3,4.1,1.8,6.5,3.3c1.2,0.7,2.3,1.4,3,1.9l1.2,0.9l3.9,2.7l2.5-3.9c0,0,1-1.6,2.5-3.8c1.5-2.2,3.4-4.9,5-7v0l0,0l-0.5-0.4
		l0.3,0.5l0.2-0.1l-0.5-0.4l0.3,0.5l0.5-0.1l1.5-0.1c1.6,0,3.9,0.4,5.6,0.8l2.1,0.6l0.7,0.3l1.6-4.3l-3.2,3.2
		c0.1,0.1,1.6,1.5,3.6,3.1c1,0.8,2.1,1.6,3.3,2.3c1.3,0.7,2.6,1.4,4.7,1.5c1.4,0.1,3.6-0.7,4.8-2.3c1.1-1.5,1.3-3.1,1.3-4.5
		c0-3.3-0.9-6.1-1.6-8.5c-0.7-2.4-1.2-4.5-1.2-5.3l-0.1-0.3c3.4-2.9,5.3-6.8,6.9-10.3c1.5-3.4,2.3-6.3,2.4-6.5l-4.3-1.3l3.4,3
		l15.5-17.6l-3.4-3l1.1,4.4l20.9-5.5l-1.1-4.4l-2.2,3.9l17.7,10l2.2-4h-4.5l0,1.2c0,1.2-0.2,3.1-0.6,4.9c-0.4,1.8-1,3.6-1.7,4.4
		c-1.8,2.3-2.8,4.4-3.5,6.5c-0.6,2.1-1.2,4.3-2.8,9.1v0l0,0.1c-0.4,1.2-0.7,2.4-0.7,3.7c0,1,0.2,2.1,0.7,3.2
		c0.9,1.7,2.5,2.8,3.8,3.2c1.3,0.4,2.3,0.5,3.3,0.5c2.1,0,3.9-0.3,5.3-0.3c1,0,1.7,0.1,1.9,0.3l0.2,0.3v0h0c1,2.3,2.1,4,3,5.3
		c1.4,2,2.1,3.1,2.9,5.5c0.7,2.5,1.3,6.6,1.3,13.8c0,9.6-1.3,14-2.6,17.7c-1.2,3.5-3.2,7-3.9,12.9l0,0v0c-0.4,3.7-0.8,8-0.8,12.4
		c0,3.9,0.3,7.9,1.5,11.7c1.1,3.7,3.2,7.5,6.7,10c4,2.9,9.4,6.1,13.5,10c4.2,3.9,6.9,8,6.8,12.8c0.1,14.7,5.5,27.5,5.5,46.6
		c0,10,0.6,21,0.6,30.3c0,4.7-0.2,9-0.5,12.4c-0.3,3.5-1.1,6.1-1.7,7l4,2.2l-3.9-2.3c-2.2,3.9-4.5,8.2-6.3,12.3
		c-1.7,4.1-3.1,8.1-3.1,12c0,1.4-1.1,4.8-2.3,7.4c-0.7,1.3-1.3,2.5-1.7,3.4l-0.6,1l-0.2,0.3l3.9,2.4l-0.7-4.5l0.4,2l-0.3-2l-0.1,0.1
		l0.4,2l-0.3-2l-0.4,0.1l-0.5-0.1l-0.1,0l-0.4,0.9l0.8-0.5l-0.4-0.4l-0.4,0.9l0.8-0.5l-0.7,0.5l0.8-0.2l-0.1-0.2l-0.7,0.5l0.8-0.2
		v-0.2l0-0.7v0v0c0-0.5,0.9-2.8,2.3-5.3c2-3.9,5-8.9,7.6-13.8c2.6-5,5-9.6,5.7-14.2c0.6-4.6,1.4-13.9,1.4-23.5
		c0-4.9-0.2-9.8-0.8-14.2c-0.6-4.5-1.5-8.4-3.4-11.7c-3.3-5.2-8.4-9.9-12.5-14.6c-4.2-4.6-6.9-9.1-6.7-11.8c0-5.9-1.8-14.9-3.6-23.8
		c-1.8-8.7-3.8-17.2-4.2-19.9v-0.1l0-0.1c-0.7-4-2.9-8.7-5.5-13.1c-1.3-2.2-2.7-4.1-4.3-5.8c-1.6-1.6-3.1-3.3-6.6-3.5
		c-1.9,0-4.1,1.2-5,2.6c-2,2.7-3.6,6.5-5,11.1c-1.4,4.5-2.5,9.4-2.5,13.7c0,2.4,0.2,4.8,2,7.3l0.3-0.2l-0.3,0.2v0l0.3-0.2l-0.3,0.2
		c0.1,0,0.7,2.1,0.6,4.5c0,2.6-0.3,5.6-0.7,7.9c-0.2,1.2-0.3,2.2-0.5,2.8l-0.2,1l4.4,1l-1-4.4c-0.1,0-4.2,0.9-8.9,2.7
		c-2.3,0.9-4.8,2-7.1,3.5c-2.3,1.5-4.5,3.3-5.9,6.1c-1.6,3.1-4.4,7.9-7,13.2c-2.6,5.3-5,11.2-5.7,17v0v0c-0.6,7.1-2.9,14.2-2.9,22.3
		c0,2.6,0.2,5.3,0.9,8c0.7,3.3,1.2,5.7,2,7.8c0.5,1.1,0.9,2.2,2.1,3.3c1.1,1.1,3,1.8,4.5,1.7c2.8-0.1,4.3-1.1,6.7-2.2
		c7.4-3.8,15.2-10.5,15.3-10.6l-2.9-3.4l-1.9,4.1c0,0,1.3,0.6,3.4,1.6c3.1,1.5,7.8,4,11.8,6.5c2,1.2,3.8,2.6,5.1,3.7l1.4,1.5
		l0.3,0.5l0.1,0.2l4.3-1.5l-4.4,1.3c0.7,2.2,1,7.2,1,11.5c0,2.4-0.1,4.7-0.1,6.3c-0.1,1.7-0.1,2.7-0.1,2.7l-0.1,1.4l0.8,1.3
		l6.8,11.1l3.9-2.3l-4.5-0.9l-2.3,12.1l4.4,0.9l2-4.1l-0.1,0.2l0.1-0.2h0l-0.1,0.2l0.1-0.2c-0.4-0.1-5.6-3.2-8-8
		c-2.1-4.1-6.1-8.8-9.6-12.8c-3.5-3.9-6.6-7-6.6-7.1l-6.9,5.8l1.8-1.3l-1.8,1.3v0l1.8-1.3l-1.8,1.3c0,0,4.8,6.9,5.8,19.8
		c0.6,8,1.5,17.1,1.5,26c0,7.2-0.6,14.1-2.4,19.9c-1.7,5.8-7.4,12.8-12.7,17.9c-2.6,2.6-5.2,4.7-7,6.3l-2.2,1.8l-0.8,0.6l2.7,3.6
		l-1.6-4.2l-8.9,3.4l1.6,4.2l2-4l-0.9,1.8l1.3-1.6l-0.3-0.2l-0.9,1.8l1.3-1.6l0,0l0,0l0,0l0,0l0,0l-0.2-1c0-1,0.5-3.6,3.7-8
		c6.5-8.8,7.8-16.8,7.8-22.3c0-2.7-0.3-4.8-0.3-5.8c0-2.4-0.5-5.3-1.5-8.2c-0.6-1.4-1.1-2.8-2.1-4.2l-2-2c-0.9-0.6-2.1-1.1-3.6-1.1
		c-2,0-3.6,1-4.6,2c-1.1,1.1-1.8,2.2-2.5,3.6c-1.9,3.8-4.3,6.4-6.2,8l-2.3,1.7l-0.6,0.4l-0.1,0.1l0.6,1.1l-0.5-1.2l0,0l0.6,1.1
		l-0.5-1.2l2,4.1l3.4-3c-0.1-0.1-2-2.3-4.5-4.7c-1.3-1.2-2.6-2.4-4.1-3.5c-1.6-1-2.9-2-5.7-2.2c-1.5,0-2.8,0.5-3.6,1
		c-1.3,0.8-2,1.4-2.3,1.7l-0.2,0.1v0l0.5,1.2v-1.3l-0.5,0.1l0.5,1.2v-1.3v1.2l0.4-1.1l-0.4-0.1v1.2l0.4-1.1l-0.1-0.1
		c-0.3-0.1-1.1-0.8-2.3-2.2c-1.2-1.4-1.6-2.5-2.1-3.9c-0.3-1.1-0.6-2.4-1.1-3.9c-0.7-2.3-2.4-5.3-5.5-7.2c-3-1.9-7-3.2-12.9-4.2
		c-4.5-0.8-8.1-1.1-11.1-1.1c-4.4,0-7.6,0.6-10.2,2.3c-2.7,1.6-4.1,4.8-4,7.1c0,1.2,0.2,2.3,0.5,3.2l4.3-1.5l-4.3,1.4
		c0.7,2.2,1.3,4.4,1.3,8.8c0,1.9-0.1,4.2-0.5,7l0,0v0c-0.4,5-0.9,7.9-1.6,9l-1.6,1.7c-0.9,0.6-2.5,1.3-4.8,2.1
		c-5.8,1.8-8.8,5-10.5,6.6l-2,1.4c-0.6,0.3-1.7,0.6-3.7,0.6c-2.7,0-4.2,0-6.3,0.8c-1.5,0.7-2.6,2.1-2.9,2.5
		c-0.4,0.6-0.3,0.6-1.9,1.6c-1.5,0.9-4.6,2.4-10.2,4.2c-7.8,2.5-15.2,5.1-21.6,7c-6.4,1.9-11.9,3.1-15.3,3.1c-1.3,0-2.2-0.2-2.7-0.4
		l-0.9-0.5c-2.1-2.6-5.3-3.9-8-3.8c-4.5,0.1-8,2.3-10.7,4.1c-2.7,1.9-4.5,3.6-4.6,3.7l3.2,3.2l2.6-3.7c-5.5-3.8-10.2-7.7-13.5-10.6
		c-1.6-1.5-2.9-2.7-3.7-3.6l-0.8-0.9l-0.1-0.1l-1.9,1.4l2-1.1l-0.2-0.3l-1.9,1.4l2-1.1l-3.7,2.1h4.3c-0.1-1.7-0.4-1.8-0.6-2.1
		l-3.7,2.1h4.3h-4.5l3.2,3.2c1.1-1.1,1.3-2.5,1.3-3.2h-4.5l3.2,3.2l-3.2-3.2v4.5c0.7,0,2-0.2,3.2-1.3l-3.2-3.2v4.5v-4.3l-1.6,4
		l1.6,0.3v-4.3l-1.6,4l1.2-3.1l-1.8,2.8l0.6,0.3l1.2-3.1l-1.8,2.8l0.5-0.8l-0.6,0.8l0,0l0.5-0.8l-0.6,0.8l0.7,0.6h0v0l1.9,1.5
		c0.7,0.3,1.2,1,3.3,1.1c1,0,2.8-0.5,3.7-1.8c1-1.2,1.1-2.4,1.1-3c-0.1-1.9-0.5-2.4-0.9-3.3c-1.4-2.7-4-6.2-7.1-9.6
		c-1.6-1.7-3.2-3.2-5-4.5c-1.8-1.2-3.6-2.4-6.5-2.5c-2-0.1-4.5,1.2-5.6,3.1c-1.6,2.3-1.8,4.7-1.9,6.9c0,2.7,0.5,5.3,0.9,7.8
		c0.4,2.5,0.8,4.8,0.8,6.5c0,1.6-0.3,2.4-0.5,2.6c-0.2,0.2-0.5,0.6-2.6,0.8c-6.9,0.5-9.9,1.2-11.5,1.2c-1,0-1.8-0.1-3.8-0.7
		c-1.9-0.6-4.8-1.7-9.2-3.4c-5.1-2.1-7.5-3.5-8.7-4.5l-1.8-1.3c-0.6-0.5-2.2-1.3-3.7-1.3c-1.7,0-2.6,0.5-3.7,0.8
		c-1.1,0.4-2.4,1-4.3,1.7l0,0h0c-5.6,2.4-9.6,5.8-13.3,8.4c-3.7,2.6-6.7,4.1-10.8,4.2c-1.2,0-2.6-0.1-4.2-0.5l-1,4.4l1.1-4.4
		c-6.9-1.7-11.6-3.5-14.7-5.8c-3-2.3-4.9-5-6.4-9.9c-1-3.6-3.1-6.4-5.7-8c-3.8-2.3-7.3-2.4-10.3-3.5c-3-1-5.8-2.3-9-6.6
		c-3.8-4.8-4.7-14.5-6.2-23.9c-0.8-4.7-1.9-9.3-4.3-13.5c-2.4-4.2-6.6-7.6-12.3-8.6c-9.1-1.7-16.9-2.3-21.9-3.7
		c-2.5-0.7-4.2-1.5-5-2.2c-0.9-0.8-1.2-1.5-1.5-3.3l0,0v0c-0.8-7.3-6-12.7-12.5-16.3c-6.5-3.6-14.7-5.6-23.2-5.6
		c-1.1,0-2.2,0-3.4,0.1c-4.2,0.3-7.2,0.5-9.7,0.8c-1.8,0.2-3.3,0.5-4.8,1.2c-1.2,0.5-2.3,1.3-3.1,2.3c-1.3,1.6-1.7,3.1-2.1,4.5
		c-0.4,1.4-0.6,2.8-1.1,4.5l0,0v0.1c-0.9,3.4-2.5,8.4-4.4,12.2c-1,1.9-2,3.5-2.9,4.3l-0.9,0.7l-0.1,0.1l0.1,0.4v-0.4l-0.1,0l0.1,0.4
		v-0.4v0.5l0.1-0.5l-0.1,0v0.5l0.1-0.5l-0.1-0.1l-0.7-0.5c-4.2-4.2-8.2-7.1-11.4-9.9c-3.2-2.9-5.8-5.6-7.7-9.8l-4.1,1.9l4.1-1.8
		c-2.4-5.7-5.9-9.7-8.8-13.1c-3-3.3-5.3-6-6.6-9c-3.2-7.7-10.9-13.7-20.4-13.7c-2.4,0-4.9,0.4-7.4,1.2h0l0,0
		c-3.1,1.1-5.8,1.3-8.4,1.9c-1.3,0.3-2.8,0.7-4.3,2c-1.6,1.3-2.6,3.7-2.5,5.6c0.1,2.8,1,5.2,2.6,8.8v0l0,0.1
		c1.8,3.9,3.6,7.5,4.9,10.4c1.3,2.8,1.9,5.2,1.9,5.5l0,0l1.9,0.3l-1-1.6l-0.9,1.3l1.9,0.3l-1-1.6l0.6,0.9l-0.2-1l-0.3,0.1l0.6,0.9
		l-0.2-1l-0.6,0c-1.2,0-1.8-0.2-2.5-0.5l-1.2-0.6c-0.6-0.2-1.3-0.6-2.8-0.6c-1.5-0.1-3.3,0.9-4.1,1.9c-1.3,1.4-1.5,2.5-2.1,4
		c-0.5,1.4-1,3.3-1.6,5.8v0l0,0c-3.3,13.6-4.6,25.9-4.6,26.1l4.5,0.4l3.8-2.4l-7.6-12.2L285.9,708.3l3.9-2.3L285.9,708.3l-3.9,2.4
		l7.6,12.2l7.1,11.3l1.3-13.2c0,0,0.1-0.7,0.2-2c0.5-3.9,1.8-13.1,4.2-22.8h0v0c0.8-3.3,1.4-5.3,1.8-6.1l0.1-0.3l-2.1-1.2l1.5,1.9
		l0.7-0.7l-2.1-1.2l1.5,1.9l-2.2-2.8v3.6l2.2-0.8l-2.2-2.8v3.6v-3l-0.9,2.8l0.9,0.1v-3l-0.9,2.8l0.3-1.3l-0.4,1.3h0.1l0.3-1.3
		l-0.4,1.3c0,0,0.9,0.5,2.2,0.9c1.4,0.5,3.1,0.9,5.2,0.9c1.9,0,4.1-0.4,5.9-1.9c1.9-1.6,2.5-4.1,2.4-5.8c-0.1-3.2-1.2-5.9-2.6-9.2
		c-1.4-3.2-3.2-6.7-5-10.6l-4.1,1.9l4.1-1.8c-1.5-3.1-1.8-5-1.8-5.1h-1.2l1.1,0.4l0.1-0.4h-1.2l1.1,0.4l-2-0.8l1.5,1.6l0.5-0.8
		l-2-0.8l1.5,1.6l-0.9-0.9l0.6,1.2l0.3-0.2l-0.9-0.9l0.6,1.2l0.8-0.2c1.6-0.5,5-0.8,9.2-2.2H316l0,0c1.6-0.5,3.1-0.7,4.5-0.7
		c5.5,0,10.1,3.6,12.1,8.2c2,4.8,5.2,8.2,8.1,11.4c2.9,3.3,5.5,6.4,7.3,10.7v0v0c2.6,5.8,6.3,9.7,10,12.9c3.7,3.3,7.5,5.9,11,9.4
		c1.8,1.9,4.4,3.3,7.1,3.3c3.3,0,5.7-1.8,7.5-3.6c2.6-2.8,4.4-6.4,6-10.1c1.5-3.7,2.7-7.5,3.4-10.4l-4.4-1.1l4.4,1.2
		c0.6-2.4,1-4.1,1.2-5l0.2-0.5L394,685l0.3,0.3l0-0.1L394,685l0.3,0.3l-0.7-0.6l0.5,0.8l0.2-0.1l-0.7-0.6l0.5,0.8l-0.2-0.2l0.2,0.3
		l0,0l-0.2-0.2l0.2,0.3c0,0,0.9-0.4,2.8-0.6c1.9-0.2,4.7-0.4,8.7-0.7l2.8-0.1c7.1,0,13.9,1.7,18.8,4.4c5,2.8,7.5,6.2,7.8,9.3l0,0v0
		c0.3,3.6,2,7,4.5,9.2c3.8,3.3,8.5,4.4,13.7,5.3c5.2,0.9,11.1,1.5,17.5,2.7c3.2,0.7,4.7,1.9,6.1,4.3c2.2,3.6,3.2,10.1,4.2,17.2
		c1.1,7,2.2,14.7,6.8,20.9c5.7,7.8,12.8,9.8,17.2,10.8c2.3,0.6,3.8,1,4.6,1.5c0.7,0.5,1.2,0.9,1.8,2.8c1.8,6.2,4.9,11.2,9.6,14.7
		c4.7,3.5,10.5,5.5,18,7.3h0v0c2.2,0.5,4.2,0.7,6.2,0.7c6.7,0,11.9-2.9,15.9-5.8c4.1-2.9,7.6-5.8,11.5-7.4l-1.7-4.2l1.6,4.2
		c2-0.8,3.4-1.4,4.3-1.7l0.8-0.3h0l-0.4-1.8v1.8l0.4,0l-0.4-1.8v1.8v-2.9l-1.1,2.7l1.1,0.2v-2.9l-1.1,2.7l0.7-1.7l-1.1,1.5l0.4,0.2
		l0.7-1.7l-1.1,1.5c0.1,0,1.3,1.1,3.2,2.3c2,1.2,4.8,2.7,9.1,4.4c4.4,1.8,7.4,2.9,9.8,3.7c2.4,0.7,4.5,1.1,6.5,1.1
		c3.5,0,5.7-0.8,12.1-1.2c3.7-0.2,7-1.6,9.1-4.2c2-2.6,2.4-5.6,2.4-8.2c0-2.8-0.5-5.5-0.9-8c-0.4-2.5-0.8-4.8-0.8-6.3
		c0-1.3,0.3-1.8,0.3-1.8l-1.8-1.2v2.2l1.8-0.9l-1.8-1.2v2.2v-0.9l-0.2,0.9h0.2v-0.9l-0.2,0.9c0.1,0,1.3,0.6,2.6,1.8
		c1.9,1.7,4.2,4.3,5.8,6.5c0.8,1.1,1.5,2.1,1.9,2.9l0.3,0.7l0.1,0l2.7-1h-2.8l0.2,1l2.7-1h-2.8h4.2l-3.3-2.6
		c-0.9,1.2-0.9,2.1-0.9,2.6h4.2l-3.3-2.6l3.4,2.7v-4.3c-0.8-0.1-2.5,0.4-3.4,1.6l3.4,2.7v-4.3v3l1.7-2.6c-0.1,0.1,0-0.3-1.7-0.4v3
		l1.7-2.6l-0.9-0.7h0v0l-1.3-1.1l-0.7-0.5l-0.7-0.3c-0.3-0.1-0.7-0.3-1.7-0.4c-0.8,0-2.1,0.2-3.2,1.3c-1.1,1.2-1.3,2.5-1.3,3.2
		c0.1,1.2,0.3,1.6,0.4,2c0.5,1.1,0.8,1.2,1.2,1.7c1.2,1.4,3.6,3.8,6.9,6.7c3.3,2.9,7.7,6.4,12.7,9.9l3.1,2.1l2.7-2.7l0.2-0.2
		c0.5-0.5,2.2-1.9,4-3.1c1.8-1.3,3.9-2,4.8-2l1.1,0.5c1.3,1.6,3.1,2.7,4.9,3.3c1.8,0.6,3.7,0.8,5.7,0.8c5.3,0,11.2-1.5,17.9-3.5
		c6.7-2,14.1-4.6,21.6-7c5.4-1.7,8.9-3.2,11.4-4.5c1.8-1,3.1-2,4-3l1.4-1.6l0-0.1l-1.5-1.2l0.4,1.9l1-0.7l-1.5-1.2l0.4,1.9
		c0,0,0.9-0.2,2.8-0.1c2.8,0,5.2-0.4,7.3-1.3c3.1-1.3,4.7-3.3,6-4.4c1.3-1.2,2.6-2.2,5.8-3.3c2.7-0.9,5-1.9,6.9-3.2
		c3-1.9,5-4.7,5.8-7.7c0.9-3,1.1-5.9,1.5-9.6l-4.5-0.5l4.5,0.5c0.4-3.1,0.5-5.7,0.5-8c0-5.4-0.9-9-1.7-11.6l0-0.1l0,0l-0.1-0.2h-0.8
		l0.7,0.4l0.1-0.4h-0.8l0.7,0.4l-0.5-0.2l0.4,0.5l0.1-0.2l-0.5-0.2l0.4,0.5c0-0.1,1.6-0.9,5.4-0.9c2.4,0,5.5,0.3,9.6,1
		c4.8,0.8,7.5,1.8,9,2.6c1.1,0.7,1.5,1.1,1.8,1.5c0.4,0.6,0.8,1.9,1.4,4.1c0.5,2.2,1.6,5.2,4.1,8c1.4,1.6,2.7,2.8,4.1,3.8
		c1.4,0.9,3.1,1.6,4.8,1.6c3-0.1,4.8-1.7,5.7-2.3l0.8-0.6l-0.8-1.4v1.6l0.8-0.2l-0.8-1.4v1.6v-1.9l-0.5,1.9l0.5,0.1v-1.9l-0.5,1.9
		l0.1-0.3l-0.1,0.3l0,0.1l0.1-0.3l-0.1,0.3c0.3,0.1,3,2,4.7,3.8l2.4,2.4l1,1l2.2,2.6l3.1-1.5c0.5-0.2,8.1-4,13.2-14.2l0.5-0.9
		l0.2-0.3l-0.9-0.8l0.6,1.1l0.3-0.2l-0.9-0.8l0.6,1.1l-1.4-2.5v2.8l1.4-0.3l-1.4-2.5v2.8v-2.8l-1.6,2.3l1.6,0.5v-2.8l-1.6,2.3
		l0.9-1.3l-1.1,1.1l0.2,0.2l0.9-1.3l-1.1,1.1l0.2-0.1l-0.2,0.1l0,0l0.2-0.1l-0.2,0.1c0.2,0.2,0.9,1.6,1.3,3.2
		c0.4,1.5,0.6,3.2,0.6,3.9c0,1.9,0.3,3.7,0.3,5.8c0,4.2-0.7,9.6-6,17c-3.9,5.3-5.4,9.6-5.5,13.4c0,2.8,1,5.2,2.2,6.6
		c1.1,1.5,2.3,2.1,2.7,2.3l1.7,0.9l1.9-0.7l8.9-3.4l0.5-0.2l0.5-0.4c0.1,0,5.3-3.8,11.1-9.4c5.8-5.7,12.3-13.1,15-21.7
		c2.2-7.1,2.8-14.9,2.8-22.6c0-9.5-1-18.9-1.5-26.7c-1.2-15.4-7.1-24-7.5-24.5l-3.6,2.7l-3.2,3.2c0,0,0.7,0.7,1.9,1.9
		c1.7,1.8,4.5,4.7,6.9,7.7c2.5,3,4.8,6.1,5.8,7.9c4.2,8.3,11.6,11.7,12,12l5.3,2.6l1.2-5.9l2.3-12.1l0.3-1.7l-0.9-1.5l-6.8-11.1
		l-3.9,2.3l4.5,0.3c0-0.1,0.3-4.4,0.3-9.7c0-4.7-0.2-9.9-1.4-14.1l0-0.1l0-0.1c-1.3-3.4-3.6-5.4-6.3-7.5c-8-6.2-20.4-11.7-20.6-11.8
		l-2.6-1.2l-2.2,1.9l-1.2,1c-2.4,1.9-8,6.2-12.3,8.4c-1,0.5-1.8,0.9-2.3,1l-0.5,0.2h0l0.2,1.3v-1.3h-0.2l0.2,1.3v-1.3v2.5l1.7-1.8
		l-1.7-0.7v2.5l1.7-1.8l-1.3,1.3l1.5-1l-0.3-0.3l-1.3,1.3l1.5-1l-0.4,0.2l0.4-0.2l0,0l-0.4,0.2l0.4-0.2c-0.1-0.1-0.9-2.7-1.7-6.9
		c-0.4-2-0.7-4-0.7-6c0-6.4,2.1-13.3,2.9-21.5l-4.5-0.4l4.5,0.5c0.4-4,2.4-9.2,4.9-14.1c2.4-4.9,5.1-9.5,6.8-13.1
		c0.2-0.5,1.2-1.6,2.8-2.6c2.3-1.5,5.7-2.8,8.4-3.7c1.4-0.4,2.5-0.8,3.4-0.9l1.3-0.3l2.8-0.6l0.6-2.8c0-0.2,1.5-7.2,1.6-13.7
		c-0.1-3.4-0.2-6.6-2.4-9.9l-0.5,0.4l0.6-0.3l-0.1-0.1l-0.5,0.4l0.6-0.3c0,0-0.2-0.8-0.2-2c0-2.7,0.9-7.1,2.1-11
		c1.1-3.8,2.9-7.5,3.5-8.3l-2.2-1.7v2.7l2.2-1l-2.2-1.7v2.7v-2.2l-0.7,2l0.7,0.2v-2.2l-0.7,2l0.3-0.9l-0.4,0.9l0.1,0l0.3-0.9
		l-0.4,0.9l0.2,0.1c0.8,0.5,3.1,3.4,4.8,6.6c1.7,3.1,3.1,6.7,3.4,8.3l4.4-0.7l-4.4,0.6c0.5,3.8,2.5,11.8,4.3,20.5
		c1.8,8.6,3.5,17.8,3.4,21.9c0.2,7.2,4.6,12.7,9,17.7c4.5,5,9.3,9.7,11.6,13.4c0.7,1.2,1.6,4.3,2.1,8.1c0.5,3.8,0.7,8.4,0.7,13
		c0,9-0.8,18.2-1.3,22.3c-0.2,1.4-1,3.9-2.4,6.7c-2,4.2-5,9.3-7.5,13.8c-1.3,2.3-2.5,4.5-3.5,6.6c-1,2.1-1.8,3.9-2.2,5.9l4.5,0.7
		l-4.5-0.8l-0.2,2.2c-0.1,3.1,1.7,6.2,3.9,7.4c2.1,1.3,4,1.3,5.3,1.4l1.8-0.1l2.1-0.4l1-1.7c0.1-0.1,1.5-2.4,3-5.6
		c1.5-3.2,3.1-7,3.2-11.2c0-1.6,0.8-4.9,2.4-8.4c1.6-3.6,3.7-7.6,5.8-11.3v-0.1h0.1c1.6-3,2.3-6.4,2.7-10.4c0.4-4,0.6-8.6,0.6-13.5
		c0-9.7-0.5-20.6-0.5-30.3c-0.1-20.8-5.6-34.5-5.5-46.6c0-8.4-4.6-14.8-9.7-19.4c-5.1-4.7-10.8-8.1-14.5-10.7
		c-1.4-1-2.5-2.7-3.3-5.2c-0.8-2.5-1.1-5.7-1.1-9c0-3.8,0.5-7.9,0.8-11.4l0,0v0c0.5-4.1,1.7-6.2,3.4-10.6c1.7-4.4,3.2-10.5,3.2-20.8
		c0-10.2-1.1-15.6-3-19.7c-0.9-2-1.9-3.5-2.8-4.7c-0.8-1.3-1.5-2.3-2.2-3.9l0,0v0c-1-2.4-2.9-4.2-5-5c-2-0.9-3.9-1-5.5-1
		c-2.2,0-4.2,0.3-5.3,0.3l-0.6,0l-0.2,1l0.5-0.9l-0.2-0.1l-0.2,1l0.5-0.9l-1.1,2.4l2.2-1.3l-1.1-1.1l-1.1,2.4l2.2-1.3l-1.7,1h2.1
		l-0.4-1l-1.7,1h2.1l0.2-1l-4.3-1.4l4.3,1.4c1.7-5,2.4-7.8,2.9-9.2c0.4-1.5,0.6-1.8,2.2-4c2.4-3.4,3.1-7.2,3.6-10.3
		c0.5-3.1,0.5-5.4,0.5-5.6v-2.6l-2.3-1.3l-17.6-10l-1.6-0.9l-1.7,0.5l-21,5.5l-1.3,0.4l-0.9,1l-15.5,17.6l-0.7,0.8l-0.2,0.9
		c0,0-0.2,0.6-0.6,1.6c-0.5,1.5-1.4,3.9-2.5,6.1c-1,2.2-2.4,4.1-3,4.5c-2.5,1.9-3.6,5.1-3.4,7.4c0,3,0.9,5.5,1.6,7.8
		c0.7,2.4,1.2,4.5,1.2,6v0l2.4,0.3l-1.6-1.6l-0.8,1.3l2.4,0.3l-1.6-1.6l2.2,2.1v-3.1l-2.2,1l2.2,2.1v-3.1v1.8l0.4-1.7l-0.4,0v1.8
		l0.4-1.7l-0.1,0.5l0.1-0.5h-0.1l-0.1,0.5l0.1-0.5c-0.1,0.1-2-1.1-3.3-2.2l-1.7-1.5l-0.7-0.6l-0.7-0.7l-0.9-0.3
		c-0.3,0-5.8-2.2-11.6-2.3c-1.5,0-3,0.1-4.6,0.7c-1.6,0.5-3.3,1.5-4.5,3.2l3.7,2.7l-3.6-2.7c-3.5,4.6-7.8,11.3-7.9,11.3l3.8,2.5
		l2.6-3.7c0,0-2.1-1.5-4.7-3.1c-2.7-1.6-5.8-3.4-8.8-4.2l-0.1,0h0l-1.8-0.2c-2.6,0-4.5,1.1-6.1,2.2c-4.6,3.4-7.8,8.5-8,8.8l3.8,2.5
		l1.6-4.2l-9-3.3l-1.6,4.2l2.2-3.9l-0.6,1.2l0.7-1.2l0,0l-0.6,1.2l0.7-1.2c-0.2-0.2-6.2-3.9-8.9-13.8c-0.5-1.6-0.6-2.9-0.6-3.8
		c0.1-2.5,0.8-2.9,1.3-3.4l0.9-0.5l0.2-0.1l-0.2-1.2l0.1,1.2l0.1,0l-0.2-1.2l0.1,1.2l-0.1-9c-0.1,0-11-1-14.9-1
		c-2.2,0-3.7,0.8-5.4,1.7c-4.9,2.7-10.9,7.8-14.8,13.6c-1.2,1.7-2,3.5-2,5.8c-0.1,2.3,1.2,4.4,2.5,5.6c2,1.8,4,2.6,6.2,3.6
		c2.2,1,4.5,2.1,6.9,3.5c8.8,5.5,8.8,5.9,14.6,11.5l3.2-3.2l-3.2,3.2c2.7,2.7,3.2,6.4,3.2,8.4l-0.1,0.9v0.2l0.6,0l-0.6-0.1v0l0.6,0
		l-0.6-0.1l4.5,0.7l-3-3.4c-0.2,0.3-8.4,7.2-13.3,18.2l-0.8,1.4l0.5,0.6l-0.3-0.7l-0.2,0.1l0.5,0.6l-0.3-0.7l0.6,1.4v-1.5l-0.6,0.1
		l0.6,1.4v-1.5v1.1l0.3-1l-0.3-0.1v1.1l0.3-1l0,0.1l0.1-0.1h0l0,0.1l0.1-0.1c-0.3,0-2-1.5-3.4-4c-1.5-2.4-2.9-5.6-3.9-8.8
		c-1.2-4-4.1-7-7.3-8.5c-3.2-1.5-6.7-2-10-2c-6.7,0-12.9,1.8-16.2,3v0h-0.1c-2,0.8-3.4,2.2-4.4,3.7c-2.9,4.4-2.9,9.2-3,12
		c0,1.2,0.1,2.1,0.1,2.2l4.5-0.4l1.3-4.3l-17.6-5.5l-0.8-0.2l-0.9,0.1c0,0-11,1-23.2,2.1l-2,0.1l-0.9,0l-0.1,0l-0.5,2.3l1.6-1.7
		l-1-0.6l-0.5,2.3l1.6-1.7l-2.4,2.5h3.5l-1.1-2.5l-2.4,2.5h3.5h-2.3l2.1,1l0.2-1h-2.3l2.1,1l0.2-0.3c0.5-0.8,2-2.3,3.6-4
		c1.7-1.7,3.6-3.7,5.5-5.8c1.9-2.2,3.2-4.6,3.3-7.5c0-2.3-1-4.2-2-5.6c-1.6-2-3.2-3.3-4.7-4.8c-1.5-1.5-2.8-3-3.8-4.8
		c-1.4-2.9-3.5-5.1-5.7-6.4c-2.3-1.3-4.7-1.8-6.6-1.8c-3.9,0.1-6.6,1.5-6.9,1.6l2,4l3.3-3l-8.8-10l-3.4,3l4.5-0.6l-2.2-16.6
		l-0.1-0.7l-0.4-0.7c0,0-6.7-13.3-11-22v0l0-0.1c-1-1.9-2.2-3.6-3.8-4.8c-1.6-1.2-3.6-2-5.5-1.9c-3.9,0.1-6.6,2.2-8.6,4.6
		c-2,2.5-3.4,5.6-4,9l0,0v0c-0.1,1.2-0.2,2.3-0.2,3.4c0,3.8,1.3,7.1,3.3,10c2,2.9,4.5,5.7,7.9,10l3.5-2.9l-3.6,2.8
		c4.5,5.8,6.4,9.9,6.3,12.3c-0.1,1.5-0.5,2.9-2.6,5.1c-2.8,2.7-4.3,3.3-7.4,4.1c-3.1,0.8-7.8,1.4-14.2,3.7c-3.4,1.2-6,2.6-8.1,4.3
		c-3.2,2.6-4.6,6.1-5.3,9.1c-0.6,3-0.8,5.7-1.6,8.6v0v0c-0.3,1.4-0.7,1.7-1.3,2.1c-0.6,0.4-1.6,0.7-3,0.7c-2.5,0.1-5.9-1.1-7.7-2.3
		l0,0l0,0c-1.5-0.9-3.3-1.5-5-1.5c-2,0-3.7,0.7-5,1.5c-3.8,2.6-5,6.1-5.2,6.4l-0.2,0.6l-0.1,0.6l-2.4,16.5l4.5,0.7l3.3-3l-9.9-10.9
		l-0.3-0.4l-0.3-0.2l-9.9-7.7l-3.2-2.5l-2.8,2.8c0,0-1.8,1.7-3.7,3.5l-2.7,2.3l-0.7,0.5l0.6,1l-0.4-1.1l-0.2,0.1l0.6,1l-0.4-1.1
		l1.4,3.4v-3.7l-1.4,0.3l1.4,3.4v-3.7v4.3l3.2-2.9c-1-1.2-2.5-1.4-3.2-1.4v4.3l3.2-2.9l-3.1,2.8h4.3c0-0.5-0.1-1.7-1.1-2.8l-3.1,2.8
		h4.3h-3.3l3.1,1.1l0.2-1.1h-3.3l3.1,1.1l0-0.1l0-0.1c1-3.3,2.6-10.1,2.7-15.4c0-1.3-0.1-2.5-0.5-3.9l-1.4-2.4
		c-0.8-0.9-2.4-1.7-3.7-1.6c-2.9,0.2-3.7,1.4-4.5,2.1c-1.2,1.2-2.1,2.4-3,3.7c-0.9,1.2-1.8,2.4-2.6,3.1l3.3,3.2l-3.2-3.2
		c-2.3,2.5-7.8,4.6-12.2,8.8c-3.3,3.4-9.4,9.3-15.1,18.5c-1.1,1.9-1.9,3-2.3,3.5l-0.2,0.2l1.2,1.2l-0.9-1.4l-0.3,0.2l1.2,1.2
		l-0.9-1.4l1.9,3.3v-3.8c-1,0-1.6,0.3-1.9,0.5l1.9,3.3v-3.8v4.2l2.9-3.1l-2.9-1.1v4.2l2.9-3.1l-2.6,2.8l3.8-0.8
		c-0.1-0.3-0.2-1-1.2-2l-2.6,2.8l3.8-0.8l-2.1,0.5h2.1l0-0.5l-2.1,0.5h2.1v-0.1l0.3-2l-1.3-1.6c0,0-4.1-4.9-8.4-10.3
		c-2.1-2.7-4.3-5.4-5.9-7.7c-0.8-1.1-1.5-2.1-2-2.9l-0.6-0.9l-0.1-0.2l-1.2,0.6l1.3-0.4l0-0.1l-1.2,0.6l1.3-0.4l0-0.1v0
		c-0.2-0.4-0.4-1.6-0.4-3.3c0-3.3,0.9-8.7,3.7-15.5v0v0c0.7-1.6,1.8-2.9,4.1-4.2c3.3-1.9,8.8-3.4,14.9-4.6c6.1-1.2,12.8-2.3,19-4.1
		c8.2-2.4,13.1-5.5,16-8.3c2.9-2.9,3.7-5.5,3.8-6.3l1-5.3h-5.4h-16.6h-0.7l-0.7,0.2c0,0-1.6,0.5-5.6,1.8c-4,1.2-10.3,3.2-19.8,5.9
		c-13.2,3.9-17.6,4.3-18,4.3v2.1l0.5-2l-0.5-0.1v2.1l0.5-2l-1,4.2l3-3.1l-2-1.1l-1,4.2l3-3.1l-3.3-3.3l-3.1,3.5
		c-0.1,0.1-2.6,3-5.6,7c-2.9,4.1-6.1,9.3-7.5,14.8c-0.5,1.8-0.7,3.6-0.7,5.3c0.1,8.3,4.7,13,5.1,13.4l3.2-3.2l-4-2.2
		c-0.1,0.1-1.4,2.6-2.8,5.8c-0.8,1.6-1.5,3.4-2.1,5.2c-0.6,1.8-1,3.5-1.1,5.5l0,0l1.5,0.3l-0.8-1.2l-0.7,0.9l1.5,0.3l-0.8-1.2
		l0.5,0.8l-0.3-1l-0.2,0.1l0.5,0.8l-0.3-1l-0.1,0c-0.6,0-2.2-0.4-3.6-1.5l0,0l0,0c-1.2-1-1.2-1.1-1.7-3.2c-0.4-2-0.4-5.5-0.9-10.2
		c-0.6-5.5-3.4-9.3-6.3-11.1c-2.9-1.8-5.4-1.8-5.8-1.8h-3.9l-0.5,3.8l-2.2,14.4l4.4,0.7l-0.6-4.5l-15.6,2.3l0.6,4.5l3.5,2.8
		c0.1-0.1,1.4-1.7,2.7-4.1c1.3-2.4,2.7-5.7,2.7-9.6c0-2.3-0.7-4.5-1.8-6c-1.7-2.4-3.8-3.6-5.5-4.2c-1.7-0.7-2.9-0.9-3.1-0.9
		l-1.9-0.3l-1.5,1.2l-10,7.7l2.8,3.6l-2.5-3.8l-10.1,6.7l2.5,3.8l-1.2-4.3l-12.1,3.3l1.2,4.4l0.8-4.5c0,0-3.2-0.5-6.8-1.4
		c-1.8-0.4-3.7-0.9-5.2-1.3c-1.5-0.4-2.7-1-2.7-1l-1.9,2.9l3.2-1.4l-1.3-1.5l-1.9,2.9l3.2-1.4l-2.6,1.1h2.9l-0.2-1.1l-2.6,1.1h2.9
		h-1.3l1.3,0.2v-0.2h-1.3l1.3,0.2l0.4-1.1c1.1-2.4,3.9-6.7,6.5-10.1c1.3-1.7,2.5-3.3,3.4-4.4c0.9-1.1,1.4-1.8,1.4-1.8l-3.5-2.9
		l-4.3,1.2l3.2,12.2l0.6,2.2l2.2,0.9l14.3,5.6l3.2,1.2l2-2.8l10-13.3l0.7-1.1l0.2-1.3l1.1-14.4l0.1-1.2l-0.6-1.1l0,0
		c-0.2-0.5-1.5-3.6-1.4-6.1c0-1.5,0.3-2.6,1-3.5l-3.5-2.8l3.5,2.9c1-1.2,1.7-2.9,1.7-4.7c0-1.7-0.7-3.2-1.4-4.3
		c-1.3-1.9-2.9-3.1-4.6-4.2c-4.9-3.2-11.1-5-11.3-5l-1.9-0.6l-1.7,1c-0.3,0.2-8.6,4.9-13.8,13.9c-2,3.4-4.1,5.8-5.8,7.4l-1.9,1.7
		l-0.5,0.4l-0.1,0l0.5,0.8l-0.5-0.8h0l0.5,0.8l-0.5-0.8l-0.6,0.3l-0.4,0.5L340,498.6l3.4,3l-0.6-4.5l-7.8,1.1h-0.2l-0.2,0
		c-0.1,0-3.9,0.9-8.7,2.8c-4.9,1.9-10.9,4.8-15.5,9.4c-3.8,3.9-7.8,7.8-10.8,11.3c-1.5,1.7-2.9,3.4-3.9,5c-1,1.7-2,3.1-2.1,5.7h1.6
		l-1.6-0.2v0.2h1.6l-1.6-0.2c0,0.1-0.4,1.7-1.2,3.6c-2.4,6-7.7,16.5-11.6,24.4c-2.4,4.8-3.3,9-3.3,12.4c0,5.3,2.1,8.4,2.6,9l3.5-2.8
		l-4.4-0.8c0,0.2-0.7,3.9-0.7,9.1c0,4.1,0.4,9.1,2,14.1l0,0v0c0.5,1.7,0.8,3.9,0.8,6.2c0,4-0.7,8.5-1.5,11.9c-0.4,1.7-0.8,3.1-1,4.1
		c-0.3,1-0.4,1.5-0.4,1.5l4.3,1.4l-1.2-4.4c0,0-7.8,2.2-11.3,3.4l0,0l0,0c-2.2,0.9-3.3,2.1-4.5,3.3c-3.2,3.7-5.7,8.8-5.8,8.9
		l-0.6,1.2l0.2,1.4l0.2,1.5c0.3,2.9,0.9,10,0.9,19c0.1,4.3,1.6,8.9,3.6,14.2c6.2,15.7,18.1,35.5,18.2,35.6v0l0,0L285.9,708.3"/>
	<linearGradient id="SVGID_11_" gradientUnits="userSpaceOnUse" x1="259.0571" y1="603.4326" x2="929.1269" y2="603.4326">
		<stop  offset="0" style="stop-color:#FFF200"/>
		<stop  offset="6.843999e-02" style="stop-color:#F3B720"/>
		<stop  offset="0.1152" style="stop-color:#EC9434"/>
		<stop  offset="0.2182" style="stop-color:#EC9434"/>
		<stop  offset="0.2595" style="stop-color:#ED9832"/>
		<stop  offset="0.3044" style="stop-color:#F0A62A"/>
		<stop  offset="0.3511" style="stop-color:#F4BB1E"/>
		<stop  offset="0.3986" style="stop-color:#FADA0E"/>
		<stop  offset="0.4303" style="stop-color:#FFF200"/>
		<stop  offset="0.4389" style="stop-color:#FFF203"/>
		<stop  offset="0.4454" style="stop-color:#FFF20D"/>
		<stop  offset="0.4512" style="stop-color:#FFF31D"/>
		<stop  offset="0.4565" style="stop-color:#FFF333"/>
		<stop  offset="0.4616" style="stop-color:#FFF451"/>
		<stop  offset="0.4664" style="stop-color:#FFF574"/>
		<stop  offset="0.4667" style="stop-color:#FFF577"/>
		<stop  offset="0.4739" style="stop-color:#FFF574"/>
		<stop  offset="0.4793" style="stop-color:#FFF56A"/>
		<stop  offset="0.4841" style="stop-color:#FFF45A"/>
		<stop  offset="0.4885" style="stop-color:#FFF444"/>
		<stop  offset="0.4927" style="stop-color:#FFF326"/>
		<stop  offset="0.4967" style="stop-color:#FFF203"/>
		<stop  offset="0.497" style="stop-color:#FFF200"/>
		<stop  offset="0.5362" style="stop-color:#FAD90E"/>
		<stop  offset="0.6196" style="stop-color:#ED9832"/>
		<stop  offset="0.6242" style="stop-color:#EC9434"/>
		<stop  offset="0.6479" style="stop-color:#EE9830"/>
		<stop  offset="0.6737" style="stop-color:#F3A625"/>
		<stop  offset="0.7003" style="stop-color:#FBBB13"/>
		<stop  offset="0.7091" style="stop-color:#FEC40B"/>
		<stop  offset="0.7636" style="stop-color:#FEC40B"/>
		<stop  offset="0.8178" style="stop-color:#FEC40B"/>
		<stop  offset="0.8242" style="stop-color:#FEC40B"/>
		<stop  offset="0.903" style="stop-color:#EC9434"/>
		<stop  offset="0.9088" style="stop-color:#EF9C2D"/>
		<stop  offset="0.9321" style="stop-color:#FAB914"/>
		<stop  offset="0.9455" style="stop-color:#FEC40B"/>
		<stop  offset="0.9622" style="stop-color:#FEC70A"/>
		<stop  offset="0.9746" style="stop-color:#FED108"/>
		<stop  offset="0.9857" style="stop-color:#FFE104"/>
		<stop  offset="0.9939" style="stop-color:#FFF200"/>
	</linearGradient>
	<path class="st11" d="M285.9,708.3l3.9-2.3c0,0-1.3-2.1-3.3-5.6c-2.9-5.2-7.3-13.3-11-21.1c-1.8-3.9-3.4-7.7-4.5-11
		c-1.1-3.3-1.8-6.1-1.7-7.4c0-12.5-1.1-21.4-1.1-21.6l-4.5,0.6l4,2.1l0.7-1.3c0.6-1.2,1.8-3,2.8-4.5l1.5-1.8l0.4-0.3v0l-0.6-1
		l0.4,1.1l0.3-0.1l-0.6-1l0.4,1.1h0h0c1.4-0.5,4.3-1.4,6.5-2c2.4-0.7,4.3-1.2,4.3-1.2l2.3-0.6l0.8-2.3c0.1-0.2,3.5-10.2,3.5-20.3
		c0-3-0.4-6.1-1.3-9.1l-4.3,1.4l4.3-1.4c-1.2-3.7-1.6-7.9-1.6-11.3c0-2.2,0.1-4.1,0.3-5.5l0.2-1.5l0.1-0.4l0.4-2l-1.3-1.6l-2.1,1.6
		l2.1-1.5l-0.1-0.1l-2.1,1.6l2.1-1.5l-0.1-0.1c-0.2-0.4-0.7-1.5-0.7-3.4c0-1.9,0.5-4.6,2.3-8.4c2.7-5.4,6-12.1,8.7-17.9
		c1.4-2.9,2.5-5.6,3.4-7.8c0.4-1.1,0.8-2.1,1.1-3.1c0.3-1,0.5-1.8,0.6-3.1h-1.7l1.7,0.4l0-0.4h-1.7l1.7,0.4l0-0.1
		c0.2-0.8,2.1-3.4,4.8-6.2c2.6-2.9,6-6.3,9.4-9.7c3.1-3.1,8.1-5.8,12.4-7.4c2.1-0.8,4-1.4,5.4-1.8l1.6-0.4l0.5-0.1l-1-4.4l0.7,4.5
		l7.8-1.1l1.7-0.2l1.1-1.3l22.1-25.4l-3.4-3l2.3,3.8c0.4-0.3,6.5-4.1,11.5-12.7c1.8-3.2,4.5-5.9,6.7-7.8c1.1-0.9,2.1-1.6,2.8-2.1
		l0.8-0.5l0.3-0.1l-2.3-3.9l-1.3,4.3l0.4,0.2c1.2,0.4,4.5,1.5,7.1,3c1.2,0.7,2.4,1.5,3,2l0.4,0.5l1.2-0.7h-1.4l0.2,0.7l1.2-0.7h-1.4
		h1.6l-1.3-1l-0.3,1h1.6l-1.3-1l0,0l0,0.1c-2.3,2.8-2.9,6.2-2.9,9c0,5.6,2.3,9.9,2.4,10.2l4.1-2l-4.5-0.4l-1.1,14.4l4.5,0.4
		l-3.6-2.7l-10,13.3l3.6,2.7l1.6-4.2l-14.3-5.5l-1.6,4.2l4.4-1.2l-3.3-12.2l-2.3-8.4l-5.6,6.8c0,0-3.2,3.9-6.5,8.5
		c-1.6,2.3-3.3,4.7-4.6,7c-0.7,1.2-1.3,2.3-1.7,3.4c-0.4,1.2-0.9,2.3-0.9,3.8l0.5,2.4l2,2.4c1.6,1.1,3.2,1.6,5.1,2.1
		c5.6,1.7,13.1,3,13.2,3l1,0.2l1-0.3l12.2-3.3l0.7-0.2l0.5-0.4l10.2-6.7l0.1-0.1l0.1-0.1l10-7.7l-2.8-3.6l-0.7,4.5l0.3-1.8l-0.3,1.8
		h0l0.3-1.8l-0.3,1.8l1.9,0.8l0.9,1.5c0,1.5-0.7,3.7-1.6,5.4l-1.2,2.1l-0.4,0.5l-0.1,0.1l-7,8.9l11.2-1.6l15.6-2.2l3.3-0.5l0.5-3.3
		l2.1-14.4l-4.5-0.7v4.5V500l-0.2,1.6h0.2V500l-0.2,1.6l1.4,0.6c0.6,0.5,1.4,1.3,1.8,4.3c0.5,4.2,0.5,7.3,1,10.5
		c0.3,3.1,2,6.8,5.2,9.1l2.7-3.7l-2.7,3.6c2.8,2.1,5.8,3.3,9.1,3.4c1.8,0,3.9-0.5,5.6-1.9c1.8-1.5,2.7-3.9,2.6-6.1
		c0-0.2,0.2-1.4,0.6-2.7c0.7-2,1.8-4.5,2.7-6.3l1.2-2.3l0.4-0.9l1.6-3l-2.4-2.4l-1.6,1.6l1.7-1.6l0,0l-1.6,1.6l1.7-1.6
		c0,0-2.5-2.8-2.5-7.1c0-0.9,0.1-2,0.4-3.1c0.8-3.4,3.5-8.2,6.1-11.8c1.3-1.8,2.5-3.4,3.5-4.5l1-1.3l0.4-0.4l-3.4-3l-3.1,3.3
		l2.2,1.2l1.6,0.2c2.5,0,7-0.7,20.5-4.7c18.9-5.6,25.6-7.8,25.6-7.8l-1.4-4.3v4.5h16.6v-4.5l-4.5-0.8l2.3,0.4l-2.2-0.7l-0.1,0.3
		l2.3,0.4l-2.2-0.7l-0.3,0.6c-0.9,1.2-3.7,4.5-13.2,7.3c-7.3,2.1-16.4,3.2-24.5,5.2c-4.1,1-8,2.3-11.4,4.2c-3.4,2-6.4,4.8-8,8.8
		l4.2,1.7l-4.2-1.7c-3.2,7.7-4.3,14.1-4.3,18.9c0,2.5,0.3,4.5,0.9,6.4l4.3-1.5l-4.3,1.4c0.5,1.3,0.9,1.9,1.6,3
		c2.2,3.3,6.3,8.6,10,13.2c3.7,4.6,6.8,8.4,6.8,8.4l3.5-2.9l-4.5-0.8l-0.1,1.6c0,0.5,0,1.1,0.4,2.2l1.3,2c0.8,0.7,2.2,1.3,3.3,1.3
		c1.7-0.1,2.6-0.7,3.3-1.1c1.7-1.4,2.7-2.9,4.7-6.1c5.1-8.4,10.4-13.5,13.8-16.9c2.2-2.4,7.6-4.5,12.1-8.7l0,0v0
		c1.7-1.8,3.1-3.8,4.3-5.2l1.3-1.5l0.1-0.1l-1.9-2.3v2.9c1.6-0.1,1.8-0.6,1.9-0.6l-1.9-2.3v2.9v-3.8l-2.8,2.7
		c0.5,0.6,1.8,1.2,2.8,1.2v-3.8l-2.8,2.7l2-1.9l-2.6,0.9l0.7,1l2-1.9l-2.6,0.9l0.5-0.1l-0.5,0.1v0l0.5-0.2l-0.5,0.1l0.1,1.1
		c0.1,3.3-1.5,10.5-2.3,12.6l4.3,1.4l-4.3-1.5l-0.3,1.9c0,0.7,0.1,2,1.2,3.3c1.1,1.2,2.7,1.6,3.5,1.5c1.1,0,1.6-0.3,2.1-0.5
		c1.5-0.7,2.2-1.3,3.2-2.1c2.9-2.3,6.6-5.9,6.6-5.9l-3.2-3.3l-2.8,3.6l10,7.7l2.8-3.5l-3.3,3l9.9,11l6.5,7.2l1.4-9.6l2.3-16.5
		l-4.4-0.6l4.2,1.8l-1.3-0.6l1.3,0.6v0l-1.3-0.6l1.3,0.6l1.1-1.7l0.8-0.7l0.1-0.1l-0.1-0.2v0.2h0.1l-0.1-0.2v0.2l0.4,0.2l0,0l0,0
		c3.3,2,7.8,3.5,12.4,3.6c2.6,0,5.3-0.5,7.8-2.1c2.5-1.6,4.5-4.3,5.2-7.6l-4.4-1.1l4.4,1.2c1.3-5.1,1.4-8.7,2.2-10.6l1.8-2.4
		c1-0.8,2.7-1.8,5.4-2.8c5.6-2,9.3-2.5,13.2-3.3c3.8-0.9,8-2.6,11.8-6.5c3.2-3.2,5.2-7.2,5.2-11.4c-0.1-6.2-3.5-11.5-8.2-17.8l0,0
		l0,0c-3.5-4.4-6-7.3-7.5-9.4c-1.4-2.2-1.7-3-1.8-4.9l0.2-2.1l-4.4-0.7l4.4,0.7c0.3-1.7,1.1-3.6,2.1-4.7l1.2-1.1l0.4-0.2h0v-0.3
		l-0.1,0.3l0.1,0v-0.3l-0.1,0.3l0.3,0.3l1,1.5l4.1-2l-4.1,2c4.4,8.9,11.1,22.2,11.1,22.2l4-2l-4.5,0.6l2.2,16.6l0.2,1.4l0.9,1
		l8.9,10l2.3,2.6l3.1-1.5l-0.6-1.1l0.6,1.1h0l-0.6-1.1l0.6,1.1c0.1-0.1,1.6-0.6,2.9-0.6l2.1,0.5c0.6,0.4,1.3,1,2.2,2.6
		c2.1,4.3,5.2,7,7.2,8.8c1.1,1,1.8,1.7,2.1,2.2l0.2,0.3l0.5-0.2h-0.6l0,0.2l0.5-0.2h-0.6h0.4l-0.4-0.1v0.1h0.4l-0.4-0.1
		c0,0.1-0.2,0.6-1.1,1.7c-2,2.3-4.5,4.7-6.6,6.9c-1.1,1.1-2,2.1-2.9,3.2c-0.8,1.2-1.7,2.2-1.9,4.8c0,1,0.3,2.3,1,3.3
		c1.1,1.5,2.5,2,3.5,2.3c1.1,0.3,2.1,0.4,3.3,0.4c0.9,0,1.8,0,2.7-0.1c12.2-1.1,23.3-2.2,23.3-2.2l-0.4-4.5l-1.4,4.3l17.6,5.5l6.4,2
		l-0.6-6.7l0-0.3l0-1.1c0-1.3,0.1-3.5,0.6-5l0.7-1.7l0.5-0.4l0,0h-0.1c2.2-0.9,8-2.5,12.9-2.4c2.5,0,4.7,0.4,6.1,1.1
		c1.5,0.7,2.2,1.4,2.6,2.9c1.3,4.4,3.2,8.7,5.6,12.2c1.2,1.8,2.4,3.3,4,4.6c1.6,1.2,3.5,2.4,6,2.4c1.9,0,3.9-0.8,5.2-2
		c1.4-1.3,2.4-2.8,3.1-4.5c1.9-4.4,4.7-8.3,7-10.9c1.1-1.4,2.1-2.4,2.8-3.1l0.8-0.8l0.3-0.2l1.3-1.1l0.2-1.7c0-0.2,0.1-1,0.1-2.4
		c0-3.2-0.7-9.5-5.8-14.7l0,0v0c-5.4-5.3-7.3-7.3-16.2-12.8c-3.9-2.4-7.6-3.8-9.8-4.9c-1.1-0.5-1.8-1-1.9-1.1h0l-1.2,1.1h1.5
		l-0.3-1.1l-1.2,1.1h1.5h-1l1,0.2v-0.2h-1l1,0.2l0.1-0.2l0.4-0.8c1.9-2.8,4.9-5.9,7.7-8.1c1.4-1.1,2.8-2,3.8-2.6l1.2-0.6l0.2-0.1
		l-0.2-1.1v1.1h0.2l-0.2-1.1v1.1c1.3,0,5,0.3,8.2,0.5c3.1,0.2,5.9,0.5,5.9,0.5l0.5-4.5l-0.6-4.5c-0.4,0-2.7,0.3-5.2,2.2
		c-2.6,1.7-5.1,5.6-5.1,10.7c0,1.9,0.3,3.9,0.9,6.2c3.8,13.7,12.6,18.9,13.2,19.2l0.3,0.2l0.3,0.1l9,3.3l3.4,1.3l2-3l0.2-0.3
		c0.5-0.7,2-2.7,3.5-4.3l2.2-1.9l0.7-0.3l0.1,0l-0.1-0.7v0.7h0.1l-0.1-0.7v0.7v-1.4l-0.3,1.4l0.3,0v-1.4l-0.3,1.4l1-4.4l-1.1,4.4
		c1.1,0.3,4.1,1.8,6.5,3.3c1.2,0.7,2.3,1.4,3,1.9l1.2,0.9l3.9,2.7l2.5-3.9c0,0,1-1.6,2.5-3.8c1.5-2.2,3.4-4.9,5-7v0l0,0l-0.5-0.4
		l0.3,0.5l0.2-0.1l-0.5-0.4l0.3,0.5l0.5-0.1l1.5-0.1c1.6,0,3.9,0.4,5.6,0.8l2.1,0.6l0.7,0.3l1.6-4.3l-3.2,3.2
		c0.1,0.1,1.6,1.5,3.6,3.1c1,0.8,2.1,1.6,3.3,2.3c1.3,0.7,2.6,1.4,4.7,1.5c1.4,0.1,3.6-0.7,4.8-2.3c1.1-1.5,1.3-3.1,1.3-4.5
		c0-3.3-0.9-6.1-1.6-8.5c-0.7-2.4-1.2-4.5-1.2-5.3l-0.1-0.3c3.4-2.9,5.3-6.8,6.9-10.3c1.5-3.4,2.3-6.3,2.4-6.5l-4.3-1.3l3.4,3
		l15.5-17.6l-3.4-3l1.1,4.4l20.9-5.5l-1.1-4.4l-2.2,3.9l17.7,10l2.2-4h-4.5l0,1.2c0,1.2-0.2,3.1-0.6,4.9c-0.4,1.8-1,3.6-1.7,4.4
		c-1.8,2.3-2.8,4.4-3.5,6.5c-0.6,2.1-1.2,4.3-2.8,9.1v0l0,0.1c-0.4,1.2-0.7,2.4-0.7,3.7c0,1,0.2,2.1,0.7,3.2
		c0.9,1.7,2.5,2.8,3.8,3.2c1.3,0.4,2.3,0.5,3.3,0.5c2.1,0,3.9-0.3,5.3-0.3c1,0,1.7,0.1,1.9,0.3l0.2,0.3v0h0c1,2.3,2.1,4,3,5.3
		c1.4,2,2.1,3.1,2.9,5.5c0.7,2.5,1.3,6.6,1.3,13.8c0,9.6-1.3,14-2.6,17.7c-1.2,3.5-3.2,7-3.9,12.9l0,0v0c-0.4,3.7-0.8,8-0.8,12.4
		c0,3.9,0.3,7.9,1.5,11.7c1.1,3.7,3.2,7.5,6.7,10c4,2.9,9.4,6.1,13.5,10c4.2,3.9,6.9,8,6.8,12.8c0.1,14.7,5.5,27.5,5.5,46.6
		c0,10,0.6,21,0.6,30.3c0,4.7-0.2,9-0.5,12.4c-0.3,3.5-1.1,6.1-1.7,7l4,2.2l-3.9-2.3c-2.2,3.9-4.5,8.2-6.3,12.3
		c-1.7,4.1-3.1,8.1-3.1,12c0,1.4-1.1,4.8-2.3,7.4c-0.7,1.3-1.3,2.5-1.7,3.4l-0.6,1l-0.2,0.3l3.9,2.4l-0.7-4.5l0.4,2l-0.3-2l-0.1,0.1
		l0.4,2l-0.3-2l-0.4,0.1l-0.5-0.1l-0.1,0l-0.4,0.9l0.8-0.5l-0.4-0.4l-0.4,0.9l0.8-0.5l-0.7,0.5l0.8-0.2l-0.1-0.2l-0.7,0.5l0.8-0.2
		v-0.2l0-0.7v0v0c0-0.5,0.9-2.8,2.3-5.3c2-3.9,5-8.9,7.6-13.8c2.6-5,5-9.6,5.7-14.2c0.6-4.6,1.4-13.9,1.4-23.5
		c0-4.9-0.2-9.8-0.8-14.2c-0.6-4.5-1.5-8.4-3.4-11.7c-3.3-5.2-8.4-9.9-12.5-14.6c-4.2-4.6-6.9-9.1-6.7-11.8c0-5.9-1.8-14.9-3.6-23.8
		c-1.8-8.7-3.8-17.2-4.2-19.9v-0.1l0-0.1c-0.7-4-2.9-8.7-5.5-13.1c-1.3-2.2-2.7-4.1-4.3-5.8c-1.6-1.6-3.1-3.3-6.6-3.5
		c-1.9,0-4.1,1.2-5,2.6c-2,2.7-3.6,6.5-5,11.1c-1.4,4.5-2.5,9.4-2.5,13.7c0,2.4,0.2,4.8,2,7.3l0.3-0.2l-0.3,0.2v0l0.3-0.2l-0.3,0.2
		c0.1,0,0.7,2.1,0.6,4.5c0,2.6-0.3,5.6-0.7,7.9c-0.2,1.2-0.3,2.2-0.5,2.8l-0.2,1l4.4,1l-1-4.4c-0.1,0-4.2,0.9-8.9,2.7
		c-2.3,0.9-4.8,2-7.1,3.5c-2.3,1.5-4.5,3.3-5.9,6.1c-1.6,3.1-4.4,7.9-7,13.2c-2.6,5.3-5,11.2-5.7,17v0v0c-0.6,7.1-2.9,14.2-2.9,22.3
		c0,2.6,0.2,5.3,0.9,8c0.7,3.3,1.2,5.7,2,7.8c0.5,1.1,0.9,2.2,2.1,3.3c1.1,1.1,3,1.8,4.5,1.7c2.8-0.1,4.3-1.1,6.7-2.2
		c7.4-3.8,15.2-10.5,15.3-10.6l-2.9-3.4l-1.9,4.1c0,0,1.3,0.6,3.4,1.6c3.1,1.5,7.8,4,11.8,6.5c2,1.2,3.8,2.6,5.1,3.7l1.4,1.5
		l0.3,0.5l0.1,0.2l4.3-1.5l-4.4,1.3c0.7,2.2,1,7.2,1,11.5c0,2.4-0.1,4.7-0.1,6.3c-0.1,1.7-0.1,2.7-0.1,2.7l-0.1,1.4l0.8,1.3
		l6.8,11.1l3.9-2.3l-4.5-0.9l-2.3,12.1l4.4,0.9l2-4.1l-0.1,0.2l0.1-0.2h0l-0.1,0.2l0.1-0.2c-0.4-0.1-5.6-3.2-8-8
		c-2.1-4.1-6.1-8.8-9.6-12.8c-3.5-3.9-6.6-7-6.6-7.1l-6.9,5.8l1.8-1.3l-1.8,1.3v0l1.8-1.3l-1.8,1.3c0,0,4.8,6.9,5.8,19.8
		c0.6,8,1.5,17.1,1.5,26c0,7.2-0.6,14.1-2.4,19.9c-1.7,5.8-7.4,12.8-12.7,17.9c-2.6,2.6-5.2,4.7-7,6.3l-2.2,1.8l-0.8,0.6l2.7,3.6
		l-1.6-4.2l-8.9,3.4l1.6,4.2l2-4l-0.9,1.8l1.3-1.6l-0.3-0.2l-0.9,1.8l1.3-1.6l0,0l0,0l0,0l0,0l0,0l-0.2-1c0-1,0.5-3.6,3.7-8
		c6.5-8.8,7.8-16.8,7.8-22.3c0-2.7-0.3-4.8-0.3-5.8c0-2.4-0.5-5.3-1.5-8.2c-0.6-1.4-1.1-2.8-2.1-4.2l-2-2c-0.9-0.6-2.1-1.1-3.6-1.1
		c-2,0-3.6,1-4.6,2c-1.1,1.1-1.8,2.2-2.5,3.6c-1.9,3.8-4.3,6.4-6.2,8l-2.3,1.7l-0.6,0.4l-0.1,0.1l0.6,1.1l-0.5-1.2l0,0l0.6,1.1
		l-0.5-1.2l2,4.1l3.4-3c-0.1-0.1-2-2.3-4.5-4.7c-1.3-1.2-2.6-2.4-4.1-3.5c-1.6-1-2.9-2-5.7-2.2c-1.5,0-2.8,0.5-3.6,1
		c-1.3,0.8-2,1.4-2.3,1.7l-0.2,0.1v0l0.5,1.2v-1.3l-0.5,0.1l0.5,1.2v-1.3v1.2l0.4-1.1l-0.4-0.1v1.2l0.4-1.1l-0.1-0.1
		c-0.3-0.1-1.1-0.8-2.3-2.2c-1.2-1.4-1.6-2.5-2.1-3.9c-0.3-1.1-0.6-2.4-1.1-3.9c-0.7-2.3-2.4-5.3-5.5-7.2c-3-1.9-7-3.2-12.9-4.2
		c-4.5-0.8-8.1-1.1-11.1-1.1c-4.4,0-7.6,0.6-10.2,2.3c-2.7,1.6-4.1,4.8-4,7.1c0,1.2,0.2,2.3,0.5,3.2l4.3-1.5l-4.3,1.4
		c0.7,2.2,1.3,4.4,1.3,8.8c0,1.9-0.1,4.2-0.5,7l0,0v0c-0.4,5-0.9,7.9-1.6,9l-1.6,1.7c-0.9,0.6-2.5,1.3-4.8,2.1
		c-5.8,1.8-8.8,5-10.5,6.6l-2,1.4c-0.6,0.3-1.7,0.6-3.7,0.6c-2.7,0-4.2,0-6.3,0.8c-1.5,0.7-2.6,2.1-2.9,2.5
		c-0.4,0.6-0.3,0.6-1.9,1.6c-1.5,0.9-4.6,2.4-10.2,4.2c-7.8,2.5-15.2,5.1-21.6,7c-6.4,1.9-11.9,3.1-15.3,3.1c-1.3,0-2.2-0.2-2.7-0.4
		l-0.9-0.5c-2.1-2.6-5.3-3.9-8-3.8c-4.5,0.1-8,2.3-10.7,4.1c-2.7,1.9-4.5,3.6-4.6,3.7l3.2,3.2l2.6-3.7c-5.5-3.8-10.2-7.7-13.5-10.6
		c-1.6-1.5-2.9-2.7-3.7-3.6l-0.8-0.9l-0.1-0.1l-1.9,1.4l2-1.1l-0.2-0.3l-1.9,1.4l2-1.1l-3.7,2.1h4.3c-0.1-1.7-0.4-1.8-0.6-2.1
		l-3.7,2.1h4.3h-4.5l3.2,3.2c1.1-1.1,1.3-2.5,1.3-3.2h-4.5l3.2,3.2l-3.2-3.2v4.5c0.7,0,2-0.2,3.2-1.3l-3.2-3.2v4.5v-4.3l-1.6,4
		l1.6,0.3v-4.3l-1.6,4l1.2-3.1l-1.8,2.8l0.6,0.3l1.2-3.1l-1.8,2.8l0.5-0.8l-0.6,0.8l0,0l0.5-0.8l-0.6,0.8l0.7,0.6h0v0l1.9,1.5
		c0.7,0.3,1.2,1,3.3,1.1c1,0,2.8-0.5,3.7-1.8c1-1.2,1.1-2.4,1.1-3c-0.1-1.9-0.5-2.4-0.9-3.3c-1.4-2.7-4-6.2-7.1-9.6
		c-1.6-1.7-3.2-3.2-5-4.5c-1.8-1.2-3.6-2.4-6.5-2.5c-2-0.1-4.5,1.2-5.6,3.1c-1.6,2.3-1.8,4.7-1.9,6.9c0,2.7,0.5,5.3,0.9,7.8
		c0.4,2.5,0.8,4.8,0.8,6.5c0,1.6-0.3,2.4-0.5,2.6c-0.2,0.2-0.5,0.6-2.6,0.8c-6.9,0.5-9.9,1.2-11.5,1.2c-1,0-1.8-0.1-3.8-0.7
		c-1.9-0.6-4.8-1.7-9.2-3.4c-5.1-2.1-7.5-3.5-8.7-4.5l-1.8-1.3c-0.6-0.5-2.2-1.3-3.7-1.3c-1.7,0-2.6,0.5-3.7,0.8
		c-1.1,0.4-2.4,1-4.3,1.7l0,0h0c-5.6,2.4-9.6,5.8-13.3,8.4c-3.7,2.6-6.7,4.1-10.8,4.2c-1.2,0-2.6-0.1-4.2-0.5l-1,4.4l1.1-4.4
		c-6.9-1.7-11.6-3.5-14.7-5.8c-3-2.3-4.9-5-6.4-9.9c-1-3.6-3.1-6.4-5.7-8c-3.8-2.3-7.3-2.4-10.3-3.5c-3-1-5.8-2.3-9-6.6
		c-3.8-4.8-4.7-14.5-6.2-23.9c-0.8-4.7-1.9-9.3-4.3-13.5c-2.4-4.2-6.6-7.6-12.3-8.6c-9.1-1.7-16.9-2.3-21.9-3.7
		c-2.5-0.7-4.2-1.5-5-2.2c-0.9-0.8-1.2-1.5-1.5-3.3l0,0v0c-0.8-7.3-6-12.7-12.5-16.3c-6.5-3.6-14.7-5.6-23.2-5.6
		c-1.1,0-2.2,0-3.4,0.1c-4.2,0.3-7.2,0.5-9.7,0.8c-1.8,0.2-3.3,0.5-4.8,1.2c-1.2,0.5-2.3,1.3-3.1,2.3c-1.3,1.6-1.7,3.1-2.1,4.5
		c-0.4,1.4-0.6,2.8-1.1,4.5l0,0v0.1c-0.9,3.4-2.5,8.4-4.4,12.2c-1,1.9-2,3.5-2.9,4.3l-0.9,0.7l-0.1,0.1l0.1,0.4v-0.4l-0.1,0l0.1,0.4
		v-0.4v0.5l0.1-0.5l-0.1,0v0.5l0.1-0.5l-0.1-0.1l-0.7-0.5c-4.2-4.2-8.2-7.1-11.4-9.9c-3.2-2.9-5.8-5.6-7.7-9.8l-4.1,1.9l4.1-1.8
		c-2.4-5.7-5.9-9.7-8.8-13.1c-3-3.3-5.3-6-6.6-9c-3.2-7.7-10.9-13.7-20.4-13.7c-2.4,0-4.9,0.4-7.4,1.2h0l0,0
		c-3.1,1.1-5.8,1.3-8.4,1.9c-1.3,0.3-2.8,0.7-4.3,2c-1.6,1.3-2.6,3.7-2.5,5.6c0.1,2.8,1,5.2,2.6,8.8v0l0,0.1
		c1.8,3.9,3.6,7.5,4.9,10.4c1.3,2.8,1.9,5.2,1.9,5.5l0,0l1.9,0.3l-1-1.6l-0.9,1.3l1.9,0.3l-1-1.6l0.6,0.9l-0.2-1l-0.3,0.1l0.6,0.9
		l-0.2-1l-0.6,0c-1.2,0-1.8-0.2-2.5-0.5l-1.2-0.6c-0.6-0.2-1.3-0.6-2.8-0.6c-1.5-0.1-3.3,0.9-4.1,1.9c-1.3,1.4-1.5,2.5-2.1,4
		c-0.5,1.4-1,3.3-1.6,5.8v0l0,0c-3.3,13.6-4.6,25.9-4.6,26.1l4.5,0.4l3.8-2.4l-7.6-12.2L285.9,708.3l3.9-2.3L285.9,708.3l-3.9,2.4
		l7.6,12.2l7.1,11.3l1.3-13.2c0,0,0.1-0.7,0.2-2c0.5-3.9,1.8-13.1,4.2-22.8h0v0c0.8-3.3,1.4-5.3,1.8-6.1l0.1-0.3l-2.1-1.2l1.5,1.9
		l0.7-0.7l-2.1-1.2l1.5,1.9l-2.2-2.8v3.6l2.2-0.8l-2.2-2.8v3.6v-3l-0.9,2.8l0.9,0.1v-3l-0.9,2.8l0.3-1.3l-0.4,1.3h0.1l0.3-1.3
		l-0.4,1.3c0,0,0.9,0.5,2.2,0.9c1.4,0.5,3.1,0.9,5.2,0.9c1.9,0,4.1-0.4,5.9-1.9c1.9-1.6,2.5-4.1,2.4-5.8c-0.1-3.2-1.2-5.9-2.6-9.2
		c-1.4-3.2-3.2-6.7-5-10.6l-4.1,1.9l4.1-1.8c-1.5-3.1-1.8-5-1.8-5.1h-1.2l1.1,0.4l0.1-0.4h-1.2l1.1,0.4l-2-0.8l1.5,1.6l0.5-0.8
		l-2-0.8l1.5,1.6l-0.9-0.9l0.6,1.2l0.3-0.2l-0.9-0.9l0.6,1.2l0.8-0.2c1.6-0.5,5-0.8,9.2-2.2H316l0,0c1.6-0.5,3.1-0.7,4.5-0.7
		c5.5,0,10.1,3.6,12.1,8.2c2,4.8,5.2,8.2,8.1,11.4c2.9,3.3,5.5,6.4,7.3,10.7v0v0c2.6,5.8,6.3,9.7,10,12.9c3.7,3.3,7.5,5.9,11,9.4
		c1.8,1.9,4.4,3.3,7.1,3.3c3.3,0,5.7-1.8,7.5-3.6c2.6-2.8,4.4-6.4,6-10.1c1.5-3.7,2.7-7.5,3.4-10.4l-4.4-1.1l4.4,1.2
		c0.6-2.4,1-4.1,1.2-5l0.2-0.5L394,685l0.3,0.3l0-0.1L394,685l0.3,0.3l-0.7-0.6l0.5,0.8l0.2-0.1l-0.7-0.6l0.5,0.8l-0.2-0.2l0.2,0.3
		l0,0l-0.2-0.2l0.2,0.3c0,0,0.9-0.4,2.8-0.6c1.9-0.2,4.7-0.4,8.7-0.7l2.8-0.1c7.1,0,13.9,1.7,18.8,4.4c5,2.8,7.5,6.2,7.8,9.3l0,0v0
		c0.3,3.6,2,7,4.5,9.2c3.8,3.3,8.5,4.4,13.7,5.3c5.2,0.9,11.1,1.5,17.5,2.7c3.2,0.7,4.7,1.9,6.1,4.3c2.2,3.6,3.2,10.1,4.2,17.2
		c1.1,7,2.2,14.7,6.8,20.9c5.7,7.8,12.8,9.8,17.2,10.8c2.3,0.6,3.8,1,4.6,1.5c0.7,0.5,1.2,0.9,1.8,2.8c1.8,6.2,4.9,11.2,9.6,14.7
		c4.7,3.5,10.5,5.5,18,7.3h0v0c2.2,0.5,4.2,0.7,6.2,0.7c6.7,0,11.9-2.9,15.9-5.8c4.1-2.9,7.6-5.8,11.5-7.4l-1.7-4.2l1.6,4.2
		c2-0.8,3.4-1.4,4.3-1.7l0.8-0.3h0l-0.4-1.8v1.8l0.4,0l-0.4-1.8v1.8v-2.9l-1.1,2.7l1.1,0.2v-2.9l-1.1,2.7l0.7-1.7l-1.1,1.5l0.4,0.2
		l0.7-1.7l-1.1,1.5c0.1,0,1.3,1.1,3.2,2.3c2,1.2,4.8,2.7,9.1,4.4c4.4,1.8,7.4,2.9,9.8,3.7c2.4,0.7,4.5,1.1,6.5,1.1
		c3.5,0,5.7-0.8,12.1-1.2c3.7-0.2,7-1.6,9.1-4.2c2-2.6,2.4-5.6,2.4-8.2c0-2.8-0.5-5.5-0.9-8c-0.4-2.5-0.8-4.8-0.8-6.3
		c0-1.3,0.3-1.8,0.3-1.8l-1.8-1.2v2.2l1.8-0.9l-1.8-1.2v2.2v-0.9l-0.2,0.9h0.2v-0.9l-0.2,0.9c0.1,0,1.3,0.6,2.6,1.8
		c1.9,1.7,4.2,4.3,5.8,6.5c0.8,1.1,1.5,2.1,1.9,2.9l0.3,0.7l0.1,0l2.7-1h-2.8l0.2,1l2.7-1h-2.8h4.2l-3.3-2.6
		c-0.9,1.2-0.9,2.1-0.9,2.6h4.2l-3.3-2.6l3.4,2.7v-4.3c-0.8-0.1-2.5,0.4-3.4,1.6l3.4,2.7v-4.3v3l1.7-2.6c-0.1,0.1,0-0.3-1.7-0.4v3
		l1.7-2.6l-0.9-0.7h0v0l-1.3-1.1l-0.7-0.5l-0.7-0.3c-0.3-0.1-0.7-0.3-1.7-0.4c-0.8,0-2.1,0.2-3.2,1.3c-1.1,1.2-1.3,2.5-1.3,3.2
		c0.1,1.2,0.3,1.6,0.4,2c0.5,1.1,0.8,1.2,1.2,1.7c1.2,1.4,3.6,3.8,6.9,6.7c3.3,2.9,7.7,6.4,12.7,9.9l3.1,2.1l2.7-2.7l0.2-0.2
		c0.5-0.5,2.2-1.9,4-3.1c1.8-1.3,3.9-2,4.8-2l1.1,0.5c1.3,1.6,3.1,2.7,4.9,3.3c1.8,0.6,3.7,0.8,5.7,0.8c5.3,0,11.2-1.5,17.9-3.5
		c6.7-2,14.1-4.6,21.6-7c5.4-1.7,8.9-3.2,11.4-4.5c1.8-1,3.1-2,4-3l1.4-1.6l0-0.1l-1.5-1.2l0.4,1.9l1-0.7l-1.5-1.2l0.4,1.9
		c0,0,0.9-0.2,2.8-0.1c2.8,0,5.2-0.4,7.3-1.3c3.1-1.3,4.7-3.3,6-4.4c1.3-1.2,2.6-2.2,5.8-3.3c2.7-0.9,5-1.9,6.9-3.2
		c3-1.9,5-4.7,5.8-7.7c0.9-3,1.1-5.9,1.5-9.6l-4.5-0.5l4.5,0.5c0.4-3.1,0.5-5.7,0.5-8c0-5.4-0.9-9-1.7-11.6l0-0.1l0,0l-0.1-0.2h-0.8
		l0.7,0.4l0.1-0.4h-0.8l0.7,0.4l-0.5-0.2l0.4,0.5l0.1-0.2l-0.5-0.2l0.4,0.5c0-0.1,1.6-0.9,5.4-0.9c2.4,0,5.5,0.3,9.6,1
		c4.8,0.8,7.5,1.8,9,2.6c1.1,0.7,1.5,1.1,1.8,1.5c0.4,0.6,0.8,1.9,1.4,4.1c0.5,2.2,1.6,5.2,4.1,8c1.4,1.6,2.7,2.8,4.1,3.8
		c1.4,0.9,3.1,1.6,4.8,1.6c3-0.1,4.8-1.7,5.7-2.3l0.8-0.6l-0.8-1.4v1.6l0.8-0.2l-0.8-1.4v1.6v-1.9l-0.5,1.9l0.5,0.1v-1.9l-0.5,1.9
		l0.1-0.3l-0.1,0.3l0,0.1l0.1-0.3l-0.1,0.3c0.3,0.1,3,2,4.7,3.8l2.4,2.4l1,1l2.2,2.6l3.1-1.5c0.5-0.2,8.1-4,13.2-14.2l0.5-0.9
		l0.2-0.3l-0.9-0.8l0.6,1.1l0.3-0.2l-0.9-0.8l0.6,1.1l-1.4-2.5v2.8l1.4-0.3l-1.4-2.5v2.8v-2.8l-1.6,2.3l1.6,0.5v-2.8l-1.6,2.3
		l0.9-1.3l-1.1,1.1l0.2,0.2l0.9-1.3l-1.1,1.1l0.2-0.1l-0.2,0.1l0,0l0.2-0.1l-0.2,0.1c0.2,0.2,0.9,1.6,1.3,3.2
		c0.4,1.5,0.6,3.2,0.6,3.9c0,1.9,0.3,3.7,0.3,5.8c0,4.2-0.7,9.6-6,17c-3.9,5.3-5.4,9.6-5.5,13.4c0,2.8,1,5.2,2.2,6.6
		c1.1,1.5,2.3,2.1,2.7,2.3l1.7,0.9l1.9-0.7l8.9-3.4l0.5-0.2l0.5-0.4c0.1,0,5.3-3.8,11.1-9.4c5.8-5.7,12.3-13.1,15-21.7
		c2.2-7.1,2.8-14.9,2.8-22.6c0-9.5-1-18.9-1.5-26.7c-1.2-15.4-7.1-24-7.5-24.5l-3.6,2.7l-3.2,3.2c0,0,0.7,0.7,1.9,1.9
		c1.7,1.8,4.5,4.7,6.9,7.7c2.5,3,4.8,6.1,5.8,7.9c4.2,8.3,11.6,11.7,12,12l5.3,2.6l1.2-5.9l2.3-12.1l0.3-1.7l-0.9-1.5l-6.8-11.1
		l-3.9,2.3l4.5,0.3c0-0.1,0.3-4.4,0.3-9.7c0-4.7-0.2-9.9-1.4-14.1l0-0.1l0-0.1c-1.3-3.4-3.6-5.4-6.3-7.5c-8-6.2-20.4-11.7-20.6-11.8
		l-2.6-1.2l-2.2,1.9l-1.2,1c-2.4,1.9-8,6.2-12.3,8.4c-1,0.5-1.8,0.9-2.3,1l-0.5,0.2h0l0.2,1.3v-1.3h-0.2l0.2,1.3v-1.3v2.5l1.7-1.8
		l-1.7-0.7v2.5l1.7-1.8l-1.3,1.3l1.5-1l-0.3-0.3l-1.3,1.3l1.5-1l-0.4,0.2l0.4-0.2l0,0l-0.4,0.2l0.4-0.2c-0.1-0.1-0.9-2.7-1.7-6.9
		c-0.4-2-0.7-4-0.7-6c0-6.4,2.1-13.3,2.9-21.5l-4.5-0.4l4.5,0.5c0.4-4,2.4-9.2,4.9-14.1c2.4-4.9,5.1-9.5,6.8-13.1
		c0.2-0.5,1.2-1.6,2.8-2.6c2.3-1.5,5.7-2.8,8.4-3.7c1.4-0.4,2.5-0.8,3.4-0.9l1.3-0.3l2.8-0.6l0.6-2.8c0-0.2,1.5-7.2,1.6-13.7
		c-0.1-3.4-0.2-6.6-2.4-9.9l-0.5,0.4l0.6-0.3l-0.1-0.1l-0.5,0.4l0.6-0.3c0,0-0.2-0.8-0.2-2c0-2.7,0.9-7.1,2.1-11
		c1.1-3.8,2.9-7.5,3.5-8.3l-2.2-1.7v2.7l2.2-1l-2.2-1.7v2.7v-2.2l-0.7,2l0.7,0.2v-2.2l-0.7,2l0.3-0.9l-0.4,0.9l0.1,0l0.3-0.9
		l-0.4,0.9l0.2,0.1c0.8,0.5,3.1,3.4,4.8,6.6c1.7,3.1,3.1,6.7,3.4,8.3l4.4-0.7l-4.4,0.6c0.5,3.8,2.5,11.8,4.3,20.5
		c1.8,8.6,3.5,17.8,3.4,21.9c0.2,7.2,4.6,12.7,9,17.7c4.5,5,9.3,9.7,11.6,13.4c0.7,1.2,1.6,4.3,2.1,8.1c0.5,3.8,0.7,8.4,0.7,13
		c0,9-0.8,18.2-1.3,22.3c-0.2,1.4-1,3.9-2.4,6.7c-2,4.2-5,9.3-7.5,13.8c-1.3,2.3-2.5,4.5-3.5,6.6c-1,2.1-1.8,3.9-2.2,5.9l4.5,0.7
		l-4.5-0.8l-0.2,2.2c-0.1,3.1,1.7,6.2,3.9,7.4c2.1,1.3,4,1.3,5.3,1.4l1.8-0.1l2.1-0.4l1-1.7c0.1-0.1,1.5-2.4,3-5.6
		c1.5-3.2,3.1-7,3.2-11.2c0-1.6,0.8-4.9,2.4-8.4c1.6-3.6,3.7-7.6,5.8-11.3v-0.1h0.1c1.6-3,2.3-6.4,2.7-10.4c0.4-4,0.6-8.6,0.6-13.5
		c0-9.7-0.5-20.6-0.5-30.3c-0.1-20.8-5.6-34.5-5.5-46.6c0-8.4-4.6-14.8-9.7-19.4c-5.1-4.7-10.8-8.1-14.5-10.7
		c-1.4-1-2.5-2.7-3.3-5.2c-0.8-2.5-1.1-5.7-1.1-9c0-3.8,0.5-7.9,0.8-11.4l0,0v0c0.5-4.1,1.7-6.2,3.4-10.6c1.7-4.4,3.2-10.5,3.2-20.8
		c0-10.2-1.1-15.6-3-19.7c-0.9-2-1.9-3.5-2.8-4.7c-0.8-1.3-1.5-2.3-2.2-3.9l0,0v0c-1-2.4-2.9-4.2-5-5c-2-0.9-3.9-1-5.5-1
		c-2.2,0-4.2,0.3-5.3,0.3l-0.6,0l-0.2,1l0.5-0.9l-0.2-0.1l-0.2,1l0.5-0.9l-1.1,2.4l2.2-1.3l-1.1-1.1l-1.1,2.4l2.2-1.3l-1.7,1h2.1
		l-0.4-1l-1.7,1h2.1l0.2-1l-4.3-1.4l4.3,1.4c1.7-5,2.4-7.8,2.9-9.2c0.4-1.5,0.6-1.8,2.2-4c2.4-3.4,3.1-7.2,3.6-10.3
		c0.5-3.1,0.5-5.4,0.5-5.6v-2.6l-2.3-1.3l-17.6-10l-1.6-0.9l-1.7,0.5l-21,5.5l-1.3,0.4l-0.9,1l-15.5,17.6l-0.7,0.8l-0.2,0.9
		c0,0-0.2,0.6-0.6,1.6c-0.5,1.5-1.4,3.9-2.5,6.1c-1,2.2-2.4,4.1-3,4.5c-2.5,1.9-3.6,5.1-3.4,7.4c0,3,0.9,5.5,1.6,7.8
		c0.7,2.4,1.2,4.5,1.2,6v0l2.4,0.3l-1.6-1.6l-0.8,1.3l2.4,0.3l-1.6-1.6l2.2,2.1v-3.1l-2.2,1l2.2,2.1v-3.1v1.8l0.4-1.7l-0.4,0v1.8
		l0.4-1.7l-0.1,0.5l0.1-0.5h-0.1l-0.1,0.5l0.1-0.5c-0.1,0.1-2-1.1-3.3-2.2l-1.7-1.5l-0.7-0.6l-0.7-0.7l-0.9-0.3
		c-0.3,0-5.8-2.2-11.6-2.3c-1.5,0-3,0.1-4.6,0.7c-1.6,0.5-3.3,1.5-4.5,3.2l3.7,2.7l-3.6-2.7c-3.5,4.6-7.8,11.3-7.9,11.3l3.8,2.5
		l2.6-3.7c0,0-2.1-1.5-4.7-3.1c-2.7-1.6-5.8-3.4-8.8-4.2l-0.1,0h0l-1.8-0.2c-2.6,0-4.5,1.1-6.1,2.2c-4.6,3.4-7.8,8.5-8,8.8l3.8,2.5
		l1.6-4.2l-9-3.3l-1.6,4.2l2.2-3.9l-0.6,1.2l0.7-1.2l0,0l-0.6,1.2l0.7-1.2c-0.2-0.2-6.2-3.9-8.9-13.8c-0.5-1.6-0.6-2.9-0.6-3.8
		c0.1-2.5,0.8-2.9,1.3-3.4l0.9-0.5l0.2-0.1l-0.2-1.2l0.1,1.2l0.1,0l-0.2-1.2l0.1,1.2l-0.1-9c-0.1,0-11-1-14.9-1
		c-2.2,0-3.7,0.8-5.4,1.7c-4.9,2.7-10.9,7.8-14.8,13.6c-1.2,1.7-2,3.5-2,5.8c-0.1,2.3,1.2,4.4,2.5,5.6c2,1.8,4,2.6,6.2,3.6
		c2.2,1,4.5,2.1,6.9,3.5c8.8,5.5,8.8,5.9,14.6,11.5l3.2-3.2l-3.2,3.2c2.7,2.7,3.2,6.4,3.2,8.4l-0.1,0.9v0.2l0.6,0l-0.6-0.1v0l0.6,0
		l-0.6-0.1l4.5,0.7l-3-3.4c-0.2,0.3-8.4,7.2-13.3,18.2l-0.8,1.4l0.5,0.6l-0.3-0.7l-0.2,0.1l0.5,0.6l-0.3-0.7l0.6,1.4v-1.5l-0.6,0.1
		l0.6,1.4v-1.5v1.1l0.3-1l-0.3-0.1v1.1l0.3-1l0,0.1l0.1-0.1h0l0,0.1l0.1-0.1c-0.3,0-2-1.5-3.4-4c-1.5-2.4-2.9-5.6-3.9-8.8
		c-1.2-4-4.1-7-7.3-8.5c-3.2-1.5-6.7-2-10-2c-6.7,0-12.9,1.8-16.2,3v0h-0.1c-2,0.8-3.4,2.2-4.4,3.7c-2.9,4.4-2.9,9.2-3,12
		c0,1.2,0.1,2.1,0.1,2.2l4.5-0.4l1.3-4.3l-17.6-5.5l-0.8-0.2l-0.9,0.1c0,0-11,1-23.2,2.1l-2,0.1l-0.9,0l-0.1,0l-0.5,2.3l1.6-1.7
		l-1-0.6l-0.5,2.3l1.6-1.7l-2.4,2.5h3.5l-1.1-2.5l-2.4,2.5h3.5h-2.3l2.1,1l0.2-1h-2.3l2.1,1l0.2-0.3c0.5-0.8,2-2.3,3.6-4
		c1.7-1.7,3.6-3.7,5.5-5.8c1.9-2.2,3.2-4.6,3.3-7.5c0-2.3-1-4.2-2-5.6c-1.6-2-3.2-3.3-4.7-4.8c-1.5-1.5-2.8-3-3.8-4.8
		c-1.4-2.9-3.5-5.1-5.7-6.4c-2.3-1.3-4.7-1.8-6.6-1.8c-3.9,0.1-6.6,1.5-6.9,1.6l2,4l3.3-3l-8.8-10l-3.4,3l4.5-0.6l-2.2-16.6
		l-0.1-0.7l-0.4-0.7c0,0-6.7-13.3-11-22v0l0-0.1c-1-1.9-2.2-3.6-3.8-4.8c-1.6-1.2-3.6-2-5.5-1.9c-3.9,0.1-6.6,2.2-8.6,4.6
		c-2,2.5-3.4,5.6-4,9l0,0v0c-0.1,1.2-0.2,2.3-0.2,3.4c0,3.8,1.3,7.1,3.3,10c2,2.9,4.5,5.7,7.9,10l3.5-2.9l-3.6,2.8
		c4.5,5.8,6.4,9.9,6.3,12.3c-0.1,1.5-0.5,2.9-2.6,5.1c-2.8,2.7-4.3,3.3-7.4,4.1c-3.1,0.8-7.8,1.4-14.2,3.7c-3.4,1.2-6,2.6-8.1,4.3
		c-3.2,2.6-4.6,6.1-5.3,9.1c-0.6,3-0.8,5.7-1.6,8.6v0v0c-0.3,1.4-0.7,1.7-1.3,2.1c-0.6,0.4-1.6,0.7-3,0.7c-2.5,0.1-5.9-1.1-7.7-2.3
		l0,0l0,0c-1.5-0.9-3.3-1.5-5-1.5c-2,0-3.7,0.7-5,1.5c-3.8,2.6-5,6.1-5.2,6.4l-0.2,0.6l-0.1,0.6l-2.4,16.5l4.5,0.7l3.3-3l-9.9-10.9
		l-0.3-0.4l-0.3-0.2l-9.9-7.7l-3.2-2.5l-2.8,2.8c0,0-1.8,1.7-3.7,3.5l-2.7,2.3l-0.7,0.5l0.6,1l-0.4-1.1l-0.2,0.1l0.6,1l-0.4-1.1
		l1.4,3.4v-3.7l-1.4,0.3l1.4,3.4v-3.7v4.3l3.2-2.9c-1-1.2-2.5-1.4-3.2-1.4v4.3l3.2-2.9l-3.1,2.8h4.3c0-0.5-0.1-1.7-1.1-2.8l-3.1,2.8
		h4.3h-3.3l3.1,1.1l0.2-1.1h-3.3l3.1,1.1l0-0.1l0-0.1c1-3.3,2.6-10.1,2.7-15.4c0-1.3-0.1-2.5-0.5-3.9l-1.4-2.4
		c-0.8-0.9-2.4-1.7-3.7-1.6c-2.9,0.2-3.7,1.4-4.5,2.1c-1.2,1.2-2.1,2.4-3,3.7c-0.9,1.2-1.8,2.4-2.6,3.1l3.3,3.2l-3.2-3.2
		c-2.3,2.5-7.8,4.6-12.2,8.8c-3.3,3.4-9.4,9.3-15.1,18.5c-1.1,1.9-1.9,3-2.3,3.5l-0.2,0.2l1.2,1.2l-0.9-1.4l-0.3,0.2l1.2,1.2
		l-0.9-1.4l1.9,3.3v-3.8c-1,0-1.6,0.3-1.9,0.5l1.9,3.3v-3.8v4.2l2.9-3.1l-2.9-1.1v4.2l2.9-3.1l-2.6,2.8l3.8-0.8
		c-0.1-0.3-0.2-1-1.2-2l-2.6,2.8l3.8-0.8l-2.1,0.5h2.1l0-0.5l-2.1,0.5h2.1v-0.1l0.3-2l-1.3-1.6c0,0-4.1-4.9-8.4-10.3
		c-2.1-2.7-4.3-5.4-5.9-7.7c-0.8-1.1-1.5-2.1-2-2.9l-0.6-0.9l-0.1-0.2l-1.2,0.6l1.3-0.4l0-0.1l-1.2,0.6l1.3-0.4l0-0.1v0
		c-0.2-0.4-0.4-1.6-0.4-3.3c0-3.3,0.9-8.7,3.7-15.5v0v0c0.7-1.6,1.8-2.9,4.1-4.2c3.3-1.9,8.8-3.4,14.9-4.6c6.1-1.2,12.8-2.3,19-4.1
		c8.2-2.4,13.1-5.5,16-8.3c2.9-2.9,3.7-5.5,3.8-6.3l1-5.3h-5.4h-16.6h-0.7l-0.7,0.2c0,0-1.6,0.5-5.6,1.8c-4,1.2-10.3,3.2-19.8,5.9
		c-13.2,3.9-17.6,4.3-18,4.3v2.1l0.5-2l-0.5-0.1v2.1l0.5-2l-1,4.2l3-3.1l-2-1.1l-1,4.2l3-3.1l-3.3-3.3l-3.1,3.5
		c-0.1,0.1-2.6,3-5.6,7c-2.9,4.1-6.1,9.3-7.5,14.8c-0.5,1.8-0.7,3.6-0.7,5.3c0.1,8.3,4.7,13,5.1,13.4l3.2-3.2l-4-2.2
		c-0.1,0.1-1.4,2.6-2.8,5.8c-0.8,1.6-1.5,3.4-2.1,5.2c-0.6,1.8-1,3.5-1.1,5.5l0,0l1.5,0.3l-0.8-1.2l-0.7,0.9l1.5,0.3l-0.8-1.2
		l0.5,0.8l-0.3-1l-0.2,0.1l0.5,0.8l-0.3-1l-0.1,0c-0.6,0-2.2-0.4-3.6-1.5l0,0l0,0c-1.2-1-1.2-1.1-1.7-3.2c-0.4-2-0.4-5.5-0.9-10.2
		c-0.6-5.5-3.4-9.3-6.3-11.1c-2.9-1.8-5.4-1.8-5.8-1.8h-3.9l-0.5,3.8l-2.2,14.4l4.4,0.7l-0.6-4.5l-15.6,2.3l0.6,4.5l3.5,2.8
		c0.1-0.1,1.4-1.7,2.7-4.1c1.3-2.4,2.7-5.7,2.7-9.6c0-2.3-0.7-4.5-1.8-6c-1.7-2.4-3.8-3.6-5.5-4.2c-1.7-0.7-2.9-0.9-3.1-0.9
		l-1.9-0.3l-1.5,1.2l-10,7.7l2.8,3.6l-2.5-3.8l-10.1,6.7l2.5,3.8l-1.2-4.3l-12.1,3.3l1.2,4.4l0.8-4.5c0,0-3.2-0.5-6.8-1.4
		c-1.8-0.4-3.7-0.9-5.2-1.3c-1.5-0.4-2.7-1-2.7-1l-1.9,2.9l3.2-1.4l-1.3-1.5l-1.9,2.9l3.2-1.4l-2.6,1.1h2.9l-0.2-1.1l-2.6,1.1h2.9
		h-1.3l1.3,0.2v-0.2h-1.3l1.3,0.2l0.4-1.1c1.1-2.4,3.9-6.7,6.5-10.1c1.3-1.7,2.5-3.3,3.4-4.4c0.9-1.1,1.4-1.8,1.4-1.8l-3.5-2.9
		l-4.3,1.2l3.2,12.2l0.6,2.2l2.2,0.9l14.3,5.6l3.2,1.2l2-2.8l10-13.3l0.7-1.1l0.2-1.3l1.1-14.4l0.1-1.2l-0.6-1.1l0,0
		c-0.2-0.5-1.5-3.6-1.4-6.1c0-1.5,0.3-2.6,1-3.5l-3.5-2.8l3.5,2.9c1-1.2,1.7-2.9,1.7-4.7c0-1.7-0.7-3.2-1.4-4.3
		c-1.3-1.9-2.9-3.1-4.6-4.2c-4.9-3.2-11.1-5-11.3-5l-1.9-0.6l-1.7,1c-0.3,0.2-8.6,4.9-13.8,13.9c-2,3.4-4.1,5.8-5.8,7.4l-1.9,1.7
		l-0.5,0.4l-0.1,0l0.5,0.8l-0.5-0.8h0l0.5,0.8l-0.5-0.8l-0.6,0.3l-0.4,0.5L340,498.6l3.4,3l-0.6-4.5l-7.8,1.1h-0.2l-0.2,0
		c-0.1,0-3.9,0.9-8.7,2.8c-4.9,1.9-10.9,4.8-15.5,9.4c-3.8,3.9-7.8,7.8-10.8,11.3c-1.5,1.7-2.9,3.4-3.9,5c-1,1.7-2,3.1-2.1,5.7h1.6
		l-1.6-0.2v0.2h1.6l-1.6-0.2c0,0.1-0.4,1.7-1.2,3.6c-2.4,6-7.7,16.5-11.6,24.4c-2.4,4.8-3.3,9-3.3,12.4c0,5.3,2.1,8.4,2.6,9l3.5-2.8
		l-4.4-0.8c0,0.2-0.7,3.9-0.7,9.1c0,4.1,0.4,9.1,2,14.1l0,0v0c0.5,1.7,0.8,3.9,0.8,6.2c0,4-0.7,8.5-1.5,11.9c-0.4,1.7-0.8,3.1-1,4.1
		c-0.3,1-0.4,1.5-0.4,1.5l4.3,1.4l-1.2-4.4c0,0-7.8,2.2-11.3,3.4l0,0l0,0c-2.2,0.9-3.3,2.1-4.5,3.3c-3.2,3.7-5.7,8.8-5.8,8.9
		l-0.6,1.2l0.2,1.4l0.2,1.5c0.3,2.9,0.9,10,0.9,19c0.1,4.3,1.6,8.9,3.6,14.2c6.2,15.7,18.1,35.5,18.2,35.6v0l0,0L285.9,708.3"/>
	<g>
		<path class="st12" d="M394.7,1001.6c3.9-5.9-2.4-7-2.3-9.8c0.2-5.5,3.7-10.7,13.8-9.9c10.8,0.9,23,7.5,28.6,16.8
			c10.2,16.9-5.5,32.5-23.3,28.3c-10.9-2.6-22.7-4.4-33.8-2.2c-7.9,1.7-19.8,5-25.5,11.2c-4,4.6-9.2,10.7-9.8,17.1
			c-0.2,4.1-1.1,8.7,1.3,12.2c1.6,2.5,5.6,5.2,8.8,4.3c9.2-2.7,5.5-5.6,4.8-13.3c-0.2-2.1,1.3-5.1,2.9-5.1c1.7,0,9,5.4,14.8,13.1
			c5.6,7.8,9.8,14.5,13.6,19c3.8,4.5,9.1,8.8,15.4,9.1c13.7,0.9,31.3-13.6,24.7-28.7c-1.8-4.3-7.9-10.8-12.8-9.5
			c-3.8,0.9-6.7,3.1-6.9,7.1c0,3.2,1.1,8.3,4.7,8.4c2.7,0.3,3.6-0.7,3.9,1c0.1,1.9-0.5,5.6-2.5,6.6c-3.4,2-9.1,3.9-12.4,0.7
			c-4.2-4-8-12-11.7-17.8c-3-4.3-9.3-12.2-14.7-13.7c-2.3-0.5-5.3-2-7.3-2c-2.2,0-7.6-0.4-6.2-2.4c1.4-2.1,7.7-5.1,14.3-4.6
			c6.6,0.7,17.7,1.7,27.1,2.5c9.5,0.8,26.4,0.8,30.8-2.2c17.3-11.8,19.5-36.5,5.4-51.6c-13.2-14-37.2-21.8-54.5-10.1
			c-6.4,4.2-10.8,11.9-8.6,19.8c1.2,4.5,6.2,11.1,11.5,9.1C390.1,1004.4,392.8,1004.9,394.7,1001.6"/>
		<path class="st12" d="M757.8,986.5c0,0,6.6-2.8,11.5-5.7c4.8-2.9,8.1-4.5,10.3-6.9c2-2.5,3.5-5.4,6.1-2.5
			c2.4,2.8,15,23.2,19.5,33.8c4.5,10.5,13.9,25.6,15.1,29.3c1.3,3.7,5.3,11.5,8.6,16.2c3.3,4.9,2.1,5.8,6.1,6.1
			c4.1,0.5,9.5-3.2,13-6.6c3.6-3.1,7.7-5.2,10.2-2.7c2.4,2.4,2.8,6.9-1.6,10.1c-4.6,3.2-18.3,8.1-20.9,9.8
			c-2.5,1.6-3.3,2.8-10.1,6.2c-6.9,3.2-9.7,5.2-13.8,8.5c-4.3,3.3-9.5,5.7-10.2,0.8c-0.9-4.9-1.5-7.3,3.2-10.1
			c5.6-3.7,11.1-2.1,12.3-6.5c1.2-4.5,2.5-1.7-5.7-19.6c-8.1-18-13.1-27.8-20-40.4c-7-12.6-8.3-17.5-12.6-17.9
			c-4.6-0.5-6.6,2-9.7,4.4c-3.4,2.4-6.5,6.9-9.5,3.3c-2.8-3.8-4.1-5.7-2.8-6.9C757.8,988.2,757.8,986.5,757.8,986.5"/>
		<path class="st12" d="M492.9,1062.4c2.8-13,6.5-23.2,11.3-30.5c4.9-7.3,10.7-12.6,17.7-15.6c7.1-2.9,15.2-3.5,24.7-1.6
			c6.9,1.4,12.9,4,17.7,7.4c4.7,3.5,8.3,7.8,10.7,12.9c2.6,5.2,4,11.3,4.7,18.1c0.5,6.9-0.3,15.8-2.5,26.6
			c-2.5,13-6.5,23.2-11.2,30.5c-4.7,7.4-10.6,12.5-17.7,15.7c-7.1,3-15.4,3.5-24.9,1.5c-12.4-2.5-21.4-8.4-26.9-17.4
			C489.8,1099.1,488.7,1083.2,492.9,1062.4z M509.1,1065.9c-3.8,18.1-3.8,30.8,0,37.7c3.7,7,9.3,11.2,16.5,12.8
			c7.2,1.4,14.1-0.3,20.2-5.2c6.3-5,11.4-16.5,15.2-34.6c3.6-18.2,3.6-30.8,0-37.7c-3.7-7.1-9.2-11.4-16.8-12.9
			c-7.2-1.5-13.5-0.1-19.2,4.3C518.1,1035.9,512.9,1047.8,509.1,1065.9"/>
		<path class="st12" d="M631.2,1074.6c-2.2-13-2.3-23.9-0.3-32.6c1.8-8.5,5.6-15.4,11.1-20.8c5.5-5.3,13.1-8.7,22.6-10.1
			c7-1.2,13.3-0.9,19,0.7c5.5,1.6,10.4,4.3,14.7,8.3c4,4,7.6,9.1,10.5,15.3c3.1,6.3,5.3,15,7.1,26c2,13,2.1,23.8,0.3,32.4
			c-2,8.6-5.7,15.4-11.3,20.8c-5.5,5.4-13.1,8.7-22.5,10.2c-12.8,2.1-23.1-0.2-31.5-6.8C641.1,1110.1,634.5,1095.6,631.2,1074.6z
			 M647.6,1072.2c2.8,18.4,7.3,30.2,13.3,35.4c5.9,5.3,12.5,7.3,19.8,6.1c7.4-1.2,13.1-5.1,17.1-11.9c4.1-6.8,4.7-19.4,1.8-37.8
			c-2.9-18.3-7.3-30.1-13.1-35.4c-5.9-5.3-12.7-7.3-20.2-6c-7.3,1.1-12.9,4.8-16.5,10.7C645.5,1040.9,644.6,1053.9,647.6,1072.2"/>
	</g>
	<g>
		<path class="st12" d="M157.2,827.8c-5.1-10.1-5.9-20.6,6.3-27c15.6-8.1,23.1,4.5,26.3,10.5l5.9,11.1l17-8.8l6.1,11.6L169.3,851
			L157.2,827.8z M186.1,827.5l-4.8-9.2c-2.9-5.6-6.3-7.4-11.1-4.9c-6.7,3.5-3.4,9.1-2.1,11.8l4.8,9L186.1,827.5"/>
		<path class="st12" d="M167.8,786.7c-12.3,4.4-29.7,4.1-37.1-16.8c-6.5-18.1,2.3-30.8,18.2-36.4c15.8-5.7,30.8-1.5,37.2,16.6
			C193.5,771,180.1,782.5,167.8,786.7z M153.6,746.8c-4.8,1.8-17.3,6.8-12.8,19.6c2.9,8.4,10.3,11.1,22.3,7
			c13.6-4.9,15.1-12.6,12.8-19.5C171.4,741.2,158,745.2,153.6,746.8"/>
		<path class="st12" d="M143.3,668.5c8.3-0.8,21.9,1.2,25.9,20.6c2.9,14.1-0.9,28.2-22.3,32.6c-28.9,6-34.3-15-35.3-20.2
			c-4-19.4,7.2-26.8,15-28.9l2.7,12.6c-9,3.2-7.9,10.4-7.2,13.4c0.7,2.9,3.3,13,21.5,9.2c10.4-2.1,16.7-8.3,14.9-17
			c-1.8-8.4-8.4-9.6-12.6-9.4L143.3,668.5"/>
		<path class="st12" d="M138.4,606.5c8.4,0.2,21.6,4.1,23,23.8c1,14.4-4.7,27.9-26.5,29.4c-29.3,2-31.8-19.4-32.3-24.8
			c-1.3-19.7,10.7-25.6,18.8-26.6l1,12.9c-9.2,1.8-9.1,9.3-8.9,12.3c0.2,3,1.5,13.3,20.1,12.1c10.4-0.7,17.7-6.1,17-15
			c-0.7-8.7-7-10.8-11.2-11L138.4,606.5"/>
		<polyline class="st12" points="104.9,556.8 105.7,543.7 161.3,547.3 160.5,560.4 124.2,558.1 159,582.8 158.1,595.9 102.6,592.4 
			103.4,579.1 139.4,581.5 104.9,556.8 		"/>
		<path class="st12" d="M98.6,503c2.7,0.6,5.6-0.8,6.4-5.7c1.2-4.9-0.8-7.2-3.6-7.9l1.8-8.7c10.2,2.9,8.1,15,7.5,17.8
			c-0.8,4-4.1,14.6-13.9,13.2L98.6,503z M115.8,488l2.5-12.9l54.6,11.2l-2.6,13l-35.8-7.3l31.2,29.1l-2.6,12.9l-54.7-11.3l2.8-12.9
			l35.3,7.3L115.8,488"/>
		<path class="st12" d="M174.8,419.6c7.5,3.6,18.1,12.4,11.4,31.1c-4.6,13.5-15,23.7-35.7,16.4c-27.7-9.7-21.7-30.6-20-35.6
			c6.7-18.7,20-19.4,27.9-17l-4.3,12.2c-9.1-1.9-12.1,4.9-13.1,7.9c-1,2.7-3.9,12.7,13.6,19c10,3.6,18.7,1.5,21.6-7
			c3-8.1-2.2-12.7-5.9-14.5L174.8,419.6"/>
		<polyline class="st12" points="162.3,363.5 169.3,349.6 181.8,381.2 219.7,373.7 212.2,388 179.2,393.5 179,393.6 203.3,405.9 
			197.4,417.6 147.5,392.4 153.5,380.6 174.4,391.4 174.4,391.1 162.3,363.5 		"/>
		<path class="st12" d="M192.5,314.3l58,13.7l-7.8,11.7l-10.7-2.9l-11.3,16.9l6.6,8.7l-7.8,11.5l-34.4-48.6L192.5,314.3z
			 M222.5,333.9l-21.6-6l13.4,18L222.5,333.9"/>
		<path class="st12" d="M256.6,291.8l7.3,20.9l-10.3,11.9l-6.5-23.4c-4.8,4.2-13.7,7.7-23-0.4c-12-10.7-4.4-22.4-0.2-26.9l18.8-21.3
			l41.7,36.8l-8.6,9.9l-14.4-12.7L256.6,291.8z M233.9,278.8c-4.4,5.1-2.6,9-0.2,11.2c2.4,2.1,6.5,4,11.7-1.9l7.8-8.8l-11.1-9.7
			L233.9,278.8"/>
		<path class="st12" d="M325.3,245.6l-1.8,1.3c-17.1,13-29.3,5.1-34.7-2.1c-5.3-6.9-9.8-20.9,7.3-33.9l1.7-1.3l-4.7-6.2l10.5-8.1
			l4.7,6.3l1.6-1.3c17.3-13.2,29.4-5,34.7,2c5.5,7.2,10,20.8-7.3,34l-1.6,1.1l4.7,6.3l-10.4,8.1L325.3,245.6z M305.1,217.3l-0.8,0.6
			c-2.2,1.6-12,8.7-4.6,18.6c3.6,4.5,9.2,8,19.2,0.5l0.8-0.6L305.1,217.3z M329.2,229.2c7.2-5.7,9.7-11.8,4.5-18.6
			c-7.6-9.8-16.9-2.2-19.1-0.5l-0.9,0.7l14.7,19.1L329.2,229.2"/>
		<path class="st12" d="M369.2,157.3l12.5-7.1l5.9,47.6c1.5,12.4-3.5,16.2-9,19.4c-2.7,1.4-5,2.3-7.9,3.2l-5.2-9.5
			c1.3-0.3,3.2-0.9,5.2-2c4-2.3,4.2-5.8,3.5-8.1l-37.8-25L350,168l24.2,17.8L369.2,157.3"/>
		<polyline class="st12" points="393.3,156.9 389.1,147 432.6,128.9 436.7,138.7 421.1,145.4 438.4,186.7 426.2,191.9 408.9,150.4 
			393.3,156.9 		"/>
		<path class="st12" d="M465.2,140.3l13-3.6c4.5-1.3,20.6-5.3,25.4,11.9c3,10.9-3.6,18.3-16,21.8l-25.6,7.1l-15.1-53.7l41.8-11.6
			l3,10.5l-29.2,8.1L465.2,140.3z M471.6,163.7l10.4-2.9c5-1.4,9.1-3.6,7.8-8.7c-1.9-6.4-8.2-5-11.2-4.2l-10.6,2.9L471.6,163.7"/>
		<path class="st12" d="M512.1,135.4c-1.8-12.9,2.4-30,24.3-32.9c19.1-2.6,29.6,8.8,32,25.5c2,16.7-5.3,30.4-24.4,32.9
			C522,163.8,513.7,148.3,512.1,135.4z M554.1,129.8c-0.6-4.9-3-18.4-16.5-16.7c-8.9,1.2-13.1,7.7-11.4,20.3
			c1.8,14.5,9.1,17.7,16.2,16.7C555.9,148.4,554.7,134.5,554.1,129.8"/>
		<path class="st12" d="M577.5,144.4c12.4,1.7,12.9-8.8,13.3-18.2l0.8-26.5l41.4,0.5l-0.7,55.7l-13.2-0.1l0.7-45l-15.9-0.2
			l-0.8,19.5c-0.3,10.7-2.3,28.6-25.7,25.1L577.5,144.4"/>
		<path class="st12" d="M663.8,123.9l13.9,2.1c16.1,2.5,18.5,12.6,17.1,21.1c-1.7,11.9-9.3,16-22.5,14l-26.7-4l8.2-55l13,1.8
			L663.8,123.9z M660.3,148.4l11.1,1.8c5.4,0.8,8.8-0.7,9.5-5.7c0.7-4.9-2.4-7.3-8-8.1l-10.5-1.6L660.3,148.4"/>
		<polyline class="st12" points="714.9,170.1 702.2,166.4 717.7,112.8 730.3,116.5 724.5,136.6 743.9,142.3 749.8,122.1 
			762.6,125.8 747.1,179.3 734.4,175.7 740.9,152.7 721.5,147 714.9,170.1 		"/>
		<path class="st12" d="M807.1,144.1l-2.9,59.4l-12.9-5.6l0.9-11l-18.8-8.1l-7.3,8.1l-12.6-5.5l41.5-42.8L807.1,144.1z M793.4,177.1
			l1.9-22.4l-15.2,16.6L793.4,177.1"/>
		<path class="st12" d="M841,203.2l-19.3,10.9l-13.5-8.1l21.8-10.7c-5-3.9-10-11.8-3.6-22.6c8.3-13.8,21-8.2,26.3-5l24.3,14.6
			l-28.7,47.8l-11.3-6.9l9.9-16.5L841,203.2z M849.6,178.5c-6.1-3.6-9.4-1.1-11.1,1.8c-1.6,2.5-2.9,7.1,3.9,11.1l10,6.2l7.8-12.7
			L849.6,178.5"/>
		<polyline class="st12" points="886.1,259 876.2,250.3 913.1,208.6 948.7,240.1 911.7,281.8 901.9,273.1 931.7,239.5 915.9,225.5 
			886.1,259 		"/>
		<path class="st12" d="M980.2,274.6c7.6,8.6,10.8,18.8,0.3,27.8c-13,11.4-23.5,1.1-28.1-4l-8.2-9.5l-14.5,12.5l-8.6-9.9l42.1-36.6
			L980.2,274.6z M952.4,281.8l6.9,7.8c4,4.7,7.9,5.6,11.9,2.2c5.8-5,1.3-9.7-0.8-11.9l-6.6-7.8L952.4,281.8"/>
		<polyline class="st12" points="1008.2,349.8 999.5,355.4 984.3,332.8 974,339.8 991.8,366.2 982.7,372.3 957.4,334.9 
			1003.9,303.7 1028.5,340.5 1019.6,346.6 1002.3,320.8 992.8,327.1 1008.2,349.8 		"/>
		<polyline class="st12" points="1029.2,374.7 1029.2,374.5 993.3,391.6 987.7,379.7 1038,355.8 1045.8,372.4 1017,401 
			1057.3,396.7 1065.3,413.4 1014.9,437.3 1009.3,425.4 1045.2,408.3 1045.2,408.1 1003.2,412.5 999.2,404.5 1029.2,374.7 		"/>
		<path class="st12" d="M1056.7,452.2l4.1,13.3c4.8,15.7-3.5,22.1-11.5,24.6c-11.6,3.5-18.6-1.7-22.4-14.4l-7.8-25.9l53.3-16.1
			l3.8,12.6L1056.7,452.2z M1033.2,459.3l3.2,10.6c1.6,5.3,4.4,7.7,9.1,6.4c4.9-1.5,5.6-5.4,4-10.7l-3.2-10.4L1033.2,459.3"/>
		<polyline class="st12" points="1074.7,539.4 1064.5,541.2 1060,514.2 1047.7,516.3 1053,547.7 1042.2,549.5 1034.8,505 
			1089.7,495.7 1097.1,539.4 1086.5,541.2 1081.2,510.6 1070.1,512.6 1074.7,539.4 		"/>
		<path class="st12" d="M1099.8,582.2c0.6,11.4-3.3,21.3-17.1,21.9c-17.4,0.8-19.1-13.8-19.3-20.7l-0.6-12.5l-19.2,0.9l-0.5-13.2
			l55.7-2.4L1099.8,582.2z M1073.6,570.5l0.4,10.3c0.3,6.3,2.6,9.3,8,9c7.6-0.3,7-6.7,6.8-9.7l-0.4-10.3L1073.6,570.5"/>
		<polyline class="st12" points="1070.5,617.3 1069.1,640.4 1059.2,639.8 1060.5,616.6 1070.5,617.3 		"/>
		<path class="st12" d="M1053.4,649.9c-3.7,11.9,6.6,14.3,15.9,16.1l26,4.9l-7.1,40.8l-54.9-9.6l2.3-13l44.2,7.6l2.6-15.5l-18.9-3.7
			c-10.6-2.1-28.1-6.9-20.8-29.5L1053.4,649.9"/>
		<polyline class="st12" points="1072.2,765.9 1068.2,778.5 1015.1,761.3 1019.2,748.8 1053.9,760 1026.2,727.6 1030.3,715 
			1083.2,732.2 1079.3,744.7 1044.9,733.6 1072.2,765.9 		"/>
		<polyline class="st12" points="1004.1,785.8 1009.7,773.8 1060.3,797.2 1044.5,831.2 1034.8,826.7 1044.9,804.7 1004.1,785.8 		
			"/>
		<path class="st12" d="M1026.2,863l-58.8-10.4l7.3-12.1l10.8,2.2l10.4-17.4l-7.2-8.4l7.2-12l37,46.6L1026.2,863z M995,845.1
			l21.9,4.7l-14.5-17.2L995,845.1"/>
	</g>
	<g>
		<path class="st12" d="M723.3,441.2c0,0-4.5,0-14.9-1.1c-10.4-1.1-11.7-2.8-12.7-5.5c-1.1-2.7-9.4,2.7-10.5,0
			c-1-2.7-1.5-10.5,1.7-14.9c3.2-4.5,3.8-10.5,12.2-10.5c8.1,0,25.4-2.8,26.5,0.6c1.1,3.2,6.6,8.2,6.1,9.9c-0.6,1.7-5,10.5-7.2,10.5
			c-2.2,0-1.1,4.9-0.6,7.1C724.5,439.5,723.3,441.2,723.3,441.2"/>
		<path class="st12" d="M816.8,415.8c-3.4-1.1-3.8-5-3.8-8.8c0-3.9-3.9-9.4,6-8.3c9.9,1.1,17.1,5.5,15.5,10.1
			c-1.8,4.3-12.2,12-13.8,11.6C819,419.7,816.8,415.8,816.8,415.8"/>
		<path class="st12" d="M581.3,418.6c-5.7-9.4-17.8-11.1-17.8-11.1s-7.8-1.7-8.8-6.7c-1.2-4.9,0.5-13.2,0.5-17.1
			c0-3.9,3.4-7.8,7.7-5c4.5,2.9,14,6.7,17.2,8.4c3.4,1.6,3.9-2.8,6.1,6.5c2.2,9.4,4,11.6,3.2,16.2c-0.5,4.3-0.5,10.5-3.9,9.3
			C582.4,418,581.3,418.6,581.3,418.6"/>
		<path class="st12" d="M497.1,402c0.6-3.9,0.6-8.8,0.6-8.8s8.4-6,10.6,0.5c2.2,6.7,9.4,4,1,12.3c-8.2,8.2-10.5,4.9-11.1,2.9
			C497.6,406.3,497.1,402,497.1,402"/>
		<path class="st12" d="M473.4,383.2c0,0-0.6-5,1-6.7c1.8-1.7,6.2-6.6,8.4-1.1c2.1,5.5,4.5,7.8,2.7,11.1c-1.7,3.3-2.7,3.3-5.4,2.2
			C477.3,387.6,473.4,383.2,473.4,383.2"/>
	</g>
	<g>
		<linearGradient id="SVGID_12_" gradientUnits="userSpaceOnUse" x1="337.4743" y1="294.3547" x2="982.6627" y2="518.3502">
			<stop  offset="0" style="stop-color:#FFF200"/>
			<stop  offset="6.843999e-02" style="stop-color:#F3B720"/>
			<stop  offset="0.1152" style="stop-color:#EC9434"/>
			<stop  offset="0.2182" style="stop-color:#EC9434"/>
			<stop  offset="0.2595" style="stop-color:#ED9832"/>
			<stop  offset="0.3044" style="stop-color:#F0A62A"/>
			<stop  offset="0.3511" style="stop-color:#F4BB1E"/>
			<stop  offset="0.3986" style="stop-color:#FADA0E"/>
			<stop  offset="0.4303" style="stop-color:#FFF200"/>
			<stop  offset="0.4389" style="stop-color:#FFF203"/>
			<stop  offset="0.4454" style="stop-color:#FFF20D"/>
			<stop  offset="0.4512" style="stop-color:#FFF31D"/>
			<stop  offset="0.4565" style="stop-color:#FFF333"/>
			<stop  offset="0.4616" style="stop-color:#FFF451"/>
			<stop  offset="0.4664" style="stop-color:#FFF574"/>
			<stop  offset="0.4667" style="stop-color:#FFF577"/>
			<stop  offset="0.4739" style="stop-color:#FFF574"/>
			<stop  offset="0.4793" style="stop-color:#FFF56A"/>
			<stop  offset="0.4841" style="stop-color:#FFF45A"/>
			<stop  offset="0.4885" style="stop-color:#FFF444"/>
			<stop  offset="0.4927" style="stop-color:#FFF326"/>
			<stop  offset="0.4967" style="stop-color:#FFF203"/>
			<stop  offset="0.497" style="stop-color:#FFF200"/>
			<stop  offset="0.5362" style="stop-color:#FAD90E"/>
			<stop  offset="0.6196" style="stop-color:#ED9832"/>
			<stop  offset="0.6242" style="stop-color:#EC9434"/>
			<stop  offset="0.6479" style="stop-color:#EE9830"/>
			<stop  offset="0.6737" style="stop-color:#F3A625"/>
			<stop  offset="0.7003" style="stop-color:#FBBB13"/>
			<stop  offset="0.7091" style="stop-color:#FEC40B"/>
			<stop  offset="0.7636" style="stop-color:#FFF200"/>
			<stop  offset="0.7845" style="stop-color:#FFEF01"/>
			<stop  offset="0.8001" style="stop-color:#FFE503"/>
			<stop  offset="0.814" style="stop-color:#FED507"/>
			<stop  offset="0.8242" style="stop-color:#FEC40B"/>
			<stop  offset="0.903" style="stop-color:#EC9434"/>
			<stop  offset="0.9129" style="stop-color:#EF9C2D"/>
			<stop  offset="0.9529" style="stop-color:#FAB914"/>
			<stop  offset="0.9758" style="stop-color:#FEC40B"/>
		</linearGradient>
		<path class="st13" d="M731.6,410.9c-1-1.3-1.8-2.5-1.8-2.7h0c-0.6-1.6-1.7-2.6-2.6-3.2c-1.4-0.9-2.7-1.1-4-1.3
			c-1.4-0.2-2.7-0.2-4.2-0.2c-6.5,0-15.2,1.1-19.8,1.1c-2.6,0-5,0.5-7,1.5c-3,1.5-4.8,4-6,5.9c-1.2,2-2,3.8-2.9,5h0.1
			c-2.8,3.9-3.4,8.3-3.4,12c0,2.8,0.3,5.2,1.1,7.2l0,0.1l0,0.1c0.5,1.3,1.7,2.4,2.9,2.9c1.1,0.5,2.1,0.6,2.9,0.6
			c2.1-0.1,3.6-0.6,5-1l1-0.3c0.2,0.2,0.2,0.3,0.3,0.5c1.3,1.7,3.3,2.9,5.6,3.7c2.4,0.8,5.2,1.3,9.3,1.7c10.6,1.1,15.2,1.1,15.4,1.1
			h2.4l1.3-2c0.3-0.4,1.4-2.1,1.5-5.1l-0.3-2.3h0c-0.2-0.8-0.4-1.8-0.5-2.7c0.1,0,0.3-0.2,0.3-0.2c1.3-1,2.1-2,2.9-3.1
			c1.1-1.6,2.2-3.5,3-5.2c0.9-1.7,1.5-2.9,1.9-4V421l0-0.1l0.2-1.5c-0.2-2.5-1-3.3-1.5-4.3C733.6,413.6,732.5,412.2,731.6,410.9z
			 M700.6,434l-0.4-0.2l-0.3-0.7l0,0v0c-0.5-1.3-1.7-2.5-2.8-3c-1.1-0.5-2.1-0.6-2.9-0.6c-2.1,0-3.6,0.6-5,1l-0.2,0.1
			c0-0.4-0.1-0.8-0.1-1.3c0-2.6,0.6-5.4,1.6-6.6v0l0,0c2.1-2.9,3.1-5.6,4.1-6.8l1.4-1.3c0.6-0.3,1.5-0.5,3-0.5
			c5.6,0,14.2-1.1,19.8-1.1c1.4,0,2.6,0.1,3.2,0.2c1,1.9,2.2,3.6,3.3,5l1.4,1.8l-0.2,0.4c-0.8,1.4-1.8,3.4-2.7,4.8l-1.1,1.4
			l-0.1,0.1h0c-0.5,0.2-1,0.1-1.3,0.4c-1.5,1-2.1,2.3-2.4,3.3c-0.3,1-0.3,1.9-0.3,2.6c0,1.5,0.2,2.8,0.4,3.9
			c-2.3-0.1-5.6-0.4-10.2-0.8C703.8,435.1,701.3,434.4,700.6,434z"/>
		<linearGradient id="SVGID_13_" gradientUnits="userSpaceOnUse" x1="353.9476" y1="247.2098" x2="998.8349" y2="471.1008">
			<stop  offset="0" style="stop-color:#FFF200"/>
			<stop  offset="6.843999e-02" style="stop-color:#F3B720"/>
			<stop  offset="0.1152" style="stop-color:#EC9434"/>
			<stop  offset="0.2182" style="stop-color:#EC9434"/>
			<stop  offset="0.2595" style="stop-color:#ED9832"/>
			<stop  offset="0.3044" style="stop-color:#F0A62A"/>
			<stop  offset="0.3511" style="stop-color:#F4BB1E"/>
			<stop  offset="0.3986" style="stop-color:#FADA0E"/>
			<stop  offset="0.4303" style="stop-color:#FFF200"/>
			<stop  offset="0.4389" style="stop-color:#FFF203"/>
			<stop  offset="0.4454" style="stop-color:#FFF20D"/>
			<stop  offset="0.4512" style="stop-color:#FFF31D"/>
			<stop  offset="0.4565" style="stop-color:#FFF333"/>
			<stop  offset="0.4616" style="stop-color:#FFF451"/>
			<stop  offset="0.4664" style="stop-color:#FFF574"/>
			<stop  offset="0.4667" style="stop-color:#FFF577"/>
			<stop  offset="0.4739" style="stop-color:#FFF574"/>
			<stop  offset="0.4793" style="stop-color:#FFF56A"/>
			<stop  offset="0.4841" style="stop-color:#FFF45A"/>
			<stop  offset="0.4885" style="stop-color:#FFF444"/>
			<stop  offset="0.4927" style="stop-color:#FFF326"/>
			<stop  offset="0.4967" style="stop-color:#FFF203"/>
			<stop  offset="0.497" style="stop-color:#FFF200"/>
			<stop  offset="0.5362" style="stop-color:#FAD90E"/>
			<stop  offset="0.6196" style="stop-color:#ED9832"/>
			<stop  offset="0.6242" style="stop-color:#EC9434"/>
			<stop  offset="0.6479" style="stop-color:#EE9830"/>
			<stop  offset="0.6737" style="stop-color:#F3A625"/>
			<stop  offset="0.7003" style="stop-color:#FBBB13"/>
			<stop  offset="0.7091" style="stop-color:#FEC40B"/>
			<stop  offset="0.7636" style="stop-color:#FFF200"/>
			<stop  offset="0.7845" style="stop-color:#FFEF01"/>
			<stop  offset="0.8001" style="stop-color:#FFE503"/>
			<stop  offset="0.814" style="stop-color:#FED507"/>
			<stop  offset="0.8242" style="stop-color:#FEC40B"/>
			<stop  offset="0.903" style="stop-color:#EC9434"/>
			<stop  offset="0.9129" style="stop-color:#EF9C2D"/>
			<stop  offset="0.9529" style="stop-color:#FAB914"/>
			<stop  offset="0.9758" style="stop-color:#FEC40B"/>
		</linearGradient>
		<path class="st14" d="M837.1,401.6c-3.9-4.4-10.1-6.5-17.5-7.5c-1-0.1-2-0.2-2.8-0.2c-2.3,0-4.5,0.3-6.5,1.9
			c-1,0.8-1.7,1.9-2.1,2.9c-0.4,1-0.4,2-0.4,2.8c0,1.5,0.3,2.6,0.4,3.6l0.3,1.8c0,2.1,0.1,4.4,0.9,6.9c0.6,1.9,2.1,4.1,4.3,5.4
			c0.3,0.4,0.5,0.8,0.8,1.2l1.7,2c0.7,0.7,1.5,1.5,3.1,2.1l0.1,0l0.1,0l1.5,0.2c1.5,0,2.2-0.4,2.9-0.7c2.5-1.1,5.3-3.1,8.1-5.5
			c2.8-2.5,5.3-4.8,6.8-8.1l0.1-0.1l0.1-0.2l0.4-2.7C839.3,405.2,838.3,403.1,837.1,401.6z M823.1,414l-1.4,0.9l-0.3-0.3l-0.5-0.7
			l-0.1-0.3l-0.9-1.5l-1.7-0.5l-0.3-0.5c-0.3-0.8-0.4-2.3-0.4-4c0-1.5-0.3-2.7-0.4-3.6L817,403l1.6,0.1c4,0.4,7.4,1.5,9.5,2.7
			c1.1,0.6,1.8,1.2,2.1,1.5v0c-0.3,0.4-0.7,1-1.4,1.7C827.2,410.8,824.9,412.6,823.1,414z"/>
		<linearGradient id="SVGID_14_" gradientUnits="userSpaceOnUse" x1="584.0937" y1="423.3363" x2="584.1445" y2="423.3539">
			<stop  offset="0" style="stop-color:#FFF200"/>
			<stop  offset="6.843999e-02" style="stop-color:#F3B720"/>
			<stop  offset="0.1152" style="stop-color:#EC9434"/>
			<stop  offset="0.2182" style="stop-color:#EC9434"/>
			<stop  offset="0.2595" style="stop-color:#ED9832"/>
			<stop  offset="0.3044" style="stop-color:#F0A62A"/>
			<stop  offset="0.3511" style="stop-color:#F4BB1E"/>
			<stop  offset="0.3986" style="stop-color:#FADA0E"/>
			<stop  offset="0.4303" style="stop-color:#FFF200"/>
			<stop  offset="0.4389" style="stop-color:#FFF203"/>
			<stop  offset="0.4454" style="stop-color:#FFF20D"/>
			<stop  offset="0.4512" style="stop-color:#FFF31D"/>
			<stop  offset="0.4565" style="stop-color:#FFF333"/>
			<stop  offset="0.4616" style="stop-color:#FFF451"/>
			<stop  offset="0.4664" style="stop-color:#FFF574"/>
			<stop  offset="0.4667" style="stop-color:#FFF577"/>
			<stop  offset="0.4739" style="stop-color:#FFF574"/>
			<stop  offset="0.4793" style="stop-color:#FFF56A"/>
			<stop  offset="0.4841" style="stop-color:#FFF45A"/>
			<stop  offset="0.4885" style="stop-color:#FFF444"/>
			<stop  offset="0.4927" style="stop-color:#FFF326"/>
			<stop  offset="0.4967" style="stop-color:#FFF203"/>
			<stop  offset="0.497" style="stop-color:#FFF200"/>
			<stop  offset="0.5362" style="stop-color:#FAD90E"/>
			<stop  offset="0.6196" style="stop-color:#ED9832"/>
			<stop  offset="0.6242" style="stop-color:#EC9434"/>
			<stop  offset="0.6479" style="stop-color:#EE9830"/>
			<stop  offset="0.6737" style="stop-color:#F3A625"/>
			<stop  offset="0.7003" style="stop-color:#FBBB13"/>
			<stop  offset="0.7091" style="stop-color:#FEC40B"/>
			<stop  offset="0.7636" style="stop-color:#FFF200"/>
			<stop  offset="0.7845" style="stop-color:#FFEF01"/>
			<stop  offset="0.8001" style="stop-color:#FFE503"/>
			<stop  offset="0.814" style="stop-color:#FED507"/>
			<stop  offset="0.8242" style="stop-color:#FEC40B"/>
			<stop  offset="0.903" style="stop-color:#EC9434"/>
			<stop  offset="0.9129" style="stop-color:#EF9C2D"/>
			<stop  offset="0.9529" style="stop-color:#FAB914"/>
			<stop  offset="0.9758" style="stop-color:#FEC40B"/>
		</linearGradient>
		<path class="st15" d="M584.1,423.3C584.1,423.3,584.1,423.3,584.1,423.3L584.1,423.3L584.1,423.3z"/>
		<linearGradient id="SVGID_15_" gradientUnits="userSpaceOnUse" x1="330.3997" y1="315.5016" x2="975.1967" y2="539.3612">
			<stop  offset="0" style="stop-color:#FFF200"/>
			<stop  offset="6.843999e-02" style="stop-color:#F3B720"/>
			<stop  offset="0.1152" style="stop-color:#EC9434"/>
			<stop  offset="0.2182" style="stop-color:#EC9434"/>
			<stop  offset="0.2595" style="stop-color:#ED9832"/>
			<stop  offset="0.3044" style="stop-color:#F0A62A"/>
			<stop  offset="0.3511" style="stop-color:#F4BB1E"/>
			<stop  offset="0.3986" style="stop-color:#FADA0E"/>
			<stop  offset="0.4303" style="stop-color:#FFF200"/>
			<stop  offset="0.4389" style="stop-color:#FFF203"/>
			<stop  offset="0.4454" style="stop-color:#FFF20D"/>
			<stop  offset="0.4512" style="stop-color:#FFF31D"/>
			<stop  offset="0.4565" style="stop-color:#FFF333"/>
			<stop  offset="0.4616" style="stop-color:#FFF451"/>
			<stop  offset="0.4664" style="stop-color:#FFF574"/>
			<stop  offset="0.4667" style="stop-color:#FFF577"/>
			<stop  offset="0.4739" style="stop-color:#FFF574"/>
			<stop  offset="0.4793" style="stop-color:#FFF56A"/>
			<stop  offset="0.4841" style="stop-color:#FFF45A"/>
			<stop  offset="0.4885" style="stop-color:#FFF444"/>
			<stop  offset="0.4927" style="stop-color:#FFF326"/>
			<stop  offset="0.4967" style="stop-color:#FFF203"/>
			<stop  offset="0.497" style="stop-color:#FFF200"/>
			<stop  offset="0.5362" style="stop-color:#FAD90E"/>
			<stop  offset="0.6196" style="stop-color:#ED9832"/>
			<stop  offset="0.6242" style="stop-color:#EC9434"/>
			<stop  offset="0.6479" style="stop-color:#EE9830"/>
			<stop  offset="0.6737" style="stop-color:#F3A625"/>
			<stop  offset="0.7003" style="stop-color:#FBBB13"/>
			<stop  offset="0.7091" style="stop-color:#FEC40B"/>
			<stop  offset="0.7636" style="stop-color:#FFF200"/>
			<stop  offset="0.7845" style="stop-color:#FFEF01"/>
			<stop  offset="0.8001" style="stop-color:#FFE503"/>
			<stop  offset="0.814" style="stop-color:#FED507"/>
			<stop  offset="0.8242" style="stop-color:#FEC40B"/>
			<stop  offset="0.903" style="stop-color:#EC9434"/>
			<stop  offset="0.9129" style="stop-color:#EF9C2D"/>
			<stop  offset="0.9529" style="stop-color:#FAB914"/>
			<stop  offset="0.9758" style="stop-color:#FEC40B"/>
		</linearGradient>
		<path class="st16" d="M592.9,401.2c-0.6-2.2-1.4-4.8-2.3-8.6v0v0c-0.7-2.9-1.2-4.6-2.1-6.2c-0.5-0.8-1.1-1.7-2.2-2.4
			c-1.1-0.8-2.4-1-3.2-0.9c-0.9,0-1.2,0.1-1.3,0.1c-1.9-1-4.8-2.3-8-3.7c-3.3-1.5-6.7-3.2-8.5-4.3c-1.6-1.1-3.5-1.7-5.3-1.7
			c-3,0-5.6,1.7-7.1,3.6c-1.5,2-2.2,4.4-2.2,6.9c0,2-0.9,7.6-1,12.7c0,1.8,0.1,3.5,0.5,5.3h0c0,0,0,0.1,0.1,0.1c0,0,0,0.1,0,0.1h0
			c0.5,2.2,1.7,4,3,5.3c4.1,3.8,8.9,4.5,9.2,4.7l0.1,0.1h0.2h0.1c0.4,0.1,3.1,0.6,6.1,2c3.1,1.4,6.3,3.6,8.3,7l2.2,3.6l3-1.6
			c0.3,0,0.7,0.1,1.5,0.4h0l2.2,0.4c1.2,0,2.4-0.3,3.3-1c1.7-1.1,2.4-2.4,2.8-3.5c0.6-1.7,0.8-3.3,1.1-4.8c0.2-1.5,0.3-3,0.4-4.1
			l0,0l0.2-2.4C594.1,405.4,593.6,403.4,592.9,401.2z M572.1,405.3c-3.9-1.6-6.9-2.1-7.6-2.3l-0.2,0c-0.5-0.2-2.1-0.6-3.3-1.3
			c-1.3-0.8-1.9-1.5-1.9-1.8v-0.1v-0.1c-0.2-0.8-0.3-2-0.3-3.3c0-4,0.9-9,1-12.7l0.4-1.4l0,0l0.3,0.1c2.6,1.7,6.2,3.4,9.6,5
			c3.3,1.5,6.5,3,7.9,3.6l0.1,0l0.1,0c1,0.5,2,0.6,2.9,0.7c0.2,0.7,0.5,1.5,0.8,2.8l0,0c1,4.1,1.9,7,2.4,9c0.6,2.1,0.8,3.2,0.8,4.2
			l-0.1,1.2l0,0.1v0c-0.2,1.9-0.4,3.7-0.6,5.1c-0.2,0-0.6-0.1-0.8-0.2C580.2,409.7,575.8,406.9,572.1,405.3z"/>
		<linearGradient id="SVGID_16_" gradientUnits="userSpaceOnUse" x1="322.4986" y1="338.2751" x2="967.3339" y2="562.1481">
			<stop  offset="0" style="stop-color:#FFF200"/>
			<stop  offset="6.843999e-02" style="stop-color:#F3B720"/>
			<stop  offset="0.1152" style="stop-color:#EC9434"/>
			<stop  offset="0.2182" style="stop-color:#EC9434"/>
			<stop  offset="0.2595" style="stop-color:#ED9832"/>
			<stop  offset="0.3044" style="stop-color:#F0A62A"/>
			<stop  offset="0.3511" style="stop-color:#F4BB1E"/>
			<stop  offset="0.3986" style="stop-color:#FADA0E"/>
			<stop  offset="0.4303" style="stop-color:#FFF200"/>
			<stop  offset="0.4389" style="stop-color:#FFF203"/>
			<stop  offset="0.4454" style="stop-color:#FFF20D"/>
			<stop  offset="0.4512" style="stop-color:#FFF31D"/>
			<stop  offset="0.4565" style="stop-color:#FFF333"/>
			<stop  offset="0.4616" style="stop-color:#FFF451"/>
			<stop  offset="0.4664" style="stop-color:#FFF574"/>
			<stop  offset="0.4667" style="stop-color:#FFF577"/>
			<stop  offset="0.4739" style="stop-color:#FFF574"/>
			<stop  offset="0.4793" style="stop-color:#FFF56A"/>
			<stop  offset="0.4841" style="stop-color:#FFF45A"/>
			<stop  offset="0.4885" style="stop-color:#FFF444"/>
			<stop  offset="0.4927" style="stop-color:#FFF326"/>
			<stop  offset="0.4967" style="stop-color:#FFF203"/>
			<stop  offset="0.497" style="stop-color:#FFF200"/>
			<stop  offset="0.5362" style="stop-color:#FAD90E"/>
			<stop  offset="0.6196" style="stop-color:#ED9832"/>
			<stop  offset="0.6242" style="stop-color:#EC9434"/>
			<stop  offset="0.6479" style="stop-color:#EE9830"/>
			<stop  offset="0.6737" style="stop-color:#F3A625"/>
			<stop  offset="0.7003" style="stop-color:#FBBB13"/>
			<stop  offset="0.7091" style="stop-color:#FEC40B"/>
			<stop  offset="0.7636" style="stop-color:#FFF200"/>
			<stop  offset="0.7845" style="stop-color:#FFEF01"/>
			<stop  offset="0.8001" style="stop-color:#FFE503"/>
			<stop  offset="0.814" style="stop-color:#FED507"/>
			<stop  offset="0.8242" style="stop-color:#FEC40B"/>
			<stop  offset="0.903" style="stop-color:#EC9434"/>
			<stop  offset="0.9129" style="stop-color:#EF9C2D"/>
			<stop  offset="0.9529" style="stop-color:#FAB914"/>
			<stop  offset="0.9758" style="stop-color:#FEC40B"/>
		</linearGradient>
		<path class="st17" d="M512.5,392.2c-0.7-1.9-1.8-3.6-3.4-4.7c-1.6-1.1-3.4-1.4-4.9-1.4c-2.8,0-4.8,1-6.5,1.8
			c-1.6,0.8-2.6,1.6-2.7,1.6l-1.9,1.3v2.4c0,0,0,1.2-0.1,2.8c-0.1,1.6-0.2,3.7-0.4,5.4l-0.1,0.6l0,0.6c0.1,0.1,0.5,4.4,1.2,7.3v0.1
			l0,0.1c0.3,1,0.7,2.2,1.9,3.5c1.1,1.3,3.2,2.4,5.3,2.3c4-0.2,7-2.3,11.4-6.6c1.6-1.6,2.7-2.8,3.6-4c0.9-1.3,1.7-2.7,1.7-4.7
			c0-1.9-1-3.6-1.7-4.4C513.6,393.7,513.1,393.9,512.5,392.2z M506.1,402.6L506.1,402.6c-1.7,1.7-3,2.6-3.8,3.2
			c-0.1-0.7-0.2-1.4-0.3-2.1c-0.1-0.9-0.2-1.5-0.3-1.9c0.3-2.2,0.4-4.4,0.5-6.1l0.1-0.1l1.8-0.5c0.9,2.7,2.6,4.5,3.8,5.6
			C507.4,401.3,506.8,401.9,506.1,402.6L506.1,402.6z"/>
		<linearGradient id="SVGID_17_" gradientUnits="userSpaceOnUse" x1="512.4059" y1="409.0413" x2="512.4427" y2="409.0541">
			<stop  offset="0" style="stop-color:#FFF200"/>
			<stop  offset="6.843999e-02" style="stop-color:#F3B720"/>
			<stop  offset="0.1152" style="stop-color:#EC9434"/>
			<stop  offset="0.2182" style="stop-color:#EC9434"/>
			<stop  offset="0.2595" style="stop-color:#ED9832"/>
			<stop  offset="0.3044" style="stop-color:#F0A62A"/>
			<stop  offset="0.3511" style="stop-color:#F4BB1E"/>
			<stop  offset="0.3986" style="stop-color:#FADA0E"/>
			<stop  offset="0.4303" style="stop-color:#FFF200"/>
			<stop  offset="0.4389" style="stop-color:#FFF203"/>
			<stop  offset="0.4454" style="stop-color:#FFF20D"/>
			<stop  offset="0.4512" style="stop-color:#FFF31D"/>
			<stop  offset="0.4565" style="stop-color:#FFF333"/>
			<stop  offset="0.4616" style="stop-color:#FFF451"/>
			<stop  offset="0.4664" style="stop-color:#FFF574"/>
			<stop  offset="0.4667" style="stop-color:#FFF577"/>
			<stop  offset="0.4739" style="stop-color:#FFF574"/>
			<stop  offset="0.4793" style="stop-color:#FFF56A"/>
			<stop  offset="0.4841" style="stop-color:#FFF45A"/>
			<stop  offset="0.4885" style="stop-color:#FFF444"/>
			<stop  offset="0.4927" style="stop-color:#FFF326"/>
			<stop  offset="0.4967" style="stop-color:#FFF203"/>
			<stop  offset="0.497" style="stop-color:#FFF200"/>
			<stop  offset="0.5362" style="stop-color:#FAD90E"/>
			<stop  offset="0.6196" style="stop-color:#ED9832"/>
			<stop  offset="0.6242" style="stop-color:#EC9434"/>
			<stop  offset="0.6479" style="stop-color:#EE9830"/>
			<stop  offset="0.6737" style="stop-color:#F3A625"/>
			<stop  offset="0.7003" style="stop-color:#FBBB13"/>
			<stop  offset="0.7091" style="stop-color:#FEC40B"/>
			<stop  offset="0.7636" style="stop-color:#FFF200"/>
			<stop  offset="0.7845" style="stop-color:#FFEF01"/>
			<stop  offset="0.8001" style="stop-color:#FFE503"/>
			<stop  offset="0.814" style="stop-color:#FED507"/>
			<stop  offset="0.8242" style="stop-color:#FEC40B"/>
			<stop  offset="0.903" style="stop-color:#EC9434"/>
			<stop  offset="0.9129" style="stop-color:#EF9C2D"/>
			<stop  offset="0.9529" style="stop-color:#FAB914"/>
			<stop  offset="0.9758" style="stop-color:#FEC40B"/>
		</linearGradient>
		<path class="st18" d="M512.4,409.1L512.4,409.1L512.4,409.1C512.4,409.1,512.4,409.1,512.4,409.1L512.4,409.1z"/>
		<linearGradient id="SVGID_18_" gradientUnits="userSpaceOnUse" x1="326.2168" y1="327.3299" x2="971.4398" y2="551.3374">
			<stop  offset="0" style="stop-color:#FFF200"/>
			<stop  offset="6.843999e-02" style="stop-color:#F3B720"/>
			<stop  offset="0.1152" style="stop-color:#EC9434"/>
			<stop  offset="0.2182" style="stop-color:#EC9434"/>
			<stop  offset="0.2595" style="stop-color:#ED9832"/>
			<stop  offset="0.3044" style="stop-color:#F0A62A"/>
			<stop  offset="0.3511" style="stop-color:#F4BB1E"/>
			<stop  offset="0.3986" style="stop-color:#FADA0E"/>
			<stop  offset="0.4303" style="stop-color:#FFF200"/>
			<stop  offset="0.4389" style="stop-color:#FFF203"/>
			<stop  offset="0.4454" style="stop-color:#FFF20D"/>
			<stop  offset="0.4512" style="stop-color:#FFF31D"/>
			<stop  offset="0.4565" style="stop-color:#FFF333"/>
			<stop  offset="0.4616" style="stop-color:#FFF451"/>
			<stop  offset="0.4664" style="stop-color:#FFF574"/>
			<stop  offset="0.4667" style="stop-color:#FFF577"/>
			<stop  offset="0.4739" style="stop-color:#FFF574"/>
			<stop  offset="0.4793" style="stop-color:#FFF56A"/>
			<stop  offset="0.4841" style="stop-color:#FFF45A"/>
			<stop  offset="0.4885" style="stop-color:#FFF444"/>
			<stop  offset="0.4927" style="stop-color:#FFF326"/>
			<stop  offset="0.4967" style="stop-color:#FFF203"/>
			<stop  offset="0.497" style="stop-color:#FFF200"/>
			<stop  offset="0.5362" style="stop-color:#FAD90E"/>
			<stop  offset="0.6196" style="stop-color:#ED9832"/>
			<stop  offset="0.6242" style="stop-color:#EC9434"/>
			<stop  offset="0.6479" style="stop-color:#EE9830"/>
			<stop  offset="0.6737" style="stop-color:#F3A625"/>
			<stop  offset="0.7003" style="stop-color:#FBBB13"/>
			<stop  offset="0.7091" style="stop-color:#FEC40B"/>
			<stop  offset="0.7636" style="stop-color:#FFF200"/>
			<stop  offset="0.7845" style="stop-color:#FFEF01"/>
			<stop  offset="0.8001" style="stop-color:#FFE503"/>
			<stop  offset="0.814" style="stop-color:#FED507"/>
			<stop  offset="0.8242" style="stop-color:#FEC40B"/>
			<stop  offset="0.903" style="stop-color:#EC9434"/>
			<stop  offset="0.9129" style="stop-color:#EF9C2D"/>
			<stop  offset="0.9529" style="stop-color:#FAB914"/>
			<stop  offset="0.9758" style="stop-color:#FEC40B"/>
		</linearGradient>
		<path class="st19" d="M489.1,378.6c-0.7-1.5-1.4-3-2.1-4.8v-0.1l0,0c-0.6-1.4-1.4-2.7-2.6-3.7c-1.2-1.1-2.9-1.6-4.4-1.6
			c-2.9,0.1-4.6,1.4-5.9,2.4c-1.3,1-2.3,2-2.8,2.5l-0.1,0.1l-0.1,0.1c-1.5,1.6-1.8,3.1-2,4.3c-0.3,1.3-0.3,2.4-0.3,3.4
			c0,1.4,0.1,2.4,0.2,2.6l0.2,1.4l0.9,1.1c0.1,0.1,1.1,1.2,2.6,2.6c1.6,1.4,3.3,3,5.8,4.1l0,0h0c1.1,0.4,2.3,1,4.1,1
			c1.6,0.1,3.6-0.8,4.6-2c1.1-1.1,1.7-2.1,2.3-3.3l0,0c0,0,0,0,0,0c0,0,0,0,0,0l0,0c0.7-1.3,1.2-2.9,1.2-4.5
			C490.6,381.8,489.8,380.1,489.1,378.6z M477.8,381.2v-0.1l0.2-1.7v-0.1l1.2-1.1c0.7,1.7,1.4,3.1,1.8,4c0.6,1.2,0.7,1.8,0.7,1.8
			l-0.1,0.2c-0.5-0.3-1.7-1.2-2.7-2.1L477.8,381.2z"/>
	</g>
	<path class="st12" d="M998.7,599h-9c0,106.2-43.3,202.2-113.2,271.8c-70,69.6-166.6,112.6-273.5,112.6
		c-106.8,0-203.3-43-273.4-112.6C259.7,801.2,216.4,705.1,216.4,599c0-106.2,43.3-202.2,113.2-271.8
		c70-69.6,166.6-112.6,273.4-112.6c106.8,0,203.5,43,273.5,112.6c69.9,69.6,113.2,165.6,113.2,271.8H998.7h9
		c0-111.1-45.3-211.8-118.5-284.6C816,241.5,714.7,196.5,603,196.5c-223.4,0-404.6,180.1-404.6,402.4
		c0,222.3,181.2,402.5,404.6,402.5c111.7,0,213-45,286.2-117.9c73.2-72.8,118.5-173.5,118.5-284.6H998.7"/>
</g>
</svg>
